<?xml version="1.0" standalone="no"?>
<!DOCTYPE svg PUBLIC "-//W3C//DTD SVG 1.1//EN" "http://www.w3.org/Graphics/SVG/1.1/DTD/svg11.dtd" >
<svg xmlns="http://www.w3.org/2000/svg" xmlns:xlink="http://www.w3.org/1999/xlink" version="1.1">
<metadata>
Created by FontForge 20170731 at Wed Jan 19 21:51:06 2022
 By Aleksey,,,
2014 published by FontShop International GmbH
</metadata>
<defs>
<font id="FranziskaPro-Black" horiz-adv-x="1259" >
  <font-face 
    font-family="FranziskaPro-Black"
    font-weight="900"
    font-stretch="normal"
    units-per-em="2048"
    panose-1="2 1 10 4 5 1 1 1 1 2"
    ascent="1612"
    descent="-436"
    x-height="1044"
    cap-height="1362"
    bbox="-1157 -569 3559 2003"
    underline-thickness="184"
    underline-position="-388"
    unicode-range="U+000D-1F44E"
  />
<missing-glyph horiz-adv-x="1525" 
d="M1311 1362v-1362h-1096v1362h1096zM1122 1188h-604l604 -879v879zM403 174h619l-619 897v-897z" />
    <glyph glyph-name="T_h" unicode="Th" horiz-adv-x="2459" 
d="M2454 133v-133h-601v133l66 51v504q0 63 -25 93t-86 30q-64 0 -135 -39v-618l80 -21v-133h-590v133l97 51v987l-322 17v-1020l113 -21v-147h-713v147l151 52v991l-149 -6l-72 -262h-223q-29 132 -29 278q0 92 13 162h1237q7 77 18 133q160 41 342 47l47 -29v-202
q0 -41 -1 -79.5t-3.5 -75.5t-4.5 -63.5t-6 -62t-6 -51t-6.5 -50t-5.5 -40.5h29q57 100 151 151.5t208 51.5q153 0 229 -86.5t76 -235.5v-616z" />
    <glyph glyph-name="T_k" unicode="Tk" horiz-adv-x="2453" 
d="M2443 166v-123q-61 -35 -117.5 -52.5t-132.5 -17.5q-100 0 -162.5 35t-103.5 115q-41 81 -121 342h-133v-311l80 -21v-133h-590v133l97 51v987l-322 17v-1020l113 -21v-147h-713v147l151 52v991l-149 -6l-72 -262h-223q-29 132 -29 278q0 92 13 162h1237q7 77 18 133
q160 41 342 47l47 -29v-878h125q160 168 234 258l-136 18v133h529v-133l-180 -47q-73 -70 -150 -135q38 -69 125 -247t137 -273z" />
    <glyph glyph-name="T_l" unicode="Tl" horiz-adv-x="1767" 
d="M1753 133v-133h-590v133l97 51v987l-322 17v-1020l113 -21v-147h-713v147l151 52v991l-149 -6l-72 -262h-223q-29 132 -29 278q0 92 13 162h1237q7 77 18 133q160 41 342 47l47 -29v-1359z" />
    <glyph glyph-name="Tbar_h" unicode="&#x166;h" horiz-adv-x="2459" 
d="M2454 133v-133h-601v133l66 51v504q0 63 -25 93t-86 30q-64 0 -135 -39v-618l80 -21v-133h-590v133l97 51v987l-322 17v-500h219v-170h-219v-350l113 -21v-147h-713v147l151 52v319h-221v170h221v502l-149 -6l-72 -262h-223q-29 132 -29 278q0 92 13 162h1237
q7 77 18 133q160 41 342 47l47 -29v-202q0 -41 -1 -79.5t-3.5 -75.5t-4.5 -63.5t-6 -62t-6 -51t-6.5 -50t-5.5 -40.5h29q57 100 151 151.5t208 51.5q153 0 229 -86.5t76 -235.5v-616z" />
    <glyph glyph-name="Tcaron_h" unicode="&#x164;h" horiz-adv-x="2459" 
d="M2454 133v-133h-601v133l66 51v504q0 63 -25 93t-86 30q-64 0 -135 -39v-618l80 -21v-133h-590v133l97 51v987l-322 17v-1020l113 -21v-147h-713v147l151 52v991l-149 -6l-72 -262h-223q-29 132 -29 278q0 92 13 162h1237q7 77 18 133q160 41 342 47l47 -29v-202
q0 -41 -1 -79.5t-3.5 -75.5t-4.5 -63.5t-6 -62t-6 -51t-6.5 -50t-5.5 -40.5h29q57 100 151 151.5t208 51.5q153 0 229 -86.5t76 -235.5v-616zM760 1677h22l195 172h149l-313 -389h-250l-260 309l232 115z" />
    <glyph glyph-name="f_b" unicode="fb" horiz-adv-x="2037" 
d="M1614 1092q176 0 264 -134t88 -378q0 -144 -32 -251.5t-104 -189.5t-196.5 -124t-300.5 -42q-221 0 -471 66v1304q-73 13 -131 13q-94 0 -134 -40t-40 -136v-136h137v-170h-137v-720l166 -21v-133h-686v133l106 51v686l-129 31v143l129 37q2 228 130 344.5t378 116.5
q177 0 312 -69q140 60 264 69l49 -29v-202q0 -224 -33 -422h27q59 98 147 150.5t197 52.5zM1370 137q94 0 124 75t30 267q0 140 -12 211.5t-36 96t-71 24.5q-62 0 -129 -39v-618q53 -17 94 -17z" />
    <glyph glyph-name="f_f" unicode="ff" horiz-adv-x="1474" 
d="M1376 1542q184 0 295 -59.5t111 -167.5q0 -78 -70 -141h-264l-25 225h-12q-70 0 -103.5 -32t-33.5 -124v-199h182v-170h-182v-720l166 -21v-133h-645v133l65 49v692h-303v-720l78 -21v-133h-598v133l106 51v686l-129 31v143l129 37q1 227 129.5 344t376.5 117
q217 0 365 -100q126 100 362 100zM557 1044h174l129 37q0 148 55 246q-88 29 -180 29q-98 0 -138 -38.5t-40 -137.5v-136z" />
    <glyph glyph-name="f_f_b" unicode="ffb" horiz-adv-x="2754" 
d="M2331 1092q176 0 264 -134t88 -378q0 -144 -32 -251.5t-104 -189.5t-196.5 -124t-300.5 -42q-221 0 -471 66v1304q-73 13 -131 13q-94 0 -134 -40t-40 -136v-136h137v-170h-137v-720l166 -21v-133h-686v133l106 51v686l-16 4h-287v-720l78 -21v-133h-598v133l106 51v686
l-129 31v143l129 37q1 227 129.5 344t376.5 117q214 0 363 -98q125 98 356 98q176 0 311 -69q140 60 265 69l49 -29v-202q0 -224 -33 -422h27q59 98 147 150.5t197 52.5zM557 1044h174l129 37q0 148 55 246q-88 29 -180 29q-98 0 -138 -38.5t-40 -137.5v-136zM2087 137
q94 0 124 75t30 267q0 140 -12 211.5t-36 96t-71 24.5q-62 0 -129 -39v-618q53 -17 94 -17z" />
    <glyph glyph-name="f_f_h" unicode="ffh" horiz-adv-x="2775" 
d="M2769 133v-133h-598v133l67 51v504q0 62 -25.5 92.5t-86.5 30.5q-66 0 -133 -39v-618l78 -21v-133h-562v133l70 51v1159q-73 13 -131 13q-94 0 -134 -40t-40 -136v-136h158v-170h-158v-720l80 -21v-133h-600v133l106 51v686l-16 4h-287v-720l78 -21v-133h-598v133l106 51
v686l-129 31v143l129 37q1 227 129.5 344t376.5 117q214 0 363 -98q125 98 356 98q176 0 311 -69q140 60 265 69l49 -29v-202q0 -41 -1 -79.5t-3.5 -75.5t-4.5 -63.5t-6 -62t-6 -51t-6.5 -50t-5.5 -40.5h27q57 101 151 152t209 51q153 0 229 -86.5t76 -235.5v-616zM557 1044
h174l129 37q0 148 55 246q-88 29 -180 29q-98 0 -138 -38.5t-40 -137.5v-136z" />
    <glyph glyph-name="f_f_i" unicode="ffi" horiz-adv-x="2125" 
d="M2111 133v-133h-602v133l70 51v643l-90 47h-215v-720l82 -21v-133h-561v133l65 49v688l-16 4h-287v-720l78 -21v-133h-598v133l106 51v686l-129 31v143l129 37q1 227 129.5 344t376.5 117q221 0 367 -102q143 102 440 102q237 0 386 -60t149 -171q0 -40 -19 -81.5
t-51 -68.5h-305l-25 197q-68 6 -112 6q-120 0 -162.5 -47.5t-42.5 -169.5v-103h401l269 41l49 -28v-901zM557 1044h174l129 37q0 148 55 246q-88 29 -180 29q-98 0 -138 -38.5t-40 -137.5v-136z" />
    <glyph glyph-name="f_f_j" unicode="ffj" horiz-adv-x="2109" 
d="M1993 1057v-1022q0 -98 -39.5 -181t-108 -141t-155.5 -96.5t-187 -54.5l-63 65l139 189v1011l-90 47h-215v-720l164 -21v-133h-643v133l65 49v688l-16 4h-287v-720l78 -21v-133h-598v133l106 51v686l-129 31v143l129 37q1 227 129.5 344t376.5 117q221 0 367 -102
q143 102 440 102q237 0 386 -60t149 -171q0 -40 -19 -81.5t-51 -68.5h-305l-25 197q-68 6 -112 6q-120 0 -162.5 -47.5t-42.5 -169.5v-103h401l269 41zM557 1044h174l129 37q0 148 55 246q-88 29 -180 29q-98 0 -138 -38.5t-40 -137.5v-136z" />
    <glyph glyph-name="f_f_k" unicode="ffk" horiz-adv-x="2772" 
d="M2763 166v-123q-61 -35 -117.5 -52.5t-132.5 -17.5q-100 0 -162.5 35t-103.5 115q-41 81 -121 342h-133v-311l96 -21v-133h-580v133l70 51v1159q-73 13 -131 13q-94 0 -134 -40t-40 -136v-136h158v-170h-158v-720l80 -21v-133h-600v133l106 51v686l-16 4h-287v-720
l78 -21v-133h-598v133l106 51v686l-129 31v143l129 37q1 227 129.5 344t376.5 117q214 0 363 -98q125 98 356 98q176 0 311 -69q140 60 265 69l49 -29v-878h125q153 160 233 258l-135 18v133h528v-133l-180 -47q-81 -77 -149 -135q36 -60 76 -139t98 -199.5t88 -181.5z
M557 1044h174l129 37q0 148 55 246q-88 29 -180 29q-98 0 -138 -38.5t-40 -137.5v-136z" />
    <glyph glyph-name="f_f_l" unicode="ffl" horiz-adv-x="2123" 
d="M2109 133v-133h-600v133l70 51v1159q-73 13 -131 13q-94 0 -134 -40t-40 -136v-136h158v-170h-158v-720l80 -21v-133h-600v133l106 51v686l-16 4h-287v-720l78 -21v-133h-598v133l106 51v686l-129 31v143l129 37q1 227 129.5 344t376.5 117q214 0 363 -98q125 98 356 98
q176 0 311 -69q140 60 265 69l49 -29v-1359zM557 1044h174l129 37q0 148 55 246q-88 29 -180 29q-98 0 -138 -38.5t-40 -137.5v-136z" />
    <glyph glyph-name="f_h" unicode="fh" horiz-adv-x="2058" 
d="M2052 133v-133h-598v133l68 51v504q0 62 -26 92.5t-87 30.5q-66 0 -133 -39v-618l78 -21v-133h-561v133l69 51v1159q-73 13 -131 13q-94 0 -134 -40t-40 -136v-136h158v-170h-158v-720l80 -21v-133h-600v133l106 51v686l-129 31v143l129 37q2 228 130 344.5t378 116.5
q177 0 312 -69q140 60 264 69l49 -29v-202q0 -41 -1 -79.5t-3.5 -75.5t-4.5 -63.5t-6 -62t-6 -51t-6.5 -50t-5.5 -40.5h27q57 101 151 152t209 51q153 0 229 -86.5t76 -235.5v-616z" />
    <glyph glyph-name="f_hbar" unicode="f&#x127;" horiz-adv-x="2060" 
d="M2054 133v-133h-600v133l68 51v504q0 62 -26 92.5t-87 30.5q-66 0 -133 -39v-618l78 -21v-133h-561v133l69 51v1159q-73 13 -131 13q-94 0 -134 -40t-40 -136v-136h158v-170h-158v-720l80 -21v-133h-600v133l106 51v686l-129 31v143l129 37q2 228 130 344.5t378 116.5
q177 0 312 -69q140 60 264 69l49 -29v-135h287v-170h-289q-5 -123 -31 -319h27q57 101 151 152t209 51q153 0 229 -86.5t76 -235.5v-616z" />
    <glyph glyph-name="f_i" unicode="fi" horiz-adv-x="1409" 
d="M1395 133v-133h-602v133l69 51v643l-90 47h-215v-720l82 -21v-133h-602v133l106 51v686l-129 31v143l129 37q0 238 143 349.5t453 111.5q237 0 386 -60t149 -171q0 -40 -19 -81.5t-51 -68.5h-305l-25 197q-68 6 -112 6q-120 0 -162.5 -47.5t-42.5 -169.5v-103h401l269 41
l49 -28v-901z" />
    <glyph glyph-name="f_icircumflex" unicode="f&#xee;" horiz-adv-x="1411" 
d="M1397 133v-133h-604v133l71 51v643l-90 47h-217v-720l82 -21v-133h-602v133l106 51v686l-129 31v143l129 37q2 227 128 344t370 117q126 0 238 -33l53 95h250l192 -351l-233 -114l-156 207h-22l-127 -172h-150l102 180q-18 2 -55 2q-96 0 -136 -39.5t-40 -136.5v-136h404
l268 41l49 -28v-901z" />
    <glyph glyph-name="f_imacron" unicode="f&#x12b;" horiz-adv-x="1411" 
d="M1397 133v-133h-604v133l71 51v643l-90 47h-217v-720l84 -21v-133h-604v133l106 51v686l-129 31v143l129 37q0 226 140.5 343.5t390.5 117.5q196 0 299 -65h375q10 -42 10 -105q0 -67 -10 -112h-617l-14 139h-23q-70 0 -103.5 -32t-33.5 -124v-199h404l268 41l49 -28
v-901z" />
    <glyph glyph-name="f_iogonek" unicode="f&#x12f;" horiz-adv-x="1409" 
d="M1395 133v-133q-126 -29 -177 -70t-51 -98q0 -86 109 -86q47 0 100 12l17 -131q-144 -63 -291 -63q-137 0 -208 52t-71 140q0 170 262 219v25h-290v133l67 49v645l-90 47h-215v-720l82 -21v-133h-602v133l106 51v686l-129 31v143l129 37q0 238 143 349.5t453 111.5
q237 0 386 -60t149 -171q0 -40 -19 -81.5t-51 -68.5h-305l-25 197q-68 6 -112 6q-120 0 -162.5 -47.5t-42.5 -169.5v-103h401l269 41l49 -28v-901z" />
    <glyph glyph-name="f_j" unicode="fj" horiz-adv-x="1392" 
d="M1276 1057v-1022q0 -98 -39.5 -181t-108 -141t-155.5 -96.5t-187 -54.5l-63 65l139 189v1011l-90 47h-215v-720l164 -21v-133h-684v133l106 51v686l-129 31v143l129 37q0 238 143 349.5t453 111.5q237 0 386 -60t149 -171q0 -40 -19 -81.5t-51 -68.5h-305l-25 197
q-68 6 -112 6q-120 0 -162.5 -47.5t-42.5 -169.5v-103h401l269 41z" />
    <glyph glyph-name="f_k" unicode="fk" horiz-adv-x="2056" 
d="M2046 166v-123q-61 -35 -117.5 -52.5t-132.5 -17.5q-100 0 -162.5 35t-103.5 115q-41 81 -121 342h-133v-311l96 -21v-133h-579v133l69 51v1159q-73 13 -131 13q-94 0 -134 -40t-40 -136v-136h158v-170h-158v-720l80 -21v-133h-600v133l106 51v686l-129 31v143l129 37
q2 228 130 344.5t378 116.5q177 0 312 -69q140 60 264 69l49 -29v-878h125q153 160 233 258l-135 18v133h529v-133l-181 -47q-81 -77 -149 -135q36 -60 76 -139t98 -199.5t88 -181.5z" />
    <glyph glyph-name="f_l" unicode="fl" horiz-adv-x="1406" 
d="M1393 133v-133h-600v133l69 51v1159q-73 13 -131 13q-94 0 -134 -40t-40 -136v-136h158v-170h-158v-720l80 -21v-133h-600v133l106 51v686l-129 31v143l129 37q2 228 130 344.5t378 116.5q177 0 312 -69q140 60 264 69l49 -29v-1359z" />
    <glyph glyph-name="f_lacute" unicode="f&#x13a;" horiz-adv-x="1409" 
d="M1227 1516h-191l64 329h203q69 -55 104 -157zM1276 154l117 -21v-133h-600v133l69 51v1145q-77 23 -141 23q-87 0 -125.5 -40.5t-38.5 -133.5v-134h158v-170h-158v-720l80 -21v-133h-600v133l106 51v686l-129 31v143l129 37q1 225 129.5 340t364.5 115q115 0 195 -25
t155 -71q140 20 240 20l49 -28v-1278z" />
    <glyph glyph-name="f_lcaron" unicode="f&#x13e;" horiz-adv-x="1785" 
d="M1393 133v-133h-600v133l69 51v1159q-73 13 -131 13q-94 0 -134 -40t-40 -136v-136h158v-170h-158v-720l80 -21v-133h-600v133l106 51v686l-129 31v143l129 37q2 228 130 344.5t378 116.5q177 0 312 -69q140 60 264 69l49 -29v-1359zM1577 1542q68 0 115 -15.5t96 -43.5
q0 -146 -62 -277.5t-176 -230.5h-190l67 328v223q66 16 150 16z" />
    <glyph glyph-name="uni021A_h" unicode="&#x21a;h" horiz-adv-x="2459" 
d="M2454 133v-133h-601v133l66 51v504q0 63 -25 93t-86 30q-64 0 -135 -39v-618l80 -21v-133h-590v133l97 51v987l-322 17v-1020l113 -21v-147h-713v147l151 52v991l-149 -6l-72 -262h-223q-29 132 -29 278q0 92 13 162h1237q7 77 18 133q160 41 342 47l47 -29v-202
q0 -41 -1 -79.5t-3.5 -75.5t-4.5 -63.5t-6 -62t-6 -51t-6.5 -50t-5.5 -40.5h29q57 100 151 151.5t208 51.5q153 0 229 -86.5t76 -235.5v-616zM696 -78q88 0 158 -18q39 -59 39 -150q0 -238 -320 -272l-36 90q80 26 107.5 42t27.5 44q0 15 -2 29l-119 6l-10 211q78 18 155 18
z" />
    <glyph glyph-name="uni030A_acutecomb" unicode="&#x30a;&#x301;" horiz-adv-x="2" 
d="M-395 1942h233q66 -51 101 -152l-291 -182h-150zM-406 1556q277 0 277 -194q0 -112 -83.5 -169.5t-240.5 -57.5q-288 0 -288 196q0 114 91 169.5t244 55.5zM-434 1444q-40 0 -58 -22t-18 -74t18 -76.5t56 -24.5q78 0 78 103q0 49 -18 71.5t-58 22.5z" />
    <glyph glyph-name=".notdef" horiz-adv-x="1525" 
d="M1311 1362v-1362h-1096v1362h1096zM1122 1188h-604l604 -879v879zM403 174h619l-619 897v-897z" />
    <glyph glyph-name=".null" horiz-adv-x="0" 
 />
    <glyph glyph-name="nonmarkingreturn" horiz-adv-x="682" 
 />
    <glyph glyph-name="CR" unicode="&#xd;" horiz-adv-x="512" 
 />
    <glyph glyph-name="space" unicode=" " horiz-adv-x="512" 
 />
    <glyph glyph-name="exclam" unicode="!" horiz-adv-x="696" 
d="M520 1362l49 -55q0 -88 -5.5 -177.5t-11 -153t-19.5 -155t-21.5 -133.5t-26 -142.5t-24.5 -131.5h-225q-6 34 -24.5 133.5t-26 144.5t-21.5 136.5t-20 157t-11.5 156t-5.5 179.5q156 41 393 41zM317 315q140 0 209 -30q23 -42 23 -105q0 -128 -82 -207l-307 27l-8 297
q85 18 165 18z" />
    <glyph glyph-name="quotedbl" unicode="&#x22;" horiz-adv-x="1200" 
d="M1090 1475l-78 -568h-262l-82 594q156 41 368 41zM530 1475l-77 -568h-263l-81 594q156 41 368 41z" />
    <glyph glyph-name="numbersign" unicode="#" horiz-adv-x="1261" 
d="M997 690l-20 -172h184v-256l-223 -51l-29 -238h-129l-45 39l27 209h-354l-31 -248h-131l-45 39l26 209h-192v256l229 51l21 170h-185v256l224 52l28 239h131l43 -39l-24 -211h354l31 250h131l43 -39l-27 -211h193v-256zM797 518l22 180h-354l-23 -180h355z" />
    <glyph glyph-name="dollar" unicode="$" horiz-adv-x="1163" 
d="M584 823l188 -80q81 -34 132.5 -63t94 -69.5t61.5 -93t19 -122.5q0 -176 -117 -275t-321 -120l10 -254l-147 -27l-49 29l10 248q-182 9 -292 75t-110 183q0 110 87 170h241l33 -283q54 -4 80 -4q91 0 138.5 29t47.5 104q0 64 -32.5 96t-98.5 58l-184 76
q-140 58 -207.5 146t-67.5 212q0 161 106.5 258t299.5 121l-10 238l147 26l51 -28l-10 -228q186 -8 299 -73.5t113 -186.5q0 -111 -86 -170h-242l-33 281q-73 6 -112 6q-90 0 -128 -31.5t-38 -93.5q0 -56 30 -91.5t97 -62.5z" />
    <glyph glyph-name="percent" unicode="%" horiz-adv-x="1882" 
d="M1417 1264l25 -52q-54 -80 -214 -306t-231 -333q-74 -112 -204.5 -338t-165.5 -284l-138 39l-26 53q54 79 198.5 284t215.5 312q75 115 230.5 378t170.5 288zM469 1266q181 0 273 -97.5t92 -265.5q0 -190 -110.5 -291.5t-295.5 -101.5q-182 0 -273.5 96t-91.5 264
q0 191 110 293.5t296 102.5zM449 1153q-22 0 -37.5 -6.5t-26 -22.5t-17 -35t-9.5 -52.5t-4 -66.5t-1 -85q0 -154 16.5 -208t78.5 -54t78 54t16 208q0 53 -1 85t-4 66.5t-9 53t-16.5 34.5t-26 22.5t-37.5 6.5zM1454 729q182 0 273.5 -97t91.5 -265q0 -190 -111.5 -292
t-296.5 -102q-182 0 -272 96t-90 265q0 191 109.5 293t295.5 102zM1454 616q-22 0 -37.5 -6.5t-26 -22.5t-16.5 -34.5t-9 -53t-4 -66.5t-1 -85q0 -154 16 -208t78 -54t78 54t16 208q0 53 -1 85t-4 66.5t-9 53t-16.5 34.5t-26 22.5t-37.5 6.5z" />
    <glyph glyph-name="ampersand" unicode="&#x26;" horiz-adv-x="1726" 
d="M1722 166v-123q-65 -37 -124 -53.5t-158 -16.5q-186 0 -389 148q-96 -75 -202 -111.5t-271 -36.5q-121 0 -218 20.5t-171 63.5t-114 115.5t-40 169.5q0 163 107 248.5t292 99.5q-133 187 -133 352q0 169 127 258t354 89q192 0 300 -68t108 -215q0 -54 -15.5 -103
t-48 -93.5t-90 -77t-135.5 -46.5q115 -129 299 -274q23 123 23 285q165 41 454 41v-224h-237q-31 -94 -131 -184q108 -81 311 -225zM825 1225q-94 0 -94 -107q0 -114 109 -258q88 92 88 232q0 133 -103 133zM453 408q0 -125 58.5 -184.5t176.5 -59.5q132 0 244 51
q-284 226 -424 385q-55 -80 -55 -192z" />
    <glyph glyph-name="quotesingle" unicode="'" horiz-adv-x="641" 
d="M530 1475l-77 -568h-263l-81 594q156 41 368 41z" />
    <glyph glyph-name="parenleft" unicode="(" horiz-adv-x="757" 
d="M530 1563l125 -58q-108 -225 -161.5 -446.5t-53.5 -480.5t53.5 -481t161.5 -447l-125 -58q-143 117 -240 290.5t-138 347t-41 348.5t41 348t138 346.5t240 290.5z" />
    <glyph glyph-name="parenright" unicode=")" horiz-adv-x="757" 
d="M102 1505l125 58q108 -89 191 -209.5t132 -252t73 -263t24 -260.5t-24 -261t-73 -263t-132 -252t-191 -210l-125 58q108 225 161.5 447t53.5 481t-53.5 480.5t-161.5 446.5z" />
    <glyph glyph-name="asterisk" unicode="*" horiz-adv-x="1052" 
d="M399 1620h256q11 -50 11 -86q0 -118 -84 -266h-109q-84 148 -84 266q0 41 10 86zM55 1192l80 240q18 -1 86 -19q38 -11 74.5 -30t72 -47.5t49 -40.5t42.5 -40l-33 -102q-3 0 -25 -3t-31 -4.5t-32.5 -3.5t-38 -2.5t-38.5 -0.5t-42.5 2t-41.5 6t-44 10q-39 11 -78 35z
M920 1432l77 -240q-27 -16 -79 -33q-19 -7 -40.5 -11.5t-40 -6.5t-42 -2h-38.5t-38 2.5t-33 4t-30.5 4.5t-24.5 3l-35 102q2 1 30 26.5t43.5 38t45 34t60 36.5t61.5 25q36 10 84 17zM430 1137l88 -66q-16 -154 -94 -260q-28 -39 -59 -63l-207 145q15 37 43 76q14 19 30.5 36
t36.5 32.5t34.5 26.5t38 24.5t33 18.5t32.5 17t24 13zM537 1071l88 66q118 -63 176 -115q31 -28 53 -57q24 -33 41 -76l-207 -146q-37 33 -59 64q-68 93 -92 264z" />
    <glyph glyph-name="plus" unicode="+" 
d="M1174 514h-414v-401h-260v401h-414v213h414v401h260v-401h414v-213z" />
    <glyph glyph-name="comma" unicode="," horiz-adv-x="643" 
d="M311 410q79 0 164 -21q70 -96 70 -242q0 -208 -126.5 -349.5t-359.5 -168.5l-30 109q110 35 180 90.5t70 132.5q0 7 -5 37l-133 8l-12 377q92 27 182 27z" />
    <glyph glyph-name="hyphen" unicode="-" horiz-adv-x="706" 
d="M641 504h-575v233h575v-233z" />
    <glyph glyph-name="period" unicode="." horiz-adv-x="638" 
d="M344 422q101 0 166 -21q33 -57 33 -165q0 -139 -68 -236h-338l-41 375q118 47 248 47z" />
    <glyph glyph-name="slash" unicode="/" horiz-adv-x="647" 
d="M623 1436l-390 -1809h-165l-43 39l385 1809h168z" />
    <glyph glyph-name="zero" unicode="0" horiz-adv-x="1361" 
d="M717 1264q147 0 257 -43.5t177.5 -124.5t101 -191.5t33.5 -249.5q0 -331 -173.5 -506.5t-469.5 -175.5q-146 0 -255.5 44.5t-177 126.5t-101 193.5t-33.5 250.5q0 167 46.5 296.5t131.5 212t202 125t261 42.5zM680 1100q-31 0 -52.5 -10t-36.5 -36t-24 -59t-14 -91.5
t-6.5 -121t-1.5 -159.5t1.5 -160.5t6.5 -123t14 -94t24 -61t37 -37t52 -10.5q31 0 53 10.5t37 37.5t24 60.5t13.5 94t6 123t1.5 160.5t-1.5 159.5t-6.5 121t-13.5 92t-24 58.5t-37 36t-52.5 10z" />
    <glyph glyph-name="one" unicode="1" horiz-adv-x="882" 
d="M858 133v-133h-813v133l205 51v707q-76 -4 -205 -4v188q104 5 227.5 55.5t184.5 129.5l207 -17v-1089z" />
    <glyph glyph-name="two" unicode="2" horiz-adv-x="1144" 
d="M897 440l178 -10q25 -74 25 -168q0 -67 -10 -142.5t-27 -119.5h-1006l-12 178q65 52 111 90t109 95.5t106 105t90 109t75.5 118t47 123t18.5 131.5q0 87 -31.5 119.5t-101.5 32.5q-21 0 -57 -4l-41 -348h-258q-41 30 -63.5 79t-22.5 105q0 147 151.5 239.5t386.5 92.5
q234 0 369 -94.5t135 -258.5q0 -65 -22.5 -126t-69.5 -117.5t-107.5 -108.5t-148 -106t-179.5 -103t-212 -106l10 -21q187 42 311 54l219 24z" />
    <glyph glyph-name="three" unicode="3" horiz-adv-x="1189" 
d="M776 580v-27q57 -6 105.5 -19.5t92 -38.5t74 -58.5t48.5 -83t18 -109.5q0 -189 -163 -301.5t-439 -112.5q-211 0 -344 68t-133 196q0 100 74 180h253l33 -276q58 -4 84 -4q41 0 68 7t53.5 29t39.5 70.5t13 124.5q0 60 -9.5 100t-35.5 74.5t-77.5 51t-129.5 16.5h-39v170
h134q108 114 108 301q0 97 -28.5 130.5t-100.5 33.5q-17 0 -57 -4l-29 -271h-256q-37 37 -56.5 72.5t-19.5 87.5q0 92 66.5 156t176.5 93.5t255 29.5q113 0 203 -19.5t160.5 -61t108.5 -112.5t38 -168q0 -261 -289 -325z" />
    <glyph glyph-name="four" unicode="4" horiz-adv-x="1189" 
d="M1165 109h-131v-252h-413v252h-584l-12 155q149 421 297 1002l391 -78l12 -64q-277 -562 -406 -788l7 -23q133 21 209 21h86v323l301 109l112 -25v-407h131v-225z" />
    <glyph glyph-name="five" unicode="5" horiz-adv-x="1161" 
d="M610 741q220 0 358 -119t138 -319q0 -220 -169.5 -346.5t-457.5 -126.5q-200 0 -309 64.5t-109 191.5q0 114 86 174h263l30 -264q10 0 28 -1t24 -1q79 0 116 44.5t37 151.5q0 97 -33 153t-117.5 86.5t-236.5 35.5l-108 2l26 762l174 35q142 -54 303 -54q172 0 351 56
l34 -140q-109 -231 -387 -231q-162 0 -323 68l-19 -277q150 55 301 55z" />
    <glyph glyph-name="six" unicode="6" horiz-adv-x="1331" 
d="M879 911q103 0 179.5 -32t121 -89.5t65.5 -130t21 -161.5q0 -247 -154.5 -386t-437.5 -139q-157 0 -273 44.5t-186.5 129t-104.5 198.5t-34 261q0 239 85 413.5t258 272t419 97.5q57 0 107.5 -6.5t74 -12t67.5 -18.5v-140q-89 0 -168 -14t-152.5 -48t-126 -85.5
t-84 -131.5t-32.5 -181h27q105 159 328 159zM672 137q41 0 67.5 17.5t40.5 53t19.5 78.5t5.5 105q0 99 -14 153.5t-37.5 71.5t-63.5 17q-74 0 -151 -49q-2 -37 -2 -117q0 -180 27.5 -255t107.5 -75z" />
    <glyph glyph-name="seven" unicode="7" horiz-adv-x="1093" 
d="M1077 1239l13 -158q-162 -220 -279.5 -440t-169.5 -414l43 -331l-266 -68q-122 25 -181 101t-59 188q0 51 11 101t37.5 102t54 96.5t77.5 101.5t88.5 99t108 106t115.5 105t129 114l-8 21l-515 -27l-32 -215h-185q-24 108 -24 240q0 180 37 278h1005z" />
    <glyph glyph-name="eight" unicode="8" horiz-adv-x="1292" 
d="M934 788v-26q72 -34 120 -66t87 -75.5t57.5 -99.5t18.5 -128q0 -112 -44.5 -194.5t-126.5 -131t-187.5 -71.5t-237.5 -23q-262 0 -403.5 90.5t-141.5 274.5q0 240 241 315v27q-208 105 -208 319q0 104 47.5 182t130.5 122t183 65t218 21q107 0 194.5 -17.5t157 -53.5
t108 -98.5t38.5 -146.5q0 -64 -21.5 -114.5t-59 -83.5t-79.5 -53.5t-92 -33.5zM682 1225q-62 0 -97.5 -31t-35.5 -96q0 -57 35.5 -101t120.5 -84l65 -30q35 66 35 176q0 88 -28 127t-95 39zM608 137q86 0 127 49.5t41 120.5q0 69 -42 112.5t-146 88.5l-99 45
q-34 -98 -34 -213q0 -103 35 -153t118 -50z" />
    <glyph glyph-name="nine" unicode="9" horiz-adv-x="1331" 
d="M657 1266q156 0 271.5 -45t186.5 -130.5t105.5 -203t34.5 -269.5q0 -370 -197.5 -579t-570.5 -209q-126 0 -270 37v139q122 0 226 26.5t187 80.5t130.5 144.5t48.5 209.5h-27q-107 -160 -325 -160q-84 0 -151.5 23.5t-111.5 63.5t-73.5 96t-42 117.5t-12.5 131.5
q0 248 155.5 387.5t435.5 139.5zM641 565q75 0 152 49q2 37 2 119q0 191 -28 269.5t-108 78.5q-40 0 -67 -18.5t-41 -56t-19.5 -82.5t-5.5 -109q0 -104 14 -160t37 -73t64 -17z" />
    <glyph glyph-name="colon" unicode=":" horiz-adv-x="638" 
d="M344 1071q104 0 166 -20q33 -57 33 -166q0 -139 -68 -236h-338l-41 375q118 47 248 47zM344 422q101 0 166 -21q33 -57 33 -165q0 -139 -68 -236h-338l-41 375q118 47 248 47z" />
    <glyph glyph-name="semicolon" unicode=";" horiz-adv-x="641" 
d="M348 1071q104 0 166 -20q33 -57 33 -166q0 -139 -68 -236h-338l-41 375q118 47 248 47zM315 410q79 0 164 -21q70 -96 70 -242q0 -208 -126.5 -349.5t-359.5 -168.5l-30 109q110 35 180 90.5t70 132.5q0 13 -4 37l-134 8l-12 377q92 27 182 27z" />
    <glyph glyph-name="less" unicode="&#x3c;" 
d="M1096 948l-650 -332v-28l650 -332l-90 -193l-879 383v312l879 383z" />
    <glyph glyph-name="equal" unicode="=" 
d="M1174 309h-1088v213h1088v-213zM1174 719h-1088v213h1088v-213z" />
    <glyph glyph-name="greater" unicode="&#x3e;" 
d="M1130 758v-312l-878 -383l-90 193l649 332v28l-649 332l90 193z" />
    <glyph glyph-name="question" unicode="?" horiz-adv-x="800" 
d="M297 1389q106 0 190.5 -33.5t137.5 -87t88 -127t49 -148.5t14 -155q0 -153 -70.5 -223t-275.5 -123l-18 -76h-197q-37 51 -53 76t-32.5 70t-16.5 91q0 43 10.5 70t39 46.5t59 30.5t91.5 27q34 9 72 18t62.5 15t52 12.5t44.5 11.5t34.5 11t27.5 11.5t18 12.5t11.5 15
t3.5 18q0 28 -36.5 40t-155 12t-341.5 -17v375q106 27 191 27zM276 315q139 0 211 -30q21 -43 21 -105q0 -128 -82 -207l-307 27l-8 297q88 18 165 18z" />
    <glyph glyph-name="at" unicode="@" horiz-adv-x="2125" 
d="M1237 1430q390 0 612 -177.5t222 -484.5q0 -125 -39 -234t-106 -188t-156 -135.5t-190.5 -84.5t-207.5 -28q-118 0 -167 37.5t-40 128.5l4 29h-30q-56 -100 -129.5 -147.5t-184.5 -47.5q-305 0 -305 355q0 59 8 117.5t27 123t47.5 121.5t74 108.5t102.5 89t136 59.5
t172 22q188 0 310 -84q108 39 213 39l53 -31l-88 -735q116 22 203.5 147.5t87.5 321.5q0 256 -164.5 385t-470.5 129q-209 0 -375 -57t-276 -160.5t-168 -249t-58 -322.5q0 -307 183 -444t583 -137v-105q-148 -51 -313 -51q-122 0 -231 26t-202.5 82t-161 137.5t-106 197.5
t-38.5 257q0 213 87 397t240.5 314t371 204.5t470.5 74.5zM1161 410l60 493q-27 15 -62 15q-39 0 -71 -23.5t-51.5 -63t-33.5 -84.5t-21 -95t-10 -87.5t-3 -68.5q0 -64 16.5 -91.5t63.5 -27.5q55 0 112 33z" />
    <glyph glyph-name="A" unicode="A" horiz-adv-x="1495" 
d="M1491 137v-137h-723v137l117 51l-45 160h-439l-53 -192l111 -19v-137h-455v137l125 49q213 692 381 1155l377 48l69 -21q218 -591 408 -1210zM453 530h331q-94 310 -153 478h-27q-61 -178 -151 -478z" />
    <glyph glyph-name="B" unicode="B" horiz-adv-x="1490" 
d="M1098 713v-27q158 -20 237.5 -92.5t79.5 -226.5q0 -195 -137 -281t-438 -86h-791v137l129 51v1010l-129 21v137q342 33 641 33q362 0 517 -83.5t155 -283.5q0 -134 -64.5 -203.5t-199.5 -105.5zM608 1206v-428h197q39 49 58.5 99.5t19.5 123.5q0 101 -41.5 153t-139.5 52
h-94zM608 182h148q100 0 140 53t40 160q0 37 -4 65.5t-17 58t-34.5 49t-58 32t-85.5 12.5h-129v-430z" />
    <glyph glyph-name="C" unicode="C" horiz-adv-x="1411" 
d="M1309 356l26 -163q-98 -100 -243 -160t-332 -60q-220 0 -377.5 86t-236 239t-78.5 359q0 163 51.5 297t150 231t251.5 150.5t347 53.5q247 0 432 -80q11 -61 11 -148q0 -123 -29 -252h-254l-78 279q-49 6 -94 6q-101 0 -162.5 -37.5t-94 -132.5t-32.5 -258
q0 -264 86 -383t277 -119q184 0 379 92z" />
    <glyph glyph-name="D" unicode="D" horiz-adv-x="1583" 
d="M629 1389q245 0 417.5 -43.5t275 -130t148.5 -206t46 -282.5q0 -358 -209.5 -542.5t-595.5 -184.5h-662v137l129 51v1012l-129 21v137q108 12 283.5 21.5t296.5 9.5zM629 182h76q77 0 128.5 14.5t88.5 46.5t57 92.5t28.5 143t8.5 207.5q0 130 -9.5 218t-28.5 148.5
t-55 93.5t-83 46.5t-117 13.5h-94v-1024z" />
    <glyph glyph-name="E" unicode="E" horiz-adv-x="1351" 
d="M1022 416l254 -13q14 -91 14 -172q0 -119 -24 -231h-1213v137l127 51v1006l-131 31v137h1225q14 -75 14 -154q0 -114 -31 -245h-233l-63 217l-330 12v-424l178 14l20 92h152v-378h-152l-20 92l-178 14v-432l309 8z" />
    <glyph glyph-name="F" unicode="F" horiz-adv-x="1265" 
d="M49 1362h1184q12 -65 12 -160q0 -121 -28 -239h-234l-65 219l-287 10v-465l176 14l22 113h152v-420h-152l-24 115l-174 14v-395l172 -21v-147h-752v137l129 51v1006l-131 31v137z" />
    <glyph glyph-name="G" unicode="G" horiz-adv-x="1486" 
d="M1427 633v-137l-86 -52v-381q-78 -35 -230.5 -62.5t-303.5 -27.5q-158 0 -284 34.5t-210.5 95t-140 147t-80 186t-24.5 215.5q0 167 51.5 302t151.5 232.5t253.5 150.5t349.5 53q141 0 264.5 -24.5t184.5 -55.5q10 -55 10 -146q0 -118 -28 -233h-256l-72 256
q-55 8 -115 8q-166 0 -230.5 -113t-64.5 -403q0 -199 29 -311t85.5 -155.5t154.5 -43.5q68 0 129 20l-35 287l-129 21v137h626z" />
    <glyph glyph-name="H" unicode="H" horiz-adv-x="1640" 
d="M1462 1174v-1016l129 -21v-137h-688v137l109 51v426h-383v-456l110 -21v-137h-690v137l129 51v1016l-129 21v137h688v-137l-108 -51v-377h383v407l-111 21v137h690v-137z" />
    <glyph glyph-name="I" unicode="I" horiz-adv-x="806" 
d="M629 1174v-1016l129 -21v-137h-709v137l129 51v1016l-129 21v137h709v-137z" />
    <glyph glyph-name="J" unicode="J" horiz-adv-x="1114" 
d="M1090 1362v-137l-129 -51v-764q0 -120 -39 -206.5t-111 -136t-163 -72t-206 -22.5q-208 0 -323 70.5t-115 206.5q0 113 92 188h217l80 -291l33 -2q53 0 69.5 33.5t16.5 132.5v893l-193 21v137h771z" />
    <glyph glyph-name="K" unicode="K" horiz-adv-x="1525" 
d="M1505 180v-137q-61 -35 -118 -52.5t-134 -17.5q-104 0 -175 35.5t-120 114.5q-11 18 -24 43t-28.5 59t-28.5 63.5t-32 75.5t-31 75t-33 81.5t-31 75.5h-121v-438l119 -21v-137h-699v137l129 51v1014l-129 21v139h709v-137l-129 -51v-396h151q241 305 326 428l-133 19v137
h495v-137l-112 -45q-101 -134 -287 -336q125 -185 348 -621z" />
    <glyph glyph-name="L" unicode="L" horiz-adv-x="1212" 
d="M926 428l256 -12q14 -82 14 -166q0 -106 -25 -250h-1120v137l127 51v1016l-129 21v137h709v-137l-129 -51v-1002l211 8z" />
    <glyph glyph-name="M" unicode="M" horiz-adv-x="2017" 
d="M1991 137v-137h-688v137l112 51q-5 881 -6 910h-27q-36 -163 -75 -291l-217 -725l-297 -43l-74 20l-225 732q-53 172 -84 307h-25q-2 -184 -2 -940l147 -21v-137h-503v137l131 49q8 394 41 1018l-131 21v137h704q98 -312 238 -842h24q96 395 226 842h690v-137l-135 -47
q33 -481 47 -1020z" />
    <glyph glyph-name="N" unicode="N" horiz-adv-x="1566" 
d="M1530 1225l-127 -49v-1156l-402 -45l-71 21l-391 752q-100 196 -150 350h-24l38 -940l154 -21v-137h-508v137l129 51v1016l-129 21v137h690l301 -596q76 -150 150 -344h27l-35 782l-154 21v137h502v-137z" />
    <glyph glyph-name="O" unicode="O" horiz-adv-x="1648" 
d="M870 1389q177 0 313.5 -49t223 -139t130.5 -212t44 -272q0 -178 -61 -320.5t-169.5 -234.5t-254.5 -140.5t-318 -48.5q-175 0 -311.5 50t-223 141t-131 215t-44.5 274q0 176 60 316.5t167.5 231.5t254 139.5t320.5 48.5zM823 1194q-94 0 -148 -46t-81 -157.5t-27 -306.5
q0 -196 26.5 -308.5t81.5 -160t148 -47.5q94 0 149 47.5t82 160t27 308.5t-27 307t-81.5 157t-149.5 46z" />
    <glyph glyph-name="P" unicode="P" horiz-adv-x="1456" 
d="M715 1389q371 0 529.5 -103.5t158.5 -357.5q0 -238 -117 -354.5t-362 -116.5q-111 0 -213 20v160h22q57 0 92.5 23.5t57.5 90.5t22 183q0 151 -40.5 211.5t-141.5 60.5h-94v-1038l172 -21v-147h-750v137l127 51v1010l-129 21v137q342 33 666 33z" />
    <glyph glyph-name="Q" unicode="Q" horiz-adv-x="1648" 
d="M870 1389q176 0 313 -49.5t223.5 -139.5t130.5 -211t44 -268q0 -128 -32.5 -238t-89 -187.5t-123 -131.5t-144.5 -86v-29l264 -196l109 -46v-122q-61 -43 -126.5 -63.5t-160.5 -20.5q-128 0 -212 45t-146 161l-95 166h-47q-175 0 -311.5 50t-223 141t-131 215t-44.5 274
q0 176 60 316.5t167.5 231.5t254 139.5t320.5 48.5zM823 1194q-94 0 -148 -46t-81 -157.5t-27 -306.5q0 -196 26.5 -308.5t81.5 -160t148 -47.5q94 0 149 47.5t82 160t27 308.5t-27 307t-81.5 157t-149.5 46z" />
    <glyph glyph-name="R" unicode="R" horiz-adv-x="1495" 
d="M1491 178v-135q-62 -36 -123 -53t-143 -17q-83 0 -139 18.5t-92.5 52.5t-71.5 95q-31 54 -88 170t-103 226h-123v-377l109 -21v-137h-668v137l129 51v1010l-129 21v137q342 33 660 33q364 0 518.5 -88.5t154.5 -303.5q0 -67 -14.5 -120.5t-37 -89.5t-58 -64t-70 -44.5
t-80.5 -31.5v-24q64 -46 124.5 -136.5t156.5 -265.5zM608 717h207q44 60 66 121t22 151q0 110 -40 163.5t-140 53.5h-115v-489z" />
    <glyph glyph-name="S" unicode="S" horiz-adv-x="1232" 
d="M651 913l197 -82q106 -43 173 -94t106.5 -129.5t39.5 -185.5q0 -115 -44 -202.5t-124.5 -140.5t-188 -79.5t-241.5 -26.5q-126 0 -259 21t-218 55q-18 92 -18 207q0 80 16 168l258 12l78 -270q41 -8 98 -8q101 0 148 33t47 104q0 64 -34.5 96.5t-117.5 65.5l-192 78
q-281 114 -281 407q0 217 149 332t416 115q128 0 246.5 -24t184.5 -56q10 -62 10 -144q0 -112 -29 -215h-246l-67 250q-40 6 -80 6q-90 0 -131 -30t-41 -95q0 -58 32.5 -96.5t112.5 -71.5z" />
    <glyph glyph-name="T" unicode="T" horiz-adv-x="1427" 
d="M29 1362h1370q12 -65 12 -162q0 -146 -29 -278h-225l-72 262l-147 6v-1022l152 -21v-147h-752v147l151 52v991l-149 -6l-72 -262h-223q-29 132 -29 278q0 92 13 162z" />
    <glyph glyph-name="U" unicode="U" horiz-adv-x="1492" 
d="M1468 1225l-129 -51v-738q0 -216 -157.5 -339.5t-444.5 -123.5t-435 125.5t-148 352.5v753l-129 21v137h698v-137l-119 -51v-764q0 -137 62 -198.5t188 -61.5q260 0 260 253v801l-139 21v137h493v-137z" />
    <glyph glyph-name="V" unicode="V" horiz-adv-x="1454" 
d="M1450 1225l-121 -49q-205 -697 -364 -1156l-375 -47l-70 21q-168 471 -391 1210l-125 21v137h684v-137l-80 -51q142 -534 238 -820h26q138 453 238 850l-135 21v137h475v-137z" />
    <glyph glyph-name="W" unicode="W" horiz-adv-x="2357" 
d="M2333 1225l-119 -49q-172 -586 -363 -1156l-376 -47l-70 21q-146 474 -211 721h-27q-140 -450 -223 -695l-377 -47l-69 21q-215 694 -351 1210l-122 21v137h684v-137l-80 -51q17 -72 62 -272t75 -327.5t57 -220.5h27q72 200 237 750l-28 96l-119 25v137h686v-137
l-131 -51q81 -305 236 -820h26q132 431 236 850l-135 21v137h475v-137z" />
    <glyph glyph-name="X" unicode="X" horiz-adv-x="1462" 
d="M1442 137v-137h-719v137l80 51q-84 167 -195 349h-28q-114 -191 -213 -381l120 -19v-137h-467v137l125 49q171 272 326 490q-167 270 -305 528l-127 21v137h727v-137l-80 -49q43 -86 182 -336h27q84 154 176 364l-125 21v137h477v-137l-129 -47q-151 -268 -280 -469
q146 -242 315 -553z" />
    <glyph glyph-name="Y" unicode="Y" horiz-adv-x="1431" 
d="M1427 1225l-122 -49q-146 -327 -338 -703v-315l151 -21v-137h-751v137l151 51v261q-241 472 -373 755l-141 21v137h684v-137l-61 -39q99 -249 219 -498h26q117 246 224 516l-142 21v137h473v-137z" />
    <glyph glyph-name="Z" unicode="Z" horiz-adv-x="1261" 
d="M934 416l268 -13q15 -97 15 -172q0 -110 -23 -231h-1126l-17 154l451 733q86 143 213 299l-13 20l-278 -16l-66 -240h-245q-31 110 -31 242q0 112 12 170h1102l16 -154l-440 -725q-98 -166 -211 -305l14 -18l291 14z" />
    <glyph glyph-name="bracketleft" unicode="[" horiz-adv-x="698" 
d="M616 1366l-204 -10q63 -346 63 -762q0 -430 -65 -793l206 -10v-151h-444v1876h444v-150z" />
    <glyph glyph-name="backslash" unicode="\" horiz-adv-x="647" 
d="M414 -373l-389 1809l45 39h168l385 -1809l-43 -39h-166z" />
    <glyph glyph-name="bracketright" unicode="]" horiz-adv-x="698" 
d="M526 1516v-1876h-444v151l207 10q-66 368 -66 793q0 411 64 762l-205 10v150h444z" />
    <glyph glyph-name="asciicircum" unicode="^" horiz-adv-x="1026" 
d="M985 1042l-176 -112l-285 327h-22l-285 -327l-176 112l348 474h248z" />
    <glyph glyph-name="underscore" unicode="_" horiz-adv-x="923" 
d="M879 -338h-834v170h834v-170z" />
    <glyph glyph-name="grave" unicode="`" horiz-adv-x="624" 
d="M563 1174h-151l-351 282q38 126 105 176h266z" />
    <glyph glyph-name="a" unicode="a" horiz-adv-x="1161" 
d="M1151 190v-137q-173 -69 -301 -69q-197 0 -197 147v25h-26q-43 -95 -124 -139t-181 -44q-138 0 -214.5 75.5t-76.5 207.5q0 162 118 245t345 83q79 0 141 -4v188q0 108 -31.5 144t-107.5 36l-39 -2l-33 -264h-252q-82 65 -82 152q0 116 140 187t356 71q236 0 347 -92
t109 -271l-10 -502zM535 211q48 0 100 31v217h-68q-64 0 -89 -37.5t-25 -104.5q0 -60 18.5 -83t63.5 -23z" />
    <glyph glyph-name="b" unicode="b" horiz-adv-x="1294" 
d="M532 1513v-202q0 -230 -32 -422h26q59 98 147 150.5t197 52.5q177 0 265 -134t88 -376q0 -115 -19.5 -206.5t-65.5 -168t-118 -127.5t-180.5 -79t-249.5 -28q-221 0 -471 66v1237l-119 55v135q226 67 483 76zM662 811q-63 0 -130 -39v-618q53 -17 95 -17q94 0 123.5 74.5
t29.5 267.5q0 140 -12 211.5t-35.5 96t-70.5 24.5z" />
    <glyph glyph-name="c" unicode="c" horiz-adv-x="1124" 
d="M784 227q107 0 250 47l23 -139q-80 -77 -186.5 -119.5t-262.5 -42.5q-146 0 -254.5 39.5t-173 112t-95 166t-30.5 209.5q0 119 31.5 217t87 166t133 114.5t167.5 68t192 21.5q117 0 207.5 -27.5t146 -88t55.5 -146.5q0 -116 -92 -176h-262l-25 293l-32 2q-76 0 -114 -72
t-38 -245q0 -208 61.5 -304t210.5 -96z" />
    <glyph glyph-name="d" unicode="d" horiz-adv-x="1310" 
d="M1176 1513v-1306l118 -37v-125q-245 -59 -460 -65l-50 28l13 168h-27q-58 -98 -147.5 -150.5t-198.5 -52.5q-177 0 -264.5 134t-87.5 385q0 600 499 600q111 0 191 -25v209l-117 55v135q234 70 483 76zM668 928q-94 0 -124 -74.5t-30 -263.5q0 -142 12.5 -215t36.5 -97
t70 -24q62 0 129 39v618q-53 17 -94 17z" />
    <glyph glyph-name="e" unicode="e" horiz-adv-x="1165" 
d="M784 236q133 0 281 55l25 -139q-83 -83 -191.5 -131t-280.5 -48q-150 0 -261 39.5t-176 112t-95.5 166.5t-30.5 211q0 118 30.5 215.5t85.5 166.5t131.5 116t168 69.5t195.5 22.5q118 0 204.5 -28.5t136.5 -80t73.5 -116.5t23.5 -146q0 -117 -39 -197h-571
q15 -150 84.5 -219t205.5 -69zM612 928q-120 0 -125 -273l218 17v53q0 103 -21.5 153t-71.5 50z" />
    <glyph glyph-name="f" unicode="f" horiz-adv-x="757" 
d="M680 1542q165 0 275 -60.5t110 -166.5q0 -78 -70 -141h-264l-24 225h-13q-70 0 -103.5 -32t-33.5 -124v-199h182v-170h-182v-720l166 -21v-133h-686v133l106 51v686l-129 31v143l129 37q0 461 537 461z" />
    <glyph glyph-name="g" unicode="g" horiz-adv-x="1214" 
d="M1004 975l-19 -19q76 -85 76 -208q0 -93 -42.5 -162.5t-118 -110.5t-170 -60.5t-206.5 -19.5q-38 0 -100 4v-104l461 -35q155 -12 229 -77.5t74 -172.5q0 -132 -100.5 -234t-276.5 -157t-397 -55q-206 0 -320 51.5t-114 153.5q0 81 66.5 133t166.5 65q-40 211 47 465
q-211 72 -211 283q0 93 42.5 166.5t117.5 118.5t171 68.5t208 23.5q186 0 305 -64q25 116 65 167.5t121 51.5q84 0 131 -35l-16 -237h-190zM555 557q60 0 80 45t20 141t-20 141.5t-80 45.5t-80 -45.5t-20 -141.5t20 -141t80 -45zM772 -141l-444 47q-11 -37 -11 -62
q0 -53 49 -84.5t177 -31.5q122 0 221.5 26t99.5 68q0 15 -20.5 24t-71.5 13z" />
    <glyph glyph-name="h" unicode="h" horiz-adv-x="1329" 
d="M1323 133v-133h-598v133l68 51v504q0 62 -26 92.5t-87 30.5q-66 0 -133 -39v-618l78 -21v-133h-600v133l108 51v1090l-119 57v135q226 67 484 76l49 -29v-202q0 -41 -1 -79.5t-3.5 -75.5t-4.5 -63.5t-6 -62t-6 -51t-6.5 -50t-5.5 -40.5h27q57 101 151 152t209 51
q153 0 229 -86.5t76 -235.5v-616z" />
    <glyph glyph-name="i" unicode="i" horiz-adv-x="690" 
d="M676 133v-133h-641v133l108 51v643l-108 58v135q202 52 473 65l49 -28v-901zM375 1559q91 0 141 -17q35 -56 35 -147q0 -53 -15.5 -94.5t-54.5 -94.5h-317l-39 305q117 48 250 48z" />
    <glyph glyph-name="j" unicode="j" horiz-adv-x="667" 
d="M551 1057v-1022q0 -98 -40 -181t-109 -141t-156.5 -96t-188.5 -55l-63 65l139 189v1011l-108 58v135q204 52 473 65zM365 1559q91 0 141 -17q35 -56 35 -147q0 -53 -15.5 -94.5t-54.5 -94.5h-317l-39 305q117 48 250 48z" />
    <glyph glyph-name="k" unicode="k" horiz-adv-x="1327" 
d="M1317 166v-123q-61 -35 -117.5 -52.5t-132.5 -17.5q-100 0 -162.5 35t-103.5 115q-41 81 -121 342h-133v-311l98 -19v-135h-620v133l108 51v1090l-119 57v135q251 70 484 76l49 -29v-878h125q153 160 233 258l-135 18v133h528v-133l-180 -47q-81 -77 -149 -135
q36 -60 76 -139t98 -199.5t88 -181.5z" />
    <glyph glyph-name="l" unicode="l" horiz-adv-x="679" 
d="M666 133v-133h-641v133l108 51v1090l-119 57v135q243 70 484 76l49 -29v-1359z" />
    <glyph glyph-name="m" unicode="m" horiz-adv-x="1996" 
d="M1991 133v-133h-596v133l65 51v504q0 63 -24.5 93t-83.5 30q-73 0 -135 -41v-616l75 -21v-133h-557v133l68 51v504q0 62 -26 92.5t-87 30.5q-66 0 -133 -39v-618l78 -21v-133h-600v133l108 51v643l-108 58v135q220 59 450 65l50 -28l-11 -168h27q116 203 364 203
q53 0 95 -9.5t69.5 -27t46 -36.5t29.5 -45t16 -44t9 -41h28q57 100 151.5 151.5t209.5 51.5q154 0 229.5 -86.5t75.5 -235.5v-616z" />
    <glyph glyph-name="n" unicode="n" horiz-adv-x="1339" 
d="M1333 133v-133h-598v133l68 51v504q0 62 -26 92.5t-87 30.5q-66 0 -133 -39v-618l78 -21v-133h-600v133l108 51v643l-108 58v135q250 59 450 65l50 -28l-11 -168h27q57 101 151 152t209 51q153 0 229.5 -86.5t76.5 -235.5v-616z" />
    <glyph glyph-name="o" unicode="o" horiz-adv-x="1304" 
d="M690 1092q144 0 252.5 -40t175 -112.5t99 -167.5t32.5 -211q0 -278 -173.5 -433t-463.5 -155q-143 0 -251.5 40t-174.5 112.5t-98.5 167.5t-32.5 211q0 280 173 434t462 154zM651 928q-83 0 -109 -83t-26 -310q0 -229 26 -313.5t109 -84.5t109 84.5t26 313.5
q0 227 -26 310t-109 83z" />
    <glyph glyph-name="p" unicode="p" horiz-adv-x="1308" 
d="M887 1092q176 0 263 -133.5t87 -383.5q0 -602 -504 -602q-107 0 -186 25v-254l139 -20v-134h-661v134l108 51v1052l-108 58v135q220 59 450 65l49 -28l-10 -168h27q57 96 145 149.5t201 53.5zM643 137q92 0 122 74t30 270q0 139 -12 210t-36 95.5t-71 24.5
q-62 0 -129 -39v-618q53 -17 96 -17z" />
    <glyph glyph-name="q" unicode="q" horiz-adv-x="1292" 
d="M1284 -276v-134h-661v134l139 51v84q0 133 35 317h-29q-59 -98 -147 -150.5t-197 -52.5q-176 0 -264 134t-88 378q0 143 30.5 253t93.5 190t166 122t242 42q173 0 309 -68q44 26 107.5 43.5t107.5 17.5l48 -28v-1313zM762 293v604q-47 21 -94 21q-92 0 -123 -73.5
t-31 -264.5q0 -136 12.5 -207t37 -95t71.5 -24q60 0 127 39z" />
    <glyph glyph-name="r" unicode="r" horiz-adv-x="935" 
d="M932 735h-283q-51 -38 -92 -86v-477l182 -22v-150h-704v154l108 30v643l-108 58v135q218 59 444 65l49 -28l-16 -250h29q58 147 114 216t148 69q78 0 129 -66v-291z" />
    <glyph glyph-name="s" unicode="s" horiz-adv-x="1017" 
d="M508 756l176 -78q145 -64 214 -142.5t69 -203.5q0 -92 -37 -162t-105 -112.5t-158.5 -63.5t-203.5 -21q-235 0 -397 70q-15 62 -15 135q0 85 29 164h211l39 -205q62 -10 108 -10q150 0 150 98q0 37 -21 59.5t-78 45.5l-172 78q-125 55 -187 132.5t-62 198.5
q0 170 120.5 261.5t350.5 91.5q108 0 205 -18t149 -42q14 -68 14 -133q0 -80 -26 -151h-183l-49 180q-62 10 -108 10q-66 0 -96.5 -19t-30.5 -63q0 -32 20 -55t74 -45z" />
    <glyph glyph-name="t" unicode="t" horiz-adv-x="866" 
d="M834 227l28 -129q-156 -125 -381 -125q-180 0 -264 80.5t-84 222.5v615l-129 31v122l205 41l240 240l98 -10v-271h274v-170h-274v-552q0 -70 27 -96.5t83 -26.5q63 0 177 28z" />
    <glyph glyph-name="u" unicode="u" horiz-adv-x="1329" 
d="M1313 190v-145q-218 -55 -459 -65l-49 28l10 168h-27q-59 -100 -153 -151.5t-207 -51.5q-153 0 -229 86.5t-76 235.5v532l-109 58v135q248 59 473 65l50 -28v-680q0 -63 24.5 -93t85.5 -30q63 0 135 39v545l-77 47v135q268 60 442 65l49 -28v-830z" />
    <glyph glyph-name="v" unicode="v" horiz-adv-x="1216" 
d="M1212 911l-114 -43q-116 -353 -310 -848l-276 -47l-70 21q-209 540 -327 899l-111 18v133h604v-133l-47 -49q96 -325 172 -536h27q101 329 151 565l-133 20v133h434v-133z" />
    <glyph glyph-name="w" unicode="w" horiz-adv-x="1986" 
d="M1925 911l-104 -41q-105 -414 -244 -850l-307 -47l-68 21q-22 52 -42 105t-40 113.5t-33.5 101t-36 113.5t-32.5 105h-27q-9 -25 -34 -98.5t-37.5 -109t-34.5 -95t-42 -110t-42 -99.5l-309 -47l-68 21q-145 471 -248 899l-115 18v133h635v-133l-80 -49q51 -277 119 -536
h27q97 288 205 696l252 47l67 -20q130 -449 225 -723h25q57 250 96 567l-143 18v133h436v-133z" />
    <glyph glyph-name="x" unicode="x" horiz-adv-x="1247" 
d="M1233 133v-133h-660v133l52 47q-69 138 -115 221h-29q-84 -147 -137 -251l100 -17v-133h-430v133l142 47q85 124 250 336q-130 208 -226 375h-2l-149 20v133h673v-133l-47 -43q32 -68 105 -206h26q61 135 97 233l-103 16v133h439v-133l-160 -51q-145 -228 -199 -307
q150 -237 242 -401z" />
    <glyph glyph-name="y" unicode="y" horiz-adv-x="1218" 
d="M1214 911l-122 -49q-67 -212 -162.5 -473.5t-157.5 -392.5q-57 -120 -123.5 -207t-134 -134t-130 -68t-124.5 -21q-113 0 -176 82l10 166h426l15 22q-81 177 -202.5 484.5t-211.5 570.5l-117 20v133h604v-133l-45 -41q105 -362 170 -544h27q78 243 145 565l-127 20v133
h436v-133z" />
    <glyph glyph-name="z" unicode="z" horiz-adv-x="1001" 
d="M760 373l196 -11q21 -79 21 -149q0 -120 -35 -213h-901l-16 154l305 467q19 30 39 59t34 49t35.5 47t31 38.5t32 39.5t28.5 35l-12 20l-215 -18l-51 -205h-184q-31 113 -31 197q0 87 18 161h893l17 -153l-293 -461q-77 -125 -197 -272l12 -19l226 17z" />
    <glyph glyph-name="braceleft" unicode="{" horiz-adv-x="708" 
d="M606 1386l-203 -45q65 -208 97 -334t32 -196q0 -91 -67.5 -142.5t-231.5 -60.5v-24q167 -8 233 -60.5t66 -144.5q0 -49 -19.5 -140.5t-42 -173t-71.5 -251.5l207 -45v-131q-93 -13 -153 -13q-163 0 -247.5 58t-84.5 147q0 53 30.5 185t104.5 417l-197 90v148l197 90
q-46 159 -62.5 219t-38.5 143t-28 121.5t-6 69.5q0 100 82 158.5t246 58.5q71 0 157 -12v-132z" />
    <glyph glyph-name="bar" unicode="|" horiz-adv-x="645" 
d="M430 -246h-215v1782h215v-1782z" />
    <glyph glyph-name="braceright" unicode="}" horiz-adv-x="708" 
d="M649 670v-148l-196 -90q74 -285 104.5 -417t30.5 -185q0 -89 -84.5 -147t-247.5 -58q-61 0 -154 13v131l207 45q-49 170 -71.5 251.5t-42 173t-19.5 140.5q0 92 66 144.5t233 60.5v24q-164 9 -231.5 60.5t-67.5 142.5q0 70 32 196t97 334l-203 45v132q85 12 158 12
q164 0 246 -58.5t82 -158.5q0 -31 -6 -69.5t-28 -121.5t-38.5 -143t-62.5 -219z" />
    <glyph glyph-name="asciitilde" unicode="~" 
d="M1036 778l140 -71q-14 -55 -30 -100.5t-41.5 -92t-56 -78t-73.5 -51.5t-94 -20q-65 0 -138 26q-127 45 -378 184l-142 -186l-139 72q19 72 41 126t56.5 106.5t84.5 81t113 28.5q61 0 137 -27q121 -41 379 -184z" />
    <glyph glyph-name="uni00A0" unicode="&#xa0;" horiz-adv-x="512" 
 />
    <glyph glyph-name="exclamdown" unicode="&#xa1;" horiz-adv-x="696" 
d="M338 1092q138 0 209 -31q22 -40 22 -105q0 -127 -82 -206l-307 26l-8 297q89 19 166 19zM236 651h225q6 -31 24.5 -133t26 -144.5t21.5 -136t19.5 -158t11 -155.5t5.5 -180q-156 -41 -393 -41l-49 55q0 105 5 198.5t20.5 204t22.5 156t32.5 181.5t28.5 153z" />
    <glyph glyph-name="cent" unicode="&#xa2;" horiz-adv-x="1169" 
d="M1092 338l26 -119q-154 -154 -395 -174l6 -188l-135 -27l-51 29l6 186q-126 11 -218.5 54.5t-147.5 113.5t-81 156t-26 190q0 127 37 230.5t102.5 174t149.5 115t184 64.5l-8 219l135 27l51 -29l-6 -201q169 -2 274 -68t105 -190q0 -112 -86 -172h-248l-35 285
q-14 2 -41 2q-81 0 -115 -65t-34 -232q0 -227 64.5 -331.5t225.5 -104.5q116 0 261 55z" />
    <glyph glyph-name="sterling" unicode="&#xa3;" 
d="M956 414h230q18 -83 18 -183q0 -142 -70 -200t-235 -58q-247 0 -569 95q-49 -93 -146 -93q-65 0 -123 25l-16 223l184 68q43 56 43 123q0 48 -18 98h-207v170h143q-34 94 -34 178q0 100 45.5 176t125 120.5t176 66.5t208.5 22q195 0 303 -64.5t108 -191.5
q0 -114 -86 -174h-241l-35 285q-16 2 -37 2q-60 0 -85.5 -30t-25.5 -91q0 -64 38.5 -167t45.5 -132h191v-170h-176q-4 -61 -22.5 -106t-58 -80.5t-87 -61.5t-123.5 -57l10 -25q188 66 305 66q59 0 156 -19z" />
    <glyph glyph-name="currency" unicode="&#xa4;" horiz-adv-x="1173" 
d="M1030 612q0 -131 -76 -223l164 -158l-151 -149l-197 190q-89 -28 -203 -28q-103 0 -170 20l-188 -182l-154 149l154 148q-64 81 -64 199q0 131 76 219l-166 159l154 150l199 -193q98 31 215 31q85 0 157 -16l187 178l151 -150l-149 -143q61 -81 61 -201zM594 424
q63 0 90 40.5t27 131.5q0 90 -27 129t-90 39q-65 0 -98 -40t-33 -128q0 -172 131 -172z" />
    <glyph glyph-name="yen" unicode="&#xa5;" horiz-adv-x="1468" 
d="M1434 1102l-134 -51q-68 -131 -167 -308h172v-170h-271l-80 -135v-2h351v-170h-351v-108l170 -21v-137h-749v137l170 51v78h-363v170h363l-84 137h-279v170h178q-78 134 -192 338h-4l-129 21v137h694v-137l-84 -43q98 -213 207 -412h27q127 239 217 434l-135 21v137h473
v-137z" />
    <glyph glyph-name="brokenbar" unicode="&#xa6;" horiz-adv-x="645" 
d="M430 840h-215v696h215v-696zM430 -246h-215v697h215v-697z" />
    <glyph glyph-name="section" unicode="&#xa7;" horiz-adv-x="1198" 
d="M1163 545q0 -108 -51.5 -184.5t-175.5 -129.5q59 -78 59 -182q0 -161 -117.5 -242t-312.5 -81q-187 0 -301 69t-114 178q0 83 81 140h191l35 -234q52 -10 94 -10q69 0 101 24.5t32 61.5q0 22 -11.5 41t-29 35t-54 37.5t-70.5 39t-95.5 50t-112.5 61.5q-77 43 -122 75
t-83.5 73t-54.5 89.5t-16 112.5q0 108 52.5 184.5t176.5 129.5q-59 78 -59 182q0 161 116.5 242.5t311.5 81.5q188 0 302 -69.5t114 -178.5q0 -82 -82 -140h-191l-35 234q-52 10 -94 10q-69 0 -101 -24.5t-32 -61.5q0 -22 11.5 -41t29 -35t54 -37.5t70.5 -39t95.5 -50
t112.5 -61.5q77 -43 122 -75t83.5 -73t54.5 -89.5t16 -112.5zM645 457q135 -82 195 -131q41 50 41 80q0 38 -54 78t-274 173q-123 76 -193 131q-43 -46 -43 -81q0 -13 3.5 -23t18.5 -25.5t34 -30t60.5 -41.5t87 -55t124.5 -75z" />
    <glyph glyph-name="dieresis" unicode="&#xa8;" horiz-adv-x="997" 
d="M289 1563q76 0 123 -17q34 -56 34 -135q0 -50 -15.5 -88.5t-51.5 -87.5h-268l-39 283q113 45 217 45zM770 1563q76 0 123 -17q35 -53 35 -135q0 -49 -15.5 -88t-52.5 -88h-266l-41 283q119 45 217 45z" />
    <glyph glyph-name="copyright" unicode="&#xa9;" horiz-adv-x="1697" 
d="M862 1389q226 0 400.5 -86.5t271 -245t96.5 -365.5q0 -215 -104 -380t-284 -252t-406 -87q-169 0 -312.5 51.5t-243.5 143t-156 222.5t-56 286q0 162 60.5 296.5t166.5 225.5t252 141t315 50zM844 137q245 0 397 145.5t152 405.5q0 254 -147 395.5t-390 141.5
q-246 0 -398.5 -143t-152.5 -402q0 -255 147.5 -399t391.5 -144zM997 467q87 0 185 39l24 -107q-133 -133 -350 -133q-202 0 -303.5 106.5t-101.5 286.5q0 108 36 193.5t99 138t144 80t175 27.5q128 0 207.5 -49.5t79.5 -143.5q0 -82 -62 -127h-198l-21 191l-26 2
q-42 0 -59 -43t-17 -152q0 -170 41.5 -239.5t146.5 -69.5z" />
    <glyph glyph-name="ordfeminine" unicode="&#xaa;" horiz-adv-x="811" 
d="M805 573v-90q-110 -47 -217 -47q-129 0 -129 99v16h-17q-55 -121 -202 -121q-96 0 -147.5 48.5t-51.5 135.5q0 106 78.5 161.5t220.5 55.5q48 0 102 -6l4 117q1 70 -20 93.5t-70 23.5l-26 -2l-23 -162h-176q-51 41 -51 98q0 76 95.5 123t236.5 47q159 0 241 -61t82 -176
l-8 -330zM371 592q37 0 67 20l2 129h-32q-44 0 -61 -22.5t-17 -67.5q0 -35 9 -47t32 -12z" />
    <glyph glyph-name="guillemotleft" unicode="&#xab;" horiz-adv-x="1314" 
d="M1194 877l-145 -328l145 -328l-160 -100l-372 362v131l372 363zM612 877l-145 -328l145 -328l-159 -100l-373 362v131l373 363z" />
    <glyph glyph-name="logicalnot" unicode="&#xac;" 
d="M1087 135h-239v379h-762v213h1001v-592z" />
    <glyph glyph-name="uni00AD" unicode="&#xad;" horiz-adv-x="706" 
d="M641 504h-575v233h575v-233z" />
    <glyph glyph-name="registered" unicode="&#xae;" horiz-adv-x="1339" 
d="M678 1477q267 0 432.5 -150t165.5 -395q0 -167 -80.5 -294.5t-219.5 -195t-314 -67.5q-266 0 -432.5 151.5t-166.5 395.5q0 166 80.5 293t219.5 194.5t315 67.5zM670 510q201 0 308 108.5t107 309.5q0 206 -108.5 309.5t-304.5 103.5q-203 0 -310.5 -109t-107.5 -310
q0 -205 109.5 -308.5t306.5 -103.5zM840 926v-8q55 -43 112 -152l39 -16v-64q-47 -29 -110 -29q-49 0 -76 14.5t-47 45.5q-37 54 -74 157h-47v-135l47 -8v-63h-283v63l64 23v381l-64 8v65q152 13 273 13q151 0 213.5 -35t62.5 -121q0 -63 -28.5 -93t-81.5 -46zM637 961h74
q34 40 34 102q0 41 -13.5 58.5t-49.5 17.5h-45v-178z" />
    <glyph glyph-name="macron" unicode="&#xaf;" horiz-adv-x="800" 
d="M72 1477h655q12 -50 12 -105q0 -58 -12 -112h-655q-11 50 -11 112q0 59 11 105z" />
    <glyph glyph-name="degree" unicode="&#xb0;" horiz-adv-x="843" 
d="M442 1561q87 0 158 -27.5t116 -74t69 -106t24 -124.5q0 -152 -117.5 -251t-292.5 -99q-172 0 -268 95t-96 234q0 153 116.5 253t290.5 100zM422 1350q-57 0 -96 -36t-39 -95q0 -58 39 -93.5t96 -35.5q58 0 96.5 35t38.5 94t-38.5 95t-96.5 36z" />
    <glyph glyph-name="plusminus" unicode="&#xb1;" 
d="M1102 846v-213h-342v-287h-260v287h-342v213h342v287h260v-287h342zM158 213h944v-213h-944v213z" />
    <glyph glyph-name="twosuperior" unicode="&#xb2;" horiz-adv-x="706" 
d="M537 1032h120q15 -46 15 -102q0 -86 -23 -144h-612l-6 117q336 213 336 410q0 38 -16.5 57t-59.5 19q-18 0 -33 -3l-20 -178h-168q-50 35 -50 105q0 85 89 136.5t237 51.5t227.5 -53t79.5 -148q0 -45 -20 -85.5t-54 -74.5t-92.5 -70.5t-120 -68t-151.5 -71.5l8 -21
q129 35 193 45l108 15z" />
    <glyph glyph-name="threesuperior" unicode="&#xb3;" horiz-adv-x="741" 
d="M346 1501q309 0 309 -188q0 -41 -13.5 -69t-41.5 -45t-56.5 -25.5t-72.5 -16.5v-20q213 -20 213 -172q0 -101 -91.5 -149t-256.5 -48q-148 0 -228.5 38t-80.5 112q0 56 43 102h166l16 -135q24 -4 53 -4q48 0 71 19t23 81q0 57 -28.5 77.5t-114.5 20.5h-23v115h82
q56 41 56 119q0 41 -14.5 58.5t-49.5 17.5q-20 0 -41 -3l-16 -135h-166q-22 23 -32.5 43t-10.5 49q0 79 81 118.5t224 39.5z" />
    <glyph glyph-name="acute" unicode="&#xb4;" horiz-adv-x="643" 
d="M211 1632h268q66 -63 103 -176l-371 -282h-150z" />
    <glyph glyph-name="mu" unicode="&#xb5;" horiz-adv-x="1320" 
d="M1305 190v-145q-219 -55 -455 -65l-49 28l8 168h-27q-45 -108 -101.5 -155.5t-133.5 -47.5q-74 0 -111 54l-24 -13l59 -409q-153 -41 -379 -41l-47 55l72 547v872q179 44 364 47l49 -28v-680q0 -63 25 -93t86 -30q66 0 133 39v739q199 50 367 53l47 -28v-830z" />
    <glyph glyph-name="paragraph" unicode="&#xb6;" horiz-adv-x="1181" 
d="M727 356h-156q-256 0 -396 127.5t-140 368.5q0 242 140.5 376t393.5 134h158v-1006zM1157 1225l-131 -51v-945q0 -399 -410 -399q-109 0 -214 28.5t-179 86.5l43 116q176 -79 338 -79q127 0 190.5 54t63.5 183v1143h299v-137z" />
    <glyph glyph-name="periodcentered" unicode="&#xb7;" horiz-adv-x="638" 
d="M344 840q101 0 166 -21q33 -57 33 -166q0 -138 -68 -235h-338l-41 375q118 47 248 47z" />
    <glyph glyph-name="cedilla" unicode="&#xb8;" horiz-adv-x="671" 
d="M393 12v-116q63 0 107.5 -14t67.5 -38.5t32.5 -50t9.5 -55.5q0 -81 -68 -127.5t-208 -46.5q-183 0 -273 69l17 115q104 -22 155 -22q70 0 70 49q0 29 -24.5 42t-94.5 19l39 176h170z" />
    <glyph glyph-name="onesuperior" unicode="&#xb9;" horiz-adv-x="536" 
d="M518 883v-97h-483v97l117 28v361q-39 -2 -117 -2v127q59 3 129 31.5t106 72.5l138 -10v-598z" />
    <glyph glyph-name="ordmasculine" unicode="&#xba;" horiz-adv-x="829" 
d="M436 1167q180 0 266 -95.5t86 -256.5q0 -184 -107.5 -286.5t-289.5 -102.5q-178 0 -264 96t-86 256q0 186 107 287.5t288 101.5zM416 1047q-40 0 -51 -49.5t-11 -198.5q0 -152 11 -202t51 -50q38 0 49.5 51t11.5 201q0 148 -11.5 198t-49.5 50z" />
    <glyph glyph-name="guillemotright" unicode="&#xbb;" horiz-adv-x="1316" 
d="M1237 614v-131l-371 -362l-161 100l147 328l-147 328l161 100zM653 614v-131l-370 -362l-162 100l147 328l-147 328l162 100z" />
    <glyph glyph-name="onequarter" unicode="&#xbc;" horiz-adv-x="1974" 
d="M639 639v-113h-600v113l145 35v440q-90 -4 -145 -4v152q73 3 161 38t134 89l168 -13v-723zM1425 1368l25 -51q-225 -331 -449 -670q-73 -110 -220.5 -369.5t-188.5 -326.5l-137 39l-27 53q381 561 453 670t216 365.5t189 330.5zM1954 111h-94v-111h-318v111h-416l-8 129
q127 323 209 637l287 -52l12 -63q-138 -254 -283 -473l7 -23q144 21 184 21h8v202l238 76l80 -18v-260h94v-176z" />
    <glyph glyph-name="onehalf" unicode="&#xbd;" horiz-adv-x="2050" 
d="M639 639v-113h-600v113l145 35v440q-90 -4 -145 -4v152q73 3 161 38t134 89l168 -13v-723zM1425 1368l25 -51q-225 -331 -449 -670q-73 -110 -220.5 -369.5t-188.5 -326.5l-137 39l-27 53q381 561 453 670t216 365.5t189 330.5zM1847 303l148 -6q16 -49 16 -117
q0 -110 -24 -180h-742l-8 143q23 17 68 50.5t70.5 52.5t65 52t63 56.5t51.5 58t43 65.5t25.5 69t10.5 78q0 59 -20.5 81.5t-59.5 22.5q-5 0 -16.5 -1t-17.5 -1l-29 -221h-205q-61 43 -61 125q0 102 111 166.5t286 64.5q173 0 270 -64t97 -177q0 -45 -15.5 -85t-51 -78
t-75 -68.5t-108 -68.5t-126.5 -66.5t-153 -72.5l8 -20q131 33 228 43l133 12z" />
    <glyph glyph-name="threequarters" unicode="&#xbe;" horiz-adv-x="2146" 
d="M580 963v-25q114 -13 177.5 -62.5t63.5 -138.5q0 -80 -55 -134t-148.5 -78.5t-220.5 -24.5q-171 0 -269.5 46t-98.5 136q0 70 53 123h203l20 -168q40 -4 53 -4q61 0 86 25.5t25 89.5q0 68 -33 95t-125 27h-26v138h71q42 39 60 70t18 83t-18.5 72t-59.5 20q-22 0 -32 -2
l-21 -168h-203q-55 51 -55 111q0 95 101.5 143.5t275.5 48.5q364 0 364 -227q0 -86 -51 -130t-155 -66zM1597 1368l25 -51q-186 -274 -448 -670q-73 -111 -221.5 -371t-188.5 -325l-137 39l-27 53q381 561 453 670t216 365.5t189 330.5zM2126 111h-94v-111h-318v111h-416
l-8 129q127 323 209 637l287 -52l12 -63q-142 -262 -282 -473l6 -23q144 21 184 21h8v202l238 76l80 -18v-260h94v-176z" />
    <glyph glyph-name="questiondown" unicode="&#xbf;" horiz-adv-x="800" 
d="M356 776l-8 297q89 19 166 19q138 0 209 -31q22 -46 22 -109q0 -121 -81 -202zM193 113q0 -21 19 -32t75.5 -16.5t162 -2t275.5 15.5v-375q-101 -27 -190 -27q-106 0 -190.5 33.5t-137.5 87t-88.5 126.5t-49.5 147.5t-14 154.5q0 154 71 225.5t275 122.5l19 76h196
q29 -40 40.5 -57.5t30 -50.5t25.5 -63.5t7 -65.5q0 -43 -10.5 -70.5t-40.5 -47t-59 -29.5t-91 -27q-50 -13 -130 -34q-122 -30 -158.5 -45.5t-36.5 -45.5z" />
    <glyph glyph-name="Agrave" unicode="&#xc0;" horiz-adv-x="1495" 
d="M1491 137v-137h-723v137l117 51l-45 160h-439l-53 -192l111 -19v-137h-455v137l125 49q213 692 381 1155l377 48l69 -21q218 -591 408 -1210zM453 530h331q-94 310 -153 478h-27q-61 -178 -151 -478zM856 1460h-174l-332 234q42 127 105 176h268z" />
    <glyph glyph-name="Aacute" unicode="&#xc1;" horiz-adv-x="1495" 
d="M1491 137v-137h-723v137l117 51l-45 160h-439l-53 -192l111 -19v-137h-455v137l125 49q213 692 381 1155l377 48l69 -21q218 -591 408 -1210zM453 530h331q-94 310 -153 478h-27q-61 -178 -151 -478zM856 1870h266q66 -51 107 -176l-373 -234h-174z" />
    <glyph glyph-name="Acircumflex" unicode="&#xc2;" horiz-adv-x="1495" 
d="M1491 137v-137h-723v137l117 51l-45 160h-439l-53 -192l111 -19v-137h-455v137l125 49q213 692 381 1155l377 48l69 -21q218 -591 408 -1210zM453 530h331q-94 310 -153 478h-27q-61 -178 -151 -478zM1133 1540l-232 -115l-225 207h-21l-196 -172h-150l316 389h249z" />
    <glyph glyph-name="Atilde" unicode="&#xc3;" horiz-adv-x="1495" 
d="M1491 137v-137h-723v137l117 51l-45 160h-439l-53 -192l111 -19v-137h-455v137l125 49q213 692 381 1155l377 48l69 -21q218 -591 408 -1210zM453 530h331q-94 310 -153 478h-27q-61 -178 -151 -478zM1042 1827l99 -55q-18 -65 -38 -112.5t-50.5 -90.5t-74 -65.5
t-99.5 -22.5q-75 0 -134 22l-253 94l-91 -116l-98 55q18 65 38 113t50.5 90.5t74 65t99.5 22.5q69 0 131 -23l254 -96z" />
    <glyph glyph-name="Adieresis" unicode="&#xc4;" horiz-adv-x="1495" 
d="M1491 137v-137h-723v137l117 51l-45 160h-439l-53 -192l111 -19v-137h-455v137l125 49q213 692 381 1155l377 48l69 -21q218 -591 408 -1210zM453 530h331q-94 310 -153 478h-27q-61 -178 -151 -478zM477 1800q76 0 123 -16q33 -54 33 -135q0 -50 -15.5 -89t-52.5 -87
h-266l-39 282q113 45 217 45zM1028 1800q74 0 123 -16q31 -55 31 -135q0 -51 -14.5 -90t-51.5 -86h-268l-39 282q119 45 219 45z" />
    <glyph glyph-name="Aring" unicode="&#xc5;" horiz-adv-x="1495" 
d="M1491 137v-137h-723v137l117 51l-45 160h-439l-53 -192l111 -19v-137h-455v137l125 49q213 692 381 1155l377 48l69 -21q218 -591 408 -1210zM453 530h331q-94 310 -153 478h-27q-61 -178 -151 -478zM748 1903q143 0 210.5 -56t67.5 -157q0 -116 -84 -173t-237 -57
q-289 0 -289 201q0 82 47 138t119.5 80t165.5 24zM723 1780q-40 0 -58 -23t-18 -74q0 -52 18 -76t56 -24q78 0 78 103q0 49 -18 71.5t-58 22.5z" />
    <glyph glyph-name="AE" unicode="&#xc6;" horiz-adv-x="2070" 
d="M1741 416l254 -13q14 -91 14 -172q0 -119 -24 -231h-1213v137l129 51v181h-452l-93 -211l115 -21v-137h-467v137l121 47q206 436 500 1010l-148 31v137h1516q12 -64 12 -160q0 -117 -29 -239h-233l-64 217l-329 12v-424l176 14l22 92h152v-378h-152l-22 92l-176 14v-432
l309 8zM901 551v608h-90q-46 -99 -140 -302t-141 -306h371z" />
    <glyph glyph-name="Ccedilla" unicode="&#xc7;" horiz-adv-x="1411" 
d="M1309 356l26 -163q-168 -172 -430 -209v-88q63 0 107.5 -14t67.5 -38.5t32.5 -50t9.5 -55.5q0 -81 -68 -127.5t-208 -46.5q-183 0 -273 69l17 115q104 -22 155 -22q70 0 70 49q0 29 -24.5 42t-94.5 19l31 139q-315 9 -487 193t-172 489q0 163 51.5 297t150 231
t251.5 150.5t347 53.5q247 0 432 -80q11 -61 11 -148q0 -123 -29 -252h-254l-78 279q-49 6 -94 6q-101 0 -162.5 -37.5t-94 -132.5t-32.5 -258q0 -264 86 -383t277 -119q184 0 379 92z" />
    <glyph glyph-name="Egrave" unicode="&#xc8;" horiz-adv-x="1351" 
d="M1022 416l254 -13q14 -91 14 -172q0 -119 -24 -231h-1213v137l127 51v1006l-131 31v137h1225q14 -75 14 -154q0 -114 -31 -245h-233l-63 217l-330 12v-424l178 14l20 92h152v-378h-152l-20 92l-178 14v-432l309 8zM821 1460h-174l-332 234q42 127 105 176h268z" />
    <glyph glyph-name="Eacute" unicode="&#xc9;" horiz-adv-x="1351" 
d="M1022 416l254 -13q14 -91 14 -172q0 -119 -24 -231h-1213v137l127 51v1006l-131 31v137h1225q14 -75 14 -154q0 -114 -31 -245h-233l-63 217l-330 12v-424l178 14l20 92h152v-378h-152l-20 92l-178 14v-432l309 8zM821 1870h266q66 -51 107 -176l-373 -234h-174z" />
    <glyph glyph-name="Ecircumflex" unicode="&#xca;" horiz-adv-x="1351" 
d="M1022 416l254 -13q14 -91 14 -172q0 -119 -24 -231h-1213v137l127 51v1006l-131 31v137h1225q14 -75 14 -154q0 -114 -31 -245h-233l-63 217l-330 12v-424l178 14l20 92h152v-378h-152l-20 92l-178 14v-432l309 8zM1098 1540l-232 -115l-225 207h-20l-197 -172h-150
l316 389h250z" />
    <glyph glyph-name="Edieresis" unicode="&#xcb;" horiz-adv-x="1351" 
d="M1022 416l254 -13q14 -91 14 -172q0 -119 -24 -231h-1213v137l127 51v1006l-131 31v137h1225q14 -75 14 -154q0 -114 -31 -245h-233l-63 217l-330 12v-424l178 14l20 92h152v-378h-152l-20 92l-178 14v-432l309 8zM442 1800q76 0 123 -16q33 -54 33 -135q0 -50 -15.5 -89
t-52.5 -87h-266l-39 282q113 45 217 45zM993 1800q74 0 123 -16q31 -55 31 -135q0 -51 -14.5 -90t-51.5 -86h-268l-39 282q119 45 219 45z" />
    <glyph glyph-name="Igrave" unicode="&#xcc;" horiz-adv-x="806" 
d="M629 1174v-1016l129 -21v-137h-709v137l129 51v1016l-129 21v137h709v-137zM551 1460h-174l-332 234q42 127 105 176h268z" />
    <glyph glyph-name="Iacute" unicode="&#xcd;" horiz-adv-x="806" 
d="M629 1174v-1016l129 -21v-137h-709v137l129 51v1016l-129 21v137h709v-137zM551 1870h266q66 -51 107 -176l-373 -234h-174z" />
    <glyph glyph-name="Icircumflex" unicode="&#xce;" horiz-adv-x="806" 
d="M629 1174v-1016l129 -21v-137h-709v137l129 51v1016l-129 21v137h709v-137zM827 1540l-231 -115l-225 207h-21l-196 -172h-150l315 389h250z" />
    <glyph glyph-name="Idieresis" unicode="&#xcf;" horiz-adv-x="806" 
d="M629 1174v-1016l129 -21v-137h-709v137l129 51v1016l-129 21v137h709v-137zM172 1800q76 0 123 -16q33 -54 33 -135q0 -50 -15.5 -89t-52.5 -87h-266l-39 282q113 45 217 45zM723 1800q74 0 123 -16q31 -55 31 -135q0 -51 -14.5 -90t-51.5 -86h-268l-39 282
q119 45 219 45z" />
    <glyph glyph-name="Eth" unicode="&#xd0;" horiz-adv-x="1603" 
d="M647 1389q245 0 418 -43.5t276 -130t149 -205.5t46 -281q0 -359 -209.5 -544t-595.5 -185h-661v137l129 51v433h-129v170h129v409l-129 21v137q108 12 283 21.5t294 9.5zM649 182h76q77 0 128.5 14.5t88.5 46.5t57 92.5t28.5 143t8.5 207.5q0 130 -9.5 218t-28.5 148.5
t-55 93.5t-83 46.5t-117 13.5h-94v-415h232v-170h-232v-439z" />
    <glyph glyph-name="Ntilde" unicode="&#xd1;" horiz-adv-x="1566" 
d="M1530 1225l-127 -49v-1156l-402 -45l-71 21l-391 752q-100 196 -150 350h-24l38 -940l154 -21v-137h-508v137l129 51v1016l-129 21v137h690l301 -596q76 -150 150 -344h27l-35 782l-154 21v137h502v-137zM1085 1827l99 -55q-18 -65 -38 -112.5t-50.5 -90.5t-74 -65.5
t-99.5 -22.5q-75 0 -134 22l-253 94l-91 -116l-98 55q18 65 38 113t50.5 90.5t74 65t99.5 22.5q69 0 131 -23l254 -96z" />
    <glyph glyph-name="Ograve" unicode="&#xd2;" horiz-adv-x="1648" 
d="M870 1389q177 0 313.5 -49t223 -139t130.5 -212t44 -272q0 -178 -61 -320.5t-169.5 -234.5t-254.5 -140.5t-318 -48.5q-175 0 -311.5 50t-223 141t-131 215t-44.5 274q0 176 60 316.5t167.5 231.5t254 139.5t320.5 48.5zM823 1194q-94 0 -148 -46t-81 -157.5t-27 -306.5
q0 -196 26.5 -308.5t81.5 -160t148 -47.5q94 0 149 47.5t82 160t27 308.5t-27 307t-81.5 157t-149.5 46zM961 1460h-175l-331 234q42 128 104 176h268z" />
    <glyph glyph-name="Oacute" unicode="&#xd3;" horiz-adv-x="1648" 
d="M870 1389q177 0 313.5 -49t223 -139t130.5 -212t44 -272q0 -178 -61 -320.5t-169.5 -234.5t-254.5 -140.5t-318 -48.5q-175 0 -311.5 50t-223 141t-131 215t-44.5 274q0 176 60 316.5t167.5 231.5t254 139.5t320.5 48.5zM823 1194q-94 0 -148 -46t-81 -157.5t-27 -306.5
q0 -196 26.5 -308.5t81.5 -160t148 -47.5q94 0 149 47.5t82 160t27 308.5t-27 307t-81.5 157t-149.5 46zM961 1870h266q65 -50 106 -176l-372 -234h-175z" />
    <glyph glyph-name="Ocircumflex" unicode="&#xd4;" horiz-adv-x="1648" 
d="M870 1389q177 0 313.5 -49t223 -139t130.5 -212t44 -272q0 -178 -61 -320.5t-169.5 -234.5t-254.5 -140.5t-318 -48.5q-175 0 -311.5 50t-223 141t-131 215t-44.5 274q0 176 60 316.5t167.5 231.5t254 139.5t320.5 48.5zM823 1194q-94 0 -148 -46t-81 -157.5t-27 -306.5
q0 -196 26.5 -308.5t81.5 -160t148 -47.5q94 0 149 47.5t82 160t27 308.5t-27 307t-81.5 157t-149.5 46zM1237 1540l-231 -115l-226 207h-20l-197 -172h-149l315 389h250z" />
    <glyph glyph-name="Otilde" unicode="&#xd5;" horiz-adv-x="1648" 
d="M870 1389q177 0 313.5 -49t223 -139t130.5 -212t44 -272q0 -178 -61 -320.5t-169.5 -234.5t-254.5 -140.5t-318 -48.5q-175 0 -311.5 50t-223 141t-131 215t-44.5 274q0 176 60 316.5t167.5 231.5t254 139.5t320.5 48.5zM823 1194q-94 0 -148 -46t-81 -157.5t-27 -306.5
q0 -196 26.5 -308.5t81.5 -160t148 -47.5q94 0 149 47.5t82 160t27 308.5t-27 307t-81.5 157t-149.5 46zM1147 1827l98 -55q-18 -65 -38 -112.5t-50.5 -90.5t-74 -65.5t-99.5 -22.5q-74 0 -133 22l-254 94l-90 -116l-98 55q18 65 38 113t50.5 90.5t74 65t99.5 22.5
q69 0 131 -23l254 -96z" />
    <glyph glyph-name="Odieresis" unicode="&#xd6;" horiz-adv-x="1648" 
d="M870 1389q177 0 313.5 -49t223 -139t130.5 -212t44 -272q0 -178 -61 -320.5t-169.5 -234.5t-254.5 -140.5t-318 -48.5q-175 0 -311.5 50t-223 141t-131 215t-44.5 274q0 176 60 316.5t167.5 231.5t254 139.5t320.5 48.5zM823 1194q-94 0 -148 -46t-81 -157.5t-27 -306.5
q0 -196 26.5 -308.5t81.5 -160t148 -47.5q94 0 149 47.5t82 160t27 308.5t-27 307t-81.5 157t-149.5 46zM582 1800q76 0 123 -16q32 -52 32 -135q0 -51 -15 -89.5t-52 -86.5h-267l-38 282q113 45 217 45zM1133 1800q73 0 122 -16q31 -55 31 -135q0 -51 -14 -90t-51 -86h-269
l-39 282q119 45 220 45z" />
    <glyph glyph-name="multiply" unicode="&#xd7;" 
d="M1096 924l-283 -310l299 -299l-178 -163l-283 309l-309 -307l-178 163l289 310l-308 299l181 164l288 -308l301 305z" />
    <glyph glyph-name="Oslash" unicode="&#xd8;" horiz-adv-x="1648" 
d="M1434 1440l-117 -166q264 -174 264 -557q0 -178 -61 -320.5t-169.5 -234.5t-254.5 -140.5t-318 -48.5q-201 0 -356 68l-162 -223l-113 59l-18 47l147 209q-208 184 -208 520q0 176 60 316.5t167.5 231.5t254 139.5t320.5 48.5q162 0 287 -41l146 198l114 -59zM825 1194
q-96 0 -150 -42t-81 -153t-27 -315q0 -64 4 -158l433 594q-55 74 -179 74zM823 168q96 0 150 43.5t81 156t27 316.5q0 171 -16 262l-457 -631q28 -80 80 -113.5t135 -33.5z" />
    <glyph glyph-name="Ugrave" unicode="&#xd9;" horiz-adv-x="1492" 
d="M1468 1225l-129 -51v-738q0 -216 -157.5 -339.5t-444.5 -123.5t-435 125.5t-148 352.5v753l-129 21v137h698v-137l-119 -51v-764q0 -137 62 -198.5t188 -61.5q260 0 260 253v801l-139 21v137h493v-137zM965 1460h-174l-332 234q42 128 104 176h268z" />
    <glyph glyph-name="Uacute" unicode="&#xda;" horiz-adv-x="1492" 
d="M1468 1225l-129 -51v-738q0 -216 -157.5 -339.5t-444.5 -123.5t-435 125.5t-148 352.5v753l-129 21v137h698v-137l-119 -51v-764q0 -137 62 -198.5t188 -61.5q260 0 260 253v801l-139 21v137h493v-137zM965 1870h266q65 -50 106 -176l-372 -234h-174z" />
    <glyph glyph-name="Ucircumflex" unicode="&#xdb;" horiz-adv-x="1492" 
d="M1468 1225l-129 -51v-738q0 -216 -157.5 -339.5t-444.5 -123.5t-435 125.5t-148 352.5v753l-129 21v137h698v-137l-119 -51v-764q0 -137 62 -198.5t188 -61.5q260 0 260 253v801l-139 21v137h493v-137zM1241 1540l-231 -115l-226 207h-20l-197 -172h-149l315 389h250z
" />
    <glyph glyph-name="Udieresis" unicode="&#xdc;" horiz-adv-x="1492" 
d="M1468 1225l-129 -51v-738q0 -216 -157.5 -339.5t-444.5 -123.5t-435 125.5t-148 352.5v753l-129 21v137h698v-137l-119 -51v-764q0 -137 62 -198.5t188 -61.5q260 0 260 253v801l-139 21v137h493v-137zM586 1800q76 0 123 -16q32 -52 32 -135q0 -51 -15 -89.5t-52 -86.5
h-266l-39 282q113 45 217 45zM1137 1800q74 0 123 -16q30 -53 30 -135q0 -51 -14 -90t-51 -86h-269l-38 282q119 45 219 45z" />
    <glyph glyph-name="Yacute" unicode="&#xdd;" horiz-adv-x="1431" 
d="M1427 1225l-122 -49q-146 -327 -338 -703v-315l151 -21v-137h-751v137l151 51v261q-241 472 -373 755l-141 21v137h684v-137l-61 -39q99 -249 219 -498h26q117 246 224 516l-142 21v137h473v-137zM893 1870h266q66 -51 107 -176l-373 -234h-174z" />
    <glyph glyph-name="Thorn" unicode="&#xde;" horiz-adv-x="1456" 
d="M629 1161h125q177 0 294.5 -20.5t199.5 -72t118.5 -137t36.5 -216.5q0 -230 -117 -337.5t-360 -107.5q-110 0 -217 21v160h24q43 0 71.5 10t53 37t36 82t11.5 139q0 142 -40 201t-140 59h-96v-821h2l168 -21v-137h-748v137l127 51v1016l-129 21v137h537l43 -49v-152z" />
    <glyph glyph-name="germandbls" unicode="&#xdf;" horiz-adv-x="1435" 
d="M1147 725q138 -57 201 -139.5t63 -208.5q0 -189 -126 -296.5t-343 -107.5q-62 0 -117.5 9.5t-105.5 30.5t-79.5 60t-29.5 93q0 45 19.5 81t50.5 54h125l26 -197q44 -10 89 -10q61 0 92.5 26t31.5 89q0 49 -28 78t-129 92q-50 31 -76 48t-59.5 44.5t-49.5 50.5t-28 55.5
t-12 69.5q0 28 5 53t18.5 51.5t20 38.5t28 43t24.5 35q45 68 68.5 137t23.5 179q0 122 -35.5 178.5t-114.5 56.5q-143 0 -143 -170v-1249h-522v113l108 51v706l-129 31v143l131 25q17 235 188.5 354t461.5 119q231 0 358 -75t127 -222q0 -44 -11.5 -82.5t-34.5 -69
t-47.5 -54t-62 -46t-66 -37t-69.5 -32.5q-50 -22 -62 -32t-12 -32q0 -30 32.5 -48.5t199.5 -86.5z" />
    <glyph glyph-name="agrave" unicode="&#xe0;" horiz-adv-x="1161" 
d="M1151 190v-137q-173 -69 -301 -69q-197 0 -197 147v25h-26q-43 -95 -124 -139t-181 -44q-138 0 -214.5 75.5t-76.5 207.5q0 162 118 245t345 83q79 0 141 -4v188q0 108 -31.5 144t-107.5 36l-39 -2l-33 -264h-252q-82 65 -82 152q0 116 140 187t356 71q236 0 347 -92
t109 -271l-10 -502zM535 211q48 0 100 31v217h-68q-64 0 -89 -37.5t-25 -104.5q0 -60 18.5 -83t63.5 -23zM702 1174h-151l-350 282q39 127 104 176h266z" />
    <glyph glyph-name="aacute" unicode="&#xe1;" horiz-adv-x="1161" 
d="M1151 190v-137q-173 -69 -301 -69q-197 0 -197 147v25h-26q-43 -95 -124 -139t-181 -44q-138 0 -214.5 75.5t-76.5 207.5q0 162 118 245t345 83q79 0 141 -4v188q0 108 -31.5 144t-107.5 36l-39 -2l-33 -264h-252q-82 65 -82 152q0 116 140 187t356 71q236 0 347 -92
t109 -271l-10 -502zM535 211q48 0 100 31v217h-68q-64 0 -89 -37.5t-25 -104.5q0 -60 18.5 -83t63.5 -23zM616 1632h269q64 -61 102 -176l-371 -282h-149z" />
    <glyph glyph-name="acircumflex" unicode="&#xe2;" horiz-adv-x="1161" 
d="M1151 190v-137q-173 -69 -301 -69q-197 0 -197 147v25h-26q-43 -95 -124 -139t-181 -44q-138 0 -214.5 75.5t-76.5 207.5q0 162 118 245t345 83q79 0 141 -4v188q0 108 -31.5 144t-107.5 36l-39 -2l-33 -264h-252q-82 65 -82 152q0 116 140 187t356 71q236 0 347 -92
t109 -271l-10 -502zM535 211q48 0 100 31v217h-68q-64 0 -89 -37.5t-25 -104.5q0 -60 18.5 -83t63.5 -23zM971 1253l-232 -114l-202 227h-23l-174 -192h-150l293 430h250z" />
    <glyph glyph-name="atilde" unicode="&#xe3;" horiz-adv-x="1161" 
d="M1151 190v-137q-173 -69 -301 -69q-197 0 -197 147v25h-26q-43 -95 -124 -139t-181 -44q-138 0 -214.5 75.5t-76.5 207.5q0 162 118 245t345 83q79 0 141 -4v188q0 108 -31.5 144t-107.5 36l-39 -2l-33 -264h-252q-82 65 -82 152q0 116 140 187t356 71q236 0 347 -92
t109 -271l-10 -502zM535 211q48 0 100 31v217h-68q-64 0 -89 -37.5t-25 -104.5q0 -60 18.5 -83t63.5 -23zM860 1542l98 -55q-15 -53 -28 -91t-34.5 -78.5t-46.5 -65t-62 -40.5t-82 -16q-67 0 -125 27l-191 92l-88 -119l-98 55q14 52 26.5 88.5t34 78t46.5 66.5t62 41.5
t83 16.5q71 0 127 -26l188 -95z" />
    <glyph glyph-name="adieresis" unicode="&#xe4;" horiz-adv-x="1161" 
d="M1151 190v-137q-173 -69 -301 -69q-197 0 -197 147v25h-26q-43 -95 -124 -139t-181 -44q-138 0 -214.5 75.5t-76.5 207.5q0 162 118 245t345 83q79 0 141 -4v188q0 108 -31.5 144t-107.5 36l-39 -2l-33 -264h-252q-82 65 -82 152q0 116 140 187t356 71q236 0 347 -92
t109 -271l-10 -502zM535 211q48 0 100 31v217h-68q-64 0 -89 -37.5t-25 -104.5q0 -60 18.5 -83t63.5 -23zM371 1563q76 0 123 -17q34 -56 34 -135q0 -50 -15.5 -88.5t-51.5 -87.5h-268l-39 283q113 45 217 45zM852 1563q76 0 123 -17q35 -53 35 -135q0 -49 -15.5 -88
t-52.5 -88h-266l-41 283q119 45 217 45z" />
    <glyph glyph-name="aring" unicode="&#xe5;" horiz-adv-x="1161" 
d="M1151 190v-137q-173 -69 -301 -69q-197 0 -197 147v25h-26q-43 -95 -124 -139t-181 -44q-138 0 -214.5 75.5t-76.5 207.5q0 162 118 245t345 83q79 0 141 -4v188q0 108 -31.5 144t-107.5 36l-39 -2l-33 -264h-252q-82 65 -82 152q0 116 140 187t356 71q236 0 347 -92
t109 -271l-10 -502zM535 211q48 0 100 31v217h-68q-64 0 -89 -37.5t-25 -104.5q0 -60 18.5 -83t63.5 -23zM606 1659q143 0 211 -59t68 -166q0 -126 -85 -192t-237 -66q-147 0 -218 60.5t-71 166.5q0 128 93.5 192t238.5 64zM582 1538q-41 0 -58.5 -26.5t-17.5 -92.5
q0 -67 17.5 -95t56.5 -28q41 0 59 29t18 94t-17.5 92t-57.5 27z" />
    <glyph glyph-name="ae" unicode="&#xe6;" horiz-adv-x="1714" 
d="M1333 236q134 0 279 55l26 -139q-39 -38 -77.5 -66t-94.5 -55.5t-131 -42.5t-164 -15q-320 0 -456 193h-27q-42 -97 -128.5 -145t-205.5 -48q-153 0 -238 75t-85 214q0 69 23.5 121t60.5 84t97.5 54.5t120.5 33t142 18.5q89 9 152 9l4 186q3 108 -30 144t-109 36l-39 -2
l-33 -264h-252q-82 65 -82 152q0 75 63.5 135t164.5 91.5t216 31.5q139 0 219.5 -46t108.5 -118h27q49 76 141.5 120t220.5 44q135 0 228 -50.5t135.5 -133.5t42.5 -193q0 -126 -39 -215l-565 -17q22 -127 90 -187t194 -60zM1161 928q-123 0 -123 -303v-11l213 29l2 80
q0 107 -21 156t-71 49zM539 211q62 0 125 55q-33 81 -39 193l-39 -2q-42 -2 -69 -14t-38.5 -33t-15.5 -39t-4 -43q0 -65 19.5 -91t60.5 -26z" />
    <glyph glyph-name="ccedilla" unicode="&#xe7;" horiz-adv-x="1124" 
d="M784 227q107 0 250 47l23 -139q-141 -137 -357 -158v-81q63 0 108 -14t67.5 -38.5t32.5 -50t10 -55.5q0 -80 -68.5 -127t-208.5 -47q-182 0 -272 69l16 115q104 -22 156 -22q39 0 54 12.5t15 36.5q0 30 -24 42.5t-94 18.5l30 141q-124 11 -215 55t-145.5 114t-80.5 158
t-26 196q0 119 31.5 217t87 166t133 114.5t167.5 68t192 21.5q117 0 207.5 -27.5t146 -88t55.5 -146.5q0 -116 -92 -176h-262l-25 293l-32 2q-76 0 -114 -72t-38 -245q0 -208 61.5 -304t210.5 -96z" />
    <glyph glyph-name="egrave" unicode="&#xe8;" horiz-adv-x="1165" 
d="M784 236q133 0 281 55l25 -139q-83 -83 -191.5 -131t-280.5 -48q-150 0 -261 39.5t-176 112t-95.5 166.5t-30.5 211q0 118 30.5 215.5t85.5 166.5t131.5 116t168 69.5t195.5 22.5q118 0 204.5 -28.5t136.5 -80t73.5 -116.5t23.5 -146q0 -117 -39 -197h-571
q15 -150 84.5 -219t205.5 -69zM612 928q-120 0 -125 -273l218 17v53q0 103 -21.5 153t-71.5 50zM741 1174h-151l-350 282q39 127 104 176h266z" />
    <glyph glyph-name="eacute" unicode="&#xe9;" horiz-adv-x="1165" 
d="M784 236q133 0 281 55l25 -139q-83 -83 -191.5 -131t-280.5 -48q-150 0 -261 39.5t-176 112t-95.5 166.5t-30.5 211q0 118 30.5 215.5t85.5 166.5t131.5 116t168 69.5t195.5 22.5q118 0 204.5 -28.5t136.5 -80t73.5 -116.5t23.5 -146q0 -117 -39 -197h-571
q15 -150 84.5 -219t205.5 -69zM612 928q-120 0 -125 -273l218 17v53q0 103 -21.5 153t-71.5 50zM655 1632h269q64 -61 102 -176l-371 -282h-149z" />
    <glyph glyph-name="ecircumflex" unicode="&#xea;" horiz-adv-x="1165" 
d="M784 236q133 0 281 55l25 -139q-83 -83 -191.5 -131t-280.5 -48q-150 0 -261 39.5t-176 112t-95.5 166.5t-30.5 211q0 118 30.5 215.5t85.5 166.5t131.5 116t168 69.5t195.5 22.5q118 0 204.5 -28.5t136.5 -80t73.5 -116.5t23.5 -146q0 -117 -39 -197h-571
q15 -150 84.5 -219t205.5 -69zM612 928q-120 0 -125 -273l218 17v53q0 103 -21.5 153t-71.5 50zM1010 1253l-232 -114l-203 227h-22l-174 -192h-150l293 430h250z" />
    <glyph glyph-name="edieresis" unicode="&#xeb;" horiz-adv-x="1165" 
d="M784 236q133 0 281 55l25 -139q-83 -83 -191.5 -131t-280.5 -48q-150 0 -261 39.5t-176 112t-95.5 166.5t-30.5 211q0 118 30.5 215.5t85.5 166.5t131.5 116t168 69.5t195.5 22.5q118 0 204.5 -28.5t136.5 -80t73.5 -116.5t23.5 -146q0 -117 -39 -197h-571
q15 -150 84.5 -219t205.5 -69zM612 928q-120 0 -125 -273l218 17v53q0 103 -21.5 153t-71.5 50zM410 1563q75 0 122 -17q35 -57 35 -135q0 -50 -15.5 -88.5t-51.5 -87.5h-269l-38 283q113 45 217 45zM891 1563q76 0 123 -17q35 -53 35 -135q0 -49 -15.5 -88t-52.5 -88h-266
l-41 283q119 45 217 45z" />
    <glyph glyph-name="igrave" unicode="&#xec;" horiz-adv-x="690" 
d="M676 133v-133h-641v133l108 51v643l-108 58v135q202 52 473 65l49 -28v-901zM455 1174h-150l-371 282q38 126 105 176h266z" />
    <glyph glyph-name="iacute" unicode="&#xed;" horiz-adv-x="690" 
d="M676 133v-133h-641v133l108 51v643l-108 58v135q202 52 473 65l49 -28v-901zM369 1632h268q66 -52 104 -176l-370 -282h-150z" />
    <glyph glyph-name="icircumflex" unicode="&#xee;" horiz-adv-x="690" 
d="M676 133v-133h-641v133l108 51v643l-108 58v135q202 52 473 65l49 -28v-901zM653 1253l-233 -114l-156 207h-22l-127 -172h-150l246 430h250z" />
    <glyph glyph-name="idieresis" unicode="&#xef;" horiz-adv-x="690" 
d="M676 133v-133h-641v133l108 51v643l-108 58v135q202 52 473 65l49 -28v-901zM131 1563q76 0 123 -17q35 -57 35 -135q0 -49 -15.5 -88t-52.5 -88h-246l-36 283q45 18 62 24t54 13.5t76 7.5zM571 1563q73 0 123 -17q33 -54 33 -135q0 -51 -15 -90t-53 -86h-241l-41 283
q66 25 104.5 35t89.5 10z" />
    <glyph glyph-name="eth" unicode="&#xf0;" horiz-adv-x="1298" 
d="M1032 1423l-182 -84q114 -77 195 -174t122 -198t58.5 -192t17.5 -185q0 -302 -163 -460.5t-453 -158.5q-124 0 -225.5 30.5t-180.5 93t-122.5 167t-43.5 244.5q0 225 111.5 352t316.5 127q181 0 275 -117h26q-26 207 -196 351l-217 -101l-138 78l-8 43l197 92
q-118 65 -283 123l80 111q251 -39 443 -123l227 106l137 -80zM649 135q85 0 115.5 78.5t30.5 288.5q0 126 -13 250q-68 39 -137 39q-53 0 -80.5 -23.5t-42 -94.5t-14.5 -210q0 -185 28.5 -256.5t112.5 -71.5z" />
    <glyph glyph-name="ntilde" unicode="&#xf1;" horiz-adv-x="1339" 
d="M1333 133v-133h-598v133l68 51v504q0 62 -26 92.5t-87 30.5q-66 0 -133 -39v-618l78 -21v-133h-600v133l108 51v643l-108 58v135q250 59 450 65l50 -28l-11 -168h27q57 101 151 152t209 51q153 0 229.5 -86.5t76.5 -235.5v-616zM987 1542l98 -55q-19 -67 -37 -112.5
t-47 -90t-71.5 -66.5t-98.5 -22q-66 0 -124 27l-191 92l-88 -119l-98 55q14 52 26.5 88.5t34 78t46.5 66.5t62 41.5t83 16.5q71 0 127 -26l188 -95z" />
    <glyph glyph-name="ograve" unicode="&#xf2;" horiz-adv-x="1304" 
d="M690 1092q144 0 252.5 -40t175 -112.5t99 -167.5t32.5 -211q0 -278 -173.5 -433t-463.5 -155q-143 0 -251.5 40t-174.5 112.5t-98.5 167.5t-32.5 211q0 280 173 434t462 154zM651 928q-83 0 -109 -83t-26 -310q0 -229 26 -313.5t109 -84.5t109 84.5t26 313.5
q0 227 -26 310t-109 83zM776 1174h-151l-351 282q38 126 105 176h266z" />
    <glyph glyph-name="oacute" unicode="&#xf3;" horiz-adv-x="1304" 
d="M690 1092q144 0 252.5 -40t175 -112.5t99 -167.5t32.5 -211q0 -278 -173.5 -433t-463.5 -155q-143 0 -251.5 40t-174.5 112.5t-98.5 167.5t-32.5 211q0 280 173 434t462 154zM651 928q-83 0 -109 -83t-26 -310q0 -229 26 -313.5t109 -84.5t109 84.5t26 313.5
q0 227 -26 310t-109 83zM690 1632h268q66 -63 103 -176l-371 -282h-149z" />
    <glyph glyph-name="ocircumflex" unicode="&#xf4;" horiz-adv-x="1304" 
d="M690 1092q144 0 252.5 -40t175 -112.5t99 -167.5t32.5 -211q0 -278 -173.5 -433t-463.5 -155q-143 0 -251.5 40t-174.5 112.5t-98.5 167.5t-32.5 211q0 280 173 434t462 154zM651 928q-83 0 -109 -83t-26 -310q0 -229 26 -313.5t109 -84.5t109 84.5t26 313.5
q0 227 -26 310t-109 83zM1044 1253l-231 -114l-203 227h-22l-174 -192h-150l293 430h250z" />
    <glyph glyph-name="otilde" unicode="&#xf5;" horiz-adv-x="1304" 
d="M690 1092q144 0 252.5 -40t175 -112.5t99 -167.5t32.5 -211q0 -278 -173.5 -433t-463.5 -155q-143 0 -251.5 40t-174.5 112.5t-98.5 167.5t-32.5 211q0 280 173 434t462 154zM651 928q-83 0 -109 -83t-26 -310q0 -229 26 -313.5t109 -84.5t109 84.5t26 313.5
q0 227 -26 310t-109 83zM934 1542l98 -55q-19 -67 -37 -112.5t-47 -90t-71.5 -66.5t-98.5 -22q-67 0 -125 27l-190 92l-88 -119l-99 55q14 52 26.5 88.5t34 78t46.5 66.5t62 41.5t83 16.5q71 0 127 -26l189 -95z" />
    <glyph glyph-name="odieresis" unicode="&#xf6;" horiz-adv-x="1304" 
d="M690 1092q144 0 252.5 -40t175 -112.5t99 -167.5t32.5 -211q0 -278 -173.5 -433t-463.5 -155q-143 0 -251.5 40t-174.5 112.5t-98.5 167.5t-32.5 211q0 280 173 434t462 154zM651 928q-83 0 -109 -83t-26 -310q0 -229 26 -313.5t109 -84.5t109 84.5t26 313.5
q0 227 -26 310t-109 83zM444 1563q76 0 123 -17q35 -57 35 -135q0 -50 -15.5 -88.5t-51.5 -87.5h-269l-39 283q113 45 217 45zM926 1563q76 0 123 -17q34 -52 34 -135q0 -50 -15.5 -88.5t-51.5 -87.5h-266l-41 283q119 45 217 45z" />
    <glyph glyph-name="divide" unicode="&#xf7;" 
d="M657 1239q97 0 152 -18q29 -48 29 -134q0 -119 -64 -200h-313l-37 307q105 45 233 45zM1174 514h-1088v213h1088v-213zM657 367q93 0 152 -19q29 -74 29 -133q0 -120 -64 -201h-313l-37 308q105 45 233 45z" />
    <glyph glyph-name="oslash" unicode="&#xf8;" horiz-adv-x="1304" 
d="M1130 1167l-98 -159q110 -67 163.5 -182.5t53.5 -264.5q0 -278 -173.5 -433t-463.5 -155q-116 0 -217 29l-116 -184l-117 53l-21 45l101 162q-187 136 -187 426q0 280 173 434t462 154q94 0 178 -19l125 193l119 -54zM651 928q-97 0 -126 -82t-29 -311v-76l262 424
q-33 45 -107 45zM651 137q97 0 126.5 84t29.5 314q0 110 -4 155l-283 -457q17 -51 48 -73.5t83 -22.5z" />
    <glyph glyph-name="ugrave" unicode="&#xf9;" horiz-adv-x="1329" 
d="M1313 190v-145q-218 -55 -459 -65l-49 28l10 168h-27q-59 -100 -153 -151.5t-207 -51.5q-153 0 -229 86.5t-76 235.5v532l-109 58v135q248 59 473 65l50 -28v-680q0 -63 24.5 -93t85.5 -30q63 0 135 39v545l-77 47v135q268 60 442 65l49 -28v-830zM750 1174h-152
l-350 282q39 127 104 176h266z" />
    <glyph glyph-name="uacute" unicode="&#xfa;" horiz-adv-x="1329" 
d="M1313 190v-145q-218 -55 -459 -65l-49 28l10 168h-27q-59 -100 -153 -151.5t-207 -51.5q-153 0 -229 86.5t-76 235.5v532l-109 58v135q248 59 473 65l50 -28v-680q0 -63 24.5 -93t85.5 -30q63 0 135 39v545l-77 47v135q268 60 442 65l49 -28v-830zM664 1632h268
q64 -61 102 -176l-370 -282h-150z" />
    <glyph glyph-name="ucircumflex" unicode="&#xfb;" horiz-adv-x="1329" 
d="M1313 190v-145q-218 -55 -459 -65l-49 28l10 168h-27q-59 -100 -153 -151.5t-207 -51.5q-153 0 -229 86.5t-76 235.5v532l-109 58v135q248 59 473 65l50 -28v-680q0 -63 24.5 -93t85.5 -30q63 0 135 39v545l-77 47v135q268 60 442 65l49 -28v-830zM1018 1253l-232 -114
l-202 227h-23l-174 -192h-149l292 430h250z" />
    <glyph glyph-name="udieresis" unicode="&#xfc;" horiz-adv-x="1329" 
d="M1313 190v-145q-218 -55 -459 -65l-49 28l10 168h-27q-59 -100 -153 -151.5t-207 -51.5q-153 0 -229 86.5t-76 235.5v532l-109 58v135q248 59 473 65l50 -28v-680q0 -63 24.5 -93t85.5 -30q63 0 135 39v545l-77 47v135q268 60 442 65l49 -28v-830zM418 1563q76 0 123 -17
q34 -56 34 -135q0 -50 -15.5 -88.5t-51.5 -87.5h-268l-39 283q113 45 217 45zM899 1563q76 0 123 -17q35 -53 35 -135q0 -49 -15.5 -88t-52.5 -88h-266l-41 283q119 45 217 45z" />
    <glyph glyph-name="yacute" unicode="&#xfd;" horiz-adv-x="1218" 
d="M1214 911l-122 -49q-67 -212 -162.5 -473.5t-157.5 -392.5q-57 -120 -123.5 -207t-134 -134t-130 -68t-124.5 -21q-113 0 -176 82l10 166h426l15 22q-81 177 -202.5 484.5t-211.5 570.5l-117 20v133h604v-133l-45 -41q105 -362 170 -544h27q78 243 145 565l-127 20v133
h436v-133zM647 1632h268q66 -63 103 -176l-371 -282h-149z" />
    <glyph glyph-name="thorn" unicode="&#xfe;" horiz-adv-x="1294" 
d="M872 1092q176 0 263.5 -133.5t87.5 -383.5q0 -602 -504 -602q-108 0 -187 25v-254l140 -20v-134h-662v134l109 51v1499l-119 57v135q226 67 483 76l49 -29v-202q0 -177 -32 -422h26q57 96 145 149.5t201 53.5zM629 137q92 0 121.5 74t29.5 270q0 140 -12 210.5t-35.5 95
t-70.5 24.5q-63 0 -130 -39v-618q53 -17 97 -17z" />
    <glyph glyph-name="ydieresis" unicode="&#xff;" horiz-adv-x="1218" 
d="M1214 911l-122 -49q-67 -212 -162.5 -473.5t-157.5 -392.5q-57 -120 -123.5 -207t-134 -134t-130 -68t-124.5 -21q-113 0 -176 82l10 166h426l15 22q-81 177 -202.5 484.5t-211.5 570.5l-117 20v133h604v-133l-45 -41q105 -362 170 -544h27q78 243 145 565l-127 20v133
h436v-133zM401 1563q76 0 123 -17q35 -57 35 -135q0 -50 -15.5 -88.5t-51.5 -87.5h-269l-39 283q113 45 217 45zM883 1563q76 0 123 -17q34 -52 34 -135q0 -50 -15.5 -88.5t-51.5 -87.5h-266l-41 283q119 45 217 45z" />
    <glyph glyph-name="Amacron" unicode="&#x100;" horiz-adv-x="1495" 
d="M1491 137v-137h-723v137l117 51l-45 160h-439l-53 -192l111 -19v-137h-455v137l125 49q213 692 381 1155l377 48l69 -21q218 -591 408 -1210zM453 530h331q-94 310 -153 478h-27q-61 -178 -151 -478zM362 1759h719q11 -46 11 -104q0 -63 -11 -113h-719q-10 45 -10 113
q0 62 10 104z" />
    <glyph glyph-name="amacron" unicode="&#x101;" horiz-adv-x="1161" 
d="M1151 190v-137q-173 -69 -301 -69q-197 0 -197 147v25h-26q-43 -95 -124 -139t-181 -44q-138 0 -214.5 75.5t-76.5 207.5q0 162 118 245t345 83q79 0 141 -4v188q0 108 -31.5 144t-107.5 36l-39 -2l-33 -264h-252q-82 65 -82 152q0 116 140 187t356 71q236 0 347 -92
t109 -271l-10 -502zM535 211q48 0 100 31v217h-68q-64 0 -89 -37.5t-25 -104.5q0 -60 18.5 -83t63.5 -23zM252 1477h655q13 -54 13 -105q0 -54 -13 -112h-655q-10 45 -10 112q0 63 10 105z" />
    <glyph glyph-name="Abreve" unicode="&#x102;" horiz-adv-x="1495" 
d="M1491 137v-137h-723v137l117 51l-45 160h-439l-53 -192l111 -19v-137h-455v137l125 49q213 692 381 1155l377 48l69 -21q218 -591 408 -1210zM453 530h331q-94 310 -153 478h-27q-61 -178 -151 -478zM344 1823l266 26q11 -90 50 -133.5t126 -44.5t132 41.5t61 130.5
l125 -4q-1 -181 -113 -280t-291 -99q-168 0 -262 90.5t-94 272.5z" />
    <glyph glyph-name="abreve" unicode="&#x103;" horiz-adv-x="1161" 
d="M1151 190v-137q-173 -69 -301 -69q-197 0 -197 147v25h-26q-43 -95 -124 -139t-181 -44q-138 0 -214.5 75.5t-76.5 207.5q0 162 118 245t345 83q79 0 141 -4v188q0 108 -31.5 144t-107.5 36l-39 -2l-33 -264h-252q-82 65 -82 152q0 116 140 187t356 71q236 0 347 -92
t109 -271l-10 -502zM535 211q48 0 100 31v217h-68q-64 0 -89 -37.5t-25 -104.5q0 -60 18.5 -83t63.5 -23zM227 1546l267 27q8 -93 40 -137t109 -45t115.5 42t50.5 134l123 -15q-1 -125 -52 -210.5t-132 -123.5t-187 -38q-160 0 -247 91t-87 275z" />
    <glyph glyph-name="Aogonek" unicode="&#x104;" horiz-adv-x="1495" 
d="M1491 0h-438q-41 -78 -41 -154q0 -56 25.5 -78t82.5 -22q48 0 103 12l14 -131q-144 -63 -285 -63q-139 0 -211.5 61.5t-72.5 153.5q0 90 68 170t175 141q-32 130 -71 258h-439l-53 -192l111 -19v-137h-455v137l125 49q213 692 381 1155l377 48l69 -21q218 -591 408 -1210
l127 -21v-137zM453 530h331q-94 310 -153 478h-27q-61 -178 -151 -478z" />
    <glyph glyph-name="aogonek" unicode="&#x105;" horiz-adv-x="1161" 
d="M1151 190v-145q-175 -64 -241 -111.5t-66 -103.5q0 -84 112 -84q46 0 99 12l16 -131q-144 -63 -293 -63q-136 0 -206 49.5t-70 140.5q0 81 53 136.5t137 82.5l-35 183h-30q-43 -95 -124 -139t-181 -44q-138 0 -214.5 75.5t-76.5 207.5q0 162 118 245t345 83q79 0 141 -4
v188q3 107 -29.5 143.5t-111.5 36.5l-35 -2l-35 -264h-252q-82 65 -82 152q0 116 140 187t356 71q236 0 347 -92t109 -271l-10 -502zM535 211q48 0 100 31v217h-68q-64 0 -89 -37.5t-25 -104.5q0 -60 18.5 -83t63.5 -23z" />
    <glyph glyph-name="Cacute" unicode="&#x106;" horiz-adv-x="1411" 
d="M1309 356l26 -163q-98 -100 -243 -160t-332 -60q-220 0 -377.5 86t-236 239t-78.5 359q0 163 51.5 297t150 231t251.5 150.5t347 53.5q247 0 432 -80q11 -61 11 -148q0 -123 -29 -252h-254l-78 279q-49 6 -94 6q-101 0 -162.5 -37.5t-94 -132.5t-32.5 -258
q0 -264 86 -383t277 -119q184 0 379 92zM946 1870h266q66 -51 107 -176l-373 -234h-174z" />
    <glyph glyph-name="cacute" unicode="&#x107;" horiz-adv-x="1124" 
d="M784 227q107 0 250 47l23 -139q-80 -77 -186.5 -119.5t-262.5 -42.5q-146 0 -254.5 39.5t-173 112t-95 166t-30.5 209.5q0 119 31.5 217t87 166t133 114.5t167.5 68t192 21.5q117 0 207.5 -27.5t146 -88t55.5 -146.5q0 -116 -92 -176h-262l-25 293l-32 2q-76 0 -114 -72
t-38 -245q0 -208 61.5 -304t210.5 -96zM666 1632h268q64 -61 102 -176l-370 -282h-150z" />
    <glyph glyph-name="Ccircumflex" unicode="&#x108;" horiz-adv-x="1411" 
d="M1309 356l26 -163q-98 -100 -243 -160t-332 -60q-220 0 -377.5 86t-236 239t-78.5 359q0 163 51.5 297t150 231t251.5 150.5t347 53.5q247 0 432 -80q11 -61 11 -148q0 -123 -29 -252h-254l-78 279q-49 6 -94 6q-101 0 -162.5 -37.5t-94 -132.5t-32.5 -258
q0 -264 86 -383t277 -119q184 0 379 92zM1223 1540l-232 -115l-225 207h-21l-196 -172h-150l316 389h250z" />
    <glyph glyph-name="ccircumflex" unicode="&#x109;" horiz-adv-x="1124" 
d="M784 227q107 0 250 47l23 -139q-80 -77 -186.5 -119.5t-262.5 -42.5q-146 0 -254.5 39.5t-173 112t-95 166t-30.5 209.5q0 119 31.5 217t87 166t133 114.5t167.5 68t192 21.5q117 0 207.5 -27.5t146 -88t55.5 -146.5q0 -116 -92 -176h-262l-25 293l-32 2q-76 0 -114 -72
t-38 -245q0 -208 61.5 -304t210.5 -96zM1020 1253l-232 -114l-202 227h-23l-174 -192h-149l292 430h250z" />
    <glyph glyph-name="Cdotaccent" unicode="&#x10a;" horiz-adv-x="1411" 
d="M1309 356l26 -163q-98 -100 -243 -160t-332 -60q-220 0 -377.5 86t-236 239t-78.5 359q0 163 51.5 297t150 231t251.5 150.5t347 53.5q247 0 432 -80q11 -61 11 -148q0 -123 -29 -252h-254l-78 279q-49 6 -94 6q-101 0 -162.5 -37.5t-94 -132.5t-32.5 -258
q0 -264 86 -383t277 -119q184 0 379 92zM848 1812q94 0 141 -16q35 -56 35 -147q0 -53 -15.5 -94.5t-54.5 -94.5h-317l-39 305q115 47 250 47z" />
    <glyph glyph-name="cdotaccent" unicode="&#x10b;" horiz-adv-x="1124" 
d="M784 227q107 0 250 47l23 -139q-80 -77 -186.5 -119.5t-262.5 -42.5q-146 0 -254.5 39.5t-173 112t-95 166t-30.5 209.5q0 119 31.5 217t87 166t133 114.5t167.5 68t192 21.5q117 0 207.5 -27.5t146 -88t55.5 -146.5q0 -116 -92 -176h-262l-25 293l-32 2q-76 0 -114 -72
t-38 -245q0 -208 61.5 -304t210.5 -96zM666 1538q94 0 141 -16q35 -56 35 -148q0 -53 -15.5 -93.5t-54.5 -94.5h-317l-39 305q115 47 250 47z" />
    <glyph glyph-name="Ccaron" unicode="&#x10c;" horiz-adv-x="1411" 
d="M1309 356l26 -163q-98 -100 -243 -160t-332 -60q-220 0 -377.5 86t-236 239t-78.5 359q0 163 51.5 297t150 231t251.5 150.5t347 53.5q247 0 432 -80q11 -61 11 -148q0 -123 -29 -252h-254l-78 279q-49 6 -94 6q-101 0 -162.5 -37.5t-94 -132.5t-32.5 -258
q0 -264 86 -383t277 -119q184 0 379 92zM856 1677h23l194 172h150l-314 -389h-250l-260 309l232 115z" />
    <glyph glyph-name="ccaron" unicode="&#x10d;" horiz-adv-x="1124" 
d="M784 227q107 0 250 47l23 -139q-80 -77 -186.5 -119.5t-262.5 -42.5q-146 0 -254.5 39.5t-173 112t-95 166t-30.5 209.5q0 119 31.5 217t87 166t133 114.5t167.5 68t192 21.5q117 0 207.5 -27.5t146 -88t55.5 -146.5q0 -116 -92 -176h-262l-25 293l-32 2q-76 0 -114 -72
t-38 -245q0 -208 61.5 -304t210.5 -96zM702 1411h21l174 193h150l-293 -430h-250l-238 350l232 114z" />
    <glyph glyph-name="Dcaron" unicode="&#x10e;" horiz-adv-x="1583" 
d="M629 1389q245 0 417.5 -43.5t275 -130t148.5 -206t46 -282.5q0 -358 -209.5 -542.5t-595.5 -184.5h-662v137l129 51v1012l-129 21v137q108 12 283.5 21.5t296.5 9.5zM629 182h76q77 0 128.5 14.5t88.5 46.5t57 92.5t28.5 143t8.5 207.5q0 130 -9.5 218t-28.5 148.5
t-55 93.5t-83 46.5t-117 13.5h-94v-1024zM834 1677h22l195 172h149l-313 -389h-250l-260 309l231 115z" />
    <glyph glyph-name="dcaron" unicode="&#x10f;" horiz-adv-x="1673" 
d="M1176 1513v-1306l118 -37v-125q-245 -59 -460 -65l-50 28l13 168h-27q-58 -98 -147.5 -150.5t-198.5 -52.5q-177 0 -264.5 134t-87.5 385q0 600 499 600q111 0 191 -25v209l-117 55v135q234 70 483 76zM668 928q-94 0 -124 -74.5t-30 -263.5q0 -142 12.5 -215t36.5 -97
t70 -24q62 0 129 39v618q-53 17 -94 17zM1464 1542q68 0 115 -15.5t96 -43.5q0 -147 -62 -278t-175 -230h-191l68 328v223q66 16 149 16z" />
    <glyph glyph-name="Dcroat" unicode="&#x110;" horiz-adv-x="1603" 
d="M647 1389q245 0 418 -43.5t276 -130t149 -205.5t46 -281q0 -359 -209.5 -544t-595.5 -185h-661v137l129 51v433h-129v170h129v409l-129 21v137q108 12 283 21.5t294 9.5zM649 182h76q77 0 128.5 14.5t88.5 46.5t57 92.5t28.5 143t8.5 207.5q0 130 -9.5 218t-28.5 148.5
t-55 93.5t-83 46.5t-117 13.5h-94v-415h232v-170h-232v-439z" />
    <glyph glyph-name="dcroat" unicode="&#x111;" horiz-adv-x="1308" 
d="M1176 1208v-1001l118 -37v-125q-245 -59 -460 -65l-50 28l13 168h-27q-58 -98 -147.5 -150.5t-198.5 -52.5q-177 0 -264.5 134t-87.5 385q0 600 499 600q111 0 191 -25v141h-279v170h279v117q173 44 366 47l48 -29v-135h141v-170h-141zM762 293v618q-53 17 -94 17
q-94 0 -124 -74.5t-30 -263.5q0 -142 12.5 -215t36.5 -97t70 -24q62 0 129 39z" />
    <glyph glyph-name="Emacron" unicode="&#x112;" horiz-adv-x="1351" 
d="M1022 416l254 -13q14 -91 14 -172q0 -119 -24 -231h-1213v137l127 51v1006l-131 31v137h1225q14 -75 14 -154q0 -114 -31 -245h-233l-63 217l-330 12v-424l178 14l20 92h152v-378h-152l-20 92l-178 14v-432l309 8zM328 1759h719q10 -42 10 -104q0 -68 -10 -113h-719
q-11 50 -11 113q0 58 11 104z" />
    <glyph glyph-name="emacron" unicode="&#x113;" horiz-adv-x="1165" 
d="M784 236q133 0 281 55l25 -139q-83 -83 -191.5 -131t-280.5 -48q-150 0 -261 39.5t-176 112t-95.5 166.5t-30.5 211q0 118 30.5 215.5t85.5 166.5t131.5 116t168 69.5t195.5 22.5q118 0 204.5 -28.5t136.5 -80t73.5 -116.5t23.5 -146q0 -117 -39 -197h-571
q15 -150 84.5 -219t205.5 -69zM612 928q-120 0 -125 -273l218 17v53q0 103 -21.5 153t-71.5 50zM291 1477h655q12 -50 12 -105q0 -58 -12 -112h-655q-10 45 -10 112q0 63 10 105z" />
    <glyph glyph-name="Ebreve" unicode="&#x114;" horiz-adv-x="1351" 
d="M1022 416l254 -13q14 -91 14 -172q0 -119 -24 -231h-1213v137l127 51v1006l-131 31v137h1225q14 -75 14 -154q0 -114 -31 -245h-233l-63 217l-330 12v-424l178 14l20 92h152v-378h-152l-20 92l-178 14v-432l309 8zM309 1823l266 26q11 -90 50.5 -133.5t126.5 -44.5
t131.5 41.5t60.5 130.5l125 -4q-1 -181 -112.5 -280t-290.5 -99q-168 0 -262.5 90.5t-94.5 272.5z" />
    <glyph glyph-name="ebreve" unicode="&#x115;" horiz-adv-x="1165" 
d="M784 236q133 0 281 55l25 -139q-83 -83 -191.5 -131t-280.5 -48q-150 0 -261 39.5t-176 112t-95.5 166.5t-30.5 211q0 118 30.5 215.5t85.5 166.5t131.5 116t168 69.5t195.5 22.5q118 0 204.5 -28.5t136.5 -80t73.5 -116.5t23.5 -146q0 -117 -39 -197h-571
q15 -150 84.5 -219t205.5 -69zM612 928q-120 0 -125 -273l218 17v53q0 103 -21.5 153t-71.5 50zM266 1546l266 27q8 -93 40 -137t110 -45q77 -1 115.5 42t50.5 134l123 -15q-1 -125 -52 -210.5t-132 -123.5t-187 -38q-160 0 -247 91t-87 275z" />
    <glyph glyph-name="Edotaccent" unicode="&#x116;" horiz-adv-x="1351" 
d="M1022 416l254 -13q14 -91 14 -172q0 -119 -24 -231h-1213v137l127 51v1006l-131 31v137h1225q14 -75 14 -154q0 -114 -31 -245h-233l-63 217l-330 12v-424l178 14l20 92h152v-378h-152l-20 92l-178 14v-432l309 8zM723 1812q94 0 141 -16q35 -56 35 -147
q0 -53 -15.5 -94.5t-54.5 -94.5h-317l-39 305q115 47 250 47z" />
    <glyph glyph-name="edotaccent" unicode="&#x117;" horiz-adv-x="1165" 
d="M784 236q133 0 281 55l25 -139q-83 -83 -191.5 -131t-280.5 -48q-150 0 -261 39.5t-176 112t-95.5 166.5t-30.5 211q0 118 30.5 215.5t85.5 166.5t131.5 116t168 69.5t195.5 22.5q118 0 204.5 -28.5t136.5 -80t73.5 -116.5t23.5 -146q0 -117 -39 -197h-571
q15 -150 84.5 -219t205.5 -69zM612 928q-120 0 -125 -273l218 17v53q0 103 -21.5 153t-71.5 50zM655 1538q95 0 142 -16q34 -54 34 -148q0 -53 -15 -94t-54 -94h-318l-38 305q115 47 249 47z" />
    <glyph glyph-name="Eogonek" unicode="&#x118;" horiz-adv-x="1351" 
d="M1266 0h-203q-76 -45 -109.5 -84t-33.5 -86q0 -84 108 -84q48 0 100 12l17 -131q-144 -63 -291 -63q-136 0 -207.5 52.5t-71.5 133.5q0 80 68.5 140.5t196.5 84.5v25h-787v137l127 51v1006l-131 31v137h1225q14 -75 14 -162q0 -106 -31 -237h-233l-63 217l-330 12v-424
l178 14l20 92h152v-378h-152l-20 92l-178 14v-432l309 8l82 238l254 -13q14 -91 14 -172q0 -119 -24 -231z" />
    <glyph glyph-name="eogonek" unicode="&#x119;" horiz-adv-x="1165" 
d="M969 51q-52 -38 -72.5 -53.5t-52 -42t-42.5 -42.5t-20.5 -37.5t-9.5 -43.5q0 -86 111 -86q47 0 100 12l16 -131q-144 -63 -292 -63q-135 0 -206 49.5t-71 132.5q0 146 201 205l-4 26h-29q-272 0 -407.5 143.5t-135.5 387.5q0 144 47 257t130.5 183.5t193.5 107t242 36.5
q117 0 203.5 -28.5t136 -80t73 -116.5t23.5 -146q0 -117 -39 -197h-573q17 -152 86 -220t204 -68t283 55l25 -144q-36 -34 -121 -96zM612 928q-120 0 -125 -273l218 17v53q0 103 -21.5 153t-71.5 50z" />
    <glyph glyph-name="Ecaron" unicode="&#x11a;" horiz-adv-x="1351" 
d="M1022 416l254 -13q14 -91 14 -172q0 -119 -24 -231h-1213v137l127 51v1006l-131 31v137h1225q14 -75 14 -154q0 -114 -31 -245h-233l-63 217l-330 12v-424l178 14l20 92h152v-378h-152l-20 92l-178 14v-432l309 8zM731 1677h23l194 172h150l-314 -389h-249l-261 309
l232 115z" />
    <glyph glyph-name="ecaron" unicode="&#x11b;" horiz-adv-x="1165" 
d="M784 236q133 0 281 55l25 -139q-83 -83 -191.5 -131t-280.5 -48q-150 0 -261 39.5t-176 112t-95.5 166.5t-30.5 211q0 118 30.5 215.5t85.5 166.5t131.5 116t168 69.5t195.5 22.5q118 0 204.5 -28.5t136.5 -80t73.5 -116.5t23.5 -146q0 -117 -39 -197h-571
q15 -150 84.5 -219t205.5 -69zM612 928q-120 0 -125 -273l218 17v53q0 103 -21.5 153t-71.5 50zM692 1411h21l174 193h149l-293 -430h-249l-238 350l231 114z" />
    <glyph glyph-name="Gcircumflex" unicode="&#x11c;" horiz-adv-x="1486" 
d="M1427 633v-137l-86 -52v-381q-78 -35 -230.5 -62.5t-303.5 -27.5q-158 0 -284 34.5t-210.5 95t-140 147t-80 186t-24.5 215.5q0 167 51.5 302t151.5 232.5t253.5 150.5t349.5 53q141 0 264.5 -24.5t184.5 -55.5q10 -55 10 -146q0 -118 -28 -233h-256l-72 256
q-55 8 -115 8q-166 0 -230.5 -113t-64.5 -403q0 -199 29 -311t85.5 -155.5t154.5 -43.5q68 0 129 20l-35 287l-129 21v137h626zM1223 1540l-232 -115l-225 207h-21l-196 -172h-150l316 389h250z" />
    <glyph glyph-name="gcircumflex" unicode="&#x11d;" horiz-adv-x="1214" 
d="M1004 975l-19 -19q76 -85 76 -208q0 -93 -42.5 -162.5t-118 -110.5t-170 -60.5t-206.5 -19.5q-38 0 -100 4v-104l461 -35q155 -12 229 -77.5t74 -172.5q0 -132 -100.5 -234t-276.5 -157t-397 -55q-206 0 -320 51.5t-114 153.5q0 81 66.5 133t166.5 65q-40 211 47 465
q-211 72 -211 283q0 93 42.5 166.5t117.5 118.5t171 68.5t208 23.5q186 0 305 -64q25 116 65 167.5t121 51.5q84 0 131 -35l-16 -237h-190zM555 557q60 0 80 45t20 141t-20 141.5t-80 45.5t-80 -45.5t-20 -141.5t20 -141t80 -45zM772 -141l-444 47q-11 -37 -11 -62
q0 -53 49 -84.5t177 -31.5q122 0 221.5 26t99.5 68q0 15 -20.5 24t-71.5 13zM942 1253l-231 -114l-203 227h-23l-174 -192h-149l293 430h250z" />
    <glyph glyph-name="Gbreve" unicode="&#x11e;" horiz-adv-x="1486" 
d="M1427 633v-137l-86 -52v-381q-78 -35 -230.5 -62.5t-303.5 -27.5q-158 0 -284 34.5t-210.5 95t-140 147t-80 186t-24.5 215.5q0 167 51.5 302t151.5 232.5t253.5 150.5t349.5 53q141 0 264.5 -24.5t184.5 -55.5q10 -55 10 -146q0 -118 -28 -233h-256l-72 256
q-55 8 -115 8q-166 0 -230.5 -113t-64.5 -403q0 -199 29 -311t85.5 -155.5t154.5 -43.5q68 0 129 20l-35 287l-129 21v137h626zM434 1823l266 26q11 -90 50.5 -133.5t126.5 -44.5t131.5 41.5t60.5 130.5l125 -4q-1 -181 -112.5 -280t-290.5 -99q-168 0 -262.5 90.5
t-94.5 272.5z" />
    <glyph glyph-name="gbreve" unicode="&#x11f;" horiz-adv-x="1214" 
d="M1004 975l-19 -19q76 -85 76 -208q0 -93 -42.5 -162.5t-118 -110.5t-170 -60.5t-206.5 -19.5q-38 0 -100 4v-104l461 -35q155 -12 229 -77.5t74 -172.5q0 -132 -100.5 -234t-276.5 -157t-397 -55q-206 0 -320 51.5t-114 153.5q0 81 66.5 133t166.5 65q-40 211 47 465
q-211 72 -211 283q0 93 42.5 166.5t117.5 118.5t171 68.5t208 23.5q186 0 305 -64q25 116 65 167.5t121 51.5q84 0 131 -35l-16 -237h-190zM555 557q60 0 80 45t20 141t-20 141.5t-80 45.5t-80 -45.5t-20 -141.5t20 -141t80 -45zM772 -141l-444 47q-11 -37 -11 -62
q0 -53 49 -84.5t177 -31.5q122 0 221.5 26t99.5 68q0 15 -20.5 24t-71.5 13zM199 1546l266 27q8 -93 40 -137t109 -45t115.5 42t50.5 134l123 -15q-1 -125 -52 -210.5t-132 -123.5t-187 -38q-159 0 -246 90.5t-87 275.5z" />
    <glyph glyph-name="Gdotaccent" unicode="&#x120;" horiz-adv-x="1486" 
d="M1427 633v-137l-86 -52v-381q-78 -35 -230.5 -62.5t-303.5 -27.5q-158 0 -284 34.5t-210.5 95t-140 147t-80 186t-24.5 215.5q0 167 51.5 302t151.5 232.5t253.5 150.5t349.5 53q141 0 264.5 -24.5t184.5 -55.5q10 -55 10 -146q0 -118 -28 -233h-256l-72 256
q-55 8 -115 8q-166 0 -230.5 -113t-64.5 -403q0 -199 29 -311t85.5 -155.5t154.5 -43.5q68 0 129 20l-35 287l-129 21v137h626zM848 1812q94 0 141 -16q35 -56 35 -147q0 -53 -15.5 -94.5t-54.5 -94.5h-317l-39 305q115 47 250 47z" />
    <glyph glyph-name="gdotaccent" unicode="&#x121;" horiz-adv-x="1214" 
d="M1004 975l-19 -19q76 -85 76 -208q0 -93 -42.5 -162.5t-118 -110.5t-170 -60.5t-206.5 -19.5q-38 0 -100 4v-104l461 -35q155 -12 229 -77.5t74 -172.5q0 -132 -100.5 -234t-276.5 -157t-397 -55q-206 0 -320 51.5t-114 153.5q0 81 66.5 133t166.5 65q-40 211 47 465
q-211 72 -211 283q0 93 42.5 166.5t117.5 118.5t171 68.5t208 23.5q186 0 305 -64q25 116 65 167.5t121 51.5q84 0 131 -35l-16 -237h-190zM555 557q60 0 80 45t20 141t-20 141.5t-80 45.5t-80 -45.5t-20 -141.5t20 -141t80 -45zM772 -141l-444 47q-11 -37 -11 -62
q0 -53 49 -84.5t177 -31.5q122 0 221.5 26t99.5 68q0 15 -20.5 24t-71.5 13zM588 1538q94 0 141 -16q35 -56 35 -148q0 -53 -15.5 -93.5t-54.5 -94.5h-317l-39 305q115 47 250 47z" />
    <glyph glyph-name="Gcommaaccent" unicode="&#x122;" horiz-adv-x="1486" 
d="M1427 633v-137l-86 -52v-381q-78 -35 -230.5 -62.5t-303.5 -27.5q-158 0 -284 34.5t-210.5 95t-140 147t-80 186t-24.5 215.5q0 167 51.5 302t151.5 232.5t253.5 150.5t349.5 53q141 0 264.5 -24.5t184.5 -55.5q10 -55 10 -146q0 -118 -28 -233h-256l-72 256
q-55 8 -115 8q-166 0 -230.5 -113t-64.5 -403q0 -199 29 -311t85.5 -155.5t154.5 -43.5q68 0 129 20l-35 287l-129 21v137h626zM799 -78q87 0 157 -18q39 -59 39 -150q0 -238 -319 -272l-37 90q80 26 107.5 42t27.5 44q0 15 -2 29l-119 6l-10 211q78 18 156 18z" />
    <glyph glyph-name="gcommaaccent" unicode="&#x123;" horiz-adv-x="1214" 
d="M1004 975l-19 -19q76 -85 76 -208q0 -93 -42.5 -162.5t-118 -110.5t-170 -60.5t-206.5 -19.5q-38 0 -100 4v-104l461 -35q155 -12 229 -77.5t74 -172.5q0 -132 -100.5 -234t-276.5 -157t-397 -55q-206 0 -320 51.5t-114 153.5q0 81 66.5 133t166.5 65q-40 211 47 465
q-211 72 -211 283q0 93 42.5 166.5t117.5 118.5t171 68.5t208 23.5q186 0 305 -64q25 116 65 167.5t121 51.5q84 0 131 -35l-16 -237h-190zM555 557q60 0 80 45t20 141t-20 141.5t-80 45.5t-80 -45.5t-20 -141.5t20 -141t80 -45zM772 -141l-444 47q-11 -37 -11 -62
q0 -53 49 -84.5t177 -31.5q122 0 221.5 26t99.5 68q0 15 -20.5 24t-71.5 13zM696 1628l37 -90q-75 -25 -105 -49t-30 -68q0 -14 2 -28l119 -7l10 -210q-83 -19 -156 -19q-83 0 -157 19q-39 59 -39 149q0 119 77.5 202t241.5 101z" />
    <glyph glyph-name="Hcircumflex" unicode="&#x124;" horiz-adv-x="1640" 
d="M1462 1174v-1016l129 -21v-137h-688v137l109 51v426h-383v-456l110 -21v-137h-690v137l129 51v1016l-129 21v137h688v-137l-108 -51v-377h383v407l-111 21v137h690v-137zM1274 1540l-232 -115l-225 207h-20l-197 -172h-149l315 389h250z" />
    <glyph glyph-name="hcircumflex" unicode="&#x125;" horiz-adv-x="1329" 
d="M1044 1593l-227 -110l-196 145h-21l-160 -112h-143l272 329h250zM547 1432v-142q0 -56 -2 -106t-6.5 -96t-7.5 -72.5t-9 -70.5t-8 -56h27q57 101 151 152t209 51q153 0 229 -86.5t76 -235.5v-616l119 -21v-133h-600v133l68 51v504q0 62 -26 92.5t-87 30.5q-66 0 -133 -39
v-618l78 -21v-133h-600v133l108 51v1008l-119 57v135q226 67 484 76z" />
    <glyph glyph-name="Hbar" unicode="&#x126;" horiz-adv-x="1673" 
d="M1479 887v-719l131 -31v-137h-692v137l108 51v347h-383v-367l111 -31v-137h-691v137l132 51v699h-154v170h154v137l-132 31v137h689v-137l-109 -51v-117h383v137l-108 31v137h692v-137l-131 -51v-117h153v-170h-153zM1026 887h-383v-170h383v170z" />
    <glyph glyph-name="hbar" unicode="&#x127;" horiz-adv-x="1331" 
d="M1325 133v-133h-600v133l68 51v504q0 63 -25 93t-86 30q-64 0 -135 -39v-618l78 -21v-133h-600v133l108 51v1024h-135v170h135v119q164 41 365 45l49 -29v-135h282v-170h-284q-5 -123 -31 -319h27q59 100 153 151.5t207 51.5q153 0 229 -86.5t76 -235.5v-616z" />
    <glyph glyph-name="Itilde" unicode="&#x128;" horiz-adv-x="806" 
d="M629 1174v-1016l129 -21v-137h-709v137l129 51v1016l-129 21v137h709v-137zM737 1827l99 -55q-18 -64 -38.5 -112t-51 -91t-74 -65.5t-99.5 -22.5q-74 0 -133 22l-254 94l-90 -116l-98 55q18 65 38 113t50.5 90.5t74 65t99.5 22.5q69 0 131 -23l254 -96z" />
    <glyph glyph-name="itilde" unicode="&#x129;" horiz-adv-x="690" 
d="M676 133v-133h-641v133l108 51v643l-108 58v135q202 52 473 65l49 -28v-901zM586 1536l88 -43q-69 -297 -219 -297q-49 0 -111 27l-194 88l-72 -109l-88 43q11 48 23 86.5t31 79.5t41.5 68.5t54.5 45t69 17.5q51 0 108 -26l195 -91z" />
    <glyph glyph-name="Imacron" unicode="&#x12a;" horiz-adv-x="806" 
d="M629 1174v-1016l129 -21v-137h-709v137l129 51v1016l-129 21v137h709v-137zM57 1759h719q10 -42 10 -104q0 -68 -10 -113h-719q-10 45 -10 113q0 62 10 104z" />
    <glyph glyph-name="imacron" unicode="&#x12b;" horiz-adv-x="690" 
d="M676 133v-133h-641v133l108 51v643l-108 58v135q202 52 473 65l49 -28v-901zM37 1477h592q10 -42 10 -105q0 -67 -10 -112h-592q-10 45 -10 112q0 63 10 105z" />
    <glyph glyph-name="Ibreve" unicode="&#x12c;" horiz-adv-x="806" 
d="M629 1174v-1016l129 -21v-137h-709v137l129 51v1016l-129 21v137h709v-137zM39 1823l266 26q11 -90 50 -133.5t126 -44.5t132 41.5t61 130.5l125 -4q-1 -181 -113 -280t-291 -99q-168 0 -262 90.5t-94 272.5z" />
    <glyph glyph-name="ibreve" unicode="&#x12d;" horiz-adv-x="690" 
d="M676 133v-133h-641v133l108 51v643l-108 58v135q202 52 473 65l49 -28v-901zM545 1567l123 -4q-1 -186 -97.5 -284.5t-248.5 -98.5q-147 0 -235.5 92t-88.5 274l266 27q3 -182 139 -182q131 0 142 176z" />
    <glyph glyph-name="Iogonek" unicode="&#x12e;" horiz-adv-x="806" 
d="M629 1174v-1018l129 -19v-137q-141 -45 -195.5 -85.5t-54.5 -88.5q0 -80 113 -80q45 0 98 12l16 -131q-144 -63 -293 -63q-135 0 -205.5 48.5t-70.5 125.5q0 159 283 237v25h-400v137l129 51v1016l-129 21v137h709v-137z" />
    <glyph glyph-name="iogonek" unicode="&#x12f;" horiz-adv-x="690" 
d="M158 1186l-39 305q115 47 250 47q94 0 141 -16q35 -56 35 -148q0 -53 -15.5 -93.5t-54.5 -94.5h-317zM676 133v-133q-126 -29 -176.5 -69.5t-50.5 -98.5q0 -86 108 -86q47 0 100 12l17 -131q-144 -63 -291 -63q-137 0 -208 52t-71 140q0 170 263 219v25h-332v133l108 51
v643l-108 58v135q202 52 473 65l49 -28v-901z" />
    <glyph glyph-name="Idotaccent" unicode="&#x130;" horiz-adv-x="806" 
d="M629 1174v-1016l129 -21v-137h-709v137l129 51v1016l-129 21v137h709v-137zM438 1812q95 0 142 -16q34 -54 34 -147q0 -54 -15 -95t-54 -94h-318l-39 305q115 47 250 47z" />
    <glyph glyph-name="dotlessi" unicode="&#x131;" horiz-adv-x="690" 
d="M676 133v-133h-641v133l108 51v643l-108 58v135q202 52 473 65l49 -28v-901z" />
    <glyph glyph-name="IJ" unicode="&#x132;" horiz-adv-x="1921" 
d="M629 1174v-1016l129 -21v-137h-709v137l129 51v1016l-129 21v137h709v-137zM1896 1362v-137l-129 -51v-764q0 -437 -518 -437q-208 0 -323 70.5t-115 206.5q0 113 92 188h217l80 -291l33 -2q53 0 69.5 33.5t16.5 132.5v893l-193 21v137h770z" />
    <glyph glyph-name="ij" unicode="&#x133;" horiz-adv-x="1357" 
d="M1241 1057v-1022q0 -98 -40 -181t-109 -141t-156 -96t-188 -55l-64 65l139 189v1011l-108 58v135q204 52 473 65zM1055 1559q91 0 141 -17q35 -56 35 -147q0 -53 -15.5 -94.5t-54.5 -94.5h-317l-39 305q117 48 250 48zM676 133v-133h-641v133l108 51v643l-108 58v135
q202 52 473 65l49 -28v-901zM375 1559q91 0 141 -17q35 -56 35 -147q0 -53 -15.5 -94.5t-54.5 -94.5h-317l-39 305q117 48 250 48z" />
    <glyph glyph-name="Jcircumflex" unicode="&#x134;" horiz-adv-x="1114" 
d="M1090 1362v-137l-129 -51v-764q0 -120 -39 -206.5t-111 -136t-163 -72t-206 -22.5q-208 0 -323 70.5t-115 206.5q0 113 92 188h217l80 -291l33 -2q53 0 69.5 33.5t16.5 132.5v893l-193 21v137h771zM1098 1540l-232 -115l-225 207h-20l-197 -172h-150l316 389h250z" />
    <glyph glyph-name="jcircumflex" unicode="&#x135;" horiz-adv-x="667" 
d="M551 1057v-1022q0 -98 -40 -181t-109 -141t-156.5 -96t-188.5 -55l-63 65l139 189v1011l-108 58v135q204 52 473 65zM643 1253l-233 -114l-156 207h-23l-127 -172h-149l246 430h250z" />
    <glyph glyph-name="Kcommaaccent" unicode="&#x136;" horiz-adv-x="1525" 
d="M1505 180v-137q-61 -35 -118 -52.5t-134 -17.5q-104 0 -175 35.5t-120 114.5q-11 18 -24 43t-28.5 59t-28.5 63.5t-32 75.5t-31 75t-33 81.5t-31 75.5h-121v-438l119 -21v-137h-699v137l129 51v1014l-129 21v139h709v-137l-129 -51v-396h151q241 305 326 428l-133 19v137
h495v-137l-112 -45q-101 -134 -287 -336q125 -185 348 -621zM762 -78q88 0 158 -18q38 -58 38 -150q0 -238 -319 -272l-37 90q80 26 107.5 42t27.5 44q0 15 -2 29l-119 6l-10 211q78 18 156 18z" />
    <glyph glyph-name="kcommaaccent" unicode="&#x137;" horiz-adv-x="1327" 
d="M1317 166v-123q-61 -35 -117.5 -52.5t-132.5 -17.5q-100 0 -162.5 35t-103.5 115q-41 81 -121 342h-133v-311l98 -19v-135h-620v133l108 51v1090l-119 57v135q251 70 484 76l49 -29v-878h125q153 160 233 258l-135 18v133h528v-133l-180 -47q-81 -77 -149 -135
q36 -60 76 -139t98 -199.5t88 -181.5zM662 -78q86 0 157 -18q39 -59 39 -150q0 -238 -319 -272l-37 90q80 26 107.5 42t27.5 44q0 15 -2 29l-119 6l-10 211q78 18 156 18z" />
    <glyph glyph-name="kgreenlandic" unicode="&#x138;" horiz-adv-x="1337" 
d="M1327 166v-123q-61 -35 -117.5 -52.5t-132.5 -17.5q-100 0 -162.5 35t-103.5 115q-35 63 -123 342h-131v-311l98 -19v-135h-620v133l108 51v643l-108 58v135q232 59 473 65l49 -28v-422h125q153 160 233 258l-135 18v133h529v-133l-181 -47q-81 -77 -149 -135
q36 -60 76 -139t98 -199.5t88 -181.5z" />
    <glyph glyph-name="Lacute" unicode="&#x139;" horiz-adv-x="1212" 
d="M926 428l256 -12q14 -82 14 -166q0 -106 -25 -250h-1120v137l127 51v1016l-129 21v137h709v-137l-129 -51v-1002l211 8zM555 1870h266q66 -51 107 -176l-373 -234h-174z" />
    <glyph glyph-name="lacute" unicode="&#x13a;" horiz-adv-x="679" 
d="M492 1516h-191l64 329h202q70 -56 105 -157zM547 154l119 -21v-133h-641v133l108 51v1008l-119 57v135q243 70 484 76l49 -28v-1278z" />
    <glyph glyph-name="Lcommaaccent" unicode="&#x13b;" horiz-adv-x="1212" 
d="M926 428l256 -12q14 -82 14 -166q0 -106 -25 -250h-1120v137l127 51v1016l-129 21v137h709v-137l-129 -51v-1002l211 8zM606 -78q88 0 158 -18q39 -59 39 -150q0 -238 -320 -272l-37 90l43.5 14.5t33 12t27.5 13t17 13t12 15.5t3 18q0 15 -2 29l-119 6l-10 211
q78 18 155 18z" />
    <glyph glyph-name="lcommaaccent" unicode="&#x13c;" horiz-adv-x="679" 
d="M666 133v-133h-641v133l108 51v1090l-119 57v135q243 70 484 76l49 -29v-1359zM324 -78q86 0 157 -18q39 -59 39 -150q0 -238 -319 -272l-37 90q80 26 107.5 42t27.5 44q0 15 -2 29l-119 6l-10 211q78 18 156 18z" />
    <glyph glyph-name="Lcaron" unicode="&#x13d;" horiz-adv-x="1249" 
d="M926 428l256 -12q14 -82 14 -166q0 -106 -25 -250h-1120v137l127 51v1016l-129 21v137h709v-137l-129 -51v-1002l211 8zM1020 1368q68 0 115 -15.5t96 -43.5q0 -146 -62 -277.5t-176 -230.5h-190l67 327v224q66 16 150 16z" />
    <glyph glyph-name="lcaron" unicode="&#x13e;" horiz-adv-x="1052" 
d="M666 133v-133h-641v133l108 51v1090l-119 57v135q243 70 484 76l49 -29v-1359zM844 1542q68 0 115 -15.5t96 -43.5q0 -146 -62 -277.5t-176 -230.5h-190l67 328v223q66 16 150 16z" />
    <glyph glyph-name="Ldot" unicode="&#x13f;" horiz-adv-x="1212" 
d="M1032 983q88 0 135 -16q35 -56 35 -148q0 -53 -15 -94t-54 -94h-281l-27 305q82 47 207 47zM926 428l256 -12q14 -82 14 -166q0 -106 -25 -250h-1120v137l127 51v1016l-129 21v137h709v-137l-129 -51v-1002l211 8z" />
    <glyph glyph-name="ldot" unicode="&#x140;" horiz-adv-x="907" 
d="M809 922q85 0 135 -17q35 -56 35 -147q0 -53 -15.5 -94.5t-54.5 -94.5h-260l-26 305q84 48 186 48zM666 133v-133h-641v133l108 51v1090l-119 57v135q243 70 484 76l49 -29v-1359z" />
    <glyph glyph-name="Lslash" unicode="&#x141;" horiz-adv-x="1212" 
d="M928 428l254 -12q14 -82 14 -164q0 -124 -25 -252h-1120v137l127 51v349l-121 -41l-30 45v123l151 51v489l-129 21v137h711v-137l-131 -51v-326l317 106l31 -45v-123l-348 -116v-498l213 8z" />
    <glyph glyph-name="lslash" unicode="&#x142;" horiz-adv-x="720" 
d="M567 727v-573l121 -21v-133h-641v133l107 51v391l-111 -45l-27 37v140l138 55v512l-117 57v135q239 70 483 76l47 -29v-602l109 43l26 -36v-136z" />
    <glyph glyph-name="Nacute" unicode="&#x143;" horiz-adv-x="1566" 
d="M1530 1225l-127 -49v-1156l-402 -45l-71 21l-391 752q-100 196 -150 350h-24l38 -940l154 -21v-137h-508v137l129 51v1016l-129 21v137h690l301 -596q76 -150 150 -344h27l-35 782l-154 21v137h502v-137zM899 1870h266q66 -51 107 -176l-373 -234h-174z" />
    <glyph glyph-name="nacute" unicode="&#x144;" horiz-adv-x="1339" 
d="M1333 133v-133h-598v133l68 51v504q0 62 -26 92.5t-87 30.5q-66 0 -133 -39v-618l78 -21v-133h-600v133l108 51v643l-108 58v135q250 59 450 65l50 -28l-11 -168h27q57 101 151 152t209 51q153 0 229.5 -86.5t76.5 -235.5v-616zM743 1632h269q64 -61 102 -176l-371 -282
h-149z" />
    <glyph glyph-name="Ncommaaccent" unicode="&#x145;" horiz-adv-x="1566" 
d="M1530 1225l-127 -49v-1156l-402 -45l-71 21l-391 752q-100 196 -150 350h-24l38 -940l154 -21v-137h-508v137l129 51v1016l-129 21v137h690l301 -596q76 -150 150 -344h27l-35 782l-154 21v137h502v-137zM741 -78q87 0 158 -18q39 -59 39 -150q0 -238 -320 -272l-36 90
q80 26 107.5 42t27.5 44q0 15 -2 29l-119 6l-10 211q78 18 155 18z" />
    <glyph glyph-name="ncommaaccent" unicode="&#x146;" horiz-adv-x="1339" 
d="M1333 133v-133h-598v133l68 51v504q0 62 -26 92.5t-87 30.5q-66 0 -133 -39v-618l78 -21v-133h-600v133l108 51v643l-108 58v135q250 59 450 65l50 -28l-11 -168h27q57 101 151 152t209 51q153 0 229.5 -86.5t76.5 -235.5v-616zM684 -78q88 0 158 -18q39 -59 39 -150
q0 -238 -320 -272l-37 90q80 26 107.5 42t27.5 44q0 15 -2 29l-118 6l-11 211q78 18 156 18z" />
    <glyph glyph-name="Ncaron" unicode="&#x147;" horiz-adv-x="1566" 
d="M1530 1225l-127 -49v-1156l-402 -45l-71 21l-391 752q-100 196 -150 350h-24l38 -940l154 -21v-137h-508v137l129 51v1016l-129 21v137h690l301 -596q76 -150 150 -344h27l-35 782l-154 21v137h502v-137zM846 1677h22l195 172h149l-313 -389h-250l-260 309l232 115z" />
    <glyph glyph-name="ncaron" unicode="&#x148;" horiz-adv-x="1339" 
d="M1333 133v-133h-598v133l68 51v504q0 62 -26 92.5t-87 30.5q-66 0 -133 -39v-618l78 -21v-133h-600v133l108 51v643l-108 58v135q250 59 450 65l50 -28l-11 -168h27q57 101 151 152t209 51q153 0 229.5 -86.5t76.5 -235.5v-616zM780 1411h21l174 193h149l-293 -430h-249
l-238 350l231 114z" />
    <glyph glyph-name="napostrophe" unicode="&#x149;" horiz-adv-x="1339" 
d="M145 1542q91 0 170 -20q60 -85 60 -185q0 -116 -103 -183t-297 -67l-20 101q90 18 122 33t32 43q0 12 -3 30l-137 9l-12 215q108 24 188 24zM1333 133v-133h-598v133l68 51v504q0 62 -26 92.5t-87 30.5q-66 0 -133 -39v-618l78 -21v-133h-600v133l108 51v643l-108 58v135
q250 59 450 65l50 -28l-11 -168h27q57 101 151 152t209 51q153 0 229.5 -86.5t76.5 -235.5v-616z" />
    <glyph glyph-name="Eng" unicode="&#x14a;" horiz-adv-x="1566" 
d="M1530 1225l-127 -49v-908q0 -146 -26 -264.5t-71 -199t-109 -135t-138 -79t-160 -24.5q-66 0 -113 18t-88 64l11 166h366l23 39l-543 895q-58 87 -95.5 167.5t-66.5 182.5h-26l36 -940l152 -21v-137h-506v137l129 51v1016l-129 21v137h686l295 -512q23 -41 45 -84
t35.5 -71t38.5 -83.5t39 -85.5h26l-32 678l-154 21v137h502v-137z" />
    <glyph glyph-name="eng" unicode="&#x14b;" horiz-adv-x="1333" 
d="M911 1092q153 0 229.5 -86.5t76.5 -235.5v-760q-5 -93 -46.5 -171.5t-109 -133.5t-152.5 -91t-182 -52l-63 65l139 189v872q0 62 -26 92.5t-87 30.5q-66 0 -133 -39v-618l78 -21v-133h-600v133l108 51v643l-108 58v133q215 57 450 67l50 -28l-11 -168h27q57 101 151 152
t209 51z" />
    <glyph glyph-name="Omacron" unicode="&#x14c;" horiz-adv-x="1648" 
d="M870 1389q177 0 313.5 -49t223 -139t130.5 -212t44 -272q0 -178 -61 -320.5t-169.5 -234.5t-254.5 -140.5t-318 -48.5q-175 0 -311.5 50t-223 141t-131 215t-44.5 274q0 176 60 316.5t167.5 231.5t254 139.5t320.5 48.5zM823 1194q-94 0 -148 -46t-81 -157.5t-27 -306.5
q0 -196 26.5 -308.5t81.5 -160t148 -47.5q94 0 149 47.5t82 160t27 308.5t-27 307t-81.5 157t-149.5 46zM467 1759h719q10 -42 10 -104q0 -68 -10 -113h-719q-10 45 -10 113q0 62 10 104z" />
    <glyph glyph-name="omacron" unicode="&#x14d;" horiz-adv-x="1304" 
d="M690 1092q144 0 252.5 -40t175 -112.5t99 -167.5t32.5 -211q0 -278 -173.5 -433t-463.5 -155q-143 0 -251.5 40t-174.5 112.5t-98.5 167.5t-32.5 211q0 280 173 434t462 154zM651 928q-83 0 -109 -83t-26 -310q0 -229 26 -313.5t109 -84.5t109 84.5t26 313.5
q0 227 -26 310t-109 83zM326 1477h655q12 -50 12 -105q0 -58 -12 -112h-655q-11 50 -11 112q0 59 11 105z" />
    <glyph glyph-name="Obreve" unicode="&#x14e;" horiz-adv-x="1648" 
d="M870 1389q177 0 313.5 -49t223 -139t130.5 -212t44 -272q0 -178 -61 -320.5t-169.5 -234.5t-254.5 -140.5t-318 -48.5q-175 0 -311.5 50t-223 141t-131 215t-44.5 274q0 176 60 316.5t167.5 231.5t254 139.5t320.5 48.5zM823 1194q-94 0 -148 -46t-81 -157.5t-27 -306.5
q0 -196 26.5 -308.5t81.5 -160t148 -47.5q94 0 149 47.5t82 160t27 308.5t-27 307t-81.5 157t-149.5 46zM449 1823l266 26q11 -90 50 -133.5t126 -44.5t131.5 41.5t60.5 130.5l125 -4q-1 -181 -112.5 -280t-290.5 -99q-168 0 -262 90.5t-94 272.5z" />
    <glyph glyph-name="obreve" unicode="&#x14f;" horiz-adv-x="1304" 
d="M690 1092q144 0 252.5 -40t175 -112.5t99 -167.5t32.5 -211q0 -278 -173.5 -433t-463.5 -155q-143 0 -251.5 40t-174.5 112.5t-98.5 167.5t-32.5 211q0 280 173 434t462 154zM651 928q-83 0 -109 -83t-26 -310q0 -229 26 -313.5t109 -84.5t109 84.5t26 313.5
q0 227 -26 310t-109 83zM301 1546l266 27q8 -93 40 -137t110 -45q77 -1 115.5 42t50.5 134l123 -15q-1 -125 -52 -210.5t-132 -123.5t-187 -38q-160 0 -247 91t-87 275z" />
    <glyph glyph-name="Ohungarumlaut" unicode="&#x150;" horiz-adv-x="1648" 
d="M870 1389q177 0 313.5 -49t223 -139t130.5 -212t44 -272q0 -178 -61 -320.5t-169.5 -234.5t-254.5 -140.5t-318 -48.5q-175 0 -311.5 50t-223 141t-131 215t-44.5 274q0 176 60 316.5t167.5 231.5t254 139.5t320.5 48.5zM823 1194q-94 0 -148 -46t-81 -157.5t-27 -306.5
q0 -196 26.5 -308.5t81.5 -160t148 -47.5q94 0 149 47.5t82 160t27 308.5t-27 307t-81.5 157t-149.5 46zM592 1845h237q66 -54 103 -176l-213 -209h-199zM1026 1845h240q68 -56 100 -176l-213 -209h-197z" />
    <glyph glyph-name="ohungarumlaut" unicode="&#x151;" horiz-adv-x="1304" 
d="M690 1092q144 0 252.5 -40t175 -112.5t99 -167.5t32.5 -211q0 -278 -173.5 -433t-463.5 -155q-143 0 -251.5 40t-174.5 112.5t-98.5 167.5t-32.5 211q0 280 173 434t462 154zM651 928q-83 0 -109 -83t-26 -310q0 -229 26 -313.5t109 -84.5t109 84.5t26 313.5
q0 227 -26 310t-109 83zM430 1632h240q68 -56 100 -176l-266 -282h-158zM834 1632h237q65 -51 103 -176l-269 -282h-155z" />
    <glyph glyph-name="OE" unicode="&#x152;" horiz-adv-x="2179" 
d="M870 1389q134 0 256 -27h977q13 -70 13 -160q0 -117 -29 -239h-234l-65 217l-330 12v-424l178 14l21 92h153v-378h-153l-21 92l-178 14v-432l309 8l82 238l254 -13q15 -97 15 -172q0 -110 -23 -231h-969q-162 -27 -338 -27q-152 0 -273.5 33t-204.5 91.5t-137.5 144
t-79.5 186.5t-25 221q0 358 212.5 549t589.5 191zM825 1194q-95 0 -149.5 -45.5t-81.5 -157.5t-27 -309q0 -198 27 -309.5t84 -158t156 -46.5q114 0 176 47v918q-74 61 -185 61z" />
    <glyph glyph-name="oe" unicode="&#x153;" horiz-adv-x="1904" 
d="M1524 236q133 0 278 55l27 -139q-84 -84 -183.5 -131.5t-256.5 -47.5q-262 0 -373 156h-25q-147 -156 -397 -156q-135 0 -239.5 40t-169 112.5t-97.5 168.5t-33 212q0 139 46 251t126.5 184.5t188.5 111.5t233 39q251 0 373 -160h25q141 160 389 160q210 0 308.5 -101.5
t98.5 -267.5q0 -119 -39 -199h-573q15 -148 86 -218t207 -70zM651 137q83 0 109 84.5t26 313.5q0 227 -26 310t-109 83t-109 -83t-26 -310q0 -229 26 -313.5t109 -84.5zM1352 928q-120 0 -125 -273l217 17v51q0 105 -21 155t-71 50z" />
    <glyph glyph-name="Racute" unicode="&#x154;" horiz-adv-x="1495" 
d="M1491 178v-135q-62 -36 -123 -53t-143 -17q-83 0 -139 18.5t-92.5 52.5t-71.5 95q-31 54 -88 170t-103 226h-123v-377l109 -21v-137h-668v137l129 51v1010l-129 21v137q342 33 660 33q364 0 518.5 -88.5t154.5 -303.5q0 -67 -14.5 -120.5t-37 -89.5t-58 -64t-70 -44.5
t-80.5 -31.5v-24q64 -46 124.5 -136.5t156.5 -265.5zM608 717h207q44 60 66 121t22 151q0 110 -40 163.5t-140 53.5h-115v-489zM780 1880h267q65 -50 106 -176l-373 -234h-174z" />
    <glyph glyph-name="racute" unicode="&#x155;" horiz-adv-x="935" 
d="M932 735h-283q-51 -38 -92 -86v-477l182 -22v-150h-704v154l108 30v643l-108 58v135q218 59 444 65l49 -28l-16 -250h29q58 147 114 216t148 69q78 0 129 -66v-291zM494 1632h268q64 -61 102 -176l-370 -282h-150z" />
    <glyph glyph-name="Rcommaaccent" unicode="&#x156;" horiz-adv-x="1495" 
d="M1491 178v-135q-62 -36 -123 -53t-143 -17q-83 0 -139 18.5t-92.5 52.5t-71.5 95q-31 54 -88 170t-103 226h-123v-377l109 -21v-137h-668v137l129 51v1010l-129 21v137q342 33 660 33q364 0 518.5 -88.5t154.5 -303.5q0 -67 -14.5 -120.5t-37 -89.5t-58 -64t-70 -44.5
t-80.5 -31.5v-24q64 -46 124.5 -136.5t156.5 -265.5zM608 717h207q44 60 66 121t22 151q0 110 -40 163.5t-140 53.5h-115v-489zM801 -78q87 0 157 -18q39 -59 39 -150q0 -238 -319 -272l-37 90q80 26 107.5 42t27.5 44q0 15 -2 29l-119 6l-10 211q78 18 156 18z" />
    <glyph glyph-name="rcommaaccent" unicode="&#x157;" horiz-adv-x="935" 
d="M932 735h-283q-51 -38 -92 -86v-477l182 -22v-150h-704v154l108 30v643l-108 58v135q218 59 444 65l49 -28l-16 -250h29q58 147 114 216t148 69q78 0 129 -66v-291zM362 -78q88 0 158 -18q39 -59 39 -150q0 -238 -319 -272l-37 90q80 26 107.5 42t27.5 44q0 15 -2 29
l-119 6l-10 211q78 18 155 18z" />
    <glyph glyph-name="Rcaron" unicode="&#x158;" horiz-adv-x="1495" 
d="M1491 178v-135q-62 -36 -123 -53t-143 -17q-83 0 -139 18.5t-92.5 52.5t-71.5 95q-31 54 -88 170t-103 226h-123v-377l109 -21v-137h-668v137l129 51v1010l-129 21v137q342 33 660 33q364 0 518.5 -88.5t154.5 -303.5q0 -67 -14.5 -120.5t-37 -89.5t-58 -64t-70 -44.5
t-80.5 -31.5v-24q64 -46 124.5 -136.5t156.5 -265.5zM608 717h207q44 60 66 121t22 151q0 110 -40 163.5t-140 53.5h-115v-489zM772 1688h23l194 172h150l-314 -390h-250l-260 310l232 114z" />
    <glyph glyph-name="rcaron" unicode="&#x159;" horiz-adv-x="935" 
d="M932 735h-283q-51 -38 -92 -86v-477l182 -22v-150h-704v154l108 30v643l-108 58v135q218 59 444 65l49 -28l-16 -250h29q58 147 114 216t148 69q78 0 129 -66v-291zM530 1411h21l174 193h149l-292 -430h-250l-238 350l232 114z" />
    <glyph glyph-name="Sacute" unicode="&#x15a;" horiz-adv-x="1232" 
d="M651 913l197 -82q106 -43 173 -94t106.5 -129.5t39.5 -185.5q0 -115 -44 -202.5t-124.5 -140.5t-188 -79.5t-241.5 -26.5q-126 0 -259 21t-218 55q-18 92 -18 207q0 80 16 168l258 12l78 -270q41 -8 98 -8q101 0 148 33t47 104q0 64 -34.5 96.5t-117.5 65.5l-192 78
q-281 114 -281 407q0 217 149 332t416 115q128 0 246.5 -24t184.5 -56q10 -62 10 -144q0 -112 -29 -215h-246l-67 250q-40 6 -80 6q-90 0 -131 -30t-41 -95q0 -58 32.5 -96.5t112.5 -71.5zM764 1870h266q66 -51 107 -176l-373 -234h-174z" />
    <glyph glyph-name="sacute" unicode="&#x15b;" horiz-adv-x="1017" 
d="M508 756l176 -78q145 -64 214 -142.5t69 -203.5q0 -92 -37 -162t-105 -112.5t-158.5 -63.5t-203.5 -21q-235 0 -397 70q-15 62 -15 135q0 85 29 164h211l39 -205q62 -10 108 -10q150 0 150 98q0 37 -21 59.5t-78 45.5l-172 78q-125 55 -187 132.5t-62 198.5
q0 170 120.5 261.5t350.5 91.5q108 0 205 -18t149 -42q14 -68 14 -133q0 -80 -26 -151h-183l-49 180q-62 10 -108 10q-66 0 -96.5 -19t-30.5 -63q0 -32 20 -55t74 -45zM535 1632h268q64 -61 102 -176l-370 -282h-150z" />
    <glyph glyph-name="Scircumflex" unicode="&#x15c;" horiz-adv-x="1232" 
d="M651 913l197 -82q106 -43 173 -94t106.5 -129.5t39.5 -185.5q0 -115 -44 -202.5t-124.5 -140.5t-188 -79.5t-241.5 -26.5q-126 0 -259 21t-218 55q-18 92 -18 207q0 80 16 168l258 12l78 -270q41 -8 98 -8q101 0 148 33t47 104q0 64 -34.5 96.5t-117.5 65.5l-192 78
q-281 114 -281 407q0 217 149 332t416 115q128 0 246.5 -24t184.5 -56q10 -62 10 -144q0 -112 -29 -215h-246l-67 250q-40 6 -80 6q-90 0 -131 -30t-41 -95q0 -58 32.5 -96.5t112.5 -71.5zM1040 1540l-231 -115l-225 207h-21l-196 -172h-150l315 389h250z" />
    <glyph glyph-name="scircumflex" unicode="&#x15d;" horiz-adv-x="1017" 
d="M508 756l176 -78q145 -64 214 -142.5t69 -203.5q0 -92 -37 -162t-105 -112.5t-158.5 -63.5t-203.5 -21q-235 0 -397 70q-15 62 -15 135q0 85 29 164h211l39 -205q62 -10 108 -10q150 0 150 98q0 37 -21 59.5t-78 45.5l-172 78q-125 55 -187 132.5t-62 198.5
q0 170 120.5 261.5t350.5 91.5q108 0 205 -18t149 -42q14 -68 14 -133q0 -80 -26 -151h-183l-49 180q-62 10 -108 10q-66 0 -96.5 -19t-30.5 -63q0 -32 20 -55t74 -45zM889 1253l-232 -114l-202 227h-23l-174 -192h-149l292 430h250z" />
    <glyph glyph-name="Scedilla" unicode="&#x15e;" horiz-adv-x="1232" 
d="M651 913l197 -82q106 -43 173 -94t106.5 -129.5t39.5 -185.5q0 -206 -132.5 -315.5t-364.5 -129.5v-81q63 0 107.5 -14t67.5 -38.5t32.5 -50t9.5 -55.5q0 -80 -68.5 -127t-208.5 -47q-182 0 -272 69l16 115q104 -22 156 -22q70 0 70 49q0 29 -24.5 42t-94.5 19l31 139
q-255 14 -400 74q-18 92 -18 207q0 80 16 168l258 12l78 -270q41 -8 98 -8q101 0 148 33t47 104q0 64 -34.5 96.5t-117.5 65.5l-192 78q-281 114 -281 407q0 217 149 332t416 115q128 0 246.5 -24t184.5 -56q10 -62 10 -144q0 -112 -29 -215h-246l-67 250q-40 6 -80 6
q-90 0 -131 -30t-41 -95q0 -58 32.5 -96.5t112.5 -71.5z" />
    <glyph glyph-name="scedilla" unicode="&#x15f;" horiz-adv-x="1017" 
d="M508 756l176 -78q145 -64 214 -142.5t69 -203.5q0 -154 -99.5 -241.5t-275.5 -108.5v-86q63 0 107.5 -14t67.5 -38.5t32.5 -50t9.5 -55.5q0 -80 -68.5 -127t-208.5 -47q-182 0 -272 69l16 115q104 -22 156 -22q70 0 70 49q0 29 -24.5 42t-94.5 19l31 139q-206 6 -348 68
q-15 62 -15 135q0 85 29 164h211l39 -205q62 -10 108 -10q150 0 150 98q0 37 -21 59.5t-78 45.5l-172 78q-125 55 -187 132.5t-62 198.5q0 170 120.5 261.5t350.5 91.5q108 0 205 -18t149 -42q14 -68 14 -133q0 -80 -26 -151h-183l-49 180q-62 10 -108 10q-66 0 -96.5 -19
t-30.5 -63q0 -32 20 -55t74 -45z" />
    <glyph glyph-name="Scaron" unicode="&#x160;" horiz-adv-x="1232" 
d="M651 913l197 -82q106 -43 173 -94t106.5 -129.5t39.5 -185.5q0 -115 -44 -202.5t-124.5 -140.5t-188 -79.5t-241.5 -26.5q-126 0 -259 21t-218 55q-18 92 -18 207q0 80 16 168l258 12l78 -270q41 -8 98 -8q101 0 148 33t47 104q0 64 -34.5 96.5t-117.5 65.5l-192 78
q-281 114 -281 407q0 217 149 332t416 115q128 0 246.5 -24t184.5 -56q10 -62 10 -144q0 -112 -29 -215h-246l-67 250q-40 6 -80 6q-90 0 -131 -30t-41 -95q0 -58 32.5 -96.5t112.5 -71.5zM674 1677h22l195 172h149l-313 -389h-250l-260 309l232 115z" />
    <glyph glyph-name="scaron" unicode="&#x161;" horiz-adv-x="1017" 
d="M508 756l176 -78q145 -64 214 -142.5t69 -203.5q0 -92 -37 -162t-105 -112.5t-158.5 -63.5t-203.5 -21q-235 0 -397 70q-15 62 -15 135q0 85 29 164h211l39 -205q62 -10 108 -10q150 0 150 98q0 37 -21 59.5t-78 45.5l-172 78q-125 55 -187 132.5t-62 198.5
q0 170 120.5 261.5t350.5 91.5q108 0 205 -18t149 -42q14 -68 14 -133q0 -80 -26 -151h-183l-49 180q-62 10 -108 10q-66 0 -96.5 -19t-30.5 -63q0 -32 20 -55t74 -45zM571 1411h21l174 193h149l-292 -430h-250l-238 350l232 114z" />
    <glyph glyph-name="Tcommaaccent" unicode="&#x162;" horiz-adv-x="1427" 
d="M29 1362h1370q12 -65 12 -162q0 -146 -29 -278h-225l-72 262l-147 6v-1022l152 -21v-147h-263v-104q63 0 107.5 -14t67.5 -38.5t32.5 -50t9.5 -55.5q0 -81 -68 -127.5t-208 -46.5q-182 0 -272 69l16 115q104 -22 156 -22q39 0 54 12.5t15 36.5q0 29 -24.5 42t-94.5 19
l35 164h-315v147l151 52v991l-149 -6l-72 -262h-223q-29 132 -29 278q0 92 13 162z" />
    <glyph glyph-name="tcommaaccent" unicode="&#x163;" horiz-adv-x="866" 
d="M834 227l28 -129q-138 -113 -340 -123v-79q63 0 107.5 -14t67.5 -38.5t32.5 -50t9.5 -55.5q0 -81 -68 -127.5t-208 -46.5q-183 0 -273 69l17 115q104 -22 155 -22q70 0 70 49q0 29 -24.5 42t-94.5 19l33 152q-213 52 -213 288v615l-129 31v122l205 41l240 240l98 -10
v-271h274v-170h-274v-552q0 -70 27 -96.5t83 -26.5q63 0 177 28z" />
    <glyph glyph-name="Tcaron" unicode="&#x164;" horiz-adv-x="1427" 
d="M29 1362h1370q12 -65 12 -162q0 -146 -29 -278h-225l-72 262l-147 6v-1022l152 -21v-147h-752v147l151 52v991l-149 -6l-72 -262h-223q-29 132 -29 278q0 92 13 162zM788 1677h23l195 172h149l-313 -389h-250l-260 309l231 115z" />
    <glyph glyph-name="tcaron" unicode="&#x165;" horiz-adv-x="1048" 
d="M834 227l28 -129q-156 -125 -381 -125q-180 0 -264 80.5t-84 222.5v615l-129 31v122l205 41l240 240l98 -10v-271h274v-170h-274v-552q0 -70 27 -96.5t83 -26.5q63 0 177 28zM844 1542q127 0 205 -59q-11 -124 -57 -205.5t-161 -169.5h-186l43 186v232q53 16 156 16z" />
    <glyph glyph-name="Tbar" unicode="&#x166;" horiz-adv-x="1427" 
d="M29 1362h1370q12 -65 12 -162q0 -146 -29 -278h-225l-72 262l-147 6v-502h219v-170h-219v-350l152 -21v-147h-752v147l151 52v319h-221v170h221v502l-149 -6l-72 -262h-223q-29 132 -29 278q0 92 13 162z" />
    <glyph glyph-name="tbar" unicode="&#x167;" horiz-adv-x="874" 
d="M838 227l28 -129q-156 -125 -381 -125q-180 0 -264 80.5t-84 222.5v246h-129v170h129v199l-129 31v122l205 41l240 240l98 -10v-271h274v-170h-274v-182h274v-170h-274v-200q0 -70 27.5 -96.5t83.5 -26.5q62 0 176 28z" />
    <glyph glyph-name="Utilde" unicode="&#x168;" horiz-adv-x="1492" 
d="M1468 1225l-129 -51v-738q0 -216 -157.5 -339.5t-444.5 -123.5t-435 125.5t-148 352.5v753l-129 21v137h698v-137l-119 -51v-764q0 -137 62 -198.5t188 -61.5q260 0 260 253v801l-139 21v137h493v-137zM1151 1827l98 -55q-18 -65 -38 -112.5t-50.5 -90.5t-74 -65.5
t-99.5 -22.5q-74 0 -133 22l-254 94l-90 -116l-98 55q18 65 38 113t50.5 90.5t74 65t99.5 22.5q69 0 131 -23l254 -96z" />
    <glyph glyph-name="utilde" unicode="&#x169;" horiz-adv-x="1329" 
d="M1313 190v-145q-218 -55 -459 -65l-49 28l10 168h-27q-59 -100 -153 -151.5t-207 -51.5q-153 0 -229 86.5t-76 235.5v532l-109 58v135q248 59 473 65l50 -28v-680q0 -63 24.5 -93t85.5 -30q63 0 135 39v545l-77 47v135q268 60 442 65l49 -28v-830zM907 1542l99 -55
q-19 -67 -37 -112.5t-47 -90t-71.5 -66.5t-98.5 -22q-67 0 -125 27l-191 92l-88 -119l-98 55q14 52 26.5 88.5t34 78t46.5 66.5t62 41.5t83 16.5q71 0 127 -26l188 -95z" />
    <glyph glyph-name="Umacron" unicode="&#x16a;" horiz-adv-x="1492" 
d="M1468 1225l-129 -51v-738q0 -216 -157.5 -339.5t-444.5 -123.5t-435 125.5t-148 352.5v753l-129 21v137h698v-137l-119 -51v-764q0 -137 62 -198.5t188 -61.5q260 0 260 253v801l-139 21v137h493v-137zM471 1759h719q10 -42 10 -104q0 -68 -10 -113h-719q-10 45 -10 113
q0 62 10 104z" />
    <glyph glyph-name="umacron" unicode="&#x16b;" horiz-adv-x="1329" 
d="M1313 190v-145q-218 -55 -459 -65l-49 28l10 168h-27q-59 -100 -153 -151.5t-207 -51.5q-153 0 -229 86.5t-76 235.5v532l-109 58v135q248 59 473 65l50 -28v-680q0 -63 24.5 -93t85.5 -30q63 0 135 39v545l-77 47v135q268 60 442 65l49 -28v-830zM299 1477h655
q13 -54 13 -105q0 -54 -13 -112h-655q-10 45 -10 112q0 63 10 105z" />
    <glyph glyph-name="Ubreve" unicode="&#x16c;" horiz-adv-x="1492" 
d="M1468 1225l-129 -51v-738q0 -216 -157.5 -339.5t-444.5 -123.5t-435 125.5t-148 352.5v753l-129 21v137h698v-137l-119 -51v-764q0 -137 62 -198.5t188 -61.5q260 0 260 253v801l-139 21v137h493v-137zM453 1823l266 26q11 -90 50 -133.5t126 -44.5t131.5 41.5
t60.5 130.5l125 -4q-1 -181 -112.5 -280t-290.5 -99q-168 0 -262 90.5t-94 272.5z" />
    <glyph glyph-name="ubreve" unicode="&#x16d;" horiz-adv-x="1329" 
d="M1313 190v-145q-218 -55 -459 -65l-49 28l10 168h-27q-59 -100 -153 -151.5t-207 -51.5q-153 0 -229 86.5t-76 235.5v532l-109 58v135q248 59 473 65l50 -28v-680q0 -63 24.5 -93t85.5 -30q63 0 135 39v545l-77 47v135q268 60 442 65l49 -28v-830zM274 1546l267 27
q8 -93 40 -137t109 -45t115.5 42t50.5 134l123 -15q-1 -125 -52 -210.5t-132 -123.5t-187 -38q-160 0 -247 91t-87 275z" />
    <glyph glyph-name="Uring" unicode="&#x16e;" horiz-adv-x="1492" 
d="M1468 1225l-129 -51v-738q0 -216 -157.5 -339.5t-444.5 -123.5t-435 125.5t-148 352.5v753l-129 21v137h698v-137l-119 -51v-764q0 -137 62 -198.5t188 -61.5q260 0 260 253v801l-139 21v137h493v-137zM856 1903q143 0 211 -56t68 -157q0 -116 -84.5 -173t-237.5 -57
q-289 0 -289 201q0 82 47 138t119.5 80t165.5 24zM831 1780q-40 0 -57.5 -23t-17.5 -74q0 -52 17.5 -76t55.5 -24q78 0 78 103q0 49 -18 71.5t-58 22.5z" />
    <glyph glyph-name="uring" unicode="&#x16f;" horiz-adv-x="1329" 
d="M1313 190v-145q-218 -55 -459 -65l-49 28l10 168h-27q-59 -100 -153 -151.5t-207 -51.5q-153 0 -229 86.5t-76 235.5v532l-109 58v135q248 59 473 65l50 -28v-680q0 -63 24.5 -93t85.5 -30q63 0 135 39v545l-77 47v135q268 60 442 65l49 -28v-830zM653 1659
q143 0 211 -59t68 -166q0 -126 -85 -192t-237 -66q-147 0 -217.5 60.5t-70.5 166.5q0 128 93 192t238 64zM629 1538q-41 0 -58.5 -26.5t-17.5 -92.5q0 -67 17.5 -95t56.5 -28q41 0 59.5 29t18.5 94t-18 92t-58 27z" />
    <glyph glyph-name="Uhungarumlaut" unicode="&#x170;" horiz-adv-x="1492" 
d="M1468 1225l-129 -51v-738q0 -216 -157.5 -339.5t-444.5 -123.5t-435 125.5t-148 352.5v753l-129 21v137h698v-137l-119 -51v-764q0 -137 62 -198.5t188 -61.5q260 0 260 253v801l-139 21v137h493v-137zM596 1845h238q65 -53 102 -176l-213 -209h-199zM1030 1845h240
q68 -56 100 -176l-213 -209h-196z" />
    <glyph glyph-name="uhungarumlaut" unicode="&#x171;" horiz-adv-x="1329" 
d="M1313 190v-145q-218 -55 -459 -65l-49 28l10 168h-27q-59 -100 -153 -151.5t-207 -51.5q-153 0 -229 86.5t-76 235.5v532l-109 58v135q248 59 473 65l50 -28v-680q0 -63 24.5 -93t85.5 -30q63 0 135 39v545l-77 47v135q268 60 442 65l49 -28v-830zM403 1632h240
q68 -56 100 -176l-266 -282h-158zM807 1632h237q65 -51 103 -176l-268 -282h-156z" />
    <glyph glyph-name="Uogonek" unicode="&#x172;" horiz-adv-x="1492" 
d="M1468 1225l-129 -51v-738q-1 -69 -16.5 -127.5t-36 -95t-54 -70.5t-54.5 -49t-54 -35q-89 -57 -138.5 -110.5t-49.5 -114.5q0 -88 111 -88q45 0 100 12l14 -131q-144 -63 -299 -63q-270 0 -270 168q0 86 65.5 139.5t188.5 95.5l-6 27q-57 -14 -133 -14q-267 0 -410 123.5
t-143 347.5v753l-129 21v137h698v-137l-119 -51v-764q0 -137 62 -198.5t188 -61.5q260 0 260 253v801l-139 21v137h493v-137z" />
    <glyph glyph-name="uogonek" unicode="&#x173;" horiz-adv-x="1329" 
d="M1313 190v-145q-175 -64 -241 -111.5t-66 -103.5q0 -84 112 -84q46 0 99 12l16 -131q-144 -63 -293 -63q-136 0 -206 49.5t-70 140.5q0 81 53 136.5t137 82.5l-39 203h-24q-58 -100 -153.5 -151.5t-209.5 -51.5q-153 0 -229 86.5t-76 235.5v532l-109 58v135
q248 59 473 65l50 -28v-680q0 -63 24.5 -93t85.5 -30q63 0 135 39v545l-77 47v135q268 60 442 65l49 -28v-830z" />
    <glyph glyph-name="Wcircumflex" unicode="&#x174;" horiz-adv-x="2357" 
d="M2333 1225l-119 -49q-172 -586 -363 -1156l-376 -47l-70 21q-146 474 -211 721h-27q-140 -450 -223 -695l-377 -47l-69 21q-215 694 -351 1210l-122 21v137h684v-137l-80 -51q17 -72 62 -272t75 -327.5t57 -220.5h27q72 200 237 750l-28 96l-119 25v137h686v-137
l-131 -51q81 -305 236 -820h26q132 431 236 850l-135 21v137h475v-137zM1673 1540l-231 -115l-225 207h-21l-197 -172h-149l315 389h250z" />
    <glyph glyph-name="wcircumflex" unicode="&#x175;" horiz-adv-x="1986" 
d="M1925 911l-104 -41q-105 -414 -244 -850l-307 -47l-68 21q-22 52 -42 105t-40 113.5t-33.5 101t-36 113.5t-32.5 105h-27q-9 -25 -34 -98.5t-37.5 -109t-34.5 -95t-42 -110t-42 -99.5l-309 -47l-68 21q-145 471 -248 899l-115 18v133h635v-133l-80 -49q51 -277 119 -536
h27q97 288 205 696l252 47l67 -20q130 -449 225 -723h25q57 250 96 567l-143 18v133h436v-133zM1507 1253l-231 -114l-203 227h-22l-174 -192h-150l293 430h250z" />
    <glyph glyph-name="Ycircumflex" unicode="&#x176;" horiz-adv-x="1431" 
d="M1427 1225l-122 -49q-146 -327 -338 -703v-315l151 -21v-137h-751v137l151 51v261q-241 472 -373 755l-141 21v137h684v-137l-61 -39q99 -249 219 -498h26q117 246 224 516l-142 21v137h473v-137zM1169 1540l-231 -115l-225 207h-21l-196 -172h-150l316 389h249z" />
    <glyph glyph-name="ycircumflex" unicode="&#x177;" horiz-adv-x="1218" 
d="M1214 911l-122 -49q-67 -212 -162.5 -473.5t-157.5 -392.5q-57 -120 -123.5 -207t-134 -134t-130 -68t-124.5 -21q-113 0 -176 82l10 166h426l15 22q-81 177 -202.5 484.5t-211.5 570.5l-117 20v133h604v-133l-45 -41q105 -362 170 -544h27q78 243 145 565l-127 20v133
h436v-133zM1001 1253l-231 -114l-203 227h-22l-174 -192h-150l293 430h250z" />
    <glyph glyph-name="Ydieresis" unicode="&#x178;" horiz-adv-x="1431" 
d="M1427 1225l-122 -49q-146 -327 -338 -703v-315l151 -21v-137h-751v137l151 51v261q-241 472 -373 755l-141 21v137h684v-137l-61 -39q99 -249 219 -498h26q117 246 224 516l-142 21v137h473v-137zM514 1800q76 0 123 -16q33 -54 33 -135q0 -50 -15.5 -89t-52.5 -87h-266
l-39 282q113 45 217 45zM1065 1800q74 0 123 -16q31 -55 31 -135q0 -51 -14.5 -90t-51.5 -86h-268l-39 282q119 45 219 45z" />
    <glyph glyph-name="Zacute" unicode="&#x179;" horiz-adv-x="1261" 
d="M934 416l268 -13q15 -97 15 -172q0 -110 -23 -231h-1126l-17 154l451 733q86 143 213 299l-13 20l-278 -16l-66 -240h-245q-31 110 -31 242q0 112 12 170h1102l16 -154l-440 -725q-98 -166 -211 -305l14 -18l291 14zM756 1870h266q65 -50 106 -176l-372 -234h-174z" />
    <glyph glyph-name="zacute" unicode="&#x17a;" horiz-adv-x="1001" 
d="M760 373l196 -11q21 -79 21 -149q0 -120 -35 -213h-901l-16 154l305 467q19 30 39 59t34 49t35.5 47t31 38.5t32 39.5t28.5 35l-12 20l-215 -18l-51 -205h-184q-31 113 -31 197q0 87 18 161h893l17 -153l-293 -461q-77 -125 -197 -272l12 -19l226 17zM539 1632h268
q64 -61 102 -176l-370 -282h-150z" />
    <glyph glyph-name="Zdotaccent" unicode="&#x17b;" horiz-adv-x="1261" 
d="M934 416l268 -13q15 -97 15 -172q0 -110 -23 -231h-1126l-17 154l451 733q86 143 213 299l-13 20l-278 -16l-66 -240h-245q-31 110 -31 242q0 112 12 170h1102l16 -154l-440 -725q-98 -166 -211 -305l14 -18l291 14zM657 1812q95 0 142 -16q35 -56 35 -147
q0 -53 -15.5 -94.5t-54.5 -94.5h-318l-38 305q115 47 249 47z" />
    <glyph glyph-name="zdotaccent" unicode="&#x17c;" horiz-adv-x="1001" 
d="M760 373l196 -11q21 -79 21 -149q0 -120 -35 -213h-901l-16 154l305 467q19 30 39 59t34 49t35.5 47t31 38.5t32 39.5t28.5 35l-12 20l-215 -18l-51 -205h-184q-31 113 -31 197q0 87 18 161h893l17 -153l-293 -461q-77 -125 -197 -272l12 -19l226 17zM539 1538
q94 0 141 -16q35 -56 35 -148q0 -53 -15.5 -93.5t-54.5 -94.5h-317l-39 305q115 47 250 47z" />
    <glyph glyph-name="Zcaron" unicode="&#x17d;" horiz-adv-x="1261" 
d="M934 416l268 -13q15 -97 15 -172q0 -110 -23 -231h-1126l-17 154l451 733q86 143 213 299l-13 20l-278 -16l-66 -240h-245q-31 110 -31 242q0 112 12 170h1102l16 -154l-440 -725q-98 -166 -211 -305l14 -18l291 14zM666 1677h22l195 172h149l-313 -389h-250l-260 309
l231 115z" />
    <glyph glyph-name="zcaron" unicode="&#x17e;" horiz-adv-x="1001" 
d="M760 373l196 -11q21 -79 21 -149q0 -120 -35 -213h-901l-16 154l305 467q19 30 39 59t34 49t35.5 47t31 38.5t32 39.5t28.5 35l-12 20l-215 -18l-51 -205h-184q-31 113 -31 197q0 87 18 161h893l17 -153l-293 -461q-77 -125 -197 -272l12 -19l226 17zM575 1411h21
l174 193h150l-293 -430h-250l-238 350l232 114z" />
    <glyph glyph-name="longs" unicode="&#x17f;" horiz-adv-x="710" 
d="M680 1542q165 0 275 -60.5t110 -166.5q0 -43 -19 -84.5t-51 -69.5h-264l-24 238h-13q-70 0 -103.5 -32t-33.5 -124v-1089l123 -21v-133h-643v133l106 51v686l-129 31v143l129 37q0 461 537 461z" />
    <glyph glyph-name="uni018F" unicode="&#x18f;" horiz-adv-x="1492" 
d="M698 1389q175 0 314 -51t229 -142t137 -215t47 -272q0 -172 -62.5 -313t-170.5 -232.5t-251.5 -141t-307.5 -49.5q-142 0 -251.5 36.5t-177.5 102t-102 151.5t-34 188q0 63 11.5 137.5t29.5 122.5h813q-20 204 -118 295.5t-274 91.5q-196 0 -385 -92l-26 163
q227 220 579 220zM690 168q95 0 159.5 90t74.5 283l-392 -23v-47q0 -152 34.5 -227.5t123.5 -75.5z" />
    <glyph glyph-name="florin" unicode="&#x192;" horiz-adv-x="1556" 
d="M1167 1264q166 0 275.5 -60.5t109.5 -167.5q0 -94 -69 -153h-262l-25 237h-22q-61 0 -91.5 -33.5t-40.5 -121.5l-22 -177h203v-170h-226l-45 -335q-11 -93 -47 -169t-89 -128.5t-122 -88t-145 -51.5t-160 -16q-166 0 -275.5 60t-109.5 167q0 44 19 85t51 69h262l26 -238
h21q60 0 90.5 34t40.5 122l66 489h-197v170h219l2 23q16 116 67 204.5t128 142t169.5 80t198.5 26.5z" />
    <glyph glyph-name="uni01E2" unicode="&#x1e2;" horiz-adv-x="2070" 
d="M1741 416l254 -13q14 -91 14 -172q0 -119 -24 -231h-1213v137l129 51v181h-452l-93 -211l115 -21v-137h-467v137l121 47q206 436 500 1010l-148 31v137h1516q12 -64 12 -160q0 -117 -29 -239h-233l-64 217l-329 12v-424l176 14l22 92h152v-378h-152l-22 92l-176 14v-432
l309 8zM901 551v608h-90q-46 -99 -140 -302t-141 -306h371zM791 1759h655q12 -50 12 -104q0 -59 -12 -113h-655q-11 49 -11 113q0 58 11 104z" />
    <glyph glyph-name="uni01E3" unicode="&#x1e3;" horiz-adv-x="1714" 
d="M1333 236q134 0 279 55l26 -139q-39 -38 -77.5 -66t-94.5 -55.5t-131 -42.5t-164 -15q-320 0 -456 193h-27q-42 -97 -128.5 -145t-205.5 -48q-153 0 -238 75t-85 214q0 69 23.5 121t60.5 84t97.5 54.5t120.5 33t142 18.5q89 9 152 9l4 186q3 108 -30 144t-109 36l-39 -2
l-33 -264h-252q-82 65 -82 152q0 75 63.5 135t164.5 91.5t216 31.5q139 0 219.5 -46t108.5 -118h27q49 76 141.5 120t220.5 44q135 0 228 -50.5t135.5 -133.5t42.5 -193q0 -126 -39 -215l-565 -17q22 -127 90 -187t194 -60zM1161 928q-123 0 -123 -303v-11l213 29l2 80
q0 107 -21 156t-71 49zM539 211q62 0 125 55q-33 81 -39 193l-39 -2q-42 -2 -69 -14t-38.5 -33t-15.5 -39t-4 -43q0 -65 19.5 -91t60.5 -26zM543 1456h655q12 -50 12 -104q0 -59 -12 -113h-655q-11 49 -11 113q0 58 11 104z" />
    <glyph glyph-name="Aringacute" unicode="&#x1fa;" horiz-adv-x="1495" 
d="M803 1677h-170l119 326h249q69 -54 99 -152zM1491 137v-137h-723v137l117 51l-45 160h-439l-53 -192l111 -19v-137h-455v137l125 49q193 622 350 1065q-67 49 -67 144q0 61 26.5 106.5t73 72t104.5 39.5t127 13q279 0 279 -203q0 -80 -41 -127q193 -530 383 -1138z
M719 1503q-40 0 -58 -21t-18 -67q0 -47 18 -68.5t56 -21.5q78 0 78 90q0 88 -76 88zM453 530h331q-94 310 -153 478h-27q-61 -178 -151 -478z" />
    <glyph glyph-name="aringacute" unicode="&#x1fb;" horiz-adv-x="1161" 
d="M1151 190v-137q-173 -69 -301 -69q-197 0 -197 147v25h-26q-43 -95 -124 -139t-181 -44q-138 0 -214.5 75.5t-76.5 207.5q0 162 118 245t345 83q79 0 141 -4v188q0 108 -31.5 144t-107.5 36l-39 -2l-33 -264h-252q-82 65 -82 152q0 116 140 187t356 71q236 0 347 -92
t109 -271l-10 -502zM535 211q48 0 100 31v217h-68q-64 0 -89 -37.5t-25 -104.5q0 -60 18.5 -83t63.5 -23zM618 1962h234q65 -50 100 -152l-290 -182h-150zM608 1577q277 0 277 -195q0 -112 -83.5 -169.5t-240.5 -57.5q-289 0 -289 197q0 113 91.5 169t244.5 56zM580 1464
q-40 0 -58 -22t-18 -74t18 -76t56 -24q77 0 77 102q0 50 -17.5 72t-57.5 22z" />
    <glyph glyph-name="AEacute" unicode="&#x1fc;" horiz-adv-x="2070" 
d="M1741 416l254 -13q14 -91 14 -172q0 -119 -24 -231h-1213v137l129 51v181h-452l-93 -211l115 -21v-137h-467v137l121 47q206 436 500 1010l-148 31v137h1516q12 -64 12 -160q0 -117 -29 -239h-233l-64 217l-329 12v-424l176 14l22 92h152v-378h-152l-22 92l-176 14v-432
l309 8zM901 551v608h-90q-46 -99 -140 -302t-141 -306h371zM1255 1870h267q65 -50 106 -176l-373 -234h-174z" />
    <glyph glyph-name="aeacute" unicode="&#x1fd;" horiz-adv-x="1714" 
d="M1333 236q134 0 279 55l26 -139q-39 -38 -77.5 -66t-94.5 -55.5t-131 -42.5t-164 -15q-320 0 -456 193h-27q-42 -97 -128.5 -145t-205.5 -48q-153 0 -238 75t-85 214q0 69 23.5 121t60.5 84t97.5 54.5t120.5 33t142 18.5q89 9 152 9l4 186q3 108 -30 144t-109 36l-39 -2
l-33 -264h-252q-82 65 -82 152q0 75 63.5 135t164.5 91.5t216 31.5q139 0 219.5 -46t108.5 -118h27q49 76 141.5 120t220.5 44q135 0 228 -50.5t135.5 -133.5t42.5 -193q0 -126 -39 -215l-565 -17q22 -127 90 -187t194 -60zM1161 928q-123 0 -123 -303v-11l213 29l2 80
q0 107 -21 156t-71 49zM539 211q62 0 125 55q-33 81 -39 193l-39 -2q-42 -2 -69 -14t-38.5 -33t-15.5 -39t-4 -43q0 -65 19.5 -91t60.5 -26zM907 1612h269q64 -61 102 -176l-371 -283h-149z" />
    <glyph glyph-name="Oslashacute" unicode="&#x1fe;" horiz-adv-x="1648" 
d="M1434 1440l-117 -166q264 -174 264 -557q0 -178 -61 -320.5t-169.5 -234.5t-254.5 -140.5t-318 -48.5q-201 0 -356 68l-162 -223l-113 59l-18 47l147 209q-208 184 -208 520q0 176 60 316.5t167.5 231.5t254 139.5t320.5 48.5q162 0 287 -41l146 198l114 -59zM825 1194
q-96 0 -150 -42t-81 -153t-27 -315q0 -64 4 -158l433 594q-55 74 -179 74zM823 168q96 0 150 43.5t81 156t27 316.5q0 171 -16 262l-457 -631q28 -80 80 -113.5t135 -33.5zM885 1870h266q65 -50 106 -176l-372 -234h-174z" />
    <glyph glyph-name="oslashacute" unicode="&#x1ff;" horiz-adv-x="1304" 
d="M1130 1167l-98 -159q110 -67 163.5 -182.5t53.5 -264.5q0 -278 -173.5 -433t-463.5 -155q-116 0 -217 29l-116 -184l-117 53l-21 45l101 162q-187 136 -187 426q0 280 173 434t462 154q94 0 178 -19l125 193l119 -54zM651 928q-97 0 -126 -82t-29 -311v-76l262 424
q-33 45 -107 45zM651 137q97 0 126.5 84t29.5 314q0 110 -4 155l-283 -457q17 -51 48 -73.5t83 -22.5zM674 1612h268q64 -61 102 -176l-370 -283h-150z" />
    <glyph glyph-name="Scommaaccent" unicode="&#x218;" horiz-adv-x="1232" 
d="M651 913l197 -82q106 -43 173 -94t106.5 -129.5t39.5 -185.5q0 -115 -44 -202.5t-124.5 -140.5t-188 -79.5t-241.5 -26.5q-126 0 -259 21t-218 55q-18 92 -18 207q0 80 16 168l258 12l78 -270q41 -8 98 -8q101 0 148 33t47 104q0 64 -34.5 96.5t-117.5 65.5l-192 78
q-281 114 -281 407q0 217 149 332t416 115q128 0 246.5 -24t184.5 -56q10 -62 10 -144q0 -112 -29 -215h-246l-67 250q-40 6 -80 6q-90 0 -131 -30t-41 -95q0 -58 32.5 -96.5t112.5 -71.5zM563 -78q87 0 158 -18q39 -59 39 -150q0 -238 -320 -272l-37 90l43.5 14.5t33 12
t27.5 13t17 13t12 15.5t3 18q0 15 -2 29l-119 6l-10 211q78 18 155 18z" />
    <glyph glyph-name="scommaaccent" unicode="&#x219;" horiz-adv-x="1017" 
d="M508 756l176 -78q145 -64 214 -142.5t69 -203.5q0 -92 -37 -162t-105 -112.5t-158.5 -63.5t-203.5 -21q-235 0 -397 70q-15 62 -15 135q0 85 29 164h211l39 -205q62 -10 108 -10q150 0 150 98q0 37 -21 59.5t-78 45.5l-172 78q-125 55 -187 132.5t-62 198.5
q0 170 120.5 261.5t350.5 91.5q108 0 205 -18t149 -42q14 -68 14 -133q0 -80 -26 -151h-183l-49 180q-62 10 -108 10q-66 0 -96.5 -19t-30.5 -63q0 -32 20 -55t74 -45zM485 -78q87 0 158 -18q39 -59 39 -150q0 -238 -320 -272l-36 90q80 26 107.5 42t27.5 44q0 15 -2 29
l-119 6l-10 211q78 18 155 18z" />
    <glyph glyph-name="uni021A" unicode="&#x21a;" horiz-adv-x="1427" 
d="M29 1362h1370q12 -65 12 -162q0 -146 -29 -278h-225l-72 262l-147 6v-1022l152 -21v-147h-752v147l151 52v991l-149 -6l-72 -262h-223q-29 132 -29 278q0 92 13 162zM721 -78q87 0 158 -18q39 -59 39 -150q0 -238 -320 -272l-37 90q80 26 107.5 42t27.5 44q0 15 -2 29
l-119 6l-10 211q78 18 156 18z" />
    <glyph glyph-name="uni021B" unicode="&#x21b;" horiz-adv-x="866" 
d="M834 227l28 -129q-156 -125 -381 -125q-180 0 -264 80.5t-84 222.5v615l-129 31v122l205 41l240 240l98 -10v-271h274v-170h-274v-552q0 -70 27 -96.5t83 -26.5q63 0 177 28zM416 -78q86 0 157 -18q39 -59 39 -150q0 -238 -319 -272l-37 90q80 26 107.5 42t27.5 44
q0 15 -2 29l-119 6l-10 211q78 18 156 18z" />
    <glyph glyph-name="uni0232" unicode="&#x232;" horiz-adv-x="1431" 
d="M1427 1225l-122 -49q-146 -327 -338 -703v-315l151 -21v-137h-751v137l151 51v261q-241 472 -373 755l-141 21v137h684v-137l-61 -39q99 -249 219 -498h26q117 246 224 516l-142 21v137h473v-137zM428 1759h655q13 -54 13 -104q0 -55 -13 -113h-655q-10 45 -10 113
q0 62 10 104z" />
    <glyph glyph-name="uni0233" unicode="&#x233;" horiz-adv-x="1218" 
d="M1214 911l-122 -49q-67 -212 -162.5 -473.5t-157.5 -392.5q-57 -120 -123.5 -207t-134 -134t-130 -68t-124.5 -21q-113 0 -176 82l10 166h426l15 22q-81 177 -202.5 484.5t-211.5 570.5l-117 20v133h604v-133l-45 -41q105 -362 170 -544h27q78 243 145 565l-127 20v133
h436v-133zM283 1477h655q12 -50 12 -105q0 -58 -12 -112h-655q-11 50 -11 112q0 59 11 105z" />
    <glyph glyph-name="uni0237" unicode="&#x237;" horiz-adv-x="667" 
d="M551 1057v-1022q0 -98 -40 -181t-109 -141t-156.5 -96t-188.5 -55l-63 65l139 189v1011l-108 58v135q204 52 473 65z" />
    <glyph glyph-name="uni0259" unicode="&#x259;" horiz-adv-x="1173" 
d="M578 1092q116 0 207.5 -26.5t153.5 -73t102.5 -113.5t58.5 -145t18 -171q0 -147 -46.5 -261.5t-129.5 -185.5t-192.5 -107t-241.5 -36q-118 0 -204.5 28.5t-136.5 80t-73.5 116.5t-23.5 146q0 117 39 197h573q-14 148 -79.5 218t-192.5 70q-120 0 -258 -55l-25 139
q51 53 102 88.5t142.5 63t206.5 27.5zM561 137q117 0 125 273l-217 -17v-53q0 -103 21 -153t71 -50z" />
    <glyph glyph-name="uni02BB" unicode="&#x2bb;" horiz-adv-x="641" 
d="M518 1563l31 -109q-91 -46 -137.5 -90.5t-46.5 -112.5q0 -20 2 -32l135 -9l12 -315q-94 -25 -182 -25q-82 0 -164 21q-70 96 -70 229q0 176 110 292.5t310 150.5z" />
    <glyph glyph-name="afii57929" unicode="&#x2bc;" horiz-adv-x="641" 
d="M309 1542q83 0 164 -20q70 -96 70 -228q0 -177 -110.5 -293.5t-311.5 -150.5l-29 108q90 47 136 91t46 112q0 21 -2 33l-133 8l-14 316q93 24 184 24z" />
    <glyph glyph-name="circumflex" unicode="&#x2c6;" horiz-adv-x="903" 
d="M842 1253l-232 -114l-202 227h-23l-174 -192h-150l293 430h250z" />
    <glyph glyph-name="caron" unicode="&#x2c7;" horiz-adv-x="903" 
d="M498 1411h20l174 193h150l-293 -430h-250l-238 350l232 114z" />
    <glyph glyph-name="breve" unicode="&#x2d8;" horiz-adv-x="827" 
d="M61 1546l267 27q8 -93 40 -137t109 -45t115.5 42t50.5 134l123 -15q-1 -125 -52 -210.5t-132 -123.5t-187 -38q-160 0 -247 91t-87 275z" />
    <glyph glyph-name="dotaccent" unicode="&#x2d9;" horiz-adv-x="548" 
d="M311 1559q92 0 142 -17q34 -54 34 -147q0 -54 -15 -95t-54 -94h-318l-39 305q117 48 250 48z" />
    <glyph glyph-name="ring" unicode="&#x2da;" horiz-adv-x="733" 
d="M393 1659q143 0 211 -59t68 -166q0 -126 -85 -192t-237 -66q-147 0 -218 60.5t-71 166.5q0 128 93.5 192t238.5 64zM369 1538q-41 0 -58.5 -26.5t-17.5 -92.5q0 -67 17.5 -95t56.5 -28q41 0 59 29t18 94t-17.5 92t-57.5 27z" />
    <glyph glyph-name="ogonek" unicode="&#x2db;" horiz-adv-x="692" 
d="M547 33l57 -2q-115 -54 -156.5 -98t-41.5 -97q0 -49 26.5 -69.5t81.5 -20.5q48 0 100 12l17 -131q-144 -63 -291 -63q-136 0 -207.5 52.5t-71.5 137.5q0 111 128 180.5t358 98.5z" />
    <glyph glyph-name="tilde" unicode="&#x2dc;" horiz-adv-x="878" 
d="M719 1542l98 -55q-19 -67 -37 -112.5t-47 -90t-71.5 -66.5t-98.5 -22q-67 0 -125 27l-190 92l-88 -119l-99 55q14 52 26.5 88.5t34 78t46.5 66.5t62 41.5t83 16.5q71 0 127 -26l189 -95z" />
    <glyph glyph-name="hungarumlaut" unicode="&#x2dd;" horiz-adv-x="950" 
d="M145 1632h240q68 -56 100 -176l-266 -282h-158zM549 1632h237q65 -51 103 -176l-268 -282h-156z" />
    <glyph glyph-name="gravecomb" unicode="&#x300;" horiz-adv-x="0" 
d="M-53 1174h-152l-350 282q39 127 104 176h267z" />
    <glyph glyph-name="acutecomb" unicode="&#x301;" horiz-adv-x="0" 
d="M-406 1632h269q64 -61 102 -176l-371 -282h-149z" />
    <glyph glyph-name="uni0302" unicode="&#x302;" horiz-adv-x="0" 
d="M-61 1253l-232 -114l-203 227h-22l-174 -192h-150l293 430h250z" />
    <glyph glyph-name="tildecomb" unicode="&#x303;" horiz-adv-x="0" 
d="M-143 1542l98 -55q-19 -67 -37 -112.5t-47 -90t-71.5 -66.5t-98.5 -22q-67 0 -125 27l-190 92l-88 -119l-99 55q14 52 26.5 88.5t34 78t46.5 66.5t62 41.5t83 16.5q71 0 127 -26l189 -95z" />
    <glyph glyph-name="uni0304" unicode="&#x304;" horiz-adv-x="0" 
d="M-791 1477h656q12 -50 12 -105q0 -58 -12 -112h-656q-10 45 -10 112q0 63 10 105z" />
    <glyph glyph-name="uni0306" unicode="&#x306;" horiz-adv-x="0" 
d="M-821 1546l266 27q8 -93 40 -137t109 -45t115.5 42t50.5 134l123 -15q-1 -94 -29.5 -166.5t-79.5 -116.5t-116.5 -66.5t-144.5 -22.5q-160 0 -247 91t-87 275z" />
    <glyph glyph-name="uni0307" unicode="&#x307;" horiz-adv-x="0" 
d="M-305 1538q94 0 141 -16q35 -56 35 -148q0 -53 -15.5 -93.5t-54.5 -94.5h-317l-39 305q115 47 250 47z" />
    <glyph glyph-name="uni0308" unicode="&#x308;" horiz-adv-x="2" 
d="M-735 1563q76 0 123 -17q34 -56 34 -135q0 -50 -15.5 -88.5t-51.5 -87.5h-268l-39 283q113 45 217 45zM-254 1563q76 0 123 -17q35 -53 35 -135q0 -49 -15.5 -88t-52.5 -88h-266l-41 283q119 45 217 45z" />
    <glyph glyph-name="uni030A" unicode="&#x30a;" horiz-adv-x="0" 
d="M-428 1659q278 0 278 -225q0 -126 -84.5 -192t-236.5 -66q-147 0 -218 60.5t-71 166.5q0 128 93.5 192t238.5 64zM-453 1538q-40 0 -57.5 -26.5t-17.5 -92.5q0 -67 17 -95t56 -28q41 0 59.5 29t18.5 94t-18 92t-58 27z" />
    <glyph glyph-name="uni030B" unicode="&#x30b;" horiz-adv-x="0" 
d="M-840 1632h240q68 -56 100 -176l-266 -282h-158zM-436 1632h237q65 -51 103 -176l-269 -282h-155z" />
    <glyph glyph-name="uni030C" unicode="&#x30c;" horiz-adv-x="0" 
d="M-426 1411h20l175 193h149l-293 -430h-250l-237 350l231 114z" />
    <glyph glyph-name="uni0312" unicode="&#x312;" horiz-adv-x="2" 
d="M-197 1628l37 -90q-75 -25 -105 -49t-30 -68q0 -14 2 -28l119 -7l10 -210q-83 -19 -155 -19q-84 0 -158 19q-39 59 -39 149q0 119 77.5 202t241.5 101z" />
    <glyph glyph-name="uni0326" unicode="&#x326;" horiz-adv-x="0" 
d="M-313 -78q87 0 157 -18q39 -59 39 -150q0 -238 -319 -272l-37 90q80 26 107.5 42t27.5 44q0 15 -2 29l-119 6l-10 211q78 18 156 18z" />
    <glyph glyph-name="uni0327" unicode="&#x327;" horiz-adv-x="0" 
d="M-326 12v-116q63 0 107.5 -14t67.5 -38.5t32.5 -50t9.5 -55.5q0 -81 -68 -127.5t-208 -46.5q-182 0 -272 69l16 115q104 -22 156 -22q39 0 54 12.5t15 36.5q0 29 -24.5 42t-94.5 19l39 176h170z" />
    <glyph glyph-name="uni0328" unicode="&#x328;" horiz-adv-x="2" 
d="M547 33l57 -2q-115 -54 -156.5 -98t-41.5 -97q0 -49 26.5 -69.5t81.5 -20.5q48 0 100 12l17 -131q-144 -63 -291 -63q-136 0 -207.5 52.5t-71.5 137.5q0 111 128 180.5t358 98.5z" />
    <glyph glyph-name="uni0394" unicode="&#x394;" horiz-adv-x="1366" 
d="M1352 57l-21 -59h-1296l-21 59l529 1299l211 33l65 -21zM604 1012l-297 -717h584z" />
    <glyph glyph-name="uni03A9" unicode="&#x3a9;" horiz-adv-x="1703" 
d="M1462 457l213 -13q15 -88 15 -161q0 -135 -31 -283h-719v444q170 100 170 398q0 182 -61.5 267t-194.5 85q-132 0 -195 -83t-63 -259q0 -150 43 -263t127 -145v-444h-721q-31 148 -31 283q0 73 15 161l213 13l57 -164l279 -33v107q-482 111 -482 481q0 173 104.5 296.5
t282.5 184t410 60.5q349 0 532 -136.5t183 -375.5q0 -92 -27.5 -171t-73 -136t-109 -102.5t-129.5 -74t-141 -47.5v-86l277 33z" />
    <glyph glyph-name="uni03BC" unicode="&#x3bc;" horiz-adv-x="1320" 
d="M1305 190v-145q-219 -55 -455 -65l-49 28l8 168h-27q-45 -108 -101.5 -155.5t-133.5 -47.5q-74 0 -111 54l-24 -13l59 -409q-153 -41 -379 -41l-47 55l72 547v872q179 44 364 47l49 -28v-680q0 -63 25 -93t86 -30q66 0 133 39v739q199 50 367 53l47 -28v-830z" />
    <glyph glyph-name="pi" unicode="&#x3c0;" horiz-adv-x="1445" 
d="M1284 223l111 -33v-137q-164 -69 -308 -69q-130 0 -175.5 55.5t-45.5 196.5q0 153 15 483h-246v-707q-171 -22 -365 -22l-47 55l74 516v158q-95 0 -213 -51l-80 125q36 60 72 101.5t88.5 77.5t126 54t168.5 18h907l45 -38l-22 -287h-105v-496z" />
    <glyph glyph-name="Wgrave" unicode="&#x1e80;" horiz-adv-x="2357" 
d="M2333 1225l-119 -49q-172 -586 -363 -1156l-376 -47l-70 21q-146 474 -211 721h-27q-140 -450 -223 -695l-377 -47l-69 21q-215 694 -351 1210l-122 21v137h684v-137l-80 -51q17 -72 62 -272t75 -327.5t57 -220.5h27q72 200 237 750l-28 96l-119 25v137h686v-137
l-131 -51q81 -305 236 -820h26q132 431 236 850l-135 21v137h475v-137zM1397 1460h-174l-332 234q42 128 104 176h269z" />
    <glyph glyph-name="wgrave" unicode="&#x1e81;" horiz-adv-x="1986" 
d="M1925 911l-104 -41q-105 -414 -244 -850l-307 -47l-68 21q-22 52 -42 105t-40 113.5t-33.5 101t-36 113.5t-32.5 105h-27q-9 -25 -34 -98.5t-37.5 -109t-34.5 -95t-42 -110t-42 -99.5l-309 -47l-68 21q-145 471 -248 899l-115 18v133h635v-133l-80 -49q51 -277 119 -536
h27q97 288 205 696l252 47l67 -20q130 -449 225 -723h25q57 250 96 567l-143 18v133h436v-133zM1239 1174h-152l-350 282q38 126 105 176h266z" />
    <glyph glyph-name="Wacute" unicode="&#x1e82;" horiz-adv-x="2357" 
d="M2333 1225l-119 -49q-172 -586 -363 -1156l-376 -47l-70 21q-146 474 -211 721h-27q-140 -450 -223 -695l-377 -47l-69 21q-215 694 -351 1210l-122 21v137h684v-137l-80 -51q17 -72 62 -272t75 -327.5t57 -220.5h27q72 200 237 750l-28 96l-119 25v137h686v-137
l-131 -51q81 -305 236 -820h26q132 431 236 850l-135 21v137h475v-137zM1397 1870h266q65 -50 106 -176l-372 -234h-174z" />
    <glyph glyph-name="wacute" unicode="&#x1e83;" horiz-adv-x="1986" 
d="M1925 911l-104 -41q-105 -414 -244 -850l-307 -47l-68 21q-22 52 -42 105t-40 113.5t-33.5 101t-36 113.5t-32.5 105h-27q-9 -25 -34 -98.5t-37.5 -109t-34.5 -95t-42 -110t-42 -99.5l-309 -47l-68 21q-145 471 -248 899l-115 18v133h635v-133l-80 -49q51 -277 119 -536
h27q97 288 205 696l252 47l67 -20q130 -449 225 -723h25q57 250 96 567l-143 18v133h436v-133zM1153 1632h268q66 -63 103 -176l-371 -282h-149z" />
    <glyph glyph-name="Wdieresis" unicode="&#x1e84;" horiz-adv-x="2357" 
d="M2333 1225l-119 -49q-172 -586 -363 -1156l-376 -47l-70 21q-146 474 -211 721h-27q-140 -450 -223 -695l-377 -47l-69 21q-215 694 -351 1210l-122 21v137h684v-137l-80 -51q17 -72 62 -272t75 -327.5t57 -220.5h27q72 200 237 750l-28 96l-119 25v137h686v-137
l-131 -51q81 -305 236 -820h26q132 431 236 850l-135 21v137h475v-137zM1018 1800q76 0 123 -16q33 -54 33 -135q0 -50 -15.5 -89t-52.5 -87h-266l-39 282q113 45 217 45zM1569 1800q74 0 123 -16q30 -53 30 -135q0 -51 -14 -90t-51 -86h-268l-39 282q119 45 219 45z" />
    <glyph glyph-name="wdieresis" unicode="&#x1e85;" horiz-adv-x="1986" 
d="M1925 911l-104 -41q-105 -414 -244 -850l-307 -47l-68 21q-22 52 -42 105t-40 113.5t-33.5 101t-36 113.5t-32.5 105h-27q-9 -25 -34 -98.5t-37.5 -109t-34.5 -95t-42 -110t-42 -99.5l-309 -47l-68 21q-145 471 -248 899l-115 18v133h635v-133l-80 -49q51 -277 119 -536
h27q97 288 205 696l252 47l67 -20q130 -449 225 -723h25q57 250 96 567l-143 18v133h436v-133zM907 1563q76 0 123 -17q35 -57 35 -135q0 -49 -15.5 -88t-52.5 -88h-268l-39 283q113 45 217 45zM1389 1563q75 0 122 -17q35 -53 35 -135q0 -50 -15.5 -88.5t-51.5 -87.5h-267
l-41 283q119 45 218 45z" />
    <glyph glyph-name="uni1E9E" unicode="&#x1e9e;" horiz-adv-x="1650" 
d="M889 1389q292 0 561 -68v-191q-152 -35 -218.5 -93t-66.5 -138q0 -22 3.5 -39t17 -35.5t22 -28.5t38.5 -31t44.5 -30.5t59.5 -38.5q47 -30 73.5 -48.5t63.5 -52t56 -65t33.5 -78.5t14.5 -102q0 -83 -30 -149t-79.5 -108t-116 -69.5t-134.5 -39t-141 -11.5q-190 0 -355 70
q-14 58 -14 137q0 93 29 182h190l37 -196q46 -8 74 -8q100 0 100 88q0 48 -34 79.5t-134 92.5q-115 70 -173 149t-58 191q0 163 118 264.5t322 138.5l2 25q-117 18 -225 18q-67 0 -117.5 -7t-101.5 -29.5t-84 -60.5t-53.5 -103.5t-20.5 -155.5v-848h-567v137l129 51v660
q0 114 35.5 204.5t99.5 153t156 104t202 60.5t242 19z" />
    <glyph glyph-name="Ygrave" unicode="&#x1ef2;" horiz-adv-x="1431" 
d="M1427 1225l-122 -49q-146 -327 -338 -703v-315l151 -21v-137h-751v137l151 51v261q-241 472 -373 755l-141 21v137h684v-137l-61 -39q99 -249 219 -498h26q117 246 224 516l-142 21v137h473v-137zM893 1460h-174l-332 234q42 127 105 176h268z" />
    <glyph glyph-name="ygrave" unicode="&#x1ef3;" horiz-adv-x="1218" 
d="M1214 911l-122 -49q-67 -212 -162.5 -473.5t-157.5 -392.5q-57 -120 -123.5 -207t-134 -134t-130 -68t-124.5 -21q-113 0 -176 82l10 166h426l15 22q-81 177 -202.5 484.5t-211.5 570.5l-117 20v133h604v-133l-45 -41q105 -362 170 -544h27q78 243 145 565l-127 20v133
h436v-133zM733 1174h-151l-351 282q38 126 105 176h266z" />
    <glyph glyph-name="uni2007" unicode="&#x2007;" horiz-adv-x="1361" 
 />
    <glyph glyph-name="uni2008" unicode="&#x2008;" horiz-adv-x="638" 
 />
    <glyph glyph-name="uni2009" unicode="&#x2009;" horiz-adv-x="358" 
 />
    <glyph glyph-name="uni200B" unicode="&#x200b;" horiz-adv-x="0" 
 />
    <glyph glyph-name="endash" unicode="&#x2013;" horiz-adv-x="1024" 
d="M958 514h-892v213h892v-213z" />
    <glyph glyph-name="emdash" unicode="&#x2014;" horiz-adv-x="2048" 
d="M1950 514h-1852v213h1852v-213z" />
    <glyph glyph-name="quoteleft" unicode="&#x2018;" horiz-adv-x="641" 
d="M518 1563l31 -109q-91 -46 -137.5 -90.5t-46.5 -112.5q0 -20 2 -32l135 -9l12 -315q-94 -25 -182 -25q-82 0 -164 21q-70 96 -70 229q0 176 110 292.5t310 150.5z" />
    <glyph glyph-name="quoteright" unicode="&#x2019;" horiz-adv-x="641" 
d="M309 1542q83 0 164 -20q70 -96 70 -228q0 -177 -110.5 -293.5t-311.5 -150.5l-29 108q90 47 136 91t46 112q0 21 -2 33l-133 8l-14 316q93 24 184 24z" />
    <glyph glyph-name="quotesinglbase" unicode="&#x201a;" horiz-adv-x="641" 
d="M309 348q83 0 164 -20q70 -96 70 -228q0 -177 -110.5 -293.5t-311.5 -150.5l-29 108q90 47 136 91t46 112q0 21 -2 33l-133 8l-14 316q93 24 184 24z" />
    <glyph glyph-name="quotedblleft" unicode="&#x201c;" horiz-adv-x="1179" 
d="M1057 1563l30 -109q-91 -46 -137.5 -90.5t-46.5 -112.5q0 -20 2 -32l135 -9l13 -315q-94 -25 -183 -25q-80 0 -163 21q-70 96 -70 229q0 176 110 292.5t310 150.5zM518 1563l31 -109q-91 -46 -137.5 -90.5t-46.5 -112.5q0 -20 2 -32l135 -9l12 -315q-94 -25 -182 -25
q-82 0 -164 21q-70 96 -70 229q0 176 110 292.5t310 150.5z" />
    <glyph glyph-name="quotedblright" unicode="&#x201d;" horiz-adv-x="1179" 
d="M848 1542q83 0 164 -20q69 -95 69 -228q0 -177 -110.5 -293.5t-311.5 -150.5l-28 108q90 47 136 91t46 112q0 21 -2 33l-133 8l-14 316q93 24 184 24zM309 1542q83 0 164 -20q70 -96 70 -228q0 -177 -110.5 -293.5t-311.5 -150.5l-29 108q90 47 136 91t46 112q0 21 -2 33
l-133 8l-14 316q93 24 184 24z" />
    <glyph glyph-name="quotedblbase" unicode="&#x201e;" horiz-adv-x="1179" 
d="M848 348q83 0 164 -20q69 -95 69 -228q0 -177 -110.5 -293.5t-311.5 -150.5l-28 108q90 47 136 91t46 112q0 21 -2 33l-133 8l-14 316q93 24 184 24zM309 348q83 0 164 -20q70 -96 70 -228q0 -177 -110.5 -293.5t-311.5 -150.5l-29 108q90 47 136 91t46 112q0 21 -2 33
l-133 8l-14 316q93 24 184 24z" />
    <glyph glyph-name="dagger" unicode="&#x2020;" horiz-adv-x="962" 
d="M354 1516h254q13 -44 13 -86q0 -108 -84 -267h-111q-82 155 -82 267q0 41 10 86zM125 1221q109 0 276 -82v-107q-167 -82 -276 -82q-37 0 -90 11v249q53 11 90 11zM838 1221q40 0 90 -11v-249q-50 -11 -90 -11q-110 0 -277 82v107q167 82 277 82zM426 1008h111
q48 -95 66 -157.5t18 -131.5q0 -34 -2.5 -68.5t-8.5 -73t-10.5 -65t-14.5 -69.5t-14 -59t-16 -62t-14 -52h-119q-1 5 -9.5 36.5t-11 41t-10 40.5t-10.5 45t-9.5 44t-9 48t-7 46.5t-6.5 50t-3.5 47.5t-1.5 50q0 70 17 133t65 156z" />
    <glyph glyph-name="daggerdbl" unicode="&#x2021;" horiz-adv-x="1003" 
d="M375 1516h254q12 -40 12 -86q0 -108 -84 -267h-111q-81 153 -81 267q0 41 10 86zM145 1221q110 0 277 -82v-107q-167 -82 -277 -82q-37 0 -90 11v249q53 11 90 11zM858 1221q40 0 90 -11v-249q-50 -11 -90 -11q-109 0 -276 82v107q167 82 276 82zM446 1008h111
q48 -81 66 -135.5t18 -114.5t-18 -114.5t-66 -135.5h-111q-48 80 -64.5 134t-16.5 116t16.5 116t64.5 134zM145 565q110 0 277 -82v-106q-167 -82 -277 -82q-42 0 -90 10v250q48 10 90 10zM858 565q45 0 90 -10v-250q-45 -10 -90 -10q-109 0 -276 82v106q167 82 276 82z
M446 352h111q84 -159 84 -266q0 -46 -12 -86h-254q-10 45 -10 86q0 113 81 266z" />
    <glyph glyph-name="bullet" unicode="&#x2022;" horiz-adv-x="954" 
d="M475 983q176 0 274.5 -97.5t98.5 -267.5t-98.5 -267t-274.5 -97q-174 0 -271.5 97t-97.5 267t97.5 267.5t271.5 97.5z" />
    <glyph glyph-name="ellipsis" unicode="&#x2026;" horiz-adv-x="1933" 
d="M1638 422q101 0 166 -21q33 -57 33 -165q0 -139 -68 -236h-337l-41 375q118 47 247 47zM344 422q101 0 166 -21q33 -57 33 -165q0 -139 -68 -236h-338l-41 375q118 47 248 47zM993 422q101 0 166 -21q33 -57 33 -165q0 -139 -68 -236h-338l-41 375q118 47 248 47z" />
    <glyph glyph-name="perthousand" unicode="&#x2030;" horiz-adv-x="2760" 
d="M2333 729q181 0 272.5 -97t91.5 -265q0 -190 -110 -292t-295 -102q-182 0 -273.5 96t-91.5 265q0 191 110 293t296 102zM2312 616q-22 0 -37.5 -6.5t-26 -22.5t-16.5 -34.5t-9 -53t-4 -66.5t-1 -85q0 -154 16 -208t78 -54t78 54t16 208q0 53 -1 85t-4 66.5t-9 53
t-16.5 34.5t-26 22.5t-37.5 6.5zM1417 1264l25 -52q-54 -80 -214 -306t-231 -333q-74 -112 -204.5 -338t-165.5 -284l-138 39l-26 53q54 79 198.5 284t215.5 312q75 115 230.5 378t170.5 288zM469 1266q181 0 273 -97.5t92 -265.5q0 -190 -110.5 -291.5t-295.5 -101.5
q-182 0 -273.5 96t-91.5 264q0 191 110 293.5t296 102.5zM449 1153q-22 0 -37.5 -6.5t-26 -22.5t-17 -35t-9.5 -52.5t-4 -66.5t-1 -85q0 -154 16.5 -208t78.5 -54t78 54t16 208q0 53 -1 85t-4 66.5t-9 53t-16.5 34.5t-26 22.5t-37.5 6.5zM1454 729q182 0 273.5 -97
t91.5 -265q0 -190 -111.5 -292t-296.5 -102q-182 0 -272 96t-90 265q0 191 109.5 293t295.5 102zM1454 616q-22 0 -37.5 -6.5t-26 -22.5t-16.5 -34.5t-9 -53t-4 -66.5t-1 -85q0 -154 16 -208t78 -54t78 54t16 208q0 53 -1 85t-4 66.5t-9 53t-16.5 34.5t-26 22.5t-37.5 6.5z
" />
    <glyph glyph-name="minute" unicode="&#x2032;" horiz-adv-x="575" 
d="M516 1473l-201 -566h-256l45 594q116 26 184 33.5t171 7.5z" />
    <glyph glyph-name="second" unicode="&#x2033;" horiz-adv-x="1093" 
d="M516 1473l-201 -566h-256l45 594q116 26 184 33.5t171 7.5zM1034 1473l-200 -566h-256l45 594q116 26 183.5 33.5t170.5 7.5z" />
    <glyph glyph-name="uni2034" unicode="&#x2034;" horiz-adv-x="1650" 
d="M516 1473l-201 -566h-256l45 594q116 26 184 33.5t171 7.5zM1053 1473l-201 -566h-256l45 594q116 26 183.5 33.5t170.5 7.5zM1591 1473l-200 -566h-256l45 594q116 26 183.5 33.5t170.5 7.5z" />
    <glyph glyph-name="guilsinglleft" unicode="&#x2039;" horiz-adv-x="733" 
d="M612 877l-145 -328l145 -328l-159 -100l-373 362v131l373 363z" />
    <glyph glyph-name="guilsinglright" unicode="&#x203a;" horiz-adv-x="733" 
d="M653 614v-131l-370 -362l-162 100l147 328l-147 328l162 100z" />
    <glyph glyph-name="fraction" unicode="&#x2044;" horiz-adv-x="561" 
d="M766 1368l25 -51q-225 -331 -449 -670q-73 -111 -221.5 -371t-188.5 -325l-137 39l-26 53q342 504 452 670q72 109 217 366t189 330z" />
    <glyph glyph-name="uni2070" unicode="&#x2070;" horiz-adv-x="845" 
d="M444 1501q174 0 259 -92t85 -254q0 -188 -104 -287.5t-283 -99.5q-174 0 -259 93t-85 257q0 187 103.5 285t283.5 98zM424 1389q-18 0 -30 -5.5t-20.5 -20t-13.5 -32t-7.5 -49.5t-3.5 -63.5t-1 -81.5q0 -51 1 -83t3.5 -64t7.5 -50t13.5 -32.5t20.5 -20.5t30 -6
q48 0 62 54.5t14 201.5q0 145 -14 198.5t-62 53.5z" />
    <glyph glyph-name="uni2074" unicode="&#x2074;" horiz-adv-x="729" 
d="M711 895h-84v-109h-258v109h-342l-9 102q87 251 154 521l227 -45l19 -48q-75 -161 -213 -383l6 -22q60 16 147 16h11v185l192 61l66 -12v-234h84v-141z" />
    <glyph glyph-name="uni2075" unicode="&#x2075;" horiz-adv-x="702" 
d="M604 1503l19 -80q-64 -131 -220 -131q-101 0 -190 39l-14 -129q102 31 182 31q69 1 130.5 -20t106 -72.5t44.5 -126.5q0 -113 -98 -178.5t-267 -65.5q-121 0 -185.5 36.5t-64.5 108.5q0 67 49 99h170l17 -129q14 -2 32 -2q62 0 62 88q0 68 -44.5 96.5t-160.5 28.5h-84
l14 387l123 18q75 -28 178 -28q104 0 201 30z" />
    <glyph glyph-name="uni2076" unicode="&#x2076;" horiz-adv-x="823" 
d="M549 1251q109 0 167 -54t58 -159q0 -131 -89.5 -200.5t-256.5 -69.5q-371 0 -371 346q0 188 112.5 287.5t334.5 99.5q79 0 147 -20v-101q-85 0 -155 -21.5t-118 -73t-48 -126.5h20q58 92 199 92zM414 883q43 0 59 26.5t16 77.5q0 41 -13 62.5t-50 21.5q-38 0 -84 -27
q0 -93 15 -127t57 -34z" />
    <glyph glyph-name="uni2077" unicode="&#x2077;" horiz-adv-x="679" 
d="M670 1475l6 -111q-105 -115 -166.5 -203.5t-87.5 -177.5l22 -188l-188 -37q-48 13 -83.5 57.5t-35.5 104.5q0 49 25.5 96.5t80 97.5t111 91.5t146.5 99.5l-8 20l-293 -22l-23 -115h-129q-12 49 -12 129q0 100 20 158h615z" />
    <glyph glyph-name="uni2078" unicode="&#x2078;" horiz-adv-x="786" 
d="M557 1200l-2 -20q91 -40 131.5 -82.5t40.5 -114.5q0 -215 -342 -215q-326 0 -326 188q0 68 39 105.5t109 56.5v21q-131 56 -131 168q0 101 92 147.5t246 46.5q297 0 297 -166q0 -65 -40 -92.5t-114 -42.5zM414 1405q-64 0 -64 -70q0 -29 15 -46.5t61 -31.5l25 -8
q20 40 20 86q0 36 -12.5 53t-44.5 17zM375 866q80 0 80 88q0 40 -18.5 58t-76.5 37l-47 16q-18 -52 -18 -107q0 -45 17 -68.5t63 -23.5z" />
    <glyph glyph-name="uni2079" unicode="&#x2079;" horiz-adv-x="823" 
d="M393 1501q373 0 373 -346q0 -188 -111.5 -287.5t-330.5 -99.5q-21 0 -40.5 1t-32.5 2.5t-29.5 4.5t-23.5 5t-24.5 6.5t-23.5 5.5v100q156 0 250 52.5t94 164.5h-21q-58 -92 -199 -92q-109 0 -167 54t-58 159q0 131 88.5 200.5t255.5 69.5zM397 1184q37 0 84 26
q0 93 -15.5 127.5t-57.5 34.5q-41 0 -57.5 -27t-16.5 -77q0 -41 13 -62.5t50 -21.5z" />
    <glyph glyph-name="uni2080" unicode="&#x2080;" horiz-adv-x="845" 
d="M444 559q174 0 259 -92t85 -254q0 -188 -104 -287.5t-283 -99.5q-174 0 -259 93t-85 257q0 187 103.5 285t283.5 98zM424 446q-18 0 -30 -5.5t-20.5 -20t-13.5 -32t-7.5 -49t-3.5 -63t-1 -81.5q0 -51 1 -83t3.5 -64t7.5 -50t13.5 -32.5t20.5 -20.5t30 -6q48 0 62 54.5
t14 201.5q0 145 -14 198t-62 53z" />
    <glyph glyph-name="uni2081" unicode="&#x2081;" horiz-adv-x="536" 
d="M518 -47v-96h-483v96l117 29v360q-39 -2 -117 -2v127q59 3 129 31.5t106 72.5l138 -10v-598z" />
    <glyph glyph-name="uni2082" unicode="&#x2082;" horiz-adv-x="706" 
d="M537 102h120q15 -47 15 -102q0 -86 -23 -143h-612l-6 116q336 213 336 410q0 38 -16.5 57t-59.5 19q-23 0 -33 -2l-20 -178h-168q-50 35 -50 104q0 85 89 136.5t237 51.5t227.5 -52.5t79.5 -147.5q0 -45 -20 -85.5t-54 -75t-92 -71t-120 -68t-152 -71.5l8 -20
q129 35 193 45l108 14z" />
    <glyph glyph-name="uni2083" unicode="&#x2083;" horiz-adv-x="741" 
d="M346 571q309 0 309 -188q0 -41 -13.5 -69t-41.5 -45t-56.5 -25.5t-72.5 -16.5v-20q213 -20 213 -172q0 -101 -91.5 -149t-256.5 -48q-148 0 -228.5 38t-80.5 112q0 56 43 102h166l16 -135q24 -4 53 -4q48 0 71 19t23 81q0 57 -28.5 78t-114.5 21h-23v114h82q56 41 56 119
q0 41 -14.5 58.5t-49.5 17.5q-27 0 -41 -2l-16 -135h-166q-22 23 -32.5 43t-10.5 49q0 79 81 118t224 39z" />
    <glyph glyph-name="uni2084" unicode="&#x2084;" horiz-adv-x="729" 
d="M711 -47h-84v-109h-258v109h-342l-9 102q88 254 154 520l227 -45l19 -47q-75 -161 -213 -383l6 -22q60 16 147 16h11v185l192 61l66 -12v-234h84v-141z" />
    <glyph glyph-name="uni2085" unicode="&#x2085;" horiz-adv-x="702" 
d="M604 561l19 -80q-64 -131 -220 -131q-101 0 -190 39l-14 -129q102 31 182 31q69 1 130.5 -20t106 -72.5t44.5 -126.5q0 -113 -98 -178.5t-267 -65.5q-121 0 -185.5 36.5t-64.5 108.5q0 67 49 99h170l17 -129q14 -2 32 -2q62 0 62 88q0 68 -44.5 96.5t-160.5 28.5h-84
l14 387l123 18q78 -29 178 -29q101 0 201 31z" />
    <glyph glyph-name="uni2086" unicode="&#x2086;" horiz-adv-x="823" 
d="M549 309q109 0 167 -54t58 -159q0 -131 -89.5 -200.5t-256.5 -69.5q-371 0 -371 346q0 188 112.5 287.5t334.5 99.5q79 0 147 -20v-101q-85 0 -155 -21.5t-118 -73t-48 -126.5h20q58 92 199 92zM414 -59q43 0 59 26.5t16 77.5q0 41 -13 62.5t-50 21.5q-38 0 -84 -27
q0 -93 15 -127t57 -34z" />
    <glyph glyph-name="uni2087" unicode="&#x2087;" horiz-adv-x="679" 
d="M670 532l6 -110q-105 -115 -166.5 -203.5t-87.5 -177.5l22 -188l-188 -37q-48 13 -83.5 57t-35.5 104q0 49 25.5 96.5t80 97.5t111 91.5t146.5 99.5l-8 21l-293 -23l-23 -114h-129q-12 49 -12 129q0 99 20 157h615z" />
    <glyph glyph-name="uni2088" unicode="&#x2088;" horiz-adv-x="786" 
d="M557 260l-2 -20q91 -40 131.5 -82.5t40.5 -114.5q0 -215 -342 -215q-326 0 -326 188q0 68 39 105.5t109 56.5v21q-131 56 -131 168q0 101 92 147.5t246 46.5q297 0 297 -166q0 -65 -40 -92.5t-114 -42.5zM414 465q-64 0 -64 -70q0 -29 15 -46.5t61 -31.5l25 -8
q20 40 20 86q0 36 -12.5 53t-44.5 17zM375 -74q80 0 80 88q0 40 -18.5 58t-76.5 37l-47 16q-18 -53 -18 -107q0 -45 17 -68.5t63 -23.5z" />
    <glyph glyph-name="uni2089" unicode="&#x2089;" horiz-adv-x="823" 
d="M393 561q373 0 373 -346q0 -188 -111.5 -287.5t-330.5 -99.5q-21 0 -40.5 1t-32.5 2.5t-29.5 4.5t-23.5 5t-24.5 6.5t-23.5 5.5v100q156 0 250 52.5t94 164.5h-21q-58 -92 -199 -92q-109 0 -167 54t-58 159q0 131 88.5 200.5t255.5 69.5zM397 244q37 0 84 26
q0 93 -15.5 127.5t-57.5 34.5q-41 0 -57.5 -27t-16.5 -77q0 -41 13 -62.5t50 -21.5z" />
    <glyph glyph-name="Euro" unicode="&#x20ac;" horiz-adv-x="1302" 
d="M1219 270l26 -118q-179 -179 -475 -179q-235 0 -381 109.5t-194 312.5h-150v150h131l-2 51q0 28 4 86h-133v149h160q58 214 224 324.5t400 110.5q184 0 295 -65.5t111 -188.5q0 -100 -86 -156h-244l-31 262q-46 4 -57 4q-171 0 -203 -291h258v-149h-266v-8q0 -51 4 -129
h262v-150h-235q33 -106 97 -143t169 -37q148 0 316 55z" />
    <glyph glyph-name="uni20B9" unicode="&#x20b9;" horiz-adv-x="1071" 
d="M723 1069l-2 -25q111 -23 162 -92h143v-170h-104q-3 -142 -87 -204t-280 -86v-27q60 -25 116 -65t121.5 -96.5t100.5 -82.5l86 -43v-135q-37 -22 -65 -34.5t-84.5 -24t-127.5 -11.5q-108 0 -180 22.5t-131 67.5q-30 24 -62 57t-70 80.5t-63 80.5t-71.5 96.5t-65.5 89.5
l23 121h295q69 96 84 194h-416v170h408q-17 68 -78 117h-330v170h981v-170h-303z" />
    <glyph glyph-name="uni20BA" unicode="&#x20ba;" horiz-adv-x="1247" 
d="M950 541l254 10q29 -102 29 -168q0 -85 -27.5 -155t-88.5 -129t-171 -92.5t-262 -33.5q-117 0 -258 18.5t-240 43.5v377l-104 -35l-27 37v135l131 43v137l-104 -35l-27 37v135l131 43v312q171 45 379 45l49 -56v-163l342 110l27 -37v-131l-369 -121v-139l342 111l27 -37
v-131l-369 -121v-414h68q61 0 109 21t77.5 54.5t48.5 79.5t26 92t7 97v60z" />
    <glyph glyph-name="uni20BD" unicode="&#x20bd;" horiz-adv-x="1376" 
d="M662 573v-137h464v-170h-464v-108l172 -21v-137h-748v137l127 39v90h-158v170h158v137h-158v170h158v349l-129 20v127q110 10 311.5 16.5t317.5 6.5q325 0 467.5 -74.5t142.5 -261.5q0 -179 -123 -266t-375 -87h-163zM662 743h69q160 0 160 185q0 87 -39 127.5t-121 40.5
h-69v-353z" />
    <glyph glyph-name="afii61289" unicode="&#x2113;" horiz-adv-x="921" 
d="M848 254l45 -111q-147 -170 -408 -170q-316 0 -372 250q-55 -10 -99 -10l-10 156q46 6 100 18v614q0 128 20 222t68.5 168.5t136 112.5t214.5 38q172 0 241.5 -78t69.5 -264q0 -105 -19.5 -216.5t-60 -227t-112 -223.5t-166.5 -187v-8q0 -91 29 -131.5t93 -40.5
q52 0 105.5 22.5t124.5 65.5zM571 1389q-41 0 -58 -41.5t-17 -157.5v-629q85 111 118 271t33 366q0 106 -14 148.5t-62 42.5z" />
    <glyph glyph-name="afii61352" unicode="&#x2116;" horiz-adv-x="2486" 
d="M1520 1446q57 0 95.5 -10t78.5 -33v-164l-262 -68q-18 -77 -27 -180.5t-10.5 -169t-1.5 -176.5q0 -143 20 -625l-389 -45l-72 21l-344 614q-90 170 -155 365h-27q80 -476 80 -656q0 -92 -27 -161.5t-73 -108.5t-102 -57.5t-120 -18.5q-120 0 -180 82l23 166h211
q26 84 26 277q0 245 -26 583l-132 21v137h695l250 -471q57 -114 149 -377h27q-53 368 -53 602q0 131 24.5 222t72.5 140.5t108 70t141 20.5zM2044 1204q192 0 284.5 -94.5t92.5 -253.5q0 -182 -115 -283.5t-311 -101.5q-191 0 -284 95t-93 253q0 184 115.5 284.5
t310.5 100.5zM2019 1085q-46 0 -60.5 -50t-14.5 -195q0 -147 14.5 -198.5t60.5 -51.5q48 0 63 51.5t15 198.5q0 145 -15 195t-63 50zM2279 117h-520v213h520v-213z" />
    <glyph glyph-name="uni2117" unicode="&#x2117;" horiz-adv-x="1697" 
d="M862 1389q226 0 400.5 -86.5t271 -245t96.5 -365.5q0 -215 -104 -380t-284 -252t-406 -87q-169 0 -312.5 51.5t-243.5 143t-156 222.5t-56 286q0 162 60.5 296.5t166.5 225.5t252 141t315 50zM844 137q245 0 397 145.5t152 405.5q0 254 -147 395.5t-390 141.5
q-246 0 -398.5 -143t-152.5 -402q0 -255 147.5 -399t391.5 -144zM881 1083q201 0 297 -66t96 -210q0 -120 -65.5 -189t-204.5 -69q-64 0 -117 12v90h12q76 0 76 168q0 89 -23 124.5t-82 35.5h-30v-596l90 -12v-84h-430v80l82 28v578l-82 12v80q211 18 381 18z" />
    <glyph glyph-name="trademark" unicode="&#x2122;" horiz-adv-x="2136" 
d="M12 1364h828q6 -40 6 -102q0 -81 -17 -164h-131l-39 151l-84 4v-565l93 -12v-94h-486v94l92 31v546l-86 -4l-36 -151h-132q-16 98 -16 166q0 64 8 100zM2118 672v-90h-445v90l70 28v529h-21q-5 -28 -41 -185l-120 -415l-203 -27l-64 14l-127 420q-10 34 -18 68t-16 72.5
t-11 52.5h-20q1 -103 -0.5 -294t-1.5 -253l92 -10v-90h-320v90l91 33q6 265 22 557l-88 14v88h471q83 -290 127 -485h21q43 193 126 485h455v-88l-84 -31q22 -337 27 -563z" />
    <glyph glyph-name="Omega" unicode="&#x2126;" horiz-adv-x="1703" 
d="M1462 457l213 -13q15 -88 15 -161q0 -135 -31 -283h-719v444q170 100 170 398q0 182 -61.5 267t-194.5 85q-132 0 -195 -83t-63 -259q0 -150 43 -263t127 -145v-444h-721q-31 148 -31 283q0 73 15 161l213 13l57 -164l279 -33v107q-482 111 -482 481q0 173 104.5 296.5
t282.5 184t410 60.5q349 0 532 -136.5t183 -375.5q0 -92 -27.5 -171t-73 -136t-109 -102.5t-129.5 -74t-141 -47.5v-86l277 33z" />
    <glyph glyph-name="estimated" unicode="&#x212e;" horiz-adv-x="1286" 
d="M270 506v-262q65 -92 170 -140.5t232 -48.5q253 0 444 191l37 -56q-86 -103 -210.5 -160t-272.5 -57q-129 0 -243.5 44t-195.5 118.5t-128.5 178t-47.5 218.5q0 153 79 282t215 203.5t296 74.5q159 0 294 -74t213.5 -202.5t78.5 -280.5v-29h-961zM645 1012
q-109 0 -208.5 -48t-166.5 -139v-245h746v245q-68 92 -164.5 139.5t-206.5 47.5z" />
    <glyph glyph-name="uni2150" unicode="&#x2150;" horiz-adv-x="2009" 
d="M639 639v-113h-600v113l145 35v440q-90 -4 -145 -4v152q73 3 161 38t134 89l168 -13v-723zM1425 1368l25 -51q-225 -331 -449 -670q-73 -110 -220.5 -369.5t-188.5 -326.5l-137 39l-27 53q381 561 453 670t216 365.5t189 330.5zM1993 836l12 -129q-227 -248 -301 -474
l31 -227l-211 -47q-88 18 -130 71t-42 122q0 60 31 118t95 116.5t137.5 110t182.5 117.5l-8 21l-350 -19l-21 -137l-153 8q-17 81 -17 160q0 116 27 189h717z" />
    <glyph glyph-name="uni2151" unicode="&#x2151;" horiz-adv-x="2109" 
d="M639 639v-113h-600v113l145 35v440q-90 -4 -145 -4v152q73 3 161 38t134 89l168 -13v-723zM1425 1368l25 -51q-225 -331 -449 -670q-73 -110 -220.5 -369.5t-188.5 -326.5l-137 39l-27 53q381 561 453 670t216 365.5t189 330.5zM1616 862q430 0 430 -411
q0 -234 -138 -356t-401 -122q-90 0 -184 25v117q382 0 385 270h-27q-37 -56 -85.5 -82.5t-127.5 -26.5q-141 0 -207.5 73t-66.5 188q0 152 110.5 238.5t311.5 86.5zM1610 469q40 0 84 33v24q0 105 -16 144t-60 39q-40 0 -56 -28.5t-16 -92.5q0 -71 15.5 -95t48.5 -24z" />
    <glyph glyph-name="uni2152" unicode="&#x2152;" horiz-adv-x="2869" 
d="M639 639v-113h-600v113l145 35v440q-90 -4 -145 -4v152q73 3 161 38t134 89l168 -13v-723zM1425 1368l25 -51q-225 -331 -449 -670q-73 -110 -220.5 -369.5t-188.5 -326.5l-137 39l-27 53q381 561 453 670t216 365.5t189 330.5zM2402 862q201 0 302.5 -112t101.5 -308
q0 -227 -125.5 -348t-331.5 -121q-202 0 -303.5 113.5t-101.5 310.5q0 226 125.5 345.5t332.5 119.5zM2376 729q-18 0 -29.5 -4.5t-20.5 -19t-13.5 -34t-7.5 -57.5t-4 -81t-1 -113t1 -114t4 -82.5t7.5 -58.5t13.5 -35t20.5 -19.5t29.5 -4.5q17 0 28.5 4.5t20 19.5t13 35
t7 59t3.5 82t1 114q0 70 -1 113t-3.5 81.5t-7 57.5t-13 33.5t-20 19t-28.5 4.5zM1860 113v-113h-600v113l145 34v441q-90 -4 -145 -4v151q72 3 160 38t134 89l168 -12v-723z" />
    <glyph glyph-name="onethird" unicode="&#x2153;" horiz-adv-x="2084" 
d="M639 639v-113h-600v113l145 35v440q-90 -4 -145 -4v152q73 3 161 38t134 89l168 -13v-723zM1425 1368l25 -51q-225 -331 -449 -670q-73 -110 -220.5 -369.5t-188.5 -326.5l-137 39l-27 53q381 561 453 670t216 365.5t189 330.5zM1780 436v-24q114 -13 177.5 -62.5
t63.5 -138.5q0 -119 -115 -178.5t-309 -59.5q-171 0 -269.5 46.5t-98.5 136.5q0 70 53 123h203l20 -168q50 -5 54 -5q60 0 85 25.5t25 89.5q0 68 -33.5 95.5t-124.5 27.5h-26v137h71q42 39 60 70t18 84q0 52 -18.5 72t-59.5 20q-22 0 -32 -2l-21 -168h-203q-55 51 -55 111
q0 95 101.5 143.5t275.5 48.5q365 0 365 -227q0 -86 -51.5 -130.5t-155.5 -66.5z" />
    <glyph glyph-name="twothirds" unicode="&#x2154;" horiz-adv-x="2273" 
d="M645 829l148 -6q16 -49 16 -116q0 -108 -25 -181h-741l-8 144q23 18 68 50.5t71 52t65 52t62.5 56.5t51.5 58t43 65t25.5 69t10.5 78q0 59 -20.5 81.5t-59.5 22.5q-5 0 -17 -1t-18 -1l-28 -221h-205q-61 43 -61 125q0 103 111 167.5t286 64.5q172 0 269 -64.5t97 -177.5
q0 -39 -13 -75t-34 -66t-60 -62t-76.5 -57t-99 -58t-113 -58t-132.5 -62l8 -21q131 33 228 43l133 12zM1614 1368l24 -51q-186 -274 -448 -670q-73 -111 -221.5 -371t-188.5 -325l-137 39l-27 53q381 561 453 670t217 366t189 330zM1968 436v-24q114 -13 178 -62.5
t64 -138.5q0 -119 -115 -178.5t-309 -59.5q-171 0 -270 46.5t-99 136.5q0 70 53 123h203l21 -168q50 -5 53 -5q61 0 86 25.5t25 89.5q0 68 -33.5 95.5t-124.5 27.5h-27v137h72q42 39 60 70t18 84q0 52 -18.5 72t-59.5 20q-23 0 -33 -2l-20 -168h-203q-55 51 -55 111
q0 95 101 143.5t275 48.5q365 0 365 -227q0 -86 -51.5 -130.5t-155.5 -66.5z" />
    <glyph glyph-name="uni2155" unicode="&#x2155;" horiz-adv-x="2002" 
d="M639 639v-113h-600v113l145 35v440q-90 -4 -145 -4v152q73 3 161 38t134 89l168 -13v-723zM1425 1368l25 -51q-225 -331 -449 -670q-73 -110 -220.5 -369.5t-188.5 -326.5l-137 39l-27 53q381 561 453 670t216 365.5t189 330.5zM1608 539q157 0 252.5 -70t95.5 -199
q0 -141 -120 -219t-329 -78q-315 0 -315 177q0 80 61 118h209l19 -159q5 0 13.5 -1.5t21.5 -1.5q46 0 68 18.5t22 74.5q0 80 -50.5 118t-169.5 45l-131 9l19 469l164 22q113 -37 198 -37q119 0 246 39l29 -96q-73 -143 -273 -143q-113 0 -225 41l-20 -162q110 35 215 35z
" />
    <glyph glyph-name="uni2156" unicode="&#x2156;" horiz-adv-x="2191" 
d="M645 829l148 -6q16 -49 16 -116q0 -108 -25 -181h-741l-8 144q23 18 68 50.5t71 52t65 52t62.5 56.5t51.5 58t43 65t25.5 69t10.5 78q0 59 -20.5 81.5t-59.5 22.5q-5 0 -17 -1t-18 -1l-28 -221h-205q-61 43 -61 125q0 103 111 167.5t286 64.5q172 0 269 -64.5t97 -177.5
q0 -39 -13 -75t-34 -66t-60 -62t-76.5 -57t-99 -58t-113 -58t-132.5 -62l8 -21q131 33 228 43l133 12zM1614 1368l24 -51q-186 -274 -448 -670q-73 -111 -221.5 -371t-188.5 -325l-137 39l-27 53q381 561 453 670t217 366t189 330zM1796 539q157 0 252.5 -70t95.5 -199
q0 -141 -119.5 -219t-328.5 -78q-316 0 -316 177q0 79 62 118h209l18 -159q5 0 13.5 -1.5t21.5 -1.5q46 0 68 18.5t22 74.5q0 80 -50 118t-169 45l-131 9l18 469l164 22q113 -37 199 -37q119 0 246 39l28 -96q-73 -143 -272 -143q-113 0 -225 41l-21 -162q110 35 215 35z
" />
    <glyph glyph-name="uni2157" unicode="&#x2157;" horiz-adv-x="2174" 
d="M580 963v-25q114 -13 177.5 -62.5t63.5 -138.5q0 -80 -55 -134t-148.5 -78.5t-220.5 -24.5q-171 0 -269.5 46t-98.5 136q0 70 53 123h203l20 -168q40 -4 53 -4q61 0 86 25.5t25 89.5q0 68 -33 95t-125 27h-26v138h71q42 39 60 70t18 83t-18.5 72t-59.5 20q-22 0 -32 -2
l-21 -168h-203q-55 51 -55 111q0 95 101.5 143.5t275.5 48.5q364 0 364 -227q0 -86 -51 -130t-155 -66zM1597 1368l25 -51q-186 -274 -448 -670q-73 -111 -221.5 -371t-188.5 -325l-137 39l-27 53q381 561 453 670t216 365.5t189 330.5zM1780 539q157 0 252.5 -70t95.5 -199
q0 -141 -120 -219t-329 -78q-315 0 -315 177q0 80 61 118h209l19 -159q5 0 13.5 -1.5t21.5 -1.5q46 0 68 18.5t22 74.5q0 80 -50 118t-169 45l-132 9l19 469l164 22q113 -37 198 -37q119 0 246 39l29 -96q-73 -143 -273 -143q-113 0 -225 41l-20 -162q110 35 215 35z" />
    <glyph glyph-name="uni2158" unicode="&#x2158;" horiz-adv-x="2207" 
d="M856 637h-94v-111h-318v111h-415l-9 129q127 323 209 637l287 -51l12 -64q-142 -262 -282 -473l6 -22q137 20 184 20h8v203l238 76l80 -19v-260h94v-176zM1630 1368l25 -51q-225 -331 -449 -670q-73 -110 -220.5 -369.5t-188.5 -326.5l-138 39l-26 53q342 504 452 670
q72 109 217 366t189 330zM1812 539q157 0 253 -70t96 -199q0 -141 -120 -219t-329 -78q-315 0 -315 177q0 80 61 118h209l19 -159q5 0 13 -1.5t21 -1.5q46 0 68 18.5t22 74.5q0 80 -50 118t-169 45l-131 9l19 469l163 22q113 -37 199 -37q119 0 246 39l29 -96
q-73 -143 -273 -143q-113 0 -225 41l-21 -162q110 35 215 35z" />
    <glyph glyph-name="uni2159" unicode="&#x2159;" horiz-adv-x="2048" 
d="M639 639v-113h-600v113l145 35v440q-90 -4 -145 -4v152q73 3 161 38t134 89l168 -13v-723zM1425 1368l25 -51q-225 -331 -449 -670q-73 -110 -220.5 -369.5t-188.5 -326.5l-137 39l-27 53q381 561 453 670t216 365.5t189 330.5zM1718 559q140 0 207.5 -72.5t67.5 -187.5
q0 -152 -111.5 -239t-312.5 -87q-428 0 -428 412q0 235 137 356t401 121q95 0 185 -24v-117q-382 0 -385 -270h24q39 57 87 82.5t128 25.5zM1567 109q40 0 56.5 28.5t16.5 93.5q0 69 -16 93t-47 24q-40 0 -84 -33v-24q0 -104 15.5 -143t58.5 -39z" />
    <glyph glyph-name="uni215A" unicode="&#x215a;" horiz-adv-x="2189" 
d="M467 1065q157 0 252.5 -69.5t95.5 -198.5q0 -141 -119.5 -219t-328.5 -78q-316 0 -316 176q0 80 62 119h209l18 -160q5 0 13.5 -1t21.5 -1q46 0 68 18t22 74q0 80 -50 118.5t-169 45.5l-131 8l18 469l164 23q113 -37 199 -37q118 0 245 39l29 -97q-73 -143 -272 -143
q-114 0 -226 41l-20 -162q110 35 215 35zM1567 1368l24 -51q-186 -274 -448 -670q-73 -111 -221.5 -371t-188.5 -325l-137 39l-27 53q381 561 453 670t216 365.5t189 330.5zM1860 559q139 0 206.5 -72.5t67.5 -187.5q0 -152 -111.5 -239t-312.5 -87q-428 0 -428 412
q0 234 137.5 355.5t401.5 121.5q94 0 184 -24v-117q-382 0 -385 -270h25q39 57 87 82.5t128 25.5zM1708 109q40 0 57 29t17 93q0 69 -16 93t-48 24q-40 0 -84 -33v-24q0 -104 15.5 -143t58.5 -39z" />
    <glyph glyph-name="oneeighth" unicode="&#x215b;" horiz-adv-x="2088" 
d="M639 639v-113h-600v113l145 35v440q-90 -4 -145 -4v152q73 3 161 38t134 89l168 -13v-723zM1425 1368l25 -51q-225 -331 -449 -670q-73 -110 -220.5 -369.5t-188.5 -326.5l-137 39l-27 53q381 561 453 670t216 365.5t189 330.5zM1821 492v-25q107 -49 153.5 -97
t46.5 -134q0 -136 -110 -199.5t-307 -63.5q-199 0 -298.5 61t-99.5 173q0 80 45.5 122t126.5 66v25h2q-151 78 -151 209q0 64 31.5 111t89.5 72.5t127.5 37.5t156.5 12q365 0 365 -200q0 -42 -15.5 -73t-44 -49.5t-55.5 -29t-63 -18.5zM1640 739q-30 0 -54.5 -17t-24.5 -58
q0 -34 21.5 -56.5t72.5 -42.5l33 -14q22 45 22 96q0 44 -18 68t-52 24zM1585 98q46 0 74.5 27.5t28.5 73.5q0 43 -27.5 67.5t-87.5 44.5l-55 21q-23 -67 -23 -117q0 -117 90 -117z" />
    <glyph glyph-name="threeeighths" unicode="&#x215c;" horiz-adv-x="2260" 
d="M580 963v-25q114 -13 177.5 -62.5t63.5 -138.5q0 -80 -55 -134t-148.5 -78.5t-220.5 -24.5q-171 0 -269.5 46t-98.5 136q0 70 53 123h203l20 -168q40 -4 53 -4q61 0 86 25.5t25 89.5q0 68 -33 95t-125 27h-26v138h71q42 39 60 70t18 83t-18.5 72t-59.5 20q-22 0 -32 -2
l-21 -168h-203q-55 51 -55 111q0 95 101.5 143.5t275.5 48.5q364 0 364 -227q0 -86 -51 -130t-155 -66zM1597 1368l25 -51q-186 -274 -448 -670q-73 -111 -221.5 -371t-188.5 -325l-137 39l-27 53q381 561 453 670t216 365.5t189 330.5zM1993 492v-25q107 -49 153.5 -97
t46.5 -134q0 -136 -110 -199.5t-307 -63.5q-199 0 -298.5 61t-99.5 173q0 80 45.5 122t126.5 66v25h2q-151 78 -151 209q0 64 31.5 111t89.5 72.5t127.5 37.5t156.5 12q365 0 365 -200q0 -42 -15.5 -73t-44 -49.5t-55.5 -29t-63 -18.5zM1812 739q-30 0 -54.5 -17t-24.5 -58
q0 -34 21.5 -56.5t72.5 -42.5l33 -14q22 45 22 96q0 44 -18 68t-52 24zM1757 98q46 0 74.5 27.5t28.5 73.5q0 43 -27.5 67.5t-87.5 44.5l-55 21q-23 -67 -23 -117q0 -117 90 -117z" />
    <glyph glyph-name="fiveeighths" unicode="&#x215d;" horiz-adv-x="2230" 
d="M467 1065q157 0 252.5 -69.5t95.5 -198.5q0 -141 -119.5 -219t-328.5 -78q-316 0 -316 176q0 80 62 119h209l18 -160q5 0 13.5 -1t21.5 -1q46 0 68 18t22 74q0 80 -50 118.5t-169 45.5l-131 8l18 469l164 23q113 -37 199 -37q118 0 245 39l29 -97q-73 -143 -272 -143
q-114 0 -226 41l-20 -162q110 35 215 35zM1567 1368l24 -51q-186 -274 -448 -670q-73 -111 -221.5 -371t-188.5 -325l-137 39l-27 53q381 561 453 670t216 365.5t189 330.5zM1962 492v-25q108 -49 154.5 -97t46.5 -134q0 -136 -110.5 -199.5t-307.5 -63.5q-199 0 -298 60.5
t-99 173.5q0 80 45.5 122t126.5 66v25h2q-152 79 -152 209q0 64 32 111t89.5 72.5t127.5 37.5t157 12q364 0 364 -200q0 -42 -15.5 -73t-44 -49.5t-55.5 -29t-63 -18.5zM1782 739q-30 0 -55 -17t-25 -58q0 -34 21.5 -56.5t72.5 -42.5l33 -14q22 45 22 96q0 92 -69 92z
M1726 98q46 0 74.5 27.5t28.5 73.5q0 43 -27.5 67.5t-87.5 44.5l-55 21q-23 -67 -23 -117q0 -117 90 -117z" />
    <glyph glyph-name="seveneighths" unicode="&#x215e;" horiz-adv-x="2013" 
d="M772 1362l12 -129q-228 -249 -301 -473l31 -228l-211 -47q-88 18 -130 71t-42 122q0 60 31 118.5t95 117t138 110t183 117.5l-9 20l-350 -18l-20 -137l-154 8q-16 76 -16 160q0 118 26 188h717zM1350 1368l24 -51q-186 -274 -448 -670q-73 -111 -221.5 -371t-188.5 -325
l-137 39l-27 53q381 561 453 670t216 365.5t189 330.5zM1745 492v-25q108 -49 154.5 -97t46.5 -134q0 -136 -110.5 -199.5t-307.5 -63.5q-199 0 -298.5 61t-99.5 173q0 80 46 122t127 66v25h2q-152 79 -152 209q0 64 32 111t89.5 72.5t127.5 37.5t157 12q364 0 364 -200
q0 -42 -15.5 -73t-44 -49.5t-55.5 -29t-63 -18.5zM1565 739q-30 0 -55 -17t-25 -58q0 -34 21.5 -56.5t72.5 -42.5l33 -14q22 45 22 96q0 92 -69 92zM1509 98q46 0 74.5 27.5t28.5 73.5q0 43 -27.5 67.5t-87.5 44.5l-55 21q-23 -67 -23 -117q0 -117 90 -117z" />
    <glyph glyph-name="uni215F" unicode="&#x215f;" horiz-adv-x="1220" 
d="M639 639v-113h-600v113l145 35v440q-90 -4 -145 -4v152q73 3 161 38t134 89l168 -13v-723zM1425 1368l25 -51q-225 -331 -449 -670q-73 -110 -220.5 -369.5t-188.5 -326.5l-137 39l-27 53q381 561 453 670t216 365.5t189 330.5z" />
    <glyph glyph-name="uni2189" unicode="&#x2189;" horiz-adv-x="2271" 
d="M522 1389q201 0 302.5 -112t101.5 -308q0 -227 -125.5 -348t-331.5 -121q-203 0 -304.5 114t-101.5 310q0 226 126 345.5t333 119.5zM496 1255q-18 0 -29.5 -4.5t-20.5 -19t-13.5 -34t-7.5 -57.5t-4 -81t-1 -113t1 -114t4 -82.5t7.5 -58t13.5 -34.5t20.5 -19.5t29.5 -4.5
q17 0 28.5 4.5t20 19.5t13 34.5t7 58.5t3.5 82t1 114q0 70 -1 113t-3.5 81.5t-7 57.5t-13 33.5t-20 19t-28.5 4.5zM1612 1368l24 -51q-186 -274 -448 -670q-73 -111 -221.5 -371t-188.5 -325l-137 39l-27 53q381 561 453 670t217 366t189 330zM1966 436v-24
q114 -13 178 -62.5t64 -138.5q0 -119 -115 -178.5t-309 -59.5q-171 0 -270 46.5t-99 136.5q0 70 53 123h203l21 -168q50 -5 53 -5q60 0 85 25.5t25 89.5q0 68 -33 95.5t-124 27.5h-27v137h72q42 39 60 70t18 84q0 52 -18.5 72t-59.5 20q-23 0 -33 -2l-20 -168h-203
q-55 51 -55 111q0 95 101 143.5t275 48.5q365 0 365 -227q0 -86 -51.5 -130.5t-155.5 -66.5z" />
    <glyph glyph-name="arrowleft" unicode="&#x2190;" horiz-adv-x="1871" 
d="M813 1147l49 -37q-43 -101 -62 -148.5t-40.5 -129t-22.5 -148.5q23 2 99.5 14.5t157.5 20.5t167 8h645v-213h-645q-86 0 -167 8t-157.5 20.5t-99.5 14.5q0 -22 2.5 -45t5 -41t9.5 -44.5t10 -40t14 -44t14 -40t17 -44t16 -39.5t19 -44t18 -42l-49 -35q-378 214 -758 492
v61q387 282 758 496z" />
    <glyph glyph-name="arrowup" unicode="&#x2191;" horiz-adv-x="1224" 
d="M1149 768l-35 -49q-98 41 -151 61t-135.5 40t-151.5 20q1 -11 15.5 -93t22 -157.5t7.5 -159.5v-430h-219v430q0 84 8.5 162.5t21 151.5t15.5 96q-54 0 -106.5 -8.5t-118.5 -31t-97 -35t-114 -46.5l-35 49q212 355 504 737h63q301 -394 506 -737z" />
    <glyph glyph-name="arrowright" unicode="&#x2192;" horiz-adv-x="1871" 
d="M1010 1110l49 37q371 -214 758 -496v-61q-380 -278 -758 -492l-49 35q76 179 97 249q27 94 28 175q-23 -2 -99.5 -14.5t-157.5 -20.5t-167 -8h-645v213h645q86 0 167 -8t157.5 -20.5t99.5 -14.5q-1 67 -22.5 148.5t-40.5 129t-62 148.5z" />
    <glyph glyph-name="arrowdown" unicode="&#x2193;" horiz-adv-x="1224" 
d="M1114 643l35 -49q-205 -343 -506 -737h-63q-292 382 -504 737l35 49q83 -34 114 -46.5t97 -35t118.5 -31t106.5 -8.5q-3 23 -15.5 96t-21 151.5t-8.5 162.5v430h219v-430q0 -84 -7.5 -159.5t-22 -157.5t-15.5 -93q69 0 151.5 20t135.5 40t151 61z" />
    <glyph glyph-name="arrowboth" unicode="&#x2194;" horiz-adv-x="2312" 
d="M1448 1110l51 37q356 -205 758 -496v-61q-394 -286 -758 -492l-51 35q35 80 48 111t36 95t32 115t9 103q-27 -3 -101 -15t-149.5 -20t-151.5 -8h-30q-84 0 -160.5 8t-146 20t-95.5 15q0 -64 19 -140.5t35 -118t57 -136.5q8 -19 12 -29l-49 -35q-378 214 -758 492v61
q387 282 758 496l49 -37q-43 -101 -62 -148.5t-40 -129t-21 -148.5q26 3 95.5 15t146 20t160.5 8h30q76 0 151.5 -8t149.5 -20t101 -15q0 51 -9.5 103t-31 113.5t-37 99.5t-47.5 110z" />
    <glyph glyph-name="arrowupdn" unicode="&#x2195;" horiz-adv-x="1226" 
d="M678 434q69 0 151.5 20t135.5 40t151 61l35 -49q-52 -87 -119.5 -184t-113.5 -158t-140.5 -182.5t-132.5 -171.5h-65q-31 40 -131.5 170t-142 185.5t-110 154.5t-120.5 186l37 49q83 -35 113.5 -47t97 -34.5t118 -31t105.5 -8.5q-5 21 -15 60.5t-14.5 60.5t-9 55.5
t-4.5 69.5q0 44 5.5 80t20.5 92t19 74q-54 0 -106.5 -8.5t-118.5 -31t-97 -35t-114 -46.5l-35 49q52 87 122 188.5t106.5 150.5t146 191t129.5 168h63q33 -43 132 -171t142 -185.5t111.5 -156t120.5 -185.5l-35 -49q-98 41 -151 61t-135.5 40t-151.5 20q4 -14 13.5 -48.5
t13 -49.5t9 -42.5t7.5 -52.5t2 -53t-2 -53t-7.5 -52.5t-9 -42.5t-13 -49.5t-13.5 -48.5z" />
    <glyph glyph-name="uni2196" unicode="&#x2196;" horiz-adv-x="1363" 
d="M72 1137l45 43q483 -67 893 -174l10 -60q-75 -29 -113.5 -44.5t-97 -43t-103 -58t-83.5 -67.5q8 -6 79 -55.5t131 -97t121 -107.5l371 -348l-154 -152l-372 349q-61 60 -112.5 122t-95.5 120.5t-61 78.5q-49 -48 -92 -118t-67 -124.5t-60 -146.5l-61 10q-97 348 -178 873
z" />
    <glyph glyph-name="uni2197" unicode="&#x2197;" horiz-adv-x="1363" 
d="M1243 1180l45 -43q-81 -525 -178 -873l-61 -10q-54 138 -102 229t-118 160q-17 -20 -60.5 -78.5t-95 -120.5t-112.5 -122l-373 -349l-153 152l371 348q61 60 121 107.5t131 97t79 55.5q-39 37 -83.5 67.5t-103 58t-97 43t-113.5 44.5l10 60q410 107 893 174z" />
    <glyph glyph-name="uni2198" unicode="&#x2198;" horiz-adv-x="1363" 
d="M1288 -2l-45 -43q-483 67 -893 174l-10 59q75 29 113.5 44.5t97 43t103 58t83.5 67.5q-6 4 -78.5 55t-131.5 98.5t-121 107.5l-371 348l153 151l373 -348q61 -60 112.5 -122t95 -120.5t60.5 -78.5q70 69 118 160t102 229l61 -11q97 -350 178 -872z" />
    <glyph glyph-name="uni2199" unicode="&#x2199;" horiz-adv-x="1363" 
d="M117 -45l-45 43q81 522 178 872l61 11q36 -92 60 -146.5t67 -124.5t92 -118q17 20 61 78.5t95.5 120.5t112.5 122l372 348l154 -151l-371 -348q-62 -60 -121 -107.5t-131.5 -98.5t-78.5 -55q39 -37 83.5 -67.5t103 -58t97 -43t113.5 -44.5l-10 -59q-410 -107 -893 -174z
" />
    <glyph glyph-name="uni21A9" unicode="&#x21a9;" horiz-adv-x="1851" 
d="M813 1001l51 -34q-32 -72 -47.5 -110t-37 -99.5t-31 -113.5t-9.5 -103q24 3 100.5 15t157 20t166.5 8h142q92 0 145 52.5t53 133.5q0 80 -53 133t-145 53h-234v213h240q202 0 328 -115t126 -284q0 -170 -129.5 -284.5t-345.5 -114.5h-127q-86 0 -166.5 8t-157 20
t-100.5 15q0 -52 9 -103t32 -115t36 -95t48 -111l-51 -35q-370 210 -758 491v62q401 290 758 493z" />
    <glyph glyph-name="uni21AA" unicode="&#x21aa;" horiz-adv-x="1851" 
d="M987 967l51 34q357 -203 758 -493v-62q-388 -281 -758 -491l-51 35q35 80 48 111t36 95t32 115t9 103q-24 -3 -100.5 -15t-157 -20t-166.5 -8h-127q-216 0 -345.5 114.5t-129.5 284.5q0 169 126.5 284t328.5 115h239v-213h-233q-92 0 -145.5 -53t-53.5 -133
q0 -81 53 -133.5t146 -52.5h141q86 0 166.5 -8t157 -20t100.5 -15q0 51 -9.5 103t-31 113.5t-37 99.5t-47.5 110z" />
    <glyph glyph-name="uni21BB" unicode="&#x21bb;" horiz-adv-x="1427" 
d="M922 864l96 178q139 -45 226 -173.5t87 -297.5q0 -164 -81 -301t-223 -217t-312 -80q-168 0 -310 77.5t-225.5 214t-83.5 300.5q0 153 76 263t209 169q-32 36 -81 71.5t-87 56t-104 53.5l16 59q373 46 684 49l43 -47q-106 -370 -215 -635l-59 -4q-31 189 -111 299
q-71 -73 -102 -147.5t-31 -167.5q0 -97 30.5 -173.5t83.5 -123t120.5 -70.5t144.5 -24q168 0 275.5 105.5t107.5 272.5q0 99 -42.5 169.5t-131.5 123.5z" />
    <glyph glyph-name="partialdiff" unicode="&#x2202;" horiz-adv-x="1331" 
d="M707 1540q299 0 434 -160.5t135 -488.5q0 -84 -8 -166t-30 -175.5t-56 -174.5t-90.5 -156.5t-129.5 -129.5t-177 -86t-228 -32q-84 0 -157 14t-137 46.5t-109.5 81.5t-72 122.5t-26.5 165.5q0 82 20.5 159.5t61.5 144.5t98 117t135.5 79t168.5 29q67 0 118 -17t79.5 -40
t56.5 -58h26q-1 119 -10.5 201t-30 143t-55.5 95.5t-84.5 50.5t-120.5 16q-95 0 -190 -18l-21 137q160 100 400 100zM604 135q56 0 96 38.5t64.5 112t37 167.5t15.5 217q-70 47 -133 47q-40 0 -70 -17t-55.5 -58.5t-39 -120t-13.5 -191.5q0 -103 19 -149t79 -46z" />
    <glyph glyph-name="emptyset" unicode="&#x2205;" horiz-adv-x="1458" 
d="M1300 1305l-139 -205q108 -89 169 -216.5t61 -271.5q0 -181 -93 -328.5t-246.5 -229t-332.5 -81.5q-151 0 -277 60l-145 -215l-115 45l-26 51l139 209q-106 89 -166.5 216t-60.5 271q0 181 92.5 328t246 228t332.5 81q147 0 273 -57l143 213l119 -45zM362 608
q0 -151 91 -252l407 607q-59 20 -127 20q-156 0 -263.5 -102t-107.5 -273zM723 240q156 0 264.5 101.5t108.5 272.5q0 151 -90 254l-410 -608q56 -20 127 -20z" />
    <glyph glyph-name="Delta" unicode="&#x2206;" horiz-adv-x="1366" 
d="M1352 57l-21 -59h-1296l-21 59l529 1299l211 33l65 -21zM604 1012l-297 -717h584z" />
    <glyph glyph-name="product" unicode="&#x220f;" horiz-adv-x="1624" 
d="M1579 1362v-137l-129 -51l-33 2v-1305q-165 -41 -403 -41l-47 55v1295h-310v-1309q-165 -41 -401 -41l-47 55v1313l-164 27v137h1534z" />
    <glyph glyph-name="summation" unicode="&#x2211;" horiz-adv-x="1261" 
d="M922 395l254 -12q14 -105 14 -203q0 -161 -33 -323h-1083l-23 204l443 418l-443 729l17 154h1097q13 -70 13 -160q0 -117 -29 -239h-234l-65 227l-268 16l-15 -20q76 -88 174 -252l158 -252v-61l-237 -226q-97 -97 -254 -231l10 -23l426 31z" />
    <glyph glyph-name="minus" unicode="&#x2212;" 
d="M1174 514h-1088v213h1088v-213z" />
    <glyph glyph-name="uni2219" unicode="&#x2219;" 
d="M627 983q176 0 274 -97.5t98 -267.5t-98 -267t-274 -97q-174 0 -271.5 97t-97.5 267t97.5 267.5t271.5 97.5z" />
    <glyph glyph-name="radical" unicode="&#x221a;" horiz-adv-x="1314" 
d="M1257 1577l43 -39q-219 -723 -555 -1663l-303 -47l-71 20q-130 326 -211 537l-156 21v133h522q64 -219 115 -359h27q60 172 185.5 613t211.5 784h192z" />
    <glyph glyph-name="infinity" unicode="&#x221e;" horiz-adv-x="1929" 
d="M1513 936q84 0 150.5 -22.5t108 -59t69 -85.5t38.5 -97.5t11 -100.5q0 -164 -107.5 -276.5t-293.5 -112.5q-180 0 -369 129l-211 146h-24q-83 -122 -202 -188t-265 -66q-104 0 -181 33.5t-118.5 89t-60.5 116.5t-19 127q0 163 107.5 275t293.5 112q183 0 369 -129
l211 -145h24q81 120 200.5 187t268.5 67zM1501 428q86 0 135.5 44t49.5 122q0 79 -50.5 124.5t-144.5 45.5q-167 0 -358 -160l98 -67q81 -56 142 -82.5t128 -26.5zM438 375q168 0 359 160l-99 67q-87 59 -145 84t-119 25q-88 0 -139 -44.5t-51 -123.5q0 -78 51 -123t143 -45
z" />
    <glyph glyph-name="integral" unicode="&#x222b;" horiz-adv-x="868" 
d="M678 1542q81 0 190 -16v-170q-47 2 -120 2q-93 0 -126.5 -48t-33.5 -147q0 -119 53 -520t53 -512q0 -224 -134 -329t-376 -105q-75 0 -184 16v170q43 -2 121 -2q84 0 122 41.5t38 140.5q0 95 -53.5 510t-53.5 539q0 220 124 325t380 105z" />
    <glyph glyph-name="approxequal" unicode="&#x2248;" 
d="M1036 537l140 -72q-14 -55 -30 -100.5t-41.5 -92t-56 -78t-73.5 -51.5t-94 -20q-62 0 -138 27q-127 45 -378 184l-142 -187l-139 72q19 72 41 126t56.5 106.5t84.5 81t113 28.5q64 0 137 -26q116 -39 379 -185zM1036 1020l140 -72q-14 -55 -30 -100.5t-41.5 -92t-56 -78
t-73.5 -51.5t-94 -20q-62 0 -138 27q-127 45 -378 184l-142 -186l-139 71q19 72 41 126t56.5 106.5t84.5 81t113 28.5q64 0 137 -26q121 -41 379 -184z" />
    <glyph glyph-name="notequal" unicode="&#x2260;" 
d="M797 719l-119 -197h504v-213h-631l-164 -274l-119 41l-28 47l110 186h-256v213h383l117 197h-500v213h625l160 268l122 -41l29 -49l-106 -178h258v-213h-385z" />
    <glyph glyph-name="lessequal" unicode="&#x2264;" 
d="M1057 901l-533 -182v-29l533 -182l-58 -205l-813 246v311l813 244zM1065 0h-907v213h907v-213z" />
    <glyph glyph-name="greaterequal" unicode="&#x2265;" 
d="M1075 860v-311l-813 -246l-57 205l530 182v29l-530 182l57 203zM1102 0h-907v213h907v-213z" />
    <glyph glyph-name="dotmath" unicode="&#x22c5;" 
d="M653 840q101 0 166 -21q33 -57 33 -166q0 -138 -68 -235h-338l-40 375q118 47 247 47z" />
    <glyph glyph-name="uni24EA" unicode="&#x24ea;" horiz-adv-x="1601" 
d="M801 1389q200 0 369.5 -95t268.5 -258.5t99 -355.5t-99 -355t-268.5 -257.5t-369.5 -94.5q-150 0 -287 56t-235.5 150.5t-157 225.5t-58.5 275t58.5 275.5t157 226.5t235.5 151t287 56zM801 1235q-120 0 -226.5 -45t-181 -120.5t-117.5 -177t-43 -212.5t43 -212
t117.5 -175.5t181 -119t226.5 -44.5t226.5 44t180.5 119t117 176t43 212t-43 212.5t-117 177t-180.5 120.5t-226.5 45zM825 1083q190 0 283.5 -100.5t93.5 -277.5q0 -208 -114 -317t-312 -109q-190 0 -283.5 102.5t-93.5 282.5q0 206 113.5 312.5t312.5 106.5zM801 961
q-54 0 -69 -58.5t-15 -218.5q0 -163 15 -223t69 -60q28 0 44.5 15t25.5 52.5t11.5 85.5t2.5 130q0 158 -15.5 217.5t-68.5 59.5z" />
    <glyph glyph-name="uni24FF" unicode="&#x24ff;" horiz-adv-x="1601" 
d="M801 1389q200 0 369.5 -95t268.5 -258.5t99 -355.5t-99 -355t-268.5 -257.5t-369.5 -94.5q-150 0 -287 56t-235.5 150.5t-157 225.5t-58.5 275t58.5 275.5t157 226.5t235.5 151t287 56zM825 1083q-199 0 -312.5 -106.5t-113.5 -312.5q0 -180 93.5 -282.5t283.5 -102.5
q198 0 312 109t114 317q0 177 -93.5 277.5t-283.5 100.5zM801 961q53 0 68.5 -59.5t15.5 -217.5q0 -82 -2.5 -130t-11.5 -85.5t-25.5 -52.5t-44.5 -15q-54 0 -69 60t-15 223q0 160 15 218.5t69 58.5z" />
    <glyph glyph-name="filledbox" unicode="&#x25a0;" horiz-adv-x="1728" 
d="M1513 57h-1298v1250h1298v-1250z" />
    <glyph glyph-name="H22073" unicode="&#x25a1;" horiz-adv-x="1728" 
d="M1513 57h-1298v1250h1298v-1250zM467 1075v-786h797v786h-797z" />
    <glyph glyph-name="H18543" unicode="&#x25aa;" horiz-adv-x="1159" 
d="M985 174h-811v778h811v-778z" />
    <glyph glyph-name="H18551" unicode="&#x25ab;" horiz-adv-x="1159" 
d="M985 174h-811v778h811v-778zM414 731v-336h329v336h-329z" />
    <glyph glyph-name="triagup" unicode="&#x25b2;" horiz-adv-x="1665" 
d="M1610 166l-21 -60h-1513l-21 60l748 1233h61z" />
    <glyph glyph-name="uni25B3" unicode="&#x25b3;" horiz-adv-x="1665" 
d="M1610 166l-21 -60h-1513l-21 60l748 1233h61zM831 1053l-450 -752h903z" />
    <glyph glyph-name="uni25B4" unicode="&#x25b4;" horiz-adv-x="1282" 
d="M1227 207l-21 -60h-1130l-21 60l555 856h64z" />
    <glyph glyph-name="uni25B5" unicode="&#x25b5;" horiz-adv-x="1282" 
d="M1227 207l-21 -60h-1130l-21 60l555 856h64zM641 756l-272 -424h544z" />
    <glyph glyph-name="uni25B6" unicode="&#x25b6;" horiz-adv-x="1441" 
d="M1386 711v-62l-1112 -676l-59 21v1374l59 21z" />
    <glyph glyph-name="uni25B7" unicode="&#x25b7;" horiz-adv-x="1441" 
d="M1386 711v-62l-1112 -676l-59 21v1374l59 21zM436 1055v-748l617 375z" />
    <glyph glyph-name="uni25B8" unicode="&#x25b8;" horiz-adv-x="1144" 
d="M1090 631v-62l-857 -532l-59 20v1088l59 20z" />
    <glyph glyph-name="uni25B9" unicode="&#x25b9;" horiz-adv-x="1144" 
d="M1090 631v-62l-857 -532l-59 20v1088l59 20zM385 844v-486l389 244z" />
    <glyph glyph-name="triagdn" unicode="&#x25bc;" horiz-adv-x="1665" 
d="M1589 1239l21 -59l-746 -1233h-61l-748 1233l21 59h1513z" />
    <glyph glyph-name="uni25BD" unicode="&#x25bd;" horiz-adv-x="1665" 
d="M1589 1239l21 -59l-746 -1233h-61l-748 1233l21 59h1513zM381 1044l450 -751l453 751h-903z" />
    <glyph glyph-name="uni25BE" unicode="&#x25be;" horiz-adv-x="1282" 
d="M1206 1049l21 -60l-553 -856h-64l-555 856l21 60h1130z" />
    <glyph glyph-name="uni25BF" unicode="&#x25bf;" horiz-adv-x="1282" 
d="M1206 1044l21 -59l-553 -856h-64l-555 856l21 59h1130zM369 860l272 -424l272 424h-544z" />
    <glyph glyph-name="uni25C0" unicode="&#x25c0;" horiz-adv-x="1441" 
d="M55 649v62l1112 678l60 -21v-1374l-60 -21z" />
    <glyph glyph-name="uni25C1" unicode="&#x25c1;" horiz-adv-x="1441" 
d="M55 649v62l1112 678l60 -21v-1374l-60 -21zM1006 307v748l-617 -373z" />
    <glyph glyph-name="uni25C2" unicode="&#x25c2;" horiz-adv-x="1144" 
d="M55 569v62l856 534l60 -20v-1088l-60 -20z" />
    <glyph glyph-name="uni25C3" unicode="&#x25c3;" horiz-adv-x="1144" 
d="M55 569v62l856 534l60 -20v-1088l-60 -20zM760 358v486l-389 -242z" />
    <glyph glyph-name="lozenge" unicode="&#x25ca;" horiz-adv-x="1296" 
d="M1241 709v-62l-565 -690h-62l-559 680v61l566 691h63zM625 973l-226 -271l289 -346l223 269z" />
    <glyph glyph-name="circle" unicode="&#x25cb;" horiz-adv-x="1601" 
d="M801 1389q200 0 369.5 -95t268.5 -258.5t99 -355.5t-99 -355t-268.5 -257.5t-369.5 -94.5q-150 0 -287 56t-235.5 150.5t-157 225.5t-58.5 275t58.5 275.5t157 226.5t235.5 151t287 56zM801 1169q-141 0 -257.5 -66.5t-181.5 -178.5t-65 -244t65 -243t181.5 -176.5
t257.5 -65.5q107 0 201 38.5t160.5 104t104.5 154.5t38 188q0 202 -144.5 345.5t-359.5 143.5z" />
    <glyph glyph-name="H18533" unicode="&#x25cf;" horiz-adv-x="1601" 
d="M805 1389q146 0 281.5 -56t234.5 -150.5t158 -224t59 -270.5q0 -142 -59 -274t-158 -228.5t-234.5 -154.5t-281.5 -58t-283 58t-237.5 154t-161 228t-60.5 273t60.5 271.5t160.5 225t237 150.5t284 56z" />
    <glyph glyph-name="uni2605" unicode="&#x2605;" horiz-adv-x="1636" 
d="M1047 891l489 -33l18 -61l-391 -310l127 -475l-51 -39l-424 265l-438 -265l-51 39l143 484l-387 301l18 61l496 45l188 475h64z" />
    <glyph glyph-name="uni2606" unicode="&#x2606;" horiz-adv-x="1636" 
d="M1047 891l489 -33l18 -61l-391 -310l127 -475l-51 -39l-424 265l-438 -265l-51 39l143 484l-387 301l18 61l496 45l188 475h64zM752 690l-164 -14l129 -103l-47 -157l145 86l139 -86l-41 157l131 103l-165 12l-64 158z" />
    <glyph glyph-name="uni261A" unicode="&#x261a;" horiz-adv-x="2318" 
d="M1882 205v649l27 170l375 -20v-1004h-375zM952 1024h252l594 -170v-649q-109 -137 -315 -137q-89 0 -203 24q-146 -134 -215 -176q-97 0 -167 55.5t-81 134.5q-170 66 -170 195v2q-135 63 -135 182q0 21 4 37l9.5 9.5t39 27.5t77.5 44t132 57.5t195 68.5l-8 25
q-635 -97 -789 -97q-33 14 -56 28t-49 36t-39.5 54.5t-13.5 72.5q0 14 1.5 27t6 28.5t7.5 25t10 29.5t10 29q529 37 903 37zM348 954l-45 7q-11 -42 -38.5 -63t-65.5 -26.5t-111 -5.5l-2 -26q134 -40 198 -1t64 115zM1069 512l-12 25q-219 -55 -350 -177l57 -45
q18 20 41.5 39t59.5 41.5t58.5 35.5t74.5 41.5t71 39.5zM1196 309l-14 25q-70 -17 -125.5 -40t-94 -50t-54.5 -40.5t-38 -35.5l62 -39q65 75 264 180z" />
    <glyph glyph-name="uni261B" unicode="&#x261b;" horiz-adv-x="2318" 
d="M436 854v-649l-26 -205h-375v1004l375 20zM1114 1024h252q167 0 392.5 -9t367.5 -19l143 -9q3 -9 10 -29t10 -29.5t7.5 -25t6 -28.5t1.5 -27q0 -40 -13.5 -72.5t-39.5 -54.5t-49 -36t-56 -28q-153 0 -788 97l-8 -25q108 -34 194.5 -68t132.5 -58t76.5 -43t39.5 -28l9 -10
q4 -16 4 -37q0 -119 -135 -182v-2q0 -129 -170 -195q-11 -79 -81 -134.5t-167 -55.5q-69 42 -215 176q-114 -24 -202 -24q-207 0 -316 137v649zM2015 961l-45 -7q0 -76 64 -115t198 1l-2 26q-73 0 -111 5.5t-65.5 26.5t-38.5 63zM1262 537l-13 -25q19 -11 71 -39.5
t74.5 -41.5t58.5 -35.5t59.5 -41.5t41.5 -39l58 45q-131 122 -350 177zM1137 334l-15 -25q199 -105 264 -180l62 39q-23 23 -38 36t-53.5 40t-94 50t-125.5 40z" />
    <glyph glyph-name="uni261C" unicode="&#x261c;" horiz-adv-x="2318" 
d="M55 1047q510 18 897 18h252l619 -211l20 211l441 -25v-153h-248q-13 -216 -13 -375q0 -120 13 -336l248 -43v-133h-441l-22 221h-27q-105 -153 -307 -153q-112 0 -209 38q-42 -67 -98 -115t-115 -75q-129 0 -219 59t-90 156v16q-170 43 -170 175v18q-62 24 -98.5 61.5
t-36.5 81.5q0 46 6 66q33 25 123 64t225 75l-6 23q-104 -24 -232.5 -55t-188.5 -45t-119 -25t-91 -11q-67 35 -110.5 101t-43.5 164q0 51 12.5 111t28.5 96zM244 768q73 6 216.5 21t262 23.5t231.5 8.5l33 -184q-227 -83 -323 -154q0 -22 20 -49q144 86 340 135l59 -118
q-181 -81 -282 -162q0 -27 24 -51q123 94 295 151l66 -119q-169 -104 -221 -164q0 -32 30 -59q53 55 138 123t165 111q114 -27 189 -27q200 0 336 160v297l-633 180h-176q-510 0 -783 -21q-6 -12 -6 -32q0 -28 19 -70z" />
    <glyph glyph-name="uni261D" unicode="&#x261d;" horiz-adv-x="1357" 
d="M1333 553q-26 -55 -77.5 -109.5t-120.5 -95.5q41 -90 41 -188q0 -49 -11.5 -87t-36 -66.5t-48.5 -47.5t-64 -43v-25l229 -22v-281h-137l-43 113q-209 12 -352 12q-183 0 -391 -12v-113h-158l-25 281l176 20l-176 531v242q0 296 21 821q37 16 98 27.5t115 11.5
q188 0 272 -148q0 -38 -15 -98t-53 -197.5t-71 -271.5l24 -6q38 134 79 222t67 118q20 6 67 6q44 0 85.5 -35.5t66.5 -95.5h16q135 0 181 -162h16q101 0 163 -88t62 -213zM956 328q48 81 124.5 169.5t127.5 133.5q-36 39 -73 39q-12 -10 -25.5 -24t-24 -26t-27.5 -37
t-26.5 -40t-33 -50.5t-35.5 -54.5l-121 64q59 166 168 299q-32 26 -66 26q-30 -35 -61.5 -87.5t-49.5 -87.5t-59 -117l-121 59q55 192 150 340q-30 24 -60 24q-9 -11 -18 -24.5t-16.5 -25t-17.5 -30.5t-16 -30.5t-17 -35.5t-15.5 -34t-16 -38t-15 -36t-16.5 -38.5t-15 -36.5
l-187 30q0 73 9.5 184t25 254.5t21.5 223.5q-41 16 -74 16q-23 0 -35 -6q-23 -253 -23 -731v-166l146 -545h354q93 71 130.5 131t37.5 146q0 22 -3 45.5t-5.5 35.5t-10.5 42.5t-10 38.5z" />
    <glyph glyph-name="uni261E" unicode="&#x261e;" horiz-adv-x="2318" 
d="M2263 1047q16 -36 28.5 -96t12.5 -111q0 -98 -43.5 -164t-110.5 -101q-32 0 -91 11t-119 25t-188 45t-232 55l-7 -23q135 -36 225.5 -75t123.5 -64q6 -20 6 -66q0 -44 -36.5 -81.5t-98.5 -61.5v-18q0 -132 -170 -175v-16q0 -97 -90.5 -156t-219.5 -59q-59 27 -115 75
t-98 115q-97 -38 -209 -38q-202 0 -307 153h-26l-23 -221h-440v133l248 43q12 199 12 336q0 176 -12 375h-248v153l440 25l21 -211l618 211h252q387 0 897 -18zM2075 768q18 40 18 70q0 20 -6 32q-273 21 -782 21h-177l-632 -180v-297q136 -160 335 -160q75 0 189 27
q80 -43 165 -111t138 -123q31 28 31 59q-52 60 -221 164l65 119q172 -57 295 -151q25 25 25 51q-100 80 -283 162l59 118q196 -49 340 -135q21 28 21 49q-95 71 -324 154l33 184q113 0 231.5 -8.5t262.5 -23.5t217 -21z" />
    <glyph glyph-name="uni261F" unicode="&#x261f;" horiz-adv-x="1357" 
d="M1333 532q0 -125 -62 -213t-163 -88h-16q-45 -161 -181 -161h-16q-25 -60 -66.5 -95.5t-85.5 -35.5q-47 0 -67 6q-26 30 -67 118t-79 222l-24 -6q33 -134 71 -271.5t53 -198t15 -98.5q-36 -64 -103.5 -105.5t-168.5 -41.5q-54 0 -115 11.5t-98 27.5q-21 525 -21 821v242
l176 530l-176 21l25 280h158v-113q208 -12 391 -12q143 0 352 12l43 113h137v-280l-229 -23v-25q40 -25 64 -43t49 -46.5t36 -66.5t11 -87q0 -99 -41 -189q69 -41 120.5 -95.5t77.5 -109.5zM956 758q2 8 10 38.5t10.5 42.5t5.5 35.5t3 45.5q0 86 -37.5 145.5t-130.5 130.5
h-354l-146 -545v-166q0 -478 23 -731q12 -6 35 -6q33 0 74 16q-6 80 -21.5 223.5t-25 254.5t-9.5 184l187 31q3 -7 16.5 -40.5t18 -43.5t17 -39.5t18.5 -42t17.5 -37t19 -38t17.5 -32t19.5 -32t19.5 -25.5q29 0 60 25q-95 148 -150 340l121 59q42 -86 59 -118.5t49.5 -86
t61.5 -88.5q32 0 66 27q-109 133 -168 299l121 63q11 -17 31 -47.5t29 -44.5t24 -36t24 -34t21 -26.5t22 -24.5t21 -18q37 0 73 39q-51 45 -127.5 133.5t-124.5 169.5z" />
    <glyph glyph-name="uni2661" unicode="&#x2661;" horiz-adv-x="1605" 
d="M1176 1053q160 0 267 -104.5t107 -278.5q0 -87 -30 -161.5t-82 -129.5t-115.5 -101.5t-136.5 -88.5t-139.5 -80t-130 -86t-101.5 -97h-24q-44 56 -122 112t-156 97.5t-162.5 96.5t-148.5 111.5t-105.5 141t-41.5 185.5q0 174 107.5 278.5t267.5 104.5q147 0 240.5 -90
t120.5 -226h24q27 136 120.5 226t240.5 90zM1096 858q-96 0 -151.5 -71.5t-90.5 -223.5h-102q-35 152 -90.5 223.5t-151.5 71.5q-82 0 -124 -49t-42 -141q0 -78 31.5 -140.5t84.5 -108.5t109.5 -85t119.5 -92.5t102 -110.5h24q39 57 102 110.5t119.5 92.5t109.5 85
t84.5 108.5t31.5 140.5q0 92 -42 141t-124 49z" />
    </font>
</defs>
</svg>
