<?xml version="1.0" standalone="no"?>
<!DOCTYPE svg PUBLIC "-//W3C//DTD SVG 1.1//EN" "http://www.w3.org/Graphics/SVG/1.1/DTD/svg11.dtd" >
<svg xmlns="http://www.w3.org/2000/svg" xmlns:xlink="http://www.w3.org/1999/xlink" version="1.1">
<metadata>
Created by FontForge 20170731 at Wed Jan 19 21:51:11 2022
 By Aleksey,,,
2014 published by FontShop International GmbH
</metadata>
<defs>
<font id="FranziskaPro-Light" horiz-adv-x="1259" >
  <font-face 
    font-family="FranziskaPro-Light"
    font-weight="350"
    font-stretch="normal"
    units-per-em="2048"
    panose-1="2 1 5 4 4 1 1 1 1 2"
    ascent="1612"
    descent="-436"
    x-height="1014"
    cap-height="1362"
    bbox="-760 -573 3099 1968"
    underline-thickness="71"
    underline-position="-275"
    unicode-range="U+000D-1F44E"
  />
<missing-glyph horiz-adv-x="1376" 
d="M1165 1362v-1362h-954v1362h954zM1081 1284h-727l727 -1128v1128zM295 78h737l-737 1143v-1143z" />
    <glyph glyph-name="T_h" unicode="Th" horiz-adv-x="2195" 
d="M2165 63v-63h-455v63l160 23v594q0 272 -230 272q-163 0 -327 -151v-729l182 -9v-63h-442v63l151 23v1190l-542 14v-1216l186 -8v-66h-522v66l219 22v1202l-346 -10l-23 -229h-76q-10 64 -10 182q0 63 6 115v14h1108q4 104 10 164q52 12 74 16l25 -6v-502q0 -59 -8 -153
h16q159 159 348 159q144 0 227.5 -86t83.5 -256v-626z" />
    <glyph glyph-name="T_k" unicode="Tk" horiz-adv-x="2107" 
d="M2077 47l-4 -45q-49 -18 -109 -18q-57 0 -92 22.5t-78 85.5q-19 26 -110 167.5t-160 244.5h-211v-432l172 -9v-63h-432v63l151 23v1190l-542 14v-1216l186 -8v-66h-522v66l219 22v1202l-344 -10l-25 -229h-76q-10 64 -10 182q0 77 8 129h1106q4 104 10 164q52 12 74 16
l25 -6v-961h194q171 199 301 369l-190 8v62h412v-62l-127 -22q-131 -164 -312 -355q144 -191 359 -505z" />
    <glyph glyph-name="T_l" unicode="Tl" horiz-adv-x="1544" 
d="M1495 63v-63h-442v63l151 23v1190l-542 14v-1216l186 -8v-66h-522v66l219 22v1202l-346 -10l-23 -229h-76q-10 64 -10 182q0 63 6 115v14h1108q4 104 10 164q52 12 74 16l25 -6v-1464z" />
    <glyph glyph-name="Tbar_h" unicode="&#x166;h" horiz-adv-x="2195" 
d="M2165 63v-63h-455v63l160 23v594q0 272 -230 272q-163 0 -327 -151v-729l182 -9v-63h-442v63l151 23v1190l-542 14v-651h323v-74h-323v-491l186 -8v-66h-522v66l219 22v477h-330v74h330v651l-346 -10l-23 -229h-76q-10 64 -10 182q0 63 6 115v14h1108q4 104 10 164
q52 12 74 16l25 -6v-502q0 -59 -8 -153h16q159 159 348 159q144 0 227.5 -86t83.5 -256v-626z" />
    <glyph glyph-name="Tcaron_h" unicode="&#x164;h" horiz-adv-x="2195" 
d="M2165 63v-63h-455v63l160 23v594q0 272 -230 272q-163 0 -327 -151v-729l182 -9v-63h-442v63l151 23v1190l-542 14v-1216l186 -8v-66h-522v66l219 22v1202l-346 -10l-23 -229h-76q-10 64 -10 182q0 63 6 115v14h1108q4 104 10 164q52 12 74 16l25 -6v-502q0 -59 -8 -153
h16q159 159 348 159q144 0 227.5 -86t83.5 -256v-626zM606 1599h15l202 207h80l-270 -325h-80l-238 288l76 52z" />
    <glyph glyph-name="f_b" unicode="fb" horiz-adv-x="1828" 
d="M1327 1040q184 0 285.5 -133t101.5 -360q0 -254 -128.5 -414t-356.5 -160q-77 0 -176.5 18t-188.5 52v1387q-96 36 -211 36q-141 0 -219 -81t-78 -242v-129h258v-74h-258v-868l240 -9v-63h-512v63l164 23v854l-164 8v58l164 22v105q0 106 30.5 186t85 128t124 71.5
t153.5 23.5q120 0 217 -43q48 32 90 43l27 -6v-502q0 -31 -4 -86t-4 -67h14q154 159 346 159zM1229 47q172 0 269 125.5t97 359.5q0 217 -81 318.5t-218 101.5q-161 0 -321 -151v-699q123 -55 254 -55z" />
    <glyph glyph-name="f_f" unicode="ff" horiz-adv-x="1298" 
d="M1192 1542q101 0 170.5 -42.5t69.5 -123.5q0 -53 -31 -88h-80l-27 170q-46 12 -88 12q-108 0 -170.5 -75.5t-62.5 -233.5v-147h305v-74h-305v-868h2l237 -9v-63h-507v63l159 23v854h-508v-868l183 -9v-63h-455v63l164 23v854l-164 8v58l164 22v113q0 198 108 299.5
t285 101.5q176 0 313 -98q83 98 238 98zM356 1014h404l104 14v123q0 145 54 242q-130 71 -269 71q-143 0 -218 -82t-75 -241v-127z" />
    <glyph glyph-name="f_f_b" unicode="ffb" horiz-adv-x="2445" 
d="M1944 1040q184 0 285.5 -133t101.5 -360q0 -166 -55.5 -294.5t-166.5 -204t-264 -75.5q-76 0 -175 18t-189 52v1387q-96 36 -211 36q-141 0 -219 -81t-78 -242v-129h258v-74h-258v-868h2l237 -9v-63h-507v63l159 23v854h-508v-868l183 -9v-63h-455v63l164 23v854l-164 8
v58l164 22v113q0 198 108 299.5t285 101.5q185 0 326 -108q102 108 290 108q121 0 218 -43q48 32 90 43l26 -6v-502q0 -31 -4 -86t-4 -67h14q154 159 347 159zM356 1014h404l104 14v105q0 151 64 251q-133 80 -279 80q-143 0 -218 -82t-75 -241v-127zM1843 47
q172 0 269.5 125.5t97.5 359.5q0 217 -81 318.5t-218 101.5q-162 0 -322 -151v-699q123 -55 254 -55z" />
    <glyph glyph-name="f_f_h" unicode="ffh" horiz-adv-x="2471" 
d="M2441 63v-63h-454v63l161 23v594q0 272 -231 272q-165 0 -326 -151v-729l181 -9v-63h-453v63l162 23v1344q-96 36 -211 36q-141 0 -219 -81t-78 -242v-129h258v-74h-258v-868l182 -9v-63h-455v63l164 23v854h-508v-868l183 -9v-63h-455v63l164 23v854l-164 8v58l164 22
v113q0 198 108 299.5t285 101.5q185 0 326 -108q102 108 290 108q121 0 218 -43q48 32 90 43l26 -6v-502q0 -31 -4 -86t-4 -67h14q159 159 349 159q144 0 227.5 -86t83.5 -256v-626zM356 1014h404l104 14v105q0 151 64 251q-133 80 -279 80q-143 0 -218 -82t-75 -241v-127z
" />
    <glyph glyph-name="f_f_i" unicode="ffi" horiz-adv-x="1818" 
d="M1769 63v-63h-448v63l156 23h2v834l-121 18h-385v-866h2l182 -9v-63h-452v63l159 23v854h-508v-868l183 -9v-63h-455v63l164 23v854l-164 8v58l164 22v113q0 198 108 299.5t285 101.5q184 0 328 -108q102 108 303 108q141 0 229 -53t88 -141q0 -56 -35 -91h-90l-26 183
q-81 24 -170 24q-295 0 -295 -334v-116h385l205 18l24 -8v-952zM356 1014h404l104 14v100q0 159 66 256q-136 80 -281 80q-143 0 -218 -82t-75 -241v-127z" />
    <glyph glyph-name="f_f_j" unicode="ffj" horiz-adv-x="1787" 
d="M1563 1032l24 -8v-1092q0 -86 -17.5 -138t-66.5 -103t-151 -117l-41 43l168 193v1110l-121 18h-385v-866h2l237 -9v-63h-507v63l159 23v854h-508v-868l183 -9v-63h-455v63l164 23v854l-164 8v58l164 22v113q0 198 108 299.5t285 101.5q184 0 328 -108q102 108 303 108
q142 0 229.5 -52.5t87.5 -141.5q0 -59 -35 -91h-88l-26 183q-84 24 -172 24q-295 0 -295 -334v-116h385zM356 1014h404l104 14v100q0 159 66 256q-136 80 -281 80q-143 0 -218 -82t-75 -241v-127z" />
    <glyph glyph-name="f_f_k" unicode="ffk" horiz-adv-x="2385" 
d="M2355 47l-6 -45q-49 -18 -108 -18q-57 0 -92 22.5t-78 85.5q-17 25 -108 165t-163 247h-209v-432l181 -9v-63h-453v63l162 23v1344q-96 36 -211 36q-141 0 -219 -81t-78 -242v-129h258v-74h-258v-868l182 -9v-63h-455v63l164 23v854h-508v-868l183 -9v-63h-455v63l164 23
v854l-164 8v58l164 22v113q0 198 108 299.5t285 101.5q185 0 326 -108q102 108 290 108q121 0 218 -43q48 32 90 43l26 -6v-961h193q177 206 299 369l-191 8v62h412v-62l-125 -22q-136 -171 -311 -355q133 -176 358 -505zM356 1014h404l104 14v105q0 151 64 251
q-133 80 -279 80q-143 0 -218 -82t-75 -241v-127z" />
    <glyph glyph-name="f_f_l" unicode="ffl" horiz-adv-x="1822" 
d="M1774 63v-63h-455v63l162 23v1344q-96 36 -211 36q-141 0 -219 -81t-78 -242v-129h258v-74h-258v-868l182 -9v-63h-455v63l164 23v854h-508v-868l183 -9v-63h-455v63l164 23v854l-164 8v58l164 22v113q0 198 108 299.5t285 101.5q185 0 326 -108q102 108 290 108
q121 0 218 -43q48 32 90 43l26 -6v-1464zM356 1014h404l104 14v105q0 151 64 251q-133 80 -279 80q-143 0 -218 -82t-75 -241v-127z" />
    <glyph glyph-name="f_h" unicode="fh" horiz-adv-x="1855" 
d="M1825 63v-63h-455v63l162 23v594q0 272 -232 272q-164 0 -325 -151v-729l180 -9v-63h-453v63l162 23v1344q-96 36 -211 36q-141 0 -219 -81t-78 -242v-129h258v-74h-258v-868l183 -9v-63h-455v63l164 23v854l-164 8v58l164 22v105q0 106 30.5 186t85 128t124 71.5
t153.5 23.5q120 0 217 -43q48 32 90 43l27 -6v-502q0 -31 -4 -86t-4 -67h14q159 159 348 159q144 0 227.5 -86t83.5 -256v-626z" />
    <glyph glyph-name="f_hbar" unicode="f&#x127;" horiz-adv-x="1855" 
d="M1825 63v-63h-455v63l162 23v594q0 272 -232 272q-164 0 -325 -151v-729l180 -9v-63h-453v63l162 23v1344q-96 36 -211 36q-141 0 -219 -81t-78 -242v-129h258v-74h-258v-868l183 -9v-63h-455v63l164 23v854l-164 8v58l164 22v105q0 106 30.5 186t85 128t124 71.5
t153.5 23.5q120 0 217 -43q48 32 90 43l27 -6v-184h332v-72h-332v-246q0 -31 -4 -86t-4 -67h14q159 159 348 159q144 0 227.5 -86t83.5 -256v-626z" />
    <glyph glyph-name="f_i" unicode="fi" horiz-adv-x="1204" 
d="M1155 63v-63h-448v63l155 23v834l-121 18h-385v-866l183 -9v-63h-455v63l164 23v854l-164 8v58l164 22v100q0 210 110 312t297 102q141 0 229.5 -53t88.5 -141q0 -56 -35 -91h-90l-27 183q-81 24 -170 24q-295 0 -295 -334v-116h385l205 18l25 -8v-952h2z" />
    <glyph glyph-name="f_icircumflex" unicode="f&#xee;" horiz-adv-x="1204" 
d="M1155 63v-63h-448v63l155 23v836l-131 18h-375v-868l183 -9v-63h-455v63l164 23v854l-164 8v58l164 22v113q0 99 31 175.5t85.5 122.5t124 69.5t150.5 23.5q94 0 188 -33l33 55h82l174 -317l-78 -47l-149 246h-17l-145 -238h-74l142 246q-72 16 -131 16
q-145 0 -226.5 -80.5t-81.5 -238.5v-127h385l205 18l25 -8v-952h2z" />
    <glyph glyph-name="f_imacron" unicode="f&#x12b;" horiz-adv-x="1204" 
d="M1155 63v-63h-455v63l162 23v836l-117 16h-389v-866l183 -9v-63h-455v63l164 23v854l-164 8v58l164 22v123q0 103 28 180.5t77.5 122.5t108.5 66.5t128 21.5q94 0 162 -38t77 -111h269q6 -21 6 -45t-6 -45h-287q-7 -14 -14 -21h-78l-29 178q-48 10 -84 10
q-113 0 -181.5 -76.5t-68.5 -232.5v-147h385l205 18l25 -8v-952h2z" />
    <glyph glyph-name="f_iogonek" unicode="f&#x12f;" horiz-adv-x="1212" 
d="M1143 -334l14 -53q-63 -49 -168 -49q-106 0 -160.5 49t-54.5 121q0 81 63.5 145t155.5 105v16h-286v61l155 25v834l-121 18h-385v-866l183 -9v-63h-455v63l164 23v854l-164 8v58l164 22v100q0 210 110 312t297 102q141 0 229.5 -53t88.5 -141q0 -56 -35 -91h-90l-27 183
q-81 24 -170 24q-295 0 -295 -334v-116h385l205 18l25 -8v-952h2l180 -9v-65q-281 -103 -281 -248q0 -54 39.5 -84.5t104.5 -30.5q58 0 127 31z" />
    <glyph glyph-name="f_j" unicode="fj" horiz-adv-x="1171" 
d="M946 1032l25 -8v-1092q0 -124 -44 -193t-192 -165l-41 43l168 193v1110l-121 18h-385v-866l240 -9v-63h-512v63l164 23v854l-164 8v58l164 22v100q0 210 110 312t297 102q142 0 230 -53t88 -141q0 -59 -35 -91h-88l-27 183q-84 24 -172 24q-295 0 -295 -334v-116h385z
" />
    <glyph glyph-name="f_k" unicode="fk" horiz-adv-x="1769" 
d="M1739 47l-6 -45q-49 -18 -109 -18q-57 0 -92 22.5t-78 85.5q-17 24 -107 164t-163 248h-209v-432l180 -9v-63h-453v63l162 23v1344q-96 36 -211 36q-141 0 -219 -81t-78 -242v-129h258v-74h-258v-868l183 -9v-63h-455v63l164 23v854l-164 8v58l164 22v105q0 106 30.5 186
t85 128t124 71.5t153.5 23.5q120 0 217 -43q48 32 90 43l27 -6v-961h192q171 199 301 369l-190 8v62h412v-62l-127 -22q-131 -164 -312 -355q144 -191 359 -505z" />
    <glyph glyph-name="f_l" unicode="fl" horiz-adv-x="1206" 
d="M1157 63v-63h-455v63l162 23v1344q-96 36 -211 36q-141 0 -219 -81t-78 -242v-129h258v-74h-258v-868l183 -9v-63h-455v63l164 23v854l-164 8v58l164 22v105q0 106 30.5 186t85 128t124 71.5t153.5 23.5q120 0 217 -43q48 32 90 43l27 -6v-1464z" />
    <glyph glyph-name="f_lacute" unicode="f&#x13a;" horiz-adv-x="1204" 
d="M973 1542h-76l150 289h34q55 -25 80 -70zM975 72l182 -9v-63h-455v63l162 23v1327q-110 43 -215 43q-140 0 -216.5 -80.5t-76.5 -242.5v-119h258v-74h-258v-868l183 -9v-63h-455v63l164 23v854l-164 8v58l164 22v94q0 106 30.5 186.5t84.5 128.5t122.5 71.5t149.5 23.5
q151 0 274 -78q18 9 39 12l25 -6v-1388h2z" />
    <glyph glyph-name="f_lcaron" unicode="f&#x13e;" horiz-adv-x="1355" 
d="M1157 63v-63h-455v63l162 23v1344q-96 36 -211 36q-141 0 -219 -81t-78 -242v-129h258v-74h-258v-868l183 -9v-63h-455v63l164 23v854l-164 8v58l164 22v105q0 106 30.5 186t85 128t124 71.5t153.5 23.5q120 0 217 -43q48 32 90 43l27 -6v-1464zM1255 1542q44 0 76 -20
q-3 -107 -29.5 -201t-82.5 -197h-58l47 250v162q12 6 47 6z" />
    <glyph glyph-name="uni021A_h" unicode="&#x21a;h" horiz-adv-x="2195" 
d="M2165 63v-63h-455v63l160 23v594q0 272 -230 272q-163 0 -327 -151v-729l182 -9v-63h-442v63l151 23v1190l-542 14v-1216l186 -8v-66h-522v66l219 22v1202l-346 -10l-23 -229h-76q-10 64 -10 182q0 63 6 115v14h1108q4 104 10 164q52 12 74 16l25 -6v-502q0 -59 -8 -153
h16q159 159 348 159q144 0 227.5 -86t83.5 -256v-626zM592 -121q36 0 59 -10q27 -52 27 -111q0 -85 -45 -150.5t-121 -103.5l-27 37q55 43 86 85.5t31 94.5q0 13 -4 41l-74 11l-2 96q33 10 70 10z" />
    <glyph glyph-name="uni030A_acutecomb" unicode="&#x30a;&#x301;" horiz-adv-x="2" 
d="M-162 1862h35q51 -28 76 -64l-217 -215h-72zM-291 1505q91 0 145 -47.5t54 -132.5q0 -92 -62.5 -142t-154.5 -50q-90 0 -144.5 47.5t-54.5 132.5q0 92 62.5 142t154.5 50zM-297 1444q-57 0 -88 -33.5t-31 -93.5q0 -57 30.5 -89t84.5 -32q58 0 88.5 34.5t30.5 92.5
q0 57 -30 89t-85 32z" />
    <glyph glyph-name=".notdef" horiz-adv-x="1376" 
d="M1165 1362v-1362h-954v1362h954zM1081 1284h-727l727 -1128v1128zM295 78h737l-737 1143v-1143z" />
    <glyph glyph-name=".null" horiz-adv-x="0" 
 />
    <glyph glyph-name="nonmarkingreturn" horiz-adv-x="682" 
 />
    <glyph glyph-name="CR" unicode="&#xd;" horiz-adv-x="512" 
 />
    <glyph glyph-name="space" unicode=" " horiz-adv-x="512" 
 />
    <glyph glyph-name="exclam" unicode="!" horiz-adv-x="499" 
d="M297 1389l20 -19q0 -122 -5.5 -297.5t-14 -384t-10.5 -285.5h-74q-3 81 -11.5 286.5t-14 382t-5.5 298.5q59 19 115 19zM246 186q38 0 59 -12q21 -44 21 -74q0 -59 -39 -116l-103 16l-8 176q40 10 70 10z" />
    <glyph glyph-name="quotedbl" unicode="&#x22;" horiz-adv-x="770" 
d="M616 1483l-30 -422h-76l-31 422q56 18 115 18zM291 1483l-31 -422h-76l-30 422q56 18 114 18z" />
    <glyph glyph-name="numbersign" unicode="#" horiz-adv-x="1255" 
d="M936 831l-53 -452h211v-90l-224 -23l-34 -293h-64l-20 21l32 278h-393l-35 -299h-63l-21 21l33 278h-211v90l223 23l54 453h-209v90l221 22l35 295h65l21 -20l-33 -281h391l35 301h66l20 -20l-33 -281h211v-90zM797 379l53 459h-391l-56 -459h394z" />
    <glyph glyph-name="dollar" unicode="$" horiz-adv-x="1044" 
d="M907 299q0 -141 -94 -216.5t-254 -86.5l2 -254l-74 -8l-14 10l4 250q-70 2 -129 15.5t-107.5 39t-76 68.5t-27.5 100q0 58 37 98h78l33 -219q89 -25 194 -28l10 503l-47 23q-62 29 -104.5 56t-84.5 67t-63.5 93t-21.5 118q0 130 85.5 206.5t238.5 88.5l-3 254l72 8
l14 -10l-4 -250q66 -2 122.5 -15.5t104.5 -39t75.5 -69t27.5 -100.5q0 -59 -39 -98h-76l-30 219q-97 28 -187 31l-10 -487l55 -27q152 -74 222.5 -147t70.5 -193zM270 944q0 -88 52.5 -141t166.5 -105l7 -2l-4 455q-105 -11 -163.5 -62t-58.5 -145zM553 541l4 -471
q109 10 172.5 62t63.5 151q0 49 -14.5 86t-47.5 66.5t-65 48.5t-88 46z" />
    <glyph glyph-name="percent" unicode="%" horiz-adv-x="1683" 
d="M1300 1251l7 -18q-39 -58 -128.5 -188t-156.5 -229.5t-131 -199.5q-67 -103 -204.5 -322.5t-213.5 -336.5l-65 31l-7 18q301 444 430 639q70 109 202.5 319.5t201.5 317.5zM406 1245q140 0 211 -102.5t71 -268.5q0 -179 -80 -283t-221 -104q-139 0 -210 100.5t-71 266.5
q0 179 80 285t220 106zM397 1182q-188 0 -188 -318q0 -313 186 -313q189 0 189 315q0 316 -187 316zM1294 731q140 0 211.5 -102.5t71.5 -268.5q0 -179 -80 -283t-221 -104q-139 0 -210 100.5t-71 266.5q0 179 79.5 285t219.5 106zM1288 668q-188 0 -188 -318
q0 -313 186 -313q189 0 189 315q0 316 -187 316z" />
    <glyph glyph-name="ampersand" unicode="&#x26;" horiz-adv-x="1402" 
d="M1374 53l-6 -51q-62 -18 -111 -18q-160 3 -350 149l-12 10q-167 -170 -393 -170q-59 0 -115.5 11t-111.5 37.5t-96 66t-66 101t-25 137.5q0 271 322 389q-111 198 -111 352q0 78 29.5 140.5t79.5 101.5t112.5 59.5t130.5 20.5q133 0 206 -72t73 -189q0 -141 -107 -255
t-282 -173q150 -247 381 -434q113 180 90 465l-2 4q141 25 323 25v-88h-223q11 -119 -26.5 -236t-116.5 -207q157 -116 293 -159zM639 1315q-100 0 -161.5 -61.5t-61.5 -178.5q0 -142 98 -327q301 149 301 376q0 91 -43 141t-133 50zM518 49q169 0 328 133
q-111 97 -221.5 226.5t-188.5 261.5q-227 -127 -227 -332q0 -75 28.5 -133t75 -90.5t99 -49t106.5 -16.5z" />
    <glyph glyph-name="quotesingle" unicode="'" horiz-adv-x="444" 
d="M291 1483l-31 -422h-76l-30 422q56 18 114 18z" />
    <glyph glyph-name="parenleft" unicode="(" horiz-adv-x="628" 
d="M432 1542l47 -24q-113 -223 -166 -446.5t-53 -493.5t53 -493.5t166 -446.5l-47 -25q-136 177 -208 439t-72 526q0 263 72 525t208 439z" />
    <glyph glyph-name="parenright" unicode=")" horiz-adv-x="628" 
d="M150 1518l47 24q138 -176 209 -437.5t71 -526.5q0 -266 -71 -527.5t-209 -437.5l-47 25q113 223 166 446.5t53 493.5t-53 493.5t-166 446.5z" />
    <glyph glyph-name="asterisk" unicode="*" horiz-adv-x="942" 
d="M426 1599h98q6 -40 6 -71q0 -100 -26 -240h-55q-29 139 -29 240q0 30 6 71zM86 1284l31 94q29 -4 71 -18q98 -31 218 -100l-19 -52q-126 15 -233 47q-28 10 -68 29zM825 1376l31 -94q-42 -20 -68 -27q-106 -35 -235 -49l-16 51q113 67 217 101q39 14 71 18zM403 1165
l46 -32q-56 -124 -117 -209q-24 -31 -49 -56l-80 58q16 34 39 63q39 54 161 176zM494 1130l43 33q106 -92 165 -172q29 -41 41 -63l-79 -60q-29 29 -50 56q-50 66 -120 206z" />
    <glyph glyph-name="plus" unicode="+" 
d="M1108 559h-434v-446h-92v446h-435v84h435v444h90v-444h436v-84z" />
    <glyph glyph-name="comma" unicode="," horiz-adv-x="446" 
d="M223 150q42 0 72 -15q35 -68 35 -141q0 -121 -72.5 -206t-187.5 -126l-23 43q89 47 142 105t53 139q0 21 -4 49l-93 12l-4 129q49 11 82 11z" />
    <glyph glyph-name="hyphen" unicode="-" horiz-adv-x="747" 
d="M623 555h-498v90h498v-90z" />
    <glyph glyph-name="period" unicode="." horiz-adv-x="446" 
d="M233 203q29 0 41 -4q31 -45 31 -93q0 -50 -31 -106h-110l-25 182q40 21 94 21z" />
    <glyph glyph-name="slash" unicode="/" horiz-adv-x="645" 
d="M582 1458l-435 -1831h-67l-17 17l433 1831h69z" />
    <glyph glyph-name="zero" unicode="0" horiz-adv-x="1165" 
d="M594 1243q216 0 330 -168.5t114 -451.5q0 -301 -124.5 -475.5t-344.5 -174.5q-216 0 -330 169t-114 452q0 301 124.5 475t344.5 174zM584 1171q-162 0 -250 -144.5t-88 -418.5q0 -275 88 -418t248 -143q161 0 249.5 143.5t88.5 421.5q0 272 -87 415.5t-249 143.5z" />
    <glyph glyph-name="one" unicode="1" horiz-adv-x="782" 
d="M725 61v-61h-625v61l262 25v985q-109 -62 -260 -72l-4 74q217 20 322 170l51 -4v-1169z" />
    <glyph glyph-name="two" unicode="2" horiz-adv-x="927" 
d="M850 123q0 -65 -10 -123h-2h-768l-13 76l42 36q58 49 88.5 75.5t87.5 78t90 85t82 85.5t77.5 91t62.5 91t52 97t30.5 96t12.5 100q0 123 -70 193t-190 70q-101 0 -195 -52l-30 -221h-82q-39 42 -39 96q0 107 107 177.5t255 70.5q169 0 269 -95.5t100 -240.5
q0 -78 -33 -161.5t-88 -161.5t-140.5 -166t-175 -166t-208.5 -172l4 -14q114 12 283 18l290 12l19 150h82q10 -52 10 -125z" />
    <glyph glyph-name="three" unicode="3" horiz-adv-x="989" 
d="M596 588v-15q120 -25 192 -112t72 -219q0 -175 -125.5 -293.5t-331.5 -118.5q-91 0 -162.5 23.5t-117 75t-45.5 124.5q0 61 37 101h82l30 -224q86 -28 181 -28q144 0 239.5 84.5t95.5 246.5q0 64 -17 116.5t-54 95.5t-102.5 66.5t-155.5 23.5h-92v75h200
q80 39 132.5 111.5t52.5 183.5q0 135 -76.5 202t-206.5 67q-94 0 -184 -46l-31 -213h-74q-39 34 -39 95q0 101 101 168t252 67q171 0 273.5 -92t102.5 -248q0 -69 -21 -126t-57 -93.5t-72.5 -59.5t-78.5 -38z" />
    <glyph glyph-name="four" unicode="4" horiz-adv-x="1011" 
d="M946 207h-221v-350h-109v350h-542l-11 55q283 578 431 985l100 -35l4 -16q-190 -460 -444 -903l4 -14q143 10 254 10h204v379l82 26l27 -4v-401h221v-82z" />
    <glyph glyph-name="five" unicode="5" horiz-adv-x="964" 
d="M420 700q208 0 332.5 -110.5t124.5 -310.5q0 -199 -123.5 -324t-333.5 -125q-141 0 -231.5 57t-90.5 166q0 61 37 101h82l31 -224q82 -28 174 -28q152 0 245 94t93 260q0 337 -398 352l-190 10l23 607l84 20q50 -22 123.5 -39.5t140.5 -17.5q125 0 274 57l21 -47
q-58 -53 -139.5 -85t-172.5 -32q-127 0 -252 54l-28 -451q81 16 174 16z" />
    <glyph glyph-name="six" unicode="6" horiz-adv-x="1112" 
d="M627 872q119 0 207 -60.5t131 -157t43 -214.5q0 -200 -123.5 -333.5t-323.5 -133.5q-209 0 -322.5 154.5t-113.5 437.5q0 238 79 425t225 293t335 106q65 0 119 -13l-4 -61q-276 5 -432.5 -141.5t-194.5 -458.5h14q164 157 361 157zM573 47q137 0 226.5 99.5t89.5 281.5
q0 160 -73.5 258t-221.5 98q-182 0 -346 -182q-4 -27 -4 -78q0 -124 25.5 -218t71.5 -149.5t104 -82.5t128 -27z" />
    <glyph glyph-name="seven" unicode="7" horiz-adv-x="894" 
d="M854 1219l12 -52q-228 -357 -353 -633.5t-155 -498.5l72 -162l-82 -39q-51 25 -79.5 68t-28.5 121q0 310 528 1110l-8 10l-576 -25l-20 -164h-76q-10 51 -10 131q0 69 10 134h766z" />
    <glyph glyph-name="eight" unicode="8" horiz-adv-x="1091" 
d="M664 723v-16q71 -29 122 -60.5t93 -75t63 -101t21 -130.5q0 -92 -35 -164t-95 -115.5t-135 -65.5t-161 -22q-180 0 -294 94t-114 261q0 63 17.5 116.5t45.5 91t68 68t79 49t83 31.5v14q-127 57 -196.5 138.5t-69.5 203.5q0 71 23.5 130t63 98.5t92.5 67.5t110 40.5
t116 12.5q158 0 266.5 -88t108.5 -246q0 -237 -272 -332zM272 1055q0 -56 18.5 -100t58.5 -79t85.5 -61t116.5 -57l35 -17q120 53 176.5 126t56.5 177q0 124 -73 198.5t-197 74.5q-122 0 -199.5 -72t-77.5 -190zM545 47q133 0 217 75t84 204q0 61 -19 106.5t-63.5 83t-95 65
t-136.5 64.5l-38 17q-127 -53 -187.5 -129.5t-60.5 -188.5q0 -139 81 -218t218 -79z" />
    <glyph glyph-name="nine" unicode="9" horiz-adv-x="1114" 
d="M549 1245q211 0 324.5 -155t113.5 -441q0 -239 -80 -425.5t-227 -290t-338 -103.5q-70 0 -125 12l4 62q278 -5 440 139.5t199 460.5h-16q-165 -158 -359 -158q-120 0 -208 61t-130.5 157.5t-42.5 213.5q0 201 122.5 334t322.5 133zM516 434q181 0 348 182q4 27 4 78
q0 242 -92.5 361t-236.5 119q-138 0 -227 -99.5t-89 -281.5q0 -160 73 -259.5t220 -99.5z" />
    <glyph glyph-name="colon" unicode=":" horiz-adv-x="446" 
d="M233 1020q29 0 41 -4q31 -45 31 -92q0 -51 -31 -107h-110l-25 182q40 21 94 21zM233 203q29 0 41 -4q31 -45 31 -93q0 -50 -31 -106h-110l-25 182q40 21 94 21z" />
    <glyph glyph-name="semicolon" unicode=";" horiz-adv-x="446" 
d="M233 1020q29 0 41 -4q31 -45 31 -92q0 -51 -31 -107h-110l-25 182q40 21 94 21zM223 150q42 0 72 -15q35 -68 35 -141q0 -121 -72.5 -206t-187.5 -126l-23 43q89 47 142 105t53 139q0 21 -4 49l-93 12l-4 129q49 11 82 11z" />
    <glyph glyph-name="less" unicode="&#x3c;" 
d="M1040 1034l-753 -424v-16l753 -424l-39 -74l-845 463v88l845 459z" />
    <glyph glyph-name="equal" unicode="=" 
d="M1108 354h-961v84h961v-84zM1108 764h-961v84h961v-84z" />
    <glyph glyph-name="greater" unicode="&#x3e;" 
d="M1098 647v-88l-846 -463l-39 74l754 424v16l-754 424l39 72z" />
    <glyph glyph-name="question" unicode="?" horiz-adv-x="692" 
d="M219 1376q123 0 221 -58t149.5 -151.5t51.5 -201.5q0 -42 -7 -75t-26.5 -63.5t-42 -54t-64.5 -52.5t-83 -53t-109 -61l13 -221l-72 -2q-45 133 -45 219q0 37 18.5 63t75.5 58t82.5 47.5t62 38t50.5 34.5t33 29.5t25 31.5t10.5 32t4.5 39q0 121 -112 202t-301 93l4 100
q30 6 61 6zM285 186q38 0 59 -12q21 -44 21 -74q0 -59 -39 -116l-103 16l-8 176q40 10 70 10z" />
    <glyph glyph-name="at" unicode="@" horiz-adv-x="1839" 
d="M1067 1430q160 0 288.5 -50.5t211.5 -141t127.5 -212.5t44.5 -266q0 -122 -31.5 -228.5t-84.5 -181.5t-121.5 -129t-143 -80t-148.5 -26q-51 0 -70.5 15.5t-15.5 55.5l4 54h-14q-72 -79 -141.5 -111.5t-149.5 -32.5q-140 0 -213.5 89t-74.5 261q-1 115 32 224t91.5 193.5
t148 136t194.5 51.5q127 0 224 -84q35 48 65 69l33 -10l-102 -844q190 12 308 163t118 394q0 105 -22.5 197.5t-70 170t-116 133.5t-165 87t-212.5 31q-173 0 -327.5 -67.5t-266 -183.5t-177 -280t-65.5 -350q0 -150 44.5 -269t119.5 -195t178 -125t215 -66.5t236 -11.5
l2 -52q-88 -18 -160 -18q-154 0 -287.5 47.5t-236 137t-161 230.5t-58.5 316q0 200 75 378.5t202.5 305.5t303 201t369.5 74zM860 184q72 0 131 31.5t137 103.5l70 578q-95 82 -192 82q-102 0 -184 -72t-125.5 -190t-43.5 -256q0 -149 53 -213t154 -64z" />
    <glyph glyph-name="A" unicode="A" horiz-adv-x="1406" 
d="M1378 66v-66h-471v66l180 22q-35 116 -108 342h-586q-79 -243 -112 -356l188 -8v-66h-440v66l159 22q81 254 213 635t230 641l102 25h19q180 -465 467 -1315zM418 504h536q-165 492 -262 753h-16q-109 -299 -258 -753z" />
    <glyph glyph-name="B" unicode="B" horiz-adv-x="1236" 
d="M834 725v-16q129 -30 201.5 -116.5t72.5 -225.5q0 -177 -122.5 -272t-362.5 -95h-514v66l188 22v1200l-191 8v66q376 8 492 8q220 1 335.5 -89t115.5 -251q0 -120 -59.5 -194.5t-155.5 -110.5zM414 1294v-549h331q86 44 134.5 109.5t48.5 173.5q0 133 -79.5 199.5
t-246.5 66.5h-188zM414 76h219q179 0 266.5 73t87.5 222q0 301 -350 301h-223v-596z" />
    <glyph glyph-name="C" unicode="C" horiz-adv-x="1269" 
d="M1114 199l33 -52q-163 -174 -424 -174q-120 0 -220 36.5t-170.5 100.5t-119.5 152.5t-72.5 191.5t-23.5 218q0 153 42 283.5t121.5 227t201.5 151.5t274 55q188 0 352 -78q8 -52 8 -117q0 -83 -12 -197h-76l-29 267q-115 45 -239 45q-235 0 -375.5 -160t-140.5 -463
q0 -301 137.5 -460.5t366.5 -159.5q194 0 366 133z" />
    <glyph glyph-name="D" unicode="D" horiz-adv-x="1396" 
d="M586 1370q146 1 263 -33t197 -94.5t133 -146.5t77 -186.5t24 -217.5q0 -153 -39.5 -276.5t-120.5 -218t-215 -146t-313 -51.5h-486v66l189 22v1200l-189 8v66q218 8 480 8zM412 76h182q274 0 416.5 152.5t142.5 463.5q0 290 -136.5 446t-400.5 156h-204v-1218z" />
    <glyph glyph-name="E" unicode="E" horiz-adv-x="1234" 
d="M1014 307l76 -6q6 -58 6 -111q0 -80 -21 -190h-969v66l189 22v1200l-189 8v66h973q8 -52 8 -129q0 -88 -10 -170h-76l-22 215l-567 12v-573h346l18 147h64v-379h-64l-20 156h-344v-569l565 12z" />
    <glyph glyph-name="F" unicode="F" horiz-adv-x="1171" 
d="M1059 1362h2q6 -59 6 -129q0 -88 -10 -170h-76l-23 213l-546 14v-598h340l18 146h66v-377h-66l-20 155h-338v-542l250 -8v-66h-556v66l189 22v1200l-189 8v66h953z" />
    <glyph glyph-name="G" unicode="G" horiz-adv-x="1366" 
d="M1270 569v-63l-135 -25v-428q-181 -80 -390 -80q-156 0 -277.5 54t-197 149t-114.5 220t-39 272q0 209 75 370.5t224 256t352 94.5q187 0 356 -80q6 -59 6 -117q0 -91 -10 -176h-78l-24 239q-111 54 -250 54q-114 0 -209 -39t-165.5 -115.5t-110 -198t-39.5 -278.5
q0 -155 38 -275.5t107 -196.5t161.5 -114.5t203.5 -38.5q151 0 280 60l-18 385l-238 8v63h492z" />
    <glyph glyph-name="H" unicode="H" horiz-adv-x="1552" 
d="M1257 1274v-1200l189 -8v-66h-494v66l189 22v578h-729v-592l206 -8v-66h-512v66l189 22v1200l-189 8v66h512v-66l-206 -22v-531h729v545l-199 8v66h504v-66z" />
    <glyph glyph-name="I" unicode="I" horiz-adv-x="706" 
d="M412 1274v-1200l188 -8v-66h-494v66l189 22v1200l-189 8v66h494v-66z" />
    <glyph glyph-name="J" unicode="J" horiz-adv-x="948" 
d="M885 1362v-66l-191 -22v-901q0 -111 -29 -191.5t-79.5 -124.5t-109.5 -64t-128 -20q-133 0 -209 64t-76 162q0 65 41 112h84l25 -229q62 -29 127 -29q238 0 238 299v936l-275 8v66h582z" />
    <glyph glyph-name="K" unicode="K" horiz-adv-x="1357" 
d="M1290 53l-6 -49q-62 -20 -108 -20q-67 0 -107.5 29t-89.5 102q-47 69 -162.5 268.5t-167.5 280.5h-237v-590l206 -8v-66h-512v66l189 22v1200l-189 8v66h492v-66l-186 -22v-533h243q164 225 365 547l-205 8v66h471v-66l-158 -20q-191 -279 -397 -541
q74 -108 219.5 -337.5t202.5 -315.5z" />
    <glyph glyph-name="L" unicode="L" horiz-adv-x="1124" 
d="M1034 186q0 -100 -18 -186h-2h-908v66l189 22v1200l-189 8v66h531v-66l-225 -22v-1202l499 12l41 233l76 -6q6 -62 6 -125z" />
    <glyph glyph-name="M" unicode="M" horiz-adv-x="1802" 
d="M1737 66v-66h-502v66l195 22q-10 417 -54 1186h-16q-21 -92 -82 -260l-338 -930l-82 -23h-18l-336 947q-54 151 -82 266h-16q-35 -473 -62 -1200l207 -8v-66h-485v66l188 22q24 556 74 1200l-189 8v66h367q214 -590 391 -1131h14q134 405 398 1131h352v-66l-186 -22
q49 -604 71 -1200z" />
    <glyph glyph-name="N" unicode="N" horiz-adv-x="1550" 
d="M1466 1362v-66l-190 -22v-1274l-90 -23l-25 -2l-622 1039q-103 177 -144 260h-16l6 -1200l213 -8v-66h-492v66l189 22v1200l-189 8v66h361l549 -918q119 -201 162 -286h16l-8 1130l-203 8v66h483z" />
    <glyph glyph-name="O" unicode="O" horiz-adv-x="1435" 
d="M735 1389q144 0 257 -54.5t183.5 -149.5t107 -219t36.5 -268q0 -210 -72.5 -373t-214 -257.5t-330.5 -94.5q-115 0 -211 35.5t-164.5 99.5t-116 151.5t-70.5 191t-23 219.5q0 209 72 370.5t213.5 255t332.5 93.5zM725 1309q-100 0 -185 -38.5t-151.5 -113.5t-104.5 -198
t-38 -281q0 -302 129 -463.5t338 -161.5q100 0 185.5 39t152 115.5t104 200t37.5 280.5q0 302 -129 461.5t-338 159.5z" />
    <glyph glyph-name="P" unicode="P" horiz-adv-x="1173" 
d="M604 1370q235 0 354 -113.5t119 -308.5q0 -192 -113.5 -302.5t-295.5 -110.5q-21 0 -129 12v63h75q336 0 336 334q0 165 -85.5 256.5t-262.5 91.5h-190v-1218l247 -8v-66h-553v66l189 22v1200l-186 8v66q168 8 495 8z" />
    <glyph glyph-name="Q" unicode="Q" horiz-adv-x="1435" 
d="M735 1389q144 0 257 -54.5t183.5 -149.5t107 -219t36.5 -268q0 -264 -113 -449.5t-321 -244.5v-16l280 -269l138 -34l-5 -56q-70 -8 -102 -8q-55 0 -95 14.5t-79 59.5l-254 280q-23 -2 -70 -2q-141 0 -253.5 55t-183 150.5t-107.5 221.5t-37 272q0 208 72 369.5
t213.5 254.5t332.5 93zM725 1309q-100 0 -185 -38.5t-151.5 -113.5t-104.5 -198t-38 -281q0 -302 129 -463.5t338 -161.5q100 0 185.5 39t152 115.5t104 200t37.5 280.5q0 302 -129 461.5t-338 159.5z" />
    <glyph glyph-name="R" unicode="R" horiz-adv-x="1269" 
d="M1241 53l-4 -49q-66 -20 -111 -20q-62 0 -100 26t-78 80q-39 56 -148.5 236.5t-164.5 261.5h-223v-514l206 -8v-66h-512v66l189 22v1200l-189 8v66q312 8 441 8q139 0 241 -29.5t161.5 -83.5t87.5 -122t28 -152q0 -275 -305 -369l-4 -16q68 -85 187 -270.5t165 -247.5z
M412 664h305q107 48 163 121.5t56 197.5q0 152 -87 229t-276 78h-161v-626z" />
    <glyph glyph-name="S" unicode="S" horiz-adv-x="1075" 
d="M487 784l150 -71q62 -29 104.5 -52.5t88 -57.5t72 -71t44 -88t17.5 -112q0 -175 -124.5 -267t-326.5 -92q-189 0 -365 82q-18 102 -18 176q0 61 6 107l72 6l45 -240q117 -53 260 -53q71 0 129 14t104 43t71.5 79t25.5 118q0 48 -13.5 88t-33 67.5t-56 54.5t-67.5 44
t-82 41l-154 74q-51 24 -89 46t-76.5 54.5t-62.5 68t-39 85t-15 108.5q0 163 108.5 258t296.5 95q180 0 336 -80q8 -52 8 -115q0 -84 -10 -166h-78l-22 234q-120 49 -238 49q-135 0 -214 -63.5t-79 -192.5q0 -54 14.5 -94.5t47 -72t68.5 -54t95 -50.5z" />
    <glyph glyph-name="T" unicode="T" horiz-adv-x="1208" 
d="M96 1362h1014q8 -52 8 -127q0 -96 -10 -184h-76l-24 229l-346 10v-1216l219 -8v-66h-555v66l219 22v1202l-344 -10l-25 -229h-76q-10 66 -10 184q0 57 6 113v14z" />
    <glyph glyph-name="U" unicode="U" horiz-adv-x="1470" 
d="M1407 1296l-188 -22v-817q0 -226 -122.5 -355t-353.5 -129q-234 0 -361.5 132.5t-127.5 365.5v817h-2l-189 8v66h508v-66l-200 -22v-809q0 -210 102.5 -311t282.5 -101q177 0 274.5 100.5t97.5 311.5v823l-215 8v66h494v-66z" />
    <glyph glyph-name="V" unicode="V" horiz-adv-x="1384" 
d="M1356 1296l-156 -22q-77 -245 -209 -626.5t-233 -649.5l-94 -25h-21q-248 664 -461 1317l-153 6v66h491v-66l-207 -22q138 -461 392 -1170h14q246 691 391 1184l-207 8v66h453v-66z" />
    <glyph glyph-name="W" unicode="W" horiz-adv-x="2082" 
d="M2030 1296l-152 -20q-179 -622 -397 -1278l-95 -25h-20q-178 546 -305 983h-14q-117 -400 -310 -958l-98 -25h-18q-263 782 -414 1317l-154 6v66h492v-66l-209 -22q156 -580 346 -1170h14q181 539 316 990l-60 194l-143 8v66h494v-66l-226 -22q233 -826 350 -1170h15
q216 693 344 1184l-209 8v66h453v-66z" />
    <glyph glyph-name="X" unicode="X" horiz-adv-x="1431" 
d="M1362 66v-66h-508v66l199 22q-205 334 -346 530h-17q-161 -223 -366 -544l196 -8v-66h-452v66l151 20q216 311 436 600q-215 316 -399 602l-164 8v66h510v-66l-203 -22q183 -292 328 -496h14q109 151 344 510l-198 8v66h452v-66l-151 -20q-200 -295 -410 -567
q300 -444 422 -635z" />
    <glyph glyph-name="Y" unicode="Y" horiz-adv-x="1345" 
d="M1290 1296l-153 -22q-144 -313 -398 -785v-415l219 -8v-66h-555v66l220 22v399q-231 423 -414 801l-154 8v66h492v-66l-203 -22q163 -345 346 -682h15q173 313 342 696l-209 8v66h452v-66z" />
    <glyph glyph-name="Z" unicode="Z" horiz-adv-x="1161" 
d="M989 317l80 -6q6 -59 6 -110q0 -114 -20 -201h-953l-10 37l703 1077q2 3 118 170l-8 10l-672 -14l-24 -229h-78q-10 92 -10 174t8 137h928l10 -37l-690 -1061q-40 -59 -131 -186l6 -10l700 16z" />
    <glyph glyph-name="bracketleft" unicode="[" horiz-adv-x="667" 
d="M551 1450l-244 -8q19 -393 19 -848q0 -467 -19 -879l244 -10v-65h-326v1876h326v-66z" />
    <glyph glyph-name="backslash" unicode="\" horiz-adv-x="645" 
d="M498 -373l-435 1831l17 17h70l432 -1831l-17 -17h-67z" />
    <glyph glyph-name="bracketright" unicode="]" horiz-adv-x="667" 
d="M442 1516v-1876h-325v65l243 10q-18 390 -18 879q0 476 18 848l-243 8v66h325z" />
    <glyph glyph-name="asciicircum" unicode="^" horiz-adv-x="862" 
d="M784 1028l-67 -45l-279 391h-14l-277 -391l-69 45l303 463h100z" />
    <glyph glyph-name="underscore" unicode="_" horiz-adv-x="921" 
d="M815 -244h-711v76h711v-76z" />
    <glyph glyph-name="grave" unicode="`" horiz-adv-x="454" 
d="M393 1174h-71l-261 325q35 54 86 72h35z" />
    <glyph glyph-name="a" unicode="a" horiz-adv-x="1038" 
d="M987 70v-56q-96 -30 -158 -30q-56 0 -81 22.5t-25 73.5v55h-16q-77 -77 -158.5 -119.5t-181.5 -42.5q-130 0 -200.5 68.5t-70.5 177.5q0 67 29 119t74 83t108.5 51t124.5 27t129 7q26 0 158 -8l2 213q1 129 -65 193.5t-185 64.5q-90 0 -170 -35l-31 -221h-80
q-38 34 -38 92q0 98 107.5 166.5t244.5 68.5q142 0 234 -83t91 -238l-6 -643zM391 57q171 0 324 160l4 232h-94q-213 0 -311.5 -54t-98.5 -170q0 -80 44.5 -124t131.5 -44z" />
    <glyph glyph-name="b" unicode="b" horiz-adv-x="1169" 
d="M315 1532v-498q0 -31 -4 -86t-4 -67h15q154 159 346 159q185 0 286 -133.5t101 -361.5q0 -123 -32 -227t-92.5 -181t-156 -120.5t-215.5 -43.5q-165 0 -354 70v1399l-162 14v57q137 23 246 29zM635 952q-162 0 -322 -151v-699q121 -55 252 -55q174 0 271.5 125.5
t97.5 359.5q0 217 -81 318.5t-218 101.5z" />
    <glyph glyph-name="c" unicode="c" horiz-adv-x="972" 
d="M852 186l31 -45q-145 -168 -363 -168q-104 0 -186 42t-132 114.5t-76 164.5t-26 198q0 246 126.5 397t330.5 151q77 0 141.5 -21t110 -72t45.5 -126q0 -62 -37 -102h-82l-30 223q-77 27 -138 27q-156 0 -252 -121t-96 -342q0 -213 89.5 -328t238.5 -115q148 0 305 123z
" />
    <glyph glyph-name="d" unicode="d" horiz-adv-x="1191" 
d="M963 1532v-1436l163 -22v-60q-131 -21 -247 -30l-27 8l10 141h-16q-155 -160 -346 -160q-183 0 -284 133.5t-101 360.5q0 120 31 224t90 182t150 122.5t204 44.5q139 0 264 -61v461l-164 14v57q127 25 248 31zM590 969q-167 0 -263 -128.5t-96 -359.5q0 -216 81.5 -318
t219.5 -102q87 0 163.5 39.5t156.5 114.5v680q-59 37 -130 55.5t-132 18.5z" />
    <glyph glyph-name="e" unicode="e" horiz-adv-x="1005" 
d="M866 186l31 -45q-142 -168 -365 -168q-109 0 -193.5 42t-135.5 114.5t-77 164.5t-26 198q0 246 126.5 397t332.5 151q164 0 249 -99.5t85 -264.5q0 -70 -16 -152h-658v-14q0 -214 91.5 -330.5t246.5 -116.5q152 0 309 123zM545 969q-129 0 -218 -101t-104 -284l555 14
q2 16 2 51q0 160 -60.5 240t-174.5 80z" />
    <glyph glyph-name="f" unicode="f" horiz-adv-x="681" 
d="M575 1542q101 0 170.5 -42.5t69.5 -123.5q0 -53 -31 -88h-79l-27 170q-46 12 -88 12q-108 0 -171 -75.5t-63 -233.5v-147h306v-74h-306v-868l240 -9v-63h-512v63l164 23v854l-164 8v58l164 22v123q0 103 26 180.5t72 122.5t103 66.5t126 21.5z" />
    <glyph glyph-name="g" unicode="g" horiz-adv-x="1050" 
d="M883 1034l-84 -104q86 -92 86 -236q0 -160 -111 -265t-291 -105q-65 0 -114 14v-180l221 -33q219 -38 305 -88.5t86 -149.5q0 -101 -78.5 -176t-201.5 -111t-271 -36q-362 0 -362 243q0 101 59.5 174.5t153.5 102.5q3 113 24 276q-92 43 -139 126.5t-47 185.5
q0 158 110.5 263t290.5 105q150 0 244 -75q33 93 69.5 145.5t94.5 52.5q41 0 69 -28l-8 -80zM498 395q128 0 200 79t72 214q0 129 -67 205t-193 76q-130 0 -202 -78t-72 -211q0 -128 67 -206.5t195 -78.5zM532 27l-221 36q-125 -115 -125 -231q0 -97 71 -147t208 -50
q70 0 140.5 13t134 38t103.5 69t40 100q0 42 -27.5 70t-104 53t-219.5 49z" />
    <glyph glyph-name="h" unicode="h" horiz-adv-x="1220" 
d="M1190 63v-63h-455v63l162 23v594q0 272 -231 272q-165 0 -326 -151v-729l180 -9v-63h-454v63l163 23v1354l-161 14v57q128 25 245 31l27 -10v-498q0 -31 -4 -86t-4 -67h14q159 159 348 159q145 0 228.5 -86t83.5 -256v-626z" />
    <glyph glyph-name="i" unicode="i" horiz-adv-x="587" 
d="M539 63v-63h-455v63l164 23v834l-164 24v57q165 27 246 31l26 -8v-952zM295 1464q19 0 43 -6q24 -46 24 -82q0 -57 -36 -106h-97l-18 182q54 12 84 12z" />
    <glyph glyph-name="j" unicode="j" horiz-adv-x="542" 
d="M338 1024v-1092q0 -124 -44 -193t-192 -165l-41 43l168 193v1110l-163 24v57q165 27 247 31zM276 1464q19 0 43 -6q25 -48 25 -82q0 -56 -37 -106h-96l-18 182q54 12 83 12z" />
    <glyph glyph-name="k" unicode="k" horiz-adv-x="1134" 
d="M1104 47l-6 -45q-50 -18 -109 -18q-57 0 -92 22.5t-78 85.5q-19 26 -110 167.5t-160 244.5h-209v-432l170 -9v-63h-444v63l163 23v1356l-161 14v57q137 23 247 29l25 -10v-957h192q180 210 302 369l-191 8v62h412v-62l-127 -22q-131 -164 -312 -355q144 -191 359 -505z
" />
    <glyph glyph-name="l" unicode="l" horiz-adv-x="569" 
d="M520 63v-63h-454v63l163 23v1354l-161 12v61q138 23 245 29l27 -10v-1460z" />
    <glyph glyph-name="m" unicode="m" horiz-adv-x="1878" 
d="M1847 63v-63h-444v63l153 23v594q0 143 -58.5 207.5t-174.5 64.5q-89 0 -161 -36.5t-158 -112.5q8 -27 8 -62v-669l155 -9v-63h-397v63l131 23v594q0 141 -58 206.5t-171 65.5q-89 0 -161.5 -37t-154.5 -114v-729l179 -9v-63h-451v63l164 23v834l-164 24v57
q165 27 248 31l26 -8l-10 -143h17q86 86 163 122.5t174 36.5q209 0 277 -161h16q93 85 177 123t182 38q150 0 230.5 -86.5t80.5 -255.5v-626z" />
    <glyph glyph-name="n" unicode="n" horiz-adv-x="1239" 
d="M1208 61v-61h-452v61l162 25v596q0 270 -236 270q-167 0 -326 -149v-733l181 -9v-61h-453v61l164 25v836l-164 22v57q165 27 248 31l26 -8l-10 -143h14q159 159 349 159q146 0 230.5 -86t84.5 -256v-628z" />
    <glyph glyph-name="o" unicode="o" horiz-adv-x="1101" 
d="M565 1040q108 0 193 -42t137 -115t79 -165.5t27 -199.5q0 -155 -54 -277.5t-160.5 -195t-249.5 -72.5q-108 0 -193 42t-137.5 114.5t-79.5 166t-27 200.5q0 155 54.5 277.5t161 194.5t249.5 72zM555 969q-149 0 -241.5 -116t-92.5 -347t89.5 -345t236.5 -114
q148 0 241 116.5t93 346.5q0 223 -87 341t-239 118z" />
    <glyph glyph-name="p" unicode="p" horiz-adv-x="1191" 
d="M692 1040q183 0 284 -133t101 -358q0 -96 -19 -181.5t-58 -158t-95 -125t-134 -82t-171 -29.5q-137 0 -262 64v-375l194 -10v-62h-466v62l163 24v1244l-163 24v57q165 27 247 31l27 -6l-10 -145h16q154 159 346 159zM600 47q169 0 265 127t96 358q0 217 -81 318.5
t-218 101.5q-163 0 -322 -153v-678q122 -74 260 -74z" />
    <glyph glyph-name="q" unicode="q" horiz-adv-x="1167" 
d="M1126 -348v-62h-477v62l205 24v304q0 59 8 153h-16q-155 -160 -346 -160q-183 0 -284 133.5t-101 360.5q0 118 29.5 220t87 182t151.5 125.5t215 45.5q80 0 143 -21.5t129 -62.5q17 34 60 72l33 -10v-1356zM852 213v661q-128 95 -254 95q-172 0 -269.5 -128.5
t-97.5 -361.5q0 -215 81.5 -316.5t219.5 -101.5q87 0 164 39t156 113z" />
    <glyph glyph-name="r" unicode="r" horiz-adv-x="770" 
d="M715 907h-183q-81 -60 -176 -200v-635l224 -9v-63h-496v63l164 23v834l-164 24v57q168 27 244 31l26 -8l-10 -219h14q80 124 140 179.5t129 55.5q60 0 100 -47z" />
    <glyph glyph-name="s" unicode="s" horiz-adv-x="915" 
d="M436 586l99 -41q70 -30 112.5 -53t81.5 -56.5t56.5 -76.5t17.5 -101q0 -141 -102 -213t-271 -72q-165 0 -307 70q-10 48 -10 111q0 72 10 131h78l24 -195q94 -43 205 -43q71 0 127 17.5t93.5 61t37.5 107.5q0 77 -48 120t-155 89l-92 39q-63 27 -102 49t-77 54.5
t-55.5 76t-17.5 99.5q0 132 93.5 206t254.5 74q149 0 269 -59q10 -48 10 -109q0 -70 -10 -131h-72l-27 191q-87 37 -176 37q-106 0 -172.5 -46.5t-66.5 -138.5q0 -75 43 -113.5t149 -84.5z" />
    <glyph glyph-name="t" unicode="t" horiz-adv-x="720" 
d="M659 106l19 -55q-112 -78 -242 -78q-99 0 -157 52.5t-58 169.5v745l-164 8v58l166 22l64 256l43 -4v-266h305v-74h-305v-731q0 -83 31.5 -117.5t101.5 -34.5q84 0 196 49z" />
    <glyph glyph-name="u" unicode="u" horiz-adv-x="1218" 
d="M1153 74v-60q-134 -21 -250 -30l-26 8l10 143h-15q-159 -162 -348 -162q-144 0 -227.5 87t-83.5 257v603l-164 24v57q166 27 246 31l27 -8v-686q0 -277 231 -277q165 0 326 154v705l-164 24v57q165 27 246 31l26 -10l2 2v-928z" />
    <glyph glyph-name="v" unicode="v" horiz-adv-x="1165" 
d="M1143 952l-142 -22q-106 -309 -356 -932l-82 -25h-18q-223 543 -371 971l-151 8v62h415v-62l-141 -24q131 -390 303 -813h14q159 393 304 829l-181 8v62h406v-62z" />
    <glyph glyph-name="w" unicode="w" horiz-adv-x="1787" 
d="M1737 952l-142 -22q-122 -430 -295 -932l-86 -25h-18q-150 447 -278 906h-15q-115 -383 -289 -881l-86 -25h-18q-209 611 -309 971l-150 8v62h416v-62l-143 -24q100 -376 241 -813h17q189 552 290 903l86 22h21q133 -498 272 -925h17q160 514 241 829l-178 8v62h406v-62z
" />
    <glyph glyph-name="x" unicode="x" horiz-adv-x="1128" 
d="M1098 61v-61h-428v61l135 23q-162 248 -258 375h-15q-166 -232 -266 -389l183 -9v-61h-418v61l139 23q95 134 332 432q-239 323 -309 428l-146 8v62h432v-62l-151 -20q121 -186 245 -346h15q120 164 246 358l-166 8v62h411v-62l-151 -20q-91 -130 -312 -404
q152 -203 326 -458z" />
    <glyph glyph-name="y" unicode="y" horiz-adv-x="1165" 
d="M1143 952l-142 -22q-158 -462 -387 -1018q-149 -348 -344 -348q-74 0 -114 43l10 69h217q95 109 168 293q-198 468 -377 975l-151 8v62h417v-62l-141 -22q133 -404 301 -815h16q187 477 302 829l-181 8v62h406v-62z" />
    <glyph glyph-name="z" unicode="z" horiz-adv-x="915" 
d="M762 291l76 -8q4 -32 4 -82q0 -82 -25 -201h-729l-14 59l487 707q18 27 125 174l-6 10l-467 -14l-25 -195h-73q-11 71 -11 140q0 53 11 133h688l14 -60l-489 -706q-56 -84 -125 -172l6 -13l510 13z" />
    <glyph glyph-name="braceleft" unicode="{" horiz-adv-x="643" 
d="M379 440q0 -67 -46.5 -333.5t-53.5 -337.5l213 -54l-3 -61q-20 -2 -57 -2q-126 0 -185 39.5t-59 120.5q0 40 13 132.5t44.5 282.5t43.5 265l-174 67v74l174 67q-11 66 -27.5 164.5t-28 165.5t-22.5 139t-17 120t-6 73q0 80 57.5 119t184.5 39q39 0 59 -2l3 -60l-213 -55
q7 -70 53.5 -328.5t46.5 -324.5q0 -61 -40 -93t-157 -53v-16q117 -23 157 -54t40 -94z" />
    <glyph glyph-name="bar" unicode="|" horiz-adv-x="503" 
d="M293 -246h-82v1782h82v-1782z" />
    <glyph glyph-name="braceright" unicode="}" horiz-adv-x="643" 
d="M528 633v-74l-174 -67q8 -51 27.5 -167.5t29 -175t21.5 -138.5t17.5 -127t5.5 -72q0 -81 -59 -120.5t-185 -39.5q-37 0 -57 2l-2 61l215 54q-7 64 -54 333.5t-47 337.5q0 63 39.5 94t157.5 54v16q-118 21 -157.5 52.5t-39.5 93.5q0 67 47 328.5t54 324.5l-215 55l2 60
q20 2 59 2q127 0 184.5 -39t57.5 -119q0 -18 -3 -47.5t-9 -74.5t-12.5 -86t-17.5 -106.5t-18.5 -109t-20.5 -121.5t-20 -117z" />
    <glyph glyph-name="asciitilde" unicode="~" 
d="M1077 698l37 -36q-27 -48 -48 -79.5t-52.5 -67t-67.5 -53.5t-76 -18q-31 0 -75 17t-74 33.5t-117 66.5q-141 85 -237 129l-187 -182l-39 37q54 99 112.5 158t133.5 59q43 0 99.5 -26t166.5 -91q20 -11 55.5 -31.5t51.5 -29.5t41 -22.5t46.5 -23.5t45.5 -20z" />
    <glyph glyph-name="uni00A0" unicode="&#xa0;" horiz-adv-x="512" 
 />
    <glyph glyph-name="exclamdown" unicode="&#xa1;" horiz-adv-x="499" 
d="M246 1040q42 0 59 -10q21 -47 21 -76q0 -57 -39 -114l-103 14l-8 176q27 10 70 10zM207 621h74q2 -77 10.5 -285.5t14 -384t5.5 -297.5q-59 -19 -112 -19l-23 19q0 122 5.5 298.5t14 382t11.5 286.5z" />
    <glyph glyph-name="cent" unicode="&#xa2;" horiz-adv-x="995" 
d="M874 291l33 -45q-127 -148 -311 -166l4 -223l-74 -9l-14 11l4 219q-100 5 -178.5 48.5t-126 115t-72 161.5t-24.5 193q0 226 108 374t293 171l-4 221l72 8l14 -10l-4 -215q79 -2 143 -24t109 -74t45 -127q0 -61 -37 -101h-80l-31 228q-76 26 -149 26q-2 -137 -2 -444
q0 -324 2 -467q139 11 280 129zM233 608q0 -196 77 -309.5t208 -132.5q4 282 4 455q0 172 -4 446q-132 -27 -208.5 -145.5t-76.5 -313.5z" />
    <glyph glyph-name="sterling" unicode="&#xa3;" horiz-adv-x="1132" 
d="M967 301l61 -2q4 -54 4 -68q0 -258 -174 -258q-54 0 -157.5 24t-215 44t-198.5 12q-51 -71 -121 -71q-35 0 -62 16l-12 94l141 43q121 99 121 246q0 66 -26 168h-219v74h196q-49 161 -49 247q0 159 105.5 267t287.5 108q81 0 147.5 -21.5t112 -73t45.5 -126.5
q0 -61 -39 -100h-75l-31 221q-79 26 -160 26q-130 0 -202 -78.5t-72 -205.5q0 -19 1.5 -37.5t5.5 -40t6.5 -35t10 -40t10 -35t12 -40t11.5 -36.5h346v-74h-325q20 -78 20 -143q0 -84 -39.5 -155t-144.5 -132l6 -13q108 19 211 19q190 0 401 -55z" />
    <glyph glyph-name="currency" unicode="&#xa4;" horiz-adv-x="1130" 
d="M973 133l-182 182q-99 -71 -234 -71q-131 0 -221 65l-176 -176l-66 64l178 178q-67 85 -67 213q0 133 80 229l-191 191l66 63l192 -194q94 67 230 67q122 0 204 -57l185 184l63 -65l-180 -183q72 -90 72 -221q0 -129 -72 -223l182 -180zM565 317q110 0 179 73.5t69 205.5
q0 129 -65.5 202.5t-174.5 73.5q-110 0 -182 -73t-72 -205q0 -129 68 -203t178 -74z" />
    <glyph glyph-name="yen" unicode="&#xa5;" horiz-adv-x="1316" 
d="M1239 1155l-154 -22q-108 -210 -254 -451h259v-72h-304l-67 -110v-105h371v-71h-371v-250l205 -8v-66h-514v66l192 22v236h-373v71h373v109l-65 106h-308v72h263q-179 291 -271 465l-143 8v66h461v-66l-185 -22q154 -298 316 -555h16q151 241 311 569l-178 8v66h420v-66z
" />
    <glyph glyph-name="brokenbar" unicode="&#xa6;" horiz-adv-x="503" 
d="M293 942h-82v594h82v-594zM293 -246h-82v594h82v-594z" />
    <glyph glyph-name="section" unicode="&#xa7;" horiz-adv-x="964" 
d="M901 403q0 -76 -43 -134t-143 -103q57 -75 57 -166q0 -124 -85.5 -199t-229.5 -75q-126 0 -202.5 58t-76.5 150q0 53 35 93h72l30 -201q85 -29 146 -29q97 0 153 46.5t56 129.5q0 38 -11.5 69t-47 70.5t-76 74.5t-123.5 102q-192 154 -243 206q-87 86 -102 166
q-4 23 -4 48q0 78 43 136.5t144 102.5q-57 75 -57 168q0 121 86 197t227 76q127 0 203.5 -58.5t76.5 -150.5q0 -54 -34 -93h-74l-29 203q-89 27 -145 27q-98 0 -153.5 -46.5t-55.5 -129.5q0 -72 51 -130t207 -184q88 -70 132 -106t94.5 -83.5t71.5 -80t35.5 -72t14.5 -82.5z
M676 209q59 38 87 75.5t28 96.5q0 78 -66 152t-256 223q-15 12 -49.5 38.5t-51 39.5t-39.5 33.5t-40 37.5q-61 -40 -89 -78t-28 -94q0 -72 62 -143t262 -230q126 -97 180 -151z" />
    <glyph glyph-name="dieresis" unicode="&#xa8;" horiz-adv-x="669" 
d="M143 1452q31 0 43 -4q23 -44 23 -78q0 -46 -31 -92h-90l-18 162q27 12 73 12zM532 1452q31 0 43 -4q23 -44 23 -78q0 -46 -31 -92h-90l-18 162q27 12 73 12z" />
    <glyph glyph-name="copyright" unicode="&#xa9;" horiz-adv-x="1638" 
d="M831 1389q199 0 356 -86.5t246 -245.5t89 -365q0 -214 -94.5 -379t-256.5 -252.5t-362 -87.5q-305 0 -498.5 196t-193.5 507q0 211 94.5 375t256.5 251t363 87zM817 43q128 0 240.5 45.5t195.5 127.5t131 203.5t48 266.5q0 143 -47 262.5t-129 200.5t-193.5 125.5
t-239.5 44.5t-240 -45t-195 -126t-131 -201.5t-48 -264.5q0 -143 46.5 -263.5t128 -202.5t193.5 -127.5t240 -45.5zM846 348q114 0 237 103l27 -45q-111 -132 -285 -132q-110 0 -188.5 56.5t-114 144t-35.5 195.5q0 183 101.5 300t261.5 117q101 0 174.5 -47t73.5 -137
q0 -48 -29 -84h-76l-26 176q-61 23 -115 23q-111 0 -177.5 -89t-66.5 -249t64.5 -246t173.5 -86z" />
    <glyph glyph-name="ordfeminine" unicode="&#xaa;" horiz-adv-x="737" 
d="M698 510v-45q-79 -27 -129 -27q-75 0 -75 62v37h-13q-56 -52 -105.5 -79.5t-117.5 -27.5q-90 0 -138 46.5t-48 125.5q0 48 20 85t51 58.5t74.5 35t85 18t88.5 4.5q19 0 54.5 -1t43.5 -1l3 117q1 95 -38.5 139.5t-121.5 44.5q-48 0 -119 -23l-20 -143h-60q-29 25 -29 63
q0 67 73 115.5t171 48.5q104 0 168.5 -61t63.5 -180l-5 -408zM283 506q56 0 103.5 25t100.5 75l2 148l-69 -2q-129 -3 -189.5 -36t-60.5 -106q0 -104 113 -104z" />
    <glyph glyph-name="guillemotleft" unicode="&#xab;" horiz-adv-x="1036" 
d="M866 895l-213 -332l213 -332l-53 -41l-291 361v24l291 361zM473 895l-213 -332l213 -332l-53 -41l-291 361v24l291 361z" />
    <glyph glyph-name="logicalnot" unicode="&#xac;" 
d="M1006 199h-93v360h-768v84h861v-444z" />
    <glyph glyph-name="uni00AD" unicode="&#xad;" horiz-adv-x="747" 
d="M623 555h-498v90h498v-90z" />
    <glyph glyph-name="registered" unicode="&#xae;" horiz-adv-x="1218" 
d="M618 1477q216 0 355 -136.5t139 -357.5q0 -227 -146 -367.5t-364 -140.5q-216 0 -356 139t-140 359q0 149 68.5 265t185 177.5t258.5 61.5zM606 535q184 0 307 122t123 322t-120.5 320t-303.5 120q-186 0 -309 -120.5t-123 -321.5q0 -199 121 -320.5t305 -121.5zM676 958
v-10q27 -32 131 -184l49 -8l-2 -37q-21 -8 -55 -8q-47 0 -72 39q-30 42 -119 192h-67v-178l80 -8v-39h-232v39l74 14v440l-74 2v41q122 4 184 4q118 0 168 -40t50 -113q0 -118 -115 -146zM541 989h100q34 17 51 41.5t17 71.5q0 53 -25.5 80.5t-83.5 27.5h-59v-221z" />
    <glyph glyph-name="macron" unicode="&#xaf;" horiz-adv-x="612" 
d="M68 1393h477q6 -21 6 -45t-6 -45h-477q-7 25 -7 45t7 45z" />
    <glyph glyph-name="degree" unicode="&#xb0;" horiz-adv-x="702" 
d="M356 1501q117 0 197 -82t80 -196q0 -120 -86 -202.5t-203 -82.5t-195.5 81t-78.5 195q0 120 84.5 203.5t201.5 83.5zM350 1425q-84 0 -140 -58.5t-56 -147.5t56 -147t140 -58t141.5 58.5t57.5 146.5q0 89 -57.5 147.5t-141.5 58.5z" />
    <glyph glyph-name="plusminus" unicode="&#xb1;" 
d="M1063 715v-84h-387v-352h-92v352h-387v84h387v352h90v-352h389zM197 84h866v-84h-866v84z" />
    <glyph glyph-name="twosuperior" unicode="&#xb2;" horiz-adv-x="571" 
d="M451 942h55q8 -36 8 -80q0 -51 -4 -76h-459l-8 56q13 11 50.5 42t52 43t48 41t48 44t41.5 42.5t39 45.5t29.5 44.5t25.5 49t14 48.5t6 52q0 72 -38.5 112t-104.5 40q-44 0 -96 -21l-21 -133h-61q-27 30 -27 64q0 63 63.5 104t149.5 41q104 0 165.5 -58.5t61.5 -148.5
q0 -47 -20 -94t-47.5 -85.5t-81.5 -88.5t-97 -85t-118 -93l4 -12q68 7 152 10l157 8z" />
    <glyph glyph-name="threesuperior" unicode="&#xb3;" horiz-adv-x="641" 
d="M287 1501q99 0 159 -50t60 -132q0 -113 -131 -156v-16q151 -28 151 -164q0 -95 -72 -154t-186 -59q-90 0 -150.5 37.5t-60.5 101.5q0 38 25 66h61l21 -131q59 -19 102 -19q79 0 124.5 38.5t45.5 115.5q0 147 -174 147h-55v54h112q97 44 97 141q0 63 -37.5 94t-102.5 31
q-45 0 -104 -19l-16 -129h-58q-28 28 -28 62q0 62 64.5 101.5t152.5 39.5z" />
    <glyph glyph-name="acute" unicode="&#xb4;" horiz-adv-x="471" 
d="M293 1571h35q53 -23 82 -72l-277 -325h-72z" />
    <glyph glyph-name="mu" unicode="&#xb5;" horiz-adv-x="1208" 
d="M1143 74v-60q-128 -21 -250 -30l-25 8l11 143h-17q-159 -162 -342 -162q-155 0 -225 121l-10 -4l18 -514q-40 -12 -98 -12l-23 20l21 625v805q38 13 84 20l26 -8v-688q0 -277 230 -277q163 0 327 154v799q35 13 82 20l27 -8v-930z" />
    <glyph glyph-name="paragraph" unicode="&#xb6;" horiz-adv-x="1130" 
d="M610 510h-75q-226 0 -349 107.5t-123 314.5q0 203 120.5 316t348.5 114h78v-852zM1067 1362v-64l-180 -24v-1045q0 -109 -28.5 -188t-80.5 -124t-117 -66t-147 -21q-193 0 -315 107l30 51q132 -80 289 -80q139 0 212 71t73 244v1112h2v27h262z" />
    <glyph glyph-name="periodcentered" unicode="&#xb7;" horiz-adv-x="446" 
d="M233 700q29 0 41 -4q31 -45 31 -92q0 -50 -31 -106h-110l-25 182q38 20 94 20z" />
    <glyph glyph-name="cedilla" unicode="&#xb8;" horiz-adv-x="512" 
d="M276 12v-159q82 -3 128.5 -34t46.5 -91q0 -70 -55.5 -117t-149.5 -47q-114 0 -185 55l17 51q84 -35 141 -35q60 0 96.5 26t36.5 69q0 39 -33.5 55t-123.5 33l22 194h59z" />
    <glyph glyph-name="onesuperior" unicode="&#xb9;" horiz-adv-x="499" 
d="M457 834v-48h-383v48l151 14v538q-50 -28 -153 -36l-2 53q135 13 196 98l41 -2v-659z" />
    <glyph glyph-name="ordmasculine" unicode="&#xba;" horiz-adv-x="768" 
d="M393 1163q96 0 165 -52t100.5 -132.5t31.5 -177.5q0 -164 -87 -267.5t-230 -103.5q-95 0 -163 50.5t-100 130t-32 177.5q0 163 86.5 269t228.5 106zM383 1100q-100 0 -154.5 -79t-54.5 -226q0 -143 53 -222t156 -79q100 0 154.5 77t54.5 224q0 146 -53.5 225.5
t-155.5 79.5z" />
    <glyph glyph-name="guillemotright" unicode="&#xbb;" horiz-adv-x="1038" 
d="M909 575v-24l-291 -361l-53 41l213 332l-211 332l54 41zM514 575v-24l-291 -361l-53 41l213 332l-211 332l53 41z" />
    <glyph glyph-name="onequarter" unicode="&#xbc;" horiz-adv-x="1699" 
d="M1346 1364l6 -18q-366 -537 -449 -664q-64 -99 -215 -340.5t-239 -374.5l-66 31l-6 18q373 550 465 693q77 116 219 342.5t219 343.5zM547 588v-53h-461v53l184 18v647q-69 -38 -184 -45l-2 60q155 16 235 118l50 -2v-788zM1649 162h-154v-162h-92v162h-369l-8 41
q167 343 277 647l88 -29l6 -14q-150 -342 -295 -576l4 -12q106 12 174 12h123v240l63 18l29 -4v-254h154v-69z" />
    <glyph glyph-name="onehalf" unicode="&#xbd;" horiz-adv-x="1779" 
d="M1346 1364l6 -18q-366 -537 -449 -664q-64 -99 -215 -340.5t-239 -374.5l-66 31l-6 18q373 550 465 693q77 116 219 342.5t219 343.5zM547 588v-53h-461v53l184 18v647q-69 -38 -184 -45l-2 60q155 16 235 118l50 -2v-788zM1712 88q0 -38 -6 -82v-6h-551l-10 61
q23 20 82.5 69t88.5 74.5t78 71.5t75.5 80t55.5 78.5t41.5 89t12.5 90.5q0 84 -44.5 130.5t-123.5 46.5q-52 0 -125 -27l-20 -158h-74q-31 28 -31 74q0 74 77.5 124t182.5 50q121 0 193 -68t72 -170q0 -55 -24 -111.5t-60 -105.5t-99.5 -108.5t-121.5 -106.5t-146 -114
l4 -15q112 13 186 15l199 8l14 100h66q8 -36 8 -90z" />
    <glyph glyph-name="threequarters" unicode="&#xbe;" horiz-adv-x="1763" 
d="M1409 1364l6 -18q-340 -499 -448 -664q-63 -97 -214.5 -339t-240.5 -376l-66 31l-6 18q373 550 465 693q77 116 219 342.5t219 343.5zM449 979v-14q182 -43 182 -199q0 -114 -88 -184t-226 -70q-109 0 -180 45t-71 121q0 48 30 78h72l25 -158q58 -23 120 -23
q94 0 153.5 43.5t59.5 141.5q0 180 -221 180h-61v61h137q53 26 86 64.5t33 105.5q0 79 -45 116.5t-125 37.5q-64 0 -133 -29l-19 -149h-67q-33 30 -33 72q0 73 78 121.5t186 48.5q120 0 191 -60t71 -155q0 -139 -155 -195zM1712 162h-153v-162h-93v162h-368l-8 41
q163 335 276 647l88 -29l6 -14q-150 -342 -295 -576l4 -12q106 12 174 12h123v240l64 18l29 -4v-254h153v-69z" />
    <glyph glyph-name="questiondown" unicode="&#xbf;" horiz-adv-x="692" 
d="M395 854l-8 176q27 10 70 10q41 0 59 -10q21 -47 21 -76q0 -57 -39 -114zM170 51q0 -122 112 -203.5t302 -91.5l-4 -102q-40 -4 -62 -4q-123 0 -221 57.5t-149.5 150.5t-51.5 201q0 42 7 75t26.5 63.5t42 54t64.5 52.5t83 53t109 61l-12 221l71 4q45 -133 45 -219
q0 -37 -18.5 -63t-75.5 -58q-171 -98 -219.5 -141t-48.5 -111z" />
    <glyph glyph-name="Agrave" unicode="&#xc0;" horiz-adv-x="1406" 
d="M1378 66v-66h-471v66l180 22q-35 116 -108 342h-586q-79 -243 -112 -356l188 -8v-66h-440v66l159 22q81 254 213 635t230 641l102 25h19q180 -465 467 -1315zM418 504h536q-165 492 -262 753h-16q-109 -299 -258 -753zM758 1481h-76l-223 268q30 48 82 70h34z" />
    <glyph glyph-name="Aacute" unicode="&#xc1;" horiz-adv-x="1406" 
d="M1378 66v-66h-471v66l180 22q-35 116 -108 342h-586q-79 -243 -112 -356l188 -8v-66h-440v66l159 22q81 254 213 635t230 641l102 25h19q180 -465 467 -1315zM418 504h536q-165 492 -262 753h-16q-109 -299 -258 -753zM864 1829h35q55 -25 80 -70l-252 -278h-76z" />
    <glyph glyph-name="Acircumflex" unicode="&#xc2;" horiz-adv-x="1406" 
d="M1378 66v-66h-471v66l180 22q-35 116 -108 342h-586q-79 -243 -112 -356l188 -8v-66h-440v66l159 22q81 254 213 635t230 641l102 25h19q180 -465 467 -1315zM418 504h536q-165 492 -262 753h-16q-109 -299 -258 -753zM983 1518l-78 -52l-213 222h-16l-201 -207h-78
l269 325h79z" />
    <glyph glyph-name="Atilde" unicode="&#xc3;" horiz-adv-x="1406" 
d="M1378 66v-66h-471v66l180 22q-35 116 -108 342h-586q-79 -243 -112 -356l188 -8v-66h-440v66l159 22q81 254 213 635t230 641l102 25h19q180 -465 467 -1315zM418 504h536q-165 492 -262 753h-16q-109 -299 -258 -753zM950 1724l39 -36q-1 -2 -13 -24t-14.5 -26.5
t-14 -24t-17 -25t-17 -20.5t-20 -20t-20.5 -13t-25 -10.5t-27 -2.5q-38 0 -86 26l-192 109l-111 -119l-39 37q47 88 74 118q43 45 94 46q39 0 86 -27l195 -106z" />
    <glyph glyph-name="Adieresis" unicode="&#xc4;" horiz-adv-x="1406" 
d="M1378 66v-66h-471v66l180 22q-35 116 -108 342h-586q-79 -243 -112 -356l188 -8v-66h-440v66l159 22q81 254 213 635t230 641l102 25h19q180 -465 467 -1315zM418 504h536q-165 492 -262 753h-16q-109 -299 -258 -753zM928 1733q20 0 45 -7q22 -34 22 -79q0 -48 -30 -93
h-93l-18 166q39 13 74 13zM459 1733q21 0 45 -7q22 -34 22 -79q0 -46 -28 -93h-97l-18 166q39 13 76 13z" />
    <glyph glyph-name="Aring" unicode="&#xc5;" horiz-adv-x="1406" 
d="M1378 66v-66h-471v66l180 22q-35 116 -108 342h-586q-79 -243 -112 -356l188 -8v-66h-440v66l159 22q81 254 213 635t230 641l102 25h19q180 -465 467 -1315zM418 504h536q-165 492 -262 753h-16q-109 -299 -258 -753zM698 1835q92 0 145.5 -46t53.5 -130q0 -90 -61 -137
t-156 -47q-91 0 -145 44.5t-54 127.5q0 91 62 139.5t155 48.5zM690 1774q-55 0 -86 -32.5t-31 -88.5q0 -54 31 -85.5t86 -31.5q56 0 85.5 32.5t29.5 86.5q0 55 -29.5 87t-85.5 32z" />
    <glyph glyph-name="AE" unicode="&#xc6;" horiz-adv-x="1923" 
d="M1702 307l76 -6q6 -58 6 -111q0 -74 -21 -190h-958v66l188 22v332h-520q-29 -54 -61.5 -114t-69 -128.5t-55.5 -103.5l186 -8v-66h-440v66l162 22q328 607 684 1202l-174 6v66h1060q9 -59 9 -129q0 -80 -11 -170h-75l-21 217l-557 8v-571h336l16 147h66v-379h-66l-20 156
h-332v-569l555 12zM993 494v794h-28q-175 -288 -453 -794h481z" />
    <glyph glyph-name="Ccedilla" unicode="&#xc7;" horiz-adv-x="1269" 
d="M1114 199l33 -52q-153 -162 -393 -174v-120q172 -10 172 -125q0 -70 -55.5 -117t-149.5 -47q-113 0 -184 55l16 51q84 -35 141 -35q60 0 96.5 26t36.5 69q0 39 -33.5 55t-123.5 33l2 6l16 151q-113 5 -207.5 43.5t-161 102.5t-112.5 151t-68 187.5t-22 212.5
q0 153 42 283.5t121.5 227t201.5 151.5t274 55q188 0 352 -78q8 -52 8 -117q0 -83 -12 -197h-76l-29 267q-115 45 -239 45q-235 0 -375.5 -160t-140.5 -463q0 -301 137.5 -460.5t366.5 -159.5q194 0 366 133z" />
    <glyph glyph-name="Egrave" unicode="&#xc8;" horiz-adv-x="1234" 
d="M1014 307l76 -6q6 -58 6 -111q0 -80 -21 -190h-969v66l189 22v1200l-189 8v66h973q8 -52 8 -129q0 -88 -10 -170h-76l-22 215l-567 12v-573h346l18 147h64v-379h-64l-20 156h-344v-569l565 12zM690 1481h-76l-223 268q30 48 82 70h35z" />
    <glyph glyph-name="Eacute" unicode="&#xc9;" horiz-adv-x="1234" 
d="M1014 307l76 -6q6 -58 6 -111q0 -80 -21 -190h-969v66l189 22v1200l-189 8v66h973q8 -52 8 -129q0 -88 -10 -170h-76l-22 215l-567 12v-573h346l18 147h64v-379h-64l-20 156h-344v-569l565 12zM797 1829h34q55 -25 80 -70l-252 -278h-75z" />
    <glyph glyph-name="Ecircumflex" unicode="&#xca;" horiz-adv-x="1234" 
d="M1014 307l76 -6q6 -58 6 -111q0 -80 -21 -190h-969v66l189 22v1200l-189 8v66h973q8 -52 8 -129q0 -88 -10 -170h-76l-22 215l-567 12v-573h346l18 147h64v-379h-64l-20 156h-344v-569l565 12zM915 1518l-77 -52l-213 222h-17l-200 -207h-78l268 325h80z" />
    <glyph glyph-name="Edieresis" unicode="&#xcb;" horiz-adv-x="1234" 
d="M1014 307l76 -6q6 -58 6 -111q0 -80 -21 -190h-969v66l189 22v1200l-189 8v66h973q8 -52 8 -129q0 -88 -10 -170h-76l-22 215l-567 12v-573h346l18 147h64v-379h-64l-20 156h-344v-569l565 12zM860 1733q20 0 45 -7q23 -36 23 -79q0 -47 -31 -93h-92l-19 166q39 13 74 13
zM391 1733q21 0 45 -7q23 -36 23 -79q0 -44 -29 -93h-96l-19 166q39 13 76 13z" />
    <glyph glyph-name="Igrave" unicode="&#xcc;" horiz-adv-x="706" 
d="M412 1274v-1200l188 -8v-66h-494v66l189 22v1200l-189 8v66h494v-66zM420 1481h-76l-223 268q30 48 82 70h35z" />
    <glyph glyph-name="Iacute" unicode="&#xcd;" horiz-adv-x="706" 
d="M412 1274v-1200l188 -8v-66h-494v66l189 22v1200l-189 8v66h494v-66zM526 1829h35q55 -25 80 -70l-252 -278h-76z" />
    <glyph glyph-name="Icircumflex" unicode="&#xce;" horiz-adv-x="706" 
d="M412 1274v-1200l188 -8v-66h-494v66l189 22v1200l-189 8v66h494v-66zM645 1518l-78 -52l-213 222h-16l-201 -207h-78l269 325h80z" />
    <glyph glyph-name="Idieresis" unicode="&#xcf;" horiz-adv-x="706" 
d="M412 1274v-1200l188 -8v-66h-494v66l189 22v1200l-189 8v66h494v-66zM590 1733q20 0 45 -7q22 -34 22 -79q0 -48 -30 -93h-92l-19 166q39 13 74 13zM121 1733q21 0 45 -7q22 -34 22 -79q0 -46 -28 -93h-97l-18 166q39 13 76 13z" />
    <glyph glyph-name="Eth" unicode="&#xd0;" horiz-adv-x="1417" 
d="M604 1370q147 1 264 -33t197 -94.5t133.5 -146.5t77.5 -186t24 -218q0 -153 -39.5 -276.5t-120.5 -218t-215 -146t-313 -51.5h-487v66l190 22v580h-190v75h190v545l-190 8v66q222 8 479 8zM432 76h180q276 0 419 152.5t143 463.5q0 290 -136.5 446t-402.5 156h-203v-551
h318v-75h-318v-592z" />
    <glyph glyph-name="Ntilde" unicode="&#xd1;" horiz-adv-x="1550" 
d="M1466 1362v-66l-190 -22v-1274l-90 -23l-25 -2l-622 1039q-103 177 -144 260h-16l6 -1200l213 -8v-66h-492v66l189 22v1200l-189 8v66h361l549 -918q119 -201 162 -286h16l-8 1130l-203 8v66h483zM1040 1724l39 -36q-1 -2 -13 -24t-14.5 -26.5t-14 -24t-17 -25t-17 -20.5
t-20 -20t-20.5 -13t-25 -10.5t-27 -2.5q-38 0 -86 26l-192 109l-111 -119l-39 37q47 88 74 118q43 45 94 46q39 0 86 -27l195 -106z" />
    <glyph glyph-name="Ograve" unicode="&#xd2;" horiz-adv-x="1435" 
d="M735 1389q144 0 257 -54.5t183.5 -149.5t107 -219t36.5 -268q0 -210 -72.5 -373t-214 -257.5t-330.5 -94.5q-115 0 -211 35.5t-164.5 99.5t-116 151.5t-70.5 191t-23 219.5q0 209 72 370.5t213.5 255t332.5 93.5zM725 1309q-100 0 -185 -38.5t-151.5 -113.5t-104.5 -198
t-38 -281q0 -302 129 -463.5t338 -161.5q100 0 185.5 39t152 115.5t104 200t37.5 280.5q0 302 -129 461.5t-338 159.5zM786 1481h-75l-224 268q30 48 82 70h35z" />
    <glyph glyph-name="Oacute" unicode="&#xd3;" horiz-adv-x="1435" 
d="M735 1389q144 0 257 -54.5t183.5 -149.5t107 -219t36.5 -268q0 -210 -72.5 -373t-214 -257.5t-330.5 -94.5q-115 0 -211 35.5t-164.5 99.5t-116 151.5t-70.5 191t-23 219.5q0 209 72 370.5t213.5 255t332.5 93.5zM725 1309q-100 0 -185 -38.5t-151.5 -113.5t-104.5 -198
t-38 -281q0 -302 129 -463.5t338 -161.5q100 0 185.5 39t152 115.5t104 200t37.5 280.5q0 302 -129 461.5t-338 159.5zM893 1829h35q55 -25 80 -70l-252 -278h-76z" />
    <glyph glyph-name="Ocircumflex" unicode="&#xd4;" horiz-adv-x="1435" 
d="M735 1389q144 0 257 -54.5t183.5 -149.5t107 -219t36.5 -268q0 -210 -72.5 -373t-214 -257.5t-330.5 -94.5q-115 0 -211 35.5t-164.5 99.5t-116 151.5t-70.5 191t-23 219.5q0 209 72 370.5t213.5 255t332.5 93.5zM725 1309q-100 0 -185 -38.5t-151.5 -113.5t-104.5 -198
t-38 -281q0 -302 129 -463.5t338 -161.5q100 0 185.5 39t152 115.5t104 200t37.5 280.5q0 302 -129 461.5t-338 159.5zM1012 1518l-78 -52l-213 222h-16l-201 -207h-78l268 325h80z" />
    <glyph glyph-name="Otilde" unicode="&#xd5;" horiz-adv-x="1435" 
d="M735 1389q144 0 257 -54.5t183.5 -149.5t107 -219t36.5 -268q0 -210 -72.5 -373t-214 -257.5t-330.5 -94.5q-115 0 -211 35.5t-164.5 99.5t-116 151.5t-70.5 191t-23 219.5q0 209 72 370.5t213.5 255t332.5 93.5zM725 1309q-100 0 -185 -38.5t-151.5 -113.5t-104.5 -198
t-38 -281q0 -302 129 -463.5t338 -161.5q100 0 185.5 39t152 115.5t104 200t37.5 280.5q0 302 -129 461.5t-338 159.5zM979 1724l39 -36q-1 -2 -13 -24t-14.5 -26.5t-14 -24t-17 -25t-17 -20.5t-20 -20t-20.5 -13t-25 -10.5t-27 -2.5q-38 0 -86 26l-193 109l-110 -119
l-39 37q47 88 74 118q43 45 94 46q39 0 86 -27l194 -106z" />
    <glyph glyph-name="Odieresis" unicode="&#xd6;" horiz-adv-x="1435" 
d="M735 1389q144 0 257 -54.5t183.5 -149.5t107 -219t36.5 -268q0 -210 -72.5 -373t-214 -257.5t-330.5 -94.5q-115 0 -211 35.5t-164.5 99.5t-116 151.5t-70.5 191t-23 219.5q0 209 72 370.5t213.5 255t332.5 93.5zM725 1309q-100 0 -185 -38.5t-151.5 -113.5t-104.5 -198
t-38 -281q0 -302 129 -463.5t338 -161.5q100 0 185.5 39t152 115.5t104 200t37.5 280.5q0 302 -129 461.5t-338 159.5zM956 1733q20 0 45 -7q23 -36 23 -79q0 -47 -31 -93h-92l-18 166q39 13 73 13zM487 1733q21 0 45 -7q23 -36 23 -79q0 -44 -29 -93h-96l-18 166
q39 13 75 13z" />
    <glyph glyph-name="multiply" unicode="&#xd7;" 
d="M1036 948l-346 -348l346 -346l-59 -61l-348 348l-346 -348l-62 61l348 346l-348 348l60 60l348 -346l346 346z" />
    <glyph glyph-name="Oslash" unicode="&#xd8;" horiz-adv-x="1435" 
d="M1305 1466l-162 -241q87 -93 131.5 -229.5t44.5 -297.5q0 -210 -72.5 -373t-214 -257.5t-330.5 -94.5q-198 0 -340 107l-151 -227l-59 24l-9 19l158 237q-91 95 -137.5 234t-46.5 303q0 209 72 370.5t213.5 255t332.5 93.5q205 0 348 -111l154 231l59 -24zM731 1309
q-104 0 -190.5 -38t-153 -113.5t-104 -200t-37.5 -287.5q0 -295 119 -455l659 987q-116 107 -293 107zM705 53q105 0 192 39t154 115.5t104 202t37 288.5q0 288 -115 443l-657 -987q113 -101 285 -101z" />
    <glyph glyph-name="Ugrave" unicode="&#xd9;" horiz-adv-x="1470" 
d="M1407 1296l-188 -22v-817q0 -226 -122.5 -355t-353.5 -129q-234 0 -361.5 132.5t-127.5 365.5v817h-2l-189 8v66h508v-66l-200 -22v-809q0 -210 102.5 -311t282.5 -101q177 0 274.5 100.5t97.5 311.5v823l-215 8v66h494v-66zM811 1481h-76l-223 268q30 48 82 70h35z" />
    <glyph glyph-name="Uacute" unicode="&#xda;" horiz-adv-x="1470" 
d="M1407 1296l-188 -22v-817q0 -226 -122.5 -355t-353.5 -129q-234 0 -361.5 132.5t-127.5 365.5v817h-2l-189 8v66h508v-66l-200 -22v-809q0 -210 102.5 -311t282.5 -101q177 0 274.5 100.5t97.5 311.5v823l-215 8v66h494v-66zM918 1829h34q55 -25 80 -70l-252 -278h-75z
" />
    <glyph glyph-name="Ucircumflex" unicode="&#xdb;" horiz-adv-x="1470" 
d="M1407 1296l-188 -22v-817q0 -226 -122.5 -355t-353.5 -129q-234 0 -361.5 132.5t-127.5 365.5v817h-2l-189 8v66h508v-66l-200 -22v-809q0 -210 102.5 -311t282.5 -101q177 0 274.5 100.5t97.5 311.5v823l-215 8v66h494v-66zM1036 1518l-78 -52l-213 222h-16l-201 -207
h-77l268 325h80z" />
    <glyph glyph-name="Udieresis" unicode="&#xdc;" horiz-adv-x="1470" 
d="M1407 1296l-188 -22v-817q0 -226 -122.5 -355t-353.5 -129q-234 0 -361.5 132.5t-127.5 365.5v817h-2l-189 8v66h508v-66l-200 -22v-809q0 -210 102.5 -311t282.5 -101q177 0 274.5 100.5t97.5 311.5v823l-215 8v66h494v-66zM981 1733q20 0 45 -7q23 -36 23 -79
q0 -47 -31 -93h-92l-19 166q39 13 74 13zM512 1733q20 0 45 -7q23 -36 23 -79q0 -44 -29 -93h-96l-19 166q39 13 76 13z" />
    <glyph glyph-name="Yacute" unicode="&#xdd;" horiz-adv-x="1345" 
d="M1290 1296l-153 -22q-144 -313 -398 -785v-415l219 -8v-66h-555v66l220 22v399q-231 423 -414 801l-154 8v66h492v-66l-203 -22q163 -345 346 -682h15q173 313 342 696l-209 8v66h452v-66zM850 1829h35q55 -25 80 -70l-252 -278h-76z" />
    <glyph glyph-name="Thorn" unicode="&#xde;" horiz-adv-x="1179" 
d="M412 1133h190q241 0 361 -109t120 -299q0 -197 -116.5 -311.5t-313.5 -114.5q-85 0 -125 8v66h95q165 0 250 88t85 256q0 159 -81.5 248.5t-258.5 89.5h-206v-981l229 -8v-66h-535v66l189 22v1200l-189 8v66h291l15 -21v-208z" />
    <glyph glyph-name="germandbls" unicode="&#xdf;" horiz-adv-x="1202" 
d="M930 584q42 -27 59.5 -39t54 -43.5t54 -58.5t32.5 -71t15 -93q0 -137 -96.5 -221.5t-245.5 -84.5q-69 0 -126 18t-96.5 61.5t-39.5 107.5t34 98h68l27 -192q86 -21 141 -21q100 0 158.5 58t58.5 159q0 71 -37 121t-141 123q-48 34 -69 50t-51.5 43t-42.5 47t-22 48
t-10 60q0 38 15 71.5t30.5 51.5t53.5 57q36 34 56 56.5t44 58.5t34.5 79t10.5 97q0 128 -62.5 186.5t-170.5 58.5q-86 0 -148.5 -32.5t-96.5 -90.5t-49.5 -127.5t-15.5 -154.5v-1065h-272v63l164 23v858h-90l-74 19l98 51l66 14v35q0 221 123.5 350t318.5 129
q154 0 240 -81.5t86 -221.5q0 -60 -15.5 -111t-47 -91t-57.5 -64.5t-67 -57.5q-48 -38 -68 -64.5t-20 -64.5q0 -54 39 -92.5t150 -109.5z" />
    <glyph glyph-name="agrave" unicode="&#xe0;" horiz-adv-x="1038" 
d="M987 70v-56q-96 -30 -158 -30q-56 0 -81 22.5t-25 73.5v55h-16q-77 -77 -158.5 -119.5t-181.5 -42.5q-130 0 -200.5 68.5t-70.5 177.5q0 67 29 119t74 83t108.5 51t124.5 27t129 7q26 0 158 -8l2 213q1 129 -65 193.5t-185 64.5q-90 0 -170 -35l-31 -221h-80
q-38 34 -38 92q0 98 107.5 166.5t244.5 68.5q142 0 234 -83t91 -238l-6 -643zM391 57q171 0 324 160l4 232h-94q-213 0 -311.5 -54t-98.5 -170q0 -80 44.5 -124t131.5 -44zM563 1174h-71l-261 325q35 54 86 72h35z" />
    <glyph glyph-name="aacute" unicode="&#xe1;" horiz-adv-x="1038" 
d="M987 70v-56q-96 -30 -158 -30q-56 0 -81 22.5t-25 73.5v55h-16q-77 -77 -158.5 -119.5t-181.5 -42.5q-130 0 -200.5 68.5t-70.5 177.5q0 67 29 119t74 83t108.5 51t124.5 27t129 7q26 0 158 -8l2 213q1 129 -65 193.5t-185 64.5q-90 0 -170 -35l-31 -221h-80
q-38 34 -38 92q0 98 107.5 166.5t244.5 68.5q142 0 234 -83t91 -238l-6 -643zM391 57q171 0 324 160l4 232h-94q-213 0 -311.5 -54t-98.5 -170q0 -80 44.5 -124t131.5 -44zM684 1571h35q53 -23 82 -72l-277 -325h-71z" />
    <glyph glyph-name="acircumflex" unicode="&#xe2;" horiz-adv-x="1038" 
d="M987 70v-56q-96 -30 -158 -30q-56 0 -81 22.5t-25 73.5v55h-16q-77 -77 -158.5 -119.5t-181.5 -42.5q-130 0 -200.5 68.5t-70.5 177.5q0 67 29 119t74 83t108.5 51t124.5 27t129 7q26 0 158 -8l2 213q1 129 -65 193.5t-185 64.5q-90 0 -170 -35l-31 -221h-80
q-38 34 -38 92q0 98 107.5 166.5t244.5 68.5q142 0 234 -83t91 -238l-6 -643zM391 57q171 0 324 160l4 232h-94q-213 0 -311.5 -54t-98.5 -170q0 -80 44.5 -124t131.5 -44zM772 1227l-76 -47l-194 256h-15l-180 -248h-74l242 366h80z" />
    <glyph glyph-name="atilde" unicode="&#xe3;" horiz-adv-x="1038" 
d="M987 70v-56q-96 -30 -158 -30q-56 0 -81 22.5t-25 73.5v55h-16q-77 -77 -158.5 -119.5t-181.5 -42.5q-130 0 -200.5 68.5t-70.5 177.5q0 67 29 119t74 83t108.5 51t124.5 27t129 7q26 0 158 -8l2 213q1 129 -65 193.5t-185 64.5q-90 0 -170 -35l-31 -221h-80
q-38 34 -38 92q0 98 107.5 166.5t244.5 68.5q142 0 234 -83t91 -238l-6 -643zM391 57q171 0 324 160l4 232h-94q-213 0 -311.5 -54t-98.5 -170q0 -80 44.5 -124t131.5 -44zM745 1456l39 -35q-47 -89 -71 -118q-46 -54 -99 -54q-30 0 -77 31l-168 102l-109 -118l-39 36
q18 35 24.5 46.5t26.5 42t34.5 43.5t38 25.5t48.5 12.5q35 0 78 -28l166 -105z" />
    <glyph glyph-name="adieresis" unicode="&#xe4;" horiz-adv-x="1038" 
d="M987 70v-56q-96 -30 -158 -30q-56 0 -81 22.5t-25 73.5v55h-16q-77 -77 -158.5 -119.5t-181.5 -42.5q-130 0 -200.5 68.5t-70.5 177.5q0 67 29 119t74 83t108.5 51t124.5 27t129 7q26 0 158 -8l2 213q1 129 -65 193.5t-185 64.5q-90 0 -170 -35l-31 -221h-80
q-38 34 -38 92q0 98 107.5 166.5t244.5 68.5q142 0 234 -83t91 -238l-6 -643zM391 57q171 0 324 160l4 232h-94q-213 0 -311.5 -54t-98.5 -170q0 -80 44.5 -124t131.5 -44zM313 1452q31 0 43 -4q23 -44 23 -78q0 -46 -31 -92h-90l-18 162q27 12 73 12zM702 1452q31 0 43 -4
q23 -44 23 -78q0 -46 -31 -92h-90l-18 162q27 12 73 12z" />
    <glyph glyph-name="aring" unicode="&#xe5;" horiz-adv-x="1038" 
d="M987 70v-56q-96 -30 -158 -30q-56 0 -81 22.5t-25 73.5v55h-16q-77 -77 -158.5 -119.5t-181.5 -42.5q-130 0 -200.5 68.5t-70.5 177.5q0 67 29 119t74 83t108.5 51t124.5 27t129 7q26 0 158 -8l2 213q1 129 -65 193.5t-185 64.5q-90 0 -170 -35l-31 -221h-80
q-38 34 -38 92q0 98 107.5 166.5t244.5 68.5q142 0 234 -83t91 -238l-6 -643zM391 57q171 0 324 160l4 232h-94q-213 0 -311.5 -54t-98.5 -170q0 -80 44.5 -124t131.5 -44zM514 1577q91 0 145 -48t54 -136q0 -95 -62 -146t-155 -51q-90 0 -144.5 48.5t-54.5 135.5
q0 95 62.5 146t154.5 51zM506 1516q-55 0 -86 -35t-31 -95t30.5 -94.5t84.5 -34.5q57 0 88 36.5t31 95.5q0 58 -30.5 92.5t-86.5 34.5z" />
    <glyph glyph-name="ae" unicode="&#xe6;" horiz-adv-x="1585" 
d="M1444 186l33 -45q-142 -168 -363 -168q-243 0 -340 209h-18q-167 -209 -394 -209q-130 0 -198 68.5t-68 179.5q0 54 17 97.5t46.5 75t75 55.5t95.5 39.5t116 26t128.5 16t140.5 8.5l4 153q4 138 -65 207.5t-189 69.5q-82 0 -164 -37l-31 -219h-80q-38 38 -38 92
q0 98 105 167.5t243 69.5q126 0 200 -62.5t88 -170.5h17q38 102 125.5 166.5t214.5 64.5q160 0 242.5 -100t82.5 -264q0 -81 -14 -152h-2l-639 -30q3 -209 94 -320t234 -111q145 0 301 123zM1135 969q-129 0 -219 -110t-99 -308l543 45l2 43q0 164 -60.5 247t-166.5 83z
M393 59q181 0 352 197q-29 87 -32 225l-49 -4q-244 -20 -347.5 -77.5t-103.5 -172.5q0 -80 45.5 -124t134.5 -44z" />
    <glyph glyph-name="ccedilla" unicode="&#xe7;" horiz-adv-x="972" 
d="M852 186l31 -45q-132 -154 -326 -166v-122q172 -10 172 -125q0 -70 -55.5 -117t-149.5 -47q-113 0 -184 55l16 51q84 -35 142 -35q60 0 96.5 26t36.5 69q0 39 -33.5 55t-124.5 33l2 6l17 151q-98 5 -174 48.5t-123 115t-71 161t-24 192.5q0 246 126.5 397t330.5 151
q77 0 141.5 -21t110 -72t45.5 -126q0 -62 -37 -102h-82l-30 223q-77 27 -138 27q-156 0 -252 -121t-96 -342q0 -213 89.5 -328t238.5 -115q148 0 305 123z" />
    <glyph glyph-name="egrave" unicode="&#xe8;" horiz-adv-x="1005" 
d="M866 186l31 -45q-142 -168 -365 -168q-109 0 -193.5 42t-135.5 114.5t-77 164.5t-26 198q0 246 126.5 397t332.5 151q164 0 249 -99.5t85 -264.5q0 -70 -16 -152h-658v-14q0 -214 91.5 -330.5t246.5 -116.5q152 0 309 123zM545 969q-129 0 -218 -101t-104 -284l555 14
q2 16 2 51q0 160 -60.5 240t-174.5 80zM596 1174h-72l-260 325q35 54 86 72h35z" />
    <glyph glyph-name="eacute" unicode="&#xe9;" horiz-adv-x="1005" 
d="M866 186l31 -45q-142 -168 -365 -168q-109 0 -193.5 42t-135.5 114.5t-77 164.5t-26 198q0 246 126.5 397t332.5 151q164 0 249 -99.5t85 -264.5q0 -70 -16 -152h-658v-14q0 -214 91.5 -330.5t246.5 -116.5q152 0 309 123zM545 969q-129 0 -218 -101t-104 -284l555 14
q2 16 2 51q0 160 -60.5 240t-174.5 80zM717 1571h35q53 -23 82 -72l-277 -325h-72z" />
    <glyph glyph-name="ecircumflex" unicode="&#xea;" horiz-adv-x="1005" 
d="M866 186l31 -45q-142 -168 -365 -168q-109 0 -193.5 42t-135.5 114.5t-77 164.5t-26 198q0 246 126.5 397t332.5 151q164 0 249 -99.5t85 -264.5q0 -70 -16 -152h-658v-14q0 -214 91.5 -330.5t246.5 -116.5q152 0 309 123zM545 969q-129 0 -218 -101t-104 -284l555 14
q2 16 2 51q0 160 -60.5 240t-174.5 80zM805 1227l-76 -47l-194 256h-15l-180 -248h-74l242 366h80z" />
    <glyph glyph-name="edieresis" unicode="&#xeb;" horiz-adv-x="1005" 
d="M866 186l31 -45q-142 -168 -365 -168q-109 0 -193.5 42t-135.5 114.5t-77 164.5t-26 198q0 246 126.5 397t332.5 151q164 0 249 -99.5t85 -264.5q0 -70 -16 -152h-658v-14q0 -214 91.5 -330.5t246.5 -116.5q152 0 309 123zM545 969q-129 0 -218 -101t-104 -284l555 14
q2 16 2 51q0 160 -60.5 240t-174.5 80zM346 1452q31 0 43 -4q23 -44 23 -78q0 -46 -31 -92h-90l-19 162q27 12 74 12zM735 1452q31 0 43 -4q23 -44 23 -78q0 -46 -31 -92h-90l-18 162q27 12 73 12z" />
    <glyph glyph-name="igrave" unicode="&#xec;" horiz-adv-x="587" 
d="M539 63v-63h-455v63l164 23v834l-164 24v57q165 27 246 31l26 -8v-952zM348 1174h-72l-247 325q35 54 86 72h35z" />
    <glyph glyph-name="iacute" unicode="&#xed;" horiz-adv-x="587" 
d="M539 63v-63h-455v63l164 23v834l-164 24v57q165 27 246 31l26 -8v-952zM442 1571h35q53 -23 82 -72l-258 -325h-72z" />
    <glyph glyph-name="icircumflex" unicode="&#xee;" horiz-adv-x="587" 
d="M539 63v-63h-455v63l164 23v834l-164 24v57q165 27 246 31l26 -8v-952zM502 1237l-78 -47l-150 246h-16l-145 -238h-74l209 356h80z" />
    <glyph glyph-name="idieresis" unicode="&#xef;" horiz-adv-x="587" 
d="M539 63v-63h-455v63l164 23v834l-164 24v57q165 27 246 31l26 -8v-952zM113 1452q31 0 43 -4q22 -42 22 -78q0 -46 -31 -92h-92l-16 162q27 12 74 12zM459 1452q31 0 43 -4q24 -41 24 -78q0 -44 -32 -92h-91l-18 162q27 12 74 12z" />
    <glyph glyph-name="eth" unicode="&#xf0;" horiz-adv-x="1097" 
d="M834 1493l-209 -141q100 -78 174 -177t116 -203.5t62 -206t20 -202.5q0 -267 -128 -429.5t-337 -162.5q-191 0 -311.5 138.5t-120.5 386.5q0 236 110.5 373t293.5 137q176 0 321 -136h17q-69 238 -299 426l-189 -129l-59 33l-6 14l190 132q-118 85 -264 149l27 51
q177 -53 317 -147l211 143l57 -33zM545 45q67 0 125.5 27.5t106.5 84t76 154t28 226.5q0 124 -29 249q-67 60 -151.5 99t-170.5 39q-145 0 -227 -113t-82 -315q0 -211 88.5 -331t235.5 -120z" />
    <glyph glyph-name="ntilde" unicode="&#xf1;" horiz-adv-x="1239" 
d="M1208 61v-61h-452v61l162 25v596q0 270 -236 270q-167 0 -326 -149v-733l181 -9v-61h-453v61l164 25v836l-164 22v57q165 27 248 31l26 -8l-10 -143h14q159 159 349 159q146 0 230.5 -86t84.5 -256v-628zM864 1456l39 -35q-47 -89 -71 -118q-46 -54 -99 -54q-31 0 -78 31
l-168 102l-108 -118l-39 36q18 35 24.5 46.5t26.5 42t34.5 43.5t38 25.5t48.5 12.5q35 0 78 -28l166 -105z" />
    <glyph glyph-name="ograve" unicode="&#xf2;" horiz-adv-x="1101" 
d="M565 1040q108 0 193 -42t137 -115t79 -165.5t27 -199.5q0 -155 -54 -277.5t-160.5 -195t-249.5 -72.5q-108 0 -193 42t-137.5 114.5t-79.5 166t-27 200.5q0 155 54.5 277.5t161 194.5t249.5 72zM555 969q-149 0 -241.5 -116t-92.5 -347t89.5 -345t236.5 -114
q148 0 241 116.5t93 346.5q0 223 -87 341t-239 118zM610 1174h-71l-260 325q35 54 86 72h34z" />
    <glyph glyph-name="oacute" unicode="&#xf3;" horiz-adv-x="1101" 
d="M565 1040q108 0 193 -42t137 -115t79 -165.5t27 -199.5q0 -155 -54 -277.5t-160.5 -195t-249.5 -72.5q-108 0 -193 42t-137.5 114.5t-79.5 166t-27 200.5q0 155 54.5 277.5t161 194.5t249.5 72zM555 969q-149 0 -241.5 -116t-92.5 -347t89.5 -345t236.5 -114
q148 0 241 116.5t93 346.5q0 223 -87 341t-239 118zM731 1571h35q53 -23 82 -72l-277 -325h-71z" />
    <glyph glyph-name="ocircumflex" unicode="&#xf4;" horiz-adv-x="1101" 
d="M565 1040q108 0 193 -42t137 -115t79 -165.5t27 -199.5q0 -155 -54 -277.5t-160.5 -195t-249.5 -72.5q-108 0 -193 42t-137.5 114.5t-79.5 166t-27 200.5q0 155 54.5 277.5t161 194.5t249.5 72zM555 969q-149 0 -241.5 -116t-92.5 -347t89.5 -345t236.5 -114
q148 0 241 116.5t93 346.5q0 223 -87 341t-239 118zM819 1227l-76 -47l-194 256h-14l-181 -248h-73l241 366h80z" />
    <glyph glyph-name="otilde" unicode="&#xf5;" horiz-adv-x="1101" 
d="M565 1040q108 0 193 -42t137 -115t79 -165.5t27 -199.5q0 -155 -54 -277.5t-160.5 -195t-249.5 -72.5q-108 0 -193 42t-137.5 114.5t-79.5 166t-27 200.5q0 155 54.5 277.5t161 194.5t249.5 72zM555 969q-149 0 -241.5 -116t-92.5 -347t89.5 -345t236.5 -114
q148 0 241 116.5t93 346.5q0 223 -87 341t-239 118zM793 1456l38 -35q-1 -1 -12.5 -23.5t-14 -27t-14 -24.5t-17 -26t-17.5 -21.5t-21 -21t-21 -14t-25 -11.5t-27 -3q-31 0 -78 31l-168 102l-109 -118l-39 36q18 35 24.5 46.5t26.5 42t34.5 43.5t38 25.5t48.5 12.5
q35 0 78 -28l166 -105z" />
    <glyph glyph-name="odieresis" unicode="&#xf6;" horiz-adv-x="1101" 
d="M565 1040q108 0 193 -42t137 -115t79 -165.5t27 -199.5q0 -155 -54 -277.5t-160.5 -195t-249.5 -72.5q-108 0 -193 42t-137.5 114.5t-79.5 166t-27 200.5q0 155 54.5 277.5t161 194.5t249.5 72zM555 969q-149 0 -241.5 -116t-92.5 -347t89.5 -345t236.5 -114
q148 0 241 116.5t93 346.5q0 223 -87 341t-239 118zM360 1452q31 0 43 -4q23 -44 23 -78q0 -46 -31 -92h-90l-18 162q27 12 73 12zM750 1452q31 0 43 -4q22 -42 22 -78q0 -46 -31 -92h-90l-18 162q27 12 74 12z" />
    <glyph glyph-name="divide" unicode="&#xf7;" 
d="M639 1079q29 0 41 -4q31 -45 31 -92q0 -48 -31 -96h-111l-24 172q38 20 94 20zM1108 559h-961v84h961v-84zM639 326q29 0 41 -4q31 -45 31 -93q0 -44 -31 -96h-111l-24 174q44 19 94 19z" />
    <glyph glyph-name="oslash" unicode="&#xf8;" horiz-adv-x="1101" 
d="M958 1147l-116 -207q78 -71 118.5 -181.5t40.5 -240.5q0 -154 -55 -277t-161.5 -195.5t-247.5 -72.5q-128 0 -220 58l-104 -183l-59 25l-11 16l109 191q-74 73 -113 181.5t-39 234.5q0 237 126.5 390.5t338.5 153.5q122 0 211 -53l113 201l59 -23zM221 498
q0 -219 84 -336l424 758q-70 49 -170 49q-154 0 -246 -117t-92 -354zM543 47q152 0 245 116.5t93 352.5q0 228 -93 348l-426 -762q76 -55 181 -55z" />
    <glyph glyph-name="ugrave" unicode="&#xf9;" horiz-adv-x="1218" 
d="M1153 74v-60q-134 -21 -250 -30l-26 8l10 143h-15q-159 -162 -348 -162q-144 0 -227.5 87t-83.5 257v603l-164 24v57q166 27 246 31l27 -8v-686q0 -277 231 -277q165 0 326 154v705l-164 24v57q165 27 246 31l26 -10l2 2v-928zM629 1174h-72l-260 325q35 54 86 72h35z
" />
    <glyph glyph-name="uacute" unicode="&#xfa;" horiz-adv-x="1218" 
d="M1153 74v-60q-134 -21 -250 -30l-26 8l10 143h-15q-159 -162 -348 -162q-144 0 -227.5 87t-83.5 257v603l-164 24v57q166 27 246 31l27 -8v-686q0 -277 231 -277q165 0 326 154v705l-164 24v57q165 27 246 31l26 -10l2 2v-928zM750 1571h34q53 -23 82 -72l-276 -325h-72z
" />
    <glyph glyph-name="ucircumflex" unicode="&#xfb;" horiz-adv-x="1218" 
d="M1153 74v-60q-134 -21 -250 -30l-26 8l10 143h-15q-159 -162 -348 -162q-144 0 -227.5 87t-83.5 257v603l-164 24v57q166 27 246 31l27 -8v-686q0 -277 231 -277q165 0 326 154v705l-164 24v57q165 27 246 31l26 -10l2 2v-928zM838 1227l-76 -47l-195 256h-14l-180 -248
h-74l242 366h80z" />
    <glyph glyph-name="udieresis" unicode="&#xfc;" horiz-adv-x="1218" 
d="M1153 74v-60q-134 -21 -250 -30l-26 8l10 143h-15q-159 -162 -348 -162q-144 0 -227.5 87t-83.5 257v603l-164 24v57q166 27 246 31l27 -8v-686q0 -277 231 -277q165 0 326 154v705l-164 24v57q165 27 246 31l26 -10l2 2v-928zM379 1452q31 0 43 -4q22 -42 22 -78
q0 -47 -30 -92h-90l-19 162q27 12 74 12zM768 1452q31 0 43 -4q23 -44 23 -78q0 -46 -31 -92h-90l-19 162q27 12 74 12z" />
    <glyph glyph-name="yacute" unicode="&#xfd;" horiz-adv-x="1165" 
d="M1143 952l-142 -22q-158 -462 -387 -1018q-149 -348 -344 -348q-74 0 -114 43l10 69h217q95 109 168 293q-198 468 -377 975l-151 8v62h417v-62l-141 -22q133 -404 301 -815h16q187 477 302 829l-181 8v62h406v-62zM776 1571h35q53 -23 82 -72l-277 -325h-71z" />
    <glyph glyph-name="thorn" unicode="&#xfe;" horiz-adv-x="1169" 
d="M668 1040q184 0 285.5 -133t101.5 -358q0 -162 -53 -290.5t-162.5 -207t-261.5 -78.5q-140 0 -263 64v-375l195 -10v-62h-467v62l162 24v1764l-162 14v57q128 25 246 31l26 -10v-498q0 -59 -8 -153h15q154 159 346 159zM575 47q169 0 265 127t96 358q0 217 -81 318.5
t-218 101.5q-163 0 -322 -153v-678q122 -74 260 -74z" />
    <glyph glyph-name="ydieresis" unicode="&#xff;" horiz-adv-x="1165" 
d="M1143 952l-142 -22q-158 -462 -387 -1018q-149 -348 -344 -348q-74 0 -114 43l10 69h217q95 109 168 293q-198 468 -377 975l-151 8v62h417v-62l-141 -22q133 -404 301 -815h16q187 477 302 829l-181 8v62h406v-62zM406 1452q31 0 43 -4q22 -42 22 -78q0 -46 -31 -92h-90
l-18 162q27 12 74 12zM795 1452q31 0 43 -4q22 -42 22 -78q0 -46 -31 -92h-90l-18 162q27 12 74 12z" />
    <glyph glyph-name="Amacron" unicode="&#x100;" horiz-adv-x="1406" 
d="M1378 66v-66h-471v66l180 22q-35 116 -108 342h-586q-79 -243 -112 -356l188 -8v-66h-440v66l159 22q81 254 213 635t230 641l102 25h19q180 -465 467 -1315zM418 504h536q-165 492 -262 753h-16q-109 -299 -258 -753zM434 1683h520q7 -21 7 -45t-7 -45h-520q-6 18 -6 45
t6 45z" />
    <glyph glyph-name="amacron" unicode="&#x101;" horiz-adv-x="1038" 
d="M987 70v-56q-96 -30 -158 -30q-56 0 -81 22.5t-25 73.5v55h-16q-77 -77 -158.5 -119.5t-181.5 -42.5q-130 0 -200.5 68.5t-70.5 177.5q0 67 29 119t74 83t108.5 51t124.5 27t129 7q26 0 158 -8l2 213q1 129 -65 193.5t-185 64.5q-90 0 -170 -35l-31 -221h-80
q-38 34 -38 92q0 98 107.5 166.5t244.5 68.5q142 0 234 -83t91 -238l-6 -643zM391 57q171 0 324 160l4 232h-94q-213 0 -311.5 -54t-98.5 -170q0 -80 44.5 -124t131.5 -44zM264 1393h477q7 -25 7 -45t-7 -45h-477q-6 21 -6 45t6 45z" />
    <glyph glyph-name="Abreve" unicode="&#x102;" horiz-adv-x="1406" 
d="M1378 66v-66h-471v66l180 22q-35 116 -108 342h-586q-79 -243 -112 -356l188 -8v-66h-440v66l159 22q81 254 213 635t230 641l102 25h19q180 -465 467 -1315zM418 504h536q-165 492 -262 753h-16q-109 -299 -258 -753zM420 1722l84 31q24 -94 73.5 -140t131.5 -46
q84 0 135.5 47.5t79.5 138.5l49 -18q-22 -122 -98 -188t-191 -66q-117 0 -182.5 64.5t-81.5 176.5z" />
    <glyph glyph-name="abreve" unicode="&#x103;" horiz-adv-x="1038" 
d="M987 70v-56q-96 -30 -158 -30q-56 0 -81 22.5t-25 73.5v55h-16q-77 -77 -158.5 -119.5t-181.5 -42.5q-130 0 -200.5 68.5t-70.5 177.5q0 67 29 119t74 83t108.5 51t124.5 27t129 7q26 0 158 -8l2 213q1 129 -65 193.5t-185 64.5q-90 0 -170 -35l-31 -221h-80
q-38 34 -38 92q0 98 107.5 166.5t244.5 68.5q142 0 234 -83t91 -238l-6 -643zM391 57q171 0 324 160l4 232h-94q-213 0 -311.5 -54t-98.5 -170q0 -80 44.5 -124t131.5 -44zM246 1481l84 30q30 -204 184 -204q80 0 127.5 51.5t69.5 152.5l49 -18q-18 -133 -89.5 -202.5
t-181.5 -69.5t-172 68.5t-71 191.5z" />
    <glyph glyph-name="Aogonek" unicode="&#x104;" horiz-adv-x="1406" 
d="M1378 0h-295q-116 -125 -116 -231q0 -134 147 -134q67 0 131 31l17 -53q-66 -49 -172 -49q-107 0 -164.5 48t-57.5 134q0 177 226 326q-9 26 -50 153.5t-67 204.5h-586q-79 -243 -112 -356l190 -8v-66h-440v66l159 22q81 254 213 635t230 641l100 25h21
q202 -523 465 -1315l161 -8v-66zM416 504h536q-165 492 -262 753h-14q-104 -278 -260 -753z" />
    <glyph glyph-name="aogonek" unicode="&#x105;" horiz-adv-x="1038" 
d="M987 72v-58q-123 -19 -210 -93.5t-87 -170.5q0 -59 36 -87t97 -28q65 0 138 31l16 -53q-66 -49 -178 -49q-104 0 -155.5 46.5t-51.5 125.5q0 77 42.5 138t104.5 97l-16 164h-16q-77 -77 -159 -119.5t-183 -42.5q-129 0 -199 68.5t-70 177.5q0 67 29 119t74 83t108.5 51
t124.5 27t129 7q26 0 158 -8l2 213q1 129 -65 193.5t-185 64.5q-90 0 -170 -35l-31 -221h-80q-38 34 -38 92q0 98 107.5 166.5t244.5 68.5q143 0 234.5 -83.5t90.5 -237.5l-6 -643zM391 57q171 0 324 160l4 232h-94q-213 0 -311.5 -54t-98.5 -170q0 -80 44.5 -124t131.5 -44
z" />
    <glyph glyph-name="Cacute" unicode="&#x106;" horiz-adv-x="1269" 
d="M1114 199l33 -52q-163 -174 -424 -174q-120 0 -220 36.5t-170.5 100.5t-119.5 152.5t-72.5 191.5t-23.5 218q0 153 42 283.5t121.5 227t201.5 151.5t274 55q188 0 352 -78q8 -52 8 -117q0 -83 -12 -197h-76l-29 267q-115 45 -239 45q-235 0 -375.5 -160t-140.5 -463
q0 -301 137.5 -460.5t366.5 -159.5q194 0 366 133zM889 1829h35q55 -25 80 -70l-252 -278h-76z" />
    <glyph glyph-name="cacute" unicode="&#x107;" horiz-adv-x="972" 
d="M852 186l31 -45q-145 -168 -363 -168q-104 0 -186 42t-132 114.5t-76 164.5t-26 198q0 246 126.5 397t330.5 151q77 0 141.5 -21t110 -72t45.5 -126q0 -62 -37 -102h-82l-30 223q-77 27 -138 27q-156 0 -252 -121t-96 -342q0 -213 89.5 -328t238.5 -115q148 0 305 123z
M715 1571h35q52 -22 81 -72l-276 -325h-72z" />
    <glyph glyph-name="Ccircumflex" unicode="&#x108;" horiz-adv-x="1269" 
d="M1114 199l33 -52q-163 -174 -424 -174q-120 0 -220 36.5t-170.5 100.5t-119.5 152.5t-72.5 191.5t-23.5 218q0 153 42 283.5t121.5 227t201.5 151.5t274 55q188 0 352 -78q8 -52 8 -117q0 -83 -12 -197h-76l-29 267q-115 45 -239 45q-235 0 -375.5 -160t-140.5 -463
q0 -301 137.5 -460.5t366.5 -159.5q194 0 366 133zM1008 1518l-78 -52l-213 222h-17l-200 -207h-78l268 325h80z" />
    <glyph glyph-name="ccircumflex" unicode="&#x109;" horiz-adv-x="972" 
d="M852 186l31 -45q-145 -168 -363 -168q-104 0 -186 42t-132 114.5t-76 164.5t-26 198q0 246 126.5 397t330.5 151q77 0 141.5 -21t110 -72t45.5 -126q0 -62 -37 -102h-82l-30 223q-77 27 -138 27q-156 0 -252 -121t-96 -342q0 -213 89.5 -328t238.5 -115q148 0 305 123z
M803 1227l-76 -47l-195 256h-14l-180 -248h-74l242 366h80z" />
    <glyph glyph-name="Cdotaccent" unicode="&#x10a;" horiz-adv-x="1269" 
d="M1114 199l33 -52q-163 -174 -424 -174q-120 0 -220 36.5t-170.5 100.5t-119.5 152.5t-72.5 191.5t-23.5 218q0 153 42 283.5t121.5 227t201.5 151.5t274 55q188 0 352 -78q8 -52 8 -117q0 -83 -12 -197h-76l-29 267q-115 45 -239 45q-235 0 -375.5 -160t-140.5 -463
q0 -301 137.5 -460.5t366.5 -159.5q194 0 366 133zM719 1735q23 0 47 -6q25 -42 25 -84q0 -57 -37 -107h-99l-16 182q34 15 80 15z" />
    <glyph glyph-name="cdotaccent" unicode="&#x10b;" horiz-adv-x="972" 
d="M852 186l31 -45q-145 -168 -363 -168q-104 0 -186 42t-132 114.5t-76 164.5t-26 198q0 246 126.5 397t330.5 151q77 0 141.5 -21t110 -72t45.5 -126q0 -62 -37 -102h-82l-30 223q-77 27 -138 27q-156 0 -252 -121t-96 -342q0 -213 89.5 -328t238.5 -115q148 0 305 123z
M543 1475q15 0 43 -7q24 -46 24 -82q0 -56 -37 -106h-96l-18 182q59 13 84 13z" />
    <glyph glyph-name="Ccaron" unicode="&#x10c;" horiz-adv-x="1269" 
d="M1114 199l33 -52q-163 -174 -424 -174q-120 0 -220 36.5t-170.5 100.5t-119.5 152.5t-72.5 191.5t-23.5 218q0 153 42 283.5t121.5 227t201.5 151.5t274 55q188 0 352 -78q8 -52 8 -117q0 -83 -12 -197h-76l-29 267q-115 45 -239 45q-235 0 -375.5 -160t-140.5 -463
q0 -301 137.5 -460.5t366.5 -159.5q194 0 366 133zM719 1599h14l203 207h80l-271 -325h-79l-238 288l76 52z" />
    <glyph glyph-name="ccaron" unicode="&#x10d;" horiz-adv-x="972" 
d="M852 186l31 -45q-145 -168 -363 -168q-104 0 -186 42t-132 114.5t-76 164.5t-26 198q0 246 126.5 397t330.5 151q77 0 141.5 -21t110 -72t45.5 -126q0 -62 -37 -102h-82l-30 223q-77 27 -138 27q-156 0 -252 -121t-96 -342q0 -213 89.5 -328t238.5 -115q148 0 305 123z
M537 1307h16l180 247h72l-240 -364h-82l-217 328l78 47z" />
    <glyph glyph-name="Dcaron" unicode="&#x10e;" horiz-adv-x="1396" 
d="M586 1370q146 1 263 -33t197 -94.5t133 -146.5t77 -186.5t24 -217.5q0 -153 -39.5 -276.5t-120.5 -218t-215 -146t-313 -51.5h-486v66l189 22v1200l-189 8v66q218 8 480 8zM412 76h182q274 0 416.5 152.5t142.5 463.5q0 290 -136.5 446t-400.5 156h-204v-1218zM676 1599
h14l203 207h80l-271 -325h-79l-238 288l76 52z" />
    <glyph glyph-name="dcaron" unicode="&#x10f;" horiz-adv-x="1339" 
d="M963 1532v-1436l163 -22v-60q-131 -21 -247 -30l-27 8l10 141h-16q-155 -160 -346 -160q-183 0 -284 133.5t-101 360.5q0 120 31 224t90 182t150 122.5t204 44.5q139 0 264 -61v461l-164 14v57q127 25 248 31zM590 969q-167 0 -263 -128.5t-96 -359.5q0 -216 81.5 -318
t219.5 -102q87 0 163.5 39.5t156.5 114.5v680q-59 37 -130 55.5t-132 18.5zM1239 1542q44 0 76 -20q-3 -106 -30 -200t-83 -198h-57l47 250v162q12 6 47 6z" />
    <glyph glyph-name="Dcroat" unicode="&#x110;" horiz-adv-x="1417" 
d="M604 1370q147 1 264 -33t197 -94.5t133.5 -146.5t77.5 -186t24 -218q0 -153 -39.5 -276.5t-120.5 -218t-215 -146t-313 -51.5h-487v66l190 22v580h-190v75h190v545l-190 8v66q222 8 479 8zM432 76h180q276 0 419 152.5t143 463.5q0 290 -136.5 446t-402.5 156h-203v-551
h318v-75h-318v-592z" />
    <glyph glyph-name="dcroat" unicode="&#x111;" horiz-adv-x="1191" 
d="M963 1280v-1184l163 -22v-60q-131 -21 -247 -30l-27 8l10 141h-16q-155 -160 -346 -160q-183 0 -284 133.5t-101 360.5q0 120 31 224t90 182t150 122.5t204 44.5q137 0 264 -61v301h-315v72h315v174q9 2 84 18l25 -8v-184h198v-72h-198zM852 215v680q-58 37 -128.5 55.5
t-133.5 18.5q-167 0 -263 -128.5t-96 -359.5q0 -216 81.5 -318t219.5 -102q87 0 163.5 39.5t156.5 114.5z" />
    <glyph glyph-name="Emacron" unicode="&#x112;" horiz-adv-x="1234" 
d="M1014 307l76 -6q6 -58 6 -111q0 -80 -21 -190h-969v66l189 22v1200l-189 8v66h973q8 -52 8 -129q0 -88 -10 -170h-76l-22 215l-567 12v-573h346l18 147h64v-379h-64l-20 156h-344v-569l565 12zM367 1683h520q6 -18 6 -45t-6 -45h-520q-7 21 -7 45t7 45z" />
    <glyph glyph-name="emacron" unicode="&#x113;" horiz-adv-x="1005" 
d="M866 186l31 -45q-142 -168 -365 -168q-109 0 -193.5 42t-135.5 114.5t-77 164.5t-26 198q0 246 126.5 397t332.5 151q164 0 249 -99.5t85 -264.5q0 -70 -16 -152h-658v-14q0 -214 91.5 -330.5t246.5 -116.5q152 0 309 123zM545 969q-129 0 -218 -101t-104 -284l555 14
q2 16 2 51q0 160 -60.5 240t-174.5 80zM297 1393h477q6 -21 6 -45t-6 -45h-477q-6 21 -6 45t6 45z" />
    <glyph glyph-name="Ebreve" unicode="&#x114;" horiz-adv-x="1234" 
d="M1014 307l76 -6q6 -58 6 -111q0 -80 -21 -190h-969v66l189 22v1200l-189 8v66h973q8 -52 8 -129q0 -88 -10 -170h-76l-22 215l-567 12v-573h346l18 147h64v-379h-64l-20 156h-344v-569l565 12zM352 1722l84 31q24 -94 73.5 -140t131.5 -46q84 0 135.5 47.5t79.5 138.5
l49 -18q-22 -122 -98 -188t-191 -66q-117 0 -182.5 64.5t-81.5 176.5z" />
    <glyph glyph-name="ebreve" unicode="&#x115;" horiz-adv-x="1005" 
d="M866 186l31 -45q-142 -168 -365 -168q-109 0 -193.5 42t-135.5 114.5t-77 164.5t-26 198q0 246 126.5 397t332.5 151q164 0 249 -99.5t85 -264.5q0 -70 -16 -152h-658v-14q0 -214 91.5 -330.5t246.5 -116.5q152 0 309 123zM545 969q-129 0 -218 -101t-104 -284l555 14
q2 16 2 51q0 160 -60.5 240t-174.5 80zM279 1481l83 30q30 -204 185 -204q80 0 127 51.5t69 152.5l50 -18q-18 -133 -89.5 -202.5t-181.5 -69.5t-172 68.5t-71 191.5z" />
    <glyph glyph-name="Edotaccent" unicode="&#x116;" horiz-adv-x="1234" 
d="M1014 307l76 -6q6 -58 6 -111q0 -80 -21 -190h-969v66l189 22v1200l-189 8v66h973q8 -52 8 -129q0 -88 -10 -170h-76l-22 215l-567 12v-573h346l18 147h64v-379h-64l-20 156h-344v-569l565 12zM627 1735q23 0 47 -6q24 -40 24 -84q0 -58 -36 -107h-99l-16 182
q34 15 80 15z" />
    <glyph glyph-name="edotaccent" unicode="&#x117;" horiz-adv-x="1005" 
d="M866 186l31 -45q-142 -168 -365 -168q-109 0 -193.5 42t-135.5 114.5t-77 164.5t-26 198q0 246 126.5 397t332.5 151q164 0 249 -99.5t85 -264.5q0 -70 -16 -152h-658v-14q0 -214 91.5 -330.5t246.5 -116.5q152 0 309 123zM545 969q-129 0 -218 -101t-104 -284l555 14
q2 16 2 51q0 160 -60.5 240t-174.5 80zM545 1475q15 0 43 -7q24 -46 24 -82q0 -56 -37 -106h-96l-18 182q58 13 84 13z" />
    <glyph glyph-name="Eogonek" unicode="&#x118;" horiz-adv-x="1234" 
d="M936 -365q60 0 129 31l14 -53q-60 -49 -168 -49q-106 0 -160.5 47t-54.5 125q0 134 160 248v16h-750v66l189 22v1200l-189 8v66h973q8 -52 8 -129q0 -88 -10 -170h-76l-22 215l-567 12v-573h346l18 147h64v-379h-64l-20 156h-344v-569l565 12l37 223l76 -6q6 -58 6 -111
q0 -80 -21 -190h-137q-72 -74 -107.5 -130.5t-35.5 -113.5q0 -62 39 -91.5t102 -29.5z" />
    <glyph glyph-name="eogonek" unicode="&#x119;" horiz-adv-x="1005" 
d="M741 -365q65 0 129 31l17 -53q-63 -49 -172 -49q-106 0 -159.5 46t-53.5 120q0 68 42 134.5t107 115.5l-4 14q-58 -21 -123 -21q-105 0 -187.5 42t-133.5 115t-77 165.5t-26 198.5q0 244 126.5 395t332.5 151q164 0 249 -99.5t85 -264.5q0 -70 -16 -152h-658v-14
q0 -214 91.5 -330.5t246.5 -116.5q152 0 309 123l31 -45q-27 -29 -86 -78q-40 -36 -63.5 -57.5t-55.5 -56t-49 -61.5t-30 -60.5t-13 -65.5q0 -64 38 -95.5t103 -31.5zM545 969q-129 0 -218 -101t-104 -284l555 14q2 16 2 51q0 160 -60.5 240t-174.5 80z" />
    <glyph glyph-name="Ecaron" unicode="&#x11a;" horiz-adv-x="1234" 
d="M1014 307l76 -6q6 -58 6 -111q0 -80 -21 -190h-969v66l189 22v1200l-189 8v66h973q8 -52 8 -129q0 -88 -10 -170h-76l-22 215l-567 12v-573h346l18 147h64v-379h-64l-20 156h-344v-569l565 12zM627 1599h14l203 207h80l-271 -325h-80l-237 288l76 52z" />
    <glyph glyph-name="ecaron" unicode="&#x11b;" horiz-adv-x="1005" 
d="M866 186l31 -45q-142 -168 -365 -168q-109 0 -193.5 42t-135.5 114.5t-77 164.5t-26 198q0 246 126.5 397t332.5 151q164 0 249 -99.5t85 -264.5q0 -70 -16 -152h-658v-14q0 -214 91.5 -330.5t246.5 -116.5q152 0 309 123zM545 969q-129 0 -218 -101t-104 -284l555 14
q2 16 2 51q0 160 -60.5 240t-174.5 80zM539 1307h16l180 247h72l-240 -364h-82l-217 328l78 47z" />
    <glyph glyph-name="Gcircumflex" unicode="&#x11c;" horiz-adv-x="1366" 
d="M1270 569v-63l-135 -25v-428q-181 -80 -390 -80q-156 0 -277.5 54t-197 149t-114.5 220t-39 272q0 209 75 370.5t224 256t352 94.5q187 0 356 -80q6 -59 6 -117q0 -91 -10 -176h-78l-24 239q-111 54 -250 54q-114 0 -209 -39t-165.5 -115.5t-110 -198t-39.5 -278.5
q0 -155 38 -275.5t107 -196.5t161.5 -114.5t203.5 -38.5q151 0 280 60l-18 385l-238 8v63h492zM985 1518l-78 -52l-213 222h-16l-201 -207h-78l269 325h80z" />
    <glyph glyph-name="gcircumflex" unicode="&#x11d;" horiz-adv-x="1050" 
d="M883 1034l-84 -104q86 -92 86 -236q0 -160 -111 -265t-291 -105q-65 0 -114 14v-180l221 -33q219 -38 305 -88.5t86 -149.5q0 -101 -78.5 -176t-201.5 -111t-271 -36q-362 0 -362 243q0 101 59.5 174.5t153.5 102.5q3 113 24 276q-92 43 -139 126.5t-47 185.5
q0 158 110.5 263t290.5 105q150 0 244 -75q33 93 69.5 145.5t94.5 52.5q41 0 69 -28l-8 -80zM498 395q128 0 200 79t72 214q0 129 -67 205t-193 76q-130 0 -202 -78t-72 -211q0 -128 67 -206.5t195 -78.5zM532 27l-221 36q-125 -115 -125 -231q0 -97 71 -147t208 -50
q70 0 140.5 13t134 38t103.5 69t40 100q0 42 -27.5 70t-104 53t-219.5 49zM758 1227l-76 -47l-195 256h-14l-180 -248h-74l242 366h80z" />
    <glyph glyph-name="Gbreve" unicode="&#x11e;" horiz-adv-x="1366" 
d="M1270 569v-63l-135 -25v-428q-181 -80 -390 -80q-156 0 -277.5 54t-197 149t-114.5 220t-39 272q0 209 75 370.5t224 256t352 94.5q187 0 356 -80q6 -59 6 -117q0 -91 -10 -176h-78l-24 239q-111 54 -250 54q-114 0 -209 -39t-165.5 -115.5t-110 -198t-39.5 -278.5
q0 -155 38 -275.5t107 -196.5t161.5 -114.5t203.5 -38.5q151 0 280 60l-18 385l-238 8v63h492zM422 1722l84 31q24 -94 73.5 -140t131.5 -46q84 0 135.5 47.5t79.5 138.5l49 -18q-22 -122 -98 -188t-191 -66q-117 0 -182.5 64.5t-81.5 176.5z" />
    <glyph glyph-name="gbreve" unicode="&#x11f;" horiz-adv-x="1050" 
d="M883 1034l-84 -104q86 -92 86 -236q0 -160 -111 -265t-291 -105q-65 0 -114 14v-180l221 -33q219 -38 305 -88.5t86 -149.5q0 -101 -78.5 -176t-201.5 -111t-271 -36q-362 0 -362 243q0 101 59.5 174.5t153.5 102.5q3 113 24 276q-92 43 -139 126.5t-47 185.5
q0 158 110.5 263t290.5 105q150 0 244 -75q33 93 69.5 145.5t94.5 52.5q41 0 69 -28l-8 -80zM498 395q128 0 200 79t72 214q0 129 -67 205t-193 76q-130 0 -202 -78t-72 -211q0 -128 67 -206.5t195 -78.5zM532 27l-221 36q-125 -115 -125 -231q0 -97 71 -147t208 -50
q70 0 140.5 13t134 38t103.5 69t40 100q0 42 -27.5 70t-104 53t-219.5 49zM231 1481l84 30q30 -204 185 -204q80 0 127 51.5t69 152.5l49 -18q-18 -133 -89 -202.5t-181 -69.5t-172.5 68.5t-71.5 191.5z" />
    <glyph glyph-name="Gdotaccent" unicode="&#x120;" horiz-adv-x="1366" 
d="M1270 569v-63l-135 -25v-428q-181 -80 -390 -80q-156 0 -277.5 54t-197 149t-114.5 220t-39 272q0 209 75 370.5t224 256t352 94.5q187 0 356 -80q6 -59 6 -117q0 -91 -10 -176h-78l-24 239q-111 54 -250 54q-114 0 -209 -39t-165.5 -115.5t-110 -198t-39.5 -278.5
q0 -155 38 -275.5t107 -196.5t161.5 -114.5t203.5 -38.5q151 0 280 60l-18 385l-238 8v63h492zM696 1735q23 0 47 -6q25 -42 25 -84q0 -57 -37 -107h-98l-17 182q34 15 80 15z" />
    <glyph glyph-name="gdotaccent" unicode="&#x121;" horiz-adv-x="1050" 
d="M883 1034l-84 -104q86 -92 86 -236q0 -160 -111 -265t-291 -105q-65 0 -114 14v-180l221 -33q219 -38 305 -88.5t86 -149.5q0 -101 -78.5 -176t-201.5 -111t-271 -36q-362 0 -362 243q0 101 59.5 174.5t153.5 102.5q3 113 24 276q-92 43 -139 126.5t-47 185.5
q0 158 110.5 263t290.5 105q150 0 244 -75q33 93 69.5 145.5t94.5 52.5q41 0 69 -28l-8 -80zM498 395q128 0 200 79t72 214q0 129 -67 205t-193 76q-130 0 -202 -78t-72 -211q0 -128 67 -206.5t195 -78.5zM532 27l-221 36q-125 -115 -125 -231q0 -97 71 -147t208 -50
q70 0 140.5 13t134 38t103.5 69t40 100q0 42 -27.5 70t-104 53t-219.5 49zM498 1475q15 0 43 -7q24 -46 24 -82q0 -56 -37 -106h-96l-18 182q58 13 84 13z" />
    <glyph glyph-name="Gcommaaccent" unicode="&#x122;" horiz-adv-x="1366" 
d="M1270 569v-63l-135 -25v-428q-181 -80 -390 -80q-156 0 -277.5 54t-197 149t-114.5 220t-39 272q0 209 75 370.5t224 256t352 94.5q187 0 356 -80q6 -59 6 -117q0 -91 -10 -176h-78l-24 239q-111 54 -250 54q-114 0 -209 -39t-165.5 -115.5t-110 -198t-39.5 -278.5
q0 -155 38 -275.5t107 -196.5t161.5 -114.5t203.5 -38.5q151 0 280 60l-18 385l-238 8v63h492zM694 -121q38 0 60 -10q26 -50 26 -111q0 -85 -45 -150.5t-121 -103.5l-26 37q55 43 86 85.5t31 94.5q0 6 -5 41l-73 11l-2 96q33 10 69 10z" />
    <glyph glyph-name="gcommaaccent" unicode="&#x123;" horiz-adv-x="1050" 
d="M883 1034l-84 -104q86 -92 86 -236q0 -160 -111 -265t-291 -105q-65 0 -114 14v-180l221 -33q219 -38 305 -88.5t86 -149.5q0 -101 -78.5 -176t-201.5 -111t-271 -36q-362 0 -362 243q0 101 59.5 174.5t153.5 102.5q3 113 24 276q-92 43 -139 126.5t-47 185.5
q0 158 110.5 263t290.5 105q150 0 244 -75q33 93 69.5 145.5t94.5 52.5q41 0 69 -28l-8 -80zM498 395q128 0 200 79t72 214q0 129 -67 205t-193 76q-130 0 -202 -78t-72 -211q0 -128 67 -206.5t195 -78.5zM532 27l-221 36q-125 -115 -125 -231q0 -97 71 -147t208 -50
q70 0 140.5 13t134 38t103.5 69t40 100q0 42 -27.5 70t-104 53t-219.5 49zM565 1573l25 -37q-57 -46 -87 -86t-30 -92q0 -27 4 -41l72 -10l2 -97q-33 -10 -70 -10t-57 10q-29 56 -29 111q0 86 45.5 149.5t124.5 102.5z" />
    <glyph glyph-name="Hcircumflex" unicode="&#x124;" horiz-adv-x="1552" 
d="M1257 1274v-1200l189 -8v-66h-494v66l189 22v578h-729v-592l206 -8v-66h-512v66l189 22v1200l-189 8v66h512v-66l-206 -22v-531h729v545l-199 8v66h504v-66zM1075 1518l-78 -52l-213 222h-16l-201 -207h-78l269 325h80z" />
    <glyph glyph-name="hcircumflex" unicode="&#x125;" horiz-adv-x="1220" 
d="M889 1579l-78 -51l-188 203h-17l-164 -189h-73l225 291h82zM338 1450v-416q0 -59 -8 -153h16q159 159 346 159q146 0 230 -86t84 -256v-626l182 -9v-63h-455v63l162 23v594q0 272 -231 272q-162 0 -326 -151v-729l182 -9v-63h-454v63l163 23v1272l-161 14v58
q121 24 243 30z" />
    <glyph glyph-name="Hbar" unicode="&#x126;" horiz-adv-x="1570" 
d="M1266 942v-868l188 -8v-66h-502v66l197 22v524h-727v-538l207 -8v-66h-512v66l188 22v854h-246v72h246v274l-188 8v66h512v-66l-207 -22v-260h727v274l-199 8v66h504v-66l-188 -22v-260h245v-72h-245zM1149 942h-727v-254h727v254z" />
    <glyph glyph-name="hbar" unicode="&#x127;" horiz-adv-x="1220" 
d="M1190 63v-63h-455v63l160 23v594q0 272 -229 272q-164 0 -328 -151v-729l182 -9v-63h-454v63l163 23v1194h-198v72h198v172q47 13 84 18l25 -6v-184h330v-72h-330v-246q0 -59 -8 -153h16q159 159 348 159q145 0 228.5 -86t83.5 -256v-626z" />
    <glyph glyph-name="Itilde" unicode="&#x128;" horiz-adv-x="706" 
d="M412 1274v-1200l188 -8v-66h-494v66l189 22v1200l-189 8v66h494v-66zM612 1724l39 -36q-1 -2 -13 -24t-14.5 -26.5t-14 -24t-17 -25t-17 -20.5t-20 -20t-20.5 -13t-25 -10.5t-27 -2.5q-38 0 -86 26l-192 109l-111 -119l-39 37q47 88 74 118q43 45 94 46q39 0 86 -27
l195 -106z" />
    <glyph glyph-name="itilde" unicode="&#x129;" horiz-adv-x="587" 
d="M539 63v-63h-455v63l164 23v834l-164 24v57q165 27 246 31l26 -8v-952zM498 1456l37 -35q-76 -172 -164 -172q-31 0 -72 33l-129 102l-104 -120l-37 36q12 26 21.5 44.5t26 44t33 42t39 28t46.5 11.5q32 0 69 -30l129 -105z" />
    <glyph glyph-name="Imacron" unicode="&#x12a;" horiz-adv-x="706" 
d="M412 1274v-1200l188 -8v-66h-494v66l189 22v1200l-189 8v66h494v-66zM96 1683h520q7 -21 7 -45t-7 -45h-520q-6 18 -6 45t6 45z" />
    <glyph glyph-name="imacron" unicode="&#x12b;" horiz-adv-x="587" 
d="M539 63v-63h-455v63l164 23v834l-164 24v57q165 27 246 31l26 -8v-952zM76 1393h409q7 -25 7 -45t-7 -45h-409q-6 21 -6 45t6 45z" />
    <glyph glyph-name="Ibreve" unicode="&#x12c;" horiz-adv-x="706" 
d="M412 1274v-1200l188 -8v-66h-494v66l189 22v1200l-189 8v66h494v-66zM82 1722l84 31q24 -94 73.5 -140t131.5 -46q84 0 135.5 47.5t79.5 138.5l49 -18q-22 -122 -98 -188t-191 -66q-117 0 -182.5 64.5t-81.5 176.5z" />
    <glyph glyph-name="ibreve" unicode="&#x12d;" horiz-adv-x="587" 
d="M539 63v-63h-455v63l164 23v834l-164 24v57q165 27 246 31l26 -8v-952zM457 1509l49 -20q-13 -131 -74 -199.5t-160 -68.5q-102 0 -156.5 68t-60.5 190l84 30q11 -99 48 -150.5t108 -51.5q72 0 110 52t52 150z" />
    <glyph glyph-name="Iogonek" unicode="&#x12e;" horiz-adv-x="706" 
d="M412 1274v-1200l188 -11v-65q-137 -52 -214 -113t-77 -139q0 -56 39 -83.5t101 -27.5q63 0 131 31l14 -53q-63 -49 -170 -49q-106 0 -159.5 44.5t-53.5 115.5q0 85 66.5 151.5t164.5 108.5v16h-336v66l189 24v1198l-189 8v66h494v-66z" />
    <glyph glyph-name="iogonek" unicode="&#x12f;" horiz-adv-x="587" 
d="M227 1280l-18 182q58 13 84 13q15 0 43 -7q24 -46 24 -82q0 -57 -36 -106h-97zM539 63v-65q-283 -105 -283 -248q0 -54 38 -84.5t101 -30.5q56 0 121 27l14 -53q-60 -45 -161 -45q-104 0 -156.5 49t-52.5 121q0 82 63 145.5t156 104.5v16h-295v61l164 25v834l-164 24v57
q165 27 246 31l26 -8v-952z" />
    <glyph glyph-name="Idotaccent" unicode="&#x130;" horiz-adv-x="706" 
d="M412 1274v-1200l188 -8v-66h-494v66l189 22v1200l-189 8v66h494v-66zM367 1733q15 0 43 -7q24 -46 24 -81q0 -57 -37 -107h-96l-18 182q59 13 84 13z" />
    <glyph glyph-name="dotlessi" unicode="&#x131;" horiz-adv-x="587" 
d="M539 63v-63h-455v63l164 23v834l-164 24v57q165 27 246 31l26 -8v-952z" />
    <glyph glyph-name="IJ" unicode="&#x132;" horiz-adv-x="1654" 
d="M1591 1362v-66l-190 -22v-901q0 -111 -29 -191.5t-79.5 -124.5t-109.5 -64t-128 -20q-133 0 -209 64t-76 162q0 65 41 112h84l25 -229q62 -29 127 -29q237 0 237 299v936l-274 8v66h581zM412 1274v-1200l188 -8v-66h-494v66l189 22v1200l-189 8v66h494v-66z" />
    <glyph glyph-name="ij" unicode="&#x133;" horiz-adv-x="1130" 
d="M539 63v-63h-455v63l164 23v834l-164 24v57q165 27 246 31l26 -8v-952zM926 1024v-1092q0 -124 -44 -193t-192 -165l-41 43l168 193v1110l-164 24v57q165 27 248 31zM864 1464q19 0 43 -6q25 -48 25 -82q0 -56 -37 -106h-96l-19 182q54 12 84 12zM295 1464q19 0 43 -6
q24 -46 24 -82q0 -57 -36 -106h-97l-18 182q54 12 84 12z" />
    <glyph glyph-name="Jcircumflex" unicode="&#x134;" horiz-adv-x="948" 
d="M885 1362v-66l-191 -22v-901q0 -111 -29 -191.5t-79.5 -124.5t-109.5 -64t-128 -20q-133 0 -209 64t-76 162q0 65 41 112h84l25 -229q62 -29 127 -29q238 0 238 299v936l-275 8v66h582zM897 1518l-78 -52l-213 222h-16l-201 -207h-78l269 325h79z" />
    <glyph glyph-name="jcircumflex" unicode="&#x135;" horiz-adv-x="542" 
d="M338 1024v-1092q0 -124 -44 -193t-192 -165l-41 43l168 193v1110l-163 24v57q165 27 247 31zM483 1237l-77 -47l-150 246h-16l-146 -238h-74l209 356h80z" />
    <glyph glyph-name="Kcommaaccent" unicode="&#x136;" horiz-adv-x="1357" 
d="M1290 53l-6 -49q-62 -20 -108 -20q-67 0 -107.5 29t-89.5 102q-47 69 -162.5 268.5t-167.5 280.5h-237v-590l206 -8v-66h-512v66l189 22v1200l-189 8v66h492v-66l-186 -22v-533h243q164 225 365 547l-205 8v66h471v-66l-158 -20q-191 -279 -397 -541
q74 -108 219.5 -337.5t202.5 -315.5zM705 -121q37 0 59 -10q27 -52 27 -111q0 -85 -45 -150.5t-121 -103.5l-27 37q55 43 86 85.5t31 94.5q0 13 -4 41l-74 11l-2 96q33 10 70 10z" />
    <glyph glyph-name="kcommaaccent" unicode="&#x137;" horiz-adv-x="1134" 
d="M1104 47l-6 -45q-50 -18 -109 -18q-57 0 -92 22.5t-78 85.5q-19 26 -110 167.5t-160 244.5h-209v-432l170 -9v-63h-444v63l163 23v1356l-161 14v57q137 23 247 29l25 -10v-957h192q180 210 302 369l-191 8v62h412v-62l-127 -22q-131 -164 -312 -355q144 -191 359 -505z
M606 -121q38 0 60 -10q26 -50 26 -111q0 -85 -45 -150.5t-121 -103.5l-26 37q55 43 85.5 85.5t30.5 94.5q0 13 -4 41l-73 11l-2 96q33 10 69 10z" />
    <glyph glyph-name="kgreenlandic" unicode="&#x138;" horiz-adv-x="1150" 
d="M1120 47l-4 -45q-50 -18 -108 -18q-57 0 -92 22.5t-78 85.5q-16 23 -107 163.5t-164 248.5h-211v-432l172 -9v-63h-444v63l164 23v836l-164 22v57q152 26 248 31l24 -10v-447h195q171 199 301 369l-190 8v62h411v-62l-127 -22q-136 -171 -311 -355q133 -176 358 -505z
" />
    <glyph glyph-name="Lacute" unicode="&#x139;" horiz-adv-x="1124" 
d="M1034 186q0 -100 -18 -186h-2h-908v66l189 22v1200l-189 8v66h531v-66l-225 -22v-1202l499 12l41 233l76 -6q6 -62 6 -125zM559 1829h35q55 -25 80 -70l-252 -278h-76z" />
    <glyph glyph-name="lacute" unicode="&#x13a;" horiz-adv-x="569" 
d="M336 1542h-76l150 289h34q55 -25 80 -70zM340 72l180 -9v-63h-454v63l163 23v1272l-161 12v62q129 22 245 28l27 -10v-1378z" />
    <glyph glyph-name="Lcommaaccent" unicode="&#x13b;" horiz-adv-x="1124" 
d="M1034 186q0 -100 -18 -186h-2h-908v66l189 22v1200l-189 8v66h531v-66l-225 -22v-1202l499 12l41 233l76 -6q6 -62 6 -125zM565 -121q37 0 60 -10q26 -50 26 -111q0 -85 -45 -150.5t-121 -103.5l-26 37q55 43 85.5 85.5t30.5 94.5q0 13 -4 41l-73 11l-2 96q33 10 69 10z
" />
    <glyph glyph-name="lcommaaccent" unicode="&#x13c;" horiz-adv-x="569" 
d="M520 63v-63h-454v63l163 23v1354l-161 12v61q138 23 245 29l27 -10v-1460zM270 -121q38 0 60 -10q26 -50 26 -111q0 -85 -45 -150.5t-121 -103.5l-26 37q55 43 86 85.5t31 94.5q0 6 -5 41l-73 11l-2 96q33 10 69 10z" />
    <glyph glyph-name="Lcaron" unicode="&#x13d;" horiz-adv-x="1124" 
d="M1034 186q0 -100 -18 -186h-2h-908v66l189 22v1200l-189 8v66h531v-66l-225 -22v-1202l499 12l41 233l76 -6q6 -62 6 -125zM934 1399q42 0 76 -21q-3 -106 -30 -199.5t-83 -197.5h-57l47 250v162q12 6 47 6z" />
    <glyph glyph-name="lcaron" unicode="&#x13e;" horiz-adv-x="720" 
d="M520 63v-63h-454v63l163 23v1354l-161 12v61q138 23 245 29l27 -10v-1460zM621 1542q43 0 75 -20q-3 -107 -29.5 -201t-82.5 -197h-58l47 250v162q12 6 48 6z" />
    <glyph glyph-name="Ldot" unicode="&#x13f;" horiz-adv-x="1093" 
d="M905 870q26 0 47 -6q25 -42 25 -82q0 -54 -35 -108h-98l-17 184q36 12 78 12zM1034 186q0 -100 -18 -186h-2h-908v66l189 22v1200l-189 8v66h531v-66l-225 -22v-1202l499 12l41 233l76 -6q6 -62 6 -125z" />
    <glyph glyph-name="ldot" unicode="&#x140;" horiz-adv-x="610" 
d="M590 819q26 0 47 -6q25 -39 25 -82q0 -54 -35 -108h-103l-16 184q36 12 82 12zM520 63v-63h-454v63l163 23v1354l-161 12v61q138 23 245 29l27 -10v-1460z" />
    <glyph glyph-name="Lslash" unicode="&#x141;" horiz-adv-x="1126" 
d="M1036 186q0 -100 -18 -186h-2h-907v66l188 22v506l-211 -100l-12 14v61l223 105v614l-191 8v66h531v-66l-223 -22v-551l436 205l10 -15v-61l-446 -211v-569l499 12l41 233l76 -6q6 -62 6 -125z" />
    <glyph glyph-name="lslash" unicode="&#x142;" horiz-adv-x="655" 
d="M383 72l180 -9v-63h-454v63l163 23v551l-186 -98l-10 16l-2 59l198 103v723l-161 12v61q138 23 245 29l27 -10v-766l199 104l10 -16l2 -57l-211 -113v-612z" />
    <glyph glyph-name="Nacute" unicode="&#x143;" horiz-adv-x="1550" 
d="M1466 1362v-66l-190 -22v-1274l-90 -23l-25 -2l-622 1039q-103 177 -144 260h-16l6 -1200l213 -8v-66h-492v66l189 22v1200l-189 8v66h361l549 -918q119 -201 162 -286h16l-8 1130l-203 8v66h483zM954 1829h35q55 -25 80 -70l-252 -278h-76z" />
    <glyph glyph-name="nacute" unicode="&#x144;" horiz-adv-x="1239" 
d="M1208 61v-61h-452v61l162 25v596q0 270 -236 270q-167 0 -326 -149v-733l181 -9v-61h-453v61l164 25v836l-164 22v57q165 27 248 31l26 -8l-10 -143h14q159 159 349 159q146 0 230.5 -86t84.5 -256v-628zM803 1571h35q53 -23 82 -72l-277 -325h-72z" />
    <glyph glyph-name="Ncommaaccent" unicode="&#x145;" horiz-adv-x="1550" 
d="M1466 1362v-66l-190 -22v-1274l-90 -23l-25 -2l-622 1039q-103 177 -144 260h-16l6 -1200l213 -8v-66h-492v66l189 22v1200l-189 8v66h361l549 -918q119 -201 162 -286h16l-8 1130l-203 8v66h483zM774 -121q38 0 60 -10q26 -50 26 -111q0 -85 -45 -150.5t-121 -103.5
l-26 37q55 43 85.5 85.5t30.5 94.5q0 13 -4 41l-73 11l-2 96q33 10 69 10z" />
    <glyph glyph-name="ncommaaccent" unicode="&#x146;" horiz-adv-x="1239" 
d="M1208 61v-61h-452v61l162 25v596q0 270 -236 270q-167 0 -326 -149v-733l181 -9v-61h-453v61l164 25v836l-164 22v57q165 27 248 31l26 -8l-10 -143h14q159 159 349 159q146 0 230.5 -86t84.5 -256v-628zM616 -121q37 0 60 -10q26 -50 26 -111q0 -85 -44.5 -150.5
t-120.5 -103.5l-27 37q55 43 86 85.5t31 94.5q0 13 -4 41l-74 11l-2 96q33 10 69 10z" />
    <glyph glyph-name="Ncaron" unicode="&#x147;" horiz-adv-x="1550" 
d="M1466 1362v-66l-190 -22v-1274l-90 -23l-25 -2l-622 1039q-103 177 -144 260h-16l6 -1200l213 -8v-66h-492v66l189 22v1200l-189 8v66h361l549 -918q119 -201 162 -286h16l-8 1130l-203 8v66h483zM784 1599h15l202 207h80l-270 -325h-80l-237 288l75 52z" />
    <glyph glyph-name="ncaron" unicode="&#x148;" horiz-adv-x="1239" 
d="M1208 61v-61h-452v61l162 25v596q0 270 -236 270q-167 0 -326 -149v-733l181 -9v-61h-453v61l164 25v836l-164 22v57q165 27 248 31l26 -8l-10 -143h14q159 159 349 159q146 0 230.5 -86t84.5 -256v-628zM625 1307h16l180 247h72l-240 -364h-82l-217 328l78 47z" />
    <glyph glyph-name="napostrophe" unicode="&#x149;" horiz-adv-x="1239" 
d="M12 1542q44 0 74 -12q33 -64 33 -137q0 -107 -53.5 -178t-139.5 -103l-20 45q125 69 125 195q0 21 -4 49l-90 10l-5 121q42 10 80 10zM1208 61v-61h-452v61l162 25v596q0 270 -236 270q-167 0 -326 -149v-733l181 -9v-61h-453v61l164 25v836l-164 22v57q165 27 248 31
l26 -8l-10 -143h14q159 159 349 159q146 0 230.5 -86t84.5 -256v-628z" />
    <glyph glyph-name="Eng" unicode="&#x14a;" horiz-adv-x="1550" 
d="M1466 1296l-188 -22v-1294q0 -191 -89.5 -303.5t-219.5 -112.5q-77 0 -117 43l10 69h223q49 51 72.5 105.5t26.5 159.5l-645 1073q-103 177 -144 260h-16l6 -1200l211 -8v-66h-490v66l189 22v1200l-189 8v66h361l549 -918q101 -171 162 -286h18l-8 1130l-205 8v66h483
v-66z" />
    <glyph glyph-name="eng" unicode="&#x14b;" horiz-adv-x="1230" 
d="M711 1040q146 0 230.5 -86t84.5 -256v-766q0 -86 -17.5 -138t-66.5 -103t-151 -117l-41 43l168 193v872q0 270 -236 270q-167 0 -326 -149v-733l181 -9v-61h-453v61l164 25v836l-164 22v57q165 27 248 31l26 -8l-10 -143h14q159 159 349 159z" />
    <glyph glyph-name="Omacron" unicode="&#x14c;" horiz-adv-x="1435" 
d="M735 1389q144 0 257 -54.5t183.5 -149.5t107 -219t36.5 -268q0 -210 -72.5 -373t-214 -257.5t-330.5 -94.5q-115 0 -211 35.5t-164.5 99.5t-116 151.5t-70.5 191t-23 219.5q0 209 72 370.5t213.5 255t332.5 93.5zM725 1309q-100 0 -185 -38.5t-151.5 -113.5t-104.5 -198
t-38 -281q0 -302 129 -463.5t338 -161.5q100 0 185.5 39t152 115.5t104 200t37.5 280.5q0 302 -129 461.5t-338 159.5zM463 1683h520q6 -18 6 -45t-6 -45h-520q-6 18 -6 45t6 45z" />
    <glyph glyph-name="omacron" unicode="&#x14d;" horiz-adv-x="1101" 
d="M565 1040q108 0 193 -42t137 -115t79 -165.5t27 -199.5q0 -155 -54 -277.5t-160.5 -195t-249.5 -72.5q-108 0 -193 42t-137.5 114.5t-79.5 166t-27 200.5q0 155 54.5 277.5t161 194.5t249.5 72zM555 969q-149 0 -241.5 -116t-92.5 -347t89.5 -345t236.5 -114
q148 0 241 116.5t93 346.5q0 223 -87 341t-239 118zM311 1393h477q7 -25 7 -45t-7 -45h-477q-6 21 -6 45t6 45z" />
    <glyph glyph-name="Obreve" unicode="&#x14e;" horiz-adv-x="1435" 
d="M735 1389q144 0 257 -54.5t183.5 -149.5t107 -219t36.5 -268q0 -210 -72.5 -373t-214 -257.5t-330.5 -94.5q-115 0 -211 35.5t-164.5 99.5t-116 151.5t-70.5 191t-23 219.5q0 209 72 370.5t213.5 255t332.5 93.5zM725 1309q-100 0 -185 -38.5t-151.5 -113.5t-104.5 -198
t-38 -281q0 -302 129 -463.5t338 -161.5q100 0 185.5 39t152 115.5t104 200t37.5 280.5q0 302 -129 461.5t-338 159.5zM449 1722l83 31q24 -94 73.5 -140t131.5 -46q84 0 135.5 47.5t79.5 138.5l49 -18q-22 -122 -97.5 -188t-190.5 -66q-117 0 -182.5 64.5t-81.5 176.5z" />
    <glyph glyph-name="obreve" unicode="&#x14f;" horiz-adv-x="1101" 
d="M565 1040q108 0 193 -42t137 -115t79 -165.5t27 -199.5q0 -155 -54 -277.5t-160.5 -195t-249.5 -72.5q-108 0 -193 42t-137.5 114.5t-79.5 166t-27 200.5q0 155 54.5 277.5t161 194.5t249.5 72zM555 969q-149 0 -241.5 -116t-92.5 -347t89.5 -345t236.5 -114
q148 0 241 116.5t93 346.5q0 223 -87 341t-239 118zM293 1481l84 30q30 -204 184 -204q80 0 127.5 51.5t69.5 152.5l49 -18q-18 -133 -89 -202.5t-181 -69.5t-172.5 68.5t-71.5 191.5z" />
    <glyph glyph-name="Ohungarumlaut" unicode="&#x150;" horiz-adv-x="1435" 
d="M735 1389q144 0 257 -54.5t183.5 -149.5t107 -219t36.5 -268q0 -210 -72.5 -373t-214 -257.5t-330.5 -94.5q-115 0 -211 35.5t-164.5 99.5t-116 151.5t-70.5 191t-23 219.5q0 209 72 370.5t213.5 255t332.5 93.5zM725 1309q-100 0 -185 -38.5t-151.5 -113.5t-104.5 -198
t-38 -281q0 -302 129 -463.5t338 -161.5q100 0 185.5 39t152 115.5t104 200t37.5 280.5q0 302 -129 461.5t-338 159.5zM641 1808h33q53 -14 86 -53l-162 -274h-61zM995 1808h33q53 -14 86 -53l-162 -274h-61z" />
    <glyph glyph-name="ohungarumlaut" unicode="&#x151;" horiz-adv-x="1101" 
d="M565 1040q108 0 193 -42t137 -115t79 -165.5t27 -199.5q0 -155 -54 -277.5t-160.5 -195t-249.5 -72.5q-108 0 -193 42t-137.5 114.5t-79.5 166t-27 200.5q0 155 54.5 277.5t161 194.5t249.5 72zM555 969q-149 0 -241.5 -116t-92.5 -347t89.5 -345t236.5 -114
q148 0 241 116.5t93 346.5q0 223 -87 341t-239 118zM477 1571h33q55 -11 94 -53l-190 -344h-62zM791 1571h32q56 -11 95 -53l-191 -344h-61z" />
    <glyph glyph-name="OE" unicode="&#x152;" horiz-adv-x="1943" 
d="M772 1389q109 0 254 -27h762q6 -59 6 -129q0 -88 -10 -170h-78l-23 215l-542 12v-573h325l17 147h65v-379h-65l-19 156h-323v-569l542 12l37 223l78 -6q6 -58 6 -111q0 -91 -18 -190h-762q-172 -27 -285 -27q-155 0 -276 54.5t-195.5 150.5t-112.5 221t-38 273
q0 156 42 286t122.5 226.5t206 150.5t284.5 54zM778 1311q-249 0 -390.5 -159t-141.5 -472q0 -307 135.5 -468t372.5 -161q146 0 270 39v1182q-108 39 -246 39z" />
    <glyph glyph-name="oe" unicode="&#x153;" horiz-adv-x="1736" 
d="M1595 186l33 -45q-139 -168 -352 -168q-138 0 -228.5 71t-129.5 189h-17q-46 -121 -141.5 -190.5t-231.5 -69.5q-105 0 -187.5 41.5t-134.5 114t-79 166t-27 201.5q0 238 124.5 391t332.5 153q138 0 228.5 -72t127.5 -194h17q40 120 136.5 193t233.5 73q158 0 240 -100
t82 -264q0 -81 -14 -152h-2l-639 -20q1 -211 93 -326t243 -115q80 0 148.5 31.5t143.5 91.5zM541 47q144 0 233.5 116.5t89.5 348.5q0 221 -84.5 339t-230.5 118t-237 -116t-91 -347q0 -230 89 -344.5t231 -114.5zM1288 969q-130 0 -219.5 -107.5t-99.5 -300.5l542 35l2 43
q0 165 -58.5 247.5t-166.5 82.5z" />
    <glyph glyph-name="Racute" unicode="&#x154;" horiz-adv-x="1269" 
d="M1241 53l-4 -49q-66 -20 -111 -20q-62 0 -100 26t-78 80q-39 56 -148.5 236.5t-164.5 261.5h-223v-514l206 -8v-66h-512v66l189 22v1200l-189 8v66q312 8 441 8q139 0 241 -29.5t161.5 -83.5t87.5 -122t28 -152q0 -275 -305 -369l-4 -16q68 -85 187 -270.5t165 -247.5z
M412 664h305q107 48 163 121.5t56 197.5q0 152 -87 229t-276 78h-161v-626zM801 1839h35q54 -24 79 -70l-251 -278h-76z" />
    <glyph glyph-name="racute" unicode="&#x155;" horiz-adv-x="770" 
d="M715 907h-183q-81 -60 -176 -200v-635l224 -9v-63h-496v63l164 23v834l-164 24v57q168 27 244 31l26 -8l-10 -219h14q80 124 140 179.5t129 55.5q60 0 100 -47zM526 1571h35q53 -23 82 -72l-276 -325h-72z" />
    <glyph glyph-name="Rcommaaccent" unicode="&#x156;" horiz-adv-x="1269" 
d="M1241 53l-4 -49q-66 -20 -111 -20q-62 0 -100 26t-78 80q-39 56 -148.5 236.5t-164.5 261.5h-223v-514l206 -8v-66h-512v66l189 22v1200l-189 8v66q312 8 441 8q139 0 241 -29.5t161.5 -83.5t87.5 -122t28 -152q0 -275 -305 -369l-4 -16q68 -85 187 -270.5t165 -247.5z
M412 664h305q107 48 163 121.5t56 197.5q0 152 -87 229t-276 78h-161v-626zM711 -121q37 0 59 -10q27 -52 27 -111q0 -85 -45 -150.5t-121 -103.5l-27 37q55 43 86 85.5t31 94.5q0 13 -4 41l-74 11l-2 96q33 10 70 10z" />
    <glyph glyph-name="rcommaaccent" unicode="&#x157;" horiz-adv-x="770" 
d="M715 907h-183q-81 -60 -176 -200v-635l224 -9v-63h-496v63l164 23v834l-164 24v57q168 27 244 31l26 -8l-10 -219h14q80 124 140 179.5t129 55.5q60 0 100 -47zM311 -121q37 0 60 -10q26 -50 26 -111q0 -85 -45 -150.5t-121 -103.5l-26 37q55 43 86 85.5t31 94.5
q0 6 -5 41l-73 11l-2 96q33 10 69 10z" />
    <glyph glyph-name="Rcaron" unicode="&#x158;" horiz-adv-x="1269" 
d="M1241 53l-4 -49q-66 -20 -111 -20q-62 0 -100 26t-78 80q-39 56 -148.5 236.5t-164.5 261.5h-223v-514l206 -8v-66h-512v66l189 22v1200l-189 8v66q312 8 441 8q139 0 241 -29.5t161.5 -83.5t87.5 -122t28 -152q0 -275 -305 -369l-4 -16q68 -85 187 -270.5t165 -247.5z
M412 664h305q107 48 163 121.5t56 197.5q0 152 -87 229t-276 78h-161v-626zM631 1610h14l203 207h80l-271 -326h-79l-238 289l76 51z" />
    <glyph glyph-name="rcaron" unicode="&#x159;" horiz-adv-x="770" 
d="M715 907h-183q-81 -60 -176 -200v-635l224 -9v-63h-496v63l164 23v834l-164 24v57q168 27 244 31l26 -8l-10 -219h14q80 124 140 179.5t129 55.5q60 0 100 -47zM348 1307h17l180 247h71l-239 -364h-82l-217 328l78 47z" />
    <glyph glyph-name="Sacute" unicode="&#x15a;" horiz-adv-x="1075" 
d="M487 784l150 -71q62 -29 104.5 -52.5t88 -57.5t72 -71t44 -88t17.5 -112q0 -175 -124.5 -267t-326.5 -92q-189 0 -365 82q-18 102 -18 176q0 61 6 107l72 6l45 -240q117 -53 260 -53q71 0 129 14t104 43t71.5 79t25.5 118q0 48 -13.5 88t-33 67.5t-56 54.5t-67.5 44
t-82 41l-154 74q-51 24 -89 46t-76.5 54.5t-62.5 68t-39 85t-15 108.5q0 163 108.5 258t296.5 95q180 0 336 -80q8 -52 8 -115q0 -84 -10 -166h-78l-22 234q-120 49 -238 49q-135 0 -214 -63.5t-79 -192.5q0 -54 14.5 -94.5t47 -72t68.5 -54t95 -50.5zM723 1829h35
q55 -25 80 -70l-252 -278h-76z" />
    <glyph glyph-name="sacute" unicode="&#x15b;" horiz-adv-x="915" 
d="M436 586l99 -41q70 -30 112.5 -53t81.5 -56.5t56.5 -76.5t17.5 -101q0 -141 -102 -213t-271 -72q-165 0 -307 70q-10 48 -10 111q0 72 10 131h78l24 -195q94 -43 205 -43q71 0 127 17.5t93.5 61t37.5 107.5q0 77 -48 120t-155 89l-92 39q-63 27 -102 49t-77 54.5
t-55.5 76t-17.5 99.5q0 132 93.5 206t254.5 74q149 0 269 -59q10 -48 10 -109q0 -70 -10 -131h-72l-27 191q-87 37 -176 37q-106 0 -172.5 -46.5t-66.5 -138.5q0 -75 43 -113.5t149 -84.5zM633 1571h35q53 -23 82 -72l-277 -325h-72z" />
    <glyph glyph-name="Scircumflex" unicode="&#x15c;" horiz-adv-x="1075" 
d="M487 784l150 -71q62 -29 104.5 -52.5t88 -57.5t72 -71t44 -88t17.5 -112q0 -175 -124.5 -267t-326.5 -92q-189 0 -365 82q-18 102 -18 176q0 61 6 107l72 6l45 -240q117 -53 260 -53q71 0 129 14t104 43t71.5 79t25.5 118q0 48 -13.5 88t-33 67.5t-56 54.5t-67.5 44
t-82 41l-154 74q-51 24 -89 46t-76.5 54.5t-62.5 68t-39 85t-15 108.5q0 163 108.5 258t296.5 95q180 0 336 -80q8 -52 8 -115q0 -84 -10 -166h-78l-22 234q-120 49 -238 49q-135 0 -214 -63.5t-79 -192.5q0 -54 14.5 -94.5t47 -72t68.5 -54t95 -50.5zM842 1518l-78 -52
l-213 222h-16l-201 -207h-78l268 325h80z" />
    <glyph glyph-name="scircumflex" unicode="&#x15d;" horiz-adv-x="915" 
d="M436 586l99 -41q70 -30 112.5 -53t81.5 -56.5t56.5 -76.5t17.5 -101q0 -141 -102 -213t-271 -72q-165 0 -307 70q-10 48 -10 111q0 72 10 131h78l24 -195q94 -43 205 -43q71 0 127 17.5t93.5 61t37.5 107.5q0 77 -48 120t-155 89l-92 39q-63 27 -102 49t-77 54.5
t-55.5 76t-17.5 99.5q0 132 93.5 206t254.5 74q149 0 269 -59q10 -48 10 -109q0 -70 -10 -131h-72l-27 191q-87 37 -176 37q-106 0 -172.5 -46.5t-66.5 -138.5q0 -75 43 -113.5t149 -84.5zM721 1227l-76 -47l-194 256h-15l-180 -248h-74l242 366h80z" />
    <glyph glyph-name="Scedilla" unicode="&#x15e;" horiz-adv-x="1075" 
d="M487 784l150 -71q62 -29 104.5 -52.5t88 -57.5t72 -71t44 -88t17.5 -112q0 -113 -55.5 -193.5t-148 -120t-216.5 -43.5v-122q174 -7 174 -125q0 -70 -55.5 -117t-149.5 -47q-113 0 -184 55l16 51q84 -35 141 -35q60 0 96.5 26t36.5 69q0 39 -33.5 55t-123.5 33l18 155
q-176 8 -332 82q-18 102 -18 176q0 61 6 107l72 6l45 -240q117 -53 260 -53q71 0 129 14t104 43t71.5 79t25.5 118q0 48 -13.5 88t-33 67.5t-56 54.5t-67.5 44t-82 41l-154 74q-51 24 -89 46t-76.5 54.5t-62.5 68t-39 85t-15 108.5q0 163 108.5 258t296.5 95q180 0 336 -80
q8 -52 8 -115q0 -84 -10 -166h-78l-22 234q-120 49 -238 49q-135 0 -214 -63.5t-79 -192.5q0 -54 14.5 -94.5t47 -72t68.5 -54t95 -50.5z" />
    <glyph glyph-name="scedilla" unicode="&#x15f;" horiz-adv-x="915" 
d="M436 586l99 -41q70 -30 112.5 -53t81.5 -56.5t56.5 -76.5t17.5 -101q0 -129 -86 -200.5t-232 -82.5v-122q172 -10 172 -125q0 -70 -55 -117t-149 -47q-114 0 -185 55l17 51q84 -35 141 -35q60 0 96.5 26t36.5 69q0 39 -33.5 55t-124.5 33l2 6l17 149q-164 2 -297 70
q-10 48 -10 111q0 72 10 131h78l24 -195q94 -43 205 -43q71 0 127 17.5t93.5 61t37.5 107.5q0 77 -48 120t-155 89l-92 39q-63 27 -102 49t-77 54.5t-55.5 76t-17.5 99.5q0 132 93.5 206t254.5 74q149 0 269 -59q10 -48 10 -109q0 -70 -10 -131h-72l-27 191q-87 37 -176 37
q-106 0 -172.5 -46.5t-66.5 -138.5q0 -75 43 -113.5t149 -84.5z" />
    <glyph glyph-name="Scaron" unicode="&#x160;" horiz-adv-x="1075" 
d="M487 784l150 -71q62 -29 104.5 -52.5t88 -57.5t72 -71t44 -88t17.5 -112q0 -175 -124.5 -267t-326.5 -92q-189 0 -365 82q-18 102 -18 176q0 61 6 107l72 6l45 -240q117 -53 260 -53q71 0 129 14t104 43t71.5 79t25.5 118q0 48 -13.5 88t-33 67.5t-56 54.5t-67.5 44
t-82 41l-154 74q-51 24 -89 46t-76.5 54.5t-62.5 68t-39 85t-15 108.5q0 163 108.5 258t296.5 95q180 0 336 -80q8 -52 8 -115q0 -84 -10 -166h-78l-22 234q-120 49 -238 49q-135 0 -214 -63.5t-79 -192.5q0 -54 14.5 -94.5t47 -72t68.5 -54t95 -50.5zM553 1599h14l203 207
h80l-270 -325h-80l-238 288l76 52z" />
    <glyph glyph-name="scaron" unicode="&#x161;" horiz-adv-x="915" 
d="M436 586l99 -41q70 -30 112.5 -53t81.5 -56.5t56.5 -76.5t17.5 -101q0 -141 -102 -213t-271 -72q-165 0 -307 70q-10 48 -10 111q0 72 10 131h78l24 -195q94 -43 205 -43q71 0 127 17.5t93.5 61t37.5 107.5q0 77 -48 120t-155 89l-92 39q-63 27 -102 49t-77 54.5
t-55.5 76t-17.5 99.5q0 132 93.5 206t254.5 74q149 0 269 -59q10 -48 10 -109q0 -70 -10 -131h-72l-27 191q-87 37 -176 37q-106 0 -172.5 -46.5t-66.5 -138.5q0 -75 43 -113.5t149 -84.5zM455 1307h16l180 247h72l-240 -364h-82l-217 328l78 47z" />
    <glyph glyph-name="Tcommaaccent" unicode="&#x162;" horiz-adv-x="1208" 
d="M96 1362h1014q8 -52 8 -127q0 -96 -10 -184h-76l-24 229l-346 10v-1216l219 -8v-66h-246v-147q174 -7 174 -125q0 -70 -55.5 -117t-149.5 -47q-113 0 -184 55l16 51q84 -35 142 -35q60 0 96.5 26t36.5 69q0 39 -33.5 55t-124.5 33l20 182h-247v66l219 22v1202l-344 -10
l-25 -229h-76q-10 66 -10 184q0 57 6 113v14z" />
    <glyph glyph-name="tcommaaccent" unicode="&#x163;" horiz-adv-x="720" 
d="M659 106l19 -55q-112 -78 -242 -78h-8v-120q172 -10 172 -125q0 -70 -55.5 -117t-149.5 -47q-113 0 -184 55l16 51q84 -35 142 -35q60 0 96.5 26t36.5 69q0 39 -33.5 55t-124.5 33l2 6l16 158q-141 34 -141 213v745l-164 8v58l166 22l64 256l43 -4v-266h305v-74h-305
v-731q0 -83 31.5 -117.5t101.5 -34.5q84 0 196 49z" />
    <glyph glyph-name="Tcaron" unicode="&#x164;" horiz-adv-x="1208" 
d="M96 1362h1014q8 -52 8 -127q0 -96 -10 -184h-76l-24 229l-346 10v-1216l219 -8v-66h-555v66l219 22v1202l-344 -10l-25 -229h-76q-10 66 -10 184q0 57 6 113v14zM608 1599h15l202 207h80l-270 -325h-80l-238 288l76 52z" />
    <glyph glyph-name="tcaron" unicode="&#x165;" horiz-adv-x="724" 
d="M659 106l19 -55q-112 -78 -242 -78q-99 0 -157 52.5t-58 169.5v745l-164 8v58l166 22l64 256l43 -4v-266h305v-74h-305v-731q0 -83 31.5 -117.5t101.5 -34.5q84 0 196 49zM606 1542q40 0 76 -20q-15 -197 -109 -379h-57l43 231v162q12 6 47 6z" />
    <glyph glyph-name="Tbar" unicode="&#x166;" horiz-adv-x="1208" 
d="M96 1362h1014q8 -52 8 -127q0 -96 -10 -184h-76l-24 229l-346 10v-651h325v-74h-325v-491l219 -8v-66h-555v66l219 22v477h-328v74h328v651l-344 -10l-25 -229h-76q-10 66 -10 184q0 57 6 113v14z" />
    <glyph glyph-name="tbar" unicode="&#x167;" horiz-adv-x="739" 
d="M672 106l18 -55q-112 -78 -241 -78q-99 0 -157.5 53t-58.5 169v423h-163v76h163v246l-163 8v58l166 22l63 256l43 -4v-266h305v-74h-305v-246h305v-76h-305v-409q0 -83 31.5 -117.5t101.5 -34.5q85 0 197 49z" />
    <glyph glyph-name="Utilde" unicode="&#x168;" horiz-adv-x="1470" 
d="M1407 1296l-188 -22v-817q0 -226 -122.5 -355t-353.5 -129q-234 0 -361.5 132.5t-127.5 365.5v817h-2l-189 8v66h508v-66l-200 -22v-809q0 -210 102.5 -311t282.5 -101q177 0 274.5 100.5t97.5 311.5v823l-215 8v66h494v-66zM1004 1724l38 -36q-1 -2 -13 -24t-14.5 -26.5
t-14 -24t-17 -25t-17 -20.5t-20 -20t-20.5 -13t-25 -10.5t-27 -2.5q-38 0 -86 26l-192 109l-111 -119l-39 37q47 88 74 118q43 45 94 46q39 0 86 -27l195 -106z" />
    <glyph glyph-name="utilde" unicode="&#x169;" horiz-adv-x="1218" 
d="M1153 74v-60q-134 -21 -250 -30l-26 8l10 143h-15q-159 -162 -348 -162q-144 0 -227.5 87t-83.5 257v603l-164 24v57q166 27 246 31l27 -8v-686q0 -277 231 -277q165 0 326 154v705l-164 24v57q165 27 246 31l26 -10l2 2v-928zM811 1456l39 -35q-47 -89 -71 -118
q-46 -54 -99 -54q-31 0 -78 31l-168 102l-108 -118l-39 36q18 35 24.5 46.5t26.5 42t34.5 43.5t38 25.5t48.5 12.5q35 0 78 -28l165 -105z" />
    <glyph glyph-name="Umacron" unicode="&#x16a;" horiz-adv-x="1470" 
d="M1407 1296l-188 -22v-817q0 -226 -122.5 -355t-353.5 -129q-234 0 -361.5 132.5t-127.5 365.5v817h-2l-189 8v66h508v-66l-200 -22v-809q0 -210 102.5 -311t282.5 -101q177 0 274.5 100.5t97.5 311.5v823l-215 8v66h494v-66zM487 1683h521q6 -18 6 -45t-6 -45h-521
q-6 18 -6 45t6 45z" />
    <glyph glyph-name="umacron" unicode="&#x16b;" horiz-adv-x="1218" 
d="M1153 74v-60q-134 -21 -250 -30l-26 8l10 143h-15q-159 -162 -348 -162q-144 0 -227.5 87t-83.5 257v603l-164 24v57q166 27 246 31l27 -8v-686q0 -277 231 -277q165 0 326 154v705l-164 24v57q165 27 246 31l26 -10l2 2v-928zM330 1393h477q6 -21 6 -45t-6 -45h-477
q-6 21 -6 45t6 45z" />
    <glyph glyph-name="Ubreve" unicode="&#x16c;" horiz-adv-x="1470" 
d="M1407 1296l-188 -22v-817q0 -226 -122.5 -355t-353.5 -129q-234 0 -361.5 132.5t-127.5 365.5v817h-2l-189 8v66h508v-66l-200 -22v-809q0 -210 102.5 -311t282.5 -101q177 0 274.5 100.5t97.5 311.5v823l-215 8v66h494v-66zM473 1722l84 31q24 -94 73.5 -140t131.5 -46
q84 0 135.5 47.5t79.5 138.5l49 -18q-22 -122 -98 -188t-191 -66q-117 0 -182.5 64.5t-81.5 176.5z" />
    <glyph glyph-name="ubreve" unicode="&#x16d;" horiz-adv-x="1218" 
d="M1153 74v-60q-134 -21 -250 -30l-26 8l10 143h-15q-159 -162 -348 -162q-144 0 -227.5 87t-83.5 257v603l-164 24v57q166 27 246 31l27 -8v-686q0 -277 231 -277q165 0 326 154v705l-164 24v57q165 27 246 31l26 -10l2 2v-928zM311 1481l84 30q30 -204 185 -204
q80 0 127 51.5t69 152.5l49 -18q-18 -133 -89 -202.5t-181 -69.5t-172.5 68.5t-71.5 191.5z" />
    <glyph glyph-name="Uring" unicode="&#x16e;" horiz-adv-x="1470" 
d="M1407 1296l-188 -22v-817q0 -226 -122.5 -355t-353.5 -129q-234 0 -361.5 132.5t-127.5 365.5v817h-2l-189 8v66h508v-66l-200 -22v-809q0 -210 102.5 -311t282.5 -101q177 0 274.5 100.5t97.5 311.5v823l-215 8v66h494v-66zM752 1835q92 0 145 -46t53 -130
q0 -90 -61 -137t-156 -47q-91 0 -144.5 44.5t-53.5 127.5q0 91 62 139.5t155 48.5zM743 1774q-55 0 -85.5 -32.5t-30.5 -88.5q0 -54 30.5 -85.5t85.5 -31.5q56 0 85.5 32.5t29.5 86.5q0 55 -29.5 87t-85.5 32z" />
    <glyph glyph-name="uring" unicode="&#x16f;" horiz-adv-x="1218" 
d="M1153 74v-60q-134 -21 -250 -30l-26 8l10 143h-15q-159 -162 -348 -162q-144 0 -227.5 87t-83.5 257v603l-164 24v57q166 27 246 31l27 -8v-686q0 -277 231 -277q165 0 326 154v705l-164 24v57q165 27 246 31l26 -10l2 2v-928zM580 1577q91 0 144.5 -48t53.5 -136
q0 -95 -62 -146t-155 -51q-90 0 -144.5 48.5t-54.5 135.5q0 95 63 146t155 51zM571 1516q-55 0 -85.5 -34.5t-30.5 -95.5q0 -60 30 -94.5t84 -34.5q57 0 88 36.5t31 95.5q0 58 -30.5 92.5t-86.5 34.5z" />
    <glyph glyph-name="Uhungarumlaut" unicode="&#x170;" horiz-adv-x="1470" 
d="M1407 1296l-188 -22v-817q0 -226 -122.5 -355t-353.5 -129q-234 0 -361.5 132.5t-127.5 365.5v817h-2l-189 8v66h508v-66l-200 -22v-809q0 -210 102.5 -311t282.5 -101q177 0 274.5 100.5t97.5 311.5v823l-215 8v66h494v-66zM666 1808h32q53 -14 86 -53l-161 -274h-62z
M1020 1808h33q53 -14 86 -53l-162 -274h-62z" />
    <glyph glyph-name="uhungarumlaut" unicode="&#x171;" horiz-adv-x="1218" 
d="M1153 74v-60q-134 -21 -250 -30l-26 8l10 143h-15q-159 -162 -348 -162q-144 0 -227.5 87t-83.5 257v603l-164 24v57q166 27 246 31l27 -8v-686q0 -277 231 -277q165 0 326 154v705l-164 24v57q165 27 246 31l26 -10l2 2v-928zM496 1571h32q56 -11 95 -53l-191 -344h-61z
M809 1571h33q55 -11 94 -53l-191 -344h-61z" />
    <glyph glyph-name="Uogonek" unicode="&#x172;" horiz-adv-x="1470" 
d="M1407 1296l-188 -22v-817q0 -107 -23 -185.5t-57.5 -124t-91.5 -92.5q-14 -12 -58.5 -47t-68 -56.5t-55 -55.5t-46 -69.5t-14.5 -72.5q0 -61 38.5 -90t102.5 -29q62 0 131 31l15 -53q-60 -49 -168 -49t-161.5 46.5t-53.5 125.5q0 130 145 241l-6 13q-56 -17 -123 -17
q-217 0 -344 134t-127 364v817h-2l-189 8v66h508v-66l-200 -22v-809q0 -211 102.5 -311.5t284.5 -100.5q370 0 370 412v823l-204 8v66h483v-66z" />
    <glyph glyph-name="uogonek" unicode="&#x173;" horiz-adv-x="1218" 
d="M1153 74v-60q-123 -19 -210 -93.5t-87 -170.5q0 -59 35.5 -87t97.5 -28q59 0 137 31l15 -53q-63 -49 -176 -49q-104 0 -155.5 46.5t-51.5 125.5q0 77 42 137.5t103 97.5l-16 164h-15q-159 -162 -348 -162q-144 0 -227.5 87t-83.5 257v603l-164 24v57q166 27 246 31l27 -8
v-686q0 -277 231 -277q165 0 326 154v705l-164 24v57q165 27 246 31l26 -10l2 2v-932z" />
    <glyph glyph-name="Wcircumflex" unicode="&#x174;" horiz-adv-x="2082" 
d="M2030 1296l-152 -20q-179 -622 -397 -1278l-95 -25h-20q-178 546 -305 983h-14q-117 -400 -310 -958l-98 -25h-18q-263 782 -414 1317l-154 6v66h492v-66l-209 -22q156 -580 346 -1170h14q181 539 316 990l-60 194l-143 8v66h494v-66l-226 -22q233 -826 350 -1170h15
q216 693 344 1184l-209 8v66h453v-66zM1366 1518l-78 -52l-213 222h-16l-201 -207h-78l269 325h79z" />
    <glyph glyph-name="wcircumflex" unicode="&#x175;" horiz-adv-x="1787" 
d="M1737 952l-142 -22q-122 -430 -295 -932l-86 -25h-18q-150 447 -278 906h-15q-115 -383 -289 -881l-86 -25h-18q-209 611 -309 971l-150 8v62h416v-62l-143 -24q100 -376 241 -813h17q189 552 290 903l86 22h21q133 -498 272 -925h17q160 514 241 829l-178 8v62h406v-62z
M1192 1227l-76 -47l-194 256h-15l-180 -248h-74l242 366h80z" />
    <glyph glyph-name="Ycircumflex" unicode="&#x176;" horiz-adv-x="1345" 
d="M1290 1296l-153 -22q-144 -313 -398 -785v-415l219 -8v-66h-555v66l220 22v399q-231 423 -414 801l-154 8v66h492v-66l-203 -22q163 -345 346 -682h15q173 313 342 696l-209 8v66h452v-66zM969 1518l-78 -52l-213 222h-16l-201 -207h-78l268 325h80z" />
    <glyph glyph-name="ycircumflex" unicode="&#x177;" horiz-adv-x="1165" 
d="M1143 952l-142 -22q-158 -462 -387 -1018q-149 -348 -344 -348q-74 0 -114 43l10 69h217q95 109 168 293q-198 468 -377 975l-151 8v62h417v-62l-141 -22q133 -404 301 -815h16q187 477 302 829l-181 8v62h406v-62zM864 1227l-76 -47l-194 256h-14l-181 -248h-73l241 366
h80z" />
    <glyph glyph-name="Ydieresis" unicode="&#x178;" horiz-adv-x="1345" 
d="M1290 1296l-153 -22q-144 -313 -398 -785v-415l219 -8v-66h-555v66l220 22v399q-231 423 -414 801l-154 8v66h492v-66l-203 -22q163 -345 346 -682h15q173 313 342 696l-209 8v66h452v-66zM913 1733q21 0 45 -7q23 -36 23 -79q0 -47 -31 -93h-92l-18 166q39 13 73 13z
M444 1733q20 0 45 -7q23 -36 23 -79q0 -44 -29 -93h-96l-18 166q39 13 75 13z" />
    <glyph glyph-name="Zacute" unicode="&#x179;" horiz-adv-x="1161" 
d="M989 317l80 -6q6 -59 6 -110q0 -114 -20 -201h-953l-10 37l703 1077q2 3 118 170l-8 10l-672 -14l-24 -229h-78q-10 92 -10 174t8 137h928l10 -37l-690 -1061q-40 -59 -131 -186l6 -10l700 16zM758 1829h35q54 -24 79 -70l-251 -278h-76z" />
    <glyph glyph-name="zacute" unicode="&#x17a;" horiz-adv-x="915" 
d="M762 291l76 -8q4 -32 4 -82q0 -82 -25 -201h-729l-14 59l487 707q18 27 125 174l-6 10l-467 -14l-25 -195h-73q-11 71 -11 140q0 53 11 133h688l14 -60l-489 -706q-56 -84 -125 -172l6 -13l510 13zM633 1571h35q53 -23 82 -72l-277 -325h-72z" />
    <glyph glyph-name="Zdotaccent" unicode="&#x17b;" horiz-adv-x="1161" 
d="M989 317l80 -6q6 -59 6 -110q0 -114 -20 -201h-953l-10 37l703 1077q2 3 118 170l-8 10l-672 -14l-24 -229h-78q-10 92 -10 174t8 137h928l10 -37l-690 -1061q-40 -59 -131 -186l6 -10l700 16zM588 1735q23 0 47 -6q24 -40 24 -84q0 -58 -36 -107h-99l-16 182
q34 15 80 15z" />
    <glyph glyph-name="zdotaccent" unicode="&#x17c;" horiz-adv-x="915" 
d="M762 291l76 -8q4 -32 4 -82q0 -82 -25 -201h-729l-14 59l487 707q18 27 125 174l-6 10l-467 -14l-25 -195h-73q-11 71 -11 140q0 53 11 133h688l14 -60l-489 -706q-56 -84 -125 -172l6 -13l510 13zM461 1475q15 0 43 -7q24 -46 24 -82q0 -57 -36 -106h-97l-18 182
q59 13 84 13z" />
    <glyph glyph-name="Zcaron" unicode="&#x17d;" horiz-adv-x="1161" 
d="M989 317l80 -6q6 -59 6 -110q0 -114 -20 -201h-953l-10 37l703 1077q2 3 118 170l-8 10l-672 -14l-24 -229h-78q-10 92 -10 174t8 137h928l10 -37l-690 -1061q-40 -59 -131 -186l6 -10l700 16zM588 1599h14l203 207h80l-271 -325h-79l-238 288l76 52z" />
    <glyph glyph-name="zcaron" unicode="&#x17e;" horiz-adv-x="915" 
d="M762 291l76 -8q4 -32 4 -82q0 -82 -25 -201h-729l-14 59l487 707q18 27 125 174l-6 10l-467 -14l-25 -195h-73q-11 71 -11 140q0 53 11 133h688l14 -60l-489 -706q-56 -84 -125 -172l6 -13l510 13zM455 1307h16l180 247h72l-240 -364h-82l-217 328l78 47z" />
    <glyph glyph-name="longs" unicode="&#x17f;" horiz-adv-x="612" 
d="M575 1542q101 0 170.5 -42.5t69.5 -123.5q0 -53 -31 -88h-79l-27 170q-46 12 -88 12q-108 0 -171 -75.5t-63 -233.5v-1089l199 -9v-63h-471v63l164 23v854l-164 8v58l164 22v123q0 103 26 180.5t72 122.5t103 66.5t126 21.5z" />
    <glyph glyph-name="uni018F" unicode="&#x18f;" horiz-adv-x="1257" 
d="M573 1389q115 0 209.5 -36t160.5 -99.5t111 -151t66 -188.5t21 -214q0 -215 -73.5 -380t-208 -256t-310.5 -91q-144 0 -242.5 63.5t-144 170.5t-45.5 252q0 95 18 200h877v29q0 297 -123 452.5t-340 155.5q-195 0 -369 -133l-33 51q165 175 426 175zM561 63
q186 0 306.5 137t140.5 392l-758 -14q-4 -70 -4 -99q0 -416 315 -416z" />
    <glyph glyph-name="florin" unicode="&#x192;" horiz-adv-x="1087" 
d="M862 1245q85 0 141 -39.5t56 -113.5q0 -57 -39 -91h-74l-24 179h-43q-104 0 -163 -72.5t-79 -243.5l-14 -127h284v-71h-293l-51 -445q-13 -107 -46 -185t-80.5 -121.5t-100.5 -64t-113 -20.5q-83 0 -138.5 38.5t-55.5 111.5q0 57 39 96h73l27 -178l41 -2q49 0 86.5 14.5
t70 49.5t53.5 97.5t32 153.5l51 455h-215v71h223l14 117q12 104 44.5 181.5t79 122t100 66t114.5 21.5z" />
    <glyph glyph-name="uni01E2" unicode="&#x1e2;" horiz-adv-x="1923" 
d="M1702 307l76 -6q6 -58 6 -111q0 -74 -21 -190h-958v66l188 22v332h-520q-29 -54 -61.5 -114t-69 -128.5t-55.5 -103.5l186 -8v-66h-440v66l162 22q328 607 684 1202l-174 6v66h1060q9 -59 9 -129q0 -80 -11 -170h-75l-21 217l-557 8v-571h336l16 147h66v-379h-66l-20 156
h-332v-569l555 12zM993 494v794h-28q-175 -288 -453 -794h481zM885 1683h477q6 -21 6 -45t-6 -45h-477q-6 21 -6 45t6 45z" />
    <glyph glyph-name="uni01E3" unicode="&#x1e3;" horiz-adv-x="1585" 
d="M1444 186l33 -45q-142 -168 -363 -168q-243 0 -340 209h-18q-167 -209 -394 -209q-130 0 -198 68.5t-68 179.5q0 54 17 97.5t46.5 75t75 55.5t95.5 39.5t116 26t128.5 16t140.5 8.5l4 153q4 138 -65 207.5t-189 69.5q-82 0 -164 -37l-31 -219h-80q-38 38 -38 92
q0 98 105 167.5t243 69.5q126 0 200 -62.5t88 -170.5h17q38 102 125.5 166.5t214.5 64.5q160 0 242.5 -100t82.5 -264q0 -81 -14 -152h-2l-639 -30q3 -209 94 -320t234 -111q145 0 301 123zM1135 969q-129 0 -219 -110t-99 -308l543 45l2 43q0 164 -60.5 247t-166.5 83z
M393 59q181 0 352 197q-29 87 -32 225l-49 -4q-244 -20 -347.5 -77.5t-103.5 -172.5q0 -80 45.5 -124t134.5 -44zM559 1403h477q6 -21 6 -45t-6 -45h-477q-6 21 -6 45t6 45z" />
    <glyph glyph-name="Aringacute" unicode="&#x1fa;" horiz-adv-x="1406" 
d="M739 1665h-71l194 303h35q50 -27 76 -65zM1378 66v-66h-471v66l183 22q-56 166 -117 342h-572q-58 -162 -120 -356l190 -8v-66h-442v66l159 22q216 629 424 1151q-60 15 -93.5 58t-33.5 108q0 90 62 138t155 48q92 0 145.5 -46t53.5 -128q0 -128 -121 -170
q202 -499 439 -1173zM578 1411q0 -56 30.5 -87.5t85.5 -31.5q56 0 86.5 32.5t30.5 86.5q0 55 -30.5 87t-86.5 32q-55 0 -85.5 -32t-30.5 -87zM426 504h520q-133 379 -254 680h-14q-127 -323 -252 -680z" />
    <glyph glyph-name="aringacute" unicode="&#x1fb;" horiz-adv-x="1038" 
d="M987 70v-56q-96 -30 -158 -30q-56 0 -81 22.5t-25 73.5v55h-16q-77 -77 -158.5 -119.5t-181.5 -42.5q-130 0 -200.5 68.5t-70.5 177.5q0 67 29 119t74 83t108.5 51t124.5 27t129 7q26 0 158 -8l2 213q1 129 -65 193.5t-185 64.5q-90 0 -170 -35l-31 -221h-80
q-38 34 -38 92q0 98 107.5 166.5t244.5 68.5q142 0 234 -83t91 -238l-6 -643zM391 57q171 0 324 160l4 232h-94q-213 0 -311.5 -54t-98.5 -170q0 -80 44.5 -124t131.5 -44zM643 1862h35q51 -28 76 -64l-217 -215h-72zM514 1505q91 0 145 -47.5t54 -132.5q0 -92 -62.5 -142
t-154.5 -50q-90 0 -144.5 47.5t-54.5 132.5q0 92 62.5 142t154.5 50zM508 1444q-57 0 -88 -33.5t-31 -93.5q0 -57 30.5 -89t84.5 -32q58 0 88.5 34.5t30.5 92.5q0 57 -30 89t-85 32z" />
    <glyph glyph-name="AEacute" unicode="&#x1fc;" horiz-adv-x="1923" 
d="M1702 307l76 -6q6 -58 6 -111q0 -74 -21 -190h-958v66l188 22v332h-520q-29 -54 -61.5 -114t-69 -128.5t-55.5 -103.5l186 -8v-66h-440v66l162 22q328 607 684 1202l-174 6v66h1060q9 -59 9 -129q0 -80 -11 -170h-75l-21 217l-557 8v-571h336l16 147h66v-379h-66l-20 156
h-332v-569l555 12zM993 494v794h-28q-175 -288 -453 -794h481zM1298 1829h35q55 -25 80 -70l-252 -278h-76z" />
    <glyph glyph-name="aeacute" unicode="&#x1fd;" horiz-adv-x="1585" 
d="M1444 186l33 -45q-142 -168 -363 -168q-243 0 -340 209h-18q-167 -209 -394 -209q-130 0 -198 68.5t-68 179.5q0 54 17 97.5t46.5 75t75 55.5t95.5 39.5t116 26t128.5 16t140.5 8.5l4 153q4 138 -65 207.5t-189 69.5q-82 0 -164 -37l-31 -219h-80q-38 38 -38 92
q0 98 105 167.5t243 69.5q126 0 200 -62.5t88 -170.5h17q38 102 125.5 166.5t214.5 64.5q160 0 242.5 -100t82.5 -264q0 -81 -14 -152h-2l-639 -30q3 -209 94 -320t234 -111q145 0 301 123zM1135 969q-129 0 -219 -110t-99 -308l543 45l2 43q0 164 -60.5 247t-166.5 83z
M393 59q181 0 352 197q-29 87 -32 225l-49 -4q-244 -20 -347.5 -77.5t-103.5 -172.5q0 -80 45.5 -124t134.5 -44zM979 1581h35q53 -23 82 -72l-277 -325h-71z" />
    <glyph glyph-name="Oslashacute" unicode="&#x1fe;" horiz-adv-x="1435" 
d="M1305 1466l-162 -241q87 -93 131.5 -229.5t44.5 -297.5q0 -210 -72.5 -373t-214 -257.5t-330.5 -94.5q-198 0 -340 107l-151 -227l-59 24l-9 19l158 237q-91 95 -137.5 234t-46.5 303q0 209 72 370.5t213.5 255t332.5 93.5q205 0 348 -111l154 231l59 -24zM731 1309
q-104 0 -190.5 -38t-153 -113.5t-104 -200t-37.5 -287.5q0 -295 119 -455l659 987q-116 107 -293 107zM705 53q105 0 192 39t154 115.5t104 202t37 288.5q0 288 -115 443l-657 -987q113 -101 285 -101zM899 1829h35q55 -25 80 -70l-252 -278h-76z" />
    <glyph glyph-name="oslashacute" unicode="&#x1ff;" horiz-adv-x="1101" 
d="M958 1147l-116 -207q78 -71 118.5 -181.5t40.5 -240.5q0 -154 -55 -277t-161.5 -195.5t-247.5 -72.5q-128 0 -220 58l-104 -183l-59 25l-11 16l109 191q-74 73 -113 181.5t-39 234.5q0 237 126.5 390.5t338.5 153.5q122 0 211 -53l113 201l59 -23zM221 498
q0 -219 84 -336l424 758q-70 49 -170 49q-154 0 -246 -117t-92 -354zM543 47q152 0 245 116.5t93 352.5q0 228 -93 348l-426 -762q76 -55 181 -55zM723 1581h35q53 -23 82 -72l-277 -325h-71z" />
    <glyph glyph-name="Scommaaccent" unicode="&#x218;" horiz-adv-x="1075" 
d="M487 784l150 -71q62 -29 104.5 -52.5t88 -57.5t72 -71t44 -88t17.5 -112q0 -175 -124.5 -267t-326.5 -92q-189 0 -365 82q-18 102 -18 176q0 61 6 107l72 6l45 -240q117 -53 260 -53q71 0 129 14t104 43t71.5 79t25.5 118q0 48 -13.5 88t-33 67.5t-56 54.5t-67.5 44
t-82 41l-154 74q-51 24 -89 46t-76.5 54.5t-62.5 68t-39 85t-15 108.5q0 163 108.5 258t296.5 95q180 0 336 -80q8 -52 8 -115q0 -84 -10 -166h-78l-22 234q-120 49 -238 49q-135 0 -214 -63.5t-79 -192.5q0 -54 14.5 -94.5t47 -72t68.5 -54t95 -50.5zM504 -121q36 0 59 -10
q27 -52 27 -111q0 -85 -45 -150.5t-121 -103.5l-27 37q55 43 86 85.5t31 94.5q0 13 -4 41l-74 11l-2 96q33 10 70 10z" />
    <glyph glyph-name="scommaaccent" unicode="&#x219;" horiz-adv-x="915" 
d="M436 586l99 -41q70 -30 112.5 -53t81.5 -56.5t56.5 -76.5t17.5 -101q0 -141 -102 -213t-271 -72q-165 0 -307 70q-10 48 -10 111q0 72 10 131h78l24 -195q94 -43 205 -43q71 0 127 17.5t93.5 61t37.5 107.5q0 77 -48 120t-155 89l-92 39q-63 27 -102 49t-77 54.5
t-55.5 76t-17.5 99.5q0 132 93.5 206t254.5 74q149 0 269 -59q10 -48 10 -109q0 -70 -10 -131h-72l-27 191q-87 37 -176 37q-106 0 -172.5 -46.5t-66.5 -138.5q0 -75 43 -113.5t149 -84.5zM446 -121q38 0 60 -10q26 -50 26 -111q0 -85 -44.5 -150.5t-120.5 -103.5l-27 37
q55 43 86 85.5t31 94.5q0 13 -4 41l-74 11l-2 96q33 10 69 10z" />
    <glyph glyph-name="uni021A" unicode="&#x21a;" horiz-adv-x="1208" 
d="M96 1362h1014q8 -52 8 -127q0 -96 -10 -184h-76l-24 229l-346 10v-1216l219 -8v-66h-555v66l219 22v1202l-344 -10l-25 -229h-76q-10 66 -10 184q0 57 6 113v14zM596 -121q36 0 59 -10q27 -52 27 -111q0 -85 -45 -150.5t-121 -103.5l-27 37q55 43 86 85.5t31 94.5
q0 13 -4 41l-74 11l-2 96q33 10 70 10z" />
    <glyph glyph-name="uni021B" unicode="&#x21b;" horiz-adv-x="720" 
d="M659 106l19 -55q-112 -78 -242 -78q-99 0 -157 52.5t-58 169.5v745l-164 8v58l166 22l64 256l43 -4v-266h305v-74h-305v-731q0 -83 31.5 -117.5t101.5 -34.5q84 0 196 49zM389 -121q37 0 60 -10q26 -50 26 -111q0 -85 -45 -150.5t-121 -103.5l-26 37q55 43 85.5 85.5
t30.5 94.5q0 13 -4 41l-73 11l-3 96q33 10 70 10z" />
    <glyph glyph-name="uni0232" unicode="&#x232;" horiz-adv-x="1345" 
d="M1290 1296l-153 -22q-144 -313 -398 -785v-415l219 -8v-66h-555v66l220 22v399q-231 423 -414 801l-154 8v66h492v-66l-203 -22q163 -345 346 -682h15q173 313 342 696l-209 8v66h452v-66zM436 1683h477q7 -24 7 -45q0 -20 -7 -45h-477q-6 21 -6 45t6 45z" />
    <glyph glyph-name="uni0233" unicode="&#x233;" horiz-adv-x="1165" 
d="M1143 952l-142 -22q-158 -462 -387 -1018q-149 -348 -344 -348q-74 0 -114 43l10 69h217q95 109 168 293q-198 468 -377 975l-151 8v62h417v-62l-141 -22q133 -404 301 -815h16q187 477 302 829l-181 8v62h406v-62zM356 1393h478q6 -21 6 -45t-6 -45h-478q-6 21 -6 45
t6 45z" />
    <glyph glyph-name="uni0237" unicode="&#x237;" horiz-adv-x="542" 
d="M338 1024v-1092q0 -124 -44 -193t-192 -165l-41 43l168 193v1110l-163 24v57q165 27 247 31z" />
    <glyph glyph-name="uni0259" unicode="&#x259;" horiz-adv-x="1007" 
d="M498 1040q85 0 154 -27.5t116 -75t78.5 -113t46 -139t14.5 -155.5q0 -253 -126 -405t-332 -152q-164 0 -249 100.5t-85 264.5q0 69 16 151h657v21q0 209 -83 322.5t-228 113.5q-146 0 -287 -119l-34 47q130 166 342 166zM463 47q129 0 216.5 99t104.5 284l-555 -12
q-2 -18 -2 -53q0 -159 61 -238.5t175 -79.5z" />
    <glyph glyph-name="uni02BB" unicode="&#x2bb;" horiz-adv-x="444" 
d="M326 1505l18 -45q-63 -36 -101 -93.5t-38 -131.5q0 -28 6 -49l90 -10l2 -121q-46 -11 -80 -11q-36 0 -73 13q-33 68 -33 137q0 114 57 195t152 116z" />
    <glyph glyph-name="afii57929" unicode="&#x2bc;" horiz-adv-x="444" 
d="M221 1491q44 0 74 -12q33 -64 33 -142q0 -117 -55.5 -194t-151.5 -113l-21 43q140 83 140 225q0 24 -4 52l-91 10l-4 121q42 10 80 10z" />
    <glyph glyph-name="circumflex" unicode="&#x2c6;" horiz-adv-x="661" 
d="M600 1227l-76 -47l-194 256h-15l-180 -248h-74l242 366h80z" />
    <glyph glyph-name="caron" unicode="&#x2c7;" horiz-adv-x="661" 
d="M332 1307h16l180 247h72l-240 -364h-81l-218 328l78 47z" />
    <glyph glyph-name="breve" unicode="&#x2d8;" horiz-adv-x="636" 
d="M61 1481l84 30q30 -204 185 -204q80 0 127 51.5t69 152.5l49 -18q-18 -133 -89 -202.5t-181 -69.5t-172.5 68.5t-71.5 191.5z" />
    <glyph glyph-name="dotaccent" unicode="&#x2d9;" horiz-adv-x="274" 
d="M145 1464q19 0 43 -6q25 -48 25 -82q0 -56 -37 -106h-96l-19 182q54 12 84 12z" />
    <glyph glyph-name="ring" unicode="&#x2da;" horiz-adv-x="538" 
d="M279 1577q91 0 144.5 -48t53.5 -136q0 -95 -62 -146t-155 -51q-90 0 -144.5 48.5t-54.5 135.5q0 95 63 146t155 51zM270 1516q-55 0 -85.5 -34.5t-30.5 -95.5q0 -60 30 -94.5t84 -34.5q57 0 88 36.5t31 95.5q0 58 -30.5 92.5t-86.5 34.5z" />
    <glyph glyph-name="ogonek" unicode="&#x2db;" horiz-adv-x="505" 
d="M270 31l62 -2q-85 -85 -128.5 -152t-43.5 -125t39 -87.5t102 -29.5q60 0 129 31l14 -53q-60 -49 -168 -49q-106 0 -160.5 47t-54.5 123q0 80 55.5 152t153.5 145z" />
    <glyph glyph-name="tilde" unicode="&#x2dc;" horiz-adv-x="686" 
d="M586 1456l39 -35q-47 -89 -71 -118q-46 -54 -99 -54q-31 0 -78 31l-168 102l-109 -118l-39 36q18 35 24.5 46.5t26.5 42t34.5 43.5t38 25.5t48.5 12.5q35 0 78 -28l166 -105z" />
    <glyph glyph-name="hungarumlaut" unicode="&#x2dd;" horiz-adv-x="688" 
d="M186 1571h33q55 -11 94 -53l-190 -344h-62zM500 1571h32q56 -11 95 -53l-191 -344h-61z" />
    <glyph glyph-name="gravecomb" unicode="&#x300;" horiz-adv-x="0" 
d="M-223 1174h-72l-260 325q35 54 86 72h35z" />
    <glyph glyph-name="acutecomb" unicode="&#x301;" horiz-adv-x="0" 
d="M-324 1571h35q53 -23 82 -72l-276 -325h-72z" />
    <glyph glyph-name="uni0302" unicode="&#x302;" horiz-adv-x="0" 
d="M-70 1227l-75 -47l-195 256h-14l-181 -248h-73l241 366h80z" />
    <glyph glyph-name="tildecomb" unicode="&#x303;" horiz-adv-x="0" 
d="M-74 1456l39 -35q-47 -89 -71 -118q-46 -54 -99 -54q-31 0 -78 31l-168 102l-108 -118l-39 36q18 35 24.5 46.5t26.5 42t34.5 43.5t38 25.5t48.5 12.5q35 0 78 -28l166 -105z" />
    <glyph glyph-name="uni0304" unicode="&#x304;" horiz-adv-x="0" 
d="M-602 1393h477q6 -21 6 -45t-6 -45h-477q-6 21 -6 45t6 45z" />
    <glyph glyph-name="uni0306" unicode="&#x306;" horiz-adv-x="0" 
d="M-608 1481l84 30q30 -204 184 -204q80 0 127.5 51.5t69.5 152.5l49 -18q-18 -133 -89.5 -202.5t-181.5 -69.5t-172 68.5t-71 191.5z" />
    <glyph glyph-name="uni0307" unicode="&#x307;" horiz-adv-x="0" 
d="M-471 1475q15 0 43 -7q25 -48 25 -82q0 -56 -37 -106h-97l-18 182q59 13 84 13z" />
    <glyph glyph-name="uni0308" unicode="&#x308;" horiz-adv-x="2" 
d="M-578 1452q31 0 43 -4q23 -44 23 -78q0 -46 -31 -92h-90l-18 162q27 12 73 12zM-188 1452q31 0 43 -4q22 -42 22 -78q0 -46 -31 -92h-90l-18 162q27 12 74 12z" />
    <glyph glyph-name="uni030A" unicode="&#x30a;" horiz-adv-x="0" 
d="M-338 1577q91 0 145 -48t54 -136q0 -95 -62 -146t-155 -51q-90 0 -144.5 48.5t-54.5 135.5q0 95 62.5 146t154.5 51zM-346 1516q-55 0 -86 -35t-31 -95t30.5 -94.5t84.5 -34.5q57 0 88 36.5t31 95.5q0 58 -30.5 92.5t-86.5 34.5z" />
    <glyph glyph-name="uni030B" unicode="&#x30b;" horiz-adv-x="0" 
d="M-494 1571h33q55 -11 94 -53l-190 -344h-61zM-180 1571h33q55 -11 94 -53l-191 -344h-61z" />
    <glyph glyph-name="uni030C" unicode="&#x30c;" horiz-adv-x="0" 
d="M-358 1307h16l180 247h72l-240 -364h-82l-217 328l78 47z" />
    <glyph glyph-name="uni0312" unicode="&#x312;" horiz-adv-x="2" 
d="M-346 1573l24 -37q-57 -46 -86.5 -86t-29.5 -92q0 -27 4 -41l72 -10l2 -97q-33 -10 -70 -10t-57 10q-29 56 -29 111q0 86 45.5 149.5t124.5 102.5z" />
    <glyph glyph-name="uni0326" unicode="&#x326;" horiz-adv-x="0" 
d="M-164 -121q38 0 60 -10q26 -50 26 -111q0 -85 -45 -150.5t-121 -103.5l-26 37q55 43 85.5 85.5t30.5 94.5q0 13 -4 41l-73 11l-2 96q33 10 69 10z" />
    <glyph glyph-name="uni0327" unicode="&#x327;" horiz-adv-x="0" 
d="M-268 12v-159q172 -10 172 -125q0 -70 -55.5 -117t-149.5 -47q-113 0 -184 55l16 51q84 -35 141 -35q60 0 96.5 26t36.5 69q0 39 -33.5 55t-123.5 33l2 6l20 188h62z" />
    <glyph glyph-name="uni0328" unicode="&#x328;" horiz-adv-x="2" 
d="M270 31l62 -2q-85 -85 -128.5 -152t-43.5 -125t39 -87.5t102 -29.5q60 0 129 31l14 -53q-60 -49 -168 -49q-106 0 -160.5 47t-54.5 123q0 80 55.5 152t153.5 145z" />
    <glyph glyph-name="uni0394" unicode="&#x394;" horiz-adv-x="1214" 
d="M1167 16l-8 -16h-1106l-8 18l520 1348l68 16h16zM176 92h848l-420 1118z" />
    <glyph glyph-name="uni03A9" unicode="&#x3a9;" horiz-adv-x="1417" 
d="M1280 287l72 -6q6 -47 6 -99q0 -100 -12 -182h-482v293q307 125 307 502q0 246 -124.5 380t-331.5 134q-99 0 -183.5 -33t-148.5 -96.5t-100.5 -164t-36.5 -227.5q0 -368 307 -495v-293h-481q-15 103 -15 182q0 52 6 99l74 6l27 -176l315 -13v166q-161 45 -261.5 182
t-100.5 342q0 125 40 233.5t114.5 190.5t190.5 129.5t259 47.5q144 0 256.5 -47t182 -129t105 -186t35.5 -224q0 -203 -97 -346t-265 -193v-166l313 13z" />
    <glyph glyph-name="uni03BC" unicode="&#x3bc;" horiz-adv-x="1208" 
d="M1143 74v-60q-128 -21 -250 -30l-25 8l11 143h-17q-159 -162 -342 -162q-155 0 -225 121l-10 -4l18 -514q-40 -12 -98 -12l-23 20l21 625v805q38 13 84 20l26 -8v-688q0 -277 230 -277q163 0 327 154v799q35 13 82 20l27 -8v-930z" />
    <glyph glyph-name="pi" unicode="&#x3c0;" horiz-adv-x="1263" 
d="M1014 76l164 -6v-56q-96 -30 -158 -30q-60 0 -90.5 29t-30.5 93q0 173 14 803h-532v-913q-40 -8 -98 -12l-27 10l23 502v411q-67 -5 -125.5 -32t-120.5 -87l-27 35q46 101 126.5 146t219.5 45h817l11 -15l-15 -90h-151v-833z" />
    <glyph glyph-name="Wgrave" unicode="&#x1e80;" horiz-adv-x="2082" 
d="M2030 1296l-152 -20q-179 -622 -397 -1278l-95 -25h-20q-178 546 -305 983h-14q-117 -400 -310 -958l-98 -25h-18q-263 782 -414 1317l-154 6v66h492v-66l-209 -22q156 -580 346 -1170h14q181 539 316 990l-60 194l-143 8v66h494v-66l-226 -22q233 -826 350 -1170h15
q216 693 344 1184l-209 8v66h453v-66zM1141 1481h-76l-223 268q30 48 82 70h34z" />
    <glyph glyph-name="wgrave" unicode="&#x1e81;" horiz-adv-x="1787" 
d="M1737 952l-142 -22q-122 -430 -295 -932l-86 -25h-18q-150 447 -278 906h-15q-115 -383 -289 -881l-86 -25h-18q-209 611 -309 971l-150 8v62h416v-62l-143 -24q100 -376 241 -813h17q189 552 290 903l86 22h21q133 -498 272 -925h17q160 514 241 829l-178 8v62h406v-62z
M983 1174h-72l-260 325q35 54 86 72h35z" />
    <glyph glyph-name="Wacute" unicode="&#x1e82;" horiz-adv-x="2082" 
d="M2030 1296l-152 -20q-179 -622 -397 -1278l-95 -25h-20q-178 546 -305 983h-14q-117 -400 -310 -958l-98 -25h-18q-263 782 -414 1317l-154 6v66h492v-66l-209 -22q156 -580 346 -1170h14q181 539 316 990l-60 194l-143 8v66h494v-66l-226 -22q233 -826 350 -1170h15
q216 693 344 1184l-209 8v66h453v-66zM1247 1829h35q55 -25 80 -70l-252 -278h-76z" />
    <glyph glyph-name="wacute" unicode="&#x1e83;" horiz-adv-x="1787" 
d="M1737 952l-142 -22q-122 -430 -295 -932l-86 -25h-18q-150 447 -278 906h-15q-115 -383 -289 -881l-86 -25h-18q-209 611 -309 971l-150 8v62h416v-62l-143 -24q100 -376 241 -813h17q189 552 290 903l86 22h21q133 -498 272 -925h17q160 514 241 829l-178 8v62h406v-62z
M1104 1571h35q53 -23 82 -72l-277 -325h-72z" />
    <glyph glyph-name="Wdieresis" unicode="&#x1e84;" horiz-adv-x="2082" 
d="M2030 1296l-152 -20q-179 -622 -397 -1278l-95 -25h-20q-178 546 -305 983h-14q-117 -400 -310 -958l-98 -25h-18q-263 782 -414 1317l-154 6v66h492v-66l-209 -22q156 -580 346 -1170h14q181 539 316 990l-60 194l-143 8v66h494v-66l-226 -22q233 -826 350 -1170h15
q216 693 344 1184l-209 8v66h453v-66zM1311 1733q21 0 45 -7q22 -34 22 -79q0 -48 -30 -93h-93l-18 166q39 13 74 13zM842 1733q20 0 45 -7q22 -34 22 -79q0 -46 -28 -93h-97l-18 166q39 13 76 13z" />
    <glyph glyph-name="wdieresis" unicode="&#x1e85;" horiz-adv-x="1787" 
d="M1737 952l-142 -22q-122 -430 -295 -932l-86 -25h-18q-150 447 -278 906h-15q-115 -383 -289 -881l-86 -25h-18q-209 611 -309 971l-150 8v62h416v-62l-143 -24q100 -376 241 -813h17q189 552 290 903l86 22h21q133 -498 272 -925h17q160 514 241 829l-178 8v62h406v-62z
M733 1452q31 0 43 -4q23 -44 23 -78q0 -46 -31 -92h-90l-19 162q27 12 74 12zM1122 1452q31 0 43 -4q23 -44 23 -78q0 -46 -31 -92h-90l-18 162q27 12 73 12z" />
    <glyph glyph-name="uni1E9E" unicode="&#x1e9e;" horiz-adv-x="1460" 
d="M807 1389q218 0 403 -68v-78q-122 -75 -182.5 -148.5t-60.5 -170.5q0 -71 34 -123t125 -137q51 -48 74.5 -71t59 -64t51.5 -71.5t28.5 -73t12.5 -87.5q0 -149 -106.5 -236.5t-270.5 -87.5q-144 0 -273 82q-12 68 -12 144q0 75 10 147h80l31 -260q81 -35 162 -35
q121 0 189.5 65t68.5 165q0 45 -12.5 83t-43.5 78t-58 67t-81 77q-47 44 -73.5 72.5t-54.5 67.5t-40 79.5t-12 87.5q0 112 68 204t192 156v17q-139 39 -293 39q-110 0 -191 -22.5t-141.5 -73.5t-91 -137.5t-30.5 -209.5v-866h-306v66l189 22v780q0 141 41.5 244t118 162.5
t174.5 87t221 27.5z" />
    <glyph glyph-name="Ygrave" unicode="&#x1ef2;" horiz-adv-x="1345" 
d="M1290 1296l-153 -22q-144 -313 -398 -785v-415l219 -8v-66h-555v66l220 22v399q-231 423 -414 801l-154 8v66h492v-66l-203 -22q163 -345 346 -682h15q173 313 342 696l-209 8v66h452v-66zM743 1481h-75l-224 268q30 48 82 70h35z" />
    <glyph glyph-name="ygrave" unicode="&#x1ef3;" horiz-adv-x="1165" 
d="M1143 952l-142 -22q-158 -462 -387 -1018q-149 -348 -344 -348q-74 0 -114 43l10 69h217q95 109 168 293q-198 468 -377 975l-151 8v62h417v-62l-141 -22q133 -404 301 -815h16q187 477 302 829l-181 8v62h406v-62zM655 1174h-71l-260 325q35 54 86 72h34z" />
    <glyph glyph-name="uni2007" unicode="&#x2007;" horiz-adv-x="1165" 
 />
    <glyph glyph-name="uni2008" unicode="&#x2008;" horiz-adv-x="446" 
 />
    <glyph glyph-name="uni2009" unicode="&#x2009;" horiz-adv-x="358" 
 />
    <glyph glyph-name="uni200B" unicode="&#x200b;" horiz-adv-x="0" 
 />
    <glyph glyph-name="endash" unicode="&#x2013;" horiz-adv-x="1024" 
d="M897 559h-772v84h772v-84z" />
    <glyph glyph-name="emdash" unicode="&#x2014;" horiz-adv-x="2048" 
d="M1858 559h-1670v84h1670v-84z" />
    <glyph glyph-name="quoteleft" unicode="&#x2018;" horiz-adv-x="444" 
d="M326 1505l18 -45q-63 -36 -101 -93.5t-38 -131.5q0 -28 6 -49l90 -10l2 -121q-46 -11 -80 -11q-36 0 -73 13q-33 68 -33 137q0 114 57 195t152 116z" />
    <glyph glyph-name="quoteright" unicode="&#x2019;" horiz-adv-x="444" 
d="M221 1491q44 0 74 -12q33 -64 33 -142q0 -117 -55.5 -194t-151.5 -113l-21 43q140 83 140 225q0 24 -4 52l-91 10l-4 121q42 10 80 10z" />
    <glyph glyph-name="quotesinglbase" unicode="&#x201a;" horiz-adv-x="444" 
d="M221 139q50 0 74 -12q33 -64 33 -139q0 -117 -56 -196t-151 -114l-21 46q140 79 140 225q0 25 -4 49l-91 12l-4 121q33 8 80 8z" />
    <glyph glyph-name="quotedblleft" unicode="&#x201c;" horiz-adv-x="800" 
d="M682 1505l18 -45q-63 -36 -101 -93.5t-38 -131.5q0 -28 6 -49l90 -10l2 -121q-46 -11 -79 -11q-37 0 -74 13q-33 68 -33 137q0 114 57 195t152 116zM326 1505l18 -45q-63 -36 -101 -93.5t-38 -131.5q0 -28 6 -49l90 -10l2 -121q-46 -11 -80 -11q-36 0 -73 13
q-33 68 -33 137q0 114 57 195t152 116z" />
    <glyph glyph-name="quotedblright" unicode="&#x201d;" horiz-adv-x="800" 
d="M578 1491q43 0 73 -12q33 -64 33 -142q0 -117 -55.5 -194t-151.5 -113l-20 43q139 82 139 225q0 24 -4 52l-90 10l-4 121q42 10 80 10zM221 1491q44 0 74 -12q33 -64 33 -142q0 -117 -55.5 -194t-151.5 -113l-21 43q140 83 140 225q0 24 -4 52l-91 10l-4 121q42 10 80 10
z" />
    <glyph glyph-name="quotedblbase" unicode="&#x201e;" horiz-adv-x="800" 
d="M578 139q49 0 73 -12q33 -64 33 -139q0 -117 -56 -196t-151 -114l-20 46q139 79 139 225q0 25 -4 49l-90 12l-4 121q33 8 80 8zM221 139q50 0 74 -12q33 -64 33 -139q0 -117 -56 -196t-151 -114l-21 46q140 79 140 225q0 25 -4 49l-91 12l-4 121q33 8 80 8z" />
    <glyph glyph-name="dagger" unicode="&#x2020;" horiz-adv-x="950" 
d="M424 1516h98q6 -40 6 -82q0 -116 -28 -250h-56q-26 140 -26 250q0 42 6 82zM147 1155q105 0 250 -27v-55q-156 -29 -250 -29q-34 0 -81 7v100q27 4 81 4zM803 1155q55 0 82 -4v-100q-47 -7 -82 -7q-94 0 -250 29v55q145 27 250 27zM444 1020h56q24 -109 24 -270
q0 -179 -24 -443h-56q-24 302 -24 443q0 145 24 270z" />
    <glyph glyph-name="daggerdbl" unicode="&#x2021;" horiz-adv-x="991" 
d="M444 1516h99q6 -40 6 -82q0 -111 -29 -250h-55q-27 145 -27 250q0 42 6 82zM168 1155q105 0 250 -27v-55q-156 -29 -250 -29q-35 0 -82 7v100q27 4 82 4zM823 1155q55 0 82 -4v-100q-47 -7 -82 -7q-94 0 -250 29v55q145 27 250 27zM465 1020h55q25 -113 25 -262t-25 -262
h-55q-25 130 -25 262t25 262zM168 471q94 0 250 -29v-55q-145 -27 -250 -27q-48 0 -82 5v100q41 6 82 6zM823 471q42 0 82 -6v-100q-34 -5 -82 -5q-105 0 -250 27v55q156 29 250 29zM465 332h55q29 -139 29 -250q0 -42 -6 -82h-99q-6 40 -6 82q0 105 27 250z" />
    <glyph glyph-name="bullet" unicode="&#x2022;" horiz-adv-x="698" 
d="M350 791q92 0 141.5 -51t49.5 -142q0 -90 -49 -141t-142 -51q-94 0 -143 50.5t-49 141.5t49 142t143 51z" />
    <glyph glyph-name="ellipsis" unicode="&#x2026;" horiz-adv-x="1353" 
d="M1141 203q29 0 41 -4q30 -43 30 -93q0 -52 -30 -106h-111l-24 182q40 21 94 21zM233 203q29 0 41 -4q31 -45 31 -93q0 -50 -31 -106h-110l-25 182q40 21 94 21zM684 203q29 0 41 -4q31 -45 31 -93q0 -50 -31 -106h-111l-24 182q40 21 94 21z" />
    <glyph glyph-name="perthousand" unicode="&#x2030;" horiz-adv-x="2373" 
d="M1985 731q140 0 211 -102.5t71 -268.5q0 -179 -80 -283t-221 -104q-139 0 -209.5 100.5t-70.5 266.5q0 179 79.5 285t219.5 106zM1976 670q-188 0 -188 -320q0 -313 186 -313q189 0 189 315q0 318 -187 318zM1300 1251l7 -18q-39 -58 -128.5 -188t-156.5 -229.5
t-131 -199.5q-67 -103 -204.5 -322.5t-213.5 -336.5l-65 31l-7 18q301 444 430 639q70 109 202.5 319.5t201.5 317.5zM406 1245q140 0 211 -102.5t71 -268.5q0 -179 -80 -283t-221 -104q-139 0 -210 100.5t-71 266.5q0 179 80 285t220 106zM397 1182q-188 0 -188 -318
q0 -313 186 -313q189 0 189 315q0 316 -187 316zM1294 731q140 0 211.5 -102.5t71.5 -268.5q0 -179 -80 -283t-221 -104q-139 0 -210 100.5t-71 266.5q0 179 79.5 285t219.5 106zM1288 668q-188 0 -188 -318q0 -313 186 -313q189 0 189 315q0 316 -187 316z" />
    <glyph glyph-name="minute" unicode="&#x2032;" horiz-adv-x="444" 
d="M326 1458l-138 -446h-69l84 458q62 15 104 15z" />
    <glyph glyph-name="second" unicode="&#x2033;" horiz-adv-x="823" 
d="M326 1458l-138 -446h-69l84 458q62 15 104 15zM705 1458l-138 -446h-69l84 458q62 15 104 15z" />
    <glyph glyph-name="uni2034" unicode="&#x2034;" horiz-adv-x="1189" 
d="M326 1458l-138 -446h-69l84 458q62 15 104 15zM692 1458l-137 -446h-70l84 458q62 15 105 15zM1071 1458l-137 -446h-70l84 458q62 15 105 15z" />
    <glyph glyph-name="guilsinglleft" unicode="&#x2039;" horiz-adv-x="643" 
d="M473 895l-213 -332l213 -332l-53 -41l-291 361v24l291 361z" />
    <glyph glyph-name="guilsinglright" unicode="&#x203a;" horiz-adv-x="643" 
d="M514 575v-24l-291 -361l-53 41l213 332l-211 332l53 41z" />
    <glyph glyph-name="fraction" unicode="&#x2044;" horiz-adv-x="534" 
d="M750 1364l6 -18q-366 -537 -449 -664q-64 -99 -215 -340.5t-239 -374.5l-66 31l-6 18q373 550 465 693q77 116 219 342.5t219 343.5z" />
    <glyph glyph-name="uni2070" unicode="&#x2070;" horiz-adv-x="727" 
d="M371 1501q128 0 195 -97.5t67 -258.5q0 -172 -74 -273.5t-203 -101.5t-196.5 98t-67.5 260q0 171 74.5 272t204.5 101zM365 1446q-181 0 -181 -309q0 -310 178 -310q181 0 181 312q0 307 -178 307z" />
    <glyph glyph-name="uni2074" unicode="&#x2074;" horiz-adv-x="608" 
d="M561 920h-125v-134h-80v134h-301l-8 38q121 264 221 545l76 -26l4 -15q-99 -239 -237 -479l6 -12q75 10 145 10h94v199l56 16l24 -4v-211h125v-61z" />
    <glyph glyph-name="uni2075" unicode="&#x2075;" horiz-adv-x="598" 
d="M498 1501l16 -37q-74 -65 -190 -65q-77 0 -138 28l-20 -213q73 15 123 15q106 0 174.5 -58.5t68.5 -158.5q0 -101 -72.5 -171.5t-189.5 -70.5q-83 0 -139.5 36.5t-56.5 100.5q0 43 26 66h60l22 -137q61 -11 84 -11q79 0 126.5 44t47.5 128q0 160 -196 166l-127 4l12 322
l64 12q71 -33 141 -33q63 0 164 33z" />
    <glyph glyph-name="uni2076" unicode="&#x2076;" horiz-adv-x="688" 
d="M395 1247q94 0 153.5 -64t59.5 -159q0 -106 -73 -180t-185 -74q-122 0 -190 91t-68 243q0 188 102 292.5t261 104.5q50 0 88 -10l-2 -41q-162 5 -251 -61t-106 -228h15q89 86 196 86zM356 827q71 0 115.5 47t44.5 138q0 84 -38 128t-109 44q-93 0 -185 -92v-13
q0 -126 45 -189t127 -63z" />
    <glyph glyph-name="uni2077" unicode="&#x2077;" horiz-adv-x="548" 
d="M518 1481l12 -39q-270 -379 -282 -557l39 -99l-60 -28q-34 14 -51.5 45t-17.5 69q0 85 82 232.5t213 314.5l-4 13l-318 -19l-14 -100h-49q-11 53 -11 96q0 37 6 72h455z" />
    <glyph glyph-name="uni2078" unicode="&#x2078;" horiz-adv-x="669" 
d="M420 1163v-12q153 -59 153 -186q0 -95 -71 -145t-172 -50t-167.5 49.5t-66.5 138.5q0 125 146 179v14q-131 57 -131 172q0 59 37 101t87.5 59.5t106.5 17.5q90 0 153.5 -46t63.5 -128q0 -113 -139 -164zM197 1329q0 -46 32 -78.5t109 -62.5l29 -12q54 32 79 63t25 82
q0 61 -35.5 93t-99.5 32q-63 0 -101 -30.5t-38 -86.5zM332 825q69 0 111 35.5t42 100.5q0 52 -35 84.5t-126 66.5l-31 12q-57 -32 -83 -68.5t-26 -90.5q0 -68 39.5 -104t108.5 -36z" />
    <glyph glyph-name="uni2079" unicode="&#x2079;" horiz-adv-x="688" 
d="M334 1501q124 0 192 -90.5t68 -241.5q0 -188 -102 -293.5t-261 -105.5q-53 0 -88 12l4 41q160 -6 249 60t106 229h-15q-89 -86 -194 -86q-96 0 -155.5 63.5t-59.5 159.5q0 107 72.5 179.5t183.5 72.5zM319 1087q93 0 183 93v12q0 126 -45.5 190t-126.5 64
q-71 0 -115.5 -46.5t-44.5 -137.5q0 -85 38.5 -130t110.5 -45z" />
    <glyph glyph-name="uni2080" unicode="&#x2080;" horiz-adv-x="727" 
d="M371 559q128 0 195 -97.5t67 -258.5q0 -172 -74 -273.5t-203 -101.5t-196.5 98t-67.5 260q0 171 74.5 272t204.5 101zM365 504q-181 0 -181 -309q0 -310 178 -310q181 0 181 312q0 307 -178 307z" />
    <glyph glyph-name="uni2081" unicode="&#x2081;" horiz-adv-x="499" 
d="M457 -102v-48h-383v48l151 14v539q-52 -29 -153 -37l-2 53q135 13 196 98l41 -2v-659z" />
    <glyph glyph-name="uni2082" unicode="&#x2082;" horiz-adv-x="571" 
d="M451 6h55q8 -36 8 -80q0 -51 -4 -76h-459l-8 56q13 11 50.5 42t52 43t48 41t48 44t41.5 42.5t39 45.5t29.5 44.5t25.5 49t14 48.5t6 52q0 72 -38.5 112t-104.5 40q-44 0 -96 -21l-21 -133h-61q-27 30 -27 64q0 63 63.5 104t149.5 41q104 0 165.5 -58.5t61.5 -148.5
q0 -47 -20 -94t-47.5 -85.5t-81.5 -88.5t-97 -85t-118 -93l4 -12q68 7 152 10l157 8z" />
    <glyph glyph-name="uni2083" unicode="&#x2083;" horiz-adv-x="641" 
d="M287 565q99 0 159 -50t60 -132q0 -113 -131 -156v-16q151 -28 151 -164q0 -95 -72 -154t-186 -59q-90 0 -150.5 37.5t-60.5 101.5q0 38 25 66h61l21 -131q59 -19 102 -19q79 0 124.5 38.5t45.5 115.5q0 147 -174 147h-55v54h112q97 44 97 141q0 63 -37.5 94t-102.5 31
q-48 0 -104 -18l-16 -130h-58q-28 28 -28 62q0 62 64.5 101.5t152.5 39.5z" />
    <glyph glyph-name="uni2084" unicode="&#x2084;" horiz-adv-x="608" 
d="M561 -23h-125v-133h-80v133h-301l-8 39q121 264 221 545l76 -26l4 -15q-99 -239 -237 -479l6 -12q75 10 145 10h94v199l56 16l24 -4v-211h125v-62z" />
    <glyph glyph-name="uni2085" unicode="&#x2085;" horiz-adv-x="598" 
d="M498 559l16 -37q-74 -65 -190 -65q-77 0 -138 28l-20 -213q73 15 123 15q106 0 174.5 -58.5t68.5 -158.5q0 -101 -72.5 -171.5t-189.5 -70.5q-83 0 -139.5 36.5t-56.5 100.5q0 43 26 66h60l22 -137q60 -11 84 -11q79 0 126.5 44t47.5 128q0 160 -196 166l-127 4l12 322
l64 12q71 -33 141 -33q63 0 164 33z" />
    <glyph glyph-name="uni2086" unicode="&#x2086;" horiz-adv-x="688" 
d="M395 305q94 0 153.5 -64t59.5 -159q0 -106 -73 -180t-185 -74q-122 0 -190 91t-68 243q0 188 102 292.5t261 104.5q50 0 88 -10l-2 -41q-162 5 -251 -61t-106 -228h15q89 86 196 86zM356 -115q71 0 115.5 47t44.5 138q0 84 -38 128t-109 44q-93 0 -185 -92v-13
q0 -126 45 -189t127 -63z" />
    <glyph glyph-name="uni2087" unicode="&#x2087;" horiz-adv-x="548" 
d="M518 539l12 -39q-270 -379 -282 -557l39 -99l-60 -28q-34 14 -51.5 45t-17.5 69q0 85 82 232.5t213 314.5l-4 12l-318 -18l-14 -100h-49q-11 53 -11 96q0 37 6 72h455z" />
    <glyph glyph-name="uni2088" unicode="&#x2088;" horiz-adv-x="669" 
d="M420 223v-12q153 -59 153 -186q0 -95 -71 -145t-172 -50t-167.5 49.5t-66.5 138.5q0 125 146 179v14q-131 57 -131 172q0 59 37 101t87.5 59.5t106.5 17.5q90 0 153.5 -46t63.5 -128q0 -113 -139 -164zM197 389q0 -46 32 -78.5t109 -62.5l29 -12q54 32 79 63t25 82
q0 61 -35.5 93t-99.5 32q-63 0 -101 -30.5t-38 -86.5zM332 -115q69 0 111 35.5t42 99.5q0 52 -35 85t-126 67l-31 12q-57 -32 -83 -68.5t-26 -90.5q0 -68 39.5 -104t108.5 -36z" />
    <glyph glyph-name="uni2089" unicode="&#x2089;" horiz-adv-x="688" 
d="M334 561q124 0 192 -90.5t68 -241.5q0 -188 -102 -293.5t-261 -105.5q-53 0 -88 12l4 41q160 -6 249 60t106 229h-15q-89 -86 -194 -86q-96 0 -155.5 63.5t-59.5 159.5q0 107 72.5 179.5t183.5 72.5zM319 147q93 0 183 93v12q0 126 -45.5 190t-126.5 64
q-71 0 -115.5 -46.5t-44.5 -137.5q0 -85 38.5 -130t110.5 -45z" />
    <glyph glyph-name="Euro" unicode="&#x20ac;" horiz-adv-x="1175" 
d="M1055 188l30 -47q-142 -168 -364 -168q-99 0 -180 35.5t-136.5 99t-91 145t-51.5 179.5h-170v72h162q-4 58 -4 90q0 70 8 125h-166v72h176q43 207 170.5 330.5t323.5 123.5q61 0 114 -12.5t96.5 -38t69 -69.5t25.5 -101q0 -60 -37 -100h-78l-30 221q-76 26 -162 26
q-149 0 -244.5 -99t-126.5 -281h395v-72h-405q-6 -55 -6 -119q0 -34 4 -96h407v-72h-399q28 -179 116.5 -276t231.5 -97q173 0 322 129z" />
    <glyph glyph-name="uni20B9" unicode="&#x20b9;" horiz-adv-x="917" 
d="M537 1147l-2 -14q122 -63 141 -201h149v-72h-145q-4 -161 -115 -250t-289 -98l-2 -14q81 -81 208 -226t171 -192l133 -27l-4 -49q-58 -20 -110 -20q-50 0 -85.5 15t-70.5 52q-81 86 -397 479l24 50h205q195 66 203 280h-459v72h455q-20 147 -174 215h-281v72h733v-72
h-288z" />
    <glyph glyph-name="uni20BA" unicode="&#x20ba;" horiz-adv-x="1048" 
d="M881 543l75 8q21 -71 21 -139q0 -84 -31.5 -159.5t-91.5 -134.5t-156 -93.5t-215 -34.5q-105 0 -196 24v525l-183 -70l-12 14v60l195 73v215l-183 -67l-12 14v60l195 73v310q34 10 92 14l20 -14v-269l293 111l10 -16v-60l-303 -113v-217l293 111l10 -14v-60l-303 -114
v-514l62 -3q110 0 195 34t134 91t73 123.5t24 139.5q0 51 -6 92z" />
    <glyph glyph-name="uni20BD" unicode="&#x20bd;" horiz-adv-x="1118" 
d="M444 561v-211h443v-74h-443v-202l236 -8v-66h-537v66l189 22v188h-240v74h240v211h-240v76h240v510l-187 8v64q183 8 471 8q206 0 306 -84t100 -238q0 -169 -108 -256.5t-296 -87.5h-174zM444 637h164q291 0 291 260q0 256 -297 256h-158v-516z" />
    <glyph glyph-name="afii61289" unicode="&#x2113;" horiz-adv-x="772" 
d="M674 160l31 -45q-104 -142 -256 -142q-84 0 -140 44t-81 114.5t-27 165.5q-82 -50 -152 -76l-18 58q106 47 170 96v626q0 268 59.5 404.5t200.5 136.5q103 0 145.5 -77t42.5 -232q0 -235 -82.5 -467t-257.5 -399v-50q0 -133 43.5 -200.5t122.5 -67.5q95 0 199 111z
M449 1470q-78 0 -109 -98.5t-31 -345.5v-569q129 152 189.5 353t60.5 413q0 133 -25 190t-85 57z" />
    <glyph glyph-name="afii61352" unicode="&#x2116;" horiz-adv-x="2134" 
d="M1305 1382q41 0 65 -16l6 -66l-182 -63q-47 -77 -65.5 -168t-18.5 -238q0 -277 53 -831l-88 -20h-22l-529 878q-77 128 -127 229h-16q29 -394 29 -702q0 -220 -63.5 -316t-188.5 -96q-81 0 -127 37l10 66h217q36 56 50 127t14 194q0 76 -3 176.5t-10 279.5t-10 249
l-190 10v64h352l500 -840q63 -107 100 -178h16q-55 415 -55 706q0 518 283 518zM1724 1245q96 0 165 -52t100.5 -132.5t31.5 -177.5q0 -164 -87 -267.5t-230 -103.5q-95 0 -163 50.5t-100 130t-32 177.5q0 163 86.5 269t228.5 106zM1716 1182q-100 0 -154.5 -79t-54.5 -226
q0 -143 53 -222.5t156 -79.5q100 0 154.5 77.5t54.5 224.5q0 146 -53.5 225.5t-155.5 79.5zM1915 201h-395v84h395v-84z" />
    <glyph glyph-name="uni2117" unicode="&#x2117;" horiz-adv-x="1638" 
d="M831 1389q199 0 356 -86.5t246 -245.5t89 -365q0 -214 -94.5 -379t-256.5 -252.5t-362 -87.5q-305 0 -498.5 196t-193.5 507q0 211 94.5 375t256.5 251t363 87zM817 43q128 0 240.5 45.5t195.5 127.5t131 203.5t48 266.5q0 143 -47 262.5t-129 200.5t-193.5 125.5
t-239.5 44.5t-240 -45t-195 -126t-131 -201.5t-48 -264.5q0 -143 46.5 -263.5t128 -202.5t193.5 -127.5t240 -45.5zM848 1069q153 0 233 -67.5t80 -186.5q0 -105 -69 -173.5t-168 -68.5q-12 0 -26 1t-25.5 2.5t-21.5 3.5t-16 3l-6 1v57h29q93 0 136.5 43.5t43.5 130.5
q0 91 -47.5 136.5t-152.5 45.5h-74v-639l133 -6v-59h-352v59l110 17v626l-110 6v62q147 6 303 6z" />
    <glyph glyph-name="trademark" unicode="&#x2122;" horiz-adv-x="1708" 
d="M623 1362v-19q2 -23 2 -59q0 -50 -7 -115h-59l-14 131l-166 7v-658l115 -6v-51h-328v49l121 16v650l-166 -7l-15 -131h-59q-6 55 -6 115q0 36 2 59v19h580zM1657 643v-51h-311v49l110 16q-6 260 -26 643h-15q-11 -46 -39 -129l-174 -534l-72 -23h-18l-186 566
q-23 70 -33 120h-16q-6 -107 -15 -350.5t-12 -300.5l127 -6v-51h-305v49l112 16q11 322 35 648l-106 8v49h252q131 -395 194 -625h17q70 249 200 625h246v-47l-113 -17q30 -424 35 -649z" />
    <glyph glyph-name="Omega" unicode="&#x2126;" horiz-adv-x="1417" 
d="M1280 287l72 -6q6 -47 6 -99q0 -100 -12 -182h-482v293q307 125 307 502q0 246 -124.5 380t-331.5 134q-99 0 -183.5 -33t-148.5 -96.5t-100.5 -164t-36.5 -227.5q0 -368 307 -495v-293h-481q-15 103 -15 182q0 52 6 99l74 6l27 -176l315 -13v166q-161 45 -261.5 182
t-100.5 342q0 125 40 233.5t114.5 190.5t190.5 129.5t259 47.5q144 0 256.5 -47t182 -129t105 -186t35.5 -224q0 -203 -97 -346t-265 -193v-166l313 13z" />
    <glyph glyph-name="estimated" unicode="&#x212e;" horiz-adv-x="1323" 
d="M307 496v-301q63 -92 165.5 -136.5t219.5 -44.5q137 0 250.5 56.5t183.5 136.5l23 -27q-80 -97 -199 -152t-262 -55q-124 0 -233.5 42t-187 114t-122.5 170.5t-45 208.5q0 145 75.5 267.5t205.5 193.5t283 71q152 0 281 -71t203.5 -193t74.5 -266v-14h-916zM666 1001
q-107 0 -201.5 -46t-157.5 -134v-289h711v289q-63 87 -154.5 133.5t-197.5 46.5z" />
    <glyph glyph-name="uni2150" unicode="&#x2150;" horiz-adv-x="1769" 
d="M1346 1364l6 -18q-366 -537 -449 -664q-64 -99 -215 -340.5t-239 -374.5l-66 31l-6 18q373 550 465 693q77 116 219 342.5t219 343.5zM547 588v-53h-461v53l184 18v647q-69 -38 -184 -45l-2 60q155 16 235 118l50 -2v-788zM1737 827l10 -43q-185 -259 -261.5 -409.5
t-84.5 -265.5l51 -113l-68 -33q-86 34 -86 137q0 104 88 261.5t275 394.5l-6 14l-387 -20l-17 -121h-59q-10 52 -10 114q0 41 6 84h549z" />
    <glyph glyph-name="uni2151" unicode="&#x2151;" horiz-adv-x="1865" 
d="M1346 1364l6 -18q-366 -537 -449 -664q-64 -99 -215 -340.5t-239 -374.5l-66 31l-6 18q373 550 465 693q77 116 219 342.5t219 343.5zM547 588v-53h-461v53l184 18v647q-69 -38 -184 -45l-2 60q155 16 235 118l50 -2v-788zM1446 854q149 0 231 -105t82 -286
q0 -224 -124 -355t-320 -131q-45 0 -98 11l4 49q198 -5 308 79t124 279h-17q-105 -102 -237 -102q-116 0 -189 78.5t-73 191.5q0 123 86 207t223 84zM1430 365q62 0 114.5 28.5t108.5 87.5q0 310 -209 310q-89 0 -145 -54t-56 -162q0 -97 48.5 -153.5t138.5 -56.5z" />
    <glyph glyph-name="uni2152" unicode="&#x2152;" horiz-adv-x="2562" 
d="M1346 1364l6 -18q-366 -537 -449 -664q-64 -99 -215 -340.5t-239 -374.5l-66 31l-6 18q373 550 465 693q77 116 219 342.5t219 343.5zM547 588v-53h-461v53l184 18v647q-69 -38 -184 -45l-2 60q155 16 235 118l50 -2v-788zM2136 854q155 0 237.5 -117.5t82.5 -310.5
q0 -206 -89.5 -327.5t-246.5 -121.5q-154 0 -236 118.5t-82 312.5q0 205 89 325.5t245 120.5zM2130 791q-221 0 -221 -375t219 -375q221 0 221 377q0 373 -219 373zM1647 53v-53h-461v53l184 19v647q-69 -38 -184 -45l-2 59q154 16 235 119l49 -2v-789z" />
    <glyph glyph-name="onethird" unicode="&#x2153;" horiz-adv-x="1832" 
d="M1346 1364l6 -18q-366 -537 -449 -664q-64 -99 -215 -340.5t-239 -374.5l-66 31l-6 18q373 550 465 693q77 116 219 342.5t219 343.5zM547 588v-53h-461v53l184 18v647q-69 -38 -184 -45l-2 60q155 16 235 118l50 -2v-788zM1542 444v-14q182 -43 182 -199
q0 -114 -87.5 -184t-225.5 -70q-109 0 -180.5 45t-71.5 121q0 47 31 78h72l24 -158q55 -22 121 -22q94 0 153.5 43t59.5 141q0 181 -221 181h-62v61h138q53 26 85.5 64.5t32.5 105.5q0 79 -45 116.5t-125 37.5q-64 0 -133 -29l-18 -150h-68q-33 30 -33 72q0 73 78.5 121.5
t186.5 48.5q120 0 191 -60t71 -155q0 -138 -156 -195z" />
    <glyph glyph-name="twothirds" unicode="&#x2154;" horiz-adv-x="1921" 
d="M1434 1364l6 -18q-366 -537 -449 -664q-64 -99 -215 -340.5t-239 -374.5l-66 31l-6 18q373 550 465 693q77 116 219 342.5t219 343.5zM616 623q0 -39 -6 -82v-6h-551l-10 61q23 20 82.5 69t88.5 74.5t78 71.5t75.5 80t55.5 78.5t41.5 89t12.5 90.5q0 84 -44.5 130
t-123.5 46q-52 0 -125 -27l-20 -157h-74q-30 27 -30 73q0 74 77.5 124.5t182.5 50.5q121 0 192.5 -68t71.5 -170q0 -55 -24 -111.5t-60.5 -105.5t-99.5 -109t-121 -107t-146 -114l4 -14q101 12 187 14l198 8l15 101h65q8 -36 8 -90zM1630 444v-14q182 -43 182 -199
q0 -114 -87.5 -184t-225.5 -70q-109 0 -180.5 45t-71.5 121q0 47 31 78h72l24 -158q55 -22 121 -22q94 0 153.5 43t59.5 141q0 181 -221 181h-62v61h138q53 26 85.5 64.5t32.5 105.5q0 79 -45 116.5t-125 37.5q-64 0 -133 -29l-18 -150h-68q-32 29 -32 72q0 73 78 121.5
t186 48.5q120 0 191 -60t71 -155q0 -138 -156 -195z" />
    <glyph glyph-name="uni2155" unicode="&#x2155;" horiz-adv-x="1755" 
d="M1346 1364l6 -18q-366 -537 -449 -664q-64 -99 -215 -340.5t-239 -374.5l-66 31l-6 18q373 550 465 693q77 116 219 342.5t219 343.5zM547 588v-53h-461v53l184 18v647q-69 -38 -184 -45l-2 60q155 16 235 118l50 -2v-788zM1380 532q130 0 215.5 -71.5t85.5 -196.5
t-88 -206t-225 -81q-106 0 -177 46.5t-71 121.5q0 45 31 76h72l22 -155q58 -25 113 -25q100 0 158.5 53t58.5 154q0 198 -252 207l-147 8l14 377l72 14q95 -37 182 -37q73 0 190 37l19 -45q-85 -78 -221 -78q-103 0 -175 35l-24 -252q85 18 147 18z" />
    <glyph glyph-name="uni2156" unicode="&#x2156;" horiz-adv-x="1843" 
d="M1434 1364l6 -18q-366 -537 -449 -664q-64 -99 -215 -340.5t-239 -374.5l-66 31l-6 18q373 550 465 693q77 116 219 342.5t219 343.5zM616 623q0 -39 -6 -82v-6h-551l-10 61q23 20 82.5 69t88.5 74.5t78 71.5t75.5 80t55.5 78.5t41.5 89t12.5 90.5q0 84 -44.5 130
t-123.5 46q-52 0 -125 -27l-20 -157h-74q-30 27 -30 73q0 74 77.5 124.5t182.5 50.5q121 0 192.5 -68t71.5 -170q0 -55 -24 -111.5t-60.5 -105.5t-99.5 -109t-121 -107t-146 -114l4 -14q101 12 187 14l198 8l15 101h65q8 -36 8 -90zM1468 532q130 0 215.5 -71.5t85.5 -196.5
t-88 -206t-225 -81q-106 0 -177 46.5t-71 121.5q0 45 31 76h72l22 -155q58 -25 113 -25q100 0 158.5 53t58.5 154q0 198 -252 207l-147 8l14 377l72 14q95 -37 182 -37q73 0 190 37l19 -45q-85 -78 -221 -78q-102 0 -174 35l-25 -252q85 18 147 18z" />
    <glyph glyph-name="uni2157" unicode="&#x2157;" horiz-adv-x="1818" 
d="M1409 1364l6 -18q-340 -499 -448 -664q-63 -97 -214.5 -339t-240.5 -376l-66 31l-6 18q373 550 465 693q77 116 219 342.5t219 343.5zM449 979v-14q182 -43 182 -199q0 -114 -88 -184t-226 -70q-109 0 -180 45t-71 121q0 48 30 78h72l25 -158q58 -23 120 -23
q94 0 153.5 43.5t59.5 141.5q0 180 -221 180h-61v61h137q53 26 86 64.5t33 105.5q0 79 -45 116.5t-125 37.5q-64 0 -133 -29l-19 -149h-67q-33 30 -33 72q0 73 78 121.5t186 48.5q120 0 191 -60t71 -155q0 -139 -155 -195zM1444 532q130 0 215.5 -71.5t85.5 -196.5t-88 -206
t-225 -81q-106 0 -177 46.5t-71 121.5q0 46 30 76h72l23 -155q58 -25 112 -25q100 0 158.5 53t58.5 154q0 198 -252 207l-147 8l14 377l72 14q95 -37 182 -37q74 0 191 37l18 -45q-85 -78 -221 -78q-102 0 -174 35l-25 -252q85 18 148 18z" />
    <glyph glyph-name="uni2158" unicode="&#x2158;" horiz-adv-x="1843" 
d="M1434 1364l6 -18q-366 -537 -449 -664q-64 -99 -215 -340.5t-239 -374.5l-66 31l-6 18q373 550 465 693q77 116 219 342.5t219 343.5zM676 696h-154v-161h-92v161h-369l-8 41q167 343 277 647l88 -28l6 -15q-149 -339 -295 -575l4 -12q106 12 174 12h123v240l64 18l28 -4
v-254h154v-70zM1468 532q130 0 215.5 -71.5t85.5 -196.5t-88 -206t-225 -81q-106 0 -177 46.5t-71 121.5q0 45 31 76h72l22 -155q58 -25 113 -25q100 0 158.5 53t58.5 154q0 198 -252 207l-147 8l14 377l72 14q95 -37 182 -37q73 0 190 37l19 -45q-85 -78 -221 -78
q-102 0 -174 35l-25 -252q85 18 147 18z" />
    <glyph glyph-name="uni2159" unicode="&#x2159;" horiz-adv-x="1804" 
d="M1346 1364l6 -18q-366 -537 -449 -664q-64 -99 -215 -340.5t-239 -374.5l-66 31l-6 18q373 550 465 693q77 116 219 342.5t219 343.5zM547 588v-53h-461v53l184 18v647q-69 -38 -184 -45l-2 60q155 16 235 118l50 -2v-788zM1456 539q114 0 187 -78.5t73 -190.5
q0 -123 -88.5 -208t-222.5 -85q-146 0 -228.5 106t-82.5 286q0 224 124 354.5t320 130.5q53 0 98 -10l-4 -49q-197 5 -306.5 -79.5t-123.5 -279.5h15q106 103 239 103zM1409 41q89 0 145 54.5t56 162.5q0 97 -48 153t-139 56q-62 0 -114 -28.5t-109 -88.5q0 -309 209 -309z
" />
    <glyph glyph-name="uni215A" unicode="&#x215a;" horiz-adv-x="1863" 
d="M1405 1364l6 -18q-340 -499 -448 -664q-63 -97 -214.5 -339t-240.5 -376l-66 31l-6 18q373 550 465 693q77 116 219 342.5t219 343.5zM344 1067q130 0 215.5 -71.5t85.5 -196.5t-88 -206t-225 -81q-106 0 -177 46.5t-71 121.5q0 45 31 76h71l23 -156q58 -25 113 -25
q100 0 158.5 53t58.5 154q0 198 -252 207l-148 8l15 377l71 15q95 -37 183 -37q73 0 190 37l18 -46q-84 -77 -221 -77q-105 0 -174 34l-24 -251q85 18 147 18zM1516 539q114 0 187 -78.5t73 -190.5q0 -123 -89 -208t-223 -85q-146 0 -228.5 106t-82.5 286q0 224 124 354.5
t320 130.5q54 0 99 -10l-4 -49q-197 5 -306.5 -79.5t-123.5 -279.5h14q106 103 240 103zM1468 41q89 0 145 54.5t56 162.5q0 97 -48 153t-138 56q-62 0 -114 -28.5t-109 -88.5q0 -309 208 -309z" />
    <glyph glyph-name="oneeighth" unicode="&#x215b;" horiz-adv-x="1845" 
d="M1346 1364l6 -18q-366 -537 -449 -664q-64 -99 -215 -340.5t-239 -374.5l-66 31l-6 18q373 550 465 693q77 116 219 342.5t219 343.5zM547 588v-53h-461v53l184 18v647q-69 -38 -184 -45l-2 60q155 16 235 118l50 -2v-788zM1544 446v-14q94 -37 143.5 -90t49.5 -137
q0 -60 -25.5 -106t-69.5 -71.5t-95 -38t-109 -12.5q-126 0 -206.5 56t-80.5 164q0 48 16 85t45 62t58.5 41t68.5 29v16q-172 72 -172 207q0 72 45.5 123t108.5 72.5t133 21.5q110 0 188 -56t78 -155q0 -76 -46.5 -119.5t-129.5 -77.5zM1270 647q0 -61 43 -98.5t135 -73.5
l33 -14q71 38 104 75t33 101q0 72 -47 114t-125 42t-127 -40t-49 -106zM1442 41q89 0 140.5 39.5t51.5 116.5q0 68 -45.5 107.5t-154.5 80.5l-35 14q-75 -39 -110.5 -81.5t-35.5 -112.5q0 -84 49.5 -124t139.5 -40z" />
    <glyph glyph-name="threeeighths" unicode="&#x215c;" horiz-adv-x="1908" 
d="M1409 1364l6 -18q-340 -499 -448 -664q-63 -97 -214.5 -339t-240.5 -376l-66 31l-6 18q373 550 465 693q77 116 219 342.5t219 343.5zM449 979v-14q182 -43 182 -199q0 -114 -88 -184t-226 -70q-109 0 -180 45t-71 121q0 48 30 78h72l25 -158q58 -23 120 -23
q94 0 153.5 43.5t59.5 141.5q0 180 -221 180h-61v61h137q53 26 86 64.5t33 105.5q0 79 -45 116.5t-125 37.5q-64 0 -133 -29l-19 -149h-67q-33 30 -33 72q0 73 78 121.5t186 48.5q120 0 191 -60t71 -155q0 -139 -155 -195zM1608 446v-14q94 -37 143 -90t49 -137
q0 -60 -25.5 -106t-69.5 -71.5t-95 -38t-109 -12.5q-126 0 -206.5 56t-80.5 164q0 48 16 85t45.5 62t59 41t68.5 29v16q-172 72 -172 207q0 72 45.5 123t108.5 72.5t133 21.5q110 0 188 -56t78 -155q0 -76 -46.5 -119.5t-129.5 -77.5zM1333 647q0 -61 43 -98.5t135 -73.5
l33 -14q71 38 104 75t33 101q0 72 -47 114t-125 42t-127 -40t-49 -106zM1505 41q89 0 141 39.5t52 116.5q0 68 -46 107.5t-155 80.5l-35 14q-75 -39 -110 -81.5t-35 -112.5q0 -164 188 -164z" />
    <glyph glyph-name="fiveeighths" unicode="&#x215d;" horiz-adv-x="1904" 
d="M1405 1364l6 -18q-340 -499 -448 -664q-63 -97 -214.5 -339t-240.5 -376l-66 31l-6 18q373 550 465 693q77 116 219 342.5t219 343.5zM344 1067q130 0 215.5 -71.5t85.5 -196.5t-88 -206t-225 -81q-106 0 -177 46.5t-71 121.5q0 45 31 76h71l23 -156q58 -25 113 -25
q100 0 158.5 53t58.5 154q0 198 -252 207l-148 8l15 377l71 15q95 -37 183 -37q73 0 190 37l18 -46q-84 -77 -221 -77q-105 0 -174 34l-24 -251q85 18 147 18zM1604 446v-14q94 -37 143 -90t49 -137q0 -60 -25.5 -106t-69.5 -71.5t-95 -38t-109 -12.5q-126 0 -206.5 56
t-80.5 164q0 48 16 85t45.5 62t59 41t68.5 29v16q-172 72 -172 207q0 72 45.5 123t108 72.5t132.5 21.5q110 0 188.5 -56t78.5 -155q0 -76 -46.5 -119.5t-129.5 -77.5zM1329 647q0 -61 43 -98.5t135 -73.5l33 -14q71 38 104 75t33 101q0 72 -47 114t-125 42t-127 -40
t-49 -106zM1501 41q89 0 141 39.5t52 116.5q0 68 -46 107.5t-155 80.5l-35 14q-75 -39 -110 -81.5t-35 -112.5q0 -164 188 -164z" />
    <glyph glyph-name="seveneighths" unicode="&#x215e;" horiz-adv-x="1681" 
d="M1182 1364l6 -18q-366 -537 -449 -664q-64 -99 -215 -340.5t-239 -374.5l-66 31l-6 18q373 550 465 693q77 116 219 342.5t219 343.5zM621 1362l10 -43q-185 -259 -261.5 -410t-84.5 -266l51 -113l-68 -32q-86 34 -86 137q0 104 88 261t275 394l-6 15l-387 -21l-17 -121
h-59q-10 52 -10 115q0 40 6 84h549zM1380 446v-14q94 -37 143.5 -90t49.5 -137q0 -60 -25.5 -106t-69.5 -71.5t-95 -38t-109 -12.5q-126 0 -206.5 56t-80.5 164q0 48 16 85t45.5 62t59 41t68.5 29v16q-172 72 -172 207q0 72 45.5 123t108 72.5t132.5 21.5q110 0 188 -56
t78 -155q0 -76 -46.5 -119.5t-129.5 -77.5zM1106 647q0 -61 43 -98.5t135 -73.5l33 -14q71 38 104 75t33 101q0 72 -47 114t-125 42t-127 -40t-49 -106zM1278 41q89 0 140.5 39.5t51.5 116.5q0 68 -45.5 107.5t-154.5 80.5l-35 14q-75 -39 -110 -81.5t-35 -112.5
q0 -164 188 -164z" />
    <glyph glyph-name="uni215F" unicode="&#x215f;" horiz-adv-x="1130" 
d="M1346 1364l6 -18q-366 -537 -449 -664q-64 -99 -215 -340.5t-239 -374.5l-66 31l-6 18q373 550 465 693q77 116 219 342.5t219 343.5zM547 588v-53h-461v53l184 18v647q-69 -38 -184 -45l-2 60q155 16 235 118l50 -2v-788z" />
    <glyph glyph-name="uni2189" unicode="&#x2189;" horiz-adv-x="1959" 
d="M1473 1364l6 -18q-366 -537 -449 -664q-63 -97 -214.5 -339t-240.5 -376l-65 31l-6 18q373 550 465 693q77 116 219 342.5t219 343.5zM440 1389q155 0 237.5 -117.5t82.5 -310.5q0 -206 -89.5 -327.5t-246.5 -121.5q-154 0 -236 118t-82 312q0 205 89 326t245 121z
M434 1325q-221 0 -221 -375t219 -375q221 0 221 377q0 373 -219 373zM1669 444v-14q182 -43 182 -199q0 -114 -87.5 -184t-225.5 -70q-109 0 -180.5 45t-71.5 121q0 47 31 78h72l24 -158q55 -22 121 -22q94 0 153.5 43t59.5 141q0 181 -221 181h-62v61h138q53 26 85.5 64.5
t32.5 105.5q0 79 -45 116.5t-125 37.5q-64 0 -133 -29l-18 -150h-68q-33 30 -33 72q0 73 78.5 121.5t186.5 48.5q120 0 191 -60t71 -155q0 -138 -156 -195z" />
    <glyph glyph-name="arrowleft" unicode="&#x2190;" horiz-adv-x="1583" 
d="M580 950l16 -14q-88 -169 -188 -307q268 14 370 14h680v-84h-680q-102 0 -370 14q100 -138 188 -307l-16 -14q-267 214 -484 340v16q207 120 484 342z" />
    <glyph glyph-name="arrowup" unicode="&#x2191;" horiz-adv-x="968" 
d="M834 922l-15 -15q-158 81 -303 185q12 -246 12 -369v-723h-84v723q0 63 15 371q-169 -117 -309 -187l-15 15q225 281 340 483h19q115 -202 340 -483z" />
    <glyph glyph-name="arrowright" unicode="&#x2192;" horiz-adv-x="1583" 
d="M987 936l17 14q279 -224 483 -342v-16q-213 -124 -483 -340l-17 14q85 164 189 307q-268 -14 -371 -14h-680v84h680q103 0 371 -14q-104 143 -189 307z" />
    <glyph glyph-name="arrowdown" unicode="&#x2193;" horiz-adv-x="968" 
d="M819 455l15 -15q-225 -281 -340 -483h-19q-115 202 -340 483l15 15q140 -70 309 -187q-15 307 -15 371v723h84v-723q0 -123 -12 -369q145 104 303 185z" />
    <glyph glyph-name="arrowboth" unicode="&#x2194;" horiz-adv-x="1986" 
d="M1391 938l16 14q279 -224 483 -342v-16q-213 -124 -483 -340l-16 14q88 169 188 307q-282 -14 -360 -14h-451q-82 0 -360 14q100 -138 188 -307l-16 -14q-267 214 -484 340v16q207 120 484 342l16 -14q-88 -169 -188 -307q278 14 360 14h451q78 0 360 -14
q-100 138 -188 307z" />
    <glyph glyph-name="arrowupdn" unicode="&#x2195;" horiz-adv-x="968" 
d="M516 270q145 104 303 185l15 -15q-225 -281 -340 -483h-19q-115 202 -340 483l15 15q140 -70 309 -187q-15 265 -15 412q0 78 2 148.5t6 150.5t5 102q-142 -100 -307 -186l-15 14q230 291 342 484h17q117 -202 340 -484l-15 -14q-168 87 -305 184q14 -238 14 -399
q0 -202 -12 -410z" />
    <glyph glyph-name="uni2196" unicode="&#x2196;" horiz-adv-x="1372" 
d="M123 1145l12 10q233 -61 582 -100l2 -21q-142 -47 -352 -86q184 -164 272 -252l661 -655l-59 -61l-661 657q-104 104 -252 270q-31 -190 -84 -348l-21 2q-33 326 -100 584z" />
    <glyph glyph-name="uni2197" unicode="&#x2197;" horiz-adv-x="1372" 
d="M1237 1155l12 -10q-67 -258 -100 -584l-21 -2q-53 158 -84 348q-156 -175 -251 -270l-662 -657l-59 61l661 655q80 80 273 252q-212 39 -353 86l2 21q349 39 582 100z" />
    <glyph glyph-name="uni2198" unicode="&#x2198;" horiz-adv-x="1372" 
d="M1249 -10l-12 -10q-233 61 -582 100l-2 20q141 47 353 86q-193 172 -273 252l-661 656l59 61l662 -657q87 -87 251 -271q31 190 84 348l21 -2q32 -324 100 -583z" />
    <glyph glyph-name="uni2199" unicode="&#x2199;" horiz-adv-x="1372" 
d="M135 -20l-12 10q68 259 100 583l21 2q53 -158 84 -348q156 175 252 271l661 657l59 -61l-661 -656q-88 -88 -272 -252q210 -39 352 -86l-2 -20q-349 -39 -582 -100z" />
    <glyph glyph-name="uni21A9" unicode="&#x21a9;" horiz-adv-x="1626" 
d="M580 827l16 -14q-88 -169 -188 -307q287 14 362 14h320q153 0 236 76.5t83 198.5q0 123 -80.5 199.5t-222.5 76.5h-180v84h180q178 0 286.5 -103t108.5 -257q0 -153 -111.5 -256t-302.5 -103h-317q-61 0 -117.5 2t-135.5 7t-109 6q99 -136 188 -308l-16 -14
q-267 214 -484 340v16q207 120 484 342z" />
    <glyph glyph-name="uni21AA" unicode="&#x21aa;" horiz-adv-x="1626" 
d="M1030 813l17 14q279 -224 483 -342v-16q-213 -124 -483 -340l-17 14q87 167 189 308q-29 -1 -109 -6t-136.5 -7t-117.5 -2h-317q-191 0 -302.5 103t-111.5 256q0 154 108.5 257t286.5 103h180v-84h-180q-142 0 -222.5 -76.5t-80.5 -199.5q0 -122 83.5 -198.5t236.5 -76.5
h319q76 0 363 -14q-104 143 -189 307z" />
    <glyph glyph-name="uni21BB" unicode="&#x21bb;" horiz-adv-x="1372" 
d="M944 987l35 66q125 -45 213 -177t88 -307q0 -121 -46 -231t-125 -190t-189.5 -127.5t-233.5 -47.5q-120 0 -229 45t-189.5 122t-128 187.5t-47.5 235.5q0 176 89 305.5t241 198.5q-154 62 -307 152l6 20q335 -37 592 -29l8 -12q-114 -225 -225 -549l-21 4
q-20 196 -12 369q-138 -85 -208.5 -193t-70.5 -254q0 -115 42 -213.5t112 -164.5t161 -103t189 -37q207 0 353.5 148t146.5 364q0 142 -67 250t-177 168z" />
    <glyph glyph-name="partialdiff" unicode="&#x2202;" horiz-adv-x="1132" 
d="M600 1540q112 0 196.5 -46t135 -131.5t75.5 -198t25 -253.5q0 -125 -18 -249.5t-61.5 -251.5t-108 -222.5t-166.5 -156t-229 -60.5q-161 0 -255 96t-94 285q0 111 33.5 214t94.5 184.5t155.5 130.5t208.5 49q98 0 178.5 -35t126.5 -96h16q5 98 5 112q0 537 -371 537
q-107 0 -225 -49l-13 51q124 90 291 90zM461 45q81 0 149.5 39t116.5 103t85 151.5t59 178t34 190.5q-56 64 -134.5 99.5t-166.5 35.5q-120 0 -209 -64.5t-132.5 -172t-43.5 -243.5q0 -317 242 -317z" />
    <glyph glyph-name="emptyset" unicode="&#x2205;" horiz-adv-x="1505" 
d="M1327 1331l-164 -227q106 -88 166 -216t60 -278q0 -181 -87.5 -328t-234.5 -228t-322 -81q-180 0 -335 95l-162 -226l-60 27l-8 18l164 228q-107 87 -167 216t-60 279q0 180 87.5 326.5t235 227.5t322.5 81q184 0 334 -92l161 223l62 -26zM217 610q0 -265 180 -424
l647 895q-133 82 -290 82q-107 0 -203.5 -38t-171 -107.5t-118.5 -175t-44 -232.5zM754 55q143 0 264 65t196.5 193.5t75.5 296.5q0 134 -47.5 241.5t-132.5 180.5l-647 -895q130 -82 291 -82z" />
    <glyph glyph-name="Delta" unicode="&#x2206;" horiz-adv-x="1214" 
d="M1167 16l-8 -16h-1106l-8 18l520 1348l68 16h16zM176 92h848l-420 1118z" />
    <glyph glyph-name="product" unicode="&#x220f;" horiz-adv-x="1478" 
d="M1397 1362v-66l-199 -22v-1417q-44 -9 -90 -15l-27 13v1429h-680v-1427q-48 -9 -92 -15l-26 13v1433l-191 8v66h1305z" />
    <glyph glyph-name="summation" unicode="&#x2211;" horiz-adv-x="1071" 
d="M956 66q0 -110 -18 -209h-2h-832l-10 34l461 703l-463 731l10 37h836q8 -52 8 -129q0 -88 -10 -170h-78l-24 215l-580 14l-8 -10q13 -19 36 -51.5t43 -61.5t40 -61l303 -455v-16l-326 -506q-47 -73 -113 -162l7 -12l602 14l34 224l78 -9q6 -55 6 -120z" />
    <glyph glyph-name="minus" unicode="&#x2212;" 
d="M1108 559h-961v84h961v-84z" />
    <glyph glyph-name="uni2219" unicode="&#x2219;" 
d="M631 791q92 0 141 -51t49 -142t-49 -141.5t-141 -50.5q-94 0 -143.5 50.5t-49.5 141.5t49.5 142t143.5 51z" />
    <glyph glyph-name="radical" unicode="&#x221a;" horiz-adv-x="1226" 
d="M1159 1577l17 -16q-349 -1032 -609 -1706l-86 -25h-18q-123 284 -219 541l-213 12v61h305l-2 -2q67 -193 184 -471h17q254 697 544 1606h80z" />
    <glyph glyph-name="infinity" unicode="&#x221e;" horiz-adv-x="1804" 
d="M1391 895q81 0 144.5 -27.5t101 -74.5t56.5 -103t19 -117q0 -147 -94.5 -238t-231.5 -91q-82 0 -161.5 37.5t-180.5 115.5l-149 115h-16q-52 -59 -96 -100.5t-102.5 -83t-126 -63t-140.5 -21.5q-82 0 -145.5 27.5t-101 73.5t-56.5 102t-19 118q0 147 94.5 238.5
t231.5 91.5q80 0 158.5 -37t181.5 -117l153 -116h15q51 59 94.5 100.5t102.5 83.5t126.5 64t141.5 22zM1395 338q40 0 79.5 14.5t74.5 42t57 75.5t22 108q0 102 -64 166.5t-186 64.5q-111 0 -208 -57t-203 -168l125 -97q104 -79 172 -114t131 -35zM426 330q112 0 209.5 57
t202.5 168l-125 96q-106 80 -174 115t-129 35q-40 0 -80 -14.5t-75 -42t-57 -75t-22 -106.5q0 -105 63.5 -169t186.5 -64z" />
    <glyph glyph-name="integral" unicode="&#x222b;" horiz-adv-x="645" 
d="M532 1542q66 0 113 -14v-66q-49 6 -98 6q-109 0 -165 -63.5t-56 -218.5q1 -110 52 -567.5t50 -581.5q0 -361 -322 -361q-49 0 -106 13v67q35 -4 104 -4q106 0 160.5 62.5t54.5 216.5q0 118 -51.5 576t-50.5 575q0 97 24.5 168.5t68.5 112.5t99 60t123 19z" />
    <glyph glyph-name="approxequal" unicode="&#x2248;" 
d="M1077 487l37 -36q-27 -48 -48 -79.5t-52.5 -67t-67.5 -53.5t-76 -18q-31 0 -75 17t-74 33.5t-117 66.5q-141 85 -237 129l-187 -182l-39 37q54 99 112.5 158t133.5 59q43 0 99.5 -26t166.5 -91q20 -11 55.5 -31.5t51.5 -29.5t41 -22.5t46.5 -23.5t45.5 -20zM1077 909
l37 -37q-27 -48 -48.5 -79.5t-52.5 -66.5t-67 -53t-76 -18q-31 0 -75 17t-74 33.5t-117 66.5q-141 85 -237 129l-187 -182l-39 37q54 99 112.5 158t133.5 59q43 0 99.5 -26t166.5 -91q20 -11 55.5 -31.5t51.5 -29.5t41 -22.5t46.5 -23.5t45.5 -20z" />
    <glyph glyph-name="notequal" unicode="&#x2260;" 
d="M791 764l-220 -326h539v-84h-596l-223 -329l-62 30l-8 17l191 282h-262v84h319l221 326h-540v84h595l222 326l61 -31l8 -17l-188 -278h262v-84h-319z" />
    <glyph glyph-name="lessequal" unicode="&#x2264;" 
d="M1014 1034l-697 -342v-16l697 -342l-39 -74l-793 379v90l793 379zM1032 0h-872v84h872v-84z" />
    <glyph glyph-name="greaterequal" unicode="&#x2265;" 
d="M1071 729v-90l-795 -379l-36 74l694 342v16l-694 342l36 74zM1094 0h-873v84h873v-84z" />
    <glyph glyph-name="dotmath" unicode="&#x22c5;" 
d="M641 700q29 0 41 -4q31 -45 31 -92q0 -50 -31 -106h-111l-24 182q38 20 94 20z" />
    <glyph glyph-name="uni24EA" unicode="&#x24ea;" horiz-adv-x="1601" 
d="M801 1389q144 0 275 -56t226 -151t151 -226.5t56 -275.5q0 -192 -95 -355t-258 -257.5t-355 -94.5q-144 0 -275.5 56t-226.5 150.5t-151 225.5t-56 275q0 115 36 223.5t101.5 195.5t152.5 152.5t195.5 101.5t223.5 36zM801 1319q-130 0 -247 -51.5t-200.5 -138
t-132.5 -204t-49 -245.5t49 -245t132.5 -203.5t200.5 -137.5t247 -51t247 51t200.5 137.5t132.5 203.5t49 245t-49 245.5t-132.5 204t-200.5 138t-247 51.5zM809 1083q142 0 216.5 -107.5t74.5 -285.5q0 -189 -81.5 -300t-223.5 -111t-216.5 108.5t-74.5 286.5
q0 188 81.5 298.5t223.5 110.5zM801 1022q-199 0 -199 -340q0 -342 197 -342q198 0 198 344q0 338 -196 338z" />
    <glyph glyph-name="uni24FF" unicode="&#x24ff;" horiz-adv-x="1601" 
d="M801 1389q144 0 275 -56t226 -151t151 -226.5t56 -275.5q0 -192 -95 -355t-258 -257.5t-355 -94.5q-144 0 -275.5 56t-226.5 150.5t-151 225.5t-56 275q0 115 36 223.5t101.5 195.5t152.5 152.5t195.5 101.5t223.5 36zM809 1083q-142 0 -223.5 -110.5t-81.5 -298.5
q0 -178 74.5 -286.5t216.5 -108.5t223.5 111t81.5 300q0 178 -74.5 285.5t-216.5 107.5zM801 1022q196 0 196 -338q0 -344 -198 -344q-197 0 -197 342q0 340 199 340z" />
    <glyph glyph-name="filledbox" unicode="&#x25a0;" horiz-adv-x="1671" 
d="M1460 57h-1249v1250h1249v-1250z" />
    <glyph glyph-name="H22073" unicode="&#x25a1;" horiz-adv-x="1671" 
d="M1460 57h-1249v1250h1249v-1250zM307 1219v-1074h1057v1074h-1057z" />
    <glyph glyph-name="H18543" unicode="&#x25aa;" horiz-adv-x="1120" 
d="M950 174h-780v778h780v-778z" />
    <glyph glyph-name="H18551" unicode="&#x25ab;" horiz-adv-x="1120" 
d="M950 174h-780v778h780v-778zM260 868v-610h600v610h-600z" />
    <glyph glyph-name="triagup" unicode="&#x25b2;" horiz-adv-x="1619" 
d="M1524 154l-6 -17h-1418l-6 17l711 1220h16z" />
    <glyph glyph-name="uni25B3" unicode="&#x25b3;" horiz-adv-x="1619" 
d="M1524 154l-6 -17h-1418l-6 17l711 1220h16zM813 1192l-563 -967h1122z" />
    <glyph glyph-name="uni25B4" unicode="&#x25b4;" horiz-adv-x="1243" 
d="M1147 199l-6 -17h-1041l-6 19l522 831h15z" />
    <glyph glyph-name="uni25B5" unicode="&#x25b5;" horiz-adv-x="1243" 
d="M1147 199l-6 -17h-1041l-6 19l522 831h15zM623 879l-383 -613h761z" />
    <glyph glyph-name="uni25B6" unicode="&#x25b6;" horiz-adv-x="1378" 
d="M1284 686v-16l-1057 -676l-16 6v1364l18 4z" />
    <glyph glyph-name="uni25B7" unicode="&#x25b7;" horiz-adv-x="1380" 
d="M1284 686v-16l-1057 -676l-16 6v1364l18 4zM301 1217v-1072l827 533z" />
    <glyph glyph-name="uni25B8" unicode="&#x25b8;" horiz-adv-x="1093" 
d="M999 608v-16l-813 -520l-16 6v1050l18 7z" />
    <glyph glyph-name="uni25B9" unicode="&#x25b9;" horiz-adv-x="1093" 
d="M999 608v-16l-813 -520l-16 6v1050l18 7zM262 979v-756l584 377z" />
    <glyph glyph-name="triagdn" unicode="&#x25bc;" horiz-adv-x="1619" 
d="M1518 1219l6 -17l-703 -1220h-16l-711 1220l6 17h1418z" />
    <glyph glyph-name="uni25BD" unicode="&#x25bd;" horiz-adv-x="1619" 
d="M1518 1227l6 -17l-703 -1220h-16l-711 1220l6 17h1418zM250 1139l563 -967l559 967h-1122z" />
    <glyph glyph-name="uni25BE" unicode="&#x25be;" horiz-adv-x="1243" 
d="M1141 1014l6 -17l-516 -833h-15l-522 831l6 19h1041z" />
    <glyph glyph-name="uni25BF" unicode="&#x25bf;" horiz-adv-x="1243" 
d="M1141 1016l6 -17l-516 -833h-15l-522 831l6 19h1041zM240 932l383 -613l378 613h-761z" />
    <glyph glyph-name="uni25C0" unicode="&#x25c0;" horiz-adv-x="1378" 
d="M94 670v16l1055 682l18 -4v-1364l-16 -6z" />
    <glyph glyph-name="uni25C1" unicode="&#x25c1;" horiz-adv-x="1400" 
d="M96 670v16l1055 682l18 -4v-1364l-16 -6zM1079 145v1072l-827 -539z" />
    <glyph glyph-name="uni25C2" unicode="&#x25c2;" horiz-adv-x="1093" 
d="M94 592v16l811 527l19 -7v-1050l-17 -6z" />
    <glyph glyph-name="uni25C3" unicode="&#x25c3;" horiz-adv-x="1093" 
d="M94 592v16l811 527l19 -7v-1050l-17 -6zM831 223v756l-583 -379z" />
    <glyph glyph-name="lozenge" unicode="&#x25ca;" horiz-adv-x="1273" 
d="M1178 678v-16l-531 -701h-16l-535 707v14l533 702h14zM635 1243l-428 -567l432 -570l430 564z" />
    <glyph glyph-name="circle" unicode="&#x25cb;" horiz-adv-x="1601" 
d="M803 1389q190 0 353 -95t258 -257.5t95 -352.5t-95 -354t-258 -260.5t-353 -96.5q-189 0 -353 96t-261 260t-97 355q0 190 96.5 352.5t260.5 257.5t354 95zM803 1298q-168 0 -308.5 -82t-221 -223t-80.5 -309q0 -169 80 -311.5t220.5 -226t309.5 -83.5t308.5 83.5
t218.5 226t79 311.5q0 126 -46.5 239t-127 195.5t-193 131t-239.5 48.5z" />
    <glyph glyph-name="H18533" unicode="&#x25cf;" horiz-adv-x="1601" 
d="M805 1389q141 0 271 -56t225 -150.5t151.5 -224t56.5 -270.5q0 -189 -95.5 -354t-258 -263t-350.5 -98q-140 0 -271.5 58t-228 154t-155 228t-58.5 273t58 271.5t154.5 225t228 150.5t272.5 56z" />
    <glyph glyph-name="uni2605" unicode="&#x2605;" horiz-adv-x="1636" 
d="M995 858h557l4 -16l-450 -324l170 -532l-12 -9l-447 336l-444 -338l-13 11l168 534l-448 322l4 16h557l168 522h16z" />
    <glyph glyph-name="uni2606" unicode="&#x2606;" horiz-adv-x="1636" 
d="M995 858h557l4 -16l-450 -322l170 -534l-12 -9l-447 336l-444 -338l-13 11l168 534l-448 322l4 16h557l168 522h16zM702 774h-387l312 -223l-115 -363l305 230l305 -230l-116 363l313 223h-387l-115 352z" />
    <glyph glyph-name="uni261A" unicode="&#x261a;" horiz-adv-x="2318" 
d="M1845 217v637l25 170l360 -20v-1004h-360zM950 1024h242l571 -147v-689q-107 -120 -301 -120q-86 0 -196 24q-144 -136 -207 -176q-94 0 -161.5 55.5t-76.5 134.5q-164 67 -164 195v2q-131 63 -131 182q0 21 4 37l9.5 9.5t37.5 27.5t74.5 44t127.5 57.5t188 68.5l-9 25
q-610 -97 -757 -97q-68 30 -110 73t-42 120q0 10 0.5 19t3 19.5t4 18t5.5 20t5.5 18t7 21t7.5 21.5q509 37 868 37zM369 954l-43 7q-14 -61 -58.5 -78t-148.5 -17l-2 -26q129 -40 190.5 -1t61.5 115zM1063 512l-12 25q-209 -55 -336 -177l55 -45q17 20 39 39t57.5 42
t55.5 35t72 41.5t69 39.5zM1184 309l-13 25q-68 -17 -121.5 -40t-90.5 -50t-51.5 -40.5t-35.5 -35.5l58 -39q63 75 254 180z" />
    <glyph glyph-name="uni261B" unicode="&#x261b;" horiz-adv-x="2318" 
d="M473 854v-637l-24 -217h-361v1004l361 20zM1126 1024h242q160 0 377 -9t354 -19l137 -9q2 -6 7.5 -21.5t7 -21t5.5 -18t5.5 -20t4 -18t3 -19.5t0.5 -19q0 -41 -13 -73.5t-37 -55t-47 -36.5t-54 -28q-148 0 -758 97l-8 -25q104 -34 187.5 -68t128 -58t74 -43t38.5 -28
l8 -10q4 -16 4 -37q0 -119 -131 -182v-2q0 -128 -164 -195q-9 -79 -76 -134.5t-161 -55.5q-63 40 -207 176q-110 -24 -197 -24q-194 0 -301 120v689zM1993 961l-43 -7q0 -76 61.5 -115t190.5 1l-2 26q-104 0 -148.5 17t-58.5 78zM1268 537l-13 -25q17 -10 69 -39.5t72 -41.5
t55.5 -35t57.5 -42t39 -39l56 45q-127 122 -336 177zM1147 334l-12 -25q191 -105 254 -180l57 39q-21 22 -35.5 35.5t-51.5 40.5t-90.5 50t-121.5 40z" />
    <glyph glyph-name="uni261C" unicode="&#x261c;" horiz-adv-x="2318" 
d="M82 971q547 43 907 43h203l659 -180l19 188l360 -18v-62l-288 -4q-13 -186 -13 -403q0 -220 17 -455l284 -19v-61h-356l-25 246h-14q-77 -91 -172 -134.5t-188 -43.5q-113 0 -213 45q-152 -148 -224 -197q-90 8 -151.5 63t-67.5 140q-79 28 -121.5 77.5t-42.5 116.5
q-133 62 -133 183q0 11 6 59q29 23 108 63.5t202 83.5l-4 17q-81 -12 -201.5 -30t-189 -28t-140 -18.5t-110.5 -9.5q-65 30 -104.5 75t-39.5 121q0 49 33 142zM197 702q78 8 257 29t292 31.5t198 13.5l21 -67q-300 -138 -355 -213q0 -73 54 -127q119 102 380 176l23 -45
q-253 -114 -324 -193q0 -76 76 -133v4q46 38 139.5 89t202.5 85l23 -47q-211 -105 -281 -182q0 -92 98 -152q124 128 261 213q2 2 4 2q113 -45 202 -45q217 0 381 199v422l-659 180h-201q-343 -3 -842 -39q-12 -42 -12 -80q0 -67 62 -121z" />
    <glyph glyph-name="uni261D" unicode="&#x261d;" horiz-adv-x="1357" 
d="M981 -137l227 -25v-248h-63l-19 189q-213 18 -454 18q-232 0 -404 -12v-195h-63l-21 252l189 19l-180 540v203q0 348 43 864q93 33 141 33q76 0 121 -39t75 -104q-1 -51 -12.5 -132t-38.5 -239t-41 -248l17 -4q40 106 78 183t60 108t36 39q16 4 39 4q121 0 182 -131
q67 0 116.5 -42.5t77.5 -121.5q85 -7 140.5 -68t64.5 -151q-30 -45 -86.5 -106.5t-105.5 -100.5q39 -93 39 -184q0 -80 -37 -148t-121 -139v-14zM446 -137h439q96 81 137 149t41 156q0 65 -33 166q74 124 203 258q-61 100 -152 100q-77 -69 -182 -282l-47 24q54 181 188 334
q-58 84 -141 84q-34 -29 -70.5 -87t-60 -106.5t-61.5 -132.5l-48 25q69 245 187 369q-54 65 -137 65q-13 -9 -27 -25.5t-30 -41.5t-29 -47t-32.5 -59t-30.5 -58.5t-32 -64.5t-30 -60l-70 20q2 110 34.5 376.5t39.5 342.5q-29 32 -56.5 45.5t-62.5 13.5q-42 0 -78 -12
q-39 -513 -39 -811v-201z" />
    <glyph glyph-name="uni261E" unicode="&#x261e;" horiz-adv-x="2318" 
d="M2236 971q33 -93 33 -142q0 -76 -39 -121t-104 -75q-50 1 -134 11.5t-255.5 37t-251.5 37.5l-4 -17q123 -43 201.5 -83.5t107.5 -63.5q6 -48 6 -59q0 -121 -133 -183q0 -67 -42.5 -116.5t-121.5 -77.5q-6 -85 -67.5 -140t-151.5 -63q-69 47 -223 197q-100 -45 -213 -45
q-94 0 -189 43.5t-172 134.5h-14l-25 -246h-356v61l285 19q16 221 16 455q0 231 -12 403l-289 4v62l361 18l18 -188l659 180h203q360 0 907 -43zM2122 702q61 53 61 121q0 38 -12 80q-499 36 -842 39h-201l-659 -180v-422q164 -199 381 -199q90 0 203 45q2 0 4 -2
q135 -83 260 -213q98 60 98 152q-71 78 -280 182l22 47q109 -34 202.5 -85t139.5 -89v-4q76 57 76 133q-71 79 -324 193l23 45q263 -74 381 -176q53 53 53 127q-55 75 -354 213l20 67q85 -3 198.5 -13.5t293 -31.5t256.5 -29z" />
    <glyph glyph-name="uni261F" unicode="&#x261f;" horiz-adv-x="1357" 
d="M1208 1227l-227 -25v-14q84 -71 121 -139t37 -148q0 -91 -39 -184q49 -39 105.5 -100.5t86.5 -106.5q-9 -90 -64.5 -151t-140.5 -68q-28 -79 -77.5 -121.5t-116.5 -42.5q-61 -131 -182 -131q-23 0 -39 4q-14 8 -36 39t-60 108t-78 183l-17 -4q14 -90 41 -248t38.5 -239
t12.5 -132q-30 -65 -75 -104t-121 -39q-48 0 -141 33q-43 516 -43 864v203l180 540l-189 19l21 252h63v-195q172 -12 404 -12q241 0 454 18l19 189h63v-248zM885 1202h-439l-180 -540v-201q0 -297 39 -811q36 -12 78 -12q35 0 62.5 13.5t56.5 45.5q-7 76 -39.5 342.5
t-34.5 376.5l70 20q9 -17 30 -60t32 -64.5t30.5 -58.5t32.5 -59t29 -47t30 -41.5t27 -25.5q83 0 137 65q-118 124 -187 369l48 25q38 -84 61.5 -132.5t60 -106.5t70.5 -87q83 0 141 84q-134 153 -188 334l47 24q105 -213 182 -282q91 0 152 100q-129 134 -203 258
q33 101 33 166q0 88 -41 156t-137 149z" />
    <glyph glyph-name="uni2661" unicode="&#x2661;" horiz-adv-x="1638" 
d="M1180 1051q149 0 252.5 -100.5t103.5 -278.5q0 -89 -29.5 -163t-79.5 -126.5t-112 -96.5t-132.5 -84t-135 -78t-124.5 -88t-96 -106h-16q-36 56 -96.5 106t-125 88t-135 78t-133 84t-112.5 96.5t-79.5 126.5t-29.5 163q0 119 50.5 207t131 130t177.5 42q132 0 227 -85
t125 -243h14q30 158 125.5 243t229.5 85zM1180 973q-124 0 -209 -94.5t-123 -243.5h-57q-38 149 -123.5 243.5t-210.5 94.5q-115 0 -189.5 -80.5t-74.5 -218.5q0 -75 24 -137t66 -106.5t94 -82.5t112.5 -73t116.5 -69t112 -80t93 -97h16q37 51 92.5 97t112 80t117 69
t112.5 73t94.5 82.5t66.5 106.5t24 137q0 138 -74.5 218.5t-191.5 80.5z" />
    <glyph glyph-name="heart" unicode="&#x2665;" horiz-adv-x="1636" 
d="M1180 1051q149 0 252.5 -100.5t103.5 -278.5q0 -91 -29.5 -166.5t-80.5 -129.5t-113.5 -100t-133 -86.5t-134.5 -78t-123.5 -85.5t-94.5 -100h-16q-35 52 -94.5 100t-123.5 85.5t-135 78t-134 86.5t-113.5 100t-80.5 129.5t-30 166.5q0 119 50.5 207t131 130t177.5 42
q132 0 227 -81.5t125 -232.5h16q30 150 125.5 232t227.5 82z" />
    <glyph glyph-name="uni275B" unicode="&#x275b;" horiz-adv-x="929" 
d="M774 1389l23 -60q-211 -85 -337.5 -208.5t-146.5 -260.5q-8 -31 -8 -63l502 -103l14 -669q-140 -52 -291 -52q-72 0 -159.5 14t-149.5 42q-26 42 -43 74.5t-41 91.5t-36.5 132t-12.5 154q0 147 44.5 288.5t128.5 264t216.5 216.5t296.5 139z" />
    <glyph glyph-name="uni275C" unicode="&#x275c;" horiz-adv-x="929" 
d="M399 1389q72 0 160 -14t150 -42q26 -42 43 -74.5t41 -91.5t36.5 -132t12.5 -154q0 -147 -44.5 -288.5t-128.5 -264t-216.5 -216.5t-296.5 -139l-23 60q211 85 336.5 208.5t146.5 260.5q9 34 9 63l-502 103l-14 669q140 52 290 52z" />
    <glyph glyph-name="uni275D" unicode="&#x275d;" horiz-adv-x="1800" 
d="M1645 1389l22 -60q-211 -85 -336.5 -208.5t-146.5 -260.5q-8 -31 -8 -63l501 -103l15 -669q-140 -52 -291 -52q-72 0 -159.5 14t-149.5 42q-26 43 -43 75t-41.5 91.5t-37 132t-12.5 153.5q0 147 44.5 288.5t129 264t217 216.5t296.5 139zM774 1389l23 -60
q-211 -85 -337.5 -208.5t-146.5 -260.5q-8 -31 -8 -63l502 -103l14 -669q-140 -52 -291 -52q-72 0 -159.5 14t-149.5 42q-26 42 -43 74.5t-41 91.5t-36.5 132t-12.5 154q0 147 44.5 288.5t128.5 264t216.5 216.5t296.5 139z" />
    <glyph glyph-name="uni275E" unicode="&#x275e;" horiz-adv-x="1800" 
d="M1270 1389q72 0 159.5 -14t149.5 -42q26 -42 43 -74.5t41 -91.5t36.5 -132t12.5 -154q0 -147 -44.5 -288.5t-128.5 -264t-216.5 -216.5t-296.5 -139l-22 60q211 85 336.5 208.5t146.5 260.5q8 31 8 63l-502 103l-14 669q140 52 291 52zM399 1389q72 0 160 -14t150 -42
q26 -42 43 -74.5t41 -91.5t36.5 -132t12.5 -154q0 -147 -44.5 -288.5t-128.5 -264t-216.5 -216.5t-296.5 -139l-23 60q211 85 336.5 208.5t146.5 260.5q9 34 9 63l-502 103l-14 669q140 52 290 52z" />
    <glyph glyph-name="uni275F" unicode="&#x275f;" horiz-adv-x="929" 
d="M399 1389q72 0 160 -14t150 -42q26 -42 43 -74.5t41 -91.5t36.5 -132t12.5 -154q0 -147 -44.5 -288.5t-128.5 -264t-216.5 -216.5t-296.5 -139l-23 60q211 85 336.5 208.5t146.5 260.5q9 34 9 63l-502 103l-14 669q140 52 290 52z" />
    <glyph glyph-name="uni2760" unicode="&#x2760;" horiz-adv-x="1800" 
d="M1270 1389q72 0 159.5 -14t149.5 -42q26 -42 43 -74.5t41 -91.5t36.5 -132t12.5 -154q0 -147 -44.5 -288.5t-128.5 -264t-216.5 -216.5t-296.5 -139l-22 60q211 85 336.5 208.5t146.5 260.5q8 31 8 63l-502 103l-14 669q140 52 291 52zM399 1389q72 0 160 -14t150 -42
q26 -42 43 -74.5t41 -91.5t36.5 -132t12.5 -154q0 -147 -44.5 -288.5t-128.5 -264t-216.5 -216.5t-296.5 -139l-23 60q211 85 336.5 208.5t146.5 260.5q9 34 9 63l-502 103l-14 669q140 52 290 52z" />
    <glyph glyph-name="uni2766" unicode="&#x2766;" horiz-adv-x="2035" 
d="M1380 1239q126 0 229 -44t169.5 -120t102.5 -176.5t36 -214.5q0 -249 -156.5 -425t-408.5 -226l-17 51q230 80 360 227.5t130 362.5q0 218 -131 352.5t-351 134.5q-91 0 -251 -41q-22 -162 -179 -270l-32 29q118 112 135 223q-102 -25 -187 -25q-139 0 -208.5 54
t-69.5 141q0 88 67.5 145.5t172.5 57.5q128 0 211.5 -83.5t91.5 -207.5q159 55 286 55zM643 1270q0 -68 56 -101.5t147 -33.5q72 0 174 26q-6 101 -72.5 168.5t-161.5 67.5q-68 0 -105.5 -35.5t-37.5 -91.5zM1538 600q0 -94 -37 -180t-98 -151.5t-140.5 -119t-162 -87
t-164.5 -50.5q6 -46 33 -182l-17 -10q-158 0 -312.5 58.5t-273.5 156t-192.5 236t-73.5 288.5q0 99 33.5 180t90 131.5t127.5 77.5t149 27q145 0 259 -86.5t150 -233.5h17q41 107 131 181.5t203 74.5q120 0 199 -84t79 -227zM193 553q0 -106 45 -208.5t119 -182
t164.5 -140.5t185.5 -93.5t178 -32.5q-42 177 -46.5 351t35.5 349q-54 136 -145 218.5t-219 82.5q-138 0 -227.5 -94.5t-89.5 -249.5zM948 592q-52 -209 -22 -506q69 15 138.5 43t139 73.5t123 101.5t86.5 131t33 157q0 110 -56 176t-147 66q-166 0 -295 -242z" />
    <glyph glyph-name="uni2776" unicode="&#x2776;" horiz-adv-x="1601" 
d="M801 1389q144 0 275 -56t226 -151t151 -226.5t56 -275.5q0 -192 -95 -355t-258 -257.5t-355 -94.5q-144 0 -275.5 56t-226.5 150.5t-151 225.5t-56 275q0 115 36 223.5t101.5 195.5t152.5 152.5t195.5 101.5t223.5 36zM864 1118l-49 2q-79 -102 -237 -119l2 -61
q111 7 182 43v-641l-182 -18v-56h462v56l-178 8v786z" />
    <glyph glyph-name="uni2777" unicode="&#x2777;" horiz-adv-x="1601" 
d="M801 1389q144 0 275 -56t226 -151t151 -226.5t56 -275.5q0 -192 -95 -355t-258 -257.5t-355 -94.5q-144 0 -275.5 56t-226.5 150.5t-151 225.5t-56 275q0 115 36 223.5t101.5 195.5t152.5 152.5t195.5 101.5t223.5 36zM791 1122q-105 0 -183 -50t-78 -124q0 -47 33 -76
h76l20 154q53 31 121 31q79 0 122.5 -45t43.5 -129q0 -40 -12 -81t-28 -75t-47.5 -74t-56 -67.5t-69 -68t-70.5 -62.5t-76.5 -63.5t-72.5 -59.5l10 -64h553q8 41 8 88q0 59 -10 93h-67l-13 -101l-200 -8q-118 -6 -183 -14l-6 14q110 83 180.5 142.5t138.5 130.5t100 138
t32 134q0 102 -72 169.5t-194 67.5z" />
    <glyph glyph-name="uni2778" unicode="&#x2778;" horiz-adv-x="1601" 
d="M801 1389q144 0 275 -56t226 -151t151 -226.5t56 -275.5q0 -192 -95 -355t-258 -257.5t-355 -94.5q-144 0 -275.5 56t-226.5 150.5t-151 225.5t-56 275q0 115 36 223.5t101.5 195.5t152.5 152.5t195.5 101.5t223.5 36zM809 1122q-108 0 -186 -48.5t-78 -121.5
q0 -40 33 -73h69l19 147q64 31 131 31q79 0 123.5 -37.5t44.5 -114.5q0 -67 -32.5 -105.5t-84.5 -64.5h-137v-61h61q219 0 219 -180q0 -67 -31 -109.5t-76 -58t-104 -15.5q-69 0 -123 29l-20 149h-76q-31 -31 -31 -77q0 -76 72 -121t182 -45q138 0 227 70t89 184
q0 155 -185 198v17q158 53 158 190q0 96 -72 156.5t-192 60.5z" />
    <glyph glyph-name="uni2779" unicode="&#x2779;" horiz-adv-x="1601" 
d="M801 1389q144 0 275 -56t226 -151t151 -226.5t56 -275.5q0 -192 -95 -355t-258 -257.5t-355 -94.5q-144 0 -275.5 56t-226.5 150.5t-151 225.5t-56 275q0 115 36 223.5t101.5 195.5t152.5 152.5t195.5 101.5t223.5 36zM836 1090l-91 28q-113 -312 -276 -647l8 -43h369
v-160h96v160h152v74h-152v254l-31 4l-65 -19v-239h-121q-57 0 -172 -13l-4 13q143 233 293 571z" />
    <glyph glyph-name="uni277A" unicode="&#x277a;" horiz-adv-x="1601" 
d="M801 1389q144 0 275 -56t226 -151t151 -226.5t56 -275.5q0 -192 -95 -355t-258 -257.5t-355 -94.5q-144 0 -275.5 56t-226.5 150.5t-151 225.5t-56 275q0 115 36 223.5t101.5 195.5t152.5 152.5t195.5 101.5t223.5 36zM1055 1077l-19 45q-122 -37 -192 -37q-85 0 -180 37
l-74 -14l-15 -379l148 -8q250 -9 250 -205q0 -101 -58 -153t-157 -52q-56 0 -109 27l-22 151h-74q-33 -29 -33 -75q0 -75 71.5 -121.5t176.5 -46.5q139 0 227 82t88 207q0 123 -86 194.5t-215 71.5q-54 0 -147 -19l22 250q72 -35 174 -35q67 0 126.5 22t97.5 58z" />
    <glyph glyph-name="uni277B" unicode="&#x277b;" horiz-adv-x="1601" 
d="M801 1389q144 0 275 -56t226 -151t151 -226.5t56 -275.5q0 -192 -95 -355t-258 -257.5t-355 -94.5q-144 0 -275.5 56t-226.5 150.5t-151 225.5t-56 275q0 115 36 223.5t101.5 195.5t152.5 152.5t195.5 101.5t223.5 36zM913 1122q-195 0 -319.5 -129.5t-124.5 -353.5
q0 -182 82.5 -287.5t228.5 -105.5q135 0 224.5 86t89.5 209q0 112 -73 190t-187 78q-133 0 -238 -102h-16q7 99 39.5 169t89 111t130.5 58.5t171 15.5l4 51q-48 10 -101 10zM801 735q89 0 136.5 -55.5t47.5 -153.5q0 -107 -55 -161t-144 -54q-46 0 -81 15t-63.5 49t-44 96.5
t-15.5 151.5q56 57 106.5 84.5t112.5 27.5z" />
    <glyph glyph-name="uni277C" unicode="&#x277c;" horiz-adv-x="1601" 
d="M801 1389q144 0 275 -56t226 -151t151 -226.5t56 -275.5q0 -192 -95 -355t-258 -257.5t-355 -94.5q-144 0 -275.5 56t-226.5 150.5t-151 225.5t-56 275q0 115 36 223.5t101.5 195.5t152.5 152.5t195.5 101.5t223.5 36zM1087 1096h-552q-7 -51 -7 -84q0 -57 11 -117h59
l18 121l385 20l7 -14q-186 -237 -273.5 -393.5t-87.5 -259.5q0 -104 84 -138l74 33l-51 115q8 110 84.5 261t259.5 411z" />
    </font>
</defs>
</svg>
