<?xml version="1.0" standalone="no"?>
<!DOCTYPE svg PUBLIC "-//W3C//DTD SVG 1.1//EN" "http://www.w3.org/Graphics/SVG/1.1/DTD/svg11.dtd" >
<svg xmlns="http://www.w3.org/2000/svg" xmlns:xlink="http://www.w3.org/1999/xlink" version="1.1">
<metadata>
Created by FontForge 20170731 at Wed Jan 19 21:51:03 2022
 By Aleksey,,,
2014 published by FontShop International GmbH
</metadata>
<defs>
<font id="FranziskaPro-Thin" horiz-adv-x="1259" >
  <font-face 
    font-family="FranziskaPro-Thin"
    font-weight="250"
    font-stretch="normal"
    units-per-em="2048"
    panose-1="2 1 4 4 3 1 1 1 1 2"
    ascent="1612"
    descent="-436"
    x-height="1008"
    cap-height="1362"
    bbox="-760 -575 3088 1966"
    underline-thickness="51"
    underline-position="-255"
    unicode-range="U+000D-1F44E"
  />
<missing-glyph horiz-adv-x="1363" 
d="M1153 1362v-1362h-942v1362h942zM1094 1307h-785l785 -1203v1203zM270 55h789l-789 1205v-1205z" />
    <glyph glyph-name="T_h" unicode="Th" horiz-adv-x="2187" 
d="M2159 43v-43h-443v43l176 18v621q0 293 -243 293q-92 0 -177.5 -39.5t-179.5 -116.5v-770l197 -6v-43h-430v43l162 18v1242l-582 12v-1264l195 -8v-43h-510v43l241 20v1252l-379 -10l-20 -248h-49q-11 90 -11 178q0 59 5 108v19h1110q0 89 8 170q23 7 47 10l16 -8v-512
q0 -63 -8 -145h12q173 157 367 157q144 0 221.5 -85.5t77.5 -256.5v-643z" />
    <glyph glyph-name="T_k" unicode="Tk" horiz-adv-x="2111" 
d="M2073 35l-2 -35q-54 -14 -107 -14q-43 0 -70.5 17t-64.5 71q-4 6 -114 168.5t-189 273.5h-234v-467l193 -6v-43h-426v43l162 18v1242l-582 12v-1264l195 -8v-43h-510v43l241 20v1252l-379 -10l-20 -248h-49q-11 90 -11 178q0 72 7 127h1108q0 89 8 170q23 7 47 10l16 -8
v-967h224q154 176 315 391h-2l-217 7v43h411v-43l-129 -17q-155 -203 -319 -387q132 -178 362 -516z" />
    <glyph glyph-name="T_l" unicode="Tl" horiz-adv-x="1540" 
d="M1489 43v-43h-430v43l162 18v1242l-582 12v-1264l195 -8v-43h-510v43l241 20v1252l-379 -10l-20 -248h-49q-11 90 -11 178q0 59 5 108v19h1110q0 89 8 170q23 7 47 10l16 -8v-1485z" />
    <glyph glyph-name="Tbar_h" unicode="&#x166;h" horiz-adv-x="2187" 
d="M2159 43v-43h-443v43l176 18v621q0 293 -243 293q-92 0 -177.5 -39.5t-179.5 -116.5v-770l197 -6v-43h-430v43l162 18v1242l-582 12v-686h344v-51h-344v-527l195 -8v-43h-510v43l241 20v515h-344v51h344v686l-379 -10l-20 -248h-49q-11 90 -11 178q0 59 5 108v19h1110
q0 89 8 170q23 7 47 10l16 -8v-512q0 -63 -8 -145h12q173 157 367 157q144 0 221.5 -85.5t77.5 -256.5v-643z" />
    <glyph glyph-name="Tcaron_h" unicode="&#x164;h" horiz-adv-x="2187" 
d="M2159 43v-43h-443v43l176 18v621q0 293 -243 293q-92 0 -177.5 -39.5t-179.5 -116.5v-770l197 -6v-43h-430v43l162 18v1242l-582 12v-1264l195 -8v-43h-510v43l241 20v1252l-379 -10l-20 -248h-49q-11 90 -11 178q0 59 5 108v19h1110q0 89 8 170q23 7 47 10l16 -8v-512
q0 -63 -8 -145h12q173 157 367 157q144 0 221.5 -85.5t77.5 -256.5v-643zM604 1556h12l220 248h51l-252 -321h-68l-233 297l49 32z" />
    <glyph glyph-name="f_b" unicode="fb" horiz-adv-x="1812" 
d="M1315 1034q177 0 275 -129t98 -360q0 -94 -17 -177.5t-53.5 -156.5t-90 -125.5t-132 -82.5t-174.5 -30q-157 0 -344 76v1395q-124 43 -230 43q-152 0 -230.5 -87t-78.5 -255v-137h285v-54h-285v-905l256 -2v-47h-504v43l176 18v893l-176 9v41l176 16v127q0 200 104 297.5
t275 97.5q125 0 225 -47q21 31 62 47l16 -8v-512q0 -32 -4 -86t-4 -59h12q174 157 363 157zM1219 27q181 0 287 129.5t106 378.5q0 225 -86.5 332.5t-227.5 107.5q-163 0 -352 -156v-733q134 -59 273 -59z" />
    <glyph glyph-name="f_f" unicode="ff" horiz-adv-x="1292" 
d="M1186 1542q95 0 160 -41t65 -127q0 -45 -25 -80h-51l-24 179q-69 16 -119 16q-119 0 -182.5 -84.5t-63.5 -243.5v-153h316v-54h-316v-905l256 -2v-47h-502v43l174 18v893h-536v-905l197 -2v-47h-445v43l176 18v893l-176 9v41l176 16v139q0 191 103.5 287t273.5 96
q178 0 315 -98q79 98 228 98zM338 1008h403l133 12v143q0 148 56 242q-130 82 -285 82q-152 0 -229.5 -86t-77.5 -248v-145z" />
    <glyph glyph-name="f_f_b" unicode="ffb" horiz-adv-x="2422" 
d="M1925 1034q177 0 275 -129t98 -360q0 -94 -17 -177.5t-53.5 -156.5t-90 -125.5t-132 -82.5t-174.5 -30q-157 0 -344 76v1395q-127 43 -232 43q-152 0 -230.5 -87t-78.5 -255v-137h285v-54h-285v-905l256 -2v-47h-502v43l174 18v893h-536v-905l197 -2v-47h-445v43l176 18
v893l-176 9v41l176 16v139q0 191 103.5 287t273.5 96q189 0 326 -106q100 106 284 106q128 0 226 -49q24 33 63 49l17 -8v-512q0 -31 -4.5 -83.5t-4.5 -61.5h13q174 157 362 157zM338 1008h403l133 12v127q0 154 66 252q-133 88 -295 88q-152 0 -229.5 -86t-77.5 -248v-145z
M1829 27q181 0 287 129.5t106 378.5q0 225 -86 332.5t-227 107.5q-164 0 -353 -156v-733q134 -59 273 -59z" />
    <glyph glyph-name="f_f_h" unicode="ffh" horiz-adv-x="2451" 
d="M2423 43v-43h-443v43l177 18v621q0 293 -242 293q-92 0 -177 -39.5t-179 -116.5v-770l194 -6v-43h-442v43l176 18v1383q-127 43 -232 43q-152 0 -230.5 -87t-78.5 -255v-137h285v-54h-285v-905l197 -2v-47h-445v43l176 18v893h-536v-905l197 -2v-47h-445v43l176 18v893
l-176 9v41l176 16v139q0 191 103.5 287t273.5 96q189 0 326 -106q100 106 284 106q128 0 226 -49q24 33 63 49l17 -8v-512q0 -31 -4.5 -83.5t-4.5 -61.5h13q173 157 366 157q143 0 221 -85.5t78 -256.5v-643zM338 1008h403l133 12v127q0 154 66 252q-133 88 -295 88
q-152 0 -229.5 -86t-77.5 -248v-145z" />
    <glyph glyph-name="f_f_i" unicode="ffi" horiz-adv-x="1800" 
d="M1751 43v-43h-440v43l174 18v887l-78 6h-461v-905l197 -2v-47h-443v43l174 18v893h-536v-905l197 -2v-47h-445v43l176 18v893l-176 9v41l176 16v139q0 191 103.5 287t273.5 96q188 0 328 -106q100 106 284 106q127 0 211 -51.5t84 -144.5q0 -50 -26 -82h-58l-28 188
q-88 35 -183 35q-152 0 -230.5 -87.5t-78.5 -250.5v-141h391l203 16l16 -8v-967zM338 1008h403l133 12v135q0 149 66 244q-133 88 -295 88q-152 0 -229.5 -86t-77.5 -248v-145z" />
    <glyph glyph-name="f_f_j" unicode="ffj" horiz-adv-x="1773" 
d="M1556 1016v-1116q0 -43 -4 -70t-16 -55.5t-39.5 -55.5t-68 -59t-107.5 -78l-29 29l193 192v1145l-78 6h-461v-905l256 -2v-47h-502v43l174 18v893h-536v-905l197 -2v-47h-445v43l176 18v893l-176 9v41l176 16v139q0 191 103.5 287t273.5 96q188 0 328 -106
q100 106 284 106q127 0 211 -51.5t84 -144.5q0 -53 -26 -82h-56l-30 188q-88 35 -183 35q-152 0 -230.5 -87.5t-78.5 -250.5v-141h391l203 16zM338 1008h403l133 12v135q0 149 66 244q-133 88 -295 88q-152 0 -229.5 -86t-77.5 -248v-145z" />
    <glyph glyph-name="f_f_k" unicode="ffk" horiz-adv-x="2375" 
d="M2337 35l-2 -35q-54 -14 -107 -14q-43 0 -70.5 17t-64.5 71q-23 31 -127.5 186.5t-175.5 255.5h-231v-467l194 -6v-43h-442v43l176 18v1383q-127 43 -232 43q-152 0 -230.5 -87t-78.5 -255v-137h285v-54h-285v-905l197 -2v-47h-445v43l176 18v893h-536v-905l197 -2v-47
h-445v43l176 18v893l-176 9v41l176 16v139q0 191 103.5 287t273.5 96q189 0 326 -106q100 106 284 106q128 0 226 -49q24 33 63 49l17 -8v-967h223q154 176 315 391h-4l-217 7v43h412v-43l-127 -17q-141 -184 -320 -389q165 -220 361 -514zM338 1008h403l133 12v127
q0 154 66 252q-133 88 -295 88q-152 0 -229.5 -86t-77.5 -248v-145z" />
    <glyph glyph-name="f_f_l" unicode="ffl" horiz-adv-x="1806" 
d="M1755 43v-43h-444v43l176 18v1383q-127 43 -232 43q-152 0 -230.5 -87t-78.5 -255v-137h285v-54h-285v-905l197 -2v-47h-445v43l176 18v893h-536v-905l197 -2v-47h-445v43l176 18v893l-176 9v41l176 16v139q0 191 103.5 287t273.5 96q189 0 326 -106q100 106 284 106
q128 0 226 -49q24 33 63 49l17 -8v-1485zM338 1008h403l133 12v127q0 154 66 252q-133 88 -295 88q-152 0 -229.5 -86t-77.5 -248v-145z" />
    <glyph glyph-name="f_h" unicode="fh" horiz-adv-x="1843" 
d="M1815 43v-43h-443v43l174 18v621q0 293 -241 293q-92 0 -177.5 -39.5t-179.5 -116.5v-770l195 -6v-43h-443v43l177 18v1383q-124 43 -230 43q-152 0 -230.5 -87t-78.5 -255v-137h285v-54h-285v-905l197 -2v-47h-445v43l176 18v893l-176 9v41l176 16v127q0 200 104 297.5
t275 97.5q125 0 225 -47q21 31 62 47l16 -8v-512q0 -32 -4 -86t-4 -59h12q173 157 367 157q143 0 221 -85.5t78 -256.5v-643z" />
    <glyph glyph-name="f_hbar" unicode="f&#x127;" horiz-adv-x="1843" 
d="M1815 43v-43h-443v43l174 18v621q0 293 -241 293q-92 0 -177.5 -39.5t-179.5 -116.5v-770l195 -6v-43h-443v43l177 18v1383q-124 43 -230 43q-152 0 -230.5 -87t-78.5 -255v-137h285v-54h-285v-905l197 -2v-47h-445v43l176 18v893l-176 9v41l176 16v127q0 200 104 297.5
t275 97.5q125 0 225 -47q21 31 62 47l16 -8v-188h336v-52h-336v-272q0 -32 -4 -86t-4 -59h12q173 157 367 157q143 0 221 -85.5t78 -256.5v-643z" />
    <glyph glyph-name="f_i" unicode="fi" horiz-adv-x="1189" 
d="M1141 43v-43h-441v43l174 18v887l-77 6h-459v-905l197 -2v-47h-445v43l176 18v893l-176 9v41l176 16v135q0 194 106 290.5t275 96.5q127 0 211 -51.5t84 -144.5q0 -48 -27 -82h-57l-29 188q-88 35 -182 35q-152 0 -230.5 -87.5t-78.5 -250.5v-141h389l203 16l16 -8v-967z
" />
    <glyph glyph-name="f_icircumflex" unicode="f&#xee;" horiz-adv-x="1189" 
d="M1141 43v-43h-441v43l174 18v889l-59 4h-477v-905l197 -2v-47h-445v43l176 18v893l-176 9v41l176 18v137q0 190 103.5 284.5t267.5 94.5q106 0 201 -37l26 47h66l168 -323l-49 -31l-156 279h-12l-166 -271h-49l147 258q-86 25 -164 25q-151 0 -231 -85.5t-80 -246.5v-145
h389l203 16l16 -8v-967z" />
    <glyph glyph-name="f_imacron" unicode="f&#x12b;" horiz-adv-x="1189" 
d="M1141 43v-43h-443v43l176 18v889l-59 4h-477v-905l194 -2v-47h-442v43l176 18v893l-176 9v41l176 16v143q0 98 28 172.5t75.5 118.5t106 66t124.5 22q91 0 156 -39t69 -119h252q4 -16 4 -30q0 -15 -4 -31h-260q-5 -19 -16 -33h-49l-29 183q-66 16 -111 16
q-126 0 -200 -85.5t-74 -242.5v-153h389l203 16l16 -8v-967z" />
    <glyph glyph-name="f_iogonek" unicode="f&#x12f;" horiz-adv-x="1210" 
d="M1143 -346l14 -41q-67 -49 -166 -49q-101 0 -152 45.5t-51 114.5q0 85 71 154t169 110v12h-328v41l174 20v887l-77 6h-459v-905l197 -2v-47h-445v43l176 18v893l-176 9v41l176 16v135q0 194 106 290.5t275 96.5q127 0 211 -51.5t84 -144.5q0 -48 -27 -82h-57l-29 188
q-88 35 -182 35q-152 0 -230.5 -87.5t-78.5 -250.5v-141h389l203 16l16 -8v-967l193 -6v-47q-60 -26 -104.5 -50.5t-88 -57t-67 -71t-23.5 -81.5q0 -57 42 -88t110 -31q63 0 135 37z" />
    <glyph glyph-name="f_j" unicode="fj" horiz-adv-x="1163" 
d="M946 1016v-1116q0 -43 -4 -70t-16 -55.5t-39.5 -55.5t-68 -59t-107.5 -78l-29 29l192 192v1145l-77 6h-459v-905l256 -2v-47h-504v43l176 18v893l-176 9v41l176 16v135q0 194 106 290.5t275 96.5q127 0 211 -51.5t84 -144.5q0 -52 -27 -82h-55l-31 188q-88 35 -182 35
q-152 0 -230.5 -87.5t-78.5 -250.5v-141h389l203 16z" />
    <glyph glyph-name="f_k" unicode="fk" horiz-adv-x="1765" 
d="M1726 35l-2 -35q-54 -14 -106 -14q-43 0 -70.5 17t-64.5 71q-23 31 -127.5 186.5t-175.5 255.5h-232v-467l195 -6v-43h-443v43l177 18v1383q-124 43 -230 43q-152 0 -230.5 -87t-78.5 -255v-137h285v-54h-285v-905l197 -2v-47h-445v43l176 18v893l-176 9v41l176 16v127
q0 200 104 297.5t275 97.5q125 0 225 -47q21 31 62 47l16 -8v-967h223q161 184 316 391h-4l-217 7v43h411v-43l-127 -17q-147 -193 -319 -389q156 -208 360 -514z" />
    <glyph glyph-name="f_l" unicode="fl" horiz-adv-x="1196" 
d="M1145 43v-43h-445v43l177 18v1383q-124 43 -230 43q-152 0 -230.5 -87t-78.5 -255v-137h285v-54h-285v-905l197 -2v-47h-445v43l176 18v893l-176 9v41l176 16v127q0 200 104 297.5t275 97.5q125 0 225 -47q21 31 62 47l16 -8v-1485z" />
    <glyph glyph-name="f_lacute" unicode="f&#x13a;" horiz-adv-x="1191" 
d="M940 1542h-51l155 289h23q30 -12 53 -45zM1145 43v-43h-445v43l177 18v1360q-126 49 -234 49q-150 0 -227.5 -87t-77.5 -255v-120h285v-54h-285v-905l197 -2v-47h-445v43l176 18v893l-176 9v41l176 16v110q0 200 102.5 298t268.5 98q144 0 264 -70q25 15 31 17l16 -9
v-1415z" />
    <glyph glyph-name="f_lcaron" unicode="f&#x13e;" horiz-adv-x="1323" 
d="M1145 43v-43h-445v43l177 18v1383q-124 43 -230 43q-152 0 -230.5 -87t-78.5 -255v-137h285v-54h-285v-905l197 -2v-47h-445v43l176 18v893l-176 9v41l176 16v127q0 200 104 297.5t275 97.5q125 0 225 -47q21 31 62 47l16 -8v-1485zM1243 1542q33 0 53 -14
q-3 -93 -25.5 -181.5t-68.5 -201.5h-41l47 248v145q1 0 14.5 2t20.5 2z" />
    <glyph glyph-name="uni021A_h" unicode="&#x21a;h" horiz-adv-x="2187" 
d="M2159 43v-43h-443v43l176 18v621q0 293 -243 293q-92 0 -177.5 -39.5t-179.5 -116.5v-770l197 -6v-43h-430v43l162 18v1242l-582 12v-1264l195 -8v-43h-510v43l241 20v1252l-379 -10l-20 -248h-49q-11 90 -11 178q0 59 5 108v19h1110q0 89 8 170q23 7 47 10l16 -8v-512
q0 -63 -8 -145h12q173 157 367 157q144 0 221.5 -85.5t77.5 -256.5v-643zM598 -129q28 0 47 -8q23 -44 23 -101q0 -157 -158 -256l-21 29q59 49 91 97t32 106q0 35 -4 51l-65 6l-2 70q24 6 57 6z" />
    <glyph glyph-name="uni030A_acutecomb" unicode="&#x30a;&#x301;" horiz-adv-x="2" 
d="M-123 1862h23q29 -15 49 -43l-205 -234h-49zM-270 1505q83 0 135.5 -48t52.5 -130q0 -88 -61 -138t-146 -50q-83 0 -136.5 48t-53.5 130q0 88 61 138t148 50zM-279 1458q-65 0 -102 -37.5t-37 -101.5q0 -62 36 -97.5t99 -35.5q67 0 103.5 40.5t36.5 102.5q0 59 -36 94
t-100 35z" />
    <glyph glyph-name=".notdef" horiz-adv-x="1363" 
d="M1153 1362v-1362h-942v1362h942zM1094 1307h-785l785 -1203v1203zM270 55h789l-789 1205v-1205z" />
    <glyph glyph-name=".null" horiz-adv-x="0" 
 />
    <glyph glyph-name="nonmarkingreturn" horiz-adv-x="682" 
 />
    <glyph glyph-name="CR" unicode="&#xd;" horiz-adv-x="512" 
 />
    <glyph glyph-name="space" unicode=" " horiz-adv-x="512" 
 />
    <glyph glyph-name="exclam" unicode="!" horiz-adv-x="468" 
d="M264 1389l15 -11q0 -173 -9 -535t-10 -448h-49q-1 72 -6 272.5t-8.5 387.5t-3.5 323q33 11 71 11zM238 172q18 0 36 -6q17 -34 17 -64q0 -60 -29 -112l-69 10l-11 162q35 10 56 10z" />
    <glyph glyph-name="quotedbl" unicode="&#x22;" horiz-adv-x="724" 
d="M565 1491l-16 -422h-51l-19 422q30 10 74 10zM246 1491l-17 -422h-51l-18 422q30 10 73 10z" />
    <glyph glyph-name="numbersign" unicode="#" horiz-adv-x="1277" 
d="M946 864l-61 -520h225v-51l-233 -21l-35 -299h-43l-13 15l35 291h-442l-35 -306h-43l-12 15l35 291h-224v53l232 20l61 520h-225v52l233 20l35 301h41l15 -14l-35 -293h440l37 307h41l14 -14l-35 -293h224v-53zM827 344l64 528h-442l-62 -528h440z" />
    <glyph glyph-name="dollar" unicode="$" horiz-adv-x="1021" 
d="M872 291q0 -133 -89.5 -208.5t-243.5 -86.5l2 -256l-54 -6l-10 8l2 252q-68 1 -125.5 13t-105 36.5t-74.5 67.5t-27 100q0 42 27 88h49l31 -211q118 -41 225 -41l6 541l-41 20q-62 30 -103 56t-84.5 66t-65 92.5t-21.5 117.5q0 125 82.5 198.5t232.5 84.5l-2 256l54 6
l10 -8l-2 -252q88 -1 157 -21t115.5 -70t46.5 -124q0 -48 -28 -90h-48l-30 210q-110 38 -213 41l-6 -528l55 -27q68 -33 111.5 -60t85 -65.5t61.5 -88t20 -111.5zM240 946q0 -97 57 -155t176 -115l19 -8l-7 501q-112 -8 -178.5 -62t-66.5 -161zM532 563l7 -514
q116 10 188 66t72 168q0 52 -16.5 92.5t-52.5 72t-70.5 52t-92.5 47.5z" />
    <glyph glyph-name="percent" unicode="%" horiz-adv-x="1648" 
d="M1300 1266l5 -15q-44 -63 -194 -276t-232 -336q-80 -117 -227.5 -342t-215.5 -326l-45 19l-4 14q73 110 224 325.5t225 325.5q65 97 204.5 307.5t214.5 321.5zM395 1245q133 0 201 -102t68 -271q0 -181 -74.5 -283t-210.5 -102q-132 0 -200 100t-68 269q0 179 74.5 284
t209.5 105zM389 1198q-105 0 -159 -87t-54 -249q0 -327 209 -327q105 0 159 83.5t54 245.5q0 160 -52.5 247t-156.5 87zM1272 731q133 0 200.5 -102t67.5 -271q0 -181 -74.5 -283t-210.5 -102q-132 0 -200 100t-68 269q0 179 75 284t210 105zM1268 684q-105 0 -159 -87
t-54 -249t53 -245t156 -83q104 0 158.5 84t54.5 246q0 160 -52.5 247t-156.5 87z" />
    <glyph glyph-name="ampersand" unicode="&#x26;" horiz-adv-x="1355" 
d="M1323 39l-2 -39q-59 -12 -104 -12q-151 0 -349 149l-6 4q-168 -168 -379 -168q-54 0 -106 10.5t-104 36t-91 63.5t-63.5 97.5t-24.5 132.5q0 268 316 389q-109 210 -109 369q0 79 28 141.5t75.5 100t106.5 57t124 19.5q128 0 195 -70.5t67 -181.5q0 -147 -112.5 -264.5
t-290.5 -182.5q71 -130 171.5 -253t211.5 -214q74 101 104.5 219t9.5 283q106 23 305 23v-62h-237q20 -138 -20 -265t-130 -224q159 -125 308 -152zM627 1335q-110 0 -181 -65t-71 -193q0 -147 100 -352q348 169 348 410q0 92 -47.5 146t-148.5 54zM492 29q175 0 337 141
q-109 93 -216 225t-183 271q-125 -62 -192.5 -144t-67.5 -200q0 -77 30 -136.5t79 -92t103 -48.5t110 -16z" />
    <glyph glyph-name="quotesingle" unicode="'" horiz-adv-x="405" 
d="M246 1491l-17 -422h-51l-18 422q30 10 73 10z" />
    <glyph glyph-name="parenleft" unicode="(" horiz-adv-x="608" 
d="M424 1542l29 -16q-115 -229 -170.5 -453t-55.5 -495t55.5 -495.5t170.5 -453.5l-29 -16q-130 177 -199 440t-69 525t69 524.5t199 439.5z" />
    <glyph glyph-name="parenright" unicode=")" horiz-adv-x="608" 
d="M156 1526l30 16q128 -178 197.5 -440.5t69.5 -523.5t-69.5 -524.5t-197.5 -440.5l-30 16q116 227 171.5 452t55.5 497t-55.5 496.5t-171.5 451.5z" />
    <glyph glyph-name="asterisk" unicode="*" horiz-adv-x="935" 
d="M438 1599h68q4 -29 4 -73q0 -106 -18 -244h-39q-19 146 -19 244q0 44 4 73zM90 1298l21 66q26 -5 71 -21q109 -34 226 -94l-13 -37q-110 19 -235 60q-69 26 -70 26zM825 1362l21 -66q-14 -7 -68 -24q-134 -42 -237 -60l-13 37q128 62 226 92q56 18 71 21zM412 1167
l32 -22q-64 -118 -129 -207q-17 -25 -47 -59l-55 41q21 35 41 61q14 19 39 48.5t61 70.5t58 67zM492 1145l30 22q101 -101 162 -184q20 -25 43 -61l-57 -41q-5 6 -21 25.5t-24 31.5q-56 70 -133 207z" />
    <glyph glyph-name="plus" unicode="+" 
d="M1104 571h-445v-456h-61v456h-446v60h444v456h61v-456h447v-60z" />
    <glyph glyph-name="comma" unicode="," horiz-adv-x="405" 
d="M211 109q28 0 61 -11q27 -60 27 -127q0 -120 -69.5 -197.5t-178.5 -117.5l-16 37q95 44 149 102.5t54 147.5q0 25 -7 57l-90 6l-2 94q45 9 72 9z" />
    <glyph glyph-name="hyphen" unicode="-" horiz-adv-x="753" 
d="M623 569h-492v62h492v-62z" />
    <glyph glyph-name="period" unicode="." horiz-adv-x="405" 
d="M209 182q11 0 35 -4q18 -34 18 -76q0 -56 -24 -102h-76l-17 168q28 14 64 14z" />
    <glyph glyph-name="slash" unicode="/" horiz-adv-x="628" 
d="M559 1462l-432 -1835h-45l-12 13l434 1835h45z" />
    <glyph glyph-name="zero" unicode="0" horiz-adv-x="1134" 
d="M578 1243q209 0 317.5 -166.5t108.5 -455.5q0 -303 -117.5 -475.5t-329.5 -172.5q-209 0 -317.5 167t-108.5 456q0 302 118 474.5t329 172.5zM569 1190q-173 0 -268.5 -151t-95.5 -433q0 -283 95 -431t265 -148q169 0 266 149.5t97 437.5q0 279 -94 427.5t-265 148.5z
" />
    <glyph glyph-name="one" unicode="1" horiz-adv-x="770" 
d="M707 41v-41h-603v41l273 20v1059q-114 -84 -266 -100l-7 51q92 12 176 54.5t136 117.5l30 -2v-1192z" />
    <glyph glyph-name="two" unicode="2" horiz-adv-x="901" 
d="M754 233h53q10 -48 10 -108q0 -57 -10 -125h-731l-13 49q21 19 83 74t89 79.5t85 78.5t86.5 85t76.5 84t73.5 90t58 88.5t48.5 94.5t27.5 92.5t11.5 97.5q0 130 -76 204.5t-206 74.5q-123 0 -232 -66l-30 -208h-49q-29 44 -29 83q0 106 106 175t244 69q159 0 253.5 -94.5
t94.5 -239.5q0 -83 -34 -172t-89.5 -170t-142 -173t-174.5 -170.5t-203 -172.5l4 -10q128 11 291 14l303 6z" />
    <glyph glyph-name="three" unicode="3" horiz-adv-x="970" 
d="M561 582v-13q121 -24 194.5 -113.5t73.5 -226.5q0 -172 -118 -285.5t-316 -113.5q-135 0 -223 55t-88 162q0 49 27 90h51l31 -217q109 -37 213 -37q150 0 250 90.5t100 251.5q0 66 -19 121.5t-59 101t-110 71.5t-165 26h-2h-88v53h189q43 18 79 43t69 62t52 90.5
t19 117.5q0 139 -83 210t-220 71q-110 0 -215 -57l-29 -205h-49q-27 31 -27 82q0 99 96.5 166t241.5 67q162 0 260.5 -90.5t98.5 -243.5q0 -72 -23 -131.5t-60.5 -98t-74.5 -62t-76 -37.5z" />
    <glyph glyph-name="four" unicode="4" horiz-adv-x="983" 
d="M915 219h-231v-362h-70v362h-532l-12 41q303 588 446 987l62 -20l4 -15q-160 -417 -453 -938l4 -10q115 8 254 8h227v349l54 26l16 -4v-371h231v-53z" />
    <glyph glyph-name="five" unicode="5" horiz-adv-x="931" 
d="M373 684q216 0 345.5 -108.5t129.5 -313.5q0 -194 -116 -313t-320 -119q-137 0 -222.5 54.5t-85.5 160.5q0 51 27 92h51l31 -217q98 -37 205 -37q164 0 260 98.5t96 266.5q0 178 -112 274.5t-330 102.5l-158 6l25 600l57 14q47 -24 125 -44.5t149 -20.5q117 0 258 65
l15 -33q-51 -44 -129 -71t-160 -27q-140 0 -260 60l-31 -500q88 10 150 10z" />
    <glyph glyph-name="six" unicode="6" horiz-adv-x="1081" 
d="M602 860q118 0 203.5 -59.5t126.5 -155t41 -213.5q0 -200 -116 -329.5t-308 -129.5q-201 0 -309.5 151t-108.5 437q0 141 27 267t80 228.5t128 177t174.5 115t215.5 40.5q56 0 100 -9l-4 -41q-272 8 -437 -150t-204 -499h12q173 170 379 170zM555 27q146 0 245 105.5
t99 293.5q0 77 -18.5 143.5t-55.5 119t-99 82.5t-142 30q-191 0 -375 -191q-2 -25 -2 -71q0 -257 95 -384.5t253 -127.5z" />
    <glyph glyph-name="seven" unicode="7" horiz-adv-x="868" 
d="M825 1219l13 -39q-244 -390 -374 -676t-140 -494l82 -143l-46 -27q-52 23 -80 65.5t-28 123.5q0 342 522 1134l-6 8l-604 -18l-21 -174h-51q-8 62 -8 111q0 57 10 129h731z" />
    <glyph glyph-name="eight" unicode="8" horiz-adv-x="1079" 
d="M635 709v-13q150 -61 226.5 -147t76.5 -221q0 -89 -33 -158.5t-90 -111.5t-128 -63.5t-152 -21.5q-174 0 -284 93t-110 260q0 79 26.5 143t73 107t95 70t106.5 46v13q-135 58 -205.5 141.5t-70.5 202.5q0 84 34 151t90.5 107t124 61t140.5 21q153 0 255.5 -87.5
t102.5 -244.5q0 -70 -21 -127t-61 -98t-87 -70t-109 -53zM240 1059q0 -61 20.5 -110t62.5 -87t90.5 -65.5t118.5 -57.5l46 -18q134 63 198 141.5t64 188.5q0 133 -82.5 208.5t-212.5 75.5q-128 0 -216.5 -73.5t-88.5 -202.5zM539 27q141 0 233 76.5t92 218.5q0 65 -21 115.5
t-66 89.5t-94.5 66t-127.5 60l-57 25q-143 -64 -213 -145t-70 -201q0 -146 89.5 -225.5t234.5 -79.5z" />
    <glyph glyph-name="nine" unicode="9" horiz-adv-x="1085" 
d="M535 1245q201 0 310 -151.5t109 -440.5q0 -240 -73.5 -425.5t-216.5 -291.5t-336 -106q-64 0 -103 8l2 41q134 -4 241 29.5t192 109t139.5 204t74.5 306.5h-12q-176 -170 -379 -170q-119 0 -205 60t-126.5 155.5t-40.5 212.5q0 200 116 329.5t308 129.5zM500 418
q104 0 194.5 49.5t182.5 142.5q2 25 2 70q0 256 -96 384t-253 128q-147 0 -246.5 -105t-99.5 -292q0 -78 19 -145t56.5 -119.5t99 -82.5t141.5 -30z" />
    <glyph glyph-name="colon" unicode=":" horiz-adv-x="405" 
d="M209 1014q11 0 35 -4q18 -35 18 -76q0 -57 -24 -103h-76l-17 168q30 15 64 15zM209 182q11 0 35 -4q18 -34 18 -76q0 -56 -24 -102h-76l-17 168q28 14 64 14z" />
    <glyph glyph-name="semicolon" unicode=";" horiz-adv-x="405" 
d="M209 1014q11 0 35 -4q18 -35 18 -76q0 -57 -24 -103h-76l-17 168q30 15 64 15zM211 109q28 0 61 -11q27 -60 27 -127q0 -120 -69.5 -197.5t-178.5 -117.5l-16 37q95 44 149 102.5t54 147.5q0 25 -7 57l-90 6l-2 94q45 9 72 9z" />
    <glyph glyph-name="less" unicode="&#x3c;" 
d="M1020 1049l-766 -441v-12l766 -442l-27 -50l-833 474v49l833 471z" />
    <glyph glyph-name="equal" unicode="=" 
d="M1106 367h-952v59h952v-59zM1106 776h-952v60h952v-60z" />
    <glyph glyph-name="greater" unicode="&#x3e;" 
d="M1094 627v-49l-834 -474l-27 50l766 442v12l-766 441l27 49z" />
    <glyph glyph-name="question" unicode="?" horiz-adv-x="669" 
d="M195 1378q105 0 201 -52.5t156 -145.5t60 -201q0 -46 -13.5 -84t-34 -67.5t-66.5 -65.5t-88 -64t-121 -78q-9 -5 -13 -8l21 -219l-45 -2q-43 131 -43 203q0 29 16 52t68 54q66 42 94 61t67 47t52.5 43t30 37.5t20.5 43t4 47.5q0 128 -107.5 223t-293.5 115l6 59
q10 2 29 2zM274 172q19 0 37 -6q17 -34 17 -64q0 -60 -29 -112l-70 10l-10 162q35 10 55 10z" />
    <glyph glyph-name="at" unicode="@" horiz-adv-x="1826" 
d="M1061 1430q158 0 285 -53t207 -145.5t122.5 -214.5t42.5 -263q0 -121 -31.5 -226.5t-83.5 -179.5t-118.5 -128t-138 -79.5t-140.5 -25.5q-41 0 -55 13t-10 52l6 58h-10q-86 -77 -157.5 -110.5t-150.5 -33.5q-137 0 -209 88t-73 258q-1 115 30.5 224t89 195.5t145.5 139
t192 52.5q68 0 121 -21.5t110 -64.5q21 40 41 65l27 -6l-101 -864q198 8 325.5 168t127.5 413q0 104 -23 197.5t-71 174t-117.5 138.5t-168.5 91.5t-218 33.5q-172 0 -329 -67.5t-274 -184.5t-186 -285.5t-69 -359.5q0 -160 49.5 -286t130 -204t187.5 -126.5t217.5 -63.5
t224.5 -4l4 -39q-66 -14 -150 -14q-152 0 -285 48.5t-233.5 139t-158.5 231.5t-58 316q0 199 75 377t201 303.5t298 199t360 73.5zM848 154q77 0 143 33t158 108l72 614q-106 88 -213 88q-111 0 -200.5 -76t-137 -200t-47.5 -270q0 -297 225 -297z" />
    <glyph glyph-name="A" unicode="A" horiz-adv-x="1421" 
d="M1391 43v-43h-463v43l202 20q-58 187 -122 383h-611q-88 -269 -127 -395l217 -8v-43h-456v43l180 20q228 714 448 1303l72 23h19q227 -608 462 -1338zM416 500h573q-174 518 -280 809h-13q-106 -291 -280 -809z" />
    <glyph glyph-name="B" unicode="B" horiz-adv-x="1230" 
d="M809 723v-12q131 -27 207 -116t76 -235q0 -178 -120 -269t-347 -91h-512v43l204 20v1248l-204 8v43q86 1 199 2.5t189 2.5t105 1q211 1 320.5 -83.5t109.5 -246.5q0 -127 -63 -203.5t-162 -111.5h-2zM391 1313v-574h354q102 46 157.5 113t55.5 184q0 277 -344 277h-223z
M391 53h238q188 0 287.5 78.5t99.5 233.5q0 149 -92.5 235t-280.5 86h-252v-633z" />
    <glyph glyph-name="C" unicode="C" horiz-adv-x="1239" 
d="M1087 168l23 -37q-158 -158 -401 -158q-116 0 -212.5 36t-164 100t-114.5 152t-69 191t-22 218q0 152 40 282.5t115 228t192.5 153t264.5 55.5q180 0 344 -76q7 -82 7 -123q0 -71 -13 -199h-47l-24 287q-132 53 -269 53q-111 0 -205.5 -39.5t-167.5 -117.5t-115 -205.5
t-42 -290.5q0 -309 140 -475t374 -166q196 0 366 131z" />
    <glyph glyph-name="D" unicode="D" horiz-adv-x="1386" 
d="M113 1319v43q237 6 487 6q137 0 248 -34.5t187 -96t127 -148t74.5 -187.5t23.5 -218q0 -149 -39 -271t-118 -215.5t-212 -145.5t-309 -52h-469v43l204 20v1248zM391 55h191q285 0 442.5 155t157.5 474q0 307 -150.5 468t-423.5 161h-217v-1258z" />
    <glyph glyph-name="E" unicode="E" horiz-adv-x="1232" 
d="M1024 305l49 -2q6 -71 6 -127q0 -99 -14 -176h-952v43l204 20v1248l-204 8v43h954h2q6 -70 6 -127q0 -92 -10 -174h-49l-21 244l-604 8v-623h385l17 160h45v-377h-45l-17 164h-385v-588l604 8z" />
    <glyph glyph-name="F" unicode="F" horiz-adv-x="1177" 
d="M113 1362h934q6 -70 6 -127q0 -84 -11 -174h-49l-20 244l-582 8v-633h377l16 160h47v-377h-47l-16 164h-377v-576l279 -8v-43h-557v43l204 20v1248l-204 8v43z" />
    <glyph glyph-name="G" unicode="G" horiz-adv-x="1355" 
d="M1260 555v-43l-160 -18v-441q-167 -80 -369 -80q-151 0 -268 53t-189.5 147t-109.5 218.5t-37 272.5q0 209 69.5 371t211.5 258t340 96q186 0 346 -80q6 -71 6 -121q0 -93 -10 -178h-50l-22 264q-126 57 -275 57q-112 0 -207 -39.5t-169.5 -117.5t-117 -207t-42.5 -295
q0 -163 40.5 -287.5t113 -201t167 -114.5t207.5 -38q160 0 297 61l-10 414l-258 6v43h496z" />
    <glyph glyph-name="H" unicode="H" horiz-adv-x="1546" 
d="M1229 1298v-1247l205 -8v-43h-484v43l205 20v615h-764v-627l225 -8v-43h-503v43l204 20v1248l-204 8v43h503v-43l-225 -21v-567h764v580l-209 8v43h488v-43z" />
    <glyph glyph-name="I" unicode="I" horiz-adv-x="708" 
d="M391 1298v-1247l205 -8v-43h-483v43l204 20v1248l-204 8v43h483v-43z" />
    <glyph glyph-name="J" unicode="J" horiz-adv-x="942" 
d="M877 1319l-203 -21v-925q0 -110 -28 -191t-76.5 -125t-105 -64t-122.5 -20q-120 0 -193 59t-73 161q0 65 33 112h51l20 -229q77 -45 158 -45q128 0 194 85t66 244v951l-301 8v43h580v-43z" />
    <glyph glyph-name="K" unicode="K" horiz-adv-x="1343" 
d="M1278 1319l-176 -19q-178 -280 -395 -577q72 -105 216.5 -344t204.5 -330l134 -10l-2 -37q-53 -16 -101 -16q-46 0 -76.5 20t-68.5 76q-43 62 -171 281t-190 313h-262v-625l225 -8v-43h-503v43l204 20v1248l-204 8v43h483v-43l-205 -21v-569h260q183 258 381 582l-223 8
v43h469v-43z" />
    <glyph glyph-name="L" unicode="L" horiz-adv-x="1126" 
d="M1020 174q0 -100 -14 -174h-2h-891v43l204 20v1248l-204 8v43h522v-43l-244 -21v-1249l539 8l33 252l51 -2q6 -74 6 -133z" />
    <glyph glyph-name="M" unicode="M" horiz-adv-x="1783" 
d="M1714 43v-43h-485v43l207 20q-21 636 -70 1240h-12q-20 -84 -76 -236l-354 -971l-62 -20h-18l-350 989q-55 148 -76 238h-12q-20 -258 -72 -1252l225 -8v-43h-489v43l204 20q28 608 80 1248l-207 8v43h320q222 -606 418 -1190h12q84 253 424 1190h313v-43l-202 -21
q55 -685 77 -1247z" />
    <glyph glyph-name="N" unicode="N" horiz-adv-x="1550" 
d="M1460 1362v-43l-205 -21v-1298l-59 -20l-27 -3l-645 1086q-97 162 -137 240h-12l2 -1252l227 -8v-43h-491v45l204 18v1248l-204 8v43h319l602 -1014q120 -202 152 -262h12l-2 1225l-211 8v43h475z" />
    <glyph glyph-name="O" unicode="O" horiz-adv-x="1402" 
d="M717 1389q112 0 204.5 -35.5t157.5 -98.5t110 -150t66 -189.5t21 -217.5q0 -209 -69 -372t-204.5 -258t-318.5 -95q-137 0 -244.5 54t-175 149.5t-102.5 220t-35 271.5q0 210 68 372t203 255.5t319 93.5zM713 1331q-80 0 -152.5 -23t-137.5 -74.5t-112.5 -127
t-75.5 -186.5t-28 -246q0 -159 37.5 -283t103 -202t152.5 -118t190 -40q102 0 191 39.5t160.5 117t113 207.5t41.5 297q0 157 -37 280.5t-102.5 201t-153 117.5t-190.5 40z" />
    <glyph glyph-name="P" unicode="P" horiz-adv-x="1171" 
d="M532 608h97q177 0 268.5 87.5t91.5 256.5q0 168 -90.5 264.5t-273.5 96.5h-234v-1262l279 -8v-43h-557v43l204 20v1248l-200 8v43q111 6 501 6q225 0 338 -109.5t113 -297.5q0 -194 -113.5 -301t-304.5 -107q-41 0 -119 10v45z" />
    <glyph glyph-name="Q" unicode="Q" horiz-adv-x="1402" 
d="M717 1389q112 0 204.5 -35.5t157.5 -98.5t110 -150t66 -188.5t21 -216.5q0 -275 -117 -465t-325 -239v-12l278 -289l137 -25l-2 -39q-50 -4 -84 -4q-47 0 -81 11.5t-66 50.5l-258 288q-54 -4 -76 -4q-136 0 -243 54t-174.5 149t-102.5 220.5t-35 273.5q0 209 68 370.5
t203 255t319 93.5zM713 1331q-80 0 -152.5 -23t-137.5 -74.5t-112.5 -127t-75.5 -186.5t-28 -246q0 -159 37.5 -283t103 -202t152.5 -118t190 -40q102 0 191 39.5t160.5 117t113 207.5t41.5 297q0 157 -37 280.5t-102.5 201t-153 117.5t-190.5 40z" />
    <glyph glyph-name="R" unicode="R" horiz-adv-x="1257" 
d="M1221 39l-2 -37q-46 -16 -101 -16q-44 0 -74 19.5t-65 68.5q-39 55 -154.5 249.5t-169.5 274.5h-264v-547l225 -8v-43h-503v43l204 20v1248l-204 8v43q66 1 173 2.5t181 2.5t98 1q129 0 225 -29t151.5 -81.5t81.5 -119t26 -147.5q0 -153 -84.5 -242t-229.5 -133l-2 -10
q63 -87 186 -287t171 -270zM391 653h314q62 24 105.5 50.5t82 65.5t57.5 94.5t19 127.5q0 320 -391 320l-187 2v-660z" />
    <glyph glyph-name="S" unicode="S" horiz-adv-x="1060" 
d="M487 756l140 -68q60 -29 100 -51.5t83.5 -56t69 -68t42 -83.5t16.5 -107q0 -166 -118 -257.5t-312 -91.5q-187 0 -354 80q-15 102 -15 174q0 59 8 121l46 4l34 -262q130 -59 279 -59q71 0 131 14.5t112 45t81.5 86t29.5 130.5q0 37 -8 69t-19 56.5t-32.5 48t-39.5 39.5
t-50 35.5t-53.5 30.5t-59.5 30l-141 68q-55 26 -93.5 49t-79.5 56t-65.5 68.5t-40.5 85t-16 108.5q0 157 102.5 247.5t280.5 90.5q89 0 176 -22t151 -56q7 -79 7 -121q0 -80 -11 -174h-49l-20 262q-124 53 -258 53q-137 0 -222.5 -65.5t-85.5 -204.5q0 -49 13 -89.5
t32.5 -69.5t55 -56.5t69 -46t84.5 -43.5z" />
    <glyph glyph-name="T" unicode="T" horiz-adv-x="1206" 
d="M111 1362h983q6 -70 6 -125q0 -95 -10 -180h-50l-20 248l-381 10v-1264l242 -8v-43h-557v43l241 20v1252l-379 -10l-20 -248h-49q-11 93 -11 180q0 58 5 109v16z" />
    <glyph glyph-name="U" unicode="U" horiz-adv-x="1468" 
d="M1403 1362v-43l-205 -21v-841q0 -229 -116.5 -356.5t-340.5 -127.5q-227 0 -349 130.5t-122 367.5v840l-204 8v43h501v-43l-223 -21v-839q0 -217 111 -322.5t295 -105.5q182 0 285.5 104.5t103.5 323.5v852l-228 8v43h492z" />
    <glyph glyph-name="V" unicode="V" horiz-adv-x="1400" 
d="M1370 1319l-180 -21q-135 -442 -442 -1302l-68 -23h-21q-289 812 -454 1338l-174 8v43h483v-43l-225 -21q109 -366 411 -1245h13q299 852 417 1258l-221 8v43h461v-43z" />
    <glyph glyph-name="W" unicode="W" horiz-adv-x="2072" 
d="M2013 1319l-178 -21q-137 -508 -391 -1302l-70 -23h-18q-172 544 -309 1049h-11q-94 -355 -311 -1026l-70 -23h-18q-256 795 -404 1338l-174 8v43h484v-43l-226 -21q117 -460 361 -1245h12q187 587 324 1061l-60 197l-159 8v43h485v-43l-244 -21h-4q240 -847 365 -1245
h12q242 783 365 1258l-222 8v43h461v-43z" />
    <glyph glyph-name="X" unicode="X" horiz-adv-x="1427" 
d="M1354 43v-43h-484v43l215 20q-207 329 -374 578h-13q-206 -298 -385 -590l219 -8v-43h-458v43l172 20q208 322 428 627q-183 268 -408 621l-176 8v43h488v-43l-218 -21q172 -277 355 -544h10q166 232 373 557l-221 8v43h460v-43l-172 -19q-158 -242 -411 -598
q311 -470 426 -651z" />
    <glyph glyph-name="Y" unicode="Y" horiz-adv-x="1331" 
d="M1278 1319l-176 -21q-168 -372 -393 -806v-441l241 -8v-43h-557v43l242 20v424q-203 386 -406 824l-176 8v43h484v-43l-220 -21q168 -371 357 -733h12q176 337 354 746l-223 8v43h461v-43z" />
    <glyph glyph-name="Z" unicode="Z" horiz-adv-x="1130" 
d="M981 309l49 -2q6 -71 6 -129q0 -101 -14 -178h-909l-13 33l727 1118q40 63 105 156l-4 10l-717 -14l-21 -246h-49q-10 85 -10 176q0 82 4 129h881l12 -33l-721 -1112q-62 -95 -114 -162l6 -10l751 16z" />
    <glyph glyph-name="bracketleft" unicode="[" horiz-adv-x="665" 
d="M551 1473l-260 -9q14 -441 14 -870q0 -437 -14 -903l260 -8v-43h-313v1876h313v-43z" />
    <glyph glyph-name="backslash" unicode="\" horiz-adv-x="628" 
d="M502 -373l-432 1835l10 13h45l434 -1835l-12 -13h-45z" />
    <glyph glyph-name="bracketright" unicode="]" horiz-adv-x="663" 
d="M426 1516v-1876h-311v43l256 8q-13 432 -13 903q0 459 13 872l-256 7v43h311z" />
    <glyph glyph-name="asciicircum" unicode="^" horiz-adv-x="841" 
d="M758 1024l-41 -27l-289 410h-12l-291 -410l-41 27l301 461h72z" />
    <glyph glyph-name="underscore" unicode="_" horiz-adv-x="913" 
d="M805 -221h-694v53h694v-53z" />
    <glyph glyph-name="grave" unicode="`" horiz-adv-x="417" 
d="M356 1174h-49l-246 350q19 31 56 47h22z" />
    <glyph glyph-name="a" unicode="a" horiz-adv-x="1024" 
d="M971 45v-39q-88 -20 -150 -20q-47 0 -67.5 16.5t-20.5 56.5v74h-14q-167 -160 -357 -160q-127 0 -194.5 66t-67.5 172q0 65 27 115.5t70.5 81t104.5 50t123 27t132 7.5q57 0 172 -7l2 220q1 136 -66.5 206t-195.5 70q-100 0 -207 -55l-29 -207h-49q-28 32 -28 82
q0 97 100 165t231 68q138 0 226.5 -82.5t87.5 -238.5l-6 -666zM371 31q88 0 180.5 42t175.5 117l2 256h-127q-219 0 -323.5 -56.5t-104.5 -174.5q0 -84 50.5 -134t146.5 -50z" />
    <glyph glyph-name="b" unicode="b" horiz-adv-x="1153" 
d="M289 1534v-512q0 -32 -4 -86t-4 -59h12q174 157 362 157q177 0 275 -129.5t98 -361.5q0 -118 -27.5 -218.5t-83 -180.5t-147.5 -125.5t-213 -45.5q-153 0 -340 76v1424l-176 10v39q137 18 231 20zM641 975q-163 0 -352 -156v-733q134 -59 272 -59q181 0 287 129.5
t106 378.5q0 225 -86 332.5t-227 107.5z" />
    <glyph glyph-name="c" unicode="c" horiz-adv-x="956" 
d="M836 160l22 -31q-144 -156 -346 -156q-102 0 -181 41.5t-126.5 113t-71.5 162t-24 195.5q0 249 121 399t321 150q75 0 136.5 -21t102.5 -71.5t41 -122.5q0 -51 -26 -90h-51l-31 217q-90 35 -172 35q-161 0 -265 -127t-104 -360q0 -219 95 -340t251 -121q146 0 308 127z
" />
    <glyph glyph-name="d" unicode="d" horiz-adv-x="1181" 
d="M936 1534v-1473l176 -14v-41q-141 -18 -233 -20l-17 4l10 141h-12q-175 -158 -362 -158q-177 0 -275 129.5t-98 360.5q0 117 27.5 218t82 181t145 126t208.5 46q144 0 278 -71v507l-180 11v41q136 17 234 20zM586 981q-177 0 -282 -129.5t-105 -378.5q0 -225 86 -332.5
t227 -107.5q157 0 352 157v713q-127 78 -278 78z" />
    <glyph glyph-name="e" unicode="e" horiz-adv-x="980" 
d="M846 160l24 -31q-144 -156 -346 -156q-106 0 -187 41.5t-130 113.5t-73.5 162.5t-24.5 196.5q0 247 120.5 397t317.5 150q157 0 238 -98t81 -262q0 -79 -14 -150h-670v-26q0 -221 96.5 -343t258.5 -122q87 0 160.5 34t148.5 93zM539 981q-142 0 -240 -109t-115 -305
l607 11q2 29 2 81q0 160 -67 241t-187 81z" />
    <glyph glyph-name="f" unicode="f" horiz-adv-x="684" 
d="M578 1542q95 0 160 -41t65 -127q0 -45 -25 -80h-51l-25 179q-69 16 -118 16q-119 0 -182.5 -84.5t-63.5 -243.5v-153h315v-54h-315v-905l256 -2v-47h-504v43l176 18v893l-176 9v41l176 16v143q0 98 24.5 172.5t68 118.5t98.5 66t121 22z" />
    <glyph glyph-name="g" unicode="g" horiz-adv-x="1026" 
d="M862 1047l-90 -119q86 -100 86 -240q0 -158 -106.5 -264.5t-278.5 -106.5q-57 0 -117 17v-201l187 -33q234 -44 321.5 -89.5t87.5 -141.5q0 -74 -47 -134t-124.5 -96.5t-169.5 -55.5t-189 -19q-164 0 -253 57t-89 174q0 99 61 176.5t154 116.5q0 95 16 262
q-90 42 -137 128t-47 186q0 158 107 264t278 106q143 0 233 -80q42 95 81 145t87 50q31 0 50 -16l-5 -54zM483 371q138 0 219.5 87t81.5 228q0 132 -72 213.5t-208 81.5q-140 0 -221.5 -85.5t-81.5 -223.5q0 -130 73 -215.5t209 -85.5zM512 35l-197 35q-75 -62 -118 -124
t-43 -134q0 -92 71 -143.5t215 -51.5q73 0 147.5 13t143.5 39t112.5 72.5t43.5 106.5q0 46 -32.5 77t-112 56.5t-230.5 53.5z" />
    <glyph glyph-name="h" unicode="h" horiz-adv-x="1212" 
d="M1184 43v-43h-443v43l174 18v621q0 293 -241 293q-92 0 -177.5 -39.5t-179.5 -116.5v-770l195 -6v-43h-442v43l176 18v1409l-176 13v39q137 18 231 20l16 -8v-512q0 -32 -4 -86t-4 -59h13q173 157 366 157q143 0 221 -85.5t78 -256.5v-643z" />
    <glyph glyph-name="i" unicode="i" horiz-adv-x="581" 
d="M532 43v-43h-442v43l176 18v887l-176 13v43q154 16 232 20l16 -8v-967zM285 1450q20 0 32 -4q19 -32 19 -70q0 -48 -29 -100h-69l-13 164q23 10 60 10z" />
    <glyph glyph-name="j" unicode="j" horiz-adv-x="534" 
d="M317 1016v-1116q0 -43 -4 -70t-16 -55.5t-39.5 -55.5t-68 -59t-107.5 -78l-29 29l193 192v1145l-176 13v43q155 16 231 20zM264 1450q21 0 33 -4q18 -30 18 -70q0 -50 -28 -100h-70l-12 164q23 10 59 10z" />
    <glyph glyph-name="k" unicode="k" horiz-adv-x="1136" 
d="M1098 35l-2 -35q-54 -14 -107 -14q-43 0 -70.5 17t-64.5 71q-4 6 -114 168.5t-189 273.5h-234v-467l191 -6v-43h-438v43l176 18v1412l-176 10v39q136 17 233 20l14 -8v-967h224q154 176 315 391h-2l-217 7v43h412v-43l-129 -17q-149 -195 -320 -387q144 -194 363 -516z
" />
    <glyph glyph-name="l" unicode="l" horiz-adv-x="563" 
d="M512 43v-43h-442v43l176 18v1409l-176 7v45q137 18 231 20l16 -8v-1485z" />
    <glyph glyph-name="m" unicode="m" horiz-adv-x="1875" 
d="M1847 43v-43h-438v43l172 18v621q0 154 -62 223.5t-186 69.5q-93 0 -169.5 -36.5t-180.5 -117.5q12 -55 12 -112v-660l172 -6v-43h-395v43l152 18v621q0 155 -61 224t-183 69q-91 0 -166.5 -36.5t-175.5 -119.5v-770l197 -6v-43h-445v43l176 18v887l-176 13v43
q154 16 234 20l16 -8l-10 -139h12q93 84 174.5 120.5t181.5 36.5q203 0 269 -160h12q100 85 186.5 122.5t184.5 37.5q303 0 303 -342v-643z" />
    <glyph glyph-name="n" unicode="n" horiz-adv-x="1234" 
d="M1206 41v-41h-442v41l176 20v623q0 291 -248 291q-168 0 -356 -154v-772l196 -8v-41h-442v41l176 20v887l-176 15v41q156 16 234 20l16 -8l-10 -139h12q173 157 367 157q144 0 222.5 -85.5t78.5 -256.5v-643z" />
    <glyph glyph-name="o" unicode="o" horiz-adv-x="1077" 
d="M551 1034q103 0 184.5 -42.5t131.5 -115.5t76 -165.5t26 -198.5q0 -153 -51 -274t-152.5 -193t-239.5 -72q-104 0 -185 41.5t-131 114t-75.5 165t-25.5 200.5q0 153 51 274.5t152.5 193.5t238.5 72zM547 981q-73 0 -136.5 -28t-115 -83.5t-81.5 -150.5t-30 -219
q0 -123 29 -216.5t79.5 -148t111.5 -81.5t131 -27q71 0 134 28t114 83.5t80.5 150.5t29.5 219q0 228 -94.5 350.5t-251.5 122.5z" />
    <glyph glyph-name="p" unicode="p" horiz-adv-x="1181" 
d="M684 1034q177 0 275 -129t98 -360q0 -118 -27 -219t-81.5 -181t-145.5 -126t-209 -46q-141 0 -277 72v-405l215 -7v-43h-462v43l176 19v1296l-176 13v43q163 16 233 20l16 -6l-10 -141h13q174 157 362 157zM596 27q177 0 282 129.5t105 378.5q0 225 -86 332.5t-227 107.5
q-158 0 -353 -158v-708q133 -82 279 -82z" />
    <glyph glyph-name="q" unicode="q" horiz-adv-x="1153" 
d="M1112 -367v-43h-467v43l219 19h2v334q0 22 6 145h-12q-175 -158 -362 -158q-177 0 -275 129.5t-98 360.5q0 93 16 175.5t52.5 155.5t89.5 126t132.5 83.5t176.5 30.5q143 0 282 -88q10 35 33 70l29 -6v-1370zM864 188v701q-134 92 -272 92q-180 0 -286.5 -130
t-106.5 -378q0 -224 86.5 -332t228.5 -108q162 0 350 155z" />
    <glyph glyph-name="r" unicode="r" horiz-adv-x="755" 
d="M702 948h-161q-88 -65 -203 -227v-672l237 -6v-43h-485v43l176 18v887l-176 13v43q143 15 234 20l16 -8l-12 -219h12q93 136 152 186.5t129 50.5q50 0 88 -33z" />
    <glyph glyph-name="s" unicode="s" horiz-adv-x="909" 
d="M438 559l86 -39q70 -30 112 -53.5t79 -55.5t53 -72t16 -93q0 -130 -97.5 -201.5t-258.5 -71.5q-162 0 -295 70q-8 58 -8 107q0 79 8 124h49l25 -198q106 -49 225 -49q41 0 79 6t75.5 21t65 37.5t44.5 58.5t17 81q0 44 -14.5 77t-48 60t-66 44t-90.5 43l-86 37
q-55 25 -87 41.5t-68.5 41.5t-55.5 50t-32 61t-13 80q0 126 90 197t245 71q139 0 256 -55q9 -65 9 -105q0 -69 -9 -124h-47l-24 196q-88 35 -189 35q-113 0 -188.5 -49t-75.5 -150q0 -44 14 -76.5t47.5 -59t65.5 -43.5t92 -44z" />
    <glyph glyph-name="t" unicode="t" horiz-adv-x="706" 
d="M641 84l14 -37q-113 -74 -235 -74q-90 0 -137 48t-47 159v774l-177 9v41l177 16l36 256l35 -2v-266h303v-54h-303v-766q0 -86 30.5 -121.5t98.5 -35.5q93 0 205 53z" />
    <glyph glyph-name="u" unicode="u" horiz-adv-x="1214" 
d="M1145 47v-41q-141 -18 -234 -20l-16 4l10 143h-12q-174 -160 -365 -160q-144 0 -222.5 85.5t-78.5 256.5v633l-176 13v43q166 17 232 20l16 -8v-686q0 -297 242 -297q169 0 358 155v760h-2l-176 13v43q164 16 231 20l17 -8v-955z" />
    <glyph glyph-name="v" unicode="v" horiz-adv-x="1171" 
d="M1143 965l-154 -19q-123 -368 -354 -950l-64 -23h-18q-232 591 -365 985l-159 7v43h409v-43l-168 -19q136 -415 324 -889h12q168 422 326 901l-191 7v43h402v-43z" />
    <glyph glyph-name="w" unicode="w" horiz-adv-x="1800" 
d="M1747 965l-152 -19q-116 -411 -295 -950l-65 -23h-18q-154 456 -297 969h-13q-112 -396 -307 -946l-65 -23h-19q-175 525 -303 985l-160 7v43h410v-43l-168 -19q93 -359 262 -889h12q205 597 310 955l65 22h19q130 -480 294 -977h13q162 503 268 901l-192 7v43h401v-43z
" />
    <glyph glyph-name="x" unicode="x" horiz-adv-x="1144" 
d="M1108 41v-41h-420v41l158 18q-179 271 -289 416h-10q-153 -212 -295 -426l194 -8v-41h-409v41l153 20q117 170 334 459q-140 182 -313 438l-158 9v41h426v-41l-176 -19q122 -188 266 -381h13q138 189 270 391l-178 9v41h413v-41l-172 -21q-80 -117 -309 -422
q194 -266 332 -475z" />
    <glyph glyph-name="y" unicode="y" horiz-adv-x="1171" 
d="M1143 965l-154 -19q-70 -209 -187.5 -524t-191.5 -494q-24 -57 -47.5 -103.5t-56.5 -97.5t-67 -85t-78 -56t-91 -22q-60 0 -98 30l6 48h187q117 111 194 317q-229 572 -371 999l-159 7v43h411v-43l-170 -19q136 -415 324 -889h12q168 422 326 901l-191 7v43h402v-43z" />
    <glyph glyph-name="z" unicode="z" horiz-adv-x="905" 
d="M774 276l47 -4q4 -28 4 -77q0 -81 -20 -195h-713l-12 41l520 756q56 82 117 157l-6 11l-514 -13l-25 -202h-47q-8 52 -8 124q0 86 10 134h661l13 -43l-522 -754q-60 -88 -117 -158l6 -10l567 14z" />
    <glyph glyph-name="braceleft" unicode="{" horiz-adv-x="636" 
d="M346 465q0 -61 -47 -341t-53 -366l207 -51l-4 -41h-33q-120 0 -176 33t-56 104q0 25 7 80.5t19.5 136.5t24.5 154t28.5 173.5t25.5 154.5l-183 67v52l183 67q-8 52 -25 152t-29 171.5t-25 152.5t-19.5 136t-6.5 80q0 73 56 105.5t184 32.5h25l4 -41l-207 -52
q5 -87 52.5 -364t47.5 -336q0 -53 -38.5 -78t-160.5 -45v-12q123 -21 161 -46t38 -79z" />
    <glyph glyph-name="bar" unicode="|" horiz-adv-x="477" 
d="M266 -246h-55v1782h55v-1782z" />
    <glyph glyph-name="braceright" unicode="}" horiz-adv-x="636" 
d="M530 621v-52l-180 -67q10 -67 40.5 -252.5t46.5 -296.5t16 -150q0 -71 -56 -104t-176 -33h-33l-4 41l209 51q-6 86 -53 366t-47 341q0 54 37.5 79t158.5 46v12q-84 13 -126 29.5t-56 37t-14 56.5q0 59 47.5 336t52.5 364l-209 52l4 41h25q128 0 184 -32.5t56 -105.5
q0 -40 -16 -148.5t-46.5 -295.5t-40.5 -248z" />
    <glyph glyph-name="asciitilde" unicode="~" 
d="M1081 692l29 -24q-72 -110 -124 -161.5t-112 -51.5q-32 0 -77.5 18.5t-78 37.5t-106.5 64q-102 64 -150 90t-102 44l-186 -193l-27 25q71 110 123 161.5t113 51.5q31 0 75.5 -18t80 -38.5t106.5 -64.5q96 -60 144.5 -86.5t105.5 -46.5z" />
    <glyph glyph-name="uni00A0" unicode="&#xa0;" horiz-adv-x="512" 
 />
    <glyph glyph-name="exclamdown" unicode="&#xa1;" horiz-adv-x="468" 
d="M238 1034q18 0 36 -6q17 -34 17 -63q0 -63 -29 -111l-69 8l-11 164q28 8 56 8zM203 629h49q1 -84 9.5 -446.5t8.5 -536.5q-33 -11 -71 -11l-15 11q0 184 9.5 581.5t9.5 401.5z" />
    <glyph glyph-name="cent" unicode="&#xa2;" horiz-adv-x="985" 
d="M868 268l25 -30q-127 -142 -315 -154q1 -38 2 -113t2 -114l-54 -7l-10 9l4 223q-100 4 -177.5 46.5t-124 113.5t-70 160.5t-23.5 193.5q0 228 106 374.5t289 168.5l-4 223l53 6l11 -8l-4 -217h4q123 0 206.5 -55t83.5 -162q0 -46 -26 -90h-51l-29 217q-95 37 -184 37h-4
v-463v-488q145 8 290 129zM201 600q0 -208 87.5 -327.5t235.5 -131.5q2 152 2 486q0 319 -2 458q-146 -23 -234.5 -148t-88.5 -337z" />
    <glyph glyph-name="sterling" unicode="&#xa3;" horiz-adv-x="1101" 
d="M946 279l45 -3q2 -18 2 -47q0 -256 -135 -256q-31 0 -98.5 16t-136 31.5t-169.5 23t-200 -10.5q-38 -45 -96 -45q-27 0 -54 12l-6 55l127 35q150 113 150 272q0 74 -37 191h-232v53h216q-52 147 -62 211q-6 38 -6 72q0 147 100.5 251.5t272.5 104.5q122 0 205 -54.5
t83 -160.5q0 -46 -26 -90h-49l-31 213q-90 37 -186 37q-135 0 -214 -83.5t-79 -211.5q0 -16 1 -32t4.5 -34t5.5 -30.5t8 -33.5t8.5 -30.5t11 -33.5t10.5 -30t12.5 -33.5t11.5 -31.5h345v-53h-328q33 -108 33 -184q0 -52 -12.5 -96t-55 -95.5t-115.5 -93.5l4 -10
q99 22 230 22q161 0 385 -63z" />
    <glyph glyph-name="currency" unicode="&#xa4;" horiz-adv-x="1122" 
d="M971 145l-178 179q-104 -80 -244 -80q-136 0 -225 73l-172 -172l-43 43l172 172q-76 95 -76 228q0 139 84 233l-183 185l44 43l184 -185q104 80 241 80q127 0 220 -70l174 175l43 -45l-172 -173q78 -97 78 -231q0 -136 -82 -231l178 -181zM557 297q121 0 204 78t83 221
q0 137 -78 216t-197 79q-121 0 -205.5 -77.5t-84.5 -221.5q0 -137 79 -216t199 -79z" />
    <glyph glyph-name="yen" unicode="&#xa5;" horiz-adv-x="1337" 
d="M1253 1176l-166 -21q-100 -195 -270 -481h266v-53h-299l-73 -119v-115h372v-53h-372v-283l223 -8v-43h-516v43l219 20v271h-377v53h377v111l-76 123h-301v53h268q-159 259 -284 493l-160 9v43h446v-43l-198 -21q178 -338 344 -596h12q181 289 340 608l-197 9v43h422v-43z
" />
    <glyph glyph-name="brokenbar" unicode="&#xa6;" horiz-adv-x="477" 
d="M266 942h-55v594h55v-594zM266 -246h-55v594h55v-594z" />
    <glyph glyph-name="section" unicode="&#xa7;" horiz-adv-x="940" 
d="M870 393q0 -79 -45 -136t-147 -99q70 -82 70 -181q0 -114 -80.5 -182.5t-214.5 -68.5q-125 0 -199 57t-74 149q0 50 27 84h47l29 -200q102 -37 170 -37q102 0 164.5 47t62.5 139q0 34 -11.5 65.5t-28 57.5t-58 65.5t-76.5 69t-109 90.5q-69 55 -106.5 86.5t-81 71
t-64.5 65.5t-41 58.5t-27 62t-7 64.5q0 78 45.5 135.5t146.5 99.5q-69 85 -69 183q0 113 80.5 181.5t215.5 68.5q123 0 197 -57.5t74 -149.5q0 -50 -27 -84h-47l-27 198q-97 39 -172 39q-102 0 -164.5 -47t-62.5 -139q0 -29 5.5 -53t25 -52.5t34 -47t57.5 -56.5t68.5 -59
t92.5 -76q80 -65 123.5 -102t89 -82t66.5 -77.5t34.5 -70.5t13.5 -80zM651 188q75 40 111.5 83t36.5 112q0 77 -66 154t-268 239q-130 102 -176 150q-76 -42 -112 -83.5t-36 -111.5q0 -75 64 -150t272 -241q124 -97 174 -152z" />
    <glyph glyph-name="dieresis" unicode="&#xa8;" horiz-adv-x="622" 
d="M123 1446q23 0 33 -4q16 -27 16 -68q0 -40 -25 -82h-65l-12 144q23 10 53 10zM504 1446q23 0 33 -4q16 -27 16 -68q0 -40 -25 -82h-65l-12 144q23 10 53 10z" />
    <glyph glyph-name="copyright" unicode="&#xa9;" horiz-adv-x="1658" 
d="M842 1389q197 0 354 -86.5t246.5 -246.5t89.5 -366q0 -159 -55.5 -294.5t-151 -227.5t-226 -143.5t-278.5 -51.5q-149 0 -277.5 52t-220 143.5t-144 222.5t-52.5 283q0 158 55.5 292.5t151.5 226.5t227.5 144t280.5 52zM823 25q174 0 319.5 79t234.5 232t89 352
q0 194 -85.5 343.5t-228 227.5t-316.5 78q-131 0 -248 -46t-205.5 -129t-140.5 -208t-52 -274q0 -194 86.5 -345t230 -230.5t316.5 -79.5zM844 332q116 0 241 102l23 -33q-111 -120 -274 -120q-81 0 -144 32t-101 86.5t-57.5 123t-19.5 145.5q0 182 96.5 297.5t251.5 115.5
q99 0 167.5 -47t68.5 -133q0 -39 -21 -74h-49l-25 172q-68 29 -141 29q-121 0 -196.5 -93t-75.5 -261q0 -163 69 -252.5t187 -89.5z" />
    <glyph glyph-name="ordfeminine" unicode="&#xaa;" horiz-adv-x="735" 
d="M696 494v-35q-74 -19 -121 -19q-67 0 -67 49v50h-12q-63 -53 -117 -80t-123 -27q-89 0 -134.5 45.5t-45.5 120.5q0 57 26.5 97t73.5 61t99 30t114 9q20 0 62.5 -1t52.5 -1l2 120q2 101 -38 152t-136 51q-60 0 -144 -33l-20 -137h-41q-21 18 -21 55q0 67 71 114.5
t167 47.5q102 0 162 -60.5t59 -178.5l-4 -430h135zM272 483q61 0 113 26t117 81l2 166l-94 -2q-271 0 -271 -152q0 -119 133 -119z" />
    <glyph glyph-name="guillemotleft" unicode="&#xab;" horiz-adv-x="1015" 
d="M844 897l-234 -336l234 -338l-35 -26l-281 352v22l281 355zM451 897l-234 -336l234 -338l-35 -26l-281 352v22l281 355z" />
    <glyph glyph-name="logicalnot" unicode="&#xac;" 
d="M1004 199h-66v372h-786v60h852v-432z" />
    <glyph glyph-name="uni00AD" unicode="&#xad;" horiz-adv-x="753" 
d="M623 569h-492v62h492v-62z" />
    <glyph glyph-name="registered" unicode="&#xae;" horiz-adv-x="1220" 
d="M618 1479q213 0 352.5 -137t139.5 -357q0 -151 -68 -268t-182.5 -178.5t-255.5 -61.5q-215 0 -354 138.5t-139 357.5q0 148 67.5 264.5t183 179t256.5 62.5zM606 522q123 0 224 54.5t162 160.5t61 244q0 205 -125.5 328t-313.5 123q-124 0 -225 -53.5t-162 -158.5
t-61 -243q0 -205 125.5 -330t314.5 -125zM668 961v-11q8 -11 131 -194l55 -4l-2 -31q-23 -10 -51 -10q-36 0 -62 32q-12 16 -34 51t-51 84.5t-42 69.5h-82v-188h2l86 -10v-33h-223v33l80 14v459h-80v32q170 5 195 5q192 0 192 -154q0 -120 -114 -145zM530 985h113
q42 21 62 45t20 76q0 115 -119 115h-76v-236z" />
    <glyph glyph-name="macron" unicode="&#xaf;" horiz-adv-x="577" 
d="M66 1384h446q4 -16 4 -30q0 -15 -4 -31h-446q-5 20 -5 31q0 10 5 30z" />
    <glyph glyph-name="degree" unicode="&#xb0;" horiz-adv-x="710" 
d="M358 1501q117 0 198 -82.5t81 -197.5q0 -119 -85 -201t-202 -82t-196.5 82t-79.5 197q0 119 83.5 201.5t200.5 82.5zM354 1448q-95 0 -158 -65.5t-63 -161.5q0 -97 63 -163.5t158 -66.5q92 0 156.5 66.5t64.5 163.5q0 95 -64.5 161t-156.5 66z" />
    <glyph glyph-name="plusminus" unicode="&#xb1;" 
d="M1061 684v-59h-399v-371h-62v371h-401v59h399v371h61v-371h402zM199 59h862v-59h-862v59z" />
    <glyph glyph-name="twosuperior" unicode="&#xb2;" horiz-adv-x="555" 
d="M449 934h38q9 -34 9 -72q0 -36 -7 -76h-432l-10 41q19 16 67 56t67.5 57t59 52.5t57.5 56.5t44 54t38 59.5t21 59t9 64.5q0 78 -44.5 125t-117.5 47q-61 0 -121 -24l-18 -131h-41q-19 29 -19 57q0 63 61.5 102t141.5 39q100 0 159.5 -60.5t59.5 -154.5q0 -42 -11.5 -81.5
t-39 -79.5t-54.5 -71.5t-76 -74t-84 -70t-97 -75.5l4 -13q47 6 159 6l164 7z" />
    <glyph glyph-name="threesuperior" unicode="&#xb3;" horiz-adv-x="638" 
d="M283 1501q92 0 149 -48.5t57 -129.5q0 -123 -137 -162v-12q81 -13 119.5 -58.5t38.5 -113.5q0 -94 -66.5 -149.5t-175.5 -55.5q-89 0 -148 37.5t-59 101.5q0 27 17 58h41l18 -131q75 -23 129 -23q86 0 134.5 43t48.5 119q0 71 -46 113.5t-145 42.5h-53v41h110
q113 48 113 149q0 64 -41 99.5t-111 35.5q-62 0 -126 -24l-19 -129h-37q-18 27 -18 57q0 62 62.5 100.5t144.5 38.5z" />
    <glyph glyph-name="acute" unicode="&#xb4;" horiz-adv-x="448" 
d="M311 1571h21q29 -10 55 -47l-276 -350h-50z" />
    <glyph glyph-name="mu" unicode="&#xb5;" horiz-adv-x="1204" 
d="M1135 47v-41q-141 -18 -234 -20l-16 4l10 143h-12q-174 -160 -363 -160q-181 0 -239 138l-11 -2l13 -537q-21 -8 -66 -8l-14 12l14 698v742q15 5 55 10l17 -8v-688q0 -297 241 -297q170 0 359 155v828q13 4 53 10l16 -8v-957z" />
    <glyph glyph-name="paragraph" unicode="&#xb6;" horiz-adv-x="1103" 
d="M586 537h-60q-219 0 -337.5 103.5t-118.5 303.5q0 197 117 307.5t337 110.5h62v-825zM1038 1362v-41l-182 -21v-1071q0 -109 -28 -188t-79.5 -124t-116.5 -66t-147 -21q-190 0 -319 107l22 36q139 -88 299 -88q71 0 125 16.5t97.5 54.5t66.5 106t23 165v1135h239z" />
    <glyph glyph-name="periodcentered" unicode="&#xb7;" horiz-adv-x="405" 
d="M209 688q11 0 35 -4q18 -35 18 -76q0 -56 -24 -102h-76l-17 168q28 14 64 14z" />
    <glyph glyph-name="cedilla" unicode="&#xb8;" horiz-adv-x="495" 
d="M260 12v-166q174 -11 174 -122q0 -67 -53 -113.5t-141 -46.5q-49 0 -98.5 14.5t-80.5 40.5l15 37q80 -39 149 -39q65 0 103.5 29t38.5 75q0 23 -10 39t-34 27t-49.5 17.5t-70.5 15.5l16 192h41z" />
    <glyph glyph-name="onesuperior" unicode="&#xb9;" horiz-adv-x="495" 
d="M449 819v-33h-371v33l160 15v579q-55 -40 -158 -51l-4 39q131 20 190 100l29 -2v-674z" />
    <glyph glyph-name="ordmasculine" unicode="&#xba;" horiz-adv-x="751" 
d="M385 1163q137 0 210 -104.5t73 -259.5q0 -164 -82.5 -266.5t-216.5 -102.5q-138 0 -211.5 103.5t-73.5 257.5q0 162 82.5 267t218.5 105zM379 1114q-109 0 -170.5 -84.5t-61.5 -236.5q0 -147 58.5 -230.5t167.5 -83.5t170 83t61 235q0 149 -58.5 233t-166.5 84z" />
    <glyph glyph-name="guillemotright" unicode="&#xbb;" horiz-adv-x="1015" 
d="M881 571v-22l-281 -352l-35 26l234 338l-234 336l35 29zM487 571v-22l-280 -352l-35 26l234 338l-234 336l35 29z" />
    <glyph glyph-name="onequarter" unicode="&#xbc;" horiz-adv-x="1687" 
d="M1350 1366l4 -14q-72 -106 -223.5 -323.5t-231.5 -334.5q-76 -113 -235.5 -353t-243.5 -364l-45 19l-4 14q369 531 483 701q85 123 237 352t214 321zM535 573v-36h-447v36l193 15h2v696q-79 -51 -191 -61l-4 43q147 19 231 118l29 -2v-802zM1630 172h-160v-172h-61v172
h-367l-10 31q168 311 285 641l59 -15l4 -12q-130 -326 -295 -596l5 -8q118 8 178 8h141v225l47 19l14 -2v-242h160v-49z" />
    <glyph glyph-name="onehalf" unicode="&#xbd;" horiz-adv-x="1765" 
d="M1350 1366l4 -14q-72 -106 -223.5 -323.5t-231.5 -334.5q-76 -113 -235.5 -353t-243.5 -364l-45 19l-4 14q369 531 483 701q85 123 237 352t214 321zM535 573v-36h-447v36l193 15h2v696q-79 -51 -191 -61l-4 43q147 19 231 118l29 -2v-802zM1645 166h45q6 -35 6 -78
q0 -47 -8 -88h-523l-10 43q30 26 87.5 73t91.5 76t82 73t76.5 80t57 80t41.5 89.5t13 93.5q0 92 -50 143.5t-141 51.5q-78 0 -153 -35l-21 -152h-45q-20 26 -20 66q0 74 74.5 122t172.5 48q115 0 182.5 -68t67.5 -172q0 -59 -24 -118.5t-62 -112t-100.5 -113t-122.5 -109.5
t-145 -112l4 -10q52 7 198 10l211 6z" />
    <glyph glyph-name="threequarters" unicode="&#xbe;" horiz-adv-x="1742" 
d="M1405 1366l4 -14q-72 -106 -223.5 -323.5t-231.5 -334.5q-76 -113 -235.5 -353t-243.5 -364l-45 19l-4 14q369 531 483 701q85 123 237 352t214 321zM422 979v-12q90 -16 140 -67.5t50 -139.5q0 -115 -82 -181.5t-213 -66.5q-110 0 -178.5 46t-68.5 122q0 39 20 65h45
l21 -149q72 -35 153 -35q37 0 70 5.5t64 20t53 36t35.5 55.5t13.5 78q0 192 -246 192h-57v47h135q29 13 48.5 24.5t43.5 32.5t36.5 52.5t12.5 71.5q0 82 -49.5 122.5t-140.5 40.5q-85 0 -162 -36l-19 -148h-45q-20 30 -20 66q0 73 76 120.5t180 47.5q114 0 182 -57.5
t68 -151.5q0 -83 -49 -131t-117 -70zM1686 172h-160v-172h-62v172h-366l-11 31q168 311 285 641l60 -15l4 -12q-130 -326 -295 -596l4 -8q118 8 178 8h141v225l47 19l15 -2v-242h160v-49z" />
    <glyph glyph-name="questiondown" unicode="&#xbf;" horiz-adv-x="669" 
d="M406 862l-11 164q28 8 56 8q18 0 36 -6q17 -34 17 -63q0 -63 -29 -111zM158 45q0 -127 107 -222.5t294 -113.5l-6 -61q-10 -2 -29 -2q-105 0 -201 52.5t-156.5 145.5t-60.5 201q0 24 2.5 44.5t10.5 40.5t14.5 35.5t23.5 35t28 32t37.5 33t42.5 32t52.5 35.5t57.5 37
t67 42l-20 219l45 4q43 -131 43 -203q0 -31 -16 -53.5t-68 -54.5l-93 -60t-68 -47t-52.5 -43t-30.5 -38.5t-19.5 -43t-4.5 -47.5z" />
    <glyph glyph-name="Agrave" unicode="&#xc0;" horiz-adv-x="1421" 
d="M1391 43v-43h-463v43l202 20q-58 187 -122 383h-611q-88 -269 -127 -395l217 -8v-43h-456v43l180 20q228 714 448 1303l72 23h19q227 -608 462 -1338zM416 500h573q-174 518 -280 809h-13q-106 -291 -280 -809zM745 1481h-49l-180 286q24 30 53 45h23z" />
    <glyph glyph-name="Aacute" unicode="&#xc1;" horiz-adv-x="1421" 
d="M1391 43v-43h-463v43l202 20q-58 187 -122 383h-611q-88 -269 -127 -395l217 -8v-43h-456v43l180 20q228 714 448 1303l72 23h19q227 -608 462 -1338zM416 500h573q-174 518 -280 809h-13q-106 -291 -280 -809zM872 1829h23q30 -12 53 -45l-227 -303h-51z" />
    <glyph glyph-name="Acircumflex" unicode="&#xc2;" horiz-adv-x="1421" 
d="M1391 43v-43h-463v43l202 20q-58 187 -122 383h-611q-88 -269 -127 -395l217 -8v-43h-456v43l180 20q228 714 448 1303l72 23h19q227 -608 462 -1338zM416 500h573q-174 518 -280 809h-13q-106 -291 -280 -809zM985 1503l-49 -33l-223 259h-13l-217 -248h-51l252 321h66z
" />
    <glyph glyph-name="Atilde" unicode="&#xc3;" horiz-adv-x="1421" 
d="M1391 43v-43h-463v43l202 20q-58 187 -122 383h-611q-88 -269 -127 -395l217 -8v-43h-456v43l180 20q228 714 448 1303l72 23h19q227 -608 462 -1338zM416 500h573q-174 518 -280 809h-13q-106 -291 -280 -809zM969 1702l28 -23q-5 -9 -17.5 -32t-18.5 -33t-18 -28
t-20.5 -26.5t-21 -19t-26.5 -14.5t-29 -4q-32 0 -78 26l-207 125l-112 -127l-27 23q47 89 69 115q37 41 80 42q32 0 80 -26l207 -127z" />
    <glyph glyph-name="Adieresis" unicode="&#xc4;" horiz-adv-x="1421" 
d="M1391 43v-43h-463v43l202 20q-58 187 -122 383h-611q-88 -269 -127 -395l217 -8v-43h-456v43l180 20q228 714 448 1303l72 23h19q227 -608 462 -1338zM416 500h573q-174 518 -280 809h-13q-106 -291 -280 -809zM946 1724q11 0 35 -4q16 -32 16 -67q0 -47 -26 -84h-66
l-12 145q35 10 53 10zM473 1724q15 0 35 -4q16 -27 16 -67q0 -44 -24 -84h-68l-14 145q35 10 55 10z" />
    <glyph glyph-name="Aring" unicode="&#xc5;" horiz-adv-x="1421" 
d="M1391 43v-43h-463v43l202 20q-58 187 -122 383h-611q-88 -269 -127 -395l217 -8v-43h-456v43l180 20q228 714 448 1303l72 23h19q227 -608 462 -1338zM416 500h573q-174 518 -280 809h-13q-106 -291 -280 -809zM717 1839q84 0 136 -46.5t52 -129.5q0 -90 -59.5 -137
t-147.5 -47q-85 0 -137.5 44.5t-52.5 127.5q0 90 60.5 139t148.5 49zM709 1792q-65 0 -102.5 -36.5t-37.5 -98.5q0 -60 37 -95.5t101 -35.5q67 0 103 37t36 98q0 60 -35.5 95.5t-101.5 35.5z" />
    <glyph glyph-name="AE" unicode="&#xc6;" horiz-adv-x="1947" 
d="M1739 305l49 -2q6 -71 6 -127q0 -96 -14 -176h-949v43l205 20v367h-540q-151 -263 -215 -379l213 -8v-43h-455v43l178 20q329 579 744 1250l-199 6v43h1022q4 -47 4 -127q0 -92 -10 -174h-47l-19 248l-602 2v-621h383l14 160h47v-377h-47l-14 164h-383v-588l602 10z
M1036 483v828h-16q-259 -420 -494 -828h510z" />
    <glyph glyph-name="Ccedilla" unicode="&#xc7;" horiz-adv-x="1239" 
d="M1087 168l23 -37q-149 -149 -371 -158v-127q174 -11 174 -122q0 -67 -53 -113.5t-141 -46.5q-49 0 -98 14.5t-80 40.5l14 37q80 -39 150 -39q65 0 103 29t38 75q0 23 -10 39t-34 27t-49.5 17.5t-70.5 15.5h-2l12 155q-141 3 -251 59t-177.5 151.5t-102 218.5t-34.5 266
q0 152 40 282.5t115 228t192.5 153t264.5 55.5q180 0 344 -76q7 -82 7 -123q0 -71 -13 -199h-47l-24 287q-132 53 -269 53q-111 0 -205.5 -39.5t-167.5 -117.5t-115 -205.5t-42 -290.5q0 -309 140 -475t374 -166q196 0 366 131z" />
    <glyph glyph-name="Egrave" unicode="&#xc8;" horiz-adv-x="1232" 
d="M1024 305l49 -2q6 -71 6 -127q0 -99 -14 -176h-952v43l204 20v1248l-204 8v43h954h2q6 -70 6 -127q0 -92 -10 -174h-49l-21 244l-604 8v-623h385l17 160h45v-377h-45l-17 164h-385v-588l604 8zM668 1481h-50l-180 286q23 29 54 45h22z" />
    <glyph glyph-name="Eacute" unicode="&#xc9;" horiz-adv-x="1232" 
d="M1024 305l49 -2q6 -71 6 -127q0 -99 -14 -176h-952v43l204 20v1248l-204 8v43h954h2q6 -70 6 -127q0 -92 -10 -174h-49l-21 244l-604 8v-623h385l17 160h45v-377h-45l-17 164h-385v-588l604 8zM795 1829h22q30 -12 53 -45l-227 -303h-51z" />
    <glyph glyph-name="Ecircumflex" unicode="&#xca;" horiz-adv-x="1232" 
d="M1024 305l49 -2q6 -71 6 -127q0 -99 -14 -176h-952v43l204 20v1248l-204 8v43h954h2q6 -70 6 -127q0 -92 -10 -174h-49l-21 244l-604 8v-623h385l17 160h45v-377h-45l-17 164h-385v-588l604 8zM907 1503l-49 -33l-223 259h-12l-217 -248h-52l252 321h66z" />
    <glyph glyph-name="Edieresis" unicode="&#xcb;" horiz-adv-x="1232" 
d="M1024 305l49 -2q6 -71 6 -127q0 -99 -14 -176h-952v43l204 20v1248l-204 8v43h954h2q6 -70 6 -127q0 -92 -10 -174h-49l-21 244l-604 8v-623h385l17 160h45v-377h-45l-17 164h-385v-588l604 8zM868 1724q11 0 35 -4q17 -34 17 -67q0 -45 -27 -84h-66l-12 145q35 10 53 10
zM395 1724q15 0 35 -4q16 -27 16 -67q0 -44 -24 -84h-68l-14 145q35 10 55 10z" />
    <glyph glyph-name="Igrave" unicode="&#xcc;" horiz-adv-x="708" 
d="M391 1298v-1247l205 -8v-43h-483v43l204 20v1248l-204 8v43h483v-43zM391 1481h-49l-180 286q24 30 53 45h23z" />
    <glyph glyph-name="Iacute" unicode="&#xcd;" horiz-adv-x="708" 
d="M391 1298v-1247l205 -8v-43h-483v43l204 20v1248l-204 8v43h483v-43zM518 1829h23q30 -12 53 -45l-227 -303h-52z" />
    <glyph glyph-name="Icircumflex" unicode="&#xce;" horiz-adv-x="708" 
d="M391 1298v-1247l205 -8v-43h-483v43l204 20v1248l-204 8v43h483v-43zM631 1503l-49 -33l-224 259h-12l-217 -248h-51l252 321h65z" />
    <glyph glyph-name="Idieresis" unicode="&#xcf;" horiz-adv-x="708" 
d="M391 1298v-1247l205 -8v-43h-483v43l204 20v1248l-204 8v43h483v-43zM592 1724q11 0 35 -4q16 -32 16 -67q0 -45 -27 -84h-65l-12 145q35 10 53 10zM119 1724q15 0 35 -4q16 -27 16 -67q0 -42 -25 -84h-67l-15 145q35 10 56 10z" />
    <glyph glyph-name="Eth" unicode="&#xd0;" horiz-adv-x="1402" 
d="M127 1319l2 43q237 6 487 6q137 0 248 -34.5t187 -96t127 -148t74.5 -187.5t23.5 -218q0 -149 -39 -271t-118.5 -215.5t-212.5 -145.5t-310 -52h-469v43l205 20v615h-205v53h205v580zM406 55h192q285 0 441.5 155t156.5 474q0 307 -150 468t-423 161h-217v-582h339v-53
h-339v-623z" />
    <glyph glyph-name="Ntilde" unicode="&#xd1;" horiz-adv-x="1550" 
d="M1460 1362v-43l-205 -21v-1298l-59 -20l-27 -3l-645 1086q-97 162 -137 240h-12l2 -1252l227 -8v-43h-491v45l204 18v1248l-204 8v43h319l602 -1014q120 -202 152 -262h12l-2 1225l-211 8v43h475zM1042 1702l29 -23q-5 -9 -17.5 -32t-18.5 -33t-18 -28t-20.5 -26.5
t-21 -19t-26.5 -14.5t-29 -4q-32 0 -78 26l-207 125l-113 -127l-26 23q47 89 69 115q37 41 80 42q32 0 80 -26l207 -127z" />
    <glyph glyph-name="Ograve" unicode="&#xd2;" horiz-adv-x="1402" 
d="M717 1389q112 0 204.5 -35.5t157.5 -98.5t110 -150t66 -189.5t21 -217.5q0 -209 -69 -372t-204.5 -258t-318.5 -95q-137 0 -244.5 54t-175 149.5t-102.5 220t-35 271.5q0 210 68 372t203 255.5t319 93.5zM713 1331q-80 0 -152.5 -23t-137.5 -74.5t-112.5 -127
t-75.5 -186.5t-28 -246q0 -159 37.5 -283t103 -202t152.5 -118t190 -40q102 0 191 39.5t160.5 117t113 207.5t41.5 297q0 157 -37 280.5t-102.5 201t-153 117.5t-190.5 40zM737 1481h-49l-180 286q24 30 53 45h23z" />
    <glyph glyph-name="Oacute" unicode="&#xd3;" horiz-adv-x="1402" 
d="M717 1389q112 0 204.5 -35.5t157.5 -98.5t110 -150t66 -189.5t21 -217.5q0 -209 -69 -372t-204.5 -258t-318.5 -95q-137 0 -244.5 54t-175 149.5t-102.5 220t-35 271.5q0 210 68 372t203 255.5t319 93.5zM713 1331q-80 0 -152.5 -23t-137.5 -74.5t-112.5 -127
t-75.5 -186.5t-28 -246q0 -159 37.5 -283t103 -202t152.5 -118t190 -40q102 0 191 39.5t160.5 117t113 207.5t41.5 297q0 157 -37 280.5t-102.5 201t-153 117.5t-190.5 40zM864 1829h23q30 -12 53 -45l-227 -303h-51z" />
    <glyph glyph-name="Ocircumflex" unicode="&#xd4;" horiz-adv-x="1402" 
d="M717 1389q112 0 204.5 -35.5t157.5 -98.5t110 -150t66 -189.5t21 -217.5q0 -209 -69 -372t-204.5 -258t-318.5 -95q-137 0 -244.5 54t-175 149.5t-102.5 220t-35 271.5q0 210 68 372t203 255.5t319 93.5zM713 1331q-80 0 -152.5 -23t-137.5 -74.5t-112.5 -127
t-75.5 -186.5t-28 -246q0 -159 37.5 -283t103 -202t152.5 -118t190 -40q102 0 191 39.5t160.5 117t113 207.5t41.5 297q0 157 -37 280.5t-102.5 201t-153 117.5t-190.5 40zM977 1503l-49 -33l-223 259h-13l-217 -248h-51l252 321h65z" />
    <glyph glyph-name="Otilde" unicode="&#xd5;" horiz-adv-x="1402" 
d="M717 1389q112 0 204.5 -35.5t157.5 -98.5t110 -150t66 -189.5t21 -217.5q0 -209 -69 -372t-204.5 -258t-318.5 -95q-137 0 -244.5 54t-175 149.5t-102.5 220t-35 271.5q0 210 68 372t203 255.5t319 93.5zM713 1331q-80 0 -152.5 -23t-137.5 -74.5t-112.5 -127
t-75.5 -186.5t-28 -246q0 -159 37.5 -283t103 -202t152.5 -118t190 -40q102 0 191 39.5t160.5 117t113 207.5t41.5 297q0 157 -37 280.5t-102.5 201t-153 117.5t-190.5 40zM961 1702l28 -23q-5 -9 -17.5 -32t-18.5 -33t-18 -28t-20.5 -26.5t-21 -19t-26.5 -14.5t-29 -4
q-32 0 -78 26l-207 125l-113 -127l-26 23q47 89 69 115q37 41 80 42q32 0 80 -26l207 -127z" />
    <glyph glyph-name="Odieresis" unicode="&#xd6;" horiz-adv-x="1402" 
d="M717 1389q112 0 204.5 -35.5t157.5 -98.5t110 -150t66 -189.5t21 -217.5q0 -209 -69 -372t-204.5 -258t-318.5 -95q-137 0 -244.5 54t-175 149.5t-102.5 220t-35 271.5q0 210 68 372t203 255.5t319 93.5zM713 1331q-80 0 -152.5 -23t-137.5 -74.5t-112.5 -127
t-75.5 -186.5t-28 -246q0 -159 37.5 -283t103 -202t152.5 -118t190 -40q102 0 191 39.5t160.5 117t113 207.5t41.5 297q0 157 -37 280.5t-102.5 201t-153 117.5t-190.5 40zM938 1724q11 0 35 -4q16 -32 16 -67q0 -47 -26 -84h-66l-12 145q35 10 53 10zM465 1724q15 0 35 -4
q16 -27 16 -67q0 -44 -24 -84h-68l-14 145q35 10 55 10z" />
    <glyph glyph-name="multiply" unicode="&#xd7;" 
d="M1028 958l-356 -356l358 -358l-43 -43l-358 356l-357 -356l-41 43l357 356l-359 358l43 41l357 -356l356 356z" />
    <glyph glyph-name="Oslash" unicode="&#xd8;" horiz-adv-x="1402" 
d="M1262 1479l-162 -246q87 -93 131.5 -231.5t44.5 -303.5q0 -209 -69 -372t-204.5 -258t-318.5 -95q-201 0 -340 117l-154 -237l-38 16l-7 14l160 246q-88 94 -133 233.5t-45 305.5q0 210 68 372t203 255.5t319 93.5q205 0 344 -117l156 237l38 -16zM715 1331
q-81 0 -154 -23t-138.5 -74.5t-113 -126.5t-75 -186.5t-27.5 -248.5q0 -317 139 -488l674 1033q-120 114 -305 114zM688 31q103 0 192 39t161 117t113.5 209t41.5 300q0 314 -137 480l-674 -1033q121 -112 303 -112z" />
    <glyph glyph-name="Ugrave" unicode="&#xd9;" horiz-adv-x="1468" 
d="M1403 1362v-43l-205 -21v-841q0 -229 -116.5 -356.5t-340.5 -127.5q-227 0 -349 130.5t-122 367.5v840l-204 8v43h501v-43l-223 -21v-839q0 -217 111 -322.5t295 -105.5q182 0 285.5 104.5t103.5 323.5v852l-228 8v43h492zM778 1481h-49l-180 286q24 30 53 45h23z" />
    <glyph glyph-name="Uacute" unicode="&#xda;" horiz-adv-x="1468" 
d="M1403 1362v-43l-205 -21v-841q0 -229 -116.5 -356.5t-340.5 -127.5q-227 0 -349 130.5t-122 367.5v840l-204 8v43h501v-43l-223 -21v-839q0 -217 111 -322.5t295 -105.5q182 0 285.5 104.5t103.5 323.5v852l-228 8v43h492zM905 1829h23q30 -12 53 -45l-227 -303h-52z" />
    <glyph glyph-name="Ucircumflex" unicode="&#xdb;" horiz-adv-x="1468" 
d="M1403 1362v-43l-205 -21v-841q0 -229 -116.5 -356.5t-340.5 -127.5q-227 0 -349 130.5t-122 367.5v840l-204 8v43h501v-43l-223 -21v-839q0 -217 111 -322.5t295 -105.5q182 0 285.5 104.5t103.5 323.5v852l-228 8v43h492zM1018 1503l-49 -33l-224 259h-12l-217 -248h-51
l252 321h65z" />
    <glyph glyph-name="Udieresis" unicode="&#xdc;" horiz-adv-x="1468" 
d="M1403 1362v-43l-205 -21v-841q0 -229 -116.5 -356.5t-340.5 -127.5q-227 0 -349 130.5t-122 367.5v840l-204 8v43h501v-43l-223 -21v-839q0 -217 111 -322.5t295 -105.5q182 0 285.5 104.5t103.5 323.5v852l-228 8v43h492zM979 1724q11 0 35 -4q16 -32 16 -67
q0 -47 -26 -84h-66l-12 145q35 10 53 10zM506 1724q15 0 35 -4q16 -27 16 -67q0 -42 -25 -84h-67l-14 145q35 10 55 10z" />
    <glyph glyph-name="Yacute" unicode="&#xdd;" horiz-adv-x="1331" 
d="M1278 1319l-176 -21q-168 -372 -393 -806v-441l241 -8v-43h-557v43l242 20v424q-203 386 -406 824l-176 8v43h484v-43l-220 -21q168 -371 357 -733h12q176 337 354 746l-223 8v43h461v-43zM834 1829h22q30 -12 53 -45l-227 -303h-51z" />
    <glyph glyph-name="Thorn" unicode="&#xde;" horiz-adv-x="1173" 
d="M528 360h101q177 0 269.5 90t92.5 261q0 164 -89.5 259t-272.5 95h-238v-1014l271 -8v-43h-549v43l204 20v1248l-204 8v43h268l10 -14v-226h225q228 0 341.5 -108.5t113.5 -294.5q0 -196 -115 -304t-313 -108q-53 0 -115 8v45z" />
    <glyph glyph-name="germandbls" unicode="&#xdf;" horiz-adv-x="1183" 
d="M905 573q7 -5 20 -14q48 -33 73 -53t59 -57t49.5 -81.5t15.5 -99.5q0 -132 -90.5 -213.5t-232.5 -81.5q-66 0 -121 18t-93 61.5t-38 105.5q0 60 26 90h43l29 -195q106 -26 164 -26q107 0 173.5 63t66.5 174q0 77 -42 130t-165 141q-41 29 -61 43.5t-49 40t-42 45t-23 47
t-10 57.5q0 37 15 69t32.5 50.5t53.5 50.5q74 67 96 92q72 86 72 207q0 126 -66 189t-184 63q-89 0 -156 -34.5t-105.5 -95.5t-57.5 -135t-19 -161v-1063h-248v43l176 18v900h-147l-29 26l162 33l14 2v41q0 221 118.5 350t305.5 129q147 0 228 -79.5t81 -215.5
q0 -49 -13 -94t-28 -74t-46 -63.5t-46.5 -48t-50.5 -43.5q-57 -46 -77.5 -74.5t-20.5 -65.5q0 -54 40.5 -97t147.5 -114z" />
    <glyph glyph-name="agrave" unicode="&#xe0;" horiz-adv-x="1024" 
d="M971 45v-39q-88 -20 -150 -20q-47 0 -67.5 16.5t-20.5 56.5v74h-14q-167 -160 -357 -160q-127 0 -194.5 66t-67.5 172q0 65 27 115.5t70.5 81t104.5 50t123 27t132 7.5q57 0 172 -7l2 220q1 136 -66.5 206t-195.5 70q-100 0 -207 -55l-29 -207h-49q-28 32 -28 82
q0 97 100 165t231 68q138 0 226.5 -82.5t87.5 -238.5l-6 -666zM371 31q88 0 180.5 42t175.5 117l2 256h-127q-219 0 -323.5 -56.5t-104.5 -174.5q0 -84 50.5 -134t146.5 -50zM532 1174h-49l-245 350q19 31 55 47h22z" />
    <glyph glyph-name="aacute" unicode="&#xe1;" horiz-adv-x="1024" 
d="M971 45v-39q-88 -20 -150 -20q-47 0 -67.5 16.5t-20.5 56.5v74h-14q-167 -160 -357 -160q-127 0 -194.5 66t-67.5 172q0 65 27 115.5t70.5 81t104.5 50t123 27t132 7.5q57 0 172 -7l2 220q1 136 -66.5 206t-195.5 70q-100 0 -207 -55l-29 -207h-49q-28 32 -28 82
q0 97 100 165t231 68q138 0 226.5 -82.5t87.5 -238.5l-6 -666zM371 31q88 0 180.5 42t175.5 117l2 256h-127q-219 0 -323.5 -56.5t-104.5 -174.5q0 -84 50.5 -134t146.5 -50zM698 1571h21q29 -10 55 -47l-276 -350h-49z" />
    <glyph glyph-name="acircumflex" unicode="&#xe2;" horiz-adv-x="1024" 
d="M971 45v-39q-88 -20 -150 -20q-47 0 -67.5 16.5t-20.5 56.5v74h-14q-167 -160 -357 -160q-127 0 -194.5 66t-67.5 172q0 65 27 115.5t70.5 81t104.5 50t123 27t132 7.5q57 0 172 -7l2 220q1 136 -66.5 206t-195.5 70q-100 0 -207 -55l-29 -207h-49q-28 32 -28 82
q0 97 100 165t231 68q138 0 226.5 -82.5t87.5 -238.5l-6 -666zM371 31q88 0 180.5 42t175.5 117l2 256h-127q-219 0 -323.5 -56.5t-104.5 -174.5q0 -84 50.5 -134t146.5 -50zM743 1221l-49 -31l-198 283h-13l-196 -275h-49l227 350h67z" />
    <glyph glyph-name="atilde" unicode="&#xe3;" horiz-adv-x="1024" 
d="M971 45v-39q-88 -20 -150 -20q-47 0 -67.5 16.5t-20.5 56.5v74h-14q-167 -160 -357 -160q-127 0 -194.5 66t-67.5 172q0 65 27 115.5t70.5 81t104.5 50t123 27t132 7.5q57 0 172 -7l2 220q1 136 -66.5 206t-195.5 70q-100 0 -207 -55l-29 -207h-49q-28 32 -28 82
q0 97 100 165t231 68q138 0 226.5 -82.5t87.5 -238.5l-6 -666zM371 31q88 0 180.5 42t175.5 117l2 256h-127q-219 0 -323.5 -56.5t-104.5 -174.5q0 -84 50.5 -134t146.5 -50zM731 1442l27 -23q-47 -90 -69 -116q-37 -43 -81 -43q-28 0 -71 30l-179 121l-108 -129l-27 25
q3 5 13.5 25t14 26.5t13.5 23t15.5 23.5t15 19.5t17.5 17.5t18.5 12t21.5 9.5t23 2.5q23 0 69 -28l179 -123z" />
    <glyph glyph-name="adieresis" unicode="&#xe4;" horiz-adv-x="1024" 
d="M971 45v-39q-88 -20 -150 -20q-47 0 -67.5 16.5t-20.5 56.5v74h-14q-167 -160 -357 -160q-127 0 -194.5 66t-67.5 172q0 65 27 115.5t70.5 81t104.5 50t123 27t132 7.5q57 0 172 -7l2 220q1 136 -66.5 206t-195.5 70q-100 0 -207 -55l-29 -207h-49q-28 32 -28 82
q0 97 100 165t231 68q138 0 226.5 -82.5t87.5 -238.5l-6 -666zM371 31q88 0 180.5 42t175.5 117l2 256h-127q-219 0 -323.5 -56.5t-104.5 -174.5q0 -84 50.5 -134t146.5 -50zM301 1446q23 0 33 -4q16 -27 16 -68q0 -42 -24 -82h-66l-12 144q23 10 53 10zM682 1446
q23 0 33 -4q16 -27 16 -68q0 -42 -24 -82h-66l-12 144q23 10 53 10z" />
    <glyph glyph-name="aring" unicode="&#xe5;" horiz-adv-x="1024" 
d="M971 45v-39q-88 -20 -150 -20q-47 0 -67.5 16.5t-20.5 56.5v74h-14q-167 -160 -357 -160q-127 0 -194.5 66t-67.5 172q0 65 27 115.5t70.5 81t104.5 50t123 27t132 7.5q57 0 172 -7l2 220q1 136 -66.5 206t-195.5 70q-100 0 -207 -55l-29 -207h-49q-28 32 -28 82
q0 97 100 165t231 68q138 0 226.5 -82.5t87.5 -238.5l-6 -666zM371 31q88 0 180.5 42t175.5 117l2 256h-127q-219 0 -323.5 -56.5t-104.5 -174.5q0 -84 50.5 -134t146.5 -50zM500 1577q84 0 136 -49t52 -135q0 -93 -61 -145t-146 -52q-84 0 -137 49t-53 135q0 93 61 145
t148 52zM492 1530q-65 0 -102.5 -40t-37.5 -104q0 -65 36.5 -104t100.5 -39q65 0 101.5 42t36.5 106q0 62 -35.5 100.5t-99.5 38.5z" />
    <glyph glyph-name="ae" unicode="&#xe6;" horiz-adv-x="1570" 
d="M1436 160l24 -31q-141 -156 -344 -156q-232 0 -330 207h-12q-89 -101 -196.5 -153t-215.5 -52q-129 0 -195.5 66.5t-66.5 175.5q0 67 27.5 117t77 83.5t129.5 55.5t173 33t220 16l4 166q4 146 -66 220.5t-198 74.5q-103 0 -205 -57l-29 -205h-49q-28 28 -28 82
q0 96 99 164.5t232 68.5q131 0 208.5 -72t86.5 -196h11q39 118 130.5 192t221.5 74q151 0 231 -99t80 -261q0 -79 -14 -150l-649 -37q1 -223 94.5 -338.5t245.5 -115.5q148 0 303 127zM1137 981q-139 0 -237 -120t-107 -333l587 47q4 54 4 82q0 160 -66.5 242t-180.5 82z
M373 35q97 0 198.5 51t192.5 145q-38 103 -41 246l-82 -6q-248 -17 -357.5 -76.5t-109.5 -179.5q0 -83 50.5 -131.5t148.5 -48.5z" />
    <glyph glyph-name="ccedilla" unicode="&#xe7;" horiz-adv-x="956" 
d="M836 160l22 -31q-133 -145 -319 -154v-129q174 -11 174 -122q0 -67 -53.5 -113.5t-141.5 -46.5q-49 0 -98 14.5t-80 40.5l14 37q80 -39 150 -39q65 0 103 29t38 75q0 23 -10 39t-34 27t-49.5 17.5t-70.5 15.5h-2l13 153q-97 4 -171.5 47t-120 114t-68.5 160t-23 191
q0 249 121 399t321 150q75 0 136.5 -21t102.5 -71.5t41 -122.5q0 -51 -26 -90h-51l-31 217q-90 35 -172 35q-161 0 -265 -127t-104 -360q0 -219 95 -340t251 -121q146 0 308 127z" />
    <glyph glyph-name="egrave" unicode="&#xe8;" horiz-adv-x="980" 
d="M846 160l24 -31q-144 -156 -346 -156q-106 0 -187 41.5t-130 113.5t-73.5 162.5t-24.5 196.5q0 247 120.5 397t317.5 150q157 0 238 -98t81 -262q0 -79 -14 -150h-670v-26q0 -221 96.5 -343t258.5 -122q87 0 160.5 34t148.5 93zM539 981q-142 0 -240 -109t-115 -305
l607 11q2 29 2 81q0 160 -67 241t-187 81zM571 1174h-49l-246 350q19 31 56 47h22z" />
    <glyph glyph-name="eacute" unicode="&#xe9;" horiz-adv-x="980" 
d="M846 160l24 -31q-144 -156 -346 -156q-106 0 -187 41.5t-130 113.5t-73.5 162.5t-24.5 196.5q0 247 120.5 397t317.5 150q157 0 238 -98t81 -262q0 -79 -14 -150h-670v-26q0 -221 96.5 -343t258.5 -122q87 0 160.5 34t148.5 93zM539 981q-142 0 -240 -109t-115 -305
l607 11q2 29 2 81q0 160 -67 241t-187 81zM737 1571h21q29 -10 55 -47l-276 -350h-50z" />
    <glyph glyph-name="ecircumflex" unicode="&#xea;" horiz-adv-x="980" 
d="M846 160l24 -31q-144 -156 -346 -156q-106 0 -187 41.5t-130 113.5t-73.5 162.5t-24.5 196.5q0 247 120.5 397t317.5 150q157 0 238 -98t81 -262q0 -79 -14 -150h-670v-26q0 -221 96.5 -343t258.5 -122q87 0 160.5 34t148.5 93zM539 981q-142 0 -240 -109t-115 -305
l607 11q2 29 2 81q0 160 -67 241t-187 81zM782 1221l-49 -31l-198 283h-13l-196 -275h-50l228 350h67z" />
    <glyph glyph-name="edieresis" unicode="&#xeb;" horiz-adv-x="980" 
d="M846 160l24 -31q-144 -156 -346 -156q-106 0 -187 41.5t-130 113.5t-73.5 162.5t-24.5 196.5q0 247 120.5 397t317.5 150q157 0 238 -98t81 -262q0 -79 -14 -150h-670v-26q0 -221 96.5 -343t258.5 -122q87 0 160.5 34t148.5 93zM539 981q-142 0 -240 -109t-115 -305
l607 11q2 29 2 81q0 160 -67 241t-187 81zM340 1446q23 0 33 -4q16 -27 16 -68q0 -42 -24 -82h-66l-12 144q23 10 53 10zM721 1446q23 0 33 -4q16 -27 16 -68q0 -40 -25 -82h-65l-12 144q23 10 53 10z" />
    <glyph glyph-name="igrave" unicode="&#xec;" horiz-adv-x="581" 
d="M532 43v-43h-442v43l176 18v887l-176 13v43q154 16 232 20l16 -8v-967zM336 1174h-49l-240 350q19 31 55 47h23z" />
    <glyph glyph-name="iacute" unicode="&#xed;" horiz-adv-x="581" 
d="M532 43v-43h-442v43l176 18v887l-176 13v43q154 16 232 20l16 -8v-967zM479 1571h23q31 -12 55 -47l-270 -350h-49z" />
    <glyph glyph-name="icircumflex" unicode="&#xee;" horiz-adv-x="581" 
d="M532 43v-43h-442v43l176 18v887l-176 13v43q154 16 232 20l16 -8v-967zM489 1225l-49 -31l-155 279h-13l-166 -271h-49l199 346h66z" />
    <glyph glyph-name="idieresis" unicode="&#xef;" horiz-adv-x="581" 
d="M532 43v-43h-442v43l176 18v887l-176 13v43q154 16 232 20l16 -8v-967zM111 1446q22 0 32 -4q17 -28 17 -68t-25 -82h-65l-13 144q23 10 54 10zM451 1446q22 0 32 -4q17 -34 17 -68q0 -43 -27 -82h-63l-13 144q23 10 54 10z" />
    <glyph glyph-name="eth" unicode="&#xf0;" horiz-adv-x="1075" 
d="M809 1507l-203 -151q183 -149 272 -359t89 -436q0 -273 -123 -431.5t-320 -158.5q-185 0 -300 139.5t-115 387.5q0 235 107 371.5t288 136.5q187 0 342 -150h12q-80 271 -303 461l-188 -141l-41 22l-4 10l188 144q-127 93 -283 155l21 37q181 -58 313 -153l203 151
l41 -22zM530 25q72 0 135 30t115 90.5t82.5 165t30.5 240.5q0 110 -27 242q-70 65 -164 110t-188 45q-157 0 -243.5 -122t-86.5 -326q0 -219 97 -347t249 -128z" />
    <glyph glyph-name="ntilde" unicode="&#xf1;" horiz-adv-x="1234" 
d="M1206 41v-41h-442v41l176 20v623q0 291 -248 291q-168 0 -356 -154v-772l196 -8v-41h-442v41l176 20v887l-176 15v41q156 16 234 20l16 -8l-10 -139h12q173 157 367 157q144 0 222.5 -85.5t78.5 -256.5v-643zM864 1442l27 -23q-47 -90 -69 -116q-37 -43 -81 -43
q-28 0 -71 30l-178 121l-109 -129l-27 25q3 5 13.5 25t14 26.5t13.5 23t15.5 23.5t15 19.5t17.5 17.5t18.5 12t21.5 9.5t23 2.5q24 0 70 -28l178 -123z" />
    <glyph glyph-name="ograve" unicode="&#xf2;" horiz-adv-x="1077" 
d="M551 1034q103 0 184.5 -42.5t131.5 -115.5t76 -165.5t26 -198.5q0 -153 -51 -274t-152.5 -193t-239.5 -72q-104 0 -185 41.5t-131 114t-75.5 165t-25.5 200.5q0 153 51 274.5t152.5 193.5t238.5 72zM547 981q-73 0 -136.5 -28t-115 -83.5t-81.5 -150.5t-30 -219
q0 -123 29 -216.5t79.5 -148t111.5 -81.5t131 -27q71 0 134 28t114 83.5t80.5 150.5t29.5 219q0 228 -94.5 350.5t-251.5 122.5zM584 1174h-49l-246 350q19 31 55 47h23z" />
    <glyph glyph-name="oacute" unicode="&#xf3;" horiz-adv-x="1077" 
d="M551 1034q103 0 184.5 -42.5t131.5 -115.5t76 -165.5t26 -198.5q0 -153 -51 -274t-152.5 -193t-239.5 -72q-104 0 -185 41.5t-131 114t-75.5 165t-25.5 200.5q0 153 51 274.5t152.5 193.5t238.5 72zM547 981q-73 0 -136.5 -28t-115 -83.5t-81.5 -150.5t-30 -219
q0 -123 29 -216.5t79.5 -148t111.5 -81.5t131 -27q71 0 134 28t114 83.5t80.5 150.5t29.5 219q0 228 -94.5 350.5t-251.5 122.5zM750 1571h20q29 -10 55 -47l-276 -350h-49z" />
    <glyph glyph-name="ocircumflex" unicode="&#xf4;" horiz-adv-x="1077" 
d="M551 1034q103 0 184.5 -42.5t131.5 -115.5t76 -165.5t26 -198.5q0 -153 -51 -274t-152.5 -193t-239.5 -72q-104 0 -185 41.5t-131 114t-75.5 165t-25.5 200.5q0 153 51 274.5t152.5 193.5t238.5 72zM547 981q-73 0 -136.5 -28t-115 -83.5t-81.5 -150.5t-30 -219
q0 -123 29 -216.5t79.5 -148t111.5 -81.5t131 -27q71 0 134 28t114 83.5t80.5 150.5t29.5 219q0 228 -94.5 350.5t-251.5 122.5zM795 1221l-50 -31l-198 283h-12l-197 -275h-49l227 350h68z" />
    <glyph glyph-name="otilde" unicode="&#xf5;" horiz-adv-x="1077" 
d="M551 1034q103 0 184.5 -42.5t131.5 -115.5t76 -165.5t26 -198.5q0 -153 -51 -274t-152.5 -193t-239.5 -72q-104 0 -185 41.5t-131 114t-75.5 165t-25.5 200.5q0 153 51 274.5t152.5 193.5t238.5 72zM547 981q-73 0 -136.5 -28t-115 -83.5t-81.5 -150.5t-30 -219
q0 -123 29 -216.5t79.5 -148t111.5 -81.5t131 -27q71 0 134 28t114 83.5t80.5 150.5t29.5 219q0 228 -94.5 350.5t-251.5 122.5zM782 1442l27 -23q-47 -90 -69 -116q-37 -43 -81 -43q-28 0 -71 30l-178 121l-109 -129l-27 25q3 5 13.5 25t14 26.5t13.5 23t15.5 23.5t15 19.5
t17.5 17.5t18.5 12t21.5 9.5t23 2.5q24 0 70 -28l178 -123z" />
    <glyph glyph-name="odieresis" unicode="&#xf6;" horiz-adv-x="1077" 
d="M551 1034q103 0 184.5 -42.5t131.5 -115.5t76 -165.5t26 -198.5q0 -153 -51 -274t-152.5 -193t-239.5 -72q-104 0 -185 41.5t-131 114t-75.5 165t-25.5 200.5q0 153 51 274.5t152.5 193.5t238.5 72zM547 981q-73 0 -136.5 -28t-115 -83.5t-81.5 -150.5t-30 -219
q0 -123 29 -216.5t79.5 -148t111.5 -81.5t131 -27q71 0 134 28t114 83.5t80.5 150.5t29.5 219q0 228 -94.5 350.5t-251.5 122.5zM352 1446q23 0 33 -4q16 -27 16 -68q0 -42 -24 -82h-66l-12 144q23 10 53 10zM733 1446q23 0 33 -4q16 -27 16 -68q0 -42 -24 -82h-66l-12 144
q23 10 53 10z" />
    <glyph glyph-name="divide" unicode="&#xf7;" 
d="M633 1059q11 0 35 -4q18 -35 18 -76q0 -46 -24 -86h-76l-17 151q30 15 64 15zM1106 571h-952v60h952v-60zM633 299q11 0 35 -4q18 -35 18 -76q0 -46 -24 -86h-76l-17 152q28 14 64 14z" />
    <glyph glyph-name="oslash" unicode="&#xf8;" horiz-adv-x="1077" 
d="M920 1149l-115 -205q81 -70 122.5 -183.5t41.5 -248.5q0 -233 -120.5 -386t-322.5 -153q-125 0 -223 66l-98 -182l-41 12l-8 14l104 191q-75 70 -113 179.5t-38 240.5q0 233 120 386.5t322 153.5q125 0 211 -59l110 203l39 -15zM184 496q0 -241 113 -367l434 797
q-79 55 -182 55q-72 0 -136 -28t-116 -84t-82.5 -152t-30.5 -221zM532 27q71 0 133.5 27.5t114.5 83.5t82.5 151.5t30.5 220.5q0 257 -121 381l-436 -799q85 -65 196 -65z" />
    <glyph glyph-name="ugrave" unicode="&#xf9;" horiz-adv-x="1214" 
d="M1145 47v-41q-141 -18 -234 -20l-16 4l10 143h-12q-174 -160 -365 -160q-144 0 -222.5 85.5t-78.5 256.5v633l-176 13v43q166 17 232 20l16 -8v-686q0 -297 242 -297q169 0 358 155v760h-2l-176 13v43q164 16 231 20l17 -8v-955zM606 1174h-49l-246 350q19 31 56 47h22z
" />
    <glyph glyph-name="uacute" unicode="&#xfa;" horiz-adv-x="1214" 
d="M1145 47v-41q-141 -18 -234 -20l-16 4l10 143h-12q-174 -160 -365 -160q-144 0 -222.5 85.5t-78.5 256.5v633l-176 13v43q166 17 232 20l16 -8v-686q0 -297 242 -297q169 0 358 155v760h-2l-176 13v43q164 16 231 20l17 -8v-955zM772 1571h21q29 -10 55 -47l-277 -350
h-49z" />
    <glyph glyph-name="ucircumflex" unicode="&#xfb;" horiz-adv-x="1214" 
d="M1145 47v-41q-141 -18 -234 -20l-16 4l10 143h-12q-174 -160 -365 -160q-144 0 -222.5 85.5t-78.5 256.5v633l-176 13v43q166 17 232 20l16 -8v-686q0 -297 242 -297q169 0 358 155v760h-2l-176 13v43q164 16 231 20l17 -8v-955zM817 1221l-49 -31l-199 283h-12
l-197 -275h-49l228 350h67z" />
    <glyph glyph-name="udieresis" unicode="&#xfc;" horiz-adv-x="1214" 
d="M1145 47v-41q-141 -18 -234 -20l-16 4l10 143h-12q-174 -160 -365 -160q-144 0 -222.5 85.5t-78.5 256.5v633l-176 13v43q166 17 232 20l16 -8v-686q0 -297 242 -297q169 0 358 155v760h-2l-176 13v43q164 16 231 20l17 -8v-955zM375 1446q23 0 33 -4q16 -27 16 -68
q0 -40 -25 -82h-65l-12 144q23 10 53 10zM756 1446q22 0 32 -4q17 -28 17 -68t-25 -82h-65l-13 144q23 10 54 10z" />
    <glyph glyph-name="yacute" unicode="&#xfd;" horiz-adv-x="1171" 
d="M1143 965l-154 -19q-70 -209 -187.5 -524t-191.5 -494q-24 -57 -47.5 -103.5t-56.5 -97.5t-67 -85t-78 -56t-91 -22q-60 0 -98 30l6 48h187q117 111 194 317q-229 572 -371 999l-159 7v43h411v-43l-170 -19q136 -415 324 -889h12q168 422 326 901l-191 7v43h402v-43z
M799 1571h20q29 -10 55 -47l-276 -350h-49z" />
    <glyph glyph-name="thorn" unicode="&#xfe;" horiz-adv-x="1153" 
d="M655 1034q177 0 275 -129t98 -360q0 -118 -27 -219t-81.5 -181t-145.5 -126t-209 -46q-140 0 -276 72v-405l215 -7v-43h-463v43l176 19v1818l-176 13v39q137 18 231 20l17 -8v-512q0 -63 -8 -145h12q174 157 362 157zM567 27q177 0 282 129.5t105 378.5q0 225 -86 332.5
t-227 107.5q-157 0 -352 -158v-708q133 -82 278 -82z" />
    <glyph glyph-name="ydieresis" unicode="&#xff;" horiz-adv-x="1171" 
d="M1143 965l-154 -19q-70 -209 -187.5 -524t-191.5 -494q-24 -57 -47.5 -103.5t-56.5 -97.5t-67 -85t-78 -56t-91 -22q-60 0 -98 30l6 48h187q117 111 194 317q-229 572 -371 999l-159 7v43h411v-43l-170 -19q136 -415 324 -889h12q168 422 326 901l-191 7v43h402v-43z
M401 1446q23 0 33 -4q17 -28 17 -68t-25 -82h-66l-12 144q23 10 53 10zM782 1446q23 0 33 -4q16 -27 16 -68q0 -42 -24 -82h-66l-12 144q23 10 53 10z" />
    <glyph glyph-name="Amacron" unicode="&#x100;" horiz-adv-x="1421" 
d="M1391 43v-43h-463v43l202 20q-58 187 -122 383h-611q-88 -269 -127 -395l217 -8v-43h-456v43l180 20q228 714 448 1303l72 23h19q227 -608 462 -1338zM416 500h573q-174 518 -280 809h-13q-106 -291 -280 -809zM467 1673h487q7 -14 7 -31q0 -16 -7 -30h-487q-4 16 -4 30
q0 15 4 31z" />
    <glyph glyph-name="amacron" unicode="&#x101;" horiz-adv-x="1024" 
d="M971 45v-39q-88 -20 -150 -20q-47 0 -67.5 16.5t-20.5 56.5v74h-14q-167 -160 -357 -160q-127 0 -194.5 66t-67.5 172q0 65 27 115.5t70.5 81t104.5 50t123 27t132 7.5q57 0 172 -7l2 220q1 136 -66.5 206t-195.5 70q-100 0 -207 -55l-29 -207h-49q-28 32 -28 82
q0 97 100 165t231 68q138 0 226.5 -82.5t87.5 -238.5l-6 -666zM371 31q88 0 180.5 42t175.5 117l2 256h-127q-219 0 -323.5 -56.5t-104.5 -174.5q0 -84 50.5 -134t146.5 -50zM266 1384h447q4 -16 4 -30q0 -15 -4 -31h-447q-4 16 -4 31q0 14 4 30z" />
    <glyph glyph-name="Abreve" unicode="&#x102;" horiz-adv-x="1421" 
d="M1391 43v-43h-463v43l202 20q-58 187 -122 383h-611q-88 -269 -127 -395l217 -8v-43h-456v43l180 20q228 714 448 1303l72 23h19q227 -608 462 -1338zM416 500h573q-174 518 -280 809h-13q-106 -291 -280 -809zM453 1716l59 23q41 -199 207 -199t219 199l37 -15
q-20 -117 -92.5 -180t-180.5 -63q-110 0 -171.5 63t-77.5 172z" />
    <glyph glyph-name="abreve" unicode="&#x103;" horiz-adv-x="1024" 
d="M971 45v-39q-88 -20 -150 -20q-47 0 -67.5 16.5t-20.5 56.5v74h-14q-167 -160 -357 -160q-127 0 -194.5 66t-67.5 172q0 65 27 115.5t70.5 81t104.5 50t123 27t132 7.5q57 0 172 -7l2 220q1 136 -66.5 206t-195.5 70q-100 0 -207 -55l-29 -207h-49q-28 32 -28 82
q0 97 100 165t231 68q138 0 226.5 -82.5t87.5 -238.5l-6 -666zM371 31q88 0 180.5 42t175.5 117l2 256h-127q-219 0 -323.5 -56.5t-104.5 -174.5q0 -84 50.5 -134t146.5 -50zM248 1473l59 22q31 -203 187 -203q154 0 200 203l37 -14q-18 -119 -86 -183.5t-168 -64.5
q-101 0 -159 64.5t-70 175.5z" />
    <glyph glyph-name="Aogonek" unicode="&#x104;" horiz-adv-x="1421" 
d="M1389 0h-263q-139 -139 -139 -256q0 -127 150 -127q71 0 139 37l14 -41q-67 -49 -166 -49q-102 0 -153 43.5t-51 122.5q0 84 56 167.5t157 151.5q-37 121 -127 397h-609q-88 -269 -127 -395l215 -8v-43h-454v43l180 20q228 714 448 1303l70 23h19q227 -608 462 -1338
l179 -8v-43zM414 500h573q-174 518 -280 809h-13q-147 -414 -280 -809z" />
    <glyph glyph-name="aogonek" unicode="&#x105;" horiz-adv-x="1024" 
d="M971 47v-41q-137 -13 -227.5 -94.5t-90.5 -177.5q0 -60 37 -88.5t101 -28.5q69 0 149 37l12 -41q-67 -49 -176 -49q-97 0 -143.5 44.5t-46.5 119.5q0 78 45.5 140t109.5 99l-10 166h-12q-167 -160 -357 -160q-127 0 -194.5 66t-67.5 172q0 65 27 115.5t70.5 81t104.5 50
t123 27t132 7.5q57 0 172 -7l2 220q1 136 -66.5 206t-195.5 70q-100 0 -207 -55l-29 -207h-49q-28 32 -28 82q0 97 100 165t231 68q138 0 226.5 -82.5t87.5 -238.5l-6 -664zM371 31q88 0 180.5 42t175.5 117l2 256h-127q-219 0 -323.5 -56.5t-104.5 -174.5q0 -84 50.5 -134
t146.5 -50z" />
    <glyph glyph-name="Cacute" unicode="&#x106;" horiz-adv-x="1239" 
d="M1087 168l23 -37q-158 -158 -401 -158q-116 0 -212.5 36t-164 100t-114.5 152t-69 191t-22 218q0 152 40 282.5t115 228t192.5 153t264.5 55.5q180 0 344 -76q7 -82 7 -123q0 -71 -13 -199h-47l-24 287q-132 53 -269 53q-111 0 -205.5 -39.5t-167.5 -117.5t-115 -205.5
t-42 -290.5q0 -309 140 -475t374 -166q196 0 366 131zM877 1829h22q30 -12 53 -45l-227 -303h-51z" />
    <glyph glyph-name="cacute" unicode="&#x107;" horiz-adv-x="956" 
d="M836 160l22 -31q-144 -156 -346 -156q-102 0 -181 41.5t-126.5 113t-71.5 162t-24 195.5q0 249 121 399t321 150q75 0 136.5 -21t102.5 -71.5t41 -122.5q0 -51 -26 -90h-51l-31 217q-90 35 -172 35q-161 0 -265 -127t-104 -360q0 -219 95 -340t251 -121q146 0 308 127z
M735 1571h21q29 -10 55 -47l-276 -350h-50z" />
    <glyph glyph-name="Ccircumflex" unicode="&#x108;" horiz-adv-x="1239" 
d="M1087 168l23 -37q-158 -158 -401 -158q-116 0 -212.5 36t-164 100t-114.5 152t-69 191t-22 218q0 152 40 282.5t115 228t192.5 153t264.5 55.5q180 0 344 -76q7 -82 7 -123q0 -71 -13 -199h-47l-24 287q-132 53 -269 53q-111 0 -205.5 -39.5t-167.5 -117.5t-115 -205.5
t-42 -290.5q0 -309 140 -475t374 -166q196 0 366 131zM989 1503l-49 -33l-223 259h-12l-218 -248h-51l252 321h66z" />
    <glyph glyph-name="ccircumflex" unicode="&#x109;" horiz-adv-x="956" 
d="M836 160l22 -31q-144 -156 -346 -156q-102 0 -181 41.5t-126.5 113t-71.5 162t-24 195.5q0 249 121 399t321 150q75 0 136.5 -21t102.5 -71.5t41 -122.5q0 -51 -26 -90h-51l-31 217q-90 35 -172 35q-161 0 -265 -127t-104 -360q0 -219 95 -340t251 -121q146 0 308 127z
M780 1221l-49 -31l-199 283h-12l-196 -275h-50l228 350h67z" />
    <glyph glyph-name="Cdotaccent" unicode="&#x10a;" horiz-adv-x="1239" 
d="M1087 168l23 -37q-158 -158 -401 -158q-116 0 -212.5 36t-164 100t-114.5 152t-69 191t-22 218q0 152 40 282.5t115 228t192.5 153t264.5 55.5q180 0 344 -76q7 -82 7 -123q0 -71 -13 -199h-47l-24 287q-132 53 -269 53q-111 0 -205.5 -39.5t-167.5 -117.5t-115 -205.5
t-42 -290.5q0 -309 140 -475t374 -166q196 0 366 131zM715 1722q23 0 37 -2q16 -37 16 -71q0 -49 -29 -101h-69l-13 164q23 10 58 10z" />
    <glyph glyph-name="cdotaccent" unicode="&#x10b;" horiz-adv-x="956" 
d="M836 160l22 -31q-144 -156 -346 -156q-102 0 -181 41.5t-126.5 113t-71.5 162t-24 195.5q0 249 121 399t321 150q75 0 136.5 -21t102.5 -71.5t41 -122.5q0 -51 -26 -90h-51l-31 217q-90 35 -172 35q-161 0 -265 -127t-104 -360q0 -219 95 -340t251 -121q146 0 308 127z
M532 1466q21 0 33 -4q19 -32 19 -69q0 -49 -29 -101h-70l-12 164q23 10 59 10z" />
    <glyph glyph-name="Ccaron" unicode="&#x10c;" horiz-adv-x="1239" 
d="M1087 168l23 -37q-158 -158 -401 -158q-116 0 -212.5 36t-164 100t-114.5 152t-69 191t-22 218q0 152 40 282.5t115 228t192.5 153t264.5 55.5q180 0 344 -76q7 -82 7 -123q0 -71 -13 -199h-47l-24 287q-132 53 -269 53q-111 0 -205.5 -39.5t-167.5 -117.5t-115 -205.5
t-42 -290.5q0 -309 140 -475t374 -166q196 0 366 131zM717 1556h12l219 248h51l-251 -321h-68l-234 297l50 32z" />
    <glyph glyph-name="ccaron" unicode="&#x10d;" horiz-adv-x="956" 
d="M836 160l22 -31q-144 -156 -346 -156q-102 0 -181 41.5t-126.5 113t-71.5 162t-24 195.5q0 249 121 399t321 150q75 0 136.5 -21t102.5 -71.5t41 -122.5q0 -51 -26 -90h-51l-31 217q-90 35 -172 35q-161 0 -265 -127t-104 -360q0 -219 95 -340t251 -121q146 0 308 127z
M524 1274h13l194 274h49l-227 -350h-66l-213 328l50 30z" />
    <glyph glyph-name="Dcaron" unicode="&#x10e;" horiz-adv-x="1386" 
d="M113 1319v43q237 6 487 6q137 0 248 -34.5t187 -96t127 -148t74.5 -187.5t23.5 -218q0 -149 -39 -271t-118 -215.5t-212 -145.5t-309 -52h-469v43l204 20v1248zM391 55h191q285 0 442.5 155t157.5 474q0 307 -150.5 468t-423.5 161h-217v-1258zM674 1556h12l219 248h51
l-251 -321h-68l-234 297l50 32z" />
    <glyph glyph-name="dcaron" unicode="&#x10f;" horiz-adv-x="1308" 
d="M936 1534v-1473l176 -14v-41q-141 -18 -233 -20l-17 4l10 141h-12q-175 -158 -362 -158q-177 0 -275 129.5t-98 360.5q0 117 27.5 218t82 181t145 126t208.5 46q144 0 278 -71v507l-180 11v41q136 17 234 20zM586 981q-177 0 -282 -129.5t-105 -378.5q0 -225 86 -332.5
t227 -107.5q157 0 352 157v713q-127 78 -278 78zM1229 1542q33 0 53 -14q-3 -93 -25.5 -181.5t-68.5 -201.5h-41l47 248v145q1 0 14.5 2t20.5 2z" />
    <glyph glyph-name="Dcroat" unicode="&#x110;" horiz-adv-x="1402" 
d="M127 1319l2 43q237 6 487 6q137 0 248 -34.5t187 -96t127 -148t74.5 -187.5t23.5 -218q0 -149 -39 -271t-118.5 -215.5t-212.5 -145.5t-310 -52h-469v43l205 20v615h-205v53h205v580zM406 55h192q285 0 441.5 155t156.5 474q0 307 -150 468t-423 161h-217v-582h339v-53
h-339v-623z" />
    <glyph glyph-name="dcroat" unicode="&#x111;" horiz-adv-x="1181" 
d="M936 1294v-1233l176 -14v-41q-141 -18 -233 -20l-17 4l10 141h-12q-175 -158 -362 -158q-177 0 -275 129.5t-98 360.5q0 117 27.5 218t82 181t145 126t208.5 46q141 0 278 -71v331h-329v52h329v186q12 4 54 10l16 -8v-188h215v-52h-215zM864 190v713q-124 78 -278 78
q-177 0 -282 -129.5t-105 -378.5q0 -225 86 -332.5t227 -107.5q157 0 352 157z" />
    <glyph glyph-name="Emacron" unicode="&#x112;" horiz-adv-x="1232" 
d="M1024 305l49 -2q6 -71 6 -127q0 -99 -14 -176h-952v43l204 20v1248l-204 8v43h954h2q6 -70 6 -127q0 -92 -10 -174h-49l-21 244l-604 8v-623h385l17 160h45v-377h-45l-17 164h-385v-588l604 8zM389 1673h488q6 -12 6 -31q0 -18 -6 -30h-488q-4 16 -4 30q0 15 4 31z" />
    <glyph glyph-name="emacron" unicode="&#x113;" horiz-adv-x="980" 
d="M846 160l24 -31q-144 -156 -346 -156q-106 0 -187 41.5t-130 113.5t-73.5 162.5t-24.5 196.5q0 247 120.5 397t317.5 150q157 0 238 -98t81 -262q0 -79 -14 -150h-670v-26q0 -221 96.5 -343t258.5 -122q87 0 160.5 34t148.5 93zM539 981q-142 0 -240 -109t-115 -305
l607 11q2 29 2 81q0 160 -67 241t-187 81zM305 1384h447q4 -16 4 -30q0 -15 -4 -31h-447q-4 16 -4 31q0 14 4 30z" />
    <glyph glyph-name="Ebreve" unicode="&#x114;" horiz-adv-x="1232" 
d="M1024 305l49 -2q6 -71 6 -127q0 -99 -14 -176h-952v43l204 20v1248l-204 8v43h954h2q6 -70 6 -127q0 -92 -10 -174h-49l-21 244l-604 8v-623h385l17 160h45v-377h-45l-17 164h-385v-588l604 8zM375 1716l59 23q41 -199 207 -199t219 199l37 -15q-20 -117 -92.5 -180
t-179.5 -63q-110 0 -172 63t-78 172z" />
    <glyph glyph-name="ebreve" unicode="&#x115;" horiz-adv-x="980" 
d="M846 160l24 -31q-144 -156 -346 -156q-106 0 -187 41.5t-130 113.5t-73.5 162.5t-24.5 196.5q0 247 120.5 397t317.5 150q157 0 238 -98t81 -262q0 -79 -14 -150h-670v-26q0 -221 96.5 -343t258.5 -122q87 0 160.5 34t148.5 93zM539 981q-142 0 -240 -109t-115 -305
l607 11q2 29 2 81q0 160 -67 241t-187 81zM287 1473l59 22q31 -203 186 -203t201 203l37 -14q-18 -119 -86 -183.5t-168 -64.5q-101 0 -159 64.5t-70 175.5z" />
    <glyph glyph-name="Edotaccent" unicode="&#x116;" horiz-adv-x="1232" 
d="M1024 305l49 -2q6 -71 6 -127q0 -99 -14 -176h-952v43l204 20v1248l-204 8v43h954h2q6 -70 6 -127q0 -92 -10 -174h-49l-21 244l-604 8v-623h385l17 160h45v-377h-45l-17 164h-385v-588l604 8zM633 1722q23 0 37 -2q16 -37 16 -71q0 -49 -29 -101h-69l-13 164
q23 10 58 10z" />
    <glyph glyph-name="edotaccent" unicode="&#x117;" horiz-adv-x="980" 
d="M846 160l24 -31q-144 -156 -346 -156q-106 0 -187 41.5t-130 113.5t-73.5 162.5t-24.5 196.5q0 247 120.5 397t317.5 150q157 0 238 -98t81 -262q0 -79 -14 -150h-670v-26q0 -221 96.5 -343t258.5 -122q87 0 160.5 34t148.5 93zM539 981q-142 0 -240 -109t-115 -305
l607 11q2 29 2 81q0 160 -67 241t-187 81zM535 1466q20 0 32 -4q19 -32 19 -69q0 -49 -29 -101h-70l-12 164q23 10 60 10z" />
    <glyph glyph-name="Eogonek" unicode="&#x118;" horiz-adv-x="1232" 
d="M1065 0h-150q-84 -85 -123.5 -143.5t-39.5 -120.5q0 -119 147 -119q63 0 139 37l13 -41q-57 -49 -164 -49q-101 0 -152 44t-51 118q0 129 166 262v12h-737v43l204 20v1248l-204 8v43h954h2q6 -70 6 -127q0 -92 -10 -174h-49l-21 244l-604 8v-623h385l17 160h45v-377h-45
l-17 164h-385v-588l604 8l29 248l49 -2q6 -71 6 -127q0 -99 -14 -176z" />
    <glyph glyph-name="eogonek" unicode="&#x119;" horiz-adv-x="980" 
d="M713 -383q63 0 139 37l12 -41q-57 -49 -168 -49q-101 0 -149.5 42.5t-48.5 114.5q0 138 153 263l-4 12q-67 -23 -131 -23q-102 0 -181.5 41.5t-128 114t-73 164t-24.5 196.5q0 246 120.5 395.5t317.5 149.5q157 0 238 -98t81 -262q0 -79 -14 -150h-670v-26
q0 -221 96.5 -343t258.5 -122q87 0 160.5 34t148.5 93l24 -31q-26 -26 -84 -74q-47 -41 -75.5 -68.5t-67.5 -71.5t-58.5 -88t-19.5 -87q0 -63 41 -93t107 -30zM539 981q-142 0 -240 -109t-115 -305l607 11q2 29 2 81q0 160 -67 241t-187 81z" />
    <glyph glyph-name="Ecaron" unicode="&#x11a;" horiz-adv-x="1232" 
d="M1024 305l49 -2q6 -71 6 -127q0 -99 -14 -176h-952v43l204 20v1248l-204 8v43h954h2q6 -70 6 -127q0 -92 -10 -174h-49l-21 244l-604 8v-623h385l17 160h45v-377h-45l-17 164h-385v-588l604 8zM635 1556h12l219 248h52l-252 -321h-68l-233 297l49 32z" />
    <glyph glyph-name="ecaron" unicode="&#x11b;" horiz-adv-x="980" 
d="M846 160l24 -31q-144 -156 -346 -156q-106 0 -187 41.5t-130 113.5t-73.5 162.5t-24.5 196.5q0 247 120.5 397t317.5 150q157 0 238 -98t81 -262q0 -79 -14 -150h-670v-26q0 -221 96.5 -343t258.5 -122q87 0 160.5 34t148.5 93zM539 981q-142 0 -240 -109t-115 -305
l607 11q2 29 2 81q0 160 -67 241t-187 81zM526 1274h13l194 274h49l-227 -350h-66l-213 328l50 30z" />
    <glyph glyph-name="Gcircumflex" unicode="&#x11c;" horiz-adv-x="1355" 
d="M1260 555v-43l-160 -18v-441q-167 -80 -369 -80q-151 0 -268 53t-189.5 147t-109.5 218.5t-37 272.5q0 209 69.5 371t211.5 258t340 96q186 0 346 -80q6 -71 6 -121q0 -93 -10 -178h-50l-22 264q-126 57 -275 57q-112 0 -207 -39.5t-169.5 -117.5t-117 -207t-42.5 -295
q0 -163 40.5 -287.5t113 -201t167 -114.5t207.5 -38q160 0 297 61l-10 414l-258 6v43h496zM952 1503l-49 -33l-223 259h-12l-217 -248h-52l252 321h66z" />
    <glyph glyph-name="gcircumflex" unicode="&#x11d;" horiz-adv-x="1026" 
d="M862 1047l-90 -119q86 -100 86 -240q0 -158 -106.5 -264.5t-278.5 -106.5q-57 0 -117 17v-201l187 -33q234 -44 321.5 -89.5t87.5 -141.5q0 -74 -47 -134t-124.5 -96.5t-169.5 -55.5t-189 -19q-164 0 -253 57t-89 174q0 99 61 176.5t154 116.5q0 95 16 262
q-90 42 -137 128t-47 186q0 158 107 264t278 106q143 0 233 -80q42 95 81 145t87 50q31 0 50 -16l-5 -54zM483 371q138 0 219.5 87t81.5 228q0 132 -72 213.5t-208 81.5q-140 0 -221.5 -85.5t-81.5 -223.5q0 -130 73 -215.5t209 -85.5zM512 35l-197 35q-75 -62 -118 -124
t-43 -134q0 -92 71 -143.5t215 -51.5q73 0 147.5 13t143.5 39t112.5 72.5t43.5 106.5q0 46 -32.5 77t-112 56.5t-230.5 53.5zM737 1221l-49 -31l-199 283h-12l-196 -275h-50l228 350h67z" />
    <glyph glyph-name="Gbreve" unicode="&#x11e;" horiz-adv-x="1355" 
d="M1260 555v-43l-160 -18v-441q-167 -80 -369 -80q-151 0 -268 53t-189.5 147t-109.5 218.5t-37 272.5q0 209 69.5 371t211.5 258t340 96q186 0 346 -80q6 -71 6 -121q0 -93 -10 -178h-50l-22 264q-126 57 -275 57q-112 0 -207 -39.5t-169.5 -117.5t-117 -207t-42.5 -295
q0 -163 40.5 -287.5t113 -201t167 -114.5t207.5 -38q160 0 297 61l-10 414l-258 6v43h496zM420 1716l59 23q41 -199 207 -199t219 199l37 -15q-20 -117 -92.5 -180t-179.5 -63q-110 0 -172 63t-78 172z" />
    <glyph glyph-name="gbreve" unicode="&#x11f;" horiz-adv-x="1026" 
d="M862 1047l-90 -119q86 -100 86 -240q0 -158 -106.5 -264.5t-278.5 -106.5q-57 0 -117 17v-201l187 -33q234 -44 321.5 -89.5t87.5 -141.5q0 -74 -47 -134t-124.5 -96.5t-169.5 -55.5t-189 -19q-164 0 -253 57t-89 174q0 99 61 176.5t154 116.5q0 95 16 262
q-90 42 -137 128t-47 186q0 158 107 264t278 106q143 0 233 -80q42 95 81 145t87 50q31 0 50 -16l-5 -54zM483 371q138 0 219.5 87t81.5 228q0 132 -72 213.5t-208 81.5q-140 0 -221.5 -85.5t-81.5 -223.5q0 -130 73 -215.5t209 -85.5zM512 35l-197 35q-75 -62 -118 -124
t-43 -134q0 -92 71 -143.5t215 -51.5q73 0 147.5 13t143.5 39t112.5 72.5t43.5 106.5q0 46 -32.5 77t-112 56.5t-230.5 53.5zM242 1473l59 22q31 -203 186 -203t201 203l37 -14q-18 -119 -86 -183.5t-168 -64.5q-101 0 -159 64.5t-70 175.5z" />
    <glyph glyph-name="Gdotaccent" unicode="&#x120;" horiz-adv-x="1355" 
d="M1260 555v-43l-160 -18v-441q-167 -80 -369 -80q-151 0 -268 53t-189.5 147t-109.5 218.5t-37 272.5q0 209 69.5 371t211.5 258t340 96q186 0 346 -80q6 -71 6 -121q0 -93 -10 -178h-50l-22 264q-126 57 -275 57q-112 0 -207 -39.5t-169.5 -117.5t-117 -207t-42.5 -295
q0 -163 40.5 -287.5t113 -201t167 -114.5t207.5 -38q160 0 297 61l-10 414l-258 6v43h496zM678 1722q23 0 37 -2q16 -37 16 -71q0 -49 -29 -101h-69l-12 164q23 10 57 10z" />
    <glyph glyph-name="gdotaccent" unicode="&#x121;" horiz-adv-x="1026" 
d="M862 1047l-90 -119q86 -100 86 -240q0 -158 -106.5 -264.5t-278.5 -106.5q-57 0 -117 17v-201l187 -33q234 -44 321.5 -89.5t87.5 -141.5q0 -74 -47 -134t-124.5 -96.5t-169.5 -55.5t-189 -19q-164 0 -253 57t-89 174q0 99 61 176.5t154 116.5q0 95 16 262
q-90 42 -137 128t-47 186q0 158 107 264t278 106q143 0 233 -80q42 95 81 145t87 50q31 0 50 -16l-5 -54zM483 371q138 0 219.5 87t81.5 228q0 132 -72 213.5t-208 81.5q-140 0 -221.5 -85.5t-81.5 -223.5q0 -130 73 -215.5t209 -85.5zM512 35l-197 35q-75 -62 -118 -124
t-43 -134q0 -92 71 -143.5t215 -51.5q73 0 147.5 13t143.5 39t112.5 72.5t43.5 106.5q0 46 -32.5 77t-112 56.5t-230.5 53.5zM489 1466q21 0 33 -4q19 -32 19 -69q0 -49 -29 -101h-70l-12 164q23 10 59 10z" />
    <glyph glyph-name="Gcommaaccent" unicode="&#x122;" horiz-adv-x="1355" 
d="M1260 555v-43l-160 -18v-441q-167 -80 -369 -80q-151 0 -268 53t-189.5 147t-109.5 218.5t-37 272.5q0 209 69.5 371t211.5 258t340 96q186 0 346 -80q6 -71 6 -121q0 -93 -10 -178h-50l-22 264q-126 57 -275 57q-112 0 -207 -39.5t-169.5 -117.5t-117 -207t-42.5 -295
q0 -163 40.5 -287.5t113 -201t167 -114.5t207.5 -38q160 0 297 61l-10 414l-258 6v43h496zM682 -129q28 0 47 -8q23 -44 23 -101q0 -157 -158 -256l-21 29q59 49 91 97t32 106q0 35 -4 51l-65 6l-2 70q24 6 57 6z" />
    <glyph glyph-name="gcommaaccent" unicode="&#x123;" horiz-adv-x="1026" 
d="M862 1047l-90 -119q86 -100 86 -240q0 -158 -106.5 -264.5t-278.5 -106.5q-57 0 -117 17v-201l187 -33q234 -44 321.5 -89.5t87.5 -141.5q0 -74 -47 -134t-124.5 -96.5t-169.5 -55.5t-189 -19q-164 0 -253 57t-89 174q0 99 61 176.5t154 116.5q0 95 16 262
q-90 42 -137 128t-47 186q0 158 107 264t278 106q143 0 233 -80q42 95 81 145t87 50q31 0 50 -16l-5 -54zM483 371q138 0 219.5 87t81.5 228q0 132 -72 213.5t-208 81.5q-140 0 -221.5 -85.5t-81.5 -223.5q0 -130 73 -215.5t209 -85.5zM512 35l-197 35q-75 -62 -118 -124
t-43 -134q0 -92 71 -143.5t215 -51.5q73 0 147.5 13t143.5 39t112.5 72.5t43.5 106.5q0 46 -32.5 77t-112 56.5t-230.5 53.5zM557 1571l23 -27q-60 -49 -92.5 -97t-32.5 -106q0 -19 4 -51l67 -6v-70q-24 -6 -57 -6q-26 0 -47 9q-23 44 -23 100q0 157 158 254z" />
    <glyph glyph-name="Hcircumflex" unicode="&#x124;" horiz-adv-x="1546" 
d="M1229 1298v-1247l205 -8v-43h-484v43l205 20v615h-764v-627l225 -8v-43h-503v43l204 20v1248l-204 8v43h503v-43l-225 -21v-567h764v580l-209 8v43h488v-43zM1061 1503l-49 -33l-224 259h-12l-217 -248h-51l252 321h65z" />
    <glyph glyph-name="hcircumflex" unicode="&#x125;" horiz-adv-x="1212" 
d="M870 1565l-47 -31l-192 231h-13l-184 -223h-49l215 293h68zM317 1452v-430q0 -63 -8 -145h13q173 157 366 157q144 0 221.5 -85.5t77.5 -256.5v-643l197 -6v-43h-443v43l177 18v621q0 293 -244 293q-92 0 -177.5 -39.5t-179.5 -116.5v-770l195 -6v-43h-442v43l176 18
v1328l-176 12v39q137 18 231 20z" />
    <glyph glyph-name="Hbar" unicode="&#x126;" horiz-adv-x="1562" 
d="M1237 956v-905l205 -8v-43h-488v43l209 20v568h-764v-580l226 -8v-43h-504v43l205 20v893h-258v52h258v303l-205 8v43h504v-43l-226 -21v-290h764v303l-209 8v43h488v-43l-205 -21v-290h258v-52h-258zM1163 956h-764v-270h764v270z" />
    <glyph glyph-name="hbar" unicode="&#x127;" horiz-adv-x="1212" 
d="M1184 43v-43h-443v43l177 18v621q0 293 -244 293q-92 0 -177.5 -39.5t-179.5 -116.5v-770l195 -6v-43h-442v43l176 18v1233h-213v52h213v186q32 7 55 10l16 -8v-188h336v-52h-336v-272q0 -63 -8 -145h13q173 157 366 157q144 0 221.5 -85.5t77.5 -256.5v-643z" />
    <glyph glyph-name="Itilde" unicode="&#x128;" horiz-adv-x="708" 
d="M391 1298v-1247l205 -8v-43h-483v43l204 20v1248l-204 8v43h483v-43zM614 1702l29 -23q-5 -9 -17.5 -32t-18.5 -33t-18 -28t-20.5 -26.5t-21 -19t-26.5 -14.5t-29 -4q-32 0 -78 26l-207 125l-113 -127l-26 23q47 89 69 115q37 41 80 42q32 0 80 -26l207 -127z" />
    <glyph glyph-name="itilde" unicode="&#x129;" horiz-adv-x="581" 
d="M532 43v-43h-442v43l176 18v887l-176 13v43q154 16 232 20l16 -8v-967zM494 1442l24 -23q-63 -159 -143 -159q-27 0 -64 30l-141 123l-104 -131l-27 25q68 159 147 159q27 0 62 -30l139 -123z" />
    <glyph glyph-name="Imacron" unicode="&#x12a;" horiz-adv-x="708" 
d="M391 1298v-1247l205 -8v-43h-483v43l204 20v1248l-204 8v43h483v-43zM113 1673h487q6 -12 6 -31q0 -18 -6 -30h-487q-4 16 -4 30q0 15 4 31z" />
    <glyph glyph-name="imacron" unicode="&#x12b;" horiz-adv-x="581" 
d="M532 43v-43h-442v43l176 18v887l-176 13v43q154 16 232 20l16 -8v-967zM88 1384h381q4 -16 4 -30q0 -15 -4 -31h-381q-4 16 -4 31q0 14 4 30z" />
    <glyph glyph-name="Ibreve" unicode="&#x12c;" horiz-adv-x="708" 
d="M391 1298v-1247l205 -8v-43h-483v43l204 20v1248l-204 8v43h483v-43zM98 1716l60 23q41 -199 207 -199t219 199l37 -15q-20 -117 -92.5 -180t-180.5 -63q-110 0 -172 63t-78 172z" />
    <glyph glyph-name="ibreve" unicode="&#x12d;" horiz-adv-x="581" 
d="M532 43v-43h-442v43l176 18v887l-176 13v43q154 16 232 20l16 -8v-967zM449 1491l36 -12q-9 -119 -64.5 -181.5t-148.5 -62.5q-95 0 -143 63t-53 172l59 21q17 -199 154 -199q140 0 160 199z" />
    <glyph glyph-name="Iogonek" unicode="&#x12e;" horiz-adv-x="708" 
d="M391 1298v-1245l205 -10v-47q-71 -30 -118 -54.5t-93.5 -57.5t-69 -70.5t-22.5 -81.5q0 -60 41 -87.5t106 -27.5q72 0 140 37l14 -41q-64 -49 -168 -49q-99 0 -149 41t-50 110q0 164 258 273v12h-372v43l204 23v1245l-204 8v43h483v-43z" />
    <glyph glyph-name="iogonek" unicode="&#x12f;" horiz-adv-x="581" 
d="M238 1292l-13 164q23 10 60 10q20 0 32 -4q19 -32 19 -69q0 -49 -29 -101h-69zM532 43v-47q-61 -26 -106.5 -51.5t-88 -57.5t-65 -70.5t-22.5 -80.5q0 -57 38.5 -88t104.5 -31q63 0 123 31l14 -41q-58 -43 -153 -43q-98 0 -146.5 45t-48.5 112q0 86 71 156t169 111v12
h-332v41l176 20v887l-176 13v43q154 16 232 20l16 -8v-967z" />
    <glyph glyph-name="Idotaccent" unicode="&#x130;" horiz-adv-x="708" 
d="M391 1298v-1247l205 -8v-43h-483v43l204 20v1248l-204 8v43h483v-43zM360 1722q21 0 33 -4q19 -32 19 -69q0 -49 -29 -101h-70l-12 164q23 10 59 10z" />
    <glyph glyph-name="dotlessi" unicode="&#x131;" horiz-adv-x="581" 
d="M532 43v-43h-442v43l176 18v887l-176 13v43q154 16 232 20l16 -8v-967z" />
    <glyph glyph-name="IJ" unicode="&#x132;" horiz-adv-x="1650" 
d="M1585 1319l-203 -21v-925q0 -89 -18.5 -159t-50 -114.5t-74.5 -73.5t-89.5 -41t-98.5 -12q-120 0 -193.5 59t-73.5 161q0 65 33 112h51l21 -229q77 -45 158 -45q128 0 194 85t66 244v951l-301 8v43h579v-43zM391 1298v-1247l205 -8v-43h-483v43l204 20v1248l-204 8v43
h483v-43z" />
    <glyph glyph-name="ij" unicode="&#x133;" horiz-adv-x="1116" 
d="M532 43v-43h-442v43l176 18v887l-176 13v43q154 16 232 20l16 -8v-967zM899 1016v-1116q0 -43 -4 -70t-16 -55.5t-39.5 -55.5t-68 -59t-107.5 -78l-29 29l192 192v1145l-176 13v43q154 16 232 20zM846 1450q21 0 33 -4q18 -30 18 -70q0 -48 -29 -100h-69l-13 164
q23 10 60 10zM285 1450q20 0 32 -4q19 -32 19 -70q0 -48 -29 -100h-69l-13 164q23 10 60 10z" />
    <glyph glyph-name="Jcircumflex" unicode="&#x134;" horiz-adv-x="942" 
d="M877 1319l-203 -21v-925q0 -110 -28 -191t-76.5 -125t-105 -64t-122.5 -20q-120 0 -193 59t-73 161q0 65 33 112h51l20 -229q77 -45 158 -45q128 0 194 85t66 244v951l-301 8v43h580v-43zM887 1503l-49 -33l-224 259h-12l-217 -248h-51l252 321h65z" />
    <glyph glyph-name="jcircumflex" unicode="&#x135;" horiz-adv-x="534" 
d="M317 1016v-1116q0 -43 -4 -70t-16 -55.5t-39.5 -55.5t-68 -59t-107.5 -78l-29 29l193 192v1145l-176 13v43q155 16 231 20zM469 1225l-49 -31l-156 279h-12l-166 -271h-49l199 346h65z" />
    <glyph glyph-name="Kcommaaccent" unicode="&#x136;" horiz-adv-x="1343" 
d="M1278 1319l-176 -19q-178 -280 -395 -577q72 -105 216.5 -344t204.5 -330l134 -10l-2 -37q-53 -16 -101 -16q-46 0 -76.5 20t-68.5 76q-43 62 -171 281t-190 313h-262v-625l225 -8v-43h-503v43l204 20v1248l-204 8v43h483v-43l-205 -21v-569h260q183 258 381 582l-223 8
v43h469v-43zM713 -129q28 0 47 -8q22 -42 22 -101q0 -158 -157 -256l-21 29q59 49 91 97t32 106q0 35 -4 51l-66 6l-2 70q24 6 58 6z" />
    <glyph glyph-name="kcommaaccent" unicode="&#x137;" horiz-adv-x="1136" 
d="M1098 35l-2 -35q-54 -14 -107 -14q-43 0 -70.5 17t-64.5 71q-4 6 -114 168.5t-189 273.5h-234v-467l191 -6v-43h-438v43l176 18v1412l-176 10v39q136 17 233 20l14 -8v-967h224q154 176 315 391h-2l-217 7v43h412v-43l-129 -17q-149 -195 -320 -387q144 -194 363 -516z
M612 -129q28 0 47 -8q23 -44 23 -101q0 -157 -158 -256l-20 29q59 49 91 97t32 106q0 35 -4 51l-66 6l-2 70q24 6 57 6z" />
    <glyph glyph-name="kgreenlandic" unicode="&#x138;" horiz-adv-x="1155" 
d="M1116 35l-2 -35q-54 -14 -106 -14q-43 0 -71 17t-65 71q-24 32 -128.5 187.5t-174.5 254.5h-231v-467l190 -6v-43h-438v43l176 18v887l-176 15v41q154 16 234 20l14 -10v-447h223q161 184 316 391h-5l-217 7v43h412v-43l-127 -17q-147 -193 -319 -389q156 -208 360 -514z
" />
    <glyph glyph-name="Lacute" unicode="&#x139;" horiz-adv-x="1126" 
d="M1020 174q0 -100 -14 -174h-2h-891v43l204 20v1248l-204 8v43h522v-43l-244 -21v-1249l539 8l33 252l51 -2q6 -74 6 -133zM565 1829h23q30 -12 53 -45l-227 -303h-52z" />
    <glyph glyph-name="lacute" unicode="&#x13a;" horiz-adv-x="563" 
d="M309 1542h-51l156 289h22q30 -12 53 -45zM512 43v-43h-442v43l176 18v1328l-176 6v45q137 18 231 20l16 -8v-1403z" />
    <glyph glyph-name="Lcommaaccent" unicode="&#x13b;" horiz-adv-x="1126" 
d="M1020 174q0 -100 -14 -174h-2h-891v43l204 20v1248l-204 8v43h522v-43l-244 -21v-1249l539 8l33 252l51 -2q6 -74 6 -133zM580 -129q28 0 47 -8q22 -42 22 -101q0 -158 -157 -256l-21 29q59 49 91 97t32 106q0 35 -4 51l-66 6l-2 70q24 6 58 6z" />
    <glyph glyph-name="lcommaaccent" unicode="&#x13c;" horiz-adv-x="563" 
d="M512 43v-43h-442v43l176 18v1409l-176 7v45q137 18 231 20l16 -8v-1485zM266 -129q28 0 47 -8q23 -44 23 -101q0 -157 -158 -256l-20 29q59 49 91 97t32 106q0 31 -5 51l-65 6l-2 70q24 6 57 6z" />
    <glyph glyph-name="Lcaron" unicode="&#x13d;" horiz-adv-x="1126" 
d="M1020 174q0 -100 -14 -174h-2h-891v43l204 20v1248l-204 8v43h522v-43l-244 -21v-1249l539 8l33 252l51 -2q6 -74 6 -133zM944 1405q33 0 53 -14q-3 -93 -25.5 -181.5t-68.5 -201.5h-41l47 247v146q1 0 14.5 2t20.5 2z" />
    <glyph glyph-name="lcaron" unicode="&#x13e;" horiz-adv-x="692" 
d="M512 43v-43h-442v43l176 18v1409l-176 7v45q137 18 231 20l16 -8v-1485zM612 1542q34 0 54 -14q-3 -93 -26 -180.5t-69 -202.5h-41l48 248v145q1 0 14 2t20 2z" />
    <glyph glyph-name="Ldot" unicode="&#x13f;" horiz-adv-x="1089" 
d="M905 864q21 0 33 -4q16 -32 16 -69q0 -57 -26 -103h-68l-12 166q23 10 57 10zM1020 174q0 -100 -14 -174h-2h-891v43l204 20v1248l-204 8v43h522v-43l-244 -21v-1249l539 8l33 252l51 -2q6 -74 6 -133z" />
    <glyph glyph-name="ldot" unicode="&#x140;" horiz-adv-x="587" 
d="M578 807q22 0 34 -4q17 -28 17 -70q0 -54 -27 -102h-74l-12 166q23 10 62 10zM512 43v-43h-442v43l176 18v1409l-176 7v45q137 18 231 20l16 -8v-1485z" />
    <glyph glyph-name="Lslash" unicode="&#x141;" horiz-adv-x="1126" 
d="M1020 174q0 -100 -14 -174h-2h-891v43l204 20v541l-225 -115l-10 9v43l235 123v647l-204 8v43h522v-43l-244 -21v-602l440 224l11 -9v-45l-451 -229v-588l539 8l33 252l51 -2q6 -74 6 -133z" />
    <glyph glyph-name="lslash" unicode="&#x142;" horiz-adv-x="651" 
d="M362 49l195 -6v-43h-442v43l176 18v584l-207 -104l-8 12l-4 41l219 111v765l-176 7v45q137 18 231 20l16 -8v-799l222 111l6 -12l6 -39l-234 -119v-627z" />
    <glyph glyph-name="Nacute" unicode="&#x143;" horiz-adv-x="1550" 
d="M1460 1362v-43l-205 -21v-1298l-59 -20l-27 -3l-645 1086q-97 162 -137 240h-12l2 -1252l227 -8v-43h-491v45l204 18v1248l-204 8v43h319l602 -1014q120 -202 152 -262h12l-2 1225l-211 8v43h475zM946 1829h23q30 -12 53 -45l-227 -303h-52z" />
    <glyph glyph-name="nacute" unicode="&#x144;" horiz-adv-x="1234" 
d="M1206 41v-41h-442v41l176 20v623q0 291 -248 291q-168 0 -356 -154v-772l196 -8v-41h-442v41l176 20v887l-176 15v41q156 16 234 20l16 -8l-10 -139h12q173 157 367 157q144 0 222.5 -85.5t78.5 -256.5v-643zM831 1571h21q29 -10 55 -47l-276 -350h-49z" />
    <glyph glyph-name="Ncommaaccent" unicode="&#x145;" horiz-adv-x="1550" 
d="M1460 1362v-43l-205 -21v-1298l-59 -20l-27 -3l-645 1086q-97 162 -137 240h-12l2 -1252l227 -8v-43h-491v45l204 18v1248l-204 8v43h319l602 -1014q120 -202 152 -262h12l-2 1225l-211 8v43h475zM780 -129q28 0 47 -8q23 -44 23 -101q0 -157 -158 -256l-20 29
q59 49 91 97t32 106q0 35 -4 51l-66 6l-2 70q24 6 57 6z" />
    <glyph glyph-name="ncommaaccent" unicode="&#x146;" horiz-adv-x="1234" 
d="M1206 41v-41h-442v41l176 20v623q0 291 -248 291q-168 0 -356 -154v-772l196 -8v-41h-442v41l176 20v887l-176 15v41q156 16 234 20l16 -8l-10 -139h12q173 157 367 157q144 0 222.5 -85.5t78.5 -256.5v-643zM621 -129q28 0 47 -8q22 -42 22 -101q0 -157 -158 -256
l-20 29q59 49 91 97t32 106q0 35 -4 51l-66 6l-2 70q24 6 58 6z" />
    <glyph glyph-name="Ncaron" unicode="&#x147;" horiz-adv-x="1550" 
d="M1460 1362v-43l-205 -21v-1298l-59 -20l-27 -3l-645 1086q-97 162 -137 240h-12l2 -1252l227 -8v-43h-491v45l204 18v1248l-204 8v43h319l602 -1014q120 -202 152 -262h12l-2 1225l-211 8v43h475zM786 1556h13l219 248h51l-252 -321h-67l-234 297l49 32z" />
    <glyph glyph-name="ncaron" unicode="&#x148;" horiz-adv-x="1234" 
d="M1206 41v-41h-442v41l176 20v623q0 291 -248 291q-168 0 -356 -154v-772l196 -8v-41h-442v41l176 20v887l-176 15v41q156 16 234 20l16 -8l-10 -139h12q173 157 367 157q144 0 222.5 -85.5t78.5 -256.5v-643zM621 1274h12l194 274h50l-228 -350h-65l-213 328l49 30z" />
    <glyph glyph-name="napostrophe" unicode="&#x149;" horiz-adv-x="1234" 
d="M6 1542q38 0 62 -8q26 -58 26 -129q0 -191 -176 -266l-16 35q63 39 97 84.5t34 121.5q0 31 -6 58l-90 6l-3 90q27 8 72 8zM1206 41v-41h-442v41l176 20v623q0 291 -248 291q-168 0 -356 -154v-772l196 -8v-41h-442v41l176 20v887l-176 15v41q156 16 234 20l16 -8
l-10 -139h12q173 157 367 157q144 0 222.5 -85.5t78.5 -256.5v-643z" />
    <glyph glyph-name="Eng" unicode="&#x14a;" horiz-adv-x="1550" 
d="M1460 1319l-203 -21v-1331q0 -182 -82 -292.5t-206 -110.5q-63 0 -101 30l6 48h199q58 56 86.5 119t32.5 180l-668 1122q-97 162 -137 240h-12l2 -1252l227 -8v-43h-491v43l204 20v1248l-204 8v43h319l602 -1014q120 -202 152 -262h14l-4 1225l-211 8v43h475v-43z" />
    <glyph glyph-name="eng" unicode="&#x14b;" horiz-adv-x="1224" 
d="M709 1034q144 0 222.5 -85.5t78.5 -256.5v-792q0 -71 -15 -111t-63 -86t-158 -121l-26 29l192 192v881q0 291 -246 291q-170 0 -358 -154v-772l196 -8v-41h-442v41l176 20v887l-176 15v41q156 16 234 20l16 -8l-10 -139h12q173 157 367 157z" />
    <glyph glyph-name="Omacron" unicode="&#x14c;" horiz-adv-x="1402" 
d="M717 1389q112 0 204.5 -35.5t157.5 -98.5t110 -150t66 -189.5t21 -217.5q0 -209 -69 -372t-204.5 -258t-318.5 -95q-137 0 -244.5 54t-175 149.5t-102.5 220t-35 271.5q0 210 68 372t203 255.5t319 93.5zM713 1331q-80 0 -152.5 -23t-137.5 -74.5t-112.5 -127
t-75.5 -186.5t-28 -246q0 -159 37.5 -283t103 -202t152.5 -118t190 -40q102 0 191 39.5t160.5 117t113 207.5t41.5 297q0 157 -37 280.5t-102.5 201t-153 117.5t-190.5 40zM459 1673h487q6 -12 6 -31q0 -18 -6 -30h-487q-4 16 -4 30q0 15 4 31z" />
    <glyph glyph-name="omacron" unicode="&#x14d;" horiz-adv-x="1077" 
d="M551 1034q103 0 184.5 -42.5t131.5 -115.5t76 -165.5t26 -198.5q0 -153 -51 -274t-152.5 -193t-239.5 -72q-104 0 -185 41.5t-131 114t-75.5 165t-25.5 200.5q0 153 51 274.5t152.5 193.5t238.5 72zM547 981q-73 0 -136.5 -28t-115 -83.5t-81.5 -150.5t-30 -219
q0 -123 29 -216.5t79.5 -148t111.5 -81.5t131 -27q71 0 134 28t114 83.5t80.5 150.5t29.5 219q0 228 -94.5 350.5t-251.5 122.5zM317 1384h447q4 -16 4 -30q0 -15 -4 -31h-447q-4 16 -4 31q0 14 4 30z" />
    <glyph glyph-name="Obreve" unicode="&#x14e;" horiz-adv-x="1402" 
d="M717 1389q112 0 204.5 -35.5t157.5 -98.5t110 -150t66 -189.5t21 -217.5q0 -209 -69 -372t-204.5 -258t-318.5 -95q-137 0 -244.5 54t-175 149.5t-102.5 220t-35 271.5q0 210 68 372t203 255.5t319 93.5zM713 1331q-80 0 -152.5 -23t-137.5 -74.5t-112.5 -127
t-75.5 -186.5t-28 -246q0 -159 37.5 -283t103 -202t152.5 -118t190 -40q102 0 191 39.5t160.5 117t113 207.5t41.5 297q0 157 -37 280.5t-102.5 201t-153 117.5t-190.5 40zM444 1716l60 23q41 -199 207 -199t219 199l37 -15q-20 -117 -92.5 -180t-180.5 -63q-110 0 -172 63
t-78 172z" />
    <glyph glyph-name="obreve" unicode="&#x14f;" horiz-adv-x="1077" 
d="M551 1034q103 0 184.5 -42.5t131.5 -115.5t76 -165.5t26 -198.5q0 -153 -51 -274t-152.5 -193t-239.5 -72q-104 0 -185 41.5t-131 114t-75.5 165t-25.5 200.5q0 153 51 274.5t152.5 193.5t238.5 72zM547 981q-73 0 -136.5 -28t-115 -83.5t-81.5 -150.5t-30 -219
q0 -123 29 -216.5t79.5 -148t111.5 -81.5t131 -27q71 0 134 28t114 83.5t80.5 150.5t29.5 219q0 228 -94.5 350.5t-251.5 122.5zM299 1473l59 22q31 -203 187 -203q154 0 200 203l37 -14q-18 -119 -86 -183.5t-168 -64.5q-101 0 -159 64.5t-70 175.5z" />
    <glyph glyph-name="Ohungarumlaut" unicode="&#x150;" horiz-adv-x="1402" 
d="M717 1389q112 0 204.5 -35.5t157.5 -98.5t110 -150t66 -189.5t21 -217.5q0 -209 -69 -372t-204.5 -258t-318.5 -95q-137 0 -244.5 54t-175 149.5t-102.5 220t-35 271.5q0 210 68 372t203 255.5t319 93.5zM713 1331q-80 0 -152.5 -23t-137.5 -74.5t-112.5 -127
t-75.5 -186.5t-28 -246q0 -159 37.5 -283t103 -202t152.5 -118t190 -40q102 0 191 39.5t160.5 117t113 207.5t41.5 297q0 157 -37 280.5t-102.5 201t-153 117.5t-190.5 40zM639 1808h20q42 -12 60 -36l-156 -291h-45zM1010 1808h22q40 -13 58 -36l-154 -291h-45z" />
    <glyph glyph-name="ohungarumlaut" unicode="&#x151;" horiz-adv-x="1077" 
d="M551 1034q103 0 184.5 -42.5t131.5 -115.5t76 -165.5t26 -198.5q0 -153 -51 -274t-152.5 -193t-239.5 -72q-104 0 -185 41.5t-131 114t-75.5 165t-25.5 200.5q0 153 51 274.5t152.5 193.5t238.5 72zM547 981q-73 0 -136.5 -28t-115 -83.5t-81.5 -150.5t-30 -219
q0 -123 29 -216.5t79.5 -148t111.5 -81.5t131 -27q71 0 134 28t114 83.5t80.5 150.5t29.5 219q0 228 -94.5 350.5t-251.5 122.5zM506 1571h20q40 -9 62 -37l-182 -360h-46zM807 1571h20q40 -9 62 -37l-182 -360h-45z" />
    <glyph glyph-name="OE" unicode="&#x152;" horiz-adv-x="1916" 
d="M766 1389q104 0 256 -27h729q6 -70 6 -127q0 -92 -10 -174h-51l-23 242l-577 10v-623h366l15 160h45v-377h-45l-17 164h-364v-588l577 10l31 246l51 -2q8 -63 8 -127q0 -76 -14 -176h-727q-197 -27 -293 -27q-157 0 -275 54t-188 150.5t-104.5 220t-34.5 272.5
q0 125 23.5 232.5t73.5 197.5t124 154t180.5 99.5t237.5 35.5zM772 1333q-265 0 -415 -162.5t-150 -494.5q0 -320 139 -483.5t387 -163.5q144 0 289 32v1239q-119 33 -250 33z" />
    <glyph glyph-name="oe" unicode="&#x153;" horiz-adv-x="1728" 
d="M1593 160l25 -31q-134 -156 -334 -156q-146 0 -241.5 83t-127.5 218h-12q-39 -139 -138 -220t-243 -81q-133 0 -228.5 72.5t-140 188.5t-44.5 260q0 153 51.5 275t151.5 193.5t233 71.5q146 0 240 -85t126 -224h13q39 145 142 227t241 82q152 0 229.5 -98t77.5 -262
q0 -74 -15 -150l-651 -20v-8q0 -221 96.5 -342t258.5 -121q81 0 147 32t143 95zM528 27q69 0 130.5 28t112.5 84t80.5 151.5t29.5 219.5q0 226 -93 348.5t-245 122.5q-71 0 -134 -28t-114 -83.5t-81 -150.5t-30 -219q0 -99 19 -179.5t51.5 -134.5t77 -90.5t93.5 -52.5
t103 -16zM1298 981q-142 0 -239 -113.5t-109 -320.5l590 28q2 29 2 82q0 161 -64 242.5t-180 81.5z" />
    <glyph glyph-name="Racute" unicode="&#x154;" horiz-adv-x="1257" 
d="M1221 39l-2 -37q-46 -16 -101 -16q-44 0 -74 19.5t-65 68.5q-39 55 -154.5 249.5t-169.5 274.5h-264v-547l225 -8v-43h-503v43l204 20v1248l-204 8v43q66 1 173 2.5t181 2.5t98 1q129 0 225 -29t151.5 -81.5t81.5 -119t26 -147.5q0 -153 -84.5 -242t-229.5 -133l-2 -10
q63 -87 186 -287t171 -270zM391 653h314q62 24 105.5 50.5t82 65.5t57.5 94.5t19 127.5q0 320 -391 320l-187 2v-660zM801 1839h22q31 -13 54 -45l-228 -303h-51z" />
    <glyph glyph-name="racute" unicode="&#x155;" horiz-adv-x="755" 
d="M702 948h-161q-88 -65 -203 -227v-672l237 -6v-43h-485v43l176 18v887l-176 13v43q143 15 234 20l16 -8l-12 -219h12q93 136 152 186.5t129 50.5q50 0 88 -33zM549 1571h20q31 -11 56 -47l-277 -350h-49z" />
    <glyph glyph-name="Rcommaaccent" unicode="&#x156;" horiz-adv-x="1257" 
d="M1221 39l-2 -37q-46 -16 -101 -16q-44 0 -74 19.5t-65 68.5q-39 55 -154.5 249.5t-169.5 274.5h-264v-547l225 -8v-43h-503v43l204 20v1248l-204 8v43q66 1 173 2.5t181 2.5t98 1q129 0 225 -29t151.5 -81.5t81.5 -119t26 -147.5q0 -153 -84.5 -242t-229.5 -133l-2 -10
q63 -87 186 -287t171 -270zM391 653h314q62 24 105.5 50.5t82 65.5t57.5 94.5t19 127.5q0 320 -391 320l-187 2v-660zM721 -129q28 0 47 -8q23 -44 23 -101q0 -157 -158 -256l-21 29q59 49 91 97t32 106q0 35 -4 51l-65 6l-2 70q24 6 57 6z" />
    <glyph glyph-name="rcommaaccent" unicode="&#x157;" horiz-adv-x="755" 
d="M702 948h-161q-88 -65 -203 -227v-672l237 -6v-43h-485v43l176 18v887l-176 13v43q143 15 234 20l16 -8l-12 -219h12q93 136 152 186.5t129 50.5q50 0 88 -33zM303 -129q28 0 47 -8q23 -44 23 -101q0 -157 -158 -256l-20 29q58 49 90 97t32 106q0 35 -4 51l-65 6l-2 70
q24 6 57 6z" />
    <glyph glyph-name="Rcaron" unicode="&#x158;" horiz-adv-x="1257" 
d="M1221 39l-2 -37q-46 -16 -101 -16q-44 0 -74 19.5t-65 68.5q-39 55 -154.5 249.5t-169.5 274.5h-264v-547l225 -8v-43h-503v43l204 20v1248l-204 8v43q66 1 173 2.5t181 2.5t98 1q129 0 225 -29t151.5 -81.5t81.5 -119t26 -147.5q0 -153 -84.5 -242t-229.5 -133l-2 -10
q63 -87 186 -287t171 -270zM391 653h314q62 24 105.5 50.5t82 65.5t57.5 94.5t19 127.5q0 320 -391 320l-187 2v-660zM618 1567h13l219 248h51l-252 -322h-67l-234 297l49 33z" />
    <glyph glyph-name="rcaron" unicode="&#x159;" horiz-adv-x="755" 
d="M702 948h-161q-88 -65 -203 -227v-672l237 -6v-43h-485v43l176 18v887l-176 13v43q143 15 234 20l16 -8l-12 -219h12q93 136 152 186.5t129 50.5q50 0 88 -33zM338 1274h12l195 274h49l-227 -350h-66l-213 328l49 30z" />
    <glyph glyph-name="Sacute" unicode="&#x15a;" horiz-adv-x="1060" 
d="M487 756l140 -68q60 -29 100 -51.5t83.5 -56t69 -68t42 -83.5t16.5 -107q0 -166 -118 -257.5t-312 -91.5q-187 0 -354 80q-15 102 -15 174q0 59 8 121l46 4l34 -262q130 -59 279 -59q71 0 131 14.5t112 45t81.5 86t29.5 130.5q0 37 -8 69t-19 56.5t-32.5 48t-39.5 39.5
t-50 35.5t-53.5 30.5t-59.5 30l-141 68q-55 26 -93.5 49t-79.5 56t-65.5 68.5t-40.5 85t-16 108.5q0 157 102.5 247.5t280.5 90.5q89 0 176 -22t151 -56q7 -79 7 -121q0 -80 -11 -174h-49l-20 262q-124 53 -258 53q-137 0 -222.5 -65.5t-85.5 -204.5q0 -49 13 -89.5
t32.5 -69.5t55 -56.5t69 -46t84.5 -43.5zM702 1829h23q30 -12 53 -45l-227 -303h-51z" />
    <glyph glyph-name="sacute" unicode="&#x15b;" horiz-adv-x="909" 
d="M438 559l86 -39q70 -30 112 -53.5t79 -55.5t53 -72t16 -93q0 -130 -97.5 -201.5t-258.5 -71.5q-162 0 -295 70q-8 58 -8 107q0 79 8 124h49l25 -198q106 -49 225 -49q41 0 79 6t75.5 21t65 37.5t44.5 58.5t17 81q0 44 -14.5 77t-48 60t-66 44t-90.5 43l-86 37
q-55 25 -87 41.5t-68.5 41.5t-55.5 50t-32 61t-13 80q0 126 90 197t245 71q139 0 256 -55q9 -65 9 -105q0 -69 -9 -124h-47l-24 196q-88 35 -189 35q-113 0 -188.5 -49t-75.5 -150q0 -44 14 -76.5t47.5 -59t65.5 -43.5t92 -44zM659 1571h21q29 -10 55 -47l-276 -350h-49z
" />
    <glyph glyph-name="Scircumflex" unicode="&#x15c;" horiz-adv-x="1060" 
d="M487 756l140 -68q60 -29 100 -51.5t83.5 -56t69 -68t42 -83.5t16.5 -107q0 -166 -118 -257.5t-312 -91.5q-187 0 -354 80q-15 102 -15 174q0 59 8 121l46 4l34 -262q130 -59 279 -59q71 0 131 14.5t112 45t81.5 86t29.5 130.5q0 37 -8 69t-19 56.5t-32.5 48t-39.5 39.5
t-50 35.5t-53.5 30.5t-59.5 30l-141 68q-55 26 -93.5 49t-79.5 56t-65.5 68.5t-40.5 85t-16 108.5q0 157 102.5 247.5t280.5 90.5q89 0 176 -22t151 -56q7 -79 7 -121q0 -80 -11 -174h-49l-20 262q-124 53 -258 53q-137 0 -222.5 -65.5t-85.5 -204.5q0 -49 13 -89.5
t32.5 -69.5t55 -56.5t69 -46t84.5 -43.5zM815 1503l-49 -33l-223 259h-13l-217 -248h-51l252 321h66z" />
    <glyph glyph-name="scircumflex" unicode="&#x15d;" horiz-adv-x="909" 
d="M438 559l86 -39q70 -30 112 -53.5t79 -55.5t53 -72t16 -93q0 -130 -97.5 -201.5t-258.5 -71.5q-162 0 -295 70q-8 58 -8 107q0 79 8 124h49l25 -198q106 -49 225 -49q41 0 79 6t75.5 21t65 37.5t44.5 58.5t17 81q0 44 -14.5 77t-48 60t-66 44t-90.5 43l-86 37
q-55 25 -87 41.5t-68.5 41.5t-55.5 50t-32 61t-13 80q0 126 90 197t245 71q139 0 256 -55q9 -65 9 -105q0 -69 -9 -124h-47l-24 196q-88 35 -189 35q-113 0 -188.5 -49t-75.5 -150q0 -44 14 -76.5t47.5 -59t65.5 -43.5t92 -44zM705 1221l-50 -31l-198 283h-13l-196 -275h-49
l227 350h68z" />
    <glyph glyph-name="Scedilla" unicode="&#x15e;" horiz-adv-x="1060" 
d="M487 756l140 -68q60 -29 100 -51.5t83.5 -56t69 -68t42 -83.5t16.5 -107q0 -163 -113.5 -253.5t-300.5 -95.5v-127q174 -11 174 -122q0 -67 -53 -113.5t-141 -46.5q-49 0 -98 14.5t-80 40.5l14 37q80 -39 149 -39q65 0 103.5 29t38.5 75q0 23 -10 39t-34 27t-49.5 17.5
t-70.5 15.5l12 153q-172 5 -325 80q-15 102 -15 174q0 59 8 121l46 4l34 -262q130 -59 279 -59q71 0 131 14.5t112 45t81.5 86t29.5 130.5q0 37 -8 69t-19 56.5t-32.5 48t-39.5 39.5t-50 35.5t-53.5 30.5t-59.5 30l-141 68q-55 26 -93.5 49t-79.5 56t-65.5 68.5t-40.5 85
t-16 108.5q0 157 102.5 247.5t280.5 90.5q89 0 176 -22t151 -56q7 -79 7 -121q0 -80 -11 -174h-49l-20 262q-124 53 -258 53q-137 0 -222.5 -65.5t-85.5 -204.5q0 -49 13 -89.5t32.5 -69.5t55 -56.5t69 -46t84.5 -43.5z" />
    <glyph glyph-name="scedilla" unicode="&#x15f;" horiz-adv-x="909" 
d="M438 559l86 -39q70 -30 112 -53.5t79 -55.5t53 -72t16 -93q0 -121 -84.5 -191.5t-226.5 -79.5v-129q174 -11 174 -122q0 -67 -53 -113.5t-141 -46.5q-49 0 -98.5 14.5t-80.5 40.5l15 37q80 -39 149 -39q65 0 103.5 29t38.5 75q0 23 -10 39t-34 27t-49.5 17.5t-70.5 15.5
h-2l12 153q-160 0 -293 70q-8 58 -8 107q0 79 8 124h49l25 -198q106 -49 225 -49q41 0 79 6t75.5 21t65 37.5t44.5 58.5t17 81q0 44 -14.5 77t-48 60t-66 44t-90.5 43l-86 37q-55 25 -87 41.5t-68.5 41.5t-55.5 50t-32 61t-13 80q0 126 90 197t245 71q139 0 256 -55
q9 -65 9 -105q0 -69 -9 -124h-47l-24 196q-88 35 -189 35q-113 0 -188.5 -49t-75.5 -150q0 -44 14 -76.5t47.5 -59t65.5 -43.5t92 -44z" />
    <glyph glyph-name="Scaron" unicode="&#x160;" horiz-adv-x="1060" 
d="M487 756l140 -68q60 -29 100 -51.5t83.5 -56t69 -68t42 -83.5t16.5 -107q0 -166 -118 -257.5t-312 -91.5q-187 0 -354 80q-15 102 -15 174q0 59 8 121l46 4l34 -262q130 -59 279 -59q71 0 131 14.5t112 45t81.5 86t29.5 130.5q0 37 -8 69t-19 56.5t-32.5 48t-39.5 39.5
t-50 35.5t-53.5 30.5t-59.5 30l-141 68q-55 26 -93.5 49t-79.5 56t-65.5 68.5t-40.5 85t-16 108.5q0 157 102.5 247.5t280.5 90.5q89 0 176 -22t151 -56q7 -79 7 -121q0 -80 -11 -174h-49l-20 262q-124 53 -258 53q-137 0 -222.5 -65.5t-85.5 -204.5q0 -49 13 -89.5
t32.5 -69.5t55 -56.5t69 -46t84.5 -43.5zM543 1556h12l219 248h51l-252 -321h-67l-234 297l50 32z" />
    <glyph glyph-name="scaron" unicode="&#x161;" horiz-adv-x="909" 
d="M438 559l86 -39q70 -30 112 -53.5t79 -55.5t53 -72t16 -93q0 -130 -97.5 -201.5t-258.5 -71.5q-162 0 -295 70q-8 58 -8 107q0 79 8 124h49l25 -198q106 -49 225 -49q41 0 79 6t75.5 21t65 37.5t44.5 58.5t17 81q0 44 -14.5 77t-48 60t-66 44t-90.5 43l-86 37
q-55 25 -87 41.5t-68.5 41.5t-55.5 50t-32 61t-13 80q0 126 90 197t245 71q139 0 256 -55q9 -65 9 -105q0 -69 -9 -124h-47l-24 196q-88 35 -189 35q-113 0 -188.5 -49t-75.5 -150q0 -44 14 -76.5t47.5 -59t65.5 -43.5t92 -44zM449 1274h12l194 274h50l-228 -350h-65
l-213 328l49 30z" />
    <glyph glyph-name="Tcommaaccent" unicode="&#x162;" horiz-adv-x="1206" 
d="M111 1362h983q6 -70 6 -125q0 -95 -10 -180h-50l-20 248l-381 10v-1264l242 -8v-43h-258v-154q174 -11 174 -122q0 -67 -53.5 -113.5t-141.5 -46.5q-49 0 -98 14.5t-80 40.5l14 37q80 -39 150 -39q65 0 103 29t38 75q0 23 -10 39t-34 27t-49.5 17.5t-70.5 15.5l15 180
h-256v43l241 20v1252l-379 -10l-20 -248h-49q-11 93 -11 180q0 58 5 109v16z" />
    <glyph glyph-name="tcommaaccent" unicode="&#x163;" horiz-adv-x="706" 
d="M641 84l14 -37q-113 -74 -235 -74h-4v-127q174 -11 174 -122q0 -67 -53.5 -113.5t-141.5 -46.5q-49 0 -98 14.5t-80 40.5l14 37q80 -39 150 -39q65 0 103 29t38 75q0 23 -10 39t-34 27t-49.5 17.5t-70.5 15.5h-2l13 157q-133 25 -133 203v774l-177 9v41l177 16l36 256
l35 -2v-266h303v-54h-303v-766q0 -86 30.5 -121.5t98.5 -35.5q93 0 205 53z" />
    <glyph glyph-name="Tcaron" unicode="&#x164;" horiz-adv-x="1206" 
d="M111 1362h983q6 -70 6 -125q0 -95 -10 -180h-50l-20 248l-381 10v-1264l242 -8v-43h-557v43l241 20v1252l-379 -10l-20 -248h-49q-11 93 -11 180q0 58 5 109v16zM606 1556h12l220 248h51l-252 -321h-68l-233 297l49 32z" />
    <glyph glyph-name="tcaron" unicode="&#x165;" horiz-adv-x="708" 
d="M641 84l14 -37q-113 -74 -235 -74q-90 0 -137 48t-47 159v774l-177 9v41l177 16l36 256l35 -2v-266h303v-54h-303v-766q0 -86 30.5 -121.5t98.5 -35.5q93 0 205 53zM592 1542q31 0 51 -14q-8 -175 -90 -377h-41l45 242v145q1 0 6.5 1t14 2t14.5 1z" />
    <glyph glyph-name="Tbar" unicode="&#x166;" horiz-adv-x="1206" 
d="M111 1362h983q6 -70 6 -125q0 -95 -10 -180h-50l-20 248l-381 10v-686h342v-51h-342v-527l242 -8v-43h-557v43l241 20v515h-346v51h346v686l-379 -10l-20 -248h-49q-11 93 -11 180q0 58 5 109v16z" />
    <glyph glyph-name="tbar" unicode="&#x167;" horiz-adv-x="729" 
d="M653 84l15 -37q-113 -74 -236 -74q-90 0 -137 48t-47 159v449h-176v53h176v272l-176 9v41l176 16l37 256l34 -2v-266h304v-54h-304v-272h304v-53h-304v-441q0 -86 31 -121.5t99 -35.5q92 0 204 53z" />
    <glyph glyph-name="Utilde" unicode="&#x168;" horiz-adv-x="1468" 
d="M1403 1362v-43l-205 -21v-841q0 -229 -116.5 -356.5t-340.5 -127.5q-227 0 -349 130.5t-122 367.5v840l-204 8v43h501v-43l-223 -21v-839q0 -217 111 -322.5t295 -105.5q182 0 285.5 104.5t103.5 323.5v852l-228 8v43h492zM1001 1702l29 -23q-5 -9 -17.5 -32t-18.5 -33
t-18 -28t-20.5 -26.5t-21 -19t-26.5 -14.5t-29 -4q-33 0 -78 26l-207 125l-113 -127l-26 23q47 89 69 115q37 41 80 42q32 0 80 -26l207 -127z" />
    <glyph glyph-name="utilde" unicode="&#x169;" horiz-adv-x="1214" 
d="M1145 47v-41q-141 -18 -234 -20l-16 4l10 143h-12q-174 -160 -365 -160q-144 0 -222.5 85.5t-78.5 256.5v633l-176 13v43q166 17 232 20l16 -8v-686q0 -297 242 -297q169 0 358 155v760h-2l-176 13v43q164 16 231 20l17 -8v-955zM805 1442l26 -23q-3 -5 -12 -22t-12 -23
t-11.5 -21.5t-13 -22t-13.5 -18.5t-15 -17.5t-15.5 -13.5t-17.5 -11.5t-18 -6.5t-21 -3q-29 0 -72 30l-178 121l-108 -129l-27 25q3 5 13.5 25t14 26.5t13.5 23t15.5 23.5t15 19.5t17.5 17.5t18.5 12t21.5 9.5t23 2.5q23 0 69 -28l178 -123z" />
    <glyph glyph-name="Umacron" unicode="&#x16a;" horiz-adv-x="1468" 
d="M1403 1362v-43l-205 -21v-841q0 -229 -116.5 -356.5t-340.5 -127.5q-227 0 -349 130.5t-122 367.5v840l-204 8v43h501v-43l-223 -21v-839q0 -217 111 -322.5t295 -105.5q182 0 285.5 104.5t103.5 323.5v852l-228 8v43h492zM500 1673h487q6 -12 6 -31q0 -18 -6 -30h-487
q-4 16 -4 30q0 15 4 31z" />
    <glyph glyph-name="umacron" unicode="&#x16b;" horiz-adv-x="1214" 
d="M1145 47v-41q-141 -18 -234 -20l-16 4l10 143h-12q-174 -160 -365 -160q-144 0 -222.5 85.5t-78.5 256.5v633l-176 13v43q166 17 232 20l16 -8v-686q0 -297 242 -297q169 0 358 155v760h-2l-176 13v43q164 16 231 20l17 -8v-955zM340 1384h446q5 -20 5 -30q0 -11 -5 -31
h-446q-4 16 -4 31q0 14 4 30z" />
    <glyph glyph-name="Ubreve" unicode="&#x16c;" horiz-adv-x="1468" 
d="M1403 1362v-43l-205 -21v-841q0 -229 -116.5 -356.5t-340.5 -127.5q-227 0 -349 130.5t-122 367.5v840l-204 8v43h501v-43l-223 -21v-839q0 -217 111 -322.5t295 -105.5q182 0 285.5 104.5t103.5 323.5v852l-228 8v43h492zM485 1716l60 23q41 -199 207 -199t219 199
l37 -15q-20 -117 -92.5 -180t-180.5 -63q-110 0 -172 63t-78 172z" />
    <glyph glyph-name="ubreve" unicode="&#x16d;" horiz-adv-x="1214" 
d="M1145 47v-41q-141 -18 -234 -20l-16 4l10 143h-12q-174 -160 -365 -160q-144 0 -222.5 85.5t-78.5 256.5v633l-176 13v43q166 17 232 20l16 -8v-686q0 -297 242 -297q169 0 358 155v760h-2l-176 13v43q164 16 231 20l17 -8v-955zM322 1473l59 22q31 -203 186 -203
t201 203l37 -14q-18 -119 -86 -183.5t-168 -64.5q-101 0 -159 64.5t-70 175.5z" />
    <glyph glyph-name="Uring" unicode="&#x16e;" horiz-adv-x="1468" 
d="M1403 1362v-43l-205 -21v-841q0 -229 -116.5 -356.5t-340.5 -127.5q-227 0 -349 130.5t-122 367.5v840l-204 8v43h501v-43l-223 -21v-839q0 -217 111 -322.5t295 -105.5q182 0 285.5 104.5t103.5 323.5v852l-228 8v43h492zM750 1839q84 0 136 -46.5t52 -129.5
q0 -90 -59.5 -137t-147.5 -47q-85 0 -137.5 44.5t-52.5 127.5q0 90 60.5 139t148.5 49zM741 1792q-65 0 -102 -36.5t-37 -98.5q0 -60 36.5 -95.5t100.5 -35.5q67 0 103.5 37.5t36.5 97.5t-36 95.5t-102 35.5z" />
    <glyph glyph-name="uring" unicode="&#x16f;" horiz-adv-x="1214" 
d="M1145 47v-41q-141 -18 -234 -20l-16 4l10 143h-12q-174 -160 -365 -160q-144 0 -222.5 85.5t-78.5 256.5v633l-176 13v43q166 17 232 20l16 -8v-686q0 -297 242 -297q169 0 358 155v760h-2l-176 13v43q164 16 231 20l17 -8v-955zM573 1577q84 0 136.5 -49t52.5 -135
q0 -93 -61 -145t-146 -52q-84 0 -137 49t-53 135q0 94 60.5 145.5t147.5 51.5zM565 1530q-65 0 -102 -40t-37 -104q0 -65 36.5 -104t100.5 -39q65 0 101 42t36 106q0 62 -35.5 100.5t-99.5 38.5z" />
    <glyph glyph-name="Uhungarumlaut" unicode="&#x170;" horiz-adv-x="1468" 
d="M1403 1362v-43l-205 -21v-841q0 -229 -116.5 -356.5t-340.5 -127.5q-227 0 -349 130.5t-122 367.5v840l-204 8v43h501v-43l-223 -21v-839q0 -217 111 -322.5t295 -105.5q182 0 285.5 104.5t103.5 323.5v852l-228 8v43h492zM680 1808h20q42 -12 60 -36l-156 -291h-45z
M1051 1808h22q39 -12 57 -36l-153 -291h-45z" />
    <glyph glyph-name="uhungarumlaut" unicode="&#x171;" horiz-adv-x="1214" 
d="M1145 47v-41q-141 -18 -234 -20l-16 4l10 143h-12q-174 -160 -365 -160q-144 0 -222.5 85.5t-78.5 256.5v633l-176 13v43q166 17 232 20l16 -8v-686q0 -297 242 -297q169 0 358 155v760h-2l-176 13v43q164 16 231 20l17 -8v-955zM528 1571h21q39 -9 61 -37l-182 -360h-45
zM829 1571h21q39 -9 61 -37l-182 -360h-45z" />
    <glyph glyph-name="Uogonek" unicode="&#x172;" horiz-adv-x="1468" 
d="M1403 1362v-43l-205 -21v-841q0 -152 -40 -240t-124 -162q-17 -15 -51.5 -43.5t-57 -47t-51.5 -48t-46 -54.5t-29.5 -57.5t-12.5 -64.5q0 -64 40.5 -93.5t107.5 -29.5t139 37l14 -41q-60 -49 -163 -49t-154 45t-51 121q0 129 155 254l-4 12q-61 -23 -141 -23
q-214 0 -336.5 132t-122.5 366v840l-204 8v43h501v-43l-223 -21v-839q0 -111 30.5 -194.5t86.5 -134t128.5 -75t162.5 -24.5q182 0 284.5 104.5t102.5 323.5v852l-211 8v43h475z" />
    <glyph glyph-name="uogonek" unicode="&#x173;" horiz-adv-x="1214" 
d="M1145 47v-41q-137 -13 -227.5 -94.5t-90.5 -177.5q0 -60 37 -88.5t101 -28.5q69 0 149 37l14 -41q-70 -49 -178 -49q-97 0 -143.5 44.5t-46.5 119.5q0 78 45.5 140t109.5 99l-10 166h-12q-174 -160 -365 -160q-144 0 -222.5 85.5t-78.5 256.5v633l-176 13v43
q166 17 232 20l16 -8v-686q0 -297 242 -297q169 0 358 155v760h-2l-176 13v43q164 16 231 20l17 -8v-961z" />
    <glyph glyph-name="Wcircumflex" unicode="&#x174;" horiz-adv-x="2072" 
d="M2013 1319l-178 -21q-137 -508 -391 -1302l-70 -23h-18q-172 544 -309 1049h-11q-94 -355 -311 -1026l-70 -23h-18q-256 795 -404 1338l-174 8v43h484v-43l-226 -21q117 -460 361 -1245h12q187 587 324 1061l-60 197l-159 8v43h485v-43l-244 -21h-4q240 -847 365 -1245
h12q242 783 365 1258l-222 8v43h461v-43zM1337 1503l-49 -33l-223 259h-12l-217 -248h-52l252 321h66z" />
    <glyph glyph-name="wcircumflex" unicode="&#x175;" horiz-adv-x="1800" 
d="M1747 965l-152 -19q-116 -411 -295 -950l-65 -23h-18q-154 456 -297 969h-13q-112 -396 -307 -946l-65 -23h-19q-175 525 -303 985l-160 7v43h410v-43l-168 -19q93 -359 262 -889h12q205 597 310 955l65 22h19q130 -480 294 -977h13q162 503 268 901l-192 7v43h401v-43z
M1176 1221l-50 -31l-198 283h-13l-196 -275h-49l227 350h68z" />
    <glyph glyph-name="Ycircumflex" unicode="&#x176;" horiz-adv-x="1331" 
d="M1278 1319l-176 -21q-168 -372 -393 -806v-441l241 -8v-43h-557v43l242 20v424q-203 386 -406 824l-176 8v43h484v-43l-220 -21q168 -371 357 -733h12q176 337 354 746l-223 8v43h461v-43zM946 1503l-49 -33l-223 259h-12l-218 -248h-51l252 321h66z" />
    <glyph glyph-name="ycircumflex" unicode="&#x177;" horiz-adv-x="1171" 
d="M1143 965l-154 -19q-70 -209 -187.5 -524t-191.5 -494q-24 -57 -47.5 -103.5t-56.5 -97.5t-67 -85t-78 -56t-91 -22q-60 0 -98 30l6 48h187q117 111 194 317q-229 572 -371 999l-159 7v43h411v-43l-170 -19q136 -415 324 -889h12q168 422 326 901l-191 7v43h402v-43z
M844 1221l-49 -31l-199 283h-12l-197 -275h-49l227 350h68z" />
    <glyph glyph-name="Ydieresis" unicode="&#x178;" horiz-adv-x="1331" 
d="M1278 1319l-176 -21q-168 -372 -393 -806v-441l241 -8v-43h-557v43l242 20v424q-203 386 -406 824l-176 8v43h484v-43l-220 -21q168 -371 357 -733h12q176 337 354 746l-223 8v43h461v-43zM907 1724q11 0 35 -4q16 -32 16 -67q0 -47 -26 -84h-66l-12 145q35 10 53 10z
M434 1724q15 0 35 -4q16 -27 16 -67q0 -44 -24 -84h-68l-14 145q35 10 55 10z" />
    <glyph glyph-name="Zacute" unicode="&#x179;" horiz-adv-x="1130" 
d="M981 309l49 -2q6 -71 6 -129q0 -101 -14 -178h-909l-13 33l727 1118q40 63 105 156l-4 10l-717 -14l-21 -246h-49q-10 85 -10 176q0 82 4 129h881l12 -33l-721 -1112q-62 -95 -114 -162l6 -10l751 16zM735 1829h23q30 -12 53 -45l-227 -303h-52z" />
    <glyph glyph-name="zacute" unicode="&#x17a;" horiz-adv-x="905" 
d="M774 276l47 -4q4 -28 4 -77q0 -81 -20 -195h-713l-12 41l520 756q56 82 117 157l-6 11l-514 -13l-25 -202h-47q-8 52 -8 124q0 86 10 134h661l13 -43l-522 -754q-60 -88 -117 -158l6 -10l567 14zM659 1571h21q29 -10 55 -47l-276 -350h-49z" />
    <glyph glyph-name="Zdotaccent" unicode="&#x17b;" horiz-adv-x="1130" 
d="M981 309l49 -2q6 -71 6 -129q0 -101 -14 -178h-909l-13 33l727 1118q40 63 105 156l-4 10l-717 -14l-21 -246h-49q-10 85 -10 176q0 82 4 129h881l12 -33l-721 -1112q-62 -95 -114 -162l6 -10l751 16zM573 1722q23 0 37 -2q17 -39 17 -71q0 -49 -29 -101h-70l-12 164
q23 10 57 10z" />
    <glyph glyph-name="zdotaccent" unicode="&#x17c;" horiz-adv-x="905" 
d="M774 276l47 -4q4 -28 4 -77q0 -81 -20 -195h-713l-12 41l520 756q56 82 117 157l-6 11l-514 -13l-25 -202h-47q-8 52 -8 124q0 86 10 134h661l13 -43l-522 -754q-60 -88 -117 -158l6 -10l567 14zM457 1466q20 0 32 -4q19 -32 19 -69q0 -49 -29 -101h-69l-13 164
q23 10 60 10z" />
    <glyph glyph-name="Zcaron" unicode="&#x17d;" horiz-adv-x="1130" 
d="M981 309l49 -2q6 -71 6 -129q0 -101 -14 -178h-909l-13 33l727 1118q40 63 105 156l-4 10l-717 -14l-21 -246h-49q-10 85 -10 176q0 82 4 129h881l12 -33l-721 -1112q-62 -95 -114 -162l6 -10l751 16zM575 1556h13l219 248h51l-252 -321h-67l-234 297l49 32z" />
    <glyph glyph-name="zcaron" unicode="&#x17e;" horiz-adv-x="905" 
d="M774 276l47 -4q4 -28 4 -77q0 -81 -20 -195h-713l-12 41l520 756q56 82 117 157l-6 11l-514 -13l-25 -202h-47q-8 52 -8 124q0 86 10 134h661l13 -43l-522 -754q-60 -88 -117 -158l6 -10l567 14zM449 1274h12l194 274h50l-228 -350h-65l-213 328l49 30z" />
    <glyph glyph-name="longs" unicode="&#x17f;" horiz-adv-x="618" 
d="M578 1542q95 0 160 -41t65 -127q0 -45 -25 -80h-51l-25 179q-69 16 -118 16q-119 0 -182.5 -84.5t-63.5 -243.5v-1112l215 -2v-47h-463v43l176 18v893l-176 9v41l176 16v143q0 98 24.5 172.5t68 118.5t98.5 66t121 22z" />
    <glyph glyph-name="uni018F" unicode="&#x18f;" horiz-adv-x="1251" 
d="M575 1389q114 0 207 -36t155.5 -99t105.5 -150t62 -186.5t19 -212.5q0 -331 -158.5 -531.5t-418.5 -200.5q-208 0 -314 131t-106 353q0 109 18 196h899v45q0 302 -127.5 464.5t-353.5 162.5q-200 0 -375 -131l-22 37q158 158 409 158zM555 35q201 0 333 148.5t152 422.5
l-827 -12q0 -8 -3 -58t-3 -75q0 -214 90.5 -320t257.5 -106z" />
    <glyph glyph-name="florin" unicode="&#x192;" horiz-adv-x="1042" 
d="M831 1247q78 0 128.5 -37t50.5 -116q0 -55 -29 -84h-47l-29 184l-51 2q-116 0 -179 -74t-81 -256l-16 -139h296v-53h-303l-51 -465q-22 -200 -106 -289.5t-205 -89.5q-78 0 -127 36.5t-49 115.5q0 54 28 86h48l28 -185q18 -2 51 -2q75 0 126 28t86.5 102t48.5 200l51 463
h-224v53h228l16 141q22 199 105.5 289t205.5 90z" />
    <glyph glyph-name="uni01E2" unicode="&#x1e2;" horiz-adv-x="1947" 
d="M1739 305l49 -2q6 -71 6 -127q0 -96 -14 -176h-949v43l205 20v367h-540q-151 -263 -215 -379l213 -8v-43h-455v43l178 20q329 579 744 1250l-199 6v43h1022q4 -47 4 -127q0 -92 -10 -174h-47l-19 248l-602 2v-621h383l14 160h47v-377h-47l-14 164h-383v-588l602 10z
M1036 483v828h-16q-259 -420 -494 -828h510zM911 1673h447q4 -16 4 -31q0 -14 -4 -30h-447q-4 16 -4 30q0 15 4 31z" />
    <glyph glyph-name="uni01E3" unicode="&#x1e3;" horiz-adv-x="1570" 
d="M1436 160l24 -31q-141 -156 -344 -156q-232 0 -330 207h-12q-89 -101 -196.5 -153t-215.5 -52q-129 0 -195.5 66.5t-66.5 175.5q0 67 27.5 117t77 83.5t129.5 55.5t173 33t220 16l4 166q4 146 -66 220.5t-198 74.5q-103 0 -205 -57l-29 -205h-49q-28 28 -28 82
q0 96 99 164.5t232 68.5q131 0 208.5 -72t86.5 -196h11q39 118 130.5 192t221.5 74q151 0 231 -99t80 -261q0 -79 -14 -150l-649 -37q1 -223 94.5 -338.5t245.5 -115.5q148 0 303 127zM1137 981q-139 0 -237 -120t-107 -333l587 47q4 54 4 82q0 160 -66.5 242t-180.5 82z
M373 35q97 0 198.5 51t192.5 145q-38 103 -41 246l-82 -6q-248 -17 -357.5 -76.5t-109.5 -179.5q0 -83 50.5 -131.5t148.5 -48.5zM573 1401h447q4 -16 4 -31t-4 -31h-447q-4 16 -4 31t4 31z" />
    <glyph glyph-name="Aringacute" unicode="&#x1fa;" horiz-adv-x="1421" 
d="M741 1665h-49l195 301h22q34 -17 52 -43zM1393 43v-43h-463v43l198 20q-32 100 -131 383h-587q-16 -46 -138 -395l217 -8v-43h-458v43l180 20q216 629 436 1174q-63 12 -100 55.5t-37 110.5q0 90 60.5 139t148.5 49q84 0 136 -46t52 -130q0 -70 -36.5 -114t-98.5 -60
q196 -484 440 -1190zM573 1409q0 -60 37 -95.5t101 -35.5q66 0 101.5 37.5t35.5 97.5t-35 95.5t-100 35.5t-102.5 -36.5t-37.5 -98.5zM428 500h551q-124 344 -268 712h-13q-145 -362 -270 -712z" />
    <glyph glyph-name="aringacute" unicode="&#x1fb;" horiz-adv-x="1024" 
d="M971 45v-39q-88 -20 -150 -20q-47 0 -67.5 16.5t-20.5 56.5v74h-14q-167 -160 -357 -160q-127 0 -194.5 66t-67.5 172q0 65 27 115.5t70.5 81t104.5 50t123 27t132 7.5q57 0 172 -7l2 220q1 136 -66.5 206t-195.5 70q-100 0 -207 -55l-29 -207h-49q-28 32 -28 82
q0 97 100 165t231 68q138 0 226.5 -82.5t87.5 -238.5l-6 -666zM371 31q88 0 180.5 42t175.5 117l2 256h-127q-219 0 -323.5 -56.5t-104.5 -174.5q0 -84 50.5 -134t146.5 -50zM647 1862h23q29 -15 49 -43l-205 -234h-49zM500 1505q83 0 135.5 -48t52.5 -130q0 -88 -61 -138
t-146 -50q-83 0 -136.5 48t-53.5 130q0 88 61 138t148 50zM492 1458q-65 0 -102.5 -37.5t-37.5 -101.5q0 -62 36 -97.5t99 -35.5q67 0 103.5 40.5t36.5 102.5q0 59 -35.5 94t-99.5 35z" />
    <glyph glyph-name="AEacute" unicode="&#x1fc;" horiz-adv-x="1947" 
d="M1739 305l49 -2q6 -71 6 -127q0 -96 -14 -176h-949v43l205 20v367h-540q-151 -263 -215 -379l213 -8v-43h-455v43l178 20q329 579 744 1250l-199 6v43h1022q4 -47 4 -127q0 -92 -10 -174h-47l-19 248l-602 2v-621h383l14 160h47v-377h-47l-14 164h-383v-588l602 10z
M1036 483v828h-16q-259 -420 -494 -828h510zM1298 1829h23q30 -12 53 -45l-227 -303h-51z" />
    <glyph glyph-name="aeacute" unicode="&#x1fd;" horiz-adv-x="1570" 
d="M1436 160l24 -31q-141 -156 -344 -156q-232 0 -330 207h-12q-89 -101 -196.5 -153t-215.5 -52q-129 0 -195.5 66.5t-66.5 175.5q0 67 27.5 117t77 83.5t129.5 55.5t173 33t220 16l4 166q4 146 -66 220.5t-198 74.5q-103 0 -205 -57l-29 -205h-49q-28 28 -28 82
q0 96 99 164.5t232 68.5q131 0 208.5 -72t86.5 -196h11q39 118 130.5 192t221.5 74q151 0 231 -99t80 -261q0 -79 -14 -150l-649 -37q1 -223 94.5 -338.5t245.5 -115.5q148 0 303 127zM1137 981q-139 0 -237 -120t-107 -333l587 47q4 54 4 82q0 160 -66.5 242t-180.5 82z
M373 35q97 0 198.5 51t192.5 145q-38 103 -41 246l-82 -6q-248 -17 -357.5 -76.5t-109.5 -179.5q0 -83 50.5 -131.5t148.5 -48.5zM1006 1587h20q29 -10 55 -47l-276 -350h-49z" />
    <glyph glyph-name="Oslashacute" unicode="&#x1fe;" horiz-adv-x="1402" 
d="M1262 1479l-162 -246q87 -93 131.5 -231.5t44.5 -303.5q0 -209 -69 -372t-204.5 -258t-318.5 -95q-201 0 -340 117l-154 -237l-38 16l-7 14l160 246q-88 94 -133 233.5t-45 305.5q0 210 68 372t203 255.5t319 93.5q205 0 344 -117l156 237l38 -16zM715 1331
q-81 0 -154 -23t-138.5 -74.5t-113 -126.5t-75 -186.5t-27.5 -248.5q0 -317 139 -488l674 1033q-120 114 -305 114zM688 31q103 0 192 39t161 117t113.5 209t41.5 300q0 314 -137 480l-674 -1033q121 -112 303 -112zM868 1829h23q30 -12 53 -45l-227 -303h-51z" />
    <glyph glyph-name="oslashacute" unicode="&#x1ff;" horiz-adv-x="1077" 
d="M920 1149l-115 -205q81 -70 122.5 -183.5t41.5 -248.5q0 -233 -120.5 -386t-322.5 -153q-125 0 -223 66l-98 -182l-41 12l-8 14l104 191q-75 70 -113 179.5t-38 240.5q0 233 120 386.5t322 153.5q125 0 211 -59l110 203l39 -15zM184 496q0 -241 113 -367l434 797
q-79 55 -182 55q-72 0 -136 -28t-116 -84t-82.5 -152t-30.5 -221zM532 27q71 0 133.5 27.5t114.5 83.5t82.5 151.5t30.5 220.5q0 257 -121 381l-436 -799q85 -65 196 -65zM735 1587h21q29 -10 55 -47l-276 -350h-50z" />
    <glyph glyph-name="Scommaaccent" unicode="&#x218;" horiz-adv-x="1060" 
d="M487 756l140 -68q60 -29 100 -51.5t83.5 -56t69 -68t42 -83.5t16.5 -107q0 -166 -118 -257.5t-312 -91.5q-187 0 -354 80q-15 102 -15 174q0 59 8 121l46 4l34 -262q130 -59 279 -59q71 0 131 14.5t112 45t81.5 86t29.5 130.5q0 37 -8 69t-19 56.5t-32.5 48t-39.5 39.5
t-50 35.5t-53.5 30.5t-59.5 30l-141 68q-55 26 -93.5 49t-79.5 56t-65.5 68.5t-40.5 85t-16 108.5q0 157 102.5 247.5t280.5 90.5q89 0 176 -22t151 -56q7 -79 7 -121q0 -80 -11 -174h-49l-20 262q-124 53 -258 53q-137 0 -222.5 -65.5t-85.5 -204.5q0 -49 13 -89.5
t32.5 -69.5t55 -56.5t69 -46t84.5 -43.5zM500 -129q28 0 47 -8q22 -42 22 -101q0 -158 -157 -256l-21 29q59 49 91 97t32 106q0 35 -4 51l-66 6l-2 70q24 6 58 6z" />
    <glyph glyph-name="scommaaccent" unicode="&#x219;" horiz-adv-x="909" 
d="M438 559l86 -39q70 -30 112 -53.5t79 -55.5t53 -72t16 -93q0 -130 -97.5 -201.5t-258.5 -71.5q-162 0 -295 70q-8 58 -8 107q0 79 8 124h49l25 -198q106 -49 225 -49q41 0 79 6t75.5 21t65 37.5t44.5 58.5t17 81q0 44 -14.5 77t-48 60t-66 44t-90.5 43l-86 37
q-55 25 -87 41.5t-68.5 41.5t-55.5 50t-32 61t-13 80q0 126 90 197t245 71q139 0 256 -55q9 -65 9 -105q0 -69 -9 -124h-47l-24 196q-88 35 -189 35q-113 0 -188.5 -49t-75.5 -150q0 -44 14 -76.5t47.5 -59t65.5 -43.5t92 -44zM449 -129q28 0 47 -8q22 -42 22 -101
q0 -157 -158 -256l-20 29q59 49 91 97t32 106q0 35 -4 51l-66 6l-2 70q24 6 58 6z" />
    <glyph glyph-name="uni021A" unicode="&#x21a;" horiz-adv-x="1206" 
d="M111 1362h983q6 -70 6 -125q0 -95 -10 -180h-50l-20 248l-381 10v-1264l242 -8v-43h-557v43l241 20v1252l-379 -10l-20 -248h-49q-11 93 -11 180q0 58 5 109v16zM598 -129q28 0 47 -8q23 -44 23 -101q0 -157 -158 -256l-21 29q59 49 91 97t32 106q0 35 -4 51l-65 6l-2 70
q24 6 57 6z" />
    <glyph glyph-name="uni021B" unicode="&#x21b;" horiz-adv-x="706" 
d="M641 84l14 -37q-113 -74 -235 -74q-90 0 -137 48t-47 159v774l-177 9v41l177 16l36 256l35 -2v-266h303v-54h-303v-766q0 -86 30.5 -121.5t98.5 -35.5q93 0 205 53zM391 -129q28 0 47 -8q23 -44 23 -101q0 -157 -158 -256l-20 29q59 49 91 97t32 106q0 31 -5 51l-65 6
l-2 70q24 6 57 6z" />
    <glyph glyph-name="uni0232" unicode="&#x232;" horiz-adv-x="1331" 
d="M1278 1319l-176 -21q-168 -372 -393 -806v-441l241 -8v-43h-557v43l242 20v424q-203 386 -406 824l-176 8v43h484v-43l-220 -21q168 -371 357 -733h12q176 337 354 746l-223 8v43h461v-43zM446 1673h447q4 -16 4 -31q0 -14 -4 -30h-447q-4 16 -4 30q0 15 4 31z" />
    <glyph glyph-name="uni0233" unicode="&#x233;" horiz-adv-x="1171" 
d="M1143 965l-154 -19q-70 -209 -187.5 -524t-191.5 -494q-24 -57 -47.5 -103.5t-56.5 -97.5t-67 -85t-78 -56t-91 -22q-60 0 -98 30l6 48h187q117 111 194 317q-229 572 -371 999l-159 7v43h411v-43l-170 -19q136 -415 324 -889h12q168 422 326 901l-191 7v43h402v-43z
M367 1384h446q4 -16 4 -30q0 -15 -4 -31h-446q-5 20 -5 31q0 10 5 30z" />
    <glyph glyph-name="uni0237" unicode="&#x237;" horiz-adv-x="534" 
d="M317 1016v-1116q0 -43 -4 -70t-16 -55.5t-39.5 -55.5t-68 -59t-107.5 -78l-29 29l193 192v1145l-176 13v43q155 16 231 20z" />
    <glyph glyph-name="uni0259" unicode="&#x259;" horiz-adv-x="987" 
d="M494 1034q81 0 147 -27.5t109.5 -74.5t73 -112t42.5 -137.5t13 -154.5q0 -253 -121 -404t-318 -151q-158 0 -238.5 98.5t-80.5 262.5q0 78 14 149h668v35q0 216 -85.5 335.5t-236.5 119.5q-146 0 -286 -125l-27 31q131 155 326 155zM449 27q143 0 238 106.5t112 306.5
l-602 -10q-4 -58 -4 -82q0 -160 67.5 -240.5t188.5 -80.5z" />
    <glyph glyph-name="uni02BB" unicode="&#x2bb;" horiz-adv-x="405" 
d="M299 1497l18 -35q-71 -41 -110 -97.5t-39 -143.5q0 -31 6 -58l88 -6l2 -92q-30 -6 -69 -6q-40 0 -64 8q-27 70 -27 129q0 217 195 301z" />
    <glyph glyph-name="afii57929" unicode="&#x2bc;" horiz-adv-x="405" 
d="M211 1483q39 0 63 -8q27 -70 27 -129q0 -216 -195 -302l-18 35q46 28 76.5 56.5t52 76.5t21.5 109q0 25 -7 57l-88 6l-2 93q30 6 70 6z" />
    <glyph glyph-name="circumflex" unicode="&#x2c6;" horiz-adv-x="628" 
d="M567 1221l-49 -31l-199 283h-12l-196 -275h-50l228 350h67z" />
    <glyph glyph-name="caron" unicode="&#x2c7;" horiz-adv-x="628" 
d="M311 1274h13l194 274h49l-227 -350h-66l-213 328l50 30z" />
    <glyph glyph-name="breve" unicode="&#x2d8;" horiz-adv-x="606" 
d="M61 1473l60 22q31 -203 186 -203t201 203l37 -14q-18 -119 -86 -183.5t-168 -64.5q-101 0 -159.5 64.5t-70.5 175.5z" />
    <glyph glyph-name="dotaccent" unicode="&#x2d9;" horiz-adv-x="233" 
d="M121 1450q21 0 33 -4q18 -30 18 -70q0 -48 -29 -100h-69l-13 164q23 10 60 10z" />
    <glyph glyph-name="ring" unicode="&#x2da;" horiz-adv-x="520" 
d="M270 1577q84 0 136.5 -49t52.5 -135q0 -93 -61 -145t-146 -52q-84 0 -137.5 49t-53.5 135q0 93 61 145t148 52zM262 1530q-65 0 -102 -40t-37 -104q0 -65 36.5 -104t100.5 -39q65 0 101 42t36 106q0 62 -35.5 100.5t-99.5 38.5z" />
    <glyph glyph-name="ogonek" unicode="&#x2db;" horiz-adv-x="489" 
d="M260 23l59 4q-98 -98 -144 -162.5t-46 -130.5q0 -61 40.5 -89t106.5 -28q64 0 140 37l12 -41q-57 -49 -164 -49q-100 0 -151.5 44t-51.5 116q0 76 51.5 146.5t147.5 152.5z" />
    <glyph glyph-name="tilde" unicode="&#x2dc;" horiz-adv-x="657" 
d="M569 1442l27 -23q-47 -90 -69 -116q-37 -43 -81 -43q-28 0 -71 30l-178 121l-109 -129l-27 25q3 5 13.5 25t14 26.5t13.5 23t15.5 23.5t15 19.5t17.5 17.5t18.5 12t21.5 9.5t23 2.5q24 0 70 -28l178 -123z" />
    <glyph glyph-name="hungarumlaut" unicode="&#x2dd;" horiz-adv-x="653" 
d="M207 1571h20q40 -9 62 -37l-183 -360h-45zM508 1571h20q40 -9 62 -37l-182 -360h-46z" />
    <glyph glyph-name="gravecomb" unicode="&#x300;" horiz-adv-x="0" 
d="M-260 1174h-49l-246 350q19 31 55 47h23z" />
    <glyph glyph-name="acutecomb" unicode="&#x301;" horiz-adv-x="0" 
d="M-305 1571h20q31 -11 56 -47l-277 -350h-49z" />
    <glyph glyph-name="uni0302" unicode="&#x302;" horiz-adv-x="0" 
d="M-70 1221l-49 -31l-198 283h-13l-196 -275h-49l227 350h67z" />
    <glyph glyph-name="tildecomb" unicode="&#x303;" horiz-adv-x="0" 
d="M-63 1442l26 -23q-3 -5 -12 -22t-12 -23t-11.5 -21.5t-13 -22t-13.5 -18.5t-15 -17.5t-15.5 -13.5t-17.5 -11.5t-18 -6.5t-21 -3q-29 0 -72 30l-178 121l-109 -129l-26 25q4 7 13.5 25t14 26t13.5 23.5t15 23t15 19.5t17 18t18.5 12.5t21.5 9t23 2.5q24 0 70 -28
l178 -123z" />
    <glyph glyph-name="uni0304" unicode="&#x304;" horiz-adv-x="0" 
d="M-571 1384h446q4 -16 4 -30q0 -15 -4 -31h-446q-4 16 -4 31q0 14 4 30z" />
    <glyph glyph-name="uni0306" unicode="&#x306;" horiz-adv-x="0" 
d="M-575 1473l59 22q31 -203 186 -203t201 203l37 -14q-18 -119 -86 -183.5t-168 -64.5q-101 0 -159 64.5t-70 175.5z" />
    <glyph glyph-name="uni0307" unicode="&#x307;" horiz-adv-x="0" 
d="M-496 1466q21 0 33 -4q19 -32 19 -69q0 -49 -29 -101h-70l-12 164q23 10 59 10z" />
    <glyph glyph-name="uni0308" unicode="&#x308;" horiz-adv-x="2" 
d="M-532 1446q22 0 32 -4q17 -28 17 -68t-25 -82h-65l-13 144q23 10 54 10zM-152 1446q23 0 33 -4q17 -28 17 -68t-25 -82h-66l-12 144q23 10 53 10z" />
    <glyph glyph-name="uni030A" unicode="&#x30a;" horiz-adv-x="0" 
d="M-346 1577q84 0 136 -49t52 -135q0 -93 -61 -145t-146 -52q-84 0 -137 49t-53 135q0 93 61 145t148 52zM-354 1530q-65 0 -102.5 -40t-37.5 -104q0 -65 37 -104t101 -39q65 0 101 42t36 106q0 62 -35.5 100.5t-99.5 38.5z" />
    <glyph glyph-name="uni030B" unicode="&#x30b;" horiz-adv-x="0" 
d="M-434 1571h20q40 -9 62 -37l-183 -360h-45zM-133 1571h20q40 -9 62 -37l-182 -360h-46z" />
    <glyph glyph-name="uni030C" unicode="&#x30c;" horiz-adv-x="0" 
d="M-334 1274h12l195 274h49l-227 -350h-66l-213 328l49 30z" />
    <glyph glyph-name="uni0312" unicode="&#x312;" horiz-adv-x="2" 
d="M-358 1571l22 -27q-60 -49 -92.5 -97t-32.5 -106q0 -19 4 -51l68 -6v-70q-24 -6 -57 -6q-27 0 -48 9q-22 42 -22 100q0 157 158 254z" />
    <glyph glyph-name="uni0326" unicode="&#x326;" horiz-adv-x="0" 
d="M-147 -129q28 0 47 -8q22 -42 22 -101q0 -157 -158 -256l-20 29q59 49 91 97t32 106q0 35 -4 51l-66 6l-2 70q24 6 58 6z" />
    <glyph glyph-name="uni0327" unicode="&#x327;" horiz-adv-x="0" 
d="M-266 12v-166q174 -11 174 -122q0 -67 -53.5 -113.5t-141.5 -46.5q-49 0 -98 14.5t-80 40.5l14 37q80 -39 150 -39q65 0 103 29t38 75q0 23 -10 39t-34 27t-49.5 17.5t-70.5 15.5h-2l17 192h43z" />
    <glyph glyph-name="uni0328" unicode="&#x328;" horiz-adv-x="2" 
d="M260 23l59 4q-98 -98 -144 -162.5t-46 -130.5q0 -61 40.5 -89t106.5 -28q64 0 140 37l12 -41q-57 -49 -164 -49q-100 0 -151.5 44t-51.5 116q0 76 51.5 146.5t147.5 152.5z" />
    <glyph glyph-name="uni0394" unicode="&#x394;" horiz-adv-x="1228" 
d="M1174 14l-7 -14h-1106l-6 16l535 1352l41 10h12zM141 59h940l-467 1198z" />
    <glyph glyph-name="uni03A9" unicode="&#x3a9;" horiz-adv-x="1396" 
d="M1329 168q0 -88 -12 -168h-2h-445v289q147 50 233.5 176.5t86.5 331.5q0 130 -36.5 232.5t-101 168t-151.5 99.5t-190 34q-100 0 -188.5 -33t-159.5 -97.5t-112.5 -171t-41.5 -243.5q0 -383 319 -497v-289h-446q-12 80 -12 168q0 55 8 102l47 2l25 -202l323 -11v203
q-158 47 -251 184t-93 338q0 127 39 237t111.5 192t184.5 129t251 47q138 0 246 -47t174.5 -128t100.5 -185t34 -224q0 -204 -93.5 -349.5t-252.5 -193.5v-203l325 11l25 202l47 -2q8 -47 8 -102z" />
    <glyph glyph-name="uni03BC" unicode="&#x3bc;" horiz-adv-x="1204" 
d="M1135 47v-41q-141 -18 -234 -20l-16 4l10 143h-12q-174 -160 -363 -160q-181 0 -239 138l-11 -2l13 -537q-21 -8 -66 -8l-14 12l14 698v742q15 5 55 10l17 -8v-688q0 -297 241 -297q170 0 359 155v828q13 4 53 10l16 -8v-957z" />
    <glyph glyph-name="pi" unicode="&#x3c0;" horiz-adv-x="1275" 
d="M1006 47l176 -2v-39q-88 -20 -150 -20q-49 0 -73.5 19t-24.5 65q0 300 12 870h-584v-950q-24 -8 -65 -8l-16 8l16 499v449q-76 -5 -139 -37.5t-123 -107.5l-23 22q43 99 125.5 146t212.5 47h828l8 -11l-8 -57h-172v-893z" />
    <glyph glyph-name="Wgrave" unicode="&#x1e80;" horiz-adv-x="2072" 
d="M2013 1319l-178 -21q-137 -508 -391 -1302l-70 -23h-18q-172 544 -309 1049h-11q-94 -355 -311 -1026l-70 -23h-18q-256 795 -404 1338l-174 8v43h484v-43l-226 -21q117 -460 361 -1245h12q187 587 324 1061l-60 197l-159 8v43h485v-43l-244 -21h-4q240 -847 365 -1245
h12q242 783 365 1258l-222 8v43h461v-43zM1098 1481h-49l-181 286q23 29 54 45h22z" />
    <glyph glyph-name="wgrave" unicode="&#x1e81;" horiz-adv-x="1800" 
d="M1747 965l-152 -19q-116 -411 -295 -950l-65 -23h-18q-154 456 -297 969h-13q-112 -396 -307 -946l-65 -23h-19q-175 525 -303 985l-160 7v43h410v-43l-168 -19q93 -359 262 -889h12q205 597 310 955l65 22h19q130 -480 294 -977h13q162 503 268 901l-192 7v43h401v-43z
M965 1174h-50l-245 350q19 31 55 47h23z" />
    <glyph glyph-name="Wacute" unicode="&#x1e82;" horiz-adv-x="2072" 
d="M2013 1319l-178 -21q-137 -508 -391 -1302l-70 -23h-18q-172 544 -309 1049h-11q-94 -355 -311 -1026l-70 -23h-18q-256 795 -404 1338l-174 8v43h484v-43l-226 -21q117 -460 361 -1245h12q187 587 324 1061l-60 197l-159 8v43h485v-43l-244 -21h-4q240 -847 365 -1245
h12q242 783 365 1258l-222 8v43h461v-43zM1225 1829h22q30 -12 53 -45l-227 -303h-51z" />
    <glyph glyph-name="wacute" unicode="&#x1e83;" horiz-adv-x="1800" 
d="M1747 965l-152 -19q-116 -411 -295 -950l-65 -23h-18q-154 456 -297 969h-13q-112 -396 -307 -946l-65 -23h-19q-175 525 -303 985l-160 7v43h410v-43l-168 -19q93 -359 262 -889h12q205 597 310 955l65 22h19q130 -480 294 -977h13q162 503 268 901l-192 7v43h401v-43z
M1130 1571h21q29 -10 55 -47l-276 -350h-49z" />
    <glyph glyph-name="Wdieresis" unicode="&#x1e84;" horiz-adv-x="2072" 
d="M2013 1319l-178 -21q-137 -508 -391 -1302l-70 -23h-18q-172 544 -309 1049h-11q-94 -355 -311 -1026l-70 -23h-18q-256 795 -404 1338l-174 8v43h484v-43l-226 -21q117 -460 361 -1245h12q187 587 324 1061l-60 197l-159 8v43h485v-43l-244 -21h-4q240 -847 365 -1245
h12q242 783 365 1258l-222 8v43h461v-43zM1298 1724q11 0 35 -4q17 -34 17 -67q0 -45 -27 -84h-66l-12 145q35 10 53 10zM825 1724q15 0 35 -4q17 -28 17 -67q0 -42 -25 -84h-68l-14 145q35 10 55 10z" />
    <glyph glyph-name="wdieresis" unicode="&#x1e85;" horiz-adv-x="1800" 
d="M1747 965l-152 -19q-116 -411 -295 -950l-65 -23h-18q-154 456 -297 969h-13q-112 -396 -307 -946l-65 -23h-19q-175 525 -303 985l-160 7v43h410v-43l-168 -19q93 -359 262 -889h12q205 597 310 955l65 22h19q130 -480 294 -977h13q162 503 268 901l-192 7v43h401v-43z
M733 1446q23 0 33 -4q16 -27 16 -68q0 -42 -24 -82h-66l-12 144q23 10 53 10zM1114 1446q23 0 33 -4q16 -27 16 -68q0 -42 -24 -82h-66l-12 144q23 10 53 10z" />
    <glyph glyph-name="uni1E9E" unicode="&#x1e9e;" horiz-adv-x="1445" 
d="M809 1389q206 0 377 -68v-55q-128 -79 -191 -155.5t-63 -182.5q0 -42 9 -74.5t34 -67t49 -60t74 -73.5q52 -50 75 -73.5t59.5 -66t52.5 -73t29 -72t13 -85.5q0 -141 -103 -225.5t-255 -84.5q-139 0 -258 80q-13 82 -13 160q0 71 11 139h51l31 -280q84 -41 176 -41
q124 0 204 66.5t80 174.5q0 39 -12.5 77t-27.5 65.5t-48.5 66.5t-53.5 59t-65 64q-51 49 -76.5 76t-54.5 67t-41 80t-12 88q0 113 69.5 205t192.5 156v12q-145 43 -301 43q-112 0 -196.5 -23.5t-149 -76.5t-98 -145t-33.5 -222v-864h-278v43l204 20v805q0 115 28 205.5
t76 149t117.5 96.5t147 54t170.5 16z" />
    <glyph glyph-name="Ygrave" unicode="&#x1ef2;" horiz-adv-x="1331" 
d="M1278 1319l-176 -21q-168 -372 -393 -806v-441l241 -8v-43h-557v43l242 20v424q-203 386 -406 824l-176 8v43h484v-43l-220 -21q168 -371 357 -733h12q176 337 354 746l-223 8v43h461v-43zM707 1481h-50l-180 286q24 30 53 45h23z" />
    <glyph glyph-name="ygrave" unicode="&#x1ef3;" horiz-adv-x="1171" 
d="M1143 965l-154 -19q-70 -209 -187.5 -524t-191.5 -494q-24 -57 -47.5 -103.5t-56.5 -97.5t-67 -85t-78 -56t-91 -22q-60 0 -98 30l6 48h187q117 111 194 317q-229 572 -371 999l-159 7v43h411v-43l-170 -19q136 -415 324 -889h12q168 422 326 901l-191 7v43h402v-43z
M633 1174h-49l-246 350q19 31 55 47h23z" />
    <glyph glyph-name="uni2007" unicode="&#x2007;" horiz-adv-x="1134" 
 />
    <glyph glyph-name="uni2008" unicode="&#x2008;" horiz-adv-x="405" 
 />
    <glyph glyph-name="uni2009" unicode="&#x2009;" horiz-adv-x="358" 
 />
    <glyph glyph-name="uni200B" unicode="&#x200b;" horiz-adv-x="0" 
 />
    <glyph glyph-name="endash" unicode="&#x2013;" horiz-adv-x="1024" 
d="M895 571h-764v60h764v-60z" />
    <glyph glyph-name="emdash" unicode="&#x2014;" horiz-adv-x="2048" 
d="M1851 571h-1654v60h1654v-60z" />
    <glyph glyph-name="quoteleft" unicode="&#x2018;" horiz-adv-x="405" 
d="M299 1497l18 -35q-71 -41 -110 -97.5t-39 -143.5q0 -31 6 -58l88 -6l2 -92q-30 -6 -69 -6q-40 0 -64 8q-27 70 -27 129q0 217 195 301z" />
    <glyph glyph-name="quoteright" unicode="&#x2019;" horiz-adv-x="405" 
d="M211 1483q39 0 63 -8q27 -70 27 -129q0 -216 -195 -302l-18 35q46 28 76.5 56.5t52 76.5t21.5 109q0 25 -7 57l-88 6l-2 93q30 6 70 6z" />
    <glyph glyph-name="quotesinglbase" unicode="&#x201a;" horiz-adv-x="405" 
d="M211 104q39 0 63 -8q27 -70 27 -129q0 -213 -195 -303l-18 35q72 45 111 100t39 144q0 25 -7 57l-88 6l-2 90q27 8 70 8z" />
    <glyph glyph-name="quotedblleft" unicode="&#x201c;" horiz-adv-x="761" 
d="M655 1497l19 -35q-71 -41 -110.5 -97.5t-39.5 -143.5q0 -31 6 -58l88 -6l3 -92q-30 -6 -70 -6t-64 8q-26 67 -26 129q0 217 194 301zM299 1497l18 -35q-71 -41 -110 -97.5t-39 -143.5q0 -31 6 -58l88 -6l2 -92q-30 -6 -69 -6q-40 0 -64 8q-27 70 -27 129q0 217 195 301z
" />
    <glyph glyph-name="quotedblright" unicode="&#x201d;" horiz-adv-x="761" 
d="M567 1483q40 0 64 -8q26 -67 26 -129q0 -216 -194 -302l-19 35q46 28 76.5 56.5t52 76.5t21.5 109q0 30 -6 57l-88 6l-2 93q30 6 69 6zM211 1483q39 0 63 -8q27 -70 27 -129q0 -216 -195 -302l-18 35q46 28 76.5 56.5t52 76.5t21.5 109q0 25 -7 57l-88 6l-2 93q30 6 70 6
z" />
    <glyph glyph-name="quotedblbase" unicode="&#x201e;" horiz-adv-x="761" 
d="M567 104q40 0 64 -8q26 -67 26 -129q0 -214 -194 -303l-19 35q72 45 111 100t39 144q0 30 -6 57l-88 6l-2 90q27 8 69 8zM211 104q39 0 63 -8q27 -70 27 -129q0 -213 -195 -303l-18 35q72 45 111 100t39 144q0 25 -7 57l-88 6l-2 90q27 8 70 8z" />
    <glyph glyph-name="dagger" unicode="&#x2020;" horiz-adv-x="948" 
d="M436 1516h68q4 -25 4 -76q0 -102 -19 -248h-38q-19 146 -19 248q0 51 4 76zM145 1145q102 0 248 -19v-39q-118 -18 -248 -18q-50 0 -75 2v70q50 4 75 4zM803 1145q26 0 76 -4v-70q-25 -2 -76 -2q-130 0 -248 18v39q146 19 248 19zM451 1026h38q19 -116 19 -270
q0 -184 -19 -437h-38q-17 227 -17 437q0 151 17 270z" />
    <glyph glyph-name="daggerdbl" unicode="&#x2021;" horiz-adv-x="989" 
d="M457 1516h67q4 -25 4 -76q0 -110 -18 -248h-39q-18 138 -18 248q0 51 4 76zM166 1145q102 0 248 -19v-39q-118 -18 -248 -18q-51 0 -76 2v70q50 4 76 4zM823 1145q26 0 76 -4v-70q-25 -2 -76 -2q-130 0 -248 18v39q146 19 248 19zM471 1026h39q18 -110 18 -268
q0 -159 -18 -269h-39q-16 112 -16 269q0 156 16 268zM166 446q130 0 248 -18v-39q-138 -18 -248 -18q-26 0 -76 4v69q25 2 76 2zM823 446q51 0 76 -2v-69q-50 -4 -76 -4q-110 0 -248 18v39q118 18 248 18zM471 324h39q18 -138 18 -248q0 -51 -4 -76h-67q-4 25 -4 76
q0 110 18 248z" />
    <glyph glyph-name="bullet" unicode="&#x2022;" horiz-adv-x="626" 
d="M313 752q74 0 113 -41t39 -113t-39 -113t-113 -41t-112.5 41t-38.5 113t38.5 113t112.5 41z" />
    <glyph glyph-name="ellipsis" unicode="&#x2026;" horiz-adv-x="1232" 
d="M1036 182q11 0 35 -4q19 -36 19 -76q0 -54 -25 -102h-76l-16 168q28 14 63 14zM209 182q11 0 35 -4q18 -34 18 -76q0 -56 -24 -102h-76l-17 168q28 14 64 14zM618 182q11 0 35 -4q19 -36 19 -76q0 -54 -25 -102h-76l-16 168q28 14 63 14z" />
    <glyph glyph-name="perthousand" unicode="&#x2030;" horiz-adv-x="2320" 
d="M1944 731q133 0 200.5 -102t67.5 -271q0 -181 -74.5 -283t-210.5 -102q-132 0 -200 100t-68 269q0 179 75 284t210 105zM1937 684q-105 0 -159 -87t-54 -249t53 -245t156 -83q104 0 158.5 84t54.5 246q0 161 -52.5 247.5t-156.5 86.5zM1300 1266l5 -15q-44 -63 -194 -276
t-232 -336q-80 -117 -227.5 -342t-215.5 -326l-45 19l-4 14q73 110 224 325.5t225 325.5q65 97 204.5 307.5t214.5 321.5zM395 1245q133 0 201 -102t68 -271q0 -181 -74.5 -283t-210.5 -102q-132 0 -200 100t-68 269q0 179 74.5 284t209.5 105zM389 1198q-105 0 -159 -87
t-54 -249q0 -327 209 -327q105 0 159 83.5t54 245.5q0 160 -52.5 247t-156.5 87zM1272 731q133 0 200.5 -102t67.5 -271q0 -181 -74.5 -283t-210.5 -102q-132 0 -200 100t-68 269q0 179 75 284t210 105zM1268 684q-105 0 -159 -87t-54 -249t53 -245t156 -83q104 0 158.5 84
t54.5 246q0 160 -52.5 247t-156.5 87z" />
    <glyph glyph-name="minute" unicode="&#x2032;" horiz-adv-x="405" 
d="M281 1468l-109 -444h-47l76 453q40 8 67 8z" />
    <glyph glyph-name="second" unicode="&#x2033;" horiz-adv-x="778" 
d="M281 1468l-109 -444h-47l76 453q40 8 67 8zM653 1468l-108 -444h-47l75 453q40 8 68 8z" />
    <glyph glyph-name="uni2034" unicode="&#x2034;" horiz-adv-x="1159" 
d="M281 1468l-109 -444h-47l76 453q40 8 67 8zM649 1468l-108 -444h-47l75 453q40 8 68 8zM1034 1468l-108 -444h-47l75 453q40 8 68 8z" />
    <glyph glyph-name="guilsinglleft" unicode="&#x2039;" horiz-adv-x="622" 
d="M451 897l-234 -336l234 -338l-35 -26l-281 352v22l281 355z" />
    <glyph glyph-name="guilsinglright" unicode="&#x203a;" horiz-adv-x="622" 
d="M487 571v-22l-280 -352l-35 26l234 338l-234 336l35 29z" />
    <glyph glyph-name="fraction" unicode="&#x2044;" horiz-adv-x="548" 
d="M762 1366l4 -14q-72 -106 -223.5 -323.5t-231.5 -334.5q-76 -113 -235.5 -353t-243.5 -364l-45 19l-4 14q369 531 483 701q85 123 237 352t214 321z" />
    <glyph glyph-name="uni2070" unicode="&#x2070;" horiz-adv-x="708" 
d="M360 1501q124 0 188 -95.5t64 -260.5q0 -175 -70 -274t-194 -99t-188 95.5t-64 260.5q0 175 70 274t194 99zM356 1456q-198 0 -198 -321q0 -158 49.5 -239t144.5 -81q97 0 148 82t51 244q0 154 -49.5 234.5t-145.5 80.5z" />
    <glyph glyph-name="uni2074" unicode="&#x2074;" horiz-adv-x="591" 
d="M541 928h-131v-142h-56v142h-293l-10 33q132 280 223 542l52 -16l4 -12q-91 -248 -232 -500l4 -8q74 6 150 6h102v186l41 17l15 -5v-198h131v-45z" />
    <glyph glyph-name="uni2075" unicode="&#x2075;" horiz-adv-x="573" 
d="M481 1501l13 -28q-73 -58 -181 -58q-81 0 -137 33l-20 -236q74 9 106 9q110 0 180 -57.5t70 -159.5q0 -100 -68 -166t-182 -66q-80 0 -132 34.5t-52 96.5q0 38 18 62h39l23 -138q49 -12 102 -12q86 0 138.5 47.5t52.5 134.5q0 173 -215 179l-117 2l12 313l49 10
q76 -37 144 -37q76 0 157 37z" />
    <glyph glyph-name="uni2076" unicode="&#x2076;" horiz-adv-x="673" 
d="M379 1245q98 0 155.5 -64.5t57.5 -160.5q0 -106 -69 -177t-177 -71q-120 0 -185 89.5t-65 240.5q0 186 96 292.5t254 106.5q40 0 80 -8l-4 -33q-77 4 -136.5 -9.5t-109 -47.5t-80 -98t-38.5 -156h12q101 96 209 96zM350 817q79 0 128.5 50t49.5 147q0 85 -41 134.5
t-122 49.5q-105 0 -207 -102v-15q0 -122 48.5 -193t143.5 -71z" />
    <glyph glyph-name="uni2077" unicode="&#x2077;" horiz-adv-x="532" 
d="M498 1485l12 -35q-126 -162 -206 -315.5t-83 -260.5l43 -90l-35 -20q-67 27 -67 113q0 97 86.5 260t208.5 305l-4 8l-332 -12l-15 -111h-36q-9 37 -9 84q0 24 5 74h432z" />
    <glyph glyph-name="uni2078" unicode="&#x2078;" horiz-adv-x="653" 
d="M395 1159v-12q158 -57 158 -186q0 -92 -65 -140.5t-162 -48.5q-100 0 -163 48.5t-63 135.5q0 128 152 187v12q-66 26 -102.5 70.5t-36.5 101.5q0 83 66.5 128.5t154.5 45.5t146.5 -45.5t58.5 -126.5q0 -120 -144 -170zM174 1331q0 -52 34.5 -85.5t113.5 -65.5l32 -13
q67 37 96 72.5t29 87.5q0 62 -41 96.5t-108 34.5q-68 0 -112 -33t-44 -94zM326 815q73 0 120.5 36.5t47.5 106.5q0 56 -36.5 90.5t-123.5 67.5l-41 19q-71 -40 -102 -81t-31 -96q0 -69 46 -106t120 -37z" />
    <glyph glyph-name="uni2079" unicode="&#x2079;" horiz-adv-x="673" 
d="M328 1501q120 0 185 -89.5t65 -240.5q0 -186 -96.5 -292.5t-254.5 -106.5q-44 0 -80 8l3 31q77 -3 137 10.5t109.5 48t79.5 98t38 154.5h-12q-98 -94 -207 -94q-98 0 -155.5 64.5t-57.5 160.5q0 106 68.5 177t177.5 71zM309 1075q102 0 205 103v12q0 124 -48 195t-144 71
q-78 0 -128.5 -50t-50.5 -146q0 -85 42 -135t124 -50z" />
    <glyph glyph-name="uni2080" unicode="&#x2080;" horiz-adv-x="708" 
d="M360 559q124 0 188 -95.5t64 -260.5q0 -175 -70 -274t-194 -99t-188 95.5t-64 260.5q0 175 70 274t194 99zM356 514q-198 0 -198 -321q0 -158 49.5 -239t144.5 -81q97 0 148 82t51 244q0 154 -49.5 234.5t-145.5 80.5z" />
    <glyph glyph-name="uni2081" unicode="&#x2081;" horiz-adv-x="495" 
d="M449 -121v-33h-371v33l160 15v579q-55 -40 -158 -51l-4 39q131 20 190 100l29 -2v-674z" />
    <glyph glyph-name="uni2082" unicode="&#x2082;" horiz-adv-x="555" 
d="M449 -6h38q9 -35 9 -72q0 -36 -7 -76h-432l-10 41q19 16 67 56t67.5 57t59 52.5t57.5 56.5t44 54t38 59.5t21 59t9 64.5q0 78 -44.5 125t-117.5 47q-61 0 -121 -24l-18 -132h-41q-19 28 -19 58q0 63 61.5 102t141.5 39q100 0 159.5 -60.5t59.5 -154.5q0 -42 -11.5 -81.5
t-39 -79.5t-54.5 -71.5t-76 -74t-84 -70t-97 -75.5l4 -13q47 6 159 6l164 7z" />
    <glyph glyph-name="uni2083" unicode="&#x2083;" horiz-adv-x="638" 
d="M283 561q92 0 149 -48.5t57 -129.5q0 -123 -137 -162v-12q81 -13 119.5 -58.5t38.5 -113.5q0 -94 -66.5 -149.5t-175.5 -55.5q-89 0 -148 37.5t-59 101.5q0 27 17 58h41l18 -131q75 -23 129 -23q86 0 134.5 43t48.5 119q0 71 -46 113.5t-145 42.5h-53v40h110
q113 48 113 150q0 64 -41 99.5t-111 35.5q-62 0 -126 -24l-19 -129h-37q-18 27 -18 57q0 62 62.5 100.5t144.5 38.5z" />
    <glyph glyph-name="uni2084" unicode="&#x2084;" horiz-adv-x="591" 
d="M541 -14h-131v-142h-56v142h-293l-10 32q130 277 223 543l52 -16l4 -13q-90 -245 -232 -499l4 -8q73 6 150 6h102v186l41 16l15 -4v-198h131v-45z" />
    <glyph glyph-name="uni2085" unicode="&#x2085;" horiz-adv-x="573" 
d="M481 559l13 -29q-72 -57 -181 -57q-81 0 -137 33l-20 -236q74 9 106 9q110 0 180 -58t70 -160q0 -100 -68 -165.5t-182 -65.5q-80 0 -132 34.5t-52 96.5q0 38 18 62h39l23 -138q49 -12 102 -12q86 0 138.5 47.5t52.5 134.5q0 172 -215 178l-117 3l12 313l49 10
q76 -37 144 -37q76 0 157 37z" />
    <glyph glyph-name="uni2086" unicode="&#x2086;" horiz-adv-x="673" 
d="M379 303q98 0 155.5 -64.5t57.5 -160.5q0 -106 -69 -177t-177 -71q-120 0 -185 89.5t-65 240.5q0 186 96 292.5t254 106.5q40 0 80 -8l-4 -33q-77 4 -136.5 -9.5t-109 -47.5t-80 -98t-38.5 -156h12q101 96 209 96zM350 -125q79 0 128.5 50t49.5 147q0 85 -41 134.5
t-122 49.5q-105 0 -207 -102v-15q0 -122 48.5 -193t143.5 -71z" />
    <glyph glyph-name="uni2087" unicode="&#x2087;" horiz-adv-x="532" 
d="M498 543l12 -35q-126 -162 -206 -315.5t-83 -260.5l43 -90l-35 -20q-67 27 -67 112q0 97 86.5 260.5t208.5 305.5l-4 8l-332 -12l-15 -111h-36q-9 37 -9 84q0 24 5 74h432z" />
    <glyph glyph-name="uni2088" unicode="&#x2088;" horiz-adv-x="653" 
d="M395 219v-12q158 -57 158 -187q0 -92 -65 -140t-162 -48q-100 0 -163 48.5t-63 135.5q0 128 152 187v12q-66 26 -102.5 70.5t-36.5 101.5q0 83 66.5 128.5t154.5 45.5t146.5 -45.5t58.5 -126.5q0 -120 -144 -170zM174 391q0 -52 34.5 -85.5t113.5 -65.5l32 -13
q67 37 96 72.5t29 87.5q0 62 -41 96.5t-108 34.5q-68 0 -112 -33t-44 -94zM326 -125q73 0 120.5 36.5t47.5 106.5q0 56 -36.5 90.5t-123.5 67.5l-41 19q-71 -40 -102 -81t-31 -96q0 -69 46 -106t120 -37z" />
    <glyph glyph-name="uni2089" unicode="&#x2089;" horiz-adv-x="673" 
d="M328 561q120 0 185 -89.5t65 -240.5q0 -186 -96.5 -292.5t-254.5 -106.5q-44 0 -80 8l3 31q77 -3 137 10.5t109.5 48t79.5 98t38 154.5h-12q-98 -94 -207 -94q-98 0 -155.5 64.5t-57.5 160.5q0 106 68.5 177t177.5 71zM309 135q102 0 205 103v12q0 124 -48 195t-144 71
q-78 0 -128.5 -50t-50.5 -147q0 -85 42 -134.5t124 -49.5z" />
    <glyph glyph-name="Euro" unicode="&#x20ac;" horiz-adv-x="1167" 
d="M1051 162l22 -33q-144 -156 -348 -156q-100 0 -179.5 37.5t-131.5 103.5t-83.5 147t-45.5 177h-187v54h178q-4 70 -4 104q0 68 9 129h-183v53h191q37 212 159 339.5t316 127.5q125 0 208 -54.5t83 -160.5q0 -44 -27 -90h-49l-29 213q-93 37 -190 37q-157 0 -259.5 -110
t-135.5 -302h411v-53h-420q-6 -59 -6 -123q0 -58 6 -110h420v-54h-414q29 -189 124 -297t249 -108q159 0 316 129z" />
    <glyph glyph-name="uni20B9" unicode="&#x20b9;" horiz-adv-x="897" 
d="M496 1165l-4 -12q137 -67 153 -221h154v-53h-152q-2 -115 -61.5 -197.5t-153.5 -121t-209 -38.5l-2 -10q76 -77 216.5 -242t193.5 -221l131 -10l-2 -37q-53 -16 -101 -16q-40 0 -67.5 14.5t-65.5 56.5q-33 37 -176.5 209.5t-222.5 261.5l16 45h179q240 74 245 306h-469
v53h467q-9 89 -59.5 145.5t-145.5 87.5h-262v54h701v-54h-303z" />
    <glyph glyph-name="uni20BA" unicode="&#x20ba;" horiz-adv-x="1046" 
d="M889 545l55 6q19 -78 19 -141q0 -84 -29.5 -158.5t-86 -133.5t-149 -93.5t-209.5 -34.5q-109 0 -186 24v533l-184 -72l-10 10v43l194 78v234l-184 -72l-10 12v43l194 76v326q27 10 59 10l13 -10v-297l289 112l10 -10v-45l-299 -117v-235l289 115l10 -11v-45l-299 -117
v-526q62 -4 94 -4q94 0 169 23t123 60t80 88t45 104t13 110t-10 115z" />
    <glyph glyph-name="uni20BD" unicode="&#x20bd;" horiz-adv-x="1118" 
d="M436 569v-233h447v-53h-447v-232l262 -8v-43h-538v43l205 20v220h-256v53h256v233h-256v54h256v544l-201 9v43q211 6 465 6q196 0 291.5 -85.5t95.5 -236.5q0 -162 -100.5 -248t-274.5 -86h-205zM436 623h195q150 0 228.5 71.5t78.5 204.5q0 131 -79 201.5t-236 70.5
h-187v-548z" />
    <glyph glyph-name="afii61289" unicode="&#x2113;" horiz-adv-x="751" 
d="M655 152l25 -29q-47 -70 -112.5 -110t-139.5 -40q-217 0 -217 342q-63 -47 -160 -90l-14 41q98 42 174 103v632q0 133 12 229.5t39.5 168.5t74 107.5t112.5 35.5q96 0 135 -76.5t39 -224.5q0 -250 -87.5 -489t-254.5 -392v-43q0 -288 163 -288q104 0 211 123zM440 1489
q-85 0 -122 -108.5t-37 -354.5v-604q140 151 209 368.5t69 442.5q0 129 -27 192.5t-92 63.5z" />
    <glyph glyph-name="afii61352" unicode="&#x2116;" horiz-adv-x="2076" 
d="M1278 1378q26 0 41 -6l6 -45l-170 -63q-57 -84 -78.5 -180.5t-21.5 -239.5q0 -262 67 -842l-63 -20h-15l-530 882q-84 136 -131 226h-12q30 -350 30 -691q0 -223 -57.5 -325.5t-185.5 -102.5q-72 0 -121 29l6 45h213q49 57 67.5 138.5t18.5 222.5q0 164 -27 692l-202 6
v45h309l508 -846q86 -145 127 -217h12q-35 202 -54.5 413.5t-19.5 352.5q0 251 69.5 388.5t213.5 137.5zM1675 1245q137 0 210 -104.5t73 -259.5q0 -164 -82.5 -266.5t-216.5 -102.5q-138 0 -211.5 103t-73.5 257q0 162 82.5 267.5t218.5 105.5zM1669 1196q-109 0 -170 -85
t-61 -237q0 -147 58 -230t167 -83t170 83t61 235q0 149 -58.5 233t-166.5 84zM1858 213h-379v57h379v-57z" />
    <glyph glyph-name="uni2117" unicode="&#x2117;" horiz-adv-x="1658" 
d="M842 1389q197 0 354 -86.5t246.5 -246.5t89.5 -366q0 -159 -55.5 -294.5t-151 -227.5t-226 -143.5t-278.5 -51.5q-149 0 -277.5 52t-220 143.5t-144 222.5t-52.5 283q0 158 55.5 292.5t151.5 226.5t227.5 144t280.5 52zM823 25q174 0 319.5 79t234.5 232t89 352
q0 194 -85.5 343.5t-228 227.5t-316.5 78q-131 0 -248 -46t-205.5 -129t-140.5 -208t-52 -274q0 -194 86.5 -345t230 -230.5t316.5 -79.5zM858 1063q136 0 207.5 -64t71.5 -174q0 -105 -65 -168t-163 -63q-18 0 -82 8v39h45q189 0 189 182q0 91 -50.5 141t-152.5 50h-102
v-668l141 -6v-39h-322v39l111 14v658l-111 6v39q102 6 283 6z" />
    <glyph glyph-name="trademark" unicode="&#x2122;" horiz-adv-x="1705" 
d="M606 1362h2q2 -29 2 -68q0 -50 -6 -112h-43l-12 135l-189 6v-688l127 -6v-37h-319v37l129 14v680l-188 -6l-13 -135h-43q-6 62 -6 112q0 39 2 68h557zM1651 629v-37h-301v37l114 16q-3 139 -34 674h-13q-8 -33 -39 -121l-194 -559l-58 -23h-14l-203 586q-14 42 -32 117
h-13q-8 -121 -21 -377.5t-16 -306.5l131 -6v-37h-299v37l121 16q12 338 41 674l-114 8v35h215q147 -419 223 -668h12q27 89 67.5 208t93.5 270t66 190h224v-35l-123 -16q32 -425 41 -676z" />
    <glyph glyph-name="Omega" unicode="&#x2126;" horiz-adv-x="1396" 
d="M1329 168q0 -88 -12 -168h-2h-445v289q147 50 233.5 176.5t86.5 331.5q0 130 -36.5 232.5t-101 168t-151.5 99.5t-190 34q-100 0 -188.5 -33t-159.5 -97.5t-112.5 -171t-41.5 -243.5q0 -383 319 -497v-289h-446q-12 80 -12 168q0 55 8 102l47 2l25 -202l323 -11v203
q-158 47 -251 184t-93 338q0 127 39 237t111.5 192t184.5 129t251 47q138 0 246 -47t174.5 -128t100.5 -185t34 -224q0 -204 -93.5 -349.5t-252.5 -193.5v-203l325 11l25 202l47 -2q8 -47 8 -102z" />
    <glyph glyph-name="estimated" unicode="&#x212e;" horiz-adv-x="1333" 
d="M313 492v-302q63 -90 165.5 -134t217.5 -44q136 0 249.5 56t182.5 135l23 -25q-78 -96 -197.5 -150.5t-261.5 -54.5q-164 0 -298 71t-209.5 192.5t-75.5 267.5q0 145 75 267t203.5 192.5t280.5 70.5t280 -70.5t202.5 -192t74.5 -265.5v-14h-912zM672 995
q-106 0 -200 -44.5t-159 -133.5v-291h709v291q-129 178 -350 178z" />
    <glyph glyph-name="uni2150" unicode="&#x2150;" horiz-adv-x="1757" 
d="M1350 1366l4 -14q-72 -106 -223.5 -323.5t-231.5 -334.5q-76 -113 -235.5 -353t-243.5 -364l-45 19l-4 14q369 531 483 701q85 123 237 352t214 321zM535 573v-36h-447v36l193 15h2v696q-79 -51 -191 -61l-4 43q147 19 231 118l29 -2v-802zM1720 825l11 -34
q-195 -257 -276.5 -409t-84.5 -294l62 -100l-37 -25q-51 21 -69.5 56t-18.5 85q0 117 85 276t281 396l-4 10l-412 -12l-18 -133h-41q-8 36 -8 96q0 47 8 88h522z" />
    <glyph glyph-name="uni2151" unicode="&#x2151;" horiz-adv-x="1855" 
d="M1350 1366l4 -14q-72 -106 -223.5 -323.5t-231.5 -334.5q-76 -113 -235.5 -353t-243.5 -364l-45 19l-4 14q369 531 483 701q85 123 237 352t214 321zM535 573v-36h-447v36l193 15h2v696q-79 -51 -191 -61l-4 43q147 19 231 118l29 -2v-802zM1444 852q145 0 223 -102
t78 -283q0 -224 -118 -358t-318 -134q-45 0 -80 7l2 38q419 -14 446 394h-12q-119 -113 -258 -113q-119 0 -189.5 77.5t-70.5 190.5q0 123 83 203t214 80zM1423 352q70 0 130.5 32t123.5 97q0 165 -62 243.5t-173 78.5q-99 0 -162 -56.5t-63 -168.5q0 -101 52.5 -163.5
t153.5 -62.5z" />
    <glyph glyph-name="uni2152" unicode="&#x2152;" horiz-adv-x="2535" 
d="M1350 1366l4 -14q-72 -106 -223.5 -323.5t-231.5 -334.5q-76 -113 -235.5 -353t-243.5 -364l-45 19l-4 14q369 531 483 701q85 123 237 352t214 321zM535 573v-36h-447v36l193 15h2v696q-79 -51 -191 -61l-4 43q147 19 231 118l29 -2v-802zM2122 852q149 0 227 -115.5
t78 -314.5q0 -208 -84.5 -327.5t-235.5 -119.5q-149 0 -227 116.5t-78 316.5q0 207 84.5 325.5t235.5 118.5zM2116 803q-120 0 -183 -97.5t-63 -293.5q0 -387 241 -387q119 0 182.5 97t63.5 296q0 385 -241 385zM1638 37v-37h-446v37l192 14h2v697q-81 -52 -190 -62l-4 43
q146 19 231 119l29 -2v-803z" />
    <glyph glyph-name="onethird" unicode="&#x2153;" horiz-adv-x="1822" 
d="M1350 1366l4 -14q-72 -106 -223.5 -323.5t-231.5 -334.5q-76 -113 -235.5 -353t-243.5 -364l-45 19l-4 14q369 531 483 701q85 123 237 352t214 321zM535 573v-36h-447v36l193 15h2v696q-79 -51 -191 -61l-4 43q147 19 231 118l29 -2v-802zM1520 442v-12
q90 -16 140 -67.5t50 -139.5q0 -115 -82 -181.5t-213 -66.5q-110 0 -179 46t-69 122q0 39 21 66h45l20 -150q69 -34 154 -34q48 0 87.5 9.5t74 31t54 60.5t19.5 93q0 193 -245 193h-58v47h136q30 13 49 24.5t43 32.5t36.5 52t12.5 71q0 82 -50 123t-141 41q-82 0 -161 -37
l-19 -148h-45q-20 30 -20 66q0 73 76 120.5t180 47.5q114 0 182 -57.5t68 -151.5q0 -83 -49 -131t-117 -70z" />
    <glyph glyph-name="twothirds" unicode="&#x2154;" horiz-adv-x="1898" 
d="M1425 1366l5 -14q-72 -106 -223.5 -323.5t-231.5 -334.5q-76 -113 -235.5 -353t-243.5 -364l-45 19l-5 14q396 570 484 701q85 123 235.5 350.5t214.5 322.5zM543 702h45q6 -34 6 -77q0 -47 -8 -88h-523l-10 43q30 26 87.5 73t91.5 76t82 73t76.5 80t57 80t41.5 89.5
t13 93.5q0 91 -49.5 142.5t-141.5 51.5q-81 0 -153 -34l-21 -152h-45q-20 26 -20 66q0 74 74.5 122t172.5 48q115 0 182.5 -68t67.5 -172q0 -59 -24 -118.5t-62 -112t-100.5 -113t-122.5 -109.5t-145 -112l4 -11q61 8 198 11l211 6zM1595 442v-12q90 -16 140.5 -67.5
t50.5 -139.5q0 -115 -82 -181.5t-213 -66.5q-110 0 -179 46t-69 122q0 39 21 66h45l20 -150q69 -34 154 -34q48 0 87.5 9.5t74 31t54 60.5t19.5 93q0 193 -245 193h-58v47h135q30 13 49 24.5t43.5 32.5t37 52t12.5 71q0 82 -50 123t-141 41q-83 0 -162 -37l-18 -148h-45
q-21 32 -21 66q0 73 76 120.5t180 47.5q114 0 182 -57.5t68 -151.5q0 -83 -49 -131t-117 -70z" />
    <glyph glyph-name="uni2155" unicode="&#x2155;" horiz-adv-x="1738" 
d="M1350 1366l4 -14q-72 -106 -223.5 -323.5t-231.5 -334.5q-76 -113 -235.5 -353t-243.5 -364l-45 19l-4 14q369 531 483 701q85 123 237 352t214 321zM535 573v-36h-447v36l193 15h2v696q-79 -51 -191 -61l-4 43q147 19 231 118l29 -2v-802zM1348 522q142 0 230.5 -70.5
t88.5 -199.5q0 -125 -82.5 -201t-214.5 -76q-106 0 -174 47.5t-68 120.5q0 39 21 66h47l21 -150q64 -34 141 -34q112 0 175.5 55.5t63.5 163.5q0 218 -282 227l-129 6h-2l16 365l45 10q105 -43 195 -43q77 0 182 43l14 -35q-78 -65 -209 -65q-109 0 -180 41l-22 -281
q72 10 123 10z" />
    <glyph glyph-name="uni2156" unicode="&#x2156;" horiz-adv-x="1814" 
d="M1425 1366l5 -14q-72 -106 -223.5 -323.5t-231.5 -334.5q-76 -113 -235.5 -353t-243.5 -364l-45 19l-5 14q396 570 484 701q85 123 235.5 350.5t214.5 322.5zM543 702h45q6 -34 6 -77q0 -47 -8 -88h-523l-10 43q30 26 87.5 73t91.5 76t82 73t76.5 80t57 80t41.5 89.5
t13 93.5q0 91 -49.5 142.5t-141.5 51.5q-81 0 -153 -34l-21 -152h-45q-20 26 -20 66q0 74 74.5 122t172.5 48q115 0 182.5 -68t67.5 -172q0 -59 -24 -118.5t-62 -112t-100.5 -113t-122.5 -109.5t-145 -112l4 -11q61 8 198 11l211 6zM1423 522q142 0 231 -70.5t89 -199.5
q0 -125 -82.5 -201t-214.5 -76q-106 0 -174 47.5t-68 120.5q0 39 21 66h47l20 -150q64 -34 142 -34q112 0 175.5 55.5t63.5 163.5q0 218 -282 227l-129 6h-2l16 365l45 10q105 -43 195 -43q77 0 182 43l14 -35q-78 -65 -209 -65q-109 0 -180 41l-23 -281q72 10 123 10z" />
    <glyph glyph-name="uni2157" unicode="&#x2157;" horiz-adv-x="1794" 
d="M1405 1366l4 -14q-72 -106 -223.5 -323.5t-231.5 -334.5q-76 -113 -235.5 -353t-243.5 -364l-45 19l-4 14q369 531 483 701q85 123 237 352t214 321zM422 979v-12q90 -16 140 -67.5t50 -139.5q0 -115 -82 -181.5t-213 -66.5q-110 0 -178.5 46t-68.5 122q0 39 20 65h45
l21 -149q72 -35 153 -35q37 0 70 5.5t64 20t53 36t35.5 55.5t13.5 78q0 192 -246 192h-57v47h135q29 13 48.5 24.5t43.5 32.5t36.5 52.5t12.5 71.5q0 82 -49.5 122.5t-140.5 40.5q-85 0 -162 -36l-19 -148h-45q-20 30 -20 66q0 73 76 120.5t180 47.5q114 0 182 -57.5
t68 -151.5q0 -83 -49 -131t-117 -70zM1403 522q142 0 230.5 -70.5t88.5 -199.5q0 -125 -82.5 -201t-214.5 -76q-106 0 -173.5 47.5t-67.5 120.5q0 40 20 66h47l21 -150q64 -34 141 -34q112 0 176 55.5t64 163.5q0 109 -72.5 165.5t-210.5 61.5l-129 6h-2l16 365l45 10
q105 -43 195 -43q77 0 182 43l15 -35q-78 -65 -209 -65q-109 0 -180 41l-23 -281q72 10 123 10z" />
    <glyph glyph-name="uni2158" unicode="&#x2158;" horiz-adv-x="1816" 
d="M1427 1366l5 -14q-72 -106 -223.5 -323.5t-231.5 -334.5q-76 -113 -235.5 -353t-243.5 -364l-45 19l-4 14q369 531 483 701q85 123 235.5 350.5t214.5 322.5zM655 709h-159v-172h-62v172h-366l-11 30q168 311 285 641l59 -14l5 -12q-130 -326 -295 -596l4 -8q118 8 178 8
h141v225l47 18l15 -2v-241h159v-49zM1425 522q142 0 231 -70.5t89 -199.5q0 -125 -82.5 -201t-214.5 -76q-106 0 -174 47.5t-68 120.5q0 39 21 66h47l20 -150q64 -34 142 -34q112 0 175.5 55.5t63.5 163.5q0 218 -282 227l-129 6h-2l16 365l45 10q105 -43 195 -43
q77 0 182 43l14 -35q-78 -65 -209 -65q-109 0 -180 41l-22 -281q72 10 122 10z" />
    <glyph glyph-name="uni2159" unicode="&#x2159;" horiz-adv-x="1794" 
d="M1350 1366l4 -14q-72 -106 -223.5 -323.5t-231.5 -334.5q-76 -113 -235.5 -353t-243.5 -364l-45 19l-4 14q369 531 483 701q85 123 237 352t214 321zM535 573v-36h-447v36l193 15h2v696q-79 -51 -191 -61l-4 43q147 19 231 118l29 -2v-802zM1444 526q119 0 188.5 -77
t69.5 -189q0 -123 -84 -204t-213 -81q-143 0 -222 102.5t-79 282.5q0 224 118 358t318 134q48 0 82 -6l-4 -39q-95 3 -171 -16.5t-136.5 -64.5t-96.5 -124t-43 -188h13q118 112 260 112zM1409 25q99 0 162 57t63 168q0 100 -53.5 162.5t-155.5 62.5q-70 0 -127.5 -31
t-123.5 -96q0 -323 235 -323z" />
    <glyph glyph-name="uni215A" unicode="&#x215a;" horiz-adv-x="1843" 
d="M1399 1366l4 -14q-72 -106 -223.5 -323.5t-231.5 -334.5q-76 -113 -235.5 -353t-243.5 -364l-45 19l-4 14q369 531 483 701q85 123 237 352t214 321zM307 1059q142 0 231 -71t89 -200q0 -125 -82.5 -200.5t-214.5 -75.5q-106 0 -174 47.5t-68 120.5q0 38 21 65h47
l20 -149q66 -35 141 -35q112 0 176 55.5t64 163.5q0 109 -72.5 166t-210.5 62l-129 6h-2l17 364l45 11q105 -43 194 -43q78 0 183 43l14 -35q-80 -66 -209 -66q-109 0 -180 41l-23 -280q72 10 123 10zM1493 526q119 0 188.5 -77t69.5 -189q0 -123 -84 -204t-213 -81
q-143 0 -222 102.5t-79 282.5q0 224 118 358t318 134q47 0 82 -6l-4 -39q-419 14 -446 -393h12q118 112 260 112zM1458 25q99 0 162 57t63 168q0 100 -53 162.5t-155 62.5q-70 0 -128 -31t-124 -96q0 -323 235 -323z" />
    <glyph glyph-name="oneeighth" unicode="&#x215b;" horiz-adv-x="1841" 
d="M1350 1366l4 -14q-72 -106 -223.5 -323.5t-231.5 -334.5q-76 -113 -235.5 -353t-243.5 -364l-45 19l-4 14q369 531 483 701q85 123 237 352t214 321zM535 573v-36h-447v36l193 15h2v696q-79 -51 -191 -61l-4 43q147 19 231 118l29 -2v-802zM1524 436v-12
q104 -39 154.5 -92t50.5 -139q0 -59 -24 -103t-65.5 -68t-90 -35.5t-105.5 -11.5q-126 0 -203.5 53t-77.5 162q0 50 16.5 88.5t48.5 64.5t64 42t76 31v12q-93 38 -139.5 89t-46.5 122q0 100 83 156.5t191 56.5q107 0 180.5 -56t73.5 -153q0 -78 -47.5 -124t-138.5 -83z
M1249 647q0 -67 48.5 -108.5t142.5 -79.5l33 -15q90 43 131 85.5t41 109.5q0 76 -54 121t-141 45q-85 0 -143 -44t-58 -114zM1446 25q98 0 156.5 39t58.5 124q0 74 -47.5 115t-157.5 86l-39 17q-100 -46 -143 -89.5t-43 -121.5q0 -170 215 -170z" />
    <glyph glyph-name="threeeighths" unicode="&#x215c;" horiz-adv-x="1896" 
d="M1405 1366l4 -14q-72 -106 -223.5 -323.5t-231.5 -334.5q-76 -113 -235.5 -353t-243.5 -364l-45 19l-4 14q369 531 483 701q85 123 237 352t214 321zM422 979v-12q90 -16 140 -67.5t50 -139.5q0 -115 -82 -181.5t-213 -66.5q-110 0 -178.5 46t-68.5 122q0 39 20 65h45
l21 -149q72 -35 153 -35q37 0 70 5.5t64 20t53 36t35.5 55.5t13.5 78q0 192 -246 192h-57v47h135q29 13 48.5 24.5t43.5 32.5t36.5 52.5t12.5 71.5q0 82 -49.5 122.5t-140.5 40.5q-85 0 -162 -36l-19 -148h-45q-20 30 -20 66q0 73 76 120.5t180 47.5q114 0 182 -57.5
t68 -151.5q0 -83 -49 -131t-117 -70zM1579 436v-12q104 -39 154.5 -92t50.5 -139q0 -59 -24 -103t-65.5 -68t-90 -35.5t-105.5 -11.5q-126 0 -203 53t-77 162q0 50 16.5 88.5t48 64.5t63.5 42t76 31v12q-93 38 -139.5 89t-46.5 122q0 100 83 156.5t191 56.5q107 0 180.5 -56
t73.5 -153q0 -78 -47.5 -124t-138.5 -83zM1305 647q0 -67 48.5 -108.5t141.5 -79.5l33 -15q90 43 131 85.5t41 109.5q0 76 -54 121t-141 45q-85 0 -142.5 -43.5t-57.5 -114.5zM1501 25q98 0 156.5 39t58.5 124q0 74 -47.5 115t-157.5 86l-38 17q-100 -46 -143.5 -90
t-43.5 -121q0 -170 215 -170z" />
    <glyph glyph-name="fiveeighths" unicode="&#x215d;" horiz-adv-x="1890" 
d="M1399 1366l4 -14q-72 -106 -223.5 -323.5t-231.5 -334.5q-76 -113 -235.5 -353t-243.5 -364l-45 19l-4 14q369 531 483 701q85 123 237 352t214 321zM307 1059q142 0 231 -71t89 -200q0 -125 -82.5 -200.5t-214.5 -75.5q-106 0 -174 47.5t-68 120.5q0 38 21 65h47
l20 -149q66 -35 141 -35q112 0 176 55.5t64 163.5q0 109 -72.5 166t-210.5 62l-129 6h-2l17 364l45 11q105 -43 194 -43q78 0 183 43l14 -35q-80 -66 -209 -66q-109 0 -180 41l-23 -280q72 10 123 10zM1573 436v-12q104 -39 154.5 -92t50.5 -139q0 -59 -24 -103t-65.5 -68
t-90 -35.5t-105.5 -11.5q-126 0 -203.5 53t-77.5 162q0 50 16.5 88.5t48.5 64.5t64 42t76 31v12q-93 38 -139.5 89t-46.5 122q0 100 83 156.5t191 56.5q107 0 180.5 -56t73.5 -153q0 -78 -47.5 -124t-138.5 -83zM1298 647q0 -67 48.5 -108.5t142.5 -79.5l33 -15
q90 43 131 85.5t41 109.5q0 76 -54 121t-141 45q-85 0 -143 -44t-58 -114zM1495 25q98 0 156.5 39t58.5 124q0 74 -47.5 115t-157.5 86l-39 17q-100 -46 -143 -89.5t-43 -121.5q0 -170 215 -170z" />
    <glyph glyph-name="seveneighths" unicode="&#x215e;" horiz-adv-x="1667" 
d="M1176 1366l4 -14q-72 -106 -223.5 -323.5t-231.5 -334.5q-76 -113 -235.5 -353t-243.5 -364l-45 19l-4 14q369 531 483 701q85 123 235.5 350.5t214.5 322.5zM600 1362l10 -35q-195 -257 -276 -408.5t-84 -293.5l61 -101l-37 -24q-51 21 -69.5 56t-18.5 85
q0 117 85 275.5t282 396.5l-4 10l-412 -12l-18 -133h-41q-8 36 -8 96q0 47 8 88h522zM1350 436v-12q103 -39 153.5 -92t50.5 -139q0 -59 -24 -103t-65 -68t-89.5 -35.5t-105.5 -11.5q-126 0 -203.5 53t-77.5 162q0 50 16.5 88.5t48.5 64.5t64 42t76 31v12q-93 38 -139.5 89
t-46.5 122q0 100 83 156.5t191 56.5q107 0 180.5 -56t73.5 -153q0 -78 -47.5 -124t-138.5 -83zM1075 647q0 -67 48.5 -108.5t142.5 -79.5l32 -15q90 43 131 85.5t41 109.5q0 76 -53.5 121t-140.5 45q-85 0 -143 -44t-58 -114zM1272 25q98 0 156.5 39t58.5 124
q0 74 -47.5 115t-157.5 86l-39 17q-100 -46 -143 -89.5t-43 -121.5q0 -170 215 -170z" />
    <glyph glyph-name="uni215F" unicode="&#x215f;" horiz-adv-x="1136" 
d="M1350 1366l4 -14q-72 -106 -223.5 -323.5t-231.5 -334.5q-76 -113 -235.5 -353t-243.5 -364l-45 19l-4 14q369 531 483 701q85 123 237 352t214 321zM535 573v-36h-447v36l193 15h2v696q-79 -51 -191 -61l-4 43q147 19 231 118l29 -2v-802z" />
    <glyph glyph-name="uni2189" unicode="&#x2189;" horiz-adv-x="1935" 
d="M1462 1366l4 -14q-71 -104 -222.5 -322t-231.5 -336q-76 -112 -235.5 -352.5t-244.5 -364.5l-45 19l-4 14q396 570 484 701q85 123 235.5 350.5t214.5 322.5zM430 1389q149 0 227 -116t78 -315q0 -208 -84 -327t-235 -119q-149 0 -227 116t-78 316q0 207 84 326t235 119z
M424 1339q-120 0 -183 -97.5t-63 -293.5q0 -195 62 -291t180 -96q119 0 182.5 97t63.5 296q0 385 -242 385zM1632 442v-12q90 -16 140.5 -67.5t50.5 -139.5q0 -115 -82 -181.5t-213 -66.5q-110 0 -179 46t-69 122q0 40 20 66h46l20 -150q69 -34 154 -34q48 0 87.5 9.5t74 31
t54 60.5t19.5 93q0 193 -246 193h-57v47h135q30 13 49 24.5t43.5 32.5t37 52t12.5 71q0 82 -50 123t-141 41q-83 0 -162 -37l-18 -148h-45q-21 32 -21 66q0 73 76 120.5t180 47.5q114 0 182 -57.5t68 -151.5q0 -83 -49 -131t-117 -70z" />
    <glyph glyph-name="arrowleft" unicode="&#x2190;" horiz-adv-x="1558" 
d="M549 950l16 -16q-101 -159 -246 -313q205 10 377 10h731v-60h-731q-152 0 -377 11q143 -152 246 -314l-16 -16q-95 91 -219.5 187.5t-231.5 154.5v12q106 58 230.5 154.5t220.5 189.5z" />
    <glyph glyph-name="arrowup" unicode="&#x2191;" horiz-adv-x="980" 
d="M840 952l-17 -16q-162 103 -311 246q8 -254 8 -377v-805h-59v805q0 165 10 377q-160 -151 -313 -246l-17 16q93 96 188.5 220t153.5 231h15q56 -106 151.5 -229.5t190.5 -221.5z" />
    <glyph glyph-name="arrowright" unicode="&#x2192;" horiz-adv-x="1558" 
d="M993 934l17 16q96 -93 220 -189.5t230 -154.5v-12q-106 -58 -230.5 -154t-219.5 -188l-17 16q103 162 246 314q-225 -11 -377 -11h-731v60h731q172 0 377 -10q-145 154 -246 313z" />
    <glyph glyph-name="arrowdown" unicode="&#x2193;" horiz-adv-x="980" 
d="M823 426l17 -16q-95 -98 -190.5 -221.5t-151.5 -229.5h-15q-58 107 -153.5 231t-188.5 220l17 16q153 -95 313 -246q-10 212 -10 377v805h59v-805q0 -123 -8 -377q149 143 311 246z" />
    <glyph glyph-name="arrowboth" unicode="&#x2194;" horiz-adv-x="1984" 
d="M1419 936l17 18q96 -93 220 -189.5t230 -154.5v-14q-107 -59 -231.5 -154t-218.5 -186l-17 16q103 162 246 314q-229 -11 -373 -11h-600q-144 0 -373 11q143 -152 246 -314l-16 -16q-93 90 -218.5 185.5t-232.5 154.5v14q106 58 230.5 154.5t220.5 189.5l16 -18
q-103 -159 -246 -311q167 8 373 8h600q206 0 373 -8q-143 152 -246 311z" />
    <glyph glyph-name="arrowupdn" unicode="&#x2195;" horiz-adv-x="980" 
d="M512 180q149 143 311 246l17 -16q-95 -98 -190.5 -221.5t-151.5 -229.5h-15q-58 107 -153.5 231t-188.5 220l17 16q153 -95 313 -246q-10 192 -10 500q0 334 8 479q-152 -143 -311 -244l-17 17q95 101 191 223.5t153 226.5h13q57 -105 152.5 -228t189.5 -222l-17 -17
q-159 101 -313 246q10 -182 10 -481q0 -270 -8 -500z" />
    <glyph glyph-name="uni2196" unicode="&#x2196;" horiz-adv-x="1374" 
d="M129 1143l12 8q117 -34 272 -54.5t287 -23.5v-22q-173 -41 -397 -50q156 -140 277 -258l716 -716l-43 -41l-716 716q-137 134 -261 273q-6 -212 -47 -393l-22 -2q-3 136 -23.5 292t-54.5 271z" />
    <glyph glyph-name="uni2197" unicode="&#x2197;" horiz-adv-x="1374" 
d="M1233 1151l12 -8q-34 -115 -54.5 -271t-23.5 -292l-22 2q-41 181 -47 393q-131 -146 -260 -273l-717 -716l-43 41l717 716q131 128 276 258q-224 9 -397 50v22q132 3 287 23.5t272 54.5z" />
    <glyph glyph-name="uni2198" unicode="&#x2198;" horiz-adv-x="1374" 
d="M1245 -8l-12 -8q-116 33 -271 53.5t-288 23.5v23q168 40 397 49q-145 130 -276 258l-717 717l43 41l717 -717q136 -134 260 -272q6 212 47 393l22 2q3 -136 23.5 -292t54.5 -271z" />
    <glyph glyph-name="uni2199" unicode="&#x2199;" horiz-adv-x="1374" 
d="M141 -16l-12 8q34 115 54.5 271t23.5 292l22 -2q41 -181 47 -393q117 131 261 272l716 717l43 -41l-716 -717q-121 -118 -277 -258q229 -9 397 -49v-23q-133 -3 -288 -23.5t-271 -53.5z" />
    <glyph glyph-name="uni21A9" unicode="&#x21a9;" horiz-adv-x="1613" 
d="M549 827l16 -16q-101 -159 -246 -313q212 10 361 10h403q159 0 246.5 80t87.5 209t-84 208.5t-233 79.5h-187v60h185q176 0 280.5 -99t104.5 -249q0 -149 -107.5 -248.5t-294.5 -99.5h-401q-149 0 -361 10q143 -152 246 -314l-16 -16q-95 91 -219.5 187.5t-231.5 154.5
v12q106 58 230.5 154.5t220.5 189.5z" />
    <glyph glyph-name="uni21AA" unicode="&#x21aa;" horiz-adv-x="1613" 
d="M1049 811l16 16q96 -93 220.5 -189.5t230.5 -154.5v-12q-107 -58 -231.5 -154.5t-219.5 -187.5l-16 16q105 165 245 314q-212 -10 -360 -10h-402q-187 0 -294 99.5t-107 248.5q0 150 104.5 249t280.5 99h184v-60h-186q-149 0 -233 -79.5t-84 -208.5t87 -209t246 -80h404
q148 0 360 -10q-142 151 -245 313z" />
    <glyph glyph-name="uni21BB" unicode="&#x21bb;" horiz-adv-x="1372" 
d="M956 1010l25 43q125 -48 212 -177t87 -305q0 -164 -78 -301t-215 -217t-303 -80q-160 0 -295.5 75t-216 210.5t-80.5 302.5q0 188 102 324t269 200q-216 54 -367 127l4 23q129 -26 286.5 -40t279.5 -7l8 -10q-60 -110 -114 -259t-81 -274l-24 6q-3 207 34 402
q-163 -87 -248 -202.5t-85 -281.5q0 -121 45 -223.5t119.5 -170t169.5 -105t196 -37.5q105 0 202 40.5t169.5 110t116 170t43.5 213.5q0 153 -73.5 268t-187.5 175z" />
    <glyph glyph-name="partialdiff" unicode="&#x2202;" horiz-adv-x="1105" 
d="M588 1540q109 0 189 -46.5t127.5 -132t70 -196.5t22.5 -250q0 -109 -13.5 -216.5t-40.5 -214.5t-73 -198.5t-106.5 -162.5t-145 -111.5t-184.5 -40.5q-153 0 -239 95.5t-86 281.5q0 86 19 169.5t58 158.5t94 131.5t132.5 89.5t167.5 33q104 0 189.5 -42.5t137.5 -115.5
h11q6 74 6 146q0 561 -361 561q-122 0 -248 -66l-8 37q121 90 281 90zM440 25q82 0 153.5 37.5t123 101t92 152t65 186.5t37.5 207q-62 72 -145 116.5t-180 44.5q-181 0 -292.5 -146.5t-111.5 -367.5q0 -164 66 -247.5t192 -83.5z" />
    <glyph glyph-name="emptyset" unicode="&#x2205;" horiz-adv-x="1527" 
d="M1343 1337l-172 -229q108 -88 169 -216.5t61 -279.5q0 -137 -51 -256.5t-137.5 -203t-205 -131.5t-249.5 -48q-201 0 -355 105l-172 -232l-38 21l-7 14l170 230q-108 88 -168.5 216.5t-60.5 280.5q0 183 86.5 329.5t233 227t323.5 80.5q198 0 356 -104l172 231l39 -20z
M197 610q0 -143 53 -256.5t147 -191.5l693 930q-146 96 -326 96q-110 0 -212 -40t-181 -112.5t-126.5 -183t-47.5 -242.5zM764 33q111 0 213.5 40t181.5 112t126.5 182.5t47.5 242.5q0 142 -53 256.5t-145 190.5l-693 -928q143 -96 322 -96z" />
    <glyph glyph-name="Delta" unicode="&#x2206;" horiz-adv-x="1228" 
d="M1174 14l-7 -14h-1106l-6 16l535 1352l41 10h12zM141 59h940l-467 1198z" />
    <glyph glyph-name="product" unicode="&#x220f;" horiz-adv-x="1492" 
d="M1407 1362v-43l-221 -21v-1445q-40 -9 -60 -9l-14 9v1454h-729v-1454q-41 -9 -59 -9l-15 9v1458l-205 8v43h1303z" />
    <glyph glyph-name="summation" unicode="&#x2211;" horiz-adv-x="1042" 
d="M868 172l52 -2q8 -60 8 -131q0 -85 -17 -182h-796l-13 32l476 732l-478 708l13 33h802l-2 -4q7 -79 7 -123q0 -84 -11 -174h-51l-22 244l-635 10l-6 -8l52.5 -73.5t59.5 -84.5l346 -498v-12l-358 -555q-67 -103 -109 -156l7 -10l645 12z" />
    <glyph glyph-name="minus" unicode="&#x2212;" 
d="M1106 571h-952v60h952v-60z" />
    <glyph glyph-name="uni2219" unicode="&#x2219;" 
d="M629 752q74 0 112.5 -41t38.5 -113t-38.5 -113t-112.5 -41t-113 41t-39 113t39 113t113 41z" />
    <glyph glyph-name="radical" unicode="&#x221a;" horiz-adv-x="1239" 
d="M1169 1577l13 -12q-151 -439 -337 -948.5t-288 -763.5l-65 -23h-17q-95 229 -215 561l-223 10v43h280q51 -152 197 -530h12q95 244 274 750.5t314 912.5h55z" />
    <glyph glyph-name="infinity" unicode="&#x221e;" horiz-adv-x="1792" 
d="M1378 883q151 0 233.5 -91.5t82.5 -220.5q0 -142 -94 -228.5t-222 -86.5q-86 0 -165 41t-191 131l-127 98h-12q-54 -60 -101 -103t-106 -84t-125.5 -62t-138.5 -21q-102 0 -175 45t-106 114t-33 152q0 142 93.5 229t222.5 87q84 0 163.5 -41t192.5 -131l129 -101h8
q54 60 100.5 103t106 85t126.5 63.5t138 21.5zM1384 322q44 0 87.5 15.5t81 46t60.5 81t23 113.5q0 110 -69 177.5t-193 67.5q-117 0 -218 -60.5t-218 -182.5l111 -86q115 -91 190.5 -131.5t144.5 -40.5zM418 315q117 0 216.5 60t219.5 184l-111 86q-118 92 -192.5 132
t-142.5 40q-44 0 -87.5 -15.5t-81 -46t-60.5 -81t-23 -113.5q0 -110 69 -178t193 -68z" />
    <glyph glyph-name="integral" unicode="&#x222b;" horiz-adv-x="624" 
d="M518 1542q66 0 107 -12v-47q-46 6 -99 6q-238 0 -235 -299q1 -113 58 -577.5t57 -589.5q0 -185 -82.5 -266t-221.5 -81q-54 0 -102 11v49q35 -6 102 -6q117 2 174.5 73t57.5 220q0 123 -57.5 589.5t-57.5 583.5q0 178 81 262t218 84z" />
    <glyph glyph-name="approxequal" unicode="&#x2248;" 
d="M1081 481l29 -24q-72 -110 -124 -161.5t-112 -51.5q-32 0 -78.5 19.5t-76.5 37t-107 64.5q-100 63 -148.5 89t-103.5 44l-186 -193l-27 25q71 110 123 161.5t113 51.5q31 0 75.5 -18t80 -38.5t106.5 -64.5q96 -60 144.5 -86.5t105.5 -46.5zM1081 903l29 -24
q-72 -110 -124 -161.5t-112 -51.5q-32 0 -77.5 18.5t-78 37.5t-106.5 64q-102 64 -150 90t-102 44l-186 -193l-27 25q71 110 123 161.5t113 51.5q31 0 75.5 -18t80 -38.5t106.5 -64.5q96 -60 144.5 -86.5t105.5 -46.5z" />
    <glyph glyph-name="notequal" unicode="&#x2260;" 
d="M786 776l-245 -350h565v-59h-608l-240 -340l-39 18l-6 14l217 308h-276v59h319l248 350h-567v60h608l237 335l41 -16l4 -14l-215 -305h277v-60h-320z" />
    <glyph glyph-name="lessequal" unicode="&#x2264;" 
d="M1010 1053l-723 -361v-12l723 -361l-25 -49l-801 392v49l801 391zM1022 0h-860v59h860v-59z" />
    <glyph glyph-name="greaterequal" unicode="&#x2265;" 
d="M1069 711v-49l-801 -392l-24 49l723 361v12l-723 361l24 49zM1092 0h-861v59h861v-59z" />
    <glyph glyph-name="dotmath" unicode="&#x22c5;" 
d="M635 688q11 0 35 -4q18 -35 18 -76q0 -56 -24 -102h-76l-17 168q28 14 64 14z" />
    <glyph glyph-name="uni24EA" unicode="&#x24ea;" horiz-adv-x="1601" 
d="M801 1389q144 0 275 -56t226 -151t151 -226.5t56 -275.5q0 -192 -95 -355t-258 -257.5t-355 -94.5q-144 0 -275.5 56t-226.5 150.5t-151 225.5t-56 275q0 115 36 223.5t101.5 195.5t152.5 152.5t195.5 101.5t223.5 36zM801 1335q-180 0 -329.5 -89t-234.5 -239.5
t-85 -326.5t85 -326t234.5 -238.5t329.5 -88.5q179 0 328.5 88.5t235 238.5t85.5 326t-85.5 326.5t-235 239.5t-328.5 89zM809 1081q135 0 205.5 -104.5t70.5 -286.5q0 -193 -76 -301t-214 -108q-136 0 -206.5 104.5t-70.5 286.5q0 192 76.5 300.5t214.5 108.5zM803 1034
q-107 0 -162 -90t-55 -264q0 -175 55 -263.5t160 -88.5q106 0 161.5 89.5t55.5 268.5q0 170 -54 259t-161 89z" />
    <glyph glyph-name="uni24FF" unicode="&#x24ff;" horiz-adv-x="1601" 
d="M801 1389q144 0 275 -56t226 -151t151 -226.5t56 -275.5q0 -192 -95 -355t-258 -257.5t-355 -94.5q-144 0 -275.5 56t-226.5 150.5t-151 225.5t-56 275q0 115 36 223.5t101.5 195.5t152.5 152.5t195.5 101.5t223.5 36zM809 1081q-138 0 -214.5 -108.5t-76.5 -300.5
q0 -182 70.5 -286.5t206.5 -104.5q138 0 214 108t76 301q0 182 -70.5 286.5t-205.5 104.5zM803 1034q107 0 161 -89t54 -259q0 -179 -55.5 -268.5t-161.5 -89.5q-105 0 -160 88.5t-55 263.5q0 174 55 264t162 90z" />
    <glyph glyph-name="filledbox" unicode="&#x25a0;" horiz-adv-x="1671" 
d="M1460 57h-1249v1250h1249v-1250z" />
    <glyph glyph-name="H22073" unicode="&#x25a1;" horiz-adv-x="1671" 
d="M1460 57h-1249v1250h1249v-1250zM276 1247v-1130h1121v1130h-1121z" />
    <glyph glyph-name="H18543" unicode="&#x25aa;" horiz-adv-x="1120" 
d="M950 174h-780v778h780v-778z" />
    <glyph glyph-name="H18551" unicode="&#x25ab;" horiz-adv-x="1120" 
d="M950 174h-780v778h780v-778zM233 895v-664h656v664h-656z" />
    <glyph glyph-name="triagup" unicode="&#x25b2;" horiz-adv-x="1611" 
d="M1513 158l-6 -15h-1403l-4 17l705 1204h12z" />
    <glyph glyph-name="uni25B3" unicode="&#x25b3;" horiz-adv-x="1611" 
d="M1513 158l-6 -15h-1403l-4 17l705 1204h12zM809 1245l-608 -1042h1210z" />
    <glyph glyph-name="uni25B4" unicode="&#x25b4;" horiz-adv-x="1234" 
d="M1137 203l-7 -15h-1026l-4 17l516 817h13z" />
    <glyph glyph-name="uni25B5" unicode="&#x25b5;" horiz-adv-x="1234" 
d="M1137 203l-7 -15h-1026l-4 17l516 817h13zM621 913l-422 -667h839z" />
    <glyph glyph-name="uni25B6" unicode="&#x25b6;" horiz-adv-x="1368" 
d="M1268 684v-12l-1043 -666l-14 6v1340l16 4z" />
    <glyph glyph-name="uni25B7" unicode="&#x25b7;" horiz-adv-x="1366" 
d="M1268 684v-12l-1043 -666l-14 6v1340l16 4zM274 1253v-1144l885 569z" />
    <glyph glyph-name="uni25B8" unicode="&#x25b8;" horiz-adv-x="1093" 
d="M993 606v-12l-809 -518l-14 6v1042l16 4z" />
    <glyph glyph-name="uni25B9" unicode="&#x25b9;" horiz-adv-x="1093" 
d="M993 606v-12l-809 -518l-14 6v1042l16 4zM233 1026v-846l654 420z" />
    <glyph glyph-name="triagdn" unicode="&#x25bc;" horiz-adv-x="1611" 
d="M1507 1219l6 -15l-696 -1206h-12l-705 1204l4 17h1403z" />
    <glyph glyph-name="uni25BD" unicode="&#x25bd;" horiz-adv-x="1611" 
d="M1507 1223l6 -15l-696 -1206h-12l-705 1204l4 17h1403zM201 1163l608 -1042l602 1042h-1210z" />
    <glyph glyph-name="uni25BE" unicode="&#x25be;" horiz-adv-x="1234" 
d="M1130 1008l7 -15l-508 -819h-13l-516 817l4 17h1026z" />
    <glyph glyph-name="uni25BF" unicode="&#x25bf;" horiz-adv-x="1234" 
d="M1130 1010l7 -15l-508 -819h-13l-516 817l4 17h1026zM199 952l422 -667l417 667h-839z" />
    <glyph glyph-name="uni25C0" unicode="&#x25c0;" horiz-adv-x="1368" 
d="M100 672v12l1041 672l16 -4v-1340l-14 -6z" />
    <glyph glyph-name="uni25C1" unicode="&#x25c1;" horiz-adv-x="1372" 
d="M98 672v12l1041 672l16 -4v-1340l-14 -6zM1092 109v1144l-885 -575z" />
    <glyph glyph-name="uni25C2" unicode="&#x25c2;" horiz-adv-x="1093" 
d="M100 594v12l807 522l17 -4v-1042l-15 -6z" />
    <glyph glyph-name="uni25C3" unicode="&#x25c3;" horiz-adv-x="1093" 
d="M100 594v12l807 522l17 -4v-1042l-15 -6zM860 180v846l-653 -426z" />
    <glyph glyph-name="lozenge" unicode="&#x25ca;" horiz-adv-x="1265" 
d="M1167 678v-12l-528 -701h-12l-529 701v12l529 702h12zM633 1286l-461 -614l461 -611l461 611z" />
    <glyph glyph-name="circle" unicode="&#x25cb;" horiz-adv-x="1601" 
d="M801 1389q144 0 275 -56t226 -151t151 -226t56 -274q0 -144 -56 -275.5t-151 -226.5t-226 -151t-275 -56q-191 0 -354.5 95t-259 258.5t-95.5 355.5q0 191 95.5 354t259 258t354.5 95zM801 1329q-177 0 -324.5 -87.5t-232 -236t-84.5 -323.5t84.5 -324t232.5 -237
t324 -88q177 0 325 88t232 237t84 324q0 174 -84 322.5t-232 236.5t-325 88z" />
    <glyph glyph-name="H18533" unicode="&#x25cf;" horiz-adv-x="1601" 
d="M805 1389q141 0 271 -56t225 -150.5t151.5 -224t56.5 -270.5q0 -189 -95.5 -354t-258 -263t-350.5 -98q-140 0 -271.5 58t-228 154t-155 228t-58.5 273t58 271.5t154.5 225t228 150.5t272.5 56z" />
    <glyph glyph-name="uni2605" unicode="&#x2605;" horiz-adv-x="1638" 
d="M995 858h557l4 -10l-448 -326l168 -536l-8 -6l-451 331l-446 -334l-11 7l170 538l-448 326l2 10h557l172 524h12z" />
    <glyph glyph-name="uni2606" unicode="&#x2606;" horiz-adv-x="1638" 
d="M995 858h557l4 -10l-450 -326l170 -536l-8 -6l-451 331l-446 -334l-11 7l168 538l-446 326l2 10h557l172 524h12zM684 801h-442l358 -258l-135 -422l354 262l352 -262l-135 422l361 258h-447l-131 405z" />
    <glyph glyph-name="uni261A" unicode="&#x261a;" horiz-adv-x="2318" 
d="M1843 217v637l25 170l360 -20v-1004h-360zM948 1024h242l571 -147v-689q-107 -120 -301 -120q-86 0 -196 24q-144 -136 -207 -176q-94 0 -161.5 55.5t-76.5 134.5q-164 67 -164 195v2q-131 63 -131 182q0 21 4 37l9.5 9.5t37.5 27.5t74.5 44t127.5 57.5t188 68.5l-9 25
q-610 -97 -757 -97q-68 30 -110 73t-42 120q0 10 0.5 19t3 19.5t4 18t5.5 20t5.5 18t7 21t7.5 21.5q509 37 868 37zM367 954l-43 7q-14 -61 -58.5 -78t-148.5 -17l-2 -26q129 -40 190.5 -1t61.5 115zM1061 512l-12 25q-209 -55 -336 -177l55 -45q17 20 39 39t57.5 42
t55.5 35t72 41.5t69 39.5zM1182 309l-13 25q-68 -17 -121.5 -40t-90.5 -50t-51.5 -40.5t-35.5 -35.5l58 -39q63 75 254 180z" />
    <glyph glyph-name="uni261B" unicode="&#x261b;" horiz-adv-x="2318" 
d="M475 854v-637l-24 -217h-361v1004l361 20zM1128 1024h242q160 0 377 -9t354 -19l137 -9q2 -6 7.5 -21.5t7 -21t5.5 -18t5.5 -20t4 -18t3 -19.5t0.5 -19q0 -41 -13 -73.5t-37 -55t-47 -36.5t-54 -28q-148 0 -758 97l-8 -25q104 -34 187.5 -68t128 -58t74 -43t38.5 -28
l8 -10q4 -16 4 -37q0 -119 -131 -182v-2q0 -128 -164 -195q-9 -79 -76 -134.5t-161 -55.5q-63 40 -207 176q-110 -24 -197 -24q-194 0 -301 120v689zM1995 961l-43 -7q0 -76 61.5 -115t190.5 1l-2 26q-104 0 -148.5 17t-58.5 78zM1270 537l-13 -25q17 -10 69 -39.5t72 -41.5
t55.5 -35t57.5 -42t39 -39l56 45q-127 122 -336 177zM1149 334l-12 -25q191 -105 254 -180l57 39q-21 22 -35.5 35.5t-51.5 40.5t-90.5 50t-121.5 40z" />
    <glyph glyph-name="uni261C" unicode="&#x261c;" horiz-adv-x="2318" 
d="M80 961q624 47 934 47h176l661 -187l17 199l360 -16v-41l-309 -7q-14 -210 -14 -407q0 -234 22 -490l301 -18v-41h-352l-27 260h-12q-77 -95 -170.5 -143.5t-185.5 -48.5q-60 0 -122.5 18.5t-101.5 42.5q-150 -155 -235 -215q-86 16 -143.5 71t-61.5 144q-78 23 -121 74
t-43 119q-133 56 -133 182q0 23 4 47q12 14 46.5 36t117 59.5t191.5 74.5l-2 12q-99 -13 -257 -37.5t-268 -40t-168 -18.5q-137 65 -137 186q0 45 33 138zM184 688q107 12 272 33t280.5 34t199.5 17l16 -55q-320 -139 -372 -207q0 -93 77 -154q16 16 47 38t124 66t214 81
l17 -33q-261 -101 -346 -191q0 -91 104 -153q173 124 342 182l19 -33q-227 -107 -301 -186q0 -63 31.5 -101t90.5 -69q142 142 265 221q47 -22 67.5 -30t60.5 -17.5t81 -9.5q204 0 374 211v438l-661 186h-172q-343 -3 -889 -45q-16 -37 -16 -92q0 -38 16.5 -68t58.5 -63z
" />
    <glyph glyph-name="uni261D" unicode="&#x261d;" horiz-adv-x="1357" 
d="M977 -143l229 -27v-240h-43l-16 197q-270 23 -492 23q-217 0 -405 -15v-205h-43l-23 248l199 19l-186 542v176q0 309 47 893q3 1 18.5 6.5t20 7t17.5 6t20 6t18.5 3.5t21.5 3t21 1q121 0 186 -137q-2 -57 -17.5 -159.5t-41 -251t-39.5 -248.5l12 -3q40 117 80.5 202
t64 118t38.5 43q16 4 38 4q126 0 185 -133q66 0 115.5 -43t72.5 -121q90 -4 145.5 -61t71.5 -144q-30 -45 -89.5 -110t-110.5 -113q45 -92 45 -188q0 -158 -160 -287v-12zM438 -141h465q91 72 133.5 144.5t42.5 162.5q0 63 -35 170q12 20 26.5 40.5t25.5 36t29 36.5t26 31
t28 32t24.5 27t26.5 28l21 23q-31 60 -71 93.5t-105 33.5q-75 -70 -182 -305l-37 20q63 189 188 336q-63 113 -157 113q-84 -79 -189 -351l-36 19q81 272 190 381q-64 84 -160 84q-12 -9 -25 -26t-28.5 -43t-28.5 -50t-31.5 -62t-30 -62.5t-31.5 -68.5t-30 -65l-61 18
q5 105 39 347.5t47 371.5q-56 72 -127 72q-55 0 -92 -16l-9 -139q-9 -139 -19.5 -353.5t-10.5 -362.5v-169z" />
    <glyph glyph-name="uni261E" unicode="&#x261e;" horiz-adv-x="2318" 
d="M2238 961q33 -93 33 -138q0 -121 -137 -186q-58 3 -168 18.5t-267.5 40t-256.5 37.5l-2 -12q109 -37 191.5 -74.5t116 -59.5t46.5 -36q4 -24 4 -47q0 -126 -133 -182q0 -68 -43 -119t-121 -74q-4 -89 -61.5 -144t-143.5 -71q-85 60 -235 215q-39 -24 -101 -42.5
t-122 -18.5q-92 0 -186 48.5t-171 143.5h-12l-27 -260h-352v41l301 18q23 267 23 490q0 182 -15 407l-309 7v41l361 16l16 -199l661 187h177q309 0 933 -47zM2134 688q42 33 59 63t17 68q0 52 -17 92q-547 43 -888 45h-172l-662 -186v-438q170 -211 375 -211q41 0 81 9.5
t60.5 17.5t67.5 30q121 -78 264 -221q59 31 91 69t32 101q-74 79 -301 186l18 33q169 -58 342 -182q105 62 105 153q-85 90 -346 191l16 33q121 -37 214 -81t124 -66t47 -38q78 62 78 154q-51 67 -373 207l16 55q84 -4 199.5 -17t280.5 -34t272 -33z" />
    <glyph glyph-name="uni261F" unicode="&#x261f;" horiz-adv-x="1357" 
d="M1206 1235l-229 -27v-12q160 -129 160 -287q0 -96 -45 -188q51 -48 110.5 -113t89.5 -110q-16 -87 -71.5 -144t-145.5 -61q-23 -78 -72.5 -121t-115.5 -43q-59 -133 -185 -133q-22 0 -38 4q-15 10 -38.5 43t-64 117.5t-80.5 201.5l-12 -2q14 -100 39.5 -248.5t41 -251
t17.5 -159.5q-65 -137 -186 -137q-11 0 -21 1t-21.5 3t-18.5 3.5t-20 6t-17.5 6t-20 7t-18.5 6.5q-47 584 -47 892v177l186 542l-199 19l23 248h43v-205q188 -15 405 -15q222 0 492 23l16 197h43v-240zM903 1206h-465l-184 -547v-170q0 -148 10.5 -362.5t19.5 -352.5l9 -139
q37 -16 92 -16q71 0 127 72q-13 129 -47 371.5t-39 347.5l61 18q10 -21 30 -65t31.5 -68.5t30 -62.5t31.5 -62t28.5 -50t28.5 -43t25 -26q96 0 160 84q-109 109 -190 381l36 19q105 -272 189 -351q94 0 157 113q-125 147 -188 336l37 20q107 -235 182 -305q65 0 105 33.5
t71 93.5q-3 3 -19.5 20.5t-22.5 24t-21.5 24t-24 27.5t-23.5 27t-25.5 30.5t-23.5 31t-24.5 34.5t-22.5 35q35 107 35 170q0 90 -42.5 162.5t-133.5 144.5z" />
    <glyph glyph-name="uni2661" unicode="&#x2661;" horiz-adv-x="1652" 
d="M1186 1051q149 0 252.5 -101t103.5 -276q0 -88 -29 -161t-79 -124.5t-111.5 -95t-131.5 -83t-134 -78t-125 -90.5t-98 -110h-13q-38 58 -99.5 110t-126 90.5t-135 78t-132 83t-111.5 95t-79 124.5t-29 161q0 175 103.5 276t252.5 101q135 0 230.5 -87t125.5 -249h10
q30 162 125.5 249t229.5 87zM1188 995q-130 0 -215.5 -92.5t-124.5 -249.5h-43q-39 157 -123.5 249.5t-214.5 92.5q-128 0 -210.5 -85t-82.5 -236q0 -80 25.5 -145t69 -111t98 -84.5t118 -74.5t122.5 -70.5t117 -83t97 -103.5h13q38 55 96 103.5t117 83t122.5 70.5t118 74.5
t98.5 84.5t69.5 111t25.5 145q0 150 -83.5 235.5t-209.5 85.5z" />
    <glyph glyph-name="heart" unicode="&#x2665;" horiz-adv-x="1650" 
d="M1186 1051q149 0 252.5 -100.5t103.5 -278.5q0 -91 -29.5 -166.5t-80.5 -129.5t-113 -100t-132.5 -86.5t-134.5 -78t-123.5 -85.5t-94.5 -100h-13q-35 52 -94.5 100t-124 85.5t-135.5 78t-133.5 86.5t-113.5 100t-81 129.5t-30 166.5q0 178 103.5 278.5t252.5 100.5
q133 0 229.5 -82t126.5 -232h13q30 151 125 232.5t227 81.5z" />
    <glyph glyph-name="uni275B" unicode="&#x275b;" horiz-adv-x="942" 
d="M780 1389l15 -39q-222 -84 -353 -213t-168 -267q-14 -47 -14 -65l553 -111l14 -669q-140 -52 -290 -52q-72 0 -160 14t-150 42q-26 42 -43 74.5t-41 91.5t-36.5 132t-12.5 154q0 147 44.5 289t128.5 265.5t216.5 217t296.5 136.5z" />
    <glyph glyph-name="uni275C" unicode="&#x275c;" horiz-adv-x="942" 
d="M406 1389q72 0 159.5 -14t149.5 -42q26 -42 43 -74.5t41 -91.5t36.5 -132t12.5 -154q0 -147 -44.5 -289t-128.5 -265.5t-216.5 -217t-296.5 -136.5l-15 39q222 84 353 213t168 267q14 47 14 65l-553 111l-14 669q140 52 291 52z" />
    <glyph glyph-name="uni275D" unicode="&#x275d;" horiz-adv-x="1810" 
d="M1649 1389l14 -39q-222 -84 -352.5 -213t-167.5 -267q-15 -51 -15 -65l553 -111l15 -669q-140 -52 -291 -52q-72 0 -159.5 14t-149.5 42q-26 42 -43 74.5t-41 91.5t-36.5 132t-12.5 154q0 147 44.5 289t128.5 265.5t216.5 217t296.5 136.5zM780 1389l15 -39
q-222 -84 -353 -213t-168 -267q-14 -47 -14 -65l553 -111l14 -669q-140 -52 -290 -52q-72 0 -160 14t-150 42q-26 42 -43 74.5t-41 91.5t-36.5 132t-12.5 154q0 147 44.5 289t128.5 265.5t216.5 217t296.5 136.5z" />
    <glyph glyph-name="uni275E" unicode="&#x275e;" horiz-adv-x="1810" 
d="M1274 1389q72 0 159.5 -14t149.5 -42q26 -42 43 -74.5t41 -91.5t36.5 -132t12.5 -154q0 -147 -44.5 -289t-128.5 -265.5t-216.5 -217t-296.5 -136.5l-14 39q222 84 352.5 213t167.5 267q14 47 14 65l-553 111l-14 669q140 52 291 52zM406 1389q72 0 159.5 -14t149.5 -42
q26 -42 43 -74.5t41 -91.5t36.5 -132t12.5 -154q0 -147 -44.5 -289t-128.5 -265.5t-216.5 -217t-296.5 -136.5l-15 39q222 84 353 213t168 267q14 47 14 65l-553 111l-14 669q140 52 291 52z" />
    <glyph glyph-name="uni275F" unicode="&#x275f;" horiz-adv-x="942" 
d="M406 1389q72 0 159.5 -14t149.5 -42q26 -42 43 -74.5t41 -91.5t36.5 -132t12.5 -154q0 -147 -44.5 -289t-128.5 -265.5t-216.5 -217t-296.5 -136.5l-15 39q222 84 353 213t168 267q14 47 14 65l-553 111l-14 669q140 52 291 52z" />
    <glyph glyph-name="uni2760" unicode="&#x2760;" horiz-adv-x="1810" 
d="M1274 1389q72 0 159.5 -14t149.5 -42q26 -42 43 -74.5t41 -91.5t36.5 -132t12.5 -154q0 -147 -44.5 -289t-128.5 -265.5t-216.5 -217t-296.5 -136.5l-14 39q222 84 352.5 213t167.5 267q14 47 14 65l-553 111l-14 669q140 52 291 52zM406 1389q72 0 159.5 -14t149.5 -42
q26 -42 43 -74.5t41 -91.5t36.5 -132t12.5 -154q0 -147 -44.5 -289t-128.5 -265.5t-216.5 -217t-296.5 -136.5l-15 39q222 84 353 213t168 267q14 47 14 65l-553 111l-14 669q140 52 291 52z" />
    </font>
</defs>
</svg>
