<?xml version="1.0" standalone="no"?>
<!DOCTYPE svg PUBLIC "-//W3C//DTD SVG 1.1//EN" "http://www.w3.org/Graphics/SVG/1.1/DTD/svg11.dtd" >
<svg xmlns="http://www.w3.org/2000/svg" xmlns:xlink="http://www.w3.org/1999/xlink" version="1.1">
<metadata>
Created by FontForge 20170731 at Wed Jan 19 21:51:15 2022
 By Aleksey,,,
2014 published by FontShop International GmbH
</metadata>
<defs>
<font id="FranziskaPro-Hairline" horiz-adv-x="1259" >
  <font-face 
    font-family="FranziskaPro-Hairline"
    font-weight="250"
    font-stretch="normal"
    units-per-em="2048"
    panose-1="2 1 4 4 2 1 1 1 1 2"
    ascent="1612"
    descent="-436"
    x-height="1004"
    cap-height="1362"
    bbox="-760 -575 3080 1966"
    underline-thickness="40"
    underline-position="-245"
    unicode-range="U+000D-1F44E"
  />
<missing-glyph horiz-adv-x="1355" 
d="M1145 1362v-1362h-934v1362h934zM1102 1321h-821l821 -1245v1245zM254 41h823l-823 1245v-1245z" />
    <glyph glyph-name="T_h" unicode="Th" horiz-adv-x="2187" 
d="M2157 31v-31h-437v31l185 16v635q0 307 -250 307q-94 0 -184 -40t-193 -118v-794l205 -6v-31h-422v31l170 16v1272l-606 8v-1290l200 -6v-31h-503v31l256 16v1280l-402 -8l-18 -260h-31q-10 85 -10 178q0 74 4 125h1110q0 108 6 174q24 6 31 6l10 -8v-520q0 -25 -6 -142
h10q183 158 377 158q293 0 293 -342v-651z" />
    <glyph glyph-name="T_k" unicode="Tk" horiz-adv-x="2111" 
d="M2068 29v-29q-51 -14 -106 -14q-34 0 -56 13.5t-57 61.5q-11 15 -125.5 183t-191.5 272l-4 6h-250v-485l205 -6v-31h-422v31l170 16v1272l-606 8v-1290l200 -6v-31h-503v31l256 16v1280l-402 -8l-18 -260h-31q-10 85 -10 178q0 74 4 125h1110q0 108 6 174q24 6 31 6
l10 -8v-973h242q184 213 325 406h-2l-235 6v31h411v-31l-131 -17q-186 -246 -323 -407q161 -216 364 -520h139z" />
    <glyph glyph-name="T_l" unicode="Tl" horiz-adv-x="1533" 
d="M1483 31v-31h-422v31l170 16v1272l-606 8v-1290l200 -6v-31h-503v31l256 16v1280l-402 -8l-18 -260h-31q-10 85 -10 178q0 74 4 125h1110q0 108 6 174q24 6 31 6l10 -8v-1497z" />
    <glyph glyph-name="Tbar_h" unicode="&#x166;h" horiz-adv-x="2187" 
d="M2157 31v-31h-437v31l185 16v635q0 307 -250 307q-94 0 -184 -40t-193 -118v-794l205 -6v-31h-422v31l170 16v1272l-606 8v-704h356v-39h-356v-547l200 -6v-31h-503v31l256 16v537h-355v39h355v704l-402 -8l-18 -260h-31q-10 85 -10 178q0 74 4 125h1110q0 108 6 174
q24 6 31 6l10 -8v-520q0 -25 -6 -142h10q183 158 377 158q293 0 293 -342v-651z" />
    <glyph glyph-name="Tcaron_h" unicode="&#x164;h" horiz-adv-x="2187" 
d="M2157 31v-31h-437v31l185 16v635q0 307 -250 307q-94 0 -184 -40t-193 -118v-794l205 -6v-31h-422v31l170 16v1272l-606 8v-1290l200 -6v-31h-503v31l256 16v1280l-402 -8l-18 -260h-31q-10 85 -10 178q0 74 4 125h1110q0 108 6 174q24 6 31 6l10 -8v-520q0 -25 -6 -142
h10q183 158 377 158q293 0 293 -342v-651zM604 1530h10l230 272h35l-244 -319h-57l-232 305l31 20z" />
    <glyph glyph-name="f_b" unicode="fb" horiz-adv-x="1802" 
d="M1307 1030q172 0 268 -127t96 -360q0 -92 -15 -173t-49.5 -155t-86 -127t-130 -84t-176.5 -31q-145 0 -331 78v1401q-130 49 -240 49q-159 0 -239 -92t-80 -264v-141h303v-39h-303v-928l266 -2v-35h-498v31l184 16v918l-184 8v31l184 12v139q0 196 100.5 291.5
t268.5 95.5q137 0 240 -53q13 39 35 53l10 -8v-520q0 -25 -6 -142h10q183 158 373 158zM1214 14q185 0 297.5 132t112.5 389q0 231 -90 342.5t-234 111.5q-163 0 -370 -158v-755q146 -62 284 -62z" />
    <glyph glyph-name="f_f" unicode="ff" horiz-adv-x="1290" 
d="M1184 1542q56 0 102.5 -15t79.5 -54.5t33 -98.5q0 -46 -21 -78h-30l-29 185q-78 20 -133 20q-125 0 -190.5 -89.5t-65.5 -250.5v-157h323v-39h-323v-928l266 -2v-35h-498v31l185 16v918h-559v-928l204 -2v-35h-436v31l184 16v918l-184 8v31l184 12v155q0 186 100 278.5
t265 92.5q187 0 320 -100q79 100 223 100zM883 1016v155q0 151 57 242q-138 88 -299 88q-157 0 -237 -89t-80 -251v-157h374z" />
    <glyph glyph-name="f_f_b" unicode="ffb" horiz-adv-x="2408" 
d="M1913 1030q172 0 268 -127t96 -360q0 -92 -15 -173t-49 -155t-86 -127t-130 -84t-176 -31q-146 0 -332 78v1401q-130 49 -240 49q-159 0 -239 -92t-80 -264v-141h303v-39h-303v-928l266 -2v-35h-498v31l185 16v918h-559v-928l204 -2v-35h-436v31l184 16v918l-184 8v31
l184 12v155q0 186 100 278.5t265 92.5q193 0 330 -108q97 108 280 108q137 0 240 -53q13 39 35 53l10 -8v-520q0 -25 -6 -142h10q183 158 373 158zM883 1016v139q0 155 65 252q-140 94 -307 94q-157 0 -237 -89t-80 -251v-157h374zM1821 14q185 0 297 132t112 389
q0 231 -89.5 342.5t-233.5 111.5q-164 0 -371 -158v-755q146 -62 285 -62z" />
    <glyph glyph-name="f_f_h" unicode="ffh" horiz-adv-x="2445" 
d="M2415 31v-31h-437v31l185 16v635q0 307 -250 307q-94 0 -184 -40t-193 -118v-794l205 -6v-31h-436v31l184 16v1405q-130 49 -240 49q-159 0 -239 -92t-80 -264v-141h303v-39h-303v-928l205 -2v-35h-437v31l185 16v918h-559v-928l204 -2v-35h-436v31l184 16v918l-184 8v31
l184 12v155q0 186 100 278.5t265 92.5q193 0 330 -108q97 108 280 108q137 0 240 -53q13 39 35 53l10 -8v-520q0 -25 -6 -142h10q183 158 377 158q293 0 293 -342v-651zM883 1016v139q0 155 65 252q-140 94 -307 94q-157 0 -237 -89t-80 -251v-157h374z" />
    <glyph glyph-name="f_f_i" unicode="ffi" horiz-adv-x="1792" 
d="M1741 31v-31h-436v31l184 16v918h-559v-928l205 -2v-35h-437v31l185 16v918h-559v-928l204 -2v-35h-436v31l184 16v918l-184 8v31l184 12v155q0 186 100 278.5t265 92.5q193 0 330 -108q99 108 276 108q76 0 137.5 -20t102.5 -65.5t41 -110.5q0 -46 -21 -78h-37l-30 192
q-95 41 -191 41q-155 0 -237 -90t-82 -250v-157h395l201 14l10 -8v-973zM324 1004h374l185 12v155q0 142 65 236q-140 94 -307 94q-157 0 -237 -89t-80 -251v-157z" />
    <glyph glyph-name="f_f_j" unicode="ffj" horiz-adv-x="1761" 
d="M1536 1010v-1131q0 -61 -13.5 -93.5t-60 -75t-162.5 -124.5l-20 21l209 192v1166h-559v-928l266 -2v-35h-498v31l185 16v918h-559v-928l204 -2v-35h-436v31l184 16v918l-184 8v31l184 12v155q0 186 100 278.5t265 92.5q193 0 330 -108q99 108 276 108q76 0 137.5 -20
t102.5 -65.5t41 -110.5q0 -46 -21 -78h-37l-30 192q-95 41 -191 41q-155 0 -237 -90t-82 -250v-157h395l201 14zM324 1004h374l185 12v155q0 142 65 236q-140 94 -307 94q-157 0 -237 -89t-80 -251v-157z" />
    <glyph glyph-name="f_f_k" unicode="ffk" horiz-adv-x="2369" 
d="M2327 29v-29q-51 -14 -107 -14q-34 0 -56 13.5t-57 61.5q-11 15 -125.5 183t-191.5 272l-4 6h-250v-485l205 -6v-31h-436v31l184 16v1405q-130 49 -240 49q-159 0 -239 -92t-80 -264v-141h303v-39h-303v-928l205 -2v-35h-437v31l185 16v918h-559v-928l204 -2v-35h-436v31
l184 16v918l-184 8v31l184 12v155q0 186 100 278.5t265 92.5q193 0 330 -108q97 108 280 108q137 0 240 -53q13 39 35 53l10 -8v-973h242q184 213 325 406h-2l-235 6v31h411v-31l-131 -17q-186 -246 -323 -407q161 -216 364 -520h140zM883 1016v139q0 155 65 252
q-140 94 -307 94q-157 0 -237 -89t-80 -251v-157h374z" />
    <glyph glyph-name="f_f_l" unicode="ffl" horiz-adv-x="1792" 
d="M1741 31v-31h-436v31l184 16v1405q-130 49 -240 49q-159 0 -239 -92t-80 -264v-141h303v-39h-303v-928l205 -2v-35h-437v31l185 16v918h-559v-928l204 -2v-35h-436v31l184 16v918l-184 8v31l184 12v155q0 186 100 278.5t265 92.5q193 0 330 -108q97 108 280 108
q137 0 240 -53q13 39 35 53l10 -8v-1497zM883 1016v139q0 155 65 252q-140 94 -307 94q-157 0 -237 -89t-80 -251v-157h374z" />
    <glyph glyph-name="f_h" unicode="fh" horiz-adv-x="1839" 
d="M1808 31v-31h-436v31l184 16v635q0 307 -249 307q-94 0 -184 -40t-193 -118v-794l205 -6v-31h-437v31l185 16v1405q-130 49 -240 49q-159 0 -239 -92t-80 -264v-141h303v-39h-303v-928l204 -2v-35h-436v31l184 16v918l-184 8v31l184 12v139q0 196 100.5 291.5t268.5 95.5
q137 0 240 -53q13 39 35 53l10 -8v-520q0 -25 -6 -142h10q183 158 377 158q293 0 293 -342v-651z" />
    <glyph glyph-name="f_hbar" unicode="f&#x127;" horiz-adv-x="1839" 
d="M1808 31v-31h-436v31l184 16v635q0 307 -249 307q-94 0 -184 -40t-193 -118v-794l205 -6v-31h-437v31l185 16v1405q-130 49 -240 49q-159 0 -239 -92t-80 -264v-141h303v-39h-303v-928l204 -2v-35h-436v31l184 16v918l-184 8v31l184 12v139q0 196 100.5 291.5t268.5 95.5
q137 0 240 -53q13 39 35 53l10 -8v-193h342v-38h-342v-289q0 -25 -6 -142h10q183 158 377 158q293 0 293 -342v-651z" />
    <glyph glyph-name="f_i" unicode="fi" horiz-adv-x="1185" 
d="M1135 31v-31h-437v31l185 16v918h-559v-928l204 -2v-35h-436v31l184 16v918l-184 8v31l184 12v155q0 184 103.5 277.5t261.5 93.5q76 0 137.5 -20t102.5 -65.5t41 -110.5q0 -46 -21 -78h-37l-30 192q-95 41 -191 41q-155 0 -237 -90t-82 -250v-157h395l201 14l10 -8v-973
z" />
    <glyph glyph-name="f_icircumflex" unicode="f&#xee;" horiz-adv-x="1185" 
d="M1135 31v-31h-437v31l185 16v918h-559v-928l204 -2v-35h-436v31l184 16v918l-184 8v31l184 12v155q0 186 99 278.5t258 92.5q110 0 207 -41l24 43h58l163 -325l-32 -21l-158 299h-10l-178 -293h-35l149 264q-85 33 -182 33q-155 0 -235 -88.5t-80 -251.5v-157h395l201 14
l10 -8v-973z" />
    <glyph glyph-name="f_imacron" unicode="f&#x12b;" horiz-adv-x="1185" 
d="M1135 31v-31h-437v31l185 16v918h-559v-928l204 -2v-35h-436v31l184 16v918l-184 8v31l184 12v155q0 94 28 167t75 116.5t105 65.5t122 22q55 0 101 -15t79.5 -53.5t34.5 -95.5h242q4 -8 4 -20q0 -13 -4 -21h-246q-5 -27 -16 -41h-31l-29 187q-70 18 -127 18
q-134 0 -212 -91t-78 -249v-157h395l201 14l10 -8v-973z" />
    <glyph glyph-name="f_iogonek" unicode="f&#x12f;" horiz-adv-x="1208" 
d="M1145 -354l12 -33q-64 -49 -164 -49q-97 0 -144.5 43.5t-47.5 109.5q0 86 75.5 159.5t176.5 113.5v10h-355v29l185 18v918h-559v-928l204 -2v-35h-436v31l184 16v918l-184 8v31l184 12v155q0 184 103.5 277.5t261.5 93.5q76 0 137.5 -20t102.5 -65.5t41 -110.5
q0 -46 -21 -78h-37l-30 192q-95 41 -191 41q-155 0 -237 -90t-82 -250v-157h395l201 14l10 -8v-973l203 -6v-37q-60 -28 -103 -52t-88.5 -58t-69.5 -74t-24 -84q0 -58 43 -89.5t113 -31.5q66 0 141 41z" />
    <glyph glyph-name="f_j" unicode="fj" horiz-adv-x="1155" 
d="M930 1010v-1131q0 -61 -13.5 -93.5t-60 -75t-162.5 -124.5l-20 21l209 192v1166h-559v-928l266 -2v-35h-498v31l184 16v918l-184 8v31l184 12v155q0 184 103.5 277.5t261.5 93.5q76 0 137.5 -20t102.5 -65.5t41 -110.5q0 -46 -21 -78h-37l-30 192q-95 41 -191 41
q-155 0 -237 -90t-82 -250v-157h395l201 14z" />
    <glyph glyph-name="f_k" unicode="fk" horiz-adv-x="1763" 
d="M1720 29v-29q-51 -14 -106 -14q-34 0 -56 13.5t-57 61.5q-11 15 -125.5 183t-191.5 272l-4 6h-250v-485l205 -6v-31h-437v31l185 16v1405q-130 49 -240 49q-159 0 -239 -92t-80 -264v-141h303v-39h-303v-928l204 -2v-35h-436v31l184 16v918l-184 8v31l184 12v139
q0 196 100.5 291.5t268.5 95.5q137 0 240 -53q13 39 35 53l10 -8v-973h241q190 220 326 406h-2l-235 6v31h411v-31l-131 -17q-186 -246 -323 -407q161 -216 364 -520h139z" />
    <glyph glyph-name="f_l" unicode="fl" horiz-adv-x="1185" 
d="M1135 31v-31h-437v31l185 16v1405q-130 49 -240 49q-159 0 -239 -92t-80 -264v-141h303v-39h-303v-928l204 -2v-35h-436v31l184 16v918l-184 8v31l184 12v139q0 196 100.5 291.5t268.5 95.5q137 0 240 -53q13 39 35 53l10 -8v-1497z" />
    <glyph glyph-name="f_lacute" unicode="f&#x13a;" horiz-adv-x="1185" 
d="M920 1542h-35l159 289h15q21 -9 37 -31zM1135 31v-31h-437v31l185 16v1380q-143 54 -246 54q-156 0 -234.5 -92.5t-78.5 -264.5v-120h303v-39h-303v-928l204 -2v-35h-436v31l184 16v918l-184 8v31l184 12v119q0 196 98.5 291.5t260.5 95.5q143 0 262 -68q10 13 23 21
l10 -9v-1429z" />
    <glyph glyph-name="f_lcaron" unicode="f&#x13e;" horiz-adv-x="1306" 
d="M1135 31v-31h-437v31l185 16v1405q-130 49 -240 49q-159 0 -239 -92t-80 -264v-141h303v-39h-303v-928l204 -2v-35h-436v31l184 16v918l-184 8v31l184 12v139q0 196 100.5 291.5t268.5 95.5q137 0 240 -53q13 39 35 53l10 -8v-1497zM1237 1542q22 0 37 -10
q-3 -86 -22 -171.5t-58 -203.5h-31l47 248v133q8 4 27 4z" />
    <glyph glyph-name="uni021A_h" unicode="&#x21a;h" horiz-adv-x="2187" 
d="M2157 31v-31h-437v31l185 16v635q0 307 -250 307q-94 0 -184 -40t-193 -118v-794l205 -6v-31h-422v31l170 16v1272l-606 8v-1290l200 -6v-31h-503v31l256 16v1280l-402 -8l-18 -260h-31q-10 85 -10 178q0 74 4 125h1110q0 108 6 174q24 6 31 6l10 -8v-520q0 -25 -6 -142
h10q183 158 377 158q293 0 293 -342v-651zM600 -133q23 0 41 -6q18 -41 18 -94q0 -151 -151 -259l-19 23q62 52 95.5 103.5t33.5 115.5q0 28 -6 55l-61 5v51q21 6 49 6z" />
    <glyph glyph-name="uni030A_acutecomb" unicode="&#x30a;&#x301;" horiz-adv-x="2" 
d="M-100 1862h14q21 -9 35 -29l-199 -246h-35zM-258 1505q79 0 131.5 -48t52.5 -128q0 -86 -60.5 -136t-141.5 -50q-79 0 -132 48t-53 128q0 86 60.5 136t142.5 50zM-264 1468q-72 0 -113 -40.5t-41 -106.5q0 -65 39.5 -103t108.5 -38q74 0 113.5 43.5t39.5 107.5
q0 63 -39 100t-108 37z" />
    <glyph glyph-name=".notdef" horiz-adv-x="1355" 
d="M1145 1362v-1362h-934v1362h934zM1102 1321h-821l821 -1245v1245zM254 41h823l-823 1245v-1245z" />
    <glyph glyph-name=".null" horiz-adv-x="0" 
 />
    <glyph glyph-name="nonmarkingreturn" horiz-adv-x="682" 
 />
    <glyph glyph-name="CR" unicode="&#xd;" horiz-adv-x="512" 
 />
    <glyph glyph-name="space" unicode=" " horiz-adv-x="512" 
 />
    <glyph glyph-name="exclam" unicode="!" horiz-adv-x="450" 
d="M246 1389l8 -7q0 -178 -5 -538t-5 -453h-33q0 93 -5 453t-5 538q18 7 45 7zM229 162q15 0 25 -2q12 -27 12 -58q0 -64 -22 -108l-47 6l-13 154q24 8 45 8z" />
    <glyph glyph-name="quotedbl" unicode="&#x22;" horiz-adv-x="696" 
d="M535 1495l-11 -422h-35l-10 422q15 6 47 6zM219 1495l-10 -422h-35l-10 422q15 6 47 6z" />
    <glyph glyph-name="numbersign" unicode="#" horiz-adv-x="1290" 
d="M950 887l-65 -563h233v-29l-239 -19l-35 -303h-29l-8 11l35 299h-469l-37 -310h-29l-8 11l35 299h-232v28l238 19l66 563h-234v29l240 18l34 305h29l8 -10l-34 -301h469l36 311h29l8 -10l-35 -301h232v-29zM846 324l67 569h-471l-65 -569h469z" />
    <glyph glyph-name="dollar" unicode="$" horiz-adv-x="1007" 
d="M852 285q0 -128 -87.5 -203t-238.5 -86l2 -258l-41 -4l-8 6l2 254h-4q-139 0 -230 52t-91 161q0 43 20 82h31l29 -205q123 -49 245 -49l2 563l-37 18q-48 24 -81.5 43.5t-72.5 50t-62.5 62.5t-39.5 77t-16 97q0 124 80.5 196t226.5 81l-2 258l41 4l8 -6v-254
q137 0 225.5 -51.5t88.5 -159.5q0 -44 -21 -84h-30l-29 205q-125 49 -236 49l-2 -551l58 -29q63 -31 104 -56.5t83 -63.5t62.5 -87.5t20.5 -111.5zM223 948q0 -55 17 -98.5t53 -77t74 -57.5t98 -53l22 -11l-6 531q-115 -7 -186.5 -63t-71.5 -171zM520 580l6 -543
q55 4 101.5 18.5t87.5 42.5t64.5 75t23.5 110q0 55 -17.5 97.5t-56.5 76t-72.5 53.5t-93.5 49z" />
    <glyph glyph-name="percent" unicode="%" horiz-adv-x="1632" 
d="M1300 1276l5 -12q-61 -87 -207.5 -292t-225.5 -319q-88 -124 -243.5 -355t-214.5 -316l-31 10l-4 12q86 125 246 352t215 306q37 53 191.5 278t238.5 346zM387 1245q129 0 195.5 -102t66.5 -273q0 -181 -71.5 -282t-202.5 -101q-130 0 -196 99t-66 270q0 181 72 285
t202 104zM383 1208q-112 0 -169.5 -91.5t-57.5 -256.5q0 -164 56.5 -250t166.5 -86q112 0 169.5 87.5t57.5 252.5q0 162 -55.5 253t-167.5 91zM1257 731q129 0 196 -102t67 -273q0 -181 -72 -282t-203 -101q-130 0 -196 99t-66 270q0 181 72 285t202 104zM1253 694
q-112 0 -169.5 -91.5t-57.5 -256.5q0 -164 56.5 -250t166.5 -86q112 0 170 87.5t58 252.5q0 162 -56 253t-168 91z" />
    <glyph glyph-name="ampersand" unicode="&#x26;" horiz-adv-x="1327" 
d="M1292 29v-29q-62 -10 -100 -10q-73 0 -165.5 41t-180.5 110l-2 2q-74 -76 -171 -123t-204 -47q-64 0 -126 18t-119 54.5t-92.5 104t-35.5 155.5q0 266 314 389q-107 212 -107 379q0 80 27 142t73 99t102.5 56t119.5 19q127 0 189.5 -68.5t62.5 -177.5q0 -77 -33 -148.5
t-90.5 -129t-130 -103t-158.5 -78.5q69 -137 170.5 -265.5t214.5 -221.5q32 40 55 77t44 86t29.5 100t11.5 118.5t-11 140.5q90 20 295 20v-43h-248q26 -153 -15.5 -286.5t-136.5 -233.5q168 -132 316 -147h102zM618 1348q-116 0 -192 -67t-76 -204q0 -155 103 -366
q81 39 143 79t117.5 92.5t85.5 118t30 140.5q0 93 -51 150t-160 57zM471 14q183 0 348 150q-108 91 -214 225t-179 277q-64 -31 -111 -62.5t-88 -74.5t-62.5 -98t-21.5 -122q0 -78 30.5 -137.5t80.5 -92.5t105 -49t112 -16z" />
    <glyph glyph-name="quotesingle" unicode="'" horiz-adv-x="380" 
d="M219 1495l-10 -422h-35l-10 422q15 6 47 6z" />
    <glyph glyph-name="parenleft" unicode="(" horiz-adv-x="593" 
d="M418 1542l18 -12q-117 -229 -174 -454t-57 -498t57 -498.5t174 -454.5l-18 -12q-124 178 -192 441.5t-68 523.5t68 523t192 441z" />
    <glyph glyph-name="parenright" unicode=")" horiz-adv-x="593" 
d="M158 1530l18 12q124 -178 192 -441t68 -523t-68 -523.5t-192 -441.5l-18 12q117 229 174 454.5t57 498.5t-57 498t-174 454z" />
    <glyph glyph-name="asterisk" unicode="*" horiz-adv-x="933" 
d="M446 1599h50q2 -29 2 -73q0 -123 -13 -248h-28q-13 125 -13 248q0 44 2 73zM92 1309l14 47q1 0 72 -23q119 -37 232 -90l-11 -26q-109 23 -237 65q-56 21 -70 27zM827 1352l15 -45q-29 -13 -70 -25q-138 -43 -240 -65l-8 26q100 47 232 88q56 18 71 21zM420 1169l22 -16
q-60 -103 -135 -207q-17 -25 -47 -59l-39 28q26 41 43 62q16 22 71.5 88.5t84.5 103.5zM492 1153l22 16q76 -81 160 -190q4 -6 19 -26t24 -35l-41 -29l-45 57q-64 83 -139 207z" />
    <glyph glyph-name="plus" unicode="+" 
d="M1100 580h-451v-465h-43v465h-452v43h450v464h43v-464h453v-43z" />
    <glyph glyph-name="comma" unicode="," horiz-adv-x="380" 
d="M205 82q31 0 55 -6q23 -59 23 -119q0 -214 -242 -303l-12 31q99 45 153 102.5t54 151.5q0 26 -7 61l-88 4l-2 72q27 6 66 6z" />
    <glyph glyph-name="hyphen" unicode="-" horiz-adv-x="753" 
d="M621 580h-488v43h488v-43z" />
    <glyph glyph-name="period" unicode="." horiz-adv-x="380" 
d="M193 168q18 0 28 -2q12 -27 12 -66q0 -56 -22 -100h-53l-11 160q24 8 46 8z" />
    <glyph glyph-name="slash" unicode="/" horiz-adv-x="616" 
d="M545 1464l-434 -1837h-31l-8 11l434 1837h31z" />
    <glyph glyph-name="zero" unicode="0" horiz-adv-x="1114" 
d="M565 1243q203 0 309.5 -166.5t106.5 -458.5q0 -304 -113 -474.5t-319 -170.5q-203 0 -309.5 166.5t-106.5 458.5q0 304 113 474.5t319 170.5zM561 1202q-180 0 -280.5 -155t-100.5 -443q0 -287 100 -438.5t275 -151.5t277 153.5t102 446.5q0 284 -97.5 436t-275.5 152z
" />
    <glyph glyph-name="one" unicode="1" horiz-adv-x="761" 
d="M696 29v-29h-590v29l279 16v1106q-117 -97 -270 -119l-9 37q89 13 172.5 58t133.5 116l18 -2v-1206z" />
    <glyph glyph-name="two" unicode="2" horiz-adv-x="882" 
d="M754 225h34q9 -61 9 -98q0 -45 -11 -127h-708l-12 33q218 197 247 224q251 239 340 420q60 123 60 236q0 135 -80 213t-217 78q-139 0 -254 -78l-29 -198h-31q-20 39 -20 76q0 107 104 174t238 67q154 0 245 -94t91 -240q0 -85 -35 -176.5t-91 -175t-143 -177
t-174 -172.5t-200 -173l4 -8q106 7 297 10l315 4z" />
    <glyph glyph-name="three" unicode="3" horiz-adv-x="956" 
d="M537 578v-11q122 -22 197 -112.5t75 -231.5q0 -172 -113 -282.5t-307 -110.5q-132 0 -217.5 54t-85.5 159q0 43 20 82h31l31 -211q118 -43 235 -43q152 0 255.5 95t103.5 255q0 66 -20 123t-61.5 104.5t-115 75t-170.5 27.5h-86v39h183q46 18 84.5 43.5t74.5 64t57 94.5
t21 123q0 142 -86.5 215.5t-228.5 73.5q-119 0 -234 -67l-28 -199h-31q-21 29 -21 76q0 96 94 163.5t234 67.5q157 0 252.5 -90t95.5 -240q0 -74 -24.5 -136.5t-63.5 -102t-76.5 -63t-74.5 -35.5z" />
    <glyph glyph-name="four" unicode="4" horiz-adv-x="964" 
d="M893 225h-234v-368h-45v368h-530l-12 33q316 598 456 989l39 -10l4 -12q-163 -434 -460 -961l4 -8q86 6 256 6h243v330l35 26l10 -4v-352h234v-37z" />
    <glyph glyph-name="five" unicode="5" horiz-adv-x="909" 
d="M340 674q146 0 253.5 -45t170.5 -141.5t63 -237.5q0 -191 -111.5 -305.5t-312.5 -114.5q-134 0 -215.5 53t-81.5 158q0 43 21 84h31l30 -211q108 -43 226 -43q171 0 268.5 101.5t97.5 271.5q0 184 -119.5 285.5t-349.5 105.5l-137 4l25 594l43 12q47 -24 127 -46.5
t153 -22.5q114 0 250 69l10 -24q-47 -37 -123 -61.5t-151 -24.5q-67 0 -143 18t-125 47l-33 -534q68 8 133 8z" />
    <glyph glyph-name="six" unicode="6" horiz-adv-x="1062" 
d="M584 852q118 0 202.5 -59t124 -154t39.5 -213q0 -199 -112.5 -326t-298.5 -127q-195 0 -300.5 149t-105.5 435q0 140 25.5 265.5t77 229t124.5 179t172 117t216 41.5q44 0 88 -7l-2 -28q-131 5 -239 -31.5t-194 -116t-142.5 -213.5t-76.5 -317h11q179 176 391 176z
M541 14q73 0 138 27t115 77t79.5 129t29.5 177q0 78 -19.5 146.5t-58 123t-103 86t-147.5 31.5q-107 0 -202 -50.5t-191 -146.5q-2 -20 -2 -67q0 -265 98.5 -399t262.5 -134z" />
    <glyph glyph-name="seven" unicode="7" horiz-adv-x="851" 
d="M805 1219l12 -33q-253 -405 -385.5 -698t-132.5 -494l88 -129l-20 -23q-52 23 -80.5 66t-28.5 125q0 168 127 459t391 690l-4 8l-622 -14l-21 -183h-35q-8 54 -8 99q0 52 10 127h709z" />
    <glyph glyph-name="eight" unicode="8" horiz-adv-x="1069" 
d="M616 698v-10q153 -62 229.5 -148.5t76.5 -220.5q0 -87 -32 -155t-87.5 -108.5t-124.5 -61.5t-148 -21q-170 0 -276.5 92.5t-106.5 258.5q0 268 308 374v11q-141 60 -212 144t-71 202q0 81 32.5 146.5t86.5 105.5t120.5 61t137.5 21q149 0 248.5 -87.5t99.5 -244.5
q0 -132 -73 -216.5t-208 -142.5zM219 1061q0 -64 22 -115.5t65 -91t92.5 -68t119.5 -57.5l53 -22q143 69 211 151.5t68 196.5q0 139 -87.5 216t-221.5 77q-84 0 -155.5 -30t-119 -97t-47.5 -160zM532 14q94 0 169.5 31t124 101.5t48.5 170.5q0 69 -22.5 122.5t-68 93.5
t-94.5 67.5t-122 58.5l-69 29q-101 -47 -164.5 -95t-101 -115.5t-37.5 -153.5q0 -149 94.5 -229.5t242.5 -80.5z" />
    <glyph glyph-name="nine" unicode="9" horiz-adv-x="1064" 
d="M524 1245q196 0 302 -149.5t106 -440.5q0 -240 -70.5 -425t-211 -292.5t-333.5 -107.5q-53 0 -90 6l2 29q133 -5 239.5 28.5t193.5 111t143 213t76 325.5h-11q-179 -176 -391 -176q-118 0 -202.5 59t-124 154t-39.5 213q0 199 112 325.5t299 126.5zM487 408q108 0 204 51
t192 147q2 20 2 66q0 265 -99 398.5t-264 133.5q-153 0 -257.5 -108.5t-104.5 -300.5q0 -78 19.5 -146.5t58 -123t102.5 -86t147 -31.5z" />
    <glyph glyph-name="colon" unicode=":" horiz-adv-x="380" 
d="M193 1010q18 0 28 -2q12 -27 12 -66q0 -56 -22 -100h-53l-11 159q27 9 46 9zM193 168q18 0 28 -2q12 -27 12 -66q0 -56 -22 -100h-53l-11 160q24 8 46 8z" />
    <glyph glyph-name="semicolon" unicode=";" horiz-adv-x="380" 
d="M193 1010q18 0 28 -2q12 -27 12 -66q0 -56 -22 -100h-53l-11 159q27 9 46 9zM205 82q31 0 55 -6q23 -59 23 -119q0 -214 -242 -303l-12 31q99 45 153 102.5t54 151.5q0 26 -7 61l-88 4l-2 72q27 6 66 6z" />
    <glyph glyph-name="less" unicode="&#x3c;" 
d="M1008 1059l-775 -453v-10l775 -453l-19 -32l-825 479v24l825 478z" />
    <glyph glyph-name="equal" unicode="=" 
d="M1102 375h-946v43h946v-43zM1102 784h-946v43h946v-43z" />
    <glyph glyph-name="greater" unicode="&#x3e;" 
d="M1090 614v-24l-826 -479l-18 32l774 453v10l-774 453l18 33z" />
    <glyph glyph-name="question" unicode="?" horiz-adv-x="655" 
d="M172 1380h6q69 0 142.5 -29.5t134.5 -80t100 -125t39 -156.5q0 -71 -39.5 -129.5t-86.5 -95t-179 -124.5q-7 -6 -11.5 -8.5t-11 -7t-12.5 -8.5l27 -217l-29 -4q-39 125 -39 193q0 27 14 47t62 53q64 43 93.5 63.5t67.5 49.5t52.5 45.5t30.5 40t20 45t4 49.5
q0 132 -104 236.5t-289 128.5zM268 162q15 0 25 -2q12 -27 12 -58q0 -64 -22 -108l-47 6l-13 154q24 8 45 8z" />
    <glyph glyph-name="at" unicode="@" horiz-adv-x="1820" 
d="M1055 1430q158 0 284 -54.5t205 -148t120.5 -215t41.5 -260.5q0 -121 -31.5 -226.5t-83 -179t-117 -127t-135 -79t-135.5 -25.5q-36 0 -46.5 11.5t-6.5 49.5l8 62h-10q-92 -78 -164.5 -111t-150.5 -33q-136 0 -207 86t-72 256q-2 115 29 224.5t87 196.5t143.5 140.5
t191.5 53.5q67 0 121 -22t114 -66q10 33 25 63l24 -4l-100 -875q201 5 335 171t134 425q0 104 -23 198t-71.5 176t-119 142.5t-171 95t-221.5 34.5q-137 0 -267 -42.5t-239 -124t-191.5 -191.5t-129 -252.5t-46.5 -299.5q0 -94 17 -177t47 -147.5t72.5 -120.5t93 -95
t107.5 -71.5t118 -49.5t123.5 -29t123.5 -10.5t119 6.5l5 -29q-63 -14 -144 -14q-151 0 -283 49t-231.5 140.5t-157 232.5t-57.5 315q0 200 75 378t200.5 303t294.5 197.5t352 72.5zM840 135q78 0 148.5 34t170.5 110l74 639q-110 92 -223 92q-118 0 -212.5 -79.5t-145 -208
t-50.5 -278.5q0 -309 238 -309z" />
    <glyph glyph-name="A" unicode="A" horiz-adv-x="1429" 
d="M1399 31v-31h-459v31l215 16q-35 114 -131 410h-623q-90 -269 -137 -420l234 -6v-31h-467v31l192 16q70 223 205 617t248 702l53 23h19q236 -642 460 -1352zM416 498h594q-157 472 -291 841h-10q-159 -439 -293 -841z" />
    <glyph glyph-name="B" unicode="B" horiz-adv-x="1228" 
d="M797 723v-10q132 -27 209 -117t77 -238q0 -180 -118.5 -269t-335.5 -89h-512v31l215 16v1278l-215 6v31q95 1 210 2.5t189 2.5t94 1q205 2 311.5 -80.5t106.5 -243.5q0 -131 -65 -209t-166 -112zM379 1325v-590h369q52 22 89.5 45.5t72 59t52 86t17.5 114.5
q0 285 -356 285h-244zM379 41h250q195 0 300 79.5t105 239.5q0 152 -96.5 243t-288.5 91h-270v-653z" />
    <glyph glyph-name="C" unicode="C" horiz-adv-x="1220" 
d="M1071 147l16 -28q-159 -146 -387 -146q-142 0 -252.5 55t-178 151t-102 220t-34.5 269q0 122 24 230t73 198t119 155t167.5 101.5t212.5 36.5q182 0 338 -76q4 -51 4 -125q0 -104 -10 -199h-31l-22 299q-137 58 -285 58q-108 0 -203.5 -40.5t-172 -120t-121 -211.5
t-44.5 -302q0 -312 143 -482t380 -170q191 0 366 127z" />
    <glyph glyph-name="D" unicode="D" horiz-adv-x="1380" 
d="M117 1331v31q177 6 485 6q165 0 291 -53t202 -148t114 -217.5t38 -269.5q0 -148 -38.5 -268.5t-117.5 -214.5t-211 -145.5t-307 -51.5h-456v31l215 16v1284h-215zM379 41h194q142 0 254.5 36.5t196.5 112t129 199t45 289.5q0 317 -159 482t-437 165h-223v-1284z" />
    <glyph glyph-name="E" unicode="E" horiz-adv-x="1232" 
d="M1030 303h31q8 -68 8 -137q0 -90 -12 -166h-940v31l215 16v1278l-215 6v31h944q4 -51 4 -125q0 -93 -10 -178h-31l-18 260l-627 8v-653h412l12 168h35v-377h-35l-12 168h-412v-598l629 8z" />
    <glyph glyph-name="F" unicode="F" horiz-adv-x="1179" 
d="M117 1362h921q4 -51 4 -125q0 -93 -10 -178h-31l-18 260l-604 8v-653h401l13 168h34v-377h-34l-13 168h-401v-596l297 -6v-31h-559v31l215 16v1278l-215 6v31z" />
    <glyph glyph-name="G" unicode="G" horiz-adv-x="1347" 
d="M1251 547v-31l-174 -16v-447q-164 -80 -354 -80q-149 0 -263.5 52t-185 146t-106 218t-35.5 273q0 156 38.5 287.5t112 230t189 154t260.5 55.5q91 0 183 -23t159 -57q4 -51 4 -125q0 -93 -10 -178h-31l-18 278q-142 62 -293 62q-87 0 -166 -24.5t-149 -77.5t-120.5 -131
t-80 -191.5t-29.5 -251.5q0 -135 28 -244.5t77.5 -185t118.5 -126.5t148.5 -74.5t170.5 -23.5q159 0 309 64l-6 430l-274 6v31h497z" />
    <glyph glyph-name="H" unicode="H" horiz-adv-x="1544" 
d="M1212 1315v-1278l215 -6v-31h-477v31l215 16v637h-786v-647l235 -6v-31h-497v31l215 16v1278l-215 6v31h497v-31l-235 -16v-590h786v600l-215 6v31h477v-31z" />
    <glyph glyph-name="I" unicode="I" horiz-adv-x="710" 
d="M379 1315v-1278l215 -6v-31h-477v31l215 16v1278l-215 6v31h477v-31z" />
    <glyph glyph-name="J" unicode="J" horiz-adv-x="940" 
d="M872 1362v-31l-215 -16v-942q0 -89 -18 -159t-48 -114.5t-72 -73.5t-87 -41t-96 -12q-112 0 -183 56t-71 161q0 63 29 111h30l19 -229q82 -56 174 -56q137 0 206.5 92t69.5 257v960l-317 6v31h579z" />
    <glyph glyph-name="K" unicode="K" horiz-adv-x="1333" 
d="M1272 1331l-189 -16q-188 -312 -391 -600q69 -104 214.5 -347.5t207.5 -338.5h129v-29q-51 -14 -94 -14q-34 0 -58.5 15t-56.5 60q-44 61 -180 293.5t-199 327.5h-276v-645l235 -6v-31h-497v31l215 16v1278l-215 6v31h477v-31l-215 -16v-592h272q155 220 389 602l-235 6
v31h467v-31z" />
    <glyph glyph-name="L" unicode="L" horiz-adv-x="1126" 
d="M967 303h34q9 -76 9 -137q0 -83 -13 -166h-880v31l215 16v1278l-215 6v31h518v-31l-256 -16v-1280l561 8z" />
    <glyph glyph-name="M" unicode="M" horiz-adv-x="1771" 
d="M1700 31v-31h-475v31l213 16q-19 536 -76 1274h-10q-16 -65 -72 -219l-365 -998l-51 -20h-16l-361 1018q-52 141 -71 219h-10q-22 -267 -78 -1284l235 -6v-31h-491v31l215 16q34 680 82 1278l-215 6v31h290q324 -899 435 -1229h10q52 155 132 378.5t181.5 502
t126.5 348.5h289v-31l-213 -16q58 -723 82 -1278z" />
    <glyph glyph-name="N" unicode="N" horiz-adv-x="1550" 
d="M1458 1362v-31l-215 -16v-1315l-41 -18l-26 -2l-662 1114q-109 185 -131 227h-10v-1284l235 -6v-31h-491v33l215 14v1278l-215 6v31h295l635 -1073q131 -224 145 -250h10v1286l-215 6v31h471z" />
    <glyph glyph-name="O" unicode="O" horiz-adv-x="1380" 
d="M705 1389q109 0 199 -35.5t153 -98.5t106.5 -150t63.5 -189.5t20 -217.5q0 -156 -38.5 -288.5t-110 -230t-180.5 -152t-244 -54.5q-134 0 -239 54t-170 149t-98.5 220t-33.5 272q0 211 65.5 372.5t196.5 255t310 93.5zM705 1346q-80 0 -154 -23t-142 -75.5t-118 -129
t-79.5 -191.5t-29.5 -255q0 -163 38.5 -290t106.5 -206t156.5 -119.5t192.5 -40.5q81 0 155.5 24t142 77t117 130.5t78.5 192.5t29 254q0 161 -38 287t-106 205t-156.5 119.5t-192.5 40.5z" />
    <glyph glyph-name="P" unicode="P" horiz-adv-x="1171" 
d="M528 606h107q183 0 281 90.5t98 261.5q0 168 -95 267.5t-282 99.5h-258v-1288l297 -6v-31h-559v31l215 16v1278l-211 6v31q1 0 117.5 1.5t241.5 3t147 1.5q220 0 328 -108.5t108 -292.5q0 -195 -113.5 -298.5t-310.5 -103.5q-59 0 -111 8v33z" />
    <glyph glyph-name="Q" unicode="Q" horiz-adv-x="1380" 
d="M705 1389q109 0 199 -35.5t153 -98.5t106.5 -150t63.5 -188.5t20 -216.5q0 -283 -118.5 -475t-327.5 -233v-10l278 -304l138 -18l-3 -27q-36 -4 -71 -4q-41 0 -72 10.5t-59 45.5l-262 292q-54 -4 -78 -4q-132 0 -236 53.5t-169.5 148.5t-99.5 220t-34 273
q0 211 65.5 372.5t196.5 255t310 93.5zM705 1346q-80 0 -154 -23t-142 -75.5t-118 -129t-79.5 -191.5t-29.5 -255q0 -163 38.5 -290t106.5 -206t156.5 -119.5t192.5 -40.5q81 0 155.5 24t142 77t117 130.5t78.5 192.5t29 254q0 161 -38 287t-106 205t-156.5 119.5
t-192.5 40.5z" />
    <glyph glyph-name="R" unicode="R" horiz-adv-x="1249" 
d="M1208 29v-29q-51 -14 -94 -14q-34 0 -58.5 15t-56.5 60q-38 53 -156 257.5t-175 287.5h-289v-569l235 -6v-31h-497v31l215 16v1278l-215 6v31q71 1 179.5 2.5t183.5 2.5t98 1q124 0 215 -29t143.5 -81t77 -117.5t24.5 -145.5q0 -284 -317 -377l-2 -8q59 -86 183 -294
t177 -287h129zM379 647h319q53 20 92 39t79 48.5t64.5 64t40 85t15.5 111.5q0 157 -99.5 243.5t-309.5 86.5h-201v-678z" />
    <glyph glyph-name="S" unicode="S" horiz-adv-x="1050" 
d="M487 737l134 -65q58 -28 96.5 -50t81 -55t67 -67t40.5 -81.5t16 -103.5q0 -160 -114 -251t-302 -91q-184 0 -348 80q-13 88 -13 170q0 59 9 133h30l25 -274q138 -66 293 -66q55 0 105.5 9t99.5 30.5t85 54t58 83.5t22 116q0 44 -9 81t-30.5 67.5t-41.5 52t-57 45
t-62 36.5t-70 36l-133 65q-58 28 -97 51t-81.5 56.5t-67.5 69t-41 84.5t-16 108q0 152 99 240t272 88q176 0 321 -76q4 -51 4 -125q0 -93 -10 -178h-31l-18 280q-133 56 -271 56q-65 0 -120 -15.5t-100.5 -47t-71 -87.5t-25.5 -131q0 -53 14 -96.5t36 -74.5t60 -61t73 -50
t89 -46z" />
    <glyph glyph-name="T" unicode="T" horiz-adv-x="1204" 
d="M121 1362h962q4 -51 4 -125q0 -93 -10 -178h-30l-19 260l-403 8v-1290l256 -6v-31h-559v31l256 16v1280l-402 -8l-18 -260h-31q-10 85 -10 178q0 74 4 125z" />
    <glyph glyph-name="U" unicode="U" horiz-adv-x="1470" 
d="M1403 1362v-31l-215 -16v-858q0 -232 -113.5 -358t-333.5 -126q-222 0 -340 129.5t-118 368.5v854l-215 6v31h497v-31l-235 -16v-860q0 -113 32 -199t90 -137.5t132.5 -77t165.5 -25.5q184 0 290.5 107.5t106.5 331.5v870l-236 6v31h492z" />
    <glyph glyph-name="V" unicode="V" horiz-adv-x="1406" 
d="M1376 1331l-192 -16q-108 -357 -443 -1319l-51 -23h-18q-316 902 -451 1352l-190 6v31h479v-31l-236 -16q22 -78 58 -191t87 -267t89 -267t102.5 -303.5t89.5 -263.5h11q316 907 434 1302l-234 6v31h465v-31z" />
    <glyph glyph-name="W" unicode="W" horiz-adv-x="2062" 
d="M2001 1331l-191 -16q-120 -458 -389 -1319l-51 -23h-18q-171 541 -312 1090h-10q-83 -341 -313 -1067l-51 -23h-19q-276 890 -395 1352l-191 6v31h480v-31l-236 -16q118 -461 371 -1292h10q182 574 328 1105l-58 197l-170 6v31h480v-31l-258 -16q235 -848 372 -1292h11
q244 793 378 1302l-233 6v31h465v-31z" />
    <glyph glyph-name="X" unicode="X" horiz-adv-x="1425" 
d="M1350 31v-31h-469v31l227 16q-148 237 -395 608h-11q-200 -295 -397 -618l234 -6v-31h-463v31l188 16q212 344 420 647q-192 288 -414 631l-182 6v31h475v-31l-231 -16q202 -317 375 -576h10q200 285 387 586l-234 6v31h467v-31l-188 -16q-147 -235 -414 -617
q255 -381 436 -661z" />
    <glyph glyph-name="Y" unicode="Y" horiz-adv-x="1320" 
d="M1270 1331l-191 -16q-192 -434 -389 -823v-455l256 -6v-31h-559v31l256 16v445q-205 397 -401 833l-191 6v31h479v-31l-229 -16q167 -382 365 -766h10q184 363 362 776l-233 6v31h465v-31z" />
    <glyph glyph-name="Z" unicode="Z" horiz-adv-x="1110" 
d="M975 303h31q8 -68 8 -137q0 -83 -13 -166h-882l-13 31l742 1145q59 92 98 145l-4 8l-745 -10l-19 -260h-31q-10 85 -10 178q0 74 4 125h850l13 -31l-740 -1145q-49 -76 -102 -145l4 -8l786 12z" />
    <glyph glyph-name="bracketleft" unicode="[" horiz-adv-x="661" 
d="M549 1487l-266 -8q8 -339 8 -885q0 -583 -10 -918l268 -8v-28h-303v1876h303v-29z" />
    <glyph glyph-name="backslash" unicode="\" horiz-adv-x="616" 
d="M506 -373l-434 1837l8 11h31l434 -1837l-8 -11h-31z" />
    <glyph glyph-name="bracketright" unicode="]" horiz-adv-x="661" 
d="M416 1516v-1876h-303v28l268 8q-10 335 -10 918q0 546 8 885l-266 8v29h303z" />
    <glyph glyph-name="asciicircum" unicode="^" horiz-adv-x="829" 
d="M741 1022l-24 -16l-297 424h-10l-297 -424l-25 16l301 459h51z" />
    <glyph glyph-name="underscore" unicode="_" horiz-adv-x="907" 
d="M795 -207h-682v39h682v-39z" />
    <glyph glyph-name="grave" unicode="`" horiz-adv-x="393" 
d="M332 1174h-35l-236 366q16 22 37 31h15z" />
    <glyph glyph-name="a" unicode="a" horiz-adv-x="1015" 
d="M961 29v-29q-96 -14 -146 -14q-42 0 -60 13t-18 48v84h-10q-175 -158 -367 -158q-126 0 -192 65t-66 169q0 63 26 112t68 79t102 49.5t122 26.5t133 7q83 0 182 -6l2 225q1 141 -68.5 215t-201.5 74q-114 0 -229 -67l-29 -199h-31q-20 28 -20 76q0 95 94.5 163t224.5 68
q135 0 220.5 -82t84.5 -239l-6 -680h185zM358 14q89 0 187 42t188 118l2 272h-149q-436 0 -436 -237q0 -87 53 -141t155 -54z" />
    <glyph glyph-name="b" unicode="b" horiz-adv-x="1144" 
d="M272 1534v-520q0 -25 -6 -142h10q183 158 373 158q172 0 268.5 -127t96.5 -360q0 -92 -15 -173t-49.5 -155t-86 -127t-130 -84t-176.5 -31q-146 0 -332 78v1440l-184 8v29q149 12 221 14zM643 989q-164 0 -371 -158v-755q146 -62 285 -62q185 0 297.5 132t112.5 389
q0 231 -90 342.5t-234 111.5z" />
    <glyph glyph-name="c" unicode="c" horiz-adv-x="946" 
d="M825 143l19 -22q-142 -148 -338 -148q-99 0 -176 41t-123 112.5t-69 161.5t-23 195q0 249 117.5 398t314.5 149q116 0 194 -54t78 -157q0 -45 -20 -84h-31l-31 211q-105 43 -196 43q-163 0 -271 -132.5t-108 -371.5q0 -223 97 -347t257 -124q152 0 309 129z" />
    <glyph glyph-name="d" unicode="d" horiz-adv-x="1175" 
d="M920 1534v-1495l184 -8v-31q-154 -12 -225 -14l-11 4l11 141h-11q-183 -158 -372 -158q-172 0 -268.5 127.5t-96.5 360.5q0 92 15 173.5t49.5 155t86.5 126t129.5 83.5t174.5 31q146 0 286 -78v537l-188 8v31q148 12 225 14zM582 989q-181 0 -292.5 -131.5t-111.5 -388.5
q0 -231 89.5 -343t232.5 -112q160 0 372 162v731q-133 82 -290 82z" />
    <glyph glyph-name="e" unicode="e" horiz-adv-x="966" 
d="M834 143l20 -22q-142 -148 -336 -148q-103 0 -182.5 41t-126.5 113t-70.5 162t-23.5 196q0 247 117.5 396t308.5 149q153 0 231 -97t78 -259q0 -79 -14 -150h-674v-35q0 -226 98 -350.5t264 -124.5q90 0 164 34.5t146 94.5zM535 989q-152 0 -254 -113.5t-117 -320.5
l633 8q6 55 6 105q0 160 -71.5 240.5t-196.5 80.5z" />
    <glyph glyph-name="f" unicode="f" horiz-adv-x="684" 
d="M578 1542q56 0 102.5 -15t79.5 -54.5t33 -98.5q0 -46 -21 -78h-31l-28 185q-78 20 -133 20q-125 0 -190.5 -89.5t-65.5 -250.5v-157h323v-39h-323v-928l266 -2v-35h-498v31l184 16v918l-184 8v31l184 12v155q0 185 84.5 278t217.5 93z" />
    <glyph glyph-name="g" unicode="g" horiz-adv-x="1011" 
d="M850 1055l-94 -127q88 -98 88 -244q0 -157 -104.5 -264t-270.5 -107q-64 0 -123 19v-215l164 -31q84 -16 137.5 -28t106 -27.5t82.5 -31t54.5 -37t34 -47t9.5 -58.5q0 -73 -48.5 -131.5t-126.5 -92.5t-166.5 -51.5t-176.5 -17.5q-158 0 -244 56t-86 169q0 96 61.5 175
t153.5 128q0 79 14 254q-90 41 -136 126.5t-46 186.5q0 157 104.5 264t270.5 107q138 0 225 -80q48 94 89 142.5t81 48.5q19 0 37 -11v-34zM477 354q145 0 232.5 92t87.5 238q0 134 -76.5 219.5t-218.5 85.5q-148 0 -235 -91t-87 -232q0 -132 77 -222t220 -90zM496 41
l-179 33q-87 -68 -135.5 -132t-48.5 -143q0 -91 71 -142.5t220 -51.5q58 0 119 7.5t123.5 26t111 45t79 68t30.5 92.5q0 72 -80.5 112.5t-310.5 84.5z" />
    <glyph glyph-name="h" unicode="h" horiz-adv-x="1212" 
d="M1182 31v-31h-437v31l185 16v635q0 307 -250 307q-94 0 -184 -40t-193 -118v-794l205 -6v-31h-436v31l184 16v1444l-184 8v29q149 12 221 14l10 -8v-520q0 -25 -6 -142h10q183 158 377 158q293 0 293 -342v-651z" />
    <glyph glyph-name="i" unicode="i" horiz-adv-x="579" 
d="M528 31v-31h-436v31l184 16v918l-184 8v31q147 12 221 14l11 -8v-973zM281 1442q14 0 26 -2q12 -27 12 -64q0 -56 -24 -96h-49l-10 154q24 8 45 8z" />
    <glyph glyph-name="j" unicode="j" horiz-adv-x="528" 
d="M303 1010v-1131q0 -47 -4.5 -71t-30 -58t-69 -67.5t-131.5 -96.5l-21 21l209 192v1166l-184 8v31q147 12 221 14zM260 1442q15 0 27 -2q12 -27 12 -64q0 -54 -25 -96h-49l-10 154q24 8 45 8z" />
    <glyph glyph-name="k" unicode="k" horiz-adv-x="1136" 
d="M1094 29v-29q-51 -14 -107 -14q-34 0 -56 13.5t-57 61.5q-11 15 -125.5 183t-191.5 272l-4 6h-250v-485l205 -6v-31h-436v31l184 16v1444l-184 8v29q148 12 225 14l6 -8v-973h242q184 213 325 406h-2l-235 6v31h411v-31l-131 -17q-186 -246 -323 -407q161 -216 364 -520
h140z" />
    <glyph glyph-name="l" unicode="l" horiz-adv-x="559" 
d="M508 31v-31h-436v31l184 16v1442l-184 4v35q149 12 221 14l10 -8v-1497z" />
    <glyph glyph-name="m" unicode="m" horiz-adv-x="1878" 
d="M1847 31v-31h-436v31l184 16v635q0 163 -64 235t-194 72q-94 0 -174 -35.5t-194 -117.5q14 -55 14 -148v-651l184 -6v-31h-395v31l164 16v635q0 164 -63 235.5t-189 71.5q-92 0 -170 -36.5t-190 -121.5v-794l208 -6v-31h-440v31l184 16v918l-184 8v31q148 12 225 14
l11 -8l-11 -138h11q98 84 181 121t183 37q103 0 167.5 -38.5t96.5 -119.5h11q104 84 193 121t186 37q153 0 224.5 -84.5t71.5 -257.5v-651z" />
    <glyph glyph-name="n" unicode="n" horiz-adv-x="1232" 
d="M1202 29v-29h-434v29l184 16v639q0 305 -254 305q-172 0 -376 -155v-799l204 -6v-29h-434v29l184 16v922l-184 8v29q148 12 223 14l11 -8l-11 -138h11q183 158 379 158q292 0 292 -342v-653z" />
    <glyph glyph-name="o" unicode="o" horiz-adv-x="1064" 
d="M543 1030q101 0 180.5 -42.5t128 -115.5t73.5 -165.5t25 -198.5q0 -232 -114.5 -383.5t-313.5 -151.5q-101 0 -180.5 41.5t-128 114t-73.5 164.5t-25 199q0 152 49 273t147.5 193t231.5 72zM543 989q-74 0 -139.5 -28t-121 -84.5t-88 -154.5t-32.5 -226q0 -127 31.5 -223
t84.5 -151t115.5 -81.5t132.5 -26.5q71 0 136 28t120 84.5t88 154.5t33 225q0 232 -100 357.5t-260 125.5z" />
    <glyph glyph-name="p" unicode="p" horiz-adv-x="1175" 
d="M680 1030q172 0 268 -127t96 -360q0 -116 -25 -215t-77 -180.5t-142 -128t-210 -46.5q-147 0 -287 78v-424l229 -6v-31h-460v31l184 17v1327l-184 8v31q154 12 225 14l10 -4l-10 -142h10q183 158 373 158zM592 14q182 0 293.5 131.5t111.5 389.5q0 231 -89.5 342.5
t-233.5 111.5q-159 0 -371 -162v-727q139 -86 289 -86z" />
    <glyph glyph-name="q" unicode="q" horiz-adv-x="1144" 
d="M1104 -379v-31h-461v31l229 17v352q0 5 7 141h-11q-183 -158 -372 -158q-172 0 -268.5 127.5t-96.5 360.5q0 92 15 173t49.5 154.5t86 126.5t130 84t176.5 31q145 0 289 -90q6 46 16 70l27 -4v-1379zM872 172v725q-137 92 -284 92q-187 0 -298.5 -131.5t-111.5 -388.5
q0 -231 90 -343t234 -112q163 0 370 158z" />
    <glyph glyph-name="r" unicode="r" horiz-adv-x="747" 
d="M692 975h-149q-88 -68 -219 -244v-694l245 -6v-31h-477v31l184 16v918l-184 8v31q148 12 225 14l11 -8l-11 -219h11q99 144 157 191.5t129 47.5q46 0 82 -22z" />
    <glyph glyph-name="s" unicode="s" horiz-adv-x="907" 
d="M438 543l82 -37q70 -32 111 -55.5t77 -54.5t51 -68.5t15 -87.5q0 -125 -94.5 -196t-251.5 -71q-159 0 -287 70q-8 58 -8 104q0 78 8 121h31l25 -202q113 -52 237 -52q40 0 78 6t78 21.5t69.5 39.5t48.5 62.5t19 87.5q0 37 -12 67.5t-28.5 51.5t-50 43t-60.5 35t-76 35
l-82 37q-57 26 -89 42.5t-69.5 41.5t-56.5 49.5t-32 59t-13 77.5q0 122 88 191t239 69q137 0 250 -53q8 -58 8 -100q0 -72 -8 -121h-30l-25 198q-92 35 -197 35q-54 0 -101.5 -11t-88.5 -34t-64.5 -65t-23.5 -99q0 -38 12 -69t28.5 -51.5t51.5 -43.5t62 -36t79 -37z" />
    <glyph glyph-name="t" unicode="t" horiz-adv-x="698" 
d="M631 70l12 -27q-120 -70 -233 -70q-82 0 -123 45.5t-41 153.5v793l-185 8v31l185 12l20 256l27 -2v-266h303v-39h-303v-789q0 -87 30.5 -124.5t96.5 -37.5q92 0 211 56z" />
    <glyph glyph-name="u" unicode="u" horiz-adv-x="1212" 
d="M1141 31v-31q-153 -12 -226 -14l-10 4l10 141h-10q-183 -158 -377 -158q-292 0 -292 342v650l-185 8v31q155 12 221 14l11 -8v-684q0 -166 65 -239t184 -73q172 0 377 158v793l-184 8v31q154 12 221 14l10 -8v-971z" />
    <glyph glyph-name="v" unicode="v" horiz-adv-x="1173" 
d="M1143 973l-160 -17q-154 -455 -354 -962l-51 -21h-17q-213 547 -362 994l-168 6v31h405v-31l-184 -17q159 -475 340 -933h10q181 455 342 944l-201 6v31h400v-31z" />
    <glyph glyph-name="w" unicode="w" horiz-adv-x="1808" 
d="M1753 973l-158 -17q-139 -492 -295 -962l-53 -21h-16q-161 477 -309 1008h-11q-90 -329 -319 -987l-53 -21h-17q-181 551 -301 994l-166 6v31h406v-31l-185 -17h-2q110 -408 279 -933h10q199 571 320 987l53 20h16q142 -507 310 -1007h10q172 530 282 944l-200 6v31h399
v-31z" />
    <glyph glyph-name="x" unicode="x" horiz-adv-x="1153" 
d="M1112 29v-29h-414v29l174 16q-175 265 -307 440h-10q-157 -217 -313 -450l204 -6v-29h-405v29l160 16q123 186 336 477q-161 218 -314 447l-166 6v29h424v-29l-194 -14q155 -229 282 -404h13q170 238 282 412h-2l-184 6v29h414v-29l-185 -17q-150 -226 -309 -438
q163 -222 340 -485z" />
    <glyph glyph-name="y" unicode="y" horiz-adv-x="1173" 
d="M1143 973l-160 -17q-71 -216 -190 -540.5t-183 -476.5q-24 -57 -45.5 -102t-55.5 -99t-67.5 -89.5t-78.5 -60t-93 -24.5q-50 0 -86 22l4 33h166q124 108 213 334q-211 545 -368 1014l-168 6v31h407v-31l-184 -17q170 -507 338 -933h10q181 455 342 944l-201 6v31h400v-31
z" />
    <glyph glyph-name="z" unicode="z" horiz-adv-x="897" 
d="M778 268l33 -4q4 -24 4 -74q0 -70 -20 -190h-701l-12 31l541 786q52 76 110 148l-4 8l-545 -12l-24 -205h-31q-8 52 -8 114t10 134h645l12 -31l-542 -787q-42 -61 -111 -147l4 -8l606 12z" />
    <glyph glyph-name="braceleft" unicode="{" horiz-adv-x="634" 
d="M326 481q0 -58 -49.5 -348.5t-53.5 -380.5l207 -51l-6 -29q-125 0 -182.5 30t-57.5 97q0 39 17 156.5t49 314t39 240.5l-187 65v39l187 66q-7 44 -39 240.5t-49 314t-17 156.5q0 68 55 97.5t185 29.5l6 -29l-207 -51q4 -90 53.5 -380.5t49.5 -348.5q0 -32 -14 -50
t-56 -31.5t-129 -27.5v-10q87 -14 129 -27.5t56 -31.5t14 -50z" />
    <glyph glyph-name="bar" unicode="|" horiz-adv-x="460" 
d="M250 -246h-39v1782h39v-1782z" />
    <glyph glyph-name="braceright" unicode="}" horiz-adv-x="634" 
d="M532 614v-39l-186 -65q7 -44 39 -240.5t49 -314t17 -156.5q0 -67 -57.5 -97t-182.5 -30l-6 29l207 51q-4 90 -53.5 380.5t-49.5 348.5q0 32 14 50t56 31.5t129 27.5v10q-87 14 -129 27.5t-56 31.5t-14 50q0 58 49.5 348.5t53.5 380.5l-207 51l6 29q130 0 185 -29.5
t55 -97.5q0 -39 -17 -156.5t-49 -314t-39 -240.5z" />
    <glyph glyph-name="asciitilde" unicode="~" 
d="M1085 688l21 -16q-77 -113 -127 -162t-102 -49q-32 0 -80.5 21.5t-78 40t-100.5 63.5q-106 68 -156 94t-104 39l-186 -197l-20 17q77 113 127 162t102 49q32 0 81 -22t76.5 -39t100.5 -64q107 -69 154.5 -94t105.5 -39z" />
    <glyph glyph-name="uni00A0" unicode="&#xa0;" horiz-adv-x="512" 
 />
    <glyph glyph-name="exclamdown" unicode="&#xa1;" horiz-adv-x="450" 
d="M229 1030q15 0 25 -2q12 -27 12 -57q0 -65 -22 -109l-47 6l-13 154q24 8 45 8zM201 633h32q0 -93 5.5 -453t5.5 -538q-17 -7 -45 -7l-9 7q0 178 5.5 538t5.5 453z" />
    <glyph glyph-name="cent" unicode="&#xa2;" horiz-adv-x="978" 
d="M862 254l21 -23q-129 -135 -316 -147q1 -37 2 -113t2 -114l-41 -4l-8 6l4 225q-101 3 -178.5 45t-123.5 113.5t-68.5 160.5t-22.5 193q0 231 105.5 377t287.5 166l-4 223l41 4l8 -6q-1 -37 -2 -110t-2 -109h13q121 0 199.5 -53.5t78.5 -157.5q0 -45 -20 -84h-31l-31 211
q-105 43 -201 43h-8q0 -68 1 -222t1 -251t-1 -262.5t-1 -239.5q146 7 295 129zM180 596q0 -216 93 -339t253 -132q2 158 2 504q0 326 -2 469q-154 -20 -250 -150t-96 -352z" />
    <glyph glyph-name="sterling" unicode="&#xa3;" horiz-adv-x="1081" 
d="M934 266l33 -4q2 -14 2 -35q0 -254 -111 -254q-23 0 -85.5 16t-131.5 31t-179.5 19.5t-228.5 -19.5q-32 -28 -81 -28q-27 0 -46 8l-4 33l117 28q170 120 170 291q0 86 -43 203h-240v41h226q-4 10 -16 42t-16.5 45t-14 41t-14 45.5t-10 41.5t-7.5 45.5t-2 42.5
q0 91 40.5 168.5t124 127.5t195.5 50q119 0 199 -54t80 -157q0 -43 -21 -84h-30l-29 209q-103 43 -205 43q-138 0 -221.5 -87t-83.5 -216q0 -30 4.5 -60t14.5 -64.5t17.5 -56t23.5 -64t22 -58.5h346v-41h-330q39 -112 39 -209q0 -38 -6.5 -71t-24.5 -71.5t-55.5 -74.5
t-93.5 -68l4 -8q111 27 240 27q157 0 375 -72z" />
    <glyph glyph-name="currency" unicode="&#xa4;" horiz-adv-x="1116" 
d="M971 152l-178 178q-106 -86 -248 -86q-137 0 -226 80l-172 -172l-30 30l170 170q-82 98 -82 236q0 143 88 237l-178 179l30 30l179 -178q102 88 247 88q139 0 228 -80l170 170l30 -30l-170 -170q82 -94 82 -234q0 -146 -88 -240l178 -178zM252 592q0 -143 86.5 -225
t212.5 -82q59 0 114 19t100 56t72 98t27 138q0 143 -86.5 225t-212.5 82q-59 0 -114 -19t-100 -56t-72 -98t-27 -138z" />
    <glyph glyph-name="yen" unicode="&#xa5;" horiz-adv-x="1349" 
d="M1264 1188l-172 -17q-131 -247 -285 -503h272v-41h-297l-77 -127v-119h374v-41h-374v-303l235 -6v-31h-518v31l235 16v293h-376v41h376v119l-79 127h-297v41h272q-136 220 -295 514l-172 6v31h438v-31l-207 -17q161 -309 363 -622h10q199 316 361 633l-211 6v31h424v-31z
" />
    <glyph glyph-name="brokenbar" unicode="&#xa6;" horiz-adv-x="460" 
d="M250 942h-39v594h39v-594zM250 -246h-39v594h39v-594z" />
    <glyph glyph-name="section" unicode="&#xa7;" horiz-adv-x="923" 
d="M852 387q0 -80 -47.5 -137t-149.5 -96q76 -89 76 -191q0 -108 -78 -172.5t-207 -64.5q-123 0 -194.5 56.5t-71.5 147.5q0 45 21 80h30l29 -196q96 -47 186 -47q104 0 171 48t67 144q0 37 -12.5 71t-30 61t-61.5 69.5t-80 73.5t-113 94q-79 65 -119.5 100t-85.5 79
t-64.5 75t-32.5 68t-13 77q0 82 47 138t151 96q-77 86 -77 190q0 109 77.5 173.5t206.5 64.5q122 0 194 -57t72 -148q0 -47 -20 -80h-31l-28 196q-98 48 -187 48q-104 0 -170.5 -48.5t-66.5 -144.5q0 -36 12 -68.5t28 -58t59 -66.5t75 -68.5t106 -88.5q11 -9 17 -14
q95 -78 144.5 -122.5t94 -95.5t60.5 -93.5t16 -92.5zM635 176q43 21 70 38t52 41.5t36.5 56t11.5 71.5q0 78 -66.5 157.5t-277.5 250.5q-127 102 -170 147q-87 -40 -129.5 -85t-42.5 -122t65.5 -153.5t278.5 -249.5q126 -102 172 -152z" />
    <glyph glyph-name="dieresis" unicode="&#xa8;" horiz-adv-x="593" 
d="M111 1442q16 0 26 -2q13 -29 13 -62q0 -41 -23 -78h-47l-10 134q24 8 41 8zM485 1442q17 0 27 -2q12 -27 12 -62q0 -43 -22 -78h-47l-11 134q24 8 41 8z" />
    <glyph glyph-name="copyright" unicode="&#xa9;" horiz-adv-x="1671" 
d="M848 1389q146 0 273.5 -50.5t219.5 -141t144.5 -221.5t52.5 -286q0 -211 -95 -376t-256.5 -253t-359.5 -88q-148 0 -276.5 52t-220.5 143.5t-144.5 222.5t-52.5 283q0 208 95.5 372.5t258 253.5t361.5 89zM829 14q131 0 250.5 47.5t211 132t146 213.5t54.5 281
q0 149 -52 274.5t-141 209t-206 130t-248 46.5q-132 0 -251.5 -46.5t-211.5 -130.5t-146.5 -211.5t-54.5 -279.5q0 -149 52 -275.5t141 -211t207 -132t249 -47.5zM842 322q116 0 245 102l17 -25q-111 -114 -266 -114q-105 0 -177.5 56t-103.5 140t-31 187q0 180 94 294.5
t246 114.5q97 0 162.5 -47t65.5 -131q0 -29 -17 -68h-30l-23 168q-78 37 -160 37q-128 0 -209.5 -96t-81.5 -270q0 -164 73 -256t196 -92z" />
    <glyph glyph-name="ordfeminine" unicode="&#xaa;" horiz-adv-x="733" 
d="M692 481v-26q-77 -15 -114 -15q-64 0 -64 43v58h-10q-67 -54 -124 -81.5t-126 -27.5q-88 0 -132 44.5t-44 117.5q0 55 25.5 95t71 61.5t97.5 31t115 9.5q57 0 125 -5l2 125q2 106 -38.5 159.5t-143.5 53.5q-81 0 -160 -39l-20 -133h-31q-15 15 -15 52q0 65 69.5 112
t164.5 47q101 0 158.5 -60t56.5 -177l-4 -445h141zM264 471q65 0 119.5 26t126.5 83l2 176h-111q-140 0 -210 -38.5t-70 -121.5q0 -125 143 -125z" />
    <glyph glyph-name="guillemotleft" unicode="&#xab;" horiz-adv-x="1003" 
d="M829 899l-247 -340l247 -340l-22 -20l-275 350v20l275 351zM436 899l-248 -340l248 -340l-22 -20l-275 350v20l275 351z" />
    <glyph glyph-name="logicalnot" unicode="&#xac;" 
d="M999 199h-47v381h-798v43h845v-424z" />
    <glyph glyph-name="uni00AD" unicode="&#xad;" horiz-adv-x="753" 
d="M621 580h-488v43h488v-43z" />
    <glyph glyph-name="registered" unicode="&#xae;" horiz-adv-x="1220" 
d="M618 1479q212 0 351 -137t139 -357q0 -226 -144.5 -367t-359.5 -141q-213 0 -352 139.5t-139 356.5q0 147 67 263.5t182 179.5t256 63zM606 516q124 0 227 54.5t166.5 162.5t63.5 250q0 208 -128.5 332.5t-318.5 124.5q-193 0 -325.5 -126t-132.5 -337q0 -139 60.5 -245
t161.5 -161t226 -55zM662 961v-11q40 -57 129 -200h59v-29q-23 -10 -51 -10q-31 0 -54 30q-12 16 -34 51t-54.5 88.5t-42.5 69.5h-90v-194l92 -11v-28h-219v28l86 15v469h-86v28q41 0 117.5 1.5t83.5 1.5q178 0 178 -152q0 -122 -114 -147zM524 983h119q31 14 47.5 25
t29.5 36.5t13 63.5q0 119 -125 119h-84v-244z" />
    <glyph glyph-name="macron" unicode="&#xaf;" horiz-adv-x="555" 
d="M66 1378h423q5 -10 5 -20q0 -11 -5 -21h-423q-5 10 -5 21q0 10 5 20z" />
    <glyph glyph-name="degree" unicode="&#xb0;" horiz-adv-x="714" 
d="M360 1501q117 0 198 -82.5t81 -197.5q0 -119 -85 -201t-202 -82t-196.5 82t-79.5 197q0 119 83.5 201.5t200.5 82.5zM356 1462q-100 0 -167.5 -70t-67.5 -171q0 -102 67.5 -173t167.5 -71t169 71.5t69 172.5q0 100 -69.5 170.5t-168.5 70.5z" />
    <glyph glyph-name="plusminus" unicode="&#xb1;" 
d="M1061 664v-43h-408v-383h-43v383h-409v43h407v383h43v-383h410zM201 43h860v-43h-860v43z" />
    <glyph glyph-name="twosuperior" unicode="&#xb2;" horiz-adv-x="544" 
d="M446 928h29q6 -30 6 -66t-4 -76h-418l-10 33q22 19 68.5 58t69 58t60.5 53.5t57 56t44.5 54t37.5 59t21 59t9 65.5q0 81 -47 131.5t-127 50.5q-72 0 -136 -26l-18 -129h-27q-12 27 -12 53q0 62 60.5 100.5t136.5 38.5q96 0 154.5 -61.5t58.5 -157.5q0 -38 -11 -75
t-25.5 -67.5t-45 -67t-54.5 -62t-69 -63.5t-73.5 -60.5t-82.5 -63.5l4 -10q54 4 166 4l166 4z" />
    <glyph glyph-name="threesuperior" unicode="&#xb3;" horiz-adv-x="636" 
d="M281 1501q87 0 142.5 -47.5t55.5 -128.5q0 -69 -40.5 -108.5t-100.5 -55.5v-10q83 -11 122.5 -58t39.5 -118q0 -94 -64 -148.5t-168 -54.5q-89 0 -147 37.5t-58 101.5q0 25 13 54h26l19 -129q73 -27 145 -27q91 0 141 45t50 121q0 73 -49 117.5t-152 44.5h-51v34h106
q125 48 125 154q0 64 -44 101.5t-118 37.5q-71 0 -139 -26l-18 -129h-27q-12 27 -12 53q0 63 61.5 101t141.5 38z" />
    <glyph glyph-name="acute" unicode="&#xb4;" horiz-adv-x="434" 
d="M322 1571h14q21 -9 37 -31l-277 -366h-35z" />
    <glyph glyph-name="mu" unicode="&#xb5;" horiz-adv-x="1202" 
d="M1130 31v-31q-154 -12 -225 -14l-10 4l10 141h-10q-183 -158 -377 -158q-195 0 -248 148h-10l8 -551q-15 -6 -45 -6l-8 6l10 745v701q18 6 37 6l10 -8v-688q0 -312 250 -312q172 0 377 158v844q18 6 37 6l10 -8v-975z" />
    <glyph glyph-name="paragraph" unicode="&#xb6;" horiz-adv-x="1087" 
d="M569 553h-49q-216 0 -332 101.5t-116 297.5q0 194 114.5 302t331.5 108h51v-809zM1020 1362v-29l-184 -16v-1088q0 -109 -27.5 -188t-79 -124t-116 -66t-146.5 -21q-190 0 -322 107l17 26q145 -92 307 -92q74 0 130 17t102 56.5t70 111t24 173.5v1133h225z" />
    <glyph glyph-name="periodcentered" unicode="&#xb7;" horiz-adv-x="380" 
d="M193 678q18 0 28 -2q12 -27 12 -66q0 -56 -22 -100h-53l-11 160q24 8 46 8z" />
    <glyph glyph-name="cedilla" unicode="&#xb8;" horiz-adv-x="485" 
d="M250 12v-170q38 -4 64 -10.5t53.5 -19t42 -35.5t14.5 -56q0 -65 -51.5 -111t-136.5 -46q-47 0 -96 15t-79 40l15 27q80 -41 151 -41q69 0 109.5 31.5t40.5 80.5q0 20 -9 35t-20 24.5t-38.5 18.5t-44.5 13.5t-58 13.5l12 190h31z" />
    <glyph glyph-name="onesuperior" unicode="&#xb9;" horiz-adv-x="493" 
d="M444 811v-25h-362v25l164 12v607q-58 -47 -160 -62l-6 33q55 8 106 34t82 66l19 -2v-682z" />
    <glyph glyph-name="ordmasculine" unicode="&#xba;" horiz-adv-x="743" 
d="M381 1163q89 0 152.5 -51.5t92.5 -132t29 -180.5q0 -165 -79.5 -267t-210.5 -102q-133 0 -205 103.5t-72 257.5q0 164 80 268t213 104zM375 1124q-114 0 -179 -88t-65 -243q0 -150 62 -237t176 -87t178.5 86.5t64.5 241.5q0 152 -62 239.5t-175 87.5z" />
    <glyph glyph-name="guillemotright" unicode="&#xbb;" horiz-adv-x="1003" 
d="M864 569v-20l-274 -350l-23 20l248 340l-248 340l23 21zM471 569v-20l-274 -350l-23 20l248 340l-248 340l23 21z" />
    <glyph glyph-name="onequarter" unicode="&#xbc;" horiz-adv-x="1679" 
d="M1352 1368l4 -12q-89 -127 -251.5 -357t-209.5 -297q-82 -118 -247 -359t-247 -359l-30 10l-4 12q66 95 235.5 335t259.5 370q83 118 236.5 343t222.5 324zM526 563v-24h-436v24l199 12v730q-82 -62 -193 -72l-6 31q138 21 227 120l19 -2v-813zM1620 178h-164v-178h-43
v178h-366l-11 23q176 315 291 639l39 -6l4 -11q-129 -342 -295 -608l4 -8q122 8 181 8h153v215l35 19l8 -3v-231h164v-37z" />
    <glyph glyph-name="onehalf" unicode="&#xbd;" horiz-adv-x="1755" 
d="M1352 1368l4 -12q-89 -127 -251.5 -357t-209.5 -297q-82 -118 -247 -359t-247 -359l-30 10l-4 12q66 95 235.5 335t259.5 370q83 118 236.5 343t222.5 324zM526 563v-24h-436v24l199 12v730q-82 -62 -193 -72l-6 31q138 21 227 120l19 -2v-813zM1647 156h30q6 -27 6 -68
q0 -47 -8 -88h-506l-10 31q35 30 104.5 88t108.5 91t92.5 87t81.5 96.5t49 98.5t21 112q0 96 -52.5 151.5t-150.5 55.5q-90 0 -172 -45l-20 -143h-29q-14 25 -14 59q0 73 73.5 120.5t167.5 47.5q111 0 176.5 -68.5t65.5 -173.5q0 -75 -34.5 -149t-102.5 -148t-142 -136.5
t-180 -141.5l4 -8q51 5 207 8l219 2z" />
    <glyph glyph-name="threequarters" unicode="&#xbe;" horiz-adv-x="1728" 
d="M1401 1368l4 -12q-89 -127 -251.5 -357t-209.5 -297q-82 -118 -246.5 -359t-246.5 -359l-31 10l-4 12q66 95 235.5 335t259.5 370q83 118 236.5 343t222.5 324zM406 979v-10q89 -14 141.5 -67t52.5 -146q0 -115 -79 -179.5t-206 -64.5q-109 0 -176 46.5t-67 121.5
q0 34 14 59h29l20 -143q82 -45 172 -45q67 0 120 17.5t90.5 65t37.5 120.5q0 198 -262 198h-51v39h131q33 13 54.5 24.5t48.5 33t40.5 54t13.5 75.5q0 85 -54 128.5t-150 43.5q-97 0 -179 -45l-20 -144h-29q-14 25 -14 60q0 74 74 121t176 47q109 0 175 -56t66 -149
q0 -46 -16.5 -84t-44 -61.5t-54 -37.5t-54.5 -22zM1669 178h-164v-178h-43v178h-366l-11 23q176 315 291 639l39 -6l4 -11q-129 -342 -295 -608l4 -8q122 8 181 8h153v215l35 19l8 -3v-231h164v-37z" />
    <glyph glyph-name="questiondown" unicode="&#xbf;" horiz-adv-x="655" 
d="M414 868l-13 154q24 8 45 8q15 0 25 -2q12 -27 12 -57q0 -65 -22 -109zM150 43q0 -132 104 -236.5t289 -128.5l-8 -34h-7q-69 0 -142.5 29.5t-134 80t-99.5 125t-39 156.5q0 71 39.5 129.5t86.5 95t179 124.5q7 6 11.5 8.5t11 7t12.5 8.5l-27 217l29 6q39 -125 39 -195
q0 -27 -14 -47t-62 -53q-64 -43 -93.5 -63.5t-67.5 -49.5t-52.5 -45.5t-30.5 -40t-20 -45t-4 -49.5z" />
    <glyph glyph-name="Agrave" unicode="&#xc0;" horiz-adv-x="1429" 
d="M1399 31v-31h-459v31l215 16q-35 114 -131 410h-623q-90 -269 -137 -420l234 -6v-31h-467v31l192 16q70 223 205 617t248 702l53 23h19q236 -642 460 -1352zM416 498h594q-157 472 -291 841h-10q-159 -439 -293 -841zM737 1481h-35l-151 297q15 20 37 30h14z" />
    <glyph glyph-name="Aacute" unicode="&#xc1;" horiz-adv-x="1429" 
d="M1399 31v-31h-459v31l215 16q-35 114 -131 410h-623q-90 -269 -137 -420l234 -6v-31h-467v31l192 16q70 223 205 617t248 702l53 23h19q236 -642 460 -1352zM416 498h594q-157 472 -291 841h-10q-159 -439 -293 -841zM877 1829h14q21 -9 37 -31l-213 -317h-35z" />
    <glyph glyph-name="Acircumflex" unicode="&#xc2;" horiz-adv-x="1429" 
d="M1399 31v-31h-459v31l215 16q-35 114 -131 410h-623q-90 -269 -137 -420l234 -6v-31h-467v31l192 16q70 223 205 617t248 702l53 23h19q236 -642 460 -1352zM416 498h594q-157 472 -291 841h-10q-159 -439 -293 -841zM983 1495l-31 -20l-227 278h-10l-228 -272h-34
l241 319h58z" />
    <glyph glyph-name="Atilde" unicode="&#xc3;" horiz-adv-x="1429" 
d="M1399 31v-31h-459v31l215 16q-35 114 -131 410h-623q-90 -269 -137 -420l234 -6v-31h-467v31l192 16q70 223 205 617t248 702l53 23h19q236 -642 460 -1352zM416 498h594q-157 472 -291 841h-10q-159 -439 -293 -841zM979 1690l20 -17q-4 -7 -14 -25.5t-14 -25.5
t-13 -22.5t-14 -22t-14 -18t-16 -16.5t-16 -11t-18.5 -8t-19.5 -2q-31 0 -74 26l-215 140l-112 -138l-21 17q4 7 13.5 24t13.5 25t13 22.5t14.5 22t14 18.5t15.5 16.5t15.5 11.5t18 8.5t19.5 2.5q31 0 76 -26l215 -138z" />
    <glyph glyph-name="Adieresis" unicode="&#xc4;" horiz-adv-x="1429" 
d="M1399 31v-31h-459v31l215 16q-35 114 -131 410h-623q-90 -269 -137 -420l234 -6v-31h-467v31l192 16q70 223 205 617t248 702l53 23h19q236 -642 460 -1352zM416 498h594q-157 472 -291 841h-10q-159 -439 -293 -841zM481 1718q19 0 29 -2q12 -27 12 -61q0 -43 -22 -78
h-51l-11 133q24 8 43 8zM954 1718q17 0 27 -2q12 -27 12 -61q0 -43 -22 -78h-47l-11 133q24 8 41 8z" />
    <glyph glyph-name="Aring" unicode="&#xc5;" horiz-adv-x="1429" 
d="M1399 31v-31h-459v31l215 16q-35 114 -131 410h-623q-90 -269 -137 -420l234 -6v-31h-467v31l192 16q70 223 205 617t248 702l53 23h19q236 -642 460 -1352zM416 498h594q-157 472 -291 841h-10q-159 -439 -293 -841zM727 1841q80 0 132 -46.5t52 -129.5q0 -90 -59 -137
t-143 -47q-81 0 -133 44.5t-52 127.5q0 90 60 139t143 49zM719 1804q-71 0 -111.5 -39.5t-40.5 -105.5q0 -65 40 -103t110 -38q72 0 111.5 40.5t39.5 104.5q0 63 -39 102t-110 39z" />
    <glyph glyph-name="AE" unicode="&#xc6;" horiz-adv-x="1964" 
d="M1761 303h31q8 -68 8 -137q0 -90 -12 -166h-940v31l215 16v389h-555l-234 -399l232 -6v-31h-465v31l190 16q363 618 781 1278l-215 6v31h995q4 -51 4 -125q0 -93 -10 -178h-31l-16 266h-629v-651h412l12 168h35v-377h-35l-12 168h-412v-598l629 8zM1063 477v848h-10
q-340 -547 -521 -848h531z" />
    <glyph glyph-name="Ccedilla" unicode="&#xc7;" horiz-adv-x="1220" 
d="M1071 147l16 -28q-148 -137 -356 -146v-131q38 -4 64 -10.5t53.5 -19t42 -35.5t14.5 -56q0 -65 -51.5 -111t-136.5 -46q-47 0 -95.5 15t-78.5 40l14 27q80 -41 152 -41q69 0 109 31.5t40 80.5q0 20 -9 35t-20 24.5t-38.5 18.5t-44.5 13.5t-58 13.5l10 151q-115 1 -209 37
t-159.5 99.5t-110 151t-65.5 189.5t-21 218q0 122 24 230t73 198t119 155t167.5 101.5t212.5 36.5q182 0 338 -76q4 -51 4 -125q0 -104 -10 -199h-31l-22 299q-137 58 -285 58q-108 0 -203.5 -40.5t-172 -120t-121 -211.5t-44.5 -302q0 -312 143 -482t380 -170
q191 0 366 127z" />
    <glyph glyph-name="Egrave" unicode="&#xc8;" horiz-adv-x="1232" 
d="M1030 303h31q8 -68 8 -137q0 -90 -12 -166h-940v31l215 16v1278l-215 6v31h944q4 -51 4 -125q0 -93 -10 -178h-31l-18 260l-627 8v-653h412l12 168h35v-377h-35l-12 168h-412v-598l629 8zM655 1481h-34l-152 297q15 20 37 30h14z" />
    <glyph glyph-name="Eacute" unicode="&#xc9;" horiz-adv-x="1232" 
d="M1030 303h31q8 -68 8 -137q0 -90 -12 -166h-940v31l215 16v1278l-215 6v31h944q4 -51 4 -125q0 -93 -10 -178h-31l-18 260l-627 8v-653h412l12 168h35v-377h-35l-12 168h-412v-598l629 8zM795 1829h14q21 -9 37 -31l-213 -317h-35z" />
    <glyph glyph-name="Ecircumflex" unicode="&#xca;" horiz-adv-x="1232" 
d="M1030 303h31q8 -68 8 -137q0 -90 -12 -166h-940v31l215 16v1278l-215 6v31h944q4 -51 4 -125q0 -93 -10 -178h-31l-18 260l-627 8v-653h412l12 168h35v-377h-35l-12 168h-412v-598l629 8zM901 1495l-31 -20l-227 278h-10l-227 -272h-35l241 319h58z" />
    <glyph glyph-name="Edieresis" unicode="&#xcb;" horiz-adv-x="1232" 
d="M1030 303h31q8 -68 8 -137q0 -90 -12 -166h-940v31l215 16v1278l-215 6v31h944q4 -51 4 -125q0 -93 -10 -178h-31l-18 260l-627 8v-653h412l12 168h35v-377h-35l-12 168h-412v-598l629 8zM399 1718q19 0 29 -2q12 -27 12 -61q0 -43 -22 -78h-51l-11 133q24 8 43 8z
M872 1718q17 0 27 -2q12 -27 12 -61q0 -43 -22 -78h-47l-11 133q24 8 41 8z" />
    <glyph glyph-name="Igrave" unicode="&#xcc;" horiz-adv-x="710" 
d="M379 1315v-1278l215 -6v-31h-477v31l215 16v1278l-215 6v31h477v-31zM373 1481h-35l-152 297q15 20 37 30h15z" />
    <glyph glyph-name="Iacute" unicode="&#xcd;" horiz-adv-x="710" 
d="M379 1315v-1278l215 -6v-31h-477v31l215 16v1278l-215 6v31h477v-31zM512 1829h14q21 -9 37 -31l-213 -317h-35z" />
    <glyph glyph-name="Icircumflex" unicode="&#xce;" horiz-adv-x="710" 
d="M379 1315v-1278l215 -6v-31h-477v31l215 16v1278l-215 6v31h477v-31zM618 1495l-30 -20l-228 278h-10l-227 -272h-35l242 319h57z" />
    <glyph glyph-name="Idieresis" unicode="&#xcf;" horiz-adv-x="710" 
d="M379 1315v-1278l215 -6v-31h-477v31l215 16v1278l-215 6v31h477v-31zM117 1718q18 0 28 -2q13 -29 13 -61q0 -41 -23 -78h-51l-10 133q24 8 43 8zM590 1718q16 0 26 -2q13 -29 13 -61q0 -41 -23 -78h-47l-10 133q24 8 41 8z" />
    <glyph glyph-name="Eth" unicode="&#xd0;" horiz-adv-x="1392" 
d="M127 1331l2 31q177 6 485 6q165 0 291 -53t202.5 -148t114.5 -217.5t38 -269.5q0 -148 -38.5 -268.5t-117.5 -214.5t-211 -145.5t-307 -51.5h-459v31l217 16v639h-217v39h217v600zM391 41h195q142 0 254.5 36.5t196 112t128.5 199t45 289.5q0 317 -159 482t-437 165h-223
v-600h352v-39h-352v-645z" />
    <glyph glyph-name="Ntilde" unicode="&#xd1;" horiz-adv-x="1550" 
d="M1458 1362v-31l-215 -16v-1315l-41 -18l-26 -2l-662 1114q-109 185 -131 227h-10v-1284l235 -6v-31h-491v33l215 14v1278l-215 6v31h295l635 -1073q131 -224 145 -250h10v1286l-215 6v31h471zM1042 1690l21 -17q-4 -7 -14 -25.5t-14 -25.5t-13 -22.5t-14 -22t-14 -18
t-16 -16.5t-16 -11t-18.5 -8t-19.5 -2q-31 0 -74 26l-215 140l-113 -138l-20 17q4 7 13.5 24t13.5 25t13 22.5t14.5 22t14 18.5t15.5 16.5t15.5 11.5t18 8.5t19.5 2.5q31 0 76 -26l215 -138z" />
    <glyph glyph-name="Ograve" unicode="&#xd2;" horiz-adv-x="1380" 
d="M705 1389q109 0 199 -35.5t153 -98.5t106.5 -150t63.5 -189.5t20 -217.5q0 -156 -38.5 -288.5t-110 -230t-180.5 -152t-244 -54.5q-134 0 -239 54t-170 149t-98.5 220t-33.5 272q0 211 65.5 372.5t196.5 255t310 93.5zM705 1346q-80 0 -154 -23t-142 -75.5t-118 -129
t-79.5 -191.5t-29.5 -255q0 -163 38.5 -290t106.5 -206t156.5 -119.5t192.5 -40.5q81 0 155.5 24t142 77t117 130.5t78.5 192.5t29 254q0 161 -38 287t-106 205t-156.5 119.5t-192.5 40.5zM709 1481h-35l-152 297q15 20 37 30h14z" />
    <glyph glyph-name="Oacute" unicode="&#xd3;" horiz-adv-x="1380" 
d="M705 1389q109 0 199 -35.5t153 -98.5t106.5 -150t63.5 -189.5t20 -217.5q0 -156 -38.5 -288.5t-110 -230t-180.5 -152t-244 -54.5q-134 0 -239 54t-170 149t-98.5 220t-33.5 272q0 211 65.5 372.5t196.5 255t310 93.5zM705 1346q-80 0 -154 -23t-142 -75.5t-118 -129
t-79.5 -191.5t-29.5 -255q0 -163 38.5 -290t106.5 -206t156.5 -119.5t192.5 -40.5q81 0 155.5 24t142 77t117 130.5t78.5 192.5t29 254q0 161 -38 287t-106 205t-156.5 119.5t-192.5 40.5zM848 1829h14q21 -9 37 -31l-213 -317h-35z" />
    <glyph glyph-name="Ocircumflex" unicode="&#xd4;" horiz-adv-x="1380" 
d="M705 1389q109 0 199 -35.5t153 -98.5t106.5 -150t63.5 -189.5t20 -217.5q0 -156 -38.5 -288.5t-110 -230t-180.5 -152t-244 -54.5q-134 0 -239 54t-170 149t-98.5 220t-33.5 272q0 211 65.5 372.5t196.5 255t310 93.5zM705 1346q-80 0 -154 -23t-142 -75.5t-118 -129
t-79.5 -191.5t-29.5 -255q0 -163 38.5 -290t106.5 -206t156.5 -119.5t192.5 -40.5q81 0 155.5 24t142 77t117 130.5t78.5 192.5t29 254q0 161 -38 287t-106 205t-156.5 119.5t-192.5 40.5zM954 1495l-30 -20l-228 278h-10l-227 -272h-35l242 319h57z" />
    <glyph glyph-name="Otilde" unicode="&#xd5;" horiz-adv-x="1380" 
d="M705 1389q109 0 199 -35.5t153 -98.5t106.5 -150t63.5 -189.5t20 -217.5q0 -156 -38.5 -288.5t-110 -230t-180.5 -152t-244 -54.5q-134 0 -239 54t-170 149t-98.5 220t-33.5 272q0 211 65.5 372.5t196.5 255t310 93.5zM705 1346q-80 0 -154 -23t-142 -75.5t-118 -129
t-79.5 -191.5t-29.5 -255q0 -163 38.5 -290t106.5 -206t156.5 -119.5t192.5 -40.5q81 0 155.5 24t142 77t117 130.5t78.5 192.5t29 254q0 161 -38 287t-106 205t-156.5 119.5t-192.5 40.5zM950 1690l21 -17q-49 -89 -68 -112q-33 -39 -72 -39q-30 0 -73 26l-215 140
l-113 -138l-20 17q4 7 13.5 24t13.5 25t13 22.5t14.5 22t14 18.5t15.5 16.5t15.5 11.5t18 8.5t19.5 2.5q31 0 76 -26l215 -138z" />
    <glyph glyph-name="Odieresis" unicode="&#xd6;" horiz-adv-x="1380" 
d="M705 1389q109 0 199 -35.5t153 -98.5t106.5 -150t63.5 -189.5t20 -217.5q0 -156 -38.5 -288.5t-110 -230t-180.5 -152t-244 -54.5q-134 0 -239 54t-170 149t-98.5 220t-33.5 272q0 211 65.5 372.5t196.5 255t310 93.5zM705 1346q-80 0 -154 -23t-142 -75.5t-118 -129
t-79.5 -191.5t-29.5 -255q0 -163 38.5 -290t106.5 -206t156.5 -119.5t192.5 -40.5q81 0 155.5 24t142 77t117 130.5t78.5 192.5t29 254q0 161 -38 287t-106 205t-156.5 119.5t-192.5 40.5zM453 1718q18 0 28 -2q13 -29 13 -61q0 -41 -23 -78h-51l-10 133q24 8 43 8z
M926 1718q16 0 26 -2q13 -29 13 -61q0 -41 -23 -78h-47l-10 133q24 8 41 8z" />
    <glyph glyph-name="multiply" unicode="&#xd7;" 
d="M1022 965l-363 -363l365 -364l-31 -31l-364 362l-363 -362l-30 31l362 362l-365 365l31 30l365 -362l362 362z" />
    <glyph glyph-name="Oslash" unicode="&#xd8;" horiz-adv-x="1380" 
d="M1235 1487l-162 -250q174 -186 174 -539q0 -156 -38.5 -288.5t-110 -230t-180.5 -152t-244 -54.5q-206 0 -340 125l-158 -245l-26 10l-5 12l160 250q-85 94 -128.5 234t-43.5 309q0 211 65.5 372.5t196.5 255t310 93.5q208 0 342 -125l157 245l27 -10zM705 1346
q-80 0 -154 -23t-142 -75.5t-118 -129t-79.5 -191.5t-29.5 -255q0 -327 154 -506l680 1059q-124 121 -311 121zM676 16q81 0 155.5 24t142 77t117 130.5t78.5 192.5t29 254q0 325 -154 504l-682 -1061q127 -121 314 -121z" />
    <glyph glyph-name="Ugrave" unicode="&#xd9;" horiz-adv-x="1470" 
d="M1403 1362v-31l-215 -16v-858q0 -232 -113.5 -358t-333.5 -126q-222 0 -340 129.5t-118 368.5v854l-215 6v31h497v-31l-235 -16v-860q0 -113 32 -199t90 -137.5t132.5 -77t165.5 -25.5q184 0 290.5 107.5t106.5 331.5v870l-236 6v31h492zM760 1481h-35l-152 297
q15 20 37 30h15z" />
    <glyph glyph-name="Uacute" unicode="&#xda;" horiz-adv-x="1470" 
d="M1403 1362v-31l-215 -16v-858q0 -232 -113.5 -358t-333.5 -126q-222 0 -340 129.5t-118 368.5v854l-215 6v31h497v-31l-235 -16v-860q0 -113 32 -199t90 -137.5t132.5 -77t165.5 -25.5q184 0 290.5 107.5t106.5 331.5v870l-236 6v31h492zM899 1829h14q21 -9 37 -31
l-213 -317h-35z" />
    <glyph glyph-name="Ucircumflex" unicode="&#xdb;" horiz-adv-x="1470" 
d="M1403 1362v-31l-215 -16v-858q0 -232 -113.5 -358t-333.5 -126q-222 0 -340 129.5t-118 368.5v854l-215 6v31h497v-31l-235 -16v-860q0 -113 32 -199t90 -137.5t132.5 -77t165.5 -25.5q184 0 290.5 107.5t106.5 331.5v870l-236 6v31h492zM1006 1495l-31 -20l-227 278h-11
l-227 -272h-35l242 319h57z" />
    <glyph glyph-name="Udieresis" unicode="&#xdc;" horiz-adv-x="1470" 
d="M1403 1362v-31l-215 -16v-858q0 -232 -113.5 -358t-333.5 -126q-222 0 -340 129.5t-118 368.5v854l-215 6v31h497v-31l-235 -16v-860q0 -113 32 -199t90 -137.5t132.5 -77t165.5 -25.5q184 0 290.5 107.5t106.5 331.5v870l-236 6v31h492zM504 1718q18 0 28 -2
q13 -29 13 -61q0 -41 -23 -78h-51l-10 133q24 8 43 8zM977 1718q17 0 27 -2q12 -27 12 -61q0 -41 -23 -78h-47l-10 133q24 8 41 8z" />
    <glyph glyph-name="Yacute" unicode="&#xdd;" horiz-adv-x="1320" 
d="M1270 1331l-191 -16q-192 -434 -389 -823v-455l256 -6v-31h-559v31l256 16v445q-205 397 -401 833l-191 6v31h479v-31l-229 -16q167 -382 365 -766h10q184 363 362 776l-233 6v31h465v-31zM823 1829h15q20 -9 36 -31l-212 -317h-35z" />
    <glyph glyph-name="Thorn" unicode="&#xde;" horiz-adv-x="1171" 
d="M528 354h107q183 0 281 91t98 262q0 168 -95 267t-282 99h-258v-1036l297 -6v-31h-559v31l215 16v1278l-215 6v31h254l8 -10v-236h248q220 0 328 -108.5t108 -292.5q0 -195 -113.5 -298.5t-310.5 -103.5q-53 0 -111 9v32z" />
    <glyph glyph-name="germandbls" unicode="&#xdf;" horiz-adv-x="1173" 
d="M889 565q6 -4 35 -24.5t36.5 -26.5t32 -25t32.5 -29t26 -29.5t24.5 -35.5t16 -37.5t13 -45.5t3.5 -50q0 -129 -86.5 -209t-224.5 -80q-102 0 -175 46.5t-73 136.5q0 58 20 86h31l29 -195q115 -33 176 -33q112 0 184 67t72 185q0 81 -44.5 134.5t-182.5 150.5
q-47 34 -70 51.5t-52.5 47.5t-42 60t-12.5 66q0 51 24.5 85.5t76.5 78.5q7 6 32 27t34 29t29.5 28.5t29.5 33.5t23 36t20 43.5t11 48.5t5 59q0 124 -69 190t-191 66q-91 0 -161.5 -36.5t-112.5 -98.5t-63 -139t-21 -164v-1063h-232v31l184 16v926h-184v31l184 16v43
q0 221 115 350t297 129q142 0 221.5 -79t79.5 -212q0 -59 -15.5 -108.5t-45 -88t-53 -62t-59.5 -53.5q-7 -6 -11 -9q-62 -53 -83.5 -81.5t-21.5 -64.5q0 -54 40.5 -99t148.5 -120z" />
    <glyph glyph-name="agrave" unicode="&#xe0;" horiz-adv-x="1015" 
d="M961 29v-29q-96 -14 -146 -14q-42 0 -60 13t-18 48v84h-10q-175 -158 -367 -158q-126 0 -192 65t-66 169q0 63 26 112t68 79t102 49.5t122 26.5t133 7q83 0 182 -6l2 225q1 141 -68.5 215t-201.5 74q-114 0 -229 -67l-29 -199h-31q-20 28 -20 76q0 95 94.5 163t224.5 68
q135 0 220.5 -82t84.5 -239l-6 -680h185zM358 14q89 0 187 42t188 118l2 272h-149q-436 0 -436 -237q0 -87 53 -141t155 -54zM514 1174h-35l-235 366q16 22 37 31h14z" />
    <glyph glyph-name="aacute" unicode="&#xe1;" horiz-adv-x="1015" 
d="M961 29v-29q-96 -14 -146 -14q-42 0 -60 13t-18 48v84h-10q-175 -158 -367 -158q-126 0 -192 65t-66 169q0 63 26 112t68 79t102 49.5t122 26.5t133 7q83 0 182 -6l2 225q1 141 -68.5 215t-201.5 74q-114 0 -229 -67l-29 -199h-31q-20 28 -20 76q0 95 94.5 163t224.5 68
q135 0 220.5 -82t84.5 -239l-6 -680h185zM358 14q89 0 187 42t188 118l2 272h-149q-436 0 -436 -237q0 -87 53 -141t155 -54zM707 1571h14q21 -9 37 -31l-277 -366h-35z" />
    <glyph glyph-name="acircumflex" unicode="&#xe2;" horiz-adv-x="1015" 
d="M961 29v-29q-96 -14 -146 -14q-42 0 -60 13t-18 48v84h-10q-175 -158 -367 -158q-126 0 -192 65t-66 169q0 63 26 112t68 79t102 49.5t122 26.5t133 7q83 0 182 -6l2 225q1 141 -68.5 215t-201.5 74q-114 0 -229 -67l-29 -199h-31q-20 28 -20 76q0 95 94.5 163t224.5 68
q135 0 220.5 -82t84.5 -239l-6 -680h185zM358 14q89 0 187 42t188 118l2 272h-149q-436 0 -436 -237q0 -87 53 -141t155 -54zM725 1219l-31 -21l-205 299h-10l-205 -293h-34l219 340h57z" />
    <glyph glyph-name="atilde" unicode="&#xe3;" horiz-adv-x="1015" 
d="M961 29v-29q-96 -14 -146 -14q-42 0 -60 13t-18 48v84h-10q-175 -158 -367 -158q-126 0 -192 65t-66 169q0 63 26 112t68 79t102 49.5t122 26.5t133 7q83 0 182 -6l2 225q1 141 -68.5 215t-201.5 74q-114 0 -229 -67l-29 -199h-31q-20 28 -20 76q0 95 94.5 163t224.5 68
q135 0 220.5 -82t84.5 -239l-6 -680h185zM358 14q89 0 187 42t188 118l2 272h-149q-436 0 -436 -237q0 -87 53 -141t155 -54zM719 1434l20 -17q-4 -7 -13.5 -24.5t-13.5 -25.5t-12.5 -22.5t-14 -22t-13.5 -18.5t-15 -16t-16 -11t-18 -8.5t-19 -2.5q-27 0 -67 30l-187 136
l-106 -138l-21 17q4 8 17.5 32.5t18 32.5t16 26.5t19 25.5t19 17t23 13.5t24.5 3.5q28 0 66 -28l186 -138z" />
    <glyph glyph-name="adieresis" unicode="&#xe4;" horiz-adv-x="1015" 
d="M961 29v-29q-96 -14 -146 -14q-42 0 -60 13t-18 48v84h-10q-175 -158 -367 -158q-126 0 -192 65t-66 169q0 63 26 112t68 79t102 49.5t122 26.5t133 7q83 0 182 -6l2 225q1 141 -68.5 215t-201.5 74q-114 0 -229 -67l-29 -199h-31q-20 28 -20 76q0 95 94.5 163t224.5 68
q135 0 220.5 -82t84.5 -239l-6 -680h185zM358 14q89 0 187 42t188 118l2 272h-149q-436 0 -436 -237q0 -87 53 -141t155 -54zM295 1442q17 0 27 -2q12 -27 12 -62q0 -41 -23 -78h-47l-10 134q24 8 41 8zM670 1442q16 0 26 -2q13 -29 13 -62q0 -41 -23 -78h-47l-10 134
q24 8 41 8z" />
    <glyph glyph-name="aring" unicode="&#xe5;" horiz-adv-x="1015" 
d="M961 29v-29q-96 -14 -146 -14q-42 0 -60 13t-18 48v84h-10q-175 -158 -367 -158q-126 0 -192 65t-66 169q0 63 26 112t68 79t102 49.5t122 26.5t133 7q83 0 182 -6l2 225q1 141 -68.5 215t-201.5 74q-114 0 -229 -67l-29 -199h-31q-20 28 -20 76q0 95 94.5 163t224.5 68
q135 0 220.5 -82t84.5 -239l-6 -680h185zM358 14q89 0 187 42t188 118l2 272h-149q-436 0 -436 -237q0 -87 53 -141t155 -54zM492 1577q79 0 131.5 -49.5t52.5 -134.5q0 -93 -60 -145t-143 -52q-79 0 -131.5 49.5t-52.5 134.5q0 93 60 145t143 52zM483 1540
q-70 0 -110.5 -43t-40.5 -111q0 -69 40 -111t109 -42q72 0 112 45t40 113q0 65 -39.5 107t-110.5 42z" />
    <glyph glyph-name="ae" unicode="&#xe6;" horiz-adv-x="1564" 
d="M1432 143l20 -22q-142 -148 -334 -148q-223 0 -323 205h-11q-94 -104 -205.5 -153.5t-218.5 -49.5q-127 0 -192.5 65t-65.5 173q0 152 145.5 218.5t483.5 78.5l6 176q4 150 -66 227.5t-204 77.5q-114 0 -229 -67l-29 -199h-31q-20 28 -20 76q0 95 95 163t226 68
q135 0 213.5 -78.5t83.5 -210.5h10q38 127 134 207t227 80q146 0 223.5 -98t77.5 -258q0 -79 -14 -150l-656 -41v-2q0 -228 97 -347.5t251 -119.5q153 0 306 129zM1141 989q-148 0 -251 -125.5t-112 -349.5l617 47q6 58 6 107q0 158 -71 239.5t-189 81.5zM360 18
q99 0 208.5 51t207.5 150q-42 110 -45 256l-104 -6q-252 -17 -364.5 -78t-112.5 -182q0 -86 53 -138.5t157 -52.5z" />
    <glyph glyph-name="ccedilla" unicode="&#xe7;" horiz-adv-x="946" 
d="M825 143l19 -22q-133 -139 -318 -148v-131q38 -4 64 -10.5t53.5 -19t42 -35.5t14.5 -56q0 -65 -51.5 -111t-136.5 -46q-47 0 -95.5 15t-78.5 40l14 27q80 -41 152 -41q69 0 109 31.5t40 80.5q0 20 -9 35t-20 24.5t-38.5 18.5t-44.5 13.5t-58 13.5l11 151q-97 3 -171 45
t-118.5 113t-67 160t-22.5 192q0 249 117.5 398t314.5 149q116 0 194 -54t78 -157q0 -45 -20 -84h-31l-31 211q-105 43 -196 43q-163 0 -271 -132.5t-108 -371.5q0 -223 97 -347t257 -124q152 0 309 129z" />
    <glyph glyph-name="egrave" unicode="&#xe8;" horiz-adv-x="966" 
d="M834 143l20 -22q-142 -148 -336 -148q-103 0 -182.5 41t-126.5 113t-70.5 162t-23.5 196q0 247 117.5 396t308.5 149q153 0 231 -97t78 -259q0 -79 -14 -150h-674v-35q0 -226 98 -350.5t264 -124.5q90 0 164 34.5t146 94.5zM535 989q-152 0 -254 -113.5t-117 -320.5
l633 8q6 55 6 105q0 160 -71.5 240.5t-196.5 80.5zM557 1174h-35l-235 366q16 22 37 31h14z" />
    <glyph glyph-name="eacute" unicode="&#xe9;" horiz-adv-x="966" 
d="M834 143l20 -22q-142 -148 -336 -148q-103 0 -182.5 41t-126.5 113t-70.5 162t-23.5 196q0 247 117.5 396t308.5 149q153 0 231 -97t78 -259q0 -79 -14 -150h-674v-35q0 -226 98 -350.5t264 -124.5q90 0 164 34.5t146 94.5zM535 989q-152 0 -254 -113.5t-117 -320.5
l633 8q6 55 6 105q0 160 -71.5 240.5t-196.5 80.5zM750 1571h14q21 -9 37 -31l-277 -366h-35z" />
    <glyph glyph-name="ecircumflex" unicode="&#xea;" horiz-adv-x="966" 
d="M834 143l20 -22q-142 -148 -336 -148q-103 0 -182.5 41t-126.5 113t-70.5 162t-23.5 196q0 247 117.5 396t308.5 149q153 0 231 -97t78 -259q0 -79 -14 -150h-674v-35q0 -226 98 -350.5t264 -124.5q90 0 164 34.5t146 94.5zM535 989q-152 0 -254 -113.5t-117 -320.5
l633 8q6 55 6 105q0 160 -71.5 240.5t-196.5 80.5zM768 1219l-31 -21l-205 299h-10l-205 -293h-34l219 340h57z" />
    <glyph glyph-name="edieresis" unicode="&#xeb;" horiz-adv-x="966" 
d="M834 143l20 -22q-142 -148 -336 -148q-103 0 -182.5 41t-126.5 113t-70.5 162t-23.5 196q0 247 117.5 396t308.5 149q153 0 231 -97t78 -259q0 -79 -14 -150h-674v-35q0 -226 98 -350.5t264 -124.5q90 0 164 34.5t146 94.5zM535 989q-152 0 -254 -113.5t-117 -320.5
l633 8q6 55 6 105q0 160 -71.5 240.5t-196.5 80.5zM338 1442q17 0 27 -2q12 -27 12 -62q0 -41 -23 -78h-47l-10 134q24 8 41 8zM713 1442q16 0 26 -2q13 -29 13 -62q0 -41 -23 -78h-47l-10 134q24 8 41 8z" />
    <glyph glyph-name="igrave" unicode="&#xec;" horiz-adv-x="579" 
d="M528 31v-31h-436v31l184 16v918l-184 8v31q147 12 221 14l11 -8v-973zM330 1174h-35l-236 366q16 22 37 31h15z" />
    <glyph glyph-name="iacute" unicode="&#xed;" horiz-adv-x="579" 
d="M528 31v-31h-436v31l184 16v918l-184 8v31q147 12 221 14l11 -8v-973zM502 1571h14q21 -9 37 -31l-277 -366h-34z" />
    <glyph glyph-name="icircumflex" unicode="&#xee;" horiz-adv-x="579" 
d="M528 31v-31h-436v31l184 16v918l-184 8v31q147 12 221 14l11 -8v-973zM481 1219l-32 -21l-158 299h-10l-179 -293h-34l192 340h57z" />
    <glyph glyph-name="idieresis" unicode="&#xef;" horiz-adv-x="579" 
d="M528 31v-31h-436v31l184 16v918l-184 8v31q147 12 221 14l11 -8v-973zM111 1442q16 0 26 -2q13 -29 13 -62q0 -41 -23 -78h-47l-10 134q24 8 41 8zM444 1442q17 0 27 -2q12 -27 12 -62q0 -43 -22 -78h-47l-11 134q24 8 41 8z" />
    <glyph glyph-name="eth" unicode="&#xf0;" horiz-adv-x="1062" 
d="M793 1518l-197 -158q175 -147 263.5 -358t88.5 -443q0 -277 -119 -432.5t-309 -155.5q-181 0 -293 140t-112 387q0 235 105 371.5t284 136.5q193 0 356 -158h10q-86 296 -309 483l-186 -149l-31 14l-2 8l186 152q-130 98 -290 157l14 31q177 -57 311 -160l197 158l28 -16
zM524 12q74 0 139.5 31.5t120 95.5t86 172.5t31.5 249.5q0 119 -24 236q-72 69 -172.5 118.5t-200.5 49.5q-162 0 -252 -129t-90 -334q0 -224 102.5 -357t259.5 -133z" />
    <glyph glyph-name="ntilde" unicode="&#xf1;" horiz-adv-x="1232" 
d="M1202 29v-29h-434v29l184 16v639q0 305 -254 305q-172 0 -376 -155v-799l204 -6v-29h-434v29l184 16v922l-184 8v29q148 12 223 14l11 -8l-11 -138h11q183 158 379 158q292 0 292 -342v-653zM860 1434l21 -17q-3 -5 -13 -24.5t-13.5 -25.5t-13 -22.5t-14.5 -22.5
t-13.5 -17.5t-15.5 -16.5t-16 -11.5t-18 -8.5t-19 -2q-27 0 -67 30l-186 136l-107 -138l-20 17q4 8 17.5 32.5t18 32.5t16 26.5t19 25.5t19 17t23 13.5t24.5 3.5q27 0 65 -28l187 -138z" />
    <glyph glyph-name="ograve" unicode="&#xf2;" horiz-adv-x="1064" 
d="M543 1030q101 0 180.5 -42.5t128 -115.5t73.5 -165.5t25 -198.5q0 -232 -114.5 -383.5t-313.5 -151.5q-101 0 -180.5 41.5t-128 114t-73.5 164.5t-25 199q0 152 49 273t147.5 193t231.5 72zM543 989q-74 0 -139.5 -28t-121 -84.5t-88 -154.5t-32.5 -226q0 -127 31.5 -223
t84.5 -151t115.5 -81.5t132.5 -26.5q71 0 136 28t120 84.5t88 154.5t33 225q0 232 -100 357.5t-260 125.5zM565 1174h-35l-235 366q16 22 37 31h14z" />
    <glyph glyph-name="oacute" unicode="&#xf3;" horiz-adv-x="1064" 
d="M543 1030q101 0 180.5 -42.5t128 -115.5t73.5 -165.5t25 -198.5q0 -232 -114.5 -383.5t-313.5 -151.5q-101 0 -180.5 41.5t-128 114t-73.5 164.5t-25 199q0 152 49 273t147.5 193t231.5 72zM543 989q-74 0 -139.5 -28t-121 -84.5t-88 -154.5t-32.5 -226q0 -127 31.5 -223
t84.5 -151t115.5 -81.5t132.5 -26.5q71 0 136 28t120 84.5t88 154.5t33 225q0 232 -100 357.5t-260 125.5zM758 1571h14q21 -9 37 -31l-277 -366h-34z" />
    <glyph glyph-name="ocircumflex" unicode="&#xf4;" horiz-adv-x="1064" 
d="M543 1030q101 0 180.5 -42.5t128 -115.5t73.5 -165.5t25 -198.5q0 -232 -114.5 -383.5t-313.5 -151.5q-101 0 -180.5 41.5t-128 114t-73.5 164.5t-25 199q0 152 49 273t147.5 193t231.5 72zM543 989q-74 0 -139.5 -28t-121 -84.5t-88 -154.5t-32.5 -226q0 -127 31.5 -223
t84.5 -151t115.5 -81.5t132.5 -26.5q71 0 136 28t120 84.5t88 154.5t33 225q0 232 -100 357.5t-260 125.5zM776 1219l-31 -21l-204 299h-11l-204 -293h-35l219 340h57z" />
    <glyph glyph-name="otilde" unicode="&#xf5;" horiz-adv-x="1064" 
d="M543 1030q101 0 180.5 -42.5t128 -115.5t73.5 -165.5t25 -198.5q0 -232 -114.5 -383.5t-313.5 -151.5q-101 0 -180.5 41.5t-128 114t-73.5 164.5t-25 199q0 152 49 273t147.5 193t231.5 72zM543 989q-74 0 -139.5 -28t-121 -84.5t-88 -154.5t-32.5 -226q0 -127 31.5 -223
t84.5 -151t115.5 -81.5t132.5 -26.5q71 0 136 28t120 84.5t88 154.5t33 225q0 232 -100 357.5t-260 125.5zM770 1434l21 -17q-3 -5 -13 -24.5t-13.5 -25.5t-13 -22.5t-14.5 -22.5t-13.5 -17.5t-15.5 -16.5t-16 -11.5t-18 -8.5t-19 -2q-27 0 -67 30l-187 136l-106 -138
l-21 17q4 8 15.5 28.5t15.5 28.5t14.5 24.5t16.5 23.5t16 18t18.5 15.5t19 8.5t22.5 4q27 0 65 -28l187 -138z" />
    <glyph glyph-name="odieresis" unicode="&#xf6;" horiz-adv-x="1064" 
d="M543 1030q101 0 180.5 -42.5t128 -115.5t73.5 -165.5t25 -198.5q0 -232 -114.5 -383.5t-313.5 -151.5q-101 0 -180.5 41.5t-128 114t-73.5 164.5t-25 199q0 152 49 273t147.5 193t231.5 72zM543 989q-74 0 -139.5 -28t-121 -84.5t-88 -154.5t-32.5 -226q0 -127 31.5 -223
t84.5 -151t115.5 -81.5t132.5 -26.5q71 0 136 28t120 84.5t88 154.5t33 225q0 232 -100 357.5t-260 125.5zM346 1442q17 0 27 -2q12 -27 12 -62q0 -41 -23 -78h-47l-10 134q24 8 41 8zM721 1442q17 0 27 -2q12 -27 12 -62q0 -41 -23 -78h-47l-10 134q24 8 41 8z" />
    <glyph glyph-name="divide" unicode="&#xf7;" 
d="M631 1044q18 0 28 -2q13 -29 13 -65q0 -43 -23 -80h-53l-10 139q24 8 45 8zM1102 580h-946v43h946v-43zM631 281q18 0 28 -2q13 -29 13 -66q0 -43 -23 -80h-53l-10 139q27 9 45 9z" />
    <glyph glyph-name="oslash" unicode="&#xf8;" horiz-adv-x="1064" 
d="M897 1151l-113 -207q81 -70 123.5 -185t42.5 -251q0 -150 -50.5 -271t-148.5 -192.5t-229 -71.5t-225 72l-98 -184l-29 6l-6 12l102 191q-74 71 -112.5 181.5t-38.5 240.5q0 151 50.5 272.5t148.5 193.5t229 72q123 0 211 -63l110 204l27 -8zM162 496q0 -261 131 -385
l438 821q-85 57 -188 57q-56 0 -109.5 -16.5t-103 -54.5t-86.5 -94t-59.5 -140.5t-22.5 -187.5zM526 14q55 0 107 17t101.5 55t86.5 93.5t59.5 140t22.5 186.5q0 271 -141 399l-440 -821q87 -70 204 -70z" />
    <glyph glyph-name="ugrave" unicode="&#xf9;" horiz-adv-x="1212" 
d="M1141 31v-31q-153 -12 -226 -14l-10 4l10 141h-10q-183 -158 -377 -158q-292 0 -292 342v650l-185 8v31q155 12 221 14l11 -8v-684q0 -166 65 -239t184 -73q172 0 377 158v793l-184 8v31q154 12 221 14l10 -8v-971zM592 1174h-35l-235 366q16 22 36 31h15z" />
    <glyph glyph-name="uacute" unicode="&#xfa;" horiz-adv-x="1212" 
d="M1141 31v-31q-153 -12 -226 -14l-10 4l10 141h-10q-183 -158 -377 -158q-292 0 -292 342v650l-185 8v31q155 12 221 14l11 -8v-684q0 -166 65 -239t184 -73q172 0 377 158v793l-184 8v31q154 12 221 14l10 -8v-971zM784 1571h15q21 -9 37 -31l-277 -366h-35z" />
    <glyph glyph-name="ucircumflex" unicode="&#xfb;" horiz-adv-x="1212" 
d="M1141 31v-31q-153 -12 -226 -14l-10 4l10 141h-10q-183 -158 -377 -158q-292 0 -292 342v650l-185 8v31q155 12 221 14l11 -8v-684q0 -166 65 -239t184 -73q172 0 377 158v793l-184 8v31q154 12 221 14l10 -8v-971zM803 1219l-31 -21l-205 299h-10l-205 -293h-35l220 340
h57z" />
    <glyph glyph-name="udieresis" unicode="&#xfc;" horiz-adv-x="1212" 
d="M1141 31v-31q-153 -12 -226 -14l-10 4l10 141h-10q-183 -158 -377 -158q-292 0 -292 342v650l-185 8v31q155 12 221 14l11 -8v-684q0 -166 65 -239t184 -73q172 0 377 158v793l-184 8v31q154 12 221 14l10 -8v-971zM373 1442q16 0 26 -2q13 -29 13 -62q0 -41 -23 -78h-47
l-10 134q24 8 41 8zM748 1442q16 0 26 -2q12 -27 12 -62q0 -43 -22 -78h-47l-10 134q24 8 41 8z" />
    <glyph glyph-name="yacute" unicode="&#xfd;" horiz-adv-x="1173" 
d="M1143 973l-160 -17q-71 -216 -190 -540.5t-183 -476.5q-24 -57 -45.5 -102t-55.5 -99t-67.5 -89.5t-78.5 -60t-93 -24.5q-50 0 -86 22l4 33h166q124 108 213 334q-211 545 -368 1014l-168 6v31h407v-31l-184 -17q170 -507 338 -933h10q181 455 342 944l-201 6v31h400v-31
zM813 1571h14q21 -9 37 -31l-276 -366h-35z" />
    <glyph glyph-name="thorn" unicode="&#xfe;" horiz-adv-x="1144" 
d="M649 1030q172 0 268.5 -127t96.5 -360q0 -92 -15 -173.5t-49.5 -155t-86.5 -126.5t-129.5 -84t-174.5 -31q-147 0 -287 78v-424l230 -6v-31h-461v31l184 17v1853l-184 8v29q149 12 221 14l10 -8v-520q0 -25 -6 -142h10q183 158 373 158zM561 14q182 0 294 131.5
t112 389.5q0 231 -90 342.5t-234 111.5q-159 0 -371 -162v-727q139 -86 289 -86z" />
    <glyph glyph-name="ydieresis" unicode="&#xff;" horiz-adv-x="1173" 
d="M1143 973l-160 -17q-71 -216 -190 -540.5t-183 -476.5q-24 -57 -45.5 -102t-55.5 -99t-67.5 -89.5t-78.5 -60t-93 -24.5q-50 0 -86 22l4 33h166q124 108 213 334q-211 545 -368 1014l-168 6v31h407v-31l-184 -17q170 -507 338 -933h10q181 455 342 944l-201 6v31h400v-31
zM401 1442q17 0 27 -2q12 -27 12 -62q0 -43 -22 -78h-47l-11 134q24 8 41 8zM776 1442q17 0 27 -2q12 -27 12 -62q0 -43 -22 -78h-48l-10 134q24 8 41 8z" />
    <glyph glyph-name="Amacron" unicode="&#x100;" horiz-adv-x="1429" 
d="M1399 31v-31h-459v31l215 16q-35 114 -131 410h-623q-90 -269 -137 -420l234 -6v-31h-467v31l192 16q70 223 205 617t248 702l53 23h19q236 -642 460 -1352zM416 498h594q-157 472 -291 841h-10q-159 -439 -293 -841zM489 1665h467q5 -10 5 -20q0 -11 -5 -21h-467
q-4 8 -4 21q0 12 4 20z" />
    <glyph glyph-name="amacron" unicode="&#x101;" horiz-adv-x="1015" 
d="M961 29v-29q-96 -14 -146 -14q-42 0 -60 13t-18 48v84h-10q-175 -158 -367 -158q-126 0 -192 65t-66 169q0 63 26 112t68 79t102 49.5t122 26.5t133 7q83 0 182 -6l2 225q1 141 -68.5 215t-201.5 74q-114 0 -229 -67l-29 -199h-31q-20 28 -20 76q0 95 94.5 163t224.5 68
q135 0 220.5 -82t84.5 -239l-6 -680h185zM358 14q89 0 187 42t188 118l2 272h-149q-436 0 -436 -237q0 -87 53 -141t155 -54zM270 1378h424q4 -8 4 -20q0 -13 -4 -21h-424q-4 8 -4 21q0 12 4 20z" />
    <glyph glyph-name="Abreve" unicode="&#x102;" horiz-adv-x="1429" 
d="M1399 31v-31h-459v31l215 16q-35 114 -131 410h-623q-90 -269 -137 -420l234 -6v-31h-467v31l192 16q70 223 205 617t248 702l53 23h19q236 -642 460 -1352zM416 498h594q-157 472 -291 841h-10q-159 -439 -293 -841zM471 1712l45 17q36 -207 207 -207t223 207l29 -11
q-20 -114 -90.5 -175.5t-173.5 -61.5t-163.5 62.5t-76.5 168.5z" />
    <glyph glyph-name="abreve" unicode="&#x103;" horiz-adv-x="1015" 
d="M961 29v-29q-96 -14 -146 -14q-42 0 -60 13t-18 48v84h-10q-175 -158 -367 -158q-126 0 -192 65t-66 169q0 63 26 112t68 79t102 49.5t122 26.5t133 7q83 0 182 -6l2 225q1 141 -68.5 215t-201.5 74q-114 0 -229 -67l-29 -199h-31q-20 28 -20 76q0 95 94.5 163t224.5 68
q135 0 220.5 -82t84.5 -239l-6 -680h185zM358 14q89 0 187 42t188 118l2 272h-149q-436 0 -436 -237q0 -87 53 -141t155 -54zM250 1468l45 17q28 -203 186 -203q157 0 203 203l29 -10q-18 -112 -84 -173t-160 -61q-95 0 -150 61t-69 166z" />
    <glyph glyph-name="Aogonek" unicode="&#x104;" horiz-adv-x="1429" 
d="M1397 0h-242q-77 -75 -116.5 -140.5t-39.5 -131.5q0 -123 152 -123q46 0 77 10t68 31l13 -33q-67 -49 -164 -49t-145 41t-48 114q0 82 55.5 166t149.5 150q-35 113 -135 422h-623q-90 -269 -137 -420l234 -6v-31h-465v31l192 16q70 223 205 617t248 702l51 23h18
q113 -306 248.5 -706.5t212.5 -645.5l191 -6v-31zM414 498h594q-157 472 -291 841h-10q-159 -439 -293 -841z" />
    <glyph glyph-name="aogonek" unicode="&#x105;" horiz-adv-x="1015" 
d="M961 31v-31q-147 -10 -239.5 -95.5t-92.5 -183.5q0 -116 139 -116q74 0 158 41l12 -33q-67 -49 -176 -49q-93 0 -136.5 43t-43.5 114q0 80 47 143t112 101l-6 166h-8q-175 -158 -367 -158q-126 0 -192 65t-66 169q0 63 26 112t68 79t102 49.5t122 26.5t133 7q83 0 182 -6
l2 225q1 141 -68.5 215t-201.5 74q-114 0 -229 -67l-29 -199h-31q-20 28 -20 76q0 95 94.5 163t224.5 68q135 0 220.5 -82t84.5 -239l-6 -678h185zM358 14q89 0 187 42t188 118l2 272h-149q-436 0 -436 -237q0 -87 53 -141t155 -54z" />
    <glyph glyph-name="Cacute" unicode="&#x106;" horiz-adv-x="1220" 
d="M1071 147l16 -28q-159 -146 -387 -146q-142 0 -252.5 55t-178 151t-102 220t-34.5 269q0 122 24 230t73 198t119 155t167.5 101.5t212.5 36.5q182 0 338 -76q4 -51 4 -125q0 -104 -10 -199h-31l-22 299q-137 58 -285 58q-108 0 -203.5 -40.5t-172 -120t-121 -211.5
t-44.5 -302q0 -312 143 -482t380 -170q191 0 366 127zM870 1829h15q21 -9 37 -31l-213 -317h-35z" />
    <glyph glyph-name="cacute" unicode="&#x107;" horiz-adv-x="946" 
d="M825 143l19 -22q-142 -148 -338 -148q-99 0 -176 41t-123 112.5t-69 161.5t-23 195q0 249 117.5 398t314.5 149q116 0 194 -54t78 -157q0 -45 -20 -84h-31l-31 211q-105 43 -196 43q-163 0 -271 -132.5t-108 -371.5q0 -223 97 -347t257 -124q152 0 309 129zM745 1571h15
q21 -9 37 -31l-277 -366h-35z" />
    <glyph glyph-name="Ccircumflex" unicode="&#x108;" horiz-adv-x="1220" 
d="M1071 147l16 -28q-159 -146 -387 -146q-142 0 -252.5 55t-178 151t-102 220t-34.5 269q0 122 24 230t73 198t119 155t167.5 101.5t212.5 36.5q182 0 338 -76q4 -51 4 -125q0 -104 -10 -199h-31l-22 299q-137 58 -285 58q-108 0 -203.5 -40.5t-172 -120t-121 -211.5
t-44.5 -302q0 -312 143 -482t380 -170q191 0 366 127zM977 1495l-31 -20l-227 278h-10l-228 -272h-35l242 319h57z" />
    <glyph glyph-name="ccircumflex" unicode="&#x109;" horiz-adv-x="946" 
d="M825 143l19 -22q-142 -148 -338 -148q-99 0 -176 41t-123 112.5t-69 161.5t-23 195q0 249 117.5 398t314.5 149q116 0 194 -54t78 -157q0 -45 -20 -84h-31l-31 211q-105 43 -196 43q-163 0 -271 -132.5t-108 -371.5q0 -223 97 -347t257 -124q152 0 309 129zM764 1219
l-31 -21l-205 299h-10l-205 -293h-34l219 340h57z" />
    <glyph glyph-name="Cdotaccent" unicode="&#x10a;" horiz-adv-x="1220" 
d="M1071 147l16 -28q-159 -146 -387 -146q-142 0 -252.5 55t-178 151t-102 220t-34.5 269q0 122 24 230t73 198t119 155t167.5 101.5t212.5 36.5q182 0 338 -76q4 -51 4 -125q0 -104 -10 -199h-31l-22 299q-137 58 -285 58q-108 0 -203.5 -40.5t-172 -120t-121 -211.5
t-44.5 -302q0 -312 143 -482t380 -170q191 0 366 127zM715 1716q14 0 26 -2q13 -29 13 -63q0 -55 -25 -97h-49l-10 154q24 8 45 8z" />
    <glyph glyph-name="cdotaccent" unicode="&#x10b;" horiz-adv-x="946" 
d="M825 143l19 -22q-142 -148 -338 -148q-99 0 -176 41t-123 112.5t-69 161.5t-23 195q0 249 117.5 398t314.5 149q116 0 194 -54t78 -157q0 -45 -20 -84h-31l-31 211q-105 43 -196 43q-163 0 -271 -132.5t-108 -371.5q0 -223 97 -347t257 -124q152 0 309 129zM524 1462
q15 0 27 -2q12 -27 12 -63q0 -57 -24 -97h-50l-10 154q24 8 45 8z" />
    <glyph glyph-name="Ccaron" unicode="&#x10c;" horiz-adv-x="1220" 
d="M1071 147l16 -28q-159 -146 -387 -146q-142 0 -252.5 55t-178 151t-102 220t-34.5 269q0 122 24 230t73 198t119 155t167.5 101.5t212.5 36.5q182 0 338 -76q4 -51 4 -125q0 -104 -10 -199h-31l-22 299q-137 58 -285 58q-108 0 -203.5 -40.5t-172 -120t-121 -211.5
t-44.5 -302q0 -312 143 -482t380 -170q191 0 366 127zM717 1530h10l229 272h35l-243 -319h-58l-231 305l30 20z" />
    <glyph glyph-name="ccaron" unicode="&#x10d;" horiz-adv-x="946" 
d="M825 143l19 -22q-142 -148 -338 -148q-99 0 -176 41t-123 112.5t-69 161.5t-23 195q0 249 117.5 398t314.5 149q116 0 194 -54t78 -157q0 -45 -20 -84h-31l-31 211q-105 43 -196 43q-163 0 -271 -132.5t-108 -371.5q0 -223 97 -347t257 -124q152 0 309 129zM514 1251h10
l205 293h35l-219 -340h-58l-208 326l30 20z" />
    <glyph glyph-name="Dcaron" unicode="&#x10e;" horiz-adv-x="1380" 
d="M117 1331v31q177 6 485 6q165 0 291 -53t202 -148t114 -217.5t38 -269.5q0 -148 -38.5 -268.5t-117.5 -214.5t-211 -145.5t-307 -51.5h-456v31l215 16v1284h-215zM379 41h194q142 0 254.5 36.5t196.5 112t129 199t45 289.5q0 317 -159 482t-437 165h-223v-1284zM651 1530
h11l229 272h35l-244 -319h-57l-232 305l31 20z" />
    <glyph glyph-name="dcaron" unicode="&#x10f;" horiz-adv-x="1290" 
d="M920 1534v-1495l184 -8v-31q-154 -12 -225 -14l-11 4l11 141h-11q-183 -158 -372 -158q-172 0 -268.5 127.5t-96.5 360.5q0 92 15 173.5t49.5 155t86.5 126t129.5 83.5t174.5 31q146 0 286 -78v537l-188 8v31q148 12 225 14zM582 989q-181 0 -292.5 -131.5t-111.5 -388.5
q0 -231 89.5 -343t232.5 -112q160 0 372 162v731q-133 82 -290 82zM1221 1542q21 0 36 -10q-5 -149 -79 -375h-31l47 248v133q8 4 27 4z" />
    <glyph glyph-name="Dcroat" unicode="&#x110;" horiz-adv-x="1392" 
d="M127 1331l2 31q177 6 485 6q165 0 291 -53t202.5 -148t114.5 -217.5t38 -269.5q0 -148 -38.5 -268.5t-117.5 -214.5t-211 -145.5t-307 -51.5h-459v31l217 16v639h-217v39h217v600zM391 41h195q142 0 254.5 36.5t196 112t128.5 199t45 289.5q0 317 -159 482t-437 165h-223
v-600h352v-39h-352v-645z" />
    <glyph glyph-name="dcroat" unicode="&#x111;" horiz-adv-x="1175" 
d="M920 1303v-1264l184 -8v-31q-154 -12 -225 -14l-11 4l11 141h-11q-183 -158 -372 -158q-172 0 -268.5 127.5t-96.5 360.5q0 92 15 173.5t49.5 155t86.5 126t129.5 83.5t174.5 31q146 0 286 -78v351h-337v38h337v195q18 6 37 6l11 -8v-193h223v-38h-223zM872 176v731
q-133 82 -290 82q-181 0 -292.5 -131.5t-111.5 -388.5q0 -231 89.5 -343t232.5 -112q160 0 372 162z" />
    <glyph glyph-name="Emacron" unicode="&#x112;" horiz-adv-x="1232" 
d="M1030 303h31q8 -68 8 -137q0 -90 -12 -166h-940v31l215 16v1278l-215 6v31h944q4 -51 4 -125q0 -93 -10 -178h-31l-18 260l-627 8v-653h412l12 168h35v-377h-35l-12 168h-412v-598l629 8zM408 1665h466q5 -10 5 -20q0 -11 -5 -21h-466q-5 10 -5 21q0 10 5 20z" />
    <glyph glyph-name="emacron" unicode="&#x113;" horiz-adv-x="966" 
d="M834 143l20 -22q-142 -148 -336 -148q-103 0 -182.5 41t-126.5 113t-70.5 162t-23.5 196q0 247 117.5 396t308.5 149q153 0 231 -97t78 -259q0 -79 -14 -150h-674v-35q0 -226 98 -350.5t264 -124.5q90 0 164 34.5t146 94.5zM535 989q-152 0 -254 -113.5t-117 -320.5
l633 8q6 55 6 105q0 160 -71.5 240.5t-196.5 80.5zM313 1378h424q4 -8 4 -20q0 -13 -4 -21h-424q-4 8 -4 21q0 12 4 20z" />
    <glyph glyph-name="Ebreve" unicode="&#x114;" horiz-adv-x="1232" 
d="M1030 303h31q8 -68 8 -137q0 -90 -12 -166h-940v31l215 16v1278l-215 6v31h944q4 -51 4 -125q0 -93 -10 -178h-31l-18 260l-627 8v-653h412l12 168h35v-377h-35l-12 168h-412v-598l629 8zM389 1712l45 17q36 -207 207 -207t223 207l29 -11q-20 -114 -90.5 -175.5
t-173.5 -61.5t-163.5 62.5t-76.5 168.5z" />
    <glyph glyph-name="ebreve" unicode="&#x115;" horiz-adv-x="966" 
d="M834 143l20 -22q-142 -148 -336 -148q-103 0 -182.5 41t-126.5 113t-70.5 162t-23.5 196q0 247 117.5 396t308.5 149q153 0 231 -97t78 -259q0 -79 -14 -150h-674v-35q0 -226 98 -350.5t264 -124.5q90 0 164 34.5t146 94.5zM535 989q-152 0 -254 -113.5t-117 -320.5
l633 8q6 55 6 105q0 160 -71.5 240.5t-196.5 80.5zM293 1468l45 17q28 -203 186 -203q157 0 203 203l29 -10q-18 -112 -84 -173t-160 -61q-95 0 -150 61t-69 166z" />
    <glyph glyph-name="Edotaccent" unicode="&#x116;" horiz-adv-x="1232" 
d="M1030 303h31q8 -68 8 -137q0 -90 -12 -166h-940v31l215 16v1278l-215 6v31h944q4 -51 4 -125q0 -93 -10 -178h-31l-18 260l-627 8v-653h412l12 168h35v-377h-35l-12 168h-412v-598l629 8zM639 1716q15 0 27 -2q12 -27 12 -63q0 -55 -25 -97h-49l-10 154q24 8 45 8z" />
    <glyph glyph-name="edotaccent" unicode="&#x117;" horiz-adv-x="966" 
d="M834 143l20 -22q-142 -148 -336 -148q-103 0 -182.5 41t-126.5 113t-70.5 162t-23.5 196q0 247 117.5 396t308.5 149q153 0 231 -97t78 -259q0 -79 -14 -150h-674v-35q0 -226 98 -350.5t264 -124.5q90 0 164 34.5t146 94.5zM535 989q-152 0 -254 -113.5t-117 -320.5
l633 8q6 55 6 105q0 160 -71.5 240.5t-196.5 80.5zM528 1462q15 0 27 -2q12 -27 12 -63q0 -57 -24 -97h-49l-11 154q24 8 45 8z" />
    <glyph glyph-name="Eogonek" unicode="&#x118;" horiz-adv-x="1232" 
d="M1057 0h-158q-51 -53 -70.5 -74.5t-51 -62t-43 -73t-11.5 -66.5q0 -119 151 -119q71 0 146 41l12 -33q-57 -49 -162 -49q-98 0 -146 41t-48 112q0 130 170 273v10h-729v31l215 16v1278l-215 6v31h944q4 -51 4 -125q0 -93 -10 -178h-31l-18 260l-627 8v-653h412l12 168h35
v-377h-35l-12 168h-412v-598l629 8l22 260h31q8 -68 8 -137q0 -90 -12 -166z" />
    <glyph glyph-name="eogonek" unicode="&#x119;" horiz-adv-x="966" 
d="M696 -395q69 0 144 41l12 -33q-57 -49 -166 -49q-98 0 -144 41.5t-46 111.5q0 137 155 271l-4 10q-63 -25 -135 -25q-100 0 -178 41.5t-124.5 113.5t-70.5 163t-24 196q0 245 117.5 394t308.5 149q153 0 231 -97t78 -259q0 -79 -14 -150h-674v-35q0 -226 98 -350.5
t264 -124.5q90 0 164 34.5t146 94.5l20 -22q-24 -24 -82 -72q-42 -35 -73 -64t-71.5 -74t-62.5 -92t-22 -91q0 -62 42.5 -92.5t110.5 -30.5zM535 989q-152 0 -254 -113.5t-117 -320.5l633 8q6 55 6 105q0 160 -71.5 240.5t-196.5 80.5z" />
    <glyph glyph-name="Ecaron" unicode="&#x11a;" horiz-adv-x="1232" 
d="M1030 303h31q8 -68 8 -137q0 -90 -12 -166h-940v31l215 16v1278l-215 6v31h944q4 -51 4 -125q0 -93 -10 -178h-31l-18 260l-627 8v-653h412l12 168h35v-377h-35l-12 168h-412v-598l629 8zM641 1530h10l230 272h34l-243 -319h-58l-231 305l31 20z" />
    <glyph glyph-name="ecaron" unicode="&#x11b;" horiz-adv-x="966" 
d="M834 143l20 -22q-142 -148 -336 -148q-103 0 -182.5 41t-126.5 113t-70.5 162t-23.5 196q0 247 117.5 396t308.5 149q153 0 231 -97t78 -259q0 -79 -14 -150h-674v-35q0 -226 98 -350.5t264 -124.5q90 0 164 34.5t146 94.5zM535 989q-152 0 -254 -113.5t-117 -320.5
l633 8q6 55 6 105q0 160 -71.5 240.5t-196.5 80.5zM518 1251h10l205 293h35l-219 -340h-57l-209 326l30 20z" />
    <glyph glyph-name="Gcircumflex" unicode="&#x11c;" horiz-adv-x="1347" 
d="M1251 547v-31l-174 -16v-447q-164 -80 -354 -80q-149 0 -263.5 52t-185 146t-106 218t-35.5 273q0 156 38.5 287.5t112 230t189 154t260.5 55.5q91 0 183 -23t159 -57q4 -51 4 -125q0 -93 -10 -178h-31l-18 278q-142 62 -293 62q-87 0 -166 -24.5t-149 -77.5t-120.5 -131
t-80 -191.5t-29.5 -251.5q0 -135 28 -244.5t77.5 -185t118.5 -126.5t148.5 -74.5t170.5 -23.5q159 0 309 64l-6 430l-274 6v31h497zM930 1495l-31 -20l-227 278h-10l-228 -272h-35l242 319h57z" />
    <glyph glyph-name="gcircumflex" unicode="&#x11d;" horiz-adv-x="1011" 
d="M850 1055l-94 -127q88 -98 88 -244q0 -157 -104.5 -264t-270.5 -107q-64 0 -123 19v-215l164 -31q84 -16 137.5 -28t106 -27.5t82.5 -31t54.5 -37t34 -47t9.5 -58.5q0 -73 -48.5 -131.5t-126.5 -92.5t-166.5 -51.5t-176.5 -17.5q-158 0 -244 56t-86 169q0 96 61.5 175
t153.5 128q0 79 14 254q-90 41 -136 126.5t-46 186.5q0 157 104.5 264t270.5 107q138 0 225 -80q48 94 89 142.5t81 48.5q19 0 37 -11v-34zM477 354q145 0 232.5 92t87.5 238q0 134 -76.5 219.5t-218.5 85.5q-148 0 -235 -91t-87 -232q0 -132 77 -222t220 -90zM496 41
l-179 33q-87 -68 -135.5 -132t-48.5 -143q0 -91 71 -142.5t220 -51.5q58 0 119 7.5t123.5 26t111 45t79 68t30.5 92.5q0 72 -80.5 112.5t-310.5 84.5zM723 1219l-31 -21l-205 299h-10l-205 -293h-34l219 340h57z" />
    <glyph glyph-name="Gbreve" unicode="&#x11e;" horiz-adv-x="1347" 
d="M1251 547v-31l-174 -16v-447q-164 -80 -354 -80q-149 0 -263.5 52t-185 146t-106 218t-35.5 273q0 156 38.5 287.5t112 230t189 154t260.5 55.5q91 0 183 -23t159 -57q4 -51 4 -125q0 -93 -10 -178h-31l-18 278q-142 62 -293 62q-87 0 -166 -24.5t-149 -77.5t-120.5 -131
t-80 -191.5t-29.5 -251.5q0 -135 28 -244.5t77.5 -185t118.5 -126.5t148.5 -74.5t170.5 -23.5q159 0 309 64l-6 430l-274 6v31h497zM418 1712l45 17q36 -207 207 -207t223 207l29 -11q-20 -114 -91 -175.5t-174 -61.5t-163 62.5t-76 168.5z" />
    <glyph glyph-name="gbreve" unicode="&#x11f;" horiz-adv-x="1011" 
d="M850 1055l-94 -127q88 -98 88 -244q0 -157 -104.5 -264t-270.5 -107q-64 0 -123 19v-215l164 -31q84 -16 137.5 -28t106 -27.5t82.5 -31t54.5 -37t34 -47t9.5 -58.5q0 -73 -48.5 -131.5t-126.5 -92.5t-166.5 -51.5t-176.5 -17.5q-158 0 -244 56t-86 169q0 96 61.5 175
t153.5 128q0 79 14 254q-90 41 -136 126.5t-46 186.5q0 157 104.5 264t270.5 107q138 0 225 -80q48 94 89 142.5t81 48.5q19 0 37 -11v-34zM477 354q145 0 232.5 92t87.5 238q0 134 -76.5 219.5t-218.5 85.5q-148 0 -235 -91t-87 -232q0 -132 77 -222t220 -90zM496 41
l-179 33q-87 -68 -135.5 -132t-48.5 -143q0 -91 71 -142.5t220 -51.5q58 0 119 7.5t123.5 26t111 45t79 68t30.5 92.5q0 72 -80.5 112.5t-310.5 84.5zM248 1468l45 17q28 -203 186 -203q157 0 203 203l29 -10q-18 -112 -84 -173t-160 -61q-95 0 -150 61t-69 166z" />
    <glyph glyph-name="Gdotaccent" unicode="&#x120;" horiz-adv-x="1347" 
d="M1251 547v-31l-174 -16v-447q-164 -80 -354 -80q-149 0 -263.5 52t-185 146t-106 218t-35.5 273q0 156 38.5 287.5t112 230t189 154t260.5 55.5q91 0 183 -23t159 -57q4 -51 4 -125q0 -93 -10 -178h-31l-18 278q-142 62 -293 62q-87 0 -166 -24.5t-149 -77.5t-120.5 -131
t-80 -191.5t-29.5 -251.5q0 -135 28 -244.5t77.5 -185t118.5 -126.5t148.5 -74.5t170.5 -23.5q159 0 309 64l-6 430l-274 6v31h497zM668 1716q14 0 26 -2q13 -29 13 -63q0 -55 -25 -97h-49l-10 154q24 8 45 8z" />
    <glyph glyph-name="gdotaccent" unicode="&#x121;" horiz-adv-x="1011" 
d="M850 1055l-94 -127q88 -98 88 -244q0 -157 -104.5 -264t-270.5 -107q-64 0 -123 19v-215l164 -31q84 -16 137.5 -28t106 -27.5t82.5 -31t54.5 -37t34 -47t9.5 -58.5q0 -73 -48.5 -131.5t-126.5 -92.5t-166.5 -51.5t-176.5 -17.5q-158 0 -244 56t-86 169q0 96 61.5 175
t153.5 128q0 79 14 254q-90 41 -136 126.5t-46 186.5q0 157 104.5 264t270.5 107q138 0 225 -80q48 94 89 142.5t81 48.5q19 0 37 -11v-34zM477 354q145 0 232.5 92t87.5 238q0 134 -76.5 219.5t-218.5 85.5q-148 0 -235 -91t-87 -232q0 -132 77 -222t220 -90zM496 41
l-179 33q-87 -68 -135.5 -132t-48.5 -143q0 -91 71 -142.5t220 -51.5q58 0 119 7.5t123.5 26t111 45t79 68t30.5 92.5q0 72 -80.5 112.5t-310.5 84.5zM483 1462q15 0 27 -2q12 -27 12 -63q0 -57 -24 -97h-49l-11 154q24 8 45 8z" />
    <glyph glyph-name="Gcommaaccent" unicode="&#x122;" horiz-adv-x="1347" 
d="M1251 547v-31l-174 -16v-447q-164 -80 -354 -80q-149 0 -263.5 52t-185 146t-106 218t-35.5 273q0 156 38.5 287.5t112 230t189 154t260.5 55.5q91 0 183 -23t159 -57q4 -51 4 -125q0 -93 -10 -178h-31l-18 278q-142 62 -293 62q-87 0 -166 -24.5t-149 -77.5t-120.5 -131
t-80 -191.5t-29.5 -251.5q0 -135 28 -244.5t77.5 -185t118.5 -126.5t148.5 -74.5t170.5 -23.5q159 0 309 64l-6 430l-274 6v31h497zM674 -133q23 0 41 -6q18 -41 18 -94q0 -151 -151 -259l-19 23q62 52 95.5 103.5t33.5 115.5q0 28 -6 55l-61 5v51q21 6 49 6z" />
    <glyph glyph-name="gcommaaccent" unicode="&#x123;" horiz-adv-x="1011" 
d="M850 1055l-94 -127q88 -98 88 -244q0 -157 -104.5 -264t-270.5 -107q-64 0 -123 19v-215l164 -31q84 -16 137.5 -28t106 -27.5t82.5 -31t54.5 -37t34 -47t9.5 -58.5q0 -73 -48.5 -131.5t-126.5 -92.5t-166.5 -51.5t-176.5 -17.5q-158 0 -244 56t-86 169q0 96 61.5 175
t153.5 128q0 79 14 254q-90 41 -136 126.5t-46 186.5q0 157 104.5 264t270.5 107q138 0 225 -80q48 94 89 142.5t81 48.5q19 0 37 -11v-34zM477 354q145 0 232.5 92t87.5 238q0 134 -76.5 219.5t-218.5 85.5q-148 0 -235 -91t-87 -232q0 -132 77 -222t220 -90zM496 41
l-179 33q-87 -68 -135.5 -132t-48.5 -143q0 -91 71 -142.5t220 -51.5q58 0 119 7.5t123.5 26t111 45t79 68t30.5 92.5q0 72 -80.5 112.5t-310.5 84.5zM553 1571l18 -23q-62 -52 -95.5 -103.5t-33.5 -115.5q0 -23 7 -55l61 -4v-51q-24 -7 -49 -7q-20 0 -41 7q-19 44 -19 94
q0 150 152 258z" />
    <glyph glyph-name="Hcircumflex" unicode="&#x124;" horiz-adv-x="1544" 
d="M1212 1315v-1278l215 -6v-31h-477v31l215 16v637h-786v-647l235 -6v-31h-497v31l215 16v1278l-215 6v31h497v-31l-235 -16v-590h786v600l-215 6v31h477v-31zM1049 1495l-31 -20l-227 278h-11l-227 -272h-35l242 319h57z" />
    <glyph glyph-name="hcircumflex" unicode="&#x125;" horiz-adv-x="1212" 
d="M860 1556l-31 -20l-194 252h-10l-195 -246h-35l209 293h58zM303 1452v-438q0 -25 -6 -142h10q183 158 377 158q293 0 293 -342v-651l205 -6v-31h-437v31l185 16v635q0 307 -250 307q-94 0 -184 -40t-193 -118v-794l205 -6v-31h-436v31l184 16v1362l-184 8v29
q149 12 221 14z" />
    <glyph glyph-name="Hbar" unicode="&#x126;" horiz-adv-x="1556" 
d="M1219 965v-928l215 -6v-31h-478v31l215 16v596h-786v-606l236 -6v-31h-498v31l215 16v918h-266v39h266v321l-215 6v31h498v-31l-236 -16v-311h786v321l-215 6v31h478v-31l-215 -16v-311h266v-39h-266zM1171 965h-786v-281h786v281z" />
    <glyph glyph-name="hbar" unicode="&#x127;" horiz-adv-x="1212" 
d="M1182 31v-31h-437v31l185 16v635q0 307 -250 307q-94 0 -184 -40t-193 -118v-794l205 -6v-31h-436v31l184 16v1256h-223v38h223v195q18 6 37 6l10 -8v-193h338v-38h-338v-289q0 -25 -6 -142h10q183 158 377 158q293 0 293 -342v-651z" />
    <glyph glyph-name="Itilde" unicode="&#x128;" horiz-adv-x="710" 
d="M379 1315v-1278l215 -6v-31h-477v31l215 16v1278l-215 6v31h477v-31zM614 1690l21 -17q-4 -7 -14 -25.5t-14 -25.5t-13 -22.5t-14 -22t-14 -18t-16 -16.5t-16 -11t-18.5 -8t-19.5 -2q-31 0 -74 26l-215 140l-113 -138l-20 17q4 7 13.5 24t13.5 25t13 22.5t14.5 22
t14 18.5t15.5 16.5t15.5 11.5t18 8.5t19.5 2.5q31 0 76 -26l215 -138z" />
    <glyph glyph-name="itilde" unicode="&#x129;" horiz-adv-x="579" 
d="M528 31v-31h-436v31l184 16v918l-184 8v31q147 12 221 14l11 -8v-973zM492 1434l16 -17q-25 -62 -58.5 -106.5t-72.5 -44.5q-28 0 -58 30l-149 136l-107 -138l-18 17q63 151 135 151q26 0 56 -28l149 -138z" />
    <glyph glyph-name="Imacron" unicode="&#x12a;" horiz-adv-x="710" 
d="M379 1315v-1278l215 -6v-31h-477v31l215 16v1278l-215 6v31h477v-31zM125 1665h467q4 -8 4 -20q0 -13 -4 -21h-467q-4 8 -4 21q0 12 4 20z" />
    <glyph glyph-name="imacron" unicode="&#x12b;" horiz-adv-x="579" 
d="M528 31v-31h-436v31l184 16v918l-184 8v31q147 12 221 14l11 -8v-973zM96 1378h363q4 -8 4 -20q0 -13 -4 -21h-363q-4 8 -4 21q0 12 4 20z" />
    <glyph glyph-name="Ibreve" unicode="&#x12c;" horiz-adv-x="710" 
d="M379 1315v-1278l215 -6v-31h-477v31l215 16v1278l-215 6v31h477v-31zM106 1712l46 17q36 -207 206 -207q172 0 224 207l28 -11q-20 -114 -90.5 -175.5t-173.5 -61.5t-163.5 62.5t-76.5 168.5z" />
    <glyph glyph-name="ibreve" unicode="&#x12d;" horiz-adv-x="579" 
d="M528 31v-31h-436v31l184 16v918l-184 8v31q147 12 221 14l11 -8v-973zM442 1481l29 -11q-7 -110 -59 -168.5t-140 -58.5q-91 0 -136 59.5t-50 161.5l45 17q11 -197 154 -197q140 0 157 197z" />
    <glyph glyph-name="Iogonek" unicode="&#x12e;" horiz-adv-x="710" 
d="M379 1315v-1276l215 -8v-37q-60 -27 -96 -45t-81.5 -46t-70.5 -53t-43 -58.5t-18 -70.5q0 -116 151 -116q73 0 146 41l12 -33q-64 -49 -166 -49q-96 0 -143 39.5t-47 107.5q0 168 276 279v10h-397v31l215 18v1276l-215 6v31h477v-31z" />
    <glyph glyph-name="iogonek" unicode="&#x12f;" horiz-adv-x="579" 
d="M246 1300l-10 154q24 8 45 8q14 0 26 -2q12 -27 12 -63q0 -57 -24 -97h-49zM528 31v-37q-63 -30 -106 -54.5t-88 -58.5t-67.5 -73t-22.5 -82q0 -59 39.5 -90t105.5 -31q59 0 127 33l12 -33q-56 -41 -149 -41t-137.5 43t-44.5 108q0 89 75 161.5t177 113.5v10h-357v29
l184 18v918l-184 8v31q147 12 221 14l11 -8v-973z" />
    <glyph glyph-name="Idotaccent" unicode="&#x130;" horiz-adv-x="710" 
d="M379 1315v-1278l215 -6v-31h-477v31l215 16v1278l-215 6v31h477v-31zM358 1716q15 0 27 -2q12 -27 12 -63q0 -57 -24 -97h-49l-11 154q24 8 45 8z" />
    <glyph glyph-name="dotlessi" unicode="&#x131;" horiz-adv-x="579" 
d="M528 31v-31h-436v31l184 16v918l-184 8v31q147 12 221 14l11 -8v-973z" />
    <glyph glyph-name="IJ" unicode="&#x132;" horiz-adv-x="1650" 
d="M1583 1362v-31l-215 -16v-942q0 -89 -18 -159t-48 -114.5t-72 -73.5t-87 -41t-96 -12q-112 0 -183 56t-71 161q0 65 28 111h31l18 -229q82 -56 174 -56q137 0 207 92t70 257v960l-317 6v31h579zM379 1315v-1278l215 -6v-31h-477v31l215 16v1278l-215 6v31h477v-31z" />
    <glyph glyph-name="ij" unicode="&#x133;" horiz-adv-x="1107" 
d="M528 31v-31h-436v31l184 16v918l-184 8v31q147 12 221 14l11 -8v-973zM883 1010v-1131q0 -61 -13.5 -93.5t-60 -75t-162.5 -124.5l-20 21l209 192v1166l-185 8v31q147 12 221 14zM840 1442q14 0 26 -2q13 -29 13 -64q0 -54 -25 -96h-49l-10 154q24 8 45 8zM281 1442
q14 0 26 -2q12 -27 12 -64q0 -56 -24 -96h-49l-10 154q24 8 45 8z" />
    <glyph glyph-name="Jcircumflex" unicode="&#x134;" horiz-adv-x="940" 
d="M872 1362v-31l-215 -16v-942q0 -89 -18 -159t-48 -114.5t-72 -73.5t-87 -41t-96 -12q-112 0 -183 56t-71 161q0 63 29 111h30l19 -229q82 -56 174 -56q137 0 206.5 92t69.5 257v960l-317 6v31h579zM879 1495l-31 -20l-227 278h-11l-227 -272h-35l242 319h57z" />
    <glyph glyph-name="jcircumflex" unicode="&#x135;" horiz-adv-x="528" 
d="M303 1010v-1131q0 -47 -4.5 -71t-30 -58t-69 -67.5t-131.5 -96.5l-21 21l209 192v1166l-184 8v31q147 12 221 14zM461 1219l-33 -21l-158 299h-10l-178 -293h-35l193 340h57z" />
    <glyph glyph-name="Kcommaaccent" unicode="&#x136;" horiz-adv-x="1333" 
d="M1272 1331l-189 -16q-188 -312 -391 -600q69 -104 214.5 -347.5t207.5 -338.5h129v-29q-51 -14 -94 -14q-34 0 -58.5 15t-56.5 60q-44 61 -180 293.5t-199 327.5h-276v-645l235 -6v-31h-497v31l215 16v1278l-215 6v31h477v-31l-215 -16v-592h272q155 220 389 602l-235 6
v31h467v-31zM717 -133q23 0 41 -6q18 -41 18 -94q0 -151 -151 -259l-19 23q62 52 95.5 103.5t33.5 115.5q0 28 -6 55l-61 5v51q21 6 49 6z" />
    <glyph glyph-name="kcommaaccent" unicode="&#x137;" horiz-adv-x="1136" 
d="M1094 29v-29q-51 -14 -107 -14q-34 0 -56 13.5t-57 61.5q-11 15 -125.5 183t-191.5 272l-4 6h-250v-485l205 -6v-31h-436v31l184 16v1444l-184 8v29q148 12 225 14l6 -8v-973h242q184 213 325 406h-2l-235 6v31h411v-31l-131 -17q-186 -246 -323 -407q161 -216 364 -520
h140zM614 -133q23 0 41 -6q19 -44 19 -94q0 -151 -152 -259l-18 23q62 52 95.5 103.5t33.5 115.5q0 28 -6 55l-62 5v51q21 6 49 6z" />
    <glyph glyph-name="kgreenlandic" unicode="&#x138;" horiz-adv-x="1157" 
d="M1114 29v-29q-51 -14 -106 -14q-34 0 -56 13.5t-57 61.5q-15 21 -128 187t-189 268l-5 6h-249v-485l204 -6v-31h-436v31l184 16v920l-184 8v29q148 12 225 14l7 -8v-449h241q190 220 326 406h-2l-236 6v31h412v-31l-131 -17q-178 -236 -324 -407q171 -228 365 -520h139z
" />
    <glyph glyph-name="Lacute" unicode="&#x139;" horiz-adv-x="1126" 
d="M967 303h34q9 -76 9 -137q0 -83 -13 -166h-880v31l215 16v1278l-215 6v31h518v-31l-256 -16v-1280l561 8zM571 1829h15q21 -9 37 -31l-213 -317h-35z" />
    <glyph glyph-name="lacute" unicode="&#x13a;" horiz-adv-x="559" 
d="M291 1542h-35l160 289h14q21 -9 37 -31zM508 31v-31h-436v31l184 16v1360l-184 4v35q149 12 221 14l10 -8v-1415z" />
    <glyph glyph-name="Lcommaaccent" unicode="&#x13b;" horiz-adv-x="1126" 
d="M967 303h34q9 -76 9 -137q0 -83 -13 -166h-880v31l215 16v1278l-215 6v31h518v-31l-256 -16v-1280l561 8zM588 -133q23 0 41 -6q18 -41 18 -94q0 -151 -151 -259l-19 23q62 52 95.5 103.5t33.5 115.5q0 28 -6 55l-61 5v51q21 6 49 6z" />
    <glyph glyph-name="lcommaaccent" unicode="&#x13c;" horiz-adv-x="559" 
d="M508 31v-31h-436v31l184 16v1442l-184 4v35q149 12 221 14l10 -8v-1497zM262 -133q23 0 41 -6q19 -44 19 -94q0 -151 -152 -259l-18 23q62 52 95.5 103.5t33.5 115.5q0 24 -7 55l-61 5v51q21 6 49 6z" />
    <glyph glyph-name="Lcaron" unicode="&#x13d;" horiz-adv-x="1126" 
d="M967 303h34q9 -76 9 -137q0 -83 -13 -166h-880v31l215 16v1278l-215 6v31h518v-31l-256 -16v-1280l561 8zM950 1409q22 0 37 -10q-3 -86 -22 -171.5t-58 -203.5h-30l47 248v133q8 4 26 4z" />
    <glyph glyph-name="lcaron" unicode="&#x13e;" horiz-adv-x="675" 
d="M508 31v-31h-436v31l184 16v1442l-184 4v35q149 12 221 14l10 -8v-1497zM606 1542q22 0 37 -10q-3 -86 -22 -171.5t-58 -203.5h-31l48 248v133q8 4 26 4z" />
    <glyph glyph-name="Ldot" unicode="&#x13f;" horiz-adv-x="1085" 
d="M903 860q15 0 25 -2q12 -27 12 -63q0 -53 -22 -97h-48l-10 154q24 8 43 8zM967 303h34q9 -76 9 -137q0 -83 -13 -166h-880v31l215 16v1278l-215 6v31h518v-31l-256 -16v-1280l561 8z" />
    <glyph glyph-name="ldot" unicode="&#x140;" horiz-adv-x="575" 
d="M569 799q17 0 27 -2q12 -27 12 -64q0 -52 -22 -96h-56l-10 154q24 8 49 8zM508 31v-31h-436v31l184 16v1442l-184 4v35q149 12 221 14l10 -8v-1497z" />
    <glyph glyph-name="Lslash" unicode="&#x141;" horiz-adv-x="1126" 
d="M967 303h34q9 -76 9 -137q0 -83 -13 -166h-880v31l215 16v565l-236 -127l-10 7v32l246 133v668l-215 6v31h518v-31l-256 -16v-637l440 237l10 -6v-32l-450 -244v-598l561 8z" />
    <glyph glyph-name="lslash" unicode="&#x142;" horiz-adv-x="649" 
d="M348 37l205 -6v-31h-436v31l184 16v604l-219 -108l-6 10l-6 29l231 114v793l-184 4v35q149 12 221 14l10 -8v-819l236 116l6 -10l6 -28l-248 -123v-633z" />
    <glyph glyph-name="Nacute" unicode="&#x143;" horiz-adv-x="1550" 
d="M1458 1362v-31l-215 -16v-1315l-41 -18l-26 -2l-662 1114q-109 185 -131 227h-10v-1284l235 -6v-31h-491v33l215 14v1278l-215 6v31h295l635 -1073q131 -224 145 -250h10v1286l-215 6v31h471zM940 1829h14q21 -9 37 -31l-213 -317h-35z" />
    <glyph glyph-name="nacute" unicode="&#x144;" horiz-adv-x="1232" 
d="M1202 29v-29h-434v29l184 16v639q0 305 -254 305q-172 0 -376 -155v-799l204 -6v-29h-434v29l184 16v922l-184 8v29q148 12 223 14l11 -8l-11 -138h11q183 158 379 158q292 0 292 -342v-653zM848 1571h14q21 -9 37 -31l-276 -366h-35z" />
    <glyph glyph-name="Ncommaaccent" unicode="&#x145;" horiz-adv-x="1550" 
d="M1458 1362v-31l-215 -16v-1315l-41 -18l-26 -2l-662 1114q-109 185 -131 227h-10v-1284l235 -6v-31h-491v33l215 14v1278l-215 6v31h295l635 -1073q131 -224 145 -250h10v1286l-215 6v31h471zM782 -133q23 0 41 -6q19 -44 19 -94q0 -151 -152 -259l-18 23
q62 52 95.5 103.5t33.5 115.5q0 28 -6 55l-62 5v51q21 6 49 6z" />
    <glyph glyph-name="ncommaaccent" unicode="&#x146;" horiz-adv-x="1232" 
d="M1202 29v-29h-434v29l184 16v639q0 305 -254 305q-172 0 -376 -155v-799l204 -6v-29h-434v29l184 16v922l-184 8v29q148 12 223 14l11 -8l-11 -138h11q183 158 379 158q292 0 292 -342v-653zM623 -133q23 0 41 -6q18 -41 18 -94q0 -151 -152 -259l-18 23
q62 52 95.5 103.5t33.5 115.5q0 28 -6 55l-62 5v51q21 6 50 6z" />
    <glyph glyph-name="Ncaron" unicode="&#x147;" horiz-adv-x="1550" 
d="M1458 1362v-31l-215 -16v-1315l-41 -18l-26 -2l-662 1114q-109 185 -131 227h-10v-1284l235 -6v-31h-491v33l215 14v1278l-215 6v31h295l635 -1073q131 -224 145 -250h10v1286l-215 6v31h471zM770 1530h10l230 272h34l-243 -319h-58l-231 305l31 20z" />
    <glyph glyph-name="ncaron" unicode="&#x148;" horiz-adv-x="1232" 
d="M1202 29v-29h-434v29l184 16v639q0 305 -254 305q-172 0 -376 -155v-799l204 -6v-29h-434v29l184 16v922l-184 8v29q148 12 223 14l11 -8l-11 -138h11q183 158 379 158q292 0 292 -342v-653zM616 1251h11l204 293h35l-219 -340h-57l-209 326l31 20z" />
    <glyph glyph-name="napostrophe" unicode="&#x149;" horiz-adv-x="1232" 
d="M2 1542q31 0 55 -6q23 -59 23 -123q0 -177 -166 -256l-16 29q66 40 100.5 86.5t34.5 126.5q0 31 -6 61l-88 4l-2 72q27 6 65 6zM1202 29v-29h-434v29l184 16v639q0 305 -254 305q-172 0 -376 -155v-799l204 -6v-29h-434v29l184 16v922l-184 8v29q148 12 223 14l11 -8
l-11 -138h11q183 158 379 158q292 0 292 -342v-653z" />
    <glyph glyph-name="Eng" unicode="&#x14a;" horiz-adv-x="1550" 
d="M1458 1362v-31l-215 -16v-1356q0 -177 -77 -286t-199 -109q-52 0 -88 22l4 33h184q62 59 94 129.5t35 196.5l-682 1149q-109 185 -131 227h-10v-1284l235 -6v-31h-491v31l215 16v1278l-215 6v31h295l635 -1073q131 -224 145 -250h10v1286l-215 6v31h471z" />
    <glyph glyph-name="eng" unicode="&#x14b;" horiz-adv-x="1222" 
d="M705 1030q292 0 292 -342v-809q0 -38 -3.5 -59t-14 -45.5t-38 -50t-67 -57t-110.5 -81.5l-21 21l209 192v885q0 305 -252 305q-174 0 -378 -155v-799l204 -6v-29h-434v29l184 16v922l-184 8v29q148 12 223 14l11 -8l-11 -138h11q183 158 379 158z" />
    <glyph glyph-name="Omacron" unicode="&#x14c;" horiz-adv-x="1380" 
d="M705 1389q109 0 199 -35.5t153 -98.5t106.5 -150t63.5 -189.5t20 -217.5q0 -156 -38.5 -288.5t-110 -230t-180.5 -152t-244 -54.5q-134 0 -239 54t-170 149t-98.5 220t-33.5 272q0 211 65.5 372.5t196.5 255t310 93.5zM705 1346q-80 0 -154 -23t-142 -75.5t-118 -129
t-79.5 -191.5t-29.5 -255q0 -163 38.5 -290t106.5 -206t156.5 -119.5t192.5 -40.5q81 0 155.5 24t142 77t117 130.5t78.5 192.5t29 254q0 161 -38 287t-106 205t-156.5 119.5t-192.5 40.5zM461 1665h467q4 -8 4 -20q0 -13 -4 -21h-467q-4 8 -4 21q0 12 4 20z" />
    <glyph glyph-name="omacron" unicode="&#x14d;" horiz-adv-x="1064" 
d="M543 1030q101 0 180.5 -42.5t128 -115.5t73.5 -165.5t25 -198.5q0 -232 -114.5 -383.5t-313.5 -151.5q-101 0 -180.5 41.5t-128 114t-73.5 164.5t-25 199q0 152 49 273t147.5 193t231.5 72zM543 989q-74 0 -139.5 -28t-121 -84.5t-88 -154.5t-32.5 -226q0 -127 31.5 -223
t84.5 -151t115.5 -81.5t132.5 -26.5q71 0 136 28t120 84.5t88 154.5t33 225q0 232 -100 357.5t-260 125.5zM322 1378h423q5 -10 5 -20q0 -11 -5 -21h-423q-5 10 -5 21q0 10 5 20z" />
    <glyph glyph-name="Obreve" unicode="&#x14e;" horiz-adv-x="1380" 
d="M705 1389q109 0 199 -35.5t153 -98.5t106.5 -150t63.5 -189.5t20 -217.5q0 -156 -38.5 -288.5t-110 -230t-180.5 -152t-244 -54.5q-134 0 -239 54t-170 149t-98.5 220t-33.5 272q0 211 65.5 372.5t196.5 255t310 93.5zM705 1346q-80 0 -154 -23t-142 -75.5t-118 -129
t-79.5 -191.5t-29.5 -255q0 -163 38.5 -290t106.5 -206t156.5 -119.5t192.5 -40.5q81 0 155.5 24t142 77t117 130.5t78.5 192.5t29 254q0 161 -38 287t-106 205t-156.5 119.5t-192.5 40.5zM442 1712l45 17q36 -207 207 -207q172 0 224 207l28 -11q-20 -114 -90.5 -175.5
t-173.5 -61.5t-163.5 62.5t-76.5 168.5z" />
    <glyph glyph-name="obreve" unicode="&#x14f;" horiz-adv-x="1064" 
d="M543 1030q101 0 180.5 -42.5t128 -115.5t73.5 -165.5t25 -198.5q0 -232 -114.5 -383.5t-313.5 -151.5q-101 0 -180.5 41.5t-128 114t-73.5 164.5t-25 199q0 152 49 273t147.5 193t231.5 72zM543 989q-74 0 -139.5 -28t-121 -84.5t-88 -154.5t-32.5 -226q0 -127 31.5 -223
t84.5 -151t115.5 -81.5t132.5 -26.5q71 0 136 28t120 84.5t88 154.5t33 225q0 232 -100 357.5t-260 125.5zM301 1468l45 17q28 -203 186 -203q157 0 203 203l29 -10q-18 -112 -84 -173t-160 -61q-95 0 -150 61t-69 166z" />
    <glyph glyph-name="Ohungarumlaut" unicode="&#x150;" horiz-adv-x="1380" 
d="M705 1389q109 0 199 -35.5t153 -98.5t106.5 -150t63.5 -189.5t20 -217.5q0 -156 -38.5 -288.5t-110 -230t-180.5 -152t-244 -54.5q-134 0 -239 54t-170 149t-98.5 220t-33.5 272q0 211 65.5 372.5t196.5 255t310 93.5zM705 1346q-80 0 -154 -23t-142 -75.5t-118 -129
t-79.5 -191.5t-29.5 -255q0 -163 38.5 -290t106.5 -206t156.5 -119.5t192.5 -40.5q81 0 155.5 24t142 77t117 130.5t78.5 192.5t29 254q0 161 -38 287t-106 205t-156.5 119.5t-192.5 40.5zM639 1808h14q27 -9 41 -26l-151 -301h-35zM1022 1808h14q27 -9 41 -26l-151 -301
h-35z" />
    <glyph glyph-name="ohungarumlaut" unicode="&#x151;" horiz-adv-x="1064" 
d="M543 1030q101 0 180.5 -42.5t128 -115.5t73.5 -165.5t25 -198.5q0 -232 -114.5 -383.5t-313.5 -151.5q-101 0 -180.5 41.5t-128 114t-73.5 164.5t-25 199q0 152 49 273t147.5 193t231.5 72zM543 989q-74 0 -139.5 -28t-121 -84.5t-88 -154.5t-32.5 -226q0 -127 31.5 -223
t84.5 -151t115.5 -81.5t132.5 -26.5q71 0 136 28t120 84.5t88 154.5t33 225q0 232 -100 357.5t-260 125.5zM520 1571h15q24 -8 40 -27l-178 -370h-35zM815 1571h14q26 -9 41 -27l-178 -370h-35z" />
    <glyph glyph-name="OE" unicode="&#x152;" horiz-adv-x="1900" 
d="M762 1389q103 0 258 -27h709q4 -51 4 -125q0 -85 -11 -178h-34l-21 260l-600 8v-653h391l12 168h35v-377h-35l-12 168h-391v-598l600 8l27 260h35q8 -68 8 -137q0 -83 -13 -166h-704q-197 -27 -297 -27q-127 0 -227 35.5t-167.5 97.5t-112 151t-64 191t-19.5 222
q0 125 21.5 231.5t69.5 197.5t120 154.5t178 99.5t240 36zM770 1346q-135 0 -241.5 -39t-185 -119t-120 -210t-41.5 -304q0 -328 142 -493t397 -165q138 0 299 29v1274q-124 27 -250 27z" />
    <glyph glyph-name="oe" unicode="&#x153;" horiz-adv-x="1726" 
d="M1593 143l21 -22q-132 -148 -324 -148q-152 0 -249 90.5t-126 237.5h-10q-36 -150 -137 -239t-250 -89q-130 0 -223 72.5t-136.5 188t-43.5 258.5q0 151 49.5 272.5t147 193.5t227.5 72q151 0 247 -93t125 -245h11q39 162 145.5 250t245.5 88q147 0 222 -97t75 -259
q0 -74 -15 -150l-657 -20v-17q0 -226 98.5 -349.5t266.5 -123.5q84 0 148 31.5t142 97.5zM522 14q69 0 132.5 28t117.5 84.5t86.5 155t32.5 226.5q0 230 -98.5 355.5t-253.5 125.5q-71 0 -136 -28t-120 -84t-88 -154.5t-33 -226.5q0 -126 31.5 -222.5t84.5 -151.5
t114.5 -81.5t129.5 -26.5zM1307 989q-152 0 -254.5 -119t-112.5 -333l616 24q7 68 7 107q0 159 -67.5 240t-188.5 81z" />
    <glyph glyph-name="Racute" unicode="&#x154;" horiz-adv-x="1249" 
d="M1208 29v-29q-51 -14 -94 -14q-34 0 -58.5 15t-56.5 60q-38 53 -156 257.5t-175 287.5h-289v-569l235 -6v-31h-497v31l215 16v1278l-215 6v31q71 1 179.5 2.5t183.5 2.5t98 1q124 0 215 -29t143.5 -81t77 -117.5t24.5 -145.5q0 -284 -317 -377l-2 -8q59 -86 183 -294
t177 -287h129zM379 647h319q53 20 92 39t79 48.5t64.5 64t40 85t15.5 111.5q0 157 -99.5 243.5t-309.5 86.5h-201v-678zM801 1839h14q21 -9 37 -31l-213 -317h-35z" />
    <glyph glyph-name="racute" unicode="&#x155;" horiz-adv-x="747" 
d="M692 975h-149q-88 -68 -219 -244v-694l245 -6v-31h-477v31l184 16v918l-184 8v31q148 12 225 14l11 -8l-11 -219h11q99 144 157 191.5t129 47.5q46 0 82 -22zM561 1571h14q21 -9 37 -31l-276 -366h-35z" />
    <glyph glyph-name="Rcommaaccent" unicode="&#x156;" horiz-adv-x="1249" 
d="M1208 29v-29q-51 -14 -94 -14q-34 0 -58.5 15t-56.5 60q-38 53 -156 257.5t-175 287.5h-289v-569l235 -6v-31h-497v31l215 16v1278l-215 6v31q71 1 179.5 2.5t183.5 2.5t98 1q124 0 215 -29t143.5 -81t77 -117.5t24.5 -145.5q0 -284 -317 -377l-2 -8q59 -86 183 -294
t177 -287h129zM379 647h319q53 20 92 39t79 48.5t64.5 64t40 85t15.5 111.5q0 157 -99.5 243.5t-309.5 86.5h-201v-678zM727 -133q23 0 41 -6q18 -41 18 -94q0 -151 -151 -259l-19 23q62 52 95.5 103.5t33.5 115.5q0 28 -6 55l-61 5v51q21 6 49 6z" />
    <glyph glyph-name="rcommaaccent" unicode="&#x157;" horiz-adv-x="747" 
d="M692 975h-149q-88 -68 -219 -244v-694l245 -6v-31h-477v31l184 16v918l-184 8v31q148 12 225 14l11 -8l-11 -219h11q99 144 157 191.5t129 47.5q46 0 82 -22zM299 -133q23 0 41 -6q18 -41 18 -94q0 -151 -151 -259l-19 23q62 52 95.5 103.5t33.5 115.5q0 28 -6 55l-61 5
v51q21 6 49 6z" />
    <glyph glyph-name="Rcaron" unicode="&#x158;" horiz-adv-x="1249" 
d="M1208 29v-29q-51 -14 -94 -14q-34 0 -58.5 15t-56.5 60q-38 53 -156 257.5t-175 287.5h-289v-569l235 -6v-31h-497v31l215 16v1278l-215 6v31q71 1 179.5 2.5t183.5 2.5t98 1q124 0 215 -29t143.5 -81t77 -117.5t24.5 -145.5q0 -284 -317 -377l-2 -8q59 -86 183 -294
t177 -287h129zM379 647h319q53 20 92 39t79 48.5t64.5 64t40 85t15.5 111.5q0 157 -99.5 243.5t-309.5 86.5h-201v-678zM608 1540h10l230 272h35l-244 -319h-57l-232 305l31 21z" />
    <glyph glyph-name="rcaron" unicode="&#x159;" horiz-adv-x="747" 
d="M692 975h-149q-88 -68 -219 -244v-694l245 -6v-31h-477v31l184 16v918l-184 8v31q148 12 225 14l11 -8l-11 -219h11q99 144 157 191.5t129 47.5q46 0 82 -22zM330 1251h10l205 293h35l-220 -340h-57l-209 326l31 20z" />
    <glyph glyph-name="Sacute" unicode="&#x15a;" horiz-adv-x="1050" 
d="M487 737l134 -65q58 -28 96.5 -50t81 -55t67 -67t40.5 -81.5t16 -103.5q0 -160 -114 -251t-302 -91q-184 0 -348 80q-13 88 -13 170q0 59 9 133h30l25 -274q138 -66 293 -66q55 0 105.5 9t99.5 30.5t85 54t58 83.5t22 116q0 44 -9 81t-30.5 67.5t-41.5 52t-57 45
t-62 36.5t-70 36l-133 65q-58 28 -97 51t-81.5 56.5t-67.5 69t-41 84.5t-16 108q0 152 99 240t272 88q176 0 321 -76q4 -51 4 -125q0 -93 -10 -178h-31l-18 280q-133 56 -271 56q-65 0 -120 -15.5t-100.5 -47t-71 -87.5t-25.5 -131q0 -53 14 -96.5t36 -74.5t60 -61t73 -50
t89 -46zM690 1829h15q20 -9 36 -31l-213 -317h-34z" />
    <glyph glyph-name="sacute" unicode="&#x15b;" horiz-adv-x="907" 
d="M438 543l82 -37q70 -32 111 -55.5t77 -54.5t51 -68.5t15 -87.5q0 -125 -94.5 -196t-251.5 -71q-159 0 -287 70q-8 58 -8 104q0 78 8 121h31l25 -202q113 -52 237 -52q40 0 78 6t78 21.5t69.5 39.5t48.5 62.5t19 87.5q0 37 -12 67.5t-28.5 51.5t-50 43t-60.5 35t-76 35
l-82 37q-57 26 -89 42.5t-69.5 41.5t-56.5 49.5t-32 59t-13 77.5q0 122 88 191t239 69q137 0 250 -53q8 -58 8 -100q0 -72 -8 -121h-30l-25 198q-92 35 -197 35q-54 0 -101.5 -11t-88.5 -34t-64.5 -65t-23.5 -99q0 -38 12 -69t28.5 -51.5t51.5 -43.5t62 -36t79 -37z
M676 1571h14q21 -9 37 -31l-276 -366h-35z" />
    <glyph glyph-name="Scircumflex" unicode="&#x15c;" horiz-adv-x="1050" 
d="M487 737l134 -65q58 -28 96.5 -50t81 -55t67 -67t40.5 -81.5t16 -103.5q0 -160 -114 -251t-302 -91q-184 0 -348 80q-13 88 -13 170q0 59 9 133h30l25 -274q138 -66 293 -66q55 0 105.5 9t99.5 30.5t85 54t58 83.5t22 116q0 44 -9 81t-30.5 67.5t-41.5 52t-57 45
t-62 36.5t-70 36l-133 65q-58 28 -97 51t-81.5 56.5t-67.5 69t-41 84.5t-16 108q0 152 99 240t272 88q176 0 321 -76q4 -51 4 -125q0 -93 -10 -178h-31l-18 280q-133 56 -271 56q-65 0 -120 -15.5t-100.5 -47t-71 -87.5t-25.5 -131q0 -53 14 -96.5t36 -74.5t60 -61t73 -50
t89 -46zM797 1495l-31 -20l-227 278h-11l-227 -272h-35l242 319h57z" />
    <glyph glyph-name="scircumflex" unicode="&#x15d;" horiz-adv-x="907" 
d="M438 543l82 -37q70 -32 111 -55.5t77 -54.5t51 -68.5t15 -87.5q0 -125 -94.5 -196t-251.5 -71q-159 0 -287 70q-8 58 -8 104q0 78 8 121h31l25 -202q113 -52 237 -52q40 0 78 6t78 21.5t69.5 39.5t48.5 62.5t19 87.5q0 37 -12 67.5t-28.5 51.5t-50 43t-60.5 35t-76 35
l-82 37q-57 26 -89 42.5t-69.5 41.5t-56.5 49.5t-32 59t-13 77.5q0 122 88 191t239 69q137 0 250 -53q8 -58 8 -100q0 -72 -8 -121h-30l-25 198q-92 35 -197 35q-54 0 -101.5 -11t-88.5 -34t-64.5 -65t-23.5 -99q0 -38 12 -69t28.5 -51.5t51.5 -43.5t62 -36t79 -37z
M694 1219l-30 -21l-205 299h-10l-205 -293h-35l219 340h57z" />
    <glyph glyph-name="Scedilla" unicode="&#x15e;" horiz-adv-x="1050" 
d="M487 737l134 -65q58 -28 96.5 -50t81 -55t67 -67t40.5 -81.5t16 -103.5q0 -159 -112.5 -249.5t-297.5 -92.5v-131q38 -4 64 -10.5t53.5 -19t42 -35.5t14.5 -56q0 -65 -51.5 -111t-136.5 -46q-47 0 -95.5 15t-78.5 40l14 27q80 -41 151 -41q69 0 109.5 31.5t40.5 80.5
q0 20 -9 35t-20 24.5t-38.5 18.5t-44.5 13.5t-58 13.5l10 151q-172 6 -321 80q-13 88 -13 170q0 59 9 133h30l25 -274q138 -66 293 -66q55 0 105.5 9t99.5 30.5t85 54t58 83.5t22 116q0 44 -9 81t-30.5 67.5t-41.5 52t-57 45t-62 36.5t-70 36l-133 65q-58 28 -97 51
t-81.5 56.5t-67.5 69t-41 84.5t-16 108q0 152 99 240t272 88q176 0 321 -76q4 -51 4 -125q0 -93 -10 -178h-31l-18 280q-133 56 -271 56q-65 0 -120 -15.5t-100.5 -47t-71 -87.5t-25.5 -131q0 -53 14 -96.5t36 -74.5t60 -61t73 -50t89 -46z" />
    <glyph glyph-name="scedilla" unicode="&#x15f;" horiz-adv-x="907" 
d="M438 543l82 -37q70 -32 111 -55.5t77 -54.5t51 -68.5t15 -87.5q0 -117 -83.5 -186.5t-223.5 -78.5v-133q38 -4 64 -10.5t53.5 -19t42 -35.5t14.5 -56q0 -65 -51.5 -111t-136.5 -46q-47 0 -95.5 15t-78.5 40l14 27q80 -41 151 -41q69 0 109.5 31.5t40.5 80.5q0 20 -9 35
t-20 24.5t-38.5 18.5t-44.5 13.5t-58 13.5l10 151h-6q-159 0 -287 70q-8 58 -8 104q0 78 8 121h31l25 -202q113 -52 237 -52q40 0 78 6t78 21.5t69.5 39.5t48.5 62.5t19 87.5q0 37 -12 67.5t-28.5 51.5t-50 43t-60.5 35t-76 35l-82 37q-57 26 -89 42.5t-69.5 41.5
t-56.5 49.5t-32 59t-13 77.5q0 122 88 191t239 69q137 0 250 -53q8 -58 8 -100q0 -72 -8 -121h-30l-25 198q-92 35 -197 35q-54 0 -101.5 -11t-88.5 -34t-64.5 -65t-23.5 -99q0 -38 12 -69t28.5 -51.5t51.5 -43.5t62 -36t79 -37z" />
    <glyph glyph-name="Scaron" unicode="&#x160;" horiz-adv-x="1050" 
d="M487 737l134 -65q58 -28 96.5 -50t81 -55t67 -67t40.5 -81.5t16 -103.5q0 -160 -114 -251t-302 -91q-184 0 -348 80q-13 88 -13 170q0 59 9 133h30l25 -274q138 -66 293 -66q55 0 105.5 9t99.5 30.5t85 54t58 83.5t22 116q0 44 -9 81t-30.5 67.5t-41.5 52t-57 45
t-62 36.5t-70 36l-133 65q-58 28 -97 51t-81.5 56.5t-67.5 69t-41 84.5t-16 108q0 152 99 240t272 88q176 0 321 -76q4 -51 4 -125q0 -93 -10 -178h-31l-18 280q-133 56 -271 56q-65 0 -120 -15.5t-100.5 -47t-71 -87.5t-25.5 -131q0 -53 14 -96.5t36 -74.5t60 -61t73 -50
t89 -46zM537 1530h10l229 272h35l-244 -319h-57l-231 305l30 20z" />
    <glyph glyph-name="scaron" unicode="&#x161;" horiz-adv-x="907" 
d="M438 543l82 -37q70 -32 111 -55.5t77 -54.5t51 -68.5t15 -87.5q0 -125 -94.5 -196t-251.5 -71q-159 0 -287 70q-8 58 -8 104q0 78 8 121h31l25 -202q113 -52 237 -52q40 0 78 6t78 21.5t69.5 39.5t48.5 62.5t19 87.5q0 37 -12 67.5t-28.5 51.5t-50 43t-60.5 35t-76 35
l-82 37q-57 26 -89 42.5t-69.5 41.5t-56.5 49.5t-32 59t-13 77.5q0 122 88 191t239 69q137 0 250 -53q8 -58 8 -100q0 -72 -8 -121h-30l-25 198q-92 35 -197 35q-54 0 -101.5 -11t-88.5 -34t-64.5 -65t-23.5 -99q0 -38 12 -69t28.5 -51.5t51.5 -43.5t62 -36t79 -37z
M444 1251h11l204 293h35l-219 -340h-57l-209 326l31 20z" />
    <glyph glyph-name="Tcommaaccent" unicode="&#x162;" horiz-adv-x="1204" 
d="M121 1362h962q4 -51 4 -125q0 -93 -10 -178h-30l-19 260l-403 8v-1290l256 -6v-31h-267v-158q38 -4 64 -10.5t53.5 -19t42 -35.5t14.5 -56q0 -65 -51.5 -111t-136.5 -46q-47 0 -95.5 15t-78.5 40l14 27q80 -41 152 -41q69 0 109 31.5t40 80.5q0 20 -9 35t-20 24.5
t-38.5 18.5t-44.5 13.5t-58 13.5l11 178h-260v31l256 16v1280l-402 -8l-18 -260h-31q-10 85 -10 178q0 74 4 125z" />
    <glyph glyph-name="tcommaaccent" unicode="&#x163;" horiz-adv-x="698" 
d="M631 70l12 -27q-120 -70 -233 -70v-131q38 -4 64 -10.5t53.5 -19t42 -35.5t14.5 -56q0 -65 -52 -111t-137 -46q-47 0 -95.5 15t-78.5 40l15 27q80 -41 151 -41q69 0 109.5 31.5t40.5 80.5q0 20 -9 35t-20 24.5t-38.5 18.5t-44.5 13.5t-58 13.5l10 153q-65 8 -98 54
t-33 143v793l-185 8v31l185 12l20 256l27 -2v-266h303v-39h-303v-789q0 -87 30.5 -124.5t96.5 -37.5q92 0 211 56z" />
    <glyph glyph-name="Tcaron" unicode="&#x164;" horiz-adv-x="1204" 
d="M121 1362h962q4 -51 4 -125q0 -93 -10 -178h-30l-19 260l-403 8v-1290l256 -6v-31h-559v31l256 16v1280l-402 -8l-18 -260h-31q-10 85 -10 178q0 74 4 125zM606 1530h10l230 272h35l-244 -319h-57l-232 305l31 20z" />
    <glyph glyph-name="tcaron" unicode="&#x165;" horiz-adv-x="698" 
d="M631 70l12 -27q-120 -70 -233 -70q-82 0 -123 45.5t-41 153.5v793l-185 8v31l185 12l20 256l27 -2v-266h303v-39h-303v-789q0 -87 30.5 -124.5t96.5 -37.5q92 0 211 56zM582 1542q21 0 36 -10q-5 -156 -77 -375h-31l45 248v133q8 4 27 4z" />
    <glyph glyph-name="Tbar" unicode="&#x166;" horiz-adv-x="1204" 
d="M121 1362h962q4 -51 4 -125q0 -93 -10 -178h-30l-19 260l-403 8v-704h354v-39h-354v-547l256 -6v-31h-559v31l256 16v537h-357v39h357v704l-402 -8l-18 -260h-31q-10 85 -10 178q0 74 4 125z" />
    <glyph glyph-name="tbar" unicode="&#x167;" horiz-adv-x="720" 
d="M643 70l12 -27q-120 -70 -233 -70q-82 0 -123 45.5t-41 153.5v463h-184v39h184v291l-184 8v31l184 12l21 256l26 -2v-266h303v-39h-303v-291h303v-39h-303v-459q0 -87 30.5 -124.5t96.5 -37.5q92 0 211 56z" />
    <glyph glyph-name="Utilde" unicode="&#x168;" horiz-adv-x="1470" 
d="M1403 1362v-31l-215 -16v-858q0 -232 -113.5 -358t-333.5 -126q-222 0 -340 129.5t-118 368.5v854l-215 6v31h497v-31l-235 -16v-860q0 -113 32 -199t90 -137.5t132.5 -77t165.5 -25.5q184 0 290.5 107.5t106.5 331.5v870l-236 6v31h492zM1001 1690l21 -17
q-4 -7 -14 -25.5t-14 -25.5t-13 -22.5t-14 -22t-14 -18t-16 -16.5t-16 -11t-18.5 -8t-19.5 -2q-31 0 -74 26l-215 140l-113 -138l-20 17q4 7 13.5 24t13.5 25t13 22.5t14.5 22t14 18.5t15.5 16.5t15.5 11.5t18 8.5t19.5 2.5q31 0 76 -26l215 -138z" />
    <glyph glyph-name="utilde" unicode="&#x169;" horiz-adv-x="1212" 
d="M1141 31v-31q-153 -12 -226 -14l-10 4l10 141h-10q-183 -158 -377 -158q-292 0 -292 342v650l-185 8v31q155 12 221 14l11 -8v-684q0 -166 65 -239t184 -73q172 0 377 158v793l-184 8v31q154 12 221 14l10 -8v-971zM797 1434l20 -17q-4 -7 -13.5 -24.5t-13.5 -25.5
t-12.5 -22.5t-14 -22t-13.5 -18.5t-15 -16t-16 -11t-18 -8.5t-19 -2.5q-28 0 -68 30l-186 136l-106 -138l-21 17q4 8 17.5 32.5t18 32.5t16 26.5t19 25.5t19 17t23 13.5t24.5 3.5q28 0 66 -28l186 -138z" />
    <glyph glyph-name="Umacron" unicode="&#x16a;" horiz-adv-x="1470" 
d="M1403 1362v-31l-215 -16v-858q0 -232 -113.5 -358t-333.5 -126q-222 0 -340 129.5t-118 368.5v854l-215 6v31h497v-31l-235 -16v-860q0 -113 32 -199t90 -137.5t132.5 -77t165.5 -25.5q184 0 290.5 107.5t106.5 331.5v870l-236 6v31h492zM512 1665h467q4 -8 4 -20
q0 -13 -4 -21h-467q-4 8 -4 21q0 12 4 20z" />
    <glyph glyph-name="umacron" unicode="&#x16b;" horiz-adv-x="1212" 
d="M1141 31v-31q-153 -12 -226 -14l-10 4l10 141h-10q-183 -158 -377 -158q-292 0 -292 342v650l-185 8v31q155 12 221 14l11 -8v-684q0 -166 65 -239t184 -73q172 0 377 158v793l-184 8v31q154 12 221 14l10 -8v-971zM348 1378h424q4 -8 4 -20q0 -13 -4 -21h-424
q-4 8 -4 21q0 12 4 20z" />
    <glyph glyph-name="Ubreve" unicode="&#x16c;" horiz-adv-x="1470" 
d="M1403 1362v-31l-215 -16v-858q0 -232 -113.5 -358t-333.5 -126q-222 0 -340 129.5t-118 368.5v854l-215 6v31h497v-31l-235 -16v-860q0 -113 32 -199t90 -137.5t132.5 -77t165.5 -25.5q184 0 290.5 107.5t106.5 331.5v870l-236 6v31h492zM494 1712l45 17
q36 -207 206 -207q172 0 224 207l28 -11q-20 -114 -90.5 -175.5t-173.5 -61.5t-163 62.5t-76 168.5z" />
    <glyph glyph-name="ubreve" unicode="&#x16d;" horiz-adv-x="1212" 
d="M1141 31v-31q-153 -12 -226 -14l-10 4l10 141h-10q-183 -158 -377 -158q-292 0 -292 342v650l-185 8v31q155 12 221 14l11 -8v-684q0 -166 65 -239t184 -73q172 0 377 158v793l-184 8v31q154 12 221 14l10 -8v-971zM328 1468l45 17q28 -203 186 -203q157 0 203 203
l29 -10q-18 -112 -84 -173t-160 -61q-95 0 -150 61t-69 166z" />
    <glyph glyph-name="Uring" unicode="&#x16e;" horiz-adv-x="1470" 
d="M1403 1362v-31l-215 -16v-858q0 -232 -113.5 -358t-333.5 -126q-222 0 -340 129.5t-118 368.5v854l-215 6v31h497v-31l-235 -16v-860q0 -113 32 -199t90 -137.5t132.5 -77t165.5 -25.5q184 0 290.5 107.5t106.5 331.5v870l-236 6v31h492zM750 1841q80 0 132 -46.5
t52 -129.5q0 -89 -59.5 -136.5t-143.5 -47.5q-80 0 -132 44.5t-52 127.5q0 90 60 139t143 49zM741 1804q-71 0 -111 -39.5t-40 -105.5q0 -65 39.5 -103t109.5 -38q73 0 112.5 40.5t39.5 104.5q0 63 -39 102t-111 39z" />
    <glyph glyph-name="uring" unicode="&#x16f;" horiz-adv-x="1212" 
d="M1141 31v-31q-153 -12 -226 -14l-10 4l10 141h-10q-183 -158 -377 -158q-292 0 -292 342v650l-185 8v31q155 12 221 14l11 -8v-684q0 -166 65 -239t184 -73q172 0 377 158v793l-184 8v31q154 12 221 14l10 -8v-971zM569 1577q79 0 132 -49.5t53 -134.5q0 -93 -60 -145
t-143 -52q-79 0 -131.5 49.5t-52.5 134.5q0 93 59.5 145t142.5 52zM561 1540q-70 0 -110.5 -43t-40.5 -111q0 -69 40 -111t109 -42q72 0 112 45t40 113q0 65 -39.5 107t-110.5 42z" />
    <glyph glyph-name="Uhungarumlaut" unicode="&#x170;" horiz-adv-x="1470" 
d="M1403 1362v-31l-215 -16v-858q0 -232 -113.5 -358t-333.5 -126q-222 0 -340 129.5t-118 368.5v854l-215 6v31h497v-31l-235 -16v-860q0 -113 32 -199t90 -137.5t132.5 -77t165.5 -25.5q184 0 290.5 107.5t106.5 331.5v870l-236 6v31h492zM690 1808h15q25 -8 40 -26
l-151 -301h-35zM1073 1808h14q27 -9 41 -26l-151 -301h-35z" />
    <glyph glyph-name="uhungarumlaut" unicode="&#x171;" horiz-adv-x="1212" 
d="M1141 31v-31q-153 -12 -226 -14l-10 4l10 141h-10q-183 -158 -377 -158q-292 0 -292 342v650l-185 8v31q155 12 221 14l11 -8v-684q0 -166 65 -239t184 -73q172 0 377 158v793l-184 8v31q154 12 221 14l10 -8v-971zM547 1571h14q26 -9 41 -27l-178 -370h-35zM842 1571h14
q26 -9 41 -27l-178 -370h-35z" />
    <glyph glyph-name="Uogonek" unicode="&#x172;" horiz-adv-x="1470" 
d="M1403 1362v-31l-215 -16v-858q0 -152 -38 -239t-122 -163q-17 -15 -53 -45t-58.5 -49t-52 -49.5t-46.5 -55.5t-29.5 -58t-12.5 -66q0 -66 42 -96.5t110 -30.5q70 0 145 41l12 -33q-57 -49 -159 -49q-100 0 -148.5 44t-48.5 120q0 70 41 132t121 128l-4 10
q-73 -25 -154 -25q-213 0 -331.5 130.5t-118.5 367.5v854l-215 6v31h497v-31l-235 -16v-860q0 -113 32 -199t90 -137.5t132.5 -77t165.5 -25.5q184 0 290.5 107.5t106.5 331.5v870l-215 6v31h471z" />
    <glyph glyph-name="uogonek" unicode="&#x173;" horiz-adv-x="1212" 
d="M1141 31v-31q-147 -10 -239.5 -95.5t-92.5 -183.5q0 -116 139 -116q74 0 158 41l12 -33q-67 -49 -176 -49q-93 0 -136.5 43t-43.5 114q0 80 47 143t113 101l-7 166h-10q-183 -158 -377 -158q-292 0 -292 342v650l-185 8v31q155 12 221 14l11 -8v-684q0 -166 65 -239
t184 -73q172 0 377 158v793l-184 8v31q154 12 221 14l10 -8v-979h185z" />
    <glyph glyph-name="Wcircumflex" unicode="&#x174;" horiz-adv-x="2062" 
d="M2001 1331l-191 -16q-120 -458 -389 -1319l-51 -23h-18q-171 541 -312 1090h-10q-83 -341 -313 -1067l-51 -23h-19q-276 890 -395 1352l-191 6v31h480v-31l-236 -16q118 -461 371 -1292h10q182 574 328 1105l-58 197l-170 6v31h480v-31l-258 -16q235 -848 372 -1292h11
q244 793 378 1302l-233 6v31h465v-31zM1317 1495l-31 -20l-227 278h-10l-228 -272h-35l242 319h57z" />
    <glyph glyph-name="wcircumflex" unicode="&#x175;" horiz-adv-x="1808" 
d="M1753 973l-158 -17q-139 -492 -295 -962l-53 -21h-16q-161 477 -309 1008h-11q-90 -329 -319 -987l-53 -21h-17q-181 551 -301 994l-166 6v31h406v-31l-185 -17h-2q110 -408 279 -933h10q199 571 320 987l53 20h16q142 -507 310 -1007h10q172 530 282 944l-200 6v31h399
v-31zM1163 1219l-30 -21l-205 299h-10l-205 -293h-35l219 340h57z" />
    <glyph glyph-name="Ycircumflex" unicode="&#x176;" horiz-adv-x="1320" 
d="M1270 1331l-191 -16q-192 -434 -389 -823v-455l256 -6v-31h-559v31l256 16v445q-205 397 -401 833l-191 6v31h479v-31l-229 -16q167 -382 365 -766h10q184 363 362 776l-233 6v31h465v-31zM930 1495l-31 -20l-227 278h-10l-228 -272h-35l242 319h57z" />
    <glyph glyph-name="ycircumflex" unicode="&#x177;" horiz-adv-x="1173" 
d="M1143 973l-160 -17q-71 -216 -190 -540.5t-183 -476.5q-24 -57 -45.5 -102t-55.5 -99t-67.5 -89.5t-78.5 -60t-93 -24.5q-50 0 -86 22l4 33h166q124 108 213 334q-211 545 -368 1014l-168 6v31h407v-31l-184 -17q170 -507 338 -933h10q181 455 342 944l-201 6v31h400v-31
zM831 1219l-30 -21l-205 299h-10l-205 -293h-35l219 340h58z" />
    <glyph glyph-name="Ydieresis" unicode="&#x178;" horiz-adv-x="1320" 
d="M1270 1331l-191 -16q-192 -434 -389 -823v-455l256 -6v-31h-559v31l256 16v445q-205 397 -401 833l-191 6v31h479v-31l-229 -16q167 -382 365 -766h10q184 363 362 776l-233 6v31h465v-31zM428 1718q19 0 29 -2q12 -27 12 -61q0 -41 -23 -78h-51l-10 133q24 8 43 8z
M901 1718q17 0 27 -2q12 -27 12 -61q0 -43 -22 -78h-48l-10 133q24 8 41 8z" />
    <glyph glyph-name="Zacute" unicode="&#x179;" horiz-adv-x="1110" 
d="M975 303h31q8 -68 8 -137q0 -83 -13 -166h-882l-13 31l742 1145q59 92 98 145l-4 8l-745 -10l-19 -260h-31q-10 85 -10 178q0 74 4 125h850l13 -31l-740 -1145q-49 -76 -102 -145l4 -8l786 12zM721 1829h14q21 -9 37 -31l-213 -317h-35z" />
    <glyph glyph-name="zacute" unicode="&#x17a;" horiz-adv-x="897" 
d="M778 268l33 -4q4 -24 4 -74q0 -70 -20 -190h-701l-12 31l541 786q52 76 110 148l-4 8l-545 -12l-24 -205h-31q-8 52 -8 114t10 134h645l12 -31l-542 -787q-42 -61 -111 -147l4 -8l606 12zM674 1571h14q21 -9 37 -31l-276 -366h-35z" />
    <glyph glyph-name="Zdotaccent" unicode="&#x17b;" horiz-adv-x="1110" 
d="M975 303h31q8 -68 8 -137q0 -83 -13 -166h-882l-13 31l742 1145q59 92 98 145l-4 8l-745 -10l-19 -260h-31q-10 85 -10 178q0 74 4 125h850l13 -31l-740 -1145q-49 -76 -102 -145l4 -8l786 12zM565 1716q15 0 27 -2q12 -27 12 -63q0 -57 -24 -97h-50l-10 154q24 8 45 8z
" />
    <glyph glyph-name="zdotaccent" unicode="&#x17c;" horiz-adv-x="897" 
d="M778 268l33 -4q4 -24 4 -74q0 -70 -20 -190h-701l-12 31l541 786q52 76 110 148l-4 8l-545 -12l-24 -205h-31q-8 52 -8 114t10 134h645l12 -31l-542 -787q-42 -61 -111 -147l4 -8l606 12zM453 1462q14 0 26 -2q13 -29 13 -63q0 -55 -25 -97h-49l-10 154q24 8 45 8z" />
    <glyph glyph-name="Zcaron" unicode="&#x17d;" horiz-adv-x="1110" 
d="M975 303h31q8 -68 8 -137q0 -83 -13 -166h-882l-13 31l742 1145q59 92 98 145l-4 8l-745 -10l-19 -260h-31q-10 85 -10 178q0 74 4 125h850l13 -31l-740 -1145q-49 -76 -102 -145l4 -8l786 12zM567 1530h11l229 272h35l-244 -319h-57l-232 305l31 20z" />
    <glyph glyph-name="zcaron" unicode="&#x17e;" horiz-adv-x="897" 
d="M778 268l33 -4q4 -24 4 -74q0 -70 -20 -190h-701l-12 31l541 786q52 76 110 148l-4 8l-545 -12l-24 -205h-31q-8 52 -8 114t10 134h645l12 -31l-542 -787q-42 -61 -111 -147l4 -8l606 12zM442 1251h11l204 293h35l-219 -340h-57l-209 326l31 20z" />
    <glyph glyph-name="longs" unicode="&#x17f;" horiz-adv-x="620" 
d="M578 1542q56 0 102.5 -15t79.5 -54.5t33 -98.5q0 -46 -21 -78h-31l-28 185q-78 20 -133 20q-125 0 -190.5 -89.5t-65.5 -250.5v-1124l225 -2v-35h-457v31l184 16v918l-184 8v31l184 12v155q0 185 84.5 278t217.5 93z" />
    <glyph glyph-name="uni018F" unicode="&#x18f;" horiz-adv-x="1247" 
d="M575 1389q114 0 205.5 -36t153 -98.5t102.5 -150t59.5 -185.5t18.5 -210q0 -335 -156.5 -535.5t-412.5 -200.5q-204 0 -308 130t-104 352q0 101 19 196h911l2 54q0 306 -130.5 471t-363.5 165q-199 0 -378 -127l-17 29q159 146 399 146zM551 16q210 0 350.5 157
t161.5 443l-870 -10q-11 -101 -11 -155q0 -217 98.5 -326t270.5 -109z" />
    <glyph glyph-name="florin" unicode="&#x192;" horiz-adv-x="1015" 
d="M813 1247q166 0 166 -151q0 -50 -21 -82h-30l-29 190q-23 2 -59 2q-123 0 -189 -75t-84 -265l-16 -145h301v-41h-305l-51 -479q-21 -195 -99 -283t-194 -88q-166 0 -166 152q0 51 20 81h31l29 -188q23 -4 59 -4q123 0 188.5 75t84.5 265l51 469h-232v41h236l16 156
q21 195 98.5 282.5t194.5 87.5z" />
    <glyph glyph-name="uni01E2" unicode="&#x1e2;" horiz-adv-x="1964" 
d="M1761 303h31q8 -68 8 -137q0 -90 -12 -166h-940v31l215 16v389h-555l-234 -399l232 -6v-31h-465v31l190 16q363 618 781 1278l-215 6v31h995q4 -51 4 -125q0 -93 -10 -178h-31l-16 266h-629v-651h412l12 168h35v-377h-35l-12 168h-412v-598l629 8zM1063 477v848h-10
q-340 -547 -521 -848h531zM928 1665h424q4 -8 4 -20q0 -13 -4 -21h-424q-4 8 -4 21q0 12 4 20z" />
    <glyph glyph-name="uni01E3" unicode="&#x1e3;" horiz-adv-x="1564" 
d="M1432 143l20 -22q-142 -148 -334 -148q-223 0 -323 205h-11q-94 -104 -205.5 -153.5t-218.5 -49.5q-127 0 -192.5 65t-65.5 173q0 152 145.5 218.5t483.5 78.5l6 176q4 150 -66 227.5t-204 77.5q-114 0 -229 -67l-29 -199h-31q-20 28 -20 76q0 95 95 163t226 68
q135 0 213.5 -78.5t83.5 -210.5h10q38 127 134 207t227 80q146 0 223.5 -98t77.5 -258q0 -79 -14 -150l-656 -41v-2q0 -228 97 -347.5t251 -119.5q153 0 306 129zM1141 989q-148 0 -251 -125.5t-112 -349.5l617 47q6 58 6 107q0 158 -71 239.5t-189 81.5zM360 18
q99 0 208.5 51t207.5 150q-42 110 -45 256l-104 -6q-252 -17 -364.5 -78t-112.5 -182q0 -86 53 -138.5t157 -52.5zM586 1399h424q4 -8 4 -21q0 -12 -4 -20h-424q-4 8 -4 20q0 13 4 21z" />
    <glyph glyph-name="Aringacute" unicode="&#x1fa;" horiz-adv-x="1429" 
d="M741 1665h-34l194 301h14q21 -9 37 -31zM1401 31v-31h-459v31l213 16q-63 193 -141 410h-598q-50 -135 -150 -420l234 -6v-31h-469v31l192 16q228 656 443 1188q-63 11 -101.5 54t-38.5 114q0 90 60 139t143 49q80 0 132 -46.5t52 -129.5q0 -74 -41.5 -119.5
t-105.5 -58.5q222 -555 444 -1200zM569 1409q0 -65 40 -103t110 -38q72 0 111.5 40.5t39.5 104.5q0 63 -39 102t-110 39t-111.5 -39.5t-40.5 -105.5zM430 498h569q-156 423 -278 733h-10q-176 -441 -281 -733z" />
    <glyph glyph-name="aringacute" unicode="&#x1fb;" horiz-adv-x="1015" 
d="M961 29v-29q-96 -14 -146 -14q-42 0 -60 13t-18 48v84h-10q-175 -158 -367 -158q-126 0 -192 65t-66 169q0 63 26 112t68 79t102 49.5t122 26.5t133 7q83 0 182 -6l2 225q1 141 -68.5 215t-201.5 74q-114 0 -229 -67l-29 -199h-31q-20 28 -20 76q0 95 94.5 163t224.5 68
q135 0 220.5 -82t84.5 -239l-6 -680h185zM358 14q89 0 187 42t188 118l2 272h-149q-436 0 -436 -237q0 -87 53 -141t155 -54zM647 1862h15q19 -8 34 -29l-198 -246h-35zM489 1505q79 0 132 -48t53 -128q0 -86 -61 -136t-142 -50q-79 0 -131.5 48t-52.5 128q0 86 60 136
t142 50zM483 1468q-72 0 -112.5 -40.5t-40.5 -106.5q0 -65 39 -103t108 -38q74 0 114 43.5t40 107.5q0 62 -39 99.5t-109 37.5z" />
    <glyph glyph-name="AEacute" unicode="&#x1fc;" horiz-adv-x="1964" 
d="M1761 303h31q8 -68 8 -137q0 -90 -12 -166h-940v31l215 16v389h-555l-234 -399l232 -6v-31h-465v31l190 16q363 618 781 1278l-215 6v31h995q4 -51 4 -125q0 -93 -10 -178h-31l-16 266h-629v-651h412l12 168h35v-377h-35l-12 168h-412v-598l629 8zM1063 477v848h-10
q-340 -547 -521 -848h531zM1298 1829h15q21 -9 37 -31l-213 -317h-35z" />
    <glyph glyph-name="aeacute" unicode="&#x1fd;" horiz-adv-x="1564" 
d="M1432 143l20 -22q-142 -148 -334 -148q-223 0 -323 205h-11q-94 -104 -205.5 -153.5t-218.5 -49.5q-127 0 -192.5 65t-65.5 173q0 152 145.5 218.5t483.5 78.5l6 176q4 150 -66 227.5t-204 77.5q-114 0 -229 -67l-29 -199h-31q-20 28 -20 76q0 95 95 163t226 68
q135 0 213.5 -78.5t83.5 -210.5h10q38 127 134 207t227 80q146 0 223.5 -98t77.5 -258q0 -79 -14 -150l-656 -41v-2q0 -228 97 -347.5t251 -119.5q153 0 306 129zM1141 989q-148 0 -251 -125.5t-112 -349.5l617 47q6 58 6 107q0 158 -71 239.5t-189 81.5zM360 18
q99 0 208.5 51t207.5 150q-42 110 -45 256l-104 -6q-252 -17 -364.5 -78t-112.5 -182q0 -86 53 -138.5t157 -52.5zM1022 1591h14q22 -10 37 -30l-276 -367h-35z" />
    <glyph glyph-name="Oslashacute" unicode="&#x1fe;" horiz-adv-x="1380" 
d="M1235 1487l-162 -250q174 -186 174 -539q0 -156 -38.5 -288.5t-110 -230t-180.5 -152t-244 -54.5q-206 0 -340 125l-158 -245l-26 10l-5 12l160 250q-85 94 -128.5 234t-43.5 309q0 211 65.5 372.5t196.5 255t310 93.5q208 0 342 -125l157 245l27 -10zM705 1346
q-80 0 -154 -23t-142 -75.5t-118 -129t-79.5 -191.5t-29.5 -255q0 -327 154 -506l680 1059q-124 121 -311 121zM676 16q81 0 155.5 24t142 77t117 130.5t78.5 192.5t29 254q0 325 -154 504l-682 -1061q127 -121 314 -121zM848 1829h14q21 -9 37 -31l-213 -317h-35z" />
    <glyph glyph-name="oslashacute" unicode="&#x1ff;" horiz-adv-x="1064" 
d="M897 1151l-113 -207q81 -70 123.5 -185t42.5 -251q0 -150 -50.5 -271t-148.5 -192.5t-229 -71.5t-225 72l-98 -184l-29 6l-6 12l102 191q-74 71 -112.5 181.5t-38.5 240.5q0 151 50.5 272.5t148.5 193.5t229 72q123 0 211 -63l110 204l27 -8zM162 496q0 -261 131 -385
l438 821q-85 57 -188 57q-56 0 -109.5 -16.5t-103 -54.5t-86.5 -94t-59.5 -140.5t-22.5 -187.5zM526 14q55 0 107 17t101.5 55t86.5 93.5t59.5 140t22.5 186.5q0 271 -141 399l-440 -821q87 -70 204 -70zM741 1591h15q22 -10 37 -30l-277 -367h-35z" />
    <glyph glyph-name="Scommaaccent" unicode="&#x218;" horiz-adv-x="1050" 
d="M487 737l134 -65q58 -28 96.5 -50t81 -55t67 -67t40.5 -81.5t16 -103.5q0 -160 -114 -251t-302 -91q-184 0 -348 80q-13 88 -13 170q0 59 9 133h30l25 -274q138 -66 293 -66q55 0 105.5 9t99.5 30.5t85 54t58 83.5t22 116q0 44 -9 81t-30.5 67.5t-41.5 52t-57 45
t-62 36.5t-70 36l-133 65q-58 28 -97 51t-81.5 56.5t-67.5 69t-41 84.5t-16 108q0 152 99 240t272 88q176 0 321 -76q4 -51 4 -125q0 -93 -10 -178h-31l-18 280q-133 56 -271 56q-65 0 -120 -15.5t-100.5 -47t-71 -87.5t-25.5 -131q0 -53 14 -96.5t36 -74.5t60 -61t73 -50
t89 -46zM496 -133q23 0 41 -6q18 -41 18 -94q0 -151 -152 -259l-18 23q62 52 95.5 103.5t33.5 115.5q0 28 -6 55l-62 5v51q21 6 50 6z" />
    <glyph glyph-name="scommaaccent" unicode="&#x219;" horiz-adv-x="907" 
d="M438 543l82 -37q70 -32 111 -55.5t77 -54.5t51 -68.5t15 -87.5q0 -125 -94.5 -196t-251.5 -71q-159 0 -287 70q-8 58 -8 104q0 78 8 121h31l25 -202q113 -52 237 -52q40 0 78 6t78 21.5t69.5 39.5t48.5 62.5t19 87.5q0 37 -12 67.5t-28.5 51.5t-50 43t-60.5 35t-76 35
l-82 37q-57 26 -89 42.5t-69.5 41.5t-56.5 49.5t-32 59t-13 77.5q0 122 88 191t239 69q137 0 250 -53q8 -58 8 -100q0 -72 -8 -121h-30l-25 198q-92 35 -197 35q-54 0 -101.5 -11t-88.5 -34t-64.5 -65t-23.5 -99q0 -38 12 -69t28.5 -51.5t51.5 -43.5t62 -36t79 -37z
M451 -133q23 0 41 -6q18 -41 18 -94q0 -151 -152 -259l-18 23q62 52 95.5 103.5t33.5 115.5q0 28 -6 55l-62 5v51q21 6 50 6z" />
    <glyph glyph-name="uni021A" unicode="&#x21a;" horiz-adv-x="1204" 
d="M121 1362h962q4 -51 4 -125q0 -93 -10 -178h-30l-19 260l-403 8v-1290l256 -6v-31h-559v31l256 16v1280l-402 -8l-18 -260h-31q-10 85 -10 178q0 74 4 125zM598 -133q23 0 41 -6q18 -41 18 -94q0 -151 -151 -259l-19 23q62 52 95.5 103.5t33.5 115.5q0 28 -6 55l-61 5v51
q21 6 49 6z" />
    <glyph glyph-name="uni021B" unicode="&#x21b;" horiz-adv-x="698" 
d="M631 70l12 -27q-120 -70 -233 -70q-82 0 -123 45.5t-41 153.5v793l-185 8v31l185 12l20 256l27 -2v-266h303v-39h-303v-789q0 -87 30.5 -124.5t96.5 -37.5q92 0 211 56zM393 -133q23 0 41 -6q19 -44 19 -94q0 -151 -152 -259l-18 23q62 52 95.5 103.5t33.5 115.5
q0 28 -6 55l-62 5v51q21 6 49 6z" />
    <glyph glyph-name="uni0232" unicode="&#x232;" horiz-adv-x="1320" 
d="M1270 1331l-191 -16q-192 -434 -389 -823v-455l256 -6v-31h-559v31l256 16v445q-205 397 -401 833l-191 6v31h479v-31l-229 -16q167 -382 365 -766h10q184 363 362 776l-233 6v31h465v-31zM453 1665h424q4 -8 4 -20q0 -13 -4 -21h-424q-4 8 -4 21q0 12 4 20z" />
    <glyph glyph-name="uni0233" unicode="&#x233;" horiz-adv-x="1173" 
d="M1143 973l-160 -17q-71 -216 -190 -540.5t-183 -476.5q-24 -57 -45.5 -102t-55.5 -99t-67.5 -89.5t-78.5 -60t-93 -24.5q-50 0 -86 22l4 33h166q124 108 213 334q-211 545 -368 1014l-168 6v31h407v-31l-184 -17q170 -507 338 -933h10q181 455 342 944l-201 6v31h400v-31
zM377 1378h424q4 -8 4 -20q0 -13 -4 -21h-424q-4 8 -4 21q0 12 4 20z" />
    <glyph glyph-name="uni0237" unicode="&#x237;" horiz-adv-x="528" 
d="M303 1010v-1131q0 -47 -4.5 -71t-30 -58t-69 -67.5t-131.5 -96.5l-21 21l209 192v1166l-184 8v31q147 12 221 14z" />
    <glyph glyph-name="uni0259" unicode="&#x259;" horiz-adv-x="972" 
d="M489 1030q98 0 171 -41t115 -113t62.5 -159t20.5 -189q0 -255 -116.5 -405t-307.5 -150q-154 0 -232.5 97.5t-78.5 259.5q0 78 14 149h674v45q0 219 -87 342t-241 123q-84 0 -152.5 -34.5t-135.5 -94.5l-21 23q132 147 315 147zM438 14q152 0 253 112.5t118 322.5
l-633 -9q-6 -55 -6 -104q0 -160 71.5 -241t196.5 -81z" />
    <glyph glyph-name="uni02BB" unicode="&#x2bb;" horiz-adv-x="380" 
d="M285 1493l16 -29q-49 -30 -80 -58.5t-53.5 -79t-22.5 -116.5q0 -26 7 -61l88 -4l2 -72q-27 -6 -66 -6q-31 0 -55 6q-23 59 -23 123q0 117 51.5 185.5t135.5 111.5z" />
    <glyph glyph-name="afii57929" unicode="&#x2bc;" horiz-adv-x="380" 
d="M205 1479q31 0 55 -6q23 -59 23 -123q0 -117 -51.5 -185.5t-135.5 -111.5l-16 28q49 30 80 58.5t53.5 79t22.5 116.5q0 27 -7 62l-88 4l-2 72q27 6 66 6z" />
    <glyph glyph-name="circumflex" unicode="&#x2c6;" horiz-adv-x="608" 
d="M547 1219l-31 -21l-205 299h-10l-205 -293h-35l220 340h57z" />
    <glyph glyph-name="caron" unicode="&#x2c7;" horiz-adv-x="608" 
d="M297 1251h10l205 293h35l-219 -340h-58l-209 326l31 20z" />
    <glyph glyph-name="breve" unicode="&#x2d8;" horiz-adv-x="585" 
d="M61 1468l45 17q28 -203 187 -203q157 0 203 203l28 -10q-18 -112 -83.5 -173t-159.5 -61q-95 0 -150.5 61.5t-69.5 165.5z" />
    <glyph glyph-name="dotaccent" unicode="&#x2d9;" horiz-adv-x="206" 
d="M106 1442q15 0 27 -2q12 -27 12 -64q0 -56 -24 -96h-49l-11 154q24 8 45 8z" />
    <glyph glyph-name="ring" unicode="&#x2da;" horiz-adv-x="509" 
d="M264 1577q79 0 132 -49.5t53 -134.5q0 -93 -60 -145t-143 -52q-79 0 -132 49.5t-53 134.5q0 93 60 145t143 52zM256 1540q-70 0 -111 -43t-41 -111q0 -69 40.5 -111t109.5 -42q72 0 112 45t40 113q0 65 -39.5 107t-110.5 42z" />
    <glyph glyph-name="ogonek" unicode="&#x2db;" horiz-adv-x="479" 
d="M254 18l57 9q-9 -9 -32 -33t-31.5 -32.5t-28 -29.5t-27 -31t-22.5 -28.5t-21.5 -30t-16 -28.5t-13.5 -30t-7 -29t-3 -31q0 -119 151 -119q71 0 146 41l12 -33q-57 -49 -162 -49q-98 0 -146.5 41t-48.5 112q0 72 49.5 143t143.5 158z" />
    <glyph glyph-name="tilde" unicode="&#x2dc;" horiz-adv-x="638" 
d="M557 1434l21 -17q-3 -5 -13 -24.5t-13.5 -25.5t-13 -22.5t-14.5 -22.5t-13.5 -17.5t-15.5 -16.5t-16 -11.5t-18 -8.5t-19 -2q-27 0 -67 30l-187 136l-106 -138l-21 17q4 8 15.5 28.5t15.5 28.5t14.5 24.5t16.5 23.5t16 18t18.5 15.5t19 8.5t22.5 4q27 0 65 -28l187 -138z
" />
    <glyph glyph-name="hungarumlaut" unicode="&#x2dd;" horiz-adv-x="630" 
d="M219 1571h14q26 -9 41 -27l-178 -370h-35zM514 1571h14q26 -9 41 -27l-178 -370h-35z" />
    <glyph glyph-name="gravecomb" unicode="&#x300;" horiz-adv-x="0" 
d="M-285 1174h-34l-236 366q16 22 37 31h14z" />
    <glyph glyph-name="acutecomb" unicode="&#x301;" horiz-adv-x="0" 
d="M-295 1571h14q21 -9 37 -31l-276 -366h-35z" />
    <glyph glyph-name="uni0302" unicode="&#x302;" horiz-adv-x="0" 
d="M-70 1219l-30 -21l-205 299h-10l-205 -293h-35l219 340h57z" />
    <glyph glyph-name="tildecomb" unicode="&#x303;" horiz-adv-x="0" 
d="M-59 1434l20 -17q-4 -7 -13.5 -24.5t-13.5 -25.5t-12.5 -22.5t-14 -22t-13.5 -18.5t-15 -16t-16 -11t-18 -8.5t-19 -2.5q-28 0 -68 30l-186 136l-107 -138l-20 17q4 8 17.5 32.5t18 32.5t16 26.5t19 25.5t19 17t23 13.5t24.5 3.5q28 0 66 -28l186 -138z" />
    <glyph glyph-name="uni0304" unicode="&#x304;" horiz-adv-x="0" 
d="M-551 1378h424q4 -8 4 -20q0 -13 -4 -21h-424q-4 8 -4 21q0 12 4 20z" />
    <glyph glyph-name="uni0306" unicode="&#x306;" horiz-adv-x="0" 
d="M-555 1468l45 17q28 -203 186 -203q157 0 203 203l29 -10q-18 -112 -84 -173t-160 -61q-95 0 -150 61t-69 166z" />
    <glyph glyph-name="uni0307" unicode="&#x307;" horiz-adv-x="0" 
d="M-510 1462q15 0 27 -2q12 -27 12 -63q0 -55 -25 -97h-49l-10 154q24 8 45 8z" />
    <glyph glyph-name="uni0308" unicode="&#x308;" horiz-adv-x="2" 
d="M-504 1442q17 0 27 -2q12 -27 12 -62q0 -43 -22 -78h-48l-10 134q24 8 41 8zM-129 1442q17 0 27 -2q12 -27 12 -62q0 -41 -23 -78h-47l-10 134q24 8 41 8z" />
    <glyph glyph-name="uni030A" unicode="&#x30a;" horiz-adv-x="0" 
d="M-352 1577q79 0 131.5 -49.5t52.5 -134.5q0 -93 -60 -145t-143 -52q-79 0 -131.5 49.5t-52.5 134.5q0 93 60 145t143 52zM-360 1540q-70 0 -111 -43t-41 -111q0 -69 40.5 -111t109.5 -42q72 0 111.5 45t39.5 113q0 66 -39 107.5t-110 41.5z" />
    <glyph glyph-name="uni030B" unicode="&#x30b;" horiz-adv-x="0" 
d="M-397 1571h14q26 -9 41 -27l-178 -370h-35zM-102 1571h14q26 -9 41 -27l-178 -370h-35z" />
    <glyph glyph-name="uni030C" unicode="&#x30c;" horiz-adv-x="0" 
d="M-319 1251h10l205 293h34l-219 -340h-57l-209 326l31 20z" />
    <glyph glyph-name="uni0312" unicode="&#x312;" horiz-adv-x="2" 
d="M-365 1571l19 -23q-62 -52 -95.5 -103.5t-33.5 -115.5q0 -28 6 -55l61 -4v-51q-25 -7 -49 -7q-20 0 -41 7q-18 41 -18 94q0 86 40.5 147t110.5 111z" />
    <glyph glyph-name="uni0326" unicode="&#x326;" horiz-adv-x="0" 
d="M-137 -133q23 0 41 -6q18 -41 18 -94q0 -151 -151 -259l-19 23q62 52 95.5 103.5t33.5 115.5q0 28 -6 55l-61 5v51q21 6 49 6z" />
    <glyph glyph-name="uni0327" unicode="&#x327;" horiz-adv-x="0" 
d="M-264 12v-170q38 -4 64 -10.5t53.5 -19t42 -35.5t14.5 -56q0 -65 -52 -111t-137 -46q-47 0 -95.5 15t-78.5 40l15 27q80 -41 151 -41q69 0 109.5 31.5t40.5 80.5q0 20 -9 35t-20 24.5t-38.5 18.5t-44.5 13.5t-58 13.5l12 190h31z" />
    <glyph glyph-name="uni0328" unicode="&#x328;" horiz-adv-x="2" 
d="M254 18l57 9q-9 -9 -32 -33t-31.5 -32.5t-28 -29.5t-27 -31t-22.5 -28.5t-21.5 -30t-16 -28.5t-13.5 -30t-7 -29t-3 -31q0 -119 151 -119q71 0 146 41l12 -33q-57 -49 -162 -49q-98 0 -146.5 41t-48.5 112q0 72 49.5 143t143.5 158z" />
    <glyph glyph-name="uni0394" unicode="&#x394;" horiz-adv-x="1239" 
d="M1178 12l-7 -12h-1105l-5 14l545 1356l23 6h10zM119 39h997l-493 1249z" />
    <glyph glyph-name="uni03A9" unicode="&#x3a9;" horiz-adv-x="1384" 
d="M1270 262h30q9 -52 9 -102q0 -77 -13 -160h-424v285q148 46 238 174.5t90 339.5q0 134 -38.5 239.5t-105.5 172t-156 101t-193 34.5q-80 0 -154.5 -20t-142 -64.5t-117.5 -108.5t-79.5 -159t-29.5 -210q0 -204 88 -327t240 -172v-285h-424q-12 76 -12 160q0 55 8 102h31
l22 -217l332 -10v227q-157 47 -245.5 184t-88.5 336q0 173 65.5 309t197 217t311.5 81q135 0 240 -46.5t169.5 -127.5t97.5 -184.5t33 -223.5q0 -205 -91 -353t-243 -192v-227l332 10z" />
    <glyph glyph-name="uni03BC" unicode="&#x3bc;" horiz-adv-x="1202" 
d="M1130 31v-31q-154 -12 -225 -14l-10 4l10 141h-10q-183 -158 -377 -158q-195 0 -248 148h-10l8 -551q-15 -6 -45 -6l-8 6l10 745v701q18 6 37 6l10 -8v-688q0 -312 250 -312q172 0 377 158v844q18 6 37 6l10 -8v-975z" />
    <glyph glyph-name="pi" unicode="&#x3c0;" horiz-adv-x="1280" 
d="M1001 29h185v-29q-96 -14 -146 -14q-43 0 -63.5 13t-20.5 48q0 255 9 914h-615v-975q-18 -6 -45 -6l-10 8l12 497v473q-83 -5 -147.5 -41.5t-126.5 -121.5l-19 14q81 195 334 195h834l6 -9l-6 -34h-181v-932z" />
    <glyph glyph-name="Wgrave" unicode="&#x1e80;" horiz-adv-x="2062" 
d="M2001 1331l-191 -16q-120 -458 -389 -1319l-51 -23h-18q-171 541 -312 1090h-10q-83 -341 -313 -1067l-51 -23h-19q-276 890 -395 1352l-191 6v31h480v-31l-236 -16q118 -461 371 -1292h10q182 574 328 1105l-58 197l-170 6v31h480v-31l-258 -16q235 -848 372 -1292h11
q244 793 378 1302l-233 6v31h465v-31zM1071 1481h-35l-151 297q15 20 37 30h14z" />
    <glyph glyph-name="wgrave" unicode="&#x1e81;" horiz-adv-x="1808" 
d="M1753 973l-158 -17q-139 -492 -295 -962l-53 -21h-16q-161 477 -309 1008h-11q-90 -329 -319 -987l-53 -21h-17q-181 551 -301 994l-166 6v31h406v-31l-185 -17h-2q110 -408 279 -933h10q199 571 320 987l53 20h16q142 -507 310 -1007h10q172 530 282 944l-200 6v31h399
v-31zM952 1174h-34l-236 366q16 22 37 31h14z" />
    <glyph glyph-name="Wacute" unicode="&#x1e82;" horiz-adv-x="2062" 
d="M2001 1331l-191 -16q-120 -458 -389 -1319l-51 -23h-18q-171 541 -312 1090h-10q-83 -341 -313 -1067l-51 -23h-19q-276 890 -395 1352l-191 6v31h480v-31l-236 -16q118 -461 371 -1292h10q182 574 328 1105l-58 197l-170 6v31h480v-31l-258 -16q235 -848 372 -1292h11
q244 793 378 1302l-233 6v31h465v-31zM1210 1829h15q21 -9 37 -31l-213 -317h-35z" />
    <glyph glyph-name="wacute" unicode="&#x1e83;" horiz-adv-x="1808" 
d="M1753 973l-158 -17q-139 -492 -295 -962l-53 -21h-16q-161 477 -309 1008h-11q-90 -329 -319 -987l-53 -21h-17q-181 551 -301 994l-166 6v31h406v-31l-185 -17h-2q110 -408 279 -933h10q199 571 320 987l53 20h16q142 -507 310 -1007h10q172 530 282 944l-200 6v31h399
v-31zM1145 1571h14q21 -9 37 -31l-276 -366h-35z" />
    <glyph glyph-name="Wdieresis" unicode="&#x1e84;" horiz-adv-x="2062" 
d="M2001 1331l-191 -16q-120 -458 -389 -1319l-51 -23h-18q-171 541 -312 1090h-10q-83 -341 -313 -1067l-51 -23h-19q-276 890 -395 1352l-191 6v31h480v-31l-236 -16q118 -461 371 -1292h10q182 574 328 1105l-58 197l-170 6v31h480v-31l-258 -16q235 -848 372 -1292h11
q244 793 378 1302l-233 6v31h465v-31zM815 1718q19 0 29 -2q12 -27 12 -61q0 -43 -22 -78h-52l-10 133q24 8 43 8zM1288 1718q17 0 27 -2q12 -27 12 -61q0 -43 -22 -78h-48l-10 133q24 8 41 8z" />
    <glyph glyph-name="wdieresis" unicode="&#x1e85;" horiz-adv-x="1808" 
d="M1753 973l-158 -17q-139 -492 -295 -962l-53 -21h-16q-161 477 -309 1008h-11q-90 -329 -319 -987l-53 -21h-17q-181 551 -301 994l-166 6v31h406v-31l-185 -17h-2q110 -408 279 -933h10q199 571 320 987l53 20h16q142 -507 310 -1007h10q172 530 282 944l-200 6v31h399
v-31zM733 1442q17 0 27 -2q12 -27 12 -62q0 -43 -22 -78h-48l-10 134q24 8 41 8zM1108 1442q17 0 27 -2q12 -27 12 -62q0 -41 -23 -78h-47l-10 134q24 8 41 8z" />
    <glyph glyph-name="uni1E9E" unicode="&#x1e9e;" horiz-adv-x="1435" 
d="M811 1389q192 0 360 -68v-41q-133 -81 -196.5 -159.5t-63.5 -190.5q0 -83 35.5 -137t132.5 -146q63 -61 94 -94t69.5 -83.5t54.5 -97.5t16 -100q0 -135 -101 -217t-245 -82q-138 0 -250 80q-12 82 -12 170q0 67 8 133h35l30 -295q88 -45 185 -45q127 0 214 69t87 183
q0 40 -14 81t-29.5 69.5t-52 70.5t-55 61t-64.5 64q-55 54 -78 78.5t-54.5 67t-43 81.5t-11.5 87q0 116 71 207t195 155v10q-159 46 -309 46q-89 0 -161.5 -14.5t-134.5 -49.5t-104 -90t-65.5 -138.5t-23.5 -191.5v-862h-262v31l215 16v821q0 117 28 208t75.5 149t116 95.5
t144 53t164.5 15.5z" />
    <glyph glyph-name="Ygrave" unicode="&#x1ef2;" horiz-adv-x="1320" 
d="M1270 1331l-191 -16q-192 -434 -389 -823v-455l256 -6v-31h-559v31l256 16v445q-205 397 -401 833l-191 6v31h479v-31l-229 -16q167 -382 365 -766h10q184 363 362 776l-233 6v31h465v-31zM684 1481h-35l-151 297q15 20 37 30h14z" />
    <glyph glyph-name="ygrave" unicode="&#x1ef3;" horiz-adv-x="1173" 
d="M1143 973l-160 -17q-71 -216 -190 -540.5t-183 -476.5q-24 -57 -45.5 -102t-55.5 -99t-67.5 -89.5t-78.5 -60t-93 -24.5q-50 0 -86 22l4 33h166q124 108 213 334q-211 545 -368 1014l-168 6v31h407v-31l-184 -17q170 -507 338 -933h10q181 455 342 944l-201 6v31h400v-31
zM621 1174h-35l-236 366q16 22 37 31h14z" />
    <glyph glyph-name="uni2007" unicode="&#x2007;" horiz-adv-x="1114" 
 />
    <glyph glyph-name="uni2008" unicode="&#x2008;" horiz-adv-x="380" 
 />
    <glyph glyph-name="uni2009" unicode="&#x2009;" horiz-adv-x="358" 
 />
    <glyph glyph-name="uni200B" unicode="&#x200b;" horiz-adv-x="0" 
 />
    <glyph glyph-name="endash" unicode="&#x2013;" horiz-adv-x="1024" 
d="M891 580h-758v43h758v-43z" />
    <glyph glyph-name="emdash" unicode="&#x2014;" horiz-adv-x="2048" 
d="M1847 580h-1646v43h1646v-43z" />
    <glyph glyph-name="quoteleft" unicode="&#x2018;" horiz-adv-x="380" 
d="M285 1493l16 -29q-49 -30 -80 -58.5t-53.5 -79t-22.5 -116.5q0 -26 7 -61l88 -4l2 -72q-27 -6 -66 -6q-31 0 -55 6q-23 59 -23 123q0 117 51.5 185.5t135.5 111.5z" />
    <glyph glyph-name="quoteright" unicode="&#x2019;" horiz-adv-x="380" 
d="M205 1479q31 0 55 -6q23 -59 23 -123q0 -117 -51.5 -185.5t-135.5 -111.5l-16 28q49 30 80 58.5t53.5 79t22.5 116.5q0 27 -7 62l-88 4l-2 72q27 6 66 6z" />
    <glyph glyph-name="quotesinglbase" unicode="&#x201a;" horiz-adv-x="380" 
d="M205 82q31 0 55 -6q23 -59 23 -123q0 -117 -51.5 -185.5t-135.5 -111.5l-16 29q49 30 80 58.5t53.5 79t22.5 116.5q0 26 -7 61l-88 4l-2 72q27 6 66 6z" />
    <glyph glyph-name="quotedblleft" unicode="&#x201c;" horiz-adv-x="737" 
d="M641 1493l16 -29q-76 -47 -115.5 -103t-39.5 -151q0 -31 6 -61l88 -4l2 -72q-27 -6 -66 -6q-31 0 -55 6q-22 57 -22 123q0 62 15.5 111.5t44 84.5t58 58t68.5 43zM285 1493l16 -29q-49 -30 -80 -58.5t-53.5 -79t-22.5 -116.5q0 -26 7 -61l88 -4l2 -72q-27 -6 -66 -6
q-31 0 -55 6q-23 59 -23 123q0 117 51.5 185.5t135.5 111.5z" />
    <glyph glyph-name="quotedblright" unicode="&#x201d;" horiz-adv-x="737" 
d="M561 1479q31 0 55 -6q23 -59 23 -123q0 -62 -15.5 -111.5t-44 -84.5t-58 -58t-68.5 -43l-17 28q49 30 80 58.5t53.5 79t22.5 116.5q0 32 -6 62l-88 4l-2 72q27 6 65 6zM205 1479q31 0 55 -6q23 -59 23 -123q0 -117 -51.5 -185.5t-135.5 -111.5l-16 28q49 30 80 58.5
t53.5 79t22.5 116.5q0 27 -7 62l-88 4l-2 72q27 6 66 6z" />
    <glyph glyph-name="quotedblbase" unicode="&#x201e;" horiz-adv-x="737" 
d="M561 82q31 0 55 -6q23 -59 23 -123q0 -62 -15.5 -111.5t-44 -84.5t-58 -58t-68.5 -43l-17 29q49 30 80 58.5t53.5 79t22.5 116.5q0 31 -6 61l-88 4l-2 72q27 6 65 6zM205 82q31 0 55 -6q23 -59 23 -123q0 -117 -51.5 -185.5t-135.5 -111.5l-16 29q49 30 80 58.5t53.5 79
t22.5 116.5q0 26 -7 61l-88 4l-2 72q27 6 66 6z" />
    <glyph glyph-name="dagger" unicode="&#x2020;" horiz-adv-x="948" 
d="M444 1516h50q2 -25 2 -74q0 -121 -13 -246h-28q-13 125 -13 246q0 49 2 74zM145 1137q121 0 246 -13v-28q-125 -13 -246 -13q-48 0 -73 2v50q25 2 73 2zM803 1137q49 0 74 -2v-50q-25 -2 -74 -2q-121 0 -246 13v28q125 13 246 13zM455 1030h28q13 -125 13 -272
q0 -237 -13 -432h-28q-13 195 -13 432q0 147 13 272z" />
    <glyph glyph-name="daggerdbl" unicode="&#x2021;" horiz-adv-x="989" 
d="M465 1516h49q2 -25 2 -74q0 -131 -12 -246h-29q-12 115 -12 246q0 49 2 74zM166 1137q121 0 246 -13v-28q-125 -13 -246 -13q-49 0 -74 2v50q25 2 74 2zM823 1137q49 0 74 -2v-50q-25 -2 -74 -2q-120 0 -245 13v28q125 13 245 13zM475 1030h29q12 -115 12 -272
q0 -158 -12 -273h-29q-12 115 -12 273q0 157 12 272zM166 432q131 0 246 -12v-29q-115 -12 -246 -12q-49 0 -74 2v49q25 2 74 2zM823 432q49 0 74 -2v-49q-25 -2 -74 -2q-130 0 -245 12v29q115 12 245 12zM475 319h29q12 -115 12 -245q0 -49 -2 -74h-49q-2 25 -2 74
q0 130 12 245z" />
    <glyph glyph-name="bullet" unicode="&#x2022;" horiz-adv-x="579" 
d="M291 727q62 0 93.5 -34t31.5 -95t-31.5 -95t-93.5 -34t-94.5 34t-32.5 95t32.5 95t94.5 34z" />
    <glyph glyph-name="ellipsis" unicode="&#x2026;" horiz-adv-x="1157" 
d="M969 168q18 0 28 -2q13 -29 13 -66q0 -54 -23 -100h-53l-10 160q24 8 45 8zM193 168q18 0 28 -2q12 -27 12 -66q0 -56 -22 -100h-53l-11 160q24 8 46 8zM578 168q18 0 28 -2q12 -27 12 -66q0 -56 -22 -100h-53l-11 160q24 8 46 8z" />
    <glyph glyph-name="perthousand" unicode="&#x2030;" horiz-adv-x="2291" 
d="M1917 731q129 0 195.5 -102t66.5 -273q0 -181 -71.5 -282t-202.5 -101q-130 0 -196.5 99t-66.5 270q0 181 72 285t203 104zM1913 694q-112 0 -169.5 -91.5t-57.5 -256.5q0 -164 56.5 -250t166.5 -86q112 0 169.5 87.5t57.5 252.5q0 162 -55.5 253t-167.5 91zM1300 1276
l5 -12q-61 -87 -207.5 -292t-225.5 -319q-88 -124 -243.5 -355t-214.5 -316l-31 10l-4 12q86 125 246 352t215 306q37 53 191.5 278t238.5 346zM387 1245q129 0 195.5 -102t66.5 -273q0 -181 -71.5 -282t-202.5 -101q-130 0 -196 99t-66 270q0 181 72 285t202 104zM383 1208
q-112 0 -169.5 -91.5t-57.5 -256.5q0 -164 56.5 -250t166.5 -86q112 0 169.5 87.5t57.5 252.5q0 162 -55.5 253t-167.5 91zM1257 731q129 0 196 -102t67 -273q0 -181 -72 -282t-203 -101q-130 0 -196 99t-66 270q0 181 72 285t202 104zM1253 694q-112 0 -169.5 -91.5
t-57.5 -256.5q0 -164 56.5 -250t166.5 -86q112 0 170 87.5t58 252.5q0 162 -56 253t-168 91z" />
    <glyph glyph-name="minute" unicode="&#x2032;" horiz-adv-x="380" 
d="M252 1475l-90 -445h-33l72 449q18 6 43 6z" />
    <glyph glyph-name="second" unicode="&#x2033;" horiz-adv-x="749" 
d="M252 1475l-90 -445h-33l72 449q18 6 43 6zM621 1475l-91 -445h-32l71 449q18 6 43 6z" />
    <glyph glyph-name="uni2034" unicode="&#x2034;" horiz-adv-x="1138" 
d="M252 1475l-90 -445h-33l72 449q18 6 43 6zM621 1475l-91 -445h-32l71 449q18 6 43 6zM1010 1475l-90 -445h-33l71 449q18 6 43 6z" />
    <glyph glyph-name="guilsinglleft" unicode="&#x2039;" horiz-adv-x="610" 
d="M436 899l-248 -340l248 -340l-22 -20l-275 350v20l275 351z" />
    <glyph glyph-name="guilsinglright" unicode="&#x203a;" horiz-adv-x="610" 
d="M471 569v-20l-274 -350l-23 20l248 340l-248 340l23 21z" />
    <glyph glyph-name="fraction" unicode="&#x2044;" horiz-adv-x="559" 
d="M770 1368l4 -12q-89 -127 -251.5 -357t-209.5 -297q-82 -118 -246.5 -359t-246.5 -359l-31 10l-4 12q68 98 237.5 337t258.5 368q82 117 235 342t223 325z" />
    <glyph glyph-name="uni2070" unicode="&#x2070;" horiz-adv-x="696" 
d="M354 1501q120 0 182 -94.5t62 -261.5q0 -177 -67.5 -275t-188.5 -98q-120 0 -182 94.5t-62 261.5q0 177 67.5 275t188.5 98zM350 1464q-103 0 -156 -84.5t-53 -244.5q0 -159 52.5 -242.5t152.5 -83.5q102 0 155.5 84.5t53.5 247.5q0 156 -51 239.5t-154 83.5z" />
    <glyph glyph-name="uni2074" unicode="&#x2074;" horiz-adv-x="581" 
d="M528 932h-133v-146h-41v146h-288l-13 31q142 298 223 540l37 -10l4 -12q-83 -239 -227 -510l4 -8q51 4 150 4h110v180l31 16l10 -4v-192h133v-35z" />
    <glyph glyph-name="uni2075" unicode="&#x2075;" horiz-adv-x="559" 
d="M471 1501l10 -22q-72 -52 -174 -52q-82 0 -139 35l-18 -252q54 4 94 4q116 0 185 -56t69 -159q0 -99 -64.5 -163t-175.5 -64q-79 0 -128.5 34t-49.5 95q0 36 12 60h27l22 -140q56 -12 113 -12q92 0 146.5 49t54.5 139q0 88 -57 136t-169 51h-110l12 307l39 10
q77 -41 145 -41q79 0 156 41z" />
    <glyph glyph-name="uni2076" unicode="&#x2076;" horiz-adv-x="663" 
d="M369 1243q100 0 155.5 -64.5t55.5 -160.5q0 -106 -66 -176t-172 -70q-118 0 -181 88.5t-63 239.5q0 187 92 294t250 107q42 0 74 -8l-2 -25q-341 18 -371 -325h11q103 100 217 100zM346 811q84 0 137.5 52t53.5 151q0 86 -44 139t-131 53q-115 0 -221 -106v-17
q0 -120 50.5 -196t154.5 -76z" />
    <glyph glyph-name="uni2077" unicode="&#x2077;" horiz-adv-x="522" 
d="M485 1487l13 -33q-118 -141 -205.5 -304t-87.5 -282l47 -84l-21 -18q-67 30 -67 115q0 102 89.5 273t205.5 300l-4 8l-340 -8l-15 -119h-28q-9 37 -9 76q0 26 5 76h417z" />
    <glyph glyph-name="uni2078" unicode="&#x2078;" horiz-adv-x="643" 
d="M379 1155v-10q162 -57 162 -189q0 -89 -62 -136.5t-157 -47.5q-98 0 -159 49t-61 135q0 130 156 189v10q-70 28 -106.5 73t-36.5 103q0 80 63.5 125t149.5 45t142 -45t56 -125q0 -123 -147 -176zM158 1331q0 -55 36 -90t117 -67l33 -13q74 38 106.5 77.5t32.5 90.5
q0 64 -44 99.5t-115 35.5q-70 0 -118 -34t-48 -99zM319 809q77 0 128 37t51 110q0 57 -37 92.5t-123 71.5l-45 19q-79 -43 -113.5 -85t-34.5 -98q0 -70 48 -108.5t126 -38.5z" />
    <glyph glyph-name="uni2079" unicode="&#x2079;" horiz-adv-x="663" 
d="M322 1501q118 0 180.5 -88t62.5 -239q0 -187 -92.5 -294.5t-249.5 -107.5q-41 0 -73 8l2 25q340 -18 370 325h-10q-103 -100 -217 -100q-100 0 -155.5 64.5t-55.5 160.5q0 106 66 176t172 70zM301 1067q114 0 221 107v16q0 120 -50.5 196t-154.5 76q-84 0 -137 -51.5
t-53 -150.5q0 -87 43.5 -140t130.5 -53z" />
    <glyph glyph-name="uni2080" unicode="&#x2080;" horiz-adv-x="696" 
d="M354 559q120 0 182 -94.5t62 -261.5q0 -177 -67.5 -275t-188.5 -98q-120 0 -182 94.5t-62 261.5q0 177 67.5 275t188.5 98zM350 522q-103 0 -156 -84.5t-53 -244.5q0 -159 52.5 -242.5t152.5 -83.5q102 0 155.5 84.5t53.5 247.5q0 156 -51 239.5t-154 83.5z" />
    <glyph glyph-name="uni2081" unicode="&#x2081;" horiz-adv-x="493" 
d="M444 -131v-25h-362v25l164 12v606q-56 -46 -160 -61l-6 33q55 8 106 34t82 66l19 -2v-682z" />
    <glyph glyph-name="uni2082" unicode="&#x2082;" horiz-adv-x="544" 
d="M446 -14h29q6 -30 6 -66t-4 -76h-418l-10 33q22 19 68.5 58t69 58t60.5 53.5t57 56t44.5 54t37.5 59t21 59t9 65.5q0 81 -47 131.5t-127 50.5q-72 0 -136 -26l-18 -129h-27q-12 27 -12 53q0 62 60.5 100.5t136.5 38.5q96 0 154.5 -61.5t58.5 -157.5q0 -38 -11 -75
t-25.5 -67.5t-45 -67t-54.5 -62t-69 -63.5t-73.5 -60.5t-82.5 -63.5l4 -10q54 4 166 4l166 4z" />
    <glyph glyph-name="uni2083" unicode="&#x2083;" horiz-adv-x="636" 
d="M281 559q87 0 142.5 -47.5t55.5 -128.5q0 -69 -40.5 -108.5t-100.5 -55.5v-10q83 -11 122.5 -58t39.5 -118q0 -94 -64 -148.5t-168 -54.5q-89 0 -147 37.5t-58 101.5q0 25 13 54h26l19 -129q73 -27 145 -27q91 0 141 45t50 121q0 73 -49 117.5t-152 44.5h-51v34h106
q125 48 125 154q0 64 -44 101.5t-118 37.5q-71 0 -139 -26l-18 -129h-27q-12 27 -12 53q0 63 61.5 101t141.5 38z" />
    <glyph glyph-name="uni2084" unicode="&#x2084;" horiz-adv-x="581" 
d="M528 -10h-133v-146h-41v146h-288l-13 30q141 296 223 541l37 -10l4 -12q-83 -239 -227 -510l4 -9q64 5 150 5h110v180l31 16l10 -4v-192h133v-35z" />
    <glyph glyph-name="uni2085" unicode="&#x2085;" horiz-adv-x="559" 
d="M471 559l10 -22q-72 -52 -174 -52q-82 0 -139 35l-18 -252q54 4 94 4q116 0 185 -56t69 -159q0 -99 -64.5 -163t-175.5 -64q-79 0 -128.5 34t-49.5 95q0 35 12 59h27l22 -139q56 -12 113 -12q92 0 146.5 49t54.5 139q0 88 -57 136t-169 51h-110l12 307l39 10
q77 -41 145 -41q79 0 156 41z" />
    <glyph glyph-name="uni2086" unicode="&#x2086;" horiz-adv-x="663" 
d="M369 301q100 0 155.5 -64.5t55.5 -160.5q0 -106 -66 -176t-172 -70q-118 0 -181 88.5t-63 239.5q0 187 92 294t250 107q42 0 74 -8l-2 -25q-341 18 -371 -325h11q103 100 217 100zM346 -131q84 0 137.5 52t53.5 151q0 86 -44 139t-131 53q-115 0 -221 -106v-17
q0 -120 50.5 -196t154.5 -76z" />
    <glyph glyph-name="uni2087" unicode="&#x2087;" horiz-adv-x="522" 
d="M485 545l13 -33q-118 -141 -205.5 -304t-87.5 -282l47 -84l-21 -18q-67 30 -67 115q0 102 89.5 273t205.5 300l-4 8l-340 -8l-15 -119h-28q-9 37 -9 76q0 26 5 76h417z" />
    <glyph glyph-name="uni2088" unicode="&#x2088;" horiz-adv-x="643" 
d="M379 215v-10q162 -57 162 -189q0 -89 -62 -136.5t-157 -47.5q-98 0 -159 49t-61 135q0 130 156 189v10q-70 28 -106.5 73t-36.5 103q0 80 63.5 125t149.5 45t142 -45t56 -125q0 -123 -147 -176zM158 391q0 -55 36.5 -90.5t116.5 -67.5l33 -12q74 38 106.5 77.5t32.5 90.5
q0 64 -44 99.5t-115 35.5q-70 0 -118 -34t-48 -99zM319 -131q77 0 128 37t51 110q0 57 -37 92.5t-123 71.5l-45 19q-79 -43 -113.5 -85t-34.5 -98q0 -70 48 -108.5t126 -38.5z" />
    <glyph glyph-name="uni2089" unicode="&#x2089;" horiz-adv-x="663" 
d="M322 561q118 0 180.5 -88.5t62.5 -239.5q0 -187 -92 -294t-250 -107q-41 0 -73 8l2 25q340 -18 370 325h-10q-103 -100 -217 -100q-100 0 -155.5 64.5t-55.5 160.5q0 106 66 176t172 70zM301 127q115 0 221 106v17q0 120 -50.5 196t-154.5 76q-84 0 -137 -52t-53 -151
q0 -86 43.5 -139t130.5 -53z" />
    <glyph glyph-name="Euro" unicode="&#x20ac;" horiz-adv-x="1161" 
d="M1047 145l18 -24q-142 -148 -338 -148q-100 0 -178 38.5t-128 106.5t-80 148t-44 176h-195v41h191q-6 59 -6 115q0 74 8 131h-193v41h199q34 214 153 344.5t312 130.5q122 0 201.5 -54t79.5 -157q0 -43 -21 -84h-31l-28 209q-103 43 -207 43q-163 0 -271 -116.5
t-141 -315.5h422v-41h-426q-8 -55 -8 -127q0 -60 6 -119h428v-41h-422q29 -194 128 -310t259 -116q155 0 312 129z" />
    <glyph glyph-name="uni20B9" unicode="&#x20b9;" horiz-adv-x="884" 
d="M471 1178l-2 -13q142 -68 156 -233h157v-41h-155q-1 -119 -63.5 -204.5t-159.5 -123.5t-211 -33l-3 -8q69 -72 217.5 -250t208.5 -243h129v-29q-51 -14 -92 -14q-34 0 -57.5 14.5t-63.5 60.5q-6 7 -162 195.5t-237 271.5l12 41h162q266 83 271 322h-476v41h473
q-7 97 -62 156.5t-159 89.5h-252v41h680v-41h-311z" />
    <glyph glyph-name="uni20BA" unicode="&#x20ba;" horiz-adv-x="1046" 
d="M895 547l41 4q18 -73 18 -143q0 -83 -28 -157t-82.5 -133t-144.5 -93.5t-205 -34.5q-108 0 -181 24v539l-182 -74l-10 8v33l192 78v248l-182 -74l-10 8v33l192 78v338q15 6 39 6l8 -6v-318l289 117l8 -8v-35l-297 -121v-246l289 117l8 -8v-35l-297 -121v-532
q58 -6 115 -6q97 0 173 23t123 60t78 88t43.5 103.5t12.5 110.5q0 64 -10 129z" />
    <glyph glyph-name="uni20BD" unicode="&#x20bd;" horiz-adv-x="1122" 
d="M434 573v-245h449v-41h-449v-250l277 -6v-31h-539v31l215 16v240h-266v41h266v245h-266v41h266v568l-211 6v31q214 6 463 6q189 0 282 -87.5t93 -234.5q0 -158 -96.5 -244t-262.5 -86h-221zM434 614h213q153 0 235.5 75t82.5 210q0 134 -84 209.5t-244 75.5h-203v-570z
" />
    <glyph glyph-name="afii61289" unicode="&#x2113;" horiz-adv-x="739" 
d="M645 147l19 -20q-46 -71 -110.5 -112.5t-137.5 -41.5q-56 0 -95.5 24.5t-62 71.5t-32 107t-9.5 139v11q-74 -56 -164 -97l-12 29q91 40 176 109v634q0 272 50.5 406.5t172.5 134.5q92 0 128 -76t36 -221q0 -260 -90 -503.5t-252 -385.5v-39q0 -153 39.5 -227t124.5 -74
q110 0 219 131zM434 1501q-89 0 -130.5 -114.5t-41.5 -360.5v-625q147 147 222 375.5t75 462.5q0 128 -28 195t-97 67z" />
    <glyph glyph-name="afii61352" unicode="&#x2116;" horiz-adv-x="2041" 
d="M1262 1376q18 0 26 -2l6 -31l-161 -63q-65 -87 -89 -187.5t-24 -240.5q0 -244 78 -850l-49 -20h-11l-532 886q-113 187 -131 222h-10q32 -340 32 -680q0 -225 -54.5 -332t-184.5 -107q-69 0 -117 23l4 33h209q56 58 79 145t23 238q0 140 -28 684l-213 6v30h284l512 -847
q107 -180 142 -244h10q-40 213 -62 434.5t-22 370.5q0 250 69.5 391t213.5 141zM1645 1245q89 0 152.5 -51.5t92.5 -132t29 -180.5q0 -165 -80 -267t-211 -102q-133 0 -204.5 103t-71.5 257q0 164 80 268.5t213 104.5zM1638 1206q-114 0 -178.5 -88.5t-64.5 -243.5
q0 -150 61.5 -236.5t175.5 -86.5t179 86.5t65 241.5q0 152 -62.5 239.5t-175.5 87.5zM1821 219h-369v41h369v-41z" />
    <glyph glyph-name="uni2117" unicode="&#x2117;" horiz-adv-x="1671" 
d="M848 1389q146 0 273.5 -50.5t219.5 -141t144.5 -221.5t52.5 -286q0 -211 -95 -376t-256.5 -253t-359.5 -88q-148 0 -276.5 52t-220.5 143.5t-144.5 222.5t-52.5 283q0 208 95.5 372.5t258 253.5t361.5 89zM829 14q131 0 250.5 47.5t211 132t146 213.5t54.5 281
q0 149 -52 274.5t-141 209t-206 130t-248 46.5q-132 0 -251.5 -46.5t-211.5 -130.5t-146.5 -211.5t-54.5 -279.5q0 -149 52 -275.5t141 -211t207 -132t249 -47.5zM866 1059q127 0 191.5 -61.5t64.5 -166.5t-61.5 -164t-159.5 -59q-37 0 -74 6v27h54q95 0 144.5 47.5
t49.5 138.5q0 92 -51.5 144.5t-151.5 52.5h-122v-686l147 -4v-29h-303v29l111 10v680l-109 4v27q98 4 270 4z" />
    <glyph glyph-name="trademark" unicode="&#x2122;" horiz-adv-x="1703" 
d="M596 1362h2q2 -29 2 -62q0 -42 -6 -110h-33l-12 137l-201 4v-704l133 -6v-29h-313v29l135 14v696l-201 -4l-12 -137h-33q-6 67 -6 110q0 33 2 62h543zM1647 621v-29h-295v29l116 14q-5 198 -41 694h-10q-4 -19 -10 -36.5t-14.5 -40.5t-12.5 -35l-206 -578l-52 -21h-12
l-211 599q-20 58 -33 112h-10q-5 -57 -43 -702l135 -6v-29h-295v29l123 14q17 354 45 692l-119 8v27h193q111 -304 242 -694h10q38 114 130.5 377t111.5 317h210v-27l-131 -16q36 -441 45 -692z" />
    <glyph glyph-name="Omega" unicode="&#x2126;" horiz-adv-x="1384" 
d="M1270 262h30q9 -52 9 -102q0 -77 -13 -160h-424v285q148 46 238 174.5t90 339.5q0 134 -38.5 239.5t-105.5 172t-156 101t-193 34.5q-80 0 -154.5 -20t-142 -64.5t-117.5 -108.5t-79.5 -159t-29.5 -210q0 -204 88 -327t240 -172v-285h-424q-12 76 -12 160q0 55 8 102h31
l22 -217l332 -10v227q-157 47 -245.5 184t-88.5 336q0 173 65.5 309t197 217t311.5 81q135 0 240 -46.5t169.5 -127.5t97.5 -184.5t33 -223.5q0 -205 -91 -353t-243 -192v-227l332 10z" />
    <glyph glyph-name="estimated" unicode="&#x212e;" horiz-adv-x="1341" 
d="M319 489v-301q63 -90 164.5 -134t216.5 -44q135 0 248.5 56t181.5 135l23 -23q-78 -96 -196.5 -150.5t-260.5 -54.5q-163 0 -296.5 71t-209 192t-75.5 266q0 144 74.5 265.5t203 192t279.5 70.5t279 -70.5t202 -191.5t74 -264v-15h-908zM678 993q-105 0 -199 -44
t-160 -134v-291h705v291q-128 178 -346 178z" />
    <glyph glyph-name="uni2150" unicode="&#x2150;" horiz-adv-x="1746" 
d="M1352 1368l4 -12q-89 -127 -251.5 -357t-209.5 -297q-82 -118 -247 -359t-247 -359l-30 10l-4 12q66 95 235.5 335t259.5 370q83 118 236.5 343t222.5 324zM526 563v-24h-436v24l199 12v730q-82 -62 -193 -72l-6 31q138 21 227 120l19 -2v-813zM1708 823l10 -28
q-100 -126 -160.5 -210t-112.5 -175t-74.5 -171.5t-22.5 -164.5l69 -90l-18 -21q-54 23 -72 56.5t-18 84.5q0 126 83 285.5t287 398.5l-4 9l-426 -9l-18 -141h-31q-6 37 -6 86t8 90h506z" />
    <glyph glyph-name="uni2151" unicode="&#x2151;" horiz-adv-x="1849" 
d="M1352 1368l4 -12q-89 -127 -251.5 -357t-209.5 -297q-82 -118 -247 -359t-247 -359l-30 10l-4 12q66 95 235.5 335t259.5 370q83 118 236.5 343t222.5 324zM526 563v-24h-436v24l199 12v730q-82 -62 -193 -72l-6 31q138 21 227 120l19 -2v-813zM1442 850
q141 0 218 -100.5t77 -280.5q0 -223 -114.5 -359.5t-317.5 -136.5q-34 0 -70 4l2 31q95 -3 172 18t139.5 68.5t100.5 131.5t45 200h-11q-128 -121 -272 -121q-121 0 -189.5 76.5t-68.5 189.5q0 124 81 201.5t208 77.5zM1419 344q75 0 139.5 33.5t133.5 101.5
q-1 168 -66.5 250t-185.5 82q-105 0 -173.5 -59t-68.5 -174q0 -101 56 -167.5t165 -66.5z" />
    <glyph glyph-name="uni2152" unicode="&#x2152;" horiz-adv-x="2516" 
d="M1352 1368l4 -12q-89 -127 -251.5 -357t-209.5 -297q-82 -118 -247 -359t-247 -359l-30 10l-4 12q66 95 235.5 335t259.5 370q83 118 236.5 343t222.5 324zM526 563v-24h-436v24l199 12v730q-82 -62 -193 -72l-6 31q138 21 227 120l19 -2v-813zM2107 850
q145 0 221 -114.5t76 -315.5q0 -211 -80.5 -329t-228.5 -118q-145 0 -221 115.5t-76 317.5q0 211 80.5 327.5t228.5 116.5zM2103 811q-127 0 -193.5 -101.5t-66.5 -299.5q0 -199 65.5 -298.5t190.5 -99.5q126 0 193 100.5t67 303.5q0 395 -256 395zM1630 25v-25h-436v25
l199 12v729q-82 -62 -193 -72l-6 31q137 21 227 121l19 -2v-813z" />
    <glyph glyph-name="onethird" unicode="&#x2153;" horiz-adv-x="1814" 
d="M1352 1368l4 -12q-89 -127 -251.5 -357t-209.5 -297q-82 -118 -247 -359t-247 -359l-30 10l-4 12q66 95 235.5 335t259.5 370q83 118 236.5 343t222.5 324zM526 563v-24h-436v24l199 12v730q-82 -62 -193 -72l-6 31q138 21 227 120l19 -2v-813zM1505 440v-10
q90 -14 142.5 -67t52.5 -146q0 -115 -79 -179.5t-206 -64.5q-109 0 -176.5 46.5t-67.5 121.5q0 33 15 60h28l21 -144q82 -45 172 -45q67 0 120 17.5t90.5 65t37.5 120.5q0 199 -262 199h-52v39h132q27 11 43.5 18.5t40.5 23.5t38 34t24.5 46.5t10.5 63.5q0 84 -54.5 128
t-150.5 44t-178 -45l-20 -143h-29q-14 25 -14 59q0 74 74 121t176 47q109 0 175 -56t66 -149q0 -87 -52.5 -137t-117.5 -68z" />
    <glyph glyph-name="twothirds" unicode="&#x2154;" horiz-adv-x="1884" 
d="M1421 1368l4 -12q-68 -98 -145 -207.5t-169.5 -240.5t-145.5 -206q-82 -118 -247 -359t-247 -359l-31 10l-4 12q68 98 237.5 337t258.5 368q83 118 236.5 343t222.5 324zM543 694h30q7 -32 7 -67q0 -41 -9 -88h-505l-11 30q35 30 105 88t108.5 91t92 87.5t81.5 97
t49 98.5t21 112q0 96 -52.5 151.5t-150.5 55.5q-90 0 -172 -45l-20 -144h-29q-14 25 -14 60q0 73 73.5 120.5t167.5 47.5q111 0 176.5 -68.5t65.5 -173.5q0 -75 -34.5 -149.5t-102.5 -148.5t-142 -137t-180 -141l4 -8q51 5 207 8l219 2zM1575 440v-10q89 -14 141.5 -67
t52.5 -146q0 -115 -78.5 -179.5t-205.5 -64.5q-109 0 -176.5 46.5t-67.5 121.5q0 35 14 60h29l21 -144q82 -45 172 -45q49 0 91 10.5t78 33t57 63.5t21 96q0 199 -262 199h-51v39h131q27 11 43.5 18.5t41 23.5t38.5 34t24.5 46.5t10.5 63.5q0 84 -54.5 128t-150.5 44
t-178 -45l-21 -143h-28q-15 27 -15 59q0 74 74 121t176 47q109 0 175.5 -56t66.5 -149q0 -87 -52.5 -137t-117.5 -68z" />
    <glyph glyph-name="uni2155" unicode="&#x2155;" horiz-adv-x="1728" 
d="M1352 1368l4 -12q-89 -127 -251.5 -357t-209.5 -297q-82 -118 -247 -359t-247 -359l-30 10l-4 12q66 95 235.5 335t259.5 370q83 118 236.5 343t222.5 324zM526 563v-24h-436v24l199 12v730q-82 -62 -193 -72l-6 31q138 21 227 120l19 -2v-813zM1329 516q148 0 239 -70
t91 -202q0 -125 -79.5 -198t-207.5 -73q-106 0 -171.5 48.5t-65.5 119.5q0 35 14 60h31l18 -146q76 -43 160 -43q120 0 188 58t68 170q0 117 -78 176.5t-225 64.5l-119 4l16 357l31 8q109 -47 201 -47q82 0 178 47l10 -29q-78 -57 -198 -57q-115 0 -185 43l-22 -295
q74 4 106 4z" />
    <glyph glyph-name="uni2156" unicode="&#x2156;" horiz-adv-x="1798" 
d="M1421 1368l4 -12q-68 -98 -145 -207.5t-169.5 -240.5t-145.5 -206q-82 -118 -247 -359t-247 -359l-31 10l-4 12q68 98 237.5 337t258.5 368q83 118 236.5 343t222.5 324zM543 694h30q7 -32 7 -67q0 -41 -9 -88h-505l-11 30q35 30 105 88t108.5 91t92 87.5t81.5 97
t49 98.5t21 112q0 96 -52.5 151.5t-150.5 55.5q-90 0 -172 -45l-20 -144h-29q-14 25 -14 60q0 73 73.5 120.5t167.5 47.5q111 0 176.5 -68.5t65.5 -173.5q0 -75 -34.5 -149.5t-102.5 -148.5t-142 -137t-180 -141l4 -8q51 5 207 8l219 2zM1399 516q148 0 239 -70t91 -202
q0 -125 -79.5 -198t-207.5 -73q-106 0 -172 48.5t-66 119.5q0 33 15 60h30l19 -146q76 -43 159 -43q120 0 188 58t68 170q0 117 -78 176.5t-225 64.5l-118 4l16 357l31 8q109 -47 200 -47q83 0 179 47l10 -29q-78 -57 -199 -57q-114 0 -184 43l-23 -295q74 4 107 4z" />
    <glyph glyph-name="uni2157" unicode="&#x2157;" horiz-adv-x="1777" 
d="M1401 1368l4 -12q-89 -127 -251.5 -357t-209.5 -297q-82 -118 -246.5 -359t-246.5 -359l-31 10l-4 12q66 95 235.5 335t259.5 370q83 118 236.5 343t222.5 324zM406 979v-10q89 -14 141.5 -67t52.5 -146q0 -115 -79 -179.5t-206 -64.5q-109 0 -176 46.5t-67 121.5
q0 34 14 59h29l20 -143q82 -45 172 -45q67 0 120 17.5t90.5 65t37.5 120.5q0 198 -262 198h-51v39h131q33 13 54.5 24.5t48.5 33t40.5 54t13.5 75.5q0 85 -54 128.5t-150 43.5q-97 0 -179 -45l-20 -144h-29q-14 25 -14 60q0 74 74 121t176 47q109 0 175 -56t66 -149
q0 -46 -16.5 -84t-44 -61.5t-54 -37.5t-54.5 -22zM1378 516q148 0 239 -70t91 -202q0 -125 -79.5 -198t-207.5 -73q-106 0 -171.5 48.5t-65.5 119.5q0 35 14 60h31l18 -146q76 -43 160 -43q120 0 188 58t68 170q0 117 -78 176.5t-225 64.5l-119 4l16 357l31 8
q109 -47 201 -47q82 0 178 47l10 -29q-78 -57 -198 -57q-115 0 -185 43l-22 -295q74 4 106 4z" />
    <glyph glyph-name="uni2158" unicode="&#x2158;" horiz-adv-x="1800" 
d="M1423 1368l4 -12q-68 -98 -145 -207.5t-169.5 -240.5t-145.5 -206q-82 -118 -247 -359t-247 -359l-31 10l-4 12q68 98 237.5 337t258.5 368q83 118 236.5 343t222.5 324zM643 717h-164v-178h-43v178h-366l-11 22q176 315 291 639l39 -6l4 -10q-129 -342 -295 -608l4 -9
q137 9 181 9h153v215l35 18l8 -2v-231h164v-37zM1401 516q148 0 239 -70t91 -202q0 -125 -79.5 -198t-207.5 -73q-106 0 -172 48.5t-66 119.5q0 33 15 60h30l19 -146q76 -43 160 -43q120 0 188 58t68 170q0 116 -78.5 176t-225.5 65l-118 4l16 357l31 8q109 -47 200 -47
q83 0 179 47l10 -29q-78 -57 -199 -57q-114 0 -184 43l-23 -295q74 4 107 4z" />
    <glyph glyph-name="uni2159" unicode="&#x2159;" horiz-adv-x="1787" 
d="M1352 1368l4 -12q-89 -127 -251.5 -357t-209.5 -297q-82 -118 -247 -359t-247 -359l-30 10l-4 12q66 95 235.5 335t259.5 370q83 118 236.5 343t222.5 324zM526 563v-24h-436v24l199 12v730q-82 -62 -193 -72l-6 31q138 21 227 120l19 -2v-813zM1436 518
q121 0 189.5 -76.5t68.5 -189.5q0 -124 -81 -201.5t-208 -77.5q-141 0 -218 100.5t-77 280.5q0 223 114.5 359.5t317.5 136.5q34 0 70 -4l-2 -31q-95 3 -172 -18t-139.5 -68.5t-100.5 -131.5t-45 -200h10q128 121 273 121zM1407 12q105 0 173.5 59.5t68.5 174.5
q0 101 -56 167t-166 66q-75 0 -139 -33.5t-133 -101.5q1 -168 66.5 -250t185.5 -82z" />
    <glyph glyph-name="uni215A" unicode="&#x215a;" horiz-adv-x="1828" 
d="M1393 1368l4 -12q-89 -127 -251.5 -357t-209.5 -297q-82 -118 -247 -359t-247 -359l-30 10l-4 12q66 95 235.5 335t259.5 370q83 118 236.5 343t222.5 324zM285 1055q148 0 238.5 -70.5t90.5 -202.5q0 -125 -79 -197.5t-207 -72.5q-106 0 -172 48.5t-66 119.5q0 34 14 59
h31l19 -145q76 -43 159 -43q120 0 188 57.5t68 169.5q0 117 -78 177t-225 65l-119 4l17 356l31 9q111 -48 200 -48q80 0 178 48l11 -29q-78 -57 -199 -57q-114 0 -184 43l-23 -295q74 4 107 4zM1477 518q121 0 189.5 -76.5t68.5 -189.5q0 -124 -81 -201.5t-208 -77.5
q-141 0 -218 100.5t-77 280.5q0 223 114.5 359.5t317.5 136.5q34 0 70 -4l-2 -31q-95 3 -172 -18t-139.5 -68.5t-100.5 -131.5t-45 -200h10q128 121 273 121zM1448 12q105 0 173.5 59.5t68.5 174.5q0 101 -56 167t-166 66q-75 0 -139 -33.5t-133 -101.5q1 -168 66.5 -250
t185.5 -82z" />
    <glyph glyph-name="oneeighth" unicode="&#x215b;" horiz-adv-x="1835" 
d="M1352 1368l4 -12q-89 -127 -251.5 -357t-209.5 -297q-82 -118 -247 -359t-247 -359l-30 10l-4 12q66 95 235.5 335t259.5 370q83 118 236.5 343t222.5 324zM526 563v-24h-436v24l199 12v730q-82 -62 -193 -72l-6 31q138 21 227 120l19 -2v-813zM1507 430v-12
q110 -42 161.5 -95t51.5 -139q0 -58 -22.5 -100.5t-63 -66t-87.5 -34t-103 -10.5q-126 0 -201.5 52t-75.5 159q0 51 17 90.5t50.5 66t66.5 43t81 32.5v10q-100 41 -148 92t-48 123q0 97 80 153t188 56q106 0 177 -55.5t71 -153.5q0 -78 -48.5 -125t-146.5 -86zM1231 645
q0 -37 15.5 -67.5t47 -54t62 -39.5t76.5 -35l32 -13q101 45 147 90.5t46 112.5q0 79 -58.5 126.5t-150.5 47.5q-90 0 -153.5 -46.5t-63.5 -121.5zM1444 12q104 0 167.5 40.5t63.5 129.5q0 77 -49 119.5t-160 89.5l-41 17q-57 -25 -92 -44t-65 -44.5t-43 -57.5t-13 -74
q0 -176 232 -176z" />
    <glyph glyph-name="threeeighths" unicode="&#x215c;" horiz-adv-x="1884" 
d="M1401 1368l4 -12q-89 -127 -251.5 -357t-209.5 -297q-82 -118 -246.5 -359t-246.5 -359l-31 10l-4 12q66 95 235.5 335t259.5 370q83 118 236.5 343t222.5 324zM406 979v-10q89 -14 141.5 -67t52.5 -146q0 -115 -79 -179.5t-206 -64.5q-109 0 -176 46.5t-67 121.5
q0 34 14 59h29l20 -143q82 -45 172 -45q67 0 120 17.5t90.5 65t37.5 120.5q0 198 -262 198h-51v39h131q33 13 54.5 24.5t48.5 33t40.5 54t13.5 75.5q0 85 -54 128.5t-150 43.5q-97 0 -179 -45l-20 -144h-29q-14 25 -14 60q0 74 74 121t176 47q109 0 175 -56t66 -149
q0 -46 -16.5 -84t-44 -61.5t-54 -37.5t-54.5 -22zM1556 430v-12q110 -42 161.5 -95t51.5 -139q0 -58 -22.5 -100.5t-63 -66t-87.5 -34t-103 -10.5q-126 0 -201 52t-75 159q0 51 17 90.5t50.5 66t66.5 43t81 32.5v10q-101 41 -149 92t-48 123q0 97 80 153t188 56
q106 0 177 -55.5t71 -153.5q0 -78 -48.5 -125t-146.5 -86zM1280 645q0 -37 15.5 -67.5t47 -54t62 -39.5t76.5 -35l32 -13q101 45 147 90.5t46 112.5q0 79 -58.5 126.5t-150.5 47.5q-90 0 -153.5 -46.5t-63.5 -121.5zM1493 12q104 0 167.5 40.5t63.5 129.5q0 41 -13.5 72
t-45 55.5t-63 41.5t-86.5 40l-41 17q-57 -25 -92 -44t-65 -44.5t-43 -57.5t-13 -74q0 -176 231 -176z" />
    <glyph glyph-name="fiveeighths" unicode="&#x215d;" horiz-adv-x="1875" 
d="M1393 1368l4 -12q-89 -127 -251.5 -357t-209.5 -297q-82 -118 -247 -359t-247 -359l-30 10l-4 12q66 95 235.5 335t259.5 370q83 118 236.5 343t222.5 324zM285 1055q148 0 238.5 -70.5t90.5 -202.5q0 -125 -79 -197.5t-207 -72.5q-106 0 -172 48.5t-66 119.5q0 34 14 59
h31l19 -145q76 -43 159 -43q120 0 188 57.5t68 169.5q0 117 -78 177t-225 65l-119 4l17 356l31 9q111 -48 200 -48q80 0 178 48l11 -29q-78 -57 -199 -57q-114 0 -184 43l-23 -295q74 4 107 4zM1548 430v-12q110 -42 161.5 -95t51.5 -139q0 -58 -22.5 -100.5t-63 -66
t-87.5 -34t-103 -10.5q-126 0 -201.5 52t-75.5 159q0 51 17 90.5t50.5 66t66.5 43t81 32.5v10q-100 41 -148 92t-48 123q0 97 80 153t188 56q106 0 177 -55.5t71 -153.5q0 -78 -48.5 -125t-146.5 -86zM1272 645q0 -37 15.5 -67.5t47 -54t62 -39.5t76.5 -35l32 -13
q101 45 147 90.5t46 112.5q0 79 -58.5 126.5t-150.5 47.5q-90 0 -153.5 -46.5t-63.5 -121.5zM1485 12q104 0 167.5 40.5t63.5 129.5q0 77 -49 119.5t-160 89.5l-41 17q-57 -25 -92 -44t-65 -44.5t-43 -57.5t-13 -74q0 -176 232 -176z" />
    <glyph glyph-name="seveneighths" unicode="&#x215e;" horiz-adv-x="1652" 
d="M1169 1368l5 -12q-89 -127 -251.5 -357t-209.5 -297q-82 -118 -247 -359t-247 -359l-31 10l-4 12q68 98 237.5 337t258.5 368q83 118 236.5 343t222.5 324zM586 1362l10 -29q-101 -126 -161 -210t-112.5 -175t-75 -171.5t-22.5 -164.5l70 -90l-19 -20q-54 23 -72 56.5
t-18 84.5q0 126 83.5 285.5t287.5 398.5l-4 8l-426 -8l-18 -141h-31q-6 38 -6 86q0 49 8 90h506zM1325 430v-12q110 -42 161.5 -95t51.5 -139q0 -58 -22.5 -100.5t-63 -66t-87.5 -34t-103 -10.5q-126 0 -201.5 52t-75.5 159q0 51 17 90.5t50.5 66t66.5 43t81 32.5v10
q-100 41 -148 92t-48 123q0 97 80 153t188 56q106 0 177 -55.5t71 -153.5q0 -78 -48.5 -125t-146.5 -86zM1049 645q0 -37 15.5 -67.5t46.5 -54t61.5 -39.5t76.5 -35l33 -13q101 45 147 90.5t46 112.5q0 79 -58.5 126.5t-150.5 47.5q-90 0 -153.5 -46.5t-63.5 -121.5z
M1262 12q104 0 167.5 40.5t63.5 129.5q0 77 -49 119.5t-160 89.5l-41 17q-57 -25 -92 -44t-65 -44.5t-43 -57.5t-13 -74q0 -176 232 -176z" />
    <glyph glyph-name="uni215F" unicode="&#x215f;" horiz-adv-x="1140" 
d="M1352 1368l4 -12q-89 -127 -251.5 -357t-209.5 -297q-82 -118 -247 -359t-247 -359l-30 10l-4 12q66 95 235.5 335t259.5 370q83 118 236.5 343t222.5 324zM526 563v-24h-436v24l199 12v730q-82 -62 -193 -72l-6 31q138 21 227 120l19 -2v-813z" />
    <glyph glyph-name="uni2189" unicode="&#x2189;" horiz-adv-x="1921" 
d="M1458 1368l4 -12q-89 -127 -251.5 -357t-209.5 -297q-82 -118 -246.5 -359t-246.5 -359l-31 10l-4 12q68 98 237.5 337t258.5 368q82 117 235 342t223 325zM422 1389q145 0 221 -115t76 -316q0 -211 -80.5 -328.5t-228.5 -117.5q-145 0 -221 115t-76 317q0 211 80.5 328
t228.5 117zM418 1350q-127 0 -193.5 -102t-66.5 -300t65.5 -297.5t190.5 -99.5q126 0 193 100t67 303q0 396 -256 396zM1612 440v-10q89 -14 141.5 -67t52.5 -146q0 -115 -78.5 -179.5t-205.5 -64.5q-109 0 -176.5 46.5t-67.5 121.5q0 35 14 60h29l20 -144q82 -45 172 -45
q67 0 120 17.5t90.5 65t37.5 120.5q0 199 -262 199h-51v39h131q27 11 43.5 18.5t41 23.5t38.5 34t24.5 46.5t10.5 63.5q0 84 -54.5 128t-150.5 44t-178 -45l-21 -143h-28q-15 27 -15 59q0 74 74 121t176 47q109 0 175.5 -56t66.5 -149q0 -87 -52.5 -137t-117.5 -68z" />
    <glyph glyph-name="arrowleft" unicode="&#x2190;" horiz-adv-x="1544" 
d="M532 950l17 -18q-120 -168 -283 -316q151 7 381 7h764v-43h-764q-209 0 -381 8q171 -158 283 -318l-17 -18q-81 90 -204 189.5t-226 152.5v12q102 53 225 153t205 191z" />
    <glyph glyph-name="arrowup" unicode="&#x2191;" horiz-adv-x="985" 
d="M842 971l-19 -17q-166 118 -315 283q6 -129 6 -381v-856h-43v856q0 209 8 381q-160 -173 -317 -283l-19 17q90 81 189.5 204t152.5 226h13q53 -102 153 -225t191 -205z" />
    <glyph glyph-name="arrowright" unicode="&#x2192;" horiz-adv-x="1544" 
d="M995 932l17 18q82 -91 205 -191t225 -153v-12q-103 -53 -226 -152.5t-204 -189.5l-17 18q112 160 283 318q-172 -8 -381 -8h-764v43h764q231 0 381 -7q-163 148 -283 316z" />
    <glyph glyph-name="arrowdown" unicode="&#x2193;" horiz-adv-x="985" 
d="M823 408l19 -17q-91 -82 -191 -205t-153 -225h-13q-53 103 -152.5 226t-189.5 204l19 17q157 -110 317 -283q-8 172 -8 381v856h43v-856q0 -252 -6 -381q149 165 315 283z" />
    <glyph glyph-name="arrowboth" unicode="&#x2194;" horiz-adv-x="1990" 
d="M1442 936l16 18q82 -91 205 -191t225 -153v-12q-103 -53 -226 -152.5t-204 -189.5l-16 18q114 163 282 318q-172 -8 -381 -8h-696q-209 0 -381 8q171 -158 283 -318l-17 -18q-81 90 -204 189.5t-226 152.5v12q102 53 225 153t205 191l17 -18q-118 -166 -283 -315
q129 6 381 6h696q252 0 381 -6q-162 147 -282 315z" />
    <glyph glyph-name="arrowupdn" unicode="&#x2195;" horiz-adv-x="985" 
d="M508 125q149 165 315 283l19 -17q-91 -82 -191 -205t-153 -225h-13q-53 103 -152.5 226t-189.5 204l19 17q157 -110 317 -283q-8 156 -8 555q0 421 6 532q-147 -162 -315 -282l-19 16q91 82 191 205t153 225h13q53 -103 152.5 -226t189.5 -204l-19 -16q-160 112 -317 282
q8 -148 8 -532q0 -438 -6 -555z" />
    <glyph glyph-name="uni2196" unicode="&#x2196;" horiz-adv-x="1374" 
d="M133 1141l10 8q110 -35 266.5 -52t278.5 -12v-24q-176 -31 -426 -25q115 -103 277 -262l753 -756l-30 -30l-754 755q-163 163 -266 273q12 -229 -23 -422l-24 -2q6 122 -10.5 280.5t-51.5 268.5z" />
    <glyph glyph-name="uni2197" unicode="&#x2197;" horiz-adv-x="1374" 
d="M1231 1149l10 -8q-35 -110 -51 -268t-10 -281l-25 2q-34 188 -22 422q-88 -94 -267 -273l-753 -755l-31 30l754 756q173 170 276 262q-250 -6 -426 25v24q122 -5 278.5 12t266.5 52z" />
    <glyph glyph-name="uni2198" unicode="&#x2198;" horiz-adv-x="1374" 
d="M1241 -6l-10 -8q-109 35 -265.5 51.5t-279.5 11.5v25q171 30 426 24q-103 92 -276 262l-754 756l31 31l753 -756q194 -194 267 -272q-12 234 22 422l25 2q-6 -123 10 -281t51 -268z" />
    <glyph glyph-name="uni2199" unicode="&#x2199;" horiz-adv-x="1374" 
d="M143 -14l-10 8q35 110 51.5 268.5t10.5 280.5l24 -2q35 -193 23 -422q88 94 266 272l754 756l30 -31l-753 -756q-162 -159 -277 -262q255 6 426 -24v-25q-123 5 -279.5 -11.5t-265.5 -51.5z" />
    <glyph glyph-name="uni21A9" unicode="&#x21a9;" horiz-adv-x="1607" 
d="M532 827l17 -18q-118 -166 -283 -315q129 6 361 6h456q163 0 253.5 83t90.5 216t-87 215t-240 82h-191v43h189q173 0 275 -96.5t102 -243.5t-105 -244.5t-289 -97.5h-454q-189 0 -361 8q171 -158 283 -318l-17 -18q-81 90 -204 189.5t-226 152.5v12q102 53 225 153
t205 191z" />
    <glyph glyph-name="uni21AA" unicode="&#x21aa;" horiz-adv-x="1607" 
d="M1059 809l16 18q82 -91 205 -191t225 -153v-12q-103 -53 -226 -152.5t-204 -189.5l-16 18q114 163 282 318q-172 -8 -360 -8h-455q-184 0 -288.5 97.5t-104.5 244.5t102 243.5t275 96.5h188v-43h-190q-153 0 -240.5 -82t-87.5 -215t90.5 -216t253.5 -83h457q231 0 360 -6
q-162 147 -282 315z" />
    <glyph glyph-name="uni21BB" unicode="&#x21bb;" horiz-adv-x="1372" 
d="M965 1024l16 29q125 -48 212 -175.5t87 -304.5q0 -165 -78 -302.5t-215 -217.5t-303 -80q-120 0 -228.5 44t-188.5 120.5t-127.5 186.5t-47.5 235q0 199 112.5 339.5t291.5 197.5q-243 43 -410 112l4 25q115 -32 273 -50t276 -9l6 -9q-58 -101 -108 -251.5t-68 -270.5
l-25 8q6 194 64 420q-179 -86 -275 -205.5t-96 -298.5q0 -125 47.5 -230.5t125 -174.5t175.5 -107.5t201 -38.5q143 0 268.5 69.5t203 197.5t77.5 284q0 159 -77 279t-193 178z" />
    <glyph glyph-name="partialdiff" unicode="&#x2202;" horiz-adv-x="1091" 
d="M582 1540q106 0 184 -46t123 -131.5t66.5 -195.5t21.5 -249q0 -135 -19 -266t-62 -255.5t-105 -218t-156.5 -150.5t-208.5 -57q-148 0 -229.5 95t-81.5 278q0 109 29 211.5t84 187t144.5 136t200.5 51.5q108 0 197.5 -46.5t142.5 -127.5h11q6 80 6 164q0 579 -355 579
q-129 0 -264 -76l-6 27q121 90 277 90zM428 12q104 0 190.5 55t146 151.5t98.5 220.5t55 270q-155 180 -343 180q-120 0 -215 -71.5t-146.5 -193.5t-51.5 -272q0 -167 67.5 -253.5t198.5 -86.5z" />
    <glyph glyph-name="emptyset" unicode="&#x2205;" horiz-adv-x="1540" 
d="M1354 1341l-176 -231q108 -88 168.5 -217t60.5 -281q0 -183 -86 -330t-232.5 -228t-324.5 -81q-205 0 -367 111l-178 -234l-26 15l-5 12l177 232q-110 88 -171 216.5t-61 282.5q0 183 86 329.5t232.5 227t324.5 80.5q207 0 367 -110l178 233l27 -14zM182 610
q0 -147 56.5 -265t154.5 -198l721 949q-151 106 -344 106q-114 0 -219 -41t-187.5 -114.5t-132 -187.5t-49.5 -249zM770 18q114 0 219 41t187.5 114.5t132 187.5t49.5 249q0 147 -55.5 264t-153.5 197l-723 -948q154 -105 344 -105z" />
    <glyph glyph-name="Delta" unicode="&#x2206;" horiz-adv-x="1239" 
d="M1178 12l-7 -12h-1105l-5 14l545 1356l23 6h10zM119 39h997l-493 1249z" />
    <glyph glyph-name="product" unicode="&#x220f;" horiz-adv-x="1503" 
d="M1413 1362v-31l-235 -16v-1465q-18 -6 -39 -6l-9 6v1471h-757v-1471q-18 -6 -39 -6l-8 6v1475l-215 6v31h1302z" />
    <glyph glyph-name="summation" unicode="&#x2211;" horiz-adv-x="1026" 
d="M866 160h35q8 -68 8 -137q0 -89 -12 -166h-776l-12 30l485 752l-488 692l13 31h782q4 -51 4 -125q0 -93 -10 -178h-35l-20 260l-672 10l-4 -8q17 -24 53.5 -71.5t54.5 -73.5l373 -525v-10l-379 -588q-70 -106 -104 -151l4 -8l674 10z" />
    <glyph glyph-name="minus" unicode="&#x2212;" 
d="M1102 580h-946v43h946v-43z" />
    <glyph glyph-name="uni2219" unicode="&#x2219;" 
d="M631 727q62 0 93.5 -34t31.5 -95t-31.5 -95t-93.5 -34t-94.5 34t-32.5 95t32.5 95t94.5 34z" />
    <glyph glyph-name="radical" unicode="&#x221a;" horiz-adv-x="1245" 
d="M1176 1577l8 -10q-154 -442 -349.5 -972t-285.5 -745l-51 -20h-17q-90 232 -211 578l-229 6v30h266q82 -247 205 -565h10q80 194 270 722.5t343 975.5h41z" />
    <glyph glyph-name="infinity" unicode="&#x221e;" horiz-adv-x="1783" 
d="M1372 874q147 0 228 -87.5t81 -215.5q0 -140 -92.5 -223.5t-216.5 -83.5q-86 0 -164.5 43t-199.5 139l-113 91h-8q-118 -129 -230 -201t-245 -72q-147 0 -228.5 87.5t-81.5 215.5q0 140 93 223.5t217 83.5q86 0 164.5 -43t199.5 -139l113 -90h8q56 61 104.5 105
t108.5 84.5t126 61.5t136 21zM1378 311q46 0 91.5 16.5t84 48t62.5 84.5t24 118q0 116 -72 186t-198 70q-82 0 -160 -33.5t-141 -84.5t-149 -138l102 -82q126 -99 204.5 -142t151.5 -43zM414 305q82 0 160 33.5t141 84.5t149 138l-102 82q-125 99 -204 141.5t-152 42.5
q-46 0 -91.5 -16.5t-84.5 -48t-63 -84t-24 -117.5q0 -116 72.5 -186t198.5 -70z" />
    <glyph glyph-name="integral" unicode="&#x222b;" horiz-adv-x="612" 
d="M508 1542q64 0 104 -12v-35q-46 6 -98 6q-249 0 -246 -307q1 -115 62 -584.5t61 -595.5q0 -179 -78.5 -258.5t-212.5 -79.5q-52 0 -100 11v34q35 -4 100 -4q244 0 244 301q0 125 -61.5 597t-61.5 591q0 171 77.5 253.5t209.5 82.5z" />
    <glyph glyph-name="approxequal" unicode="&#x2248;" 
d="M1085 477l21 -16q-77 -113 -127 -162t-102 -49q-32 0 -80.5 21.5t-78 40t-100.5 63.5q-106 68 -156 94t-104 39l-186 -197l-20 17q77 113 127 162t102 49q32 0 81 -22t76.5 -39t100.5 -64q107 -69 154.5 -94t105.5 -39zM1085 899l21 -16q-77 -113 -127 -162t-102 -49
q-32 0 -80.5 21.5t-78 40t-100.5 63.5q-106 68 -156 94t-104 39l-186 -197l-20 17q77 113 127 162t102 49q32 0 81 -22t76.5 -39t100.5 -64q79 -51 108.5 -68.5t70 -36.5t81.5 -29z" />
    <glyph glyph-name="notequal" unicode="&#x2260;" 
d="M784 784l-264 -366h582v-43h-613l-251 -348l-27 12l-4 12l235 324h-286v43h317l266 366h-583v43h614l250 344l27 -10l2 -12l-232 -322h285v-43h-318z" />
    <glyph glyph-name="lessequal" unicode="&#x2264;" 
d="M1006 1063l-742 -371v-10l742 -371l-17 -35l-805 398v26l805 398zM1016 0h-852v43h852v-43z" />
    <glyph glyph-name="greaterequal" unicode="&#x2265;" 
d="M1069 700v-26l-805 -398l-16 35l741 371v10l-741 371l16 35zM1090 0h-852v43h852v-43z" />
    <glyph glyph-name="dotmath" unicode="&#x22c5;" 
d="M631 678q18 0 28 -2q13 -29 13 -66q0 -54 -23 -100h-53l-10 160q24 8 45 8z" />
    <glyph glyph-name="uni24EA" unicode="&#x24ea;" horiz-adv-x="1601" 
d="M801 1389q144 0 275 -56t226 -151t151 -226.5t56 -275.5q0 -192 -95 -355t-258 -257.5t-355 -94.5q-144 0 -275.5 56t-226.5 150.5t-151 225.5t-56 275q0 115 36 223.5t101.5 195.5t152.5 152.5t195.5 101.5t223.5 36zM801 1348q-183 0 -335.5 -91t-239.5 -244.5
t-87 -332.5t87 -332t239.5 -243.5t335.5 -90.5q137 0 260 53.5t210.5 143.5t139 212.5t51.5 256.5t-51.5 257t-139 213t-210.5 144t-260 54zM807 1081q132 0 200 -103.5t68 -287.5q0 -195 -73.5 -302t-206.5 -107q-132 0 -200.5 103.5t-68.5 287.5q0 195 73.5 302t207.5 107
zM803 1042q-114 0 -172 -93.5t-58 -270.5q0 -175 58 -267t168 -92q113 0 171 93t58 274q0 172 -56 264t-169 92z" />
    <glyph glyph-name="uni24FF" unicode="&#x24ff;" horiz-adv-x="1601" 
d="M801 1389q144 0 275 -56t226 -151t151 -226.5t56 -275.5q0 -192 -95 -355t-258 -257.5t-355 -94.5q-144 0 -275.5 56t-226.5 150.5t-151 225.5t-56 275q0 115 36 223.5t101.5 195.5t152.5 152.5t195.5 101.5t223.5 36zM807 1081q-134 0 -207.5 -107t-73.5 -302
q0 -184 68.5 -287.5t200.5 -103.5q133 0 206.5 107t73.5 302q0 184 -68 287.5t-200 103.5zM803 1042q113 0 169 -92t56 -264q0 -181 -58 -274t-171 -93q-110 0 -168 92t-58 267q0 177 58 270.5t172 93.5z" />
    <glyph glyph-name="filledbox" unicode="&#x25a0;" horiz-adv-x="1671" 
d="M1460 57h-1249v1250h1249v-1250z" />
    <glyph glyph-name="H22073" unicode="&#x25a1;" horiz-adv-x="1671" 
d="M1460 57h-1249v1250h1249v-1250zM256 1266v-1168h1159v1168h-1159z" />
    <glyph glyph-name="H18543" unicode="&#x25aa;" horiz-adv-x="1120" 
d="M950 174h-780v778h780v-778z" />
    <glyph glyph-name="H18551" unicode="&#x25ab;" horiz-adv-x="1120" 
d="M950 174h-780v778h780v-778zM215 911v-696h690v696h-690z" />
    <glyph glyph-name="triagup" unicode="&#x25b2;" horiz-adv-x="1607" 
d="M1505 160l-6 -13h-1393l-4 15l701 1196h10z" />
    <glyph glyph-name="uni25B3" unicode="&#x25b3;" horiz-adv-x="1607" 
d="M1505 160l-6 -13h-1393l-4 15l701 1196h10zM807 1276l-637 -1088h1268z" />
    <glyph glyph-name="uni25B4" unicode="&#x25b4;" horiz-adv-x="1230" 
d="M1128 205l-6 -12h-1016l-4 14l512 807h11z" />
    <glyph glyph-name="uni25B5" unicode="&#x25b5;" horiz-adv-x="1230" 
d="M1128 205l-6 -12h-1016l-4 14l512 807h11zM618 934l-448 -701h891z" />
    <glyph glyph-name="uni25B6" unicode="&#x25b6;" horiz-adv-x="1359" 
d="M1257 682v-10l-1034 -658l-12 6v1323l14 5z" />
    <glyph glyph-name="uni25B7" unicode="&#x25b7;" horiz-adv-x="1359" 
d="M1257 682v-10l-1034 -658l-12 6v1323l14 5zM256 1276v-1190l924 592z" />
    <glyph glyph-name="uni25B8" unicode="&#x25b8;" horiz-adv-x="1093" 
d="M991 604v-10l-809 -514l-12 6v1036l14 4z" />
    <glyph glyph-name="uni25B9" unicode="&#x25b9;" horiz-adv-x="1093" 
d="M991 604v-10l-809 -514l-12 6v1036l14 4zM215 1055v-903l698 448z" />
    <glyph glyph-name="triagdn" unicode="&#x25bc;" horiz-adv-x="1607" 
d="M1499 1219l6 -13l-692 -1198h-10l-701 1196l4 15h1393z" />
    <glyph glyph-name="uni25BD" unicode="&#x25bd;" horiz-adv-x="1607" 
d="M1499 1219l6 -13l-692 -1198h-10l-701 1196l4 15h1393zM170 1178l637 -1088l631 1088h-1268z" />
    <glyph glyph-name="uni25BE" unicode="&#x25be;" horiz-adv-x="1230" 
d="M1122 1004l6 -13l-503 -809h-11l-512 807l4 15h1016z" />
    <glyph glyph-name="uni25BF" unicode="&#x25bf;" horiz-adv-x="1230" 
d="M1122 1006l6 -13l-503 -809h-11l-512 807l4 15h1016zM170 965l448 -701l443 701h-891z" />
    <glyph glyph-name="uni25C0" unicode="&#x25c0;" horiz-adv-x="1359" 
d="M102 672v10l1033 666l14 -5v-1323l-12 -6z" />
    <glyph glyph-name="uni25C1" unicode="&#x25c1;" horiz-adv-x="1359" 
d="M102 672v10l1033 666l14 -5v-1323l-12 -6zM1104 86v1190l-924 -598z" />
    <glyph glyph-name="uni25C2" unicode="&#x25c2;" horiz-adv-x="1093" 
d="M102 594v10l807 522l15 -4v-1036l-13 -6z" />
    <glyph glyph-name="uni25C3" unicode="&#x25c3;" horiz-adv-x="1093" 
d="M102 594v10l807 522l15 -4v-1036l-13 -6zM879 152v903l-699 -455z" />
    <glyph glyph-name="lozenge" unicode="&#x25ca;" horiz-adv-x="1265" 
d="M1163 678v-10l-526 -701h-10l-525 699v10l527 702h10zM635 1313l-481 -643l479 -639l479 643z" />
    <glyph glyph-name="circle" unicode="&#x25cb;" horiz-adv-x="1601" 
d="M801 1389q144 0 275 -56t226 -151t151 -226.5t56 -275.5q0 -192 -95 -355t-258 -257.5t-355 -94.5q-144 0 -275.5 56t-226.5 150.5t-151 225.5t-56 275q0 115 36 223.5t101.5 195.5t152.5 152.5t195.5 101.5t223.5 36zM801 1348q-183 0 -335.5 -91t-239.5 -244.5
t-87 -332.5t87 -332t239.5 -243.5t335.5 -90.5q137 0 260 53.5t210.5 143.5t139 212.5t51.5 256.5t-51.5 257t-139 213t-210.5 144t-260 54z" />
    <glyph glyph-name="H18533" unicode="&#x25cf;" horiz-adv-x="1601" 
d="M805 1389q141 0 271 -56t225 -150.5t151.5 -224t56.5 -270.5q0 -189 -95.5 -354t-258 -263t-350.5 -98q-140 0 -271.5 58t-228 154t-155 228t-58.5 273t58 271.5t154.5 225t228 150.5t272.5 56z" />
    <glyph glyph-name="uni2605" unicode="&#x2605;" horiz-adv-x="1636" 
d="M995 858h557l2 -8l-448 -328l170 -536l-6 -6l-453 331l-448 -334l-9 7l168 540l-446 326l2 8h557l172 524h10z" />
    <glyph glyph-name="uni2606" unicode="&#x2606;" horiz-adv-x="1636" 
d="M995 858h557l2 -8l-448 -326l170 -538l-6 -6l-453 331l-448 -334l-9 7l168 540l-446 326l2 8h557l172 524h10zM674 817h-479l387 -278l-148 -461l385 284l383 -284l-147 461l389 278h-481l-144 438z" />
    <glyph glyph-name="uni261A" unicode="&#x261a;" horiz-adv-x="2318" 
d="M1841 217v637l25 170l360 -20v-1004h-360zM946 1024h242l571 -147v-689q-107 -120 -301 -120q-86 0 -196 24q-144 -136 -207 -176q-94 0 -161.5 55.5t-76.5 134.5q-164 67 -164 195v2q-131 63 -131 182q0 21 4 37l9.5 9.5t37.5 27.5t74.5 44t127.5 57.5t188 68.5l-9 25
q-610 -97 -757 -97q-68 30 -110 73t-42 120q0 10 0.5 19t3 19.5t4 18t5.5 20t5.5 18t7 21t7.5 21.5q509 37 868 37zM365 954l-43 7q-14 -61 -58.5 -78t-148.5 -17l-2 -26q129 -40 190.5 -1t61.5 115zM1059 512l-12 25q-209 -55 -336 -177l55 -45q17 20 39 39t57.5 42
t55.5 35t72 41.5t69 39.5zM1180 309l-13 25q-68 -17 -121.5 -40t-90.5 -50t-51.5 -40.5t-35.5 -35.5l58 -39q63 75 254 180z" />
    <glyph glyph-name="uni261B" unicode="&#x261b;" horiz-adv-x="2318" 
d="M477 854v-637l-24 -217h-361v1004l361 20zM1130 1024h242q160 0 377 -9t355 -19l137 -9q32 -94 32 -137q0 -41 -13 -73.5t-37 -55t-47 -36.5t-54 -28q-148 0 -758 97l-8 -25q104 -34 187.5 -68t128 -58t74 -43t38.5 -28l8 -10q4 -16 4 -37q0 -119 -131 -182v-2
q0 -128 -164 -195q-9 -79 -76 -134.5t-161 -55.5q-63 40 -207 176q-110 -24 -197 -24q-194 0 -301 120v689zM1997 961l-43 -7q0 -76 61.5 -115t190.5 1l-2 26q-104 0 -148.5 17t-58.5 78zM1272 537l-12 -25q14 -8 68.5 -39t72.5 -42t54.5 -34.5t58 -42.5t38.5 -39l56 45
q-127 122 -336 177zM1151 334l-12 -25q191 -105 254 -180l57 39q-21 22 -35.5 35.5t-51.5 40.5t-90.5 50t-121.5 40z" />
    <glyph glyph-name="uni261C" unicode="&#x261c;" horiz-adv-x="2318" 
d="M78 954q603 50 950 50h160l661 -191l17 205l360 -14v-29l-321 -8q-15 -193 -15 -408q0 -160 5 -253t20 -261l311 -16v-29h-350l-27 270h-10q-78 -98 -171.5 -150t-184.5 -52q-62 0 -125.5 22t-102.5 49q-150 -159 -243 -225q-85 21 -139.5 75t-57.5 146q-76 20 -120 70.5
t-44 118.5q-65 27 -99 75t-34 109q0 23 4 39q10 15 45 39t125 65t213 82l-2 10q-93 -12 -256 -38t-284.5 -43.5t-184.5 -20.5q-133 63 -133 180q0 12 1.5 24.5t3 21.5t6 23t6.5 20t8 22.5t8 21.5zM176 680q119 13 382.5 48t371.5 42l14 -47q-108 -47 -165.5 -73t-128 -65
t-91.5 -65q0 -58 23 -97.5t73 -72.5q14 16 44 38t123.5 66.5t217.5 82.5l13 -25q-266 -92 -359 -188q0 -106 125 -164q154 114 340 182l15 -25q-237 -107 -316 -186q0 -71 35.5 -111t103.5 -73q145 145 265 225q5 -2 25 -11.5t26 -12.5t23 -10.5t25.5 -10t24.5 -7t28 -6.5
t28 -3.5t33 -1.5q193 0 370 219v446l-663 191h-154q-286 0 -917 -47q-19 -51 -19 -101q0 -77 84 -137z" />
    <glyph glyph-name="uni261D" unicode="&#x261d;" horiz-adv-x="1357" 
d="M975 -147l231 -27v-236h-30l-17 203q-168 15 -261 20t-253 5q-215 0 -407 -15v-213h-31l-23 246l207 17l-190 546v160q0 364 49 909q5 2 21.5 8t22.5 8t20 6.5t23 6t21.5 3t24.5 1.5q117 0 180 -133q-3 -80 -46 -334.5t-56 -349.5l10 -2q41 123 82 213t65 125t39 45
q16 4 39 4q61 0 109.5 -34t75.5 -99q67 0 117.5 -43.5t70.5 -120.5q92 -3 147 -57.5t76 -139.5q-63 -91 -207 -235q20 -32 36 -85t16 -103q0 -77 -42 -152.5t-120 -136.5v-10zM434 -143h481q175 134 175 307q0 65 -37 174q31 47 66 89.5t81 94t60 68.5q-33 68 -75.5 105.5
t-113.5 37.5q-73 -73 -184 -319l-29 16q63 172 186 338q-60 129 -165 129q-92 -90 -187 -362l-28 14q85 280 190 385q-67 98 -172 98q-9 -7 -19 -19t-21.5 -31t-20.5 -35t-23 -45t-22.5 -46.5t-24.5 -53.5t-23 -51.5t-24.5 -55.5t-22.5 -52l-55 14q6 100 42 333.5t52 385.5
q-60 82 -135 82q-50 0 -98 -18l-9 -145q-10 -145 -21 -366t-11 -370v-153z" />
    <glyph glyph-name="uni261E" unicode="&#x261e;" horiz-adv-x="2318" 
d="M2241 954q32 -90 32 -133q0 -117 -133 -180q-63 3 -184.5 20.5t-284.5 43.5t-256 38l-2 -10q123 -41 213 -82t125 -65t45 -39q4 -16 4 -39q0 -61 -34 -109t-99 -75q0 -68 -44 -118.5t-120 -70.5q-3 -92 -57 -146t-139 -75q-96 68 -244 225q-40 -27 -102.5 -49t-124.5 -22
q-91 0 -185 52t-172 150h-10l-27 -270h-350v29l311 16q15 168 20 261t5 253q0 228 -14 408l-322 8v29l361 14l16 -205l661 191h160q348 0 951 -50zM2142 680q84 60 84 137q0 53 -18 101q-631 47 -918 47h-153l-664 -191v-446q177 -219 371 -219q17 0 33 1.5t28 3.5t28 6.5
t24.5 7t25.5 10t23 10.5t26 12.5t25 11.5q117 -78 264 -225q68 33 103.5 73t35.5 111q-80 80 -315 186l14 25q186 -68 340 -182q125 58 125 164q-93 96 -358 188l12 25q124 -38 217.5 -82.5t123.5 -66.5t44 -38q50 33 73 72.5t23 97.5q-21 26 -91.5 65t-128 65t-165.5 73
l15 47q108 -7 371 -42t382 -48z" />
    <glyph glyph-name="uni261F" unicode="&#x261f;" horiz-adv-x="1357" 
d="M1206 1239l-231 -27v-10q78 -61 120 -136.5t42 -152.5q0 -50 -16 -103t-36 -85q142 -142 207 -236q-21 -84 -76 -138.5t-147 -57.5q-20 -77 -70.5 -120.5t-117.5 -43.5q-27 -65 -75.5 -99t-109.5 -34q-23 0 -39 4q-15 10 -39 45t-65 125t-82 213l-10 -2q13 -95 56 -349.5
t46 -334.5q-63 -133 -180 -133q-12 0 -24.5 1.5t-21.5 3t-23 6t-20 6.5t-22.5 8t-21.5 8q-49 545 -49 909v160l190 546l-207 17l23 246h31v-213q192 -15 407 -15q160 0 253 5t261 20l17 203h30v-236zM915 1208h-481l-188 -549v-153q0 -149 11 -370t21 -366l9 -145
q48 -18 98 -18q75 0 135 82q-16 152 -52 385.5t-42 333.5l55 14q5 -12 22.5 -52t24.5 -55.5t23 -51.5t24.5 -53.5t22.5 -46.5t23 -45t20.5 -35t21.5 -31t19 -19q105 0 172 98q-105 105 -190 385l28 14q95 -272 187 -362q105 0 165 129q-123 166 -186 338l29 16
q111 -246 184 -319q71 0 113.5 37.5t75.5 105.5q-14 17 -60 68.5t-81 94t-66 89.5q37 109 37 174q0 173 -175 307z" />
    <glyph glyph-name="uni2661" unicode="&#x2661;" horiz-adv-x="1662" 
d="M1192 1051q149 0 252.5 -101t103.5 -276q0 -88 -29 -160t-78.5 -123t-111 -93.5t-131.5 -82t-134.5 -78t-126 -91t-99.5 -112.5h-11q-39 60 -100.5 112.5t-126 91t-135 78t-132 82t-111 93.5t-78.5 123t-29 160q0 175 103.5 276t252.5 101q135 0 230.5 -88.5
t125.5 -253.5h9q30 165 125.5 253.5t230.5 88.5zM1192 1010q-133 0 -218.5 -91.5t-125.5 -252.5h-33q-40 161 -125.5 252.5t-218.5 91.5t-221 -89t-88 -247q0 -83 26 -149.5t71.5 -113.5t101.5 -85.5t121 -75t125.5 -72t120.5 -85.5t99 -107h11q39 57 98.5 107t119.5 85.5
t125 72t121 75t101.5 85.5t71.5 113.5t26 149.5q0 158 -88 247t-221 89z" />
    <glyph glyph-name="heart" unicode="&#x2665;" horiz-adv-x="1662" 
d="M1192 1051q149 0 252.5 -100.5t103.5 -278.5q0 -91 -29.5 -166.5t-80.5 -129.5t-113.5 -100t-133.5 -86.5t-135 -78t-123.5 -85.5t-94.5 -100h-11q-35 52 -94.5 100t-124 85.5t-135.5 78t-133.5 86.5t-113.5 100t-81 129.5t-30 166.5q0 178 103.5 278.5t252.5 100.5
q133 0 229.5 -82t126.5 -232h11q30 150 126 232t228 82z" />
    <glyph glyph-name="uni275B" unicode="&#x275b;" horiz-adv-x="950" 
d="M784 1389l9 -27q-120 -43 -216.5 -102t-160 -125t-103.5 -129.5t-63 -128.5q-15 -45 -19 -66l586 -117l14 -669q-140 -52 -290 -52q-72 0 -160 14t-150 42q-26 42 -43 74.5t-41 91.5t-36.5 132t-12.5 154q0 147 44.5 289.5t128.5 266.5t216.5 217.5t296.5 134.5z" />
    <glyph glyph-name="uni275C" unicode="&#x275c;" horiz-adv-x="950" 
d="M410 1389q72 0 159.5 -14t149.5 -42q26 -42 43 -74.5t41 -91.5t36.5 -132t12.5 -154q0 -147 -44.5 -289.5t-128.5 -266.5t-216.5 -217.5t-296.5 -134.5l-8 27q120 43 216.5 102t159.5 125.5t103 129t63 128.5q15 45 19 66l-586 117l-14 669q140 52 291 52z" />
    <glyph glyph-name="uni275D" unicode="&#x275d;" horiz-adv-x="1818" 
d="M1653 1389l8 -27q-120 -43 -216.5 -102t-160 -125t-103.5 -129.5t-63 -128.5q-14 -39 -18 -66l586 -117l14 -669q-140 -52 -291 -52q-72 0 -159.5 14t-149.5 42q-26 42 -43 74.5t-41 91.5t-36.5 132t-12.5 154q0 147 44.5 289.5t128.5 266.5t216.5 217.5t296.5 134.5z
M784 1389l9 -27q-120 -43 -216.5 -102t-160 -125t-103.5 -129.5t-63 -128.5q-15 -45 -19 -66l586 -117l14 -669q-140 -52 -290 -52q-72 0 -160 14t-150 42q-26 42 -43 74.5t-41 91.5t-36.5 132t-12.5 154q0 147 44.5 289.5t128.5 266.5t216.5 217.5t296.5 134.5z" />
    <glyph glyph-name="uni275E" unicode="&#x275e;" horiz-adv-x="1818" 
d="M1278 1389q72 0 159.5 -14t149.5 -42q26 -42 43 -74.5t41 -91.5t36.5 -132t12.5 -154q0 -147 -44.5 -289.5t-128.5 -266.5t-216.5 -217.5t-296.5 -134.5l-8 27q120 43 216.5 102t160 125t103.5 129.5t63 128.5q14 39 18 66l-586 117l-14 669q140 52 291 52zM410 1389
q72 0 159.5 -14t149.5 -42q26 -42 43 -74.5t41 -91.5t36.5 -132t12.5 -154q0 -147 -44.5 -289.5t-128.5 -266.5t-216.5 -217.5t-296.5 -134.5l-8 27q120 43 216.5 102t159.5 125.5t103 129t63 128.5q15 45 19 66l-586 117l-14 669q140 52 291 52z" />
    </font>
</defs>
</svg>
