<?xml version="1.0" standalone="no"?>
<!DOCTYPE svg PUBLIC "-//W3C//DTD SVG 1.1//EN" "http://www.w3.org/Graphics/SVG/1.1/DTD/svg11.dtd" >
<svg xmlns="http://www.w3.org/2000/svg" xmlns:xlink="http://www.w3.org/1999/xlink" version="1.1">
<metadata>
Created by FontForge 20170731 at Wed Jan 19 21:51:09 2022
 By Aleksey,,,
2014 published by FontShop International GmbH
</metadata>
<defs>
<font id="FranziskaPro-Medium" horiz-adv-x="1259" >
  <font-face 
    font-family="FranziskaPro-Medium"
    font-weight="500"
    font-stretch="normal"
    units-per-em="2048"
    panose-1="2 1 6 4 4 1 1 1 1 2"
    ascent="1612"
    descent="-436"
    x-height="1028"
    cap-height="1362"
    bbox="-893 -573 3211 1976"
    underline-thickness="122"
    underline-position="-327"
    unicode-range="U+000D-1F44E"
  />
<missing-glyph horiz-adv-x="1423" 
d="M1212 0h-1001v1362h1001v-1362zM440 1237l635 -989v989h-635zM997 127l-649 1010v-1010h649z" />
    <glyph glyph-name="T_h" unicode="Th" horiz-adv-x="2254" 
d="M2232 0h-499v100l122 37v545q0 213 -190 213q-143 0 -248 -123v-659l144 -13v-100h-490v100l125 37v1086l-448 20v-1122l159 -15v-106h-575v106l176 37v1100l-260 -10l-39 -215h-141q-15 82 -15 207q0 82 10 137h1135q2 50 14 149q86 23 162 31l43 -10v-422
q0 -38 -2.5 -77.5t-6.5 -81.5t-5 -62h20q137 170 330 170q147 0 235.5 -87t88.5 -249v-610l155 -13v-100z" />
    <glyph glyph-name="T_k" unicode="Tk" horiz-adv-x="2183" 
d="M2165 86l-6 -76q-70 -28 -144 -28q-82 0 -133.5 31.5t-97.5 107.5q-12 20 -36 62t-74.5 132t-94.5 168h-162v-370l127 -13v-100h-473v100l125 37v1086l-448 20v-1122l159 -15v-106h-575v106l176 37v1100l-260 -10l-39 -215h-141q-15 82 -15 207q0 82 10 137h1135
q2 50 14 149q86 23 162 31l43 -10v-932h146q133 150 266 315l-143 13v100h436v-100l-129 -33q-141 -144 -271 -266q40 -57 88 -128t81 -121t86.5 -133t76.5 -118z" />
    <glyph glyph-name="T_l" unicode="Tl" horiz-adv-x="1599" 
d="M1561 0h-490v100l125 37v1086l-448 20v-1122l159 -15v-106h-575v106l176 37v1100l-260 -10l-39 -215h-141q-15 82 -15 207q0 82 10 137h1135q2 50 14 149q86 23 162 31l43 -10v-1419l144 -13v-100z" />
    <glyph glyph-name="Tbar_h" unicode="&#x166;h" horiz-adv-x="2254" 
d="M2232 0h-499v100l122 37v545q0 213 -190 213q-143 0 -248 -123v-659l144 -13v-100h-490v100l125 37v1086l-448 20v-581h278v-119h-278v-422l159 -15v-106h-575v106l176 37v400h-287v119h287v581l-260 -10l-39 -215h-141q-15 82 -15 207q0 82 10 137h1135q2 50 14 149
q86 23 162 31l43 -10v-422q0 -38 -2.5 -77.5t-6.5 -81.5t-5 -62h20q137 170 330 170q147 0 235.5 -87t88.5 -249v-610l155 -13v-100z" />
    <glyph glyph-name="Tcaron_h" unicode="&#x164;h" horiz-adv-x="2254" 
d="M2232 0h-499v100l122 37v545q0 213 -190 213q-143 0 -248 -123v-659l144 -13v-100h-490v100l125 37v1086l-448 20v-1122l159 -15v-106h-575v106l176 37v1100l-260 -10l-39 -215h-141q-15 82 -15 207q0 82 10 137h1135q2 50 14 149q86 23 162 31l43 -10v-422
q0 -38 -2.5 -77.5t-6.5 -81.5t-5 -62h20q137 170 330 170q147 0 235.5 -87t88.5 -249v-610l155 -13v-100zM662 1667l180 152h127l-297 -342h-135l-246 278l143 88l207 -176h21z" />
    <glyph glyph-name="f_b" unicode="fb" horiz-adv-x="1892" 
d="M1405 1059q190 0 291.5 -138.5t101.5 -365.5q0 -269 -143.5 -425.5t-392.5 -156.5q-88 0 -207 18.5t-205 45.5v1358q-81 22 -172 22q-252 0 -252 -268v-121h199v-121h-199v-794l203 -13v-100h-559v100l135 37v768h-2l-140 15v96l142 33v53q0 220 120.5 330t317.5 110
q128 0 234 -47q92 37 153 47l41 -10v-422q0 -83 -14 -221h22q129 170 326 170zM1270 90q291 0 291 430q0 203 -63 289t-181 86q-76 0 -134 -30.5t-110 -92.5v-637q86 -45 197 -45z" />
    <glyph glyph-name="f_f" unicode="ff" horiz-adv-x="1343" 
d="M1239 1542q127 0 210 -46.5t83 -131.5q0 -61 -49 -104h-154l-24 167q-25 5 -41 5q-193 0 -193 -252v-152h264v-121h-264v-794l201 -13v-100h-545v100l123 37v770h-424v-794l143 -13v-100h-499v100l135 37v768h-2l-140 15v96l142 33v55q0 213 118.5 325.5t321.5 112.5
q181 0 316 -98q98 98 278 98zM762 1028l88 21v71q0 148 51 242q-115 53 -227 53q-248 0 -248 -280v-107h336z" />
    <glyph glyph-name="f_f_b" unicode="ffb" horiz-adv-x="2537" 
d="M2050 1059q190 0 291.5 -138.5t101.5 -365.5q0 -269 -143.5 -425.5t-392.5 -156.5q-88 0 -207 18.5t-205 45.5v1358q-81 22 -172 22q-252 0 -252 -268v-121h199v-121h-199v-794l203 -13v-100h-555v100l131 37v768h-2l-21 2h-401v-794l143 -13v-100h-499v100l135 37v768
h-2l-140 15v96l142 33v55q0 213 118.5 325.5t321.5 112.5q187 0 330 -106q115 106 313 106q128 0 234 -47q92 37 153 47l41 -10v-422q0 -83 -14 -221h22q129 170 326 170zM762 1028l88 21v53q0 153 61 256q-114 57 -237 57q-248 0 -248 -280v-107h336zM1913 90
q291 0 291 430q0 203 -63 289t-181 86q-76 0 -134 -30.5t-110 -92.5v-637q86 -45 197 -45z" />
    <glyph glyph-name="f_f_h" unicode="ffh" horiz-adv-x="2551" 
d="M2529 0h-497v100l122 37v545q0 213 -190 213q-144 0 -248 -125v-657l144 -13v-100h-490v100l125 37v1258q-81 22 -172 22q-252 0 -252 -268v-121h203v-121h-203v-794l141 -13v-100h-499v100l135 37h2v768h-2l-21 2h-401v-794l143 -13v-100h-499v100l135 37v768h-2
l-140 15v96l142 33v55q0 213 118.5 325.5t321.5 112.5q187 0 330 -106q115 106 313 106q128 0 234 -47q92 37 153 47l41 -10v-422q0 -74 -14 -221h22q134 170 328 170q148 0 236 -87t88 -249v-610l153 -13v-100zM762 1028l88 21v53q0 153 61 256q-114 57 -237 57
q-248 0 -248 -280v-107h336z" />
    <glyph glyph-name="f_f_i" unicode="ffi" horiz-adv-x="1902" 
d="M1864 0h-490v100l117 37v731l-117 35h-303v-790l143 -13v-100h-487v100l123 37v768h-2l-21 2h-401v-794l143 -13v-100h-499v100l135 37v768h-2l-140 15v96l142 33v55q0 213 118.5 325.5t321.5 112.5q187 0 330 -108q117 108 356 108q178 0 283.5 -56.5t105.5 -144.5
q0 -71 -53 -110h-174l-23 174q-83 12 -145 12q-134 0 -194 -73t-60 -234v-82h381l219 25l41 -13v-925l152 -15v-100zM762 1028l88 21v38q0 167 61 271q-114 57 -237 57q-248 0 -248 -280v-107h336z" />
    <glyph glyph-name="f_f_j" unicode="ffj" horiz-adv-x="1884" 
d="M1712 1040v-1046q0 -164 -69 -261.5t-222 -168.5l-61 63l131 191v1050l-117 35h-303v-790l201 -13v-100h-545v100l123 37v768h-2l-21 2h-401v-794l143 -13v-100h-499v100l135 37v768h-2l-140 15v96l142 33v55q0 213 118.5 325.5t321.5 112.5q187 0 330 -108
q117 108 356 108q179 0 285 -56.5t106 -144.5q0 -71 -53 -110h-174l-22 172q-77 14 -148 14q-134 0 -194 -73t-60 -234v-82h381l219 25zM762 1028l88 21v38q0 167 61 271q-114 57 -237 57q-248 0 -248 -280v-107h336z" />
    <glyph glyph-name="f_f_k" unicode="ffk" horiz-adv-x="2480" 
d="M2462 86l-6 -76q-70 -28 -144 -28q-82 0 -133.5 31.5t-97.5 107.5q-13 21 -37 63t-74 132t-94 167h-160v-370l148 -13v-100h-494v100l125 37v1258q-81 22 -172 22q-252 0 -252 -268v-121h203v-121h-203v-794l141 -13v-100h-499v100l135 37h2v768h-2l-21 2h-401v-794
l143 -13v-100h-499v100l135 37v768h-2l-140 15v96l142 33v55q0 213 118.5 325.5t321.5 112.5q187 0 330 -106q115 106 313 106q128 0 234 -47q92 37 153 47l41 -10v-932h146q133 150 266 315l-146 13v100h437v-100l-129 -33q-137 -143 -271 -266q82 -114 332 -500zM762 1028
l88 21v53q0 153 61 256q-114 57 -237 57q-248 0 -248 -280v-107h336z" />
    <glyph glyph-name="f_f_l" unicode="ffl" horiz-adv-x="1908" 
d="M1870 0h-500v100l125 37v1258q-81 22 -172 22q-252 0 -252 -268v-121h203v-121h-203v-794l141 -13v-100h-499v100l135 37h2v768h-2l-21 2h-401v-794l143 -13v-100h-499v100l135 37v768h-2l-140 15v96l142 33v55q0 213 118.5 325.5t321.5 112.5q187 0 330 -106
q115 106 313 106q128 0 234 -47q92 37 153 47l41 -10v-1419l154 -13v-100zM762 1028l88 21v53q0 153 61 256q-114 57 -237 57q-248 0 -248 -280v-107h336z" />
    <glyph glyph-name="f_h" unicode="fh" horiz-adv-x="1906" 
d="M1884 0h-498v100l123 37v545q0 213 -190 213q-144 0 -248 -125v-657l143 -13v-100h-489v100l125 37v1258q-81 22 -172 22q-252 0 -252 -268v-121h203v-121h-203v-794l143 -13v-100h-499v100l135 37v768h-2l-140 15v96l142 33v53q0 220 120.5 330t317.5 110q128 0 234 -47
q92 37 153 47l41 -10v-422q0 -74 -14 -221h22q134 170 328 170q148 0 236 -87t88 -249v-610l153 -13v-100z" />
    <glyph glyph-name="f_hbar" unicode="f&#x127;" horiz-adv-x="1908" 
d="M1886 0h-500v100l123 37v545q0 213 -190 213q-144 0 -248 -125v-657l143 -13v-100h-489v100l125 37v1258q-81 22 -172 22q-252 0 -252 -268v-121h203v-121h-203v-794l143 -13v-100h-499v100l135 37v768h-2l-140 15v96l142 33v53q0 220 120.5 330t317.5 110q128 0 234 -47
q92 37 153 47l41 -10v-166h318v-117h-318v-139q0 -74 -14 -221h22q134 170 328 170q148 0 236 -87t88 -249v-610l155 -13v-100z" />
    <glyph glyph-name="f_i" unicode="fi" horiz-adv-x="1257" 
d="M1219 0h-490v100l117 37h2v731l-117 35h-305v-790l145 -13v-100h-501v100l135 37v768h-2l-140 15v96l142 33v38q0 235 122.5 345t358.5 110q178 0 283.5 -56.5t105.5 -144.5q0 -71 -53 -110h-174l-23 174q-83 12 -145 12q-134 0 -194 -73t-60 -234v-82h383l219 25l41 -13
v-925l150 -15v-100z" />
    <glyph glyph-name="f_icircumflex" unicode="f&#xee;" horiz-adv-x="1257" 
d="M1219 0h-490v100l119 37v731l-131 39h-291v-794l145 -13v-100h-501v100l135 37v768h-2l-140 15v96l142 33v53q0 85 22.5 155.5t62 120.5t95 84t121 50t139.5 16q94 0 186 -29l43 72h134l186 -318l-145 -82l-144 201h-22l-119 -182h-117l127 213q-58 4 -78 4
q-126 0 -198 -66t-72 -208v-105h383l219 25l41 -13v-925l150 -15v-100z" />
    <glyph glyph-name="f_imacron" unicode="f&#x12b;" 
d="M1221 0h-500v100l127 37v731l-117 35h-305v-790l143 -13v-100h-499v100l135 37v768h-2l-140 15v96l142 33v71q0 112 30.5 195t85 131.5t124 72t153.5 23.5q102 0 177.5 -32t101.5 -89h303q8 -33 8 -75q0 -47 -8 -78h-496l-25 159q-25 5 -41 5q-87 0 -139.5 -55.5
t-52.5 -196.5v-152h383l219 25l41 -13v-925l152 -15v-100z" />
    <glyph glyph-name="f_iogonek" unicode="f&#x12f;" horiz-adv-x="1257" 
d="M1221 100v-100q-128 -35 -198.5 -89t-70.5 -124q0 -50 34.5 -77t92.5 -27q57 0 111 20l18 -86q-80 -53 -198 -53q-120 0 -183 53t-63 135q0 145 205 228v20h-238v100l117 37v731l-117 35h-305v-790l145 -13v-100h-501v100l135 37v768h-2l-140 15v96l142 33v38
q0 235 122.5 345t358.5 110q178 0 283.5 -56.5t105.5 -144.5q0 -71 -53 -110h-174l-23 174q-83 12 -145 12q-134 0 -194 -73t-60 -234v-82h383l219 25l41 -13v-925z" />
    <glyph glyph-name="f_j" unicode="fj" horiz-adv-x="1239" 
d="M1069 1040v-1046q0 -164 -69 -261.5t-222 -168.5l-61 63l131 191v1050l-117 35h-305v-790l203 -13v-100h-559v100l135 37v768h-2l-140 15v96l142 33v38q0 235 122.5 345t358.5 110q179 0 285 -56.5t106 -144.5q0 -71 -53 -110h-174l-23 172q-77 14 -147 14
q-134 0 -194 -73t-60 -234v-82h383l219 25z" />
    <glyph glyph-name="f_k" unicode="fk" horiz-adv-x="1837" 
d="M1819 86l-7 -76q-70 -28 -143 -28q-82 0 -133.5 31.5t-97.5 107.5q-13 21 -37 63t-74 132t-94 167h-162v-370l148 -13v-100h-494v100l125 37v1258q-81 22 -172 22q-252 0 -252 -268v-121h203v-121h-203v-794l143 -13v-100h-499v100l135 37v768h-2l-140 15v96l142 33v53
q0 220 120.5 330t317.5 110q128 0 234 -47q92 37 153 47l41 -10v-932h146q133 150 266 315l-144 13v100h437v-100l-131 -33q-151 -158 -269 -266q102 -141 332 -500z" />
    <glyph glyph-name="f_l" unicode="fl" horiz-adv-x="1263" 
d="M1225 0h-500v100l125 37v1258q-81 22 -172 22q-252 0 -252 -268v-121h203v-121h-203v-794l143 -13v-100h-499v100l135 37v768h-2l-140 15v96l142 33v53q0 220 120.5 330t317.5 110q128 0 234 -47q92 37 153 47l41 -10v-1419l154 -13v-100z" />
    <glyph glyph-name="f_lacute" unicode="f&#x13a;" horiz-adv-x="1261" 
d="M936 1536l123 299h86q81 -45 119 -119l-199 -180h-129zM1225 100v-100h-500v100l125 37h2v1245q-88 33 -176 33q-250 0 -250 -266v-121h203v-121h-203v-794l143 -13v-100h-499v100l135 37v768h-2l-140 15v96l142 33v53q0 112 33.5 197.5t93 137t136.5 77.5t169 26
q173 0 307 -94q38 10 86 14l43 -10v-1337z" />
    <glyph glyph-name="f_lcaron" unicode="f&#x13e;" horiz-adv-x="1482" 
d="M1225 0h-500v100l125 37v1258q-81 22 -172 22q-252 0 -252 -268v-121h203v-121h-203v-794l143 -13v-100h-499v100l135 37v768h-2l-140 15v96l142 33v53q0 220 120.5 330t317.5 110q128 0 234 -47q92 37 153 47l41 -10v-1419l154 -13v-100zM1337 1542q70 0 133 -35
q-3 -129 -42 -234.5t-121 -205.5h-107l53 268v197q25 10 84 10z" />
    <glyph glyph-name="uni021A_h" unicode="&#x21a;h" horiz-adv-x="2254" 
d="M2232 0h-499v100l122 37v545q0 213 -190 213q-143 0 -248 -123v-659l144 -13v-100h-490v100l125 37v1086l-448 20v-1122l159 -15v-106h-575v106l176 37v1100l-260 -10l-39 -215h-141q-15 82 -15 207q0 82 10 137h1135q2 50 14 149q86 23 162 31l43 -10v-422
q0 -38 -2.5 -77.5t-6.5 -81.5t-5 -62h20q137 170 330 170q147 0 235.5 -87t88.5 -249v-610l155 -13v-100zM610 -102q54 0 95 -17q36 -56 36 -131q0 -90 -54.5 -158.5t-156.5 -95.5l-32 60q53 32 80.5 61.5t27.5 67.5q0 18 -2 30l-90 13l-4 155q62 15 100 15z" />
    <glyph glyph-name="uni030A_acutecomb" unicode="&#x30a;&#x301;" horiz-adv-x="2" 
d="M-256 1878h92q69 -43 111 -106l-246 -187h-117zM-340 1516q110 0 167.5 -48.5t57.5 -138.5q0 -99 -68.5 -151t-181.5 -52q-110 0 -169.5 49t-59.5 138q0 101 70.5 152t183.5 51zM-352 1425q-84 0 -84 -104q0 -102 82 -102q41 0 62.5 27t21.5 77q0 102 -82 102z" />
    <glyph glyph-name=".notdef" horiz-adv-x="1423" 
d="M1212 0h-1001v1362h1001v-1362zM440 1237l635 -989v989h-635zM997 127l-649 1010v-1010h649z" />
    <glyph glyph-name=".null" horiz-adv-x="0" 
 />
    <glyph glyph-name="nonmarkingreturn" horiz-adv-x="682" 
 />
    <glyph glyph-name="CR" unicode="&#xd;" horiz-adv-x="512" 
 />
    <glyph glyph-name="space" unicode=" " horiz-adv-x="512" 
 />
    <glyph glyph-name="exclam" unicode="!" horiz-adv-x="577" 
d="M381 1382l37 -34q0 -90 -7 -221t-14.5 -226t-21.5 -262.5t-19 -224.5h-139q-6 85 -23.5 295.5t-27.5 368.5t-10 272q95 32 225 32zM276 231q78 0 115 -22q27 -52 27 -92q0 -79 -60 -142l-188 25l-4 219q50 12 110 12z" />
    <glyph glyph-name="quotedbl" unicode="&#x22;" horiz-adv-x="919" 
d="M725 1020h-147l-56 457q95 32 219 32l39 -39zM340 1020h-147l-56 457q95 32 219 32l39 -39z" />
    <glyph glyph-name="numbersign" unicode="#" horiz-adv-x="1230" 
d="M903 449h187v-170l-209 -33l-33 -273h-105l-34 33l28 248h-327l-33 -281h-105l-34 33l28 248h-190v170l215 33l37 311h-187v170l211 33l33 274h102l35 -33l-28 -249h329l33 282h102l35 -33l-28 -249h190v-170l-215 -33zM799 768h-328l-39 -319h330z" />
    <glyph glyph-name="dollar" unicode="$" horiz-adv-x="1095" 
d="M608 715l64 -29q85 -39 139 -72.5t95.5 -75t60 -91.5t18.5 -115q0 -81 -28.5 -143t-81.5 -101.5t-121.5 -62t-153.5 -29.5l4 -252l-112 -14l-27 16l8 250q-104 4 -184 28.5t-131.5 77.5t-51.5 129q0 82 60 129h147l33 -243q70 -10 131 -13l15 420l-68 31
q-64 29 -111 59.5t-86 72t-59.5 94.5t-20.5 118q0 141 94 226t261 100l-4 250l110 14l27 -16l-8 -246q71 -3 133 -18t113.5 -42.5t81.5 -73.5t30 -104q0 -80 -61 -125h-146l-33 242q-73 7 -122 10zM344 950q0 -67 38 -108.5t126 -81.5l-4 352q-160 -23 -160 -162zM592 481
l6 -370q164 24 164 170q0 74 -40.5 116.5t-129.5 83.5z" />
    <glyph glyph-name="percent" unicode="%" horiz-adv-x="1763" 
d="M1325 1237l12 -31q-33 -51 -179.5 -271.5t-227.5 -352.5q-57 -94 -181 -309.5t-198 -333.5l-107 47l-12 30q269 403 404 617q79 129 210 355t173 296zM434 1249q154 0 234 -101.5t80 -262.5q0 -180 -93.5 -286.5t-251.5 -106.5q-154 0 -232.5 101t-78.5 265
q0 180 92 285.5t250 105.5zM420 1157q-70 0 -104.5 -68t-34.5 -219q0 -152 34 -218t105 -66t105 66t34 218q0 151 -34.5 219t-104.5 68zM1358 731q154 0 233.5 -101.5t79.5 -264.5q0 -180 -93 -286t-251 -106q-154 0 -232.5 101t-78.5 264q0 180 92 286.5t250 106.5z
M1348 637q-71 0 -105.5 -67.5t-34.5 -217.5q0 -151 34.5 -217.5t105.5 -66.5t105 66t34 218q0 151 -34 218t-105 67z" />
    <glyph glyph-name="ampersand" unicode="&#x26;" horiz-adv-x="1527" 
d="M1509 96l-8 -84q-41 -20 -72 -27.5t-83 -7.5q-92 1 -179 37.5t-192 116.5l-10 8q-84 -82 -183.5 -124t-236.5 -42q-75 0 -142 11.5t-128.5 39.5t-106 70t-70.5 106.5t-26 145.5q0 153 89.5 243t252.5 134q-117 184 -117 334q0 104 56.5 180.5t146.5 114t200 37.5
q149 0 237.5 -73t88.5 -202t-92 -234t-256 -147q128 -173 356 -360q21 55 31.5 127t12 121.5t1.5 140.5q181 31 373 31v-152h-209q-5 -82 -39.5 -169.5t-95.5 -158.5q133 -101 281 -186zM694 1272q-76 0 -119 -50t-43 -137q0 -127 99 -286q108 61 153 136.5t45 168.5
q0 168 -135 168zM592 100q150 0 293 103q-271 230 -426 450q-150 -105 -150 -278q0 -92 43 -156t105 -91.5t135 -27.5z" />
    <glyph glyph-name="quotesingle" unicode="'" horiz-adv-x="534" 
d="M340 1020h-147l-56 457q95 32 219 32l39 -39z" />
    <glyph glyph-name="parenleft" unicode="(" horiz-adv-x="681" 
d="M461 1546l86 -41q-108 -218 -158.5 -440t-50.5 -487t50.5 -487.5t158.5 -440.5l-86 -41q-110 118 -185.5 286.5t-108 339t-32.5 343.5t32.5 343.5t108 338.5t185.5 286z" />
    <glyph glyph-name="parenright" unicode=")" horiz-adv-x="681" 
d="M135 1505l86 41q110 -118 185.5 -286t108 -338.5t32.5 -343.5t-32.5 -343.5t-108 -339t-185.5 -286.5l-86 41q108 218 158.5 440.5t50.5 487.5t-50.5 487t-158.5 440z" />
    <glyph glyph-name="asterisk" unicode="*" horiz-adv-x="972" 
d="M401 1604h172q9 -41 9 -74q0 -92 -52 -238h-86q-51 143 -51 238q0 38 8 74zM76 1245l53 162q26 -2 74 -14q66 -21 213 -121l-27 -82q-148 -4 -246 24q-27 7 -67 31zM844 1405l53 -160q-34 -21 -68 -31q-74 -28 -243 -28l-27 82q126 96 213 123q38 12 72 14zM395 1155
l72 -51q-17 -57 -45 -121t-55 -100q-21 -32 -52 -56l-137 99q17 41 37 67q50 67 180 162zM504 1102l69 53q134 -95 185 -162q21 -31 37 -65l-136 -101q-32 22 -53 54q-44 59 -102 221z" />
    <glyph glyph-name="plus" unicode="+" 
d="M709 532v-419h-162v419h-418v144h418v420h162v-420h419v-144h-419z" />
    <glyph glyph-name="comma" unicode="," horiz-adv-x="536" 
d="M254 254q61 0 104 -21q52 -75 52 -180q0 -140 -86.5 -246.5t-235.5 -146.5l-33 68q199 106 199 229q0 21 -4 41l-105 14l-6 228q57 14 115 14z" />
    <glyph glyph-name="hyphen" unicode="-" horiz-adv-x="733" 
d="M106 526v156h521v-156h-521z" />
    <glyph glyph-name="period" unicode="." horiz-adv-x="534" 
d="M289 276q48 0 78 -10q43 -58 43 -127q0 -71 -43 -139h-205l-37 242q70 34 164 34z" />
    <glyph glyph-name="slash" unicode="/" horiz-adv-x="667" 
d="M197 -373h-117l-29 25l422 1823h117l28 -25z" />
    <glyph glyph-name="zero" unicode="0" horiz-adv-x="1245" 
d="M643 1247q122 0 217 -46t154.5 -129.5t90 -194.5t30.5 -246q0 -304 -144.5 -481t-390.5 -177q-122 0 -217 46.5t-154.5 130.5t-89.5 195.5t-30 246.5q0 304 143.5 479.5t390.5 175.5zM623 1133q-135 0 -200 -128.5t-65 -392.5t65 -393t200 -129q133 0 197.5 129t64.5 393
t-64.5 392.5t-197.5 128.5z" />
    <glyph glyph-name="one" unicode="1" horiz-adv-x="819" 
d="M776 0h-690v100l236 37v836q-101 -23 -240 -23v125q99 5 194 45t158 127l109 -8v-1126h2l231 -13v-100z" />
    <glyph glyph-name="two" unicode="2" horiz-adv-x="1007" 
d="M942 152q0 -91 -14 -152h-867l-12 131q218 176 318 277q274 275 274 510q0 108 -54 162.5t-151 54.5q-60 0 -121 -21l-34 -264h-158q-62 45 -62 131q0 115 118.5 191.5t297.5 76.5q194 0 308 -95.5t114 -244.5q0 -74 -32.5 -150t-86.5 -145t-143.5 -149.5t-182 -151.5
t-223.5 -163l7 -19q145 22 276 33l256 18l21 123l139 -2q12 -58 12 -151z" />
    <glyph glyph-name="three" unicode="3" horiz-adv-x="1058" 
d="M680 594v-23q125 -26 199.5 -107t74.5 -210q0 -180 -143.5 -302t-372.5 -122q-163 0 -269 62.5t-106 177.5q0 81 58 133h155l33 -246q59 -12 119 -12t109 14.5t90 47.5t63.5 92.5t22.5 142.5q0 127 -64.5 196.5t-222.5 69.5h-84v125h197q131 90 131 272
q0 121 -58.5 175.5t-167.5 54.5q-57 0 -122 -19l-29 -235h-148q-59 49 -59 123q0 111 113.5 178t287.5 67q195 0 310.5 -92.5t115.5 -259.5q0 -227 -233 -303z" />
    <glyph glyph-name="four" unicode="4" horiz-adv-x="1083" 
d="M840 172v-315h-222v315h-557l-10 92q216 502 381 987l207 -61l6 -33q-209 -461 -422 -833l6 -21q144 14 240 14h149v404l164 45l58 -8v-441h194v-145h-194z" />
    <glyph glyph-name="five" unicode="5" horiz-adv-x="1048" 
d="M520 731q200 0 322.5 -115.5t122.5 -308.5q0 -209 -142.5 -343t-376.5 -134q-158 0 -259 62t-101 176q0 87 59 131h160l31 -242q55 -12 108 -12q124 0 200.5 77t76.5 230q0 148 -81 222t-259 83l-215 12l22 652l136 28q123 -49 260 -49q152 0 307 49l31 -82
q-135 -166 -355 -166q-129 0 -256 52l-24 -357q119 35 233 35z" />
    <glyph glyph-name="six" unicode="6" horiz-adv-x="1196" 
d="M713 895q93 0 168.5 -35t123.5 -94.5t73.5 -136.5t25.5 -164q0 -212 -137 -352t-365 -140q-240 0 -366.5 161.5t-126.5 445.5q0 241 87.5 425.5t243 284t353.5 99.5q88 0 170 -21l-5 -102q-273 0 -421 -126t-177 -390h23q139 145 330 145zM618 90q114 0 178 85.5
t64 246.5q0 309 -229 309q-150 0 -273 -143q-4 -33 -4 -92q0 -212 73 -309t191 -97z" />
    <glyph glyph-name="seven" unicode="7" horiz-adv-x="970" 
d="M940 1223l12 -86q-198 -299 -313 -546.5t-176 -486.5l55 -221l-166 -55q-137 51 -137 209q0 60 18.5 130t58.5 153t84 160t115 182t130 187.5t149 205.5l-10 14l-531 -35l-22 -157h-129q-15 74 -15 176q0 100 17 170h860z" />
    <glyph glyph-name="eight" unicode="8" horiz-adv-x="1153" 
d="M756 756v-23q68 -29 116.5 -59t91 -72.5t64 -101.5t21.5 -133q0 -100 -39.5 -177.5t-108 -123.5t-155 -69.5t-187.5 -23.5q-206 0 -330.5 93.5t-124.5 267.5q0 73 23.5 132.5t64 98t86 63.5t97.5 38v22q-242 111 -242 334q0 76 27.5 139t73 104.5t106.5 70t125.5 41
t132.5 12.5q114 0 207.5 -35t154 -112t60.5 -185q0 -69 -25 -125t-66.5 -90.5t-84 -55t-88.5 -30.5zM371 1061q0 -87 54 -139t183 -109l35 -14q152 73 152 241q0 105 -52.5 169.5t-156.5 64.5t-159.5 -60.5t-55.5 -152.5zM567 90q115 0 178.5 67.5t63.5 170.5q0 49 -14.5 85
t-52.5 68.5t-87.5 59.5t-136.5 65l-31 15q-84 -41 -120.5 -106t-36.5 -157q0 -125 60 -196.5t177 -71.5z" />
    <glyph glyph-name="nine" unicode="9" horiz-adv-x="1198" 
d="M592 1249q242 0 368.5 -161.5t126.5 -448.5q0 -364 -193 -586.5t-501 -222.5q-90 0 -182 20l6 103q275 0 433.5 129t185.5 387h-23q-136 -145 -326 -145q-125 0 -216.5 62.5t-135 159.5t-43.5 214q0 212 136.5 350.5t363.5 138.5zM567 483q149 0 271 142q4 66 4 94
q0 111 -20.5 192.5t-58 128t-83 68.5t-100.5 22q-114 0 -179 -86t-65 -247q0 -314 231 -314z" />
    <glyph glyph-name="colon" unicode=":" horiz-adv-x="534" 
d="M289 1040q48 0 78 -10q43 -58 43 -127q0 -71 -43 -139h-205l-37 242q70 34 164 34zM289 276q48 0 78 -10q43 -58 43 -127q0 -71 -43 -139h-205l-37 242q70 34 164 34z" />
    <glyph glyph-name="semicolon" unicode=";" horiz-adv-x="534" 
d="M289 1040q48 0 78 -10q43 -58 43 -127q0 -71 -43 -139h-205l-37 242q70 34 164 34zM254 254q61 0 104 -21q52 -75 52 -180q0 -140 -86.5 -246.5t-235.5 -146.5l-33 68q199 106 199 229q0 21 -4 41l-105 14l-6 228q57 14 115 14z" />
    <glyph glyph-name="less" unicode="&#x3c;" 
d="M360 612v-20l715 -383l-63 -129l-869 430v184l869 430l63 -127z" />
    <glyph glyph-name="equal" unicode="=" 
d="M129 328v143h999v-143h-999zM129 737v144h999v-144h-999z" />
    <glyph glyph-name="greater" unicode="&#x3e;" 
d="M1112 510l-868 -430l-64 129l715 383v20l-715 385l64 127l868 -430v-184z" />
    <glyph glyph-name="question" unicode="?" horiz-adv-x="741" 
d="M266 1376q95 0 171.5 -27t125.5 -71.5t81.5 -104.5t46.5 -123t14 -130q0 -69 -15.5 -116.5t-55.5 -87.5t-98.5 -71.5t-156.5 -69.5l-8 -192h-131q-64 150 -64 240q0 54 28 84t105 63q180 76 219 100q55 34 61 79q1 7 1 16q0 197 -455 188v209q72 14 131 14zM297 231
q78 0 115 -22q26 -50 26 -92q0 -80 -59 -142l-189 25l-4 219q50 12 111 12z" />
    <glyph glyph-name="at" unicode="@" horiz-adv-x="1916" 
d="M1114 1430q338 0 529.5 -179.5t191.5 -484.5q0 -154 -51 -281t-134.5 -207t-186.5 -123.5t-212 -43.5q-75 0 -108 22.5t-29 75.5l4 43h-22q-58 -84 -126.5 -120t-154.5 -36q-145 0 -221 93t-76 266q0 114 33.5 221t94.5 193.5t158 139t214 52.5q146 0 231 -82
q69 48 129 65l43 -18l-100 -799q164 19 264.5 155t100.5 359q0 266 -150 420t-430 154q-182 0 -336.5 -64.5t-259.5 -177t-164 -266.5t-59 -330q0 -631 766 -631v-79q-114 -27 -207 -27q-123 0 -234 27.5t-206 85.5t-164 142t-108.5 202.5t-39.5 261.5q0 202 77.5 382
t212 309t324.5 204.5t406 75.5zM1114 369l64 514q-69 59 -142 59q-85 0 -149.5 -69.5t-95.5 -173t-31 -218.5q0 -120 38 -169.5t117 -49.5q60 0 104 25.5t95 81.5z" />
    <glyph glyph-name="A" unicode="A" horiz-adv-x="1411" 
d="M1389 0h-535v104l141 35l-80 252h-526q-44 -135 -84 -274l141 -13v-104h-423v104l127 35q248 769 423 1219l195 31l31 -5q167 -413 456 -1267l134 -13v-104zM426 514h451q-147 443 -220 631h-20q-76 -204 -211 -631z" />
    <glyph glyph-name="B" unicode="B" horiz-adv-x="1296" 
d="M918 723v-21q276 -63 276 -331q0 -371 -530 -371h-574v104l156 37v1102l-158 12v105q316 16 522 16q262 0 392.5 -94t130.5 -264q0 -218 -215 -295zM881 1014q0 119 -63 179t-208 60h-129v-493h277q123 87 123 254zM481 123h183q150 0 214 64.5t64 197.5
q0 129 -66.5 193.5t-224.5 64.5h-170v-520z" />
    <glyph glyph-name="C" unicode="C" horiz-adv-x="1337" 
d="M1190 270l41 -90q-175 -207 -483 -207q-127 0 -233.5 35.5t-183.5 99t-131 151t-80 192t-26 221.5q0 156 47 287t135.5 227t223 149.5t301.5 53.5q197 0 381 -80q10 -48 10 -119q0 -81 -16 -207h-150l-43 248q-86 26 -176 26q-221 0 -335 -138t-114 -406
q0 -285 122.5 -428.5t338.5 -143.5q197 0 371 129z" />
    <glyph glyph-name="D" unicode="D" horiz-adv-x="1452" 
d="M590 1376q138 0 251 -22t197 -64t145.5 -100t99.5 -133.5t56.5 -161.5t18.5 -186q0 -161 -43.5 -290t-130.5 -223t-226.5 -145t-322.5 -51h-547v104l156 37v1102l-156 12v107q270 14 502 14zM483 125h152q244 0 351.5 138.5t107.5 436.5q0 278 -103 414.5t-340 136.5
h-168v-1126z" />
    <glyph glyph-name="E" unicode="E" horiz-adv-x="1261" 
d="M1006 334l147 -12q6 -43 6 -105q0 -93 -26 -217h-1045v104l156 37v1102l-156 14v105h1049v-8q10 -58 10 -129q0 -90 -14 -183h-144l-35 185l-471 16v-481l262 2l23 119h104v-379h-104l-25 131l-260 2v-518l465 16z" />
    <glyph glyph-name="F" unicode="F" horiz-adv-x="1187" 
d="M88 1362h1024q12 -49 12 -139q0 -88 -14 -181h-145l-35 183l-447 18v-528l260 2l23 123h108v-387h-108l-25 135l-258 4v-471h2l197 -15v-106h-594v104l156 37v1102l-156 14v105z" />
    <glyph glyph-name="G" unicode="G" horiz-adv-x="1406" 
d="M1321 496l-100 -35v-406q-88 -38 -211 -60t-234 -22q-169 0 -301.5 54.5t-214.5 150.5t-124 220t-42 270q0 211 85 373.5t250 255t388 92.5q210 0 385 -80q10 -48 10 -117q0 -97 -16 -188h-149l-37 219q-79 34 -191 34q-226 0 -343.5 -143.5t-117.5 -431.5
q0 -287 114.5 -432.5t320.5 -145.5q114 0 225 48l-29 331l-186 13v104h518v-104z" />
    <glyph glyph-name="H" unicode="H" horiz-adv-x="1579" 
d="M1333 117h2l156 -13v-104h-549v104l152 37v500h-611v-524h2l164 -13v-104h-561v104l156 37v1104l-156 12v105h561v-105l-164 -34h-2v-455h611v477l-166 12v105h563v-105l-156 -34h-2v-1106z" />
    <glyph glyph-name="I" unicode="I" horiz-adv-x="729" 
d="M483 117h2l156 -13v-104h-553v104l156 37v1104l-156 12v105h553v-105l-156 -34h-2v-1106z" />
    <glyph glyph-name="J" unicode="J" horiz-adv-x="991" 
d="M938 1257l-156 -34h-2v-842q0 -112 -32.5 -194t-90.5 -127.5t-127 -66t-153 -20.5q-162 0 -251 71t-89 171q0 78 59 131h152l41 -237q41 -9 76 -9q86 0 131 53.5t45 182.5v909l-226 12v105h623v-105z" />
    <glyph glyph-name="K" unicode="K" horiz-adv-x="1411" 
d="M1372 100l-8 -86q-82 -32 -152 -32q-99 0 -158 40.5t-120 133.5q-36 55 -78.5 131.5t-104 191t-85.5 158.5h-183v-520h2l164 -13v-104h-561v104l156 37v1102l-156 12v107h549v-105l-152 -34h-2v-461h203q157 212 338 481l-168 14v105h477v-105l-123 -28
q-183 -237 -374 -457q46 -64 104 -150.5t88 -133t112.5 -178t98.5 -156.5z" />
    <glyph glyph-name="L" unicode="L" horiz-adv-x="1142" 
d="M938 352l145 -12q7 -116 7 -123q0 -112 -27 -217h-975v104l156 37v1104l-156 12v105h578v-105l-181 -34h-2v-1104l391 14z" />
    <glyph glyph-name="M" unicode="M" horiz-adv-x="1869" 
d="M1817 0h-562v104l166 37q-9 505 -28 1059h-21q-23 -109 -88 -295l-291 -837l-151 -27l-33 4l-295 846q-43 128 -90 309h-21q-24 -526 -34 -1083l170 -13v-104h-486v104l158 37q19 537 61 1102l-157 14v105h495q138 -386 324 -995h22q149 493 328 995h473v-105l-153 -32
q36 -517 57 -1108l156 -13v-104z" />
    <glyph glyph-name="N" unicode="N" horiz-adv-x="1554" 
d="M1329 1223v-1219l-192 -31l-35 4l-543 922q-92 156 -156 301h-20l16 -1083l185 -13v-104h-496v104l156 37v1102l-156 14v105h479l432 -733q103 -179 175 -326h20l-20 942l-185 12v105h496v-105z" />
    <glyph glyph-name="O" unicode="O" horiz-adv-x="1523" 
d="M786 1389q126 0 231.5 -34.5t181 -97t128 -148.5t78 -188.5t25.5 -218.5q0 -214 -85.5 -379.5t-243 -257.5t-362.5 -92q-156 0 -280.5 54t-203 149t-120 220.5t-41.5 271.5q0 213 84.5 376t242 254t365.5 91zM764 1257q-190 0 -296 -144t-106 -429q0 -286 106.5 -433
t295.5 -147q187 0 293 147t106 433q0 285 -105.5 429t-293.5 144z" />
    <glyph glyph-name="P" unicode="P" horiz-adv-x="1234" 
d="M614 1376q274 0 409.5 -114t135.5 -330q0 -200 -114.5 -318t-301.5 -118q-47 0 -159 16v106h43q138 0 203 75.5t65 236.5t-68.5 240t-224.5 79h-119v-1128l195 -15v-106h-590v104l156 37v1102l-156 12v105q316 16 526 16z" />
    <glyph glyph-name="Q" unicode="Q" horiz-adv-x="1523" 
d="M786 1389q157 0 281.5 -53.5t202.5 -147.5t119 -217.5t41 -268.5q0 -246 -110.5 -422.5t-305.5 -250.5v-23l276 -227l133 -49l-6 -90q-85 -29 -166 -29q-79 0 -134.5 24t-106.5 91l-215 247h-60q-155 0 -278.5 54.5t-202 150t-119.5 221t-41 271.5q0 322 189 520.5
t503 198.5zM764 1257q-190 0 -296 -144t-106 -429q0 -286 106.5 -433t295.5 -147q187 0 293 147t106 433q0 285 -105.5 429t-293.5 144z" />
    <glyph glyph-name="R" unicode="R" horiz-adv-x="1335" 
d="M1321 100l-6 -86q-72 -32 -158 -32q-95 0 -149.5 36.5t-102.5 104.5q-32 46 -75 114.5t-106 173t-91 150.5h-154v-444l166 -13v-104h-557v104l156 37v1102l-156 12v105q282 16 473 16q594 0 594 -397q0 -147 -75.5 -232.5t-211.5 -130.5l-6 -20q56 -56 112.5 -132.5
t119 -170t100.5 -143.5zM479 688h275q71 47 105 115.5t34 171.5q0 141 -68.5 206t-222.5 66h-123v-559z" />
    <glyph glyph-name="S" unicode="S" horiz-adv-x="1128" 
d="M522 846l172 -78q82 -36 138 -69.5t105.5 -81t74 -111t24.5 -144.5q0 -100 -38.5 -176t-108 -122t-160 -68.5t-199.5 -22.5q-218 0 -403 80q-23 103 -23 191q0 46 9 98l139 12l63 -219q92 -35 207 -35q136 0 202.5 48.5t66.5 152.5q0 94 -51.5 146t-164.5 102l-178 80
q-59 27 -104.5 58t-84 74.5t-59 103t-20.5 132.5q0 182 125.5 287t341.5 105q196 0 369 -82q12 -62 12 -115q0 -70 -16 -168h-148l-37 207q-85 31 -180 31q-123 0 -185.5 -52.5t-62.5 -154.5q0 -79 39.5 -123t134.5 -86z" />
    <glyph glyph-name="T" unicode="T" horiz-adv-x="1255" 
d="M63 1362h1129q10 -55 10 -135q0 -126 -14 -209h-141l-41 215l-258 12v-1124l178 -15v-106h-594v106l176 37v1100l-258 -10l-41 -215h-141q-15 88 -15 209q0 80 10 135z" />
    <glyph glyph-name="U" unicode="U" horiz-adv-x="1474" 
d="M1266 1221v-768q0 -219 -137 -349.5t-388 -130.5q-254 0 -393 133.5t-139 360.5v778l-156 12v105h555v-105l-157 -34h-2v-764q0 -185 83.5 -271t245.5 -86q330 0 330 357v786l-180 12v105h493v-105z" />
    <glyph glyph-name="V" unicode="V" horiz-adv-x="1384" 
d="M1362 1257l-119 -32q-92 -290 -216.5 -647.5t-209.5 -573.5l-188 -31l-31 4q-186 468 -453 1268l-122 12v105h540v-105l-155 -34q192 -633 331 -1006h23q62 175 158.5 479t166.5 549l-174 12v105h449v-105z" />
    <glyph glyph-name="W" unicode="W" horiz-adv-x="2160" 
d="M2118 1257l-119 -32q-198 -656 -393 -1221l-191 -31l-31 4q-193 568 -280 848h-25q-149 -470 -282 -821l-191 -31l-31 4q-215 619 -413 1268l-119 12v105h541v-105l-158 -34q167 -618 293 -1006h20q152 436 287 856l-55 170l-117 14v105h545v-105l-182 -34
q5 -18 42 -143.5t49 -167.5t45 -152.5t50.5 -166.5t43 -138t44.5 -138.5t35 -99.5h22q174 564 293 1028l-172 12v105h449v-105z" />
    <glyph glyph-name="X" unicode="X" horiz-adv-x="1441" 
d="M1389 0h-582v104l149 37q-169 287 -274 434h-27q-107 -145 -313 -458l160 -13v-104h-449v104l119 33q224 302 422 539q-226 329 -369 569l-143 12v105h582v-105l-152 -32q157 -266 260 -406h23q44 63 84.5 125.5t103 162.5t86.5 138l-156 12v105h449v-105l-119 -30
q-258 -359 -383 -512q188 -271 391 -600l138 -11v-104z" />
    <glyph glyph-name="Y" unicode="Y" horiz-adv-x="1378" 
d="M1333 1257l-116 -34q-165 -341 -392 -738v-368l176 -13v-104h-593v104l178 37v334q-205 355 -412 770l-129 12v105h541v-105l-148 -30q146 -303 303 -584h23q158 270 301 602l-178 12v105h446v-105z" />
    <glyph glyph-name="Z" unicode="Z" horiz-adv-x="1220" 
d="M989 350l156 -12q6 -87 6 -107q0 -120 -27 -231h-1038l-12 66l618 952q23 35 49 72t58.5 81t46.5 64l-10 16l-535 -22l-35 -205h-149q-17 121 -17 184q0 97 13 154h1022l12 -66l-600 -927q-53 -82 -172 -242l12 -14l551 20z" />
    <glyph glyph-name="bracketleft" unicode="[" horiz-adv-x="677" 
d="M567 1407l-219 -12q37 -380 37 -801q0 -433 -37 -832l219 -12v-110h-368v1876h368v-109z" />
    <glyph glyph-name="backslash" unicode="\" horiz-adv-x="667" 
d="M590 -373h-117l-422 1823l29 25h117l421 -1823z" />
    <glyph glyph-name="bracketright" unicode="]" horiz-adv-x="677" 
d="M479 -360h-368v110l219 12q-37 399 -37 832q0 421 37 801l-219 12v109h368v-1876z" />
    <glyph glyph-name="asciicircum" unicode="^" horiz-adv-x="921" 
d="M735 956l-264 351h-20l-265 -351l-125 78l316 471h168l315 -471z" />
    <glyph glyph-name="underscore" unicode="_" horiz-adv-x="933" 
d="M86 -291v123h760v-123h-760z" />
    <glyph glyph-name="grave" unicode="`" horiz-adv-x="538" 
d="M360 1174l-299 286q48 89 127 125h101l188 -411h-117z" />
    <glyph glyph-name="a" unicode="a" horiz-adv-x="1083" 
d="M1042 127v-92q-104 -51 -196 -51q-76 0 -112 32.5t-36 98.5v28h-22q-127 -170 -316 -170q-135 0 -208.5 72.5t-73.5 190.5q0 70 29 124.5t75 88.5t109.5 55.5t126.5 30t133 8.5q77 0 135 -8l2 194q3 219 -211 219q-52 0 -98 -10l-33 -240h-149q-64 46 -64 117t60.5 128
t152.5 86.5t193 29.5q170 0 270.5 -86t99.5 -244l-8 -588zM444 121q132 0 240 131l2 199h-45q-175 0 -251.5 -46t-76.5 -147q0 -137 131 -137z" />
    <glyph glyph-name="b" unicode="b" horiz-adv-x="1212" 
d="M391 1528v-418q0 -64 -16 -221h22q129 170 326 170q128 0 218 -66t133.5 -178t43.5 -260q0 -271 -145 -426.5t-408 -155.5q-91 0 -199 18t-196 46v1331l-137 29v96q157 42 315 49zM635 895q-76 0 -134 -30.5t-110 -92.5v-637q86 -45 195 -45q293 0 293 430q0 203 -63 289
t-181 86z" />
    <glyph glyph-name="c" unicode="c" horiz-adv-x="1024" 
d="M911 238l39 -82q-150 -183 -397 -183q-118 0 -209.5 41.5t-148 114.5t-85 166.5t-28.5 202.5q0 255 142 408t366 153q64 0 122 -13.5t108 -40.5t80 -74.5t30 -109.5q0 -85 -62 -131h-159l-31 250q-39 8 -70 8q-133 0 -207.5 -101t-74.5 -298q0 -205 79 -309.5t218 -104.5
q136 0 288 103z" />
    <glyph glyph-name="d" unicode="d" horiz-adv-x="1230" 
d="M1042 162l138 -37v-92q-182 -44 -312 -49l-43 12l13 147h-23q-129 -170 -328 -170q-190 0 -291.5 138t-101.5 364q0 263 134.5 423.5t361.5 160.5q125 0 231 -41v350l-135 27v96q166 45 313 51l43 -14v-1366zM616 944q-143 0 -212.5 -113.5t-69.5 -318.5
q0 -202 63 -287.5t183 -85.5q78 0 134.5 31t106.5 90v629q-91 55 -205 55z" />
    <glyph glyph-name="e" unicode="e" horiz-adv-x="1067" 
d="M934 242l39 -82q-151 -187 -408 -187q-122 0 -216.5 42t-151.5 115t-86 166t-29 202q0 256 142.5 408.5t373.5 152.5q187 0 280 -102t93 -269q0 -88 -21 -164h-631q6 -190 88 -288.5t224 -98.5q141 0 303 105zM569 944q-98 0 -166 -83t-81 -240l428 18v12q0 293 -181 293
z" />
    <glyph glyph-name="f" unicode="f" horiz-adv-x="698" 
d="M598 1542q123 0 206 -47t83 -131q0 -61 -49 -104h-154l-25 167q-25 5 -41 5q-87 0 -139.5 -55.5t-52.5 -196.5v-152h264v-121h-264v-794l203 -13v-100h-559v100l135 37v768h-2l-140 15v96l142 33v71q0 112 29.5 195t83.5 131.5t124 72t156 23.5z" />
    <glyph glyph-name="g" unicode="g" horiz-adv-x="1114" 
d="M930 1008l-60 -70q84 -93 84 -225q0 -165 -124.5 -265t-325.5 -100q-63 0 -107 8v-139l316 -35q187 -24 267.5 -83t80.5 -162q0 -167 -173 -270t-452 -103q-401 0 -401 248q0 100 59.5 165.5t155.5 77.5q-6 129 39 334q-96 42 -145.5 120.5t-49.5 178.5q0 166 125 268.5
t326 102.5q157 0 264 -70q21 98 58.5 154.5t109.5 56.5q63 0 108 -45l-16 -147h-139zM524 461q101 0 151 62.5t50 178.5q0 118 -50 181t-151 63q-200 0 -200 -244q0 -241 200 -241zM612 -18l-309 41q-51 -73 -51 -164q0 -181 260 -181q88 0 168.5 18.5t138.5 60.5t58 98
q0 31 -19.5 51.5t-78.5 40t-167 35.5z" />
    <glyph glyph-name="h" unicode="h" horiz-adv-x="1245" 
d="M1223 0h-498v100l123 37h2v545q0 213 -193 213q-144 0 -245 -123v-659l141 -13v-100h-500v100l135 37h2v1229l-137 29v96q166 45 316 51l43 -14v-418q0 -39 -2.5 -75t-8 -86.5t-6.5 -59.5h23q134 170 327 170q149 0 237.5 -87t88.5 -249v-610l152 -13v-100z" />
    <glyph glyph-name="i" unicode="i" horiz-adv-x="614" 
d="M575 0h-507v100l135 37v731l-135 41v95q161 40 313 49l43 -13v-925l151 -15v-100zM319 1501q50 0 78 -12q35 -53 35 -109q0 -60 -51 -133h-180l-29 232q73 22 147 22z" />
    <glyph glyph-name="j" unicode="j" horiz-adv-x="581" 
d="M412 1040v-1046q0 -111 -33 -191.5t-95.5 -135.5t-164.5 -103l-62 63l131 191v1050l-135 41v95q155 39 314 49zM307 1501q50 0 78 -12q35 -53 35 -109q0 -60 -51 -133h-181l-28 232q73 22 147 22z" />
    <glyph glyph-name="k" unicode="k" horiz-adv-x="1175" 
d="M1157 86l-6 -76q-70 -28 -143 -28q-82 0 -134 31.5t-98 107.5q-12 20 -36 62t-74.5 132t-94.5 168h-159v-370l129 -11v-102h-488v100l135 37h2v1231l-137 29v96q157 42 316 49l43 -14v-928h143q133 150 266 315l-143 13v100h436v-100l-129 -33q-152 -155 -270 -266
q102 -141 332 -500z" />
    <glyph glyph-name="l" unicode="l" horiz-adv-x="600" 
d="M561 0h-508v100l135 37h2v1231l-137 29v96q157 42 316 49l43 -14v-1415l149 -13v-100z" />
    <glyph glyph-name="m" unicode="m" horiz-adv-x="1900" 
d="M1878 0h-481v100l110 37v545q0 213 -188 213q-132 0 -244 -119v-663l121 -13v-100h-434v100l92 37v545q0 213 -186 213q-146 0 -244 -123v-659l135 -13v-100h-491v100l135 37v731l-135 41v95q170 43 309 49l43 -13l-10 -151h22q71 91 148.5 130.5t177.5 39.5
q56 0 101.5 -12.5t72.5 -29t50.5 -43.5t33 -44.5t22.5 -44.5h27q143 174 340 174q151 0 237.5 -86.5t86.5 -249.5v-610l149 -13v-100z" />
    <glyph glyph-name="n" unicode="n" horiz-adv-x="1263" 
d="M1241 0h-498v100l123 37v545q0 106 -49.5 159.5t-144.5 53.5q-143 0 -248 -123v-659l143 -13v-100h-499v100l135 37v731l-135 41v95q186 44 309 49l43 -13l-10 -151h22q134 170 328 170q149 0 238 -87t89 -249v-610l154 -13v-100z" />
    <glyph glyph-name="o" unicode="o" horiz-adv-x="1175" 
d="M610 1059q121 0 215 -41.5t152 -114t87.5 -166t29.5 -202.5q0 -250 -144 -406t-385 -156q-120 0 -214 41.5t-152 114.5t-87.5 167t-29.5 204q0 251 143.5 405t384.5 154zM588 944q-131 0 -194.5 -105t-63.5 -321q0 -218 63.5 -323t194.5 -105t193.5 105t62.5 323
q0 217 -63 321.5t-193 104.5z" />
    <glyph glyph-name="p" unicode="p" horiz-adv-x="1230" 
d="M743 1059q128 0 218 -65.5t133 -177t43 -259.5q0 -260 -133 -422t-365 -162q-119 0 -229 43v-313l155 -12v-101h-512v101l135 35v1142l-135 41v95q170 43 309 49l44 -13l-11 -151h23q126 170 325 170zM612 90q145 0 215 113t70 319q0 202 -63 287.5t-181 85.5
q-76 0 -133.5 -30.5t-109.5 -92.5v-629q89 -53 202 -53z" />
    <glyph glyph-name="q" unicode="q" horiz-adv-x="1212" 
d="M1180 -410h-529v101l170 35v219q0 35 2.5 67.5t8 77t6.5 53.5h-23q-129 -170 -328 -170q-190 0 -291.5 138.5t-101.5 363.5q0 170 56.5 300t174.5 207t283 77q86 0 145.5 -19t120.5 -57q58 52 125 70l43 -17v-1333h2l136 -12v-101zM821 260v604q-54 41 -99 59.5t-99 18.5
q-145 0 -217 -113.5t-72 -318.5q0 -200 63 -285.5t183 -85.5q78 0 134.5 31t106.5 90z" />
    <glyph glyph-name="r" unicode="r" horiz-adv-x="823" 
d="M778 821h-225q-76 -56 -129 -145v-559l199 -13v-104h-555v106l135 31v731l-135 41v95q167 44 301 49l43 -13l-13 -223h23q58 112 118.5 177t135.5 65q78 0 117 -70z" />
    <glyph glyph-name="s" unicode="s" horiz-adv-x="942" 
d="M451 653l124 -51q70 -29 115.5 -54t87 -61.5t61 -85.5t19.5 -114q0 -159 -115 -236.5t-305 -77.5q-181 0 -344 70q-10 48 -10 121q0 76 14 145h142l28 -194q77 -29 162 -29q103 0 156 38t53 109q0 61 -38.5 97t-125.5 71l-117 50q-58 25 -98 49t-75.5 59t-53.5 82.5
t-18 108.5q0 147 102.5 228t286.5 81q162 0 301 -64q12 -58 12 -121q0 -74 -14 -143h-127l-33 187q-66 28 -145 28q-91 0 -139 -37.5t-48 -107.5q0 -55 31 -85t111 -63z" />
    <glyph glyph-name="t" unicode="t" horiz-adv-x="768" 
d="M719 158l24 -90q-121 -95 -278 -95q-129 0 -205 64t-76 192v680l-139 17v90l150 33l141 251l70 -4v-268h299v-121h-299v-649q0 -77 30.5 -108t100.5 -31t182 39z" />
    <glyph glyph-name="u" unicode="u" horiz-adv-x="1245" 
d="M1194 129v-96q-151 -39 -311 -49l-43 12l10 151h-21q-136 -174 -329 -174q-147 0 -235.5 88.5t-88.5 251.5v555l-135 41v95q185 44 313 49l43 -13v-686q0 -215 191 -215q139 0 248 125v606l-129 39v95q186 44 307 49l43 -13v-874z" />
    <glyph glyph-name="v" unicode="v" horiz-adv-x="1171" 
d="M1157 928l-123 -31q-78 -230 -346 -893l-147 -31l-31 4q-232 552 -367 938l-129 13v100h465v-100l-92 -33q126 -370 246 -668h22q135 351 240 688l-154 13v100h416v-100z" />
    <glyph glyph-name="w" unicode="w" horiz-adv-x="1814" 
d="M1763 928l-121 -33q-128 -447 -284 -891l-158 -31l-31 4q-121 352 -233 752h-21q-20 -61 -76.5 -233t-94.5 -283.5t-74 -208.5l-160 -31l-31 4q-169 472 -301 941l-127 10v100h471v-100l-100 -35q60 -263 188 -666h21q149 425 252 797l147 31l33 -4q134 -515 235 -824h23
q133 465 180 688l-153 13v100h415v-100z" />
    <glyph glyph-name="x" unicode="x" horiz-adv-x="1134" 
d="M1116 0h-487v100l90 31q-101 162 -193 295h-20q-138 -203 -203 -315l143 -11v-100h-428v100l132 35q118 156 305 377q-217 299 -285 403l-135 13v100h489v-100l-92 -31q28 -45 62 -95.5t71 -104t51 -74.5h19q92 139 182 295l-133 10v100h416v-100l-131 -33
q-126 -164 -285 -352q224 -317 295 -430l137 -13v-100z" />
    <glyph glyph-name="y" unicode="y" horiz-adv-x="1171" 
d="M1157 928l-127 -33q-165 -476 -383 -985q-75 -171 -171.5 -258.5t-209.5 -87.5q-100 0 -149 65l14 121h299q63 97 102 203q-180 386 -389 962l-129 13v100h465v-100l-92 -33q113 -340 244 -668h24q148 400 236 688l-150 13v100h416v-100z" />
    <glyph glyph-name="z" unicode="z" horiz-adv-x="948" 
d="M752 326l131 -11q6 -47 6 -104q0 -115 -29 -211h-788l-15 100l410 598q43 65 151 211l-8 17l-356 -19l-33 -188h-127q-14 66 -14 168q0 98 12 141h762l14 -102l-403 -594q-54 -80 -154 -213l11 -15l380 15z" />
    <glyph glyph-name="braceleft" unicode="{" horiz-adv-x="661" 
d="M559 1419l-217 -53q104 -462 104 -573q0 -78 -47.5 -122t-169.5 -65v-20q122 -21 169.5 -64.5t47.5 -124.5q0 -34 -6.5 -87t-20 -127t-23.5 -126.5t-29 -145t-25 -122.5l217 -53v-98q-72 -7 -110 -7q-275 0 -275 193q0 28 5 70t19 125t25 144t38 205q12 63 18 97l-170 74
v114l170 74q-8 41 -21 105t-19.5 97t-16 83t-14.5 77t-11.5 64t-10 58.5t-7 46t-4.5 42t-1 31.5q0 193 277 193q49 0 108 -6v-99z" />
    <glyph glyph-name="bar" unicode="|" horiz-adv-x="567" 
d="M211 -246v1782h143v-1782h-143z" />
    <glyph glyph-name="braceright" unicode="}" horiz-adv-x="661" 
d="M553 539l-170 -74q35 -187 46 -247.5t29 -166t23.5 -151t5.5 -76.5q0 -193 -274 -193q-39 0 -111 7v98l217 53q-6 30 -25 122.5t-29 145t-23.5 126.5t-20 127t-6.5 87q0 81 47.5 124.5t169.5 64.5v20q-122 21 -169.5 65t-47.5 122q0 111 104 573l-217 53v99q59 6 109 6
q276 0 276 -193q0 -38 -12 -117t-26.5 -153t-49.5 -253q-3 -17 -5 -27t-5 -25.5t-6 -28.5l170 -74v-114z" />
    <glyph glyph-name="asciitilde" unicode="~" 
d="M1063 723l74 -57q-13 -41 -34 -79.5t-53 -79.5t-79.5 -66t-102.5 -25q-43 0 -90.5 18t-152.5 72q-104 51 -256 137l-172 -170l-74 57q14 42 35 81.5t53.5 79.5t79 64.5t100.5 24.5q42 0 91.5 -17.5t152.5 -72.5q50 -25 143.5 -74.5t114.5 -60.5z" />
    <glyph glyph-name="uni00A0" unicode="&#xa0;" horiz-adv-x="512" 
 />
    <glyph glyph-name="exclamdown" unicode="&#xa1;" horiz-adv-x="577" 
d="M281 1059q75 0 114 -23q27 -52 27 -92q0 -78 -60 -141l-188 24l-4 220q50 12 111 12zM217 618h139q5 -57 19 -224t21.5 -262.5t14.5 -227t7 -221.5q-98 -33 -223 -33l-39 37q0 113 10 270.5t27.5 367t23.5 293.5z" />
    <glyph glyph-name="cent" unicode="&#xa2;" horiz-adv-x="1044" 
d="M930 338l39 -86q-127 -156 -324 -182l6 -213l-112 -15l-27 17l6 209q-106 8 -188.5 52.5t-133 116t-76.5 160.5t-26 191q0 226 115.5 376t308.5 181l-6 217l111 14l26 -16l-6 -209q62 -4 116 -19.5t101 -43.5t74 -74t27 -105q0 -84 -60 -131h-151l-33 254q-20 3 -78 8
q-6 -194 -6 -411q0 -219 6 -404q147 0 291 113zM336 639q0 -322 188 -393q4 230 4 370q0 220 -6 408q-186 -66 -186 -385z" />
    <glyph glyph-name="sterling" unicode="&#xa3;" horiz-adv-x="1198" 
d="M987 350h121q6 -58 6 -114q0 -146 -57.5 -204.5t-190.5 -58.5q-183 0 -532 107q-59 -107 -154 -107q-45 0 -88 25l-18 166l170 59q67 70 67 187q0 60 -16 129h-201v116h170q-28 126 -28 193q0 178 124.5 287.5t327.5 109.5q69 0 129.5 -13t110.5 -40t79 -74t29 -108
q0 -83 -61 -131h-148l-32 245q-70 9 -99 9q-109 0 -163 -62.5t-54 -173.5q0 -24 2.5 -48t8 -52t9.5 -45t13 -50.5t12 -46.5h312v-116h-289q4 -40 4 -60q0 -95 -48 -164.5t-163 -134.5l8 -18q125 22 209 22q182 0 369 -34z" />
    <glyph glyph-name="currency" unicode="&#xa4;" horiz-adv-x="1148" 
d="M958 604q0 -122 -61 -207l182 -180l-106 -108l-187 186q-91 -51 -219 -51q-124 0 -207 47l-182 -182l-108 106l176 176q-53 83 -53 195q0 130 73 219l-196 192l108 107l207 -205q95 45 213 45q103 0 178 -35l199 195l106 -107l-184 -184q61 -82 61 -209zM582 362
q170 0 170 234q0 229 -170 229q-88 0 -135.5 -59.5t-47.5 -169.5q0 -112 47.5 -173t135.5 -61z" />
    <glyph glyph-name="yen" unicode="&#xa5;" horiz-adv-x="1325" 
d="M1262 1120l-134 -35q-98 -189 -215 -378h234v-117h-305l-62 -101v-73h365v-117h-365v-182h2l172 -13v-104h-561v104l156 37v158h-367v117h367v76l-60 98h-307v117h236q-129 203 -236 401l-119 12v105h529v-105l-146 -33q138 -277 254 -473h23q113 185 254 494l-143 12
v105h428v-105z" />
    <glyph glyph-name="brokenbar" unicode="&#xa6;" horiz-adv-x="567" 
d="M211 920v616h143v-616h-143zM211 -246v617h143v-617h-143z" />
    <glyph glyph-name="section" unicode="&#xa7;" horiz-adv-x="1046" 
d="M993 446q0 -79 -42 -142t-146 -114q47 -64 47 -153q0 -141 -98.5 -226t-261.5 -85q-143 0 -231.5 62t-88.5 157q0 70 55 112h129l31 -209q65 -12 105 -12q88 0 130 40.5t42 105.5q0 56 -42 98t-182 143q-21 15 -32 23q-191 144 -243 194q-89 83 -106 164q-6 29 -6 62
q0 82 42.5 145t146.5 113q-47 71 -47 157q0 137 98.5 222.5t261.5 85.5q143 0 231 -62.5t88 -157.5q0 -67 -55 -112h-131l-29 209q-64 12 -106 12q-87 0 -129.5 -40t-42.5 -103q0 -22 4.5 -39.5t21 -39t30.5 -36.5t51.5 -43.5t63 -47.5t85.5 -61q66 -48 98.5 -72.5t78.5 -61
t67.5 -58.5t48 -52.5t37 -56t18.5 -56.5t8 -65zM553 406q111 -78 184 -142q64 61 64 123q0 69 -64.5 132.5t-242.5 189.5q-152 109 -187 141q-33 -31 -47 -59t-14 -64q0 -60 57.5 -120t249.5 -201z" />
    <glyph glyph-name="dieresis" unicode="&#xa8;" horiz-adv-x="794" 
d="M199 1485q43 0 73 -10q33 -58 33 -103q0 -54 -45 -121h-162l-28 211q63 23 129 23zM618 1485q44 0 74 -10q33 -58 33 -103q0 -54 -45 -121h-162l-29 211q63 23 129 23z" />
    <glyph glyph-name="copyright" unicode="&#xa9;" horiz-adv-x="1628" 
d="M825 1389q208 0 369 -86.5t250.5 -245.5t89.5 -365q0 -215 -96.5 -380t-262.5 -252t-374 -87q-315 0 -511 195t-196 508q0 215 96 378.5t261.5 249t373.5 85.5zM813 84q252 0 408.5 163t156.5 437q0 272 -155.5 433t-407.5 161t-408.5 -161t-156.5 -433
q0 -273 155.5 -436.5t407.5 -163.5zM885 395q106 0 217 86l37 -73q-118 -144 -314 -144q-179 0 -275.5 115t-96.5 289q0 193 113.5 311.5t285.5 118.5q68 0 127.5 -18.5t102 -63.5t42.5 -111q0 -72 -47 -104h-135l-24 184q-33 8 -66 8q-85 0 -129.5 -73.5t-44.5 -212.5
q0 -158 54 -235t153 -77z" />
    <glyph glyph-name="ordfeminine" unicode="&#xaa;" horiz-adv-x="755" 
d="M727 547v-70q-80 -39 -158 -39q-96 0 -96 80v21h-14q-80 -109 -203 -109q-91 0 -143 48.5t-52 131.5q0 62 29.5 105.5t80 65t101.5 30t111 8.5q50 0 82 -4l2 111q1 83 -34 116t-97 33q-22 0 -68 -8l-20 -154h-107q-43 34 -43 84q0 69 80.5 117.5t188.5 48.5
q119 0 193 -61.5t73 -179.5l-6 -367zM317 549q81 0 146 78l2 123l-33 -2q-103 -5 -146.5 -31t-43.5 -88q0 -80 75 -80z" />
    <glyph glyph-name="guillemotleft" unicode="&#xab;" horiz-adv-x="1120" 
d="M793 563l172 -325l-99 -68l-321 369v49l319 368l99 -67zM358 563l172 -325l-98 -68l-321 369v49l319 368l98 -67z" />
    <glyph glyph-name="logicalnot" unicode="&#xac;" 
d="M870 184v348h-743v144h901v-492h-158z" />
    <glyph glyph-name="uni00AD" unicode="&#xad;" horiz-adv-x="733" 
d="M106 526v156h521v-156h-521z" />
    <glyph glyph-name="registered" unicode="&#xae;" horiz-adv-x="1243" 
d="M629 1477q230 0 376 -140t146 -366q0 -154 -72 -273t-194 -182t-273 -63q-228 0 -374 142t-146 368q0 154 71.5 272t193 180t272.5 62zM621 543q183 0 295 116t112 308q0 194 -113 308t-294 114q-183 0 -295.5 -115.5t-112.5 -308.5t113.5 -307.5t294.5 -114.5zM725 952
l-2 -10q39 -39 129 -166l39 -16l-2 -47q-30 -15 -70 -15q-68 0 -98 50q-25 38 -100 176h-48v-158h2l64 -8v-51h-252v51l62 14v410l-62 4v55q88 6 193 6q141 0 198.5 -38.5t57.5 -116.5q0 -111 -111 -140zM573 987h82q43 32 43 103q0 47 -19 70.5t-67 23.5h-39v-197z" />
    <glyph glyph-name="macron" unicode="&#xaf;" horiz-adv-x="696" 
d="M70 1421h557q8 -33 8 -75q0 -47 -8 -78h-557q-9 34 -9 78q0 38 9 75z" />
    <glyph glyph-name="degree" unicode="&#xb0;" horiz-adv-x="727" 
d="M375 1513q128 0 210.5 -84.5t82.5 -203.5q0 -127 -93 -213t-223 -86q-129 0 -211 83.5t-82 202.5q0 128 92.5 214.5t223.5 86.5zM362 1382q-65 0 -110 -45.5t-45 -117.5t45 -117t110 -45q66 0 111 45t45 117t-45 117.5t-111 45.5z" />
    <glyph glyph-name="plusminus" unicode="&#xb1;" 
d="M1073 639h-364v-315h-162v315h-363v143h363v316h162v-316h364v-143zM1073 143v-143h-889v143h889z" />
    <glyph glyph-name="twosuperior" unicode="&#xb2;" horiz-adv-x="620" 
d="M573 877q0 -55 -10 -91h-520l-8 84q47 37 68 53.5t65 54.5t66.5 61t54.5 60.5t48 68t28 68t12 73.5q0 112 -107 112q-25 0 -55 -10l-20 -147h-111q-41 24 -41 79q0 68 71.5 113t178.5 45q118 0 186 -55t68 -141q0 -52 -26 -102t-83.5 -104.5t-117 -100t-158.5 -113.5
l6 -17q113 19 149 23l144 12l10 68h90q12 -37 12 -94z" />
    <glyph glyph-name="threesuperior" unicode="&#xb3;" horiz-adv-x="665" 
d="M305 1501q117 0 184.5 -51t67.5 -137q0 -110 -135 -152v-18q160 -35 160 -160q0 -96 -82.5 -154.5t-214.5 -58.5q-104 0 -171 37t-67 104q0 53 39 82h109l20 -135q32 -8 61 -8q65 0 102.5 29.5t37.5 103.5q0 64 -33.5 95.5t-116.5 31.5h-53v78h113q65 40 65 129
q0 56 -26 80t-78 24q-24 0 -66 -10l-16 -131h-105q-41 32 -41 76q0 65 70.5 105t175.5 40z" />
    <glyph glyph-name="acute" unicode="&#xb4;" horiz-adv-x="536" 
d="M254 1585h100q36 -21 68.5 -54t52.5 -71l-297 -286h-117z" />
    <glyph glyph-name="mu" unicode="&#xb5;" horiz-adv-x="1239" 
d="M1188 129v-96q-151 -39 -309 -49l-43 12l10 151h-23q-127 -174 -293 -174q-60 0 -101.5 21t-76.5 65l-20 -10l37 -463q-75 -22 -201 -22l-37 37l39 522v897q108 26 178 33l43 -11v-688q0 -215 193 -215q141 0 245 125v754q106 28 179 35l43 -11v-876z" />
    <glyph glyph-name="paragraph" unicode="&#xb6;" horiz-adv-x="1173" 
d="M668 446h-111q-240 -2 -372 114.5t-132 338.5q0 219 129.5 340.5t372.5 122.5h113v-916zM954 1223v-994q0 -108 -28.5 -186.5t-81 -124t-120 -67t-153.5 -21.5q-200 0 -327 109l43 81q135 -71 288 -71q124 0 186 61t62 209v1143h297v-105z" />
    <glyph glyph-name="periodcentered" unicode="&#xb7;" horiz-adv-x="534" 
d="M289 748q45 0 78 -11q43 -58 43 -127q0 -71 -43 -139h-205l-37 242q72 35 164 35z" />
    <glyph glyph-name="cedilla" unicode="&#xb8;" horiz-adv-x="567" 
d="M322 12v-143q95 -1 139.5 -38t44.5 -97q0 -75 -62 -122.5t-174 -47.5q-135 0 -209 59l19 82l31.5 -9t36 -10t32 -6.5t37.5 -3.5q48 0 76.5 18.5t28.5 53.5q0 31 -27 44.5t-113 27.5l33 192h107z" />
    <glyph glyph-name="onesuperior" unicode="&#xb9;" horiz-adv-x="509" 
d="M479 786h-420v74l136 21v450q-47 -12 -140 -12v84q58 2 116 25t93 73l80 -4v-629h2l133 -8v-74z" />
    <glyph glyph-name="ordmasculine" unicode="&#xba;" horiz-adv-x="796" 
d="M412 1163q157 0 240 -102.5t83 -255.5q0 -167 -96.5 -271t-255.5 -104q-155 0 -238.5 101t-83.5 253q0 167 96.5 273t254.5 106zM399 1069q-79 0 -116 -65.5t-37 -206.5q0 -139 37 -207t116 -68q80 0 117 66t37 207q0 139 -37.5 206.5t-116.5 67.5z" />
    <glyph glyph-name="guillemotright" unicode="&#xbb;" horiz-adv-x="1122" 
d="M1012 539l-322 -369l-98 68l174 325l-172 326l98 67l320 -368v-49zM575 539l-321 -369l-98 68l174 325l-172 326l98 67l319 -368v-49z" />
    <glyph glyph-name="onequarter" unicode="&#xbc;" horiz-adv-x="1773" 
d="M1354 1364l12 -31q-291 -438 -436 -676q-73 -118 -210.5 -355t-207.5 -351l-106 47l-13 31q318 479 441 680q75 120 209.5 354.5t203.5 347.5zM580 530h-508v88l164 25h2v541q-70 -15 -168 -15v101q70 4 140.5 31.5t113.5 87.5l96 -7v-755l160 -9v-88zM1602 137v-137
h-179v137h-379l-8 74q148 347 252 651l166 -49l8 -29q-159 -317 -293 -528l7 -18q110 18 174 18h73v248l123 31l56 -9v-270h131v-119h-131z" />
    <glyph glyph-name="onehalf" unicode="&#xbd;" horiz-adv-x="1851" 
d="M1354 1364l12 -31q-291 -438 -436 -676q-73 -118 -210.5 -355t-207.5 -351l-106 47l-13 31q318 479 441 680q75 120 209.5 354.5t203.5 347.5zM580 530h-508v88l164 25h2v541q-70 -15 -168 -15v101q70 4 140.5 31.5t113.5 87.5l96 -7v-755l160 -9v-88zM1675 221h109
q14 -49 14 -112q0 -59 -12 -109h-625l-10 100q10 8 53.5 43t57.5 46.5t54 45.5t56 50.5t48.5 50t46.5 54.5t36 53.5t31.5 59.5t17 59t7.5 63q0 137 -123 137q-30 0 -68 -10l-25 -181h-133q-51 36 -51 97q0 80 88 135t215 55q139 0 221 -67t82 -170q0 -50 -23.5 -100.5
t-59 -94.5t-100.5 -98.5t-124 -98t-153 -108.5l6 -19q15 2 51.5 8t65.5 9.5t61 5.5l172 12z" />
    <glyph glyph-name="threequarters" unicode="&#xbe;" horiz-adv-x="1875" 
d="M1456 1364l12 -31q-291 -438 -436 -676q-73 -118 -210.5 -355t-207.5 -351l-106 47l-12 31q305 459 440 680q75 120 210 355t204 347zM508 977v-21q186 -46 186 -190q0 -115 -100 -185.5t-258 -70.5q-123 0 -203 44t-80 124q0 62 47 100h131l25 -166q30 -6 72 -6
q166 0 166 156q0 76 -41 116t-136 40h-63v92h129q82 56 82 155q0 127 -125 127q-38 0 -78 -12l-18 -158h-125q-51 38 -51 90q0 78 85.5 127.5t213.5 49.5q138 0 218.5 -61.5t80.5 -164.5q0 -133 -158 -186zM1704 137v-137h-178v137h-379l-8 74q148 347 252 651l165 -49
l9 -29q-159 -317 -293 -528l6 -18q110 18 174 18h74v248l123 31l55 -9v-270h131v-119h-131z" />
    <glyph glyph-name="questiondown" unicode="&#xbf;" horiz-adv-x="741" 
d="M371 827l-4 220q50 12 110 12q76 0 115 -23q26 -50 26 -94q0 -77 -59 -139zM190 70q0 -98 116 -146t339 -43v-209q-72 -14 -131 -14q-118 0 -206.5 40.5t-137 108.5t-71.5 145t-23 163q0 132 67.5 201.5t257.5 144.5l9 192h129q63 -143 63 -241q0 -54 -27.5 -84.5
t-103.5 -63.5q-184 -78 -222 -102q-53 -33 -58 -77q-1 -7 -1 -15z" />
    <glyph glyph-name="Agrave" unicode="&#xc0;" horiz-adv-x="1411" 
d="M1389 0h-535v104l141 35l-80 252h-526q-44 -135 -84 -274l141 -13v-104h-423v104l127 35q248 769 423 1219l195 31l31 -5q167 -413 456 -1267l134 -13v-104zM426 514h451q-147 443 -220 631h-20q-76 -204 -211 -631zM670 1477l-301 239q47 85 118 121h101l207 -360h-125z
" />
    <glyph glyph-name="Aacute" unicode="&#xc1;" horiz-adv-x="1411" 
d="M1389 0h-535v104l141 35l-80 252h-526q-44 -135 -84 -274l141 -13v-104h-423v104l127 35q248 769 423 1219l195 31l31 -5q167 -413 456 -1267l134 -13v-104zM426 514h451q-147 443 -220 631h-20q-76 -204 -211 -631zM852 1837h100q78 -38 119 -121l-309 -239h-125z" />
    <glyph glyph-name="Acircumflex" unicode="&#xc2;" horiz-adv-x="1411" 
d="M1389 0h-535v104l141 35l-80 252h-526q-44 -135 -84 -274l141 -13v-104h-423v104l127 35q248 769 423 1219l195 31l31 -5q167 -413 456 -1267l134 -13v-104zM426 514h451q-147 443 -220 631h-20q-76 -204 -211 -631zM870 1452l-204 176h-21l-180 -151h-127l297 342h135
l246 -279z" />
    <glyph glyph-name="Atilde" unicode="&#xc3;" horiz-adv-x="1411" 
d="M1389 0h-535v104l141 35l-80 252h-526q-44 -135 -84 -274l141 -13v-104h-423v104l127 35q248 769 423 1219l195 31l31 -5q167 -413 456 -1267l134 -13v-104zM426 514h451q-147 443 -220 631h-20q-76 -204 -211 -631zM950 1772l64 -56q-19 -43 -33 -69.5t-40 -62
t-60.5 -53.5t-77.5 -18q-48 0 -105 25l-190 86l-102 -108l-66 55q19 43 33 69.5t40 62t60.5 53.5t77.5 18q44 0 104 -25l191 -88z" />
    <glyph glyph-name="Adieresis" unicode="&#xc4;" horiz-adv-x="1411" 
d="M1389 0h-535v104l141 35l-80 252h-526q-44 -135 -84 -274l141 -13v-104h-423v104l127 35q248 769 423 1219l195 31l31 -5q167 -413 456 -1267l134 -13v-104zM426 514h451q-147 443 -220 631h-20q-76 -204 -211 -631zM444 1757q47 0 76 -10q33 -44 33 -105q0 -59 -43 -120
h-166l-29 213q60 22 129 22zM930 1757q47 0 76 -10q32 -42 32 -105q0 -59 -43 -120h-166l-28 213q60 22 129 22z" />
    <glyph glyph-name="Aring" unicode="&#xc5;" horiz-adv-x="1411" 
d="M1389 0h-535v104l141 35l-80 252h-526q-44 -135 -84 -274l141 -13v-104h-423v104l127 35q248 769 423 1219l195 31l31 -5q167 -413 456 -1267l134 -13v-104zM426 514h451q-147 443 -220 631h-20q-76 -204 -211 -631zM690 1845q111 0 168 -48t57 -134q0 -97 -67.5 -147
t-181.5 -50q-112 0 -171 47t-59 134q0 97 71 147.5t183 50.5zM678 1751q-40 0 -62 -24.5t-22 -69.5q0 -46 22 -71t62 -25t61 25t21 71q0 94 -82 94z" />
    <glyph glyph-name="AE" unicode="&#xc6;" horiz-adv-x="1923" 
d="M1667 334l148 -12q6 -87 6 -105q0 -97 -27 -217h-1028v104l156 37v254h-480q-85 -173 -131 -278l138 -13v-104h-426v104l129 35q245 505 575 1106l-137 12v105h1206q10 -55 10 -139q0 -107 -14 -181h-143l-33 185l-455 14v-481l246 4l23 119h104v-379h-104l-27 133
l-242 2v-520l449 14zM922 1235h-56q-132 -246 -364 -717h420v717z" />
    <glyph glyph-name="Ccedilla" unicode="&#xc7;" horiz-adv-x="1337" 
d="M1190 270l41 -90q-160 -189 -428 -205v-106q95 -1 139.5 -38t44.5 -97q0 -75 -61.5 -122.5t-173.5 -47.5q-135 0 -209 59l16 82q7 -2 25.5 -7.5t29 -8t26 -6.5t30 -5.5t28.5 -1.5q48 0 76.5 18.5t28.5 53.5q0 32 -27 45t-112 27l26 155q-192 13 -328.5 110t-202 247.5
t-65.5 339.5q0 156 47 287t135.5 227t223 149.5t301.5 53.5q197 0 381 -80q10 -48 10 -119q0 -81 -16 -207h-150l-43 248q-86 26 -176 26q-221 0 -335 -138t-114 -406q0 -285 122.5 -428.5t338.5 -143.5q197 0 371 129z" />
    <glyph glyph-name="Egrave" unicode="&#xc8;" horiz-adv-x="1261" 
d="M1006 334l147 -12q6 -43 6 -105q0 -93 -26 -217h-1045v104l156 37v1102l-156 14v105h1049v-8q10 -58 10 -129q0 -90 -14 -183h-144l-35 185l-471 16v-481l262 2l23 119h104v-379h-104l-25 131l-260 2v-518l465 16zM621 1477l-302 239q46 84 119 121h101l206 -360h-124z
" />
    <glyph glyph-name="Eacute" unicode="&#xc9;" horiz-adv-x="1261" 
d="M1006 334l147 -12q6 -43 6 -105q0 -93 -26 -217h-1045v104l156 37v1102l-156 14v105h1049v-8q10 -58 10 -129q0 -90 -14 -183h-144l-35 185l-471 16v-481l262 2l23 119h104v-379h-104l-25 131l-260 2v-518l465 16zM803 1837h100q78 -38 119 -121l-309 -239h-125z" />
    <glyph glyph-name="Ecircumflex" unicode="&#xca;" horiz-adv-x="1261" 
d="M1006 334l147 -12q6 -43 6 -105q0 -93 -26 -217h-1045v104l156 37v1102l-156 14v105h1049v-8q10 -58 10 -129q0 -90 -14 -183h-144l-35 185l-471 16v-481l262 2l23 119h104v-379h-104l-25 131l-260 2v-518l465 16zM821 1452l-205 176h-20l-180 -151h-127l297 342h135
l246 -279z" />
    <glyph glyph-name="Edieresis" unicode="&#xcb;" horiz-adv-x="1261" 
d="M1006 334l147 -12q6 -43 6 -105q0 -93 -26 -217h-1045v104l156 37v1102l-156 14v105h1049v-8q10 -58 10 -129q0 -90 -14 -183h-144l-35 185l-471 16v-481l262 2l23 119h104v-379h-104l-25 131l-260 2v-518l465 16zM395 1757q47 0 76 -10q33 -44 33 -105q0 -59 -43 -120
h-166l-29 213q61 22 129 22zM881 1757q46 0 75 -10q33 -44 33 -105q0 -59 -43 -120h-166l-28 213q61 22 129 22z" />
    <glyph glyph-name="Igrave" unicode="&#xcc;" horiz-adv-x="729" 
d="M483 117h2l156 -13v-104h-553v104l156 37v1104l-156 12v105h553v-105l-156 -34h-2v-1106zM360 1477l-301 239q46 84 119 121h101l206 -360h-125z" />
    <glyph glyph-name="Iacute" unicode="&#xcd;" horiz-adv-x="729" 
d="M483 117h2l156 -13v-104h-553v104l156 37v1104l-156 12v105h553v-105l-156 -34h-2v-1106zM543 1837h100q78 -38 119 -121l-309 -239h-125z" />
    <glyph glyph-name="Icircumflex" unicode="&#xce;" horiz-adv-x="729" 
d="M483 117h2l156 -13v-104h-553v104l156 37v1104l-156 12v105h553v-105l-156 -34h-2v-1106zM561 1452l-205 176h-20l-180 -151h-127l297 342h135l246 -279z" />
    <glyph glyph-name="Idieresis" unicode="&#xcf;" horiz-adv-x="729" 
d="M483 117h2l156 -13v-104h-553v104l156 37v1104l-156 12v105h553v-105l-156 -34h-2v-1106zM135 1757q47 0 76 -10q33 -44 33 -105q0 -59 -43 -120h-166l-29 213q61 22 129 22zM621 1757q46 0 75 -10q33 -44 33 -105q0 -59 -43 -120h-166l-28 213q61 22 129 22z" />
    <glyph glyph-name="Eth" unicode="&#xd0;" horiz-adv-x="1474" 
d="M612 1376q205 0 355 -48t239.5 -138.5t131.5 -209t42 -269.5q0 -162 -43.5 -291t-130.5 -223.5t-226.5 -145.5t-322.5 -51h-546v104l155 37h2v502h-157v123h157v477h-2l-155 12v107q269 14 501 14zM508 125h149q244 0 351.5 138.5t107.5 436.5q0 278 -102.5 414.5
t-339.5 136.5h-166v-485h272v-123h-272v-518z" />
    <glyph glyph-name="Ntilde" unicode="&#xd1;" horiz-adv-x="1554" 
d="M1329 1223v-1219l-192 -31l-35 4l-543 922q-92 156 -156 301h-20l16 -1083l185 -13v-104h-496v104l156 37v1102l-156 14v105h479l432 -733q103 -179 175 -326h20l-20 942l-185 12v105h496v-105zM1051 1772l63 -56q-19 -43 -33 -69.5t-40 -62t-60.5 -53.5t-77.5 -18
q-47 0 -104 25l-191 86l-102 -108l-66 55q19 43 33 69.5t40 62t60.5 53.5t77.5 18q45 0 105 -25l190 -88z" />
    <glyph glyph-name="Ograve" unicode="&#xd2;" horiz-adv-x="1523" 
d="M786 1389q126 0 231.5 -34.5t181 -97t128 -148.5t78 -188.5t25.5 -218.5q0 -214 -85.5 -379.5t-243 -257.5t-362.5 -92q-156 0 -280.5 54t-203 149t-120 220.5t-41.5 271.5q0 213 84.5 376t242 254t365.5 91zM764 1257q-190 0 -296 -144t-106 -429q0 -286 106.5 -433
t295.5 -147q187 0 293 147t106 433q0 285 -105.5 429t-293.5 144zM756 1477l-301 239q47 85 118 121h101l207 -360h-125z" />
    <glyph glyph-name="Oacute" unicode="&#xd3;" horiz-adv-x="1523" 
d="M786 1389q126 0 231.5 -34.5t181 -97t128 -148.5t78 -188.5t25.5 -218.5q0 -214 -85.5 -379.5t-243 -257.5t-362.5 -92q-156 0 -280.5 54t-203 149t-120 220.5t-41.5 271.5q0 213 84.5 376t242 254t365.5 91zM764 1257q-190 0 -296 -144t-106 -429q0 -286 106.5 -433
t295.5 -147q187 0 293 147t106 433q0 285 -105.5 429t-293.5 144zM938 1837h100q78 -38 119 -121l-309 -239h-125z" />
    <glyph glyph-name="Ocircumflex" unicode="&#xd4;" horiz-adv-x="1523" 
d="M786 1389q126 0 231.5 -34.5t181 -97t128 -148.5t78 -188.5t25.5 -218.5q0 -214 -85.5 -379.5t-243 -257.5t-362.5 -92q-156 0 -280.5 54t-203 149t-120 220.5t-41.5 271.5q0 213 84.5 376t242 254t365.5 91zM764 1257q-190 0 -296 -144t-106 -429q0 -286 106.5 -433
t295.5 -147q187 0 293 147t106 433q0 285 -105.5 429t-293.5 144zM956 1452l-204 176h-21l-180 -151h-127l297 342h135l246 -279z" />
    <glyph glyph-name="Otilde" unicode="&#xd5;" horiz-adv-x="1523" 
d="M786 1389q126 0 231.5 -34.5t181 -97t128 -148.5t78 -188.5t25.5 -218.5q0 -214 -85.5 -379.5t-243 -257.5t-362.5 -92q-156 0 -280.5 54t-203 149t-120 220.5t-41.5 271.5q0 213 84.5 376t242 254t365.5 91zM764 1257q-190 0 -296 -144t-106 -429q0 -286 106.5 -433
t295.5 -147q187 0 293 147t106 433q0 285 -105.5 429t-293.5 144zM1036 1772l64 -56q-19 -43 -33 -69.5t-40 -62t-60.5 -53.5t-77.5 -18q-48 0 -105 25l-190 86l-102 -108l-66 55q19 43 33 69.5t40 62t60.5 53.5t77.5 18q44 0 104 -25l191 -88z" />
    <glyph glyph-name="Odieresis" unicode="&#xd6;" horiz-adv-x="1523" 
d="M786 1389q126 0 231.5 -34.5t181 -97t128 -148.5t78 -188.5t25.5 -218.5q0 -214 -85.5 -379.5t-243 -257.5t-362.5 -92q-156 0 -280.5 54t-203 149t-120 220.5t-41.5 271.5q0 213 84.5 376t242 254t365.5 91zM764 1257q-190 0 -296 -144t-106 -429q0 -286 106.5 -433
t295.5 -147q187 0 293 147t106 433q0 285 -105.5 429t-293.5 144zM530 1757q47 0 76 -10q33 -44 33 -105q0 -59 -43 -120h-166l-29 213q60 22 129 22zM1016 1757q47 0 76 -10q32 -42 32 -105q0 -59 -43 -120h-166l-28 213q60 22 129 22z" />
    <glyph glyph-name="multiply" unicode="&#xd7;" 
d="M739 604l324 -325l-107 -105l-321 328l-328 -328l-106 105l321 327l-325 324l108 104l322 -325l325 325l109 -104z" />
    <glyph glyph-name="Oslash" unicode="&#xd8;" horiz-adv-x="1523" 
d="M1382 1446l-151 -217q98 -92 148.5 -228.5t50.5 -298.5q0 -214 -85.5 -379.5t-243 -257.5t-362.5 -92q-198 0 -342 86l-149 -215l-96 43l-13 29l154 221q-97 94 -148 231.5t-51 299.5q0 213 84.5 376t242 254t365.5 91q198 0 340 -82l148 211l96 -43zM772 1257
q-410 0 -410 -585q0 -229 62 -365l602 862q-95 88 -254 88zM754 104q409 0 409 592q0 232 -61 363l-602 -864q94 -91 254 -91z" />
    <glyph glyph-name="Ugrave" unicode="&#xd9;" horiz-adv-x="1474" 
d="M1266 1221v-768q0 -219 -137 -349.5t-388 -130.5q-254 0 -393 133.5t-139 360.5v778l-156 12v105h555v-105l-157 -34h-2v-764q0 -185 83.5 -271t245.5 -86q330 0 330 357v786l-180 12v105h493v-105zM758 1477l-301 239q47 85 118 121h101l207 -360h-125z" />
    <glyph glyph-name="Uacute" unicode="&#xda;" horiz-adv-x="1474" 
d="M1266 1221v-768q0 -219 -137 -349.5t-388 -130.5q-254 0 -393 133.5t-139 360.5v778l-156 12v105h555v-105l-157 -34h-2v-764q0 -185 83.5 -271t245.5 -86q330 0 330 357v786l-180 12v105h493v-105zM940 1837h100q78 -38 119 -121l-309 -239h-125z" />
    <glyph glyph-name="Ucircumflex" unicode="&#xdb;" horiz-adv-x="1474" 
d="M1266 1221v-768q0 -219 -137 -349.5t-388 -130.5q-254 0 -393 133.5t-139 360.5v778l-156 12v105h555v-105l-157 -34h-2v-764q0 -185 83.5 -271t245.5 -86q330 0 330 357v786l-180 12v105h493v-105zM958 1452l-204 176h-21l-180 -151h-127l297 342h135l246 -279z" />
    <glyph glyph-name="Udieresis" unicode="&#xdc;" horiz-adv-x="1474" 
d="M1266 1221v-768q0 -219 -137 -349.5t-388 -130.5q-254 0 -393 133.5t-139 360.5v778l-156 12v105h555v-105l-157 -34h-2v-764q0 -185 83.5 -271t245.5 -86q330 0 330 357v786l-180 12v105h493v-105zM532 1757q47 0 76 -10q33 -44 33 -105q0 -59 -43 -120h-166l-29 213
q60 22 129 22zM1018 1757q47 0 76 -10q32 -42 32 -105q0 -59 -43 -120h-165l-29 213q60 22 129 22z" />
    <glyph glyph-name="Yacute" unicode="&#xdd;" horiz-adv-x="1378" 
d="M1333 1257l-116 -34q-165 -341 -392 -738v-368l176 -13v-104h-593v104l178 37v334q-205 355 -412 770l-129 12v105h541v-105l-148 -30q146 -303 303 -584h23q158 270 301 602l-178 12v105h446v-105zM877 1837h100q78 -38 119 -121l-310 -239h-124z" />
    <glyph glyph-name="Thorn" unicode="&#xde;" horiz-adv-x="1243" 
d="M485 1151h129q282 0 417.5 -106t135.5 -316q0 -205 -119 -325.5t-327 -120.5q-119 0 -154 10v110h70q268 0 268 322q0 148 -62.5 223.5t-213.5 75.5h-144v-907l164 -13v-104h-561v104l156 37v1104l-156 12v105h371l26 -33v-178z" />
    <glyph glyph-name="germandbls" unicode="&#xdf;" horiz-adv-x="1273" 
d="M1006 629q223 -111 223 -316q0 -157 -110 -248.5t-281 -91.5q-55 0 -104 10t-91 31.5t-67 60t-25 89.5q0 78 53 117h105l26 -193q65 -10 105 -10q82 0 125 45.5t43 126.5q0 57 -29.5 99t-108.5 97q-53 37 -78 55.5t-57 47t-45.5 50t-23 50.5t-9.5 64q0 42 14.5 79t30 58
t52.5 65q50 61 76 125.5t26 159.5q0 131 -50.5 183.5t-143.5 52.5q-70 0 -118 -24t-73 -70.5t-35 -102.5t-10 -133v-1106h-358v96l135 35h2v774h-2l-140 15v96l142 31v8q0 228 141 357.5t369 129.5q180 0 279.5 -81.5t99.5 -227.5q0 -61 -17 -111.5t-50.5 -90.5t-64.5 -66
t-77 -58q-39 -24 -57.5 -46t-18.5 -58q0 -49 38 -80t159 -94z" />
    <glyph glyph-name="agrave" unicode="&#xe0;" horiz-adv-x="1083" 
d="M1042 127v-92q-104 -51 -196 -51q-76 0 -112 32.5t-36 98.5v28h-22q-127 -170 -316 -170q-135 0 -208.5 72.5t-73.5 190.5q0 70 29 124.5t75 88.5t109.5 55.5t126.5 30t133 8.5q77 0 135 -8l2 194q3 219 -211 219q-52 0 -98 -10l-33 -240h-149q-64 46 -64 117t60.5 128
t152.5 86.5t193 29.5q170 0 270.5 -86t99.5 -244l-8 -588zM444 121q132 0 240 131l2 199h-45q-175 0 -251.5 -46t-76.5 -147q0 -137 131 -137zM516 1174l-299 286q48 89 127 125h100l189 -411h-117z" />
    <glyph glyph-name="aacute" unicode="&#xe1;" horiz-adv-x="1083" 
d="M1042 127v-92q-104 -51 -196 -51q-76 0 -112 32.5t-36 98.5v28h-22q-127 -170 -316 -170q-135 0 -208.5 72.5t-73.5 190.5q0 70 29 124.5t75 88.5t109.5 55.5t126.5 30t133 8.5q77 0 135 -8l2 194q3 219 -211 219q-52 0 -98 -10l-33 -240h-149q-64 46 -64 117t60.5 128
t152.5 86.5t193 29.5q170 0 270.5 -86t99.5 -244l-8 -588zM444 121q132 0 240 131l2 199h-45q-175 0 -251.5 -46t-76.5 -147q0 -137 131 -137zM653 1585h101q77 -44 120 -125l-296 -286h-117z" />
    <glyph glyph-name="acircumflex" unicode="&#xe2;" horiz-adv-x="1083" 
d="M1042 127v-92q-104 -51 -196 -51q-76 0 -112 32.5t-36 98.5v28h-22q-127 -170 -316 -170q-135 0 -208.5 72.5t-73.5 190.5q0 70 29 124.5t75 88.5t109.5 55.5t126.5 30t133 8.5q77 0 135 -8l2 194q3 219 -211 219q-52 0 -98 -10l-33 -240h-149q-64 46 -64 117t60.5 128
t152.5 86.5t193 29.5q170 0 270.5 -86t99.5 -244l-8 -588zM444 121q132 0 240 131l2 199h-45q-175 0 -251.5 -46t-76.5 -147q0 -137 131 -137zM709 1157l-187 219h-20l-162 -202h-117l269 397h135l227 -334z" />
    <glyph glyph-name="atilde" unicode="&#xe3;" horiz-adv-x="1083" 
d="M1042 127v-92q-104 -51 -196 -51q-76 0 -112 32.5t-36 98.5v28h-22q-127 -170 -316 -170q-135 0 -208.5 72.5t-73.5 190.5q0 70 29 124.5t75 88.5t109.5 55.5t126.5 30t133 8.5q77 0 135 -8l2 194q3 219 -211 219q-52 0 -98 -10l-33 -240h-149q-64 46 -64 117t60.5 128
t152.5 86.5t193 29.5q170 0 270.5 -86t99.5 -244l-8 -588zM444 121q132 0 240 131l2 199h-45q-175 0 -251.5 -46t-76.5 -147q0 -137 131 -137zM797 1493l65 -55q-16 -39 -32.5 -69.5t-43 -66t-62.5 -55.5t-77 -20t-96 28l-160 80l-104 -108l-66 55q17 40 32.5 69t42 65.5
t62.5 56.5t78 20q39 0 96 -29l160 -82z" />
    <glyph glyph-name="adieresis" unicode="&#xe4;" horiz-adv-x="1083" 
d="M1042 127v-92q-104 -51 -196 -51q-76 0 -112 32.5t-36 98.5v28h-22q-127 -170 -316 -170q-135 0 -208.5 72.5t-73.5 190.5q0 70 29 124.5t75 88.5t109.5 55.5t126.5 30t133 8.5q77 0 135 -8l2 194q3 219 -211 219q-52 0 -98 -10l-33 -240h-149q-64 46 -64 117t60.5 128
t152.5 86.5t193 29.5q170 0 270.5 -86t99.5 -244l-8 -588zM444 121q132 0 240 131l2 199h-45q-175 0 -251.5 -46t-76.5 -147q0 -137 131 -137zM340 1485q44 0 74 -10q32 -56 32 -103q0 -54 -45 -121h-161l-29 211q63 23 129 23zM760 1485q44 0 74 -10q32 -56 32 -103
q0 -54 -45 -121h-162l-28 211q63 23 129 23z" />
    <glyph glyph-name="aring" unicode="&#xe5;" horiz-adv-x="1083" 
d="M1042 127v-92q-104 -51 -196 -51q-76 0 -112 32.5t-36 98.5v28h-22q-127 -170 -316 -170q-135 0 -208.5 72.5t-73.5 190.5q0 70 29 124.5t75 88.5t109.5 55.5t126.5 30t133 8.5q77 0 135 -8l2 194q3 219 -211 219q-52 0 -98 -10l-33 -240h-149q-64 46 -64 117t60.5 128
t152.5 86.5t193 29.5q170 0 270.5 -86t99.5 -244l-8 -588zM444 121q132 0 240 131l2 199h-45q-175 0 -251.5 -46t-76.5 -147q0 -137 131 -137zM553 1595q108 0 166.5 -50.5t58.5 -143.5q0 -102 -69 -155.5t-181 -53.5q-110 0 -169.5 50t-59.5 142q0 104 71.5 157.5
t182.5 53.5zM541 1501q-84 0 -84 -108q0 -107 82 -107q84 0 84 109q0 106 -82 106z" />
    <glyph glyph-name="ae" unicode="&#xe6;" horiz-adv-x="1622" 
d="M1489 242l39 -82q-150 -187 -404 -187q-272 0 -379 209h-24q-130 -209 -359 -209q-139 0 -211.5 71t-72.5 192q0 71 25 125.5t76 89t101 57t130 35t130 17t132 9.5h10l4 144q4 123 -56 179t-161 56q-42 0 -90 -10l-33 -240h-149q-64 41 -64 117q0 68 56 125t145 88
t188 31q120 0 192.5 -47t98.5 -129h21q42 78 125 127t206 49q180 0 270.5 -103t90.5 -270q0 -88 -21 -168h-2l-610 -18q10 -179 90.5 -271t212.5 -92q135 0 293 105zM1135 944q-99 0 -167 -90.5t-77 -261.5l418 39v6q0 158 -43.5 232.5t-130.5 74.5zM449 121q140 0 258 160
q-24 95 -27 196h-6q-198 -17 -279.5 -68t-81.5 -147q0 -141 136 -141z" />
    <glyph glyph-name="ccedilla" unicode="&#xe7;" horiz-adv-x="1024" 
d="M911 238l39 -82q-133 -161 -340 -181v-106q95 -1 140 -38t45 -97q0 -75 -62 -122.5t-174 -47.5q-135 0 -209 59l17 82q7 -2 25.5 -7.5t29 -8t26 -6.5t30 -5.5t28.5 -1.5q48 0 76 18.5t28 53.5q0 32 -27 45t-112 27l27 157q-104 9 -185 54t-130.5 116t-75 160t-25.5 191
q0 255 142 408t366 153q64 0 122 -13.5t108 -40.5t80 -74.5t30 -109.5q0 -85 -62 -131h-159l-31 250q-39 8 -70 8q-133 0 -207.5 -101t-74.5 -298q0 -205 79 -309.5t218 -104.5q136 0 288 103z" />
    <glyph glyph-name="egrave" unicode="&#xe8;" horiz-adv-x="1067" 
d="M934 242l39 -82q-151 -187 -408 -187q-122 0 -216.5 42t-151.5 115t-86 166t-29 202q0 256 142.5 408.5t373.5 152.5q187 0 280 -102t93 -269q0 -88 -21 -164h-631q6 -190 88 -288.5t224 -98.5q141 0 303 105zM569 944q-98 0 -166 -83t-81 -240l428 18v12q0 293 -181 293
zM541 1174l-299 286q48 89 127 125h100l188 -411h-116z" />
    <glyph glyph-name="eacute" unicode="&#xe9;" horiz-adv-x="1067" 
d="M934 242l39 -82q-151 -187 -408 -187q-122 0 -216.5 42t-151.5 115t-86 166t-29 202q0 256 142.5 408.5t373.5 152.5q187 0 280 -102t93 -269q0 -88 -21 -164h-631q6 -190 88 -288.5t224 -98.5q141 0 303 105zM569 944q-98 0 -166 -83t-81 -240l428 18v12q0 293 -181 293
zM678 1585h100q36 -21 68.5 -54t52.5 -71l-297 -286h-117z" />
    <glyph glyph-name="ecircumflex" unicode="&#xea;" horiz-adv-x="1067" 
d="M934 242l39 -82q-151 -187 -408 -187q-122 0 -216.5 42t-151.5 115t-86 166t-29 202q0 256 142.5 408.5t373.5 152.5q187 0 280 -102t93 -269q0 -88 -21 -164h-631q6 -190 88 -288.5t224 -98.5q141 0 303 105zM569 944q-98 0 -166 -83t-81 -240l428 18v12q0 293 -181 293
zM733 1157l-186 219h-21l-161 -202h-117l268 397h135l228 -334z" />
    <glyph glyph-name="edieresis" unicode="&#xeb;" horiz-adv-x="1067" 
d="M934 242l39 -82q-151 -187 -408 -187q-122 0 -216.5 42t-151.5 115t-86 166t-29 202q0 256 142.5 408.5t373.5 152.5q187 0 280 -102t93 -269q0 -88 -21 -164h-631q6 -190 88 -288.5t224 -98.5q141 0 303 105zM569 944q-98 0 -166 -83t-81 -240l428 18v12q0 293 -181 293
zM365 1485q43 0 73 -10q33 -58 33 -103q0 -54 -45 -121h-162l-28 211q63 23 129 23zM784 1485q44 0 74 -10q33 -58 33 -103q0 -54 -45 -121h-162l-29 211q63 23 129 23z" />
    <glyph glyph-name="igrave" unicode="&#xec;" horiz-adv-x="614" 
d="M575 0h-507v100l135 37v731l-135 41v95q161 40 313 49l43 -13v-925l151 -15v-100zM266 1174l-282 286q48 89 127 125h98l172 -411h-115z" />
    <glyph glyph-name="iacute" unicode="&#xed;" horiz-adv-x="614" 
d="M575 0h-507v100l135 37v731l-135 41v95q161 40 313 49l43 -13v-925l151 -15v-100zM381 1585h98q37 -19 70 -52.5t51 -72.5l-268 -286h-117z" />
    <glyph glyph-name="icircumflex" unicode="&#xee;" horiz-adv-x="614" 
d="M575 0h-507v100l135 37v731l-135 41v95q161 40 313 49l43 -13v-925l151 -15v-100zM401 1171l-143 201h-22l-119 -182h-117l227 381h133l187 -318z" />
    <glyph glyph-name="idieresis" unicode="&#xef;" horiz-adv-x="614" 
d="M575 0h-507v100l135 37v731l-135 41v95q161 40 313 49l43 -13v-925l151 -15v-100zM115 1485q41 0 71 -10q33 -50 33 -103q0 -59 -45 -121h-156l-28 211q63 23 125 23zM494 1485q40 0 73 -10q33 -58 33 -103q0 -56 -47 -121h-156l-28 211q61 23 125 23z" />
    <glyph glyph-name="eth" unicode="&#xf0;" horiz-adv-x="1169" 
d="M905 1460l-211 -117q112 -82 192.5 -183.5t122 -205.5t60 -197.5t18.5 -185.5q0 -175 -62.5 -310.5t-182 -212.5t-279.5 -77q-103 0 -189.5 33t-152 97t-102.5 165t-37 230q0 234 114.5 369.5t305.5 135.5q168 0 286 -114h21q-49 196 -268 370l-201 -110l-96 53l-8 29
l194 108q-133 83 -246 136l47 79q200 -53 344 -135l228 127l96 -55zM584 88q119 0 191.5 101.5t72.5 322.5q0 132 -27 258q-120 94 -246 94q-245 0 -245 -379q0 -196 64.5 -296.5t189.5 -100.5z" />
    <glyph glyph-name="ntilde" unicode="&#xf1;" horiz-adv-x="1263" 
d="M1241 0h-498v100l123 37v545q0 106 -49.5 159.5t-144.5 53.5q-143 0 -248 -123v-659l143 -13v-100h-499v100l135 37v731l-135 41v95q186 44 309 49l43 -13l-10 -151h22q134 170 328 170q149 0 238 -87t89 -249v-610l154 -13v-100zM899 1493l66 -55q-16 -39 -32.5 -69.5
t-43 -66t-62.5 -55.5t-77 -20q-42 0 -97 28l-159 80l-105 -108l-65 55q17 40 32.5 69t42 65.5t62.5 56.5t78 20q39 0 96 -29l160 -82z" />
    <glyph glyph-name="ograve" unicode="&#xf2;" horiz-adv-x="1175" 
d="M610 1059q121 0 215 -41.5t152 -114t87.5 -166t29.5 -202.5q0 -250 -144 -406t-385 -156q-120 0 -214 41.5t-152 114.5t-87.5 167t-29.5 204q0 251 143.5 405t384.5 154zM588 944q-131 0 -194.5 -105t-63.5 -321q0 -218 63.5 -323t194.5 -105t193.5 105t62.5 323
q0 217 -63 321.5t-193 104.5zM565 1174l-299 286q48 89 127 125h101l188 -411h-117z" />
    <glyph glyph-name="oacute" unicode="&#xf3;" horiz-adv-x="1175" 
d="M610 1059q121 0 215 -41.5t152 -114t87.5 -166t29.5 -202.5q0 -250 -144 -406t-385 -156q-120 0 -214 41.5t-152 114.5t-87.5 167t-29.5 204q0 251 143.5 405t384.5 154zM588 944q-131 0 -194.5 -105t-63.5 -321q0 -218 63.5 -323t194.5 -105t193.5 105t62.5 323
q0 217 -63 321.5t-193 104.5zM702 1585h101q36 -21 68.5 -54t52.5 -71l-297 -286h-117z" />
    <glyph glyph-name="ocircumflex" unicode="&#xf4;" horiz-adv-x="1175" 
d="M610 1059q121 0 215 -41.5t152 -114t87.5 -166t29.5 -202.5q0 -250 -144 -406t-385 -156q-120 0 -214 41.5t-152 114.5t-87.5 167t-29.5 204q0 251 143.5 405t384.5 154zM588 944q-131 0 -194.5 -105t-63.5 -321q0 -218 63.5 -323t194.5 -105t193.5 105t62.5 323
q0 217 -63 321.5t-193 104.5zM758 1157l-187 219h-20l-162 -202h-117l269 397h135l227 -334z" />
    <glyph glyph-name="otilde" unicode="&#xf5;" horiz-adv-x="1175" 
d="M610 1059q121 0 215 -41.5t152 -114t87.5 -166t29.5 -202.5q0 -250 -144 -406t-385 -156q-120 0 -214 41.5t-152 114.5t-87.5 167t-29.5 204q0 251 143.5 405t384.5 154zM588 944q-131 0 -194.5 -105t-63.5 -321q0 -218 63.5 -323t194.5 -105t193.5 105t62.5 323
q0 217 -63 321.5t-193 104.5zM846 1493l65 -55q-16 -39 -32.5 -69.5t-43 -66t-62.5 -55.5t-77 -20t-96 28l-160 80l-104 -108l-66 55q17 40 32.5 69t42 65.5t62.5 56.5t78 20q40 0 97 -29l159 -82z" />
    <glyph glyph-name="odieresis" unicode="&#xf6;" horiz-adv-x="1175" 
d="M610 1059q121 0 215 -41.5t152 -114t87.5 -166t29.5 -202.5q0 -250 -144 -406t-385 -156q-120 0 -214 41.5t-152 114.5t-87.5 167t-29.5 204q0 251 143.5 405t384.5 154zM588 944q-131 0 -194.5 -105t-63.5 -321q0 -218 63.5 -323t194.5 -105t193.5 105t62.5 323
q0 217 -63 321.5t-193 104.5zM389 1485q44 0 74 -10q33 -58 33 -103q0 -54 -45 -121h-162l-29 211q63 23 129 23zM809 1485q44 0 74 -10q32 -56 32 -103q0 -54 -45 -121h-161l-29 211q63 23 129 23z" />
    <glyph glyph-name="divide" unicode="&#xf7;" 
d="M651 1139q47 0 74 -9q41 -56 41 -120q0 -72 -41 -131h-199l-37 227q64 33 162 33zM129 532v144h999v-144h-999zM651 369q41 0 74 -11q41 -62 41 -118q0 -72 -41 -134h-199l-37 228q68 35 162 35z" />
    <glyph glyph-name="oslash" unicode="&#xf8;" horiz-adv-x="1175" 
d="M1040 1149l-114 -195q84 -70 126 -179t42 -240q0 -250 -144 -406t-385 -156q-120 0 -217 43l-110 -182l-97 41l-14 27l113 186q-158 146 -158 412q0 251 143.5 405t384.5 154q116 0 203 -37l117 197l96 -43zM594 944q-143 0 -205.5 -104t-62.5 -332q0 -161 28 -246
l381 643q-53 39 -141 39zM582 90q139 0 202.5 104.5t63.5 333.5q0 175 -35 267l-389 -654q57 -51 158 -51z" />
    <glyph glyph-name="ugrave" unicode="&#xf9;" horiz-adv-x="1245" 
d="M1194 129v-96q-151 -39 -311 -49l-43 12l10 151h-21q-136 -174 -329 -174q-147 0 -235.5 88.5t-88.5 251.5v555l-135 41v95q185 44 313 49l43 -13v-686q0 -215 191 -215q139 0 248 125v606l-129 39v95q186 44 307 49l43 -13v-874zM565 1174l-299 286q48 89 127 125h101
l188 -411h-117z" />
    <glyph glyph-name="uacute" unicode="&#xfa;" horiz-adv-x="1245" 
d="M1194 129v-96q-151 -39 -311 -49l-43 12l10 151h-21q-136 -174 -329 -174q-147 0 -235.5 88.5t-88.5 251.5v555l-135 41v95q185 44 313 49l43 -13v-686q0 -215 191 -215q139 0 248 125v606l-129 39v95q186 44 307 49l43 -13v-874zM702 1585h101q36 -21 68.5 -54t52.5 -71
l-297 -286h-117z" />
    <glyph glyph-name="ucircumflex" unicode="&#xfb;" horiz-adv-x="1245" 
d="M1194 129v-96q-151 -39 -311 -49l-43 12l10 151h-21q-136 -174 -329 -174q-147 0 -235.5 88.5t-88.5 251.5v555l-135 41v95q185 44 313 49l43 -13v-686q0 -215 191 -215q139 0 248 125v606l-129 39v95q186 44 307 49l43 -13v-874zM758 1157l-187 219h-20l-162 -202h-117
l269 397h135l227 -334z" />
    <glyph glyph-name="udieresis" unicode="&#xfc;" horiz-adv-x="1245" 
d="M1194 129v-96q-151 -39 -311 -49l-43 12l10 151h-21q-136 -174 -329 -174q-147 0 -235.5 88.5t-88.5 251.5v555l-135 41v95q185 44 313 49l43 -13v-686q0 -215 191 -215q139 0 248 125v606l-129 39v95q186 44 307 49l43 -13v-874zM389 1485q44 0 74 -10q33 -58 33 -103
q0 -54 -45 -121h-162l-29 211q63 23 129 23zM809 1485q44 0 74 -10q32 -56 32 -103q0 -54 -45 -121h-161l-29 211q63 23 129 23z" />
    <glyph glyph-name="yacute" unicode="&#xfd;" horiz-adv-x="1171" 
d="M1157 928l-127 -33q-165 -476 -383 -985q-75 -171 -171.5 -258.5t-209.5 -87.5q-100 0 -149 65l14 121h299q63 97 102 203q-180 386 -389 962l-129 13v100h465v-100l-92 -33q113 -340 244 -668h24q148 400 236 688l-150 13v100h416v-100zM719 1585h100q36 -21 68.5 -54
t52.5 -71l-297 -286h-117z" />
    <glyph glyph-name="thorn" unicode="&#xfe;" horiz-adv-x="1212" 
d="M723 1059q128 0 218 -65.5t133.5 -177t43.5 -259.5q0 -260 -134 -422t-363 -162q-123 0 -230 43v-313l156 -12v-101h-512v101l135 35v1640l-137 29v96q166 45 315 51l43 -14v-418q0 -95 -16 -221h22q129 170 326 170zM594 90q145 0 215 113t70 319q0 202 -63 287.5
t-181 85.5q-76 0 -134 -30.5t-110 -92.5v-629q89 -53 203 -53z" />
    <glyph glyph-name="ydieresis" unicode="&#xff;" horiz-adv-x="1171" 
d="M1157 928l-127 -33q-165 -476 -383 -985q-75 -171 -171.5 -258.5t-209.5 -87.5q-100 0 -149 65l14 121h299q63 97 102 203q-180 386 -389 962l-129 13v100h465v-100l-92 -33q113 -340 244 -668h24q148 400 236 688l-150 13v100h416v-100zM406 1485q43 0 73 -10
q33 -58 33 -103q0 -54 -45 -121h-162l-29 211q63 23 130 23zM825 1485q44 0 74 -10q33 -58 33 -103q0 -54 -45 -121h-162l-29 211q63 23 129 23z" />
    <glyph glyph-name="Amacron" unicode="&#x100;" horiz-adv-x="1411" 
d="M1389 0h-535v104l141 35l-80 252h-526q-44 -135 -84 -274l141 -13v-104h-423v104l127 35q248 769 423 1219l195 31l31 -5q167 -413 456 -1267l134 -13v-104zM426 514h451q-147 443 -220 631h-20q-76 -204 -211 -631zM377 1714h602q8 -31 8 -78q0 -46 -8 -77h-602
q-8 31 -8 77q0 47 8 78z" />
    <glyph glyph-name="amacron" unicode="&#x101;" horiz-adv-x="1083" 
d="M1042 127v-92q-104 -51 -196 -51q-76 0 -112 32.5t-36 98.5v28h-22q-127 -170 -316 -170q-135 0 -208.5 72.5t-73.5 190.5q0 70 29 124.5t75 88.5t109.5 55.5t126.5 30t133 8.5q77 0 135 -8l2 194q3 219 -211 219q-52 0 -98 -10l-33 -240h-149q-64 46 -64 117t60.5 128
t152.5 86.5t193 29.5q170 0 270.5 -86t99.5 -244l-8 -588zM444 121q132 0 240 131l2 199h-45q-175 0 -251.5 -46t-76.5 -147q0 -137 131 -137zM260 1421h557q8 -33 8 -75q0 -47 -8 -78h-557q-8 31 -8 78q0 42 8 75z" />
    <glyph glyph-name="Abreve" unicode="&#x102;" horiz-adv-x="1411" 
d="M1389 0h-535v104l141 35l-80 252h-526q-44 -135 -84 -274l141 -13v-104h-423v104l127 35q248 769 423 1219l195 31l31 -5q167 -413 456 -1267l134 -13v-104zM426 514h451q-147 443 -220 631h-20q-76 -204 -211 -631zM369 1753l151 41q23 -88 69.5 -129t125.5 -41
q83 -1 131 41.5t76 126.5l79 -23q-20 -141 -106.5 -216.5t-224.5 -75.5t-214 71.5t-87 204.5z" />
    <glyph glyph-name="abreve" unicode="&#x103;" horiz-adv-x="1083" 
d="M1042 127v-92q-104 -51 -196 -51q-76 0 -112 32.5t-36 98.5v28h-22q-127 -170 -316 -170q-135 0 -208.5 72.5t-73.5 190.5q0 70 29 124.5t75 88.5t109.5 55.5t126.5 30t133 8.5q77 0 135 -8l2 194q3 219 -211 219q-52 0 -98 -10l-33 -240h-149q-64 46 -64 117t60.5 128
t152.5 86.5t193 29.5q170 0 270.5 -86t99.5 -244l-8 -588zM444 121q132 0 240 131l2 199h-45q-175 0 -251.5 -46t-76.5 -147q0 -137 131 -137zM244 1505l151 41q15 -104 57 -153.5t119 -49.5q79 -1 122 49.5t63 151.5l80 -24q-13 -159 -95.5 -241.5t-214.5 -82.5
q-133 0 -205 79t-77 230z" />
    <glyph glyph-name="Aogonek" unicode="&#x104;" horiz-adv-x="1411" 
d="M1386 0h-360q-74 -93 -74 -186q0 -131 135 -131q57 0 115 20l17 -86q-80 -53 -199 -53q-124 0 -191 56t-67 153q0 180 246 327q-9 27 -41.5 130t-51.5 161h-526q-44 -135 -84 -274l141 -13v-104h-423v104l127 35q248 769 423 1219l195 31l31 -5q167 -413 456 -1267
l131 -13v-104zM426 514h451q-147 443 -220 631h-20q-76 -204 -211 -631z" />
    <glyph glyph-name="aogonek" unicode="&#x105;" horiz-adv-x="1083" 
d="M1042 127v-94q-274 -90 -274 -244q0 -106 125 -106q55 0 113 20l18 -86q-80 -53 -203 -53q-120 0 -180.5 49.5t-60.5 136.5q0 75 40.5 133.5t104.5 93.5l-27 166h-22q-130 -170 -318 -170q-134 0 -207 72.5t-73 190.5q0 70 29 124.5t75 88.5t109.5 55.5t126.5 30t133 8.5
q77 0 135 -8l2 194q5 219 -211 219q-46 0 -98 -8l-33 -242h-149q-64 46 -64 117t60.5 128t152.5 86.5t193 29.5q171 0 271 -86.5t99 -243.5l-8 -588zM444 121q132 0 240 131l2 199h-45q-175 0 -251.5 -46t-76.5 -147q0 -137 131 -137z" />
    <glyph glyph-name="Cacute" unicode="&#x106;" horiz-adv-x="1337" 
d="M1190 270l41 -90q-175 -207 -483 -207q-127 0 -233.5 35.5t-183.5 99t-131 151t-80 192t-26 221.5q0 156 47 287t135.5 227t223 149.5t301.5 53.5q197 0 381 -80q10 -48 10 -119q0 -81 -16 -207h-150l-43 248q-86 26 -176 26q-221 0 -335 -138t-114 -406
q0 -285 122.5 -428.5t338.5 -143.5q197 0 371 129zM913 1837h101q78 -38 119 -121l-310 -239h-125z" />
    <glyph glyph-name="cacute" unicode="&#x107;" horiz-adv-x="1024" 
d="M911 238l39 -82q-150 -183 -397 -183q-118 0 -209.5 41.5t-148 114.5t-85 166.5t-28.5 202.5q0 255 142 408t366 153q64 0 122 -13.5t108 -40.5t80 -74.5t30 -109.5q0 -85 -62 -131h-159l-31 250q-39 8 -70 8q-133 0 -207.5 -101t-74.5 -298q0 -205 79 -309.5t218 -104.5
q136 0 288 103zM680 1585h100q36 -21 68.5 -54t52.5 -71l-297 -286h-117z" />
    <glyph glyph-name="Ccircumflex" unicode="&#x108;" horiz-adv-x="1337" 
d="M1190 270l41 -90q-175 -207 -483 -207q-127 0 -233.5 35.5t-183.5 99t-131 151t-80 192t-26 221.5q0 156 47 287t135.5 227t223 149.5t301.5 53.5q197 0 381 -80q10 -48 10 -119q0 -81 -16 -207h-150l-43 248q-86 26 -176 26q-221 0 -335 -138t-114 -406
q0 -285 122.5 -428.5t338.5 -143.5q197 0 371 129zM932 1452l-205 176h-20l-181 -151h-127l297 342h135l246 -279z" />
    <glyph glyph-name="ccircumflex" unicode="&#x109;" horiz-adv-x="1024" 
d="M911 238l39 -82q-150 -183 -397 -183q-118 0 -209.5 41.5t-148 114.5t-85 166.5t-28.5 202.5q0 255 142 408t366 153q64 0 122 -13.5t108 -40.5t80 -74.5t30 -109.5q0 -85 -62 -131h-159l-31 250q-39 8 -70 8q-133 0 -207.5 -101t-74.5 -298q0 -205 79 -309.5t218 -104.5
q136 0 288 103zM735 1157l-186 219h-21l-161 -202h-117l268 397h135l228 -334z" />
    <glyph glyph-name="Cdotaccent" unicode="&#x10a;" horiz-adv-x="1337" 
d="M1190 270l41 -90q-175 -207 -483 -207q-127 0 -233.5 35.5t-183.5 99t-131 151t-80 192t-26 221.5q0 156 47 287t135.5 227t223 149.5t301.5 53.5q197 0 381 -80q10 -48 10 -119q0 -81 -16 -207h-150l-43 248q-86 26 -176 26q-221 0 -335 -138t-114 -406
q0 -285 122.5 -428.5t338.5 -143.5q197 0 371 129zM750 1765q50 0 84 -12q34 -48 34 -111q0 -65 -51 -133h-182l-27 230q61 26 142 26z" />
    <glyph glyph-name="cdotaccent" unicode="&#x10b;" horiz-adv-x="1024" 
d="M911 238l39 -82q-150 -183 -397 -183q-118 0 -209.5 41.5t-148 114.5t-85 166.5t-28.5 202.5q0 255 142 408t366 153q64 0 122 -13.5t108 -40.5t80 -74.5t30 -109.5q0 -85 -62 -131h-159l-31 250q-39 8 -70 8q-133 0 -207.5 -101t-74.5 -298q0 -205 79 -309.5t218 -104.5
q136 0 288 103zM584 1497q50 0 78 -12q34 -52 34 -109q0 -60 -51 -133h-180l-29 232q73 22 148 22z" />
    <glyph glyph-name="Ccaron" unicode="&#x10c;" horiz-adv-x="1337" 
d="M1190 270l41 -90q-175 -207 -483 -207q-127 0 -233.5 35.5t-183.5 99t-131 151t-80 192t-26 221.5q0 156 47 287t135.5 227t223 149.5t301.5 53.5q197 0 381 -80q10 -48 10 -119q0 -81 -16 -207h-150l-43 248q-86 26 -176 26q-221 0 -335 -138t-114 -406
q0 -285 122.5 -428.5t338.5 -143.5q197 0 371 129zM770 1667l180 152h127l-297 -342h-135l-246 278l144 88l207 -176h20z" />
    <glyph glyph-name="ccaron" unicode="&#x10d;" horiz-adv-x="1024" 
d="M911 238l39 -82q-150 -183 -397 -183q-118 0 -209.5 41.5t-148 114.5t-85 166.5t-28.5 202.5q0 255 142 408t366 153q64 0 122 -13.5t108 -40.5t80 -74.5t30 -109.5q0 -85 -62 -131h-159l-31 250q-39 8 -70 8q-133 0 -207.5 -101t-74.5 -298q0 -205 79 -309.5t218 -104.5
q136 0 288 103zM608 1370l162 203h117l-269 -397h-135l-227 333l145 82l187 -221h20z" />
    <glyph glyph-name="Dcaron" unicode="&#x10e;" horiz-adv-x="1452" 
d="M590 1376q138 0 251 -22t197 -64t145.5 -100t99.5 -133.5t56.5 -161.5t18.5 -186q0 -161 -43.5 -290t-130.5 -223t-226.5 -145t-322.5 -51h-547v104l156 37v1102l-156 12v107q270 14 502 14zM483 125h152q244 0 351.5 138.5t107.5 436.5q0 278 -103 414.5t-340 136.5
h-168v-1126zM739 1667l181 152h127l-297 -342h-136l-245 278l143 88l207 -176h20z" />
    <glyph glyph-name="dcaron" unicode="&#x10f;" horiz-adv-x="1447" 
d="M1042 162l138 -37v-92q-182 -44 -312 -49l-43 12l13 147h-23q-129 -170 -328 -170q-190 0 -291.5 138t-101.5 364q0 263 134.5 423.5t361.5 160.5q125 0 231 -41v350l-135 27v96q166 45 313 51l43 -14v-1366zM616 944q-143 0 -212.5 -113.5t-69.5 -318.5
q0 -202 63 -287.5t183 -85.5q78 0 134.5 31t106.5 90v629q-91 55 -205 55zM1303 1542q70 0 133 -35q-3 -129 -42.5 -234.5t-121.5 -205.5h-107l54 268v197q25 10 84 10z" />
    <glyph glyph-name="Dcroat" unicode="&#x110;" horiz-adv-x="1474" 
d="M612 1376q205 0 355 -48t239.5 -138.5t131.5 -209t42 -269.5q0 -162 -43.5 -291t-130.5 -223.5t-226.5 -145.5t-322.5 -51h-546v104l155 37h2v502h-157v123h157v477h-2l-155 12v107q269 14 501 14zM508 125h149q244 0 351.5 138.5t107.5 436.5q0 278 -102.5 414.5
t-339.5 136.5h-166v-485h272v-123h-272v-518z" />
    <glyph glyph-name="dcroat" unicode="&#x111;" horiz-adv-x="1232" 
d="M1042 162l138 -37v-92q-182 -44 -312 -49l-43 12l13 147h-23q-129 -170 -328 -170q-190 0 -291.5 138t-101.5 364q0 263 134.5 423.5t361.5 160.5q124 0 231 -41v231h-291v117h291v145q65 18 178 33l43 -12v-166h168v-117h-168v-1087zM821 260v629q-88 55 -205 55
q-143 0 -212.5 -113.5t-69.5 -318.5q0 -202 63 -287.5t183 -85.5q78 0 134.5 31t106.5 90z" />
    <glyph glyph-name="Emacron" unicode="&#x112;" horiz-adv-x="1261" 
d="M1006 334l147 -12q6 -43 6 -105q0 -93 -26 -217h-1045v104l156 37v1102l-156 14v105h1049v-8q10 -58 10 -129q0 -90 -14 -183h-144l-35 185l-471 16v-481l262 2l23 119h104v-379h-104l-25 131l-260 2v-518l465 16zM328 1714h602q8 -31 8 -78q0 -46 -8 -77h-602
q-9 35 -9 77q0 44 9 78z" />
    <glyph glyph-name="emacron" unicode="&#x113;" horiz-adv-x="1067" 
d="M934 242l39 -82q-151 -187 -408 -187q-122 0 -216.5 42t-151.5 115t-86 166t-29 202q0 256 142.5 408.5t373.5 152.5q187 0 280 -102t93 -269q0 -88 -21 -164h-631q6 -190 88 -288.5t224 -98.5q141 0 303 105zM569 944q-98 0 -166 -83t-81 -240l428 18v12q0 293 -181 293
zM285 1421h557q8 -33 8 -75q0 -47 -8 -78h-557q-9 34 -9 78q0 38 9 75z" />
    <glyph glyph-name="Ebreve" unicode="&#x114;" horiz-adv-x="1261" 
d="M1006 334l147 -12q6 -43 6 -105q0 -93 -26 -217h-1045v104l156 37v1102l-156 14v105h1049v-8q10 -58 10 -129q0 -90 -14 -183h-144l-35 185l-471 16v-481l262 2l23 119h104v-379h-104l-25 131l-260 2v-518l465 16zM319 1753l152 41q23 -88 69.5 -129t125.5 -41
q83 -1 130.5 41.5t75.5 126.5l80 -23q-20 -141 -106.5 -216.5t-224.5 -75.5t-214.5 71.5t-87.5 204.5z" />
    <glyph glyph-name="ebreve" unicode="&#x115;" horiz-adv-x="1067" 
d="M934 242l39 -82q-151 -187 -408 -187q-122 0 -216.5 42t-151.5 115t-86 166t-29 202q0 256 142.5 408.5t373.5 152.5q187 0 280 -102t93 -269q0 -88 -21 -164h-631q6 -190 88 -288.5t224 -98.5q141 0 303 105zM569 944q-98 0 -166 -83t-81 -240l428 18v12q0 293 -181 293
zM268 1505l152 41q15 -104 57 -153.5t119 -49.5q79 -1 121.5 49t62.5 152l80 -24q-13 -159 -95 -241.5t-214 -82.5q-134 0 -206.5 79t-76.5 230z" />
    <glyph glyph-name="Edotaccent" unicode="&#x116;" horiz-adv-x="1261" 
d="M1006 334l147 -12q6 -43 6 -105q0 -93 -26 -217h-1045v104l156 37v1102l-156 14v105h1049v-8q10 -58 10 -129q0 -90 -14 -183h-144l-35 185l-471 16v-481l262 2l23 119h104v-379h-104l-25 131l-260 2v-518l465 16zM639 1765q49 0 84 -12q35 -49 35 -111q0 -65 -51 -133
h-183l-26 230q61 26 141 26z" />
    <glyph glyph-name="edotaccent" unicode="&#x117;" horiz-adv-x="1067" 
d="M934 242l39 -82q-151 -187 -408 -187q-122 0 -216.5 42t-151.5 115t-86 166t-29 202q0 256 142.5 408.5t373.5 152.5q187 0 280 -102t93 -269q0 -88 -21 -164h-631q6 -190 88 -288.5t224 -98.5q141 0 303 105zM569 944q-98 0 -166 -83t-81 -240l428 18v12q0 293 -181 293
zM582 1497q49 0 77 -12q35 -53 35 -109q0 -60 -51 -133h-180l-29 232q73 22 148 22z" />
    <glyph glyph-name="Eogonek" unicode="&#x118;" horiz-adv-x="1261" 
d="M1133 0h-138q-123 -108 -123 -203q0 -58 34.5 -86t92.5 -28q53 0 111 20l18 -86q-83 -53 -198 -53q-122 0 -184 51.5t-62 138.5q0 143 174 226v20h-770v104l156 37v1102l-156 14v105h1049v-8q10 -58 10 -131q0 -88 -14 -181h-144l-35 185l-471 16v-481l262 2l23 119h104
v-379h-104l-25 131l-260 2v-518l465 16l58 199l147 -12q6 -43 6 -105q0 -93 -26 -217z" />
    <glyph glyph-name="eogonek" unicode="&#x119;" horiz-adv-x="1067" 
d="M807 -317q55 0 113 20l18 -86q-83 -53 -201 -53q-119 0 -181 49t-62 129q0 70 44 130t113 99l-6 15q-54 -13 -94 -13q-115 0 -205.5 42t-147.5 115t-86.5 168t-29.5 204q0 252 143 404.5t373 152.5q187 0 280 -102t93 -269q0 -88 -21 -164h-631q6 -190 88.5 -288.5
t223.5 -98.5t303 105l39 -84q-30 -30 -96 -88q-109 -94 -152 -149t-43 -120q0 -118 125 -118zM569 944q-98 0 -166 -83t-81 -240l428 18v12q0 293 -181 293z" />
    <glyph glyph-name="Ecaron" unicode="&#x11a;" horiz-adv-x="1261" 
d="M1006 334l147 -12q6 -43 6 -105q0 -93 -26 -217h-1045v104l156 37v1102l-156 14v105h1049v-8q10 -58 10 -129q0 -90 -14 -183h-144l-35 185l-471 16v-481l262 2l23 119h104v-379h-104l-25 131l-260 2v-518l465 16zM659 1667l181 152h127l-297 -342h-135l-246 278l143 88
l207 -176h20z" />
    <glyph glyph-name="ecaron" unicode="&#x11b;" horiz-adv-x="1067" 
d="M934 242l39 -82q-151 -187 -408 -187q-122 0 -216.5 42t-151.5 115t-86 166t-29 202q0 256 142.5 408.5t373.5 152.5q187 0 280 -102t93 -269q0 -88 -21 -164h-631q6 -190 88 -288.5t224 -98.5q141 0 303 105zM569 944q-98 0 -166 -83t-81 -240l428 18v12q0 293 -181 293
zM606 1370l162 203h117l-269 -397h-135l-227 333l145 82l187 -221h20z" />
    <glyph glyph-name="Gcircumflex" unicode="&#x11c;" horiz-adv-x="1406" 
d="M1321 496l-100 -35v-406q-88 -38 -211 -60t-234 -22q-169 0 -301.5 54.5t-214.5 150.5t-124 220t-42 270q0 211 85 373.5t250 255t388 92.5q210 0 385 -80q10 -48 10 -117q0 -97 -16 -188h-149l-37 219q-79 34 -191 34q-226 0 -343.5 -143.5t-117.5 -431.5
q0 -287 114.5 -432.5t320.5 -145.5q114 0 225 48l-29 331l-186 13v104h518v-104zM932 1452l-205 176h-20l-181 -151h-127l297 342h135l246 -279z" />
    <glyph glyph-name="gcircumflex" unicode="&#x11d;" horiz-adv-x="1114" 
d="M930 1008l-60 -70q84 -93 84 -225q0 -165 -124.5 -265t-325.5 -100q-63 0 -107 8v-139l316 -35q187 -24 267.5 -83t80.5 -162q0 -167 -173 -270t-452 -103q-401 0 -401 248q0 100 59.5 165.5t155.5 77.5q-6 129 39 334q-96 42 -145.5 120.5t-49.5 178.5q0 166 125 268.5
t326 102.5q157 0 264 -70q21 98 58.5 154.5t109.5 56.5q63 0 108 -45l-16 -147h-139zM524 461q101 0 151 62.5t50 178.5q0 118 -50 181t-151 63q-200 0 -200 -244q0 -241 200 -241zM612 -18l-309 41q-51 -73 -51 -164q0 -181 260 -181q88 0 168.5 18.5t138.5 60.5t58 98
q0 31 -19.5 51.5t-78.5 40t-167 35.5zM680 1157l-186 219h-21l-162 -202h-116l268 397h135l227 -334z" />
    <glyph glyph-name="Gbreve" unicode="&#x11e;" horiz-adv-x="1406" 
d="M1321 496l-100 -35v-406q-88 -38 -211 -60t-234 -22q-169 0 -301.5 54.5t-214.5 150.5t-124 220t-42 270q0 211 85 373.5t250 255t388 92.5q210 0 385 -80q10 -48 10 -117q0 -97 -16 -188h-149l-37 219q-79 34 -191 34q-226 0 -343.5 -143.5t-117.5 -431.5
q0 -287 114.5 -432.5t320.5 -145.5q114 0 225 48l-29 331l-186 13v104h518v-104zM430 1753l152 41q23 -89 69 -129.5t125 -40.5q83 -1 131 41.5t76 126.5l80 -23q-20 -141 -107 -216.5t-225 -75.5t-214 71.5t-87 204.5z" />
    <glyph glyph-name="gbreve" unicode="&#x11f;" horiz-adv-x="1114" 
d="M930 1008l-60 -70q84 -93 84 -225q0 -165 -124.5 -265t-325.5 -100q-63 0 -107 8v-139l316 -35q187 -24 267.5 -83t80.5 -162q0 -167 -173 -270t-452 -103q-401 0 -401 248q0 100 59.5 165.5t155.5 77.5q-6 129 39 334q-96 42 -145.5 120.5t-49.5 178.5q0 166 125 268.5
t326 102.5q157 0 264 -70q21 98 58.5 154.5t109.5 56.5q63 0 108 -45l-16 -147h-139zM524 461q101 0 151 62.5t50 178.5q0 118 -50 181t-151 63q-200 0 -200 -244q0 -241 200 -241zM612 -18l-309 41q-51 -73 -51 -164q0 -181 260 -181q88 0 168.5 18.5t138.5 60.5t58 98
q0 31 -19.5 51.5t-78.5 40t-167 35.5zM215 1505l152 41q15 -104 57 -153.5t119 -49.5q79 -1 121.5 49t62.5 152l80 -24q-13 -159 -95 -241.5t-214 -82.5q-134 0 -206.5 79t-76.5 230z" />
    <glyph glyph-name="Gdotaccent" unicode="&#x120;" horiz-adv-x="1406" 
d="M1321 496l-100 -35v-406q-88 -38 -211 -60t-234 -22q-169 0 -301.5 54.5t-214.5 150.5t-124 220t-42 270q0 211 85 373.5t250 255t388 92.5q210 0 385 -80q10 -48 10 -117q0 -97 -16 -188h-149l-37 219q-79 34 -191 34q-226 0 -343.5 -143.5t-117.5 -431.5
q0 -287 114.5 -432.5t320.5 -145.5q114 0 225 48l-29 331l-186 13v104h518v-104zM750 1765q50 0 84 -12q34 -48 34 -111q0 -65 -51 -133h-182l-27 230q61 26 142 26z" />
    <glyph glyph-name="gdotaccent" unicode="&#x121;" horiz-adv-x="1114" 
d="M930 1008l-60 -70q84 -93 84 -225q0 -165 -124.5 -265t-325.5 -100q-63 0 -107 8v-139l316 -35q187 -24 267.5 -83t80.5 -162q0 -167 -173 -270t-452 -103q-401 0 -401 248q0 100 59.5 165.5t155.5 77.5q-6 129 39 334q-96 42 -145.5 120.5t-49.5 178.5q0 166 125 268.5
t326 102.5q157 0 264 -70q21 98 58.5 154.5t109.5 56.5q63 0 108 -45l-16 -147h-139zM524 461q101 0 151 62.5t50 178.5q0 118 -50 181t-151 63q-200 0 -200 -244q0 -241 200 -241zM612 -18l-309 41q-51 -73 -51 -164q0 -181 260 -181q88 0 168.5 18.5t138.5 60.5t58 98
q0 31 -19.5 51.5t-78.5 40t-167 35.5zM528 1497q50 0 78 -12q35 -53 35 -109q0 -60 -51 -133h-180l-29 232q73 22 147 22z" />
    <glyph glyph-name="Gcommaaccent" unicode="&#x122;" horiz-adv-x="1406" 
d="M1321 496l-100 -35v-406q-88 -38 -211 -60t-234 -22q-169 0 -301.5 54.5t-214.5 150.5t-124 220t-42 270q0 211 85 373.5t250 255t388 92.5q210 0 385 -80q10 -48 10 -117q0 -97 -16 -188h-149l-37 219q-79 34 -191 34q-226 0 -343.5 -143.5t-117.5 -431.5
q0 -287 114.5 -432.5t320.5 -145.5q114 0 225 48l-29 331l-186 13v104h518v-104zM733 -102q53 0 94 -17q37 -58 37 -131q0 -90 -54.5 -158.5t-156.5 -95.5l-32 60q53 32 80.5 61.5t27.5 67.5q0 18 -2 30l-90 13l-4 155q62 15 100 15z" />
    <glyph glyph-name="gcommaaccent" unicode="&#x123;" horiz-adv-x="1114" 
d="M930 1008l-60 -70q84 -93 84 -225q0 -165 -124.5 -265t-325.5 -100q-63 0 -107 8v-139l316 -35q187 -24 267.5 -83t80.5 -162q0 -167 -173 -270t-452 -103q-401 0 -401 248q0 100 59.5 165.5t155.5 77.5q-6 129 39 334q-96 42 -145.5 120.5t-49.5 178.5q0 166 125 268.5
t326 102.5q157 0 264 -70q21 98 58.5 154.5t109.5 56.5q63 0 108 -45l-16 -147h-139zM524 461q101 0 151 62.5t50 178.5q0 118 -50 181t-151 63q-200 0 -200 -244q0 -241 200 -241zM612 -18l-309 41q-51 -73 -51 -164q0 -181 260 -181q88 0 168.5 18.5t138.5 60.5t58 98
q0 31 -19.5 51.5t-78.5 40t-167 35.5zM602 1587l35 -59q-58 -34 -86.5 -63.5t-28.5 -69.5q0 -19 2 -31l90 -12l4 -156q-58 -14 -100 -14q-55 0 -94 16q-37 58 -37 131q0 91 55.5 160.5t159.5 97.5z" />
    <glyph glyph-name="Hcircumflex" unicode="&#x124;" horiz-adv-x="1579" 
d="M1333 117h2l156 -13v-104h-549v104l152 37v500h-611v-524h2l164 -13v-104h-561v104l156 37v1104l-156 12v105h561v-105l-164 -34h-2v-455h611v477l-166 12v105h563v-105l-156 -34h-2v-1106zM993 1452l-205 176h-20l-180 -151h-127l297 342h135l246 -279z" />
    <glyph glyph-name="hcircumflex" unicode="&#x125;" horiz-adv-x="1247" 
d="M799 1513l-187 154h-20l-141 -131h-117l248 299h135l227 -236zM412 1446v-340q0 -39 -2.5 -74.5t-8 -83t-6.5 -59.5h23q134 170 327 170q149 0 237.5 -87t88.5 -249v-610l154 -13v-100h-500v100l125 37v545q0 213 -193 213q-144 0 -245 -123v-659l141 -13v-100h-500v100
l137 37v1147l-137 29v96q166 45 316 51z" />
    <glyph glyph-name="Hbar" unicode="&#x126;" horiz-adv-x="1601" 
d="M1348 121l157 -17v-104h-563v104l164 37v430h-608v-450l164 -17v-104h-562v104l158 37v772h-213v117h213v213l-158 14v105h562v-105l-164 -34v-193h608v213l-166 14v105h563v-105l-155 -34v-193h208v-117h-208v-792zM498 913v-215h608v215h-608z" />
    <glyph glyph-name="hbar" unicode="&#x127;" horiz-adv-x="1247" 
d="M1225 0h-500v100l123 37v545q0 106 -49 159.5t-142 53.5q-142 0 -247 -123v-659l143 -13v-100h-500v100l135 37v1112h-163v117h163v141q99 27 179 35l43 -10v-166h317v-117h-317v-139q0 -52 -7.5 -135.5t-7.5 -85.5h21q137 170 329 170q147 0 235.5 -87t88.5 -249v-610
l156 -13v-100z" />
    <glyph glyph-name="Itilde" unicode="&#x128;" horiz-adv-x="729" 
d="M483 117h2l156 -13v-104h-553v104l156 37v1104l-156 12v105h553v-105l-156 -34h-2v-1106zM641 1772l64 -56q-19 -43 -33 -69.5t-40 -62t-60.5 -53.5t-77.5 -18q-48 0 -105 25l-190 86l-103 -108l-65 55q19 43 33 69.5t40 62t60.5 53.5t77.5 18q44 0 104 -25l191 -88z" />
    <glyph glyph-name="itilde" unicode="&#x129;" horiz-adv-x="614" 
d="M575 0h-507v100l135 37v731l-135 41v95q161 40 313 49l43 -13v-925l151 -15v-100zM518 1491l64 -53q-16 -40 -31 -69.5t-40 -65.5t-58.5 -56t-71.5 -20q-41 0 -90 30l-127 82l-96 -110l-64 51q13 32 23 54.5t29.5 55t39.5 53t48.5 35.5t60.5 15q40 0 90 -33l127 -80z" />
    <glyph glyph-name="Imacron" unicode="&#x12a;" horiz-adv-x="729" 
d="M483 117h2l156 -13v-104h-553v104l156 37v1104l-156 12v105h553v-105l-156 -34h-2v-1106zM68 1714h602q8 -31 8 -78q0 -46 -8 -77h-602q-9 35 -9 77q0 44 9 78z" />
    <glyph glyph-name="imacron" unicode="&#x12b;" horiz-adv-x="614" 
d="M575 0h-507v100l135 37v731l-135 41v95q161 40 313 49l43 -13v-925l151 -15v-100zM53 1421h482q8 -33 8 -75q0 -47 -8 -78h-482q-8 31 -8 78q0 42 8 75z" />
    <glyph glyph-name="Ibreve" unicode="&#x12c;" horiz-adv-x="729" 
d="M483 117h2l156 -13v-104h-553v104l156 37v1104l-156 12v105h553v-105l-156 -34h-2v-1106zM59 1753l152 41q23 -88 69.5 -129t125.5 -41q83 -1 130.5 41.5t75.5 126.5l80 -23q-20 -141 -107 -216.5t-225 -75.5t-214 71.5t-87 204.5z" />
    <glyph glyph-name="ibreve" unicode="&#x12d;" horiz-adv-x="614" 
d="M575 0h-507v100l135 37v731l-135 41v95q161 40 313 49l43 -13v-925l151 -15v-100zM485 1542l80 -22q-15 -160 -90 -242t-196 -82q-118 0 -186.5 79.5t-74.5 227.5l152 41q14 -104 50.5 -152.5t103.5 -48.5t104.5 48.5t56.5 150.5z" />
    <glyph glyph-name="Iogonek" unicode="&#x12e;" horiz-adv-x="729" 
d="M483 117l158 -13v-104q-131 -40 -200.5 -96.5t-69.5 -122.5q0 -48 34 -73t91 -25q54 0 112 20l19 -86q-83 -53 -201 -53q-119 0 -181.5 48t-62.5 124q0 77 58.5 140.5t150.5 103.5v20h-303v104l156 35v1106l-156 12v105h553v-105l-156 -34h-2v-1106z" />
    <glyph glyph-name="iogonek" unicode="&#x12f;" horiz-adv-x="614" 
d="M199 1243l-29 230q66 24 147 24q43 0 78 -12q35 -53 35 -109q0 -60 -51 -133h-180zM575 100v-100q-128 -35 -198 -89t-70 -124q0 -50 34.5 -77t92.5 -27q55 0 113 20l16 -86q-80 -53 -198 -53q-120 0 -183 53t-63 135q0 145 205 228v20h-256v100l135 37v731l-135 41v95
q161 40 313 49l43 -13v-925z" />
    <glyph glyph-name="Idotaccent" unicode="&#x130;" horiz-adv-x="729" 
d="M483 117h2l156 -13v-104h-553v104l156 37v1104l-156 12v105h553v-105l-156 -34h-2v-1106zM393 1763q50 0 78 -12q35 -53 35 -109q0 -60 -51 -133h-181l-28 232q73 22 147 22z" />
    <glyph glyph-name="dotlessi" unicode="&#x131;" horiz-adv-x="614" 
d="M575 0h-507v100l135 37v731l-135 41v95q161 40 313 49l43 -13v-925l151 -15v-100z" />
    <glyph glyph-name="IJ" unicode="&#x132;" horiz-adv-x="1720" 
d="M1667 1257l-156 -34h-2v-842q0 -112 -32.5 -194t-90.5 -127.5t-127 -66t-153 -20.5q-162 0 -251 71t-89 171q0 78 59 131h152l41 -237q40 -9 76 -9q86 0 131 53.5t45 182.5v909l-226 12v105h623v-105zM483 117h2l156 -13v-104h-553v104l156 37v1104l-156 12v105h553v-105
l-156 -34h-2v-1106z" />
    <glyph glyph-name="ij" unicode="&#x133;" horiz-adv-x="1196" 
d="M575 0h-507v100l135 37v731l-135 41v95q161 40 313 49l43 -13v-925l151 -15v-100zM1026 1040v-1046q0 -111 -33 -191.5t-95.5 -135.5t-164.5 -103l-61 63l131 191v1050l-135 41v95q155 40 313 49zM922 1501q49 0 77 -12q35 -53 35 -109q0 -60 -51 -133h-180l-29 232
q73 22 148 22zM319 1501q50 0 78 -12q35 -53 35 -109q0 -60 -51 -133h-180l-29 232q73 22 147 22z" />
    <glyph glyph-name="Jcircumflex" unicode="&#x134;" horiz-adv-x="991" 
d="M938 1257l-156 -34h-2v-842q0 -112 -32.5 -194t-90.5 -127.5t-127 -66t-153 -20.5q-162 0 -251 71t-89 171q0 78 59 131h152l41 -237q41 -9 76 -9q86 0 131 53.5t45 182.5v909l-226 12v105h623v-105zM811 1452l-205 176h-20l-180 -151h-127l296 342h136l245 -279z" />
    <glyph glyph-name="jcircumflex" unicode="&#x135;" horiz-adv-x="581" 
d="M412 1040v-1046q0 -111 -33 -191.5t-95.5 -135.5t-164.5 -103l-62 63l131 191v1050l-135 41v95q155 39 314 49zM389 1171l-143 201h-23l-119 -182h-116l227 381h133l187 -318z" />
    <glyph glyph-name="Kcommaaccent" unicode="&#x136;" horiz-adv-x="1411" 
d="M1372 100l-8 -86q-82 -32 -152 -32q-99 0 -158 40.5t-120 133.5q-36 55 -78.5 131.5t-104 191t-85.5 158.5h-183v-520h2l164 -13v-104h-561v104l156 37v1102l-156 12v107h549v-105l-152 -34h-2v-461h203q157 212 338 481l-168 14v105h477v-105l-123 -28
q-183 -237 -374 -457q46 -64 104 -150.5t88 -133t112.5 -178t98.5 -156.5zM709 -102q53 0 94 -17q37 -58 37 -131q0 -90 -54.5 -158.5t-156.5 -95.5l-33 60q53 32 81 61.5t28 67.5q0 12 -3 30l-90 13l-4 155q62 15 101 15z" />
    <glyph glyph-name="kcommaaccent" unicode="&#x137;" horiz-adv-x="1175" 
d="M1157 86l-6 -76q-70 -28 -143 -28q-82 0 -134 31.5t-98 107.5q-12 20 -36 62t-74.5 132t-94.5 168h-159v-370l129 -11v-102h-488v100l135 37h2v1231l-137 29v96q157 42 316 49l43 -14v-928h143q133 150 266 315l-143 13v100h436v-100l-129 -33q-152 -155 -270 -266
q102 -141 332 -500zM614 -102q54 0 95 -17q36 -56 36 -131q0 -90 -54 -158.5t-156 -95.5l-33 60q53 32 80.5 61.5t27.5 67.5q0 18 -2 30l-90 13l-4 155q62 15 100 15z" />
    <glyph glyph-name="kgreenlandic" unicode="&#x138;" horiz-adv-x="1189" 
d="M1171 86l-6 -76q-70 -28 -143 -28q-82 0 -133.5 31.5t-97.5 107.5q-11 16 -34.5 58t-73.5 131.5t-97 172.5h-162v-370l131 -11v-102h-487v100l135 37v731l-135 41v95q165 43 313 49l43 -15v-438h145q145 163 267 315l-144 13v100h436v-100l-129 -33q-152 -155 -270 -266
q102 -141 332 -500z" />
    <glyph glyph-name="Lacute" unicode="&#x139;" horiz-adv-x="1142" 
d="M938 352l145 -12q7 -116 7 -123q0 -112 -27 -217h-975v104l156 37v1104l-156 12v105h578v-105l-181 -34h-2v-1104l391 14zM547 1837h100q78 -38 119 -121l-309 -239h-125z" />
    <glyph glyph-name="lacute" unicode="&#x13a;" horiz-adv-x="600" 
d="M272 1536l123 299h86q81 -45 119 -119l-199 -180h-129zM561 100v-100h-508v100l135 37h2v1149l-137 29v96q157 42 316 49l43 -14v-1333z" />
    <glyph glyph-name="Lcommaaccent" unicode="&#x13b;" horiz-adv-x="1142" 
d="M938 352l145 -12q7 -116 7 -123q0 -112 -27 -217h-975v104l156 37v1104l-156 12v105h578v-105l-181 -34h-2v-1104l391 14zM559 -102q53 0 94 -17q37 -58 37 -131q0 -90 -54.5 -158.5t-156.5 -95.5l-33 60q53 32 81 61.5t28 67.5q0 18 -2 30l-90 13l-4 155q62 15 100 15z
" />
    <glyph glyph-name="lcommaaccent" unicode="&#x13c;" horiz-adv-x="600" 
d="M561 0h-508v100l135 37h2v1231l-137 29v96q157 42 316 49l43 -14v-1415l149 -13v-100zM287 -102q53 0 94 -17q37 -58 37 -131q0 -90 -54.5 -158.5t-156.5 -95.5l-33 60q53 32 81 61.5t28 67.5q0 18 -2 30l-91 13l-4 155q62 15 101 15z" />
    <glyph glyph-name="Lcaron" unicode="&#x13d;" horiz-adv-x="1142" 
d="M938 352l145 -12q7 -116 7 -123q0 -112 -27 -217h-975v104l156 37v1104l-156 12v105h578v-105l-181 -34h-2v-1104l391 14zM942 1384q71 0 133 -34q-3 -129 -42.5 -235t-121.5 -206h-106l53 269v196q25 10 84 10z" />
    <glyph glyph-name="lcaron" unicode="&#x13e;" horiz-adv-x="825" 
d="M561 0h-508v100l135 37h2v1231l-137 29v96q157 42 316 49l43 -14v-1415l149 -13v-100zM680 1542q70 0 133 -35q-3 -129 -42.5 -234.5t-121.5 -205.5h-106l53 268v197q25 10 84 10z" />
    <glyph glyph-name="Ldot" unicode="&#x13f;" horiz-adv-x="1126" 
d="M934 903q50 0 84 -12q35 -49 35 -111q0 -63 -52 -133h-176l-22 232q50 24 131 24zM938 352l145 -12q7 -116 7 -123q0 -112 -27 -217h-975v104l156 37v1104l-156 12v105h578v-105l-181 -34h-2v-1104l391 14z" />
    <glyph glyph-name="ldot" unicode="&#x140;" horiz-adv-x="698" 
d="M651 858q47 0 84 -12q35 -53 35 -111q0 -65 -51 -133h-172l-23 232q58 24 127 24zM561 0h-508v100l135 37h2v1231l-137 29v96q157 42 316 49l43 -14v-1415l149 -13v-100z" />
    <glyph glyph-name="Lslash" unicode="&#x141;" horiz-adv-x="1144" 
d="M940 352l145 -12q7 -116 7 -123q0 -112 -27 -217h-975v104l156 37v428l-176 -69l-17 26v97l193 75v547l-158 12v105h580v-105l-183 -34v-445l408 164l16 -27v-96l-424 -170v-530l392 14z" />
    <glyph glyph-name="lslash" unicode="&#x142;" horiz-adv-x="673" 
d="M446 113l152 -13v-100h-508v100l135 37v471l-145 -73l-17 24v98l162 82v629l-135 29v96q158 43 316 49l40 -14v-690l156 77l14 -24v-96l-170 -86v-596z" />
    <glyph glyph-name="Nacute" unicode="&#x143;" horiz-adv-x="1554" 
d="M1329 1223v-1219l-192 -31l-35 4l-543 922q-92 156 -156 301h-20l16 -1083l185 -13v-104h-496v104l156 37v1102l-156 14v105h479l432 -733q103 -179 175 -326h20l-20 942l-185 12v105h496v-105zM952 1837h101q77 -38 118 -121l-309 -239h-125z" />
    <glyph glyph-name="nacute" unicode="&#x144;" horiz-adv-x="1263" 
d="M1241 0h-498v100l123 37v545q0 106 -49.5 159.5t-144.5 53.5q-143 0 -248 -123v-659l143 -13v-100h-499v100l135 37v731l-135 41v95q186 44 309 49l43 -13l-10 -151h22q134 170 328 170q149 0 238 -87t89 -249v-610l154 -13v-100zM756 1585h100q36 -21 68.5 -54t52.5 -71
l-297 -286h-117z" />
    <glyph glyph-name="Ncommaaccent" unicode="&#x145;" horiz-adv-x="1554" 
d="M1329 1223v-1219l-192 -31l-35 4l-543 922q-92 156 -156 301h-20l16 -1083l185 -13v-104h-496v104l156 37v1102l-156 14v105h479l432 -733q103 -179 175 -326h20l-20 942l-185 12v105h496v-105zM762 -102q53 0 94 -17q37 -58 37 -131q0 -90 -54.5 -158.5t-156.5 -95.5
l-33 60q53 32 81 61.5t28 67.5q0 18 -2 30l-90 13l-4 155q62 15 100 15z" />
    <glyph glyph-name="ncommaaccent" unicode="&#x146;" horiz-adv-x="1263" 
d="M1241 0h-498v100l123 37v545q0 106 -49.5 159.5t-144.5 53.5q-143 0 -248 -123v-659l143 -13v-100h-499v100l135 37v731l-135 41v95q186 44 309 49l43 -13l-10 -151h22q134 170 328 170q149 0 238 -87t89 -249v-610l154 -13v-100zM627 -102q53 0 94 -17q37 -58 37 -131
q0 -90 -54.5 -158.5t-156.5 -95.5l-33 60q53 32 81 61.5t28 67.5q0 18 -2 30l-91 13l-4 155q62 15 101 15z" />
    <glyph glyph-name="Ncaron" unicode="&#x147;" horiz-adv-x="1554" 
d="M1329 1223v-1219l-192 -31l-35 4l-543 922q-92 156 -156 301h-20l16 -1083l185 -13v-104h-496v104l156 37v1102l-156 14v105h479l432 -733q103 -179 175 -326h20l-20 942l-185 12v105h496v-105zM809 1667l180 152h127l-297 -342h-135l-246 278l144 88l206 -176h21z" />
    <glyph glyph-name="ncaron" unicode="&#x148;" horiz-adv-x="1263" 
d="M1241 0h-498v100l123 37v545q0 106 -49.5 159.5t-144.5 53.5q-143 0 -248 -123v-659l143 -13v-100h-499v100l135 37v731l-135 41v95q186 44 309 49l43 -13l-10 -151h22q134 170 328 170q149 0 238 -87t89 -249v-610l154 -13v-100zM684 1370l162 203h117l-269 -397h-135
l-227 333l145 82l187 -221h20z" />
    <glyph glyph-name="napostrophe" unicode="&#x149;" horiz-adv-x="1263" 
d="M49 1542q67 0 109 -18q47 -78 47 -160q0 -114 -69 -191t-189 -100l-23 68q123 52 123 157q0 27 -2 37l-102 15l-6 178q55 14 112 14zM1241 0h-498v100l123 37v545q0 106 -49.5 159.5t-144.5 53.5q-143 0 -248 -123v-659l143 -13v-100h-499v100l135 37v731l-135 41v95
q186 44 309 49l43 -13l-10 -151h22q134 170 328 170q149 0 238 -87t89 -249v-610l154 -13v-100z" />
    <glyph glyph-name="Eng" unicode="&#x14a;" horiz-adv-x="1554" 
d="M1329 1223v-1166q0 -122 -31.5 -218t-84.5 -155t-118.5 -89.5t-138.5 -30.5q-105 0 -157 65l14 121h283q31 35 46 69.5t21 90.5l-602 989q-85 139 -158 301h-20l16 -1083l183 -13v-104h-494v104l156 37v1102l-156 14v105h479l430 -715q82 -142 174 -321h21l-18 919
l-185 12v105h496v-105z" />
    <glyph glyph-name="eng" unicode="&#x14b;" horiz-adv-x="1257" 
d="M760 1059q149 0 238 -87t89 -249v-735q-3 -162 -71.5 -257.5t-220.5 -166.5l-60 63l131 191v864q0 106 -49.5 159.5t-144.5 53.5q-143 0 -248 -123v-659l143 -13v-100h-499v100l135 37v731l-135 41v95q171 40 309 49l43 -13l-10 -151h22q134 170 328 170z" />
    <glyph glyph-name="Omacron" unicode="&#x14c;" horiz-adv-x="1523" 
d="M786 1389q126 0 231.5 -34.5t181 -97t128 -148.5t78 -188.5t25.5 -218.5q0 -214 -85.5 -379.5t-243 -257.5t-362.5 -92q-156 0 -280.5 54t-203 149t-120 220.5t-41.5 271.5q0 213 84.5 376t242 254t365.5 91zM764 1257q-190 0 -296 -144t-106 -429q0 -286 106.5 -433
t295.5 -147q187 0 293 147t106 433q0 285 -105.5 429t-293.5 144zM463 1714h602q8 -31 8 -78q0 -46 -8 -77h-602q-8 31 -8 77q0 47 8 78z" />
    <glyph glyph-name="omacron" unicode="&#x14d;" horiz-adv-x="1175" 
d="M610 1059q121 0 215 -41.5t152 -114t87.5 -166t29.5 -202.5q0 -250 -144 -406t-385 -156q-120 0 -214 41.5t-152 114.5t-87.5 167t-29.5 204q0 251 143.5 405t384.5 154zM588 944q-131 0 -194.5 -105t-63.5 -321q0 -218 63.5 -323t194.5 -105t193.5 105t62.5 323
q0 217 -63 321.5t-193 104.5zM309 1421h557q8 -33 8 -75q0 -47 -8 -78h-557q-8 31 -8 78q0 42 8 75z" />
    <glyph glyph-name="Obreve" unicode="&#x14e;" horiz-adv-x="1523" 
d="M786 1389q126 0 231.5 -34.5t181 -97t128 -148.5t78 -188.5t25.5 -218.5q0 -214 -85.5 -379.5t-243 -257.5t-362.5 -92q-156 0 -280.5 54t-203 149t-120 220.5t-41.5 271.5q0 213 84.5 376t242 254t365.5 91zM764 1257q-190 0 -296 -144t-106 -429q0 -286 106.5 -433
t295.5 -147q187 0 293 147t106 433q0 285 -105.5 429t-293.5 144zM455 1753l151 41q23 -88 69.5 -129t125.5 -41q83 -1 131 41.5t76 126.5l79 -23q-20 -141 -106.5 -216.5t-224.5 -75.5t-214 71.5t-87 204.5z" />
    <glyph glyph-name="obreve" unicode="&#x14f;" horiz-adv-x="1175" 
d="M610 1059q121 0 215 -41.5t152 -114t87.5 -166t29.5 -202.5q0 -250 -144 -406t-385 -156q-120 0 -214 41.5t-152 114.5t-87.5 167t-29.5 204q0 251 143.5 405t384.5 154zM588 944q-131 0 -194.5 -105t-63.5 -321q0 -218 63.5 -323t194.5 -105t193.5 105t62.5 323
q0 217 -63 321.5t-193 104.5zM293 1505l151 41q15 -104 57.5 -153.5t119.5 -49.5q79 -1 121.5 49t62.5 152l80 -24q-13 -159 -95.5 -241.5t-214.5 -82.5q-133 0 -205 79t-77 230z" />
    <glyph glyph-name="Ohungarumlaut" unicode="&#x150;" horiz-adv-x="1523" 
d="M786 1389q126 0 231.5 -34.5t181 -97t128 -148.5t78 -188.5t25.5 -218.5q0 -214 -85.5 -379.5t-243 -257.5t-362.5 -92q-156 0 -280.5 54t-203 149t-120 220.5t-41.5 271.5q0 213 84.5 376t242 254t365.5 91zM764 1257q-190 0 -296 -144t-106 -429q0 -286 106.5 -433
t295.5 -147q187 0 293 147t106 433q0 285 -105.5 429t-293.5 144zM629 1817h92q73 -23 121 -101l-178 -239h-111zM983 1817h92q69 -22 121 -101l-180 -239h-109z" />
    <glyph glyph-name="ohungarumlaut" unicode="&#x151;" horiz-adv-x="1175" 
d="M610 1059q121 0 215 -41.5t152 -114t87.5 -166t29.5 -202.5q0 -250 -144 -406t-385 -156q-120 0 -214 41.5t-152 114.5t-87.5 167t-29.5 204q0 251 143.5 405t384.5 154zM588 944q-131 0 -194.5 -105t-63.5 -321q0 -218 63.5 -323t194.5 -105t193.5 105t62.5 323
q0 217 -63 321.5t-193 104.5zM436 1585h92q80 -23 134 -102l-216 -309h-102zM782 1585h92q80 -23 134 -102l-217 -309h-101z" />
    <glyph glyph-name="OE" unicode="&#x152;" horiz-adv-x="2025" 
d="M803 1389q118 0 250 -27h845q11 -61 11 -139q0 -101 -15 -181h-143l-33 185l-454 14v-481l245 4l23 119h104v-379h-104l-25 133l-243 2v-520l448 14l57 201l148 -12q6 -87 6 -105q0 -82 -27 -217h-845q-147 -27 -289 -27q-161 0 -289.5 54t-210.5 148.5t-125 220
t-43 272.5q0 324 194 522.5t515 198.5zM795 1262q-204 0 -318.5 -146t-114.5 -432q0 -287 114.5 -435.5t318.5 -148.5q132 0 229 50v1058q-102 54 -229 54z" />
    <glyph glyph-name="oe" unicode="&#x153;" horiz-adv-x="1777" 
d="M1645 242l38 -82q-148 -187 -391 -187t-350 189h-22q-124 -189 -367 -189q-116 0 -207 41.5t-148 114t-86.5 167.5t-29.5 206q0 250 141 403.5t369 153.5q247 0 350 -191h21q121 191 358 191q179 0 269.5 -102.5t90.5 -268.5q0 -79 -20 -164h-4l-610 -16q9 -183 90 -277
t215 -94q135 0 293 105zM580 90q126 0 186.5 105t60.5 323q0 217 -60.5 321.5t-186.5 104.5q-127 0 -188.5 -104.5t-61.5 -321.5q0 -218 61.5 -323t188.5 -105zM1290 944q-98 0 -165 -88.5t-76 -255.5l415 37q0 307 -174 307z" />
    <glyph glyph-name="Racute" unicode="&#x154;" horiz-adv-x="1335" 
d="M1321 100l-6 -86q-72 -32 -158 -32q-95 0 -149.5 36.5t-102.5 104.5q-32 46 -75 114.5t-106 173t-91 150.5h-154v-444l166 -13v-104h-557v104l156 37v1102l-156 12v105q282 16 473 16q594 0 594 -397q0 -147 -75.5 -232.5t-211.5 -130.5l-6 -20q56 -56 112.5 -132.5
t119 -170t100.5 -143.5zM479 688h275q71 47 105 115.5t34 171.5q0 141 -68.5 206t-222.5 66h-123v-559zM795 1847h100q78 -38 119 -121l-309 -239h-125z" />
    <glyph glyph-name="racute" unicode="&#x155;" horiz-adv-x="823" 
d="M778 821h-225q-76 -56 -129 -145v-559l199 -13v-104h-555v106l135 31v731l-135 41v95q167 44 301 49l43 -13l-13 -223h23q58 112 118.5 177t135.5 65q78 0 117 -70zM492 1585h100q36 -21 68.5 -54t52.5 -71l-297 -286h-117z" />
    <glyph glyph-name="Rcommaaccent" unicode="&#x156;" horiz-adv-x="1335" 
d="M1321 100l-6 -86q-72 -32 -158 -32q-95 0 -149.5 36.5t-102.5 104.5q-32 46 -75 114.5t-106 173t-91 150.5h-154v-444l166 -13v-104h-557v104l156 37v1102l-156 12v105q282 16 473 16q594 0 594 -397q0 -147 -75.5 -232.5t-211.5 -130.5l-6 -20q56 -56 112.5 -132.5
t119 -170t100.5 -143.5zM479 688h275q71 47 105 115.5t34 171.5q0 141 -68.5 206t-222.5 66h-123v-559zM717 -102q53 0 94 -17q37 -58 37 -131q0 -90 -54.5 -158.5t-156.5 -95.5l-33 60q53 32 81 61.5t28 67.5q0 18 -2 30l-90 13l-5 155q62 15 101 15z" />
    <glyph glyph-name="rcommaaccent" unicode="&#x157;" horiz-adv-x="823" 
d="M778 821h-225q-76 -56 -129 -145v-559l199 -13v-104h-555v106l135 31v731l-135 41v95q167 44 301 49l43 -13l-13 -223h23q58 112 118.5 177t135.5 65q78 0 117 -70zM330 -102q53 0 94 -17q37 -58 37 -131q0 -90 -54.5 -158.5t-156.5 -95.5l-33 60q53 32 81 61.5t28 67.5
q0 18 -2 30l-91 13l-4 155q62 15 101 15z" />
    <glyph glyph-name="Rcaron" unicode="&#x158;" horiz-adv-x="1335" 
d="M1321 100l-6 -86q-72 -32 -158 -32q-95 0 -149.5 36.5t-102.5 104.5q-32 46 -75 114.5t-106 173t-91 150.5h-154v-444l166 -13v-104h-557v104l156 37v1102l-156 12v105q282 16 473 16q594 0 594 -397q0 -147 -75.5 -232.5t-211.5 -130.5l-6 -20q56 -56 112.5 -132.5
t119 -170t100.5 -143.5zM479 688h275q71 47 105 115.5t34 171.5q0 141 -68.5 206t-222.5 66h-123v-559zM651 1677l180 152h127l-296 -342h-136l-245 278l143 88l207 -176h20z" />
    <glyph glyph-name="rcaron" unicode="&#x159;" horiz-adv-x="823" 
d="M778 821h-225q-76 -56 -129 -145v-559l199 -13v-104h-555v106l135 31v731l-135 41v95q167 44 301 49l43 -13l-13 -223h23q58 112 118.5 177t135.5 65q78 0 117 -70zM420 1370l162 203h116l-268 -397h-135l-227 333l145 82l186 -221h21z" />
    <glyph glyph-name="Sacute" unicode="&#x15a;" horiz-adv-x="1128" 
d="M522 846l172 -78q82 -36 138 -69.5t105.5 -81t74 -111t24.5 -144.5q0 -100 -38.5 -176t-108 -122t-160 -68.5t-199.5 -22.5q-218 0 -403 80q-23 103 -23 191q0 46 9 98l139 12l63 -219q92 -35 207 -35q136 0 202.5 48.5t66.5 152.5q0 94 -51.5 146t-164.5 102l-178 80
q-59 27 -104.5 58t-84 74.5t-59 103t-20.5 132.5q0 182 125.5 287t341.5 105q196 0 369 -82q12 -62 12 -115q0 -70 -16 -168h-148l-37 207q-85 31 -180 31q-123 0 -185.5 -52.5t-62.5 -154.5q0 -79 39.5 -123t134.5 -86zM754 1837h100q78 -38 119 -121l-309 -239h-125z" />
    <glyph glyph-name="sacute" unicode="&#x15b;" horiz-adv-x="942" 
d="M451 653l124 -51q70 -29 115.5 -54t87 -61.5t61 -85.5t19.5 -114q0 -159 -115 -236.5t-305 -77.5q-181 0 -344 70q-10 48 -10 121q0 76 14 145h142l28 -194q77 -29 162 -29q103 0 156 38t53 109q0 61 -38.5 97t-125.5 71l-117 50q-58 25 -98 49t-75.5 59t-53.5 82.5
t-18 108.5q0 147 102.5 228t286.5 81q162 0 301 -64q12 -58 12 -121q0 -74 -14 -143h-127l-33 187q-66 28 -145 28q-91 0 -139 -37.5t-48 -107.5q0 -55 31 -85t111 -63zM578 1585h100q36 -21 68.5 -54t52.5 -71l-297 -286h-117z" />
    <glyph glyph-name="Scircumflex" unicode="&#x15c;" horiz-adv-x="1128" 
d="M522 846l172 -78q82 -36 138 -69.5t105.5 -81t74 -111t24.5 -144.5q0 -100 -38.5 -176t-108 -122t-160 -68.5t-199.5 -22.5q-218 0 -403 80q-23 103 -23 191q0 46 9 98l139 12l63 -219q92 -35 207 -35q136 0 202.5 48.5t66.5 152.5q0 94 -51.5 146t-164.5 102l-178 80
q-59 27 -104.5 58t-84 74.5t-59 103t-20.5 132.5q0 182 125.5 287t341.5 105q196 0 369 -82q12 -62 12 -115q0 -70 -16 -168h-148l-37 207q-85 31 -180 31q-123 0 -185.5 -52.5t-62.5 -154.5q0 -79 39.5 -123t134.5 -86zM772 1452l-205 176h-20l-180 -151h-127l297 342h135
l246 -279z" />
    <glyph glyph-name="scircumflex" unicode="&#x15d;" horiz-adv-x="942" 
d="M451 653l124 -51q70 -29 115.5 -54t87 -61.5t61 -85.5t19.5 -114q0 -159 -115 -236.5t-305 -77.5q-181 0 -344 70q-10 48 -10 121q0 76 14 145h142l28 -194q77 -29 162 -29q103 0 156 38t53 109q0 61 -38.5 97t-125.5 71l-117 50q-58 25 -98 49t-75.5 59t-53.5 82.5
t-18 108.5q0 147 102.5 228t286.5 81q162 0 301 -64q12 -58 12 -121q0 -74 -14 -143h-127l-33 187q-66 28 -145 28q-91 0 -139 -37.5t-48 -107.5q0 -55 31 -85t111 -63zM633 1157l-187 219h-20l-162 -202h-117l269 397h135l227 -334z" />
    <glyph glyph-name="Scedilla" unicode="&#x15e;" horiz-adv-x="1128" 
d="M522 846l172 -78q82 -36 138 -69.5t105.5 -81t74 -111t24.5 -144.5q0 -182 -121 -278t-323 -109v-106q95 -1 139.5 -38t44.5 -97q0 -75 -61.5 -122.5t-173.5 -47.5q-135 0 -209 59l18 82l31.5 -9t36 -10t32 -6.5t37.5 -3.5q48 0 76.5 18.5t28.5 53.5q0 32 -27 45t-112 27
l26 155q-191 8 -352 78q-23 103 -23 191q0 46 9 98l139 12l63 -219q92 -35 207 -35q136 0 202.5 48.5t66.5 152.5q0 94 -51.5 146t-164.5 102l-178 80q-59 27 -104.5 58t-84 74.5t-59 103t-20.5 132.5q0 182 125.5 287t341.5 105q196 0 369 -82q12 -62 12 -115
q0 -70 -16 -168h-148l-37 207q-85 31 -180 31q-123 0 -185.5 -52.5t-62.5 -154.5q0 -79 39.5 -123t134.5 -86z" />
    <glyph glyph-name="scedilla" unicode="&#x15f;" horiz-adv-x="942" 
d="M451 653l124 -51q70 -29 115.5 -54t87 -61.5t61 -85.5t19.5 -114q0 -141 -91 -217.5t-247 -92.5v-108q95 -1 140 -38t45 -97q0 -75 -62 -122.5t-174 -47.5q-135 0 -209 59l16 82q7 -2 25.5 -7.5t29 -8t26.5 -6.5t30.5 -5.5t28.5 -1.5q48 0 76 18.5t28 53.5q0 32 -27 45
t-112 27l27 153q-171 7 -314 70q-10 48 -10 121q0 76 14 145h142l28 -194q77 -29 162 -29q103 0 156 38t53 109q0 61 -38.5 97t-125.5 71l-117 50q-58 25 -98 49t-75.5 59t-53.5 82.5t-18 108.5q0 147 102.5 228t286.5 81q162 0 301 -64q12 -58 12 -121q0 -74 -14 -143h-127
l-33 187q-66 28 -145 28q-91 0 -139 -37.5t-48 -107.5q0 -55 31 -85t111 -63z" />
    <glyph glyph-name="Scaron" unicode="&#x160;" horiz-adv-x="1128" 
d="M522 846l172 -78q82 -36 138 -69.5t105.5 -81t74 -111t24.5 -144.5q0 -100 -38.5 -176t-108 -122t-160 -68.5t-199.5 -22.5q-218 0 -403 80q-23 103 -23 191q0 46 9 98l139 12l63 -219q92 -35 207 -35q136 0 202.5 48.5t66.5 152.5q0 94 -51.5 146t-164.5 102l-178 80
q-59 27 -104.5 58t-84 74.5t-59 103t-20.5 132.5q0 182 125.5 287t341.5 105q196 0 369 -82q12 -62 12 -115q0 -70 -16 -168h-148l-37 207q-85 31 -180 31q-123 0 -185.5 -52.5t-62.5 -154.5q0 -79 39.5 -123t134.5 -86zM610 1667l181 152h127l-297 -342h-136l-245 278
l143 88l207 -176h20z" />
    <glyph glyph-name="scaron" unicode="&#x161;" horiz-adv-x="942" 
d="M451 653l124 -51q70 -29 115.5 -54t87 -61.5t61 -85.5t19.5 -114q0 -159 -115 -236.5t-305 -77.5q-181 0 -344 70q-10 48 -10 121q0 76 14 145h142l28 -194q77 -29 162 -29q103 0 156 38t53 109q0 61 -38.5 97t-125.5 71l-117 50q-58 25 -98 49t-75.5 59t-53.5 82.5
t-18 108.5q0 147 102.5 228t286.5 81q162 0 301 -64q12 -58 12 -121q0 -74 -14 -143h-127l-33 187q-66 28 -145 28q-91 0 -139 -37.5t-48 -107.5q0 -55 31 -85t111 -63zM506 1370l162 203h116l-268 -397h-135l-227 333l145 82l186 -221h21z" />
    <glyph glyph-name="Tcommaaccent" unicode="&#x162;" horiz-adv-x="1255" 
d="M63 1362h1129q10 -55 10 -135q0 -126 -14 -209h-141l-41 215l-258 12v-1124l178 -15v-106h-236v-131q95 -1 139.5 -38t44.5 -97q0 -75 -61.5 -122.5t-173.5 -47.5q-135 0 -209 59l19 82l31.5 -9t36 -10t32 -6.5t37.5 -3.5q48 0 76 18.5t28 53.5q0 32 -27 45t-112 27
l31 180h-250v106l176 37v1100l-258 -10l-41 -215h-141q-15 88 -15 209q0 80 10 135z" />
    <glyph glyph-name="tcommaaccent" unicode="&#x163;" horiz-adv-x="768" 
d="M719 158l24 -90q-121 -95 -278 -95h-4v-104q95 -1 139.5 -38t44.5 -97q0 -75 -61.5 -122.5t-173.5 -47.5q-135 0 -209 59l16 82q7 -2 25.5 -7.5t29 -8t26 -6.5t30 -5.5t28.5 -1.5q48 0 76.5 18.5t28.5 53.5q0 32 -27 45t-112 27l28 170q-166 51 -166 239v680l-139 17v90
l150 33l141 251l70 -4v-268h299v-121h-299v-649q0 -77 30.5 -108t100.5 -31t182 39z" />
    <glyph glyph-name="Tcaron" unicode="&#x164;" horiz-adv-x="1255" 
d="M63 1362h1129q10 -55 10 -135q0 -126 -14 -209h-141l-41 215l-258 12v-1124l178 -15v-106h-594v106l176 37v1100l-258 -10l-41 -215h-141q-15 88 -15 209q0 80 10 135zM668 1667l180 152h127l-297 -342h-135l-246 278l143 88l207 -176h21z" />
    <glyph glyph-name="tcaron" unicode="&#x165;" horiz-adv-x="815" 
d="M719 158l24 -90q-121 -95 -278 -95q-129 0 -205 64t-76 192v680l-139 17v90l150 33l141 251l70 -4v-268h299v-121h-299v-649q0 -77 30.5 -108t100.5 -31t182 39zM674 1542q74 0 129 -35q-10 -119 -43 -205t-111 -176h-104l41 207v199q25 10 88 10z" />
    <glyph glyph-name="Tbar" unicode="&#x166;" horiz-adv-x="1255" 
d="M63 1362h1129q10 -55 10 -135q0 -126 -14 -209h-141l-41 215l-258 12v-583h282v-119h-282v-422l178 -15v-106h-594v106l176 37v400h-283v119h283v581l-258 -10l-41 -215h-141q-15 88 -15 209q0 80 10 135z" />
    <glyph glyph-name="tbar" unicode="&#x167;" horiz-adv-x="782" 
d="M727 158l25 -90q-121 -95 -279 -95q-129 0 -204.5 63.5t-75.5 192.5v357h-140v123h140v200l-140 17v90l150 33l141 251l70 -4v-268h299v-121h-299v-198h299v-123h-299v-328q0 -77 30.5 -108t100.5 -31t182 39z" />
    <glyph glyph-name="Utilde" unicode="&#x168;" horiz-adv-x="1474" 
d="M1266 1221v-768q0 -219 -137 -349.5t-388 -130.5q-254 0 -393 133.5t-139 360.5v778l-156 12v105h555v-105l-157 -34h-2v-764q0 -185 83.5 -271t245.5 -86q330 0 330 357v786l-180 12v105h493v-105zM1038 1772l64 -56q-19 -43 -33 -69.5t-40 -62t-60.5 -53.5t-77.5 -18
q-48 0 -105 25l-190 86l-102 -108l-66 55q19 43 33 69.5t40 62t60.5 53.5t77.5 18q44 0 104 -25l191 -88z" />
    <glyph glyph-name="utilde" unicode="&#x169;" horiz-adv-x="1245" 
d="M1194 129v-96q-151 -39 -311 -49l-43 12l10 151h-21q-136 -174 -329 -174q-147 0 -235.5 88.5t-88.5 251.5v555l-135 41v95q185 44 313 49l43 -13v-686q0 -215 191 -215q139 0 248 125v606l-129 39v95q186 44 307 49l43 -13v-874zM846 1493l65 -55q-16 -39 -32.5 -69.5
t-43 -66t-62.5 -55.5t-77 -20t-96 28l-160 80l-104 -108l-66 55q17 40 32.5 69t42 65.5t62.5 56.5t78 20q40 0 97 -29l159 -82z" />
    <glyph glyph-name="Umacron" unicode="&#x16a;" horiz-adv-x="1474" 
d="M1266 1221v-768q0 -219 -137 -349.5t-388 -130.5q-254 0 -393 133.5t-139 360.5v778l-156 12v105h555v-105l-157 -34h-2v-764q0 -185 83.5 -271t245.5 -86q330 0 330 357v786l-180 12v105h493v-105zM465 1714h602q8 -31 8 -78q0 -46 -8 -77h-602q-8 31 -8 77q0 47 8 78z
" />
    <glyph glyph-name="umacron" unicode="&#x16b;" horiz-adv-x="1245" 
d="M1194 129v-96q-151 -39 -311 -49l-43 12l10 151h-21q-136 -174 -329 -174q-147 0 -235.5 88.5t-88.5 251.5v555l-135 41v95q185 44 313 49l43 -13v-686q0 -215 191 -215q139 0 248 125v606l-129 39v95q186 44 307 49l43 -13v-874zM309 1421h557q8 -33 8 -75q0 -47 -8 -78
h-557q-8 31 -8 78q0 42 8 75z" />
    <glyph glyph-name="Ubreve" unicode="&#x16c;" horiz-adv-x="1474" 
d="M1266 1221v-768q0 -219 -137 -349.5t-388 -130.5q-254 0 -393 133.5t-139 360.5v778l-156 12v105h555v-105l-157 -34h-2v-764q0 -185 83.5 -271t245.5 -86q330 0 330 357v786l-180 12v105h493v-105zM457 1753l151 41q23 -88 69.5 -129t125.5 -41q83 -1 131 41.5t76 126.5
l80 -23q-20 -141 -107 -216.5t-225 -75.5t-214 71.5t-87 204.5z" />
    <glyph glyph-name="ubreve" unicode="&#x16d;" horiz-adv-x="1245" 
d="M1194 129v-96q-151 -39 -311 -49l-43 12l10 151h-21q-136 -174 -329 -174q-147 0 -235.5 88.5t-88.5 251.5v555l-135 41v95q185 44 313 49l43 -13v-686q0 -215 191 -215q139 0 248 125v606l-129 39v95q186 44 307 49l43 -13v-874zM293 1505l151 41q15 -104 57.5 -153.5
t119.5 -49.5q79 -1 121.5 49t62.5 152l80 -24q-13 -159 -95.5 -241.5t-214.5 -82.5q-133 0 -205 79t-77 230z" />
    <glyph glyph-name="Uring" unicode="&#x16e;" horiz-adv-x="1474" 
d="M1266 1221v-768q0 -219 -137 -349.5t-388 -130.5q-254 0 -393 133.5t-139 360.5v778l-156 12v105h555v-105l-157 -34h-2v-764q0 -185 83.5 -271t245.5 -86q330 0 330 357v786l-180 12v105h493v-105zM778 1845q111 0 168.5 -48t57.5 -134q0 -97 -68 -147t-182 -50
q-112 0 -171 47t-59 134q0 97 71 147.5t183 50.5zM766 1751q-40 0 -62 -24.5t-22 -69.5q0 -46 22 -71t62 -25t61 25t21 71q0 94 -82 94z" />
    <glyph glyph-name="uring" unicode="&#x16f;" horiz-adv-x="1245" 
d="M1194 129v-96q-151 -39 -311 -49l-43 12l10 151h-21q-136 -174 -329 -174q-147 0 -235.5 88.5t-88.5 251.5v555l-135 41v95q185 44 313 49l43 -13v-686q0 -215 191 -215q139 0 248 125v606l-129 39v95q186 44 307 49l43 -13v-874zM602 1595q108 0 166.5 -50.5
t58.5 -143.5q0 -102 -68.5 -155.5t-180.5 -53.5q-110 0 -170 50t-60 142q0 104 71.5 157.5t182.5 53.5zM590 1501q-84 0 -84 -108q0 -107 82 -107q84 0 84 109q0 106 -82 106z" />
    <glyph glyph-name="Uhungarumlaut" unicode="&#x170;" horiz-adv-x="1474" 
d="M1266 1221v-768q0 -219 -137 -349.5t-388 -130.5q-254 0 -393 133.5t-139 360.5v778l-156 12v105h555v-105l-157 -34h-2v-764q0 -185 83.5 -271t245.5 -86q330 0 330 357v786l-180 12v105h493v-105zM631 1817h92q73 -23 121 -101l-178 -239h-111zM985 1817h92
q69 -22 121 -101l-180 -239h-109z" />
    <glyph glyph-name="uhungarumlaut" unicode="&#x171;" horiz-adv-x="1245" 
d="M1194 129v-96q-151 -39 -311 -49l-43 12l10 151h-21q-136 -174 -329 -174q-147 0 -235.5 88.5t-88.5 251.5v555l-135 41v95q185 44 313 49l43 -13v-686q0 -215 191 -215q139 0 248 125v606l-129 39v95q186 44 307 49l43 -13v-874zM436 1585h92q80 -23 134 -102l-216 -309
h-102zM782 1585h92q80 -23 134 -102l-217 -309h-101z" />
    <glyph glyph-name="Uogonek" unicode="&#x172;" horiz-adv-x="1474" 
d="M1266 1221v-768q-1 -83 -16.5 -148t-45.5 -112t-58.5 -76.5t-70.5 -61.5q-9 -7 -34.5 -25.5t-38 -28t-35.5 -28.5t-36 -32.5t-30 -33.5t-25.5 -37.5t-15 -39t-6.5 -43.5q0 -104 125 -104q55 0 113 20l18 -86q-83 -53 -203 -53t-180.5 47t-60.5 129q0 74 44 132t113 95
l-6 19q-53 -11 -104 -11q-231 0 -367.5 134t-136.5 358v778l-156 12v105h555v-105l-157 -34h-2v-764q0 -186 83.5 -271.5t247.5 -85.5q166 0 247 86.5t81 270.5v786l-180 12v105h493v-105z" />
    <glyph glyph-name="uogonek" unicode="&#x173;" horiz-adv-x="1245" 
d="M1194 129v-96q-272 -91 -272 -244q0 -106 125 -106q54 0 112 20l19 -86q-83 -53 -203 -53t-181 49.5t-61 136.5q0 75 41 133.5t105 93.5l-29 170h-21q-136 -174 -329 -174q-147 0 -235.5 88.5t-88.5 251.5v555l-135 41v95q185 44 313 49l43 -13v-686q0 -215 191 -215
q139 0 248 125v606l-129 39v95q186 44 307 49l43 -13v-874z" />
    <glyph glyph-name="Wcircumflex" unicode="&#x174;" horiz-adv-x="2160" 
d="M2118 1257l-119 -32q-198 -656 -393 -1221l-191 -31l-31 4q-193 568 -280 848h-25q-149 -470 -282 -821l-191 -31l-31 4q-215 619 -413 1268l-119 12v105h541v-105l-158 -34q167 -618 293 -1006h20q152 436 287 856l-55 170l-117 14v105h545v-105l-182 -34
q5 -18 42 -143.5t49 -167.5t45 -152.5t50.5 -166.5t43 -138t44.5 -138.5t35 -99.5h22q174 564 293 1028l-172 12v105h449v-105zM1325 1452l-205 176h-20l-180 -151h-127l297 342h135l245 -279z" />
    <glyph glyph-name="wcircumflex" unicode="&#x175;" horiz-adv-x="1814" 
d="M1763 928l-121 -33q-128 -447 -284 -891l-158 -31l-31 4q-121 352 -233 752h-21q-20 -61 -76.5 -233t-94.5 -283.5t-74 -208.5l-160 -31l-31 4q-169 472 -301 941l-127 10v100h471v-100l-100 -35q60 -263 188 -666h21q149 425 252 797l147 31l33 -4q134 -515 235 -824h23
q133 465 180 688l-153 13v100h415v-100zM1137 1157l-187 219h-20l-162 -202h-117l269 397h135l227 -334z" />
    <glyph glyph-name="Ycircumflex" unicode="&#x176;" horiz-adv-x="1378" 
d="M1333 1257l-116 -34q-165 -341 -392 -738v-368l176 -13v-104h-593v104l178 37v334q-205 355 -412 770l-129 12v105h541v-105l-148 -30q146 -303 303 -584h23q158 270 301 602l-178 12v105h446v-105zM895 1452l-205 176h-20l-181 -151h-127l297 342h136l245 -279z" />
    <glyph glyph-name="ycircumflex" unicode="&#x177;" horiz-adv-x="1171" 
d="M1157 928l-127 -33q-165 -476 -383 -985q-75 -171 -171.5 -258.5t-209.5 -87.5q-100 0 -149 65l14 121h299q63 97 102 203q-180 386 -389 962l-129 13v100h465v-100l-92 -33q113 -340 244 -668h24q148 400 236 688l-150 13v100h416v-100zM774 1157l-186 219h-21
l-161 -202h-117l268 397h135l228 -334z" />
    <glyph glyph-name="Ydieresis" unicode="&#x178;" horiz-adv-x="1378" 
d="M1333 1257l-116 -34q-165 -341 -392 -738v-368l176 -13v-104h-593v104l178 37v334q-205 355 -412 770l-129 12v105h541v-105l-148 -30q146 -303 303 -584h23q158 270 301 602l-178 12v105h446v-105zM469 1757q47 0 76 -10q33 -44 33 -105q0 -59 -43 -120h-166l-29 213
q61 22 129 22zM954 1757q47 0 76 -10q33 -44 33 -105q0 -59 -43 -120h-166l-29 213q61 22 129 22z" />
    <glyph glyph-name="Zacute" unicode="&#x179;" horiz-adv-x="1220" 
d="M989 350l156 -12q6 -87 6 -107q0 -120 -27 -231h-1038l-12 66l618 952q23 35 49 72t58.5 81t46.5 64l-10 16l-535 -22l-35 -205h-149q-17 121 -17 184q0 97 13 154h1022l12 -66l-600 -927q-53 -82 -172 -242l12 -14l551 20zM782 1837h101q77 -38 118 -121l-309 -239h-125
z" />
    <glyph glyph-name="zacute" unicode="&#x17a;" horiz-adv-x="948" 
d="M752 326l131 -11q6 -47 6 -104q0 -115 -29 -211h-788l-15 100l410 598q43 65 151 211l-8 17l-356 -19l-33 -188h-127q-14 66 -14 168q0 98 12 141h762l14 -102l-403 -594q-54 -80 -154 -213l11 -15l380 15zM582 1585h100q36 -21 68.5 -54t52.5 -71l-297 -286h-117z" />
    <glyph glyph-name="Zdotaccent" unicode="&#x17b;" horiz-adv-x="1220" 
d="M989 350l156 -12q6 -87 6 -107q0 -120 -27 -231h-1038l-12 66l618 952q23 35 49 72t58.5 81t46.5 64l-10 16l-535 -22l-35 -205h-149q-17 121 -17 184q0 97 13 154h1022l12 -66l-600 -927q-53 -82 -172 -242l12 -14l551 20zM618 1765q50 0 84 -12q35 -49 35 -111
q0 -65 -51 -133h-182l-27 230q61 26 141 26z" />
    <glyph glyph-name="zdotaccent" unicode="&#x17c;" horiz-adv-x="948" 
d="M752 326l131 -11q6 -47 6 -104q0 -115 -29 -211h-788l-15 100l410 598q43 65 151 211l-8 17l-356 -19l-33 -188h-127q-14 66 -14 168q0 98 12 141h762l14 -102l-403 -594q-54 -80 -154 -213l11 -15l380 15zM485 1497q50 0 78 -12q35 -53 35 -109q0 -60 -51 -133h-180
l-29 232q73 22 147 22z" />
    <glyph glyph-name="Zcaron" unicode="&#x17d;" horiz-adv-x="1220" 
d="M989 350l156 -12q6 -87 6 -107q0 -120 -27 -231h-1038l-12 66l618 952q23 35 49 72t58.5 81t46.5 64l-10 16l-535 -22l-35 -205h-149q-17 121 -17 184q0 97 13 154h1022l12 -66l-600 -927q-53 -82 -172 -242l12 -14l551 20zM639 1667l180 152h127l-297 -342h-135
l-246 278l144 88l206 -176h21z" />
    <glyph glyph-name="zcaron" unicode="&#x17e;" horiz-adv-x="948" 
d="M752 326l131 -11q6 -47 6 -104q0 -115 -29 -211h-788l-15 100l410 598q43 65 151 211l-8 17l-356 -19l-33 -188h-127q-14 66 -14 168q0 98 12 141h762l14 -102l-403 -594q-54 -80 -154 -213l11 -15l380 15zM510 1370l162 203h116l-268 -397h-135l-227 333l145 82
l186 -221h21z" />
    <glyph glyph-name="longs" unicode="&#x17f;" horiz-adv-x="628" 
d="M598 1542q123 0 206 -47t83 -131q0 -63 -49 -109h-154l-25 172q-25 5 -41 5q-87 0 -139.5 -55.5t-52.5 -196.5v-1067l164 -13v-100h-520v100l135 37v768h-2l-140 15v96l142 33v71q0 112 29.5 195t83.5 131.5t124 72t156 23.5z" />
    <glyph glyph-name="uni018F" unicode="&#x18f;" horiz-adv-x="1314" 
d="M600 1389q151 0 271 -54.5t195.5 -149.5t115 -219.5t39.5 -269.5q0 -213 -82.5 -378t-230.5 -255t-339 -90q-119 0 -211 36.5t-149 102t-86 153.5t-29 194q0 105 23 217h837q-4 274 -116.5 409.5t-307.5 135.5q-191 0 -368 -129l-41 90q79 94 200 150.5t279 56.5z
M598 121q146 0 240 111t112 329l-596 -18v-45q0 -190 55.5 -283.5t188.5 -93.5z" />
    <glyph glyph-name="florin" unicode="&#x192;" horiz-adv-x="1241" 
d="M963 1249q111 0 185.5 -47.5t74.5 -124.5q0 -62 -60 -110h-143l-23 180h-26q-82 0 -130 -61.5t-65 -200.5l-16 -123h258v-117h-273l-51 -395q-14 -113 -56 -197t-101.5 -131t-125.5 -69.5t-139 -22.5q-108 0 -182 45t-74 121q0 69 60 117h147l23 -181h22q78 0 127.5 58
t67.5 203l59 452h-200v117h215l8 65q13 110 53.5 193.5t98.5 132t125 72.5t141 24z" />
    <glyph glyph-name="uni01E2" unicode="&#x1e2;" horiz-adv-x="1923" 
d="M1667 334l148 -12q6 -87 6 -105q0 -97 -27 -217h-1028v104l156 37v254h-480q-85 -173 -131 -278l138 -13v-104h-426v104l129 35q245 505 575 1106l-137 12v105h1206q10 -55 10 -139q0 -107 -14 -181h-143l-33 185l-455 14v-481l246 4l23 119h104v-379h-104l-27 133
l-242 2v-520l449 14zM922 1235h-56q-132 -246 -364 -717h420v717zM831 1712h558q8 -33 8 -76q0 -46 -8 -77h-558q-8 31 -8 77q0 43 8 76z" />
    <glyph glyph-name="uni01E3" unicode="&#x1e3;" horiz-adv-x="1622" 
d="M1489 242l39 -82q-150 -187 -404 -187q-272 0 -379 209h-24q-130 -209 -359 -209q-139 0 -211.5 71t-72.5 192q0 71 25 125.5t76 89t101 57t130 35t130 17t132 9.5h10l4 144q4 123 -56 179t-161 56q-42 0 -90 -10l-33 -240h-149q-64 41 -64 117q0 68 56 125t145 88
t188 31q120 0 192.5 -47t98.5 -129h21q42 78 125 127t206 49q180 0 270.5 -103t90.5 -270q0 -88 -21 -168h-2l-610 -18q10 -179 90.5 -271t212.5 -92q135 0 293 105zM1135 944q-99 0 -167 -90.5t-77 -261.5l418 39v6q0 158 -43.5 232.5t-130.5 74.5zM449 121q140 0 258 160
q-24 95 -27 196h-6q-198 -17 -279.5 -68t-81.5 -147q0 -141 136 -141zM537 1417h557q8 -33 8 -76q0 -46 -8 -77h-557q-9 34 -9 77q0 39 9 76z" />
    <glyph glyph-name="Aringacute" unicode="&#x1fa;" horiz-adv-x="1411" 
d="M631 1667l178 309h96q71 -47 109 -108l-262 -201h-121zM1389 0h-535v104l141 35q-13 39 -40 123.5t-42 128.5h-522l-86 -274l141 -13v-104h-423v104l127 35q201 605 393 1106q-103 44 -103 158q0 96 71 146t183 50q111 0 168.5 -47t57.5 -133q0 -106 -84 -155
q191 -487 419 -1147l134 -13v-104zM682 1505q-40 0 -62 -24.5t-22 -69.5q0 -44 22 -68t62 -24t61 24t21 68q0 94 -82 94zM430 514h440q-116 344 -213 598h-20q-96 -259 -207 -598z" />
    <glyph glyph-name="aringacute" unicode="&#x1fb;" horiz-adv-x="1083" 
d="M1042 127v-92q-104 -51 -196 -51q-76 0 -112 32.5t-36 98.5v28h-22q-127 -170 -316 -170q-135 0 -208.5 72.5t-73.5 190.5q0 70 29 124.5t75 88.5t109.5 55.5t126.5 30t133 8.5q77 0 135 -8l2 194q3 219 -211 219q-52 0 -98 -10l-33 -240h-149q-64 46 -64 117t60.5 128
t152.5 86.5t193 29.5q170 0 270.5 -86t99.5 -244l-8 -588zM444 121q132 0 240 131l2 199h-45q-175 0 -251.5 -46t-76.5 -147q0 -137 131 -137zM639 1882h92q69 -43 111 -106l-246 -187h-117zM555 1520q110 0 167.5 -48.5t57.5 -138.5q0 -99 -68.5 -151t-181.5 -52
q-110 0 -169.5 49t-59.5 138q0 101 70.5 152t183.5 51zM543 1430q-84 0 -84 -105q0 -102 82 -102q41 0 62.5 27t21.5 77q0 103 -82 103z" />
    <glyph glyph-name="AEacute" unicode="&#x1fc;" horiz-adv-x="1923" 
d="M1667 334l148 -12q6 -87 6 -105q0 -97 -27 -217h-1028v104l156 37v254h-480q-85 -173 -131 -278l138 -13v-104h-426v104l129 35q245 505 575 1106l-137 12v105h1206q10 -55 10 -139q0 -107 -14 -181h-143l-33 185l-455 14v-481l246 4l23 119h104v-379h-104l-27 133
l-242 2v-520l449 14zM922 1235h-56q-132 -246 -364 -717h420v717zM1286 1837h100q78 -38 119 -121l-309 -239h-125z" />
    <glyph glyph-name="aeacute" unicode="&#x1fd;" horiz-adv-x="1622" 
d="M1489 242l39 -82q-150 -187 -404 -187q-272 0 -379 209h-24q-130 -209 -359 -209q-139 0 -211.5 71t-72.5 192q0 71 25 125.5t76 89t101 57t130 35t130 17t132 9.5h10l4 144q4 123 -56 179t-161 56q-42 0 -90 -10l-33 -240h-149q-64 41 -64 117q0 68 56 125t145 88
t188 31q120 0 192.5 -47t98.5 -129h21q42 78 125 127t206 49q180 0 270.5 -103t90.5 -270q0 -88 -21 -168h-2l-610 -18q10 -179 90.5 -271t212.5 -92q135 0 293 105zM1135 944q-99 0 -167 -90.5t-77 -261.5l418 39v6q0 158 -43.5 232.5t-130.5 74.5zM449 121q140 0 258 160
q-24 95 -27 196h-6q-198 -17 -279.5 -68t-81.5 -147q0 -141 136 -141zM930 1581h100q36 -21 68.5 -54t52.5 -71l-297 -287h-117z" />
    <glyph glyph-name="Oslashacute" unicode="&#x1fe;" horiz-adv-x="1523" 
d="M1382 1446l-151 -217q98 -92 148.5 -228.5t50.5 -298.5q0 -214 -85.5 -379.5t-243 -257.5t-362.5 -92q-198 0 -342 86l-149 -215l-96 43l-13 29l154 221q-97 94 -148 231.5t-51 299.5q0 213 84.5 376t242 254t365.5 91q198 0 340 -82l148 211l96 -43zM772 1257
q-410 0 -410 -585q0 -229 62 -365l602 862q-95 88 -254 88zM754 104q409 0 409 592q0 232 -61 363l-602 -864q94 -91 254 -91zM932 1837h100q78 -38 119 -121l-309 -239h-125z" />
    <glyph glyph-name="oslashacute" unicode="&#x1ff;" horiz-adv-x="1175" 
d="M1040 1149l-114 -195q84 -70 126 -179t42 -240q0 -250 -144 -406t-385 -156q-120 0 -217 43l-110 -182l-97 41l-14 27l113 186q-158 146 -158 412q0 251 143.5 405t384.5 154q116 0 203 -37l117 197l96 -43zM594 944q-143 0 -205.5 -104t-62.5 -332q0 -161 28 -246
l381 643q-53 39 -141 39zM582 90q139 0 202.5 104.5t63.5 333.5q0 175 -35 267l-389 -654q57 -51 158 -51zM698 1581h101q36 -21 68.5 -54t52.5 -71l-297 -287h-117z" />
    <glyph glyph-name="Scommaaccent" unicode="&#x218;" horiz-adv-x="1128" 
d="M522 846l172 -78q82 -36 138 -69.5t105.5 -81t74 -111t24.5 -144.5q0 -100 -38.5 -176t-108 -122t-160 -68.5t-199.5 -22.5q-218 0 -403 80q-23 103 -23 191q0 46 9 98l139 12l63 -219q92 -35 207 -35q136 0 202.5 48.5t66.5 152.5q0 94 -51.5 146t-164.5 102l-178 80
q-59 27 -104.5 58t-84 74.5t-59 103t-20.5 132.5q0 182 125.5 287t341.5 105q196 0 369 -82q12 -62 12 -115q0 -70 -16 -168h-148l-37 207q-85 31 -180 31q-123 0 -185.5 -52.5t-62.5 -154.5q0 -79 39.5 -123t134.5 -86zM522 -102q53 0 94 -17q37 -58 37 -131
q0 -90 -54.5 -158.5t-156.5 -95.5l-32 60q53 32 80.5 61.5t27.5 67.5q0 18 -2 30l-90 13l-4 155q62 15 100 15z" />
    <glyph glyph-name="scommaaccent" unicode="&#x219;" horiz-adv-x="942" 
d="M451 653l124 -51q70 -29 115.5 -54t87 -61.5t61 -85.5t19.5 -114q0 -159 -115 -236.5t-305 -77.5q-181 0 -344 70q-10 48 -10 121q0 76 14 145h142l28 -194q77 -29 162 -29q103 0 156 38t53 109q0 61 -38.5 97t-125.5 71l-117 50q-58 25 -98 49t-75.5 59t-53.5 82.5
t-18 108.5q0 147 102.5 228t286.5 81q162 0 301 -64q12 -58 12 -121q0 -74 -14 -143h-127l-33 187q-66 28 -145 28q-91 0 -139 -37.5t-48 -107.5q0 -55 31 -85t111 -63zM451 -102q53 0 94 -17q37 -58 37 -131q0 -90 -54.5 -158.5t-156.5 -95.5l-33 60q53 32 80.5 61.5
t27.5 67.5q0 18 -2 30l-90 13l-4 155q62 15 101 15z" />
    <glyph glyph-name="uni021A" unicode="&#x21a;" horiz-adv-x="1255" 
d="M63 1362h1129q10 -55 10 -135q0 -126 -14 -209h-141l-41 215l-258 12v-1124l178 -15v-106h-594v106l176 37v1100l-258 -10l-41 -215h-141q-15 88 -15 209q0 80 10 135zM621 -102q53 0 94 -17q37 -58 37 -131q0 -90 -54.5 -158.5t-156.5 -95.5l-33 60q53 32 80.5 61.5
t27.5 67.5q0 18 -2 30l-90 13l-4 155q62 15 101 15z" />
    <glyph glyph-name="uni021B" unicode="&#x21b;" horiz-adv-x="768" 
d="M719 158l24 -90q-121 -95 -278 -95q-129 0 -205 64t-76 192v680l-139 17v90l150 33l141 251l70 -4v-268h299v-121h-299v-649q0 -77 30.5 -108t100.5 -31t182 39zM391 -102q53 0 94 -17q37 -58 37 -131q0 -90 -54.5 -158.5t-156.5 -95.5l-32 60q53 32 80.5 61.5t27.5 67.5
q0 18 -2 30l-90 13l-4 155q62 15 100 15z" />
    <glyph glyph-name="uni0232" unicode="&#x232;" horiz-adv-x="1378" 
d="M1333 1257l-116 -34q-165 -341 -392 -738v-368l176 -13v-104h-593v104l178 37v334q-205 355 -412 770l-129 12v105h541v-105l-148 -30q146 -303 303 -584h23q158 270 301 602l-178 12v105h446v-105zM422 1712h557q8 -33 8 -76q0 -46 -8 -77h-557q-8 31 -8 77q0 43 8 76z
" />
    <glyph glyph-name="uni0233" unicode="&#x233;" horiz-adv-x="1171" 
d="M1157 928l-127 -33q-165 -476 -383 -985q-75 -171 -171.5 -258.5t-209.5 -87.5q-100 0 -149 65l14 121h299q63 97 102 203q-180 386 -389 962l-129 13v100h465v-100l-92 -33q113 -340 244 -668h24q148 400 236 688l-150 13v100h416v-100zM326 1421h557q8 -33 8 -75
q0 -47 -8 -78h-557q-9 34 -9 78q0 38 9 75z" />
    <glyph glyph-name="uni0237" unicode="&#x237;" horiz-adv-x="581" 
d="M412 1040v-1046q0 -111 -33 -191.5t-95.5 -135.5t-164.5 -103l-62 63l131 191v1050l-135 41v95q155 39 314 49z" />
    <glyph glyph-name="uni0259" unicode="&#x259;" horiz-adv-x="1071" 
d="M522 1059q120 0 211.5 -41.5t146.5 -114.5t82 -165.5t27 -200.5q0 -256 -142.5 -410t-371.5 -154q-188 0 -281.5 102t-93.5 271q0 73 21 162h631q-4 190 -81 285.5t-212 95.5q-143 0 -281 -96l-39 84q133 182 383 182zM502 90q98 0 166 82t82 240l-426 -19v-12
q0 -148 43.5 -219.5t134.5 -71.5z" />
    <glyph glyph-name="uni02BB" unicode="&#x2bb;" horiz-adv-x="534" 
d="M395 1528l25 -70q-60 -33 -98.5 -89t-38.5 -114q0 -18 4 -34l100 -15l6 -200q-59 -15 -112 -15q-62 0 -107 19q-49 81 -49 168q0 124 71 220.5t199 129.5z" />
    <glyph glyph-name="afii57929" unicode="&#x2bc;" horiz-adv-x="534" 
d="M252 1509q64 0 106 -18q50 -76 50 -170q0 -130 -71.5 -222t-199.5 -126l-24 71q60 30 98.5 82t38.5 117q0 21 -4 37l-101 14l-6 201q55 14 113 14z" />
    <glyph glyph-name="circumflex" unicode="&#x2c6;" horiz-adv-x="753" 
d="M547 1157l-187 219h-20l-162 -202h-117l269 397h135l227 -334z" />
    <glyph glyph-name="caron" unicode="&#x2c7;" horiz-adv-x="753" 
d="M414 1370l161 203h117l-268 -397h-135l-228 333l146 82l186 -221h21z" />
    <glyph glyph-name="breve" unicode="&#x2d8;" horiz-adv-x="714" 
d="M61 1505l152 41q15 -104 57 -153.5t119 -49.5q79 -1 121.5 49t62.5 152l80 -24q-13 -159 -95 -241.5t-214 -82.5q-134 0 -206.5 79t-76.5 230z" />
    <glyph glyph-name="dotaccent" unicode="&#x2d9;" horiz-adv-x="382" 
d="M209 1501q50 0 78 -12q35 -53 35 -109q0 -59 -52 -133h-180l-29 232q73 22 148 22z" />
    <glyph glyph-name="ring" unicode="&#x2da;" horiz-adv-x="602" 
d="M315 1595q108 0 167 -50.5t59 -143.5q0 -102 -69 -155.5t-181 -53.5q-110 0 -170 50t-60 142q0 104 71.5 157.5t182.5 53.5zM303 1501q-84 0 -84 -108q0 -107 82 -107q84 0 84 109q0 106 -82 106z" />
    <glyph glyph-name="ogonek" unicode="&#x2db;" horiz-adv-x="567" 
d="M342 41l66 -10q-158 -127 -158 -240q0 -52 34.5 -80t92.5 -28q52 0 110 20l19 -86q-83 -53 -199 -53q-120 0 -183 52t-63 134q0 93 76.5 166.5t204.5 124.5z" />
    <glyph glyph-name="tilde" unicode="&#x2dc;" horiz-adv-x="763" 
d="M637 1493l65 -55q-16 -39 -32.5 -69.5t-43 -66t-62.5 -55.5t-77 -20t-96 28l-160 80l-104 -108l-66 55q17 40 32.5 69t42 65.5t62.5 56.5t78 20q40 0 97 -29l159 -82z" />
    <glyph glyph-name="hungarumlaut" unicode="&#x2dd;" horiz-adv-x="786" 
d="M154 1585h92q79 -23 133 -102l-215 -309h-103zM500 1585h92q79 -23 133 -102l-217 -309h-100z" />
    <glyph glyph-name="gravecomb" unicode="&#x300;" horiz-adv-x="0" 
d="M-256 1174l-299 286q48 89 127 125h100l189 -411h-117z" />
    <glyph glyph-name="acutecomb" unicode="&#x301;" horiz-adv-x="0" 
d="M-362 1585h100q36 -21 68.5 -54t52.5 -71l-297 -286h-117z" />
    <glyph glyph-name="uni0302" unicode="&#x302;" horiz-adv-x="0" 
d="M-213 1157l-186 219h-21l-162 -202h-116l268 397h135l227 -334z" />
    <glyph glyph-name="tildecomb" unicode="&#x303;" horiz-adv-x="0" 
d="M-96 1493l65 -55q-16 -39 -32.5 -69.5t-43 -66t-62.5 -55.5t-77 -20t-96 28l-160 80l-104 -108l-66 55q17 40 32.5 69t42 65.5t62.5 56.5t78 20q40 0 97 -29l159 -82z" />
    <glyph glyph-name="uni0304" unicode="&#x304;" horiz-adv-x="0" 
d="M-680 1421h557q8 -33 8 -75q0 -47 -8 -78h-557q-8 31 -8 78q0 42 8 75z" />
    <glyph glyph-name="uni0306" unicode="&#x306;" horiz-adv-x="0" 
d="M-692 1505l151 41q15 -104 57 -153.5t119 -49.5q79 -1 122 49.5t63 151.5l80 -24q-13 -159 -95.5 -241.5t-214.5 -82.5q-133 0 -205 79t-77 230z" />
    <glyph glyph-name="uni0307" unicode="&#x307;" horiz-adv-x="0" 
d="M-408 1497q50 0 78 -12q35 -53 35 -109q0 -60 -51 -133h-180l-29 232q73 22 147 22z" />
    <glyph glyph-name="uni0308" unicode="&#x308;" horiz-adv-x="2" 
d="M-666 1485q44 0 74 -10q33 -58 33 -103q0 -54 -45 -121h-162l-29 211q63 23 129 23zM-246 1485q44 0 74 -10q33 -58 33 -103q0 -54 -45 -121h-162l-29 211q63 23 129 23z" />
    <glyph glyph-name="uni030A" unicode="&#x30a;" horiz-adv-x="0" 
d="M-346 1595q108 0 166.5 -50.5t58.5 -143.5q0 -102 -69 -155.5t-181 -53.5q-110 0 -169.5 50t-59.5 142q0 104 71.5 157.5t182.5 53.5zM-358 1501q-84 0 -84 -108q0 -107 82 -107q84 0 84 109q0 106 -82 106z" />
    <glyph glyph-name="uni030B" unicode="&#x30b;" horiz-adv-x="0" 
d="M-639 1585h92q79 -23 133 -102l-215 -309h-102zM-293 1585h92q79 -23 133 -102l-217 -309h-100z" />
    <glyph glyph-name="uni030C" unicode="&#x30c;" horiz-adv-x="0" 
d="M-381 1370l162 203h117l-269 -397h-135l-227 333l145 82l187 -221h20z" />
    <glyph glyph-name="uni0312" unicode="&#x312;" horiz-adv-x="2" 
d="M-301 1587l35 -59q-58 -34 -86.5 -63.5t-28.5 -69.5q0 -19 2 -31l90 -12l4 -156q-58 -14 -100 -14q-55 0 -94 16q-37 58 -37 131q0 91 55.5 160.5t159.5 97.5z" />
    <glyph glyph-name="uni0326" unicode="&#x326;" horiz-adv-x="0" 
d="M-217 -102q53 0 94 -17q37 -58 37 -131q0 -90 -54.5 -158.5t-156.5 -95.5l-33 60q53 32 81 61.5t28 67.5q0 18 -2 30l-90 13l-4 155q62 15 100 15z" />
    <glyph glyph-name="uni0327" unicode="&#x327;" horiz-adv-x="0" 
d="M-285 12v-143q95 -1 140 -38t45 -97q0 -75 -62 -122.5t-174 -47.5q-135 0 -209 59l17 82q7 -2 25.5 -7.5t29 -8t26 -6.5t30 -5.5t28.5 -1.5q48 0 76 18.5t28 53.5q0 32 -27 45t-112 27l33 192h106z" />
    <glyph glyph-name="uni0328" unicode="&#x328;" horiz-adv-x="2" 
d="M342 41l66 -10q-158 -127 -158 -240q0 -52 34.5 -80t92.5 -28q52 0 110 20l19 -86q-83 -53 -199 -53q-120 0 -183 52t-63 134q0 93 76.5 166.5t204.5 124.5z" />
    <glyph glyph-name="uni0394" unicode="&#x394;" horiz-adv-x="1228" 
d="M1186 0h-1145l-14 29l501 1331l136 29l30 -5l506 -1355zM930 174l-340 928l-344 -928h684z" />
    <glyph glyph-name="uni03A9" unicode="&#x3a9;" horiz-adv-x="1501" 
d="M1325 342l135 -12q6 -47 6 -109q0 -102 -18 -221h-574v332q263 135 263 469q0 219 -100.5 337.5t-284.5 118.5t-284.5 -117.5t-100.5 -334.5q0 -348 262 -473v-332h-576q-18 119 -18 221q0 63 6 109l135 12l35 -143l297 -21v109q-80 22 -150 63t-129.5 103t-94 153
t-34.5 199q0 123 45 229.5t128.5 185.5t211 124t283.5 45t279 -45.5t199.5 -124.5t116.5 -182t40 -222q0 -203 -111.5 -341t-296.5 -191v-105l295 21z" />
    <glyph glyph-name="uni03BC" unicode="&#x3bc;" horiz-adv-x="1239" 
d="M1188 129v-96q-151 -39 -309 -49l-43 12l10 151h-23q-127 -174 -293 -174q-60 0 -101.5 21t-76.5 65l-20 -10l37 -463q-75 -22 -201 -22l-37 37l39 522v897q108 26 178 33l43 -11v-688q0 -215 193 -215q141 0 245 125v754q106 28 179 35l43 -11v-876z" />
    <glyph glyph-name="pi" unicode="&#x3c0;" horiz-adv-x="1292" 
d="M1219 127v-92q-100 -51 -199 -51q-88 0 -129 46t-41 148q0 271 20 653h-411v-823q-69 -15 -195 -22l-43 24l41 508v313q-112 -7 -217 -71l-45 67q57 108 138 154.5t241 46.5h823l23 -24l-23 -173h-123v-688z" />
    <glyph glyph-name="Wgrave" unicode="&#x1e80;" horiz-adv-x="2160" 
d="M2118 1257l-119 -32q-198 -656 -393 -1221l-191 -31l-31 4q-193 568 -280 848h-25q-149 -470 -282 -821l-191 -31l-31 4q-215 619 -413 1268l-119 12v105h541v-105l-158 -34q167 -618 293 -1006h20q152 436 287 856l-55 170l-117 14v105h545v-105l-182 -34
q5 -18 42 -143.5t49 -167.5t45 -152.5t50.5 -166.5t43 -138t44.5 -138.5t35 -99.5h22q174 564 293 1028l-172 12v105h449v-105zM1124 1477l-301 239q46 84 119 121h100l207 -360h-125z" />
    <glyph glyph-name="wgrave" unicode="&#x1e81;" horiz-adv-x="1814" 
d="M1763 928l-121 -33q-128 -447 -284 -891l-158 -31l-31 4q-121 352 -233 752h-21q-20 -61 -76.5 -233t-94.5 -283.5t-74 -208.5l-160 -31l-31 4q-169 472 -301 941l-127 10v100h471v-100l-100 -35q60 -263 188 -666h21q149 425 252 797l147 31l33 -4q134 -515 235 -824h23
q133 465 180 688l-153 13v100h415v-100zM944 1174l-299 286q48 89 127 125h100l189 -411h-117z" />
    <glyph glyph-name="Wacute" unicode="&#x1e82;" horiz-adv-x="2160" 
d="M2118 1257l-119 -32q-198 -656 -393 -1221l-191 -31l-31 4q-193 568 -280 848h-25q-149 -470 -282 -821l-191 -31l-31 4q-215 619 -413 1268l-119 12v105h541v-105l-158 -34q167 -618 293 -1006h20q152 436 287 856l-55 170l-117 14v105h545v-105l-182 -34
q5 -18 42 -143.5t49 -167.5t45 -152.5t50.5 -166.5t43 -138t44.5 -138.5t35 -99.5h22q174 564 293 1028l-172 12v105h449v-105zM1307 1837h100q78 -38 119 -121l-309 -239h-125z" />
    <glyph glyph-name="wacute" unicode="&#x1e83;" horiz-adv-x="1814" 
d="M1763 928l-121 -33q-128 -447 -284 -891l-158 -31l-31 4q-121 352 -233 752h-21q-20 -61 -76.5 -233t-94.5 -283.5t-74 -208.5l-160 -31l-31 4q-169 472 -301 941l-127 10v100h471v-100l-100 -35q60 -263 188 -666h21q149 425 252 797l147 31l33 -4q134 -515 235 -824h23
q133 465 180 688l-153 13v100h415v-100zM1081 1585h101q36 -21 68.5 -54t52.5 -71l-297 -286h-117z" />
    <glyph glyph-name="Wdieresis" unicode="&#x1e84;" horiz-adv-x="2160" 
d="M2118 1257l-119 -32q-198 -656 -393 -1221l-191 -31l-31 4q-193 568 -280 848h-25q-149 -470 -282 -821l-191 -31l-31 4q-215 619 -413 1268l-119 12v105h541v-105l-158 -34q167 -618 293 -1006h20q152 436 287 856l-55 170l-117 14v105h545v-105l-182 -34
q5 -18 42 -143.5t49 -167.5t45 -152.5t50.5 -166.5t43 -138t44.5 -138.5t35 -99.5h22q174 564 293 1028l-172 12v105h449v-105zM899 1757q47 0 76 -10q33 -44 33 -105q0 -59 -43 -120h-166l-29 213q60 22 129 22zM1384 1757q47 0 76 -10q33 -44 33 -105q0 -59 -43 -120h-166
l-29 213q61 22 129 22z" />
    <glyph glyph-name="wdieresis" unicode="&#x1e85;" horiz-adv-x="1814" 
d="M1763 928l-121 -33q-128 -447 -284 -891l-158 -31l-31 4q-121 352 -233 752h-21q-20 -61 -76.5 -233t-94.5 -283.5t-74 -208.5l-160 -31l-31 4q-169 472 -301 941l-127 10v100h471v-100l-100 -35q60 -263 188 -666h21q149 425 252 797l147 31l33 -4q134 -515 235 -824h23
q133 465 180 688l-153 13v100h415v-100zM768 1485q44 0 74 -10q32 -56 32 -103q0 -54 -45 -121h-161l-29 211q63 23 129 23zM1188 1485q44 0 74 -10q32 -56 32 -103q0 -54 -45 -121h-162l-28 211q63 23 129 23z" />
    <glyph glyph-name="uni1E9E" unicode="&#x1e9e;" horiz-adv-x="1521" 
d="M823 1389q113 0 241.5 -18t227.5 -50v-127q-121 -64 -181 -131.5t-60 -149.5q0 -59 34.5 -106.5t126.5 -124.5q48 -41 71.5 -62t58.5 -59t51 -68.5t28.5 -74t12.5 -92.5q0 -167 -120.5 -260t-305.5 -93q-159 0 -308 80q-12 54 -12 123q0 74 17 168h135l32 -221
q59 -23 125 -23q102 0 147.5 51.5t45.5 131.5q0 37 -8.5 65t-34.5 59t-50 53t-79 68q-94 77 -140.5 147t-46.5 165q0 118 75.5 212t217.5 156v19q-116 33 -264 33q-209 0 -311.5 -88.5t-102.5 -305.5v-866h-393v104l156 37v723q0 138 44 240.5t126 164t192.5 91t251.5 29.5z
" />
    <glyph glyph-name="Ygrave" unicode="&#x1ef2;" horiz-adv-x="1378" 
d="M1333 1257l-116 -34q-165 -341 -392 -738v-368l176 -13v-104h-593v104l178 37v334q-205 355 -412 770l-129 12v105h541v-105l-148 -30q146 -303 303 -584h23q158 270 301 602l-178 12v105h446v-105zM694 1477l-301 239q46 84 119 121h100l207 -360h-125z" />
    <glyph glyph-name="ygrave" unicode="&#x1ef3;" horiz-adv-x="1171" 
d="M1157 928l-127 -33q-165 -476 -383 -985q-75 -171 -171.5 -258.5t-209.5 -87.5q-100 0 -149 65l14 121h299q63 97 102 203q-180 386 -389 962l-129 13v100h465v-100l-92 -33q113 -340 244 -668h24q148 400 236 688l-150 13v100h416v-100zM582 1174l-299 286
q48 89 127 125h100l188 -411h-116z" />
    <glyph glyph-name="uni2007" unicode="&#x2007;" horiz-adv-x="1245" 
 />
    <glyph glyph-name="uni2008" unicode="&#x2008;" horiz-adv-x="534" 
 />
    <glyph glyph-name="uni2009" unicode="&#x2009;" horiz-adv-x="358" 
 />
    <glyph glyph-name="uni200B" unicode="&#x200b;" horiz-adv-x="0" 
 />
    <glyph glyph-name="endash" unicode="&#x2013;" horiz-adv-x="1024" 
d="M106 532v144h809v-144h-809z" />
    <glyph glyph-name="emdash" unicode="&#x2014;" horiz-adv-x="2048" 
d="M162 532v144h1726v-144h-1726z" />
    <glyph glyph-name="quoteleft" unicode="&#x2018;" horiz-adv-x="534" 
d="M395 1528l25 -70q-60 -33 -98.5 -89t-38.5 -114q0 -18 4 -34l100 -15l6 -200q-59 -15 -112 -15q-62 0 -107 19q-49 81 -49 168q0 124 71 220.5t199 129.5z" />
    <glyph glyph-name="quoteright" unicode="&#x2019;" horiz-adv-x="534" 
d="M252 1509q64 0 106 -18q50 -76 50 -170q0 -130 -71.5 -222t-199.5 -126l-24 71q60 30 98.5 82t38.5 117q0 21 -4 37l-101 14l-6 201q55 14 113 14z" />
    <glyph glyph-name="quotesinglbase" unicode="&#x201a;" horiz-adv-x="534" 
d="M252 227q64 0 106 -18q50 -76 50 -172q0 -129 -71.5 -221.5t-199.5 -124.5l-24 69q60 32 98.5 84t38.5 117q0 21 -4 37l-101 14l-6 201q55 14 113 14z" />
    <glyph glyph-name="quotedblleft" unicode="&#x201c;" horiz-adv-x="929" 
d="M791 1528l24 -70q-60 -33 -98.5 -89t-38.5 -114q0 -18 4 -34l100 -15l6 -200q-59 -15 -112 -15q-62 0 -107 19q-49 81 -49 168q0 124 71.5 220.5t199.5 129.5zM395 1528l25 -70q-60 -33 -98.5 -89t-38.5 -114q0 -18 4 -34l100 -15l6 -200q-59 -15 -112 -15q-62 0 -107 19
q-49 81 -49 168q0 124 71 220.5t199 129.5z" />
    <glyph glyph-name="quotedblright" unicode="&#x201d;" horiz-adv-x="929" 
d="M647 1509q65 0 107 -18q49 -75 49 -170q0 -130 -71.5 -222t-199.5 -126l-24 71q60 30 98.5 82t38.5 117q0 21 -4 37l-100 14l-6 201q55 14 112 14zM252 1509q64 0 106 -18q50 -76 50 -170q0 -130 -71.5 -222t-199.5 -126l-24 71q60 30 98.5 82t38.5 117q0 21 -4 37
l-101 14l-6 201q55 14 113 14z" />
    <glyph glyph-name="quotedblbase" unicode="&#x201e;" horiz-adv-x="929" 
d="M647 227q65 0 107 -18q49 -75 49 -172q0 -129 -71.5 -221.5t-199.5 -124.5l-24 69q60 32 98.5 84t38.5 117q0 21 -4 37l-100 14l-6 201q55 14 112 14zM252 227q64 0 106 -18q50 -76 50 -172q0 -129 -71.5 -221.5t-199.5 -124.5l-24 69q60 32 98.5 84t38.5 117q0 21 -4 37
l-101 14l-6 201q55 14 113 14z" />
    <glyph glyph-name="dagger" unicode="&#x2020;" horiz-adv-x="954" 
d="M393 1516h170q10 -34 10 -89q0 -113 -51 -256h-88q-49 149 -49 256q0 53 8 89zM143 1184q113 0 260 -51v-86q-157 -50 -260 -50q-47 0 -88 9v170q36 8 88 8zM809 1184q54 0 90 -8v-170q-40 -9 -90 -9q-101 0 -258 50v86q147 51 258 51zM434 1012h86q47 -141 47 -275
q0 -32 -2 -68.5t-4 -63.5t-8.5 -76.5t-9 -71t-11.5 -85.5t-12 -85h-88q-4 34 -13 101.5t-13 100.5t-9.5 82.5t-7.5 88.5t-2 77q0 141 47 275z" />
    <glyph glyph-name="daggerdbl" unicode="&#x2021;" horiz-adv-x="995" 
d="M414 1516h170q10 -34 10 -89q0 -113 -51 -256h-88q-49 149 -49 256q0 53 8 89zM164 1184q113 0 260 -51v-86q-157 -50 -260 -50q-47 0 -88 9v170q36 8 88 8zM829 1184q55 0 91 -8v-170q-40 -9 -91 -9q-101 0 -258 50v86q147 51 258 51zM455 1012h86q47 -136 47 -254
t-47 -254h-86q-47 130 -47 254t47 254zM164 518q107 0 260 -49v-86q-147 -51 -260 -51q-52 0 -88 8v170q36 8 88 8zM829 518q55 0 91 -8v-170q-36 -8 -91 -8q-111 0 -258 51v86q153 49 258 49zM455 344h88q51 -143 51 -256q0 -54 -10 -88h-170q-8 36 -8 88q0 107 49 256z
" />
    <glyph glyph-name="bullet" unicode="&#x2022;" horiz-adv-x="841" 
d="M420 879q135 0 206.5 -73t71.5 -204q0 -129 -71.5 -202.5t-206.5 -73.5q-132 0 -204.5 73.5t-72.5 202.5q0 130 72.5 203.5t204.5 73.5z" />
    <glyph glyph-name="ellipsis" unicode="&#x2026;" horiz-adv-x="1619" 
d="M1374 276q48 0 78 -10q43 -58 43 -127q0 -71 -43 -139h-205l-37 242q70 34 164 34zM289 276q48 0 78 -10q43 -58 43 -127q0 -71 -43 -139h-205l-37 242q70 34 164 34zM829 276q48 0 78 -10q43 -58 43 -127q0 -71 -43 -139h-205l-36 242q70 34 163 34z" />
    <glyph glyph-name="perthousand" unicode="&#x2030;" horiz-adv-x="2514" 
d="M2109 731q154 0 234 -102t80 -264q0 -180 -93 -286t-251 -106q-154 0 -233 101t-79 264q0 180 92 286.5t250 106.5zM2095 639q-71 0 -105 -67.5t-34 -219.5q0 -151 34 -217.5t105 -66.5t105 66.5t34 217.5q0 152 -34 219.5t-105 67.5zM1325 1237l12 -31
q-33 -51 -179.5 -271.5t-227.5 -352.5q-57 -94 -181 -309.5t-198 -333.5l-107 47l-12 30q269 403 404 617q79 129 210 355t173 296zM434 1249q154 0 234 -101.5t80 -262.5q0 -180 -93.5 -286.5t-251.5 -106.5q-154 0 -232.5 101t-78.5 265q0 180 92 285.5t250 105.5z
M420 1157q-70 0 -104.5 -68t-34.5 -219q0 -152 34 -218t105 -66t105 66t34 218q0 151 -34.5 219t-104.5 68zM1358 731q154 0 233.5 -101.5t79.5 -264.5q0 -180 -93 -286t-251 -106q-154 0 -232.5 101t-78.5 264q0 180 92 286.5t250 106.5zM1348 637q-71 0 -105.5 -67.5
t-34.5 -217.5q0 -151 34.5 -217.5t105.5 -66.5t105 66t34 218q0 151 -34 218t-105 67z" />
    <glyph glyph-name="minute" unicode="&#x2032;" horiz-adv-x="520" 
d="M236 977h-138l84 496q111 24 205 24l33 -47z" />
    <glyph glyph-name="second" unicode="&#x2033;" horiz-adv-x="935" 
d="M236 977h-138l84 496q111 24 205 24l33 -47zM651 977h-137l84 496q111 24 205 24l33 -47z" />
    <glyph glyph-name="uni2034" unicode="&#x2034;" horiz-adv-x="1327" 
d="M236 977h-138l84 496q111 24 205 24l33 -47zM639 977h-137l84 496q111 24 205 24l32 -47zM1042 977h-137l84 496q111 24 205 24l33 -47z" />
    <glyph glyph-name="guilsinglleft" unicode="&#x2039;" horiz-adv-x="686" 
d="M358 563l172 -325l-98 -68l-321 369v49l319 368l98 -67z" />
    <glyph glyph-name="guilsinglright" unicode="&#x203a;" horiz-adv-x="686" 
d="M575 539l-321 -369l-98 68l174 325l-172 326l98 67l319 -368v-49z" />
    <glyph glyph-name="fraction" unicode="&#x2044;" horiz-adv-x="520" 
d="M735 1364l13 -31q-303 -457 -437 -676q-73 -118 -210 -354.5t-207 -351.5l-107 47l-12 31q305 459 440 680q75 120 210 355t204 347z" />
    <glyph glyph-name="uni2070" unicode="&#x2070;" horiz-adv-x="776" 
d="M399 1501q145 0 220 -98t75 -256q0 -173 -84.5 -275t-230.5 -102t-221.5 98.5t-75.5 257.5q0 172 85.5 273.5t231.5 101.5zM389 1419q-69 0 -103 -65.5t-34 -214.5q0 -153 34 -220t103 -67q68 0 102.5 67.5t34.5 219.5q0 148 -34.5 214t-102.5 66z" />
    <glyph glyph-name="uni2074" unicode="&#x2074;" horiz-adv-x="655" 
d="M506 905v-119h-148v119h-315l-6 60q104 246 207 542l135 -43l8 -22q-113 -232 -240 -438l7 -17q91 17 143 17h61v208l103 25l45 -4v-229h110v-99h-110z" />
    <glyph glyph-name="uni2075" unicode="&#x2075;" horiz-adv-x="647" 
d="M539 1501l22 -55q-75 -92 -209 -92q-77 0 -147 26l-19 -166q91 25 156 25q99 0 171.5 -59.5t72.5 -157.5q0 -107 -83.5 -179.5t-217.5 -72.5q-94 0 -158 37.5t-64 103.5q0 55 41 80h109l20 -133q32 -8 54 -8q58 0 94.5 36t36.5 105q0 70 -41.5 105t-136.5 39l-131 6
l12 346l96 14q63 -24 145 -24q72 0 177 24z" />
    <glyph glyph-name="uni2076" unicode="&#x2076;" horiz-adv-x="735" 
d="M449 1249q95 0 157 -60t62 -157q0 -112 -82 -187t-211 -75q-141 0 -217 91.5t-76 246.5q0 189 111 291t286 102q65 0 111 -14l-4 -66q-158 2 -241 -56t-95 -191h18q72 75 181 75zM377 850q57 0 89 39t32 117q0 137 -111 137q-38 0 -68.5 -16t-66.5 -52v-2
q0 -223 125 -223z" />
    <glyph glyph-name="uni2077" unicode="&#x2077;" horiz-adv-x="595" 
d="M575 1475l11 -60q-227 -338 -267 -497l27 -130l-115 -34q-35 12 -57 47.5t-22 75.5q0 74 73 183.5t236 309.5l-6 16l-295 -24l-17 -94h-84q-10 58 -10 121q0 44 10 86h516z" />
    <glyph glyph-name="uni2078" unicode="&#x2078;" horiz-adv-x="716" 
d="M483 1178v-19q71 -29 109.5 -72t38.5 -112q0 -102 -81 -153.5t-200 -51.5q-118 0 -191 49.5t-73 141.5q0 119 139 167v19q-125 53 -125 166q0 49 24.5 87t65 59t86.5 31.5t95 10.5q105 0 176 -45.5t71 -130.5q0 -33 -12 -59t-34.5 -43t-42 -26.5t-46.5 -18.5zM365 1423
q-51 0 -77 -25t-26 -69q0 -37 24 -63.5t93 -51.5l27 -10q19 15 29 25.5t20 34t10 55.5q0 104 -100 104zM354 848q58 0 87.5 30t29.5 83q0 46 -30.5 74.5t-116.5 56.5l-25 8q-61 -51 -61 -131q0 -121 116 -121z" />
    <glyph glyph-name="uni2079" unicode="&#x2079;" horiz-adv-x="735" 
d="M356 1501q144 0 220.5 -91t76.5 -245q0 -190 -111.5 -292.5t-285.5 -102.5q-57 0 -115 14l2 68q163 -3 246.5 54.5t95.5 191.5h-20q-67 -76 -178 -76q-95 0 -157 60.5t-62 158.5q0 115 80 187.5t208 72.5zM350 1124q65 0 131 66v4q0 127 -34 175t-91 48q-56 0 -87 -38
t-31 -115q0 -140 112 -140z" />
    <glyph glyph-name="uni2080" unicode="&#x2080;" horiz-adv-x="776" 
d="M399 559q145 0 220 -98t75 -256q0 -173 -84.5 -275t-230.5 -102t-221.5 98.5t-75.5 257.5q0 172 85.5 273.5t231.5 101.5zM389 477q-69 0 -103 -65.5t-34 -214.5q0 -153 34 -220t103 -67q68 0 102.5 67.5t34.5 219.5q0 148 -34.5 214t-102.5 66z" />
    <glyph glyph-name="uni2081" unicode="&#x2081;" horiz-adv-x="509" 
d="M479 -143h-420v73l136 21v450q-47 -12 -140 -12v84q58 2 116 25t93 73l80 -4v-628h2l133 -9v-73z" />
    <glyph glyph-name="uni2082" unicode="&#x2082;" horiz-adv-x="620" 
d="M573 -53q0 -54 -10 -90h-520l-8 84q56 44 80 63.5t74.5 63t75.5 73.5t55.5 72t43.5 83t13 83q0 113 -107 113q-22 0 -55 -11l-20 -147h-111q-41 24 -41 80q0 67 71.5 112t178.5 45q118 0 186 -55t68 -141q0 -52 -26 -102t-83.5 -104.5t-117 -100t-158.5 -113.5l6 -16
q97 17 149 22l144 12l10 68h90q12 -37 12 -94z" />
    <glyph glyph-name="uni2083" unicode="&#x2083;" horiz-adv-x="665" 
d="M305 571q117 0 184.5 -51t67.5 -137q0 -110 -135 -152v-18q160 -35 160 -160q0 -96 -82.5 -154.5t-214.5 -58.5q-104 0 -171 37.5t-67 104.5q0 52 39 81h109l20 -135q32 -8 61 -8q65 0 102.5 29.5t37.5 103.5q0 64 -33.5 95.5t-116.5 31.5h-53v78h113q65 40 65 129
q0 56 -26 80.5t-78 24.5q-20 0 -66 -11l-16 -131h-105q-41 32 -41 76q0 65 70.5 105t175.5 40z" />
    <glyph glyph-name="uni2084" unicode="&#x2084;" horiz-adv-x="655" 
d="M506 -37v-119h-148v119h-315l-6 60q104 246 207 542l135 -43l8 -22q-115 -237 -240 -439l7 -16q86 16 143 16h61v209l103 25l45 -4v-230h110v-98h-110z" />
    <glyph glyph-name="uni2085" unicode="&#x2085;" horiz-adv-x="647" 
d="M539 559l22 -55q-75 -92 -209 -92q-77 0 -147 26l-19 -166q91 25 156 25q99 0 171.5 -59.5t72.5 -157.5q0 -107 -83.5 -179.5t-217.5 -72.5q-94 0 -158 37.5t-64 103.5q0 55 41 80h109l20 -133q32 -8 54 -8q58 0 94.5 36t36.5 105q0 70 -41.5 105t-136.5 39l-131 6
l12 346l96 14q63 -24 145 -24q72 0 177 24z" />
    <glyph glyph-name="uni2086" unicode="&#x2086;" horiz-adv-x="735" 
d="M449 307q95 0 157 -60t62 -157q0 -112 -82 -187t-211 -75q-141 0 -217 91.5t-76 246.5q0 189 111 291t286 102q65 0 111 -14l-4 -66q-158 2 -241 -56.5t-95 -191.5h18q73 76 181 76zM377 -92q57 0 89 39t32 116q0 138 -111 138q-38 0 -68.5 -16t-66.5 -52v-2
q0 -223 125 -223z" />
    <glyph glyph-name="uni2087" unicode="&#x2087;" horiz-adv-x="595" 
d="M575 532l11 -59q-227 -337 -267 -498l27 -129l-115 -34q-36 12 -57.5 47t-21.5 75q0 74 73 184.5t236 309.5l-6 16l-295 -24l-17 -94h-84q-10 58 -10 120q0 44 10 86h516z" />
    <glyph glyph-name="uni2088" unicode="&#x2088;" horiz-adv-x="716" 
d="M483 238v-19q71 -29 109.5 -72t38.5 -112q0 -102 -81 -153.5t-200 -51.5t-191.5 49t-72.5 141q0 120 139 168v19q-125 53 -125 166q0 49 24.5 87t65 59t86.5 31.5t95 10.5q105 0 176 -45.5t71 -130.5q0 -33 -12 -59t-34.5 -43t-42 -26.5t-46.5 -18.5zM365 483
q-51 0 -77 -25t-26 -69q0 -37 24 -63.5t93 -51.5l27 -10q19 15 29 25.5t20 34t10 55.5q0 104 -100 104zM354 -92q58 0 87.5 29.5t29.5 82.5q0 46 -30.5 75t-116.5 57l-25 8q-61 -51 -61 -131q0 -121 116 -121z" />
    <glyph glyph-name="uni2089" unicode="&#x2089;" horiz-adv-x="735" 
d="M356 561q144 0 220.5 -91t76.5 -245q0 -190 -111.5 -292.5t-285.5 -102.5q-57 0 -115 14l2 68q163 -3 246.5 54.5t95.5 191.5h-20q-67 -76 -178 -76q-95 0 -157 60.5t-62 158.5q0 115 80 187.5t208 72.5zM350 184q65 0 131 66v4q0 127 -34 175t-91 48q-56 0 -87 -38
t-31 -115q0 -140 112 -140z" />
    <glyph glyph-name="Euro" unicode="&#x20ac;" horiz-adv-x="1214" 
d="M1098 238l39 -78q-150 -187 -410 -187q-206 0 -335.5 119t-168.5 324h-149v112h135q-2 20 -2 64q0 58 6 110h-139v113h159q52 202 193 318t346 116q93 0 169 -22t127.5 -76.5t51.5 -134.5q0 -82 -61 -127h-148l-30 235q-54 13 -109 13q-252 0 -307 -322h348v-113h-360
q-2 -27 -2 -86t2 -88h360v-112h-346q27 -154 103 -223.5t200 -69.5q172 0 328 115z" />
    <glyph glyph-name="uni20B9" unicode="&#x20b9;" horiz-adv-x="972" 
d="M627 1106l-4 -19q108 -45 139 -151h137v-117h-127q-7 -145 -100 -221t-273 -102l-6 -27q51 -40 99.5 -83.5t79 -73.5t81 -81.5t80.5 -80.5l127 -50l-6 -86q-84 -32 -162 -32q-138 0 -215 65q-46 41 -152.5 172t-228.5 299l33 72h256q118 61 127 229h-438v117h432
q-19 101 -113 170h-319v117h825v-117h-272z" />
    <glyph glyph-name="uni20BA" unicode="&#x20ba;" horiz-adv-x="1093" 
d="M885 541l141 10q25 -80 25 -143q0 -84 -33.5 -159t-98 -134.5t-168 -94t-233.5 -34.5q-148 0 -272 32v482l-168 -58l-17 25v94l185 64v176l-168 -58l-17 23v96l185 64v288q94 24 194 27l33 -29v-208l305 104l15 -25v-94l-320 -110v-177l305 105l15 -23v-94l-320 -110
v-478h27q96 0 172 33.5t122 88.5t69.5 121t23.5 136q0 42 -2 60z" />
    <glyph glyph-name="uni20BD" unicode="&#x20bd;" horiz-adv-x="1165" 
d="M496 385h442v-117h-442v-151l194 -13v-104h-581v104l155 33v131h-203v117h203v170h-203v121h203v434l-155 12v101q206 12 509 12q244 0 358 -79.5t114 -246.5q0 -178 -118 -266t-337 -88h-139v-170zM496 676h108q128 0 186 54.5t58 170.5q0 113 -56.5 164t-187.5 51h-108
v-440z" />
    <glyph glyph-name="afii61289" unicode="&#x2113;" horiz-adv-x="829" 
d="M731 188l43 -75q-117 -140 -295 -140q-141 0 -218.5 80.5t-90.5 208.5q-68 -32 -133 -49l-21 100q90 32 152 70v618q0 129 16 224.5t52.5 168.5t100.5 110.5t155 37.5q128 0 181.5 -77t53.5 -248q0 -99 -16 -200t-53 -214t-106.5 -226t-166.5 -208v-47q0 -110 42 -167
t114 -57q50 0 94 23.5t96 66.5zM485 1430q-42 0 -63 -32.5t-29 -108.5t-8 -228v-533q193 264 193 676q0 130 -21 178t-72 48z" />
    <glyph glyph-name="afii61352" unicode="&#x2116;" horiz-adv-x="2277" 
d="M1380 1401q68 0 119 -31l4 -113l-215 -65q-28 -80 -40.5 -174t-12.5 -244q0 -192 29 -770l-183 -27l-39 5l-485 815q-43 71 -133 264h-21q37 -438 37 -709q0 -379 -278 -379q-99 0 -146 58l19 112h219q18 53 23.5 110t5.5 157q0 211 -21 694l-160 14v105h476l438 -754
q20 -36 82 -172h20q-33 423 -33 610q0 256 73.5 375t221.5 119zM1853 1237q108 0 184.5 -51t111 -130.5t34.5 -176.5q0 -167 -98.5 -271t-259.5 -104q-158 0 -243 101t-85 253q0 168 97.5 273.5t258.5 105.5zM1839 1141q-80 0 -118 -66t-38 -205q0 -140 38 -207t120 -67
q80 0 118 65.5t38 204.5q0 140 -38.5 207.5t-119.5 67.5zM1620 170v141h442v-141h-442z" />
    <glyph glyph-name="uni2117" unicode="&#x2117;" horiz-adv-x="1628" 
d="M825 1389q208 0 369 -86.5t250.5 -245.5t89.5 -365q0 -215 -96.5 -380t-262.5 -252t-374 -87q-315 0 -511 195t-196 508q0 215 96 378.5t261.5 249t373.5 85.5zM813 84q252 0 408.5 163t156.5 437q0 272 -155.5 433t-407.5 161t-408.5 -161t-156.5 -433
q0 -273 155.5 -436.5t407.5 -163.5zM838 1079q184 0 279 -71t95 -205q0 -110 -74 -185t-182 -75q-67 1 -114 14v86h8q78 0 111.5 38.5t33.5 125.5q0 91 -39 129.5t-137 38.5h-26v-596l112 -10v-86h-405v86l104 24v576h-2l-106 8v92q169 10 342 10z" />
    <glyph glyph-name="trademark" unicode="&#x2122;" horiz-adv-x="1804" 
d="M29 1362h659q4 -29 4 -94q0 -85 -8 -129h-96l-21 133l-123 4v-602l99 -8v-76h-373v76l102 18v592l-122 -6l-21 -131h-96q-8 66 -8 129q0 65 4 94zM1763 590h-352v74l94 20q3 318 -6 580h-20q-16 -72 -39 -154l-140 -475l-112 -25l-35 2l-156 510q-7 24 -36 142h-21
q0 -218 -8 -590l110 -8v-76h-315v74l102 22q8 348 25 594l-94 8v74h342q107 -352 147 -545h21q55 242 153 545h318v-72l-92 -18q21 -383 26 -600l88 -6v-76z" />
    <glyph glyph-name="Omega" unicode="&#x2126;" horiz-adv-x="1501" 
d="M1325 342l135 -12q6 -47 6 -109q0 -102 -18 -221h-574v332q263 135 263 469q0 219 -100.5 337.5t-284.5 118.5t-284.5 -117.5t-100.5 -334.5q0 -348 262 -473v-332h-576q-18 119 -18 221q0 63 6 109l135 12l35 -143l297 -21v109q-80 22 -150 63t-129.5 103t-94 153
t-34.5 199q0 123 45 229.5t128.5 185.5t211 124t283.5 45t279 -45.5t199.5 -124.5t116.5 -182t40 -222q0 -203 -111.5 -341t-296.5 -191v-105l295 21z" />
    <glyph glyph-name="estimated" unicode="&#x212e;" horiz-adv-x="1306" 
d="M291 502v-293q65 -93 168.5 -138.5t222.5 -45.5q139 0 252.5 56t187.5 138l25 -35q-82 -99 -202.5 -155t-266.5 -56q-167 0 -304 72.5t-214.5 197t-77.5 273.5q0 148 76.5 273t208 197.5t286.5 72.5t287 -72.5t208.5 -197t76.5 -271.5v-16h-934zM653 1008
q-108 0 -203.5 -48t-158.5 -135v-278h725v278q-65 91 -160.5 137t-202.5 46z" />
    <glyph glyph-name="uni2150" unicode="&#x2150;" horiz-adv-x="1832" 
d="M1354 1364l12 -31q-291 -438 -436 -676q-73 -118 -210.5 -355t-207.5 -351l-106 47l-13 31q318 479 441 680q75 120 209.5 354.5t203.5 347.5zM580 530h-508v88l164 25h2v541q-70 -15 -168 -15v101q70 4 140.5 31.5t113.5 87.5l96 -7v-755l160 -9v-88zM1808 831l13 -71
q-259 -382 -320 -600l35 -154l-137 -45q-51 16 -77 58.5t-26 89.5q0 90 91 225t286 368l-8 19l-352 -29l-17 -110l-102 2q-12 65 -12 145q0 50 10 102h616z" />
    <glyph glyph-name="uni2151" unicode="&#x2151;" horiz-adv-x="1927" 
d="M1354 1364l12 -31q-291 -438 -436 -676q-73 -118 -210.5 -355t-207.5 -351l-106 47l-13 31q318 479 441 680q75 120 209.5 354.5t203.5 347.5zM580 530h-508v88l164 25h2v541q-70 -15 -168 -15v101q70 4 140.5 31.5t113.5 87.5l96 -7v-755l160 -9v-88zM1481 858
q170 0 261 -108t91 -293q0 -116 -37 -208.5t-101.5 -150.5t-149.5 -88t-185 -30q-78 0 -137 16l4 80q193 -3 291 64t110 231h-20q-86 -92 -209 -92q-117 0 -191.5 78.5t-74.5 193.5q0 128 95.5 217.5t252.5 89.5zM1470 401q79 0 158 82v13q0 262 -149 262q-65 0 -102.5 -45
t-37.5 -138q0 -174 131 -174z" />
    <glyph glyph-name="uni2152" unicode="&#x2152;" horiz-adv-x="2656" 
d="M1354 1364l12 -31q-291 -438 -436 -676q-73 -118 -210.5 -355t-207.5 -351l-106 47l-13 31q318 479 441 680q75 120 209.5 354.5t203.5 347.5zM580 530h-508v88l164 25h2v541q-70 -15 -168 -15v101q70 4 140.5 31.5t113.5 87.5l96 -7v-755l160 -9v-88zM2212 858
q115 0 196 -57t118.5 -151.5t37.5 -217.5q0 -207 -103.5 -329.5t-277.5 -122.5q-115 0 -196 57t-118.5 151.5t-37.5 217.5q0 207 103.5 329.5t277.5 122.5zM2198 760q-81 0 -121.5 -78t-40.5 -262q0 -186 40.5 -265t121.5 -79q80 0 119.5 79t39.5 265q0 184 -39.5 262
t-119.5 78zM1700 0h-508v88l164 25h2v540q-66 -14 -168 -14v100q70 4 140.5 31.5t113.5 87.5l96 -6v-756l160 -8v-88z" />
    <glyph glyph-name="onethird" unicode="&#x2153;" horiz-adv-x="1898" 
d="M1354 1364l12 -31q-291 -438 -436 -676q-73 -118 -210.5 -355t-207.5 -351l-106 47l-13 31q318 479 441 680q75 120 209.5 354.5t203.5 347.5zM580 530h-508v88l164 25h2v541q-70 -15 -168 -15v101q70 4 140.5 31.5t113.5 87.5l96 -7v-755l160 -9v-88zM1616 446v-20
q186 -46 186 -190q0 -115 -100 -185.5t-258 -70.5q-123 0 -203 43.5t-80 123.5q0 63 47 101h131l25 -166q30 -6 72 -6q166 0 166 155q0 76 -41 116t-136 40h-63v92h129q82 56 82 156q0 127 -125 127q-38 0 -78 -12l-18 -158h-125q-51 38 -51 90q0 78 85.5 127t213.5 49
q138 0 218.5 -61t80.5 -164q0 -134 -158 -187z" />
    <glyph glyph-name="twothirds" unicode="&#x2154;" horiz-adv-x="2021" 
d="M1477 1364l12 -31q-291 -438 -436 -676q-73 -118 -210.5 -355t-207.5 -351l-107 47l-12 31q305 459 440 680q75 120 210 355t204 347zM565 752h109q14 -49 14 -113q0 -59 -12 -109h-625l-10 101q12 9 53.5 43t57 46.5t54 45.5t56 50.5t49 49.5t46.5 54t36.5 54t31 59
t17 59t7.5 63q0 137 -123 137q-30 0 -68 -10l-25 -180h-133q-51 36 -51 96q0 80 88 135.5t215 55.5q139 0 221 -67.5t82 -170.5q0 -50 -23.5 -100.5t-59 -94.5t-100.5 -98.5t-124 -98t-153 -108.5l6 -18q143 20 178 22l172 13zM1739 446v-20q186 -46 186 -190
q0 -115 -100 -185.5t-258 -70.5q-123 0 -203 43.5t-80 123.5q0 63 47 101h131l25 -166q30 -6 72 -6q78 0 121.5 35t43.5 120q0 76 -40.5 116t-135.5 40h-63v92h129q82 56 82 156q0 127 -125 127q-37 0 -78 -12l-18 -158h-125q-52 39 -52 90q0 78 85.5 127t213.5 49
q138 0 218.5 -61t80.5 -164q0 -134 -157 -187z" />
    <glyph glyph-name="uni2155" unicode="&#x2155;" horiz-adv-x="1828" 
d="M1354 1364l12 -31q-291 -438 -436 -676q-73 -118 -210.5 -355t-207.5 -351l-106 47l-13 31q318 479 441 680q75 120 209.5 354.5t203.5 347.5zM580 530h-508v88l164 25h2v541q-70 -15 -168 -15v101q70 4 140.5 31.5t113.5 87.5l96 -7v-755l160 -9v-88zM1464 545
q123 0 208 -72.5t85 -191.5q0 -128 -101 -214.5t-263 -86.5q-115 0 -192 44.5t-77 125.5q0 61 52 96h131l22 -164q27 -6 62 -6q74 0 117.5 41t43.5 125q0 83 -48.5 124.5t-157.5 47.5l-166 10l14 416l121 18q91 -31 172 -31q80 0 213 31l26 -67q-83 -107 -249 -107
q-91 0 -179 31l-22 -201q118 31 188 31z" />
    <glyph glyph-name="uni2156" unicode="&#x2156;" horiz-adv-x="1951" 
d="M1477 1364l12 -31q-291 -438 -436 -676q-73 -118 -210.5 -355t-207.5 -351l-107 47l-12 31q305 459 440 680q75 120 210 355t204 347zM565 752h109q14 -49 14 -113q0 -59 -12 -109h-625l-10 101q12 9 53.5 43t57 46.5t54 45.5t56 50.5t49 49.5t46.5 54t36.5 54t31 59
t17 59t7.5 63q0 137 -123 137q-30 0 -68 -10l-25 -180h-133q-51 36 -51 96q0 80 88 135.5t215 55.5q139 0 221 -67.5t82 -170.5q0 -50 -23.5 -100.5t-59 -94.5t-100.5 -98.5t-124 -98t-153 -108.5l6 -18q143 20 178 22l172 13zM1587 545q123 0 208 -72.5t85 -191.5
q0 -128 -101 -214.5t-263 -86.5q-115 0 -192 44.5t-77 125.5q0 62 51 96h132l22 -164q27 -6 61 -6q74 0 118 41t44 125q0 83 -49 124.5t-158 47.5l-165 10l14 416l121 18q91 -31 172 -31q80 0 213 31l26 -67q-83 -107 -250 -107q-90 0 -178 31l-22 -201q118 31 188 31z" />
    <glyph glyph-name="uni2157" unicode="&#x2157;" horiz-adv-x="1931" 
d="M1456 1364l12 -31q-291 -438 -436 -676q-73 -118 -210.5 -355t-207.5 -351l-106 47l-12 31q305 459 440 680q75 120 210 355t204 347zM508 977v-21q186 -46 186 -190q0 -115 -100 -185.5t-258 -70.5q-123 0 -203 44t-80 124q0 62 47 100h131l25 -166q30 -6 72 -6
q166 0 166 156q0 76 -41 116t-136 40h-63v92h129q82 56 82 155q0 127 -125 127q-38 0 -78 -12l-18 -158h-125q-51 38 -51 90q0 78 85.5 127.5t213.5 49.5q138 0 218.5 -61.5t80.5 -164.5q0 -133 -158 -186zM1567 545q123 0 208 -72.5t85 -191.5q0 -128 -101.5 -214.5
t-263.5 -86.5q-115 0 -191.5 44.5t-76.5 125.5q0 62 51 96h131l23 -164q27 -6 61 -6q74 0 118 41t44 125q0 83 -49 124.5t-158 47.5l-166 10l14 416l121 18q91 -31 172 -31q80 0 213 31l27 -67q-83 -107 -250 -107q-90 0 -178 31l-23 -201q118 31 189 31z" />
    <glyph glyph-name="uni2158" unicode="&#x2158;" horiz-adv-x="1957" 
d="M1483 1364l12 -31q-291 -438 -436 -676q-73 -118 -210.5 -355t-207.5 -351l-106 47l-13 31q318 479 441 680q75 120 209.5 354.5t203.5 347.5zM606 668v-138h-178v138h-379l-8 73q146 343 252 652l166 -50l8 -28q-161 -322 -293 -529l6 -18q110 18 174 18h74v248l123 31
l55 -8v-271h131v-118h-131zM1593 545q123 0 208 -72.5t85 -191.5q0 -128 -101 -214.5t-263 -86.5q-115 0 -192 44.5t-77 125.5q0 61 52 96h131l22 -164q27 -6 62 -6q74 0 117.5 41t43.5 125q0 83 -48.5 124.5t-157.5 47.5l-166 10l14 416l121 18q91 -31 172 -31q80 0 213 31
l26 -67q-83 -107 -249 -107q-91 0 -179 31l-22 -201q118 31 188 31z" />
    <glyph glyph-name="uni2159" unicode="&#x2159;" horiz-adv-x="1865" 
d="M1354 1364l12 -31q-291 -438 -436 -676q-73 -118 -210.5 -355t-207.5 -351l-106 47l-13 31q318 479 441 680q75 120 209.5 354.5t203.5 347.5zM580 530h-508v88l164 25h2v541q-70 -15 -168 -15v101q70 4 140.5 31.5t113.5 87.5l96 -7v-755l160 -9v-88zM1522 559
q116 0 191 -78.5t75 -189.5q0 -129 -99 -220t-253 -91q-166 0 -257.5 108.5t-91.5 294.5q0 153 65 262.5t170.5 161t238.5 51.5q63 0 137 -16l-2 -80q-194 3 -293 -64.5t-111 -230.5h21q86 92 209 92zM1442 76q64 0 102.5 46t38.5 138q0 172 -133 172q-76 0 -156 -80v-16
q0 -260 148 -260z" />
    <glyph glyph-name="uni215A" unicode="&#x215a;" horiz-adv-x="1959" 
d="M1448 1364l12 -31q-291 -438 -436 -676q-73 -118 -210.5 -355t-207.5 -351l-106 47l-13 31q318 479 441 680q75 120 209.5 354.5t203.5 347.5zM412 1075q123 0 208 -72.5t85 -191.5q0 -128 -101.5 -214.5t-263.5 -86.5q-115 0 -191.5 44.5t-76.5 125.5q0 62 51 96h131
l22 -164q27 -6 62 -6q74 0 118 41t44 125q0 83 -49 124.5t-158 47.5l-166 10l14 416l121 19q91 -31 172 -31q80 0 213 31l27 -68q-83 -107 -250 -107q-90 0 -178 31l-23 -201q118 31 189 31zM1616 559q116 0 191 -78.5t75 -189.5q0 -129 -99 -220t-253 -91
q-166 0 -257 108.5t-91 294.5q0 116 37 207.5t102 149.5t150 88t184 30q63 0 137 -16l-2 -80q-194 3 -293 -64.5t-111 -230.5h21q86 92 209 92zM1536 76q64 0 102.5 46t38.5 138q0 172 -133 172q-75 0 -155 -80v-16q0 -260 147 -260z" />
    <glyph glyph-name="oneeighth" unicode="&#x215b;" horiz-adv-x="1902" 
d="M1354 1364l12 -31q-291 -438 -436 -676q-73 -118 -210.5 -355t-207.5 -351l-106 47l-13 31q318 479 441 680q75 120 209.5 354.5t203.5 347.5zM580 530h-508v88l164 25h2v541q-70 -15 -168 -15v101q70 4 140.5 31.5t113.5 87.5l96 -7v-755l160 -9v-88zM1628 469v-20
q85 -35 131.5 -88t46.5 -136q0 -84 -49.5 -141t-123 -80.5t-165.5 -23.5q-143 0 -231 59t-88 168q0 146 166 203v22q-148 68 -148 199q0 60 29.5 106t78 71t103 37.5t113.5 12.5q127 0 213 -54.5t86 -156.5q0 -41 -14.5 -72.5t-41.5 -51.5t-50.5 -31.5t-55.5 -22.5z
M1483 764q-58 0 -90.5 -30t-32.5 -83q0 -49 31.5 -77.5t111.5 -59.5l31 -12q23 18 35.5 30.5t24.5 40.5t12 64q0 127 -123 127zM1470 74q68 0 105 35.5t37 97.5q0 58 -37 91t-137 67l-31 10q-74 -61 -74 -156q0 -145 137 -145z" />
    <glyph glyph-name="threeeighths" unicode="&#x215c;" horiz-adv-x="2004" 
d="M1456 1364l12 -31q-291 -438 -436 -676q-73 -118 -210.5 -355t-207.5 -351l-106 47l-12 31q305 459 440 680q75 120 210 355t204 347zM508 977v-21q186 -46 186 -190q0 -115 -100 -185.5t-258 -70.5q-123 0 -203 44t-80 124q0 62 47 100h131l25 -166q30 -6 72 -6
q166 0 166 156q0 76 -41 116t-136 40h-63v92h129q82 56 82 155q0 127 -125 127q-38 0 -78 -12l-18 -158h-125q-51 38 -51 90q0 78 85.5 127.5t213.5 49.5q138 0 218.5 -61.5t80.5 -164.5q0 -133 -158 -186zM1731 469v-20q85 -35 131.5 -88t46.5 -136q0 -84 -49.5 -141
t-123 -80.5t-165.5 -23.5q-143 0 -231.5 59t-88.5 168q0 146 166 203v22q-147 68 -147 199q0 49 19.5 88t51.5 64.5t75 42.5t87 24.5t90 7.5q127 0 213 -54.5t86 -156.5q0 -41 -14.5 -72.5t-41 -51.5t-50 -31.5t-55.5 -22.5zM1585 764q-58 0 -90.5 -30t-32.5 -83
q0 -49 32 -77.5t112 -59.5l30 -12q23 18 35.5 30.5t24.5 40.5t12 64q0 127 -123 127zM1573 74q68 0 104.5 35.5t36.5 97.5q0 58 -37 91t-137 67l-31 10q-73 -60 -73 -156q0 -145 137 -145z" />
    <glyph glyph-name="fiveeighths" unicode="&#x215d;" horiz-adv-x="1996" 
d="M1448 1364l12 -31q-291 -438 -436 -676q-73 -118 -210.5 -355t-207.5 -351l-106 47l-13 31q318 479 441 680q75 120 209.5 354.5t203.5 347.5zM412 1075q123 0 208 -72.5t85 -191.5q0 -128 -101.5 -214.5t-263.5 -86.5q-115 0 -191.5 44.5t-76.5 125.5q0 62 51 96h131
l22 -164q27 -6 62 -6q74 0 118 41t44 125q0 83 -49 124.5t-158 47.5l-166 10l14 416l121 19q91 -31 172 -31q80 0 213 31l27 -68q-83 -107 -250 -107q-90 0 -178 31l-23 -201q118 31 189 31zM1722 469v-20q85 -35 132 -88.5t47 -135.5q0 -84 -49.5 -141t-123 -80.5
t-165.5 -23.5q-143 0 -231.5 59t-88.5 168q0 146 166 203v22q-147 68 -147 199q0 49 19.5 88t51.5 64.5t75 42.5t87 24.5t90 7.5q127 0 213 -54.5t86 -156.5q0 -41 -14.5 -72.5t-41.5 -51.5t-50.5 -31.5t-55.5 -22.5zM1577 764q-58 0 -90.5 -30t-32.5 -83q0 -49 31.5 -77.5
t111.5 -59.5l31 -12q23 18 35.5 30.5t24.5 40.5t12 64q0 127 -123 127zM1565 74q68 0 104.5 35.5t36.5 97.5q0 58 -37 91t-137 67l-31 10q-74 -61 -74 -156q0 -145 138 -145z" />
    <glyph glyph-name="seveneighths" unicode="&#x215e;" horiz-adv-x="1773" 
d="M1225 1364l12 -31q-291 -438 -436 -676q-73 -118 -210.5 -355t-207.5 -351l-107 47l-12 31q318 479 441 680q75 120 209.5 354.5t203.5 347.5zM680 1362l12 -72q-257 -379 -319 -600l35 -153l-138 -45q-50 16 -76 58t-26 89q0 90 91 226t286 368l-8 18l-353 -28l-16 -111
l-102 2q-13 70 -13 146q0 50 10 102h617zM1499 469v-20q85 -35 131.5 -88t46.5 -136q0 -84 -49.5 -141t-123 -80.5t-165.5 -23.5q-143 0 -231 59t-88 168q0 146 166 203v22q-148 68 -148 199q0 60 29.5 106t78 71t103 37.5t113.5 12.5q127 0 213 -54.5t86 -156.5
q0 -41 -14.5 -72.5t-41.5 -51.5t-50.5 -31.5t-55.5 -22.5zM1354 764q-58 0 -90.5 -30t-32.5 -83q0 -49 31.5 -77.5t111.5 -59.5l31 -12q23 18 35.5 30.5t24.5 40.5t12 64q0 127 -123 127zM1341 74q68 0 105 35.5t37 97.5q0 58 -37 91t-137 67l-31 10q-74 -61 -74 -156
q0 -145 137 -145z" />
    <glyph glyph-name="uni215F" unicode="&#x215f;" horiz-adv-x="1138" 
d="M1354 1364l12 -31q-291 -438 -436 -676q-73 -118 -210.5 -355t-207.5 -351l-106 47l-13 31q318 479 441 680q75 120 209.5 354.5t203.5 347.5zM580 530h-508v88l164 25h2v541q-70 -15 -168 -15v101q70 4 140.5 31.5t113.5 87.5l96 -7v-755l160 -9v-88z" />
    <glyph glyph-name="uni2189" unicode="&#x2189;" horiz-adv-x="2054" 
d="M1509 1364l13 -31q-303 -457 -437 -676q-73 -118 -210 -354.5t-207 -351.5l-107 47l-12 31q305 459 440 680q75 120 210 355t204 347zM473 1389q115 0 196 -57t118.5 -151.5t37.5 -217.5q0 -207 -104 -330t-277 -123q-115 0 -196 57t-118.5 151.5t-37.5 217.5
q0 207 104 330t277 123zM459 1290q-81 0 -121.5 -78t-40.5 -262q0 -186 40.5 -265t121.5 -79q80 0 119.5 79t39.5 265q0 184 -39.5 262t-119.5 78zM1772 446v-20q186 -46 186 -190q0 -115 -100.5 -185.5t-258.5 -70.5q-123 0 -202.5 43.5t-79.5 123.5q0 63 47 101h131
l25 -166q30 -6 71 -6q166 0 166 155q0 76 -40.5 116t-135.5 40h-63v92h129q82 56 82 156q0 127 -125 127q-38 0 -78 -12l-19 -158h-125q-51 38 -51 90q0 78 85.5 127t213.5 49q138 0 218.5 -61t80.5 -164q0 -134 -157 -187z" />
    <glyph glyph-name="arrowleft" unicode="&#x2190;" horiz-adv-x="1673" 
d="M956 676h611v-144h-611q-61 0 -126.5 4.5t-147 12.5t-100.5 10q28 -115 104 -326l-22 -14q-310 189 -582 371v28q290 194 582 375l22 -16q-79 -224 -104 -326q31 2 103 9t141.5 11.5t129.5 4.5z" />
    <glyph glyph-name="arrowup" unicode="&#x2191;" horiz-adv-x="1013" 
d="M897 854l-16 -23q-201 74 -324 103q1 -25 12 -159t11 -212v-563h-144v561q0 60 4 124t11.5 139.5t9.5 109.5q-97 -22 -328 -103l-16 23q151 241 375 576h30q224 -335 375 -576z" />
    <glyph glyph-name="arrowright" unicode="&#x2192;" horiz-adv-x="1673" 
d="M106 676h611q60 0 129.5 -4.5t142 -11.5t103.5 -9q-23 92 -105 326l23 16q279 -173 581 -375v-28q-283 -189 -581 -371l-23 14q79 220 105 326q-18 -2 -100.5 -10t-148 -12.5t-126.5 -4.5h-611v144z" />
    <glyph glyph-name="arrowdown" unicode="&#x2193;" horiz-adv-x="1013" 
d="M881 530l16 -22q-151 -241 -375 -576h-30q-224 335 -375 576l16 22q223 -78 328 -102q-2 34 -9.5 109.5t-11.5 139.5t-4 124v561h144v-563q0 -78 -11 -212t-12 -159q130 31 324 102z" />
    <glyph glyph-name="arrowboth" unicode="&#x2194;" horiz-adv-x="2050" 
d="M1362 977l24 16q290 -181 582 -375v-28q-270 -179 -582 -371l-24 14q77 216 104 324q-36 -3 -106.5 -10t-130 -11t-115.5 -4h-178q-57 0 -117.5 4t-130.5 11t-104 10q25 -108 102 -324l-22 -14q-273 167 -582 371v28q338 224 582 375l22 -16q-78 -222 -102 -324
q23 1 149.5 12t202.5 11h178q73 0 199 -11t153 -12q-26 102 -104 324z" />
    <glyph glyph-name="arrowupdn" unicode="&#x2195;" horiz-adv-x="1015" 
d="M557 408q126 31 324 104l16 -23q-42 -68 -93.5 -146t-89 -134t-98.5 -147t-94 -140h-30q-33 49 -94 140t-98.5 147t-89 134t-93.5 146l16 23q228 -80 326 -104q-3 30 -9.5 85t-10 99.5t-3.5 87.5q0 42 3.5 84t11.5 105t10 83q-99 -22 -326 -102l-16 22q70 112 375 568h30
q305 -456 375 -568l-16 -22q-212 76 -326 102q3 -30 9.5 -85.5t10 -100t3.5 -86.5t-3.5 -86.5t-10 -100t-9.5 -85.5z" />
    <glyph glyph-name="uni2196" unicode="&#x2196;" horiz-adv-x="1370" 
d="M104 1145l21 20q375 -74 678 -143l4 -27q-232 -111 -305 -155q22 -19 84.5 -71.5t109 -93.5t88.5 -83l531 -516l-103 -103l-530 519q-40 39 -79.5 83t-95 110.5t-71.5 84.5q-57 -89 -157 -301l-27 6q-59 243 -148 670z" />
    <glyph glyph-name="uni2197" unicode="&#x2197;" horiz-adv-x="1370" 
d="M1245 1165l21 -20q-89 -427 -148 -670l-26 -6q-97 206 -158 301q-16 -18 -71.5 -84.5t-95 -110.5t-79.5 -83l-530 -519l-103 103l531 516q42 42 88.5 83t109 93.5t84.5 71.5q-73 44 -305 155l4 27q303 69 678 143z" />
    <glyph glyph-name="uni2198" unicode="&#x2198;" horiz-adv-x="1370" 
d="M1266 -10l-21 -21q-343 67 -678 144l-4 26q223 107 305 156q-22 19 -84.5 71.5t-109 93.5t-88.5 83l-531 516l103 102l530 -518q40 -39 79.5 -83t95 -110.5t71.5 -84.5q61 95 158 301l26 -7q60 -249 148 -669z" />
    <glyph glyph-name="uni2199" unicode="&#x2199;" horiz-adv-x="1370" 
d="M125 -31l-21 21q88 420 148 669l27 7q100 -212 157 -301q16 18 71.5 84.5t95 110.5t79.5 83l530 518l103 -102l-531 -516q-42 -42 -88.5 -83t-109 -93.5t-84.5 -71.5q82 -49 305 -156l-4 -26q-335 -77 -678 -144z" />
    <glyph glyph-name="uni21A9" unicode="&#x21a9;" horiz-adv-x="1687" 
d="M664 864l24 -14q-80 -229 -104 -326q38 3 112 10t137.5 11t122.5 4h181q133 0 204.5 67t71.5 172q0 103 -70 170.5t-192 67.5h-184v143h186q187 0 304.5 -109.5t117.5 -271.5q0 -163 -120.5 -272.5t-321.5 -109.5h-177q-59 0 -122 4t-138.5 11t-111.5 9q25 -104 104 -324
l-24 -14q-312 192 -582 371v29q292 194 582 372z" />
    <glyph glyph-name="uni21AA" unicode="&#x21aa;" horiz-adv-x="1687" 
d="M999 850l25 14q290 -178 582 -372v-29q-270 -179 -582 -371l-25 14q82 229 105 324q-35 -2 -111.5 -9t-139.5 -11t-122 -4h-176q-201 0 -321.5 109.5t-120.5 272.5q0 162 117.5 271.5t304.5 109.5h186v-143h-184q-122 0 -192.5 -67.5t-70.5 -170.5q0 -105 72 -172
t205 -67h180q59 0 122.5 -4t138.5 -11t112 -10q-21 88 -105 326z" />
    <glyph glyph-name="uni21BB" unicode="&#x21bb;" horiz-adv-x="1384" 
d="M924 934l63 117q128 -44 215.5 -178t87.5 -306q0 -120 -46.5 -229.5t-126 -189.5t-191 -127.5t-234.5 -47.5q-121 0 -231.5 45.5t-191.5 124t-129 189.5t-48 235q0 157 74.5 275.5t206.5 189.5q-40 34 -238 185l10 26q355 10 643 10l19 -24q-150 -346 -258 -584l-31 -2
q-50 208 -84 311q-184 -151 -184 -372q0 -138 60.5 -245t161.5 -163.5t222 -56.5q189 0 314 130.5t125 321.5q0 120 -54.5 212.5t-154.5 152.5z" />
    <glyph glyph-name="partialdiff" unicode="&#x2202;" horiz-adv-x="1210" 
d="M639 1540q166 0 277 -80.5t161.5 -221t50.5 -337.5q0 -81 -8.5 -164t-29.5 -176t-53 -176t-82.5 -160t-114.5 -132.5t-153.5 -88.5t-194.5 -33q-183 0 -296.5 99.5t-113.5 298.5q0 111 36.5 212.5t102 179t163 123.5t212.5 46q174 0 270 -96h23v43q0 121 -19 211.5
t-61.5 158t-114 102.5t-172.5 35q-87 0 -188 -26l-19 90q134 92 324 92zM516 88q60 0 111 26t88 72.5t66 104t48.5 128t32 137t19.5 138.5q-93 86 -236 86q-160 0 -240.5 -111t-80.5 -307q0 -274 192 -274z" />
    <glyph glyph-name="emptyset" unicode="&#x2205;" horiz-adv-x="1470" 
d="M1303 1319l-152 -219q106 -89 165.5 -217t59.5 -275q0 -135 -52.5 -254.5t-141 -202t-207.5 -130.5t-248 -48q-158 0 -299 72l-147 -215l-97 41l-14 29l149 219q-106 89 -165.5 216.5t-59.5 274.5q0 135 52.5 254.5t141.5 202t208 130.5t249 48q158 0 297 -71l148 215
l98 -41zM274 610q0 -220 138 -358l542 795q-97 51 -217 51q-194 0 -328.5 -134t-134.5 -354zM735 123q126 0 230.5 57t168.5 169.5t64 260.5q0 222 -137 359l-543 -795q97 -51 217 -51z" />
    <glyph glyph-name="Delta" unicode="&#x2206;" horiz-adv-x="1228" 
d="M1186 0h-1145l-14 29l501 1331l136 29l30 -5l506 -1355zM930 174l-340 928l-344 -928h684z" />
    <glyph glyph-name="product" unicode="&#x220f;" horiz-adv-x="1492" 
d="M1423 1257l-155 -34h-8v-1358q-86 -22 -197 -25l-43 23v1372h-543v-1370q-91 -22 -198 -25l-43 23v1380l-166 14v105h1353v-105z" />
    <glyph glyph-name="summation" unicode="&#x2211;" horiz-adv-x="1142" 
d="M887 262l147 -12q8 -62 8 -127q0 -119 -28 -266h-926l-12 75l438 607l-440 757l12 66h930v-6q10 -55 10 -133q0 -88 -14 -181h-144l-34 187l-447 18l-10 -14q77 -113 137 -211l219 -363v-28l-264 -385q-47 -65 -152 -187l11 -16l512 23z" />
    <glyph glyph-name="minus" unicode="&#x2212;" 
d="M129 532v144h999v-144h-999z" />
    <glyph glyph-name="uni2219" unicode="&#x2219;" 
d="M629 879q135 0 206.5 -73t71.5 -204q0 -129 -71.5 -202.5t-206.5 -73.5q-132 0 -204.5 73.5t-72.5 202.5q0 130 72.5 203.5t204.5 73.5z" />
    <glyph glyph-name="radical" unicode="&#x221a;" horiz-adv-x="1232" 
d="M1169 1577l29 -25q-272 -850 -575 -1691l-160 -31l-31 4q-124 264 -225 514l-191 17v100h381q46 -135 154 -381h22q222 648 465 1493h131z" />
    <glyph glyph-name="infinity" unicode="&#x221e;" horiz-adv-x="1843" 
d="M1430 920q92 0 161 -31.5t107 -83.5t56 -110.5t18 -121.5q0 -154 -98.5 -256t-254.5 -102q-159 0 -332 127l-194 141h-21q-43 -56 -86.5 -98.5t-100.5 -82.5t-126 -61.5t-145 -21.5q-74 0 -133.5 21t-97.5 54.5t-64 79.5t-36.5 93.5t-10.5 97.5q0 156 97.5 257.5
t256.5 101.5q156 0 330 -127l194 -142h21q44 56 86.5 98t99.5 82.5t126.5 62.5t146.5 22zM1427 379q80 0 141.5 51.5t61.5 151.5q0 87 -54 142.5t-167 55.5q-191 0 -373 -188l135 -98q80 -59 140 -87t116 -28zM436 358q189 0 373 187l-137 100q-82 60 -141 87.5t-113 27.5
q-81 0 -143 -51t-62 -150q0 -90 54.5 -145.5t168.5 -55.5z" />
    <glyph glyph-name="integral" unicode="&#x222b;" horiz-adv-x="716" 
d="M584 1542q68 0 133 -14v-113q-55 6 -103 6q-97 0 -142.5 -51.5t-45.5 -195.5q0 -111 43.5 -546.5t42.5 -551.5q0 -111 -28.5 -190t-82.5 -122.5t-121 -63t-153 -19.5q-70 0 -127 14v115q43 -7 111 -7q34 1 57 5t48 18.5t40 40t25 70.5t10 108q0 107 -43.5 547t-42.5 557
q1 108 29 186t80 122.5t118 64.5t152 20z" />
    <glyph glyph-name="approxequal" unicode="&#x2248;" 
d="M1063 506l74 -57q-13 -41 -34 -79.5t-53 -79.5t-79.5 -66t-102.5 -25q-43 0 -90.5 18t-152.5 72q-104 51 -256 137l-172 -170l-74 57q14 42 35 81.5t53.5 79.5t79 64.5t100.5 24.5q42 0 91.5 -17.5t152.5 -72.5q50 -25 143.5 -74.5t114.5 -60.5zM1063 940l74 -57
q-13 -41 -34 -79.5t-53 -79.5t-79.5 -66t-102.5 -25q-43 0 -90.5 18t-152.5 72q-104 51 -256 137l-172 -170l-74 58q14 42 35 81t53.5 79t79 64.5t100.5 24.5q42 0 91.5 -17.5t152.5 -72.5q50 -25 143.5 -74.5t114.5 -60.5z" />
    <glyph glyph-name="notequal" unicode="&#x2260;" 
d="M629 471h501v-143h-591l-189 -303l-98 47l-16 26l143 230h-248v143h336l166 266h-502v144h592l186 299l99 -47l16 -27l-141 -225h247v-144h-335z" />
    <glyph glyph-name="lessequal" unicode="&#x2264;" 
d="M403 698v-22l625 -287l-57 -131l-789 338v182l789 336l57 -129zM156 0v143h897v-143h-897z" />
    <glyph glyph-name="greaterequal" unicode="&#x2265;" 
d="M1071 596l-788 -338l-58 131l625 287v22l-625 287l58 129l788 -336v-182zM203 0v143h897v-143h-897z" />
    <glyph glyph-name="dotmath" unicode="&#x22c5;" 
d="M651 748q45 0 78 -11q43 -58 43 -127q0 -71 -43 -139h-205l-37 242q72 35 164 35z" />
    <glyph glyph-name="uni24EA" unicode="&#x24ea;" horiz-adv-x="1601" 
d="M801 1389q145 0 277.5 -56t228.5 -151t152.5 -226.5t56.5 -275.5t-56.5 -275t-152.5 -225.5t-228 -150.5t-278 -56t-278 56t-228 150.5t-152.5 225.5t-56.5 275t56.5 275.5t152.5 226.5t228.5 151t277.5 56zM801 1278q-123 0 -233.5 -48t-189 -129t-124 -191t-45.5 -230
t45.5 -229.5t124 -190t189 -128.5t233.5 -48t233.5 48t189 128.5t124 190t45.5 229.5t-45.5 230t-124 191t-189 129t-233.5 48zM813 1083q158 0 241 -108t83 -281q0 -190 -94 -302.5t-255 -112.5q-159 0 -242 109t-83 284q0 188 94.5 299.5t255.5 111.5zM801 993
q-77 0 -114.5 -72.5t-37.5 -236.5q0 -167 37.5 -241t114.5 -74q76 0 113.5 74.5t37.5 240.5q0 163 -37.5 236t-113.5 73z" />
    <glyph glyph-name="uni24FF" unicode="&#x24ff;" horiz-adv-x="1601" 
d="M801 1389q145 0 277.5 -56t228.5 -151t152.5 -226.5t56.5 -275.5t-56.5 -275t-152.5 -225.5t-228 -150.5t-278 -56t-278 56t-228 150.5t-152.5 225.5t-56.5 275t56.5 275.5t152.5 226.5t228.5 151t277.5 56zM813 1083q-161 0 -255.5 -111.5t-94.5 -299.5q0 -175 83 -284
t242 -109q161 0 255 112.5t94 302.5q0 173 -83 281t-241 108zM801 993q76 0 113.5 -73t37.5 -236q0 -166 -37.5 -240.5t-113.5 -74.5q-77 0 -114.5 74t-37.5 241q0 164 37.5 236.5t114.5 72.5z" />
    <glyph glyph-name="filledbox" unicode="&#x25a0;" horiz-adv-x="1683" 
d="M211 57v1250h1259v-1250h-1259z" />
    <glyph glyph-name="H22073" unicode="&#x25a1;" horiz-adv-x="1683" 
d="M211 57v1250h1259v-1250h-1259zM379 211h926v942h-926v-942z" />
    <glyph glyph-name="H18543" unicode="&#x25aa;" horiz-adv-x="1128" 
d="M170 174v778h786v-778h-786z" />
    <glyph glyph-name="H18551" unicode="&#x25ab;" horiz-adv-x="1128" 
d="M170 174v778h786v-778h-786zM328 317h475v492h-475v-492z" />
    <glyph glyph-name="triagup" unicode="&#x25b2;" horiz-adv-x="1638" 
d="M1550 123h-1458l-10 29l727 1239h29l721 -1239z" />
    <glyph glyph-name="uni25B3" unicode="&#x25b3;" horiz-adv-x="1638" 
d="M1550 123h-1458l-10 29l727 1239h29l721 -1239zM336 268h967l-482 832z" />
    <glyph glyph-name="uni25B4" unicode="&#x25b4;" 
d="M1169 168h-1077l-10 29l536 856h29l533 -856z" />
    <glyph glyph-name="uni25B5" unicode="&#x25b5;" 
d="M1169 168h-1077l-10 29l536 856h29l533 -856zM322 305h616l-307 502z" />
    <glyph glyph-name="uni25B6" unicode="&#x25b6;" horiz-adv-x="1406" 
d="M1325 664l-1085 -691l-29 11v1394l29 11l1085 -697v-28z" />
    <glyph glyph-name="uni25B7" unicode="&#x25b7;" horiz-adv-x="1406" 
d="M1325 664l-1085 -691l-29 11v1394l29 11l1085 -697v-28zM365 225l712 453l-712 457v-910z" />
    <glyph glyph-name="uni25B8" unicode="&#x25b8;" horiz-adv-x="1103" 
d="M1022 586l-823 -529l-29 11v1069l29 10l823 -533v-28z" />
    <glyph glyph-name="uni25B9" unicode="&#x25b9;" horiz-adv-x="1103" 
d="M1022 586l-823 -529l-29 11v1069l29 10l823 -533v-28zM322 307l456 293l-456 295v-588z" />
    <glyph glyph-name="triagdn" unicode="&#x25bc;" horiz-adv-x="1638" 
d="M92 1223h1458l9 -29l-721 -1239h-29l-727 1239z" />
    <glyph glyph-name="uni25BD" unicode="&#x25bd;" horiz-adv-x="1638" 
d="M92 1235h1458l9 -29l-721 -1239h-29l-727 1239zM1303 1090h-967l485 -832z" />
    <glyph glyph-name="uni25BE" unicode="&#x25be;" 
d="M92 1028h1077l11 -29l-533 -856h-29l-536 856z" />
    <glyph glyph-name="uni25BF" unicode="&#x25bf;" 
d="M92 1028h1077l11 -29l-533 -856h-29l-536 856zM938 891h-616l309 -502z" />
    <glyph glyph-name="uni25C0" unicode="&#x25c0;" horiz-adv-x="1406" 
d="M1167 -27l-1085 691v28l1085 697l29 -11v-1394z" />
    <glyph glyph-name="uni25C1" unicode="&#x25c1;" horiz-adv-x="1435" 
d="M1167 -27l-1085 691v28l1085 697l29 -11v-1394zM330 678l712 -453v910z" />
    <glyph glyph-name="uni25C2" unicode="&#x25c2;" horiz-adv-x="1103" 
d="M905 57l-823 529v28l823 533l29 -10v-1069z" />
    <glyph glyph-name="uni25C3" unicode="&#x25c3;" horiz-adv-x="1103" 
d="M905 57l-823 529v28l823 533l29 -10v-1069zM326 600l456 -293v588z" />
    <glyph glyph-name="lozenge" unicode="&#x25ca;" horiz-adv-x="1284" 
d="M1202 655l-543 -698h-28l-549 705v28l543 699h30l547 -705v-29zM287 686l368 -473l344 442l-368 475z" />
    <glyph glyph-name="circle" unicode="&#x25cb;" horiz-adv-x="1601" 
d="M805 1389q143 0 274 -56t227 -150.5t153 -224.5t57 -272q0 -190 -96.5 -354.5t-260.5 -261.5t-354 -97q-142 0 -275 57.5t-230 153t-155.5 227t-58.5 273.5q0 114 37 221.5t104.5 194t156 152t197.5 101.5t224 36zM805 1233q-152 0 -278.5 -72t-199.5 -198t-73 -279
q0 -152 72 -279.5t199 -202.5t280 -75q152 0 277.5 75t195.5 202.5t70 279.5q0 153 -70.5 278.5t-195 198t-277.5 72.5z" />
    <glyph glyph-name="H18533" unicode="&#x25cf;" horiz-adv-x="1601" 
d="M805 1389q142 0 273.5 -56t227.5 -150.5t153 -224t57 -270.5q0 -114 -36.5 -222t-103 -196.5t-154 -155.5t-195.5 -104t-222 -37q-142 0 -274.5 58t-230 154t-156 228t-58.5 273t58.5 271.5t155.5 225t229.5 150.5t275.5 56z" />
    <glyph glyph-name="uni2605" unicode="&#x2605;" horiz-adv-x="1634" 
d="M1548 858l8 -31l-438 -319l160 -516l-25 -17l-438 322l-438 -324l-25 19l162 520l-436 315l8 31l545 10l170 510h30l175 -514z" />
    <glyph glyph-name="uni2606" unicode="&#x2606;" horiz-adv-x="1634" 
d="M1548 858l8 -31l-438 -317l160 -518l-25 -17l-438 322l-438 -324l-25 19l162 520l-436 315l8 31l545 10l170 510h30l175 -514zM465 723l217 -158l-78 -248l211 158l213 -158l-78 248l219 158l-268 2l-84 248l-82 -248z" />
    <glyph glyph-name="uni261A" unicode="&#x261a;" horiz-adv-x="2318" 
d="M1880 0l-25 215v639l25 170l365 -20v-1004h-365zM954 1024h244l576 -152v-679q-106 -125 -306 -125q-86 0 -196 24q-140 -133 -209 -176q-95 0 -163 56t-77 134q-166 65 -166 195v2q-131 63 -131 182q0 21 4 37l9.5 9.5t38 27.5t75 44t128 57.5t190.5 68.5l-8 25
q-617 -97 -766 -97q-68 30 -110 73t-42 120q0 10 0.5 19t3 19.5t4 18t5.5 20t5.5 18t7 21t7.5 21.5q512 37 876 37zM367 954l-43 7q-14 -60 -59 -77.5t-150 -17.5l-2 -26q130 -40 192 -1t62 115zM1067 512l-12 25q-207 -54 -340 -177l57 -45q17 20 39.5 39.5t57 41.5
t57.5 35.5t71.5 41t69.5 39.5zM1190 309l-12 25q-55 -14 -104 -34t-76.5 -34.5t-58.5 -39.5t-37.5 -31t-27.5 -27l60 -39q61 73 256 180z" />
    <glyph glyph-name="uni261B" unicode="&#x261b;" horiz-adv-x="2318" 
d="M463 215l-25 -215h-364v1004l364 20l25 -170v-639zM1120 1024h244q162 0 381.5 -9t357.5 -19l138 -9q32 -94 32 -137q0 -41 -13 -73.5t-37 -55t-47 -36.5t-54 -28q-149 0 -766 97l-8 -25q106 -34 190 -68t128.5 -58t74 -43t38.5 -28l9 -10q4 -16 4 -37q0 -119 -131 -182
v-2q0 -130 -166 -195q-9 -78 -77 -134t-163 -56q-66 41 -208 176q-110 -24 -197 -24q-199 0 -305 125v679zM1995 961l-43 -7q0 -76 62 -115t192 1l-2 26q-105 0 -150 17.5t-59 77.5zM1264 537l-13 -25q21 -12 69.5 -39.5t71.5 -41t57.5 -35.5t57 -41.5t39.5 -39.5l58 45
q-133 123 -340 177zM1141 334l-13 -25q195 -107 256 -180l60 39q-56 56 -105 86q-83 51 -198 80z" />
    <glyph glyph-name="uni261C" unicode="&#x261c;" horiz-adv-x="2318" 
d="M80 999l1118 33l649 -178l21 178l377 -20v-107h-256q-13 -216 -13 -393q0 -169 13 -385l256 -27v-100h-377l-23 221h-22q-129 -153 -350 -153q-105 0 -201 28q-122 -129 -209 -180q-103 0 -174.5 58t-79.5 141q-164 63 -164 190v6q-135 60 -135 172q0 45 8 76
q94 60 262 119l-6 20q-447 -75 -528 -82q-28 -2 -49 -2q-31 15 -55 32t-47.5 43t-36.5 63.5t-13 83.5q0 76 35 163zM956 788l27 -104q-253 -118 -326 -209q0 -36 23 -74q140 98 362 156l39 -78q-10 -6 -39 -21.5t-40 -21.5t-35.5 -19.5t-36 -21t-31.5 -19.5t-32 -21t-27 -20
t-27 -22t-22 -22q0 -48 34 -82q28 21 66.5 45t112.5 58t149 55l39 -78q-186 -105 -242 -176q0 -57 54 -103q39 43 114 102.5t156 104.5q110 -27 192 -27q231 0 381 177v376l-653 172h-227q-374 -5 -774 -30q-7 -35 -7 -56q0 -48 37 -94q47 4 231.5 21t297.5 24.5t204 7.5z
" />
    <glyph glyph-name="uni261D" unicode="&#x261d;" horiz-adv-x="1357" 
d="M1217 -147v-263h-103l-24 162q-202 12 -390 12q-196 0 -399 -12v-162h-106l-21 263l172 20l-172 535v241q0 309 33 824q90 32 166 32q88 0 139 -41.5t84 -107.5q0 -25 -3.5 -56.5t-13 -88t-17.5 -99.5t-27.5 -145t-32.5 -172l22 -4q36 89 71.5 156.5t56 95.5t32.5 38
q20 4 45 4q113 0 172 -131h8q126 0 191 -161q84 -8 142 -79t58 -173q-26 -44 -78.5 -100.5t-105.5 -90.5q31 -91 31 -178q0 -86 -32.5 -142t-121.5 -132v-23zM457 -127h391q100 89 138 150t38 147q0 61 -27 162q46 81 106 155t105 115q-47 55 -106 55q-69 -53 -178 -245
l-78 41q45 163 178 315q-51 47 -100 47q-16 -15 -33.5 -36.5t-30.5 -39t-32.5 -50.5t-29 -50t-33 -59t-32.5 -58l-78 39q59 219 174 348q-46 37 -92 37q-19 -15 -39.5 -41t-44 -64t-41 -68t-45 -80.5t-41.5 -74.5l-106 29q0 102 25 362t30 339q-44 38 -96 38q-29 0 -53 -6
q-33 -426 -33 -745v-225z" />
    <glyph glyph-name="uni261E" unicode="&#x261e;" horiz-adv-x="2318" 
d="M1120 1032l1118 -33q35 -88 35 -163q0 -149 -151 -222q-75 0 -497 71q-18 2 -27.5 4t-25 4.5t-28.5 4.5l-6 -20q168 -59 262 -119q8 -31 8 -76q0 -112 -135 -172v-6q0 -127 -164 -190q-8 -83 -79.5 -141t-174.5 -58q-84 49 -208 180q-96 -28 -201 -28q-221 0 -350 153
h-23l-22 -221h-377v100l256 27q12 200 12 385q0 194 -12 393h-256v107l377 20l20 -178zM1335 684l27 104q91 0 204 -7.5t297.5 -24.5t231.5 -21q37 46 37 94q0 26 -6 56q-400 25 -774 30h-228l-653 -172v-376q150 -177 381 -177q82 0 192 27q81 -45 156.5 -105t114.5 -102
q53 45 53 103q-56 71 -242 176l39 78q75 -21 149 -55t112.5 -58t66.5 -45q35 35 35 82q-12 12 -26.5 25t-27.5 23.5t-34.5 24t-34.5 21.5t-40 23.5t-39.5 22.5t-45 24.5t-43.5 23.5l39 78q222 -58 362 -156q23 38 23 74q-73 91 -326 209z" />
    <glyph glyph-name="uni261F" unicode="&#x261f;" horiz-adv-x="1357" 
d="M1217 1479v-262l-224 -23v-23q89 -76 121.5 -132t32.5 -142q0 -87 -31 -178q53 -34 105.5 -90.5t78.5 -100.5q0 -102 -58 -173t-142 -79q-65 -161 -191 -161h-8q-59 -131 -172 -131q-25 0 -45 4q-12 10 -32.5 38.5t-56 96t-71.5 156.5l-22 -5q13 -70 32.5 -172t27.5 -145
t17.5 -99.5t13 -88t3.5 -56.5q-33 -66 -84 -107.5t-139 -41.5q-73 0 -166 33q-33 515 -33 823v242l172 534l-172 21l21 262h106v-162q203 -12 399 -12q188 0 390 12l24 162h103zM848 1196h-391l-164 -537v-225q0 -319 33 -745q24 -6 53 -6q52 0 96 38q-5 79 -30 339t-25 362
l106 29q14 -24 41.5 -74.5t45 -80.5t41 -68t44 -64t39.5 -41q46 0 92 37q-115 129 -174 348l78 39q9 -16 32.5 -58t33 -59t29 -50t32.5 -50.5t30.5 -39t33.5 -36.5q49 0 100 47q-133 152 -178 315l78 41q109 -192 178 -245q59 0 106 55q-45 41 -105 115t-106 155
q27 101 27 162q0 86 -38 147t-138 150z" />
    <glyph glyph-name="uni2661" unicode="&#x2661;" horiz-adv-x="1611" 
d="M1169 1051q154 0 258.5 -101t104.5 -278q0 -90 -30 -165t-81 -129.5t-113.5 -100.5t-134 -87t-136 -78.5t-124.5 -86t-96 -99.5h-20q-36 51 -96 99.5t-124.5 86t-136 78.5t-134 87t-113.5 100.5t-81 129.5t-30 165q0 177 104 278t258 101q134 0 229 -83.5t124 -230.5h20
q29 147 123.5 230.5t228.5 83.5zM1153 922q-112 0 -190 -92t-113 -234h-88q-35 142 -113 234t-190 92q-96 0 -153.5 -68.5t-57.5 -181.5q0 -76 29 -139t74.5 -105.5t106.5 -85.5t119 -77t119 -82.5t99 -98.5h22q39 50 100 98.5t119 82.5t119 77t106 85.5t74 105.5t29 139
q0 113 -57.5 181.5t-153.5 68.5z" />
    <glyph glyph-name="heart" unicode="&#x2665;" horiz-adv-x="1613" 
d="M1171 1051q97 0 178 -42t132 -130t51 -207q0 -91 -30 -166.5t-81 -129.5t-114 -100t-134.5 -86.5t-136 -78t-124.5 -85.5t-95 -100h-20q-35 52 -95 100t-124.5 85.5t-136 78t-134.5 86.5t-114 100t-81 129.5t-30 166.5q0 178 104.5 278.5t257.5 100.5q132 0 227.5 -82
t125.5 -232h20q32 151 126.5 232.5t227.5 81.5z" />
    <glyph glyph-name="uni275B" unicode="&#x275b;" horiz-adv-x="907" 
d="M766 1389l41 -95q-196 -92 -306 -203t-110 -251q0 -39 2 -62l406 -84l14 -669q-140 -52 -293 -52q-72 0 -160.5 14t-150.5 42q-27 43 -44 75.5t-41.5 91.5t-37 132t-12.5 155q0 118 28 232t85 220t138.5 194t194.5 155.5t246 104.5z" />
    <glyph glyph-name="uni275C" unicode="&#x275c;" horiz-adv-x="907" 
d="M387 1389q74 0 161.5 -14t149.5 -42q27 -43 44 -75.5t41.5 -92t37.5 -132t13 -154.5q0 -148 -45 -289.5t-130 -263.5t-218.5 -215t-299.5 -138l-41 95q196 92 306 203t110 251q0 39 -2 62l-405 84l-15 669q140 52 293 52z" />
    <glyph glyph-name="uni275D" unicode="&#x275d;" horiz-adv-x="1783" 
d="M1642 1389l41 -95q-128 -60 -216 -124t-143.5 -149t-55.5 -181q0 -39 2 -62l405 -84l15 -669q-140 -52 -293 -52q-73 0 -161.5 14t-150.5 42q-27 43 -44 75.5t-41.5 91.5t-37 132t-12.5 155q0 118 28 232t85 220t138.5 194t194.5 155.5t246 104.5zM766 1389l41 -95
q-196 -92 -306 -203t-110 -251q0 -39 2 -62l406 -84l14 -669q-140 -52 -293 -52q-72 0 -160.5 14t-150.5 42q-27 43 -44 75.5t-41.5 91.5t-37 132t-12.5 155q0 118 28 232t85 220t138.5 194t194.5 155.5t246 104.5z" />
    <glyph glyph-name="uni275E" unicode="&#x275e;" horiz-adv-x="1783" 
d="M1264 1389q74 0 161.5 -14t149.5 -42q27 -43 44 -75.5t41.5 -91.5t37 -132t12.5 -155q0 -118 -28 -232.5t-85 -220t-138.5 -193.5t-194.5 -156t-246 -104l-41 95q196 92 306 203t110 251q0 39 -2 62l-406 84l-14 669q140 52 293 52zM387 1389q74 0 161.5 -14t149.5 -42
q27 -43 44 -75.5t41.5 -92t37.5 -132t13 -154.5q0 -148 -45 -289.5t-130 -263.5t-218.5 -215t-299.5 -138l-41 95q196 92 306 203t110 251q0 39 -2 62l-405 84l-15 669q140 52 293 52z" />
    <glyph glyph-name="uni275F" unicode="&#x275f;" horiz-adv-x="907" 
d="M387 1389q74 0 161.5 -14t149.5 -42q27 -43 44 -75.5t41.5 -92t37.5 -132t13 -154.5q0 -148 -45 -289.5t-130 -263.5t-218.5 -215t-299.5 -138l-41 95q196 92 306 203t110 251q0 39 -2 62l-405 84l-15 669q140 52 293 52z" />
    <glyph glyph-name="uni2760" unicode="&#x2760;" horiz-adv-x="1783" 
d="M1264 1389q74 0 161.5 -14t149.5 -42q27 -43 44 -75.5t41.5 -91.5t37 -132t12.5 -155q0 -118 -28 -232.5t-85 -220t-138.5 -193.5t-194.5 -156t-246 -104l-41 95q196 92 306 203t110 251q0 39 -2 62l-406 84l-14 669q140 52 293 52zM387 1389q74 0 161.5 -14t149.5 -42
q27 -43 44 -75.5t41.5 -92t37.5 -132t13 -154.5q0 -148 -45 -289.5t-130 -263.5t-218.5 -215t-299.5 -138l-41 95q196 92 306 203t110 251q0 39 -2 62l-405 84l-15 669q140 52 293 52z" />
    <glyph glyph-name="uni2766" unicode="&#x2766;" horiz-adv-x="2064" 
d="M1409 1257q174 0 303 -77.5t193.5 -206.5t64.5 -289q0 -259 -162.5 -441t-427.5 -227l-24 84q448 184 448 564q0 209 -123 339t-344 130q-76 0 -217 -29q-20 -152 -186 -270l-49 38q36 42 55 66.5t38.5 62.5t25.5 76q-86 -14 -156 -14q-151 0 -228 56.5t-77 148.5
t71.5 149.5t182.5 57.5q133 0 220.5 -77.5t102.5 -197.5q161 57 289 57zM705 1253q0 -52 47.5 -80t124.5 -28q65 0 124 18q-11 82 -68.5 131t-127.5 49q-49 0 -74.5 -25t-25.5 -65zM1573 600q0 -90 -35 -173.5t-93 -148t-134.5 -117.5t-158 -87.5t-165.5 -53.5
q3 -43 21 -186l-33 -18q-167 0 -329.5 58t-286.5 155.5t-200.5 237t-76.5 292.5q0 81 21.5 149t59.5 117t89.5 83t110.5 50.5t124 16.5q161 0 278.5 -95t149.5 -251h23q40 120 130.5 201t213.5 81q126 0 208.5 -83t82.5 -228zM256 543q0 -92 39.5 -182.5t104 -162
t144 -128.5t163 -89t157.5 -36q-52 332 -10 600q-53 131 -136.5 208.5t-197.5 77.5q-116 0 -190 -79.5t-74 -208.5zM987 549q-26 -174 -10 -408q80 20 153.5 58.5t134 93t96.5 127.5t36 153q0 94 -46.5 144.5t-117.5 50.5q-78 0 -136.5 -58.5t-109.5 -160.5z" />
    <glyph glyph-name="uni2776" unicode="&#x2776;" horiz-adv-x="1601" 
d="M801 1389q145 0 277.5 -56t228.5 -151t152.5 -226.5t56.5 -275.5t-56.5 -275t-152.5 -225.5t-228 -150.5t-278 -56t-278 56t-228 150.5t-152.5 225.5t-56.5 275t56.5 275.5t152.5 226.5t228.5 151t277.5 56zM901 1108l-92 6q-43 -58 -112 -85.5t-138 -31.5v-98
q103 0 166 16v-532l-162 -25v-86h498v86l-160 11v739z" />
    <glyph glyph-name="uni2777" unicode="&#x2777;" horiz-adv-x="1601" 
d="M801 1389q145 0 277.5 -56t228.5 -151t152.5 -226.5t56.5 -275.5t-56.5 -275t-152.5 -225.5t-228 -150.5t-278 -56t-278 56t-228 150.5t-152.5 225.5t-56.5 275t56.5 275.5t152.5 226.5t228.5 151t277.5 56zM795 1114q-126 0 -211.5 -53.5t-85.5 -132.5q0 -58 49 -94h131
l22 176q38 12 70 12q56 0 88.5 -34t32.5 -103q0 -30 -7 -61t-17.5 -58t-30.5 -57.5t-36.5 -53t-46 -53t-48 -49t-54 -49t-54 -45.5t-56.5 -45.5t-52 -42.5l11 -99h610q10 44 10 107q0 59 -12 108l-107 2l-12 -81l-170 -13q-53 -4 -174 -22l-6 18q92 63 150 106t121.5 96.5
t98.5 97t58 93.5t23 99q0 100 -79.5 165.5t-215.5 65.5z" />
    </font>
</defs>
</svg>
