<?xml version="1.0" standalone="no"?>
<!DOCTYPE svg PUBLIC "-//W3C//DTD SVG 1.1//EN" "http://www.w3.org/Graphics/SVG/1.1/DTD/svg11.dtd" >
<svg xmlns="http://www.w3.org/2000/svg" xmlns:xlink="http://www.w3.org/1999/xlink" version="1.1">
<metadata>
Created by FontForge 20170731 at Wed Jan 19 21:51:02 2022
 By Aleksey,,,
2014 published by FontShop International GmbH
</metadata>
<defs>
<font id="FranziskaPro-ThinItalic" horiz-adv-x="1259" >
  <font-face 
    font-family="FranziskaPro-ThinItalic"
    font-weight="250"
    font-style="italic"
    font-stretch="normal"
    units-per-em="2048"
    panose-1="2 1 4 4 3 1 1 1 1 2"
    ascent="1612"
    descent="-436"
    x-height="1020"
    cap-height="1362"
    bbox="-946 -575 2320 1966"
    underline-thickness="51"
    underline-position="-255"
    slope="-6.5"
    unicode-range="U+000D-1F44E"
  />
<missing-glyph horiz-adv-x="1406" 
d="M1243 1362l-98 -1362h-942l98 1362h942zM1182 1307h-797l709 -1198zM266 55h797l-709 1194z" />
    <glyph glyph-name="T_h" unicode="Th" horiz-adv-x="2091" 
d="M2034 166l16 -27q-45 -66 -114.5 -109.5t-133.5 -43.5q-37 0 -53 16t-16 51q0 54 48 361.5t48 398.5q0 84 -34.5 127t-117.5 43q-57 0 -112 -16q-90 -94 -161.5 -281.5t-219.5 -683.5q-19 -8 -64 -12l-18 14l133 1382q-86 -83 -315 -83q-40 0 -128 4.5t-116 5.5
l-92 -1264l217 -6v-20l-4 -23h-512v41q114 17 229 20l92 1254l-330 10l-47 -256l-43 2q-4 54 -4 96q0 93 31 217l23 2l411 -24h266q209 0 326 65l10 107q30 10 54 10l18 -14l-70 -658q-43 -451 -92 -778l15 -2q42 153 70.5 252t61 203.5t57 166.5t54.5 124t56.5 94t61 58.5
t70.5 36t81 9.5q210 0 210 -221q0 -91 -47.5 -397t-52.5 -379q114 0 238 127z" />
    <glyph glyph-name="T_k" unicode="Tk" horiz-adv-x="2058" 
d="M1970 162l17 -27q-48 -65 -112 -108t-128 -43q-41 0 -68.5 30t-58.5 117q-86 233 -86 297l82 37q237 139 237 344q0 174 -165 174q-54 0 -113 -18q-93 -95 -170.5 -290.5t-220.5 -674.5q-19 -8 -64 -12l-18 14l133 1384q-86 -83 -315 -83q-40 0 -128 4.5t-116 5.5
l-92 -1264l217 -6v-20l-4 -23h-512v41q114 17 229 20l92 1254l-330 10l-47 -256l-43 2q-4 54 -4 96q0 93 31 217l23 2l411 -24h266q209 0 326 65l10 107q30 10 54 10l18 -14l-70 -658q-43 -456 -92 -780l15 -2q36 132 63 226.5t56 188.5t53 157t50 123.5t51 97.5t52.5 69
t58 48t64.5 25t74 9q111 0 171 -58t60 -171q0 -138 -86.5 -233.5t-249.5 -168.5q86 -268 148 -364q105 -3 231 123z" />
    <glyph glyph-name="T_l" unicode="Tl" horiz-adv-x="1468" 
d="M1423 162l17 -27q-45 -64 -118 -107.5t-138 -43.5q-40 0 -58 17.5t-18 57.5q0 42 18.5 229t52 517t56.5 581q-86 -83 -315 -83q-40 0 -128 4.5t-116 5.5l-92 -1264l217 -6v-20l-4 -23h-512v41q114 17 229 20l92 1254l-330 10l-47 -256l-43 2q-4 54 -4 96q0 93 31 217
l23 2l411 -24h266q209 0 326 65l10 107q19 6 54 10l18 -14q-23 -228 -64.5 -624t-60 -591.5t-20.5 -277.5q122 0 247 125z" />
    <glyph glyph-name="Tbar_h" unicode="&#x166;h" horiz-adv-x="2091" 
d="M2034 166l16 -27q-45 -66 -114.5 -109.5t-133.5 -43.5q-37 0 -53 16t-16 51q0 54 48 361.5t48 398.5q0 84 -34.5 127t-117.5 43q-57 0 -112 -16q-90 -94 -161.5 -281.5t-219.5 -683.5q-19 -8 -64 -12l-18 14l133 1382q-86 -83 -315 -83q-40 0 -128 4.5t-116 5.5l-49 -684
h311v-23l-6 -31h-309l-39 -526l217 -6v-20l-4 -23h-512v41q114 17 229 20l37 514h-301v23l6 31h299l51 686l-330 10l-47 -256l-43 2q-4 54 -4 96q0 93 31 217l23 2l411 -24h266q209 0 326 65l10 107q30 10 54 10l18 -14l-70 -658q-43 -451 -92 -778l15 -2q42 153 70.5 252
t61 203.5t57 166.5t54.5 124t56.5 94t61 58.5t70.5 36t81 9.5q210 0 210 -221q0 -91 -47.5 -397t-52.5 -379q114 0 238 127z" />
    <glyph glyph-name="Tcaron_h" unicode="&#x164;h" horiz-adv-x="2091" 
d="M2034 166l16 -27q-45 -66 -114.5 -109.5t-133.5 -43.5q-37 0 -53 16t-16 51q0 54 48 361.5t48 398.5q0 84 -34.5 127t-117.5 43q-57 0 -112 -16q-90 -94 -161.5 -281.5t-219.5 -683.5q-19 -8 -64 -12l-18 14l133 1382q-86 -83 -315 -83q-40 0 -128 4.5t-116 5.5
l-92 -1264l217 -6v-20l-4 -23h-512v41q114 17 229 20l92 1254l-330 10l-47 -256l-43 2q-4 54 -4 96q0 93 31 217l23 2l411 -24h266q209 0 326 65l10 107q30 10 54 10l18 -14l-70 -658q-43 -451 -92 -778l15 -2q42 153 70.5 252t61 203.5t57 166.5t54.5 124t56.5 94t61 58.5
t70.5 36t81 9.5q210 0 210 -221q0 -91 -47.5 -397t-52.5 -379q114 0 238 127zM662 1552h10l219 252h51l-262 -321h-62l-180 299l51 30z" />
    <glyph glyph-name="f_b" unicode="fb" horiz-adv-x="1634" 
d="M1292 1034q122 0 175 -77.5t53 -249.5q0 -84 -11.5 -167t-34.5 -167t-62 -155t-90.5 -126.5t-124.5 -87t-159 -31.5q-151 0 -311 74l135 1407q-87 33 -196 33q-88 0 -174 -25q-70 -64 -105.5 -163.5t-50.5 -284.5l-2 -39h264v-25l-8 -26h-260l-64 -854
q-8 -110 -18 -183.5t-28 -139.5t-44 -103.5t-65.5 -58.5t-94.5 -21q-77 0 -158.5 36t-127.5 95l20 31q175 -127 356 -101q40 54 59.5 147t31.5 275l63 873l-168 10v39q69 10 172 14l2 33q8 122 32 215t69 164.5t117.5 109t170.5 37.5q131 0 217 -45q24 34 52 45l16 -14
l-63 -633q-38 -355 -91 -690l15 -2q51 175 87 287.5t75.5 214t72.5 158t73.5 98.5t83.5 57.5t99 15.5zM1217 59q106 90 167.5 269t61.5 379q0 142 -36.5 209t-125.5 67q-49 0 -108 -20q-82 -83 -159.5 -266t-217.5 -619q135 -53 248 -53q93 0 170 34z" />
    <glyph glyph-name="f_f" unicode="ff" horiz-adv-x="1118" 
d="M1010 1440q-35 -45 -58.5 -86.5t-47.5 -130.5t-32 -209l-2 -39h279v-25l-8 -26h-275l-63 -854q-18 -246 -95 -362t-245 -116q-147 0 -266 89q-55 -117 -181 -117q-77 0 -158.5 36t-127.5 95l20 31q175 -127 356 -101q40 54 59.5 147t31.5 275l63 873l-168 10v39
q74 10 172 14l2 33q20 265 99.5 380t248.5 115q90 0 161.5 -28t142.5 -80q102 139 276 139q150 0 213 -112l-18 -37l-211 96q-82 -5 -168 -49zM463 1438q-106 -118 -127 -424l-2 -39h325l142 6l2 35q14 223 94 354q-80 44 -146 65t-149 21q-81 0 -139 -18zM610 -332
q53 53 83 140.5t40 238.5l64 873l-172 4h-295l-64 -854q-16 -251 -55 -355q137 -67 262 -67q73 0 137 20z" />
    <glyph glyph-name="f_f_b" unicode="ffb" horiz-adv-x="2172" 
d="M1833 1034q120 0 172.5 -77.5t52.5 -249.5q0 -84 -11 -167t-34 -167t-61.5 -155t-90 -126.5t-124.5 -87t-160 -31.5q-74 0 -159.5 21.5t-151.5 52.5l133 1407q-83 33 -195 33q-78 0 -176 -25q-70 -65 -105.5 -164.5t-50.5 -283.5l-2 -39h267v-25l-9 -26h-262l-63 -854
q-18 -246 -95 -362t-245 -116q-147 0 -266 89q-55 -117 -181 -117q-77 0 -158.5 36t-127.5 95l20 31q175 -127 356 -101q40 54 59.5 147t31.5 275l63 873l-168 10v39q74 10 172 14l2 33q20 265 99.5 380t248.5 115q88 0 157.5 -27t139.5 -77q96 135 281 135q131 0 217 -45
q24 34 51 45l17 -14l-64 -633q-27 -268 -86 -690l14 -2q38 130 66.5 222t59 180t55.5 145.5t53.5 110t55 82t59 52t67 31t76.5 8.5zM801 981l2 35q16 228 88 358q-81 42 -144.5 62t-144.5 20t-139 -18q-106 -118 -127 -424l-2 -39h325zM1755 59q106 90 168 269t62 379
q0 141 -36 208.5t-124 67.5q-51 0 -109 -18q-83 -85 -160.5 -268t-218.5 -619q123 -53 248 -53q93 0 170 34zM610 -332q53 53 83 140.5t40 238.5l64 873l-172 4h-295l-64 -854q-16 -251 -55 -355q137 -67 262 -67q73 0 137 20z" />
    <glyph glyph-name="f_f_h" unicode="ffh" horiz-adv-x="2250" 
d="M2193 164l17 -27q-45 -66 -114.5 -109.5t-133.5 -43.5q-38 0 -54 16t-16 51q0 54 48.5 361.5t48.5 398.5q0 84 -35 128t-117 44q-49 0 -111 -16q-91 -93 -163 -280.5t-220 -686.5q-19 -8 -63 -12l-18 14l139 1452q-95 33 -197 33q-78 0 -176 -25q-70 -65 -105.5 -164.5
t-50.5 -283.5l-2 -39h267v-25l-9 -26h-262l-63 -854q-18 -246 -95 -362t-245 -116q-147 0 -266 89q-55 -117 -181 -117q-77 0 -158.5 36t-127.5 95l20 31q175 -127 356 -101q40 54 59.5 147t31.5 275l63 873l-168 10v39q74 10 172 14l2 33q20 265 99.5 380t248.5 115
q88 0 157.5 -27t139.5 -77q96 135 281 135q129 0 219 -45q22 33 49 45l19 -14l-64 -633q-41 -410 -96 -803l14 -2q42 153 70.5 252t61 203.5t57 166.5t54.5 124t56.5 94t61 58.5t70.5 36t81 9.5q106 0 158.5 -57t52.5 -164q0 -90 -47.5 -396.5t-52.5 -379.5q110 0 237 127z
M801 981l2 35q16 228 88 358q-81 42 -144.5 62t-144.5 20t-139 -18q-106 -118 -127 -424l-2 -39h325zM610 -332q53 53 83 140.5t40 238.5l64 873l-172 4h-295l-64 -854q-16 -251 -55 -355q137 -67 262 -67q73 0 137 20z" />
    <glyph glyph-name="f_f_i" unicode="ffi" horiz-adv-x="1601" 
d="M1559 164l16 -27q-47 -66 -115.5 -109.5t-132.5 -43.5q-36 0 -51.5 16t-15.5 51q0 45 18.5 229t42.5 403t29 275q-180 -34 -484 -34l-63 -854q-18 -246 -95 -362t-245 -116q-147 0 -266 89q-55 -117 -181 -117q-77 0 -158.5 36t-127.5 95l20 31q175 -127 356 -101
q40 54 59.5 147t31.5 275l63 873l-168 10v39q74 10 172 14l2 33q20 265 99.5 380t248.5 115q92 0 164.5 -28.5t143.5 -83.5q107 143 292 143q106 0 177 -44.5t98 -104.5l-27 -35l-209 133q-123 0 -229 -47q-29 -37 -47 -64.5t-42.5 -78.5t-40 -123t-22.5 -164l-2 -39
q169 0 265 4q115 14 256 41l30 -27q-10 -102 -33.5 -320.5t-40 -388.5t-20.5 -247q60 0 115 31.5t117 95.5zM463 1438q-106 -118 -127 -424l-2 -39h354q78 8 113 8l2 33q17 222 98 352q-84 45 -149.5 66.5t-149.5 21.5q-81 0 -139 -18zM610 -332q53 53 83 140.5t40 238.5
l64 873l-56 4h-411l-64 -854q-16 -251 -55 -355q137 -67 262 -67q73 0 137 20z" />
    <glyph glyph-name="f_f_j" unicode="ffj" horiz-adv-x="1589" 
d="M1024 1444q-29 -37 -47 -64.5t-42.5 -78.5t-40 -123t-22.5 -164l-2 -39q169 0 265 4q126 15 256 43l30 -27l-96 -948q-9 -87 -17 -146t-21 -118.5t-31 -96t-43.5 -66.5t-60.5 -43t-81 -13q-56 0 -112 20t-89 54l15 30q154 -60 278 -45q38 54 57 143.5t35 264.5l95 927
q-180 -34 -484 -34l-63 -854q-18 -246 -95 -362t-245 -116q-147 0 -266 89q-55 -117 -181 -117q-77 0 -158.5 36t-127.5 95l20 31q175 -127 356 -101q40 54 59.5 147t31.5 275l63 873l-168 10v39q74 10 172 14l2 33q20 265 99.5 380t248.5 115q92 0 164.5 -28.5t143.5 -83.5
q107 143 292 143q106 0 177 -44.5t98 -104.5l-27 -35l-209 133q-123 0 -229 -47zM463 1438q-106 -118 -127 -424l-2 -39h354q78 8 113 8l2 33q17 222 98 352q-84 45 -149.5 66.5t-149.5 21.5q-81 0 -139 -18zM610 -332q53 53 83 140.5t40 238.5l64 873l-56 4h-411l-64 -854
q-16 -251 -55 -355q137 -67 262 -67q73 0 137 20z" />
    <glyph glyph-name="f_f_k" unicode="ffk" horiz-adv-x="2217" 
d="M2130 162l16 -27q-48 -65 -111.5 -108t-127.5 -43q-42 0 -68.5 30t-58.5 117q-29 78 -57.5 170t-28.5 125l82 39q237 139 237 344q0 172 -166 172q-48 0 -114 -16q-92 -95 -170 -291.5t-220 -673.5q-19 -8 -63 -12l-18 14l139 1452q-95 33 -197 33q-78 0 -176 -25
q-70 -65 -105.5 -164.5t-50.5 -283.5l-2 -39h267v-25l-9 -26h-262l-63 -854q-18 -246 -95 -362t-245 -116q-147 0 -266 89q-55 -117 -181 -117q-77 0 -158.5 36t-127.5 95l20 31q175 -127 356 -101q40 54 59.5 147t31.5 275l63 873l-168 10v39q74 10 172 14l2 33
q20 265 99.5 380t248.5 115q88 0 157.5 -27t139.5 -77q96 135 281 135q129 0 219 -45q22 33 49 45l19 -14l-64 -633q-41 -410 -96 -803l14 -2q36 132 63 226.5t56 188.5t53 157t50 123.5t51 97.5t52.5 69t58 48t64.5 25t74 9q112 0 172 -58t60 -171q0 -138 -87.5 -233.5
t-248.5 -165.5q28 -87 42.5 -131t45 -118t59.5 -120q107 0 232 125zM801 981l2 35q16 228 88 358q-81 42 -144.5 62t-144.5 20t-139 -18q-106 -118 -127 -424l-2 -39h325zM610 -332q53 53 83 140.5t40 238.5l64 873l-172 4h-295l-64 -854q-16 -251 -55 -355q137 -67 262 -67
q73 0 137 20z" />
    <glyph glyph-name="f_f_l" unicode="ffl" horiz-adv-x="1626" 
d="M1581 162l16 -27q-45 -64 -118 -107.5t-138 -43.5q-40 0 -57.5 17.5t-17.5 57.5q0 47 19.5 245t57 558.5t60.5 591.5q-95 33 -199 33q-78 0 -176 -25q-70 -65 -105.5 -164.5t-50.5 -283.5l-2 -39h267v-25l-9 -26h-262l-63 -854q-18 -246 -95 -362t-245 -116
q-147 0 -266 89q-55 -117 -181 -117q-77 0 -158.5 36t-127.5 95l20 31q175 -127 356 -101q40 54 59.5 147t31.5 275l63 873l-168 10v39q74 10 172 14l2 33q20 265 99.5 380t248.5 115q88 0 157.5 -27t139.5 -77q96 135 281 135q133 0 219 -45q22 34 51 45l19 -14
q-25 -250 -65.5 -628t-60.5 -580t-22 -283q123 0 248 125zM801 981l2 35q16 228 88 358q-81 42 -144.5 62t-144.5 20t-139 -18q-106 -118 -127 -424l-2 -39h325zM610 -332q53 53 83 140.5t40 238.5l64 873l-172 4h-295l-64 -854q-16 -251 -55 -355q137 -67 262 -67
q73 0 137 20z" />
    <glyph glyph-name="f_h" unicode="fh" horiz-adv-x="1712" 
d="M1655 164l16 -27q-45 -66 -114.5 -109.5t-133.5 -43.5q-37 0 -53 16t-16 51q0 54 48 361.5t48 398.5q0 84 -35 128t-117 44q-48 0 -110 -16q-91 -93 -163 -280.5t-220 -686.5q-19 -8 -64 -12l-18 14l139 1452q-87 33 -196 33q-88 0 -174 -25q-70 -64 -105.5 -163.5
t-50.5 -284.5l-2 -39h264v-25l-8 -26h-260l-64 -854q-8 -110 -18 -183.5t-28 -139.5t-44 -103.5t-65.5 -58.5t-94.5 -21q-77 0 -158.5 36t-127.5 95l20 31q175 -127 356 -101q40 54 59.5 147t31.5 275l63 873l-168 10v39q69 10 172 14l2 33q8 122 32 215t69 164.5t117.5 109
t170.5 37.5q131 0 217 -45q23 33 50 45l18 -14l-63 -633q-39 -383 -97 -803l15 -2q42 153 70.5 252t61 203.5t57 166.5t54.5 124t56.5 94t61 58.5t70.5 36t81 9.5q106 0 158.5 -57t52.5 -164q0 -90 -48 -396t-53 -380q111 0 238 127z" />
    <glyph glyph-name="f_hbar" unicode="f&#x127;" horiz-adv-x="1712" 
d="M1655 164l16 -27q-45 -66 -114.5 -109.5t-133.5 -43.5q-37 0 -53 16t-16 51q0 54 48 361.5t48 398.5q0 84 -35 128t-117 44q-48 0 -110 -16q-91 -93 -163 -280.5t-220 -686.5q-19 -8 -64 -12l-18 14l139 1452q-87 33 -196 33q-88 0 -174 -25q-70 -64 -105.5 -163.5
t-50.5 -284.5l-2 -39h264v-25l-8 -26h-260l-64 -854q-8 -110 -18 -183.5t-28 -139.5t-44 -103.5t-65.5 -58.5t-94.5 -21q-77 0 -158.5 36t-127.5 95l20 31q175 -127 356 -101q40 54 59.5 147t31.5 275l63 873l-168 10v39q69 10 172 14l2 33q8 122 32 215t69 164.5t117.5 109
t170.5 37.5q131 0 217 -45q23 33 50 45l18 -14l-18 -182h305v-25l-8 -27h-301l-41 -399q-39 -383 -97 -803l15 -2q42 153 70.5 252t61 203.5t57 166.5t54.5 124t56.5 94t61 58.5t70.5 36t81 9.5q106 0 158.5 -57t52.5 -164q0 -90 -48 -396t-53 -380q111 0 238 127z" />
    <glyph glyph-name="f_i" unicode="fi" horiz-adv-x="1067" 
d="M1022 164l16 -27q-45 -66 -113.5 -109.5t-131.5 -43.5q-37 0 -53.5 16t-16.5 51q0 45 18.5 229t42.5 403t29 275q-180 -34 -483 -34l-64 -854q-8 -110 -18 -183.5t-28 -139.5t-44 -103.5t-65.5 -58.5t-94.5 -21q-77 0 -158.5 36t-127.5 95l20 31q179 -126 356 -101
q40 54 59.5 147t31.5 275l63 873l-168 10v39q69 10 172 14l2 33q11 141 47.5 245t92.5 164t123.5 88.5t148.5 28.5q99 0 171 -41.5t101 -107.5l-24 -35l-209 133q-49 2 -93.5 -5.5t-70 -16.5t-61.5 -25q-60 -63 -101.5 -159t-54.5 -271l-2 -39q168 0 264 4q115 14 256 41
l31 -27q-10 -102 -33.5 -320.5t-40 -388.5t-20.5 -247q60 0 114.5 31.5t116.5 95.5z" />
    <glyph glyph-name="f_icircumflex" unicode="f&#xee;" horiz-adv-x="1064" 
d="M698 1202l142 230q-95 36 -187 36q-82 0 -155 -28q-69 -66 -110 -166.5t-52 -259.5l-2 -39q168 0 264 4q115 14 256 41l31 -27q-10 -102 -33.5 -320.5t-40 -388.5t-20.5 -247q60 0 114.5 31.5t116.5 95.5l16 -27q-45 -66 -113.5 -109.5t-131.5 -43.5q-37 0 -53.5 16
t-16.5 51q0 45 18.5 229t42.5 403t29 275q-180 -34 -483 -34l-64 -854q-8 -110 -18 -183.5t-28 -139.5t-44 -103.5t-65.5 -58.5t-94.5 -21q-77 0 -158.5 36t-127.5 95l20 31q175 -127 356 -101q40 54 59.5 147t31.5 275l63 873l-168 10v39q69 10 172 14l2 33q39 508 389 508
q120 0 207 -56l49 80h62l121 -323l-52 -27l-108 277h-12l-177 -273h-47z" />
    <glyph glyph-name="f_imacron" unicode="f&#x12b;" horiz-adv-x="1067" 
d="M717 1343q0 23 8 39h137q-96 86 -217 86q-74 0 -147 -28q-69 -66 -110 -166.5t-52 -259.5l-2 -39q168 0 264 4q111 13 256 41l31 -27q-10 -108 -50 -483t-44 -473q110 0 231 127l18 -27q-47 -66 -115.5 -109.5t-131.5 -43.5q-37 0 -53.5 16t-16.5 51q0 45 18.5 229
t42.5 403t29 275q-178 -34 -483 -34l-64 -854q-8 -110 -18 -183.5t-28 -139.5t-44 -103.5t-65.5 -58.5t-94.5 -21q-77 0 -158.5 36t-127.5 95l20 31q175 -127 356 -101q40 54 59.5 147t31.5 275l63 873l-168 10v39q69 10 172 14l2 33q18 255 118.5 380.5t262.5 125.5
q176 0 273 -140h151l1 -6q1 -6 1 -12q0 -26 -8 -39h-346l-1 7q-1 6 -1 11z" />
    <glyph glyph-name="f_iogonek" unicode="f&#x12f;" horiz-adv-x="1067" 
d="M1022 164l18 -27q-22 -30 -80.5 -85t-107.5 -101t-89 -111.5t-40 -124.5q0 -100 113 -100q66 0 137 39l8 -31q-77 -59 -170 -59q-77 0 -115.5 37.5t-38.5 101.5q0 138 191 283l-2 10q-36 -12 -55 -12q-68 0 -68 67q0 45 18.5 229t42.5 404t29 274q-178 -34 -483 -34
l-64 -854q-8 -110 -18 -183.5t-28 -139.5t-44 -103.5t-65.5 -58.5t-94.5 -21q-77 0 -158.5 36t-127.5 95l20 31q179 -126 356 -101q40 54 59.5 147t31.5 275l63 873l-160 10v39q72 10 164 14l2 33q22 274 132 400t278 126q100 0 173 -41t103 -108l-26 -35l-209 133
q-49 2 -93.5 -5.5t-70 -16.5t-61.5 -25q-60 -63 -101.5 -159t-54.5 -271l-2 -39q168 0 264 4q111 13 256 41l31 -27q-10 -108 -50 -483t-44 -473q61 0 115.5 31.5t115.5 95.5z" />
    <glyph glyph-name="f_j" unicode="fj" horiz-adv-x="1050" 
d="M492 1444q-59 -59 -101 -157t-55 -273l-2 -39q170 0 266 4q115 14 256 41l31 -27l-96 -946q-9 -87 -17 -146t-21 -118.5t-31 -96t-43.5 -66.5t-60.5 -43t-81 -13q-57 0 -110.5 20t-74.5 54l-2 30q155 -60 279 -45q38 54 57 143.5t35 264.5l94 927q-180 -34 -485 -34
l-64 -854q-8 -110 -18 -183.5t-28 -139.5t-44 -103.5t-65.5 -58.5t-94.5 -21q-77 0 -158.5 36t-127.5 95l20 31q179 -126 356 -101q39 56 59 150t32 272l63 873l-168 10v41q50 7 172 12l2 35q22 273 132.5 398.5t279.5 125.5q100 0 171.5 -41t100.5 -108l-24 -35l-209 133
q-116 4 -225 -47z" />
    <glyph glyph-name="f_k" unicode="fk" horiz-adv-x="1679" 
d="M1591 162l17 -27q-48 -65 -112 -108t-128 -43q-42 0 -68.5 30t-58.5 117q-29 78 -57.5 170t-28.5 125l82 39q238 140 238 344q0 172 -166 172q-49 0 -115 -16q-92 -95 -169 -290.5t-220 -674.5q-19 -8 -64 -12l-18 14l139 1452q-87 33 -196 33q-88 0 -174 -25
q-70 -64 -105.5 -163.5t-50.5 -284.5l-2 -39h264v-25l-8 -26h-260l-64 -854q-8 -110 -18 -183.5t-28 -139.5t-44 -103.5t-65.5 -58.5t-94.5 -21q-77 0 -158.5 36t-127.5 95l20 31q175 -127 356 -101q40 54 59.5 147t31.5 275l63 873l-168 10v39q69 10 172 14l2 33
q8 122 32 215t69 164.5t117.5 109t170.5 37.5q131 0 217 -45q23 33 50 45l18 -14l-63 -633q-39 -383 -97 -803l15 -2q36 132 63 226.5t56 188.5t53 157t50 123.5t51 97.5t52.5 69t58 48t64.5 25t74 9q111 0 171 -58t60 -171q0 -138 -87.5 -233.5t-248.5 -165.5
q85 -269 148 -369q106 0 231 125z" />
    <glyph glyph-name="f_l" unicode="fl" horiz-adv-x="1089" 
d="M1044 162l17 -27q-45 -64 -118 -107.5t-138 -43.5q-40 0 -58 17.5t-18 57.5q0 47 19.5 245t57 558.5t60.5 591.5q-95 33 -200 33q-88 0 -174 -25q-70 -64 -105.5 -163.5t-50.5 -284.5l-2 -39h264v-25l-8 -26h-260l-64 -854q-8 -110 -18 -183.5t-28 -139.5t-44 -103.5
t-65.5 -58.5t-94.5 -21q-77 0 -158.5 36t-127.5 95l20 31q175 -127 356 -101q40 54 59.5 147t31.5 275l63 873l-168 10v39q69 10 172 14l2 33q8 122 32 215t69 164.5t117.5 109t170.5 37.5q133 0 219 -45q22 33 52 45l18 -14q-24 -244 -65 -627t-60.5 -583t-21.5 -281
q122 0 247 125z" />
    <glyph glyph-name="f_lacute" unicode="f&#x13a;" horiz-adv-x="1091" 
d="M938 1542h-49l170 289h20q26 -11 47 -45zM799 37q123 0 248 125l16 -27q-45 -64 -118 -107.5t-138 -43.5q-40 0 -58 18.5t-18 60.5q0 30 7 114.5t21.5 224.5t28.5 275.5t35.5 341t36.5 347.5q-96 41 -205 41q-90 0 -176 -25q-69 -61 -101 -141.5t-42 -226.5l-2 -39h264
v-25l-8 -26h-260l-64 -854q-8 -110 -18 -183.5t-28 -139.5t-44 -103.5t-65.5 -58.5t-94.5 -21q-77 0 -158.5 36t-127.5 95l20 31q175 -127 356 -101q40 54 59.5 147t31.5 275l63 873l-168 10v39q65 11 172 16l2 31q34 446 385 446q126 0 215 -51q17 32 54 51l18 -14
q-26 -259 -64 -612.5t-55.5 -535t-19.5 -263.5z" />
    <glyph glyph-name="f_lcaron" unicode="f&#x13e;" horiz-adv-x="1167" 
d="M1053 162l16 -27q-45 -64 -118 -107.5t-138 -43.5q-40 0 -58 17.5t-18 57.5q0 47 19.5 245t57 558.5t60.5 591.5q-95 33 -200 33q-88 0 -174 -25q-70 -64 -105.5 -163.5t-50.5 -284.5l-2 -39h264v-25l-8 -26h-260l-64 -854q-8 -110 -18 -183.5t-27.5 -139.5t-43.5 -103
t-65.5 -58.5t-94.5 -21.5q-77 0 -159 36.5t-128 94.5l20 31q80 -58 172.5 -86t184.5 -15q40 53 58.5 146t31.5 276l63 873l-168 10v39q69 10 172 14l2 33q8 122 32 215t69.5 164.5t118 109t170.5 37.5q133 0 219 -45q22 34 51 45l18 -14q-24 -244 -65 -627t-60.5 -583
t-21.5 -281q123 0 248 125zM1223 1542q29 0 51 -16q-8 -173 -92 -381h-39l51 248v145q1 0 11.5 2t17.5 2z" />
    <glyph glyph-name="uni021A_h" unicode="&#x21a;h" horiz-adv-x="2091" 
d="M2034 166l16 -27q-45 -66 -114.5 -109.5t-133.5 -43.5q-37 0 -53 16t-16 51q0 54 48 361.5t48 398.5q0 84 -34.5 127t-117.5 43q-57 0 -112 -16q-90 -94 -161.5 -281.5t-219.5 -683.5q-19 -8 -64 -12l-18 14l133 1382q-86 -83 -315 -83q-40 0 -128 4.5t-116 5.5
l-92 -1264l217 -6v-20l-4 -23h-512v41q114 17 229 20l92 1254l-330 10l-47 -256l-43 2q-4 54 -4 96q0 93 31 217l23 2l411 -24h266q209 0 326 65l10 107q30 10 54 10l18 -14l-70 -658q-43 -451 -92 -778l15 -2q42 153 70.5 252t61 203.5t57 166.5t54.5 124t56.5 94t61 58.5
t70.5 36t81 9.5q210 0 210 -221q0 -91 -47.5 -397t-52.5 -379q114 0 238 127zM512 -129q32 0 53 -12q13 -32 13 -72q0 -173 -172 -274l-13 22q72 59 101.5 111t29.5 118v27l-57 4l4 72q24 4 41 4z" />
    <glyph glyph-name="uni030A_acutecomb" unicode="&#x30a;&#x301;" horiz-adv-x="2" 
d="M20 1862h23q27 -13 45 -41l-211 -236h-47zM-145 1503q72 0 116.5 -40.5t44.5 -121.5q0 -94 -60.5 -148t-145.5 -54q-71 0 -115.5 40t-44.5 119q0 95 61 150t144 55zM-152 1458q-40 0 -81 -18q-58 -51 -58 -140q0 -114 109 -114q46 0 80 18q59 49 59 137q0 57 -28 87
t-81 30z" />
    <glyph glyph-name=".notdef" horiz-adv-x="1406" 
d="M1243 1362l-98 -1362h-942l98 1362h942zM1182 1307h-797l709 -1198zM266 55h797l-709 1194z" />
    <glyph glyph-name=".null" horiz-adv-x="0" 
 />
    <glyph glyph-name="nonmarkingreturn" horiz-adv-x="682" 
 />
    <glyph glyph-name="CR" unicode="&#xd;" horiz-adv-x="475" 
 />
    <glyph glyph-name="space" unicode=" " horiz-adv-x="475" 
 />
    <glyph glyph-name="exclam" unicode="!" horiz-adv-x="483" 
d="M334 1389l10 -11q-13 -405 -76 -985h-45q23 376 39 983q43 13 72 13zM233 174q23 0 35 -2q8 -24 8 -55q0 -70 -28 -117h-66l-6 166q32 8 57 8z" />
    <glyph glyph-name="quotedbl" unicode="&#x22;" horiz-adv-x="661" 
d="M631 1491l-60 -422h-49l25 422q30 10 71 10zM342 1491l-59 -422h-50l25 422q30 10 72 10z" />
    <glyph glyph-name="numbersign" unicode="#" horiz-adv-x="1099" 
d="M848 868l-82 -524h219v-51l-229 -21l-47 -299h-41l-11 15l45 291h-391l-47 -306h-41l-10 15l45 291h-182v51l192 20l82 522h-213v52l223 20l48 301h41l10 -14l-45 -293h393l47 307h41l10 -14l-45 -293h182v-51zM713 344l84 528h-394l-81 -528h391z" />
    <glyph glyph-name="dollar" unicode="$" horiz-adv-x="919" 
d="M774 283q0 -125 -86 -202t-250 -83l-16 -258l-51 -6l-9 8l21 256q-149 8 -272 76q-9 49 -9 108q0 80 15 203l49 2l20 -287q93 -44 201 -47l45 547q-56 35 -85.5 55t-68 52.5t-57 61t-32 68.5t-13.5 87q0 127 82 207.5t217 89.5l17 258l49 6l10 -8l-21 -256q87 -6 162 -39
v16q36 8 47 8l19 -14v-45q0 -125 -23 -275h-43l-2 269q-62 22 -164 26l-41 -518q158 -104 223.5 -182t65.5 -184zM246 932q0 -37 11 -69t23.5 -52.5t44.5 -47.5t51 -40.5t66 -44.5l31 487q-64 -3 -106 -18q-55 -32 -88 -87.5t-33 -127.5zM590 84q112 63 112 192
q0 87 -54.5 153t-172.5 144l-33 -520q90 8 148 31z" />
    <glyph glyph-name="percent" unicode="%" horiz-adv-x="1523" 
d="M1280 1270l4 -15q-546 -716 -922 -1280l-40 19l-5 14q277 397 511 711.5t364 470.5l-2 -2l-10 8q-95 -110 -181.5 -152.5t-181.5 -42.5q-117 0 -211 58q23 -74 23 -152q0 -50 -8 -103t-29 -111t-52.5 -103t-83.5 -74t-118 -29q-218 0 -221 297q-1 184 77.5 311t178.5 146
l8 -29q-89 -39 -144 -147t-55 -270q0 -260 166 -260q49 0 101 22q67 65 94.5 163.5t27.5 194.5q0 121 -43 209q-30 28 -77 101q3 3 6.5 7t6 6.5t6 5t7.5 3.5h17q52 -52 79 -110q109 -86 248 -86q97 0 194.5 53.5t221.5 181.5zM1210 731q110 0 165 -81t55 -222
q0 -76 -15.5 -150.5t-48 -145.5t-94 -115t-142.5 -44q-112 0 -166.5 79t-54.5 214q0 56 8.5 114t30 122.5t54 114t86.5 82t122 32.5zM1235 41q129 119 129 377q0 266 -160 266q-47 0 -100 -22q-67 -67 -98 -169.5t-31 -213.5q0 -259 166 -259q43 0 94 21z" />
    <glyph glyph-name="ampersand" unicode="&#x26;" horiz-adv-x="1249" 
d="M1204 688h-217q25 -311 -199 -526q181 -183 369 -287l-16 -35q-83 23 -189.5 96.5t-212.5 180.5q-73 -63 -164 -103.5t-184 -40.5q-49 0 -95.5 11.5t-89.5 37t-75 62t-51 90.5t-19 119q0 75 24 137t69.5 108t99.5 79.5t125 62.5q-57 157 -57 315q0 104 26.5 182t72.5 123
t101.5 67t118.5 22q112 0 166.5 -62.5t54.5 -167.5q0 -158 -112 -288t-293 -207q96 -257 307 -478q87 103 128.5 227t27.5 308q91 22 270 22l14 -16v-39zM494 1305q-48 -44 -74.5 -111t-26.5 -184q0 -159 51 -314q347 193 347 453q0 188 -156 188q-71 0 -141 -32zM412 27
q71 0 151 32.5t150 85.5q-218 235 -320 498q-129 -64 -194.5 -141t-65.5 -195q0 -138 83.5 -209t195.5 -71z" />
    <glyph glyph-name="quotesingle" unicode="'" horiz-adv-x="372" 
d="M342 1491l-59 -422h-50l25 422q30 10 72 10z" />
    <glyph glyph-name="parenleft" unicode="(" horiz-adv-x="546" 
d="M453 1542l30 -18q-272 -520 -272 -1100q0 -220 35.5 -399t113.5 -396l-32 -16q-87 159 -136 380.5t-49 436.5q0 114 14.5 243.5t46.5 283t96.5 309t152.5 276.5z" />
    <glyph glyph-name="parenright" unicode=")" horiz-adv-x="542" 
d="M201 1526l30 16q88 -158 136.5 -379.5t48.5 -437.5q0 -89 -8.5 -187.5t-30.5 -222.5t-55.5 -241t-89 -240t-126.5 -221l-30 18q272 524 272 1100q0 221 -35 400.5t-112 394.5z" />
    <glyph glyph-name="asterisk" unicode="*" horiz-adv-x="923" 
d="M608 1591v-18q0 -133 -37 -291h-39q-6 75 -6 102q0 46 5 117.5t10 95.5h43zM186 1341l13 23q21 -4 69 -21q99 -31 219 -94l-16 -37q-104 18 -231 60q-28 8 -68 26zM928 1323l2 -27q-21 -11 -72 -26q-161 -44 -242 -58l-8 37q129 61 234 92l71 21zM485 1167l29 -22
q-80 -134 -143 -207q-29 -37 -49 -57l-35 18l-19 21q28 42 45 61q67 74 172 186zM563 1145l31 22q87 -95 149 -184q25 -36 39 -61l-37 -29l-22 -12q-29 38 -43 57q-52 73 -117 207z" />
    <glyph glyph-name="plus" unicode="+" 
d="M1071 631v-25l-6 -35h-395l-45 -456h-45l-17 8l45 448h-399v25l6 35h399l45 454h46l16 -6l-45 -448h395z" />
    <glyph glyph-name="comma" unicode="," horiz-adv-x="432" 
d="M162 102q38 0 69 -14q17 -53 17 -94q0 -216 -254 -328l-12 27q92 56 148 120t56 150v39l-73 6l6 90q28 4 43 4z" />
    <glyph glyph-name="hyphen" unicode="-" horiz-adv-x="675" 
d="M569 606l-8 -35h-434v25l6 35h436v-25z" />
    <glyph glyph-name="period" unicode="." horiz-adv-x="428" 
d="M180 180q23 0 35 -2q8 -24 8 -55q0 -76 -28 -123h-66l-6 172q32 8 57 8z" />
    <glyph glyph-name="slash" unicode="/" horiz-adv-x="600" 
d="M647 1462l-633 -1835h-43l-10 13l633 1835h45z" />
    <glyph glyph-name="zero" unicode="0" horiz-adv-x="1032" 
d="M586 1245q116 0 194.5 -70t113 -181.5t34.5 -256.5q0 -93 -13.5 -190.5t-47.5 -202t-84 -185.5t-131.5 -133.5t-182.5 -52.5q-88 0 -155 39t-107 108.5t-60 159.5t-20 199q0 96 14 195t48.5 203.5t85 184.5t131.5 131.5t180 51.5zM578 1192q-87 0 -154 -37
q-81 -76 -134 -197t-72 -236.5t-19 -236.5q0 -241 75.5 -350.5t202.5 -109.5q80 0 154 36q81 76 134 197.5t72 238t19 238.5q0 236 -75.5 346.5t-202.5 110.5z" />
    <glyph glyph-name="one" unicode="1" horiz-adv-x="712" 
d="M604 39v-16l-4 -23h-534v37q127 19 245 22l86 1063q-106 -82 -243 -102l-4 24l4 27q81 12 161.5 55.5t133.5 116.5l26 -6l-98 -1190z" />
    <glyph glyph-name="two" unicode="2" horiz-adv-x="862" 
d="M684 238l43 -5q4 -46 4 -67q0 -103 -35 -201h-39q-128 0 -280 18.5t-273 49.5l-75 -60q-11 4 -37 21l-2 16q69 54 122 97.5t130 111.5t134 127t119 135t101.5 145t65.5 147.5t26 150.5q0 132 -72.5 196t-179.5 64q-110 0 -182 -64.5t-72 -185.5q0 -73 37 -154l-29 -16
q-65 85 -65 178q0 131 88.5 217t232.5 86q147 0 231.5 -90t84.5 -231q0 -104 -48.5 -216.5t-138 -223.5t-194 -212t-238.5 -209l496 -38z" />
    <glyph glyph-name="three" unicode="3" horiz-adv-x="911" 
d="M537 578v-13q213 -58 213 -303q0 -196 -128 -314t-333 -118q-121 0 -234 43l11 37q109 -25 196 -25t161 22.5t131.5 67t90.5 117t33 166.5q0 234 -219 283q-77 -19 -156 -29l-12 10q-4 12 -4 23q0 5 1 11l1 7q58 19 141 19h29q103 46 174.5 134t71.5 212q0 67 -22.5 118
t-61 80t-84.5 43.5t-99 14.5q-120 0 -189 -69.5t-69 -168.5q0 -27 2 -47l-32 -6q-23 53 -23 94q0 114 93 186t233 72q152 0 237.5 -86.5t85.5 -226.5q0 -74 -24.5 -138t-63.5 -106.5t-77 -69.5t-74 -40z" />
    <glyph glyph-name="four" unicode="4" horiz-adv-x="907" 
d="M825 272v-20l-2 -33h-209q-16 -245 -22 -362h-68q7 149 25 362h-473l-19 41q7 14 43.5 82.5t47.5 88.5t43 82t45.5 90t40.5 83t42 90t35.5 82.5t35.5 89t28 82.5l-49 201l45 16q31 -26 48 -78.5t17 -101.5q0 -89 -82 -268.5t-284 -524.5l4 -12q127 10 229 10h207
q13 142 37 334q26 20 53 25l14 -10q-22 -181 -36 -349h204z" />
    <glyph glyph-name="five" unicode="5" horiz-adv-x="839" 
d="M211 657h45q228 0 356.5 -92t128.5 -284q0 -203 -125.5 -327t-320.5 -124q-116 0 -229 43l10 39q109 -25 190 -25q83 0 155 24t128 70.5t88.5 123t32.5 174.5q0 175 -119.5 248t-390.5 85l61 619l60 14q43 -24 108.5 -44.5t128.5 -20.5q108 0 240 65l10 -33
q-46 -43 -119.5 -69.5t-148.5 -26.5q-130 0 -228 58z" />
    <glyph glyph-name="six" unicode="6" horiz-adv-x="999" 
d="M791 1389q53 0 102 -11l-2 -39q-131 12 -243 -26.5t-194 -118t-140.5 -191.5t-87.5 -249t-29 -289q0 -225 69.5 -332.5t196.5 -107.5q94 0 166 34q82 69 133 171.5t51 230.5q0 141 -63 228t-185 87q-120 0 -231 -84l-8 41q121 101 258 101q143 0 223 -100.5t80 -258.5
q0 -90 -28.5 -178t-80.5 -161t-135 -118t-182 -45q-171 0 -253.5 130.5t-82.5 365.5q0 139 26.5 272t82 250.5t133.5 206t187 140t237 51.5z" />
    <glyph glyph-name="seven" unicode="7" horiz-adv-x="886" 
d="M911 1217l7 -13q-280 -426 -431.5 -720t-169.5 -474l60 -143l-45 -27q-86 42 -86 158q0 145 140 425.5t423 711.5l-571 36l-43 -208h-43q-7 40 -7 73q0 101 35 199q390 -4 649 -66l43 62q23 -3 39 -14z" />
    <glyph glyph-name="eight" unicode="8" horiz-adv-x="999" 
d="M588 700v-12q64 -39 107 -72t79.5 -76t54 -94t17.5 -114q0 -165 -112 -262t-281 -97q-153 0 -243.5 82t-90.5 234q0 66 20 124.5t49.5 99.5t74.5 79t82.5 60.5t86.5 47.5v13q-113 70 -175 147.5t-62 190.5q0 103 54.5 182t138.5 117.5t181 38.5q136 0 220.5 -79.5
t84.5 -211.5q0 -125 -78 -227.5t-208 -170.5zM266 1053q0 -101 62.5 -172t183.5 -142l33 -20q260 159 260 375q0 109 -67 175t-181 66q-92 0 -172 -39q-59 -42 -89 -108t-30 -135zM651 68q62 44 92.5 116t30.5 146q0 58 -19 105.5t-60 87.5t-79 67t-102 65l-39 23
q-109 -60 -174.5 -127.5t-88 -127.5t-22.5 -130q0 -129 74 -197.5t203 -68.5q112 0 184 41z" />
    <glyph glyph-name="nine" unicode="9" horiz-adv-x="999" 
d="M559 1245q171 0 253.5 -130t82.5 -365q0 -139 -26.5 -272t-82 -250.5t-133.5 -206t-187 -140t-237 -51.5q-54 0 -102 10l2 39q131 -12 243 26.5t194 118t140.5 192t87.5 249.5t29 289q0 436 -266 436q-96 0 -166 -33q-184 -161 -184 -401q0 -141 63 -228.5t185 -87.5
q124 0 233 86l8 -41q-119 -100 -260 -100q-142 0 -221.5 100t-79.5 258q0 72 17 143t53 135.5t85.5 114.5t119 79.5t149.5 29.5z" />
    <glyph glyph-name="colon" unicode=":" horiz-adv-x="395" 
d="M178 180q23 0 35 -2q8 -24 8 -55q0 -76 -28 -123h-66l-6 172q32 8 57 8zM250 1022q23 0 35 -2q8 -24 8 -55q0 -74 -29 -123h-65l-6 172q32 8 57 8z" />
    <glyph glyph-name="semicolon" unicode=";" horiz-adv-x="432" 
d="M195 102q37 0 69 -14q17 -53 17 -94q0 -216 -254 -328l-13 27q93 57 149 120.5t56 149.5v39l-74 6l7 90q28 4 43 4zM287 1022q23 0 35 -2q8 -24 8 -55q0 -74 -29 -123h-65l-7 172q32 8 58 8z" />
    <glyph glyph-name="less" unicode="&#x3c;" 
d="M1069 1049l-752 -443v-12l660 -438l-29 -52l-723 471l4 50l820 473z" />
    <glyph glyph-name="equal" unicode="=" 
d="M1051 401l-7 -34h-856v24l7 35h856v-25zM1092 811l-7 -35h-856v25l7 35h856v-25z" />
    <glyph glyph-name="greater" unicode="&#x3e;" 
d="M1030 627l-4 -49l-817 -474l-23 50l752 442v12l-657 439l26 51z" />
    <glyph glyph-name="question" unicode="?" horiz-adv-x="616" 
d="M262 1378q137 0 233.5 -102t96.5 -252q0 -106 -70 -192.5t-274 -235.5l-6 -203h-43q-19 108 -19 148q0 54 19 80t84 75q14 11 22 17q150 120 194 181.5t44 143.5q0 38 -6 78q-115 203 -330 203l6 55q16 4 49 4zM217 174q23 0 35 -2q8 -24 8 -55q0 -68 -29 -117h-65
l-6 166q32 8 57 8z" />
    <glyph glyph-name="at" unicode="@" horiz-adv-x="1759" 
d="M1036 1430q157 0 281 -53t201.5 -145t118 -213t40.5 -261q0 -122 -30 -228.5t-79.5 -181t-113 -128t-130 -79.5t-130.5 -26q-37 0 -54.5 12.5t-17.5 46.5q0 28 10.5 105.5t34.5 244t43 314.5h-14q-44 -155 -75 -253.5t-65.5 -190.5t-63.5 -142t-66.5 -89.5t-77.5 -54
t-92 -14.5q-110 0 -159.5 71t-49.5 226q0 90 14.5 179.5t47.5 177.5t81.5 154.5t123 107.5t165.5 41q65 0 126 -19.5t97 -58.5l4 69q18 11 49 11l19 -13l-88 -880q187 9 307.5 173t120.5 415q0 130 -35.5 242t-104.5 199t-179.5 137t-250.5 50q-125 0 -247 -38t-230 -114.5
t-191 -181.5t-131 -249.5t-48 -307.5q0 -161 47 -288t124.5 -205.5t181.5 -127.5t213.5 -64t225.5 -5l2 -39q-63 -14 -149 -14q-145 0 -274 48.5t-228 139t-157 232.5t-58 317q0 196 71.5 372.5t193.5 303t290.5 201t355.5 74.5zM868 168q72 77 139.5 237t184.5 529
q-99 63 -217 63q-82 0 -148 -30q-96 -82 -151 -238.5t-55 -337.5q0 -126 32 -185t111 -59q46 0 104 21z" />
    <glyph glyph-name="A" unicode="A" horiz-adv-x="1323" 
d="M1262 43v-20l-2 -23h-439v41q99 17 193 20l-96 385h-523q-102 -266 -151 -397l194 -6v-20l-2 -23h-430v41q102 17 180 20q236 612 514 1262l-14 63l14 13q42 0 56 -6q77 -336 336 -1344zM416 500h487q-112 447 -176 739h-12q-142 -336 -299 -739z" />
    <glyph glyph-name="B" unicode="B" horiz-adv-x="1155" 
d="M764 719v-12q122 -30 182 -106t60 -206q0 -189 -119.5 -292t-345.5 -103h-451v41q86 14 191 20l92 1246l-189 8v18l2 23q190 12 406 12q409 0 409 -305q0 -234 -237 -344zM442 1315l-43 -576h326q33 23 56 40.5t53 48t48 62t31 76t13 95.5q0 131 -81 192.5t-247 61.5
h-156zM819 115q53 43 82 118.5t29 159.5q0 139 -80.5 216t-249.5 77h-205l-45 -633h195q174 0 274 62z" />
    <glyph glyph-name="C" unicode="C" horiz-adv-x="1122" 
d="M492 1280q-87 -63 -152 -182.5t-97 -258.5t-32 -278q0 -270 99 -398t268 -128q97 0 200.5 49.5t179.5 128.5l23 -35q-93 -111 -203 -158t-215 -47q-217 0 -322.5 156t-105.5 428q0 82 12 169t38 183t72 180t108.5 152t154 108t201.5 40q137 0 244 -60l2 35q24 8 49 8
l18 -14q2 -14 2 -49q0 -154 -24 -308h-45l-2 279q-109 53 -248 53q-124 0 -225 -53z" />
    <glyph glyph-name="D" unicode="D" horiz-adv-x="1284" 
d="M610 1368q574 0 574 -594q0 -71 -8 -140.5t-28.5 -148t-52.5 -146.5t-84 -131.5t-119 -108.5t-162 -72t-208 -27h-432v41q86 14 191 20l90 1246l-187 8v18l2 23q192 12 424 12zM856 137q127 101 188.5 269t61.5 366q0 280 -121 412.5t-367 132.5l-178 -2l-90 -1262h154
q207 0 352 84z" />
    <glyph glyph-name="E" unicode="E" horiz-adv-x="1161" 
d="M1047 1386l16 -12q4 -32 4 -51q0 -113 -27 -252h-45l-2 234l-549 10l-45 -629l402 8l6 -20l-6 -41l-406 6l-41 -592l535 -10l47 266l47 -2q4 -50 4 -98q0 -88 -31 -226h-2l-20 -2l-600 25h-240v41q86 14 191 20l90 1246l-189 6v20l4 23q231 6 467 6h336v12q27 12 54 12z
" />
    <glyph glyph-name="F" unicode="F" horiz-adv-x="1073" 
d="M1016 1386l16 -12q4 -32 4 -51q0 -118 -26 -252h-45l-2 234l-519 10l-47 -653l404 6l6 -21l-6 -41l-408 8l-39 -565l246 -6v-20l-4 -23h-504v41q104 17 193 20l90 1246l-189 6v20l4 23q231 6 467 6h306v12q27 12 53 12z" />
    <glyph glyph-name="G" unicode="G" horiz-adv-x="1220" 
d="M1135 555v-39q-21 -3 -146 -18l-35 -510l-18 -15q-25 0 -43 9l2 79q-55 -43 -136.5 -65.5t-164.5 -22.5q-151 0 -256.5 77t-155 206t-49.5 299q0 69 8 143t28 156.5t50 158t77 145t106 120t140 81t175 30.5q149 0 250 -60l2 35q24 8 49 8l18 -14q2 -14 2 -49
q0 -154 -24 -308h-45l-2 279q-106 53 -250 53q-127 0 -228 -53q-88 -63 -152.5 -183.5t-96 -259t-31.5 -278.5q0 -252 106 -391t295 -139q151 0 287 82l23 395l-230 6v20l4 23h441z" />
    <glyph glyph-name="H" unicode="H" horiz-adv-x="1439" 
d="M1389 1362v-41q-112 -18 -193 -21l-92 -1251l188 -6v-20l-4 -23h-444v41q105 17 192 20l43 617h-684l-45 -629l201 -6v-20l-2 -23h-459v41q105 17 193 20l90 1252l-187 6v20l2 23h459v-41q-114 -18 -207 -21l-41 -569h684l43 582l-186 6v20l2 23h447z" />
    <glyph glyph-name="I" unicode="I" horiz-adv-x="686" 
d="M635 1362v-41q-112 -18 -193 -21l-92 -1251l189 -6v-20l-4 -23h-445v41q105 17 193 20l90 1252l-187 6v20l2 23h447z" />
    <glyph glyph-name="J" unicode="J" horiz-adv-x="870" 
d="M838 1362v-41q-86 -14 -191 -21l-80 -1060q-18 -249 -76.5 -356t-199.5 -107q-93 0 -192.5 39.5t-151.5 97.5l14 33q228 -133 434 -105q46 60 68.5 144.5t32.5 236.5l79 1088l-286 8v20l4 23h545z" />
    <glyph glyph-name="K" unicode="K" horiz-adv-x="1277" 
d="M1251 1362v-41q-117 -19 -172 -21q-161 -292 -399 -593q196 -475 348 -674l152 41l10 -39q-77 -51 -152 -51q-40 0 -65.5 18t-52.5 59q-60 89 -140 255t-145 350h-240l-45 -617l201 -6v-20l-2 -23h-459v41q105 17 193 20l90 1252l-187 6v20l2 23h443v-41
q-138 -19 -191 -21l-41 -585l236 10q227 294 381 588l-197 6v20l2 23h430z" />
    <glyph glyph-name="L" unicode="L" horiz-adv-x="1054" 
d="M928 205q0 -90 -31 -228h-2l-21 -2l-546 25h-238v41q83 13 191 20l90 1252l-185 6v20l2 23h480v-41q-127 -18 -228 -21l-92 -1253l481 -10l48 266l47 -2q4 -50 4 -96z" />
    <glyph glyph-name="M" unicode="M" horiz-adv-x="1693" 
d="M1597 1362v-41q-110 -18 -204 -21q0 -735 -19 -1251l187 -6v-20l-2 -23h-445v41q105 17 189 20q22 472 30 1244h-12q-5 -12 -469 -1209q-22 -10 -59 -14l-19 2q-183 840 -291 1221h-12q-36 -261 -158 -1256l205 -6v-20l-2 -23h-446v41q101 17 190 20q68 608 162 1246
l-195 8v18l2 23q150 6 306 6q61 -209 146 -568.5t138 -625.5h12q271 748 459 1194h307z" />
    <glyph glyph-name="N" unicode="N" horiz-adv-x="1445" 
d="M1413 1362v-41q-113 -18 -192 -21l-97 -1300q-27 -14 -59 -20h-21l-489 1058q-95 202 -119 265h-12l-86 -1254l207 -6v-20l-2 -23h-453v41q104 17 193 20l92 1246l-191 8v18l2 23q147 6 293 6l465 -1002q90 -193 123 -284h12l84 1237l-192 6v20l2 23h440z" />
    <glyph glyph-name="O" unicode="O" horiz-adv-x="1277" 
d="M717 1389q116 0 206.5 -45t146 -124.5t84 -183t28.5 -225.5q0 -69 -8 -143.5t-28.5 -157.5t-50.5 -159t-77.5 -145.5t-106.5 -120.5t-140 -81.5t-175 -30.5q-115 0 -204 44t-144.5 123.5t-84 184t-28.5 230.5q0 70 8 144t27.5 156.5t49.5 158t77 144.5t105.5 120
t139.5 81t175 30zM709 1333q-116 0 -217 -53q-131 -94 -206 -297.5t-75 -421.5q0 -253 106 -392.5t289 -139.5q116 0 217 53q131 95 207 298.5t76 420.5q0 253 -107 392.5t-290 139.5z" />
    <glyph glyph-name="P" unicode="P" horiz-adv-x="1091" 
d="M612 1368q211 0 313.5 -90.5t102.5 -271.5q0 -210 -111.5 -329.5t-300.5 -119.5q-54 0 -98 8v43q102 2 164 11t129 38q141 127 141 338q0 154 -79 237t-259 83h-170l-92 -1266l252 -6v-20l-2 -23h-510v41q104 17 191 20l92 1246l-189 6v20l4 23q316 12 422 12z" />
    <glyph glyph-name="Q" unicode="Q" horiz-adv-x="1282" 
d="M719 1389q116 0 206 -45t145.5 -125.5t83.5 -186t28 -231.5t-27.5 -250.5t-81.5 -238t-145 -201t-207 -127.5l-2 -13q54 -51 85.5 -78.5t92 -70.5t112.5 -65.5t127.5 -40t157.5 -17.5q119 0 234 43l6 -33q-102 -71 -274 -71q-108 0 -204.5 30.5t-168 82.5t-120.5 103
t-89 109v43q131 51 228.5 166t148.5 274.5t51 344.5q0 262 -105.5 402t-289.5 140q-118 0 -219 -53q-131 -94 -206 -297.5t-75 -421.5q0 -461 367 -551l-9 -37q-213 24 -323.5 179t-110.5 405q0 69 8 143t27.5 156t50 157.5t77.5 144.5t105.5 120t140 81t175.5 30z" />
    <glyph glyph-name="R" unicode="R" horiz-adv-x="1183" 
d="M1147 74l10 -39q-77 -51 -151 -51q-37 0 -64 18t-55 59q-47 72 -117 224t-127 315h-254l-39 -551l201 -6v-20l-2 -23h-459v41q105 17 191 20l90 1246l-187 8v20l2 21q184 12 396 12q432 0 432 -332q0 -158 -84.5 -264.5t-224.5 -163.5q163 -398 290 -575zM395 653h287
q122 60 189 156t67 223q0 283 -348 283h-148z" />
    <glyph glyph-name="S" unicode="S" horiz-adv-x="985" 
d="M510 737l59 -41q70 -47 112.5 -82t84.5 -83t61 -103.5t19 -122.5q0 -150 -103 -241t-297 -91q-185 0 -327 82q-8 47 -8 119q0 94 16 203l47 2l21 -293q117 -57 245 -57q125 0 209 37q54 32 89.5 92.5t35.5 140.5q0 53 -17 99t-52 87t-73 72.5t-95 71.5l-66 45
q-120 83 -163 125q-113 108 -113 256q0 152 100 243t260 91q134 0 231 -58l2 33q24 8 50 8l18 -14q2 -14 2 -49q0 -146 -24 -287h-46l-2 260q-102 51 -233 51q-89 0 -154 -22q-59 -35 -97 -99t-38 -149q0 -44 12.5 -82.5t31 -67.5t54.5 -62t66 -55.5t82 -58.5z" />
    <glyph glyph-name="T" unicode="T" horiz-adv-x="1107" 
d="M1069 1386l16 -12q5 -40 5 -51q0 -113 -27 -252h-45l-2 234l-340 8l-92 -1264l237 -6v-20l-4 -23h-532v41q114 17 229 20l92 1254l-330 10l-47 -256l-43 2q-4 54 -4 96q0 93 31 217l23 2l411 -24h369v12q27 12 53 12z" />
    <glyph glyph-name="U" unicode="U" horiz-adv-x="1368" 
d="M1354 1362v-41q-111 -18 -201 -21q-4 -176 -19.5 -427.5t-29.5 -374.5q-29 -273 -130.5 -399t-314.5 -126q-198 0 -296.5 106t-98.5 324q0 168 64 910l-189 6v20l2 23h461v-41q-114 -18 -205 -21q-63 -715 -63 -909t87 -278t247 -84q140 0 235 65q62 65 95 161t51 251
q18 161 51 807l-205 6v20l2 23h457z" />
    <glyph glyph-name="V" unicode="V" horiz-adv-x="1298" 
d="M1331 1362v-41q-86 -15 -170 -21q-66 -220 -214.5 -607.5t-282.5 -696.5q-29 -13 -66 -16l-20 8q-155 685 -308 1325l-170 6v20l2 23h439v-41q-107 -18 -193 -21q18 -85 124.5 -556.5t152.5 -694.5h12q127 302 266.5 678t198.5 586l-203 6v20l2 23h430z" />
    <glyph glyph-name="W" unicode="W" horiz-adv-x="1894" 
d="M1913 1362v-41q-85 -15 -172 -21q-60 -217 -196.5 -601.5t-262.5 -702.5q-29 -13 -68 -16l-20 8q-14 78 -84.5 470.5t-101.5 573.5h-13q-118 -424 -352 -1036q-29 -13 -68 -16l-20 8q-129 666 -266 1325l-168 6v20l2 23h438v-41q-106 -18 -194 -21q17 -91 66 -347
t94.5 -494.5t76.5 -409.5h12q199 529 363 1084l-37 180l-147 6v20l2 23h430v-41q-128 -19 -207 -21q216 -1211 223 -1251h12q119 312 246.5 685t181.5 579l-202 6v20l2 23h430z" />
    <glyph glyph-name="X" unicode="X" horiz-adv-x="1325" 
d="M1143 1300q-187 -287 -420 -595q203 -374 340 -656l166 -6v-20l-2 -23h-461v41q60 10 205 20q-108 240 -293 582h-10q-221 -315 -392 -594l209 -6v-20l-4 -23h-438v41q89 17 172 20q181 284 432 633q-160 278 -323 619l-168 6v20l2 23h465v-41q-120 -18 -209 -21
q105 -229 276 -546h12q140 191 375 559l-209 6v20l2 23h437v-41q-71 -14 -164 -21z" />
    <glyph glyph-name="Y" unicode="Y" horiz-adv-x="1185" 
d="M1047 1300q-160 -369 -416 -813l-31 -438l229 -6v-20l-4 -23h-524v41q123 17 227 20l31 433q-145 411 -305 819l-154 6v20l2 23h443v-41q-87 -14 -209 -21q113 -307 268 -747h10q226 392 375 760l-198 6v20l2 23h426v-41q-117 -19 -172 -21z" />
    <glyph glyph-name="Z" unicode="Z" horiz-adv-x="1054" 
d="M893 303l47 -2q4 -50 4 -98q0 -88 -31 -226l-22 -2l-729 25h-72l-10 33q719 1100 795 1209q22 33 45 65l-5 10l-669 -12l-19 -248h-45q-10 61 -10 176q0 92 8 125l19 14q21 0 51 -10h754l10 -33q-80 -123 -216 -332q-341 -524 -449 -687t-177 -255l4 -10l670 -10z" />
    <glyph glyph-name="bracketleft" unicode="[" horiz-adv-x="598" 
d="M553 1475l-234 -9q-10 -294 -14 -364q-9 -233 -38.5 -666.5t-61.5 -746.5l231 -8l-2 -41h-262l-20 18l120 1858h283z" />
    <glyph glyph-name="backslash" unicode="\" horiz-adv-x="931" 
d="M803 -373l-633 1835l8 13h45l633 -1835l-10 -13h-43z" />
    <glyph glyph-name="bracketright" unicode="]" horiz-adv-x="595" 
d="M461 1497l-121 -1857h-283l2 41l234 8l12 364q9 229 39 663.5t62 749.5l-230 9l2 41h262z" />
    <glyph glyph-name="asciicircum" unicode="^" horiz-adv-x="823" 
d="M807 1024l-45 -27l-254 410h-12l-322 -410l-41 27l346 461h72z" />
    <glyph glyph-name="underscore" unicode="_" horiz-adv-x="827" 
d="M649 -188l-8 -31h-625v18l7 33h626v-20z" />
    <glyph glyph-name="grave" unicode="`" horiz-adv-x="399" 
d="M414 1174h-47l-189 352q28 34 58 45h22z" />
    <glyph glyph-name="a" unicode="a" horiz-adv-x="1095" 
d="M1049 164l18 -27q-47 -66 -116 -109.5t-134 -43.5q-36 0 -51.5 16t-15.5 51t11 120.5t37.5 276t47.5 355.5l-15 2q-51 -175 -87 -287.5t-75.5 -214.5t-72 -158t-73 -98.5t-83.5 -58t-98 -15.5q-123 0 -176 78.5t-53 249.5q0 101 15.5 200t52 196.5t90 171.5t136 119.5
t183.5 45.5q73 0 141.5 -22.5t108.5 -67.5l4 82q16 8 49 8l18 -14l-98 -983q115 0 236 127zM457 45q82 82 158 260.5t212 601.5q-118 76 -243 76q-87 0 -166 -35q-107 -91 -169.5 -269.5t-62.5 -377.5q0 -140 36.5 -208t123.5 -68q55 0 111 20z" />
    <glyph glyph-name="b" unicode="b" horiz-adv-x="1058" 
d="M719 1034q120 0 172.5 -77.5t52.5 -249.5q0 -84 -11 -167t-34 -167t-61.5 -155t-90 -126.5t-124.5 -87t-160 -31.5q-74 0 -158 21.5t-151 52.5l139 1434l-170 4l4 31q103 20 205 26l35 -26l-78 -728q-33 -318 -76 -583l14 -2q38 130 66.5 222t59 180t55.5 145.5t53.5 110
t55 82t59 52t67 31t76.5 8.5zM641 59q106 90 167.5 269t61.5 379q0 141 -35.5 208.5t-123.5 67.5q-51 0 -109 -18q-83 -85 -160.5 -268t-218.5 -619q123 -53 248 -53q93 0 170 34z" />
    <glyph glyph-name="c" unicode="c" horiz-adv-x="839" 
d="M383 946q-107 -95 -161 -244.5t-54 -312.5q0 -181 62 -268.5t165 -87.5q77 0 162 43.5t154 118.5l22 -33q-81 -99 -174 -144t-178 -45q-77 0 -134 32.5t-89 90t-47 126.5t-15 151q0 71 11 144t32.5 148t58 140.5t84.5 117t115 81.5t146 30q82 0 144 -32t85 -89l-24 -34
l-197 106q-98 0 -168 -39z" />
    <glyph glyph-name="d" unicode="d" horiz-adv-x="1095" 
d="M1049 164l18 -27q-47 -66 -116 -109.5t-134 -43.5q-36 0 -51.5 16t-15.5 51q0 23 4 64.5t13.5 113t19.5 144.5t27.5 197.5t31.5 232.5l-15 2q-51 -175 -87 -287.5t-75.5 -214.5t-72 -158t-73 -98.5t-83.5 -58t-98 -15.5q-123 0 -176 78.5t-53 249.5q0 101 15.5 200
t51.5 196.5t89.5 171.5t136 119.5t184.5 45.5q72 0 140.5 -22t109.5 -64l49 533l-170 4l4 31q103 20 205 26l33 -26l-148 -1479q115 0 236 127zM457 43q82 83 159 265t211 603q-117 72 -243 72q-87 0 -166 -35q-107 -91 -169.5 -269.5t-62.5 -377.5q0 -140 36.5 -208
t123.5 -68q52 0 111 18z" />
    <glyph glyph-name="e" unicode="e" horiz-adv-x="876" 
d="M395 33q79 0 169.5 48.5t164.5 133.5l23 -33q-82 -105 -180 -157t-193 -52q-77 0 -134 33t-89 91t-47 128t-15 154q0 78 12.5 161t45.5 173t81.5 160t128 115.5t177.5 45.5q119 0 187.5 -60.5t68.5 -166.5q0 -75 -37.5 -135.5t-97.5 -100t-144 -67.5t-169 -41.5
t-179 -18.5l-2 -49q0 -187 62 -274.5t167 -87.5zM381 950q-92 -78 -145 -201.5t-66 -265.5q553 65 553 324q0 85 -55.5 130.5t-139.5 45.5q-80 0 -147 -33z" />
    <glyph glyph-name="f" unicode="f" horiz-adv-x="581" 
d="M473 1440q-55 -69 -90 -161.5t-47 -264.5l-2 -39h278v-25l-8 -26h-274l-64 -854q-8 -110 -18 -183.5t-28 -139.5t-44 -103.5t-65.5 -58.5t-94.5 -21q-77 0 -158.5 36t-127.5 95l20 31q179 -126 356 -101q40 54 59.5 147t31.5 275l63 873l-168 10v39q69 10 172 14l2 33
q39 526 402 526q68 0 121.5 -30.5t80.5 -81.5l-20 -37l-209 96q-81 -5 -168 -49z" />
    <glyph glyph-name="g" unicode="g" horiz-adv-x="933" 
d="M340 145l223 -77q12 -4 34 -12q43 -15 63.5 -23t51 -21.5t44 -25t29 -29.5t21 -39.5t5.5 -48.5q0 -71 -44 -130t-117.5 -96.5t-165.5 -58t-191 -20.5q-301 0 -301 192q0 58 26.5 112.5t74 99t99.5 79.5t115 66q-24 27 -24 75q0 76 41 140q-98 27 -150.5 109t-52.5 194
q0 168 106.5 285.5t268.5 117.5q127 0 200 -73q102 186 201 206l25 -43l-203 -186q74 -86 74 -223q0 -106 -46 -196.5t-134 -146t-199 -55.5q-16 0 -56 5zM195 629q0 -119 59 -189.5t170 -70.5q72 0 135 26q68 43 114 133t46 195q0 117 -59.5 187.5t-170.5 70.5
q-64 0 -137 -25q-67 -45 -112 -133.5t-45 -193.5zM694 -279q49 64 49 136q0 45 -26 71t-109 56l-227 82q-32 11 -53 26q-128 -95 -172 -138q-90 -90 -90 -183q0 -156 239 -156q108 0 213.5 28.5t175.5 77.5z" />
    <glyph glyph-name="h" unicode="h" horiz-adv-x="1138" 
d="M1079 164l19 -27q-47 -66 -116 -109.5t-134 -43.5q-36 0 -52 16.5t-16 50.5q0 54 48.5 361.5t48.5 398.5q0 84 -35.5 128t-116.5 44q-55 0 -113 -18q-90 -93 -161.5 -280.5t-219.5 -684.5q-23 -8 -63 -12l-18 14l143 1479l-170 4l4 31q103 20 205 26l35 -26l-66 -646
q-44 -449 -94 -778l14 -2q42 153 70 252t60.5 203.5t56.5 166.5t54 124t56.5 94t60.5 58.5t70.5 36t81.5 9.5q213 0 213 -221q0 -90 -47.5 -396.5t-52.5 -379.5q111 0 235 127z" />
    <glyph glyph-name="i" unicode="i" horiz-adv-x="530" 
d="M315 1020l31 -27q-10 -108 -50 -483t-44 -473q110 0 231 127l19 -27q-47 -66 -116 -109.5t-132 -43.5q-37 0 -52.5 16t-15.5 51t12 165t25.5 257t31.5 289.5t21 195.5l-190 -34l-4 28q137 55 233 68zM358 1450q19 0 31 -4q8 -21 8 -55q0 -65 -26 -115h-64l-8 164
q40 10 59 10z" />
    <glyph glyph-name="j" unicode="j" horiz-adv-x="503" 
d="M346 993l-96 -952q-9 -88 -17.5 -146t-21.5 -117t-30 -94.5t-42.5 -65t-59.5 -42t-79 -12.5q-63 0 -125.5 23t-97.5 61l16 28q164 -72 295 -55q38 56 57 145.5t35 264.5l94 927l-190 -34l-4 28q136 55 235 68zM338 1450q19 0 31 -4q8 -21 8 -55q0 -63 -27 -115h-63
l-8 164q40 10 59 10z" />
    <glyph glyph-name="k" unicode="k" horiz-adv-x="1105" 
d="M1018 162l16 -27q-48 -65 -111.5 -108t-127.5 -43q-42 0 -68.5 30t-58.5 117q-86 233 -86 297l82 37q235 140 235 344q0 174 -164 174q-51 0 -110 -16q-95 -95 -173.5 -291.5t-220.5 -675.5q-23 -8 -63 -12l-18 14l143 1479l-170 4l4 31q103 20 205 26l35 -26l-66 -646
q-44 -449 -94 -778l14 -2q36 133 63 226.5t56 188.5t52.5 157.5t49.5 123t51 97.5t52.5 69t58 48t64.5 25t75 9q111 0 170.5 -58t59.5 -171q0 -140 -86.5 -234.5t-247.5 -162.5q29 -91 42.5 -132.5t44.5 -117t60 -121.5q107 0 232 125z" />
    <glyph glyph-name="l" unicode="l" horiz-adv-x="516" 
d="M336 1542l33 -26q-21 -208 -62 -591t-61.5 -595t-22.5 -293q124 0 246 125l18 -27q-45 -64 -118 -107.5t-138 -43.5q-40 0 -57.5 18t-17.5 59q0 86 141 1420l-174 4l4 31q101 20 209 26z" />
    <glyph glyph-name="m" unicode="m" horiz-adv-x="1812" 
d="M1753 164l19 -27q-47 -66 -117 -109.5t-133 -43.5q-37 0 -52.5 16t-15.5 51q0 54 47 361.5t47 398.5q0 84 -34 128t-115 44q-60 0 -109 -16q-92 -93 -165 -283t-220 -684q-21 -8 -63 -12l-21 14q2 15 30.5 238t42 355.5t13.5 203.5q0 94 -33 139t-118 45q-50 0 -109 -16
q-92 -93 -165.5 -283.5t-219.5 -683.5q-19 -8 -63 -12l-19 14l96 956l-190 -34l-4 28q137 55 233 68l31 -27l-108 -901l14 -2q33 121 57 205.5t51 174.5t47 149t44 120.5t44 99t44.5 74.5t48 56.5t52 36t58.5 22.5t66 6q211 0 211 -223q0 -51 -11 -147t-23 -177.5
t-32.5 -212.5t-27.5 -182l14 -2q43 158 68 246.5t59 199t56 167t53 124t57.5 98t61.5 60.5t72.5 39.5t84.5 9.5q106 0 158.5 -57t52.5 -164q0 -90 -48.5 -396t-53.5 -380q113 0 237 127z" />
    <glyph glyph-name="n" unicode="n" horiz-adv-x="1169" 
d="M1112 164l16 -27q-45 -66 -114.5 -109.5t-132.5 -43.5q-37 0 -53.5 16t-16.5 51q0 54 48 361.5t48 398.5q0 85 -34.5 128.5t-116.5 43.5q-50 0 -109 -16q-92 -94 -167 -286.5t-218 -680.5q-19 -8 -63 -12l-19 14l96 956l-190 -34l-4 28q137 55 233 68l31 -27l-108 -901
l14 -2q42 153 70.5 252t61 203.5t57 166.5t54.5 124t56.5 94t61 58.5t70.5 36t81 9.5q106 0 158.5 -57t52.5 -164q0 -90 -48 -396t-53 -380q111 0 238 127z" />
    <glyph glyph-name="o" unicode="o" horiz-adv-x="962" 
d="M535 1034q83 0 147.5 -33.5t103.5 -91.5t58.5 -131t19.5 -157q0 -74 -13 -155t-46 -170.5t-81 -160t-126.5 -116.5t-175.5 -46q-108 0 -183.5 57.5t-109 149.5t-33.5 209q0 74 13 155.5t46 170t81 158.5t125.5 115.5t173.5 45.5zM530 983q-74 0 -149 -35
q-108 -92 -160.5 -243t-52.5 -308q0 -192 74.5 -282t191.5 -90q69 0 141 30q77 63 128 161.5t70.5 195t19.5 196.5q0 191 -73.5 283t-189.5 92z" />
    <glyph glyph-name="p" unicode="p" horiz-adv-x="1093" 
d="M750 1034q123 0 176 -78t53 -249q0 -83 -11 -166.5t-34 -167t-61.5 -154.5t-89.5 -127t-122.5 -87.5t-156.5 -31.5q-75 0 -143.5 23t-110.5 70l-45 -492q-11 -6 -47 -10l-19 14l137 1380l-190 -34l-4 28q137 55 233 68l31 -27l-100 -788l14 -2q51 174 87.5 287.5
t75.5 214.5t72 157.5t73.5 98.5t83.5 57.5t98 15.5zM674 59q108 90 169.5 269t61.5 379q0 140 -36.5 208t-123.5 68q-54 0 -110 -20q-82 -81 -158.5 -260.5t-212.5 -602.5q117 -75 244 -75q92 0 166 34z" />
    <glyph glyph-name="q" unicode="q" horiz-adv-x="1064" 
d="M944 -379l-4 -31q-103 -20 -205 -26l-37 33l66 610q34 303 82 596l-15 2q-51 -175 -87 -287.5t-75.5 -214.5t-72 -158t-73 -98.5t-83.5 -58t-98 -15.5q-123 0 -176 78.5t-53 249.5q0 101 15.5 200t52 196.5t90 171.5t136 119.5t183.5 45.5q73 0 141.5 -22.5t108.5 -67.5
l4 82q16 8 49 8l18 -14l-139 -1395zM457 45q81 81 156 258t214 604q-118 76 -243 76q-87 0 -166 -35q-107 -91 -169.5 -269.5t-62.5 -377.5q0 -140 36.5 -208t123.5 -68q55 0 111 20z" />
    <glyph glyph-name="r" unicode="r" horiz-adv-x="741" 
d="M745 950l-139 4q-82 -96 -146.5 -280t-197.5 -674q-19 -8 -63 -12l-19 14l96 956l-190 -34l-4 28q137 55 233 68l31 -27l-108 -901l14 -2q57 236 99 387.5t82 267t77.5 175t77 87t90.5 27.5q55 0 78 -30z" />
    <glyph glyph-name="s" unicode="s" horiz-adv-x="749" 
d="M283 954q-74 -58 -74 -151q0 -20 3.5 -38.5t7 -32t16.5 -32t18.5 -27.5t28 -31t30.5 -29.5t40 -36.5t44 -39q122 -110 167.5 -174t45.5 -146q0 -117 -82 -180.5t-209 -63.5q-108 0 -176.5 44.5t-85.5 105.5l29 35l197 -135q126 -3 192 32q33 26 50.5 59.5t17.5 92.5
q0 63 -35 116.5t-148 155.5q-15 14 -45.5 41t-43.5 39t-36.5 34.5t-33.5 36t-24.5 34.5t-20 39t-10.5 40.5t-5 47.5q0 115 83.5 179t209.5 64q89 0 151.5 -33t86.5 -88l-25 -36l-192 108q-93 0 -172 -31z" />
    <glyph glyph-name="t" unicode="t" horiz-adv-x="653" 
d="M610 975v-29l-10 -22h-272q-75 -696 -82 -889q166 0 313 125l19 -27q-54 -65 -148 -108t-172 -43q-44 0 -61 18t-17 63q0 67 26.5 337.5t57.5 519.5l-155 10v39q17 3 163 16q27 203 43 275q21 14 39 14l11 -10l-31 -289h276z" />
    <glyph glyph-name="u" unicode="u" horiz-adv-x="1169" 
d="M1124 164l17 -27q-45 -66 -114.5 -109.5t-133.5 -43.5q-37 0 -52.5 16.5t-15.5 52.5q0 38 11.5 136t40.5 319.5t51 406.5l-15 3q-37 -136 -63 -226.5t-55.5 -187.5t-51.5 -157.5t-48 -123.5t-49.5 -98.5t-51 -68.5t-57 -49t-63 -25t-73.5 -9q-211 0 -211 228
q0 177 99 757l-191 -34l-4 28q136 55 234 68l30 -27q-100 -652 -100 -790q0 -89 34.5 -133.5t117.5 -44.5q49 0 108 16q92 93 165.5 283.5t219.5 683.5q19 8 64 12l18 -14l-98 -969q113 0 237 127z" />
    <glyph glyph-name="v" unicode="v" horiz-adv-x="1017" 
d="M745 1004l33 30q57 -12 104.5 -69.5t47.5 -143.5q0 -68 -29.5 -173.5t-84 -221.5t-122 -218t-154.5 -168.5t-171 -66.5q-34 0 -63.5 11t-57 35.5t-43 72t-15.5 113.5q0 178 99 753l-191 -34l-4 28q136 55 234 68l30 -27q-1 -5 -15.5 -98.5t-19.5 -125.5t-18 -120
t-18.5 -135.5t-13.5 -114.5t-11.5 -113.5t-3.5 -80.5q0 -97 32.5 -138.5t102.5 -41.5q37 0 68 10q133 91 248 297.5t168 488.5z" />
    <glyph glyph-name="w" unicode="w" horiz-adv-x="1597" 
d="M1325 1004l33 30q57 -12 104 -69.5t47 -143.5q0 -68 -29.5 -173.5t-84 -221.5t-122.5 -218t-155 -168.5t-172 -66.5q-73 0 -122.5 51t-49.5 171q0 108 37 286l-14 4q-35 -104 -78 -193t-96 -162t-118 -115t-134 -42q-34 0 -64 11t-57.5 36.5t-43.5 73t-16 113.5
q0 176 99 751l-191 -34l-4 28q136 55 234 68l30 -27q-100 -621 -100 -788q0 -97 32.5 -138.5t102.5 -41.5q33 0 64 8q104 77 196.5 235.5t161.5 388.5q12 80 35 217l22 138q19 8 54 12l16 -14q-17 -174 -72 -371q-30 -249 -30 -420q0 -105 28.5 -149.5t104.5 -44.5
q36 0 67 10q133 92 247.5 298t170.5 488z" />
    <glyph glyph-name="x" unicode="x" horiz-adv-x="999" 
d="M707 37q110 -3 233 127l16 -27q-49 -69 -111 -111t-126 -42q-48 0 -75.5 35t-57.5 114q-64 178 -105 320h-12q-45 -115 -82 -193.5t-79 -145t-85.5 -98.5t-89.5 -32q-38 0 -85 18.5t-68 44.5l12 37l180 -43q113 101 281 461q-10 31 -47 152t-60 192.5t-39 111.5l-201 -34
l-4 28q129 54 234 68l31 -27q52 -130 131 -434h12q80 192 142 294.5t115.5 140.5t123.5 38q46 0 74 -14l6 -43l-189 -39q-94 -94 -258 -426q104 -347 183 -473z" />
    <glyph glyph-name="y" unicode="y" horiz-adv-x="1017" 
d="M745 1004l33 30q61 -16 106.5 -71.5t45.5 -147.5q0 -147 -116.5 -402.5t-262.5 -453.5q-133 -181 -276.5 -288t-241.5 -107q-52 0 -107 28t-86 74l19 29q113 -78 233 -78q94 41 196 128t177 189q-57 264 -134 558.5t-136 465.5l-191 -34l-4 28q128 55 221 68l33 -21
q194 -616 254 -997h12q54 78 103.5 162.5t104.5 194t95.5 230t55.5 230.5z" />
    <glyph glyph-name="z" unicode="z" horiz-adv-x="890" 
d="M725 291l43 -4q2 -41 2 -117q0 -44 -1.5 -69.5t-9 -56.5t-21 -47.5t-39 -28t-62.5 -11.5q-77 0 -211.5 42.5t-253.5 100.5l-92 -129q-24 3 -41 13l-10 12l657 928l-434 39l-41 -207h-45q-14 136 33 268q290 -6 512 -68l55 78q20 0 45 -14l8 -12l-620 -871
q281 -115 477 -121z" />
    <glyph glyph-name="braceleft" unicode="{" horiz-adv-x="579" 
d="M307 477q0 -77 -65.5 -355.5t-75.5 -369.5l192 -45l-6 -41q-131 5 -184 26.5t-53 88.5q0 59 61.5 330.5t79.5 392.5l-162 65l2 52h2l170 67q-4 98 -29 364.5t-22 321.5q4 83 62.5 112.5t187.5 31.5l2 -41l-193 -50q-1 -107 24.5 -373.5t25.5 -316.5q0 -64 -33 -87
t-158 -48v-12q109 -22 140.5 -42.5t31.5 -70.5z" />
    <glyph glyph-name="bar" unicode="|" horiz-adv-x="477" 
d="M283 -246h-56v1782h56v-1782z" />
    <glyph glyph-name="braceright" unicode="}" horiz-adv-x="575" 
d="M498 569l-170 -65q4 -99 29 -369t22 -325q-4 -83 -62.5 -112.5t-187.5 -31.5l-2 41l192 49q0 105 -24.5 374t-24.5 323q0 65 33.5 88.5t157.5 48.5v12q-108 20 -139 41t-31 72q0 79 65.5 353.5t75.5 363.5l-192 45l6 41q129 -5 183 -27t54 -88q0 -60 -62 -329t-79 -386
l158 -67z" />
    <glyph glyph-name="asciitilde" unicode="~" 
d="M1059 692l22 -24q-69 -108 -122.5 -160.5t-110.5 -52.5q-25 0 -61.5 17t-57.5 31.5t-80 57.5q-5 3 -8 5.5t-7.5 5.5t-8.5 6q-89 65 -128 90.5t-81 42.5l-189 -193l-24 23q68 107 122.5 160t112.5 53q39 0 87 -28.5t134 -92.5q85 -62 125 -87.5t86 -45.5z" />
    <glyph glyph-name="uni00A0" unicode="&#xa0;" horiz-adv-x="475" 
 />
    <glyph glyph-name="exclamdown" unicode="&#xa1;" horiz-adv-x="483" 
d="M276 1034q23 0 35 -4q8 -21 8 -53q0 -70 -28 -117h-66l-6 164q27 10 57 10zM223 641h45q-5 -565 -39 -983q-40 -12 -71 -12l-11 10q61 690 76 985z" />
    <glyph glyph-name="cent" unicode="&#xa2;" horiz-adv-x="905" 
d="M571 1092q-22 -263 -36 -465q-24 -274 -41 -482q148 28 276 156l23 -33q-130 -153 -304 -182l-16 -229l-51 -7l-8 9l22 221h-18q-82 0 -142.5 32.5t-94.5 90t-50 127.5t-16 155q0 108 24.5 214.5t72 201.5t128.5 160t184 78l15 223l51 6l8 -8l-23 -219q104 0 187 -51
l2 34q27 9 49 9l18 -13q3 -24 3 -51q0 -141 -25 -287h-45l-2 260q-81 50 -191 50zM432 139h10q3 38 43 488q22 280 35 463q-65 -9 -114 -37q-110 -94 -165 -242.5t-55 -310.5q0 -184 66 -272.5t180 -88.5z" />
    <glyph glyph-name="sterling" unicode="&#xa3;" horiz-adv-x="1009" 
d="M453 1143q-115 -112 -115 -287q0 -75 41 -231h323v-23l-6 -29h-303q25 -98 25 -165q0 -98 -48 -178t-155 -150l4 -10q136 -34 285.5 -52t261.5 -16l72 272l41 -6l1 -20q1 -21 1 -37q0 -69 -21 -144.5t-59 -136.5q-341 12 -602 109l-115 -74l-29 31q-3 46 25.5 66t89.5 20
q85 77 130.5 153.5t45.5 170.5q0 57 -27 167h-208v21l6 31h190q-41 160 -41 235q0 74 24.5 142t69.5 122.5t118 87.5t163 33q102 0 178 -37v15q36 8 47 8l19 -14v-46q0 -125 -23 -274h-43l-2 270q-82 27 -172 27q-106 0 -192 -51z" />
    <glyph glyph-name="currency" unicode="&#xa4;" horiz-adv-x="1044" 
d="M856 627q0 -152 -92 -262l145 -177l-47 -43l-143 174q-94 -75 -215 -75q-129 0 -211 82l-178 -176l-41 43l182 178q-55 79 -55 192q0 152 100 260l-147 181l47 43l147 -179q95 76 215 76q122 0 201 -76l180 174l39 -43l-182 -178q55 -79 55 -194zM631 322
q151 100 151 309q0 121 -58.5 190.5t-162.5 69.5q-68 0 -129 -25q-74 -48 -115 -128t-41 -181q0 -121 61.5 -190.5t164.5 -69.5q56 0 129 25z" />
    <glyph glyph-name="yen" unicode="&#xa5;" horiz-adv-x="1216" 
d="M1217 1219v-41q-117 -19 -193 -21q-105 -218 -262 -483h244v-21l-7 -28h-268l-86 -140l-8 -98h340v-22l-6 -29h-336l-21 -287l236 -6v-20l-2 -23h-533v41q122 17 228 20l20 275h-338v20l6 31h334l8 107l-51 131h-266v20l6 29h242q-35 90 -102.5 256t-96.5 239l-155 7v20
l2 23h409v-41q-103 -16 -176 -21q89 -220 233 -606h11q180 278 342 618l-162 7v20l2 23h406z" />
    <glyph glyph-name="brokenbar" unicode="&#xa6;" horiz-adv-x="477" 
d="M283 942h-56v594h56v-594zM283 -246h-56v594h56v-594z" />
    <glyph glyph-name="section" unicode="&#xa7;" horiz-adv-x="907" 
d="M831 401q0 -86 -58 -149t-163 -96q56 -85 56 -174q0 -119 -80.5 -187.5t-208.5 -68.5q-108 0 -175 51t-67 145q0 46 23 94h45l28 -209q71 -30 144 -30q85 0 153 30q30 24 50 67t20 97q0 75 -49.5 148t-175.5 194q-149 144 -185 184q-91 104 -101 191q-1 12 -1 25
q0 86 58 149t163 96q-55 83 -55 175q0 119 80.5 187.5t208.5 68.5q108 0 174.5 -51.5t66.5 -145.5q0 -48 -22 -94h-45l-29 209q-70 30 -143 30q-86 0 -154 -30q-30 -24 -50 -67t-20 -97q0 -75 50 -148t176 -194q12 -11 34 -32q139 -135 182 -190q70 -91 70 -178zM590 184
q84 42 129 89.5t45 123.5q0 30 -9.5 57.5t-24 52.5t-56 69.5t-79 82t-120.5 117.5q-95 88 -147 154q-84 -42 -129 -89.5t-45 -123.5q0 -25 4.5 -45.5t20 -47.5t31.5 -48.5t55.5 -62.5t74 -75t102.5 -100q99 -92 148 -154z" />
    <glyph glyph-name="dieresis" unicode="&#xa8;" horiz-adv-x="577" 
d="M219 1446q21 0 29 -4q10 -27 10 -53q0 -51 -20 -97h-62l-8 144q23 10 51 10zM578 1446q20 0 30 -4q10 -27 10 -51q0 -57 -22 -99h-61l-9 144q23 10 52 10z" />
    <glyph glyph-name="copyright" unicode="&#xa9;" horiz-adv-x="1613" 
d="M866 1389q287 0 465 -179t178 -485q0 -160 -53 -299.5t-146.5 -239t-228.5 -156.5t-293 -57q-192 0 -338 82t-226 232.5t-81 349.5q0 212 89.5 383t255 270t378.5 99zM788 20q140 0 263 52.5t210.5 144.5t138 223t50.5 283q0 191 -79 332.5t-212.5 213.5t-302.5 72
q-140 0 -261.5 -52t-208 -143.5t-136 -221t-49.5 -279.5q0 -144 45 -263t123.5 -197.5t186 -121.5t232.5 -43zM768 999q-158 -139 -158 -393q0 -132 49 -202t138 -70q129 0 258 129l18 -29q-63 -79 -140.5 -115t-152.5 -36q-122 0 -180.5 88t-58.5 223q0 85 22 169t64 156
t112 117t156 45q71 0 127 -28.5t74 -81.5l-27 -33l-156 92q-68 2 -145 -31z" />
    <glyph glyph-name="ordfeminine" unicode="&#xaa;" horiz-adv-x="788" 
d="M782 567l15 -22q-32 -47 -85.5 -78t-99.5 -31q-26 0 -37.5 11.5t-11.5 37.5q0 15 3 42.5t10 77t13.5 96t20 135.5t23.5 159l-15 2q-43 -148 -71 -234.5t-58.5 -159t-59.5 -106t-64 -50.5t-82 -17q-92 0 -131 54t-39 173q0 69 11 137.5t36.5 136t63.5 118.5t96 82.5
t129 31.5q113 0 178 -65l4 59q15 6 45 6l12 -10l-70 -672q87 0 164 86zM369 492q51 60 103 183t142 392q-74 49 -163 49q-65 0 -117 -24q-73 -62 -114.5 -180t-41.5 -253q0 -96 24.5 -138t84.5 -42q35 0 82 13z" />
    <glyph glyph-name="guillemotleft" unicode="&#xab;" horiz-adv-x="923" 
d="M801 897l-242 -334l176 -340l-37 -24l-217 350v22l289 355zM446 897l-241 -334l176 -340l-37 -24l-217 350v22l289 355z" />
    <glyph glyph-name="logicalnot" unicode="&#xac;" 
d="M987 608l-41 -409h-61l37 372h-715v25l6 35h756z" />
    <glyph glyph-name="uni00AD" unicode="&#xad;" horiz-adv-x="675" 
d="M569 606l-8 -35h-434v25l6 35h436v-25z" />
    <glyph glyph-name="registered" unicode="&#xae;" horiz-adv-x="1222" 
d="M688 1479q216 0 345.5 -131.5t129.5 -348.5q0 -231 -145.5 -376.5t-374.5 -145.5q-218 0 -347.5 132.5t-129.5 348.5q0 228 145.5 374.5t376.5 146.5zM684 1432q-202 0 -332.5 -129.5t-130.5 -341.5q0 -199 115.5 -319t306.5 -120q201 0 333 129.5t132 343.5
q0 201 -116.5 319t-307.5 118zM659 1251q107 0 152 -33.5t45 -97.5q0 -119 -131 -172q77 -154 109 -196l71 14l6 -29q-43 -26 -73 -26q-24 0 -40.5 12.5t-33.5 38.5q-37 57 -84 178h-88l-14 -182l86 -10v-15l-2 -16h-220v31q47 11 82 14l35 446l-82 2v17l4 16q84 8 178 8z
M610 1214l-16 -235h115q45 29 67.5 58.5t22.5 76.5q0 100 -129 100h-60z" />
    <glyph glyph-name="macron" unicode="&#xaf;" horiz-adv-x="534" 
d="M166 1382h403l1 -6q1 -6 1 -12q0 -19 -8 -39h-403l-1 7q-1 6 -1 11q0 23 8 39z" />
    <glyph glyph-name="degree" unicode="&#xb0;" horiz-adv-x="681" 
d="M436 1501q114 0 187 -77.5t73 -192.5q0 -124 -83 -208.5t-203 -84.5q-116 0 -189.5 77.5t-73.5 192.5q0 124 84 208.5t205 84.5zM430 1450q-58 0 -121 -29q-45 -28 -73.5 -84.5t-28.5 -124.5q0 -97 57 -160t150 -63q58 0 121 29q45 28 73.5 84.5t28.5 124.5
q0 96 -58 159.5t-149 63.5z" />
    <glyph glyph-name="plusminus" unicode="&#xb1;" 
d="M715 1047l-37 -365h356v-25l-6 -32h-356l-37 -373h-45l-17 8l37 365h-358v22l6 35h358l37 373h45zM971 35l-6 -35h-772v23l6 34h772v-22z" />
    <glyph glyph-name="twosuperior" unicode="&#xb2;" horiz-adv-x="550" 
d="M498 954l37 -4q4 -16 4 -47q0 -55 -23 -112h-31q-180 0 -335 38l-50 -34q-16 3 -26 16l-2 10q10 8 50 38l56 42t54 42.5t56 47.5t50.5 47.5t49 51.5t38.5 51t32.5 55.5t18.5 55t8 57.5q0 71 -42.5 105t-102.5 34q-63 0 -103 -32.5t-40 -94.5q0 -41 20 -80l-29 -12
q-43 52 -43 102q0 73 57 121.5t148 48.5q93 0 147 -53t54 -135q0 -48 -19 -96.5t-50 -91t-80 -90t-98 -87t-116 -88.5l285 -12z" />
    <glyph glyph-name="threesuperior" unicode="&#xb3;" horiz-adv-x="563" 
d="M406 1167v-12q126 -29 126 -147q0 -98 -78 -157.5t-204 -59.5q-86 0 -150 26l4 31q59 -12 121 -12q109 0 174.5 44.5t65.5 127.5q0 107 -127 129q-52 -14 -84 -17l-10 8l-1 8q-1 7 -1 13q0 3 1 9t1 7q27 11 80 11q20 0 28 -2q125 58 125 159q0 61 -38.5 89t-102.5 28
q-73 0 -110.5 -35t-37.5 -86v-33l-28 -2q-19 36 -19 62q0 61 57.5 103t149.5 42q93 0 146 -44.5t53 -115.5q0 -69 -44 -112.5t-97 -61.5z" />
    <glyph glyph-name="acute" unicode="&#xb4;" horiz-adv-x="411" 
d="M397 1571h21q33 -13 49 -45l-283 -352h-47z" />
    <glyph glyph-name="mu" unicode="&#xb5;" horiz-adv-x="1169" 
d="M1124 164l17 -27q-45 -66 -114.5 -109.5t-133.5 -43.5q-37 0 -52.5 16.5t-15.5 52.5q0 38 11.5 136t40.5 319.5t51 406.5l-15 3q-34 -123 -57 -205t-50.5 -173.5t-47 -149t-44 -120.5t-44 -99.5t-44 -74.5t-48 -57.5t-52 -36.5t-59 -23t-66.5 -6q-75 0 -114.5 30.5
t-53.5 98.5l-12 -2q-1 -59 0.5 -270t-2.5 -258q-19 -8 -63 -8l-13 10q20 380 62 757t84 627l-191 -34l-4 28q136 55 234 68l30 -27q-32 -206 -62 -452.5t-30 -343.5q0 -86 31 -129t113 -43q49 0 108 16q92 93 165.5 283.5t219.5 683.5q19 8 64 12l18 -14l-98 -969
q113 0 237 127z" />
    <glyph glyph-name="paragraph" unicode="&#xb6;" horiz-adv-x="1124" 
d="M596 537h-57q-430 0 -430 370q0 205 126 330t361 125h61zM1110 1362v-41q-108 -16 -186 -21l-80 -1071q-27 -399 -381 -399q-92 0 -179.5 26.5t-150.5 80.5l25 36q135 -88 291 -88q71 0 126.5 16.5t101.5 54.5t74 106t35 165l84 1135h240z" />
    <glyph glyph-name="periodcentered" unicode="&#xb7;" horiz-adv-x="428" 
d="M238 686q22 0 34 -2q9 -27 9 -55q0 -74 -29 -123h-66l-6 172q32 8 58 8z" />
    <glyph glyph-name="cedilla" unicode="&#xb8;" horiz-adv-x="458" 
d="M182 12l-18 -168q70 -8 106.5 -34t36.5 -82q0 -68 -52.5 -116t-137.5 -48q-48 0 -90 15.5t-66 39.5l14 33q76 -37 131 -37q61 0 100.5 31.5t39.5 81.5q0 42 -33 60t-107 32l35 192h41z" />
    <glyph glyph-name="onesuperior" unicode="&#xb9;" horiz-adv-x="440" 
d="M457 836v-15l-2 -16h-332v31q81 11 139 14l43 553q-64 -33 -137 -39l-2 18l2 23q115 12 180 96l27 -6l-51 -655z" />
    <glyph glyph-name="ordmasculine" unicode="&#xba;" horiz-adv-x="675" 
d="M410 1163q78 0 131 -40.5t75.5 -103t22.5 -142.5q0 -51 -9 -107t-31.5 -117.5t-56.5 -110t-89 -80.5t-123 -32q-113 0 -170.5 81t-57.5 206q0 51 9 107t32 118t56.5 110t88.5 79.5t122 31.5zM406 1116q-45 0 -107 -20q-69 -63 -102 -164t-33 -207q0 -129 49 -188.5
t125 -59.5q48 0 102 21q71 61 104.5 162t33.5 206q0 131 -47.5 190.5t-124.5 59.5z" />
    <glyph glyph-name="guillemotright" unicode="&#xbb;" horiz-adv-x="925" 
d="M776 575v-22l-289 -354l-30 28l243 334l-176 340l35 25zM422 575v-22l-289 -354l-31 28l244 334l-176 340l35 25z" />
    <glyph glyph-name="onequarter" unicode="&#xbc;" horiz-adv-x="1406" 
d="M1227 1366l4 -14q-356 -490 -475 -658q-90 -127 -257.5 -368.5t-242.5 -348.5l-39 19l-6 14q287 393 506 701q71 101 227.5 326.5t243.5 346.5zM485 578v-15l-2 -18h-389v33q68 12 168 16l60 692q-72 -46 -168 -59l-2 20l2 23q136 19 213 119l24 -7l-65 -796zM1358 246
v-17l-4 -28h-144q-6 -68 -14 -201h-61q8 133 14 201h-332l-14 32q144 258 194 368q25 56 43 106l-34 137l45 14q23 -18 36 -52.5t13 -66.5q0 -57 -55 -166.5t-191 -322.5l2 -10q79 6 160 6h137q4 54 27 227q22 16 49 21l12 -11q-17 -132 -27 -237h144z" />
    <glyph glyph-name="onehalf" unicode="&#xbd;" horiz-adv-x="1499" 
d="M1227 1366l4 -14q-356 -490 -475 -658q-90 -127 -257.5 -368.5t-242.5 -348.5l-39 19l-6 14q287 393 506 701q71 101 227.5 326.5t243.5 346.5zM485 578v-15l-2 -18h-389v33q68 12 168 16l60 692q-72 -46 -168 -59l-2 20l2 23q136 19 213 119l24 -7l-65 -796zM1356 166
l39 -4q2 -20 2 -51q0 -65 -25 -138h-37q-203 0 -383 47l-55 -40q-22 9 -29 16l-2 12q58 45 86 67.5t89 73.5t94.5 85t80.5 87.5t72 96.5t43.5 95.5t18.5 100.5q0 86 -49 128t-123 42q-75 0 -122.5 -41.5t-47.5 -121.5q0 -47 24 -99l-26 -12q-48 53 -48 121q0 89 65 148
t169 59t164.5 -59t60.5 -156q0 -240 -426 -572l334 -20z" />
    <glyph glyph-name="threequarters" unicode="&#xbe;" horiz-adv-x="1484" 
d="M1305 1366l4 -14q-356 -490 -475 -658q-90 -127 -257.5 -368.5t-242.5 -348.5l-39 19l-6 14q287 393 506 701q71 101 227.5 326.5t243.5 346.5zM424 985v-12q149 -30 149 -185q0 -126 -88.5 -195t-234.5 -69q-100 0 -174 31l6 33q76 -17 143 -17q279 0 279 217
q0 68 -31.5 108t-107.5 58q-57 -15 -115 -22l-10 8q-4 6 -4 21q0 12 2 16q32 12 96 12h26q74 30 118 75.5t44 123.5q0 81 -48 114t-120 33q-94 0 -139 -44.5t-45 -112.5q0 -7 1 -18t1 -13l-31 -4q-16 29 -16 67q0 79 65.5 129t171.5 50t167 -52t61 -145q0 -48 -16.5 -86
t-43.5 -62t-52.5 -37.5t-53.5 -21.5zM1436 246v-17l-4 -28h-144q-6 -68 -14 -201h-62q6 102 15 201h-332l-14 32q144 258 194 368q25 56 43 106l-35 137l45 14q23 -18 36.5 -52.5t13.5 -66.5q0 -57 -55 -166.5t-191 -322.5l2 -10q80 6 160 6h137q6 73 26 227q21 15 50 21
l12 -11q-17 -132 -27 -237h144z" />
    <glyph glyph-name="questiondown" unicode="&#xbf;" horiz-adv-x="604" 
d="M481 1030q8 -21 8 -53q0 -70 -28 -117h-66l-6 164q27 10 57 10q23 0 35 -4zM324 322q-150 -120 -194 -182t-44 -144q0 -37 6 -78q115 -203 330 -203l-6 -55q-16 -4 -49 -4q-137 0 -233.5 102t-96.5 252q0 106 70 192.5t274 235.5l6 203h43q19 -108 19 -147q0 -54 -19 -80
t-84 -75q-14 -11 -22 -17z" />
    <glyph glyph-name="Agrave" unicode="&#xc0;" horiz-adv-x="1323" 
d="M1262 43v-20l-2 -23h-439v41q99 17 193 20l-96 385h-523q-102 -266 -151 -397l194 -6v-20l-2 -23h-430v41q102 17 180 20q236 612 514 1262l-14 63l14 13q42 0 56 -6q77 -336 336 -1344zM416 500h487q-112 447 -176 739h-12q-142 -336 -299 -739zM737 1481h-47l-137 286
q20 29 57 45h21z" />
    <glyph glyph-name="Aacute" unicode="&#xc1;" horiz-adv-x="1323" 
d="M1262 43v-20l-2 -23h-439v41q99 17 193 20l-96 385h-523q-102 -266 -151 -397l194 -6v-20l-2 -23h-430v41q102 17 180 20q236 612 514 1262l-14 63l14 13q42 0 56 -6q77 -336 336 -1344zM416 500h487q-112 447 -176 739h-12q-142 -336 -299 -739zM913 1829h23
q27 -12 47 -45l-238 -303h-49z" />
    <glyph glyph-name="Acircumflex" unicode="&#xc2;" horiz-adv-x="1323" 
d="M1262 43v-20l-2 -23h-439v41q99 17 193 20l-96 385h-523q-102 -266 -151 -397l194 -6v-20l-2 -23h-430v41q102 17 180 20q236 612 514 1262l-14 63l14 13q42 0 56 -6q77 -336 336 -1344zM416 500h487q-112 447 -176 739h-12q-142 -336 -299 -739zM973 1503l-49 -30
l-172 260h-13l-219 -252h-49l260 321h62z" />
    <glyph glyph-name="Atilde" unicode="&#xc3;" horiz-adv-x="1323" 
d="M1262 43v-20l-2 -23h-439v41q99 17 193 20l-96 385h-523q-102 -266 -151 -397l194 -6v-20l-2 -23h-430v41q102 17 180 20q236 612 514 1262l-14 63l14 13q42 0 56 -6q77 -336 336 -1344zM416 500h487q-112 447 -176 739h-12q-142 -336 -299 -739zM973 1702l24 -25
q-38 -78 -72 -116.5t-73 -38.5q-33 0 -82 37l-158 114l-112 -127l-25 23q37 77 71.5 117t74.5 40q35 0 84 -36l155 -113z" />
    <glyph glyph-name="Adieresis" unicode="&#xc4;" horiz-adv-x="1323" 
d="M1262 43v-20l-2 -23h-439v41q99 17 193 20l-96 385h-523q-102 -266 -151 -397l194 -6v-20l-2 -23h-430v41q102 17 180 20q236 612 514 1262l-14 63l14 13q42 0 56 -6q77 -336 336 -1344zM416 500h487q-112 447 -176 739h-12q-142 -336 -299 -739zM969 1722q20 0 30 -2
q9 -24 9 -53q0 -54 -21 -98h-61l-8 145q24 8 51 8zM526 1722q23 0 33 -2q8 -21 8 -53q0 -56 -20 -98h-64l-10 145q28 8 53 8z" />
    <glyph glyph-name="Aring" unicode="&#xc5;" horiz-adv-x="1323" 
d="M1262 43v-20l-2 -23h-439v41q99 17 193 20l-96 385h-523q-102 -266 -151 -397l194 -6v-20l-2 -23h-430v41q102 17 180 20q236 612 514 1262l-14 63l14 13q42 0 56 -6q77 -336 336 -1344zM416 500h487q-112 447 -176 739h-12q-142 -336 -299 -739zM760 1839
q70 0 115 -40.5t45 -119.5q0 -93 -60.5 -146.5t-146.5 -53.5q-70 0 -114 38t-44 117q0 95 60.5 150t144.5 55zM754 1792q-48 0 -82 -18q-58 -51 -58 -136q0 -114 107 -114q44 0 82 20q57 50 57 135q0 113 -106 113z" />
    <glyph glyph-name="AE" unicode="&#xc6;" horiz-adv-x="1759" 
d="M1642 1386l17 -12q4 -32 4 -51q0 -113 -27 -252h-45l-2 234l-542 10l-46 -629l398 8l6 -20l-6 -41l-402 6l-43 -592l533 -10l47 266l47 -2q4 -50 4 -96q0 -90 -31 -228h-2l-22 -2l-600 25h-238v41q86 14 191 20l26 369h-489q-74 -125 -217 -381l200 -6v-20l-4 -23h-407
v41q89 18 153 20q357 636 756 1252l-176 6v20l2 23h862v12q27 12 53 12zM913 483l62 832h-19q-264 -415 -505 -832h462z" />
    <glyph glyph-name="Ccedilla" unicode="&#xc7;" horiz-adv-x="1122" 
d="M492 1280q-87 -63 -152 -182.5t-97 -258.5t-32 -278q0 -270 99 -398t268 -128q97 0 200.5 49.5t179.5 128.5l23 -35q-155 -184 -375 -203l-14 -131q70 -8 106.5 -34t36.5 -82q0 -68 -52.5 -116t-137.5 -48q-48 0 -90 15.5t-66 39.5l14 33q76 -37 132 -37q61 0 100 31.5
t39 81.5q0 42 -32.5 60t-106.5 32l26 153q-146 1 -243 76t-140 202.5t-43 305.5q0 82 12 169t38 183t72 180t108.5 152t154 108t201.5 40q137 0 244 -60l2 35q24 8 49 8l18 -14q2 -14 2 -49q0 -154 -24 -308h-45l-2 279q-109 53 -248 53q-124 0 -225 -53z" />
    <glyph glyph-name="Egrave" unicode="&#xc8;" horiz-adv-x="1161" 
d="M1047 1386l16 -12q4 -32 4 -51q0 -113 -27 -252h-45l-2 234l-549 10l-45 -629l402 8l6 -20l-6 -41l-406 6l-41 -592l535 -10l47 266l47 -2q4 -50 4 -98q0 -88 -31 -226h-2l-20 -2l-600 25h-240v41q86 14 191 20l90 1246l-189 6v20l4 23q231 6 467 6h336v12q27 12 54 12z
M684 1481h-47l-137 286q20 29 57 45h21z" />
    <glyph glyph-name="Eacute" unicode="&#xc9;" horiz-adv-x="1161" 
d="M1047 1386l16 -12q4 -32 4 -51q0 -113 -27 -252h-45l-2 234l-549 10l-45 -629l402 8l6 -20l-6 -41l-406 6l-41 -592l535 -10l47 266l47 -2q4 -50 4 -98q0 -88 -31 -226h-2l-20 -2l-600 25h-240v41q86 14 191 20l90 1246l-189 6v20l4 23q231 6 467 6h336v12q27 12 54 12z
M860 1829h23q27 -12 47 -45l-238 -303h-49z" />
    <glyph glyph-name="Ecircumflex" unicode="&#xca;" horiz-adv-x="1161" 
d="M1047 1386l16 -12q4 -32 4 -51q0 -113 -27 -252h-45l-2 234l-549 10l-45 -629l402 8l6 -20l-6 -41l-406 6l-41 -592l535 -10l47 266l47 -2q4 -50 4 -98q0 -88 -31 -226h-2l-20 -2l-600 25h-240v41q86 14 191 20l90 1246l-189 6v20l4 23q231 6 467 6h336v12q27 12 54 12z
M920 1503l-50 -30l-172 260h-12l-219 -252h-49l260 321h61z" />
    <glyph glyph-name="Edieresis" unicode="&#xcb;" horiz-adv-x="1161" 
d="M1047 1386l16 -12q4 -32 4 -51q0 -113 -27 -252h-45l-2 234l-549 10l-45 -629l402 8l6 -20l-6 -41l-406 6l-41 -592l535 -10l47 266l47 -2q4 -50 4 -98q0 -88 -31 -226h-2l-20 -2l-600 25h-240v41q86 14 191 20l90 1246l-189 6v20l4 23q231 6 467 6h336v12q27 12 54 12z
M915 1722q21 0 31 -2q8 -21 8 -53q0 -56 -20 -98h-62l-8 145q24 8 51 8zM473 1722q23 0 33 -2q8 -21 8 -53q0 -56 -20 -98h-64l-10 145q28 8 53 8z" />
    <glyph glyph-name="Igrave" unicode="&#xcc;" horiz-adv-x="686" 
d="M635 1362v-41q-112 -18 -193 -21l-92 -1251l189 -6v-20l-4 -23h-445v41q105 17 193 20l90 1252l-187 6v20l2 23h447zM436 1481h-47l-137 286q20 29 57 45h21z" />
    <glyph glyph-name="Iacute" unicode="&#xcd;" horiz-adv-x="686" 
d="M635 1362v-41q-112 -18 -193 -21l-92 -1251l189 -6v-20l-4 -23h-445v41q105 17 193 20l90 1252l-187 6v20l2 23h447zM612 1829h23q27 -12 47 -45l-238 -303h-49z" />
    <glyph glyph-name="Icircumflex" unicode="&#xce;" horiz-adv-x="686" 
d="M635 1362v-41q-112 -18 -193 -21l-92 -1251l189 -6v-20l-4 -23h-445v41q105 17 193 20l90 1252l-187 6v20l2 23h447zM672 1503l-49 -30l-172 260h-13l-219 -252h-49l260 321h62z" />
    <glyph glyph-name="Idieresis" unicode="&#xcf;" horiz-adv-x="686" 
d="M635 1362v-41q-112 -18 -193 -21l-92 -1251l189 -6v-20l-4 -23h-445v41q105 17 193 20l90 1252l-187 6v20l2 23h447zM262 1722q23 0 31 -2q10 -27 10 -55q0 -54 -22 -96h-62l-8 145q28 8 51 8zM612 1722q21 0 31 -2q10 -27 10 -55q0 -54 -22 -96h-62l-8 145q24 8 51 8z
" />
    <glyph glyph-name="Eth" unicode="&#xd0;" horiz-adv-x="1300" 
d="M629 1368q571 0 571 -594q0 -71 -7.5 -140.5t-28 -148t-52 -146.5t-83.5 -131.5t-118.5 -108.5t-161.5 -72t-208 -27h-435v41q86 14 191 20l45 619h-186v18l6 33h184l43 576l-188 8v18l4 23q192 12 424 12zM874 137q127 101 188.5 269t61.5 366q0 280 -121 412.5
t-366 132.5l-178 -2l-43 -584h301v-20l-6 -31h-299l-45 -627h155q207 0 352 84z" />
    <glyph glyph-name="Ntilde" unicode="&#xd1;" horiz-adv-x="1445" 
d="M1413 1362v-41q-113 -18 -192 -21l-97 -1300q-27 -14 -59 -20h-21l-489 1058q-95 202 -119 265h-12l-86 -1254l207 -6v-20l-2 -23h-453v41q104 17 193 20l92 1246l-191 8v18l2 23q147 6 293 6l465 -1002q90 -193 123 -284h12l84 1237l-192 6v20l2 23h440zM1063 1702
l24 -25q-38 -78 -72 -116.5t-73 -38.5q-33 0 -82 37l-158 114l-112 -127l-25 23q37 77 71.5 117t74.5 40q35 0 84 -36l155 -113z" />
    <glyph glyph-name="Ograve" unicode="&#xd2;" horiz-adv-x="1277" 
d="M717 1389q116 0 206.5 -45t146 -124.5t84 -183t28.5 -225.5q0 -69 -8 -143.5t-28.5 -157.5t-50.5 -159t-77.5 -145.5t-106.5 -120.5t-140 -81.5t-175 -30.5q-115 0 -204 44t-144.5 123.5t-84 184t-28.5 230.5q0 70 8 144t27.5 156.5t49.5 158t77 144.5t105.5 120
t139.5 81t175 30zM709 1333q-116 0 -217 -53q-131 -94 -206 -297.5t-75 -421.5q0 -253 106 -392.5t289 -139.5q116 0 217 53q131 95 207 298.5t76 420.5q0 253 -107 392.5t-290 139.5zM752 1481h-47l-138 286q20 28 58 45h20z" />
    <glyph glyph-name="Oacute" unicode="&#xd3;" horiz-adv-x="1277" 
d="M717 1389q116 0 206.5 -45t146 -124.5t84 -183t28.5 -225.5q0 -69 -8 -143.5t-28.5 -157.5t-50.5 -159t-77.5 -145.5t-106.5 -120.5t-140 -81.5t-175 -30.5q-115 0 -204 44t-144.5 123.5t-84 184t-28.5 230.5q0 70 8 144t27.5 156.5t49.5 158t77 144.5t105.5 120
t139.5 81t175 30zM709 1333q-116 0 -217 -53q-131 -94 -206 -297.5t-75 -421.5q0 -253 106 -392.5t289 -139.5q116 0 217 53q131 95 207 298.5t76 420.5q0 253 -107 392.5t-290 139.5zM928 1829h22q27 -12 47 -45l-237 -303h-49z" />
    <glyph glyph-name="Ocircumflex" unicode="&#xd4;" horiz-adv-x="1277" 
d="M717 1389q116 0 206.5 -45t146 -124.5t84 -183t28.5 -225.5q0 -69 -8 -143.5t-28.5 -157.5t-50.5 -159t-77.5 -145.5t-106.5 -120.5t-140 -81.5t-175 -30.5q-115 0 -204 44t-144.5 123.5t-84 184t-28.5 230.5q0 70 8 144t27.5 156.5t49.5 158t77 144.5t105.5 120
t139.5 81t175 30zM709 1333q-116 0 -217 -53q-131 -94 -206 -297.5t-75 -421.5q0 -253 106 -392.5t289 -139.5q116 0 217 53q131 95 207 298.5t76 420.5q0 253 -107 392.5t-290 139.5zM987 1503l-49 -30l-172 260h-12l-219 -252h-50l260 321h62z" />
    <glyph glyph-name="Otilde" unicode="&#xd5;" horiz-adv-x="1277" 
d="M717 1389q116 0 206.5 -45t146 -124.5t84 -183t28.5 -225.5q0 -69 -8 -143.5t-28.5 -157.5t-50.5 -159t-77.5 -145.5t-106.5 -120.5t-140 -81.5t-175 -30.5q-115 0 -204 44t-144.5 123.5t-84 184t-28.5 230.5q0 70 8 144t27.5 156.5t49.5 158t77 144.5t105.5 120
t139.5 81t175 30zM709 1333q-116 0 -217 -53q-131 -94 -206 -297.5t-75 -421.5q0 -253 106 -392.5t289 -139.5q116 0 217 53q131 95 207 298.5t76 420.5q0 253 -107 392.5t-290 139.5zM987 1702l25 -25q-38 -77 -72.5 -116t-73.5 -39q-33 0 -82 37l-157 114l-113 -127
l-25 23q37 77 71.5 117t74.5 40q35 0 84 -36l155 -113z" />
    <glyph glyph-name="Odieresis" unicode="&#xd6;" horiz-adv-x="1277" 
d="M717 1389q116 0 206.5 -45t146 -124.5t84 -183t28.5 -225.5q0 -69 -8 -143.5t-28.5 -157.5t-50.5 -159t-77.5 -145.5t-106.5 -120.5t-140 -81.5t-175 -30.5q-115 0 -204 44t-144.5 123.5t-84 184t-28.5 230.5q0 70 8 144t27.5 156.5t49.5 158t77 144.5t105.5 120
t139.5 81t175 30zM709 1333q-116 0 -217 -53q-131 -94 -206 -297.5t-75 -421.5q0 -253 106 -392.5t289 -139.5q116 0 217 53q131 95 207 298.5t76 420.5q0 253 -107 392.5t-290 139.5zM983 1722q21 0 31 -2q8 -21 8 -53q0 -54 -21 -98h-61l-8 145q24 8 51 8zM541 1722
q22 0 32 -2q9 -24 9 -53q0 -54 -21 -98h-63l-11 145q28 8 54 8z" />
    <glyph glyph-name="multiply" unicode="&#xd7;" 
d="M1065 973l6 -17l-389 -356l326 -356l-17 -23l-26 -18l-326 358l-389 -358l-31 28l-6 17l387 354l-324 354l13 25l28 18l326 -356l389 358z" />
    <glyph glyph-name="Oslash" unicode="&#xd8;" horiz-adv-x="1277" 
d="M1223 1479l-166 -244q125 -155 125 -424q0 -69 -8 -143.5t-28.5 -157.5t-50.5 -159t-77.5 -145.5t-106.5 -120.5t-140 -81.5t-175 -30.5q-185 0 -303 115l-156 -235l-39 16l-4 14l164 244q-123 156 -123 428q0 70 8 144t27.5 156.5t49.5 158t77 144.5t105.5 120t139.5 81
t175 30q187 0 305 -115l158 235l37 -16zM492 1280q-131 -94 -206 -297.5t-75 -421.5q0 -234 92 -371l676 1027q-104 116 -270 116q-116 0 -217 -53zM823 82q131 95 207 298.5t76 420.5q0 232 -94 375l-678 -1029q106 -118 272 -118q116 0 217 53z" />
    <glyph glyph-name="Ugrave" unicode="&#xd9;" horiz-adv-x="1368" 
d="M1354 1362v-41q-111 -18 -201 -21q-4 -176 -19.5 -427.5t-29.5 -374.5q-29 -273 -130.5 -399t-314.5 -126q-198 0 -296.5 106t-98.5 324q0 168 64 910l-189 6v20l2 23h461v-41q-114 -18 -205 -21q-63 -715 -63 -909t87 -278t247 -84q140 0 235 65q62 65 95 161t51 251
q18 161 51 807l-205 6v20l2 23h457zM784 1481h-47l-137 286q20 29 57 45h21z" />
    <glyph glyph-name="Uacute" unicode="&#xda;" horiz-adv-x="1368" 
d="M1354 1362v-41q-111 -18 -201 -21q-4 -176 -19.5 -427.5t-29.5 -374.5q-29 -273 -130.5 -399t-314.5 -126q-198 0 -296.5 106t-98.5 324q0 168 64 910l-189 6v20l2 23h461v-41q-114 -18 -205 -21q-63 -715 -63 -909t87 -278t247 -84q140 0 235 65q62 65 95 161t51 251
q18 161 51 807l-205 6v20l2 23h457zM961 1829h22q27 -12 47 -45l-237 -303h-50z" />
    <glyph glyph-name="Ucircumflex" unicode="&#xdb;" horiz-adv-x="1368" 
d="M1354 1362v-41q-111 -18 -201 -21q-4 -176 -19.5 -427.5t-29.5 -374.5q-29 -273 -130.5 -399t-314.5 -126q-198 0 -296.5 106t-98.5 324q0 168 64 910l-189 6v20l2 23h461v-41q-114 -18 -205 -21q-63 -715 -63 -909t87 -278t247 -84q140 0 235 65q62 65 95 161t51 251
q18 161 51 807l-205 6v20l2 23h457zM1020 1503l-49 -30l-172 260h-13l-219 -252h-49l260 321h62z" />
    <glyph glyph-name="Udieresis" unicode="&#xdc;" horiz-adv-x="1368" 
d="M1354 1362v-41q-111 -18 -201 -21q-4 -176 -19.5 -427.5t-29.5 -374.5q-29 -273 -130.5 -399t-314.5 -126q-198 0 -296.5 106t-98.5 324q0 168 64 910l-189 6v20l2 23h461v-41q-114 -18 -205 -21q-63 -715 -63 -909t87 -278t247 -84q140 0 235 65q62 65 95 161t51 251
q18 161 51 807l-205 6v20l2 23h457zM1016 1722q21 0 31 -2q8 -21 8 -53q0 -54 -21 -98h-61l-8 145q24 8 51 8zM573 1722q23 0 33 -2q8 -21 8 -53q0 -56 -20 -98h-64l-10 145q28 8 53 8z" />
    <glyph glyph-name="Yacute" unicode="&#xdd;" horiz-adv-x="1185" 
d="M1047 1300q-160 -369 -416 -813l-31 -438l229 -6v-20l-4 -23h-524v41q123 17 227 20l31 433q-145 411 -305 819l-154 6v20l2 23h443v-41q-87 -14 -209 -21q113 -307 268 -747h10q226 392 375 760l-198 6v20l2 23h426v-41q-117 -19 -172 -21zM858 1829h23q27 -12 47 -45
l-238 -303h-49z" />
    <glyph glyph-name="Thorn" unicode="&#xde;" horiz-adv-x="1103" 
d="M430 1122h170q412 0 412 -364q0 -210 -111.5 -329.5t-300.5 -119.5q-36 0 -98 8v43q100 2 162.5 11.5t130.5 38.5q139 127 139 338q0 154 -77.5 236.5t-256.5 82.5h-174l-74 -1018l246 -6v-20l-4 -23h-504v41q103 17 193 20l90 1252l-187 6v20l2 23h250l8 -14z" />
    <glyph glyph-name="germandbls" unicode="&#xdf;" horiz-adv-x="1038" 
d="M674 680q151 -141 210.5 -233t59.5 -189q0 -124 -81 -204.5t-212 -80.5q-90 0 -141.5 38.5t-67.5 90.5l29 31l131 -108q122 -6 203 34q74 71 74 183q0 76 -39.5 145.5t-134.5 169.5q-6 6 -19 20.5t-17.5 19.5t-13 16.5t-11.5 18.5t-6 18t-3 22q0 10 1.5 18.5t7 20t9 18.5
t15 26t18.5 31q105 183 156 300.5t51 211.5q0 95 -49 144t-129 49q-86 0 -172 -47q-36 -30 -65.5 -65.5t-62 -94t-55 -147.5t-30.5 -201l-64 -866q-8 -110 -18 -183.5t-28 -139.5t-44 -103.5t-65.5 -58.5t-94.5 -21q-60 0 -120.5 22t-96.5 58l19 34q154 -70 288 -57
q40 55 58.5 147t32.5 279l63 873l-168 10v39q74 10 172 14q13 141 57.5 250.5t109 175.5t140 99.5t156.5 33.5q111 0 174.5 -63t63.5 -179q0 -111 -59.5 -230.5t-217.5 -367.5q-9 -15 -14 -22z" />
    <glyph glyph-name="agrave" unicode="&#xe0;" horiz-adv-x="1095" 
d="M1049 164l18 -27q-47 -66 -116 -109.5t-134 -43.5q-36 0 -51.5 16t-15.5 51t11 120.5t37.5 276t47.5 355.5l-15 2q-51 -175 -87 -287.5t-75.5 -214.5t-72 -158t-73 -98.5t-83.5 -58t-98 -15.5q-123 0 -176 78.5t-53 249.5q0 101 15.5 200t52 196.5t90 171.5t136 119.5
t183.5 45.5q73 0 141.5 -22.5t108.5 -67.5l4 82q16 8 49 8l18 -14l-98 -983q115 0 236 127zM457 45q82 82 158 260.5t212 601.5q-118 76 -243 76q-87 0 -166 -35q-107 -91 -169.5 -269.5t-62.5 -377.5q0 -140 36.5 -208t123.5 -68q55 0 111 20zM645 1174h-47l-188 352
q28 35 57 45h22z" />
    <glyph glyph-name="aacute" unicode="&#xe1;" horiz-adv-x="1095" 
d="M1049 164l18 -27q-47 -66 -116 -109.5t-134 -43.5q-36 0 -51.5 16t-15.5 51t11 120.5t37.5 276t47.5 355.5l-15 2q-51 -175 -87 -287.5t-75.5 -214.5t-72 -158t-73 -98.5t-83.5 -58t-98 -15.5q-123 0 -176 78.5t-53 249.5q0 101 15.5 200t52 196.5t90 171.5t136 119.5
t183.5 45.5q73 0 141.5 -22.5t108.5 -67.5l4 82q16 8 49 8l18 -14l-98 -983q115 0 236 127zM457 45q82 82 158 260.5t212 601.5q-118 76 -243 76q-87 0 -166 -35q-107 -91 -169.5 -269.5t-62.5 -377.5q0 -140 36.5 -208t123.5 -68q55 0 111 20zM856 1571h21q33 -13 49 -45
l-283 -352h-47z" />
    <glyph glyph-name="acircumflex" unicode="&#xe2;" horiz-adv-x="1095" 
d="M1049 164l18 -27q-47 -66 -116 -109.5t-134 -43.5q-36 0 -51.5 16t-15.5 51t11 120.5t37.5 276t47.5 355.5l-15 2q-51 -175 -87 -287.5t-75.5 -214.5t-72 -158t-73 -98.5t-83.5 -58t-98 -15.5q-123 0 -176 78.5t-53 249.5q0 101 15.5 200t52 196.5t90 171.5t136 119.5
t183.5 45.5q73 0 141.5 -22.5t108.5 -67.5l4 82q16 8 49 8l18 -14l-98 -983q115 0 236 127zM457 45q82 82 158 260.5t212 601.5q-118 76 -243 76q-87 0 -166 -35q-107 -91 -169.5 -269.5t-62.5 -377.5q0 -140 36.5 -208t123.5 -68q55 0 111 20zM852 1221l-51 -29l-150 285
h-10l-205 -279h-47l242 350h61z" />
    <glyph glyph-name="atilde" unicode="&#xe3;" horiz-adv-x="1095" 
d="M1049 164l18 -27q-47 -66 -116 -109.5t-134 -43.5q-36 0 -51.5 16t-15.5 51t11 120.5t37.5 276t47.5 355.5l-15 2q-51 -175 -87 -287.5t-75.5 -214.5t-72 -158t-73 -98.5t-83.5 -58t-98 -15.5q-123 0 -176 78.5t-53 249.5q0 101 15.5 200t52 196.5t90 171.5t136 119.5
t183.5 45.5q73 0 141.5 -22.5t108.5 -67.5l4 82q16 8 49 8l18 -14l-98 -983q115 0 236 127zM457 45q82 82 158 260.5t212 601.5q-118 76 -243 76q-87 0 -166 -35q-107 -91 -169.5 -269.5t-62.5 -377.5q0 -140 36.5 -208t123.5 -68q55 0 111 20zM860 1442l23 -23
q-22 -46 -40 -75.5t-47.5 -56.5t-60.5 -27q-28 0 -65 32l-146 119l-108 -127l-25 21q21 40 31.5 58t31 47t41.5 41.5t44 12.5q27 0 67 -30l144 -119z" />
    <glyph glyph-name="adieresis" unicode="&#xe4;" horiz-adv-x="1095" 
d="M1049 164l18 -27q-47 -66 -116 -109.5t-134 -43.5q-36 0 -51.5 16t-15.5 51t11 120.5t37.5 276t47.5 355.5l-15 2q-51 -175 -87 -287.5t-75.5 -214.5t-72 -158t-73 -98.5t-83.5 -58t-98 -15.5q-123 0 -176 78.5t-53 249.5q0 101 15.5 200t52 196.5t90 171.5t136 119.5
t183.5 45.5q73 0 141.5 -22.5t108.5 -67.5l4 82q16 8 49 8l18 -14l-98 -983q115 0 236 127zM457 45q82 82 158 260.5t212 601.5q-118 76 -243 76q-87 0 -166 -35q-107 -91 -169.5 -269.5t-62.5 -377.5q0 -140 36.5 -208t123.5 -68q55 0 111 20zM467 1446q21 0 29 -4
q10 -27 10 -53q0 -49 -21 -97h-61l-8 144q23 10 51 10zM825 1446q19 0 29 -4q10 -27 10 -51q0 -57 -22 -99h-62l-8 144q23 10 53 10z" />
    <glyph glyph-name="aring" unicode="&#xe5;" horiz-adv-x="1095" 
d="M1049 164l18 -27q-47 -66 -116 -109.5t-134 -43.5q-36 0 -51.5 16t-15.5 51t11 120.5t37.5 276t47.5 355.5l-15 2q-51 -175 -87 -287.5t-75.5 -214.5t-72 -158t-73 -98.5t-83.5 -58t-98 -15.5q-123 0 -176 78.5t-53 249.5q0 101 15.5 200t52 196.5t90 171.5t136 119.5
t183.5 45.5q73 0 141.5 -22.5t108.5 -67.5l4 82q16 8 49 8l18 -14l-98 -983q115 0 236 127zM457 45q82 82 158 260.5t212 601.5q-118 76 -243 76q-87 0 -166 -35q-107 -91 -169.5 -269.5t-62.5 -377.5q0 -140 36.5 -208t123.5 -68q55 0 111 20zM659 1577q72 0 117 -44
t45 -126q0 -99 -60.5 -155t-142.5 -56q-72 0 -116.5 44t-44.5 126q0 99 60 155t142 56zM653 1532q-40 0 -80 -21q-26 -22 -41.5 -61.5t-15.5 -85.5q0 -57 28 -90t79 -33q42 0 82 21q26 22 41.5 61.5t15.5 85.5q0 57 -28 90t-81 33z" />
    <glyph glyph-name="ae" unicode="&#xe6;" horiz-adv-x="1470" 
d="M989 33q81 0 171.5 48.5t164.5 133.5l21 -33q-83 -105 -180 -157t-191 -52q-109 0 -176 68.5t-86 176.5t0 245h-15q-74 -277 -151 -383.5t-209 -106.5q-120 0 -172.5 78.5t-52.5 249.5q0 101 15.5 200t51.5 196.5t90 171.5t137 119.5t185 45.5q82 0 157.5 -29t122.5 -87
q99 116 261 116q120 0 188 -60.5t68 -166.5q0 -75 -37 -135t-97.5 -99.5t-143.5 -67.5t-168 -42t-179 -19l-2 -53q0 -183 61.5 -270.5t165.5 -87.5zM449 41q63 66 116 180.5t84.5 220t77.5 222.5t96 184q18 29 31 47q-136 88 -270 88q-87 0 -166 -35q-107 -91 -169.5 -269.5
t-62.5 -377.5q0 -140 36.5 -208t123.5 -68q44 0 103 16zM969 950q-88 -79 -139 -202t-64 -265q96 12 172.5 27.5t149.5 41.5t121.5 60t78 83t29.5 110q0 86 -56 132t-139 46q-86 0 -153 -33z" />
    <glyph glyph-name="ccedilla" unicode="&#xe7;" horiz-adv-x="839" 
d="M383 946q-107 -95 -161 -244.5t-54 -312.5q0 -181 62 -268.5t165 -87.5q77 0 162 43.5t154 118.5l22 -33q-132 -162 -305 -185l-14 -133q70 -8 106.5 -34t36.5 -82q0 -68 -52.5 -116t-137.5 -48q-48 0 -90 15.5t-66 39.5l14 33q76 -37 131 -37q61 0 100.5 31.5t39.5 81.5
q0 42 -33 60t-107 32l27 153h-2q-77 0 -134 32.5t-89 90t-47 126.5t-15 151q0 71 11 144t32.5 148t58 140.5t84.5 117t115 81.5t146 30q82 0 144 -32t85 -89l-24 -34l-197 106q-98 0 -168 -39z" />
    <glyph glyph-name="egrave" unicode="&#xe8;" horiz-adv-x="876" 
d="M395 33q79 0 169.5 48.5t164.5 133.5l23 -33q-82 -105 -180 -157t-193 -52q-77 0 -134 33t-89 91t-47 128t-15 154q0 78 12.5 161t45.5 173t81.5 160t128 115.5t177.5 45.5q119 0 187.5 -60.5t68.5 -166.5q0 -75 -37.5 -135.5t-97.5 -100t-144 -67.5t-169 -41.5
t-179 -18.5l-2 -49q0 -187 62 -274.5t167 -87.5zM381 950q-92 -78 -145 -201.5t-66 -265.5q553 65 553 324q0 85 -55.5 130.5t-139.5 45.5q-80 0 -147 -33zM545 1174h-47l-189 352q28 34 58 45h22z" />
    <glyph glyph-name="eacute" unicode="&#xe9;" horiz-adv-x="876" 
d="M395 33q79 0 169.5 48.5t164.5 133.5l23 -33q-82 -105 -180 -157t-193 -52q-77 0 -134 33t-89 91t-47 128t-15 154q0 78 12.5 161t45.5 173t81.5 160t128 115.5t177.5 45.5q119 0 187.5 -60.5t68.5 -166.5q0 -75 -37.5 -135.5t-97.5 -100t-144 -67.5t-169 -41.5
t-179 -18.5l-2 -49q0 -187 62 -274.5t167 -87.5zM381 950q-92 -78 -145 -201.5t-66 -265.5q553 65 553 324q0 85 -55.5 130.5t-139.5 45.5q-80 0 -147 -33zM756 1571h20q33 -13 49 -45l-282 -352h-47z" />
    <glyph glyph-name="ecircumflex" unicode="&#xea;" horiz-adv-x="876" 
d="M395 33q79 0 169.5 48.5t164.5 133.5l23 -33q-82 -105 -180 -157t-193 -52q-77 0 -134 33t-89 91t-47 128t-15 154q0 78 12.5 161t45.5 173t81.5 160t128 115.5t177.5 45.5q119 0 187.5 -60.5t68.5 -166.5q0 -75 -37.5 -135.5t-97.5 -100t-144 -67.5t-169 -41.5
t-179 -18.5l-2 -49q0 -187 62 -274.5t167 -87.5zM381 950q-92 -78 -145 -201.5t-66 -265.5q553 65 553 324q0 85 -55.5 130.5t-139.5 45.5q-80 0 -147 -33zM752 1221l-52 -29l-149 285h-10l-205 -279h-47l241 350h62z" />
    <glyph glyph-name="edieresis" unicode="&#xeb;" horiz-adv-x="876" 
d="M395 33q79 0 169.5 48.5t164.5 133.5l23 -33q-82 -105 -180 -157t-193 -52q-77 0 -134 33t-89 91t-47 128t-15 154q0 78 12.5 161t45.5 173t81.5 160t128 115.5t177.5 45.5q119 0 187.5 -60.5t68.5 -166.5q0 -75 -37.5 -135.5t-97.5 -100t-144 -67.5t-169 -41.5
t-179 -18.5l-2 -49q0 -187 62 -274.5t167 -87.5zM381 950q-92 -78 -145 -201.5t-66 -265.5q553 65 553 324q0 85 -55.5 130.5t-139.5 45.5q-80 0 -147 -33zM367 1446q20 0 28 -4q11 -29 11 -53q0 -49 -21 -97h-61l-9 144q23 10 52 10zM725 1446q19 0 29 -4q10 -27 10 -51
q0 -55 -23 -99h-61l-8 144q23 10 53 10z" />
    <glyph glyph-name="igrave" unicode="&#xec;" horiz-adv-x="530" 
d="M315 1020l31 -27q-10 -108 -50 -483t-44 -473q110 0 231 127l19 -27q-47 -66 -116 -109.5t-132 -43.5q-37 0 -52.5 16t-15.5 51t12 165t25.5 257t31.5 289.5t21 195.5l-190 -34l-4 28q137 55 233 68zM344 1174h-45l-182 352q28 35 57 45h23z" />
    <glyph glyph-name="iacute" unicode="&#xed;" horiz-adv-x="530" 
d="M315 1020l31 -27q-10 -108 -50 -483t-44 -473q110 0 231 127l19 -27q-47 -66 -116 -109.5t-132 -43.5q-37 0 -52.5 16t-15.5 51t12 165t25.5 257t31.5 289.5t21 195.5l-190 -34l-4 28q137 55 233 68zM514 1571h21q35 -14 47 -45l-238 -352h-47z" />
    <glyph glyph-name="icircumflex" unicode="&#xee;" horiz-adv-x="530" 
d="M315 1020l31 -27q-10 -108 -50 -483t-44 -473q110 0 231 127l19 -27q-47 -66 -116 -109.5t-132 -43.5q-37 0 -52.5 16t-15.5 51t12 165t25.5 257t31.5 289.5t21 195.5l-190 -34l-4 28q137 55 233 68zM522 1225l-49 -27l-108 277h-13l-176 -273h-47l213 346h61z" />
    <glyph glyph-name="idieresis" unicode="&#xef;" horiz-adv-x="530" 
d="M315 1020l31 -27q-10 -108 -50 -483t-44 -473q110 0 231 127l19 -27q-47 -66 -116 -109.5t-132 -43.5q-37 0 -52.5 16t-15.5 51t12 165t25.5 257t31.5 289.5t21 195.5l-190 -34l-4 28q137 55 233 68zM186 1446q21 0 29 -4q10 -27 10 -53q0 -47 -20 -97h-62l-8 144
q23 10 51 10zM508 1446q19 0 29 -4q10 -23 10 -53q0 -49 -23 -97h-61l-8 144q23 10 53 10z" />
    <glyph glyph-name="eth" unicode="&#xf0;" horiz-adv-x="952" 
d="M795 1507l-201 -131q137 -125 201.5 -302.5t64.5 -375.5q0 -78 -10 -157.5t-30.5 -162.5t-56.5 -155t-83.5 -129t-116.5 -90t-151 -33q-153 0 -234.5 108.5t-81.5 305.5q0 76 11.5 154t42 164t76.5 151.5t122.5 108.5t173.5 43q55 0 103.5 -16t75 -33t61.5 -46l10 4
q-58 262 -229 426l-207 -135l-35 23l-2 10l205 135q-94 81 -223 137l16 33q153 -50 258 -135l203 133l35 -24zM567 55q111 84 166 260.5t55 380.5q0 79 -8 158q-118 98 -262 98q-82 0 -151 -32q-54 -41 -94 -107t-62 -140t-32.5 -146t-10.5 -140q0 -173 65.5 -268.5
t188.5 -95.5q76 0 145 32z" />
    <glyph glyph-name="ntilde" unicode="&#xf1;" horiz-adv-x="1169" 
d="M1112 164l16 -27q-45 -66 -114.5 -109.5t-132.5 -43.5q-37 0 -53.5 16t-16.5 51q0 54 48 361.5t48 398.5q0 85 -34.5 128.5t-116.5 43.5q-50 0 -109 -16q-92 -94 -167 -286.5t-218 -680.5q-19 -8 -63 -12l-19 14l96 956l-190 -34l-4 28q137 55 233 68l31 -27l-108 -901
l14 -2q42 153 70.5 252t61 203.5t57 166.5t54.5 124t56.5 94t61 58.5t70.5 36t81 9.5q106 0 158.5 -57t52.5 -164q0 -90 -48 -396t-53 -380q111 0 238 127zM979 1442l22 -23q-16 -34 -29 -56.5t-32 -49t-41 -40t-45 -13.5q-29 0 -66 32l-145 119l-108 -127l-25 21
q22 42 31.5 58.5t30.5 46.5t41.5 42t43.5 12q28 0 68 -30l143 -119z" />
    <glyph glyph-name="ograve" unicode="&#xf2;" horiz-adv-x="962" 
d="M535 1034q83 0 147.5 -33.5t103.5 -91.5t58.5 -131t19.5 -157q0 -74 -13 -155t-46 -170.5t-81 -160t-126.5 -116.5t-175.5 -46q-108 0 -183.5 57.5t-109 149.5t-33.5 209q0 74 13 155.5t46 170t81 158.5t125.5 115.5t173.5 45.5zM530 983q-74 0 -149 -35
q-108 -92 -160.5 -243t-52.5 -308q0 -192 74.5 -282t191.5 -90q69 0 141 30q77 63 128 161.5t70.5 195t19.5 196.5q0 191 -73.5 283t-189.5 92zM553 1174h-47l-189 352q28 34 58 45h22z" />
    <glyph glyph-name="oacute" unicode="&#xf3;" horiz-adv-x="962" 
d="M535 1034q83 0 147.5 -33.5t103.5 -91.5t58.5 -131t19.5 -157q0 -74 -13 -155t-46 -170.5t-81 -160t-126.5 -116.5t-175.5 -46q-108 0 -183.5 57.5t-109 149.5t-33.5 209q0 74 13 155.5t46 170t81 158.5t125.5 115.5t173.5 45.5zM530 983q-74 0 -149 -35
q-108 -92 -160.5 -243t-52.5 -308q0 -192 74.5 -282t191.5 -90q69 0 141 30q77 63 128 161.5t70.5 195t19.5 196.5q0 191 -73.5 283t-189.5 92zM764 1571h20q34 -14 50 -45l-283 -352h-47z" />
    <glyph glyph-name="ocircumflex" unicode="&#xf4;" horiz-adv-x="962" 
d="M535 1034q83 0 147.5 -33.5t103.5 -91.5t58.5 -131t19.5 -157q0 -74 -13 -155t-46 -170.5t-81 -160t-126.5 -116.5t-175.5 -46q-108 0 -183.5 57.5t-109 149.5t-33.5 209q0 74 13 155.5t46 170t81 158.5t125.5 115.5t173.5 45.5zM530 983q-74 0 -149 -35
q-108 -92 -160.5 -243t-52.5 -308q0 -192 74.5 -282t191.5 -90q69 0 141 30q77 63 128 161.5t70.5 195t19.5 196.5q0 191 -73.5 283t-189.5 92zM760 1221l-51 -29l-150 285h-10l-205 -279h-47l242 350h61z" />
    <glyph glyph-name="otilde" unicode="&#xf5;" horiz-adv-x="962" 
d="M535 1034q83 0 147.5 -33.5t103.5 -91.5t58.5 -131t19.5 -157q0 -74 -13 -155t-46 -170.5t-81 -160t-126.5 -116.5t-175.5 -46q-108 0 -183.5 57.5t-109 149.5t-33.5 209q0 74 13 155.5t46 170t81 158.5t125.5 115.5t173.5 45.5zM530 983q-74 0 -149 -35
q-108 -92 -160.5 -243t-52.5 -308q0 -192 74.5 -282t191.5 -90q69 0 141 30q77 63 128 161.5t70.5 195t19.5 196.5q0 191 -73.5 283t-189.5 92zM768 1442l23 -23q-22 -46 -40 -75.5t-47.5 -56.5t-60.5 -27q-28 0 -65 32l-146 119l-108 -127l-25 21q22 42 31.5 58.5
t30.5 46.5t41.5 42t43.5 12q28 0 68 -30l143 -119z" />
    <glyph glyph-name="odieresis" unicode="&#xf6;" horiz-adv-x="962" 
d="M535 1034q83 0 147.5 -33.5t103.5 -91.5t58.5 -131t19.5 -157q0 -74 -13 -155t-46 -170.5t-81 -160t-126.5 -116.5t-175.5 -46q-108 0 -183.5 57.5t-109 149.5t-33.5 209q0 74 13 155.5t46 170t81 158.5t125.5 115.5t173.5 45.5zM530 983q-74 0 -149 -35
q-108 -92 -160.5 -243t-52.5 -308q0 -192 74.5 -282t191.5 -90q69 0 141 30q77 63 128 161.5t70.5 195t19.5 196.5q0 191 -73.5 283t-189.5 92zM375 1446q20 0 28 -4q11 -29 11 -53q0 -49 -21 -97h-61l-8 144q23 10 51 10zM733 1446q19 0 29 -4q10 -27 10 -51q0 -57 -22 -99
h-62l-8 144q23 10 53 10z" />
    <glyph glyph-name="divide" unicode="&#xf7;" 
d="M690 1057q23 0 35 -4q8 -21 8 -54q0 -59 -28 -106h-66l-6 154q27 10 57 10zM1071 606l-6 -35h-856v25l6 35h856v-25zM614 297q23 0 35 -4q8 -21 8 -53q0 -60 -28 -107h-66l-6 154q40 10 57 10z" />
    <glyph glyph-name="oslash" unicode="&#xf8;" horiz-adv-x="962" 
d="M893 1149l-129 -213q100 -111 100 -315q0 -74 -13 -155t-46 -170.5t-81 -160t-126.5 -116.5t-175.5 -46q-116 0 -195 66l-110 -182l-39 12l-6 14l116 195q-92 111 -92 311q0 74 13 155.5t46 170t81 158.5t125.5 115.5t173.5 45.5q117 0 192 -63l125 207l37 -15zM387 950
q-76 -62 -127 -160t-71.5 -195.5t-20.5 -197.5q0 -168 59 -262l465 787q-64 61 -164 61q-70 0 -141 -33zM578 55q111 93 164 244.5t53 308.5q0 179 -70 275l-463 -791q67 -67 172 -67q69 0 144 30z" />
    <glyph glyph-name="ugrave" unicode="&#xf9;" horiz-adv-x="1169" 
d="M1124 164l17 -27q-45 -66 -114.5 -109.5t-133.5 -43.5q-37 0 -52.5 16.5t-15.5 52.5q0 38 11.5 136t40.5 319.5t51 406.5l-15 3q-37 -136 -63 -226.5t-55.5 -187.5t-51.5 -157.5t-48 -123.5t-49.5 -98.5t-51 -68.5t-57 -49t-63 -25t-73.5 -9q-211 0 -211 228
q0 177 99 757l-191 -34l-4 28q136 55 234 68l30 -27q-100 -652 -100 -790q0 -89 34.5 -133.5t117.5 -44.5q49 0 108 16q92 93 165.5 283.5t219.5 683.5q19 8 64 12l18 -14l-98 -969q113 0 237 127zM664 1174h-48l-188 352q28 35 57 45h23z" />
    <glyph glyph-name="uacute" unicode="&#xfa;" horiz-adv-x="1169" 
d="M1124 164l17 -27q-45 -66 -114.5 -109.5t-133.5 -43.5q-37 0 -52.5 16.5t-15.5 52.5q0 38 11.5 136t40.5 319.5t51 406.5l-15 3q-37 -136 -63 -226.5t-55.5 -187.5t-51.5 -157.5t-48 -123.5t-49.5 -98.5t-51 -68.5t-57 -49t-63 -25t-73.5 -9q-211 0 -211 228
q0 177 99 757l-191 -34l-4 28q136 55 234 68l30 -27q-100 -652 -100 -790q0 -89 34.5 -133.5t117.5 -44.5q49 0 108 16q92 93 165.5 283.5t219.5 683.5q19 8 64 12l18 -14l-98 -969q113 0 237 127zM874 1571h21q33 -13 49 -45l-282 -352h-48z" />
    <glyph glyph-name="ucircumflex" unicode="&#xfb;" horiz-adv-x="1169" 
d="M1124 164l17 -27q-45 -66 -114.5 -109.5t-133.5 -43.5q-37 0 -52.5 16.5t-15.5 52.5q0 38 11.5 136t40.5 319.5t51 406.5l-15 3q-37 -136 -63 -226.5t-55.5 -187.5t-51.5 -157.5t-48 -123.5t-49.5 -98.5t-51 -68.5t-57 -49t-63 -25t-73.5 -9q-211 0 -211 228
q0 177 99 757l-191 -34l-4 28q136 55 234 68l30 -27q-100 -652 -100 -790q0 -89 34.5 -133.5t117.5 -44.5q49 0 108 16q92 93 165.5 283.5t219.5 683.5q19 8 64 12l18 -14l-98 -969q113 0 237 127zM870 1221l-51 -29l-149 285h-11l-204 -279h-47l241 350h62z" />
    <glyph glyph-name="udieresis" unicode="&#xfc;" horiz-adv-x="1169" 
d="M1124 164l17 -27q-45 -66 -114.5 -109.5t-133.5 -43.5q-37 0 -52.5 16.5t-15.5 52.5q0 38 11.5 136t40.5 319.5t51 406.5l-15 3q-37 -136 -63 -226.5t-55.5 -187.5t-51.5 -157.5t-48 -123.5t-49.5 -98.5t-51 -68.5t-57 -49t-63 -25t-73.5 -9q-211 0 -211 228
q0 177 99 757l-191 -34l-4 28q136 55 234 68l30 -27q-100 -652 -100 -790q0 -89 34.5 -133.5t117.5 -44.5q49 0 108 16q92 93 165.5 283.5t219.5 683.5q19 8 64 12l18 -14l-98 -969q113 0 237 127zM485 1446q21 0 29 -4q10 -27 10 -53q0 -51 -20 -97h-62l-8 144q23 10 51 10
zM844 1446q18 0 28 -4q11 -29 11 -51q0 -55 -23 -99h-61l-8 144q23 10 53 10z" />
    <glyph glyph-name="yacute" unicode="&#xfd;" horiz-adv-x="1017" 
d="M745 1004l33 30q61 -16 106.5 -71.5t45.5 -147.5q0 -147 -116.5 -402.5t-262.5 -453.5q-133 -181 -276.5 -288t-241.5 -107q-52 0 -107 28t-86 74l19 29q113 -78 233 -78q94 41 196 128t177 189q-57 264 -134 558.5t-136 465.5l-191 -34l-4 28q128 55 221 68l33 -21
q194 -616 254 -997h12q54 78 103.5 162.5t104.5 194t95.5 230t55.5 230.5zM801 1571h20q33 -13 49 -45l-282 -352h-47z" />
    <glyph glyph-name="thorn" unicode="&#xfe;" horiz-adv-x="1058" 
d="M715 1034q123 0 176 -78t53 -249q0 -83 -11 -166.5t-34 -167t-61.5 -154.5t-89.5 -127t-122.5 -87.5t-156.5 -31.5q-75 0 -143.5 23t-110.5 70l-45 -492q-11 -6 -47 -10l-19 14l189 1903l-170 4l2 31q107 20 207 26l35 -26l-70 -633q-40 -394 -86 -678l14 -2
q51 174 87.5 287.5t75.5 214.5t72 157.5t73.5 98.5t83.5 57.5t98 15.5zM639 59q108 90 169.5 269t61.5 379q0 140 -36.5 208t-122.5 68q-55 0 -111 -20q-81 -80 -156.5 -258t-214.5 -605q117 -75 244 -75q92 0 166 34z" />
    <glyph glyph-name="ydieresis" unicode="&#xff;" horiz-adv-x="1017" 
d="M745 1004l33 30q61 -16 106.5 -71.5t45.5 -147.5q0 -147 -116.5 -402.5t-262.5 -453.5q-133 -181 -276.5 -288t-241.5 -107q-52 0 -107 28t-86 74l19 29q113 -78 233 -78q94 41 196 128t177 189q-57 264 -134 558.5t-136 465.5l-191 -34l-4 28q128 55 221 68l33 -21
q194 -616 254 -997h12q54 78 103.5 162.5t104.5 194t95.5 230t55.5 230.5zM412 1446q20 0 28 -4q11 -29 11 -53q0 -49 -21 -97h-61l-9 144q23 10 52 10zM770 1446q19 0 29 -4q10 -27 10 -51q0 -55 -23 -99h-61l-8 144q23 10 53 10z" />
    <glyph glyph-name="Amacron" unicode="&#x100;" horiz-adv-x="1323" 
d="M1262 43v-20l-2 -23h-439v41q99 17 193 20l-96 385h-523q-102 -266 -151 -397l194 -6v-20l-2 -23h-430v41q102 17 180 20q236 612 514 1262l-14 63l14 13q42 0 56 -6q77 -336 336 -1344zM416 500h487q-112 447 -176 739h-12q-142 -336 -299 -739zM520 1671h443l1 -7
q1 -6 1 -11q0 -26 -9 -41h-442q0 2 -1 9t-1 11q0 23 8 39z" />
    <glyph glyph-name="amacron" unicode="&#x101;" horiz-adv-x="1095" 
d="M1049 164l18 -27q-47 -66 -116 -109.5t-134 -43.5q-36 0 -51.5 16t-15.5 51t11 120.5t37.5 276t47.5 355.5l-15 2q-51 -175 -87 -287.5t-75.5 -214.5t-72 -158t-73 -98.5t-83.5 -58t-98 -15.5q-123 0 -176 78.5t-53 249.5q0 101 15.5 200t52 196.5t90 171.5t136 119.5
t183.5 45.5q73 0 141.5 -22.5t108.5 -67.5l4 82q16 8 49 8l18 -14l-98 -983q115 0 236 127zM457 45q82 82 158 260.5t212 601.5q-118 76 -243 76q-87 0 -166 -35q-107 -91 -169.5 -269.5t-62.5 -377.5q0 -140 36.5 -208t123.5 -68q55 0 111 20zM436 1382h404l1 -6
q1 -6 1 -12q0 -26 -8 -39h-404l-1 7q-1 6 -1 11q0 23 8 39z" />
    <glyph glyph-name="Abreve" unicode="&#x102;" horiz-adv-x="1323" 
d="M1262 43v-20l-2 -23h-439v41q99 17 193 20l-96 385h-523q-102 -266 -151 -397l194 -6v-20l-2 -23h-430v41q102 17 180 20q236 612 514 1262l-14 63l14 13q42 0 56 -6q77 -336 336 -1344zM416 500h487q-112 447 -176 739h-12q-142 -336 -299 -739zM508 1716l59 21
q5 -97 47.5 -148t118.5 -51q73 0 121.5 49t95.5 150l33 -13q-84 -243 -270 -243q-99 0 -152 64t-53 171z" />
    <glyph glyph-name="abreve" unicode="&#x103;" horiz-adv-x="1095" 
d="M1049 164l18 -27q-47 -66 -116 -109.5t-134 -43.5q-36 0 -51.5 16t-15.5 51t11 120.5t37.5 276t47.5 355.5l-15 2q-51 -175 -87 -287.5t-75.5 -214.5t-72 -158t-73 -98.5t-83.5 -58t-98 -15.5q-123 0 -176 78.5t-53 249.5q0 101 15.5 200t52 196.5t90 171.5t136 119.5
t183.5 45.5q73 0 141.5 -22.5t108.5 -67.5l4 82q16 8 49 8l18 -14l-98 -983q115 0 236 127zM457 45q82 82 158 260.5t212 601.5q-118 76 -243 76q-87 0 -166 -35q-107 -91 -169.5 -269.5t-62.5 -377.5q0 -140 36.5 -208t123.5 -68q55 0 111 20zM432 1475l57 14
q3 -199 146 -199q135 0 203 205l30 -14q-31 -120 -96.5 -184t-157.5 -64q-94 0 -139.5 68t-42.5 174z" />
    <glyph glyph-name="Aogonek" unicode="&#x104;" horiz-adv-x="1323" 
d="M1262 43v-18l-2 -25h-250q-84 -79 -125 -145t-41 -134q0 -106 112 -106q70 0 138 39l8 -31q-72 -59 -166 -59q-78 0 -118 38.5t-40 104.5q0 90 66 182t172 162l-98 395h-523q-102 -266 -151 -397l194 -6v-20l-2 -23h-430v41q102 17 180 20q236 612 514 1262l-14 63l14 13
q42 0 56 -6q77 -336 336 -1344zM416 500h487q-112 447 -176 739h-12q-142 -336 -299 -739z" />
    <glyph glyph-name="aogonek" unicode="&#x105;" horiz-adv-x="1095" 
d="M1049 164l18 -27q-19 -26 -61 -66t-83 -79t-81 -83.5t-65 -95t-25 -98.5q0 -100 112 -100q71 0 137 39l9 -31q-73 -59 -170 -59q-77 0 -115.5 37.5t-38.5 101.5q0 139 188 283l-2 10q-36 -12 -55 -12q-36 0 -51.5 16t-15.5 51q0 34 10.5 119t38 280.5t47.5 352.5l-15 2
q-51 -175 -87 -287.5t-75.5 -214.5t-72 -158t-73 -98.5t-83.5 -58t-98 -15.5q-123 0 -176 78.5t-53 249.5q0 101 15.5 200t52 196.5t90 171.5t136 119.5t183.5 45.5q73 0 141.5 -22.5t108.5 -67.5l4 82q16 8 49 8l18 -14l-98 -983q115 0 236 127zM457 45q82 82 158 260.5
t212 601.5q-118 76 -243 76q-87 0 -166 -35q-107 -91 -169.5 -269.5t-62.5 -377.5q0 -140 36.5 -208t123.5 -68q55 0 111 20z" />
    <glyph glyph-name="Cacute" unicode="&#x106;" horiz-adv-x="1122" 
d="M492 1280q-87 -63 -152 -182.5t-97 -258.5t-32 -278q0 -270 99 -398t268 -128q97 0 200.5 49.5t179.5 128.5l23 -35q-93 -111 -203 -158t-215 -47q-217 0 -322.5 156t-105.5 428q0 82 12 169t38 183t72 180t108.5 152t154 108t201.5 40q137 0 244 -60l2 35q24 8 49 8
l18 -14q2 -14 2 -49q0 -154 -24 -308h-45l-2 279q-109 53 -248 53q-124 0 -225 -53zM891 1829h22q29 -13 48 -45l-238 -303h-49z" />
    <glyph glyph-name="cacute" unicode="&#x107;" horiz-adv-x="839" 
d="M383 946q-107 -95 -161 -244.5t-54 -312.5q0 -181 62 -268.5t165 -87.5q77 0 162 43.5t154 118.5l22 -33q-81 -99 -174 -144t-178 -45q-77 0 -134 32.5t-89 90t-47 126.5t-15 151q0 71 11 144t32.5 148t58 140.5t84.5 117t115 81.5t146 30q82 0 144 -32t85 -89l-24 -34
l-197 106q-98 0 -168 -39zM764 1571h20q34 -14 50 -45l-283 -352h-47z" />
    <glyph glyph-name="Ccircumflex" unicode="&#x108;" horiz-adv-x="1122" 
d="M492 1280q-87 -63 -152 -182.5t-97 -258.5t-32 -278q0 -270 99 -398t268 -128q97 0 200.5 49.5t179.5 128.5l23 -35q-93 -111 -203 -158t-215 -47q-217 0 -322.5 156t-105.5 428q0 82 12 169t38 183t72 180t108.5 152t154 108t201.5 40q137 0 244 -60l2 35q24 8 49 8
l18 -14q2 -14 2 -49q0 -154 -24 -308h-45l-2 279q-109 53 -248 53q-124 0 -225 -53zM950 1503l-49 -30l-172 260h-12l-219 -252h-49l260 321h61z" />
    <glyph glyph-name="ccircumflex" unicode="&#x109;" horiz-adv-x="839" 
d="M383 946q-107 -95 -161 -244.5t-54 -312.5q0 -181 62 -268.5t165 -87.5q77 0 162 43.5t154 118.5l22 -33q-81 -99 -174 -144t-178 -45q-77 0 -134 32.5t-89 90t-47 126.5t-15 151q0 71 11 144t32.5 148t58 140.5t84.5 117t115 81.5t146 30q82 0 144 -32t85 -89l-24 -34
l-197 106q-98 0 -168 -39zM760 1221l-51 -29l-150 285h-10l-205 -279h-47l242 350h61z" />
    <glyph glyph-name="Cdotaccent" unicode="&#x10a;" horiz-adv-x="1122" 
d="M492 1280q-87 -63 -152 -182.5t-97 -258.5t-32 -278q0 -270 99 -398t268 -128q97 0 200.5 49.5t179.5 128.5l23 -35q-93 -111 -203 -158t-215 -47q-217 0 -322.5 156t-105.5 428q0 82 12 169t38 183t72 180t108.5 152t154 108t201.5 40q137 0 244 -60l2 35q24 8 49 8
l18 -14q2 -14 2 -49q0 -154 -24 -308h-45l-2 279q-109 53 -248 53q-124 0 -225 -53zM715 1722q21 0 33 -4q8 -21 8 -55q0 -59 -25 -115h-65l-9 164q27 10 58 10z" />
    <glyph glyph-name="cdotaccent" unicode="&#x10b;" horiz-adv-x="839" 
d="M383 946q-107 -95 -161 -244.5t-54 -312.5q0 -181 62 -268.5t165 -87.5q77 0 162 43.5t154 118.5l22 -33q-81 -99 -174 -144t-178 -45q-77 0 -134 32.5t-89 90t-47 126.5t-15 151q0 71 11 144t32.5 148t58 140.5t84.5 117t115 81.5t146 30q82 0 144 -32t85 -89l-24 -34
l-197 106q-98 0 -168 -39zM563 1450q19 0 31 -4q8 -21 8 -55q0 -63 -27 -115h-63l-8 164q40 10 59 10z" />
    <glyph glyph-name="Ccaron" unicode="&#x10c;" horiz-adv-x="1122" 
d="M492 1280q-87 -63 -152 -182.5t-97 -258.5t-32 -278q0 -270 99 -398t268 -128q97 0 200.5 49.5t179.5 128.5l23 -35q-93 -111 -203 -158t-215 -47q-217 0 -322.5 156t-105.5 428q0 82 12 169t38 183t72 180t108.5 152t154 108t201.5 40q137 0 244 -60l2 35q24 8 49 8
l18 -14q2 -14 2 -49q0 -154 -24 -308h-45l-2 279q-109 53 -248 53q-124 0 -225 -53zM705 1552h10l219 252h51l-262 -321h-61l-181 299l51 30z" />
    <glyph glyph-name="ccaron" unicode="&#x10d;" horiz-adv-x="839" 
d="M383 946q-107 -95 -161 -244.5t-54 -312.5q0 -181 62 -268.5t165 -87.5q77 0 162 43.5t154 118.5l22 -33q-81 -99 -174 -144t-178 -45q-77 0 -134 32.5t-89 90t-47 126.5t-15 151q0 71 11 144t32.5 148t58 140.5t84.5 117t115 81.5t146 30q82 0 144 -32t85 -89l-24 -34
l-197 106q-98 0 -168 -39zM530 1270h11l204 278h48l-242 -350h-62l-159 328l51 28z" />
    <glyph glyph-name="Dcaron" unicode="&#x10e;" horiz-adv-x="1284" 
d="M610 1368q574 0 574 -594q0 -71 -8 -140.5t-28.5 -148t-52.5 -146.5t-84 -131.5t-119 -108.5t-162 -72t-208 -27h-432v41q86 14 191 20l90 1246l-187 8v18l2 23q192 12 424 12zM856 137q127 101 188.5 269t61.5 366q0 280 -121 412.5t-367 132.5l-178 -2l-90 -1262h154
q207 0 352 84zM721 1552h10l219 252h51l-262 -321h-61l-180 299l51 30z" />
    <glyph glyph-name="dcaron" unicode="&#x10f;" horiz-adv-x="1161" 
d="M1049 164l18 -27q-47 -66 -116 -109.5t-134 -43.5q-36 0 -51.5 16t-15.5 51q0 23 4 64.5t13.5 113t19.5 144.5t27.5 197.5t31.5 232.5l-15 2q-51 -175 -87 -287.5t-75.5 -214.5t-72 -158t-73 -98.5t-83.5 -58t-98 -15.5q-123 0 -176 78.5t-53 249.5q0 101 15.5 200
t51.5 196.5t89.5 171.5t136 119.5t184.5 45.5q72 0 140.5 -22t109.5 -64l49 533l-170 4l4 31q103 20 205 26l33 -26l-148 -1479q115 0 236 127zM457 43q82 83 159 265t211 603q-117 72 -243 72q-87 0 -166 -35q-107 -91 -169.5 -269.5t-62.5 -377.5q0 -140 36.5 -208
t123.5 -68q52 0 111 18zM1217 1542q29 0 51 -16q-8 -173 -92 -381h-39l51 248v145q1 0 11.5 2t17.5 2z" />
    <glyph glyph-name="Dcroat" unicode="&#x110;" horiz-adv-x="1300" 
d="M629 1368q571 0 571 -594q0 -71 -7.5 -140.5t-28 -148t-52 -146.5t-83.5 -131.5t-118.5 -108.5t-161.5 -72t-208 -27h-435v41q86 14 191 20l45 619h-186v18l6 33h184l43 576l-188 8v18l4 23q192 12 424 12zM874 137q127 101 188.5 269t61.5 366q0 280 -121 412.5
t-366 132.5l-178 -2l-43 -584h301v-20l-6 -31h-299l-45 -627h155q207 0 352 84z" />
    <glyph glyph-name="dcroat" unicode="&#x111;" horiz-adv-x="1093" 
d="M1141 1346v-25l-6 -27h-195l-127 -1257q115 0 236 127l18 -27q-47 -66 -116 -109.5t-134 -43.5q-36 0 -51.5 16t-15.5 51q0 23 4 64.5t13.5 113t19.5 144.5t27.5 197.5t31.5 232.5l-15 2q-51 -175 -87 -287.5t-75.5 -214.5t-72 -158t-73 -98.5t-83.5 -58t-98 -15.5
q-123 0 -176 78.5t-53 249.5q0 101 15.5 200t51.5 196.5t89.5 171.5t136 119.5t184.5 45.5q72 0 140.5 -22t109.5 -64l30 346h-295v25l9 27h290l17 186q13 4 53 10l19 -14l-19 -182h197zM457 43q81 84 158 265.5t212 602.5q-117 72 -243 72q-87 0 -166 -35
q-107 -91 -169.5 -269.5t-62.5 -377.5q0 -140 36.5 -208t123.5 -68q50 0 111 18z" />
    <glyph glyph-name="Emacron" unicode="&#x112;" horiz-adv-x="1161" 
d="M1047 1386l16 -12q4 -32 4 -51q0 -113 -27 -252h-45l-2 234l-549 10l-45 -629l402 8l6 -20l-6 -41l-406 6l-41 -592l535 -10l47 266l47 -2q4 -50 4 -98q0 -88 -31 -226h-2l-20 -2l-600 25h-240v41q86 14 191 20l90 1246l-189 6v20l4 23q231 6 467 6h336v12q27 12 54 12z
M467 1671h442l1 -7q1 -6 1 -11q0 -28 -8 -41h-442q0 2 -1 9t-1 11q0 23 8 39z" />
    <glyph glyph-name="emacron" unicode="&#x113;" horiz-adv-x="876" 
d="M395 33q79 0 169.5 48.5t164.5 133.5l23 -33q-82 -105 -180 -157t-193 -52q-77 0 -134 33t-89 91t-47 128t-15 154q0 78 12.5 161t45.5 173t81.5 160t128 115.5t177.5 45.5q119 0 187.5 -60.5t68.5 -166.5q0 -75 -37.5 -135.5t-97.5 -100t-144 -67.5t-169 -41.5
t-179 -18.5l-2 -49q0 -187 62 -274.5t167 -87.5zM381 950q-92 -78 -145 -201.5t-66 -265.5q553 65 553 324q0 85 -55.5 130.5t-139.5 45.5q-80 0 -147 -33zM336 1382h403l1 -6q1 -6 1 -12q0 -26 -8 -39h-403l-1 7q-1 6 -1 11q0 23 8 39z" />
    <glyph glyph-name="Ebreve" unicode="&#x114;" horiz-adv-x="1161" 
d="M1047 1386l16 -12q4 -32 4 -51q0 -113 -27 -252h-45l-2 234l-549 10l-45 -629l402 8l6 -20l-6 -41l-406 6l-41 -592l535 -10l47 266l47 -2q4 -50 4 -98q0 -88 -31 -226h-2l-20 -2l-600 25h-240v41q86 14 191 20l90 1246l-189 6v20l4 23q231 6 467 6h336v12q27 12 54 12z
M455 1716l59 21q5 -97 47.5 -148t118.5 -51q73 0 121.5 49t95.5 150l33 -13q-84 -243 -271 -243q-99 0 -151.5 64t-52.5 171z" />
    <glyph glyph-name="ebreve" unicode="&#x115;" horiz-adv-x="876" 
d="M395 33q79 0 169.5 48.5t164.5 133.5l23 -33q-82 -105 -180 -157t-193 -52q-77 0 -134 33t-89 91t-47 128t-15 154q0 78 12.5 161t45.5 173t81.5 160t128 115.5t177.5 45.5q119 0 187.5 -60.5t68.5 -166.5q0 -75 -37.5 -135.5t-97.5 -100t-144 -67.5t-169 -41.5
t-179 -18.5l-2 -49q0 -187 62 -274.5t167 -87.5zM381 950q-92 -78 -145 -201.5t-66 -265.5q553 65 553 324q0 85 -55.5 130.5t-139.5 45.5q-80 0 -147 -33zM332 1475l57 14q3 -199 146 -199q71 0 119.5 52t82.5 153l31 -14q-31 -120 -96.5 -184t-157.5 -64q-94 0 -139.5 68
t-42.5 174z" />
    <glyph glyph-name="Edotaccent" unicode="&#x116;" horiz-adv-x="1161" 
d="M1047 1386l16 -12q4 -32 4 -51q0 -113 -27 -252h-45l-2 234l-549 10l-45 -629l402 8l6 -20l-6 -41l-406 6l-41 -592l535 -10l47 266l47 -2q4 -50 4 -98q0 -88 -31 -226h-2l-20 -2l-600 25h-240v41q86 14 191 20l90 1246l-189 6v20l4 23q231 6 467 6h336v12q27 12 54 12z
M684 1722q21 0 33 -4q8 -21 8 -55q0 -59 -25 -115h-65l-8 164q27 10 57 10z" />
    <glyph glyph-name="edotaccent" unicode="&#x117;" horiz-adv-x="876" 
d="M395 33q79 0 169.5 48.5t164.5 133.5l23 -33q-82 -105 -180 -157t-193 -52q-77 0 -134 33t-89 91t-47 128t-15 154q0 78 12.5 161t45.5 173t81.5 160t128 115.5t177.5 45.5q119 0 187.5 -60.5t68.5 -166.5q0 -75 -37.5 -135.5t-97.5 -100t-144 -67.5t-169 -41.5
t-179 -18.5l-2 -49q0 -187 62 -274.5t167 -87.5zM381 950q-92 -78 -145 -201.5t-66 -265.5q553 65 553 324q0 85 -55.5 130.5t-139.5 45.5q-80 0 -147 -33zM555 1450q19 0 31 -4q8 -21 8 -55q0 -63 -27 -115h-63l-8 164q40 10 59 10z" />
    <glyph glyph-name="Eogonek" unicode="&#x118;" horiz-adv-x="1161" 
d="M1047 1386l16 -12q4 -32 4 -51q0 -113 -27 -252h-45l-2 234l-549 10l-45 -629l402 8l6 -20l-6 -41l-406 6l-41 -592l535 -12l47 268l47 -2q4 -50 4 -96q0 -90 -31 -228h-2h-139q-78 -82 -117 -141t-39 -121q0 -100 113 -100q71 0 137 39l9 -31q-73 -59 -170 -59
q-77 0 -115.5 37t-38.5 104q0 66 40 129.5t118 136.5v9l-418 20h-240v41q86 14 191 20l90 1246l-189 6v20l4 23q231 6 467 6h336v12q27 12 54 12z" />
    <glyph glyph-name="eogonek" unicode="&#x119;" horiz-adv-x="876" 
d="M395 33q79 0 169.5 48.5t164.5 133.5l23 -33q-11 -14 -22.5 -27.5t-27.5 -28.5t-26.5 -24.5t-32.5 -29t-33 -29.5q-112 -98 -168.5 -172t-56.5 -152q0 -104 115 -104q72 0 135 39l10 -31q-73 -59 -170 -59q-77 0 -115 37t-38 100q0 135 178 289l-6 10q-66 -27 -127 -27
q-71 0 -125 33t-85.5 90t-47 127.5t-15.5 151.5q0 79 12.5 162.5t45.5 174.5t81.5 161t128 115.5t177.5 45.5q119 0 187.5 -60.5t68.5 -166.5q0 -75 -37.5 -135.5t-97.5 -100t-144 -67.5t-169 -41.5t-179 -18.5l-2 -51q0 -184 62 -272t167 -88zM381 950q-93 -78 -145.5 -201
t-65.5 -266q553 65 553 324q0 85 -55.5 130.5t-139.5 45.5q-80 0 -147 -33z" />
    <glyph glyph-name="Ecaron" unicode="&#x11a;" horiz-adv-x="1161" 
d="M1047 1386l16 -12q4 -32 4 -51q0 -113 -27 -252h-45l-2 234l-549 10l-45 -629l402 8l6 -20l-6 -41l-406 6l-41 -592l535 -10l47 266l47 -2q4 -50 4 -98q0 -88 -31 -226h-2l-20 -2l-600 25h-240v41q86 14 191 20l90 1246l-189 6v20l4 23q231 6 467 6h336v12q27 12 54 12z
M674 1552h10l219 252h51l-262 -321h-61l-180 299l51 30z" />
    <glyph glyph-name="ecaron" unicode="&#x11b;" horiz-adv-x="876" 
d="M395 33q79 0 169.5 48.5t164.5 133.5l23 -33q-82 -105 -180 -157t-193 -52q-77 0 -134 33t-89 91t-47 128t-15 154q0 78 12.5 161t45.5 173t81.5 160t128 115.5t177.5 45.5q119 0 187.5 -60.5t68.5 -166.5q0 -75 -37.5 -135.5t-97.5 -100t-144 -67.5t-169 -41.5
t-179 -18.5l-2 -49q0 -187 62 -274.5t167 -87.5zM381 950q-92 -78 -145 -201.5t-66 -265.5q553 65 553 324q0 85 -55.5 130.5t-139.5 45.5q-80 0 -147 -33zM522 1270h10l205 278h47l-241 -350h-62l-159 328l51 28z" />
    <glyph glyph-name="Gcircumflex" unicode="&#x11c;" horiz-adv-x="1220" 
d="M1135 555v-39q-21 -3 -146 -18l-35 -510l-18 -15q-25 0 -43 9l2 79q-55 -43 -136.5 -65.5t-164.5 -22.5q-151 0 -256.5 77t-155 206t-49.5 299q0 69 8 143t28 156.5t50 158t77 145t106 120t140 81t175 30.5q149 0 250 -60l2 35q24 8 49 8l18 -14q2 -14 2 -49
q0 -154 -24 -308h-45l-2 279q-106 53 -250 53q-127 0 -228 -53q-88 -63 -152.5 -183.5t-96 -259t-31.5 -278.5q0 -252 106 -391t295 -139q151 0 287 82l23 395l-230 6v20l4 23h441zM948 1503l-49 -30l-172 260h-12l-219 -252h-50l261 321h61z" />
    <glyph glyph-name="gcircumflex" unicode="&#x11d;" horiz-adv-x="933" 
d="M340 145l223 -77q12 -4 34 -12q43 -15 63.5 -23t51 -21.5t44 -25t29 -29.5t21 -39.5t5.5 -48.5q0 -71 -44 -130t-117.5 -96.5t-165.5 -58t-191 -20.5q-301 0 -301 192q0 58 26.5 112.5t74 99t99.5 79.5t115 66q-24 27 -24 75q0 76 41 140q-98 27 -150.5 109t-52.5 194
q0 168 106.5 285.5t268.5 117.5q127 0 200 -73q102 186 201 206l25 -43l-203 -186q74 -86 74 -223q0 -106 -46 -196.5t-134 -146t-199 -55.5q-16 0 -56 5zM195 629q0 -119 59 -189.5t170 -70.5q72 0 135 26q68 43 114 133t46 195q0 117 -59.5 187.5t-170.5 70.5
q-64 0 -137 -25q-67 -45 -112 -133.5t-45 -193.5zM694 -279q49 64 49 136q0 45 -26 71t-109 56l-227 82q-32 11 -53 26q-128 -95 -172 -138q-90 -90 -90 -183q0 -156 239 -156q108 0 213.5 28.5t175.5 77.5zM725 1221l-51 -29l-150 285h-10l-205 -279h-47l242 350h61z" />
    <glyph glyph-name="Gbreve" unicode="&#x11e;" horiz-adv-x="1220" 
d="M1135 555v-39q-21 -3 -146 -18l-35 -510l-18 -15q-25 0 -43 9l2 79q-55 -43 -136.5 -65.5t-164.5 -22.5q-151 0 -256.5 77t-155 206t-49.5 299q0 69 8 143t28 156.5t50 158t77 145t106 120t140 81t175 30.5q149 0 250 -60l2 35q24 8 49 8l18 -14q2 -14 2 -49
q0 -154 -24 -308h-45l-2 279q-106 53 -250 53q-127 0 -228 -53q-88 -63 -152.5 -183.5t-96 -259t-31.5 -278.5q0 -252 106 -391t295 -139q151 0 287 82l23 395l-230 6v20l4 23h441zM483 1716l60 21q5 -97 47.5 -148t118.5 -51q73 0 121.5 49t95.5 150l32 -13
q-84 -243 -270 -243q-99 0 -152 64t-53 171z" />
    <glyph glyph-name="gbreve" unicode="&#x11f;" horiz-adv-x="933" 
d="M340 145l223 -77q12 -4 34 -12q43 -15 63.5 -23t51 -21.5t44 -25t29 -29.5t21 -39.5t5.5 -48.5q0 -71 -44 -130t-117.5 -96.5t-165.5 -58t-191 -20.5q-301 0 -301 192q0 58 26.5 112.5t74 99t99.5 79.5t115 66q-24 27 -24 75q0 76 41 140q-98 27 -150.5 109t-52.5 194
q0 168 106.5 285.5t268.5 117.5q127 0 200 -73q102 186 201 206l25 -43l-203 -186q74 -86 74 -223q0 -106 -46 -196.5t-134 -146t-199 -55.5q-16 0 -56 5zM195 629q0 -119 59 -189.5t170 -70.5q72 0 135 26q68 43 114 133t46 195q0 117 -59.5 187.5t-170.5 70.5
q-64 0 -137 -25q-67 -45 -112 -133.5t-45 -193.5zM694 -279q49 64 49 136q0 45 -26 71t-109 56l-227 82q-32 11 -53 26q-128 -95 -172 -138q-90 -90 -90 -183q0 -156 239 -156q108 0 213.5 28.5t175.5 77.5zM305 1475l57 14q3 -199 146 -199q135 0 203 205l30 -14
q-31 -120 -96.5 -184t-157.5 -64q-94 0 -139.5 68t-42.5 174z" />
    <glyph glyph-name="Gdotaccent" unicode="&#x120;" horiz-adv-x="1220" 
d="M1135 555v-39q-21 -3 -146 -18l-35 -510l-18 -15q-25 0 -43 9l2 79q-55 -43 -136.5 -65.5t-164.5 -22.5q-151 0 -256.5 77t-155 206t-49.5 299q0 69 8 143t28 156.5t50 158t77 145t106 120t140 81t175 30.5q149 0 250 -60l2 35q24 8 49 8l18 -14q2 -14 2 -49
q0 -154 -24 -308h-45l-2 279q-106 53 -250 53q-127 0 -228 -53q-88 -63 -152.5 -183.5t-96 -259t-31.5 -278.5q0 -252 106 -391t295 -139q151 0 287 82l23 395l-230 6v20l4 23h441zM713 1722q20 0 32 -4q9 -24 9 -55q0 -59 -25 -115h-65l-9 164q27 10 58 10z" />
    <glyph glyph-name="gdotaccent" unicode="&#x121;" horiz-adv-x="933" 
d="M340 145l223 -77q12 -4 34 -12q43 -15 63.5 -23t51 -21.5t44 -25t29 -29.5t21 -39.5t5.5 -48.5q0 -71 -44 -130t-117.5 -96.5t-165.5 -58t-191 -20.5q-301 0 -301 192q0 58 26.5 112.5t74 99t99.5 79.5t115 66q-24 27 -24 75q0 76 41 140q-98 27 -150.5 109t-52.5 194
q0 168 106.5 285.5t268.5 117.5q127 0 200 -73q102 186 201 206l25 -43l-203 -186q74 -86 74 -223q0 -106 -46 -196.5t-134 -146t-199 -55.5q-16 0 -56 5zM195 629q0 -119 59 -189.5t170 -70.5q72 0 135 26q68 43 114 133t46 195q0 117 -59.5 187.5t-170.5 70.5
q-64 0 -137 -25q-67 -45 -112 -133.5t-45 -193.5zM694 -279q49 64 49 136q0 45 -26 71t-109 56l-227 82q-32 11 -53 26q-128 -95 -172 -138q-90 -90 -90 -183q0 -156 239 -156q108 0 213.5 28.5t175.5 77.5zM528 1450q19 0 31 -4q8 -21 8 -55q0 -65 -26 -115h-64l-8 164
q40 10 59 10z" />
    <glyph glyph-name="Gcommaaccent" unicode="&#x122;" horiz-adv-x="1220" 
d="M1135 555v-39q-21 -3 -146 -18l-35 -510l-18 -15q-25 0 -43 9l2 79q-55 -43 -136.5 -65.5t-164.5 -22.5q-151 0 -256.5 77t-155 206t-49.5 299q0 69 8 143t28 156.5t50 158t77 145t106 120t140 81t175 30.5q149 0 250 -60l2 35q24 8 49 8l18 -14q2 -14 2 -49
q0 -154 -24 -308h-45l-2 279q-106 53 -250 53q-127 0 -228 -53q-88 -63 -152.5 -183.5t-96 -259t-31.5 -278.5q0 -252 106 -391t295 -139q151 0 287 82l23 395l-230 6v20l4 23h441zM551 -129q32 0 53 -12q12 -30 12 -72q0 -173 -172 -274l-12 22q72 59 101.5 111t29.5 118
v27l-57 4l4 72q24 4 41 4z" />
    <glyph glyph-name="gcommaaccent" unicode="&#x123;" horiz-adv-x="933" 
d="M340 145l223 -77q12 -4 34 -12q43 -15 63.5 -23t51 -21.5t44 -25t29 -29.5t21 -39.5t5.5 -48.5q0 -71 -44 -130t-117.5 -96.5t-165.5 -58t-191 -20.5q-301 0 -301 192q0 58 26.5 112.5t74 99t99.5 79.5t115 66q-24 27 -24 75q0 76 41 140q-98 27 -150.5 109t-52.5 194
q0 168 106.5 285.5t268.5 117.5q127 0 200 -73q102 186 201 206l25 -43l-203 -186q74 -86 74 -223q0 -106 -46 -196.5t-134 -146t-199 -55.5q-16 0 -56 5zM195 629q0 -119 59 -189.5t170 -70.5q72 0 135 26q68 43 114 133t46 195q0 117 -59.5 187.5t-170.5 70.5
q-64 0 -137 -25q-67 -45 -112 -133.5t-45 -193.5zM694 -279q49 64 49 136q0 45 -26 71t-109 56l-227 82q-32 11 -53 26q-128 -95 -172 -138q-90 -90 -90 -183q0 -156 239 -156q108 0 213.5 28.5t175.5 77.5zM627 1571l12 -23q-74 -58 -104.5 -112t-30.5 -121v-27l57 -6
l-4 -70q-24 -4 -41 -4q-30 0 -53 13q-12 30 -12 69q0 182 176 281z" />
    <glyph glyph-name="Hcircumflex" unicode="&#x124;" horiz-adv-x="1439" 
d="M1389 1362v-41q-112 -18 -193 -21l-92 -1251l188 -6v-20l-4 -23h-444v41q105 17 192 20l43 617h-684l-45 -629l201 -6v-20l-2 -23h-459v41q105 17 193 20l90 1252l-187 6v20l2 23h459v-41q-114 -18 -207 -21l-41 -569h684l43 582l-186 6v20l2 23h447zM1067 1503l-49 -30
l-172 260h-12l-220 -252h-49l260 321h62z" />
    <glyph glyph-name="hcircumflex" unicode="&#x125;" horiz-adv-x="1138" 
d="M487 1542h-49l224 293h61l156 -270l-50 -31l-147 233h-12zM1079 164l19 -27q-47 -66 -116 -109.5t-134 -43.5q-36 0 -52 16.5t-16 50.5q0 54 48.5 361.5t48.5 398.5q0 84 -35.5 128t-116.5 44q-55 0 -113 -18q-90 -93 -161.5 -280.5t-219.5 -684.5q-23 -8 -63 -12l-18 14
l135 1395l-170 4l4 31q85 19 205 26l34 -26l-57 -562q-44 -449 -94 -778l14 -2q42 153 70 252t60.5 203.5t56.5 166.5t54 124t56.5 94t60.5 58.5t70.5 36t81.5 9.5q213 0 213 -221q0 -90 -47.5 -396.5t-52.5 -379.5q111 0 235 127z" />
    <glyph glyph-name="Hbar" unicode="&#x126;" horiz-adv-x="1478" 
d="M1425 1008v-21l-6 -31h-229l-68 -907l189 -6v-20l-4 -23h-445v41q105 17 191 20l41 572h-682l-43 -584l200 -6v-20l-2 -23h-458v41q105 17 190 20l66 895h-232v19l6 33h230l22 305l-188 6v20l2 23h459v-41q-109 -18 -203 -21l-23 -292h684l23 305l-189 6v20l2 23h447v-41
q-112 -18 -191 -21l-22 -292h233zM1118 956h-682l-20 -270h682z" />
    <glyph glyph-name="hbar" unicode="&#x127;" horiz-adv-x="1142" 
d="M1087 164l15 -27q-45 -66 -114.5 -109.5t-133.5 -43.5q-38 0 -54 16t-16 51q0 54 48.5 361.5t48.5 398.5q0 84 -35 128t-117 44q-49 0 -108 -16q-92 -93 -165.5 -283.5t-219.5 -683.5q-19 -8 -64 -12l-18 14l127 1292h-181v25l9 27h176l18 186q16 5 53 10l17 -14
l-19 -182h303v-25l-8 -27h-301l-43 -424q-44 -449 -94 -778l14 -2q42 153 70.5 252t61 203.5t57 166.5t54.5 124t56.5 94t61 58.5t70.5 36t81 9.5q106 0 158.5 -57t52.5 -164q0 -90 -47.5 -397.5t-52.5 -380.5q113 0 239 129z" />
    <glyph glyph-name="Itilde" unicode="&#x128;" horiz-adv-x="686" 
d="M635 1362v-41q-112 -18 -193 -21l-92 -1251l189 -6v-20l-4 -23h-445v41q105 17 193 20l90 1252l-187 6v20l2 23h447zM659 1716l25 -22q-84 -158 -168 -158q-26 0 -61 35l-117 121l-129 -131l-25 22q40 72 79.5 115t86.5 43q33 0 64 -33l116 -121z" />
    <glyph glyph-name="itilde" unicode="&#x129;" horiz-adv-x="530" 
d="M315 1020l31 -27q-10 -108 -50 -483t-44 -473q110 0 231 127l19 -27q-47 -66 -116 -109.5t-132 -43.5q-37 0 -52.5 16t-15.5 51t12 165t25.5 257t31.5 289.5t21 195.5l-190 -34l-4 28q137 55 233 68zM543 1442l22 -23q-26 -64 -63.5 -111.5t-77.5 -47.5q-31 0 -68 40
l-104 111l-107 -127l-24 23q68 157 141 157q34 0 68 -39l106 -112z" />
    <glyph glyph-name="Imacron" unicode="&#x12a;" horiz-adv-x="686" 
d="M635 1362v-41q-112 -18 -193 -21l-92 -1251l189 -6v-20l-4 -23h-445v41q105 17 193 20l90 1252l-187 6v20l2 23h447zM219 1671h443l1 -7q1 -6 1 -11q0 -26 -9 -41h-442q0 2 -1 9t-1 11q0 23 8 39z" />
    <glyph glyph-name="imacron" unicode="&#x12b;" horiz-adv-x="530" 
d="M315 1020l31 -27q-10 -108 -50 -483t-44 -473q110 0 231 127l19 -27q-47 -66 -116 -109.5t-132 -43.5q-37 0 -52.5 16t-15.5 51t12 165t25.5 257t31.5 289.5t21 195.5l-190 -34l-4 28q137 55 233 68zM170 1382h346q4 -4 4 -18q0 -22 -10 -39h-346l-1 7q-1 6 -1 11
q0 23 8 39z" />
    <glyph glyph-name="Ibreve" unicode="&#x12c;" horiz-adv-x="686" 
d="M635 1362v-41q-112 -18 -193 -21l-92 -1251l189 -6v-20l-4 -23h-445v41q105 17 193 20l90 1252l-187 6v20l2 23h447zM207 1716l59 21q5 -97 47.5 -148t118.5 -51q73 0 121.5 49t95.5 150l33 -13q-84 -243 -270 -243q-99 0 -152 64t-53 171z" />
    <glyph glyph-name="ibreve" unicode="&#x12d;" horiz-adv-x="530" 
d="M315 1020l31 -27q-10 -108 -50 -483t-44 -473q110 0 231 127l19 -27q-47 -66 -116 -109.5t-132 -43.5q-37 0 -52.5 16t-15.5 51t12 165t25.5 257t31.5 289.5t21 195.5l-190 -34l-4 28q137 55 233 68zM166 1468l59 23q0 -97 27 -148t92 -51t101.5 50t64.5 149l31 -14
q-51 -242 -215 -242q-87 0 -127.5 63.5t-32.5 169.5z" />
    <glyph glyph-name="Iogonek" unicode="&#x12e;" horiz-adv-x="686" 
d="M635 1362v-41q-112 -18 -193 -21l-92 -1251l189 -6v-20l-4 -23q-308 -127 -308 -287q0 -98 111 -98q67 0 139 39l8 -31q-74 -59 -166 -59q-76 0 -116.5 38t-40.5 101q0 48 23.5 93.5t62 81t81.5 63t89 47.5v12h-328v41q105 17 193 20l90 1252l-187 6v20l2 23h447z" />
    <glyph glyph-name="iogonek" unicode="&#x12f;" horiz-adv-x="530" 
d="M356 1450q21 0 31 -4q10 -27 10 -55q0 -65 -26 -115h-66l-6 164q40 10 57 10zM315 1020l31 -27q-10 -108 -50 -483t-44 -473q110 0 231 127l19 -27q-19 -26 -61.5 -66t-84 -79t-82 -83.5t-65.5 -95t-25 -98.5q0 -100 113 -100q71 0 137 39l8 -31q-73 -59 -170 -59
q-77 0 -115 37.5t-38 101.5q0 138 190 283l-2 10q-36 -12 -55 -12q-36 0 -51 16.5t-15 50.5q0 29 7.5 114t19.5 203.5t23 223t24 220t16 146.5l-190 -34l-4 28q137 55 233 68z" />
    <glyph glyph-name="Idotaccent" unicode="&#x130;" horiz-adv-x="686" 
d="M635 1362v-41q-112 -18 -193 -21l-92 -1251l189 -6v-20l-4 -23h-445v41q105 17 193 20l90 1252l-187 6v20l2 23h447zM436 1722q21 0 33 -4q8 -21 8 -55q0 -61 -24 -115h-66l-8 164q27 10 57 10z" />
    <glyph glyph-name="dotlessi" unicode="&#x131;" horiz-adv-x="530" 
d="M315 1020l31 -27q-10 -108 -50 -483t-44 -473q110 0 231 127l19 -27q-47 -66 -116 -109.5t-132 -43.5q-37 0 -52.5 16t-15.5 51t12 165t25.5 257t31.5 289.5t21 195.5l-190 -34l-4 28q137 55 233 68z" />
    <glyph glyph-name="IJ" unicode="&#x132;" horiz-adv-x="1335" 
d="M549 0h-459v41q105 17 193 20l90 1252l-187 6v20l2 23h459v-41q-110 -18 -205 -21l-92 -1251l201 -6v-20zM1303 1362v-41q-86 -14 -191 -21l-80 -1060q-8 -100 -19.5 -170.5t-32 -129t-50.5 -92.5t-73.5 -52.5t-102.5 -18.5q-80 0 -165 29t-140 73l14 33q237 -92 395 -70
q47 59 69 142.5t34 238.5l79 1088l-221 8v20l4 23h480z" />
    <glyph glyph-name="ij" unicode="&#x133;" horiz-adv-x="1034" 
d="M877 993l-97 -952q-9 -88 -17.5 -146t-21.5 -117t-30 -94.5t-42.5 -65t-59.5 -42t-79 -12.5q-63 0 -125.5 23t-97.5 61l17 28q164 -72 294 -55q38 56 57.5 146.5t35.5 263.5l94 927l-191 -34l-4 28q135 54 236 68zM868 1450q19 0 31 -4q8 -21 8 -55q0 -65 -26 -115h-64
l-8 164q40 10 59 10zM315 1020l31 -27q-10 -108 -50 -483t-44 -473q110 0 231 127l19 -27q-47 -66 -116 -109.5t-132 -43.5q-37 0 -52.5 16t-15.5 51t12 165t25.5 257t31.5 289.5t21 195.5l-190 -34l-4 28q137 55 233 68zM358 1450q19 0 31 -4q8 -21 8 -55q0 -65 -26 -115
h-64l-8 164q40 10 59 10z" />
    <glyph glyph-name="Jcircumflex" unicode="&#x134;" horiz-adv-x="870" 
d="M838 1362v-41q-86 -14 -191 -21l-80 -1060q-18 -249 -76.5 -356t-199.5 -107q-93 0 -192.5 39.5t-151.5 97.5l14 33q228 -133 434 -105q46 60 68.5 144.5t32.5 236.5l79 1088l-286 8v20l4 23h545zM838 1503l-50 -30l-172 260h-12l-219 -252h-49l260 321h61z" />
    <glyph glyph-name="jcircumflex" unicode="&#x135;" horiz-adv-x="503" 
d="M346 993l-96 -952q-9 -88 -17.5 -146t-21.5 -117t-30 -94.5t-42.5 -65t-59.5 -42t-79 -12.5q-63 0 -125.5 23t-97.5 61l16 28q164 -72 295 -55q38 56 57 145.5t35 264.5l94 927l-190 -34l-4 28q136 55 235 68zM502 1225l-49 -27l-109 277h-12l-176 -273h-47l213 346h61z
" />
    <glyph glyph-name="Kcommaaccent" unicode="&#x136;" horiz-adv-x="1277" 
d="M1251 1362v-41q-117 -19 -172 -21q-161 -292 -399 -593q196 -475 348 -674l152 41l10 -39q-77 -51 -152 -51q-40 0 -65.5 18t-52.5 59q-60 89 -140 255t-145 350h-240l-45 -617l201 -6v-20l-2 -23h-459v41q105 17 193 20l90 1252l-187 6v20l2 23h443v-41
q-138 -19 -191 -21l-41 -585l236 10q227 294 381 588l-197 6v20l2 23h430zM588 -129q32 0 53 -12q12 -30 12 -72q0 -173 -172 -274l-12 22q72 59 101.5 111t29.5 118v27l-57 4l4 72q24 4 41 4z" />
    <glyph glyph-name="kcommaaccent" unicode="&#x137;" horiz-adv-x="1105" 
d="M1018 162l16 -27q-48 -65 -111.5 -108t-127.5 -43q-42 0 -68.5 30t-58.5 117q-86 233 -86 297l82 37q235 140 235 344q0 174 -164 174q-51 0 -110 -16q-95 -95 -173.5 -291.5t-220.5 -675.5q-23 -8 -63 -12l-18 14l143 1479l-170 4l4 31q103 20 205 26l35 -26l-66 -646
q-44 -449 -94 -778l14 -2q36 133 63 226.5t56 188.5t52.5 157.5t49.5 123t51 97.5t52.5 69t58 48t64.5 25t75 9q111 0 170.5 -58t59.5 -171q0 -140 -86.5 -234.5t-247.5 -162.5q29 -91 42.5 -132.5t44.5 -117t60 -121.5q107 0 232 125zM502 -129q32 0 53 -12q12 -30 12 -72
q0 -173 -172 -274l-12 22q72 59 101.5 111t29.5 118v27l-57 4l4 72q24 4 41 4z" />
    <glyph glyph-name="kgreenlandic" unicode="&#x138;" horiz-adv-x="1087" 
d="M801 37q108 3 225 127l18 -27q-50 -69 -111.5 -111t-123.5 -42q-20 0 -38 8.5t-29 17.5t-26.5 33.5t-22.5 38.5t-25 51q-70 145 -154 377h-215l-51 -510q-17 -10 -49 -10l-19 12l96 956l-190 -34l-4 28q132 54 233 68l31 -27l-43 -436l211 4q89 182 166.5 286.5
t146.5 144.5t152 40q46 0 74 -14l6 -43l-217 -43q-124 -95 -281 -377q142 -384 240 -518z" />
    <glyph glyph-name="Lacute" unicode="&#x139;" horiz-adv-x="1054" 
d="M928 205q0 -90 -31 -228h-2l-21 -2l-546 25h-238v41q83 13 191 20l90 1252l-185 6v20l2 23h480v-41q-127 -18 -228 -21l-92 -1253l481 -10l48 266l47 -2q4 -50 4 -96zM614 1829h23q27 -12 47 -45l-238 -303h-49z" />
    <glyph glyph-name="lacute" unicode="&#x13a;" horiz-adv-x="516" 
d="M479 1831h21q26 -11 47 -45l-189 -244h-49zM324 1452l30 -27q-23 -238 -60.5 -598t-54 -534.5t-18.5 -255.5q121 0 246 125l18 -27q-44 -65 -117.5 -108t-140.5 -43q-39 0 -56 17.5t-17 57.5q0 47 16.5 218.5t56 549t58.5 564.5l-168 4l4 28q105 23 203 29z" />
    <glyph glyph-name="Lcommaaccent" unicode="&#x13b;" horiz-adv-x="1054" 
d="M928 205q0 -90 -31 -228h-2l-21 -2l-546 25h-238v41q83 13 191 20l90 1252l-185 6v20l2 23h480v-41q-127 -18 -228 -21l-92 -1253l481 -10l48 266l47 -2q4 -50 4 -96zM483 -129q33 0 54 -12q12 -30 12 -72q0 -173 -172 -274l-12 22q72 59 101.5 111t29.5 118v27l-58 4
l4 72q24 4 41 4z" />
    <glyph glyph-name="lcommaaccent" unicode="&#x13c;" horiz-adv-x="516" 
d="M336 1542l33 -26q-21 -208 -62 -591t-61.5 -595t-22.5 -293q124 0 246 125l18 -27q-45 -64 -118 -107.5t-138 -43.5q-40 0 -57.5 18t-17.5 59q0 86 141 1420l-174 4l4 31q101 20 209 26zM236 -129q32 0 53 -12q12 -30 12 -72q0 -173 -172 -274l-12 22q72 59 101.5 111
t29.5 118v27l-58 4l5 72q24 4 41 4z" />
    <glyph glyph-name="Lcaron" unicode="&#x13d;" horiz-adv-x="1054" 
d="M928 205q0 -90 -31 -228h-2l-21 -2l-546 25h-238v41q83 13 191 20l90 1252l-185 6v20l2 23h480v-41q-127 -18 -228 -21l-92 -1253l481 -10l48 266l47 -2q4 -50 4 -96zM938 1401q27 0 51 -17q-8 -172 -92 -380h-39l51 247v146q1 0 11.5 2t17.5 2z" />
    <glyph glyph-name="lcaron" unicode="&#x13e;" horiz-adv-x="575" 
d="M336 1542l33 -26q-21 -208 -62 -591t-61.5 -595t-22.5 -293q124 0 246 125l18 -27q-45 -64 -118 -107.5t-138 -43.5q-40 0 -57.5 18t-17.5 59q0 86 141 1420l-174 4l4 31q101 20 209 26zM631 1542q29 0 51 -16q-8 -173 -92 -381h-39l51 248v145q1 0 11.5 2t17.5 2z" />
    <glyph glyph-name="Ldot" unicode="&#x13f;" horiz-adv-x="1054" 
d="M934 864q11 0 31 -4q12 -32 12 -57q0 -61 -35 -113h-63l2 164q30 10 53 10zM928 205q0 -90 -31 -228h-2l-21 -2l-546 25h-238v41q83 13 191 20l90 1252l-185 6v20l2 23h480v-41q-127 -18 -228 -21l-92 -1253l481 -10l48 266l47 -2q4 -50 4 -96z" />
    <glyph glyph-name="ldot" unicode="&#x140;" horiz-adv-x="518" 
d="M514 807q13 0 33 -4q10 -27 10 -53q0 -61 -29 -117h-65l-6 164q40 10 57 10zM336 1542l33 -26q-21 -208 -62 -591t-61.5 -595t-22.5 -293q124 0 246 125l18 -27q-45 -64 -118 -107.5t-138 -43.5q-40 0 -57.5 18t-17.5 59q0 86 141 1420l-174 4l4 31q101 20 209 26z" />
    <glyph glyph-name="Lslash" unicode="&#x141;" horiz-adv-x="1071" 
d="M944 205q0 -90 -31 -228h-2l-20 -2l-547 25h-238v41q83 13 191 20l39 541l-207 -115l-16 11v41l227 127l47 647l-184 6v20l2 23h479v-41q-127 -18 -227 -21l-43 -602l401 224l16 -11v-41l-421 -233l-45 -590l481 -10l47 266l47 -2q4 -50 4 -96z" />
    <glyph glyph-name="lslash" unicode="&#x142;" horiz-adv-x="589" 
d="M557 858l-242 -205q-52 -491 -55 -616q124 0 246 125l18 -27q-45 -64 -118 -107.5t-138 -43.5q-40 0 -57.5 18t-17.5 59q0 63 47 533l-174 -148l-17 11v41l199 168l86 815l-174 4l4 31q101 20 209 26l33 -26q-35 -352 -84 -793l219 186l16 -10v-41z" />
    <glyph glyph-name="Nacute" unicode="&#x143;" horiz-adv-x="1445" 
d="M1413 1362v-41q-113 -18 -192 -21l-97 -1300q-27 -14 -59 -20h-21l-489 1058q-95 202 -119 265h-12l-86 -1254l207 -6v-20l-2 -23h-453v41q104 17 193 20l92 1246l-191 8v18l2 23q147 6 293 6l465 -1002q90 -193 123 -284h12l84 1237l-192 6v20l2 23h440zM1004 1829h22
q27 -12 47 -45l-237 -303h-50z" />
    <glyph glyph-name="nacute" unicode="&#x144;" horiz-adv-x="1169" 
d="M1112 164l16 -27q-45 -66 -114.5 -109.5t-132.5 -43.5q-37 0 -53.5 16t-16.5 51q0 54 48 361.5t48 398.5q0 85 -34.5 128.5t-116.5 43.5q-50 0 -109 -16q-92 -94 -167 -286.5t-218 -680.5q-19 -8 -63 -12l-19 14l96 956l-190 -34l-4 28q137 55 233 68l31 -27l-108 -901
l14 -2q42 153 70.5 252t61 203.5t57 166.5t54.5 124t56.5 94t61 58.5t70.5 36t81 9.5q106 0 158.5 -57t52.5 -164q0 -90 -48 -396t-53 -380q111 0 238 127zM975 1571h20q33 -13 49 -45l-282 -352h-47z" />
    <glyph glyph-name="Ncommaaccent" unicode="&#x145;" horiz-adv-x="1445" 
d="M1413 1362v-41q-113 -18 -192 -21l-97 -1300q-27 -14 -59 -20h-21l-489 1058q-95 202 -119 265h-12l-86 -1254l207 -6v-20l-2 -23h-453v41q104 17 193 20l92 1246l-191 8v18l2 23q147 6 293 6l465 -1002q90 -193 123 -284h12l84 1237l-192 6v20l2 23h440zM668 -129
q32 0 53 -12q12 -30 12 -72q0 -173 -172 -274l-12 22q72 59 101.5 111t29.5 118v27l-57 4l4 72q24 4 41 4z" />
    <glyph glyph-name="ncommaaccent" unicode="&#x146;" horiz-adv-x="1169" 
d="M1112 164l16 -27q-45 -66 -114.5 -109.5t-132.5 -43.5q-37 0 -53.5 16t-16.5 51q0 54 48 361.5t48 398.5q0 85 -34.5 128.5t-116.5 43.5q-50 0 -109 -16q-92 -94 -167 -286.5t-218 -680.5q-19 -8 -63 -12l-19 14l96 956l-190 -34l-4 28q137 55 233 68l31 -27l-108 -901
l14 -2q42 153 70.5 252t61 203.5t57 166.5t54.5 124t56.5 94t61 58.5t70.5 36t81 9.5q106 0 158.5 -57t52.5 -164q0 -90 -48 -396t-53 -380q111 0 238 127zM535 -129q32 0 53 -12q12 -30 12 -72q0 -173 -172 -274l-12 22q72 59 101.5 111t29.5 118v27l-58 4l5 72q24 4 41 4z
" />
    <glyph glyph-name="Ncaron" unicode="&#x147;" horiz-adv-x="1445" 
d="M1413 1362v-41q-113 -18 -192 -21l-97 -1300q-27 -14 -59 -20h-21l-489 1058q-95 202 -119 265h-12l-86 -1254l207 -6v-20l-2 -23h-453v41q104 17 193 20l92 1246l-191 8v18l2 23q147 6 293 6l465 -1002q90 -193 123 -284h12l84 1237l-192 6v20l2 23h440zM817 1552h10
l220 252h51l-262 -321h-62l-180 299l51 30z" />
    <glyph glyph-name="ncaron" unicode="&#x148;" horiz-adv-x="1169" 
d="M1112 164l16 -27q-45 -66 -114.5 -109.5t-132.5 -43.5q-37 0 -53.5 16t-16.5 51q0 54 48 361.5t48 398.5q0 85 -34.5 128.5t-116.5 43.5q-50 0 -109 -16q-92 -94 -167 -286.5t-218 -680.5q-19 -8 -63 -12l-19 14l96 956l-190 -34l-4 28q137 55 233 68l31 -27l-108 -901
l14 -2q42 153 70.5 252t61 203.5t57 166.5t54.5 124t56.5 94t61 58.5t70.5 36t81 9.5q106 0 158.5 -57t52.5 -164q0 -90 -48 -396t-53 -380q111 0 238 127zM741 1270h11l204 278h48l-242 -350h-62l-159 328l51 28z" />
    <glyph glyph-name="napostrophe" unicode="&#x149;" horiz-adv-x="1177" 
d="M1120 164l17 -27q-45 -66 -114.5 -109.5t-133.5 -43.5q-37 0 -53.5 16t-16.5 51q0 54 48 361.5t48 398.5q0 85 -34.5 128.5t-116.5 43.5q-50 0 -109 -16q-92 -94 -167 -286.5t-218 -680.5q-19 -8 -63 -12l-19 14l97 956l-191 -34l-4 28q136 55 234 68l30 -27l-108 -901
l14 -2q42 153 70.5 252t61 203.5t57 166.5t54.5 124t56.5 94t61 58.5t70.5 36t81 9.5q106 0 158.5 -57t52.5 -164q0 -90 -47.5 -396.5t-52.5 -379.5q110 0 237 127zM80 1542q32 0 53 -12q12 -30 12 -72q0 -173 -172 -274l-12 22q72 59 101.5 111.5t29.5 118.5v26l-57 4l4 72
q24 4 41 4z" />
    <glyph glyph-name="Eng" unicode="&#x14a;" horiz-adv-x="1445" 
d="M1413 1362v-41q-112 -18 -192 -21l-80 -1064q-8 -102 -19.5 -172.5t-30.5 -128t-48 -90.5t-70.5 -50.5t-98.5 -17.5q-80 0 -163 29t-136 79l17 33q192 -101 387 -74q42 54 65 127l-491 1067q-83 177 -117 265h-12l-86 -1254l168 -6v-20l-2 -23h-414v41q104 17 193 20
l92 1246l-191 8v18l2 23q147 6 293 6l461 -1002q95 -203 125 -284h12l86 1237l-190 6v20l2 23h438z" />
    <glyph glyph-name="eng" unicode="&#x14b;" horiz-adv-x="1148" 
d="M762 1034q213 0 213 -227q0 -80 -74 -760q-9 -88 -17.5 -146t-21.5 -118t-30 -96.5t-42 -66.5t-59.5 -43t-79.5 -13q-63 0 -125.5 23t-97.5 61l16 28q164 -72 293 -55q41 59 59 145t35 265q76 699 76 782t-34.5 126.5t-116.5 43.5q-50 0 -109 -16q-92 -93 -165.5 -283.5
t-219.5 -683.5q-19 -8 -63 -12l-19 14l96 956l-190 -34l-4 28q137 55 233 68l31 -27l-108 -901l14 -2q57 208 91.5 326.5t77 241t74 181.5t74.5 110.5t88 68t105 16.5z" />
    <glyph glyph-name="Omacron" unicode="&#x14c;" horiz-adv-x="1277" 
d="M717 1389q116 0 206.5 -45t146 -124.5t84 -183t28.5 -225.5q0 -69 -8 -143.5t-28.5 -157.5t-50.5 -159t-77.5 -145.5t-106.5 -120.5t-140 -81.5t-175 -30.5q-115 0 -204 44t-144.5 123.5t-84 184t-28.5 230.5q0 70 8 144t27.5 156.5t49.5 158t77 144.5t105.5 120
t139.5 81t175 30zM709 1333q-116 0 -217 -53q-131 -94 -206 -297.5t-75 -421.5q0 -253 106 -392.5t289 -139.5q116 0 217 53q131 95 207 298.5t76 420.5q0 253 -107 392.5t-290 139.5zM535 1671h442l1 -7q1 -6 1 -11q0 -28 -8 -41h-443q0 2 -1 9t-1 11q0 21 9 39z" />
    <glyph glyph-name="omacron" unicode="&#x14d;" horiz-adv-x="962" 
d="M535 1034q83 0 147.5 -33.5t103.5 -91.5t58.5 -131t19.5 -157q0 -74 -13 -155t-46 -170.5t-81 -160t-126.5 -116.5t-175.5 -46q-108 0 -183.5 57.5t-109 149.5t-33.5 209q0 74 13 155.5t46 170t81 158.5t125.5 115.5t173.5 45.5zM530 983q-74 0 -149 -35
q-108 -92 -160.5 -243t-52.5 -308q0 -192 74.5 -282t191.5 -90q69 0 141 30q77 63 128 161.5t70.5 195t19.5 196.5q0 191 -73.5 283t-189.5 92zM344 1382h404l1 -6q1 -6 1 -12q0 -24 -9 -39h-403l-1 7q-1 6 -1 11q0 23 8 39z" />
    <glyph glyph-name="Obreve" unicode="&#x14e;" horiz-adv-x="1277" 
d="M717 1389q116 0 206.5 -45t146 -124.5t84 -183t28.5 -225.5q0 -69 -8 -143.5t-28.5 -157.5t-50.5 -159t-77.5 -145.5t-106.5 -120.5t-140 -81.5t-175 -30.5q-115 0 -204 44t-144.5 123.5t-84 184t-28.5 230.5q0 70 8 144t27.5 156.5t49.5 158t77 144.5t105.5 120
t139.5 81t175 30zM709 1333q-116 0 -217 -53q-131 -94 -206 -297.5t-75 -421.5q0 -253 106 -392.5t289 -139.5q116 0 217 53q131 95 207 298.5t76 420.5q0 253 -107 392.5t-290 139.5zM522 1716l60 21q5 -97 47.5 -148t118.5 -51q73 0 121.5 49t95.5 150l32 -13
q-84 -243 -270 -243q-99 0 -152 64t-53 171z" />
    <glyph glyph-name="obreve" unicode="&#x14f;" horiz-adv-x="962" 
d="M535 1034q83 0 147.5 -33.5t103.5 -91.5t58.5 -131t19.5 -157q0 -74 -13 -155t-46 -170.5t-81 -160t-126.5 -116.5t-175.5 -46q-108 0 -183.5 57.5t-109 149.5t-33.5 209q0 74 13 155.5t46 170t81 158.5t125.5 115.5t173.5 45.5zM530 983q-74 0 -149 -35
q-108 -92 -160.5 -243t-52.5 -308q0 -192 74.5 -282t191.5 -90q69 0 141 30q77 63 128 161.5t70.5 195t19.5 196.5q0 191 -73.5 283t-189.5 92zM340 1475l57 14q3 -199 146 -199q71 0 119.5 52t82.5 153l31 -14q-31 -120 -96.5 -184t-157.5 -64q-94 0 -139.5 68t-42.5 174z
" />
    <glyph glyph-name="Ohungarumlaut" unicode="&#x150;" horiz-adv-x="1277" 
d="M717 1389q116 0 206.5 -45t146 -124.5t84 -183t28.5 -225.5q0 -69 -8 -143.5t-28.5 -157.5t-50.5 -159t-77.5 -145.5t-106.5 -120.5t-140 -81.5t-175 -30.5q-115 0 -204 44t-144.5 123.5t-84 184t-28.5 230.5q0 70 8 144t27.5 156.5t49.5 158t77 144.5t105.5 120
t139.5 81t175 30zM709 1333q-116 0 -217 -53q-131 -94 -206 -297.5t-75 -421.5q0 -253 106 -392.5t289 -139.5q116 0 217 53q131 95 207 298.5t76 420.5q0 253 -107 392.5t-290 139.5zM680 1808h20q35 -14 50 -36l-170 -291h-41zM1014 1808h20q36 -13 49 -36l-168 -291h-43z
" />
    <glyph glyph-name="ohungarumlaut" unicode="&#x151;" horiz-adv-x="962" 
d="M535 1034q83 0 147.5 -33.5t103.5 -91.5t58.5 -131t19.5 -157q0 -74 -13 -155t-46 -170.5t-81 -160t-126.5 -116.5t-175.5 -46q-108 0 -183.5 57.5t-109 149.5t-33.5 209q0 74 13 155.5t46 170t81 158.5t125.5 115.5t173.5 45.5zM530 983q-74 0 -149 -35
q-108 -92 -160.5 -243t-52.5 -308q0 -192 74.5 -282t191.5 -90q69 0 141 30q77 63 128 161.5t70.5 195t19.5 196.5q0 191 -73.5 283t-189.5 92zM530 1571h23q32 -8 55 -37l-202 -360h-41zM803 1571h22q37 -9 56 -37l-201 -360h-43z" />
    <glyph glyph-name="OE" unicode="&#x152;" horiz-adv-x="1742" 
d="M1628 1386l17 -12q4 -32 4 -51q0 -113 -27 -252h-45l-2 234l-545 10l-47 -629l401 8l7 -20l-7 -41l-405 6l-43 -592l534 -10l48 266l47 -2q4 -50 4 -96q0 -90 -31 -228h-2l-20 -2l-601 25h-53q-169 -27 -262 -27q-154 0 -260.5 77.5t-155.5 206.5t-49 300q0 70 8 143
t28 156t50 158t77.5 144t107.5 120t143 81t180 30q111 0 234 -27h612v12q27 12 53 12zM868 61l90 1242q-104 30 -237 30q-126 0 -227 -53q-131 -94 -206 -297.5t-75 -423.5q0 -254 106 -392t293 -138q134 0 256 32z" />
    <glyph glyph-name="oe" unicode="&#x153;" horiz-adv-x="1558" 
d="M1077 35q81 0 171.5 48.5t164.5 133.5l21 -33q-80 -103 -178.5 -155t-192.5 -52q-222 0 -266 297h-13q-55 -144 -141 -222.5t-217 -78.5q-84 0 -148.5 32.5t-103.5 90.5t-58.5 132t-19.5 161q0 61 9.5 127.5t29.5 141t55 140.5t82 119.5t115.5 85t149.5 31.5
q256 0 299 -315h14q53 148 140.5 233.5t228.5 85.5q121 0 189.5 -61t68.5 -168q0 -75 -37.5 -135.5t-98 -99.5t-144 -66.5t-168.5 -41t-179 -17.5l-2 -52q0 -186 62 -274t167 -88zM1063 954q-94 -80 -146 -203t-65 -264q553 61 553 324q0 84 -55.5 129t-139.5 45
q-74 0 -147 -31zM575 55q77 63 128 161.5t70.5 195t19.5 196.5q0 191 -73.5 283t-189.5 92q-74 0 -149 -35q-110 -94 -161.5 -244.5t-51.5 -306.5q0 -192 74.5 -282t191.5 -90q69 0 141 30z" />
    <glyph glyph-name="Racute" unicode="&#x154;" horiz-adv-x="1183" 
d="M1147 74l10 -39q-77 -51 -151 -51q-37 0 -64 18t-55 59q-47 72 -117 224t-127 315h-254l-39 -551l201 -6v-20l-2 -23h-459v41q105 17 191 20l90 1246l-187 8v20l2 21q184 12 396 12q432 0 432 -332q0 -158 -84.5 -264.5t-224.5 -163.5q163 -398 290 -575zM395 653h287
q122 60 189 156t67 223q0 283 -348 283h-148zM831 1829h23q27 -12 47 -45l-237 -303h-50z" />
    <glyph glyph-name="racute" unicode="&#x155;" horiz-adv-x="741" 
d="M745 950l-139 4q-82 -96 -146.5 -280t-197.5 -674q-19 -8 -63 -12l-19 14l96 956l-190 -34l-4 28q137 55 233 68l31 -27l-108 -901l14 -2q57 236 99 387.5t82 267t77.5 175t77 87t90.5 27.5q55 0 78 -30zM737 1579h21q33 -13 49 -45l-283 -352h-47z" />
    <glyph glyph-name="Rcommaaccent" unicode="&#x156;" horiz-adv-x="1183" 
d="M1147 74l10 -39q-77 -51 -151 -51q-37 0 -64 18t-55 59q-47 72 -117 224t-127 315h-254l-39 -551l201 -6v-20l-2 -23h-459v41q105 17 191 20l90 1246l-187 8v20l2 21q184 12 396 12q432 0 432 -332q0 -158 -84.5 -264.5t-224.5 -163.5q163 -398 290 -575zM395 653h287
q122 60 189 156t67 223q0 283 -348 283h-148zM596 -129q32 0 53 -12q13 -32 13 -72q0 -173 -173 -274l-12 22q72 59 101.5 111t29.5 118v27l-57 4l4 72q24 4 41 4z" />
    <glyph glyph-name="rcommaaccent" unicode="&#x157;" horiz-adv-x="741" 
d="M745 950l-139 4q-82 -96 -146.5 -280t-197.5 -674q-19 -8 -63 -12l-19 14l96 956l-190 -34l-4 28q137 55 233 68l31 -27l-108 -901l14 -2q57 236 99 387.5t82 267t77.5 175t77 87t90.5 27.5q55 0 78 -30zM193 -129q32 0 53 -12q12 -30 12 -72q0 -173 -172 -274l-12 22
q72 59 101.5 111t29.5 118v27l-58 4l5 72q24 4 41 4z" />
    <glyph glyph-name="Rcaron" unicode="&#x158;" horiz-adv-x="1183" 
d="M1147 74l10 -39q-77 -51 -151 -51q-37 0 -64 18t-55 59q-47 72 -117 224t-127 315h-254l-39 -551l201 -6v-20l-2 -23h-459v41q105 17 191 20l90 1246l-187 8v20l2 21q184 12 396 12q432 0 432 -332q0 -158 -84.5 -264.5t-224.5 -163.5q163 -398 290 -575zM395 653h287
q122 60 189 156t67 223q0 283 -348 283h-148zM645 1552h10l219 252h52l-262 -321h-62l-180 299l51 30z" />
    <glyph glyph-name="rcaron" unicode="&#x159;" horiz-adv-x="741" 
d="M745 950l-139 4q-82 -96 -146.5 -280t-197.5 -674q-19 -8 -63 -12l-19 14l96 956l-190 -34l-4 28q137 55 233 68l31 -27l-108 -901l14 -2q57 236 99 387.5t82 267t77.5 175t77 87t90.5 27.5q55 0 78 -30zM504 1278h10l205 278h47l-242 -350h-61l-160 328l51 29z" />
    <glyph glyph-name="Sacute" unicode="&#x15a;" horiz-adv-x="985" 
d="M510 737l59 -41q70 -47 112.5 -82t84.5 -83t61 -103.5t19 -122.5q0 -150 -103 -241t-297 -91q-185 0 -327 82q-8 47 -8 119q0 94 16 203l47 2l21 -293q117 -57 245 -57q125 0 209 37q54 32 89.5 92.5t35.5 140.5q0 53 -17 99t-52 87t-73 72.5t-95 71.5l-66 45
q-120 83 -163 125q-113 108 -113 256q0 152 100 243t260 91q134 0 231 -58l2 33q24 8 50 8l18 -14q2 -14 2 -49q0 -146 -24 -287h-46l-2 260q-102 51 -233 51q-89 0 -154 -22q-59 -35 -97 -99t-38 -149q0 -44 12.5 -82.5t31 -67.5t54.5 -62t66 -55.5t82 -58.5zM768 1829h23
q27 -12 47 -45l-238 -303h-49z" />
    <glyph glyph-name="sacute" unicode="&#x15b;" horiz-adv-x="749" 
d="M283 954q-74 -58 -74 -151q0 -20 3.5 -38.5t7 -32t16.5 -32t18.5 -27.5t28 -31t30.5 -29.5t40 -36.5t44 -39q122 -110 167.5 -174t45.5 -146q0 -117 -82 -180.5t-209 -63.5q-108 0 -176.5 44.5t-85.5 105.5l29 35l197 -135q126 -3 192 32q33 26 50.5 59.5t17.5 92.5
q0 63 -35 116.5t-148 155.5q-15 14 -45.5 41t-43.5 39t-36.5 34.5t-33.5 36t-24.5 34.5t-20 39t-10.5 40.5t-5 47.5q0 115 83.5 179t209.5 64q89 0 151.5 -33t86.5 -88l-25 -36l-192 108q-93 0 -172 -31zM664 1571h20q33 -13 49 -45l-282 -352h-48z" />
    <glyph glyph-name="Scircumflex" unicode="&#x15c;" horiz-adv-x="985" 
d="M510 737l59 -41q70 -47 112.5 -82t84.5 -83t61 -103.5t19 -122.5q0 -150 -103 -241t-297 -91q-185 0 -327 82q-8 47 -8 119q0 94 16 203l47 2l21 -293q117 -57 245 -57q125 0 209 37q54 32 89.5 92.5t35.5 140.5q0 53 -17 99t-52 87t-73 72.5t-95 71.5l-66 45
q-120 83 -163 125q-113 108 -113 256q0 152 100 243t260 91q134 0 231 -58l2 33q24 8 50 8l18 -14q2 -14 2 -49q0 -146 -24 -287h-46l-2 260q-102 51 -233 51q-89 0 -154 -22q-59 -35 -97 -99t-38 -149q0 -44 12.5 -82.5t31 -67.5t54.5 -62t66 -55.5t82 -58.5zM827 1503
l-49 -30l-172 260h-12l-219 -252h-49l260 321h61z" />
    <glyph glyph-name="scircumflex" unicode="&#x15d;" horiz-adv-x="749" 
d="M283 954q-74 -58 -74 -151q0 -20 3.5 -38.5t7 -32t16.5 -32t18.5 -27.5t28 -31t30.5 -29.5t40 -36.5t44 -39q122 -110 167.5 -174t45.5 -146q0 -117 -82 -180.5t-209 -63.5q-108 0 -176.5 44.5t-85.5 105.5l29 35l197 -135q126 -3 192 32q33 26 50.5 59.5t17.5 92.5
q0 63 -35 116.5t-148 155.5q-15 14 -45.5 41t-43.5 39t-36.5 34.5t-33.5 36t-24.5 34.5t-20 39t-10.5 40.5t-5 47.5q0 115 83.5 179t209.5 64q89 0 151.5 -33t86.5 -88l-25 -36l-192 108q-93 0 -172 -31zM659 1221l-51 -29l-149 285h-10l-205 -279h-47l241 350h62z" />
    <glyph glyph-name="Scedilla" unicode="&#x15e;" horiz-adv-x="985" 
d="M510 737l59 -41q70 -47 112.5 -82t84.5 -83t61 -103.5t19 -122.5q0 -143 -94.5 -233t-270.5 -97l-14 -131q70 -8 106.5 -34t36.5 -82q0 -68 -52.5 -116t-137.5 -48q-48 0 -90 15.5t-66 39.5l15 33q76 -37 131 -37q61 0 100 31.5t39 81.5q0 42 -32.5 60t-106.5 32l26 153
q-183 3 -317 82q-8 47 -8 119q0 94 16 203l47 2l21 -293q117 -57 245 -57q125 0 209 37q54 32 89.5 92.5t35.5 140.5q0 53 -17 99t-52 87t-73 72.5t-95 71.5l-66 45q-120 83 -163 125q-113 108 -113 256q0 152 100 243t260 91q134 0 231 -58l2 33q24 8 50 8l18 -14
q2 -14 2 -49q0 -146 -24 -287h-46l-2 260q-102 51 -233 51q-89 0 -154 -22q-59 -35 -97 -99t-38 -149q0 -44 12.5 -82.5t31 -67.5t54.5 -62t66 -55.5t82 -58.5z" />
    <glyph glyph-name="scedilla" unicode="&#x15f;" horiz-adv-x="749" 
d="M283 954q-74 -58 -74 -151q0 -20 3.5 -38.5t7 -32t16.5 -32t18.5 -27.5t28 -31t30.5 -29.5t40 -36.5t44 -39q122 -110 167.5 -174t45.5 -146q0 -114 -76.5 -176.5t-197.5 -67.5l-14 -129q70 -8 106.5 -34t36.5 -82q0 -68 -53 -116t-138 -48q-100 0 -155 55l14 33
q76 -37 131 -37q61 0 100 31.5t39 81.5q0 42 -32.5 60t-106.5 32l27 155q-96 6 -157.5 48.5t-76.5 99.5l29 35l197 -135q126 -3 192 32q33 26 50.5 59.5t17.5 92.5q0 63 -35 116.5t-148 155.5q-15 14 -45.5 41t-43.5 39t-36.5 34.5t-33.5 36t-24.5 34.5t-20 39t-10.5 40.5
t-5 47.5q0 115 83.5 179t209.5 64q89 0 151.5 -33t86.5 -88l-25 -36l-192 108q-93 0 -172 -31z" />
    <glyph glyph-name="Scaron" unicode="&#x160;" horiz-adv-x="985" 
d="M510 737l59 -41q70 -47 112.5 -82t84.5 -83t61 -103.5t19 -122.5q0 -150 -103 -241t-297 -91q-185 0 -327 82q-8 47 -8 119q0 94 16 203l47 2l21 -293q117 -57 245 -57q125 0 209 37q54 32 89.5 92.5t35.5 140.5q0 53 -17 99t-52 87t-73 72.5t-95 71.5l-66 45
q-120 83 -163 125q-113 108 -113 256q0 152 100 243t260 91q134 0 231 -58l2 33q24 8 50 8l18 -14q2 -14 2 -49q0 -146 -24 -287h-46l-2 260q-102 51 -233 51q-89 0 -154 -22q-59 -35 -97 -99t-38 -149q0 -44 12.5 -82.5t31 -67.5t54.5 -62t66 -55.5t82 -58.5zM582 1552h10
l219 252h51l-262 -321h-61l-181 299l52 30z" />
    <glyph glyph-name="scaron" unicode="&#x161;" horiz-adv-x="749" 
d="M283 954q-74 -58 -74 -151q0 -20 3.5 -38.5t7 -32t16.5 -32t18.5 -27.5t28 -31t30.5 -29.5t40 -36.5t44 -39q122 -110 167.5 -174t45.5 -146q0 -117 -82 -180.5t-209 -63.5q-108 0 -176.5 44.5t-85.5 105.5l29 35l197 -135q126 -3 192 32q33 26 50.5 59.5t17.5 92.5
q0 63 -35 116.5t-148 155.5q-15 14 -45.5 41t-43.5 39t-36.5 34.5t-33.5 36t-24.5 34.5t-20 39t-10.5 40.5t-5 47.5q0 115 83.5 179t209.5 64q89 0 151.5 -33t86.5 -88l-25 -36l-192 108q-93 0 -172 -31zM430 1270h10l205 278h47l-241 -350h-62l-160 328l52 28z" />
    <glyph glyph-name="Tcommaaccent" unicode="&#x162;" horiz-adv-x="1107" 
d="M1069 1386l16 -12q5 -40 5 -51q0 -113 -27 -252h-45l-2 234l-340 8l-92 -1264l237 -6v-20l-4 -23h-248l-16 -156q70 -8 106.5 -34t36.5 -82q0 -68 -52.5 -116t-137.5 -48q-48 0 -90 15.5t-66 39.5l15 33q76 -37 131 -37q61 0 100 31.5t39 81.5q0 42 -32.5 60t-106.5 32
l32 180h-243v41q114 17 229 20l92 1254l-330 10l-47 -256l-43 2q-4 54 -4 96q0 93 31 217l23 2l411 -24h369v12q27 12 53 12z" />
    <glyph glyph-name="tcommaaccent" unicode="&#x163;" horiz-adv-x="653" 
d="M610 975v-29l-10 -22h-272q-75 -696 -82 -889q166 0 313 125l19 -27q-41 -51 -109.5 -89t-138.5 -54l-17 -146q70 -8 107 -34t37 -82q0 -68 -53 -116t-138 -48q-100 0 -155 55l14 33q76 -37 131 -37q61 0 100 31.5t39 81.5q0 42 -32.5 60t-106.5 32l29 164q-8 -2 -27 -2
q-44 0 -61 18t-17 63q0 67 26.5 337.5t57.5 519.5l-155 10v39q17 3 163 16q27 203 43 275q21 14 39 14l11 -10l-31 -289h276z" />
    <glyph glyph-name="Tcaron" unicode="&#x164;" horiz-adv-x="1107" 
d="M1069 1386l16 -12q5 -40 5 -51q0 -113 -27 -252h-45l-2 234l-340 8l-92 -1264l237 -6v-20l-4 -23h-532v41q114 17 229 20l92 1254l-330 10l-47 -256l-43 2q-4 54 -4 96q0 93 31 217l23 2l411 -24h369v12q27 12 53 12zM662 1552h10l219 252h51l-262 -321h-62l-180 299
l51 30z" />
    <glyph glyph-name="tcaron" unicode="&#x165;" horiz-adv-x="657" 
d="M610 975v-29l-10 -22h-272q-75 -696 -82 -889q166 0 313 125l19 -27q-54 -65 -148 -108t-172 -43q-44 0 -61 18t-17 63q0 67 26.5 337.5t57.5 519.5l-155 10v39q17 3 163 16q27 203 43 275q21 14 39 14l11 -10l-31 -289h276zM627 1542q29 0 51 -16q-8 -167 -92 -375h-37
l49 242v145q1 0 5 1t11 2t13 1z" />
    <glyph glyph-name="Tbar" unicode="&#x166;" horiz-adv-x="1107" 
d="M1069 1386l16 -12q5 -40 5 -51q0 -113 -27 -252h-45l-2 234l-340 8l-49 -684h311v-23l-6 -31h-309l-39 -526l237 -6v-20l-4 -23h-532v41q114 17 229 20l37 514h-301v23l6 31h299l51 686l-330 10l-47 -256l-43 2q-4 54 -4 96q0 93 31 217l23 2l411 -24h369v12q27 12 53 12
z" />
    <glyph glyph-name="tbar" unicode="&#x167;" horiz-adv-x="673" 
d="M621 975v-29l-11 -22h-272l-25 -242h289v-29l-10 -24h-285q-48 -455 -51 -594q166 0 313 125l19 -27q-54 -65 -148 -108t-172 -43q-44 0 -61 18t-17 63q0 92 50 566l-148 4v47q78 4 154 4l28 236l-155 10v39q16 3 164 16q27 203 43 275q21 14 39 14l10 -10l-31 -289h277z
" />
    <glyph glyph-name="Utilde" unicode="&#x168;" horiz-adv-x="1368" 
d="M1354 1362v-41q-111 -18 -201 -21q-4 -176 -19.5 -427.5t-29.5 -374.5q-29 -273 -130.5 -399t-314.5 -126q-198 0 -296.5 106t-98.5 324q0 168 64 910l-189 6v20l2 23h461v-41q-114 -18 -205 -21q-63 -715 -63 -909t87 -278t247 -84q140 0 235 65q62 65 95 161t51 251
q18 161 51 807l-205 6v20l2 23h457zM1020 1702l24 -25q-38 -78 -72 -116.5t-73 -38.5q-33 0 -82 37l-158 114l-112 -127l-25 23q37 77 71.5 117t74.5 40q35 0 84 -36l155 -113z" />
    <glyph glyph-name="utilde" unicode="&#x169;" horiz-adv-x="1169" 
d="M1124 164l17 -27q-45 -66 -114.5 -109.5t-133.5 -43.5q-37 0 -52.5 16.5t-15.5 52.5q0 38 11.5 136t40.5 319.5t51 406.5l-15 3q-37 -136 -63 -226.5t-55.5 -187.5t-51.5 -157.5t-48 -123.5t-49.5 -98.5t-51 -68.5t-57 -49t-63 -25t-73.5 -9q-211 0 -211 228
q0 177 99 757l-191 -34l-4 28q136 55 234 68l30 -27q-100 -652 -100 -790q0 -89 34.5 -133.5t117.5 -44.5q49 0 108 16q92 93 165.5 283.5t219.5 683.5q19 8 64 12l18 -14l-98 -969q113 0 237 127zM879 1442l22 -23q-16 -34 -29 -56.5t-32 -49t-41 -40t-45 -13.5
q-29 0 -66 32l-145 119l-109 -127l-24 21q22 42 31.5 58.5t30.5 46.5t41.5 42t43.5 12q28 0 68 -30l143 -119z" />
    <glyph glyph-name="Umacron" unicode="&#x16a;" horiz-adv-x="1368" 
d="M1354 1362v-41q-111 -18 -201 -21q-4 -176 -19.5 -427.5t-29.5 -374.5q-29 -273 -130.5 -399t-314.5 -126q-198 0 -296.5 106t-98.5 324q0 168 64 910l-189 6v20l2 23h461v-41q-114 -18 -205 -21q-63 -715 -63 -909t87 -278t247 -84q140 0 235 65q62 65 95 161t51 251
q18 161 51 807l-205 6v20l2 23h457zM567 1671h443l1 -7q1 -6 1 -11q0 -28 -8 -41h-443q0 2 -1 9t-1 11q0 23 8 39z" />
    <glyph glyph-name="umacron" unicode="&#x16b;" horiz-adv-x="1169" 
d="M1124 164l17 -27q-45 -66 -114.5 -109.5t-133.5 -43.5q-37 0 -52.5 16.5t-15.5 52.5q0 38 11.5 136t40.5 319.5t51 406.5l-15 3q-37 -136 -63 -226.5t-55.5 -187.5t-51.5 -157.5t-48 -123.5t-49.5 -98.5t-51 -68.5t-57 -49t-63 -25t-73.5 -9q-211 0 -211 228
q0 177 99 757l-191 -34l-4 28q136 55 234 68l30 -27q-100 -652 -100 -790q0 -89 34.5 -133.5t117.5 -44.5q49 0 108 16q92 93 165.5 283.5t219.5 683.5q19 8 64 12l18 -14l-98 -969q113 0 237 127zM455 1382h403l1 -6q1 -6 1 -12q0 -26 -8 -39h-403l-1 7q-2 6 -2 11
q0 21 9 39z" />
    <glyph glyph-name="Ubreve" unicode="&#x16c;" horiz-adv-x="1368" 
d="M1354 1362v-41q-111 -18 -201 -21q-4 -176 -19.5 -427.5t-29.5 -374.5q-29 -273 -130.5 -399t-314.5 -126q-198 0 -296.5 106t-98.5 324q0 168 64 910l-189 6v20l2 23h461v-41q-114 -18 -205 -21q-63 -715 -63 -909t87 -278t247 -84q140 0 235 65q62 65 95 161t51 251
q18 161 51 807l-205 6v20l2 23h457zM555 1716l59 21q5 -97 47.5 -148t118.5 -51q73 0 121.5 49t95.5 150l33 -13q-84 -243 -270 -243q-99 0 -152 64t-53 171z" />
    <glyph glyph-name="ubreve" unicode="&#x16d;" horiz-adv-x="1169" 
d="M1124 164l17 -27q-45 -66 -114.5 -109.5t-133.5 -43.5q-37 0 -52.5 16.5t-15.5 52.5q0 38 11.5 136t40.5 319.5t51 406.5l-15 3q-37 -136 -63 -226.5t-55.5 -187.5t-51.5 -157.5t-48 -123.5t-49.5 -98.5t-51 -68.5t-57 -49t-63 -25t-73.5 -9q-211 0 -211 228
q0 177 99 757l-191 -34l-4 28q136 55 234 68l30 -27q-100 -652 -100 -790q0 -89 34.5 -133.5t117.5 -44.5q49 0 108 16q92 93 165.5 283.5t219.5 683.5q19 8 64 12l18 -14l-98 -969q113 0 237 127zM451 1475l57 14q3 -199 145 -199q135 0 203 205l31 -14
q-31 -120 -96.5 -184t-157.5 -64q-94 0 -139.5 68t-42.5 174z" />
    <glyph glyph-name="Uring" unicode="&#x16e;" horiz-adv-x="1368" 
d="M1354 1362v-41q-111 -18 -201 -21q-4 -176 -19.5 -427.5t-29.5 -374.5q-29 -273 -130.5 -399t-314.5 -126q-198 0 -296.5 106t-98.5 324q0 168 64 910l-189 6v20l2 23h461v-41q-114 -18 -205 -21q-63 -715 -63 -909t87 -278t247 -84q140 0 235 65q62 65 95 161t51 251
q18 161 51 807l-205 6v20l2 23h457zM807 1839q70 0 115 -40.5t45 -119.5q0 -93 -60.5 -146.5t-146.5 -53.5q-70 0 -114 38t-44 117q0 95 60.5 150t144.5 55zM801 1792q-47 0 -82 -18q-57 -50 -57 -136q0 -114 106 -114q44 0 82 20q57 50 57 135q0 113 -106 113z" />
    <glyph glyph-name="uring" unicode="&#x16f;" horiz-adv-x="1169" 
d="M1124 164l17 -27q-45 -66 -114.5 -109.5t-133.5 -43.5q-37 0 -52.5 16.5t-15.5 52.5q0 38 11.5 136t40.5 319.5t51 406.5l-15 3q-37 -136 -63 -226.5t-55.5 -187.5t-51.5 -157.5t-48 -123.5t-49.5 -98.5t-51 -68.5t-57 -49t-63 -25t-73.5 -9q-211 0 -211 228
q0 177 99 757l-191 -34l-4 28q136 55 234 68l30 -27q-100 -652 -100 -790q0 -89 34.5 -133.5t117.5 -44.5q49 0 108 16q92 93 165.5 283.5t219.5 683.5q19 8 64 12l18 -14l-98 -969q113 0 237 127zM678 1577q72 0 117 -44t45 -126q0 -99 -60.5 -155t-142.5 -56
q-72 0 -117 44t-45 126q0 99 60.5 155t142.5 56zM672 1532q-40 0 -80 -21q-26 -22 -41.5 -61.5t-15.5 -85.5q0 -57 27.5 -90t78.5 -33q42 0 82 21q26 22 41.5 61.5t15.5 85.5q0 57 -27.5 90t-80.5 33z" />
    <glyph glyph-name="Uhungarumlaut" unicode="&#x170;" horiz-adv-x="1368" 
d="M1354 1362v-41q-111 -18 -201 -21q-4 -176 -19.5 -427.5t-29.5 -374.5q-29 -273 -130.5 -399t-314.5 -126q-198 0 -296.5 106t-98.5 324q0 168 64 910l-189 6v20l2 23h461v-41q-114 -18 -205 -21q-63 -715 -63 -909t87 -278t247 -84q140 0 235 65q62 65 95 161t51 251
q18 161 51 807l-205 6v20l2 23h457zM713 1808h20q34 -14 49 -36l-170 -291h-41zM1047 1808h20q36 -13 49 -36l-168 -291h-43z" />
    <glyph glyph-name="uhungarumlaut" unicode="&#x171;" horiz-adv-x="1169" 
d="M1124 164l17 -27q-45 -66 -114.5 -109.5t-133.5 -43.5q-37 0 -52.5 16.5t-15.5 52.5q0 38 11.5 136t40.5 319.5t51 406.5l-15 3q-37 -136 -63 -226.5t-55.5 -187.5t-51.5 -157.5t-48 -123.5t-49.5 -98.5t-51 -68.5t-57 -49t-63 -25t-73.5 -9q-211 0 -211 228
q0 177 99 757l-191 -34l-4 28q136 55 234 68l30 -27q-100 -652 -100 -790q0 -89 34.5 -133.5t117.5 -44.5q49 0 108 16q92 93 165.5 283.5t219.5 683.5q19 8 64 12l18 -14l-98 -969q113 0 237 127zM641 1571h23q32 -8 55 -37l-203 -360h-41zM913 1571h23q36 -9 55 -37
l-200 -360h-43z" />
    <glyph glyph-name="Uogonek" unicode="&#x172;" horiz-adv-x="1368" 
d="M1354 1362v-41q-111 -18 -201 -21q-17 -507 -49 -802q-14 -143 -41 -233t-60.5 -136.5t-97.5 -105.5q-102 -97 -135 -137q-65 -83 -65 -165q0 -58 28.5 -82t81.5 -24q73 0 139 39l9 -31q-73 -59 -172 -59q-152 0 -152 145q0 142 164 275l-4 12q-73 -23 -142 -23
q-393 0 -393 430q0 168 64 910l-189 6v20l2 23h461v-41q-114 -18 -205 -21q-63 -715 -63 -909t87 -278t247 -84q143 0 235 63q61 64 94.5 161.5t51.5 252.5q9 72 17.5 188.5t12.5 197t11.5 234.5t9.5 187l-205 6v20l2 23h457z" />
    <glyph glyph-name="uogonek" unicode="&#x173;" horiz-adv-x="1169" 
d="M1124 164l17 -27q-22 -30 -80 -85t-107.5 -101t-90 -111.5t-40.5 -124.5q0 -100 115 -100q72 0 135 39l10 -31q-73 -59 -170 -59q-77 0 -115 37.5t-38 101.5q0 140 190 283l-4 10q-36 -12 -53 -12q-37 0 -52.5 16.5t-15.5 52.5q0 37 11.5 134.5t40.5 320t51 407.5l-15 3
q-37 -136 -63 -226.5t-55.5 -187.5t-51.5 -157.5t-48 -123.5t-49.5 -98.5t-51 -68.5t-57 -49t-63 -25t-73.5 -9q-211 0 -211 228q0 177 99 757l-191 -34l-4 28q136 55 234 68l30 -27q-100 -652 -100 -790q0 -89 34.5 -133.5t117.5 -44.5q49 0 108 16q92 93 165.5 283.5
t219.5 683.5q19 8 64 12l18 -14l-98 -969q113 0 237 127z" />
    <glyph glyph-name="Wcircumflex" unicode="&#x174;" horiz-adv-x="1894" 
d="M1913 1362v-41q-85 -15 -172 -21q-60 -217 -196.5 -601.5t-262.5 -702.5q-29 -13 -68 -16l-20 8q-14 78 -84.5 470.5t-101.5 573.5h-13q-118 -424 -352 -1036q-29 -13 -68 -16l-20 8q-129 666 -266 1325l-168 6v20l2 23h438v-41q-106 -18 -194 -21q17 -91 66 -347
t94.5 -494.5t76.5 -409.5h12q199 529 363 1084l-37 180l-147 6v20l2 23h430v-41q-128 -19 -207 -21q216 -1211 223 -1251h12q119 312 246.5 685t181.5 579l-202 6v20l2 23h430zM1274 1503l-49 -30l-172 260h-13l-219 -252h-49l260 321h62z" />
    <glyph glyph-name="wcircumflex" unicode="&#x175;" horiz-adv-x="1597" 
d="M1325 1004l33 30q57 -12 104 -69.5t47 -143.5q0 -68 -29.5 -173.5t-84 -221.5t-122.5 -218t-155 -168.5t-172 -66.5q-73 0 -122.5 51t-49.5 171q0 108 37 286l-14 4q-35 -104 -78 -193t-96 -162t-118 -115t-134 -42q-34 0 -64 11t-57.5 36.5t-43.5 73t-16 113.5
q0 176 99 751l-191 -34l-4 28q136 55 234 68l30 -27q-100 -621 -100 -788q0 -97 32.5 -138.5t102.5 -41.5q33 0 64 8q104 77 196.5 235.5t161.5 388.5q12 80 35 217l22 138q19 8 54 12l16 -14q-17 -174 -72 -371q-30 -249 -30 -420q0 -105 28.5 -149.5t104.5 -44.5
q36 0 67 10q133 92 247.5 298t170.5 488zM1145 1221l-51 -29l-150 285h-10l-205 -279h-47l242 350h61z" />
    <glyph glyph-name="Ycircumflex" unicode="&#x176;" horiz-adv-x="1185" 
d="M1047 1300q-160 -369 -416 -813l-31 -438l229 -6v-20l-4 -23h-524v41q123 17 227 20l31 433q-145 411 -305 819l-154 6v20l2 23h443v-41q-87 -14 -209 -21q113 -307 268 -747h10q226 392 375 760l-198 6v20l2 23h426v-41q-117 -19 -172 -21zM918 1503l-50 -30l-172 260
h-12l-219 -252h-49l260 321h61z" />
    <glyph glyph-name="ycircumflex" unicode="&#x177;" horiz-adv-x="1017" 
d="M745 1004l33 30q61 -16 106.5 -71.5t45.5 -147.5q0 -147 -116.5 -402.5t-262.5 -453.5q-133 -181 -276.5 -288t-241.5 -107q-52 0 -107 28t-86 74l19 29q113 -78 233 -78q94 41 196 128t177 189q-57 264 -134 558.5t-136 465.5l-191 -34l-4 28q128 55 221 68l33 -21
q194 -616 254 -997h12q54 78 103.5 162.5t104.5 194t95.5 230t55.5 230.5zM797 1221l-52 -29l-149 285h-10l-205 -279h-47l241 350h62z" />
    <glyph glyph-name="Ydieresis" unicode="&#x178;" horiz-adv-x="1185" 
d="M1047 1300q-160 -369 -416 -813l-31 -438l229 -6v-20l-4 -23h-524v41q123 17 227 20l31 433q-145 411 -305 819l-154 6v20l2 23h443v-41q-87 -14 -209 -21q113 -307 268 -747h10q226 392 375 760l-198 6v20l2 23h426v-41q-117 -19 -172 -21zM913 1722q21 0 31 -2
q8 -21 8 -53q0 -56 -20 -98h-62l-8 145q24 8 51 8zM471 1722q23 0 33 -2q8 -21 8 -53q0 -56 -20 -98h-64l-10 145q28 8 53 8z" />
    <glyph glyph-name="Zacute" unicode="&#x179;" horiz-adv-x="1054" 
d="M893 303l47 -2q4 -50 4 -98q0 -88 -31 -226l-22 -2l-729 25h-72l-10 33q719 1100 795 1209q22 33 45 65l-5 10l-669 -12l-19 -248h-45q-10 61 -10 176q0 92 8 125l19 14q21 0 51 -10h754l10 -33q-80 -123 -216 -332q-341 -524 -449 -687t-177 -255l4 -10l670 -10z
M805 1829h22q27 -12 47 -45l-237 -303h-49z" />
    <glyph glyph-name="zacute" unicode="&#x17a;" horiz-adv-x="890" 
d="M725 291l43 -4q2 -41 2 -117q0 -44 -1.5 -69.5t-9 -56.5t-21 -47.5t-39 -28t-62.5 -11.5q-77 0 -211.5 42.5t-253.5 100.5l-92 -129q-24 3 -41 13l-10 12l657 928l-434 39l-41 -207h-45q-14 136 33 268q290 -6 512 -68l55 78q20 0 45 -14l8 -12l-620 -871
q281 -115 477 -121zM758 1571h20q33 -13 49 -45l-282 -352h-47z" />
    <glyph glyph-name="Zdotaccent" unicode="&#x17b;" horiz-adv-x="1054" 
d="M893 303l47 -2q4 -50 4 -98q0 -88 -31 -226l-22 -2l-729 25h-72l-10 33q719 1100 795 1209q22 33 45 65l-5 10l-669 -12l-19 -248h-45q-10 61 -10 176q0 92 8 125l19 14q21 0 51 -10h754l10 -33q-80 -123 -216 -332q-341 -524 -449 -687t-177 -255l4 -10l670 -10z
M629 1722q21 0 33 -4q8 -21 8 -55q0 -59 -25 -115h-65l-9 164q27 10 58 10z" />
    <glyph glyph-name="zdotaccent" unicode="&#x17c;" horiz-adv-x="890" 
d="M725 291l43 -4q2 -41 2 -117q0 -44 -1.5 -69.5t-9 -56.5t-21 -47.5t-39 -28t-62.5 -11.5q-77 0 -211.5 42.5t-253.5 100.5l-92 -129q-24 3 -41 13l-10 12l657 928l-434 39l-41 -207h-45q-14 136 33 268q290 -6 512 -68l55 78q20 0 45 -14l8 -12l-620 -871
q281 -115 477 -121zM557 1450q19 0 31 -4q8 -21 8 -55q0 -63 -27 -115h-63l-8 164q40 10 59 10z" />
    <glyph glyph-name="Zcaron" unicode="&#x17d;" horiz-adv-x="1054" 
d="M893 303l47 -2q4 -50 4 -98q0 -88 -31 -226l-22 -2l-729 25h-72l-10 33q719 1100 795 1209q22 33 45 65l-5 10l-669 -12l-19 -248h-45q-10 61 -10 176q0 92 8 125l19 14q21 0 51 -10h754l10 -33q-80 -123 -216 -332q-341 -524 -449 -687t-177 -255l4 -10l670 -10z
M618 1552h11l219 252h51l-262 -321h-62l-180 299l51 30z" />
    <glyph glyph-name="zcaron" unicode="&#x17e;" horiz-adv-x="890" 
d="M725 291l43 -4q2 -41 2 -117q0 -44 -1.5 -69.5t-9 -56.5t-21 -47.5t-39 -28t-62.5 -11.5q-77 0 -211.5 42.5t-253.5 100.5l-92 -129q-24 3 -41 13l-10 12l657 928l-434 39l-41 -207h-45q-14 136 33 268q290 -6 512 -68l55 78q20 0 45 -14l8 -12l-620 -871
q281 -115 477 -121zM524 1270h11l204 278h47l-241 -350h-62l-159 328l51 28z" />
    <glyph glyph-name="longs" unicode="&#x17f;" horiz-adv-x="530" 
d="M850 1393l-209 96q-81 -5 -168 -49q-55 -69 -90 -161.5t-47 -264.5l-70 -944q-8 -110 -18 -183.5t-28 -139.5t-44 -103.5t-65.5 -58.5t-94.5 -21q-77 0 -158.5 36t-127.5 95l20 31q179 -126 356 -101q40 54 59.5 147t31.5 275l63 873l-168 10v39q69 10 172 14l2 33
q39 526 402 526q68 0 121.5 -30.5t80.5 -81.5z" />
    <glyph glyph-name="uni018F" unicode="&#x18f;" horiz-adv-x="1085" 
d="M557 1389q94 0 169 -30t124 -82t81.5 -124.5t46 -153t13.5 -172.5q0 -88 -13 -180.5t-39.5 -190t-73 -183t-108 -153.5t-149.5 -107.5t-192 -39.5q-152 0 -242 80t-90 221q0 73 26.5 136t72 109.5t110.5 84.5t136 64t156 45t164 29t164 16l2 59q0 262 -100.5 386
t-269.5 124q-166 0 -332 -137l-23 33q93 90 181 128t186 38zM631 82q116 82 189 252t91 375q-129 -14 -232.5 -33.5t-203.5 -54.5t-166.5 -80.5t-107.5 -113.5t-41 -153q0 -121 76 -183t188 -62q107 0 207 53z" />
    <glyph glyph-name="florin" unicode="&#x192;" horiz-adv-x="804" 
d="M840 1217v-46q0 -116 -23 -258h-43l-2 267q-61 14 -104 14q-47 0 -97 -20q-45 -42 -74 -114.5t-51 -193.5l-24 -139h254v-25l-6 -28h-258l-74 -404q-40 -218 -59 -279q-36 -113 -104 -145q-35 -16 -85 -16q-69 0 -138.5 29.5t-109.5 79.5l21 32q152 -97 305 -80
q10 14 18.5 29t15.5 37.5t12 39.5t12 51t10.5 55t12 69.5t13.5 77.5l76 424h-191v22l7 31h194l25 141q37 200 108 289.5t178 89.5q57 0 117 -24q32 8 45 8z" />
    <glyph glyph-name="uni01E2" unicode="&#x1e2;" horiz-adv-x="1759" 
d="M1642 1386l17 -12q4 -32 4 -51q0 -113 -27 -252h-45l-2 234l-542 10l-46 -629l398 8l6 -20l-6 -41l-402 6l-43 -592l533 -10l47 266l47 -2q4 -50 4 -96q0 -90 -31 -228h-2l-22 -2l-600 25h-238v41q86 14 191 20l26 369h-489q-74 -125 -217 -381l200 -6v-20l-4 -23h-407
v41q89 18 153 20q357 636 756 1252l-176 6v20l2 23h862v12q27 12 53 12zM913 483l62 832h-19q-264 -415 -505 -832h462zM901 1671h404l1 -6q1 -6 1 -12q0 -17 -9 -39h-403l-1 6q-1 7 -1 12q0 23 8 39z" />
    <glyph glyph-name="uni01E3" unicode="&#x1e3;" horiz-adv-x="1470" 
d="M989 33q81 0 171.5 48.5t164.5 133.5l21 -33q-83 -105 -180 -157t-191 -52q-109 0 -176 68.5t-86 176.5t0 245h-15q-74 -277 -151 -383.5t-209 -106.5q-120 0 -172.5 78.5t-52.5 249.5q0 101 15.5 200t51.5 196.5t90 171.5t137 119.5t185 45.5q82 0 157.5 -29t122.5 -87
q99 116 261 116q120 0 188 -60.5t68 -166.5q0 -75 -37 -135t-97.5 -99.5t-143.5 -67.5t-168 -42t-179 -19l-2 -53q0 -183 61.5 -270.5t165.5 -87.5zM449 41q63 66 116 180.5t84.5 220t77.5 222.5t96 184q18 29 31 47q-136 88 -270 88q-87 0 -166 -35q-107 -91 -169.5 -269.5
t-62.5 -377.5q0 -140 36.5 -208t123.5 -68q44 0 103 16zM969 950q-88 -79 -139 -202t-64 -265q96 12 172.5 27.5t149.5 41.5t121.5 60t78 83t29.5 110q0 86 -56 132t-139 46q-86 0 -153 -33zM700 1382h404l1 -6q1 -6 1 -12q0 -19 -8 -39h-404l-1 7q-1 6 -1 11q0 23 8 39z
" />
    <glyph glyph-name="Aringacute" unicode="&#x1fa;" horiz-adv-x="1323" 
d="M799 1665h-47l206 301h21q25 -10 45 -43zM1262 43v-20l-2 -23h-439v41q100 17 195 20l-101 385h-518q-102 -266 -153 -397l194 -6v-20l-2 -23h-430v41q102 17 180 20q239 601 488 1176q-50 11 -79.5 48.5t-29.5 100.5q0 95 61 150t146 55q71 0 115.5 -40t44.5 -119
q0 -75 -40.5 -125t-105.5 -68q43 -180 92 -370.5t118.5 -454.5t95.5 -365zM625 1391q0 -115 108 -115q42 0 80 20q59 49 59 136q0 112 -108 112q-48 0 -82 -18q-57 -50 -57 -135zM420 500h481q-114 440 -176 714h-12q-158 -367 -293 -714z" />
    <glyph glyph-name="aringacute" unicode="&#x1fb;" horiz-adv-x="1095" 
d="M1049 164l18 -27q-47 -66 -116 -109.5t-134 -43.5q-36 0 -51.5 16t-15.5 51t11 120.5t37.5 276t47.5 355.5l-15 2q-51 -175 -87 -287.5t-75.5 -214.5t-72 -158t-73 -98.5t-83.5 -58t-98 -15.5q-123 0 -176 78.5t-53 249.5q0 101 15.5 200t52 196.5t90 171.5t136 119.5
t183.5 45.5q73 0 141.5 -22.5t108.5 -67.5l4 82q16 8 49 8l18 -14l-98 -983q115 0 236 127zM457 45q82 82 158 260.5t212 601.5q-118 76 -243 76q-87 0 -166 -35q-107 -91 -169.5 -269.5t-62.5 -377.5q0 -140 36.5 -208t123.5 -68q55 0 111 20zM827 1845h23q26 -13 45 -41
l-211 -235h-47zM662 1487q72 0 116.5 -40.5t44.5 -121.5q0 -94 -61 -148.5t-146 -54.5q-70 0 -114.5 40.5t-44.5 119.5q0 95 61 150t144 55zM655 1442q-38 0 -82 -19q-57 -50 -57 -139q0 -115 109 -115q44 0 80 19q59 49 59 137q0 57 -28 87t-81 30z" />
    <glyph glyph-name="AEacute" unicode="&#x1fc;" horiz-adv-x="1759" 
d="M1642 1386l17 -12q4 -32 4 -51q0 -113 -27 -252h-45l-2 234l-542 10l-46 -629l398 8l6 -20l-6 -41l-402 6l-43 -592l533 -10l47 266l47 -2q4 -50 4 -96q0 -90 -31 -228h-2l-22 -2l-600 25h-238v41q86 14 191 20l26 369h-489q-74 -125 -217 -381l200 -6v-20l-4 -23h-407
v41q89 18 153 20q357 636 756 1252l-176 6v20l2 23h862v12q27 12 53 12zM913 483l62 832h-19q-264 -415 -505 -832h462zM1272 1829h22q27 -12 47 -45l-237 -303h-49z" />
    <glyph glyph-name="aeacute" unicode="&#x1fd;" horiz-adv-x="1470" 
d="M989 33q81 0 171.5 48.5t164.5 133.5l21 -33q-83 -105 -180 -157t-191 -52q-109 0 -176 68.5t-86 176.5t0 245h-15q-74 -277 -151 -383.5t-209 -106.5q-120 0 -172.5 78.5t-52.5 249.5q0 101 15.5 200t51.5 196.5t90 171.5t137 119.5t185 45.5q82 0 157.5 -29t122.5 -87
q99 116 261 116q120 0 188 -60.5t68 -166.5q0 -75 -37 -135t-97.5 -99.5t-143.5 -67.5t-168 -42t-179 -19l-2 -53q0 -183 61.5 -270.5t165.5 -87.5zM449 41q63 66 116 180.5t84.5 220t77.5 222.5t96 184q18 29 31 47q-136 88 -270 88q-87 0 -166 -35q-107 -91 -169.5 -269.5
t-62.5 -377.5q0 -140 36.5 -208t123.5 -68q44 0 103 16zM969 950q-88 -79 -139 -202t-64 -265q96 12 172.5 27.5t149.5 41.5t121.5 60t78 83t29.5 110q0 86 -56 132t-139 46q-86 0 -153 -33zM1118 1587h21q33 -13 49 -45l-283 -352h-47z" />
    <glyph glyph-name="Oslashacute" unicode="&#x1fe;" horiz-adv-x="1277" 
d="M1223 1479l-166 -244q125 -155 125 -424q0 -69 -8 -143.5t-28.5 -157.5t-50.5 -159t-77.5 -145.5t-106.5 -120.5t-140 -81.5t-175 -30.5q-185 0 -303 115l-156 -235l-39 16l-4 14l164 244q-123 156 -123 428q0 70 8 144t27.5 156.5t49.5 158t77 144.5t105.5 120t139.5 81
t175 30q187 0 305 -115l158 235l37 -16zM492 1280q-131 -94 -206 -297.5t-75 -421.5q0 -234 92 -371l676 1027q-104 116 -270 116q-116 0 -217 -53zM823 82q131 95 207 298.5t76 420.5q0 232 -94 375l-678 -1029q106 -118 272 -118q116 0 217 53zM911 1829h23q27 -12 47 -45
l-238 -303h-49z" />
    <glyph glyph-name="oslashacute" unicode="&#x1ff;" horiz-adv-x="962" 
d="M893 1149l-129 -213q100 -111 100 -315q0 -74 -13 -155t-46 -170.5t-81 -160t-126.5 -116.5t-175.5 -46q-116 0 -195 66l-110 -182l-39 12l-6 14l116 195q-92 111 -92 311q0 74 13 155.5t46 170t81 158.5t125.5 115.5t173.5 45.5q117 0 192 -63l125 207l37 -15zM387 950
q-76 -62 -127 -160t-71.5 -195.5t-20.5 -197.5q0 -168 59 -262l465 787q-64 61 -164 61q-70 0 -141 -33zM578 55q111 93 164 244.5t53 308.5q0 179 -70 275l-463 -791q67 -67 172 -67q69 0 144 30zM774 1587h21q33 -13 49 -45l-283 -352h-47z" />
    <glyph glyph-name="Scommaaccent" unicode="&#x218;" horiz-adv-x="985" 
d="M510 737l59 -41q70 -47 112.5 -82t84.5 -83t61 -103.5t19 -122.5q0 -150 -103 -241t-297 -91q-185 0 -327 82q-8 47 -8 119q0 94 16 203l47 2l21 -293q117 -57 245 -57q125 0 209 37q54 32 89.5 92.5t35.5 140.5q0 53 -17 99t-52 87t-73 72.5t-95 71.5l-66 45
q-120 83 -163 125q-113 108 -113 256q0 152 100 243t260 91q134 0 231 -58l2 33q24 8 50 8l18 -14q2 -14 2 -49q0 -146 -24 -287h-46l-2 260q-102 51 -233 51q-89 0 -154 -22q-59 -35 -97 -99t-38 -149q0 -44 12.5 -82.5t31 -67.5t54.5 -62t66 -55.5t82 -58.5zM428 -129
q32 0 53 -12q13 -32 13 -72q0 -173 -172 -274l-13 22q72 59 101.5 111t29.5 118v27l-57 4l4 72q24 4 41 4z" />
    <glyph glyph-name="scommaaccent" unicode="&#x219;" horiz-adv-x="749" 
d="M283 954q-74 -58 -74 -151q0 -20 3.5 -38.5t7 -32t16.5 -32t18.5 -27.5t28 -31t30.5 -29.5t40 -36.5t44 -39q122 -110 167.5 -174t45.5 -146q0 -117 -82 -180.5t-209 -63.5q-108 0 -176.5 44.5t-85.5 105.5l29 35l197 -135q126 -3 192 32q33 26 50.5 59.5t17.5 92.5
q0 63 -35 116.5t-148 155.5q-15 14 -45.5 41t-43.5 39t-36.5 34.5t-33.5 36t-24.5 34.5t-20 39t-10.5 40.5t-5 47.5q0 115 83.5 179t209.5 64q89 0 151.5 -33t86.5 -88l-25 -36l-192 108q-93 0 -172 -31zM283 -129q32 0 53 -12q12 -30 12 -72q0 -173 -172 -274l-12 22
q72 59 101.5 111t29.5 118v27l-57 4l4 72q24 4 41 4z" />
    <glyph glyph-name="uni021A" unicode="&#x21a;" horiz-adv-x="1107" 
d="M1069 1386l16 -12q5 -40 5 -51q0 -113 -27 -252h-45l-2 234l-340 8l-92 -1264l237 -6v-20l-4 -23h-532v41q114 17 229 20l92 1254l-330 10l-47 -256l-43 2q-4 54 -4 96q0 93 31 217l23 2l411 -24h369v12q27 12 53 12zM514 -129q32 0 53 -12q13 -32 13 -72
q0 -173 -172 -274l-13 22q72 59 101.5 111t29.5 118v27l-57 4l4 72q24 4 41 4z" />
    <glyph glyph-name="uni021B" unicode="&#x21b;" horiz-adv-x="653" 
d="M610 975v-29l-10 -22h-272q-75 -696 -82 -889q166 0 313 125l19 -27q-54 -65 -148 -108t-172 -43q-44 0 -61 18t-17 63q0 67 26.5 337.5t57.5 519.5l-155 10v39q17 3 163 16q27 203 43 275q21 14 39 14l11 -10l-31 -289h276zM274 -129q33 0 54 -12q12 -30 12 -72
q0 -173 -172 -274l-12 22q72 59 101.5 111t29.5 118v27l-58 4l4 72q24 4 41 4z" />
    <glyph glyph-name="uni0232" unicode="&#x232;" horiz-adv-x="1185" 
d="M1047 1300q-160 -369 -416 -813l-31 -438l229 -6v-20l-4 -23h-524v41q123 17 227 20l31 433q-145 411 -305 819l-154 6v20l2 23h443v-41q-87 -14 -209 -21q113 -307 268 -747h10q226 392 375 760l-198 6v20l2 23h426v-41q-117 -19 -172 -21zM487 1669h404q0 -1 0.5 -3.5
t1 -6.5t0.5 -8q0 -19 -8 -39h-404l-1 6q-1 7 -1 12q0 23 8 39z" />
    <glyph glyph-name="uni0233" unicode="&#x233;" horiz-adv-x="1017" 
d="M745 1004l33 30q61 -16 106.5 -71.5t45.5 -147.5q0 -147 -116.5 -402.5t-262.5 -453.5q-133 -181 -276.5 -288t-241.5 -107q-52 0 -107 28t-86 74l19 29q113 -78 233 -78q94 41 196 128t177 189q-57 264 -134 558.5t-136 465.5l-191 -34l-4 28q128 55 221 68l33 -21
q194 -616 254 -997h12q54 78 103.5 162.5t104.5 194t95.5 230t55.5 230.5zM383 1366h403l1 -6q1 -6 1 -12q0 -19 -8 -39h-403l-1 7q-1 6 -1 11q0 23 8 39z" />
    <glyph glyph-name="uni0237" unicode="&#x237;" horiz-adv-x="503" 
d="M346 993l-96 -952q-9 -88 -17.5 -146t-21.5 -117t-30 -94.5t-42.5 -65t-59.5 -42t-79 -12.5q-63 0 -125.5 23t-97.5 61l16 28q164 -72 295 -55q38 56 57 145.5t35 264.5l94 927l-190 -34l-4 28q136 55 235 68z" />
    <glyph glyph-name="uni0259" unicode="&#x259;" horiz-adv-x="868" 
d="M485 1034q77 0 134 -32.5t89 -90t47 -127t15 -151.5q0 -80 -12.5 -163.5t-45 -174.5t-81.5 -161t-128.5 -115.5t-178.5 -45.5q-117 0 -185.5 61t-68.5 167q0 75 37 135.5t97 100t144 67t168.5 41t179.5 18.5l2 53q0 182 -61.5 269.5t-167.5 87.5q-148 0 -289 -156l-22 33
q139 184 327 184zM483 57q92 79 145 201.5t66 265.5q-553 -65 -553 -323q0 -85 55.5 -130.5t139.5 -45.5q82 0 147 32z" />
    <glyph glyph-name="uni02BB" unicode="&#x2bb;" horiz-adv-x="372" 
d="M385 1483l14 -25q-72 -54 -115.5 -116.5t-43.5 -145.5v-37l71 -6l-6 -90q-28 -4 -43 -4q-41 0 -69 14q-17 53 -17 94q0 206 209 316z" />
    <glyph glyph-name="afii57929" unicode="&#x2bc;" horiz-adv-x="374" 
d="M285 1483q39 0 69 -15q17 -53 17 -94q0 -206 -209 -315l-15 26q160 117 160 261v36l-71 7l6 90q28 4 43 4z" />
    <glyph glyph-name="circumflex" unicode="&#x2c6;" horiz-adv-x="581" 
d="M602 1221l-49 -29l-152 285h-10l-203 -279h-47l242 350h61z" />
    <glyph glyph-name="caron" unicode="&#x2c7;" horiz-adv-x="581" 
d="M379 1270h10l205 278h45l-240 -350h-61l-160 328l51 28z" />
    <glyph glyph-name="breve" unicode="&#x2d8;" horiz-adv-x="561" 
d="M172 1475l59 14q3 -199 146 -199q135 0 203 205l30 -14q-31 -120 -97 -184t-157 -64q-93 0 -139.5 67.5t-44.5 174.5z" />
    <glyph glyph-name="dotaccent" unicode="&#x2d9;" horiz-adv-x="227" 
d="M225 1450q21 0 31 -4q10 -27 10 -55q0 -65 -26 -115h-66l-6 164q40 10 57 10z" />
    <glyph glyph-name="ring" unicode="&#x2da;" horiz-adv-x="487" 
d="M367 1577q72 0 116.5 -44t44.5 -126q0 -99 -60 -155t-144 -56q-72 0 -117 44t-45 126q0 99 60.5 155t144.5 56zM360 1532q-41 0 -81 -21q-26 -23 -42 -62t-16 -85q0 -57 28 -90t81 -33q40 0 80 21q59 49 59 147q0 56 -28.5 89.5t-80.5 33.5z" />
    <glyph glyph-name="ogonek" unicode="&#x2db;" horiz-adv-x="456" 
d="M180 20l49 -4q-50 -52 -76.5 -81t-57.5 -70t-44.5 -77t-13.5 -73q0 -100 113 -100q71 0 137 39l8 -31q-73 -59 -170 -59q-76 0 -115 37t-39 102q0 78 49.5 146t159.5 171z" />
    <glyph glyph-name="tilde" unicode="&#x2dc;" horiz-adv-x="602" 
d="M623 1442l22 -23q-16 -34 -29 -56.5t-32 -49t-41 -40t-45 -13.5q-29 0 -66 32l-145 119l-109 -127l-24 21q21 40 31.5 58t30.5 47t40.5 41.5t42.5 12.5q31 0 68 -30l143 -119z" />
    <glyph glyph-name="hungarumlaut" unicode="&#x2dd;" horiz-adv-x="595" 
d="M303 1571h23q32 -8 55 -37l-203 -360h-41zM575 1571h23q36 -9 55 -37l-200 -360h-43z" />
    <glyph glyph-name="gravecomb" unicode="&#x300;" horiz-adv-x="0" 
d="M-203 1174h-47l-188 352q28 35 57 45h23z" />
    <glyph glyph-name="acutecomb" unicode="&#x301;" horiz-adv-x="0" 
d="M-219 1571h20q33 -13 49 -45l-282 -352h-47z" />
    <glyph glyph-name="uni0302" unicode="&#x302;" horiz-adv-x="0" 
d="M-35 1221l-51 -29l-150 285h-10l-205 -279h-47l242 350h61z" />
    <glyph glyph-name="tildecomb" unicode="&#x303;" horiz-adv-x="0" 
d="M-37 1442l23 -23q-22 -46 -40 -75.5t-47.5 -56.5t-60.5 -27q-28 0 -65 32l-146 119l-108 -127l-25 21q21 40 31.5 58t31 47t41.5 41.5t44 12.5q27 0 67 -30l144 -119z" />
    <glyph glyph-name="uni0304" unicode="&#x304;" horiz-adv-x="0" 
d="M-453 1382h404l1 -6q1 -6 1 -12q0 -26 -8 -39h-404l-1 7q-1 6 -1 11q0 23 8 39z" />
    <glyph glyph-name="uni0306" unicode="&#x306;" horiz-adv-x="0" 
d="M-444 1475l57 14q3 -199 145 -199q135 0 203 205l31 -14q-31 -120 -96.5 -184t-157.5 -64q-94 0 -139.5 68t-42.5 174z" />
    <glyph glyph-name="uni0307" unicode="&#x307;" horiz-adv-x="0" 
d="M-184 1450q18 0 30 -4q9 -24 9 -55q0 -63 -27 -115h-64l-8 164q40 10 60 10z" />
    <glyph glyph-name="uni0308" unicode="&#x308;" horiz-adv-x="2" 
d="M-412 1446q21 0 29 -4q10 -27 10 -53q0 -51 -20 -97h-62l-8 144q23 10 51 10zM-53 1446q18 0 28 -4q11 -29 11 -51q0 -55 -23 -99h-61l-8 144q23 10 53 10z" />
    <glyph glyph-name="uni030A" unicode="&#x30a;" horiz-adv-x="0" 
d="M-252 1577q72 0 117 -44t45 -126q0 -99 -60.5 -155t-142.5 -56q-72 0 -117 44t-45 126q0 99 60.5 155t142.5 56zM-258 1532q-40 0 -80 -21q-26 -22 -41.5 -61.5t-15.5 -85.5q0 -57 27.5 -90t78.5 -33q42 0 82 21q26 22 41.5 61.5t15.5 85.5q0 57 -27.5 90t-80.5 33z" />
    <glyph glyph-name="uni030B" unicode="&#x30b;" horiz-adv-x="0" 
d="M-354 1571h22q33 -8 56 -37l-203 -360h-41zM-82 1571h23q36 -9 55 -37l-201 -360h-43z" />
    <glyph glyph-name="uni030C" unicode="&#x30c;" horiz-adv-x="0" 
d="M-260 1270h10l205 278h47l-242 -350h-61l-160 328l51 28z" />
    <glyph glyph-name="uni0312" unicode="&#x312;" horiz-adv-x="2" 
d="M-100 1571l12 -23q-74 -58 -104.5 -112t-30.5 -121v-27l57 -6l-4 -70q-24 -4 -41 -4q-30 0 -53 13q-12 30 -12 69q0 182 176 281z" />
    <glyph glyph-name="uni0326" unicode="&#x326;" horiz-adv-x="0" 
d="M-547 -129q32 0 53 -12q13 -32 13 -72q0 -173 -172 -274l-13 22q72 59 101.5 111t29.5 118v27l-57 4l4 72q24 4 41 4z" />
    <glyph glyph-name="uni0327" unicode="&#x327;" horiz-adv-x="0" 
d="M-434 12l-19 -168q70 -8 107 -34t37 -82q0 -68 -53 -116t-138 -48q-100 0 -155 55l14 33q76 -37 131 -37q61 0 100 31.5t39 81.5q0 42 -32.5 60t-106.5 32l35 192h41z" />
    <glyph glyph-name="uni0328" unicode="&#x328;" horiz-adv-x="0" 
d="M-436 20l49 -4q-51 -53 -76.5 -81t-57.5 -70t-45.5 -77.5t-13.5 -72.5q0 -100 113 -100q71 0 137 39l8 -31q-73 -59 -170 -59q-76 0 -114.5 37t-38.5 102q0 78 49.5 146t159.5 171z" />
    <glyph glyph-name="uni0394" unicode="&#x394;" horiz-adv-x="1101" 
d="M1006 14l-7 -14h-995l-6 16l580 1352l36 10h15zM82 57h842l-330 1203z" />
    <glyph glyph-name="uni03A9" unicode="&#x3a9;" horiz-adv-x="1253" 
d="M1128 279l43 -3q5 -82 5 -96q0 -70 -21 -180h-407l22 287q79 29 139.5 81.5t95.5 111.5t56.5 130.5t29 131.5t7.5 122q0 233 -104 351t-287 118q-128 0 -234 -53q-122 -77 -190 -231.5t-68 -329.5q0 -331 252 -432l-23 -287h-403q-7 132 22 276l43 3l7 -213l284 -11
l17 207q-132 54 -203.5 171.5t-73.5 281.5q0 59 8.5 120.5t29 128t51 127.5t77.5 116t104 95t135 63.5t167 23.5q118 0 208.5 -39.5t146.5 -109.5t84 -161.5t28 -201.5q0 -61 -8 -123.5t-32 -140t-61.5 -142.5t-104 -122t-151.5 -87l-12 -207l283 11z" />
    <glyph glyph-name="uni03BC" unicode="&#x3bc;" horiz-adv-x="1169" 
d="M1124 164l17 -27q-45 -66 -114.5 -109.5t-133.5 -43.5q-37 0 -52.5 16.5t-15.5 52.5q0 38 11.5 136t40.5 319.5t51 406.5l-15 3q-34 -123 -57 -205t-50.5 -173.5t-47 -149t-44 -120.5t-44 -99.5t-44 -74.5t-48 -57.5t-52 -36.5t-59 -23t-66.5 -6q-75 0 -114.5 30.5
t-53.5 98.5l-12 -2q-1 -59 0.5 -270t-2.5 -258q-19 -8 -63 -8l-13 10q20 380 62 757t84 627l-191 -34l-4 28q136 55 234 68l30 -27q-32 -206 -62 -452.5t-30 -343.5q0 -86 31 -129t113 -43q49 0 108 16q92 93 165.5 283.5t219.5 683.5q19 8 64 12l18 -14l-98 -969
q113 0 237 127z" />
    <glyph glyph-name="pi" unicode="&#x3c0;" horiz-adv-x="1101" 
d="M1102 1008v-29l-8 -37h-187l-90 -907q115 3 238 129l16 -27q-47 -66 -116 -109.5t-134 -43.5q-36 0 -51.5 16t-15.5 51q0 83 94 891h-473l-96 -944q-24 -7 -56 -10l-18 14l65 487l41 453q-73 -3 -135.5 -36t-130.5 -113l-16 22q49 100 127.5 146.5t195.5 46.5h750z" />
    <glyph glyph-name="Wgrave" unicode="&#x1e80;" horiz-adv-x="1894" 
d="M1913 1362v-41q-85 -15 -172 -21q-60 -217 -196.5 -601.5t-262.5 -702.5q-29 -13 -68 -16l-20 8q-14 78 -84.5 470.5t-101.5 573.5h-13q-118 -424 -352 -1036q-29 -13 -68 -16l-20 8q-129 666 -266 1325l-168 6v20l2 23h438v-41q-106 -18 -194 -21q17 -91 66 -347
t94.5 -494.5t76.5 -409.5h12q199 529 363 1084l-37 180l-147 6v20l2 23h430v-41q-128 -19 -207 -21q216 -1211 223 -1251h12q119 312 246.5 685t181.5 579l-202 6v20l2 23h430zM1038 1481h-47l-137 286q20 29 57 45h21z" />
    <glyph glyph-name="wgrave" unicode="&#x1e81;" horiz-adv-x="1597" 
d="M1325 1004l33 30q57 -12 104 -69.5t47 -143.5q0 -68 -29.5 -173.5t-84 -221.5t-122.5 -218t-155 -168.5t-172 -66.5q-73 0 -122.5 51t-49.5 171q0 108 37 286l-14 4q-35 -104 -78 -193t-96 -162t-118 -115t-134 -42q-34 0 -64 11t-57.5 36.5t-43.5 73t-16 113.5
q0 176 99 751l-191 -34l-4 28q136 55 234 68l30 -27q-100 -621 -100 -788q0 -97 32.5 -138.5t102.5 -41.5q33 0 64 8q104 77 196.5 235.5t161.5 388.5q12 80 35 217l22 138q19 8 54 12l16 -14q-17 -174 -72 -371q-30 -249 -30 -420q0 -105 28.5 -149.5t104.5 -44.5
q36 0 67 10q133 92 247.5 298t170.5 488zM938 1174h-47l-189 352q28 34 58 45h22z" />
    <glyph glyph-name="Wacute" unicode="&#x1e82;" horiz-adv-x="1894" 
d="M1913 1362v-41q-85 -15 -172 -21q-60 -217 -196.5 -601.5t-262.5 -702.5q-29 -13 -68 -16l-20 8q-14 78 -84.5 470.5t-101.5 573.5h-13q-118 -424 -352 -1036q-29 -13 -68 -16l-20 8q-129 666 -266 1325l-168 6v20l2 23h438v-41q-106 -18 -194 -21q17 -91 66 -347
t94.5 -494.5t76.5 -409.5h12q199 529 363 1084l-37 180l-147 6v20l2 23h430v-41q-128 -19 -207 -21q216 -1211 223 -1251h12q119 312 246.5 685t181.5 579l-202 6v20l2 23h430zM1214 1829h23q27 -12 47 -45l-237 -303h-50z" />
    <glyph glyph-name="wacute" unicode="&#x1e83;" horiz-adv-x="1597" 
d="M1325 1004l33 30q57 -12 104 -69.5t47 -143.5q0 -68 -29.5 -173.5t-84 -221.5t-122.5 -218t-155 -168.5t-172 -66.5q-73 0 -122.5 51t-49.5 171q0 108 37 286l-14 4q-35 -104 -78 -193t-96 -162t-118 -115t-134 -42q-34 0 -64 11t-57.5 36.5t-43.5 73t-16 113.5
q0 176 99 751l-191 -34l-4 28q136 55 234 68l30 -27q-100 -621 -100 -788q0 -97 32.5 -138.5t102.5 -41.5q33 0 64 8q104 77 196.5 235.5t161.5 388.5q12 80 35 217l22 138q19 8 54 12l16 -14q-17 -174 -72 -371q-30 -249 -30 -420q0 -105 28.5 -149.5t104.5 -44.5
q36 0 67 10q133 92 247.5 298t170.5 488zM1149 1571h20q34 -14 50 -45l-283 -352h-47z" />
    <glyph glyph-name="Wdieresis" unicode="&#x1e84;" horiz-adv-x="1894" 
d="M1913 1362v-41q-85 -15 -172 -21q-60 -217 -196.5 -601.5t-262.5 -702.5q-29 -13 -68 -16l-20 8q-14 78 -84.5 470.5t-101.5 573.5h-13q-118 -424 -352 -1036q-29 -13 -68 -16l-20 8q-129 666 -266 1325l-168 6v20l2 23h438v-41q-106 -18 -194 -21q17 -91 66 -347
t94.5 -494.5t76.5 -409.5h12q199 529 363 1084l-37 180l-147 6v20l2 23h430v-41q-128 -19 -207 -21q216 -1211 223 -1251h12q119 312 246.5 685t181.5 579l-202 6v20l2 23h430zM1270 1722q20 0 30 -2q9 -24 9 -53q0 -54 -21 -98h-61l-8 145q24 8 51 8zM827 1722q23 0 33 -2
q8 -21 8 -53q0 -56 -20 -98h-64l-10 145q28 8 53 8z" />
    <glyph glyph-name="wdieresis" unicode="&#x1e85;" horiz-adv-x="1597" 
d="M1325 1004l33 30q57 -12 104 -69.5t47 -143.5q0 -68 -29.5 -173.5t-84 -221.5t-122.5 -218t-155 -168.5t-172 -66.5q-73 0 -122.5 51t-49.5 171q0 108 37 286l-14 4q-35 -104 -78 -193t-96 -162t-118 -115t-134 -42q-34 0 -64 11t-57.5 36.5t-43.5 73t-16 113.5
q0 176 99 751l-191 -34l-4 28q136 55 234 68l30 -27q-100 -621 -100 -788q0 -97 32.5 -138.5t102.5 -41.5q33 0 64 8q104 77 196.5 235.5t161.5 388.5q12 80 35 217l22 138q19 8 54 12l16 -14q-17 -174 -72 -371q-30 -249 -30 -420q0 -105 28.5 -149.5t104.5 -44.5
q36 0 67 10q133 92 247.5 298t170.5 488zM760 1446q20 0 28 -4q11 -29 11 -53q0 -49 -21 -97h-61l-8 144q23 10 51 10zM1118 1446q19 0 29 -4q10 -27 10 -51q0 -57 -22 -99h-62l-8 144q23 10 53 10z" />
    <glyph glyph-name="uni1E9E" unicode="&#x1e9e;" horiz-adv-x="1370" 
d="M1090 598q73 -85 109 -155t36 -158q0 -141 -91 -226.5t-245 -85.5q-133 0 -240 80q-8 47 -8 115q0 89 19 192l45 2l20 -288q73 -45 160 -45q94 0 166 34q42 30 70 88t28 130q0 55 -20 107t-42.5 84.5t-66.5 84.5q-4 5 -30 34.5t-31 36t-26 32t-26 35t-20 32.5t-19 37.5
t-12 36t-10 42t-2 42.5q0 213 264 389v12q-133 47 -268 47q-210 0 -326.5 -111.5t-130.5 -324.5l-65 -897h-256v41q105 17 190 20l62 836q17 245 154.5 368.5t367.5 123.5q180 0 332 -76v-53q-254 -175 -254 -369q0 -28 7 -56t13.5 -46t28.5 -48.5t31 -42t42.5 -50
t43.5 -50.5z" />
    <glyph glyph-name="Ygrave" unicode="&#x1ef2;" horiz-adv-x="1185" 
d="M1047 1300q-160 -369 -416 -813l-31 -438l229 -6v-20l-4 -23h-524v41q123 17 227 20l31 433q-145 411 -305 819l-154 6v20l2 23h443v-41q-87 -14 -209 -21q113 -307 268 -747h10q226 392 375 760l-198 6v20l2 23h426v-41q-117 -19 -172 -21zM682 1481h-47l-137 286
q20 29 57 45h20z" />
    <glyph glyph-name="ygrave" unicode="&#x1ef3;" horiz-adv-x="1017" 
d="M745 1004l33 30q61 -16 106.5 -71.5t45.5 -147.5q0 -147 -116.5 -402.5t-262.5 -453.5q-133 -181 -276.5 -288t-241.5 -107q-52 0 -107 28t-86 74l19 29q113 -78 233 -78q94 41 196 128t177 189q-57 264 -134 558.5t-136 465.5l-191 -34l-4 28q128 55 221 68l33 -21
q194 -616 254 -997h12q54 78 103.5 162.5t104.5 194t95.5 230t55.5 230.5zM590 1174h-47l-189 352q28 34 58 45h22z" />
    <glyph glyph-name="uni2007" unicode="&#x2007;" horiz-adv-x="1032" 
 />
    <glyph glyph-name="uni2008" unicode="&#x2008;" horiz-adv-x="428" 
 />
    <glyph glyph-name="uni2009" unicode="&#x2009;" horiz-adv-x="358" 
 />
    <glyph glyph-name="uni200B" unicode="&#x200b;" horiz-adv-x="0" 
 />
    <glyph glyph-name="endash" unicode="&#x2013;" horiz-adv-x="1024" 
d="M915 606l-6 -35h-782v25l6 35h782v-25z" />
    <glyph glyph-name="emdash" unicode="&#x2014;" horiz-adv-x="2048" 
d="M1880 606l-8 -35h-1682v25l7 35h1683v-25z" />
    <glyph glyph-name="quoteleft" unicode="&#x2018;" horiz-adv-x="372" 
d="M385 1483l14 -25q-72 -54 -115.5 -116.5t-43.5 -145.5v-37l71 -6l-6 -90q-28 -4 -43 -4q-41 0 -69 14q-17 53 -17 94q0 206 209 316z" />
    <glyph glyph-name="quoteright" unicode="&#x2019;" horiz-adv-x="374" 
d="M285 1483q39 0 69 -15q17 -53 17 -94q0 -206 -209 -315l-15 26q160 117 160 261v36l-71 7l6 90q28 4 43 4z" />
    <glyph glyph-name="quotesinglbase" unicode="&#x201a;" horiz-adv-x="372" 
d="M127 100q41 0 70 -16q14 -44 14 -92q3 -206 -209 -316l-12 25q46 35 77.5 67.5t57 84.5t25.5 110v37l-72 6l4 88q21 6 45 6z" />
    <glyph glyph-name="quotedblleft" unicode="&#x201c;" horiz-adv-x="694" 
d="M707 1483l14 -25q-46 -35 -77.5 -67.5t-57 -84.5t-25.5 -110v-37l72 -6l-6 -90q-28 -4 -43 -4q-42 0 -70 14q-16 50 -16 94q0 206 209 316zM385 1483l14 -25q-72 -54 -115.5 -116.5t-43.5 -145.5v-37l71 -6l-6 -90q-28 -4 -43 -4q-41 0 -69 14q-17 53 -17 94
q0 206 209 316z" />
    <glyph glyph-name="quotedblright" unicode="&#x201d;" horiz-adv-x="696" 
d="M606 1483q40 0 70 -15q16 -50 16 -94q0 -206 -209 -315l-14 26q160 117 160 261v36l-72 7l6 90q28 4 43 4zM285 1483q39 0 69 -15q17 -53 17 -94q0 -206 -209 -315l-15 26q160 117 160 261v36l-71 7l6 90q28 4 43 4z" />
    <glyph glyph-name="quotedblbase" unicode="&#x201e;" horiz-adv-x="694" 
d="M449 100q40 0 69 -16q14 -44 14 -92q3 -206 -208 -316l-13 25q46 35 77.5 67.5t57 84.5t25.5 110v37l-72 6l4 88q21 6 46 6zM127 100q41 0 70 -16q14 -44 14 -92q3 -206 -209 -316l-12 25q46 35 77.5 67.5t57 84.5t25.5 110v37l-72 6l4 88q21 6 45 6z" />
    <glyph glyph-name="dagger" unicode="&#x2020;" horiz-adv-x="960" 
d="M606 1509v-18q0 -139 -37 -299h-39q-6 75 -6 108q0 48 5 120t10 96h43zM221 1143q118 0 248 -17l-4 -39q-105 -16 -248 -16q-51 0 -76 2v23l9 43q25 4 71 4zM879 1143q48 0 75 -4v-23l-8 -43q-27 -2 -74 -2q-140 0 -245 16l4 39q130 17 248 17zM518 1026h39q4 -51 4 -135
q0 -70 -18 -253.5t-39 -318.5h-39v115q0 120 15 309t38 283z" />
    <glyph glyph-name="daggerdbl" unicode="&#x2021;" horiz-adv-x="1019" 
d="M625 1509v-18q0 -139 -37 -299h-39q-6 75 -6 108q0 49 4.5 120.5t9.5 95.5h43zM240 1143q117 0 247 -17l-4 -39q-105 -16 -247 -16q-51 0 -76 2v23l8 43q25 4 72 4zM897 1143q49 0 76 -4v-23l-8 -43q-27 -2 -74 -2q-141 0 -246 16l4 39q130 17 248 17zM535 1026h38
q7 -41 7 -98q0 -88 -11.5 -216t-31.5 -223h-39q-6 35 -6 99q0 88 11.5 215.5t31.5 222.5zM182 444q143 0 248 -16l-4 -39q-123 -16 -248 -16q-51 0 -76 4v22l9 43q25 2 71 2zM840 444q48 0 75 -2v-22l-8 -43q-27 -4 -73 -4q-123 0 -246 16l4 39q105 16 248 16zM485 324h39
q6 -37 6 -109q0 -153 -12 -215h-45l-24 6v19q0 143 36 299z" />
    <glyph glyph-name="bullet" unicode="&#x2022;" horiz-adv-x="593" 
d="M307 752q74 0 113 -41t39 -113t-39 -113t-113 -41t-112.5 41t-38.5 113t38.5 113t112.5 41z" />
    <glyph glyph-name="ellipsis" unicode="&#x2026;" horiz-adv-x="1280" 
d="M1032 180q23 0 35 -2q8 -24 8 -55q0 -76 -28 -123h-66l-6 172q32 8 57 8zM180 180q23 0 35 -2q8 -24 8 -55q0 -76 -28 -123h-66l-6 172q32 8 57 8zM602 180q23 0 35 -2q8 -24 8 -55q0 -74 -29 -123h-65l-6 172q32 8 57 8z" />
    <glyph glyph-name="perthousand" unicode="&#x2030;" horiz-adv-x="2164" 
d="M1851 731q110 0 165 -81t55 -222q0 -60 -9 -119.5t-31 -121t-54.5 -108t-85.5 -76.5t-119 -30q-112 0 -167 79.5t-55 213.5q0 56 8.5 114t30 122.5t54 114t86.5 82t122 32.5zM1845 684q-47 0 -100 -22q-67 -67 -98 -169.5t-31 -213.5q0 -259 166 -259q43 0 94 21
q129 119 129 377q0 266 -160 266zM1280 1270l4 -15q-546 -716 -922 -1280l-40 19l-5 14q277 397 511 711.5t364 470.5l-2 -2l-10 8q-95 -110 -181.5 -152.5t-181.5 -42.5q-117 0 -211 58q23 -74 23 -152q0 -50 -8 -103t-29 -111t-52.5 -103t-83.5 -74t-118 -29
q-218 0 -221 297q-1 184 77.5 311t178.5 146l8 -29q-89 -39 -144 -147t-55 -270q0 -260 166 -260q49 0 101 22q67 65 94.5 163.5t27.5 194.5q0 121 -43 209q-30 28 -77 101q3 3 6.5 7t6 6.5t6 5t7.5 3.5h17q52 -52 79 -110q109 -86 248 -86q97 0 194.5 53.5t221.5 181.5z
M1210 731q110 0 165 -81t55 -222q0 -76 -15.5 -150.5t-48 -145.5t-94 -115t-142.5 -44q-112 0 -166.5 79t-54.5 214q0 56 8.5 114t30 122.5t54 114t86.5 82t122 32.5zM1235 41q129 119 129 377q0 266 -160 266q-47 0 -100 -22q-67 -67 -98 -169.5t-31 -213.5
q0 -259 166 -259q43 0 94 21z" />
    <glyph glyph-name="minute" unicode="&#x2032;" horiz-adv-x="354" 
d="M352 1468l-135 -444h-47l104 453q40 8 68 8z" />
    <glyph glyph-name="second" unicode="&#x2033;" horiz-adv-x="647" 
d="M352 1468l-135 -444h-47l104 453q40 8 68 8zM645 1468l-135 -444h-47l104 453q40 8 68 8z" />
    <glyph glyph-name="uni2034" unicode="&#x2034;" horiz-adv-x="937" 
d="M352 1468l-135 -444h-47l104 453q40 8 68 8zM645 1468l-135 -444h-47l104 453q40 8 68 8zM936 1468l-135 -444h-47l104 453q40 8 68 8z" />
    <glyph glyph-name="guilsinglleft" unicode="&#x2039;" horiz-adv-x="569" 
d="M449 897l-242 -334l176 -340l-37 -24l-217 350v22l289 355z" />
    <glyph glyph-name="guilsinglright" unicode="&#x203a;" horiz-adv-x="569" 
d="M451 575v-22l-289 -354l-31 28l244 334l-176 340l34 25z" />
    <glyph glyph-name="fraction" unicode="&#x2044;" horiz-adv-x="405" 
d="M729 1366l4 -14q-356 -490 -475 -658q-90 -127 -257.5 -368.5t-242.5 -348.5l-39 19l-6 14q287 393 506 701q71 101 227.5 326.5t243.5 346.5z" />
    <glyph glyph-name="uni2070" unicode="&#x2070;" horiz-adv-x="659" 
d="M436 1501q111 0 165 -80t54 -209q0 -53 -8.5 -107t-29.5 -111.5t-52.5 -101.5t-83 -72.5t-114.5 -28.5q-112 0 -166 78.5t-54 207.5q0 54 9 109.5t30.5 113t53.5 101.5t83 72t113 28zM430 1462q-52 0 -90 -18q-65 -58 -95 -162.5t-30 -210.5q0 -126 42.5 -185t115.5 -59
q39 0 90 21q64 57 93.5 162t29.5 211q0 241 -156 241z" />
    <glyph glyph-name="uni2074" unicode="&#x2074;" horiz-adv-x="561" 
d="M596 987v-16l-2 -29h-123l-10 -137h-60q1 23 4.5 69t4.5 68h-287l-14 31q153 280 206 422l-28 106l45 15q20 -14 31.5 -41t11.5 -52q0 -51 -49 -149.5t-168 -284.5l4 -8q64 6 137 6h115q13 127 22 187q18 13 47 20l15 -10q-13 -84 -23 -197h121z" />
    <glyph glyph-name="uni2075" unicode="&#x2075;" horiz-adv-x="530" 
d="M240 1223q292 0 292 -201q0 -105 -74.5 -168t-195.5 -63q-83 0 -147 26l6 31q56 -12 110 -12q106 0 170 47t64 137q0 83 -65.5 117t-237.5 45h-2l35 309l43 10q85 -33 143 -33q52 0 149 33l7 -26q-28 -28 -74 -46t-96 -18q-71 0 -138 31l-28 -221q14 2 39 2z" />
    <glyph glyph-name="uni2076" unicode="&#x2076;" horiz-adv-x="626" 
d="M528 1501q42 0 78 -8v-31q-181 11 -286 -92t-105 -303q0 -119 40 -179.5t114 -60.5q46 0 92 19q98 70 98 190q0 70 -30.5 112t-92.5 42q-77 0 -141 -57l-6 30q69 74 162 74q83 0 128.5 -53.5t45.5 -136.5q0 -107 -74.5 -181.5t-188.5 -74.5q-113 0 -164 76t-51 202
q0 193 105 312.5t276 119.5z" />
    <glyph glyph-name="uni2077" unicode="&#x2077;" horiz-adv-x="532" 
d="M625 1487l4 -10q-157 -226 -241.5 -366.5t-100.5 -225.5l32 -90l-45 -21q-55 21 -55 88q0 75 81.5 212.5t248.5 352.5l-328 13l-24 -109h-37q-4 32 -4 53q0 64 20 117q250 -4 391 -39l27 37q19 -3 31 -12z" />
    <glyph glyph-name="uni2078" unicode="&#x2078;" horiz-adv-x="612" 
d="M434 1161v-12q74 -29 110 -66t36 -100q0 -87 -63.5 -139.5t-176.5 -52.5q-97 0 -150 42t-53 125q0 73 43 117t129 78v10q-127 51 -127 158q0 80 62 130t162 50q88 0 138 -41t50 -119q0 -70 -41 -109.5t-119 -70.5zM250 1325q0 -55 28.5 -82t100.5 -59l14 -6
q77 37 107 71.5t30 87.5q0 123 -127 123q-56 0 -100 -20q-53 -44 -53 -115zM453 850q59 47 59 123q0 31 -7.5 53t-28 40t-43.5 30.5t-66 31.5l-15 7q-86 -40 -118.5 -76t-32.5 -94q0 -69 38 -103.5t109 -34.5q57 0 105 23z" />
    <glyph glyph-name="uni2079" unicode="&#x2079;" horiz-adv-x="624" 
d="M408 1501q113 0 164 -76.5t51 -203.5q0 -191 -104.5 -310.5t-274.5 -119.5q-30 0 -78 6v32q179 -12 284 91t105 301q0 239 -154 239q-49 0 -92 -16q-96 -67 -96 -191q0 -153 123 -153q77 0 139 55l6 -29q-67 -73 -162 -73q-83 0 -128.5 54.5t-45.5 137.5
q0 107 74.5 181.5t188.5 74.5z" />
    <glyph glyph-name="uni2080" unicode="&#x2080;" horiz-adv-x="659" 
d="M328 541q111 0 165 -80t54 -209q0 -53 -8.5 -107.5t-30 -112t-53 -101.5t-83 -72.5t-114.5 -28.5q-111 0 -165 78.5t-54 208.5q0 54 9 109.5t30.5 113t53.5 101.5t83 72t113 28zM322 502q-51 0 -91 -19q-65 -58 -95 -162t-30 -210q0 -126 42.5 -185t115.5 -59q42 0 90 20
q64 57 93.5 162t29.5 211q0 242 -155 242z" />
    <glyph glyph-name="uni2081" unicode="&#x2081;" horiz-adv-x="440" 
d="M348 -113v-14l-2 -16h-332v30q91 13 140 15l43 553q-64 -33 -138 -39l-2 18l2 23q49 5 98.5 29t82.5 67l26 -6l-51 -656z" />
    <glyph glyph-name="uni2082" unicode="&#x2082;" horiz-adv-x="550" 
d="M387 -6l37 -4q4 -16 4 -47q0 -58 -22 -113h-31q-177 0 -336 39l-49 -35q-18 4 -27 16l-2 11q13 10 50.5 38t55.5 41.5t54.5 43t56 47t50.5 47t48.5 51.5t39 51.5t32.5 55t19 55t8 57.5q0 71 -43 105t-103 34q-63 0 -103 -32.5t-40 -94.5q0 -40 20 -79l-28 -13
q-43 52 -43 103q0 73 57 121.5t148 48.5q93 0 146.5 -53.5t53.5 -135.5q0 -59 -26.5 -117.5t-80.5 -116.5t-112 -107t-143 -111l284 -13z" />
    <glyph glyph-name="uni2083" unicode="&#x2083;" horiz-adv-x="563" 
d="M295 207v-12q127 -29 127 -148q0 -98 -78 -157.5t-205 -59.5q-83 0 -149 27l4 30q59 -12 121 -12q109 0 174 44.5t65 127.5q0 107 -127 129q-47 -13 -84 -16l-10 8l-1 7q-1 7 -1 13q0 4 1 10t1 7q25 10 80 10q21 0 29 -2q125 58 125 160q0 61 -39 88.5t-103 27.5
q-73 0 -110 -34.5t-37 -85.5v-33l-29 -2q-18 34 -18 61q0 61 57.5 103.5t149.5 42.5q93 0 145.5 -44.5t52.5 -115.5q0 -69 -44 -112.5t-97 -61.5z" />
    <glyph glyph-name="uni2084" unicode="&#x2084;" horiz-adv-x="561" 
d="M487 39v-16l-2 -29h-123l-10 -137h-59q1 22 4 68t4 69h-287l-14 31q158 288 207 421l-29 107l45 14q20 -14 31.5 -40.5t11.5 -51.5q0 -51 -49 -149.5t-168 -284.5l4 -8q65 6 137 6h115q11 108 23 186q20 14 47 21l14 -10q-10 -68 -22 -197h120z" />
    <glyph glyph-name="uni2085" unicode="&#x2085;" horiz-adv-x="530" 
d="M131 262q293 0 293 -201q0 -105 -74.5 -168t-195.5 -63q-82 0 -148 27l6 30q56 -12 111 -12q106 0 169.5 46.5t63.5 137.5q0 83 -65.5 117t-237.5 45h-2l35 309l43 11q85 -33 143 -33q53 0 150 33l6 -27q-28 -28 -74 -45.5t-96 -17.5q-72 0 -137 30l-29 -221q14 2 39 2z
" />
    <glyph glyph-name="uni2086" unicode="&#x2086;" horiz-adv-x="626" 
d="M420 541q38 0 78 -9v-30q-181 11 -286.5 -92.5t-105.5 -303.5q0 -119 40 -179t114 -60q48 0 92 18q99 71 99 191q0 70 -30.5 111.5t-92.5 41.5q-78 0 -142 -57l-6 31q68 73 162 73q83 0 128.5 -53.5t45.5 -136.5q0 -107 -74 -181.5t-188 -74.5q-113 0 -164 76.5
t-51 202.5q0 193 105 312.5t276 119.5z" />
    <glyph glyph-name="uni2087" unicode="&#x2087;" horiz-adv-x="532" 
d="M516 526l4 -10q-157 -226 -241.5 -366.5t-100.5 -225.5l33 -90l-45 -20q-55 21 -55 88q0 142 329 565l-327 12l-25 -108h-37q-4 32 -4 53q0 62 21 117q250 -4 391 -39l26 37q18 -3 31 -13z" />
    <glyph glyph-name="uni2088" unicode="&#x2088;" horiz-adv-x="612" 
d="M326 201v-13q74 -29 109.5 -65.5t35.5 -99.5q0 -88 -64 -140.5t-176 -52.5q-97 0 -149.5 42.5t-52.5 125.5q0 73 43 117t129 78v10q-127 51 -127 157q0 80 62 130.5t161 50.5q88 0 138 -41t50 -119q0 -70 -41 -109.5t-118 -70.5zM141 365q0 -55 29 -82.5t100 -59.5l15 -6
q76 37 106.5 72t30.5 88q0 123 -127 123q-53 0 -100 -21q-54 -45 -54 -114zM344 -111q59 47 59 123q0 59 -31 89t-114 67l-14 6q-86 -40 -119 -76t-33 -94q0 -137 148 -137q58 0 104 22z" />
    <glyph glyph-name="uni2089" unicode="&#x2089;" horiz-adv-x="624" 
d="M299 541q113 0 164 -76.5t51 -204.5q0 -191 -104.5 -310.5t-274.5 -119.5q-30 0 -78 6v33q180 -12 284.5 90.5t104.5 300.5q0 240 -153 240q-46 0 -92 -17q-97 -68 -97 -190q0 -71 30 -112.5t93 -41.5q77 0 140 56l6 -29q-68 -74 -162 -74q-83 0 -128.5 54.5t-45.5 138.5
q0 107 74 181.5t188 74.5z" />
    <glyph glyph-name="Euro" unicode="&#x20ac;" horiz-adv-x="1099" 
d="M1016 1217v-46q0 -125 -23 -274h-43l-2 270q-80 27 -172 27q-104 0 -196 -47q-72 -53 -128 -150t-87 -219h370v-20l-6 -29h-377q-24 -117 -24 -240h377v-20l-7 -29h-368q9 -203 93.5 -304t219.5 -101q84 0 163.5 35.5t141.5 97.5l19 -29q-137 -164 -338 -164
q-89 0 -159 35t-115 98t-69.5 146.5t-29.5 185.5h-168v19l6 30h162q0 117 27 240h-164v19l6 30h170q19 76 47 142t70 126.5t93 104t119.5 69t147.5 25.5q99 0 178 -37v15q36 8 47 8z" />
    <glyph glyph-name="uni20B9" unicode="&#x20b9;" horiz-adv-x="833" 
d="M803 1219v-23l-6 -29h-271l-4 -14q115 -64 115 -223h137v-23l-6 -28h-135q-8 -66 -36 -127.5t-74.5 -113.5t-120 -83t-162.5 -31h-19l-4 -14q184 -330 311 -477l152 41l10 -39q-81 -51 -151 -51q-35 0 -62.5 17.5t-64.5 66.5q-103 126 -279 460l10 45h166q113 37 175 116
t73 190h-422v20l6 31h418q0 96 -38 151t-122 86h-235v21l6 31h633z" />
    <glyph glyph-name="uni20BA" unicode="&#x20ba;" horiz-adv-x="940" 
d="M748 467l49 14q51 -104 51 -209q0 -62 -18 -115.5t-57 -99t-109 -72t-164 -26.5q-134 0 -271 53l54 535l-172 -72l-11 10l4 43l185 78l22 234l-172 -72l-8 10l4 43l182 78l33 326q30 10 58 10l12 -10l-29 -297l303 129l6 -13l-4 -43l-311 -131l-25 -233l306 127l4 -10
l-2 -45l-312 -131l-55 -541q115 -21 188 -21q81 0 140 22.5t90.5 61.5t46 84.5t14.5 98.5q0 70 -32 184z" />
    <glyph glyph-name="uni20BD" unicode="&#x20bd;" horiz-adv-x="1042" 
d="M406 569l-23 -237h397v-23l-6 -28h-397l-23 -232l234 -6v-20l-2 -23h-490v41q67 11 195 20l20 220h-235v20l6 31h235l23 237h-221v21l6 31h221l55 548l-184 7v20l2 23q234 6 410 6q169 0 256.5 -73t87.5 -212q0 -173 -97.5 -272t-273.5 -99h-196zM412 621h174
q128 0 211 47q104 115 104 262q0 116 -67 178.5t-199 62.5h-170z" />
    <glyph glyph-name="afii61289" unicode="&#x2113;" horiz-adv-x="679" 
d="M225 35q178 -6 332 129l16 -27q-56 -67 -144 -110t-173 -43q-54 0 -76 25t-22 97q0 56 10 209q-66 -51 -154 -90l-10 39q89 39 168 103q30 357 64 639q10 86 20.5 150.5t26 128.5t35 108.5t46.5 79.5t62.5 52t79.5 17q73 0 104 -49.5t31 -151.5q0 -91 -22.5 -213
t-67 -263t-127 -279.5t-188.5 -229.5q-17 -197 -11 -321zM428 1477q-41 -50 -71 -150.5t-54 -314.5q-39 -346 -63 -596q91 93 161.5 226t108 265t56 244t18.5 195q0 74 -19.5 111.5t-64.5 37.5q-36 0 -72 -18z" />
    <glyph glyph-name="afii61352" unicode="&#x2116;" horiz-adv-x="1849" 
d="M1255 1327l-188 -74q-82 -153 -109.5 -423.5t-25.5 -827.5q-24 -13 -62 -20h-14q-104 250 -467 1022h-12q0 -405 -29 -617q-16 -132 -47.5 -221t-87.5 -141t-135 -52q-68 0 -105 29l7 45h186q83 115 123 353t41 698l-111 188l8 14q31 7 62 7q88 -138 291 -567.5
t301 -667.5h12q-10 202 -10 430q0 62 0.5 108t4 120t9 130t17.5 127t28 123t40.5 105t55.5 87t74 55t94 21q17 0 41 -6zM1554 1245q114 0 174 -82t60 -211q0 -53 -10 -110t-33.5 -116.5t-58 -106t-89 -76t-120.5 -29.5q-114 0 -174 81t-60 210q0 53 10 110t33.5 117
t58 106.5t89 76.5t120.5 30zM1595 590q63 55 96 157t33 201q0 110 -46 179t-132 69q-47 0 -110 -29q-62 -53 -94.5 -155t-32.5 -201q0 -112 45.5 -181t130.5 -69q43 0 110 29zM1450 180q23 0 35 -2q8 -24 8 -55q0 -74 -29 -123h-65l-6 172q32 8 57 8z" />
    <glyph glyph-name="uni2117" unicode="&#x2117;" horiz-adv-x="1613" 
d="M866 1389q287 0 465 -179t178 -485q0 -160 -53 -299.5t-146.5 -239t-228.5 -156.5t-293 -57q-192 0 -338 82t-226 232.5t-81 349.5q0 159 52.5 298t146.5 239t229.5 157.5t294.5 57.5zM791 20q140 0 262.5 52.5t210 144.5t138 223t50.5 283q0 191 -79 332.5t-212.5 213.5
t-302.5 72q-140 0 -261.5 -52t-208 -143.5t-136 -221t-49.5 -279.5q0 -144 45 -263t124 -197.5t186.5 -121.5t232.5 -43zM874 1059q271 0 271 -209q0 -122 -69.5 -186t-182.5 -64q-16 0 -62 4v37q97 3 166 25q74 65 74 182q0 82 -43.5 126t-148.5 44h-86l-52 -676l144 -4
v-19l-2 -20h-324v35q46 14 115 18l51 658l-113 4v18l4 21q132 6 258 6z" />
    <glyph glyph-name="trademark" unicode="&#x2122;" horiz-adv-x="1560" 
d="M627 1378l12 -8q2 -12 2 -37q0 -77 -18 -151h-35l-2 135l-164 4l-57 -686l112 -6v-17l-2 -20h-289v37q72 12 119 14l57 680l-167 6l-25 -149l-37 2q-4 36 -4 69q0 57 18 119v6l15 4l231 -18h193v10q21 6 41 6zM1548 1362v-35q-40 -8 -116 -16q0 -394 -17 -676l109 -6v-17
l-2 -20h-273v37q64 12 109 14q12 176 22 676h-12q-27 -79 -262 -680q-27 -17 -57 -23l-15 11q-41 193 -77.5 363.5t-49.5 231.5t-20 97h-13q-44 -277 -90 -684l117 -6v-17l-2 -20h-270v37q70 12 108 14q73 543 97 676l-103 8v16l2 19q99 6 197 6q91 -354 145 -676h12
q108 317 259 670h202z" />
    <glyph glyph-name="Omega" unicode="&#x2126;" horiz-adv-x="1253" 
d="M1128 279l43 -3q5 -82 5 -96q0 -70 -21 -180h-407l22 287q79 29 139.5 81.5t95.5 111.5t56.5 130.5t29 131.5t7.5 122q0 233 -104 351t-287 118q-128 0 -234 -53q-122 -77 -190 -231.5t-68 -329.5q0 -331 252 -432l-23 -287h-403q-7 132 22 276l43 3l7 -213l284 -11
l17 207q-132 54 -203.5 171.5t-73.5 281.5q0 59 8.5 120.5t29 128t51 127.5t77.5 116t104 95t135 63.5t167 23.5q118 0 208.5 -39.5t146.5 -109.5t84 -161.5t28 -201.5q0 -61 -8 -123.5t-32 -140t-61.5 -142.5t-104 -122t-151.5 -87l-12 -207l283 11z" />
    <glyph glyph-name="estimated" unicode="&#x212e;" horiz-adv-x="1335" 
d="M315 492v-302q63 -90 165.5 -134t217.5 -44q136 0 249.5 56t182.5 135l23 -25q-78 -96 -197.5 -150.5t-261.5 -54.5q-164 0 -298 71t-209.5 192.5t-75.5 267.5q0 145 75 267t203.5 192.5t280.5 70.5t280 -70.5t202.5 -192t74.5 -265.5v-14h-912zM674 995
q-106 0 -200 -44.5t-159 -133.5v-291h709v291q-129 178 -350 178z" />
    <glyph glyph-name="uni2150" unicode="&#x2150;" horiz-adv-x="1499" 
d="M1227 1366l4 -14q-356 -490 -475 -658q-90 -127 -257.5 -368.5t-242.5 -348.5l-39 19l-6 14q287 393 506 701q71 101 227.5 326.5t243.5 346.5zM485 578v-15l-2 -18h-389v33q68 12 168 16l60 692q-72 -46 -168 -59l-2 20l2 23q136 19 213 119l24 -7l-65 -796zM1518 821
l4 -10q-192 -264 -293.5 -442.5t-114.5 -286.5l39 -107l-47 -20q-62 34 -62 111q0 91 95.5 255.5t292.5 434.5l-375 22l-31 -137h-39q-4 32 -4 59q0 73 25 138q277 -4 444 -45l31 43q21 -3 35 -15z" />
    <glyph glyph-name="uni2151" unicode="&#x2151;" horiz-adv-x="1513" 
d="M1227 1366l4 -14q-356 -490 -475 -658q-90 -127 -257.5 -368.5t-242.5 -348.5l-39 19l-6 14q287 393 506 701q71 101 227.5 326.5t243.5 346.5zM485 578v-15l-2 -18h-389v33q68 12 168 16l60 692q-72 -46 -168 -59l-2 20l2 23q136 19 213 119l24 -7l-65 -796zM1186 838
q244 0 244 -332q0 -111 -28 -206.5t-82.5 -169t-143 -115.5t-201.5 -42q-41 0 -76 7v32q118 -4 207.5 30t145 101t83 159t27.5 208q0 285 -178 285q-56 0 -117 -23q-111 -96 -111 -244q0 -85 38.5 -134.5t115.5 -49.5q82 0 158 59l8 -32q-81 -78 -186 -78q-96 0 -148.5 60.5
t-52.5 164.5q0 129 79.5 224.5t217.5 95.5z" />
    <glyph glyph-name="uni2152" unicode="&#x2152;" horiz-adv-x="2127" 
d="M1227 1366l4 -14q-356 -490 -475 -658q-90 -127 -257.5 -368.5t-242.5 -348.5l-39 19l-6 14q287 393 506 701q71 101 227.5 326.5t243.5 346.5zM485 578v-15l-2 -18h-389v33q68 12 168 16l60 692q-72 -46 -168 -59l-2 20l2 23q136 19 213 119l24 -7l-65 -796zM1794 838
q84 0 141 -48t82 -123.5t25 -174.5q0 -82 -17.5 -166.5t-53.5 -166.5t-104 -134t-157 -52q-124 0 -185 95t-61 249q0 66 10 134t35 138.5t61.5 125t94.5 89t129 34.5zM1788 797q-52 0 -107 -25q-78 -73 -113.5 -200t-35.5 -259q0 -154 50.5 -225.5t135.5 -71.5q54 0 105 23
q79 73 114 199t35 258q0 301 -184 301zM1325 33v-15l-2 -18h-389v33q68 12 168 16l59 692q-72 -46 -168 -59l-2 20l2 23q136 19 213 119l25 -6l-66 -797z" />
    <glyph glyph-name="onethird" unicode="&#x2153;" horiz-adv-x="1511" 
d="M1227 1366l4 -14q-356 -490 -475 -658q-90 -127 -257.5 -368.5t-242.5 -348.5l-39 19l-6 14q287 393 506 701q71 101 227.5 326.5t243.5 346.5zM485 578v-15l-2 -18h-389v33q68 12 168 16l60 692q-72 -46 -168 -59l-2 20l2 23q136 19 213 119l24 -7l-65 -796zM1245 434
v-12q75 -15 112.5 -59.5t37.5 -124.5q0 -126 -89 -195.5t-235 -69.5q-100 0 -174 31l6 33q77 -17 144 -17q278 0 278 218q0 68 -31.5 107.5t-107.5 57.5q-57 -15 -115 -22l-10 8q-4 6 -4 21q0 12 2 16q32 12 96 12h27q74 30 117.5 75.5t43.5 123.5q0 147 -167 147
q-94 0 -139.5 -44.5t-45.5 -112.5q0 -7 1 -18t1 -13l-30 -4q-17 30 -17 67q0 79 66 129t172 50t166.5 -52t60.5 -145q0 -48 -16.5 -86t-43.5 -62t-52.5 -37.5t-53.5 -21.5z" />
    <glyph glyph-name="twothirds" unicode="&#x2154;" horiz-adv-x="1628" 
d="M1343 1366l5 -14q-397 -546 -476 -658q-90 -126 -256 -367.5t-243 -349.5l-39 19l-6 14q287 393 506 701q71 101 227.5 326.5t243.5 346.5zM532 717l39 -4q2 -20 2 -51q0 -68 -24 -138h-37q-203 0 -383 47l-55 -41q-20 8 -29 17l-2 12q57 45 86 67.5t89 73.5t94 85.5
t80.5 87.5t71.5 96t43.5 95.5t18.5 100.5q0 86 -49 128t-123 42t-122 -42t-48 -122q0 -44 25 -98l-27 -12q-47 52 -47 121q0 89 65 148t169 59t164.5 -59t60.5 -156q0 -240 -426 -572l334 -20zM1362 434v-12q75 -15 112 -59.5t37 -124.5q0 -126 -88.5 -195.5t-234.5 -69.5
q-100 0 -174 31l6 33q76 -17 143 -17q279 0 279 218q0 68 -31.5 107.5t-107.5 57.5q-57 -15 -115 -22l-10 8q-4 6 -4 21q0 12 2 16q32 12 96 12h26q74 30 118 75.5t44 123.5q0 81 -48 114t-120 33q-94 0 -139 -44.5t-45 -112.5q0 -7 1 -18t1 -13l-31 -4q-16 29 -16 67
q0 79 65.5 129t171.5 50t167 -52t61 -145q0 -48 -16.5 -86t-43.5 -62t-52.5 -37.5t-53.5 -21.5z" />
    <glyph glyph-name="uni2155" unicode="&#x2155;" horiz-adv-x="1415" 
d="M1227 1366l4 -14q-356 -490 -475 -658q-90 -127 -257.5 -368.5t-242.5 -348.5l-39 19l-6 14q287 393 506 701q71 101 227.5 326.5t243.5 346.5zM485 578v-15l-2 -18h-389v33q68 12 168 16l60 692q-72 -46 -168 -59l-2 20l2 23q136 19 213 119l24 -7l-65 -796zM989 487
q164 0 253 -52.5t89 -174.5q0 -126 -89 -206.5t-226 -80.5q-97 0 -168 31l6 33q73 -17 133 -17q122 0 198.5 61.5t76.5 174.5q0 47 -16 79.5t-41.5 51.5t-75 31t-96.5 17t-126 9h-2l39 383l49 11q89 -43 164 -43q69 0 172 43l10 -27q-35 -33 -87.5 -53.5t-106.5 -20.5
q-93 0 -160 39l-37 -291q14 2 41 2z" />
    </font>
</defs>
</svg>
