<?xml version="1.0" standalone="no"?>
<!DOCTYPE svg PUBLIC "-//W3C//DTD SVG 1.1//EN" "http://www.w3.org/Graphics/SVG/1.1/DTD/svg11.dtd" >
<svg xmlns="http://www.w3.org/2000/svg" xmlns:xlink="http://www.w3.org/1999/xlink" version="1.1">
<metadata>
Created by FontForge 20170731 at Wed Jan 19 21:51:12 2022
 By Aleksey,,,
2014 published by FontShop International GmbH
</metadata>
<defs>
<font id="FranziskaPro-MediumItalic" horiz-adv-x="1259" >
  <font-face 
    font-family="FranziskaPro-MediumItalic"
    font-weight="500"
    font-style="italic"
    font-stretch="normal"
    units-per-em="2048"
    panose-1="2 1 6 4 4 1 1 1 1 2"
    ascent="1612"
    descent="-436"
    x-height="1051"
    cap-height="1362"
    bbox="-879 -573 2515 1974"
    underline-thickness="122"
    underline-position="-327"
    slope="-6.5"
    unicode-range="U+000D-1F44E"
  />
<missing-glyph horiz-adv-x="1419" 
d="M1280 1362l-125 -1362h-979l125 1362h979zM1135 1237h-652l561 -987zM324 125h649l-561 983z" />
    <glyph glyph-name="T_h" unicode="Th" horiz-adv-x="2156" 
d="M2091 190l25 -86q-62 -56 -137.5 -89t-143.5 -33q-62 0 -99.5 29.5t-37.5 94.5q0 55 51 336.5t51 358.5q0 61 -24.5 90t-81.5 29q-27 0 -58 -5q-162 -205 -360 -915q-64 -18 -154 -18l-45 36l137 1278q-34 -40 -96.5 -56.5t-124.5 -16.5q-27 0 -62 3t-91 9t-76 8
l-100 -1132l153 -13v-45l-8 -53h-553v92q87 34 186 41l103 1120h-217l-74 -235l-125 10q-4 58 -4 88q0 137 47 277h2l41 2l451 -33h276q174 0 283 45l12 109q91 23 164 26l47 -37l-74 -581q-15 -150 -80 -498l23 -6q42 132 74.5 222t66.5 166t65 120.5t68.5 75.5t78.5 43
t93 12q116 0 179 -60t63 -184q0 -22 -2 -49.5t-6 -63.5t-8 -68t-11.5 -80t-13 -80.5t-15.5 -89t-15 -86t-16 -90.5t-15 -85q79 0 188 67z" />
    <glyph glyph-name="T_k" unicode="Tk" horiz-adv-x="2131" 
d="M2038 188l24 -86q-57 -55 -127 -87.5t-139 -32.5q-46 0 -79 14t-55 46t-35.5 66t-29.5 91q-47 150 -51 258l113 30q70 69 114 157.5t44 166.5q0 58 -27.5 83.5t-91.5 25.5q-6 0 -15 -1t-22.5 -2t-22.5 -2q-161 -208 -362 -915q-64 -18 -154 -18l-45 36l137 1278
q-34 -40 -96.5 -56.5t-124.5 -16.5q-27 0 -62 3t-91 9t-76 8l-100 -1132l153 -13v-45l-8 -53h-553v92q87 34 186 41l103 1120h-217l-74 -235l-125 10q-4 58 -4 88q0 137 47 277h2l41 2l451 -33h276q174 0 283 45l12 109q91 23 164 26l47 -37l-74 -581q-15 -150 -80 -498
l23 -6q64 203 112 322t101.5 193t108 99t133.5 25q124 0 198 -58t74 -180q0 -134 -88.5 -238t-220.5 -149q68 -207 127 -309q72 5 176 63z" />
    <glyph glyph-name="T_l" unicode="Tl" horiz-adv-x="1552" 
d="M1501 186l23 -86q-59 -53 -136 -85.5t-147 -32.5q-147 0 -147 149q0 49 16.5 206t50 450.5t56.5 512.5q-33 -41 -96.5 -59t-127.5 -18q-27 0 -62 3t-91 9t-76 8l-100 -1132l153 -13v-45l-8 -53h-553v92q87 34 186 41l103 1120h-217l-74 -235l-125 10q-4 58 -4 88
q0 137 47 277h2l41 2l451 -33h276q181 0 287 47l10 107q92 23 166 26l45 -37q-15 -133 -59 -489t-68.5 -576.5t-28.5 -316.5q41 0 101 18.5t106 44.5z" />
    <glyph glyph-name="Tbar_h" unicode="&#x166;h" horiz-adv-x="2156" 
d="M2091 190l25 -86q-62 -56 -137.5 -89t-143.5 -33q-62 0 -99.5 29.5t-37.5 94.5q0 55 51 336.5t51 358.5q0 61 -24.5 90t-81.5 29q-27 0 -58 -5q-162 -205 -360 -915q-64 -18 -154 -18l-45 36l137 1278q-34 -40 -96.5 -56.5t-124.5 -16.5q-27 0 -62 3t-91 9t-76 8
l-51 -584h256v-41l-13 -79h-254l-38 -428l153 -13v-45l-8 -53h-553v92q87 34 186 41l37 406h-248v39l13 81h248l53 594h-217l-74 -235l-125 10q-4 58 -4 88q0 137 47 277h2l41 2l451 -33h276q174 0 283 45l12 109q91 23 164 26l47 -37l-74 -581q-15 -150 -80 -498l23 -6
q42 132 74.5 222t66.5 166t65 120.5t68.5 75.5t78.5 43t93 12q116 0 179 -60t63 -184q0 -22 -2 -49.5t-6 -63.5t-8 -68t-11.5 -80t-13 -80.5t-15.5 -89t-15 -86t-16 -90.5t-15 -85q79 0 188 67z" />
    <glyph glyph-name="Tcaron_h" unicode="&#x164;h" horiz-adv-x="2156" 
d="M2091 190l25 -86q-62 -56 -137.5 -89t-143.5 -33q-62 0 -99.5 29.5t-37.5 94.5q0 55 51 336.5t51 358.5q0 61 -24.5 90t-81.5 29q-27 0 -58 -5q-162 -205 -360 -915q-64 -18 -154 -18l-45 36l137 1278q-34 -40 -96.5 -56.5t-124.5 -16.5q-27 0 -62 3t-91 9t-76 8
l-100 -1132l153 -13v-45l-8 -53h-553v92q87 34 186 41l103 1120h-217l-74 -235l-125 10q-4 58 -4 88q0 137 47 277h2l41 2l451 -33h276q174 0 283 45l12 109q91 23 164 26l47 -37l-74 -581q-15 -150 -80 -498l23 -6q42 132 74.5 222t66.5 166t65 120.5t68.5 75.5t78.5 43
t93 12q116 0 179 -60t63 -184q0 -22 -2 -49.5t-6 -63.5t-8 -68t-11.5 -80t-13 -80.5t-15.5 -89t-15 -86t-16 -90.5t-15 -85q79 0 188 67zM711 1651h18l182 168h115l-309 -342h-125l-191 282l148 80z" />
    <glyph glyph-name="f_b" unicode="fb" horiz-adv-x="1744" 
d="M1403 1059q64 0 111 -16.5t84 -56t56 -110.5t19 -174q0 -100 -17.5 -198t-59.5 -195.5t-105 -170.5t-161 -119t-220 -46q-84 0 -193.5 19.5t-193.5 46.5l141 1347q-102 31 -209 31q-76 0 -133 -16q-31 -57 -50 -142t-38 -249h207v-52l-16 -67h-203l-80 -838
q-24 -258 -111.5 -373.5t-242.5 -115.5q-80 0 -159 28.5t-134 81.5l33 93q199 -70 333 -70q52 88 68 280l82 900l-143 16v90q48 16 157 37q61 522 441 522q123 0 223 -51q73 42 153 51l48 -37l-76 -585q-8 -62 -20 -137.5t-21.5 -128.5t-24 -132.5t-20.5 -111.5l22 -7
q50 164 89.5 272t79.5 186.5t83 119.5t90 59.5t111 18.5zM1257 102q93 105 140 277.5t47 341.5q0 112 -25 155.5t-86 43.5q-17 0 -57 -7q-72 -90 -147 -272t-185 -524q104 -33 186 -33q53 0 127 18z" />
    <glyph glyph-name="f_f" unicode="ff" horiz-adv-x="1189" 
d="M1456 1311l-317 80q-37 -9 -64 -27q-38 -136 -51 -354h219v-52l-14 -67h-215l-80 -838q-12 -127 -43.5 -215t-84 -141t-121.5 -76.5t-163 -23.5q-180 0 -301 81q-89 -114 -239 -114q-78 0 -155 28t-132 82l33 93q199 -70 333 -70q52 88 68 280l82 900l-143 16v90
q48 16 157 37q16 139 50 235t88 151.5t121.5 79t158.5 23.5q198 0 322 -100q115 133 313 133q147 0 223 -82zM909 1331q-137 51 -270 51q-78 0 -141 -18q-36 -84 -64 -354h336l47 6q22 192 92 315zM805 881l-119 10h-262l-80 -838q-18 -172 -70 -286q124 -43 248 -43
q83 0 146 18q41 81 53 250z" />
    <glyph glyph-name="f_f_b" unicode="ffb" horiz-adv-x="2340" 
d="M2001 1059q64 0 111 -16.5t83.5 -56t55 -110.5t18.5 -174q0 -100 -17.5 -198t-59.5 -195.5t-104.5 -170.5t-160.5 -119t-219 -46q-85 0 -197.5 20t-195.5 46l139 1347q-98 31 -209 31q-76 0 -133 -16q-30 -59 -49.5 -145.5t-36.5 -245.5h207v-52l-16 -67h-203l-80 -838
q-12 -127 -43.5 -215t-84 -141t-121.5 -76.5t-163 -23.5q-180 0 -301 81q-89 -114 -239 -114q-78 0 -155 28t-132 82l33 93q199 -70 333 -70q52 88 68 280l82 900l-143 16v90q48 16 157 37q16 139 50 235t88 151.5t121.5 79t158.5 23.5q192 0 315 -96q111 129 299 129
q122 0 222 -51q76 42 153 51l47 -37l-73 -585q-9 -78 -22.5 -163t-35.5 -210t-24 -137l22 -7q63 205 110.5 326.5t101 198.5t108.5 104t135 27zM903 1333q-125 49 -264 49q-78 0 -141 -18q-36 -84 -64 -354h336l47 6q21 192 86 317zM1855 102q93 105 140 277.5t47 341.5
q0 112 -25 155.5t-86 43.5q-20 0 -55 -7q-71 -88 -147.5 -271t-186.5 -525q97 -33 187 -33q52 0 126 18zM805 881l-119 10h-262l-80 -838q-18 -172 -70 -286q124 -43 248 -43q83 0 146 18q41 81 53 250z" />
    <glyph glyph-name="f_f_h" unicode="ffh" horiz-adv-x="2390" 
d="M2324 190l25 -86q-62 -56 -137.5 -89t-143.5 -33q-62 0 -99.5 29.5t-37.5 94.5q0 55 51.5 336.5t51.5 358.5q0 61 -25 90t-82 29q-5 0 -13.5 -1t-21 -2t-22.5 -2q-164 -209 -361 -915q-65 -18 -153 -18l-45 36l143 1368q-98 31 -209 31q-76 0 -133 -16
q-30 -59 -49.5 -145.5t-36.5 -245.5h207v-52l-16 -67h-203l-80 -838q-12 -127 -43.5 -215t-84 -141t-121.5 -76.5t-163 -23.5q-180 0 -301 81q-89 -114 -239 -114q-78 0 -155 28t-132 82l33 93q199 -70 333 -70q52 88 68 280l82 900l-143 16v90q48 16 157 37q16 139 50 235
t88 151.5t121.5 79t158.5 23.5q192 0 315 -96q111 129 299 129q122 0 222 -51q77 42 153 51l47 -37l-75 -585q-6 -61 -17 -137.5t-18 -118.5t-23 -134t-18 -104l22 -6q51 159 89 260.5t77.5 180t81 119t89 60t110.5 19.5q241 0 241 -244q0 -22 -2 -49.5t-6 -63.5t-8 -68
t-11.5 -80t-13 -80.5t-15.5 -89t-15 -86t-16 -90.5t-15 -85q79 0 188 67zM903 1333q-125 49 -264 49q-78 0 -141 -18q-36 -84 -64 -354h336l47 6q21 192 86 317zM805 881l-119 10h-262l-80 -838q-18 -172 -70 -286q124 -43 248 -43q83 0 146 18q41 81 53 250z" />
    <glyph glyph-name="f_f_i" unicode="ffi" horiz-adv-x="1755" 
d="M1704 190l25 -86q-135 -122 -271 -122q-139 0 -139 129q0 118 90 780h-395l-80 -838q-12 -127 -43.5 -215t-84 -141t-121.5 -76.5t-163 -23.5q-180 0 -301 81q-89 -114 -239 -114q-78 0 -155 28t-132 82l33 93q199 -70 333 -70q52 88 68 280l82 900l-143 16v90
q48 16 157 37q16 139 50 235t88 151.5t121.5 79t158.5 23.5q198 0 324 -102q121 135 346 135q276 0 344 -184l-98 -125l-277 194q-93 3 -164 -24q-67 -150 -92 -393h320q119 31 239 41l45 -37q-12 -105 -106 -891q77 0 180 67zM909 1331q-134 51 -270 51q-78 0 -141 -18
q-36 -84 -64 -354h334l49 10q23 189 92 311zM803 874l-115 17h-264l-80 -838q-18 -172 -70 -286q124 -43 248 -43q83 0 146 18q41 81 53 250z" />
    <glyph glyph-name="f_f_j" unicode="ffj" horiz-adv-x="1730" 
d="M1026 1010h320q139 36 239 41l45 -37l-117 -983q-27 -240 -115.5 -352.5t-236.5 -112.5q-118 0 -192 74l32 92q139 -33 228 -33q51 89 71 278l109 914h-395l-80 -838q-12 -127 -43.5 -215t-84 -141t-121.5 -76.5t-163 -23.5q-180 0 -301 81q-89 -114 -239 -114
q-78 0 -155 28t-132 82l33 93q199 -70 333 -70q52 88 68 280l82 900l-143 16v90q48 16 157 37q16 139 50 235t88 151.5t121.5 79t158.5 23.5q198 0 324 -102q121 135 346 135q276 0 344 -184l-98 -125l-277 194q-93 3 -164 -24q-67 -150 -92 -393zM909 1331q-134 51 -270 51
q-78 0 -141 -18q-36 -84 -64 -354h334l49 10q23 189 92 311zM803 874l-115 17h-264l-80 -838q-18 -172 -70 -286q124 -43 248 -43q83 0 146 18q41 81 53 250z" />
    <glyph glyph-name="f_f_k" unicode="ffk" horiz-adv-x="2365" 
d="M2271 186l25 -86q-57 -55 -127 -87.5t-139 -32.5q-46 0 -79 14.5t-55 47t-35.5 66t-29.5 89.5q-47 150 -51 258l112 30q70 69 114 157.5t44 166.5q0 58 -27.5 83.5t-91.5 25.5q-6 0 -14.5 -1t-21.5 -2t-21 -2q-166 -211 -365 -915q-65 -18 -153 -18l-45 38l143 1368
q-98 31 -209 31q-76 0 -133 -16q-30 -59 -49.5 -145.5t-36.5 -245.5h207v-52l-16 -67h-203l-80 -838q-12 -127 -43.5 -215t-84 -141t-121.5 -76.5t-163 -23.5q-180 0 -301 81q-89 -114 -239 -114q-78 0 -155 28t-132 82l33 93q199 -70 333 -70q52 88 68 280l82 900l-143 16
v90q48 16 157 37q16 139 50 235t88 151.5t121.5 79t158.5 23.5q192 0 315 -96q111 129 299 129q122 0 222 -51q77 42 153 51l47 -37l-75 -585q-13 -127 -76 -496l22 -4q52 163 92 268t80 181.5t83 116t90 56.5t112 17q125 0 197.5 -58.5t72.5 -179.5q0 -137 -86 -240
t-221 -151q71 -211 123 -307q83 8 178 63zM903 1333q-125 49 -264 49q-78 0 -141 -18q-36 -84 -64 -354h336l47 6q21 192 86 317zM805 881l-119 10h-262l-80 -838q-18 -172 -70 -286q124 -43 248 -43q83 0 146 18q41 81 53 250z" />
    <glyph glyph-name="f_f_l" unicode="ffl" horiz-adv-x="1781" 
d="M1729 186l24 -86q-59 -53 -136.5 -85.5t-146.5 -32.5q-149 0 -149 151q0 26 4 77t12.5 133.5t17 159t23.5 202t25.5 211t28.5 236.5t28 232q-95 33 -215 33q-76 0 -133 -16q-30 -59 -49.5 -145.5t-36.5 -245.5h207v-52l-16 -67h-203l-80 -838q-12 -127 -43.5 -215
t-84 -141t-121.5 -76.5t-163 -23.5q-180 0 -301 81q-89 -114 -239 -114q-78 0 -155 28t-132 82l33 93q199 -70 333 -70q52 88 68 280l82 900l-143 16v90q48 16 157 37q16 139 50 235t88 151.5t121.5 79t158.5 23.5q192 0 315 -96q111 129 299 129q128 0 226 -53
q69 44 157 53l46 -37q-19 -163 -62.5 -496t-70 -562t-29.5 -324q40 0 99.5 18.5t105.5 44.5zM903 1333q-125 49 -264 49q-78 0 -141 -18q-36 -84 -64 -354h336l47 6q21 192 86 317zM805 881l-119 10h-262l-80 -838q-18 -172 -70 -286q124 -43 248 -43q83 0 146 18
q41 81 53 250z" />
    <glyph glyph-name="f_h" unicode="fh" horiz-adv-x="1800" 
d="M1735 190l24 -86q-62 -56 -137 -89t-143 -33q-62 0 -100 29.5t-38 94.5q0 55 51.5 336.5t51.5 358.5q0 61 -25 90t-82 29q-5 0 -13.5 -1t-21 -2t-22.5 -2q-162 -207 -360 -915q-64 -18 -154 -18l-45 36l143 1368q-102 31 -209 31q-76 0 -133 -16q-31 -57 -50 -142
t-38 -249h207v-52l-16 -67h-203l-80 -838q-24 -258 -111.5 -373.5t-242.5 -115.5q-80 0 -159 28.5t-134 81.5l33 93q199 -70 333 -70q52 88 68 280l82 900l-143 16v90q48 16 157 37q61 522 441 522q123 0 223 -51q73 42 153 51l48 -37l-76 -585q-6 -61 -17 -137.5
t-18 -118.5t-23 -134t-18 -104l23 -6q42 132 74.5 222t66.5 166t65 120.5t68.5 75.5t78.5 43t93 12q116 0 179 -60t63 -184q0 -28 -3 -65t-10 -88t-13 -93t-18 -111t-18.5 -108t-21 -118t-19.5 -109q80 0 189 67z" />
    <glyph glyph-name="f_hbar" unicode="f&#x127;" horiz-adv-x="1800" 
d="M1735 190l24 -86q-62 -56 -137 -89t-143 -33q-62 0 -100 29.5t-38 94.5q0 55 51.5 336.5t51.5 358.5q0 61 -25 90t-82 29q-5 0 -13.5 -1t-21 -2t-22.5 -2q-162 -207 -360 -915q-64 -18 -154 -18l-45 36l143 1368q-102 31 -209 31q-76 0 -133 -16q-31 -57 -50 -142
t-38 -249h207v-52l-16 -67h-203l-80 -838q-24 -258 -111.5 -373.5t-242.5 -115.5q-80 0 -159 28.5t-134 81.5l33 93q199 -70 333 -70q52 88 68 280l82 900l-143 16v90q48 16 157 37q61 522 441 522q123 0 223 -51q73 42 153 51l48 -37l-19 -139h279v-49l-15 -62h-278
l-43 -335q-6 -61 -17 -137.5t-18 -118.5t-23 -134t-18 -104l23 -6q42 132 74.5 222t66.5 166t65 120.5t68.5 75.5t78.5 43t93 12q116 0 179 -60t63 -184q0 -28 -3 -65t-10 -88t-13 -93t-18 -111t-18.5 -108t-21 -118t-19.5 -109q80 0 189 67z" />
    <glyph glyph-name="f_i" unicode="fi" horiz-adv-x="1161" 
d="M1112 190l23 -86q-132 -122 -269 -122q-139 0 -139 129q0 118 90 780h-393l-80 -838q-26 -258 -113.5 -373.5t-242.5 -115.5q-80 0 -159 28.5t-134 81.5l33 93q199 -70 333 -70q52 88 68 280l84 897l-145 19v90q46 16 159 37q35 272 158 397t338 125q272 0 340 -184
l-98 -125l-273 194q-93 3 -164 -24q-67 -150 -92 -393h316q128 32 239 41l47 -37q-12 -105 -106 -891q73 0 180 67z" />
    <glyph glyph-name="f_icircumflex" unicode="f&#xee;" horiz-adv-x="1161" 
d="M932 123q75 0 178 67l25 -86q-132 -122 -271 -122q-137 0 -137 129q0 118 90 780h-393l-80 -838q-26 -258 -113.5 -373.5t-242.5 -115.5q-80 0 -159 28.5t-134 81.5l33 93q199 -70 333 -70q52 88 68 280l84 897l-145 19v90q46 16 159 37q21 192 75.5 305t138 159
t212.5 46q140 0 244 -49l57 88h127l129 -320l-143 -65l-104 194h-21l-129 -188h-106l131 201q-70 12 -158 12q-94 0 -182 -21q-40 -94 -62 -372h316q128 32 239 41l45 -37q-14 -140 -104 -891z" />
    <glyph glyph-name="f_imacron" unicode="f&#x12b;" horiz-adv-x="1163" 
d="M1169 1272h-432q-4 12 -4 41q0 41 10 80q-50 4 -81 4q-80 0 -164 -17q-39 -93 -62 -370h318q123 32 239 41l45 -37q-7 -65 -48 -411t-56 -480q75 0 178 67l25 -86q-135 -122 -271 -122q-139 0 -139 129q0 118 90 780h-393l-80 -838q-26 -258 -113.5 -373.5t-242.5 -115.5
q-80 0 -159 28.5t-134 81.5l33 93q199 -70 333 -70q52 88 68 280l84 897l-145 19v90q46 16 159 37q16 145 53 245t93 155.5t123 79.5t155 24q195 0 310 -105h225q6 -12 6 -41q0 -59 -23 -106z" />
    <glyph glyph-name="f_iogonek" unicode="f&#x12f;" horiz-adv-x="1163" 
d="M965 -322q46 0 100 21l8 -78q-75 -57 -190 -57q-100 0 -150.5 44t-50.5 113q0 77 56 140t141 104l-5 21q-17 -3 -28 0q-119 7 -119 125t90 780h-393l-80 -838q-26 -258 -113.5 -373.5t-242.5 -115.5q-80 0 -159 28.5t-134 81.5l33 93q199 -70 333 -70q52 88 68 280
l84 897l-145 19v90q46 16 159 37q35 272 158 397t338 125q274 0 342 -184l-96 -125l-275 194q-95 3 -166 -24q-67 -150 -92 -393h318q123 32 239 41l45 -37q-7 -65 -48 -411t-56 -480q75 0 178 67l25 -86q-44 -32 -64 -47t-60 -47t-60.5 -55t-45 -54t-35 -62t-10.5 -62
q0 -49 27.5 -74t75.5 -25z" />
    <glyph glyph-name="f_j" unicode="fj" horiz-adv-x="1136" 
d="M436 1012l316 -2q128 32 239 41l45 -37l-116 -983q-29 -240 -117 -352.5t-236 -112.5q-116 0 -196 74l37 92q144 -33 227 -33q51 89 74 278l108 914l-393 2l-80 -838q-26 -258 -113.5 -373.5t-242.5 -115.5q-80 0 -159 28t-134 80l33 95q198 -70 333 -72q52 88 68 283
l84 897l-145 16v90q46 16 159 37q33 273 156.5 398.5t339.5 125.5q269 0 340 -184l-98 -127l-273 197q-93 3 -164 -27q-67 -150 -92 -391z" />
    <glyph glyph-name="f_k" unicode="fk" horiz-adv-x="1775" 
d="M1681 186l25 -86q-57 -55 -127 -87.5t-139 -32.5q-46 0 -79 14.5t-55 47t-35.5 66t-29.5 89.5q-47 150 -51 258l113 30q70 69 113.5 157.5t43.5 166.5q0 58 -27.5 83.5t-91.5 25.5q-6 0 -14.5 -1t-21.5 -2t-21 -2q-165 -209 -364 -915q-64 -18 -154 -18l-45 38l143 1368
q-102 31 -209 31q-76 0 -133 -16q-31 -57 -50 -142t-38 -249h207v-52l-16 -67h-203l-80 -838q-24 -258 -111.5 -373.5t-242.5 -115.5q-80 0 -159 28.5t-134 81.5l33 93q199 -70 333 -70q52 88 68 280l82 900l-143 16v90q48 16 157 37q61 522 441 522q123 0 223 -51
q73 42 153 51l48 -37l-76 -585q-6 -61 -17 -137.5t-18 -118.5t-23 -134t-18 -104l23 -6q52 163 92 268t80 181.5t82.5 115.5t89.5 56.5t112 17.5q125 0 198 -58.5t73 -179.5q0 -136 -86.5 -239.5t-221.5 -151.5q71 -211 123 -307q83 8 178 63z" />
    <glyph glyph-name="f_l" unicode="fl" horiz-adv-x="1191" 
d="M1139 186l24 -86q-59 -53 -136 -85.5t-146 -32.5q-150 0 -150 151q0 26 4 77t12.5 133.5t17 159t23.5 202t25.5 211t28.5 236.5t28 232q-95 33 -215 33q-76 0 -133 -16q-31 -57 -50 -142t-38 -249h207v-52l-16 -67h-203l-80 -838q-24 -258 -111.5 -373.5t-242.5 -115.5
q-80 0 -159 28.5t-134 81.5l33 93q199 -70 333 -70q52 88 68 280l82 900l-143 16v90q48 16 157 37q61 522 441 522q128 0 227 -55q66 46 158 55l45 -37q-17 -139 -62.5 -490t-71 -573.5t-28.5 -318.5q40 0 99.5 18.5t105.5 44.5z" />
    <glyph glyph-name="f_lacute" unicode="f&#x13a;" horiz-adv-x="1191" 
d="M1085 1536h-114l145 299h94q69 -41 95 -117zM938 123q40 0 99.5 18.5t105.5 44.5l24 -86q-59 -53 -136 -85.5t-146 -32.5q-150 0 -150 151q0 55 18 218.5t55.5 471.5t57.5 482q-103 36 -229 36q-76 0 -133 -16q-27 -53 -41 -122.5t-27 -192.5h207v-52l-16 -67h-203
l-80 -838q-26 -258 -113.5 -373.5t-242.5 -115.5q-80 0 -159 28.5t-134 81.5l33 93q199 -70 333 -70q52 88 68 280l84 900l-143 16v90q48 16 157 37q28 216 133.5 331t288.5 115q127 0 236 -61q60 42 159 51l46 -37q-19 -166 -59.5 -475.5t-65 -517.5t-27.5 -303z" />
    <glyph glyph-name="f_lcaron" unicode="f&#x13e;" horiz-adv-x="1351" 
d="M1143 186l24 -86q-59 -53 -136 -85.5t-146 -32.5q-150 0 -150 151q0 26 4 77t12.5 133.5t17 159t23.5 202t25.5 211t28.5 236.5t28 232q-95 33 -215 33q-76 0 -133 -16q-31 -57 -50 -142t-38 -249h207v-52l-16 -67h-203l-80 -838q-24 -258 -111.5 -373.5t-242.5 -115.5
q-80 0 -159 28.5t-134 81.5l33 93q199 -70 334 -70q51 86 67 280l82 900l-143 16v90q48 16 157 37q61 522 441 522q128 0 227 -55q66 46 158 55l45 -37q-17 -139 -62.5 -490t-71 -573.5t-28.5 -318.5q40 0 99.5 18.5t105.5 44.5zM1335 1542q63 0 125 -35
q-11 -126 -50.5 -225.5t-123.5 -202.5h-84l64 256v197q22 10 69 10z" />
    <glyph glyph-name="uni021A_h" unicode="&#x21a;h" horiz-adv-x="2156" 
d="M2091 190l25 -86q-62 -56 -137.5 -89t-143.5 -33q-62 0 -99.5 29.5t-37.5 94.5q0 55 51 336.5t51 358.5q0 61 -24.5 90t-81.5 29q-27 0 -58 -5q-162 -205 -360 -915q-64 -18 -154 -18l-45 36l137 1278q-34 -40 -96.5 -56.5t-124.5 -16.5q-27 0 -62 3t-91 9t-76 8
l-100 -1132l153 -13v-45l-8 -53h-553v92q87 34 186 41l103 1120h-217l-74 -235l-125 10q-4 58 -4 88q0 137 47 277h2l41 2l451 -33h276q174 0 283 45l12 109q91 23 164 26l47 -37l-74 -581q-15 -150 -80 -498l23 -6q42 132 74.5 222t66.5 166t65 120.5t68.5 75.5t78.5 43
t93 12q116 0 179 -60t63 -184q0 -22 -2 -49.5t-6 -63.5t-8 -68t-11.5 -80t-13 -80.5t-15.5 -89t-15 -86t-16 -90.5t-15 -85q79 0 188 67zM508 -106q58 0 106 -25q23 -30 23 -94q0 -103 -57.5 -177.5t-167.5 -101.5l-25 58q59 31 88 62.5t29 80.5v24l-80 11l10 153q38 9 74 9
z" />
    <glyph glyph-name="uni030A_acutecomb" unicode="&#x30a;&#x301;" horiz-adv-x="2" 
d="M-92 1878h88q63 -45 86 -102l-244 -191h-104zM-211 1522q94 0 144.5 -45t50.5 -131q0 -102 -66 -160t-176 -58q-96 0 -147.5 45.5t-51.5 131.5q0 101 67.5 159t178.5 58zM-223 1432q-28 0 -51 -13q-35 -47 -35 -116q0 -84 61 -84q32 0 53 12q35 47 35 117q0 84 -63 84z
" />
    <glyph glyph-name=".notdef" horiz-adv-x="1419" 
d="M1280 1362l-125 -1362h-979l125 1362h979zM1135 1237h-652l561 -987zM324 125h649l-561 983z" />
    <glyph glyph-name=".null" horiz-adv-x="0" 
 />
    <glyph glyph-name="nonmarkingreturn" horiz-adv-x="682" 
 />
    <glyph glyph-name="CR" unicode="&#xd;" horiz-adv-x="512" 
 />
    <glyph glyph-name="space" unicode=" " horiz-adv-x="512" 
 />
    <glyph glyph-name="exclam" unicode="!" horiz-adv-x="550" 
d="M442 1389l39 -41q-23 -212 -66 -486.5t-91 -476.5h-123q10 167 35 969q113 35 206 35zM264 252q44 0 78 -12q23 -44 23 -86q0 -64 -54 -154h-170l-12 229q76 23 135 23z" />
    <glyph glyph-name="quotedbl" unicode="&#x22;" horiz-adv-x="849" 
d="M827 1473l-102 -451h-135v457q99 30 207 30zM477 1473l-102 -451h-135v457q99 30 206 30z" />
    <glyph glyph-name="numbersign" unicode="#" horiz-adv-x="1069" 
d="M852 768l-57 -326h180v-163l-215 -31l-47 -275h-95l-30 31l45 252h-295l-49 -283h-96l-29 31l43 252h-150v162l185 31l55 325h-176v164l211 31l47 276h98l27 -31l-43 -253h295l49 284h94l31 -31l-45 -253h149v-162zM664 442l59 332h-295l-57 -332h293z" />
    <glyph glyph-name="dollar" unicode="$" horiz-adv-x="985" 
d="M557 717l8 -6q71 -43 112 -70.5t83.5 -63.5t63.5 -69t34.5 -75.5t13.5 -94.5q0 -63 -18 -116t-59 -99.5t-116.5 -75.5t-180.5 -35l-15 -268l-104 -14l-23 16l27 266q-168 10 -295 74q-12 74 -12 141q0 83 12 174l137 11l58 -265q56 -15 110 -18l41 406q-138 84 -203 162
t-65 192q0 137 88.5 223t237.5 98l14 265l104 14l23 -16l-27 -265q62 -9 111 -30l2 18q64 18 121 18l47 -32q4 -28 4 -60q0 -122 -35 -276h-129l-16 237q-60 12 -115 15zM362 930q0 -52 23 -85.5t84 -74.5l16 320q-33 -7 -51 -15q-72 -47 -72 -145zM606 158q56 49 56 143
q0 63 -27 96.5t-113 85.5l-18 -354q64 7 102 29z" />
    <glyph glyph-name="percent" unicode="%" horiz-adv-x="1669" 
d="M1366 1241l8 -37q-444 -518 -899 -1249l-100 47l-15 39q198 280 433 593t370 464l-2 -2l-16 16q-73 -70 -144 -96.5t-153 -26.5q-72 0 -146 19q9 -46 9 -95q0 -55 -10 -110t-35 -112t-62.5 -100.5t-98 -71t-136.5 -27.5q-136 0 -202.5 83t-66.5 222q0 174 84.5 300.5
t214.5 151.5l35 -69q-75 -41 -119.5 -145t-44.5 -249q0 -106 28 -154t91 -48q43 0 80 16q48 48 72 157.5t24 203.5q0 67 -16 133q-46 43 -72 88q34 52 78 73l2 -2v2h41q40 -57 66 -112q89 -47 202 -47q92 0 189 41.5t215 146.5v-2l2 2zM1317 727q136 0 204 -83t68 -220
q0 -58 -11.5 -117t-39 -120t-68 -108t-104.5 -76.5t-143 -29.5q-135 0 -203 82.5t-68 218.5q0 58 11.5 118t39 121t68 108t104.5 76.5t142 29.5zM1321 82q49 50 72.5 158.5t23.5 205.5q0 189 -119 189q-34 0 -81 -14q-48 -53 -71.5 -161t-23.5 -204q0 -98 29.5 -144
t89.5 -46q40 0 80 16z" />
    <glyph glyph-name="ampersand" unicode="&#x26;" horiz-adv-x="1427" 
d="M1380 645h-198q-12 -222 -207 -420q170 -167 366 -301l-49 -94q-219 26 -475 264q-172 -121 -377 -121q-87 0 -157.5 19.5t-125 59t-84.5 105.5t-30 154q0 151 91 249.5t263 137.5q-65 168 -65 299q0 95 33.5 171.5t90 123.5t127 72t148.5 25q128 0 204.5 -67t76.5 -185
q0 -134 -99 -259t-280 -190q93 -208 291 -412q51 93 74.5 201.5t23.5 263.5q174 49 324 52l34 -41v-107zM616 1257q-61 -82 -61 -237q0 -127 49 -260q219 159 219 373q0 77 -25.5 111t-82.5 34q-53 0 -99 -21zM266 346q0 -123 72 -187.5t184 -64.5q119 0 236 60
q-213 219 -330 475q-162 -110 -162 -283z" />
    <glyph glyph-name="quotesingle" unicode="'" horiz-adv-x="499" 
d="M477 1473l-102 -451h-135v457q99 30 206 30z" />
    <glyph glyph-name="parenleft" unicode="(" horiz-adv-x="612" 
d="M502 1546l76 -43q-279 -522 -279 -1124q0 -203 29 -369t92 -364l-82 -37q-110 158 -165.5 371t-55.5 436q0 126 19 263.5t60 291.5t120 306t186 269z" />
    <glyph glyph-name="parenright" unicode=")" horiz-adv-x="610" 
d="M207 1509l82 37q110 -158 165.5 -371t55.5 -436q0 -124 -20.5 -263t-63.5 -292.5t-121.5 -305.5t-183.5 -269l-78 43q283 545 283 1124q0 204 -28.5 370.5t-90.5 362.5z" />
    <glyph glyph-name="asterisk" unicode="*" horiz-adv-x="960" 
d="M635 1604l53 -9q2 -14 2 -36q0 -104 -76 -267h-88q-28 114 -28 193q0 57 18 119h119zM195 1360l28 47q41 -4 72 -14q81 -26 201 -121l-33 -82q-149 -4 -244 24q-40 16 -65 31zM969 1300l6 -55q-41 -23 -72 -31q-77 -28 -244 -28l-20 82q136 96 223 123q37 11 74 14z
M465 1155l65 -51q-49 -137 -118 -221q-25 -31 -56 -56l-92 60l-37 39q10 21 43 67q51 64 195 162zM567 1102l74 53q123 -90 170 -162q19 -29 33 -65l-99 -76l-49 -25q-31 24 -47 54q-39 58 -82 221z" />
    <glyph glyph-name="plus" unicode="+" 
d="M1100 674v-45l-13 -92h-374l-51 -420h-111l-43 16l49 404h-375v45l13 92h378l50 418h106l47 -17l-47 -401h371z" />
    <glyph glyph-name="comma" unicode="," horiz-adv-x="483" 
d="M195 246q75 0 122 -31q27 -52 27 -133q1 -46 -7 -90.5t-31.5 -96t-61 -94.5t-101.5 -81t-147 -60l-27 68q94 43 159 107t65 136v27l-97 14l15 226q39 8 84 8z" />
    <glyph glyph-name="hyphen" unicode="-" horiz-adv-x="657" 
d="M573 631l-10 -101h-459v50l13 100h456v-49z" />
    <glyph glyph-name="period" unicode="." horiz-adv-x="483" 
d="M223 272q54 0 84 -12q23 -44 23 -90q0 -77 -56 -170h-178l-12 250q73 22 139 22z" />
    <glyph glyph-name="slash" unicode="/" horiz-adv-x="604" 
d="M666 1450l-588 -1823h-107l-24 25l585 1823h109z" />
    <glyph glyph-name="zero" unicode="0" horiz-adv-x="1134" 
d="M653 1247q104 0 182.5 -39t125 -108.5t69.5 -159.5t23 -199q0 -81 -12.5 -165t-38 -172t-70 -164t-103 -136.5t-142 -95.5t-181.5 -35q-103 0 -181 38.5t-125.5 108t-71.5 160.5t-24 201q0 98 17.5 198.5t59 204t102.5 183t157 130t213 50.5zM631 1137q-63 0 -123 -29
q-59 -61 -100.5 -189.5t-58.5 -257.5t-17 -247q0 -169 48 -249.5t150 -80.5q67 0 123 29q59 60 100.5 190t57.5 258t16 246q0 168 -47 249t-149 81z" />
    <glyph glyph-name="one" unicode="1" horiz-adv-x="745" 
d="M647 94v-45l-6 -49h-604v92q113 36 215 39l86 852q-83 -25 -215 -29v56l8 65q89 5 183 47t163 125l90 -22l-110 -1116z" />
    <glyph glyph-name="two" unicode="2" horiz-adv-x="940" 
d="M702 295l119 -10q8 -74 8 -107q0 -129 -47 -215h-114q-118 2 -272 22t-246 52l-93 -68q-46 13 -84 43l-2 33l33 27q61 50 93.5 77t93.5 79.5t97 87t89 87.5t84.5 93.5t68.5 93t57 97.5t34 95.5t14 98.5q0 105 -55 153.5t-138 48.5q-82 0 -135 -48.5t-53 -141.5
q0 -53 16 -113l-90 -30q-43 44 -62.5 86t-19.5 94q0 136 111.5 227.5t279.5 91.5q167 0 272 -94.5t105 -245.5q0 -93 -43 -191t-124.5 -195t-183.5 -189t-236 -191h383z" />
    <glyph glyph-name="three" unicode="3" horiz-adv-x="978" 
d="M627 580v-21q217 -72 217 -297q0 -189 -133.5 -310.5t-356.5 -121.5q-162 0 -309 66l14 92q99 -15 177 -15q378 0 378 293q0 80 -33 134.5t-116 86.5q-79 -28 -158 -38l-33 26q-8 24 -8 60q0 32 6 53q24 18 134 18q23 0 55 -4q190 110 190 291q0 100 -56 147t-140 47
q-102 0 -153.5 -60.5t-51.5 -143.5q0 -25 2 -41l-96 -8q-43 70 -43 135q0 113 105.5 196.5t279.5 83.5q179 0 280 -92.5t101 -245.5q0 -70 -21.5 -126.5t-60 -95t-79 -63.5t-91.5 -46z" />
    <glyph glyph-name="four" unicode="4" horiz-adv-x="1007" 
d="M938 315v-51l-12 -90h-166q-15 -134 -29 -317h-205q5 72 29 317h-494l-36 90q220 451 331 740l-49 202l172 49q88 -73 88 -172q0 -95 -84.5 -259.5t-298.5 -504.5l11 -18q177 14 219 14h155q19 145 45 328q75 44 164 59l43 -26q-24 -158 -47 -361h164z" />
    <glyph glyph-name="five" unicode="5" horiz-adv-x="937" 
d="M545 1010q-114 0 -226 49l-57 -365q70 4 96 4q228 0 350.5 -111.5t122.5 -299.5q0 -197 -130.5 -327t-344.5 -130q-165 0 -303 66l17 104q94 -12 168 -12q364 0 364 299q0 61 -16.5 104.5t-49 74t-89.5 51.5t-127.5 34.5t-174.5 23.5l76 648l125 26q112 -49 229 -49
q131 0 273 49l24 -82q-134 -157 -327 -157z" />
    <glyph glyph-name="six" unicode="6" horiz-adv-x="1099" 
d="M831 1393q77 0 170 -21l3 -90q-150 0 -267.5 -46.5t-192.5 -124.5t-123.5 -189.5t-68 -233t-18.5 -262.5q1 -34 2 -60.5t6 -64t13 -65.5t23.5 -58t36 -49.5t51 -32t69.5 -12.5q52 0 116 25q65 56 98 153t33 207q0 125 -41 177t-116 52q-60 0 -160 -39l-14 84
q104 109 254 109q139 0 222 -89.5t83 -258.5q0 -146 -63 -267t-180.5 -192.5t-266.5 -71.5q-70 0 -127.5 18t-97.5 48t-71 72.5t-49 87.5t-29.5 97.5t-15.5 98.5t-4 94q0 134 29 263t89 245t144.5 204.5t204 140t258.5 51.5z" />
    <glyph glyph-name="seven" unicode="7" horiz-adv-x="962" 
d="M1012 1200l6 -31q-272 -380 -414 -648.5t-188 -416.5l24 -227l-159 -49q-48 17 -77.5 65t-29.5 109q-1 150 154.5 397.5t468.5 642.5h-500l-43 -159h-119q-10 62 -10 125q0 140 39 235q183 0 387 -20.5t313 -55.5l54 72q47 -9 94 -39z" />
    <glyph glyph-name="eight" unicode="8" horiz-adv-x="1071" 
d="M715 731v-22q50 -33 78 -53t62.5 -52t52 -61t30 -69.5t12.5 -88.5q0 -58 -14.5 -113t-50 -110t-88 -96.5t-135 -67t-185.5 -25.5q-185 0 -290 80.5t-105 237.5q0 145 84 245.5t205 147.5v23q-92 60 -142.5 129.5t-50.5 173.5q0 75 28 142t81 120.5t139.5 85t194.5 31.5
q167 0 269.5 -77t102.5 -225q0 -75 -27 -137t-72.5 -104.5t-87.5 -68.5t-91 -46zM485 1247q-36 -32 -57.5 -86t-21.5 -110q0 -77 44.5 -132t137.5 -116l28 -19q166 113 166 301q0 191 -164 191q-70 0 -133 -29zM635 115q39 35 63.5 98t24.5 125q0 44 -12 77.5t-44 66.5
t-71 61.5t-109 72.5l-24 19q-88 -62 -130 -149t-42 -185q0 -215 194 -215q84 0 150 29z" />
    <glyph glyph-name="nine" unicode="9" horiz-adv-x="1099" 
d="M623 1249q70 0 127.5 -18t97.5 -48t70.5 -72.5t48.5 -87.5t29.5 -97.5t15.5 -98.5t4 -94q0 -134 -28.5 -263t-88.5 -245t-144 -204t-203.5 -139.5t-258.5 -51.5q-85 0 -170 20l-2 91q150 0 266.5 46t191.5 123.5t123 188.5t67.5 232t18.5 262q0 39 -2 70.5t-8 73t-20 72
t-34.5 58t-55 42.5t-78.5 15q-62 0 -119 -24q-65 -55 -98 -152t-33 -209q3 -227 156 -227q65 0 161 47l15 -80q-103 -108 -252 -108q-141 0 -224 89.5t-83 258.5q0 146 63 266.5t180.5 192t266.5 71.5z" />
    <glyph glyph-name="colon" unicode=":" horiz-adv-x="483" 
d="M223 272q54 0 84 -12q23 -44 23 -90q0 -77 -56 -170h-178l-12 250q73 22 139 22zM301 1042q54 0 84 -12q23 -44 23 -90q0 -77 -56 -170h-178l-12 250q73 22 139 22z" />
    <glyph glyph-name="semicolon" unicode=";" horiz-adv-x="483" 
d="M195 246q75 0 122 -31q27 -52 27 -133q1 -46 -7 -90.5t-31.5 -96t-61 -94.5t-101.5 -81t-147 -60l-27 68q94 43 159 107t65 136v27l-97 14l15 226q39 8 84 8zM301 1042q54 0 84 -12q23 -44 23 -90q0 -77 -56 -170h-178l-12 250q73 22 139 22z" />
    <glyph glyph-name="less" unicode="&#x3c;" 
d="M1124 997l-721 -387v-22l619 -373l-68 -135l-766 432l21 182l866 430z" />
    <glyph glyph-name="equal" unicode="=" 
d="M1075 424l-12 -92h-905v45l12 92h905v-45zM1122 834l-12 -93h-905v45l12 93h905v-45z" />
    <glyph glyph-name="greater" unicode="&#x3e;" 
d="M1092 692l-21 -180l-864 -432l-51 127l723 389v22l-621 373l68 133z" />
    <glyph glyph-name="question" unicode="?" horiz-adv-x="688" 
d="M330 1376q96 0 167.5 -32.5t112 -89t59.5 -124t19 -145.5q0 -43 -6 -78t-27.5 -80.5t-58.5 -85t-102.5 -84t-155.5 -84.5l-27 -188h-129q-26 98 -26 168q0 39 8 68t19.5 49.5t41 42.5t55.5 37t80 43q130 67 176 112t46 119q0 9 -4 63q-139 84 -398 84l19 191
q75 14 131 14zM262 252q44 0 78 -12q22 -42 22 -86q0 -66 -53 -154h-170l-12 229q76 23 135 23z" />
    <glyph glyph-name="at" unicode="@" horiz-adv-x="1800" 
d="M1063 1430q333 0 509.5 -176.5t176.5 -479.5q0 -153 -46 -281t-122 -210t-170.5 -127t-193.5 -45q-130 0 -130 94q0 26 9 75t33.5 169.5t44.5 224.5l-23 2q-55 -179 -95.5 -284t-87.5 -175.5t-97 -95.5t-121 -25q-256 0 -256 318q0 88 17.5 177t56.5 174t94 150
t136 104.5t177 39.5q134 0 196 -70l13 53q50 17 149 17l41 -33l-94 -797q150 22 237 160t87 354q0 264 -136 418t-391 154q-156 0 -299.5 -58.5t-254.5 -164t-177.5 -266t-66.5 -351.5q0 -629 737 -629v-79q-114 -27 -205 -27q-119 0 -225 27t-197.5 85t-157.5 142.5
t-103.5 205.5t-37.5 267q0 205 73 383.5t200.5 306t309 200.5t390.5 73zM872 244q65 85 125 231t150 430q-74 41 -158 41q-52 0 -110 -16q-83 -94 -123.5 -236t-40.5 -286q0 -98 23.5 -133t86.5 -35q27 0 47 4z" />
    <glyph glyph-name="A" unicode="A" horiz-adv-x="1318" 
d="M1262 98v-45l-7 -53h-507v92q64 30 145 41l-59 262h-453q-51 -124 -111 -284l144 -13v-45l-6 -53h-422v92q65 33 147 41q243 590 502 1141l-21 94l45 37q108 0 172 -21q187 -846 299 -1275zM428 514h379q-59 270 -117 559h-22q-100 -216 -240 -559z" />
    <glyph glyph-name="B" unicode="B" horiz-adv-x="1206" 
d="M838 717v-21q131 -31 191.5 -99t60.5 -191q0 -64 -16 -121t-54.5 -110t-96.5 -91t-149.5 -61t-206.5 -23h-528v92q87 32 166 43l98 1102l-156 14v45l7 56q231 24 448 24q255 0 374.5 -81.5t119.5 -239.5q0 -120 -65 -208t-193 -130zM522 1257l-47 -497h256
q50 46 86.5 126.5t36.5 170.5q0 103 -56 151.5t-192 48.5h-84zM784 168q34 38 49 110t15 138q0 112 -56 171.5t-196 59.5h-131l-47 -528h141q151 0 225 49z" />
    <glyph glyph-name="C" unicode="C" horiz-adv-x="1212" 
d="M588 1223q-100 -69 -168 -259t-68 -403q0 -225 78 -323.5t236 -98.5q80 0 186 40t201 120l32 -92q-101 -110 -231.5 -172t-261.5 -62q-246 0 -368 155.5t-122 424.5q0 123 25.5 242t80 226.5t131.5 189t187 130t240 48.5q118 0 207 -52l2 33q74 19 125 19l49 -33
q4 -28 4 -60q0 -101 -37 -303h-133l-16 238q-95 31 -195 31q-93 0 -184 -39z" />
    <glyph glyph-name="D" unicode="D" horiz-adv-x="1339" 
d="M629 1376q144 0 254 -27t183.5 -76t120.5 -122.5t67 -160.5t20 -195q0 -75 -9.5 -149t-32.5 -154t-58 -150t-91 -134t-126.5 -109t-168.5 -72t-213 -27h-534v92q85 31 166 43l98 1102l-158 14v45l9 56q245 24 473 24zM848 193q93 103 135.5 269t42.5 353q0 225 -79.5 334
t-268.5 108h-150l-104 -1138h137q174 0 287 74z" />
    <glyph glyph-name="E" unicode="E" horiz-adv-x="1161" 
d="M520 1249l-43 -495l352 16l19 -43l-14 -104l-367 16l-49 -530h397l74 229l135 -12q4 -58 4 -88q0 -116 -49 -269l-41 -2l-629 33h-272v92q87 32 166 43l98 1102l-156 12v45l9 58q273 10 505 10h295q83 27 127 27l47 -27q5 -40 5 -64q0 -116 -35 -274h-131l-17 207z" />
    <glyph glyph-name="F" unicode="F" horiz-adv-x="1081" 
d="M1053 1389l47 -27q4 -32 4 -64q0 -116 -35 -274h-131l-16 209l-400 16l-49 -536l356 16l19 -43l-14 -104l-371 16l-43 -483l178 -13v-47l-6 -55h-555v92q80 36 166 43l98 1102l-156 12v45l9 58q273 10 505 10h267q83 27 127 27z" />
    <glyph glyph-name="G" unicode="G" horiz-adv-x="1290" 
d="M1214 600v-92q-46 -21 -92 -31l-41 -469l-49 -33q-71 0 -121 19l-10 59q-119 -80 -293 -80q-241 0 -374.5 155.5t-133.5 428.5q0 121 26 239t80.5 225.5t131.5 189t188 130t240 48.5q132 0 223 -50l2 31q74 19 125 19l49 -33q4 -28 4 -60q0 -107 -36 -303h-134l-16 240
q-101 29 -203 29q-98 0 -196 -39q-101 -73 -168.5 -267t-67.5 -417q0 -439 305 -439q131 0 242 60l16 327l-149 13v47l8 53h444z" />
    <glyph glyph-name="H" unicode="H" horiz-adv-x="1456" 
d="M1458 1362v-92q-76 -34 -168 -41l-102 -1118l160 -13v-45l-7 -53h-532v92q76 34 162 41l45 510h-545l-49 -532l151 -13v-45l-6 -53h-528v92q80 36 166 43l100 1116l-158 13v45l7 53h534v-92q-69 -29 -164 -41l-43 -467h547l43 489l-151 13v45l6 53h532z" />
    <glyph glyph-name="I" unicode="I" horiz-adv-x="690" 
d="M692 1362v-92q-76 -34 -168 -41l-102 -1118l160 -13v-45l-7 -53h-536v92q80 36 166 43l100 1116l-158 13v45l7 53h538z" />
    <glyph glyph-name="J" unicode="J" horiz-adv-x="913" 
d="M924 1362v-92q-79 -32 -170 -43l-92 -1002q-8 -89 -23 -156.5t-44 -127t-71.5 -98t-105.5 -60t-146 -21.5q-108 0 -201.5 35.5t-148.5 98.5l39 100q208 -78 406 -88q53 86 71 291l97 1050l-279 11v47l8 55h660z" />
    <glyph glyph-name="K" unicode="K" horiz-adv-x="1339" 
d="M1329 1362v-92q-64 -28 -149 -39q-180 -263 -379 -492q70 -180 149.5 -343t147.5 -265l135 6l8 -98q-99 -57 -205 -57q-70 0 -113 30t-77 88q-107 168 -197 529h-180l-47 -518l156 -13v-45l-9 -53h-530v92q80 36 166 43l100 1116l-158 13v45l7 53h538v-92
q-69 -29 -168 -41l-45 -490l195 13q185 236 344 499l-154 13v45l6 53h459z" />
    <glyph glyph-name="L" unicode="L" horiz-adv-x="1071" 
d="M850 338l135 -12q4 -58 4 -88q0 -116 -49 -269l-41 -2l-586 33h-274v92q87 32 166 43l100 1116l-158 13v45l7 53h555v-92q-91 -34 -185 -41l-102 -1120h354z" />
    <glyph glyph-name="M" unicode="M" horiz-adv-x="1746" 
d="M1724 1362v-92q-89 -36 -174 -43q-18 -580 -49 -1114l160 -15v-45l-6 -53h-529v92q72 30 154 41q61 685 78 1073h-21q-127 -286 -446 -1134q-68 -27 -133 -33l-39 10q-105 565 -238 1157h-20q-55 -393 -129 -1093l162 -15v-45l-7 -53h-462v92q66 29 165 41
q66 536 154 1104l-166 14v45l6 54q187 12 486 12q47 -189 106 -491.5t88 -516.5h23q197 589 381 1008h456z" />
    <glyph glyph-name="N" unicode="N" horiz-adv-x="1443" 
d="M1454 1362v-92q-76 -35 -170 -43l-113 -1223q-68 -20 -165 -27l-41 7l-379 839q-80 183 -148 377h-20l-70 -1087l162 -15v-45l-6 -53h-463v92q84 36 164 43l100 1100l-158 16v45l7 54q228 12 438 12l311 -690q77 -173 162 -398h22l54 975l-168 15v45l6 53h475z" />
    <glyph glyph-name="O" unicode="O" horiz-adv-x="1384" 
d="M793 1389q253 0 390.5 -157.5t137.5 -428.5q0 -121 -25.5 -238t-80.5 -224.5t-134.5 -189t-195.5 -130t-254 -48.5q-253 0 -391 157.5t-138 428.5q0 122 25 239t80 224.5t134.5 188.5t195.5 129.5t256 48.5zM768 1262q-89 0 -180 -39q-101 -70 -169.5 -263t-68.5 -419
q0 -441 305 -441q88 0 179 39q101 70 169 263t68 419q0 441 -303 441z" />
    <glyph glyph-name="P" unicode="P" horiz-adv-x="1142" 
d="M621 1370q143 0 242 -28.5t152.5 -82.5t76 -119.5t22.5 -152.5q0 -227 -120 -352t-318 -125q-32 0 -115 10v101q125 5 201 32q102 113 102 336q0 135 -51 201.5t-190 66.5h-101l-102 -1142l203 -13v-47l-7 -55h-579v92q64 29 166 41l98 1104l-156 12v45l9 58
q261 18 467 18z" />
    <glyph glyph-name="Q" unicode="Q" horiz-adv-x="1388" 
d="M793 1389q255 0 391.5 -158.5t136.5 -442.5q0 -136 -32 -266.5t-92 -241t-157 -185.5t-217 -93v-22q159 -110 295 -155.5t301 -45.5q76 0 172 8l11 -92q-108 -74 -291 -74q-90 0 -173 21t-146.5 54.5t-118.5 78t-91 88t-61 88.5v94q178 75 265 275t87 479
q0 103 -13.5 181t-45.5 144.5t-93.5 102t-150.5 35.5q-91 0 -182 -39q-100 -69 -168 -263t-68 -413q0 -192 65.5 -311.5t217.5 -167.5l-25 -95q-245 7 -376.5 165.5t-131.5 428.5q0 120 25.5 235t80.5 222t134 187.5t195.5 129t255.5 48.5z" />
    <glyph glyph-name="R" unicode="R" horiz-adv-x="1255" 
d="M1200 137l10 -98q-99 -57 -206 -57q-72 0 -114.5 30.5t-76.5 87.5q-95 152 -180 463h-174l-39 -452l164 -13v-45l-9 -53h-536v92q71 33 166 41l98 1104l-156 14v45l7 56q246 24 454 24q269 -1 390.5 -92t121.5 -266q0 -150 -80.5 -255.5t-216.5 -164.5q135 -315 244 -467
zM469 686h254q151 119 151 330q0 123 -61.5 179t-194.5 56h-100z" />
    <glyph glyph-name="S" unicode="S" horiz-adv-x="1054" 
d="M600 801l68 -43q63 -42 106 -77.5t86 -86t64.5 -113.5t21.5 -137t-23 -136.5t-74.5 -117t-147.5 -86t-228 -31.5q-213 0 -385 82q-14 80 -14 158q0 90 14 178l139 10l56 -272q80 -31 188 -31q122 0 178 35q62 59 62 164q0 48 -12.5 85.5t-41.5 69.5t-57 53.5t-78 53.5
l-69 47q-139 92 -208 189t-69 219q0 167 113.5 271t296.5 104q117 0 213 -54l4 35q74 19 125 19l49 -33q4 -28 4 -60q0 -110 -37 -280h-133l-16 219q-95 29 -185 29q-81 0 -137 -23q-80 -59 -80 -168q0 -36 11 -69t27 -57.5t46.5 -52t55.5 -46t67 -47.5z" />
    <glyph glyph-name="T" unicode="T" horiz-adv-x="1142" 
d="M1124 1389l47 -27q5 -40 5 -64q0 -116 -35 -274h-131l-17 209l-227 14l-102 -1136l172 -13v-45l-7 -53h-573v92q87 34 186 41l103 1120h-217l-74 -235l-125 10q-4 58 -4 88q0 137 47 277h2l41 2l451 -33h331q83 27 127 27z" />
    <glyph glyph-name="U" unicode="U" horiz-adv-x="1353" 
d="M1395 1362v-92q-64 -34 -172 -43q-39 -579 -64 -770q-66 -484 -510 -484q-219 0 -330.5 114t-111.5 335q0 155 69 829l-157 13v45l6 53h537v-92q-72 -31 -164 -41q-72 -693 -72 -830q0 -160 61.5 -231.5t198.5 -71.5q115 0 207 47q99 96 123 328q41 362 63 778l-151 15
v45l6 53h461z" />
    <glyph glyph-name="V" unicode="V" horiz-adv-x="1292" 
d="M1346 1362v-92q-52 -25 -123 -39q-86 -260 -232.5 -616t-265.5 -611q-76 -22 -166 -22l-51 32q-86 351 -283 1239l-129 11v45l6 53h506v-92q-65 -30 -143 -41q173 -869 205 -1039h22q268 638 387 1059l-161 15v45l6 53h422z" />
    <glyph glyph-name="W" unicode="W" horiz-adv-x="1982" 
d="M2028 1362v-92q-52 -25 -123 -39q-83 -264 -223.5 -623.5t-251.5 -603.5q-73 -22 -166 -22l-50 32q-89 430 -155 844h-23q-107 -348 -329 -854q-76 -22 -166 -22l-52 32q-34 150 -77.5 366t-97 491.5t-74.5 381.5l-127 11v45l6 53h506v-92q-69 -34 -148 -41
q141 -847 176 -1039h21q122 286 323 887l-34 178l-91 9v45l7 53h473v-92q-69 -35 -150 -43q149 -894 174 -1037h23q89 225 194 528t166 533l-160 13v45l7 53h422z" />
    <glyph glyph-name="X" unicode="X" horiz-adv-x="1331" 
d="M1219 1229q-216 -300 -394 -514q189 -366 299 -606l127 -11v-45l-6 -53h-553v92q84 34 166 41q-136 316 -207 447h-24q-111 -147 -326 -467l152 -15v-45l-7 -53h-438v92q61 30 139 41q144 195 431 547q-188 356 -283 571l-139 13v45l6 53h553v-92q-65 -15 -154 -37
q76 -188 189 -420h22q113 158 289 438l-148 13v45l7 53h421v-92q-57 -28 -122 -41z" />
    <glyph glyph-name="Y" unicode="Y" horiz-adv-x="1269" 
d="M1174 1227q-147 -322 -418 -742l-35 -374l170 -13v-45l-8 -53h-568v92q76 32 187 41l30 344q-162 455 -301 774l-135 13v45l6 53h525v-92q-64 -29 -158 -41q145 -377 223 -615h21q214 349 325 635l-147 15v45l6 53h426v-92q-75 -37 -149 -43z" />
    <glyph glyph-name="Z" unicode="Z" horiz-adv-x="1136" 
d="M913 338l136 -12q4 -58 4 -88q0 -116 -49 -269l-41 -2l-703 33l-197 -2l-14 65q285 432 464.5 698t213.5 313t121 165l-6 16l-523 -22l-34 -209h-131q-15 105 -15 201q0 81 15 137l49 27q40 0 123 -27h786l16 -64q-388 -594 -539.5 -816.5t-256.5 -358.5l8 -14h500z" />
    <glyph glyph-name="bracketleft" unicode="[" horiz-adv-x="610" 
d="M598 1411l-207 -10l2 -144q-12 -742 -139 -1501l197 -10l-7 -106h-284l-49 47l155 1829h332v-105z" />
    <glyph glyph-name="backslash" unicode="\" horiz-adv-x="931" 
d="M739 -373l-587 1823l24 25h109l585 -1823l-24 -25h-107z" />
    <glyph glyph-name="bracketright" unicode="]" horiz-adv-x="610" 
d="M516 1468l-156 -1828h-333v104l206 10q0 16 -0.5 45.5t-0.5 53.5t1 45q11 736 140 1501l-199 10l6 107h287z" />
    <glyph glyph-name="asciicircum" unicode="^" horiz-adv-x="880" 
d="M889 1034l-131 -78l-238 353h-20l-279 -353l-112 78l362 471h166z" />
    <glyph glyph-name="underscore" unicode="_" horiz-adv-x="835" 
d="M678 -209l-8 -78h-680v39l8 78h680v-39z" />
    <glyph glyph-name="grave" unicode="`" horiz-adv-x="499" 
d="M514 1174h-106l-238 292q55 86 129 117h94z" />
    <glyph glyph-name="a" unicode="a" horiz-adv-x="1150" 
d="M1100 190l24 -86q-62 -56 -136.5 -89t-141.5 -33q-125 0 -125 110q0 31 9.5 86t37.5 195t49 250l-22 4q-63 -204 -111 -325.5t-101.5 -198t-108.5 -103.5t-134 -27q-129 0 -198.5 79.5t-69.5 271.5q0 83 13.5 167t40 167t70 155t99.5 127.5t133.5 87t167.5 31.5
q148 0 223 -78l12 59q50 19 144 19l45 -37l-107 -899q84 0 187 67zM467 121q72 89 147.5 270t178.5 508q-87 49 -185 49q-64 0 -123 -18q-93 -105 -139.5 -276.5t-46.5 -342.5q0 -111 25 -153.5t86 -42.5q22 0 57 6z" />
    <glyph glyph-name="b" unicode="b" horiz-adv-x="1128" 
d="M786 1059q64 0 111 -16.5t84.5 -56t56.5 -110.5t19 -174q0 -100 -17.5 -198t-59.5 -195.5t-105 -170.5t-161 -119t-220 -46q-84 0 -194 19.5t-194 46.5l144 1339l-127 29l10 88q145 41 297 47l45 -37l-76 -585q-30 -210 -88 -510l23 -7q50 164 89.5 271.5t79 186.5
t82.5 120t90 59.5t111 18.5zM641 102q93 105 139.5 277t46.5 342q0 113 -24 156t-86 43q-3 0 -53 -5q-72 -89 -147.5 -270t-188.5 -528q97 -33 186 -33q53 0 127 18z" />
    <glyph glyph-name="c" unicode="c" horiz-adv-x="905" 
d="M473 133q63 0 143 33.5t162 101.5l31 -90q-86 -98 -191 -151.5t-217 -53.5q-86 0 -152 33.5t-105 93t-58.5 135t-19.5 164.5q0 86 17 173.5t57 176t98.5 156.5t150 111t203.5 43q96 0 169 -35t95 -111l-88 -118l-248 151q-34 -5 -74 -22q-52 -50 -88 -144.5t-49.5 -185.5
t-13.5 -176q0 -285 178 -285z" />
    <glyph glyph-name="d" unicode="d" horiz-adv-x="1150" 
d="M1100 190l24 -86q-62 -56 -136.5 -89t-141.5 -33q-125 0 -125 110q0 31 9.5 86t37.5 195t49 250l-22 6q-51 -164 -90.5 -271t-79.5 -186t-82.5 -120.5t-89.5 -60t-111 -18.5q-130 0 -200 79t-70 272q0 100 18 200t59.5 197.5t101 172t149.5 120t198 45.5q139 0 217 -60
l39 379l-127 29l8 88q142 40 299 47l43 -37l-164 -1382q84 0 187 67zM469 121q134 174 328 788q-97 39 -187 39q-67 0 -123 -18q-93 -105 -140.5 -277t-47.5 -342q0 -111 25 -153.5t86 -42.5q24 0 59 6z" />
    <glyph glyph-name="e" unicode="e" horiz-adv-x="944" 
d="M479 131q70 0 158 40.5t172 113.5l31 -88q-91 -107 -202 -165.5t-232 -58.5q-87 0 -153.5 32.5t-106.5 91t-60 134t-20 166.5q0 87 16.5 175t56.5 177t99 157t151 110.5t205 42.5q150 0 225.5 -69.5t75.5 -186.5q0 -76 -33.5 -137.5t-90 -102t-134.5 -67.5t-164.5 -38
t-181.5 -9v-37q0 -145 50 -213t138 -68zM446 924q-60 -56 -97.5 -166t-49.5 -230q195 20 285 88.5t90 196.5q0 66 -26 100.5t-89 34.5q-61 0 -113 -24z" />
    <glyph glyph-name="f" unicode="f" horiz-adv-x="600" 
d="M864 1311l-317 80q-37 -9 -64 -27q-35 -127 -49 -354h219v-52l-16 -67h-213l-80 -838q-26 -258 -113.5 -373.5t-242.5 -115.5q-80 0 -159 28.5t-134 81.5l33 93q199 -70 333 -70q52 88 68 280l82 900l-143 16v90q43 16 157 37q16 126 52.5 222t81.5 151.5t104 90.5
t111.5 46.5t111.5 11.5q146 0 225 -82z" />
    <glyph glyph-name="g" unicode="g" horiz-adv-x="1007" 
d="M399 215l187 -57q72 -22 115 -37t87 -36t67 -43.5t37.5 -53.5t14.5 -70q0 -53 -23 -104t-71.5 -96.5t-116 -79.5t-163.5 -54t-207 -20q-184 0 -278.5 54t-94.5 157q0 55 26.5 103.5t73.5 85.5t100 64.5t117 49.5q-32 35 -32 88q0 94 96 190q-115 26 -175.5 101t-60.5 188
q0 172 127 293t320 121q128 0 219 -62q53 224 213 224l59 -134l-219 -137q80 -86 80 -213q0 -72 -28.5 -140.5t-82.5 -125t-141.5 -91t-195.5 -34.5h-35zM418 926q-43 -35 -72 -116.5t-29 -168.5q0 -100 44 -143t110 -43q59 0 111 20q40 37 70 120.5t30 170.5
q0 98 -42.5 140t-109.5 42q-52 0 -112 -22zM680 -254q41 41 41 86q0 33 -20.5 54.5t-73.5 39.5l-236 82q-43 15 -72 31q-161 -118 -161 -219q0 -69 58.5 -107.5t166.5 -38.5q78 0 159 18.5t138 53.5z" />
    <glyph glyph-name="h" unicode="h" horiz-adv-x="1183" 
d="M1118 190l25 -86q-62 -56 -137.5 -89t-143.5 -33q-62 0 -99.5 29.5t-37.5 94.5q0 55 51 336.5t51 358.5q0 61 -24.5 90t-81.5 29q-5 0 -13.5 -1t-21 -2t-22.5 -2q-164 -209 -361 -915q-65 -18 -153 -18l-46 36l148 1360l-129 29l10 88q127 36 297 47l45 -37l-74 -585
q-36 -281 -79 -494l22 -6q51 159 89 260.5t77.5 180t81 119t89 60t110.5 19.5q241 0 241 -244q0 -22 -2 -49.5t-6 -63.5t-8 -68t-11.5 -80t-13 -80.5t-15.5 -89t-15 -86t-16 -90.5t-15 -85q79 0 188 67z" />
    <glyph glyph-name="i" unicode="i" horiz-adv-x="567" 
d="M397 1051l45 -37l-106 -891q77 0 180 67l25 -86q-135 -122 -271 -122q-139 0 -139 129q0 121 90 776l-153 6v90q156 55 329 68zM399 1501q47 0 72 -10q23 -44 23 -84q0 -62 -52 -154h-168l-12 226q73 22 137 22z" />
    <glyph glyph-name="j" unicode="j" horiz-adv-x="542" 
d="M442 1014l-118 -985q-27 -240 -115.5 -352.5t-237.5 -112.5q-140 0 -227 84l31 94q5 -1 31 -8t36.5 -9t35 -8t40.5 -8.5t38.5 -5.5t43 -4.5t41.5 -1.5q56 92 72 278l106 912l-151 6v90q155 54 329 68zM369 1501q46 0 71 -10q23 -44 23 -84q0 -64 -51 -154h-168l-13 226
q73 22 138 22z" />
    <glyph glyph-name="k" unicode="k" horiz-adv-x="1159" 
d="M1065 188l25 -86q-57 -55 -127.5 -87.5t-139.5 -32.5q-46 0 -78.5 14t-54.5 46t-35.5 65.5t-29.5 91.5q-48 154 -52 258l113 30q70 69 114 157.5t44 166.5q0 58 -27.5 83.5t-91.5 25.5q-6 0 -14.5 -1t-21.5 -2t-21 -2q-165 -209 -365 -915q-65 -18 -153 -18l-46 36
l146 1360l-127 29l10 88q139 40 295 47l45 -37l-74 -585q-37 -293 -77 -494l22 -6q64 203 112 322t101.5 193t108 99t133.5 25q124 0 198 -58t74 -180q0 -135 -86 -238t-221 -153q69 -206 123 -305q83 8 178 63z" />
    <glyph glyph-name="l" unicode="l" horiz-adv-x="573" 
d="M432 1542l45 -37q-19 -163 -62.5 -496t-70 -562t-29.5 -324q40 0 99.5 18.5t105.5 44.5l25 -86q-59 -53 -136.5 -85.5t-146.5 -32.5q-149 0 -149 149q0 57 19.5 230t62.5 518.5t61 498.5l-133 29l10 88q139 40 299 47z" />
    <glyph glyph-name="m" unicode="m" horiz-adv-x="1828" 
d="M1763 190l25 -86q-63 -56 -136 -89t-141 -33q-139 0 -139 124q0 55 50.5 336.5t50.5 358.5q0 61 -25 90t-82 29q-1 0 -51 -5q-84 -105 -171.5 -326.5t-191.5 -588.5q-62 -18 -157 -18l-45 36q15 119 42.5 319t38.5 297.5t11 153.5q0 69 -23 100.5t-84 31.5q-5 0 -13.5 -1
t-20.5 -2t-21 -2q-160 -203 -361 -915q-61 -18 -155 -18l-45 36l102 869l-153 6v90q156 55 329 68l43 -37l-104 -588l24 -6q63 201 108.5 317.5t97.5 192.5t106.5 102.5t132.5 26.5q233 0 233 -217q0 -92 -67 -416l22 -6q36 113 63.5 192t56.5 151t55.5 117.5t55.5 82.5
t61.5 56.5t69.5 29.5t83 10q241 0 241 -244q0 -22 -2 -49.5t-6 -63.5t-8 -68t-11.5 -80t-13 -80.5t-15.5 -89t-15 -86t-16 -90.5t-15 -85q77 0 186 67z" />
    <glyph glyph-name="n" unicode="n" horiz-adv-x="1196" 
d="M1133 190l22 -86q-61 -56 -135.5 -89t-142.5 -33q-138 0 -138 124q0 55 51.5 336.5t51.5 358.5q0 61 -25 90t-84 29q-1 0 -51 -5q-184 -226 -365 -915q-65 -18 -153 -18l-45 36l102 869l-153 6v90q148 54 327 68l45 -37l-104 -588l22 -6q51 159 89 261t77.5 180.5t81 119
t88 59.5t109.5 19q244 0 244 -244q0 -28 -3 -65t-10 -88t-13 -93t-18 -111t-18.5 -108t-21 -118t-19.5 -109q76 0 189 67z" />
    <glyph glyph-name="o" unicode="o" horiz-adv-x="1048" 
d="M594 1059q99 0 175 -33t122 -92t69 -136t23 -171q0 -84 -17 -170t-57 -174t-98.5 -156t-151 -111t-204.5 -43q-131 0 -219.5 58t-128 153.5t-39.5 223.5q0 83 16.5 168.5t56.5 173.5t98.5 155.5t150.5 110.5t204 43zM569 948q-63 0 -116 -24q-77 -73 -117.5 -240.5
t-40.5 -323.5q0 -141 45.5 -208.5t140.5 -67.5q55 0 117 25q78 72 117 240t39 323q0 144 -44.5 210t-140.5 66z" />
    <glyph glyph-name="p" unicode="p" horiz-adv-x="1138" 
d="M801 1059q62 0 108.5 -17t83 -55.5t55.5 -108.5t19 -169q0 -83 -13 -167t-39 -167.5t-69 -155.5t-99 -127t-133 -87t-167 -32q-148 0 -221 76l-50 -463q-59 -22 -163 -22l-45 37l153 1286l-153 6v90q156 55 323 68l43 -37l-112 -604l22 -7q82 270 146 407.5t134.5 193
t176.5 55.5zM655 102q93 105 139 276.5t46 344.5q0 111 -24 154t-85 43q-17 0 -57 -7q-72 -88 -148 -268t-180 -510q85 -51 189 -51q50 0 120 18z" />
    <glyph glyph-name="q" unicode="q" horiz-adv-x="1122" 
d="M874 -274l130 -27l-11 -88q-142 -40 -297 -47l-45 37l64 473q34 250 102 549l-22 4q-50 -163 -90 -270.5t-80 -186t-83 -119.5t-90 -59.5t-110 -18.5q-130 0 -200 79t-70 272q0 83 13.5 167t40 167t70 155t99.5 127.5t133.5 87t167.5 31.5q148 0 223 -78l12 59
q50 19 144 19l45 -37zM467 121q72 89 147.5 270t178.5 508q-87 49 -183 49q-67 0 -123 -18q-93 -105 -140.5 -277t-47.5 -342q0 -111 25 -153.5t86 -42.5q27 0 57 6z" />
    <glyph glyph-name="r" unicode="r" horiz-adv-x="815" 
d="M815 831l-180 15q-77 -128 -149.5 -324t-166.5 -522q-65 -18 -155 -18l-45 36l102 869l-153 6v90q149 55 323 68l43 -37l-104 -600l22 -4q37 123 63 204t56.5 161.5t57 127.5t58 85.5t66.5 54.5t76 16q75 0 115 -64z" />
    <glyph glyph-name="s" unicode="s" horiz-adv-x="811" 
d="M498 580q110 -91 161.5 -160t51.5 -160q0 -128 -100.5 -207.5t-266.5 -79.5q-122 0 -206.5 44.5t-106.5 134.5l98 116l268 -184q34 4 82 25q31 38 31 102q-1 62 -34 104t-130 123q-118 102 -153 143q-74 87 -74 185q0 135 108.5 214t272.5 79q107 0 184.5 -37t99.5 -111
l-86 -114l-254 151q-43 -2 -88 -22q-41 -48 -41 -115q0 -13 2 -25.5t4.5 -22t10 -21.5t11.5 -20t17 -21t19 -19.5t24.5 -22.5t27 -23t32.5 -27t35 -29z" />
    <glyph glyph-name="t" unicode="t" horiz-adv-x="706" 
d="M702 1010v-52l-16 -67h-260q-80 -641 -84 -776q127 0 276 67l25 -86q-68 -55 -165.5 -89t-180.5 -34q-79 0 -118.5 39t-39.5 131q0 79 25.5 300t60.5 434l-123 16v90q77 25 148 39q20 107 49 219q75 30 143 39l31 -31l-31 -239h260z" />
    <glyph glyph-name="u" unicode="u" horiz-adv-x="1202" 
d="M1151 190l25 -86q-63 -56 -140.5 -89t-144.5 -33q-127 0 -127 112q0 30 9.5 84.5t34 184t44.5 243.5l-25 6q-42 -132 -74 -222.5t-66 -166t-64.5 -120t-68 -75.5t-77.5 -43t-92 -12q-244 0 -244 244q0 27 3 63.5t9.5 86t12.5 90.5t17.5 107t18 104.5t20 113.5t18.5 105
l-154 6v90q171 59 330 68l43 -37q-5 -35 -35 -211.5t-54 -340.5t-24 -229q0 -62 24.5 -90t82.5 -28q31 0 51 4q165 206 366 913q58 19 154 19l45 -37l-104 -891q83 0 186 67z" />
    <glyph glyph-name="v" unicode="v" horiz-adv-x="1064" 
d="M719 973l137 86q76 -20 116 -91.5t40 -156.5q0 -68 -27 -158t-73.5 -182.5t-111.5 -182t-136.5 -159.5t-154 -113t-159.5 -43q-92 0 -150.5 60t-58.5 182q0 135 99 672l-154 6v90q160 55 326 68l45 -37q-3 -19 -35.5 -215t-53 -342.5t-20.5 -214.5q0 -67 25 -97t86 -30
l35 2q120 104 215 260t153 348z" />
    <glyph glyph-name="w" unicode="w" horiz-adv-x="1648" 
d="M1305 973l137 86q76 -20 114.5 -91.5t38.5 -156.5q0 -68 -27 -157.5t-73 -182.5t-111.5 -182.5t-137 -159.5t-155 -113t-161.5 -43q-85 0 -135 48.5t-50 138.5q0 65 37 198l-24 9q-86 -201 -177.5 -297.5t-215.5 -96.5q-100 0 -162 60t-62 184q0 133 99 670l-154 6v90
q160 55 326 68l45 -37q-3 -20 -24 -146t-38 -232t-32 -225t-15 -171q0 -64 26 -94.5t91 -30.5h24q170 188 287 532q25 205 64 383q62 21 155 21l45 -39q0 -144 -69 -363q-31 -337 -31 -407q0 -68 22 -97.5t82 -29.5l31 2q242 213 371 608z" />
    <glyph glyph-name="x" unicode="x" horiz-adv-x="1036" 
d="M797 123q74 8 176 67l24 -86q-129 -122 -262 -122q-76 0 -117 41.5t-75 130.5q-47 112 -82 247h-23q-62 -216 -142.5 -318.5t-193.5 -102.5q-92 0 -135 69l31 131l178 -18q100 109 223 346q-94 305 -120 377l-185 8v90q66 25 158.5 44.5t165.5 23.5l41 -37
q43 -140 100 -361h19q50 179 134.5 288.5t192.5 109.5q65 0 99 -27l18 -147l-213 -43q-64 -67 -195 -279q72 -244 183 -432z" />
    <glyph glyph-name="y" unicode="y" horiz-adv-x="1054" 
d="M707 973l137 86q71 -19 113 -85t42 -167q0 -162 -109 -407t-296 -476q-287 -360 -498 -360q-61 0 -120.5 25t-100.5 73l31 94q166 -55 284 -59q120 76 199 170q-144 712 -217 1020l-154 6v90q169 60 297 68l45 -37q150 -651 181 -959h22q88 124 171.5 313t115.5 357z" />
    <glyph glyph-name="z" unicode="z" horiz-adv-x="886" 
d="M688 336l113 -14q6 -71 6 -144q0 -221 -168 -221q-80 0 -211 37.5t-250 91.5l-88 -117q-38 4 -98 33l-17 29l611 807l-324 20l-37 -139h-121q-12 72 -2 167t41 165q299 0 537 -88l72 94q50 -9 98 -35l16 -27l-596 -788q199 -44 359 -51z" />
    <glyph glyph-name="braceleft" unicode="{" horiz-adv-x="622" 
d="M586 1421l-203 -51q4 -34 23 -173.5t28.5 -230t9.5 -145.5q0 -98 -45.5 -143.5t-179.5 -71.5v-20q104 -20 150.5 -56.5t46.5 -97.5q0 -39 -18.5 -123t-39 -156.5t-56 -195t-48.5 -168.5l209 -51l-6 -96q-79 -9 -111 -9q-50 0 -91.5 7.5t-77.5 25t-56.5 49.5t-20.5 76
q0 25 7 63.5t22.5 101.5t33 126.5t47 174.5t54.5 210l-162 74v4l9 106l170 74q-11 109 -27 243t-24.5 213.5t-8.5 121.5q0 123 65 173t179 50q55 0 123 -10z" />
    <glyph glyph-name="bar" unicode="|" horiz-adv-x="555" 
d="M360 -246h-139v1782h139v-1782z" />
    <glyph glyph-name="braceright" unicode="}" horiz-adv-x="602" 
d="M518 651l-8 -112l-174 -74q11 -106 28 -253.5t25 -229.5t8 -125q0 -65 -18 -110t-52.5 -70t-75.5 -35.5t-95 -10.5q-46 0 -125 11l2 94l203 51q-64 479 -64 582q0 99 47 144.5t184 72.5v20q-102 22 -142 57t-40 103q0 44 18.5 126t37.5 145t56 179t48 152l-209 51l8 94
q55 9 115 9q67 0 118 -13t86.5 -49t35.5 -92q0 -25 -6.5 -62t-22.5 -98t-32 -119t-46.5 -166.5t-54.5 -197.5z" />
    <glyph glyph-name="asciitilde" unicode="~" 
d="M1044 721l64 -55q-17 -41 -40 -79.5t-56.5 -79t-79 -65t-94.5 -24.5q-39 0 -80.5 19t-132.5 77l-215 131l-177 -170l-61 57q17 42 41 80.5t58 78t79.5 63.5t95.5 24q35 0 77.5 -19t133.5 -77q28 -17 215 -129z" />
    <glyph glyph-name="uni00A0" unicode="&#xa0;" horiz-adv-x="512" 
 />
    <glyph glyph-name="exclamdown" unicode="&#xa1;" horiz-adv-x="550" 
d="M340 1059q49 0 78 -10q22 -42 22 -86q0 -66 -53 -154h-170l-12 229q69 21 135 21zM231 676h123q3 -236 -5.5 -515t-29.5 -456q-113 -35 -206 -35l-39 41q47 256 157 965z" />
    <glyph glyph-name="cent" unicode="&#xa2;" horiz-adv-x="962" 
d="M633 1038q-34 -274 -45 -409q-15 -165 -35 -410q139 22 283 133l30 -84q-144 -156 -323 -194l-15 -217l-100 -15l-27 17l25 204q-166 6 -253 125.5t-87 309.5q0 82 16.5 166.5t52 167t86.5 148.5t126.5 111.5t164.5 55.5l15 215l100 14l27 -16l-29 -215q59 -8 117 -39
l2 31q64 18 121 18l47 -35q4 -28 4 -57q0 -123 -35 -281h-129l-16 228q-61 22 -123 28zM315 510q0 -231 131 -281q31 268 43 387q29 314 35 418q-26 -5 -57 -20q-52 -49 -88 -145t-50 -187t-14 -172z" />
    <glyph glyph-name="sterling" unicode="&#xa3;" horiz-adv-x="1132" 
d="M883 340l121 -16q12 -70 12 -129q0 -165 -121 -277q-352 19 -610 145l-179 -114l-81 92q-1 83 44 118.5t136 35.5q106 95 106 243q0 50 -14 125h-180v37l8 70h154q-17 108 -17 153q0 84 27 159t78.5 135.5t137.5 96t195 35.5q105 0 170 -32l2 16q77 18 121 18l47 -34
q4 -28 4 -58q0 -124 -34 -287h-129l-17 248q-84 15 -133 15q-90 0 -149 -27q-44 -40 -66 -112.5t-22 -145.5q0 -54 20 -180h287v-37l-6 -70h-267q7 -54 7 -90q0 -107 -52 -178t-178 -127l6 -21q205 -37 500 -32z" />
    <glyph glyph-name="currency" unicode="&#xa4;" horiz-adv-x="1097" 
d="M926 637q0 -137 -78 -242l153 -176l-108 -104l-158 180q-82 -51 -205 -51q-127 0 -215 59l-188 -176l-96 102l192 179q-37 67 -37 149q0 141 97 256l-156 180l111 103l165 -193q77 41 189 41q114 0 190 -45l201 182l90 -104l-192 -174q45 -71 45 -166zM629 377
q91 66 88 276q-1 43 -6 71.5t-18.5 54t-41 38t-69.5 12.5q-52 0 -99 -16q-88 -66 -88 -270q0 -95 28.5 -140t102.5 -45q44 0 103 19z" />
    <glyph glyph-name="yen" unicode="&#xa5;" horiz-adv-x="1261" 
d="M1266 1223v-90q-84 -37 -152 -46q-104 -197 -233 -391h200v-39l-8 -69h-264l-78 -111l-4 -61h322v-37l-9 -72h-323l-19 -196l174 -13v-45l-6 -53h-575v92q62 29 188 43l17 172h-326v37l8 72h328l6 61l-43 111h-266v37l8 71h215q-14 37 -170 418l-133 10v47l6 52h520v-90
q-62 -30 -155 -41q11 -30 43 -116t50 -135.5t42 -119t39 -119.5h22q179 263 291 510l-133 12v47l6 52h412z" />
    <glyph glyph-name="brokenbar" unicode="&#xa6;" horiz-adv-x="555" 
d="M360 922h-139v614h139v-614zM360 -246h-139v615h139v-615z" />
    <glyph glyph-name="section" unicode="&#xa7;" horiz-adv-x="1001" 
d="M946 444q0 -186 -229 -254q45 -76 45 -161q0 -135 -105 -219t-262 -84q-126 0 -197 55.5t-71 146.5q0 80 59 129h117l23 -221q43 -6 69 -6q96 0 152 33q33 57 33 119q0 59 -45.5 119t-157.5 155q-92 78 -141.5 124.5t-93 98.5t-60 96t-16.5 95q0 186 229 254
q-45 76 -45 161q0 135 105.5 219.5t262.5 84.5q125 0 196 -56t71 -147q0 -78 -58 -129h-118l-23 221q-44 6 -70 6q-96 0 -149 -33q-33 -51 -33 -118q0 -59 45.5 -120t157.5 -155q91 -79 140 -125t92.5 -98t60 -96t16.5 -95zM672 256q48 35 68 64.5t20 76.5q0 34 -9 60
t-38.5 59.5t-61 61t-99.5 84.5q-31 26 -48 40q-112 94 -162 156q-48 -35 -68 -64.5t-20 -76.5q0 -65 40 -112.5t173 -158.5q9 -7 14 -11t12.5 -10.5t14.5 -12.5q118 -99 164 -156z" />
    <glyph glyph-name="dieresis" unicode="&#xa8;" horiz-adv-x="735" 
d="M291 1481q44 0 65 -8q21 -47 21 -82q0 -65 -45 -138h-150l-12 207q54 21 121 21zM686 1481q42 0 66 -8q20 -42 20 -80q0 -64 -45 -140h-149l-13 207q54 21 121 21z" />
    <glyph glyph-name="copyright" unicode="&#xa9;" horiz-adv-x="1572" 
d="M840 1389q145 0 265.5 -41t209.5 -119.5t138.5 -202.5t49.5 -283q0 -122 -29 -234t-89.5 -210t-146.5 -170.5t-209 -114t-269 -41.5q-198 0 -343.5 73.5t-226 219t-81.5 350.5q-1 120 26 231.5t85.5 210.5t142.5 172t207 116t270 43zM768 80q119 0 218 37t166.5 100
t114 148t68 178.5t21.5 193.5q0 262 -144 403.5t-383 141.5q-119 0 -217 -38.5t-163 -102t-109.5 -149.5t-64 -178.5t-19.5 -190.5q0 -263 138 -403t374 -140zM803 981q-49 -46 -82 -139t-33 -215q0 -224 160 -224q47 0 92.5 18t116.5 60l26 -75q-52 -58 -136.5 -97
t-182.5 -39q-137 0 -209 85t-72 241q0 98 27.5 188t78.5 160.5t129.5 113t172.5 42.5q86 0 153 -35.5t78 -108.5l-96 -100l-170 137q-32 -4 -53 -12z" />
    <glyph glyph-name="ordfeminine" unicode="&#xaa;" horiz-adv-x="804" 
d="M799 586l18 -66q-42 -37 -97 -58.5t-106 -21.5q-88 0 -88 72q0 14 2.5 32.5t10 54.5t13.5 64.5t21 94.5t25 112l-23 7q-23 -74 -38.5 -121.5t-33.5 -97t-31.5 -78.5t-31 -57.5t-33.5 -42.5t-36.5 -26t-43 -16t-51.5 -4q-96 0 -144 52.5t-48 181.5q0 86 21 169t62.5 157
t114 119.5t164.5 45.5q98 0 146 -53l10 41q44 12 113 12l28 -24l-67 -590q59 0 123 41zM369 545q87 117 202 493q-58 33 -110 33q-36 0 -82 -12q-63 -71 -95 -178.5t-32 -214.5q0 -70 16.5 -97.5t57.5 -27.5q15 0 43 4z" />
    <glyph glyph-name="guillemotleft" unicode="&#xab;" horiz-adv-x="1017" 
d="M918 889l-191 -322l119 -331l-98 -64l-248 367v49l331 366zM522 889l-190 -322l119 -331l-99 -64l-248 367v49l332 366z" />
    <glyph glyph-name="logicalnot" unicode="&#xac;" 
d="M1036 629l-51 -443h-149l41 351h-684v45l12 92h801z" />
    <glyph glyph-name="uni00AD" unicode="&#xad;" horiz-adv-x="657" 
d="M573 631l-10 -101h-459v50l13 100h456v-49z" />
    <glyph glyph-name="registered" unicode="&#xae;" horiz-adv-x="1236" 
d="M692 1477q231 0 365.5 -127.5t134.5 -352.5q0 -87 -21 -166.5t-65.5 -148t-107.5 -119t-152.5 -79.5t-196.5 -29q-228 0 -365 125.5t-137 353.5q0 110 34.5 206.5t100 172.5t171.5 120t239 44zM686 1391q-109 0 -192.5 -38t-133 -103t-74 -144t-24.5 -168
q0 -189 104.5 -293t286.5 -104q108 0 191.5 37.5t133 102t74.5 143.5t25 169q0 190 -105 294t-286 104zM659 1249q121 -1 177.5 -36t56.5 -109q0 -115 -123 -164q11 -21 28.5 -59t31 -64.5t24.5 -42.5l70 4l6 -49q-57 -31 -99 -31q-38 0 -59.5 15t-38.5 45q-36 64 -61 162
h-60l-16 -156l66 -6v-27l-3 -24h-239v49q59 15 67 16l35 402l-59 6v28l6 29q80 12 190 12zM631 1184l-15 -199h93q55 51 55 113q0 86 -92 86h-41z" />
    <glyph glyph-name="macron" unicode="&#xaf;" horiz-adv-x="645" 
d="M174 1419h502q4 -8 4 -41q0 -63 -21 -106h-501q-4 12 -4 41q0 62 20 106z" />
    <glyph glyph-name="degree" unicode="&#xb0;" horiz-adv-x="702" 
d="M451 1513q124 0 202 -81t78 -199q0 -129 -92.5 -218t-224.5 -89q-124 0 -202.5 80t-78.5 198q0 129 93 219t225 90zM442 1386q-54 0 -96 -22q-65 -48 -65 -150q0 -76 39 -118.5t104 -42.5q57 0 94 22q30 22 48 62t18 88q0 75 -39.5 118t-102.5 43z" />
    <glyph glyph-name="plusminus" unicode="&#xb1;" 
d="M774 1077l-35 -303h322v-49l-12 -88h-328l-37 -318h-111l-43 17l35 301h-321v47l12 90h328l37 320h106zM985 90l-8 -90h-805l-2 45l10 92h805v-47z" />
    <glyph glyph-name="twosuperior" unicode="&#xb2;" horiz-adv-x="600" 
d="M510 1001l90 -2q4 -25 4 -75q0 -94 -31 -140h-67q-74 0 -169 12.5t-159 32.5l-63 -45q-28 9 -58 35l-2 25q26 21 91 72t93.5 74.5t75.5 67t68.5 73t39 68.5t17.5 75q0 53 -29.5 77.5t-74.5 24.5q-44 0 -71 -24t-27 -68q0 -29 8 -65l-74 -21q-53 53 -53 115q0 79 72 133.5
t184 54.5q113 0 180.5 -52.5t67.5 -141.5q0 -94 -85.5 -186t-256.5 -199h208z" />
    <glyph glyph-name="threesuperior" unicode="&#xb3;" horiz-adv-x="626" 
d="M471 1165v-22q141 -23 141 -144q0 -95 -81 -155t-220 -60q-120 0 -211 47l9 66q55 -8 133 -8q99 0 141.5 27t42.5 88q0 37 -16 59.5t-54 34.5q-60 -22 -100 -27l-25 19q-4 24 -4 43q0 26 4 34q19 11 74 11q29 0 43 -2q101 50 101 122q0 44 -29 64t-72 20q-57 0 -82.5 -28
t-25.5 -70v-22l-76 -2q-31 45 -31 81q0 65 67.5 112.5t186.5 47.5q110 0 176 -46t66 -130q0 -123 -158 -160z" />
    <glyph glyph-name="acute" unicode="&#xb4;" horiz-adv-x="499" 
d="M356 1583h95q31 -18 57.5 -49.5t38.5 -67.5l-303 -292h-107z" />
    <glyph glyph-name="mu" unicode="&#xb5;" horiz-adv-x="1202" 
d="M1151 190l25 -86q-61 -55 -139 -88.5t-146 -33.5q-127 0 -127 112q0 30 9.5 84.5t34 184t44.5 243.5l-23 6q-48 -156 -86 -260t-76 -181t-77.5 -118.5t-83 -60.5t-100.5 -19q-54 0 -87 21.5t-57 68.5l-22 -10q19 -109 27 -160t17.5 -140.5t10.5 -166.5q-60 -22 -182 -22
l-31 37q37 599 158 1286l-154 6v90q171 59 330 68l43 -37q-2 -13 -57.5 -353.5t-55.5 -427.5q0 -62 25.5 -90t83.5 -28q28 0 51 4q168 211 364 913q58 19 154 19l45 -37l-104 -891q83 0 186 67z" />
    <glyph glyph-name="paragraph" unicode="&#xb6;" horiz-adv-x="1161" 
d="M666 446h-111q-224 -2 -344.5 102t-120.5 302q0 69 14.5 135t52.5 136t97.5 121.5t158 85t224.5 34.5h113zM1202 1362v-92q-85 -36 -176 -43l-90 -998q-20 -209 -119.5 -304t-277.5 -95q-99 0 -191.5 28t-148.5 81l51 81q128 -71 280 -71q124 0 192 61t81 209l104 1143
h295z" />
    <glyph glyph-name="periodcentered" unicode="&#xb7;" horiz-adv-x="485" 
d="M279 745q53 0 83 -12q23 -44 23 -90q0 -78 -55 -170h-178l-13 250q73 22 140 22z" />
    <glyph glyph-name="cedilla" unicode="&#xb8;" horiz-adv-x="526" 
d="M242 12l-17 -145q152 0 152 -119q0 -78 -62.5 -131t-171.5 -53q-119 0 -184 59l25 78l22.5 -7.5t25 -7.5t22 -5.5t26 -5t24.5 -1.5q46 0 74.5 22t28.5 58q0 28 -22 40t-93 26l51 192h99z" />
    <glyph glyph-name="onesuperior" unicode="&#xb9;" horiz-adv-x="479" 
d="M498 860v-29l-4 -32h-388v61q61 21 117 27l41 440q-46 -10 -114 -10v35l6 49q54 4 114.5 28.5t100.5 71.5l73 -16l-57 -615z" />
    <glyph glyph-name="ordmasculine" unicode="&#xba;" horiz-adv-x="735" 
d="M446 1159q139 0 208 -79.5t69 -211.5q0 -55 -11.5 -112t-40 -115.5t-69.5 -104t-106 -74t-144 -28.5q-136 0 -205 79.5t-69 209.5q0 56 11.5 113t39 116t68.5 104.5t105.5 74t143.5 28.5zM428 1069q-47 0 -78 -16q-48 -50 -74 -154.5t-26 -198.5q0 -176 121 -176
q47 0 80 17q47 48 72.5 153.5t25.5 198.5q0 176 -121 176z" />
    <glyph glyph-name="guillemotright" unicode="&#xbb;" horiz-adv-x="1017" 
d="M881 588v-49l-334 -367l-84 64l192 323l-118 330l98 65zM485 588v-49l-333 -367l-84 64l192 323l-119 330l99 65z" />
    <glyph glyph-name="onequarter" unicode="&#xbc;" horiz-adv-x="1599" 
d="M1296 1364l11 -29q-282 -390 -473 -673q-74 -109 -223 -347t-234 -362l-92 45l-11 29q161 225 478 682q76 114 221.5 347t226.5 353zM526 606l-2 -33l-4 -34h-446v67q80 26 149 29l56 561q-57 -16 -146 -16v39l6 51q64 3 132.5 32.5t115.5 86.5l76 -17l-78 -754z
M1540 281v-39l-10 -68h-117q-6 -59 -14 -174h-164q2 31 7 89t7 85h-338l-28 70q125 244 211 454l-35 142l135 39q68 -49 68 -125q0 -63 -55 -162t-199 -309l6 -13q146 11 153 11h95q7 66 28 219q53 31 131 47l35 -21q-22 -157 -31 -245h115z" />
    <glyph glyph-name="onehalf" unicode="&#xbd;" horiz-adv-x="1656" 
d="M1296 1364l11 -29q-282 -390 -473 -673q-74 -109 -223 -347t-234 -362l-92 45l-11 29q161 225 478 682q76 114 221.5 347t226.5 353zM526 606l-2 -33l-4 -34h-446v67q80 26 149 29l56 561q-57 -16 -146 -16v39l6 51q64 3 132.5 32.5t115.5 86.5l76 -17l-78 -754z
M1470 213l93 -4q6 -44 6 -80q0 -92 -33 -156h-82q-84 0 -193.5 15t-179.5 39l-67 -52q-39 12 -62 35l-2 27q12 9 36 28q192 153 269 233q150 154 150 282q0 133 -127 133q-56 0 -91.5 -31t-35.5 -90q0 -32 12 -78l-71 -25q-60 63 -60 129q0 95 80.5 159.5t204.5 64.5
q122 0 197 -64.5t75 -169.5q0 -118 -103.5 -238t-299.5 -255h260z" />
    <glyph glyph-name="threequarters" unicode="&#xbe;" horiz-adv-x="1699" 
d="M1397 1364l10 -29q-282 -390 -473 -673q-74 -109 -223 -347t-234 -362l-92 45l-10 29q130 182 477 682q76 114 221.5 347t226.5 353zM487 981v-23q82 -15 121 -57t39 -117q0 -118 -91.5 -191t-252.5 -73q-133 0 -231 49l10 68q63 -8 125 -8q138 0 197 41.5t59 120.5
q0 43 -20.5 71t-73.5 47q-46 -19 -113 -30l-25 20q-6 18 -6 45q0 17 4 41q21 12 88 12q21 0 45 -4q127 69 127 168q0 103 -124 103q-75 0 -108.5 -37t-33.5 -94q0 -5 0.5 -11.5t1 -10.5t0.5 -5l-78 -4q-30 50 -30 94q0 77 75 135t203 58t201.5 -58.5t73.5 -154.5
q0 -147 -183 -195zM1640 281v-39l-10 -68h-117q-6 -59 -14 -174h-164q2 30 7.5 88t7.5 86h-338l-29 70q125 244 211 454l-35 142l135 39q68 -49 68 -125q0 -63 -55 -162t-199 -309l6 -13q146 11 154 11h94q3 25 29 219q53 31 131 47l34 -21q-19 -135 -30 -245h114z" />
    <glyph glyph-name="questiondown" unicode="&#xbf;" horiz-adv-x="737" 
d="M623 1049q22 -42 22 -86q0 -66 -53 -154h-170l-12 229q69 21 135 21q49 0 78 -10zM381 266q-128 -67 -173.5 -111.5t-45.5 -117.5q0 -39 4 -66q135 -85 397 -82l-20 -192q-82 -12 -131 -12q-77 0 -139 21.5t-102 58t-66.5 87t-38 105.5t-11.5 117q0 43 6 78.5t27.5 80.5
t58.5 84.5t102.5 84t156.5 85.5l26 189h127q29 -97 29 -170q0 -39 -8 -68.5t-20 -49.5t-42 -42t-56 -37t-81 -43z" />
    <glyph glyph-name="Agrave" unicode="&#xc0;" horiz-adv-x="1318" 
d="M1262 98v-45l-7 -53h-507v92q64 30 145 41l-59 262h-453q-51 -124 -111 -284l144 -13v-45l-6 -53h-422v92q65 33 147 41q243 590 502 1141l-21 94l45 37q108 0 172 -21q187 -846 299 -1275zM428 514h379q-59 270 -117 559h-22q-100 -216 -240 -559zM774 1477h-117
l-241 243q51 82 123 115h94z" />
    <glyph glyph-name="Aacute" unicode="&#xc1;" horiz-adv-x="1318" 
d="M1262 98v-45l-7 -53h-507v92q64 30 145 41l-59 262h-453q-51 -124 -111 -284l144 -13v-45l-6 -53h-422v92q65 33 147 41q243 590 502 1141l-21 94l45 37q108 0 172 -21q187 -846 299 -1275zM428 514h379q-59 270 -117 559h-22q-100 -216 -240 -559zM889 1837h96
q30 -15 55.5 -46.5t38.5 -70.5l-311 -243h-115z" />
    <glyph glyph-name="Acircumflex" unicode="&#xc2;" horiz-adv-x="1318" 
d="M1262 98v-45l-7 -53h-507v92q64 30 145 41l-59 262h-453q-51 -124 -111 -284l144 -13v-45l-6 -53h-422v92q65 33 147 41q243 590 502 1141l-21 94l45 37q108 0 172 -21q187 -846 299 -1275zM428 514h379q-59 270 -117 559h-22q-100 -216 -240 -559zM1032 1536l-143 -82
l-164 188h-18l-181 -165h-116l309 342h125z" />
    <glyph glyph-name="Atilde" unicode="&#xc3;" horiz-adv-x="1318" 
d="M1262 98v-45l-7 -53h-507v92q64 30 145 41l-59 262h-453q-51 -124 -111 -284l144 -13v-45l-6 -53h-422v92q65 33 147 41q243 590 502 1141l-21 94l45 37q108 0 172 -21q187 -846 299 -1275zM428 514h379q-59 270 -117 559h-22q-100 -216 -240 -559zM995 1767l54 -53
q-75 -201 -209 -201q-43 0 -115 35l-143 76l-107 -106l-53 53q31 87 84 142.5t127 55.5q46 0 108 -32l146 -78z" />
    <glyph glyph-name="Adieresis" unicode="&#xc4;" horiz-adv-x="1318" 
d="M1262 98v-45l-7 -53h-507v92q64 30 145 41l-59 262h-453q-51 -124 -111 -284l144 -13v-45l-6 -53h-422v92q65 33 147 41q243 590 502 1141l-21 94l45 37q108 0 172 -21q187 -846 299 -1275zM428 514h379q-59 270 -117 559h-22q-100 -216 -240 -559zM526 1755q46 0 66 -10
q22 -36 22 -78q0 -69 -45 -143h-151l-15 209q57 22 123 22zM985 1755q43 0 66 -10q20 -29 20 -78q0 -72 -43 -143h-151l-15 209q57 22 123 22z" />
    <glyph glyph-name="Aring" unicode="&#xc5;" horiz-adv-x="1318" 
d="M1262 98v-45l-7 -53h-507v92q64 30 145 41l-59 262h-453q-51 -124 -111 -284l144 -13v-45l-6 -53h-422v92q65 33 147 41q243 590 502 1141l-21 94l45 37q108 0 172 -21q187 -846 299 -1275zM428 514h379q-59 270 -117 559h-22q-100 -216 -240 -559zM766 1845
q93 0 142.5 -41.5t49.5 -124.5q0 -98 -66 -154.5t-179 -56.5q-94 0 -144.5 42t-50.5 124q0 98 68 154.5t180 56.5zM752 1753q-36 0 -54 -12q-34 -42 -34 -103q0 -79 61 -79q32 0 53 12q35 47 35 108q0 41 -15 57.5t-46 16.5z" />
    <glyph glyph-name="AE" unicode="&#xc6;" horiz-adv-x="1765" 
d="M1118 1249l-45 -495l350 16l19 -43l-15 -104l-364 16l-49 -530h405l74 229l135 -12q4 -58 4 -88q0 -116 -49 -269l-41 -2l-637 33h-276v92q85 31 166 43l22 262h-420q-102 -200 -145 -286l141 -13v-45l-6 -53h-403v92q60 31 125 41q271 536 620 1122l-127 5v47l8 55h938
q83 27 127 27l47 -27q4 -32 4 -64q0 -121 -34 -274h-131l-17 207zM829 516l66 727h-41q-143 -249 -395 -725z" />
    <glyph glyph-name="Ccedilla" unicode="&#xc7;" horiz-adv-x="1212" 
d="M588 1223q-100 -69 -168 -259t-68 -403q0 -225 78 -323.5t236 -98.5q80 0 186 40t201 120l32 -92q-86 -93 -192 -151.5t-217 -73.5l-12 -115q151 0 151 -119q0 -78 -62 -131t-169 -53q-123 0 -185 59l23 78q88 -27 123 -27q46 0 74 21.5t28 58.5q0 28 -22.5 40t-94.5 26
l41 153q-236 7 -352.5 161.5t-116.5 418.5q0 123 25.5 242t80 226.5t131.5 189t187 130t240 48.5q118 0 207 -52l2 33q74 19 125 19l49 -33q4 -28 4 -60q0 -101 -37 -303h-133l-16 238q-95 31 -195 31q-93 0 -184 -39z" />
    <glyph glyph-name="Egrave" unicode="&#xc8;" horiz-adv-x="1161" 
d="M520 1249l-43 -495l352 16l19 -43l-14 -104l-367 16l-49 -530h397l74 229l135 -12q4 -58 4 -88q0 -116 -49 -269l-41 -2l-629 33h-272v92q87 32 166 43l98 1102l-156 12v45l9 58q273 10 505 10h295q83 27 127 27l47 -27q5 -40 5 -64q0 -116 -35 -274h-131l-17 207z
M723 1477h-117l-241 243q51 83 122 115h95z" />
    <glyph glyph-name="Eacute" unicode="&#xc9;" horiz-adv-x="1161" 
d="M520 1249l-43 -495l352 16l19 -43l-14 -104l-367 16l-49 -530h397l74 229l135 -12q4 -58 4 -88q0 -116 -49 -269l-41 -2l-629 33h-272v92q87 32 166 43l98 1102l-156 12v45l9 58q273 10 505 10h295q83 27 127 27l47 -27q5 -40 5 -64q0 -116 -35 -274h-131l-17 207z
M838 1837h96q30 -15 55.5 -46.5t38.5 -70.5l-311 -243h-115z" />
    <glyph glyph-name="Ecircumflex" unicode="&#xca;" horiz-adv-x="1161" 
d="M520 1249l-43 -495l352 16l19 -43l-14 -104l-367 16l-49 -530h397l74 229l135 -12q4 -58 4 -88q0 -116 -49 -269l-41 -2l-629 33h-272v92q87 32 166 43l98 1102l-156 12v45l9 58q273 10 505 10h295q83 27 127 27l47 -27q5 -40 5 -64q0 -116 -35 -274h-131l-17 207z
M981 1536l-143 -82l-164 188h-19l-180 -165h-117l310 342h125z" />
    <glyph glyph-name="Edieresis" unicode="&#xcb;" horiz-adv-x="1161" 
d="M520 1249l-43 -495l352 16l19 -43l-14 -104l-367 16l-49 -530h397l74 229l135 -12q4 -58 4 -88q0 -116 -49 -269l-41 -2l-629 33h-272v92q87 32 166 43l98 1102l-156 12v45l9 58q273 10 505 10h295q83 27 127 27l47 -27q5 -40 5 -64q0 -116 -35 -274h-131l-17 207z
M475 1755q46 0 66 -10q22 -36 22 -78q0 -69 -45 -143h-151l-15 209q57 22 123 22zM934 1755q42 0 65 -10q21 -30 21 -78q0 -72 -43 -143h-152l-14 209q57 22 123 22z" />
    <glyph glyph-name="Igrave" unicode="&#xcc;" horiz-adv-x="690" 
d="M692 1362v-92q-76 -34 -168 -41l-102 -1118l160 -13v-45l-7 -53h-536v92q80 36 166 43l100 1116l-158 13v45l7 53h538zM494 1477h-117l-242 243q51 82 123 115h94z" />
    <glyph glyph-name="Iacute" unicode="&#xcd;" horiz-adv-x="690" 
d="M692 1362v-92q-76 -34 -168 -41l-102 -1118l160 -13v-45l-7 -53h-536v92q80 36 166 43l100 1116l-158 13v45l7 53h538zM608 1837h97q30 -15 55.5 -46.5t38.5 -70.5l-312 -243h-114z" />
    <glyph glyph-name="Icircumflex" unicode="&#xce;" horiz-adv-x="690" 
d="M692 1362v-92q-76 -34 -168 -41l-102 -1118l160 -13v-45l-7 -53h-536v92q80 36 166 43l100 1116l-158 13v45l7 53h538zM752 1536l-144 -82l-164 188h-18l-180 -165h-117l309 342h125z" />
    <glyph glyph-name="Idieresis" unicode="&#xcf;" horiz-adv-x="690" 
d="M692 1362v-92q-76 -34 -168 -41l-102 -1118l160 -13v-45l-7 -53h-536v92q80 36 166 43l100 1116l-158 13v45l7 53h538zM287 1759q45 0 65 -10q23 -36 23 -80q0 -76 -47 -141h-154l-10 209q49 22 123 22zM655 1759q43 0 66 -10q22 -32 22 -80q0 -76 -49 -141h-151l-11 209
q49 22 123 22z" />
    <glyph glyph-name="Eth" unicode="&#xd0;" horiz-adv-x="1363" 
d="M653 1376q144 0 254 -27t183.5 -76t120.5 -122.5t67 -160.5t20 -195t-18.5 -211.5t-68 -212t-125.5 -188.5t-201 -131.5t-285 -51.5h-534v92q98 36 165 43l45 510h-153v39l12 80h152l43 473l-156 14v45l6 56q245 24 473 24zM872 193q93 103 136 269t43 353q0 225 -80 334
t-269 108h-149l-45 -493h244v-39l-13 -80h-243l-47 -526h135q175 0 288 74z" />
    <glyph glyph-name="Ntilde" unicode="&#xd1;" horiz-adv-x="1443" 
d="M1454 1362v-92q-76 -35 -170 -43l-113 -1223q-68 -20 -165 -27l-41 7l-379 839q-80 183 -148 377h-20l-70 -1087l162 -15v-45l-6 -53h-463v92q84 36 164 43l100 1100l-158 16v45l7 54q228 12 438 12l311 -690q77 -173 162 -398h22l54 975l-168 15v45l6 53h475zM1102 1767
l53 -53q-75 -201 -209 -201q-43 0 -115 35l-143 76l-106 -106l-54 53q31 87 84 142.5t127 55.5q47 0 109 -32l145 -78z" />
    <glyph glyph-name="Ograve" unicode="&#xd2;" horiz-adv-x="1384" 
d="M793 1389q253 0 390.5 -157.5t137.5 -428.5q0 -121 -25.5 -238t-80.5 -224.5t-134.5 -189t-195.5 -130t-254 -48.5q-253 0 -391 157.5t-138 428.5q0 122 25 239t80 224.5t134.5 188.5t195.5 129.5t256 48.5zM768 1262q-89 0 -180 -39q-101 -70 -169.5 -263t-68.5 -419
q0 -441 305 -441q88 0 179 39q101 70 169 263t68 419q0 441 -303 441zM846 1477h-117l-242 243q51 82 123 115h95z" />
    <glyph glyph-name="Oacute" unicode="&#xd3;" horiz-adv-x="1384" 
d="M793 1389q253 0 390.5 -157.5t137.5 -428.5q0 -121 -25.5 -238t-80.5 -224.5t-134.5 -189t-195.5 -130t-254 -48.5q-253 0 -391 157.5t-138 428.5q0 122 25 239t80 224.5t134.5 188.5t195.5 129.5t256 48.5zM768 1262q-89 0 -180 -39q-101 -70 -169.5 -263t-68.5 -419
q0 -441 305 -441q88 0 179 39q101 70 169 263t68 419q0 441 -303 441zM961 1837h96q30 -15 55.5 -46.5t38.5 -70.5l-311 -243h-115z" />
    <glyph glyph-name="Ocircumflex" unicode="&#xd4;" horiz-adv-x="1384" 
d="M793 1389q253 0 390.5 -157.5t137.5 -428.5q0 -121 -25.5 -238t-80.5 -224.5t-134.5 -189t-195.5 -130t-254 -48.5q-253 0 -391 157.5t-138 428.5q0 122 25 239t80 224.5t134.5 188.5t195.5 129.5t256 48.5zM768 1262q-89 0 -180 -39q-101 -70 -169.5 -263t-68.5 -419
q0 -441 305 -441q88 0 179 39q101 70 169 263t68 419q0 441 -303 441zM1104 1536l-143 -82l-164 188h-19l-180 -165h-117l310 342h124z" />
    <glyph glyph-name="Otilde" unicode="&#xd5;" horiz-adv-x="1384" 
d="M793 1389q253 0 390.5 -157.5t137.5 -428.5q0 -121 -25.5 -238t-80.5 -224.5t-134.5 -189t-195.5 -130t-254 -48.5q-253 0 -391 157.5t-138 428.5q0 122 25 239t80 224.5t134.5 188.5t195.5 129.5t256 48.5zM768 1262q-89 0 -180 -39q-101 -70 -169.5 -263t-68.5 -419
q0 -441 305 -441q88 0 179 39q101 70 169 263t68 419q0 441 -303 441zM1067 1767l53 -53q-75 -201 -209 -201q-42 0 -114 35l-144 76l-106 -106l-53 53q31 87 84 142.5t127 55.5q46 0 108 -32l145 -78z" />
    <glyph glyph-name="Odieresis" unicode="&#xd6;" horiz-adv-x="1384" 
d="M793 1389q253 0 390.5 -157.5t137.5 -428.5q0 -121 -25.5 -238t-80.5 -224.5t-134.5 -189t-195.5 -130t-254 -48.5q-253 0 -391 157.5t-138 428.5q0 122 25 239t80 224.5t134.5 188.5t195.5 129.5t256 48.5zM768 1262q-89 0 -180 -39q-101 -70 -169.5 -263t-68.5 -419
q0 -441 305 -441q88 0 179 39q101 70 169 263t68 419q0 441 -303 441zM598 1755q46 0 66 -10q22 -36 22 -78q0 -69 -45 -143h-152l-14 209q57 22 123 22zM1057 1755q43 0 65 -10q21 -30 21 -78q0 -72 -43 -143h-152l-14 209q57 22 123 22z" />
    <glyph glyph-name="multiply" unicode="&#xd7;" 
d="M1071 971l23 -43l-351 -326l297 -323l-61 -76l-41 -27l-301 330l-352 -330l-72 70l-20 39l348 325l-299 326l61 74l43 26l301 -331l354 329z" />
    <glyph glyph-name="Oslash" unicode="&#xd8;" horiz-adv-x="1384" 
d="M1339 1448l-157 -215q133 -151 139 -424q1 -123 -24 -241t-81 -226.5t-135.5 -190t-195.5 -130t-254 -48.5q-181 0 -305 82l-154 -209l-86 41l-8 27l160 219q-133 158 -136 420q-1 123 24 241.5t80.5 226.5t135.5 189.5t196.5 130t254.5 48.5q179 0 303 -82l149 211
l86 -41zM588 1223q-101 -70 -169.5 -263t-68.5 -419q0 -129 29 -228l608 850q-76 99 -219 99q-89 0 -180 -39zM834 139q101 70 169 263t68 419q0 132 -29 228l-608 -850q76 -99 221 -99q88 0 179 39z" />
    <glyph glyph-name="Ugrave" unicode="&#xd9;" horiz-adv-x="1353" 
d="M1395 1362v-92q-64 -34 -172 -43q-39 -579 -64 -770q-66 -484 -510 -484q-219 0 -330.5 114t-111.5 335q0 155 69 829l-157 13v45l6 53h537v-92q-72 -31 -164 -41q-72 -693 -72 -830q0 -160 61.5 -231.5t198.5 -71.5q115 0 207 47q99 96 123 328q41 362 63 778l-151 15
v45l6 53h461zM856 1477h-117l-241 243q51 82 123 115h94z" />
    <glyph glyph-name="Uacute" unicode="&#xda;" horiz-adv-x="1353" 
d="M1395 1362v-92q-64 -34 -172 -43q-39 -579 -64 -770q-66 -484 -510 -484q-219 0 -330.5 114t-111.5 335q0 155 69 829l-157 13v45l6 53h537v-92q-72 -31 -164 -41q-72 -693 -72 -830q0 -160 61.5 -231.5t198.5 -71.5q115 0 207 47q99 96 123 328q41 362 63 778l-151 15
v45l6 53h461zM971 1837h96q30 -15 55.5 -46.5t38.5 -70.5l-311 -243h-115z" />
    <glyph glyph-name="Ucircumflex" unicode="&#xdb;" horiz-adv-x="1353" 
d="M1395 1362v-92q-64 -34 -172 -43q-39 -579 -64 -770q-66 -484 -510 -484q-219 0 -330.5 114t-111.5 335q0 155 69 829l-157 13v45l6 53h537v-92q-72 -31 -164 -41q-72 -693 -72 -830q0 -160 61.5 -231.5t198.5 -71.5q115 0 207 47q99 96 123 328q41 362 63 778l-151 15
v45l6 53h461zM1114 1536l-143 -82l-164 188h-19l-180 -165h-116l309 342h125z" />
    <glyph glyph-name="Udieresis" unicode="&#xdc;" horiz-adv-x="1353" 
d="M1395 1362v-92q-64 -34 -172 -43q-39 -579 -64 -770q-66 -484 -510 -484q-219 0 -330.5 114t-111.5 335q0 155 69 829l-157 13v45l6 53h537v-92q-72 -31 -164 -41q-72 -693 -72 -830q0 -160 61.5 -231.5t198.5 -71.5q115 0 207 47q99 96 123 328q41 362 63 778l-151 15
v45l6 53h461zM608 1755q46 0 66 -10q22 -36 22 -78q0 -69 -45 -143h-151l-15 209q57 22 123 22zM1067 1755q43 0 66 -10q20 -29 20 -78q0 -72 -43 -143h-152l-14 209q57 22 123 22z" />
    <glyph glyph-name="Yacute" unicode="&#xdd;" horiz-adv-x="1269" 
d="M1174 1227q-147 -322 -418 -742l-35 -374l170 -13v-45l-8 -53h-568v92q76 32 187 41l30 344q-162 455 -301 774l-135 13v45l6 53h525v-92q-64 -29 -158 -41q145 -377 223 -615h21q214 349 325 635l-147 15v45l6 53h426v-92q-75 -37 -149 -43zM905 1837h96
q30 -15 56 -46.5t39 -70.5l-312 -243h-114z" />
    <glyph glyph-name="Thorn" unicode="&#xde;" horiz-adv-x="1153" 
d="M516 1149h123q108 0 189.5 -20t132 -54t82 -84t43.5 -104.5t12 -122.5q0 -226 -118.5 -348.5t-317.5 -122.5q-59 0 -117 10v100q115 5 198 31q107 115 107 330q0 132 -48 197t-177 65h-119l-82 -911l176 -13v-47l-6 -55h-555v92q71 33 164 41l100 1118l-156 13v45l7 53
h362l16 -33z" />
    <glyph glyph-name="germandbls" unicode="&#xdf;" horiz-adv-x="1122" 
d="M1077 1270q0 -78 -23 -148.5t-72.5 -138t-102.5 -123t-136 -129.5q76 -77 117.5 -121.5t84 -95t62 -84.5t32 -71.5t12.5 -75.5q0 -127 -103 -218.5t-264 -91.5q-194 0 -242 152l93 96l165 -139q65 4 115 20q39 51 39 123q0 91 -100 195q-9 9 -41 42.5t-41 45t-27 38
t-23.5 51t-5.5 54.5q0 26 7.5 48.5t15 36t31.5 48t39 58.5q83 123 115 218t30 197q0 95 -29.5 135t-95.5 40q-43 0 -108 -21q-78 -66 -131 -201.5t-76 -386.5l-70 -770q-24 -256 -113 -372.5t-239 -116.5q-68 0 -133 22.5t-109 65.5l33 92q185 -45 278 -45q52 88 68 278
l82 900l-143 16v90q58 20 163 35q47 241 190 382.5t355 141.5q301 0 301 -272z" />
    <glyph glyph-name="agrave" unicode="&#xe0;" horiz-adv-x="1150" 
d="M1100 190l24 -86q-62 -56 -136.5 -89t-141.5 -33q-125 0 -125 110q0 31 9.5 86t37.5 195t49 250l-22 4q-63 -204 -111 -325.5t-101.5 -198t-108.5 -103.5t-134 -27q-129 0 -198.5 79.5t-69.5 271.5q0 83 13.5 167t40 167t70 155t99.5 127.5t133.5 87t167.5 31.5
q148 0 223 -78l12 59q50 19 144 19l45 -37l-107 -899q84 0 187 67zM467 121q72 89 147.5 270t178.5 508q-87 49 -185 49q-64 0 -123 -18q-93 -105 -139.5 -276.5t-46.5 -342.5q0 -111 25 -153.5t86 -42.5q22 0 57 6zM688 1174h-104l-238 292q55 86 129 117h94z" />
    <glyph glyph-name="aacute" unicode="&#xe1;" horiz-adv-x="1150" 
d="M1100 190l24 -86q-62 -56 -136.5 -89t-141.5 -33q-125 0 -125 110q0 31 9.5 86t37.5 195t49 250l-22 4q-63 -204 -111 -325.5t-101.5 -198t-108.5 -103.5t-134 -27q-129 0 -198.5 79.5t-69.5 271.5q0 83 13.5 167t40 167t70 155t99.5 127.5t133.5 87t167.5 31.5
q148 0 223 -78l12 59q50 19 144 19l45 -37l-107 -899q84 0 187 67zM467 121q72 89 147.5 270t178.5 508q-87 49 -185 49q-64 0 -123 -18q-93 -105 -139.5 -276.5t-46.5 -342.5q0 -111 25 -153.5t86 -42.5q22 0 57 6zM799 1583h94q31 -17 56.5 -49t37.5 -68l-301 -292h-106z
" />
    <glyph glyph-name="acircumflex" unicode="&#xe2;" horiz-adv-x="1150" 
d="M1100 190l24 -86q-62 -56 -136.5 -89t-141.5 -33q-125 0 -125 110q0 31 9.5 86t37.5 195t49 250l-22 4q-63 -204 -111 -325.5t-101.5 -198t-108.5 -103.5t-134 -27q-129 0 -198.5 79.5t-69.5 271.5q0 83 13.5 167t40 167t70 155t99.5 127.5t133.5 87t167.5 31.5
q148 0 223 -78l12 59q50 19 144 19l45 -37l-107 -899q84 0 187 67zM467 121q72 89 147.5 270t178.5 508q-87 49 -185 49q-64 0 -123 -18q-93 -105 -139.5 -276.5t-46.5 -342.5q0 -111 25 -153.5t86 -42.5q22 0 57 6zM928 1235l-146 -72l-139 228h-20l-168 -215h-107l289 393
h125z" />
    <glyph glyph-name="atilde" unicode="&#xe3;" horiz-adv-x="1150" 
d="M1100 190l24 -86q-62 -56 -136.5 -89t-141.5 -33q-125 0 -125 110q0 31 9.5 86t37.5 195t49 250l-22 4q-63 -204 -111 -325.5t-101.5 -198t-108.5 -103.5t-134 -27q-129 0 -198.5 79.5t-69.5 271.5q0 83 13.5 167t40 167t70 155t99.5 127.5t133.5 87t167.5 31.5
q148 0 223 -78l12 59q50 19 144 19l45 -37l-107 -899q84 0 187 67zM467 121q72 89 147.5 270t178.5 508q-87 49 -185 49q-64 0 -123 -18q-93 -105 -139.5 -276.5t-46.5 -342.5q0 -111 25 -153.5t86 -42.5q22 0 57 6zM897 1489l53 -51q-92 -209 -213 -209q-46 0 -106 37
l-121 73l-107 -108l-53 53q17 37 33.5 65.5t43.5 65t62 56.5t74 20q45 0 107 -39l118 -72z" />
    <glyph glyph-name="adieresis" unicode="&#xe4;" horiz-adv-x="1150" 
d="M1100 190l24 -86q-62 -56 -136.5 -89t-141.5 -33q-125 0 -125 110q0 31 9.5 86t37.5 195t49 250l-22 4q-63 -204 -111 -325.5t-101.5 -198t-108.5 -103.5t-134 -27q-129 0 -198.5 79.5t-69.5 271.5q0 83 13.5 167t40 167t70 155t99.5 127.5t133.5 87t167.5 31.5
q148 0 223 -78l12 59q50 19 144 19l45 -37l-107 -899q84 0 187 67zM467 121q72 89 147.5 270t178.5 508q-87 49 -185 49q-64 0 -123 -18q-93 -105 -139.5 -276.5t-46.5 -342.5q0 -111 25 -153.5t86 -42.5q22 0 57 6zM479 1481q45 0 66 -8q20 -45 20 -82q0 -65 -45 -138h-149
l-13 207q54 21 121 21zM874 1481q44 0 68 -8q21 -44 21 -80q0 -59 -48 -140h-147l-14 207q58 21 120 21z" />
    <glyph glyph-name="aring" unicode="&#xe5;" horiz-adv-x="1150" 
d="M1100 190l24 -86q-62 -56 -136.5 -89t-141.5 -33q-125 0 -125 110q0 31 9.5 86t37.5 195t49 250l-22 4q-63 -204 -111 -325.5t-101.5 -198t-108.5 -103.5t-134 -27q-129 0 -198.5 79.5t-69.5 271.5q0 83 13.5 167t40 167t70 155t99.5 127.5t133.5 87t167.5 31.5
q148 0 223 -78l12 59q50 19 144 19l45 -37l-107 -899q84 0 187 67zM467 121q72 89 147.5 270t178.5 508q-87 49 -185 49q-64 0 -123 -18q-93 -105 -139.5 -276.5t-46.5 -342.5q0 -111 25 -153.5t86 -42.5q22 0 57 6zM682 1593q95 0 145 -46t50 -132q0 -103 -66 -163
t-176 -60q-97 0 -148 46t-51 132q0 103 68 163t178 60zM670 1503q-29 0 -49 -10q-39 -46 -39 -125q0 -86 63 -86q30 0 51 12q37 46 37 125q0 84 -63 84z" />
    <glyph glyph-name="ae" unicode="&#xe6;" horiz-adv-x="1546" 
d="M1083 131q69 0 156.5 41t171.5 113l31 -88q-191 -224 -434 -224q-81 0 -139 29.5t-87.5 74.5t-43.5 106.5t-13.5 118.5t10.5 118l-22 6q-25 -82 -44.5 -137.5t-45 -111.5t-52 -90t-61 -62t-77.5 -40t-97 -12q-126 0 -195 80.5t-69 272.5q0 83 13.5 166.5t40 166.5
t70.5 154.5t100.5 127t134.5 87t169 31.5q181 0 285 -119q119 119 303 119q156 0 232.5 -69t76.5 -185q0 -96 -50 -168t-136.5 -112.5t-191 -59t-224.5 -16.5v-37q0 -281 188 -281zM721 674q53 128 110 205q-109 69 -217 69q-71 0 -127 -18q-93 -105 -140.5 -277t-47.5 -342
q0 -112 25 -154t88 -42q9 0 49 4q32 46 60.5 96t56.5 112.5t46 105t50 123.5t47 118zM1051 924q-60 -56 -98 -166.5t-50 -229.5q194 20 284.5 89t90.5 196q0 66 -26 100.5t-89 34.5q-59 0 -112 -24z" />
    <glyph glyph-name="ccedilla" unicode="&#xe7;" horiz-adv-x="905" 
d="M473 133q63 0 143 33.5t162 101.5l31 -90q-143 -162 -324 -196l-12 -115q152 0 152 -119q0 -78 -62.5 -131t-169.5 -53q-122 0 -184 59l22 78q88 -27 123 -27q46 0 74.5 22t28.5 58q0 28 -22.5 40t-94.5 26l41 153q-81 4 -143 39.5t-98.5 94t-55 132t-18.5 160.5
q0 86 17 173.5t57 176t98.5 156.5t150 111t203.5 43q96 0 169 -35t95 -111l-88 -118l-248 151q-34 -5 -74 -22q-52 -50 -88 -144.5t-49.5 -185.5t-13.5 -176q0 -285 178 -285z" />
    <glyph glyph-name="egrave" unicode="&#xe8;" horiz-adv-x="944" 
d="M479 131q70 0 158 40.5t172 113.5l31 -88q-91 -107 -202 -165.5t-232 -58.5q-87 0 -153.5 32.5t-106.5 91t-60 134t-20 166.5q0 87 16.5 175t56.5 177t99 157t151 110.5t205 42.5q150 0 225.5 -69.5t75.5 -186.5q0 -76 -33.5 -137.5t-90 -102t-134.5 -67.5t-164.5 -38
t-181.5 -9v-37q0 -145 50 -213t138 -68zM446 924q-60 -56 -97.5 -166t-49.5 -230q195 20 285 88.5t90 196.5q0 66 -26 100.5t-89 34.5q-61 0 -113 -24zM641 1174h-104l-238 292q55 86 129 117h94z" />
    <glyph glyph-name="eacute" unicode="&#xe9;" horiz-adv-x="944" 
d="M479 131q70 0 158 40.5t172 113.5l31 -88q-91 -107 -202 -165.5t-232 -58.5q-87 0 -153.5 32.5t-106.5 91t-60 134t-20 166.5q0 87 16.5 175t56.5 177t99 157t151 110.5t205 42.5q150 0 225.5 -69.5t75.5 -186.5q0 -76 -33.5 -137.5t-90 -102t-134.5 -67.5t-164.5 -38
t-181.5 -9v-37q0 -145 50 -213t138 -68zM446 924q-60 -56 -97.5 -166t-49.5 -230q195 20 285 88.5t90 196.5q0 66 -26 100.5t-89 34.5q-61 0 -113 -24zM752 1583h94q31 -17 56.5 -49t37.5 -68l-301 -292h-107z" />
    <glyph glyph-name="ecircumflex" unicode="&#xea;" horiz-adv-x="944" 
d="M479 131q70 0 158 40.5t172 113.5l31 -88q-91 -107 -202 -165.5t-232 -58.5q-87 0 -153.5 32.5t-106.5 91t-60 134t-20 166.5q0 87 16.5 175t56.5 177t99 157t151 110.5t205 42.5q150 0 225.5 -69.5t75.5 -186.5q0 -76 -33.5 -137.5t-90 -102t-134.5 -67.5t-164.5 -38
t-181.5 -9v-37q0 -145 50 -213t138 -68zM446 924q-60 -56 -97.5 -166t-49.5 -230q195 20 285 88.5t90 196.5q0 66 -26 100.5t-89 34.5q-61 0 -113 -24zM881 1235l-146 -72l-139 228h-21l-167 -215h-107l289 393h125z" />
    <glyph glyph-name="edieresis" unicode="&#xeb;" horiz-adv-x="944" 
d="M479 131q70 0 158 40.5t172 113.5l31 -88q-91 -107 -202 -165.5t-232 -58.5q-87 0 -153.5 32.5t-106.5 91t-60 134t-20 166.5q0 87 16.5 175t56.5 177t99 157t151 110.5t205 42.5q150 0 225.5 -69.5t75.5 -186.5q0 -76 -33.5 -137.5t-90 -102t-134.5 -67.5t-164.5 -38
t-181.5 -9v-37q0 -145 50 -213t138 -68zM446 924q-60 -56 -97.5 -166t-49.5 -230q195 20 285 88.5t90 196.5q0 66 -26 100.5t-89 34.5q-61 0 -113 -24zM432 1481q45 0 66 -8q20 -45 20 -82q0 -65 -45 -138h-149l-13 207q54 21 121 21zM827 1481q44 0 68 -8q20 -42 20 -80
q0 -61 -47 -140h-147l-14 207q58 21 120 21z" />
    <glyph glyph-name="igrave" unicode="&#xec;" horiz-adv-x="567" 
d="M397 1051l45 -37q-12 -105 -106 -891q77 0 180 67l25 -86q-135 -122 -271 -122q-139 0 -139 129q0 121 90 776l-153 6v90q156 55 329 68zM403 1174h-104l-223 292q55 86 129 117h94z" />
    <glyph glyph-name="iacute" unicode="&#xed;" horiz-adv-x="567" 
d="M397 1051l45 -37q-12 -105 -106 -891q77 0 180 67l25 -86q-135 -122 -271 -122q-139 0 -139 129q0 121 90 776l-153 6v90q156 55 329 68zM467 1583h94q30 -15 56 -47.5t38 -69.5l-254 -292h-106z" />
    <glyph glyph-name="icircumflex" unicode="&#xee;" horiz-adv-x="567" 
d="M397 1051l45 -37q-12 -105 -106 -891q77 0 180 67l25 -86q-135 -122 -271 -122q-139 0 -139 129q0 121 90 776l-153 6v90q156 55 329 68zM612 1249l-143 -65l-107 194h-18l-129 -188h-106l247 379h125z" />
    <glyph glyph-name="idieresis" unicode="&#xef;" horiz-adv-x="567" 
d="M397 1051l45 -37q-12 -105 -106 -891q77 0 180 67l25 -86q-135 -122 -271 -122q-139 0 -139 129q0 121 90 776l-153 6v90q156 55 329 68zM211 1481q44 0 65 -8q21 -37 21 -82q0 -71 -47 -138h-144l-12 207q54 21 117 21zM567 1481q45 0 66 -8q20 -33 20 -82
q0 -68 -45 -138h-143l-14 207q53 21 116 21z" />
    <glyph glyph-name="eth" unicode="&#xf0;" horiz-adv-x="1034" 
d="M881 1464l-193 -110q287 -230 287 -649q0 -114 -19.5 -219.5t-62 -200t-104 -164t-152 -110t-199.5 -40.5q-176 0 -275.5 106t-99.5 306q0 79 15 160.5t51 164.5t88 147.5t133 105t180 40.5q66 0 106.5 -16t82.5 -49l18 6q-30 176 -190 330l-215 -123l-82 51l-6 27
l211 121q-96 71 -211 127l53 77q155 -47 291 -127l209 119l82 -53zM582 111q83 73 125.5 233.5t42.5 372.5q0 9 -5 117q-96 47 -186 47q-57 0 -115 -21q-72 -72 -112.5 -218.5t-40.5 -291.5q0 -268 170 -268q50 0 121 29z" />
    <glyph glyph-name="ntilde" unicode="&#xf1;" horiz-adv-x="1196" 
d="M1133 190l22 -86q-61 -56 -135.5 -89t-142.5 -33q-138 0 -138 124q0 55 51.5 336.5t51.5 358.5q0 61 -25 90t-84 29q-1 0 -51 -5q-184 -226 -365 -915q-65 -18 -153 -18l-45 36l102 869l-153 6v90q148 54 327 68l45 -37l-104 -588l22 -6q51 159 89 261t77.5 180.5t81 119
t88 59.5t109.5 19q244 0 244 -244q0 -28 -3 -65t-10 -88t-13 -93t-18 -111t-18.5 -108t-21 -118t-19.5 -109q76 0 189 67zM981 1485l53 -51q-92 -209 -213 -209q-46 0 -106 37l-121 73l-107 -108l-53 53q17 37 33.5 65.5t43.5 65t62 56.5t74 20q45 0 107 -39l118 -72z" />
    <glyph glyph-name="ograve" unicode="&#xf2;" horiz-adv-x="1048" 
d="M594 1059q99 0 175 -33t122 -92t69 -136t23 -171q0 -84 -17 -170t-57 -174t-98.5 -156t-151 -111t-204.5 -43q-131 0 -219.5 58t-128 153.5t-39.5 223.5q0 83 16.5 168.5t56.5 173.5t98.5 155.5t150.5 110.5t204 43zM569 948q-63 0 -116 -24q-77 -73 -117.5 -240.5
t-40.5 -323.5q0 -141 45.5 -208.5t140.5 -67.5q55 0 117 25q78 72 117 240t39 323q0 144 -44.5 210t-140.5 66zM641 1174h-104l-238 292q55 86 129 117h94z" />
    <glyph glyph-name="oacute" unicode="&#xf3;" horiz-adv-x="1048" 
d="M594 1059q99 0 175 -33t122 -92t69 -136t23 -171q0 -84 -17 -170t-57 -174t-98.5 -156t-151 -111t-204.5 -43q-131 0 -219.5 58t-128 153.5t-39.5 223.5q0 83 16.5 168.5t56.5 173.5t98.5 155.5t150.5 110.5t204 43zM569 948q-63 0 -116 -24q-77 -73 -117.5 -240.5
t-40.5 -323.5q0 -141 45.5 -208.5t140.5 -67.5q55 0 117 25q78 72 117 240t39 323q0 144 -44.5 210t-140.5 66zM752 1583h94q31 -17 56.5 -49t37.5 -68l-301 -292h-107z" />
    <glyph glyph-name="ocircumflex" unicode="&#xf4;" horiz-adv-x="1048" 
d="M594 1059q99 0 175 -33t122 -92t69 -136t23 -171q0 -84 -17 -170t-57 -174t-98.5 -156t-151 -111t-204.5 -43q-131 0 -219.5 58t-128 153.5t-39.5 223.5q0 83 16.5 168.5t56.5 173.5t98.5 155.5t150.5 110.5t204 43zM569 948q-63 0 -116 -24q-77 -73 -117.5 -240.5
t-40.5 -323.5q0 -141 45.5 -208.5t140.5 -67.5q55 0 117 25q78 72 117 240t39 323q0 144 -44.5 210t-140.5 66zM881 1235l-146 -72l-139 228h-21l-167 -215h-107l289 393h125z" />
    <glyph glyph-name="otilde" unicode="&#xf5;" horiz-adv-x="1048" 
d="M594 1059q99 0 175 -33t122 -92t69 -136t23 -171q0 -84 -17 -170t-57 -174t-98.5 -156t-151 -111t-204.5 -43q-131 0 -219.5 58t-128 153.5t-39.5 223.5q0 83 16.5 168.5t56.5 173.5t98.5 155.5t150.5 110.5t204 43zM569 948q-63 0 -116 -24q-77 -73 -117.5 -240.5
t-40.5 -323.5q0 -141 45.5 -208.5t140.5 -67.5q55 0 117 25q78 72 117 240t39 323q0 144 -44.5 210t-140.5 66zM850 1489l53 -51q-92 -209 -213 -209q-46 0 -106 37l-121 73l-107 -108l-53 53q17 37 33.5 65.5t43.5 65t62 56.5t74 20q45 0 107 -39l118 -72z" />
    <glyph glyph-name="odieresis" unicode="&#xf6;" horiz-adv-x="1048" 
d="M594 1059q99 0 175 -33t122 -92t69 -136t23 -171q0 -84 -17 -170t-57 -174t-98.5 -156t-151 -111t-204.5 -43q-131 0 -219.5 58t-128 153.5t-39.5 223.5q0 83 16.5 168.5t56.5 173.5t98.5 155.5t150.5 110.5t204 43zM569 948q-63 0 -116 -24q-77 -73 -117.5 -240.5
t-40.5 -323.5q0 -141 45.5 -208.5t140.5 -67.5q55 0 117 25q78 72 117 240t39 323q0 144 -44.5 210t-140.5 66zM432 1481q45 0 66 -8q20 -45 20 -82q0 -65 -45 -138h-149l-13 207q54 21 121 21zM827 1481q44 0 68 -8q20 -42 20 -80q0 -61 -47 -140h-147l-14 207
q58 21 120 21z" />
    <glyph glyph-name="divide" unicode="&#xf7;" 
d="M713 1128q40 0 82 -10q20 -45 20 -86q0 -75 -53 -160h-172l-12 236q62 20 135 20zM1100 629l-13 -92h-905v45l13 92h905v-45zM621 365q47 0 81 -11q21 -47 21 -86q0 -74 -53 -159h-172l-13 235q65 21 136 21z" />
    <glyph glyph-name="oslash" unicode="&#xf8;" horiz-adv-x="1048" 
d="M1010 1149l-131 -201q104 -113 104 -321q0 -84 -17 -170t-57 -174t-98.5 -156t-151 -111t-204.5 -43q-119 0 -201 45l-123 -182l-84 39l-10 25l127 192q-96 113 -96 316q0 84 16.5 169.5t56.5 173.5t98.5 155.5t150.5 110t204 42.5t192 -41l132 199l83 -41zM451 924
q-79 -73 -120.5 -241t-41.5 -323q0 -46 6 -86l407 625q-46 49 -129 49q-62 0 -122 -24zM604 109q54 50 92 155.5t53 210t15 199.5q0 71 -10 110l-414 -639q49 -61 141 -61q61 0 123 25z" />
    <glyph glyph-name="ugrave" unicode="&#xf9;" horiz-adv-x="1202" 
d="M1151 190l25 -86q-63 -56 -140.5 -89t-144.5 -33q-127 0 -127 112q0 30 9.5 84.5t34 184t44.5 243.5l-25 6q-42 -132 -74 -222.5t-66 -166t-64.5 -120t-68 -75.5t-77.5 -43t-92 -12q-244 0 -244 244q0 27 3 63.5t9.5 86t12.5 90.5t17.5 107t18 104.5t20 113.5t18.5 105
l-154 6v90q171 59 330 68l43 -37q-5 -35 -35 -211.5t-54 -340.5t-24 -229q0 -62 24.5 -90t82.5 -28q31 0 51 4q165 206 366 913q58 19 154 19l45 -37l-104 -891q83 0 186 67zM707 1174h-105l-237 292q55 86 129 117h94z" />
    <glyph glyph-name="uacute" unicode="&#xfa;" horiz-adv-x="1202" 
d="M1151 190l25 -86q-63 -56 -140.5 -89t-144.5 -33q-127 0 -127 112q0 30 9.5 84.5t34 184t44.5 243.5l-25 6q-42 -132 -74 -222.5t-66 -166t-64.5 -120t-68 -75.5t-77.5 -43t-92 -12q-244 0 -244 244q0 27 3 63.5t9.5 86t12.5 90.5t17.5 107t18 104.5t20 113.5t18.5 105
l-154 6v90q171 59 330 68l43 -37q-5 -35 -35 -211.5t-54 -340.5t-24 -229q0 -62 24.5 -90t82.5 -28q31 0 51 4q165 206 366 913q58 19 154 19l45 -37l-104 -891q83 0 186 67zM817 1583h94q31 -18 57 -49.5t38 -67.5l-301 -292h-107z" />
    <glyph glyph-name="ucircumflex" unicode="&#xfb;" horiz-adv-x="1202" 
d="M1151 190l25 -86q-63 -56 -140.5 -89t-144.5 -33q-127 0 -127 112q0 30 9.5 84.5t34 184t44.5 243.5l-25 6q-42 -132 -74 -222.5t-66 -166t-64.5 -120t-68 -75.5t-77.5 -43t-92 -12q-244 0 -244 244q0 27 3 63.5t9.5 86t12.5 90.5t17.5 107t18 104.5t20 113.5t18.5 105
l-154 6v90q171 59 330 68l43 -37q-5 -35 -35 -211.5t-54 -340.5t-24 -229q0 -62 24.5 -90t82.5 -28q31 0 51 4q165 206 366 913q58 19 154 19l45 -37l-104 -891q83 0 186 67zM946 1235l-145 -72l-139 228h-21l-168 -215h-106l288 393h125z" />
    <glyph glyph-name="udieresis" unicode="&#xfc;" horiz-adv-x="1202" 
d="M1151 190l25 -86q-63 -56 -140.5 -89t-144.5 -33q-127 0 -127 112q0 30 9.5 84.5t34 184t44.5 243.5l-25 6q-42 -132 -74 -222.5t-66 -166t-64.5 -120t-68 -75.5t-77.5 -43t-92 -12q-244 0 -244 244q0 27 3 63.5t9.5 86t12.5 90.5t17.5 107t18 104.5t20 113.5t18.5 105
l-154 6v90q171 59 330 68l43 -37q-5 -35 -35 -211.5t-54 -340.5t-24 -229q0 -62 24.5 -90t82.5 -28q31 0 51 4q165 206 366 913q58 19 154 19l45 -37l-104 -891q83 0 186 67zM498 1481q44 0 65 -8q21 -47 21 -82q0 -65 -45 -138h-150l-12 207q54 21 121 21zM893 1481
q44 0 68 -8q20 -42 20 -80q0 -61 -47 -140h-148l-14 207q58 21 121 21z" />
    <glyph glyph-name="yacute" unicode="&#xfd;" horiz-adv-x="1054" 
d="M707 973l137 86q71 -19 113 -85t42 -167q0 -162 -109 -407t-296 -476q-287 -360 -498 -360q-61 0 -120.5 25t-100.5 73l31 94q166 -55 284 -59q120 76 199 170q-144 712 -217 1020l-154 6v90q169 60 297 68l45 -37q150 -651 181 -959h22q88 124 171.5 313t115.5 357z
M768 1583h94q31 -17 56.5 -49t37.5 -68l-301 -292h-106z" />
    <glyph glyph-name="thorn" unicode="&#xfe;" horiz-adv-x="1114" 
d="M774 1059q130 0 199 -78.5t69 -271.5q0 -101 -18 -201.5t-59 -197.5t-100 -171.5t-147.5 -120t-195.5 -45.5q-150 0 -223 76l-49 -463q-56 -22 -162 -22l-45 37l209 1777l-127 29l8 88q127 36 297 47l45 -37l-78 -528q-49 -338 -102 -567l22 -7q42 136 76 232t69 172
t67.5 122.5t71 76.5t79.5 41.5t94 11.5zM631 102q93 105 138.5 276t45.5 343q0 113 -24 156t-86 43q-19 0 -54 -7q-73 -87 -149 -266.5t-183 -511.5q88 -51 191 -51q47 0 121 18z" />
    <glyph glyph-name="ydieresis" unicode="&#xff;" horiz-adv-x="1054" 
d="M707 973l137 86q71 -19 113 -85t42 -167q0 -162 -109 -407t-296 -476q-287 -360 -498 -360q-61 0 -120.5 25t-100.5 73l31 94q166 -55 284 -59q120 76 199 170q-144 712 -217 1020l-154 6v90q169 60 297 68l45 -37q150 -651 181 -959h22q88 124 171.5 313t115.5 357z
M449 1481q44 0 65 -8q21 -47 21 -82q0 -63 -46 -138h-149l-12 207q54 21 121 21zM844 1481q43 0 67 -8q21 -44 21 -80q0 -61 -47 -140h-148l-14 207q58 21 121 21z" />
    <glyph glyph-name="Amacron" unicode="&#x100;" horiz-adv-x="1318" 
d="M1262 98v-45l-7 -53h-507v92q64 30 145 41l-59 262h-453q-51 -124 -111 -284l144 -13v-45l-6 -53h-422v92q65 33 147 41q243 590 502 1141l-21 94l45 37q108 0 172 -21q187 -846 299 -1275zM428 514h379q-59 270 -117 559h-22q-100 -216 -240 -559zM471 1712h543
q4 -12 4 -45q0 -55 -21 -106h-542q-4 16 -4 45q0 62 20 106z" />
    <glyph glyph-name="amacron" unicode="&#x101;" horiz-adv-x="1150" 
d="M1100 190l24 -86q-62 -56 -136.5 -89t-141.5 -33q-125 0 -125 110q0 31 9.5 86t37.5 195t49 250l-22 4q-63 -204 -111 -325.5t-101.5 -198t-108.5 -103.5t-134 -27q-129 0 -198.5 79.5t-69.5 271.5q0 83 13.5 167t40 167t70 155t99.5 127.5t133.5 87t167.5 31.5
q148 0 223 -78l12 59q50 19 144 19l45 -37l-107 -899q84 0 187 67zM467 121q72 89 147.5 270t178.5 508q-87 49 -185 49q-64 0 -123 -18q-93 -105 -139.5 -276.5t-46.5 -342.5q0 -111 25 -153.5t86 -42.5q22 0 57 6zM408 1419h501q4 -8 4 -41q0 -65 -20 -106h-502
q-4 12 -4 41q0 53 21 106z" />
    <glyph glyph-name="Abreve" unicode="&#x102;" horiz-adv-x="1318" 
d="M1262 98v-45l-7 -53h-507v92q64 30 145 41l-59 262h-453q-51 -124 -111 -284l144 -13v-45l-6 -53h-422v92q65 33 147 41q243 590 502 1141l-21 94l45 37q108 0 172 -21q187 -846 299 -1275zM428 514h379q-59 270 -117 559h-22q-100 -216 -240 -559zM459 1751l145 39
q9 -88 46.5 -130t109.5 -42t116.5 41t88.5 129l71 -21q-81 -290 -325 -290q-129 0 -193 74.5t-59 199.5z" />
    <glyph glyph-name="abreve" unicode="&#x103;" horiz-adv-x="1150" 
d="M1100 190l24 -86q-62 -56 -136.5 -89t-141.5 -33q-125 0 -125 110q0 31 9.5 86t37.5 195t49 250l-22 4q-63 -204 -111 -325.5t-101.5 -198t-108.5 -103.5t-134 -27q-129 0 -198.5 79.5t-69.5 271.5q0 83 13.5 167t40 167t70 155t99.5 127.5t133.5 87t167.5 31.5
q148 0 223 -78l12 59q50 19 144 19l45 -37l-107 -899q84 0 187 67zM467 121q72 89 147.5 270t178.5 508q-87 49 -185 49q-64 0 -123 -18q-93 -105 -139.5 -276.5t-46.5 -342.5q0 -111 25 -153.5t86 -42.5q22 0 57 6zM403 1503l146 39q3 -104 33.5 -153.5t101.5 -49.5
t112.5 49.5t75.5 151.5l72 -22q-68 -320 -311 -320q-58 0 -103 18t-70 48t-41.5 69.5t-18 82.5t2.5 87z" />
    <glyph glyph-name="Aogonek" unicode="&#x104;" horiz-adv-x="1318" 
d="M1264 98v-45l-7 -53h-344q-94 -118 -94 -215q0 -107 105 -107q39 0 100 21l6 -78q-82 -57 -188 -57q-100 0 -152.5 48t-52.5 132q0 97 71 191.5t193 168.5q-14 54 -36.5 155t-30.5 136h-453q-51 -124 -111 -284l144 -13v-45l-6 -53h-422v92q65 33 147 41
q243 590 502 1141l-21 94l45 37q108 0 172 -21q187 -846 299 -1273zM428 514h379q-59 270 -117 559h-22q-100 -216 -240 -559z" />
    <glyph glyph-name="aogonek" unicode="&#x105;" horiz-adv-x="1150" 
d="M967 -322q42 0 100 21l8 -78q-75 -57 -192 -57q-101 0 -150 44t-49 116q0 74 52.5 138t133.5 103l-6 21q-14 -3 -26 0q-117 0 -117 106q0 31 9.5 86t37.5 195t49 250l-22 4q-50 -163 -90 -270.5t-80 -186t-83 -119.5t-90 -59.5t-110 -18.5q-130 0 -200 79t-70 272
q0 83 13.5 167t40 167t70 155t99.5 127.5t133.5 87t167.5 31.5q148 0 223 -78l12 59q50 19 144 19l45 -37l-105 -899q82 0 185 67l24 -86q-55 -41 -92.5 -72t-80.5 -75t-65 -89t-22 -89q0 -101 103 -101zM469 121q71 90 146 271t178 507q-87 49 -183 49q-67 0 -123 -18
q-93 -105 -140.5 -277t-47.5 -342q0 -111 25 -153.5t86 -42.5q24 0 59 6z" />
    <glyph glyph-name="Cacute" unicode="&#x106;" horiz-adv-x="1212" 
d="M588 1223q-100 -69 -168 -259t-68 -403q0 -225 78 -323.5t236 -98.5q80 0 186 40t201 120l32 -92q-101 -110 -231.5 -172t-261.5 -62q-246 0 -368 155.5t-122 424.5q0 123 25.5 242t80 226.5t131.5 189t187 130t240 48.5q118 0 207 -52l2 33q74 19 125 19l49 -33
q4 -28 4 -60q0 -101 -37 -303h-133l-16 238q-95 31 -195 31q-93 0 -184 -39zM920 1837h96q30 -15 55.5 -46.5t38.5 -70.5l-311 -243h-115z" />
    <glyph glyph-name="cacute" unicode="&#x107;" horiz-adv-x="905" 
d="M473 133q63 0 143 33.5t162 101.5l31 -90q-86 -98 -191 -151.5t-217 -53.5q-86 0 -152 33.5t-105 93t-58.5 135t-19.5 164.5q0 86 17 173.5t57 176t98.5 156.5t150 111t203.5 43q96 0 169 -35t95 -111l-88 -118l-248 151q-34 -5 -74 -22q-52 -50 -88 -144.5t-49.5 -185.5
t-13.5 -176q0 -285 178 -285zM711 1583h94q31 -17 56.5 -49t37.5 -68l-301 -292h-106z" />
    <glyph glyph-name="Ccircumflex" unicode="&#x108;" horiz-adv-x="1212" 
d="M588 1223q-100 -69 -168 -259t-68 -403q0 -225 78 -323.5t236 -98.5q80 0 186 40t201 120l32 -92q-101 -110 -231.5 -172t-261.5 -62q-246 0 -368 155.5t-122 424.5q0 123 25.5 242t80 226.5t131.5 189t187 130t240 48.5q118 0 207 -52l2 33q74 19 125 19l49 -33
q4 -28 4 -60q0 -101 -37 -303h-133l-16 238q-95 31 -195 31q-93 0 -184 -39zM1063 1536l-143 -82l-164 188h-19l-180 -165h-117l310 342h124z" />
    <glyph glyph-name="ccircumflex" unicode="&#x109;" horiz-adv-x="905" 
d="M473 133q63 0 143 33.5t162 101.5l31 -90q-86 -98 -191 -151.5t-217 -53.5q-86 0 -152 33.5t-105 93t-58.5 135t-19.5 164.5q0 86 17 173.5t57 176t98.5 156.5t150 111t203.5 43q96 0 169 -35t95 -111l-88 -118l-248 151q-34 -5 -74 -22q-52 -50 -88 -144.5t-49.5 -185.5
t-13.5 -176q0 -285 178 -285zM840 1235l-146 -72l-139 228h-20l-168 -215h-107l289 393h125z" />
    <glyph glyph-name="Cdotaccent" unicode="&#x10a;" horiz-adv-x="1212" 
d="M588 1223q-100 -69 -168 -259t-68 -403q0 -225 78 -323.5t236 -98.5q80 0 186 40t201 120l32 -92q-101 -110 -231.5 -172t-261.5 -62q-246 0 -368 155.5t-122 424.5q0 123 25.5 242t80 226.5t131.5 189t187 130t240 48.5q118 0 207 -52l2 33q74 19 125 19l49 -33
q4 -28 4 -60q0 -101 -37 -303h-133l-16 238q-95 31 -195 31q-93 0 -184 -39zM784 1763q44 0 78 -12q23 -52 23 -86q0 -67 -54 -154h-169l-11 226q61 26 133 26z" />
    <glyph glyph-name="cdotaccent" unicode="&#x10b;" horiz-adv-x="905" 
d="M473 133q63 0 143 33.5t162 101.5l31 -90q-86 -98 -191 -151.5t-217 -53.5q-86 0 -152 33.5t-105 93t-58.5 135t-19.5 164.5q0 86 17 173.5t57 176t98.5 156.5t150 111t203.5 43q96 0 169 -35t95 -111l-88 -118l-248 151q-34 -5 -74 -22q-52 -50 -88 -144.5t-49.5 -185.5
t-13.5 -176q0 -285 178 -285zM594 1501q47 0 72 -10q22 -42 22 -84q0 -64 -51 -154h-168l-12 226q73 22 137 22z" />
    <glyph glyph-name="Ccaron" unicode="&#x10c;" horiz-adv-x="1212" 
d="M588 1223q-100 -69 -168 -259t-68 -403q0 -225 78 -323.5t236 -98.5q80 0 186 40t201 120l32 -92q-101 -110 -231.5 -172t-261.5 -62q-246 0 -368 155.5t-122 424.5q0 123 25.5 242t80 226.5t131.5 189t187 130t240 48.5q118 0 207 -52l2 33q74 19 125 19l49 -33
q4 -28 4 -60q0 -101 -37 -303h-133l-16 238q-95 31 -195 31q-93 0 -184 -39zM780 1651h19l182 168h115l-310 -342h-124l-191 282l147 80z" />
    <glyph glyph-name="ccaron" unicode="&#x10d;" horiz-adv-x="905" 
d="M473 133q63 0 143 33.5t162 101.5l31 -90q-86 -98 -191 -151.5t-217 -53.5q-86 0 -152 33.5t-105 93t-58.5 135t-19.5 164.5q0 86 17 173.5t57 176t98.5 156.5t150 111t203.5 43q96 0 169 -35t95 -111l-88 -118l-248 151q-34 -5 -74 -22q-52 -50 -88 -144.5t-49.5 -185.5
t-13.5 -176q0 -285 178 -285zM582 1356h18l170 215h107l-289 -393h-125l-166 333l143 72z" />
    <glyph glyph-name="Dcaron" unicode="&#x10e;" horiz-adv-x="1339" 
d="M629 1376q144 0 254 -27t183.5 -76t120.5 -122.5t67 -160.5t20 -195q0 -75 -9.5 -149t-32.5 -154t-58 -150t-91 -134t-126.5 -109t-168.5 -72t-213 -27h-534v92q85 31 166 43l98 1102l-158 14v45l9 56q245 24 473 24zM848 193q93 103 135.5 269t42.5 353q0 225 -79.5 334
t-268.5 108h-150l-104 -1138h137q174 0 287 74zM774 1651h19l182 168h115l-310 -342h-125l-190 282l147 80z" />
    <glyph glyph-name="dcaron" unicode="&#x10f;" horiz-adv-x="1316" 
d="M1100 190l24 -86q-62 -56 -136.5 -89t-141.5 -33q-125 0 -125 110q0 31 9.5 86t37.5 195t49 250l-22 6q-51 -164 -90.5 -271t-79.5 -186t-82.5 -120.5t-89.5 -60t-111 -18.5q-130 0 -200 79t-70 272q0 100 18 200t59.5 197.5t101 172t149.5 120t198 45.5q139 0 217 -60
l39 379l-127 29l8 88q142 40 299 47l43 -37l-164 -1382q84 0 187 67zM469 121q134 174 328 788q-97 39 -187 39q-67 0 -123 -18q-93 -105 -140.5 -277t-47.5 -342q0 -111 25 -153.5t86 -42.5q24 0 59 6zM1300 1546q62 0 125 -35q-11 -126 -50.5 -225.5t-123.5 -202.5h-84
l64 256v197q23 10 69 10z" />
    <glyph glyph-name="Dcroat" unicode="&#x110;" horiz-adv-x="1363" 
d="M653 1376q144 0 254 -27t183.5 -76t120.5 -122.5t67 -160.5t20 -195t-18.5 -211.5t-68 -212t-125.5 -188.5t-201 -131.5t-285 -51.5h-534v92q98 36 165 43l45 510h-153v39l12 80h152l43 473l-156 14v45l6 56q245 24 473 24zM872 193q93 103 136 269t43 353q0 225 -80 334
t-269 108h-149l-45 -493h244v-39l-13 -80h-243l-47 -526h135q175 0 288 74z" />
    <glyph glyph-name="dcroat" unicode="&#x111;" horiz-adv-x="1153" 
d="M1217 1364v-49l-15 -62h-155l-134 -1130q84 0 187 67l24 -86q-62 -56 -136.5 -89t-141.5 -33q-125 0 -125 110q0 31 9.5 86t37.5 195t49 250l-22 6q-51 -164 -90.5 -271t-79.5 -186t-82.5 -120.5t-89.5 -60t-111 -18.5q-130 0 -200 79t-70 272q0 100 18 200t59.5 197.5
t101 172t149.5 120t198 45.5q138 0 217 -58l27 252h-262v50l14 61h258l14 145q74 23 166 33l45 -37l-16 -141h156zM467 121q71 91 150 280.5t180 507.5q-97 39 -187 39q-67 0 -123 -18q-93 -105 -140.5 -277t-47.5 -342q0 -111 25 -153.5t86 -42.5q22 0 57 6z" />
    <glyph glyph-name="Emacron" unicode="&#x112;" horiz-adv-x="1161" 
d="M520 1249l-43 -495l352 16l19 -43l-14 -104l-367 16l-49 -530h397l74 229l135 -12q4 -58 4 -88q0 -116 -49 -269l-41 -2l-629 33h-272v92q87 32 166 43l98 1102l-156 12v45l9 58q273 10 505 10h295q83 27 127 27l47 -27q5 -40 5 -64q0 -116 -35 -274h-131l-17 207z
M420 1712h543q4 -12 4 -45q0 -55 -21 -106h-543q-4 16 -4 45q0 60 21 106z" />
    <glyph glyph-name="emacron" unicode="&#x113;" horiz-adv-x="944" 
d="M479 131q70 0 158 40.5t172 113.5l31 -88q-91 -107 -202 -165.5t-232 -58.5q-87 0 -153.5 32.5t-106.5 91t-60 134t-20 166.5q0 87 16.5 175t56.5 177t99 157t151 110.5t205 42.5q150 0 225.5 -69.5t75.5 -186.5q0 -76 -33.5 -137.5t-90 -102t-134.5 -67.5t-164.5 -38
t-181.5 -9v-37q0 -145 50 -213t138 -68zM446 924q-60 -56 -97.5 -166t-49.5 -230q195 20 285 88.5t90 196.5q0 66 -26 100.5t-89 34.5q-61 0 -113 -24zM360 1419h502q4 -8 4 -41q0 -65 -20 -106h-502q-4 12 -4 41q0 56 20 106z" />
    <glyph glyph-name="Ebreve" unicode="&#x114;" horiz-adv-x="1161" 
d="M520 1249l-43 -495l352 16l19 -43l-14 -104l-367 16l-49 -530h397l74 229l135 -12q4 -58 4 -88q0 -116 -49 -269l-41 -2l-629 33h-272v92q87 32 166 43l98 1102l-156 12v45l9 58q273 10 505 10h295q83 27 127 27l47 -27q5 -40 5 -64q0 -116 -35 -274h-131l-17 207z
M408 1751l145 39q9 -88 46.5 -130t109.5 -42q71 0 115.5 41t88.5 129l72 -21q-81 -290 -326 -290q-129 0 -192.5 74.5t-58.5 199.5z" />
    <glyph glyph-name="ebreve" unicode="&#x115;" horiz-adv-x="944" 
d="M479 131q70 0 158 40.5t172 113.5l31 -88q-91 -107 -202 -165.5t-232 -58.5q-87 0 -153.5 32.5t-106.5 91t-60 134t-20 166.5q0 87 16.5 175t56.5 177t99 157t151 110.5t205 42.5q150 0 225.5 -69.5t75.5 -186.5q0 -76 -33.5 -137.5t-90 -102t-134.5 -67.5t-164.5 -38
t-181.5 -9v-37q0 -145 50 -213t138 -68zM446 924q-60 -56 -97.5 -166t-49.5 -230q195 20 285 88.5t90 196.5q0 66 -26 100.5t-89 34.5q-61 0 -113 -24zM356 1503l146 39q3 -104 33.5 -153.5t101.5 -49.5t112.5 49.5t75.5 151.5l72 -22q-68 -320 -311 -320q-58 0 -103 18
t-70 48t-41.5 69.5t-18 82.5t2.5 87z" />
    <glyph glyph-name="Edotaccent" unicode="&#x116;" horiz-adv-x="1161" 
d="M520 1249l-43 -495l352 16l19 -43l-14 -104l-367 16l-49 -530h397l74 229l135 -12q4 -58 4 -88q0 -116 -49 -269l-41 -2l-629 33h-272v92q87 32 166 43l98 1102l-156 12v45l9 58q273 10 505 10h295q83 27 127 27l47 -27q5 -40 5 -64q0 -116 -35 -274h-131l-17 207z
M702 1763q44 0 78 -12q23 -52 23 -86q0 -69 -53 -154h-170l-11 226q61 26 133 26z" />
    <glyph glyph-name="edotaccent" unicode="&#x117;" horiz-adv-x="944" 
d="M479 131q70 0 158 40.5t172 113.5l31 -88q-91 -107 -202 -165.5t-232 -58.5q-87 0 -153.5 32.5t-106.5 91t-60 134t-20 166.5q0 87 16.5 175t56.5 177t99 157t151 110.5t205 42.5q150 0 225.5 -69.5t75.5 -186.5q0 -76 -33.5 -137.5t-90 -102t-134.5 -67.5t-164.5 -38
t-181.5 -9v-37q0 -145 50 -213t138 -68zM446 924q-60 -56 -97.5 -166t-49.5 -230q195 20 285 88.5t90 196.5q0 66 -26 100.5t-89 34.5q-61 0 -113 -24zM635 1501q47 0 72 -10q22 -42 22 -84q0 -64 -51 -154h-168l-12 226q73 22 137 22z" />
    <glyph glyph-name="Eogonek" unicode="&#x118;" horiz-adv-x="1161" 
d="M520 1249l-43 -495l352 16l19 -43l-14 -104l-367 16l-49 -530h397l74 229l135 -12q4 -58 4 -88q0 -112 -49 -265h-121q-106 -106 -106 -198q0 -46 27.5 -71.5t74.5 -25.5q46 0 100 21l9 -78q-75 -57 -193 -57q-100 0 -149.5 43t-49.5 117q0 136 168 233v18l-430 25h-272
v92q87 32 166 43l98 1102l-156 12v45l9 58q273 10 505 10h295q83 27 127 27l47 -27q5 -40 5 -64q0 -116 -35 -274h-131l-17 207z" />
    <glyph glyph-name="eogonek" unicode="&#x119;" horiz-adv-x="944" 
d="M479 131q69 0 157 41t173 113l31 -88q-53 -61 -170 -158q-162 -133 -162 -258q0 -50 26 -76.5t74 -26.5q47 0 101 21l8 -78q-75 -57 -191 -57q-101 0 -149.5 43t-48.5 114q0 76 48 134.5t128 113.5l-8 21q-56 -17 -103 -17q-108 0 -183 57.5t-109.5 151.5t-34.5 217
q0 86 16.5 173.5t56.5 176t98.5 156.5t151 111t205.5 43q150 0 225.5 -69.5t75.5 -186.5q0 -76 -33.5 -137.5t-90 -102t-134.5 -67.5t-164.5 -38t-181.5 -9v-37q0 -143 50 -212t138 -69zM446 924q-60 -55 -96.5 -164.5t-50.5 -231.5q195 20 285 88.5t90 196.5
q0 66 -26 100.5t-89 34.5q-61 0 -113 -24z" />
    <glyph glyph-name="Ecaron" unicode="&#x11a;" horiz-adv-x="1161" 
d="M520 1249l-43 -495l352 16l19 -43l-14 -104l-367 16l-49 -530h397l74 229l135 -12q4 -58 4 -88q0 -116 -49 -269l-41 -2l-629 33h-272v92q87 32 166 43l98 1102l-156 12v45l9 58q273 10 505 10h295q83 27 127 27l47 -27q5 -40 5 -64q0 -116 -35 -274h-131l-17 207z
M698 1651h19l182 168h115l-309 -342h-125l-191 282l148 80z" />
    <glyph glyph-name="ecaron" unicode="&#x11b;" horiz-adv-x="944" 
d="M479 131q70 0 158 40.5t172 113.5l31 -88q-91 -107 -202 -165.5t-232 -58.5q-87 0 -153.5 32.5t-106.5 91t-60 134t-20 166.5q0 87 16.5 175t56.5 177t99 157t151 110.5t205 42.5q150 0 225.5 -69.5t75.5 -186.5q0 -76 -33.5 -137.5t-90 -102t-134.5 -67.5t-164.5 -38
t-181.5 -9v-37q0 -145 50 -213t138 -68zM446 924q-60 -56 -97.5 -166t-49.5 -230q195 20 285 88.5t90 196.5q0 66 -26 100.5t-89 34.5q-61 0 -113 -24zM623 1356h18l170 215h107l-289 -393h-125l-166 333l143 72z" />
    <glyph glyph-name="Gcircumflex" unicode="&#x11c;" horiz-adv-x="1290" 
d="M1214 600v-92q-46 -21 -92 -31l-41 -469l-49 -33q-71 0 -121 19l-10 59q-119 -80 -293 -80q-241 0 -374.5 155.5t-133.5 428.5q0 121 26 239t80.5 225.5t131.5 189t188 130t240 48.5q132 0 223 -50l2 31q74 19 125 19l49 -33q4 -28 4 -60q0 -107 -36 -303h-134l-16 240
q-101 29 -203 29q-98 0 -196 -39q-101 -73 -168.5 -267t-67.5 -417q0 -439 305 -439q131 0 242 60l16 327l-149 13v47l8 53h444zM1063 1536l-143 -82l-164 188h-19l-180 -165h-117l310 342h124z" />
    <glyph glyph-name="gcircumflex" unicode="&#x11d;" horiz-adv-x="1007" 
d="M399 215l187 -57q72 -22 115 -37t87 -36t67 -43.5t37.5 -53.5t14.5 -70q0 -53 -23 -104t-71.5 -96.5t-116 -79.5t-163.5 -54t-207 -20q-184 0 -278.5 54t-94.5 157q0 55 26.5 103.5t73.5 85.5t100 64.5t117 49.5q-32 35 -32 88q0 94 96 190q-115 26 -175.5 101t-60.5 188
q0 172 127 293t320 121q128 0 219 -62q53 224 213 224l59 -134l-219 -137q80 -86 80 -213q0 -72 -28.5 -140.5t-82.5 -125t-141.5 -91t-195.5 -34.5h-35zM418 926q-43 -35 -72 -116.5t-29 -168.5q0 -100 44 -143t110 -43q59 0 111 20q40 37 70 120.5t30 170.5
q0 98 -42.5 140t-109.5 42q-52 0 -112 -22zM680 -254q41 41 41 86q0 33 -20.5 54.5t-73.5 39.5l-236 82q-43 15 -72 31q-161 -118 -161 -219q0 -69 58.5 -107.5t166.5 -38.5q78 0 159 18.5t138 53.5zM825 1235l-145 -72l-139 228h-21l-168 -215h-106l289 393h124z" />
    <glyph glyph-name="Gbreve" unicode="&#x11e;" horiz-adv-x="1290" 
d="M1214 600v-92q-46 -21 -92 -31l-41 -469l-49 -33q-71 0 -121 19l-10 59q-119 -80 -293 -80q-241 0 -374.5 155.5t-133.5 428.5q0 121 26 239t80.5 225.5t131.5 189t188 130t240 48.5q132 0 223 -50l2 31q74 19 125 19l49 -33q4 -28 4 -60q0 -107 -36 -303h-134l-16 240
q-101 29 -203 29q-98 0 -196 -39q-101 -73 -168.5 -267t-67.5 -417q0 -439 305 -439q131 0 242 60l16 327l-149 13v47l8 53h444zM489 1751l146 39q9 -88 46.5 -130t109.5 -42q71 0 115.5 41t88.5 129l72 -21q-81 -290 -326 -290q-129 0 -193 74.5t-59 199.5z" />
    <glyph glyph-name="gbreve" unicode="&#x11f;" horiz-adv-x="1007" 
d="M399 215l187 -57q72 -22 115 -37t87 -36t67 -43.5t37.5 -53.5t14.5 -70q0 -53 -23 -104t-71.5 -96.5t-116 -79.5t-163.5 -54t-207 -20q-184 0 -278.5 54t-94.5 157q0 55 26.5 103.5t73.5 85.5t100 64.5t117 49.5q-32 35 -32 88q0 94 96 190q-115 26 -175.5 101t-60.5 188
q0 172 127 293t320 121q128 0 219 -62q53 224 213 224l59 -134l-219 -137q80 -86 80 -213q0 -72 -28.5 -140.5t-82.5 -125t-141.5 -91t-195.5 -34.5h-35zM418 926q-43 -35 -72 -116.5t-29 -168.5q0 -100 44 -143t110 -43q59 0 111 20q40 37 70 120.5t30 170.5
q0 98 -42.5 140t-109.5 42q-52 0 -112 -22zM680 -254q41 41 41 86q0 33 -20.5 54.5t-73.5 39.5l-236 82q-43 15 -72 31q-161 -118 -161 -219q0 -69 58.5 -107.5t166.5 -38.5q78 0 159 18.5t138 53.5zM301 1503l145 39q3 -104 34 -153.5t102 -49.5t112.5 49.5t75.5 151.5
l72 -22q-68 -320 -312 -320q-58 0 -102.5 18t-70 48t-41.5 69.5t-17.5 82.5t2.5 87z" />
    <glyph glyph-name="Gdotaccent" unicode="&#x120;" horiz-adv-x="1290" 
d="M1214 600v-92q-46 -21 -92 -31l-41 -469l-49 -33q-71 0 -121 19l-10 59q-119 -80 -293 -80q-241 0 -374.5 155.5t-133.5 428.5q0 121 26 239t80.5 225.5t131.5 189t188 130t240 48.5q132 0 223 -50l2 31q74 19 125 19l49 -33q4 -28 4 -60q0 -107 -36 -303h-134l-16 240
q-101 29 -203 29q-98 0 -196 -39q-101 -73 -168.5 -267t-67.5 -417q0 -439 305 -439q131 0 242 60l16 327l-149 13v47l8 53h444zM784 1763q44 0 78 -12q23 -52 23 -86q0 -67 -54 -154h-169l-11 226q61 26 133 26z" />
    <glyph glyph-name="gdotaccent" unicode="&#x121;" horiz-adv-x="1007" 
d="M399 215l187 -57q72 -22 115 -37t87 -36t67 -43.5t37.5 -53.5t14.5 -70q0 -53 -23 -104t-71.5 -96.5t-116 -79.5t-163.5 -54t-207 -20q-184 0 -278.5 54t-94.5 157q0 55 26.5 103.5t73.5 85.5t100 64.5t117 49.5q-32 35 -32 88q0 94 96 190q-115 26 -175.5 101t-60.5 188
q0 172 127 293t320 121q128 0 219 -62q53 224 213 224l59 -134l-219 -137q80 -86 80 -213q0 -72 -28.5 -140.5t-82.5 -125t-141.5 -91t-195.5 -34.5h-35zM418 926q-43 -35 -72 -116.5t-29 -168.5q0 -100 44 -143t110 -43q59 0 111 20q40 37 70 120.5t30 170.5
q0 98 -42.5 140t-109.5 42q-52 0 -112 -22zM680 -254q41 41 41 86q0 33 -20.5 54.5t-73.5 39.5l-236 82q-43 15 -72 31q-161 -118 -161 -219q0 -69 58.5 -107.5t166.5 -38.5q78 0 159 18.5t138 53.5zM580 1501q46 0 71 -10q23 -44 23 -84q0 -64 -51 -154h-168l-13 226
q73 22 138 22z" />
    <glyph glyph-name="Gcommaaccent" unicode="&#x122;" horiz-adv-x="1290" 
d="M1214 600v-92q-46 -21 -92 -31l-41 -469l-49 -33q-71 0 -121 19l-10 59q-119 -80 -293 -80q-241 0 -374.5 155.5t-133.5 428.5q0 121 26 239t80.5 225.5t131.5 189t188 130t240 48.5q132 0 223 -50l2 31q74 19 125 19l49 -33q4 -28 4 -60q0 -107 -36 -303h-134l-16 240
q-101 29 -203 29q-98 0 -196 -39q-101 -73 -168.5 -267t-67.5 -417q0 -439 305 -439q131 0 242 60l16 327l-149 13v47l8 53h444zM590 -106q58 0 106 -25q23 -30 23 -94q0 -103 -57.5 -177.5t-167.5 -101.5l-25 58q59 31 88 62.5t29 80.5v24l-80 11l10 153q37 9 74 9z" />
    <glyph glyph-name="gcommaaccent" unicode="&#x123;" horiz-adv-x="1007" 
d="M399 215l187 -57q72 -22 115 -37t87 -36t67 -43.5t37.5 -53.5t14.5 -70q0 -53 -23 -104t-71.5 -96.5t-116 -79.5t-163.5 -54t-207 -20q-184 0 -278.5 54t-94.5 157q0 55 26.5 103.5t73.5 85.5t100 64.5t117 49.5q-32 35 -32 88q0 94 96 190q-115 26 -175.5 101t-60.5 188
q0 172 127 293t320 121q128 0 219 -62q53 224 213 224l59 -134l-219 -137q80 -86 80 -213q0 -72 -28.5 -140.5t-82.5 -125t-141.5 -91t-195.5 -34.5h-35zM418 926q-43 -35 -72 -116.5t-29 -168.5q0 -100 44 -143t110 -43q59 0 111 20q40 37 70 120.5t30 170.5
q0 98 -42.5 140t-109.5 42q-52 0 -112 -22zM680 -254q41 41 41 86q0 33 -20.5 54.5t-73.5 39.5l-236 82q-43 15 -72 31q-161 -118 -161 -219q0 -69 58.5 -107.5t166.5 -38.5q78 0 159 18.5t138 53.5zM653 1589l23 -57q-59 -34 -90 -68.5t-31 -85.5v-22l82 -10l-12 -156
q-37 -6 -74 -6q-62 0 -107 22q-20 29 -20 94q0 106 59.5 184t169.5 105z" />
    <glyph glyph-name="Hcircumflex" unicode="&#x124;" horiz-adv-x="1456" 
d="M1458 1362v-92q-76 -34 -168 -41l-102 -1118l160 -13v-45l-7 -53h-532v92q76 34 162 41l45 510h-545l-49 -532l151 -13v-45l-6 -53h-528v92q80 36 166 43l100 1116l-158 13v45l7 53h534v-92q-69 -29 -164 -41l-43 -467h547l43 489l-151 13v45l6 53h532zM1151 1536
l-143 -82l-164 188h-19l-180 -165h-117l310 342h125z" />
    <glyph glyph-name="hcircumflex" unicode="&#x125;" horiz-adv-x="1183" 
d="M555 1536h-117l260 299h125l160 -238l-143 -84l-135 160h-19zM1118 190l25 -86q-62 -56 -137.5 -89t-143.5 -33q-62 0 -99.5 29.5t-37.5 94.5q0 55 51 336.5t51 358.5q0 61 -24.5 90t-81.5 29q-5 0 -13.5 -1t-21 -2t-22.5 -2q-164 -209 -361 -915q-65 -18 -153 -18
l-46 36l138 1274l-127 27l10 88q139 40 295 47l47 -37l-66 -497q-36 -281 -79 -494l22 -6q51 159 89 260.5t77.5 180t81 119t89 60t110.5 19.5q241 0 241 -244q0 -22 -2 -49.5t-6 -63.5t-8 -68t-11.5 -80t-13 -80.5t-15.5 -89t-15 -86t-16 -90.5t-15 -85q79 0 188 67z" />
    <glyph glyph-name="Hbar" unicode="&#x126;" horiz-adv-x="1507" 
d="M1483 1362v-92q-75 -32 -170 -43l-19 -197h185v-37l-13 -75h-180l-74 -807l158 -13v-45l-6 -53h-533v92q70 31 164 43l39 443h-545l-43 -467l152 -13v-45l-6 -53h-529v92q70 31 164 43l70 783h-180v36l12 76h178l21 221l-158 13v45l6 53h535v-92q-66 -30 -164 -41
l-17 -199h543l21 221l-150 13v45l6 53h533zM1065 918h-545l-20 -224h544z" />
    <glyph glyph-name="hbar" unicode="&#x127;" horiz-adv-x="1185" 
d="M1120 190l25 -86q-62 -56 -137.5 -89t-143.5 -33q-62 0 -99.5 29.5t-37.5 94.5q0 55 51 336.5t51 358.5q0 61 -24.5 90t-81.5 29q-5 0 -13 -1t-19.5 -2t-20.5 -2q-164 -205 -365 -915q-65 -18 -153 -18l-46 36l134 1237h-154v50l14 61h152l14 143q94 25 166 33l45 -37
l-18 -139h286v-49l-14 -62h-287l-43 -335q-36 -281 -79 -494l24 -6q51 159 89 260.5t77.5 180t81 119t89 60t110.5 19.5q241 0 241 -244q0 -22 -2 -49.5t-6 -63.5t-8 -68t-11.5 -80t-13 -80.5t-15.5 -89t-15 -86t-16 -90.5t-15 -85q79 0 188 67z" />
    <glyph glyph-name="Itilde" unicode="&#x128;" horiz-adv-x="690" 
d="M692 1362v-92q-76 -34 -168 -41l-102 -1118l160 -13v-45l-7 -53h-536v92q80 36 166 43l100 1116l-158 13v45l7 53h538zM692 1769l53 -53q-39 -86 -96 -143t-123 -57q-50 0 -102 40l-100 72l-115 -112l-53 53q37 84 94 142t125 58q49 0 104 -40l99 -72z" />
    <glyph glyph-name="itilde" unicode="&#x129;" horiz-adv-x="567" 
d="M397 1051l45 -37q-12 -105 -106 -891q77 0 180 67l25 -86q-135 -122 -271 -122q-139 0 -139 129q0 121 90 776l-153 6v90q156 55 329 68zM596 1487l51 -49q-29 -87 -83.5 -148t-119.5 -61q-43 0 -92 41l-94 71l-100 -110l-54 51q31 87 85 148t118 61q24 0 43.5 -9
t50.5 -32l95 -72z" />
    <glyph glyph-name="Imacron" unicode="&#x12a;" horiz-adv-x="690" 
d="M692 1362v-92q-76 -34 -168 -41l-102 -1118l160 -13v-45l-7 -53h-536v92q80 36 166 43l100 1116l-158 13v45l7 53h538zM190 1712h543q4 -12 4 -45q0 -57 -20 -106h-543q-4 16 -4 45q0 62 20 106z" />
    <glyph glyph-name="imacron" unicode="&#x12b;" horiz-adv-x="567" 
d="M397 1051l45 -37q-12 -105 -106 -891q77 0 180 67l25 -86q-135 -122 -271 -122q-139 0 -139 129q0 121 90 776l-153 6v90q156 55 329 68zM160 1419h432q6 -12 6 -41q0 -59 -23 -106h-432q-4 12 -4 41q0 53 21 106z" />
    <glyph glyph-name="Ibreve" unicode="&#x12c;" horiz-adv-x="690" 
d="M692 1362v-92q-76 -34 -168 -41l-102 -1118l160 -13v-45l-7 -53h-536v92q80 36 166 43l100 1116l-158 13v45l7 53h538zM178 1751l146 39q9 -88 46 -130t109 -42t116.5 41t88.5 129l72 -21q-81 -290 -326 -290q-129 0 -193 74.5t-59 199.5z" />
    <glyph glyph-name="ibreve" unicode="&#x12d;" horiz-adv-x="567" 
d="M397 1051l45 -37q-12 -105 -106 -891q77 0 180 67l25 -86q-135 -122 -271 -122q-139 0 -139 129q0 121 90 776l-153 6v90q156 55 329 68zM147 1501l144 39q0 -102 25.5 -151.5t86.5 -49.5q60 0 96.5 47t73.5 152l72 -20q-77 -320 -285 -320q-116 0 -174.5 85t-38.5 218z
" />
    <glyph glyph-name="Iogonek" unicode="&#x12e;" horiz-adv-x="690" 
d="M692 1362v-92q-81 -34 -168 -41l-102 -1118l160 -13v-45l-7 -53q-280 -85 -280 -231q0 -44 25.5 -67.5t72.5 -23.5q44 0 105 21l6 -78q-77 -57 -189 -57q-100 0 -150 42.5t-50 114.5q0 82 61.5 150.5t161.5 108.5v20h-299v92q69 31 166 43l98 1116l-156 13v45l7 53h538z
" />
    <glyph glyph-name="iogonek" unicode="&#x12f;" horiz-adv-x="567" 
d="M399 1501q47 0 72 -10q23 -44 23 -84q0 -67 -52 -154h-168l-12 226q73 22 137 22zM397 1051l45 -37q-12 -105 -106 -891q77 0 180 67l25 -86q-52 -38 -77.5 -57.5t-70.5 -58.5t-67.5 -68t-41 -68t-18.5 -75q0 -49 27.5 -74t75.5 -25q42 0 100 21l6 -78q-72 -57 -190 -57
q-100 0 -149.5 44.5t-49.5 115.5q0 74 56.5 137t140.5 104l-4 21q-17 -3 -31 0q-117 7 -117 125q0 121 90 776l-153 6v90q156 55 329 68z" />
    <glyph glyph-name="Idotaccent" unicode="&#x130;" horiz-adv-x="690" 
d="M692 1362v-92q-76 -34 -168 -41l-102 -1118l160 -13v-45l-7 -53h-536v92q80 36 166 43l100 1116l-158 13v45l7 53h538zM473 1763q43 0 78 -12q22 -49 22 -86q0 -69 -53 -154h-170l-10 226q61 26 133 26z" />
    <glyph glyph-name="dotlessi" unicode="&#x131;" horiz-adv-x="567" 
d="M397 1051l45 -37q-12 -105 -106 -891q77 0 180 67l25 -86q-135 -122 -271 -122q-139 0 -139 129q0 121 90 776l-153 6v90q156 55 329 68z" />
    <glyph glyph-name="IJ" unicode="&#x132;" horiz-adv-x="1376" 
d="M573 0h-534v92q80 36 166 43l100 1116l-158 13v45l7 53h534v-92q-66 -30 -164 -41l-102 -1118l158 -13v-45zM1386 1362v-92q-76 -32 -167 -43l-93 -1002q-9 -88 -24 -155.5t-43.5 -127.5t-70 -98t-104 -60t-143.5 -22q-92 0 -172 25t-129 66l35 100q171 -38 356 -45
q52 83 72 291l94 1048l-186 13v47l8 55h567z" />
    <glyph glyph-name="ij" unicode="&#x133;" horiz-adv-x="1110" 
d="M1010 1014l-119 -985q-27 -240 -115 -352.5t-237 -112.5q-141 0 -228 84l31 94q5 -1 31 -8t36.5 -9t35 -8t40.5 -8.5t38.5 -5.5t43 -4.5t41.5 -1.5q56 92 72 278l106 912l-151 6v90q154 54 330 68zM936 1501q47 0 72 -10q22 -42 22 -84q0 -64 -51 -154h-168l-12 226
q73 22 137 22zM397 1051l45 -37q-12 -105 -106 -891q77 0 180 67l25 -86q-135 -122 -271 -122q-139 0 -139 129q0 121 90 776l-153 6v90q156 55 329 68zM399 1501q47 0 72 -10q23 -44 23 -84q0 -62 -52 -154h-168l-12 226q73 22 137 22z" />
    <glyph glyph-name="Jcircumflex" unicode="&#x134;" horiz-adv-x="913" 
d="M924 1362v-92q-79 -32 -170 -43l-92 -1002q-8 -89 -23 -156.5t-44 -127t-71.5 -98t-105.5 -60t-146 -21.5q-108 0 -201.5 35.5t-148.5 98.5l39 100q208 -78 406 -88q53 86 71 291l97 1050l-279 11v47l8 55h660zM924 1536l-144 -82l-164 188h-18l-180 -165h-117l309 342
h125z" />
    <glyph glyph-name="jcircumflex" unicode="&#x135;" horiz-adv-x="542" 
d="M442 1014l-118 -985q-27 -240 -115.5 -352.5t-237.5 -112.5q-140 0 -227 84l31 94q5 -1 31 -8t36.5 -9t35 -8t40.5 -8.5t38.5 -5.5t43 -4.5t41.5 -1.5q56 92 72 278l106 912l-151 6v90q155 54 329 68zM582 1249l-144 -65l-106 194h-19l-129 -188h-106l248 379h125z" />
    <glyph glyph-name="Kcommaaccent" unicode="&#x136;" horiz-adv-x="1339" 
d="M1329 1362v-92q-64 -28 -149 -39q-180 -263 -379 -492q70 -180 149.5 -343t147.5 -265l135 6l8 -98q-99 -57 -205 -57q-70 0 -113 30t-77 88q-107 168 -197 529h-180l-47 -518l156 -13v-45l-9 -53h-530v92q80 36 166 43l100 1116l-158 13v45l7 53h538v-92
q-69 -29 -168 -41l-45 -490l195 13q185 236 344 499l-154 13v45l6 53h459zM629 -106q58 0 106 -25q23 -30 23 -94q0 -103 -58 -177.5t-168 -101.5l-24 58q59 31 88 62.5t29 80.5v24l-80 11l10 153q37 9 74 9z" />
    <glyph glyph-name="kcommaaccent" unicode="&#x137;" horiz-adv-x="1159" 
d="M1065 188l25 -86q-57 -55 -127.5 -87.5t-139.5 -32.5q-46 0 -78.5 14t-54.5 46t-35.5 65.5t-29.5 91.5q-48 154 -52 258l113 30q70 69 114 157.5t44 166.5q0 58 -27.5 83.5t-91.5 25.5q-6 0 -14.5 -1t-21.5 -2t-21 -2q-165 -209 -365 -915q-65 -18 -153 -18l-46 36
l146 1360l-127 29l10 88q139 40 295 47l45 -37l-74 -585q-37 -293 -77 -494l22 -6q64 203 112 322t101.5 193t108 99t133.5 25q124 0 198 -58t74 -180q0 -135 -86 -238t-221 -153q69 -206 123 -305q83 8 178 63zM512 -106q58 0 106 -25q23 -30 23 -94q0 -103 -57.5 -177.5
t-167.5 -101.5l-25 58q59 31 88 62.5t29 80.5v24l-80 11l10 153q38 9 74 9z" />
    <glyph glyph-name="kgreenlandic" unicode="&#x138;" horiz-adv-x="1120" 
d="M881 123q74 8 176 67l24 -86q-125 -122 -260 -122q-74 0 -116 42t-78 130q-55 135 -101 323h-151l-60 -477q-61 -18 -151 -18l-45 36l102 869l-153 6v90q67 24 161.5 43.5t165.5 24.5l45 -37l-53 -428l148 4q99 209 214 335t238 126q71 0 105 -27l16 -147l-227 -43
q-100 -100 -201 -228q79 -270 201 -483z" />
    <glyph glyph-name="Lacute" unicode="&#x139;" horiz-adv-x="1071" 
d="M850 338l135 -12q4 -58 4 -88q0 -116 -49 -269l-41 -2l-586 33h-274v92q87 32 166 43l100 1116l-158 13v45l7 53h555v-92q-91 -34 -185 -41l-102 -1120h354zM614 1837h97q30 -15 55.5 -46.5t38.5 -70.5l-311 -243h-115z" />
    <glyph glyph-name="lacute" unicode="&#x13a;" horiz-adv-x="573" 
d="M492 1835h94q68 -40 94 -117l-219 -182h-115zM420 1456l45 -37q-19 -160 -59.5 -474t-64 -520t-26.5 -302q43 0 102.5 18.5t102.5 44.5l25 -88q-59 -52 -137 -84t-148 -32q-147 0 -147 151q0 36 7 113.5t21.5 200t29 241t36.5 297.5t37 309l-127 27l10 88q140 41 293 47z
" />
    <glyph glyph-name="Lcommaaccent" unicode="&#x13b;" horiz-adv-x="1071" 
d="M850 338l135 -12q4 -58 4 -88q0 -116 -49 -269l-41 -2l-586 33h-274v92q87 32 166 43l100 1116l-158 13v45l7 53h555v-92q-91 -34 -185 -41l-102 -1120h354zM457 -106q58 0 106 -25q23 -30 23 -94q0 -103 -58 -177.5t-168 -101.5l-24 58q59 31 88 62.5t29 80.5v24l-80 11
l10 153q38 9 74 9z" />
    <glyph glyph-name="lcommaaccent" unicode="&#x13c;" horiz-adv-x="573" 
d="M432 1542l45 -37q-19 -163 -62.5 -496t-70 -562t-29.5 -324q40 0 99.5 18.5t105.5 44.5l25 -86q-59 -53 -136.5 -85.5t-146.5 -32.5q-149 0 -149 149q0 57 19.5 230t62.5 518.5t61 498.5l-133 29l10 88q139 40 299 47zM215 -106q59 0 107 -25q22 -28 22 -94
q0 -103 -57.5 -177.5t-167.5 -101.5l-25 58q59 31 88 62.5t29 80.5v24l-80 11l10 153q38 9 74 9z" />
    <glyph glyph-name="Lcaron" unicode="&#x13d;" horiz-adv-x="1071" 
d="M850 338l135 -12q4 -58 4 -88q0 -116 -49 -269l-41 -2l-586 33h-274v92q87 32 166 43l100 1116l-158 13v45l7 53h555v-92q-91 -34 -185 -41l-102 -1120h354zM942 1384q64 0 125 -34q-11 -126 -50.5 -225.5t-123.5 -202.5h-84l63 256v196q22 10 70 10z" />
    <glyph glyph-name="lcaron" unicode="&#x13e;" horiz-adv-x="714" 
d="M432 1542l45 -37q-19 -163 -62.5 -496t-70 -562t-29.5 -324q40 0 99.5 18.5t105.5 44.5l25 -86q-59 -53 -136.5 -85.5t-146.5 -32.5q-149 0 -149 149q0 57 19.5 230t62.5 518.5t61 498.5l-133 29l10 88q139 40 299 47zM698 1546q62 0 125 -35q-11 -126 -50.5 -225.5
t-123.5 -202.5h-84l64 256v197q23 10 69 10z" />
    <glyph glyph-name="Ldot" unicode="&#x13f;" horiz-adv-x="1075" 
d="M961 899q55 0 77 -10q23 -44 23 -86q0 -79 -57 -154h-162l-6 230q48 20 125 20zM850 338l135 -12q4 -58 4 -88q0 -116 -49 -269l-41 -2l-586 33h-274v92q87 32 166 43l100 1116l-158 13v45l7 53h555v-92q-91 -34 -185 -41l-102 -1120h354z" />
    <glyph glyph-name="ldot" unicode="&#x140;" horiz-adv-x="634" 
d="M602 852q54 0 74 -10q22 -39 22 -82q0 -75 -51 -156h-153l-11 227q61 21 119 21zM432 1542l45 -37q-19 -163 -62.5 -496t-70 -562t-29.5 -324q40 0 99.5 18.5t105.5 44.5l25 -86q-59 -53 -136.5 -85.5t-146.5 -32.5q-149 0 -149 149q0 57 19.5 230t62.5 518.5t61 498.5
l-133 29l10 88q139 40 299 47z" />
    <glyph glyph-name="Lslash" unicode="&#x141;" horiz-adv-x="1097" 
d="M877 338l135 -12q4 -58 4 -88q0 -116 -49 -269l-41 -2l-586 33h-274v92q89 33 163 43l39 424l-143 -63l-35 22v98l191 84l49 551l-158 13v45l6 53h555v-92q-91 -35 -184 -41l-41 -445l358 160l35 -24v-97l-405 -180l-50 -534h357z" />
    <glyph glyph-name="lslash" unicode="&#x142;" horiz-adv-x="612" 
d="M610 819l-221 -170q-50 -402 -53 -526q40 0 99.5 18.5t105.5 44.5l24 -86q-59 -53 -136 -85.5t-146 -32.5q-150 0 -150 149q0 57 35 365l-117 -88l-35 24v96l172 129q69 556 88 721l-133 29l11 88q139 40 299 47l45 -37q-36 -303 -88 -692l165 127l35 -22v-99z" />
    <glyph glyph-name="Nacute" unicode="&#x143;" horiz-adv-x="1443" 
d="M1454 1362v-92q-76 -35 -170 -43l-113 -1223q-68 -20 -165 -27l-41 7l-379 839q-80 183 -148 377h-20l-70 -1087l162 -15v-45l-6 -53h-463v92q84 36 164 43l100 1100l-158 16v45l7 54q228 12 438 12l311 -690q77 -173 162 -398h22l54 975l-168 15v45l6 53h475zM995 1837
h97q30 -15 55.5 -46.5t38.5 -70.5l-312 -243h-114z" />
    <glyph glyph-name="nacute" unicode="&#x144;" horiz-adv-x="1196" 
d="M1133 190l22 -86q-61 -56 -135.5 -89t-142.5 -33q-138 0 -138 124q0 55 51.5 336.5t51.5 358.5q0 61 -25 90t-84 29q-1 0 -51 -5q-184 -226 -365 -915q-65 -18 -153 -18l-45 36l102 869l-153 6v90q148 54 327 68l45 -37l-104 -588l22 -6q51 159 89 261t77.5 180.5t81 119
t88 59.5t109.5 19q244 0 244 -244q0 -28 -3 -65t-10 -88t-13 -93t-18 -111t-18.5 -108t-21 -118t-19.5 -109q76 0 189 67zM883 1579h94q31 -17 56.5 -49t37.5 -68l-301 -293h-106z" />
    <glyph glyph-name="Ncommaaccent" unicode="&#x145;" horiz-adv-x="1443" 
d="M1454 1362v-92q-76 -35 -170 -43l-113 -1223q-68 -20 -165 -27l-41 7l-379 839q-80 183 -148 377h-20l-70 -1087l162 -15v-45l-6 -53h-463v92q84 36 164 43l100 1100l-158 16v45l7 54q228 12 438 12l311 -690q77 -173 162 -398h22l54 975l-168 15v45l6 53h475zM649 -106
q59 0 107 -25q22 -28 22 -94q0 -103 -57.5 -177.5t-167.5 -101.5l-25 58q59 31 88 62.5t29 80.5v24l-80 11l10 153q37 9 74 9z" />
    <glyph glyph-name="ncommaaccent" unicode="&#x146;" horiz-adv-x="1196" 
d="M1133 190l22 -86q-61 -56 -135.5 -89t-142.5 -33q-138 0 -138 124q0 55 51.5 336.5t51.5 358.5q0 61 -25 90t-84 29q-1 0 -51 -5q-184 -226 -365 -915q-65 -18 -153 -18l-45 36l102 869l-153 6v90q148 54 327 68l45 -37l-104 -588l22 -6q51 159 89 261t77.5 180.5t81 119
t88 59.5t109.5 19q244 0 244 -244q0 -28 -3 -65t-10 -88t-13 -93t-18 -111t-18.5 -108t-21 -118t-19.5 -109q76 0 189 67zM528 -106q59 0 107 -25q22 -28 22 -94q0 -103 -57.5 -177.5t-167.5 -101.5l-24 58q59 31 87.5 62.5t28.5 80.5v24l-80 11l11 153q37 9 73 9z" />
    <glyph glyph-name="Ncaron" unicode="&#x147;" horiz-adv-x="1443" 
d="M1454 1362v-92q-76 -35 -170 -43l-113 -1223q-68 -20 -165 -27l-41 7l-379 839q-80 183 -148 377h-20l-70 -1087l162 -15v-45l-6 -53h-463v92q84 36 164 43l100 1100l-158 16v45l7 54q228 12 438 12l311 -690q77 -173 162 -398h22l54 975l-168 15v45l6 53h475zM856 1651
h18l183 168h114l-309 -342h-125l-190 282l147 80z" />
    <glyph glyph-name="ncaron" unicode="&#x148;" horiz-adv-x="1196" 
d="M1133 190l22 -86q-61 -56 -135.5 -89t-142.5 -33q-138 0 -138 124q0 55 51.5 336.5t51.5 358.5q0 61 -25 90t-84 29q-1 0 -51 -5q-184 -226 -365 -915q-65 -18 -153 -18l-45 36l102 869l-153 6v90q148 54 327 68l45 -37l-104 -588l22 -6q51 159 89 261t77.5 180.5t81 119
t88 59.5t109.5 19q244 0 244 -244q0 -28 -3 -65t-10 -88t-13 -93t-18 -111t-18.5 -108t-21 -118t-19.5 -109q76 0 189 67zM754 1352h18l170 215h107l-289 -393h-125l-166 333l143 72z" />
    <glyph glyph-name="napostrophe" unicode="&#x149;" horiz-adv-x="1200" 
d="M1137 190l22 -86q-61 -56 -135.5 -89t-142.5 -33q-138 0 -138 124q0 55 51.5 336.5t51.5 358.5q0 61 -25 90t-84 29q-1 0 -51 -5q-182 -224 -364 -915q-64 -18 -154 -18l-45 36l102 869l-153 6v90q148 54 327 68l45 -37l-104 -588l22 -6q51 159 89 261t77.5 180.5t81 119
t88 59.5t109.5 19q244 0 244 -244q0 -28 -3 -65t-10 -88t-13 -93t-18 -111t-18.5 -108t-21 -118t-19.5 -109q76 0 189 67zM117 1542q59 0 106 -24q23 -30 23 -95q0 -102 -58 -176.5t-168 -101.5l-24 57q59 31 88 63t29 81v24l-80 10l10 154q33 8 74 8z" />
    <glyph glyph-name="Eng" unicode="&#x14a;" horiz-adv-x="1443" 
d="M1454 1362v-92q-65 -30 -170 -43l-92 -1002q-10 -112 -30.5 -191t-60 -143.5t-106 -96.5t-161.5 -32q-89 0 -167 28.5t-122 78.5l39 98q180 -53 346 -59q25 33 41 78l-383 837q-84 188 -150 377h-20l-70 -1089l141 -13v-45l-6 -53h-442v92q84 36 164 43l100 1100l-158 16
v45l7 54q228 12 438 12l305 -684q100 -223 166 -399h22l54 970l-166 15v45l6 53h475z" />
    <glyph glyph-name="eng" unicode="&#x14b;" horiz-adv-x="1183" 
d="M807 1059q240 0 240 -254q0 -61 -16 -193.5t-75 -582.5q-32 -243 -119 -354t-233 -111q-142 0 -229 84l31 94q5 -1 31 -8t36.5 -9t35 -8t40 -8.5t38 -5.5t43 -4.5t40.5 -1.5q49 83 73 278q62 455 80.5 606.5t18.5 211.5q0 67 -24 97t-85 30q-4 0 -11.5 -1t-19 -2
t-18.5 -2q-167 -209 -367 -915q-65 -18 -153 -18l-45 36l102 869l-153 6v90q148 54 327 68l45 -37l-104 -588l22 -6q42 132 73.5 219.5t65.5 164.5t65 121.5t69 77t80 44.5t96 12z" />
    <glyph glyph-name="Omacron" unicode="&#x14c;" horiz-adv-x="1384" 
d="M793 1389q253 0 390.5 -157.5t137.5 -428.5q0 -121 -25.5 -238t-80.5 -224.5t-134.5 -189t-195.5 -130t-254 -48.5q-253 0 -391 157.5t-138 428.5q0 122 25 239t80 224.5t134.5 188.5t195.5 129.5t256 48.5zM768 1262q-89 0 -180 -39q-101 -70 -169.5 -263t-68.5 -419
q0 -441 305 -441q88 0 179 39q101 70 169 263t68 419q0 441 -303 441zM543 1712h542q5 -15 5 -45q0 -55 -21 -106h-543q-4 16 -4 45q0 60 21 106z" />
    <glyph glyph-name="omacron" unicode="&#x14d;" horiz-adv-x="1048" 
d="M594 1059q99 0 175 -33t122 -92t69 -136t23 -171q0 -84 -17 -170t-57 -174t-98.5 -156t-151 -111t-204.5 -43q-131 0 -219.5 58t-128 153.5t-39.5 223.5q0 83 16.5 168.5t56.5 173.5t98.5 155.5t150.5 110.5t204 43zM569 948q-63 0 -116 -24q-77 -73 -117.5 -240.5
t-40.5 -323.5q0 -141 45.5 -208.5t140.5 -67.5q55 0 117 25q78 72 117 240t39 323q0 144 -44.5 210t-140.5 66zM360 1419h502q4 -8 4 -41q0 -65 -20 -106h-502q-4 12 -4 41q0 56 20 106z" />
    <glyph glyph-name="Obreve" unicode="&#x14e;" horiz-adv-x="1384" 
d="M793 1389q253 0 390.5 -157.5t137.5 -428.5q0 -121 -25.5 -238t-80.5 -224.5t-134.5 -189t-195.5 -130t-254 -48.5q-253 0 -391 157.5t-138 428.5q0 122 25 239t80 224.5t134.5 188.5t195.5 129.5t256 48.5zM768 1262q-89 0 -180 -39q-101 -70 -169.5 -263t-68.5 -419
q0 -441 305 -441q88 0 179 39q101 70 169 263t68 419q0 441 -303 441zM530 1751l146 39q9 -88 46 -130t109 -42t116.5 41t88.5 129l72 -21q-81 -290 -326 -290q-129 0 -193 74.5t-59 199.5z" />
    <glyph glyph-name="obreve" unicode="&#x14f;" horiz-adv-x="1048" 
d="M594 1059q99 0 175 -33t122 -92t69 -136t23 -171q0 -84 -17 -170t-57 -174t-98.5 -156t-151 -111t-204.5 -43q-131 0 -219.5 58t-128 153.5t-39.5 223.5q0 83 16.5 168.5t56.5 173.5t98.5 155.5t150.5 110.5t204 43zM569 948q-63 0 -116 -24q-77 -73 -117.5 -240.5
t-40.5 -323.5q0 -141 45.5 -208.5t140.5 -67.5q55 0 117 25q78 72 117 240t39 323q0 144 -44.5 210t-140.5 66zM356 1503l146 39q3 -104 33.5 -153.5t101.5 -49.5t112.5 49.5t75.5 151.5l72 -22q-68 -320 -311 -320q-58 0 -103 18t-70 48t-41.5 69.5t-18 82.5t2.5 87z" />
    <glyph glyph-name="Ohungarumlaut" unicode="&#x150;" horiz-adv-x="1384" 
d="M793 1389q253 0 390.5 -157.5t137.5 -428.5q0 -121 -25.5 -238t-80.5 -224.5t-134.5 -189t-195.5 -130t-254 -48.5q-253 0 -391 157.5t-138 428.5q0 122 25 239t80 224.5t134.5 188.5t195.5 129.5t256 48.5zM768 1262q-89 0 -180 -39q-101 -70 -169.5 -263t-68.5 -419
q0 -441 305 -441q88 0 179 39q101 70 169 263t68 419q0 441 -303 441zM659 1817h86q67 -25 99 -97l-191 -243h-102zM989 1817h88q61 -23 99 -97l-191 -243h-102z" />
    <glyph glyph-name="ohungarumlaut" unicode="&#x151;" horiz-adv-x="1048" 
d="M594 1059q99 0 175 -33t122 -92t69 -136t23 -171q0 -84 -17 -170t-57 -174t-98.5 -156t-151 -111t-204.5 -43q-131 0 -219.5 58t-128 153.5t-39.5 223.5q0 83 16.5 168.5t56.5 173.5t98.5 155.5t150.5 110.5t204 43zM569 948q-63 0 -116 -24q-77 -73 -117.5 -240.5
t-40.5 -323.5q0 -141 45.5 -208.5t140.5 -67.5q55 0 117 25q78 72 117 240t39 323q0 144 -44.5 210t-140.5 66zM496 1583h88q67 -21 108 -96l-233 -313h-94zM819 1583h86q73 -21 111 -96l-234 -313h-92z" />
    <glyph glyph-name="OE" unicode="&#x152;" horiz-adv-x="1843" 
d="M1202 1249l-43 -495l352 16l19 -43l-14 -104l-367 16l-47 -530h395l74 229l135 -12q4 -58 4 -88q0 -112 -47 -263v-6l-43 -2l-627 33h-96q-156 -27 -258 -27q-258 0 -396.5 156t-138.5 440q0 120 24.5 234.5t79 221.5t133.5 187t197 128.5t261 48.5q105 0 223 -27h614
q83 27 127 27l47 -27q5 -40 5 -64q0 -116 -35 -274h-131l-17 207zM883 143l96 1071q-86 48 -199 48q-95 0 -190 -39q-101 -70 -169.5 -263t-68.5 -421q0 -98 15 -174t49.5 -137.5t97.5 -94.5t152 -33q128 0 217 43z" />
    <glyph glyph-name="oe" unicode="&#x153;" horiz-adv-x="1603" 
d="M1141 131q68 0 155.5 40.5t171.5 113.5l31 -88q-89 -104 -199.5 -164t-226.5 -60q-199 0 -260 197h-20q-63 -97 -143.5 -147t-200.5 -50q-127 0 -214.5 58t-127 154t-39.5 223q0 83 16.5 169t56 174t97 155.5t147.5 110t199 42.5q117 0 185 -49t110 -150h22
q65 101 149.5 150t204.5 49q149 0 224 -69t75 -185q0 -97 -51 -169.5t-138.5 -112.5t-191 -58t-221.5 -16v-37q0 -145 50 -213t139 -68zM598 109q78 72 117 240t39 323q0 144 -44.5 210t-140.5 66q-63 0 -116 -24q-77 -73 -117.5 -240.5t-40.5 -323.5q0 -141 45.5 -208.5
t140.5 -67.5q55 0 117 25zM1108 924q-61 -56 -98.5 -165t-51.5 -231q194 20 285.5 88t91.5 197q0 66 -25.5 100.5t-88.5 34.5q-61 0 -113 -24z" />
    <glyph glyph-name="Racute" unicode="&#x154;" horiz-adv-x="1255" 
d="M1200 137l10 -98q-99 -57 -206 -57q-72 0 -114.5 30.5t-76.5 87.5q-95 152 -180 463h-174l-39 -452l164 -13v-45l-9 -53h-536v92q71 33 166 41l98 1104l-156 14v45l7 56q246 24 454 24q269 -1 390.5 -92t121.5 -266q0 -150 -80.5 -255.5t-216.5 -164.5q135 -315 244 -467
zM469 686h254q151 119 151 330q0 123 -61.5 179t-194.5 56h-100zM811 1837h96q30 -15 55.5 -46.5t38.5 -70.5l-311 -243h-115z" />
    <glyph glyph-name="racute" unicode="&#x155;" horiz-adv-x="815" 
d="M815 831l-180 15q-77 -128 -149.5 -324t-166.5 -522q-65 -18 -155 -18l-45 36l102 869l-153 6v90q149 55 323 68l43 -37l-104 -600l22 -4q37 123 63 204t56.5 161.5t57 127.5t58 85.5t66.5 54.5t76 16q75 0 115 -64zM696 1579h95q31 -17 56.5 -49t37.5 -68l-301 -293
h-107z" />
    <glyph glyph-name="Rcommaaccent" unicode="&#x156;" horiz-adv-x="1255" 
d="M1200 137l10 -98q-99 -57 -206 -57q-72 0 -114.5 30.5t-76.5 87.5q-95 152 -180 463h-174l-39 -452l164 -13v-45l-9 -53h-536v92q71 33 166 41l98 1104l-156 14v45l7 56q246 24 454 24q269 -1 390.5 -92t121.5 -266q0 -150 -80.5 -255.5t-216.5 -164.5q135 -315 244 -467
zM469 686h254q151 119 151 330q0 123 -61.5 179t-194.5 56h-100zM621 -106q58 0 106 -25q23 -30 23 -94q0 -103 -58 -177.5t-168 -101.5l-24 58q59 31 87.5 62.5t28.5 80.5v24l-79 11l10 153q37 9 74 9z" />
    <glyph glyph-name="rcommaaccent" unicode="&#x157;" horiz-adv-x="815" 
d="M815 831l-180 15q-77 -128 -149.5 -324t-166.5 -522q-65 -18 -155 -18l-45 36l102 869l-153 6v90q149 55 323 68l43 -37l-104 -600l22 -4q37 123 63 204t56.5 161.5t57 127.5t58 85.5t66.5 54.5t76 16q75 0 115 -64zM211 -106q58 0 106 -25q23 -30 23 -94
q0 -103 -57.5 -177.5t-167.5 -101.5l-25 58q59 31 88 62.5t29 80.5v24l-80 11l10 153q37 9 74 9z" />
    <glyph glyph-name="Rcaron" unicode="&#x158;" horiz-adv-x="1255" 
d="M1200 137l10 -98q-99 -57 -206 -57q-72 0 -114.5 30.5t-76.5 87.5q-95 152 -180 463h-174l-39 -452l164 -13v-45l-9 -53h-536v92q71 33 166 41l98 1104l-156 14v45l7 56q246 24 454 24q269 -1 390.5 -92t121.5 -266q0 -150 -80.5 -255.5t-216.5 -164.5q135 -315 244 -467
zM469 686h254q151 119 151 330q0 123 -61.5 179t-194.5 56h-100zM715 1651h18l182 168h115l-309 -342h-125l-190 282l147 80z" />
    <glyph glyph-name="rcaron" unicode="&#x159;" horiz-adv-x="815" 
d="M815 831l-180 15q-77 -128 -149.5 -324t-166.5 -522q-65 -18 -155 -18l-45 36l102 869l-153 6v90q149 55 323 68l43 -37l-104 -600l22 -4q37 123 63 204t56.5 161.5t57 127.5t58 85.5t66.5 54.5t76 16q75 0 115 -64zM567 1352h19l170 215h106l-289 -393h-124l-166 333
l143 72z" />
    <glyph glyph-name="Sacute" unicode="&#x15a;" horiz-adv-x="1054" 
d="M600 801l68 -43q63 -42 106 -77.5t86 -86t64.5 -113.5t21.5 -137t-23 -136.5t-74.5 -117t-147.5 -86t-228 -31.5q-213 0 -385 82q-14 80 -14 158q0 90 14 178l139 10l56 -272q80 -31 188 -31q122 0 178 35q62 59 62 164q0 48 -12.5 85.5t-41.5 69.5t-57 53.5t-78 53.5
l-69 47q-139 92 -208 189t-69 219q0 167 113.5 271t296.5 104q117 0 213 -54l4 35q74 19 125 19l49 -33q4 -28 4 -60q0 -110 -37 -280h-133l-16 219q-95 29 -185 29q-81 0 -137 -23q-80 -59 -80 -168q0 -36 11 -69t27 -57.5t46.5 -52t55.5 -46t67 -47.5zM803 1837h96
q30 -15 55.5 -46.5t38.5 -70.5l-311 -243h-115z" />
    <glyph glyph-name="sacute" unicode="&#x15b;" horiz-adv-x="811" 
d="M498 580q110 -91 161.5 -160t51.5 -160q0 -128 -100.5 -207.5t-266.5 -79.5q-122 0 -206.5 44.5t-106.5 134.5l98 116l268 -184q34 4 82 25q31 38 31 102q-1 62 -34 104t-130 123q-118 102 -153 143q-74 87 -74 185q0 135 108.5 214t272.5 79q107 0 184.5 -37t99.5 -111
l-86 -114l-254 151q-43 -2 -88 -22q-41 -48 -41 -115q0 -13 2 -25.5t4.5 -22t10 -21.5t11.5 -20t17 -21t19 -19.5t24.5 -22.5t27 -23t32.5 -27t35 -29zM645 1583h94q31 -18 57 -49.5t38 -67.5l-302 -292h-106z" />
    <glyph glyph-name="Scircumflex" unicode="&#x15c;" horiz-adv-x="1054" 
d="M600 801l68 -43q63 -42 106 -77.5t86 -86t64.5 -113.5t21.5 -137t-23 -136.5t-74.5 -117t-147.5 -86t-228 -31.5q-213 0 -385 82q-14 80 -14 158q0 90 14 178l139 10l56 -272q80 -31 188 -31q122 0 178 35q62 59 62 164q0 48 -12.5 85.5t-41.5 69.5t-57 53.5t-78 53.5
l-69 47q-139 92 -208 189t-69 219q0 167 113.5 271t296.5 104q117 0 213 -54l4 35q74 19 125 19l49 -33q4 -28 4 -60q0 -110 -37 -280h-133l-16 219q-95 29 -185 29q-81 0 -137 -23q-80 -59 -80 -168q0 -36 11 -69t27 -57.5t46.5 -52t55.5 -46t67 -47.5zM946 1536l-143 -82
l-164 188h-18l-181 -165h-116l309 342h125z" />
    <glyph glyph-name="scircumflex" unicode="&#x15d;" horiz-adv-x="811" 
d="M498 580q110 -91 161.5 -160t51.5 -160q0 -128 -100.5 -207.5t-266.5 -79.5q-122 0 -206.5 44.5t-106.5 134.5l98 116l268 -184q34 4 82 25q31 38 31 102q-1 62 -34 104t-130 123q-118 102 -153 143q-74 87 -74 185q0 135 108.5 214t272.5 79q107 0 184.5 -37t99.5 -111
l-86 -114l-254 151q-43 -2 -88 -22q-41 -48 -41 -115q0 -13 2 -25.5t4.5 -22t10 -21.5t11.5 -20t17 -21t19 -19.5t24.5 -22.5t27 -23t32.5 -27t35 -29zM774 1235l-145 -72l-140 228h-20l-168 -215h-106l288 393h125z" />
    <glyph glyph-name="Scedilla" unicode="&#x15e;" horiz-adv-x="1054" 
d="M600 801l68 -43q63 -42 106 -77.5t86 -86t64.5 -113.5t21.5 -137q0 -69 -20.5 -128.5t-65 -112t-126.5 -86.5t-195 -42l-13 -108q152 0 152 -119q0 -78 -62.5 -131t-169.5 -53q-122 0 -184 59l23 78q88 -27 123 -27q46 0 74 21.5t28 58.5q0 28 -22.5 40t-94.5 26l41 155
q-192 5 -346 80q-14 80 -14 158q0 90 14 178l139 10l56 -272q80 -31 188 -31q122 0 178 35q62 59 62 164q0 48 -12.5 85.5t-41.5 69.5t-57 53.5t-78 53.5l-69 47q-139 92 -208 189t-69 219q0 167 113.5 271t296.5 104q117 0 213 -54l4 35q74 19 125 19l49 -33q4 -28 4 -60
q0 -110 -37 -280h-133l-16 219q-95 29 -185 29q-81 0 -137 -23q-80 -59 -80 -168q0 -36 11 -69t27 -57.5t46.5 -52t55.5 -46t67 -47.5z" />
    <glyph glyph-name="scedilla" unicode="&#x15f;" horiz-adv-x="811" 
d="M498 580q110 -91 161.5 -160t51.5 -160q0 -119 -86 -196t-232 -89l-12 -108q151 0 151 -119q0 -78 -62 -131t-169 -53q-122 0 -184 59l22 78q88 -27 123 -27q46 0 74.5 22t28.5 58q0 28 -22.5 40t-94.5 26l41 155q-102 9 -170.5 53t-87.5 124l98 116l268 -184q34 4 82 25
q31 38 31 102q-1 62 -34 104t-130 123q-118 102 -153 143q-74 87 -74 185q0 135 108.5 214t272.5 79q107 0 184.5 -37t99.5 -111l-86 -114l-254 151q-43 -2 -88 -22q-41 -48 -41 -115q0 -13 2 -25.5t4.5 -22t10 -21.5t11.5 -20t17 -21t19 -19.5t24.5 -22.5t27 -23t32.5 -27
t35 -29z" />
    <glyph glyph-name="Scaron" unicode="&#x160;" horiz-adv-x="1054" 
d="M600 801l68 -43q63 -42 106 -77.5t86 -86t64.5 -113.5t21.5 -137t-23 -136.5t-74.5 -117t-147.5 -86t-228 -31.5q-213 0 -385 82q-14 80 -14 158q0 90 14 178l139 10l56 -272q80 -31 188 -31q122 0 178 35q62 59 62 164q0 48 -12.5 85.5t-41.5 69.5t-57 53.5t-78 53.5
l-69 47q-139 92 -208 189t-69 219q0 167 113.5 271t296.5 104q117 0 213 -54l4 35q74 19 125 19l49 -33q4 -28 4 -60q0 -110 -37 -280h-133l-16 219q-95 29 -185 29q-81 0 -137 -23q-80 -59 -80 -168q0 -36 11 -69t27 -57.5t46.5 -52t55.5 -46t67 -47.5zM664 1651h18
l182 168h115l-309 -342h-125l-191 282l148 80z" />
    <glyph glyph-name="scaron" unicode="&#x161;" horiz-adv-x="811" 
d="M498 580q110 -91 161.5 -160t51.5 -160q0 -128 -100.5 -207.5t-266.5 -79.5q-122 0 -206.5 44.5t-106.5 134.5l98 116l268 -184q34 4 82 25q31 38 31 102q-1 62 -34 104t-130 123q-118 102 -153 143q-74 87 -74 185q0 135 108.5 214t272.5 79q107 0 184.5 -37t99.5 -111
l-86 -114l-254 151q-43 -2 -88 -22q-41 -48 -41 -115q0 -13 2 -25.5t4.5 -22t10 -21.5t11.5 -20t17 -21t19 -19.5t24.5 -22.5t27 -23t32.5 -27t35 -29zM516 1356h19l170 215h106l-289 -393h-125l-166 333l144 72z" />
    <glyph glyph-name="Tcommaaccent" unicode="&#x162;" horiz-adv-x="1142" 
d="M1124 1389l47 -27q5 -40 5 -64q0 -116 -35 -274h-131l-17 209l-227 14l-102 -1136l172 -13v-45l-7 -53h-235l-14 -133q151 0 151 -119q0 -78 -62 -131t-169 -53q-123 0 -185 59l23 78q88 -27 123 -27q46 0 74 21.5t28 58.5q0 28 -22.5 40t-94.5 26l48 180h-238v92
q87 34 186 41l103 1120h-217l-74 -235l-125 10q-4 58 -4 88q0 137 47 277h2l41 2l451 -33h331q83 27 127 27z" />
    <glyph glyph-name="tcommaaccent" unicode="&#x163;" horiz-adv-x="706" 
d="M702 1010v-52l-16 -67h-260q-80 -641 -84 -776q127 0 276 67l25 -86q-60 -48 -143 -80.5t-160 -40.5l-12 -108q151 0 151 -119q0 -78 -62.5 -131t-170.5 -53q-120 0 -185 59l25 78q88 -27 121 -27q46 0 74 21.5t28 58.5q0 28 -21.5 40t-92.5 26l43 160q-99 25 -99 163
q0 79 25.5 300t60.5 434l-123 16v90q77 25 148 39q20 107 49 219q75 30 143 39l31 -31l-31 -239h260z" />
    <glyph glyph-name="Tcaron" unicode="&#x164;" horiz-adv-x="1142" 
d="M1124 1389l47 -27q5 -40 5 -64q0 -116 -35 -274h-131l-17 209l-227 14l-102 -1136l172 -13v-45l-7 -53h-573v92q87 34 186 41l103 1120h-217l-74 -235l-125 10q-4 58 -4 88q0 137 47 277h2l41 2l451 -33h331q83 27 127 27zM711 1651h18l182 168h115l-309 -342h-125
l-191 282l148 80z" />
    <glyph glyph-name="tcaron" unicode="&#x165;" horiz-adv-x="729" 
d="M702 1010v-52l-16 -67h-260q-80 -641 -84 -776q127 0 276 67l25 -86q-68 -55 -165.5 -89t-180.5 -34q-79 0 -118.5 39t-39.5 131q0 79 25.5 300t60.5 434l-123 16v90q77 25 148 39q20 107 49 219q75 30 143 39l31 -31l-31 -239h260zM713 1542q65 0 127 -35
q-9 -113 -45.5 -200t-114.5 -181h-84l49 205v201q22 10 68 10z" />
    <glyph glyph-name="Tbar" unicode="&#x166;" horiz-adv-x="1142" 
d="M1124 1389l47 -27q5 -40 5 -64q0 -116 -35 -274h-131l-17 209l-227 14l-53 -588h258v-41l-13 -79h-256l-38 -428l172 -13v-45l-7 -53h-573v92q87 34 186 41l37 406h-246v39l13 81h246l53 594h-217l-74 -235l-125 10q-4 58 -4 88q0 137 47 277h2l41 2l451 -33h331
q83 27 127 27z" />
    <glyph glyph-name="tbar" unicode="&#x167;" horiz-adv-x="722" 
d="M711 1010v-52l-17 -67h-260l-22 -186h264v-50l-17 -67h-262q-45 -365 -47 -473q128 0 277 67l24 -86q-68 -55 -165.5 -89t-180.5 -34q-79 0 -118.5 39t-39.5 131q0 107 43 439l-114 6v96q67 17 133 23l24 170l-122 16v90q79 26 147 39q20 107 49 219q74 30 144 39l30 -31
l-30 -239h260z" />
    <glyph glyph-name="Utilde" unicode="&#x168;" horiz-adv-x="1353" 
d="M1395 1362v-92q-64 -34 -172 -43q-39 -579 -64 -770q-66 -484 -510 -484q-219 0 -330.5 114t-111.5 335q0 155 69 829l-157 13v45l6 53h537v-92q-72 -31 -164 -41q-72 -693 -72 -830q0 -160 61.5 -231.5t198.5 -71.5q115 0 207 47q99 96 123 328q41 362 63 778l-151 15
v45l6 53h461zM1077 1767l53 -53q-75 -201 -208 -201q-43 0 -115 35l-143 76l-107 -106l-53 53q31 87 84 142.5t127 55.5q46 0 108 -32l146 -78z" />
    <glyph glyph-name="utilde" unicode="&#x169;" horiz-adv-x="1202" 
d="M1151 190l25 -86q-63 -56 -140.5 -89t-144.5 -33q-127 0 -127 112q0 30 9.5 84.5t34 184t44.5 243.5l-25 6q-42 -132 -74 -222.5t-66 -166t-64.5 -120t-68 -75.5t-77.5 -43t-92 -12q-244 0 -244 244q0 27 3 63.5t9.5 86t12.5 90.5t17.5 107t18 104.5t20 113.5t18.5 105
l-154 6v90q171 59 330 68l43 -37q-5 -35 -35 -211.5t-54 -340.5t-24 -229q0 -62 24.5 -90t82.5 -28q31 0 51 4q165 206 366 913q58 19 154 19l45 -37l-104 -891q83 0 186 67zM915 1489l54 -51q-92 -209 -213 -209q-47 0 -107 37l-121 73l-106 -108l-53 53q17 37 33.5 65.5
t43.5 65t62 56.5t74 20q44 0 106 -39l119 -72z" />
    <glyph glyph-name="Umacron" unicode="&#x16a;" horiz-adv-x="1353" 
d="M1395 1362v-92q-64 -34 -172 -43q-39 -579 -64 -770q-66 -484 -510 -484q-219 0 -330.5 114t-111.5 335q0 155 69 829l-157 13v45l6 53h537v-92q-72 -31 -164 -41q-72 -693 -72 -830q0 -160 61.5 -231.5t198.5 -71.5q115 0 207 47q99 96 123 328q41 362 63 778l-151 15
v45l6 53h461zM553 1712h543q4 -12 4 -45q0 -55 -21 -106h-542q-5 20 -5 45q0 60 21 106z" />
    <glyph glyph-name="umacron" unicode="&#x16b;" horiz-adv-x="1202" 
d="M1151 190l25 -86q-63 -56 -140.5 -89t-144.5 -33q-127 0 -127 112q0 30 9.5 84.5t34 184t44.5 243.5l-25 6q-42 -132 -74 -222.5t-66 -166t-64.5 -120t-68 -75.5t-77.5 -43t-92 -12q-244 0 -244 244q0 27 3 63.5t9.5 86t12.5 90.5t17.5 107t18 104.5t20 113.5t18.5 105
l-154 6v90q171 59 330 68l43 -37q-5 -35 -35 -211.5t-54 -340.5t-24 -229q0 -62 24.5 -90t82.5 -28q31 0 51 4q165 206 366 913q58 19 154 19l45 -37l-104 -891q83 0 186 67zM426 1419h502q4 -8 4 -41q0 -63 -21 -106h-501q-4 12 -4 41q0 56 20 106z" />
    <glyph glyph-name="Ubreve" unicode="&#x16c;" horiz-adv-x="1353" 
d="M1395 1362v-92q-64 -34 -172 -43q-39 -579 -64 -770q-66 -484 -510 -484q-219 0 -330.5 114t-111.5 335q0 155 69 829l-157 13v45l6 53h537v-92q-72 -31 -164 -41q-72 -693 -72 -830q0 -160 61.5 -231.5t198.5 -71.5q115 0 207 47q99 96 123 328q41 362 63 778l-151 15
v45l6 53h461zM541 1751l145 39q9 -88 46.5 -130t109.5 -42t116.5 41t88.5 129l71 -21q-81 -290 -325 -290q-129 0 -193 74.5t-59 199.5z" />
    <glyph glyph-name="ubreve" unicode="&#x16d;" horiz-adv-x="1202" 
d="M1151 190l25 -86q-63 -56 -140.5 -89t-144.5 -33q-127 0 -127 112q0 30 9.5 84.5t34 184t44.5 243.5l-25 6q-42 -132 -74 -222.5t-66 -166t-64.5 -120t-68 -75.5t-77.5 -43t-92 -12q-244 0 -244 244q0 27 3 63.5t9.5 86t12.5 90.5t17.5 107t18 104.5t20 113.5t18.5 105
l-154 6v90q171 59 330 68l43 -37q-5 -35 -35 -211.5t-54 -340.5t-24 -229q0 -62 24.5 -90t82.5 -28q31 0 51 4q165 206 366 913q58 19 154 19l45 -37l-104 -891q83 0 186 67zM422 1503l145 39q3 -104 33.5 -153.5t101.5 -49.5t113.5 49.5t75.5 151.5l72 -22
q-68 -320 -312 -320q-58 0 -102.5 18t-70 48t-41.5 69.5t-17.5 82.5t2.5 87z" />
    <glyph glyph-name="Uring" unicode="&#x16e;" horiz-adv-x="1353" 
d="M1395 1362v-92q-64 -34 -172 -43q-39 -579 -64 -770q-66 -484 -510 -484q-219 0 -330.5 114t-111.5 335q0 155 69 829l-157 13v45l6 53h537v-92q-72 -31 -164 -41q-72 -693 -72 -830q0 -160 61.5 -231.5t198.5 -71.5q115 0 207 47q99 96 123 328q41 362 63 778l-151 15
v45l6 53h461zM848 1845q93 0 142.5 -41.5t49.5 -124.5q0 -98 -66 -154.5t-179 -56.5q-94 0 -144.5 42t-50.5 124q0 98 68 154.5t180 56.5zM834 1753q-36 0 -54 -12q-35 -44 -35 -103q0 -79 62 -79q32 0 53 12q35 47 35 108q0 41 -15 57.5t-46 16.5z" />
    <glyph glyph-name="uring" unicode="&#x16f;" horiz-adv-x="1202" 
d="M1151 190l25 -86q-63 -56 -140.5 -89t-144.5 -33q-127 0 -127 112q0 30 9.5 84.5t34 184t44.5 243.5l-25 6q-42 -132 -74 -222.5t-66 -166t-64.5 -120t-68 -75.5t-77.5 -43t-92 -12q-244 0 -244 244q0 27 3 63.5t9.5 86t12.5 90.5t17.5 107t18 104.5t20 113.5t18.5 105
l-154 6v90q171 59 330 68l43 -37q-5 -35 -35 -211.5t-54 -340.5t-24 -229q0 -62 24.5 -90t82.5 -28q31 0 51 4q165 206 366 913q58 19 154 19l45 -37l-104 -891q83 0 186 67zM700 1593q95 0 145 -46t50 -132q0 -103 -66 -163t-176 -60q-97 0 -147.5 46t-50.5 132
q0 103 67.5 163t177.5 60zM688 1503q-29 0 -49 -10q-39 -46 -39 -125q0 -86 64 -86q30 0 51 12q37 46 37 125q0 84 -64 84z" />
    <glyph glyph-name="Uhungarumlaut" unicode="&#x170;" horiz-adv-x="1353" 
d="M1395 1362v-92q-64 -34 -172 -43q-39 -579 -64 -770q-66 -484 -510 -484q-219 0 -330.5 114t-111.5 335q0 155 69 829l-157 13v45l6 53h537v-92q-72 -31 -164 -41q-72 -693 -72 -830q0 -160 61.5 -231.5t198.5 -71.5q115 0 207 47q99 96 123 328q41 362 63 778l-151 15
v45l6 53h461zM670 1817h86q66 -24 98 -97l-190 -243h-103zM999 1817h88q61 -23 99 -97l-191 -243h-102z" />
    <glyph glyph-name="uhungarumlaut" unicode="&#x171;" horiz-adv-x="1202" 
d="M1151 190l25 -86q-63 -56 -140.5 -89t-144.5 -33q-127 0 -127 112q0 30 9.5 84.5t34 184t44.5 243.5l-25 6q-42 -132 -74 -222.5t-66 -166t-64.5 -120t-68 -75.5t-77.5 -43t-92 -12q-244 0 -244 244q0 27 3 63.5t9.5 86t12.5 90.5t17.5 107t18 104.5t20 113.5t18.5 105
l-154 6v90q171 59 330 68l43 -37q-5 -35 -35 -211.5t-54 -340.5t-24 -229q0 -62 24.5 -90t82.5 -28q31 0 51 4q165 206 366 913q58 19 154 19l45 -37l-104 -891q83 0 186 67zM561 1583h88q68 -21 109 -96l-234 -313h-94zM885 1583h86q71 -20 110 -96l-233 -313h-92z" />
    <glyph glyph-name="Uogonek" unicode="&#x172;" horiz-adv-x="1353" 
d="M1395 1362v-92q-67 -34 -172 -43q-42 -618 -64 -770q-22 -145 -64 -230.5t-132 -167.5q-10 -9 -40 -37t-44.5 -41.5t-38.5 -41t-35.5 -49t-21 -50.5t-9.5 -59q0 -103 103 -103q42 0 100 21l8 -78q-75 -57 -192 -57q-100 0 -149.5 44t-49.5 118q0 142 178 258l-2 18
q-80 -27 -147 -27q-187 0 -301.5 117t-114.5 336q0 149 69 823l-157 13v45l6 53h537v-92q-72 -31 -164 -41q-72 -693 -72 -830q0 -160 61.5 -231.5t198.5 -71.5q115 0 207 47q91 88 123 328q37 284 63 778l-151 15v45l6 53h461z" />
    <glyph glyph-name="uogonek" unicode="&#x173;" horiz-adv-x="1202" 
d="M1004 -322q42 0 100 21l8 -78q-75 -57 -192 -57q-100 0 -149.5 44.5t-49.5 115.5q0 74 56.5 137t140.5 104l-5 21q-16 -3 -26 0q-123 0 -123 108q0 30 9.5 84.5t34 184t44.5 243.5l-25 6q-42 -132 -74 -222.5t-66 -166t-64.5 -120t-68 -75.5t-77.5 -43t-92 -12
q-244 0 -244 244q0 27 3 63.5t9.5 86t12.5 90.5t17.5 107t18 104.5t20 113.5t18.5 105l-154 6v90q171 59 330 68l43 -37q-5 -35 -35 -211.5t-54 -340.5t-24 -229q0 -62 24.5 -90t82.5 -28q31 0 51 4q165 206 366 913q58 19 154 19l45 -37l-104 -891q83 0 186 67l25 -86
q-52 -38 -77.5 -57.5t-70.5 -58.5t-67.5 -68t-41 -68t-18.5 -75q0 -49 27.5 -74t75.5 -25z" />
    <glyph glyph-name="Wcircumflex" unicode="&#x174;" horiz-adv-x="1982" 
d="M2028 1362v-92q-52 -25 -123 -39q-83 -264 -223.5 -623.5t-251.5 -603.5q-73 -22 -166 -22l-50 32q-89 430 -155 844h-23q-107 -348 -329 -854q-76 -22 -166 -22l-52 32q-34 150 -77.5 366t-97 491.5t-74.5 381.5l-127 11v45l6 53h506v-92q-69 -34 -148 -41
q141 -847 176 -1039h21q122 286 323 887l-34 178l-91 9v45l7 53h473v-92q-69 -35 -150 -43q149 -894 174 -1037h23q89 225 194 528t166 533l-160 13v45l7 53h422zM1432 1536l-144 -82l-164 188h-18l-180 -165h-117l309 342h125z" />
    <glyph glyph-name="wcircumflex" unicode="&#x175;" horiz-adv-x="1648" 
d="M1305 973l137 86q76 -20 114.5 -91.5t38.5 -156.5q0 -68 -27 -157.5t-73 -182.5t-111.5 -182.5t-137 -159.5t-155 -113t-161.5 -43q-85 0 -135 48.5t-50 138.5q0 65 37 198l-24 9q-86 -201 -177.5 -297.5t-215.5 -96.5q-100 0 -162 60t-62 184q0 133 99 670l-154 6v90
q160 55 326 68l45 -37q-3 -20 -24 -146t-38 -232t-32 -225t-15 -171q0 -64 26 -94.5t91 -30.5h24q170 188 287 532q25 205 64 383q62 21 155 21l45 -39q0 -144 -69 -363q-31 -337 -31 -407q0 -68 22 -97.5t82 -29.5l31 2q242 213 371 608zM1214 1235l-145 -72l-139 228h-21
l-168 -215h-106l289 393h125z" />
    <glyph glyph-name="Ycircumflex" unicode="&#x176;" horiz-adv-x="1269" 
d="M1174 1227q-147 -322 -418 -742l-35 -374l170 -13v-45l-8 -53h-568v92q76 32 187 41l30 344q-162 455 -301 774l-135 13v45l6 53h525v-92q-64 -29 -158 -41q145 -377 223 -615h21q214 349 325 635l-147 15v45l6 53h426v-92q-75 -37 -149 -43zM1049 1536l-144 -82
l-164 188h-18l-180 -165h-117l309 342h125z" />
    <glyph glyph-name="ycircumflex" unicode="&#x177;" horiz-adv-x="1054" 
d="M707 973l137 86q71 -19 113 -85t42 -167q0 -162 -109 -407t-296 -476q-287 -360 -498 -360q-61 0 -120.5 25t-100.5 73l31 94q166 -55 284 -59q120 76 199 170q-144 712 -217 1020l-154 6v90q169 60 297 68l45 -37q150 -651 181 -959h22q88 124 171.5 313t115.5 357z
M897 1235l-145 -72l-140 228h-20l-168 -215h-107l289 393h125z" />
    <glyph glyph-name="Ydieresis" unicode="&#x178;" horiz-adv-x="1269" 
d="M1174 1227q-147 -322 -418 -742l-35 -374l170 -13v-45l-8 -53h-568v92q76 32 187 41l30 344q-162 455 -301 774l-135 13v45l6 53h525v-92q-64 -29 -158 -41q145 -377 223 -615h21q214 349 325 635l-147 15v45l6 53h426v-92q-75 -37 -149 -43zM543 1755q45 0 65 -10
q23 -38 23 -78q0 -69 -45 -143h-152l-14 209q57 22 123 22zM1001 1755q43 0 66 -10q20 -29 20 -78q0 -72 -43 -143h-151l-14 209q57 22 122 22z" />
    <glyph glyph-name="Zacute" unicode="&#x179;" horiz-adv-x="1136" 
d="M913 338l136 -12q4 -58 4 -88q0 -116 -49 -269l-41 -2l-703 33l-197 -2l-14 65q285 432 464.5 698t213.5 313t121 165l-6 16l-523 -22l-34 -209h-131q-15 105 -15 201q0 81 15 137l49 27q40 0 123 -27h786l16 -64q-388 -594 -539.5 -816.5t-256.5 -358.5l8 -14h500z
M842 1837h96q30 -15 55.5 -46.5t38.5 -70.5l-311 -243h-115z" />
    <glyph glyph-name="zacute" unicode="&#x17a;" horiz-adv-x="886" 
d="M688 336l113 -14q6 -71 6 -144q0 -221 -168 -221q-80 0 -211 37.5t-250 91.5l-88 -117q-38 4 -98 33l-17 29l611 807l-324 20l-37 -139h-121q-12 72 -2 167t41 165q299 0 537 -88l72 94q50 -9 98 -35l16 -27l-596 -788q199 -44 359 -51zM682 1583h94q31 -17 56.5 -49
t37.5 -68l-301 -292h-106z" />
    <glyph glyph-name="Zdotaccent" unicode="&#x17b;" horiz-adv-x="1136" 
d="M913 338l136 -12q4 -58 4 -88q0 -116 -49 -269l-41 -2l-703 33l-197 -2l-14 65q285 432 464.5 698t213.5 313t121 165l-6 16l-523 -22l-34 -209h-131q-15 105 -15 201q0 81 15 137l49 27q40 0 123 -27h786l16 -64q-388 -594 -539.5 -816.5t-256.5 -358.5l8 -14h500z
M707 1763q43 0 77 -12q23 -52 23 -86q0 -69 -53 -154h-170l-11 226q61 26 134 26z" />
    <glyph glyph-name="zdotaccent" unicode="&#x17c;" horiz-adv-x="886" 
d="M688 336l113 -14q6 -71 6 -144q0 -221 -168 -221q-80 0 -211 37.5t-250 91.5l-88 -117q-38 4 -98 33l-17 29l611 807l-324 20l-37 -139h-121q-12 72 -2 167t41 165q299 0 537 -88l72 94q50 -9 98 -35l16 -27l-596 -788q199 -44 359 -51zM565 1501q47 0 72 -10
q22 -42 22 -84q0 -64 -51 -154h-168l-12 226q73 22 137 22z" />
    <glyph glyph-name="Zcaron" unicode="&#x17d;" horiz-adv-x="1136" 
d="M913 338l136 -12q4 -58 4 -88q0 -116 -49 -269l-41 -2l-703 33l-197 -2l-14 65q285 432 464.5 698t213.5 313t121 165l-6 16l-523 -22l-34 -209h-131q-15 105 -15 201q0 81 15 137l49 27q40 0 123 -27h786l16 -64q-388 -594 -539.5 -816.5t-256.5 -358.5l8 -14h500z
M702 1651h19l182 168h115l-309 -342h-125l-191 282l148 80z" />
    <glyph glyph-name="zcaron" unicode="&#x17e;" horiz-adv-x="886" 
d="M688 336l113 -14q6 -71 6 -144q0 -221 -168 -221q-80 0 -211 37.5t-250 91.5l-88 -117q-38 4 -98 33l-17 29l611 807l-324 20l-37 -139h-121q-12 72 -2 167t41 165q299 0 537 -88l72 94q50 -9 98 -35l16 -27l-596 -788q199 -44 359 -51zM553 1356h18l170 215h107
l-289 -393h-125l-166 333l144 72z" />
    <glyph glyph-name="longs" unicode="&#x17f;" horiz-adv-x="565" 
d="M864 1311l-315 80q-37 -9 -64 -27q-37 -201 -61 -461l-80 -850q-26 -258 -113.5 -373.5t-242.5 -115.5q-80 0 -159 28.5t-134 81.5l33 93q199 -70 333 -70q52 88 68 280l82 900l-143 16v90q48 16 157 37q16 126 52.5 222t81.5 151.5t104 90.5t111.5 46.5t111.5 11.5
q146 0 225 -82z" />
    <glyph glyph-name="uni018F" unicode="&#x18f;" horiz-adv-x="1163" 
d="M621 1389q125 0 219.5 -45t150.5 -125t83.5 -181.5t27.5 -224.5q0 -124 -26 -243.5t-81 -227.5t-132.5 -190t-187.5 -130.5t-239 -48.5q-180 0 -279.5 88t-99.5 238q0 100 47 181.5t124 135t181.5 89.5t215 51.5t227.5 15.5v33q0 219 -77.5 318.5t-227.5 99.5
q-180 0 -348 -131l-31 90q197 207 453 207zM616 139q91 69 149.5 211t78.5 312q-280 -32 -414.5 -116.5t-134.5 -254.5q0 -191 166 -191q75 0 155 39z" />
    <glyph glyph-name="florin" unicode="&#x192;" horiz-adv-x="962" 
d="M961 1249l47 -32q4 -28 4 -60q0 -120 -35 -274h-129l-19 245q-40 5 -49 5q-61 0 -114 -23q-42 -77 -78 -248l-21 -100h219v-47l-8 -70h-237l-76 -356q-50 -238 -135.5 -348.5t-227.5 -110.5q-148 0 -256 111l33 92q7 -2 34.5 -12.5t38.5 -14t36 -12t41.5 -12.5t40 -9
t45 -7.5t43.5 -2.5q44 74 84 283l82 399h-166v45l8 72h180l14 65q44 215 140.5 318.5t232.5 103.5q54 0 107 -16q69 16 121 16z" />
    <glyph glyph-name="uni01E2" unicode="&#x1e2;" horiz-adv-x="1765" 
d="M1118 1249l-45 -495l350 16l19 -43l-15 -104l-364 16l-49 -530h405l74 229l135 -12q4 -58 4 -88q0 -116 -49 -269l-41 -2l-637 33h-276v92q85 31 166 43l22 262h-420q-102 -200 -145 -286l141 -13v-45l-6 -53h-403v92q60 31 125 41q271 536 620 1122l-127 5v47l8 55h938
q83 27 127 27l47 -27q4 -32 4 -64q0 -121 -34 -274h-131l-17 207zM829 516l66 727h-41q-143 -249 -395 -725zM870 1712h502q4 -8 4 -41q0 -65 -20 -106h-502q-4 12 -4 41q0 62 20 106z" />
    <glyph glyph-name="uni01E3" unicode="&#x1e3;" horiz-adv-x="1546" 
d="M1083 131q69 0 156.5 41t171.5 113l31 -88q-191 -224 -434 -224q-81 0 -139 29.5t-87.5 74.5t-43.5 106.5t-13.5 118.5t10.5 118l-22 6q-25 -82 -44.5 -137.5t-45 -111.5t-52 -90t-61 -62t-77.5 -40t-97 -12q-126 0 -195 80.5t-69 272.5q0 83 13.5 166.5t40 166.5
t70.5 154.5t100.5 127t134.5 87t169 31.5q181 0 285 -119q119 119 303 119q156 0 232.5 -69t76.5 -185q0 -96 -50 -168t-136.5 -112.5t-191 -59t-224.5 -16.5v-37q0 -281 188 -281zM721 674q53 128 110 205q-109 69 -217 69q-71 0 -127 -18q-93 -105 -140.5 -277t-47.5 -342
q0 -112 25 -154t88 -42q9 0 49 4q32 46 60.5 96t56.5 112.5t46 105t50 123.5t47 118zM1051 924q-60 -56 -98 -166.5t-50 -229.5q194 20 284.5 89t90.5 196q0 66 -26 100.5t-89 34.5q-59 0 -112 -24zM692 1419h502q4 -8 4 -41q0 -65 -20 -106h-502q-4 12 -4 41q0 62 20 106z
" />
    <glyph glyph-name="Aringacute" unicode="&#x1fa;" horiz-adv-x="1318" 
d="M840 1667h-111l197 307h88q58 -34 88 -104zM1264 98v-45l-7 -53h-509v92q64 30 145 41q-10 44 -31 131t-31 131h-450q-51 -124 -111 -284l144 -13v-45l-6 -53h-422v92q69 34 147 41q292 694 490 1112q-86 39 -86 144q0 95 67 150.5t178 55.5q195 0 195 -163
q0 -131 -117 -183q11 -48 49 -215.5t55.5 -245t49.5 -212.5t59.5 -247t56.5 -220zM717 1493q-33 -49 -33 -100q0 -78 61 -78q33 0 54 12q35 44 35 103q0 41 -15.5 58t-46.5 17q-34 0 -55 -12zM428 514h379q-59 270 -117 559h-22q-100 -216 -240 -559z" />
    <glyph glyph-name="aringacute" unicode="&#x1fb;" horiz-adv-x="1150" 
d="M1100 190l24 -86q-62 -56 -136.5 -89t-141.5 -33q-125 0 -125 110q0 31 9.5 86t37.5 195t49 250l-22 4q-63 -204 -111 -325.5t-101.5 -198t-108.5 -103.5t-134 -27q-129 0 -198.5 79.5t-69.5 271.5q0 83 13.5 167t40 167t70 155t99.5 127.5t133.5 87t167.5 31.5
q148 0 223 -78l12 59q50 19 144 19l45 -37l-107 -899q84 0 187 67zM467 121q72 89 147.5 270t178.5 508q-87 49 -185 49q-64 0 -123 -18q-93 -105 -139.5 -276.5t-46.5 -342.5q0 -111 25 -153.5t86 -42.5q22 0 57 6zM803 1882h88q63 -45 86 -102l-244 -191h-104zM684 1526
q94 0 144.5 -45t50.5 -131q0 -102 -66 -159.5t-176 -57.5q-96 0 -147.5 45t-51.5 131q0 101 67.5 159t178.5 58zM672 1436q-28 0 -51 -13q-35 -47 -35 -116q0 -84 61 -84q32 0 53 12q35 47 35 117q0 84 -63 84z" />
    <glyph glyph-name="AEacute" unicode="&#x1fc;" horiz-adv-x="1765" 
d="M1118 1249l-45 -495l350 16l19 -43l-15 -104l-364 16l-49 -530h405l74 229l135 -12q4 -58 4 -88q0 -116 -49 -269l-41 -2l-637 33h-276v92q85 31 166 43l22 262h-420q-102 -200 -145 -286l141 -13v-45l-6 -53h-403v92q60 31 125 41q271 536 620 1122l-127 5v47l8 55h938
q83 27 127 27l47 -27q4 -32 4 -64q0 -121 -34 -274h-131l-17 207zM829 516l66 727h-41q-143 -249 -395 -725zM1264 1837h96q30 -15 55.5 -46.5t38.5 -70.5l-311 -243h-115z" />
    <glyph glyph-name="aeacute" unicode="&#x1fd;" horiz-adv-x="1546" 
d="M1083 131q69 0 156.5 41t171.5 113l31 -88q-191 -224 -434 -224q-81 0 -139 29.5t-87.5 74.5t-43.5 106.5t-13.5 118.5t10.5 118l-22 6q-25 -82 -44.5 -137.5t-45 -111.5t-52 -90t-61 -62t-77.5 -40t-97 -12q-126 0 -195 80.5t-69 272.5q0 83 13.5 166.5t40 166.5
t70.5 154.5t100.5 127t134.5 87t169 31.5q181 0 285 -119q119 119 303 119q156 0 232.5 -69t76.5 -185q0 -96 -50 -168t-136.5 -112.5t-191 -59t-224.5 -16.5v-37q0 -281 188 -281zM721 674q53 128 110 205q-109 69 -217 69q-71 0 -127 -18q-93 -105 -140.5 -277t-47.5 -342
q0 -112 25 -154t88 -42q9 0 49 4q32 46 60.5 96t56.5 112.5t46 105t50 123.5t47 118zM1051 924q-60 -56 -98 -166.5t-50 -229.5q194 20 284.5 89t90.5 196q0 66 -26 100.5t-89 34.5q-59 0 -112 -24zM1081 1579h95q31 -17 56.5 -49t37.5 -68l-301 -293h-107z" />
    <glyph glyph-name="Oslashacute" unicode="&#x1fe;" horiz-adv-x="1384" 
d="M1339 1448l-157 -215q133 -151 139 -424q1 -123 -24 -241t-81 -226.5t-135.5 -190t-195.5 -130t-254 -48.5q-181 0 -305 82l-154 -209l-86 41l-8 27l160 219q-133 158 -136 420q-1 123 24 241.5t80.5 226.5t135.5 189.5t196.5 130t254.5 48.5q179 0 303 -82l149 211
l86 -41zM588 1223q-101 -70 -169.5 -263t-68.5 -419q0 -129 29 -228l608 850q-76 99 -219 99q-89 0 -180 -39zM834 139q101 70 169 263t68 419q0 132 -29 228l-608 -850q76 -99 221 -99q88 0 179 39zM961 1837h96q30 -15 55.5 -46.5t38.5 -70.5l-311 -243h-115z" />
    <glyph glyph-name="oslashacute" unicode="&#x1ff;" horiz-adv-x="1048" 
d="M1010 1149l-131 -201q104 -113 104 -321q0 -84 -17 -170t-57 -174t-98.5 -156t-151 -111t-204.5 -43q-119 0 -201 45l-123 -182l-84 39l-10 25l127 192q-96 113 -96 316q0 84 16.5 169.5t56.5 173.5t98.5 155.5t150.5 110t204 42.5t192 -41l132 199l83 -41zM451 924
q-79 -73 -120.5 -241t-41.5 -323q0 -46 6 -86l407 625q-46 49 -129 49q-62 0 -122 -24zM604 109q54 50 92 155.5t53 210t15 199.5q0 71 -10 110l-414 -639q49 -61 141 -61q61 0 123 25zM766 1579h94q31 -17 56.5 -49t37.5 -68l-301 -293h-106z" />
    <glyph glyph-name="Scommaaccent" unicode="&#x218;" horiz-adv-x="1054" 
d="M600 801l68 -43q63 -42 106 -77.5t86 -86t64.5 -113.5t21.5 -137t-23 -136.5t-74.5 -117t-147.5 -86t-228 -31.5q-213 0 -385 82q-14 80 -14 158q0 90 14 178l139 10l56 -272q80 -31 188 -31q122 0 178 35q62 59 62 164q0 48 -12.5 85.5t-41.5 69.5t-57 53.5t-78 53.5
l-69 47q-139 92 -208 189t-69 219q0 167 113.5 271t296.5 104q117 0 213 -54l4 35q74 19 125 19l49 -33q4 -28 4 -60q0 -110 -37 -280h-133l-16 219q-95 29 -185 29q-81 0 -137 -23q-80 -59 -80 -168q0 -36 11 -69t27 -57.5t46.5 -52t55.5 -46t67 -47.5zM457 -106
q58 0 106 -25q23 -30 23 -94q0 -103 -58 -177.5t-168 -101.5l-24 58q59 31 88 62.5t29 80.5v24l-80 11l10 153q38 9 74 9z" />
    <glyph glyph-name="scommaaccent" unicode="&#x219;" horiz-adv-x="811" 
d="M498 580q110 -91 161.5 -160t51.5 -160q0 -128 -100.5 -207.5t-266.5 -79.5q-122 0 -206.5 44.5t-106.5 134.5l98 116l268 -184q34 4 82 25q31 38 31 102q-1 62 -34 104t-130 123q-118 102 -153 143q-74 87 -74 185q0 135 108.5 214t272.5 79q107 0 184.5 -37t99.5 -111
l-86 -114l-254 151q-43 -2 -88 -22q-41 -48 -41 -115q0 -13 2 -25.5t4.5 -22t10 -21.5t11.5 -20t17 -21t19 -19.5t24.5 -22.5t27 -23t32.5 -27t35 -29zM311 -106q59 0 107 -25q22 -28 22 -94q0 -103 -57.5 -177.5t-167.5 -101.5l-25 58q59 31 88 62.5t29 80.5v24l-80 11
l11 153q38 9 73 9z" />
    <glyph glyph-name="uni021A" unicode="&#x21a;" horiz-adv-x="1142" 
d="M1124 1389l47 -27q5 -40 5 -64q0 -116 -35 -274h-131l-17 209l-227 14l-102 -1136l172 -13v-45l-7 -53h-573v92q87 34 186 41l103 1120h-217l-74 -235l-125 10q-4 58 -4 88q0 137 47 277h2l41 2l451 -33h331q83 27 127 27zM510 -106q58 0 106 -25q23 -30 23 -94
q0 -103 -57.5 -177.5t-167.5 -101.5l-25 58q59 31 88 62.5t29 80.5v24l-80 11l10 153q37 9 74 9z" />
    <glyph glyph-name="uni021B" unicode="&#x21b;" horiz-adv-x="706" 
d="M702 1010v-52l-16 -67h-260q-80 -641 -84 -776q127 0 276 67l25 -86q-68 -55 -165.5 -89t-180.5 -34q-79 0 -118.5 39t-39.5 131q0 79 25.5 300t60.5 434l-123 16v90q77 25 148 39q20 107 49 219q75 30 143 39l31 -31l-31 -239h260zM258 -106q59 0 107 -25q22 -28 22 -94
q0 -103 -57.5 -177.5t-167.5 -101.5l-25 58q59 31 88 62.5t29 80.5v24l-80 11l10 153q38 9 74 9z" />
    <glyph glyph-name="uni0232" unicode="&#x232;" horiz-adv-x="1269" 
d="M1174 1227q-147 -322 -418 -742l-35 -374l170 -13v-45l-8 -53h-568v92q76 32 187 41l30 344q-162 455 -301 774l-135 13v45l6 53h525v-92q-64 -29 -158 -41q145 -377 223 -615h21q214 349 325 635l-147 15v45l6 53h426v-92q-75 -37 -149 -43zM512 1712h502q4 -8 4 -41
q0 -63 -21 -106h-501q-4 12 -4 41q0 62 20 106z" />
    <glyph glyph-name="uni0233" unicode="&#x233;" horiz-adv-x="1054" 
d="M707 973l137 86q71 -19 113 -85t42 -167q0 -162 -109 -407t-296 -476q-287 -360 -498 -360q-61 0 -120.5 25t-100.5 73l31 94q166 -55 284 -59q120 76 199 170q-144 712 -217 1020l-154 6v90q169 60 297 68l45 -37q150 -651 181 -959h22q88 124 171.5 313t115.5 357z
M379 1423h502q4 -8 4 -41q0 -63 -21 -106h-502q-4 12 -4 41q0 60 21 106z" />
    <glyph glyph-name="uni0237" unicode="&#x237;" horiz-adv-x="542" 
d="M442 1014l-118 -985q-27 -240 -115.5 -352.5t-237.5 -112.5q-140 0 -227 84l31 94q5 -1 31 -8t36.5 -9t35 -8t40.5 -8.5t38.5 -5.5t43 -4.5t41.5 -1.5q56 92 72 278l106 912l-151 6v90q155 54 329 68z" />
    <glyph glyph-name="uni0259" unicode="&#x259;" horiz-adv-x="937" 
d="M526 1059q90 0 158 -32.5t108.5 -90.5t60 -133t19.5 -166q0 -72 -12 -145.5t-37 -149t-68 -141t-99 -117.5t-136.5 -81.5t-175.5 -29.5q-150 0 -225.5 69.5t-75.5 186.5q0 95 50.5 166.5t136.5 112.5t191.5 60t225.5 16v39q0 140 -50 206t-151 66q-139 0 -280 -109
l-31 88q74 89 177 137t214 48zM492 109q60 56 98 165t51 230q-196 -20 -286.5 -88.5t-90.5 -194.5q0 -67 26 -102t89 -35q51 0 113 25z" />
    <glyph glyph-name="uni02BB" unicode="&#x2bb;" horiz-adv-x="497" 
d="M479 1524l27 -62q-70 -37 -118 -94t-48 -119v-26l92 -15l-14 -204q-38 -9 -86 -9q-73 0 -121 29q-25 52 -25 125q-1 54 13.5 107.5t46 106.5t91.5 95.5t142 65.5z" />
    <glyph glyph-name="afii57929" unicode="&#x2bc;" horiz-adv-x="497" 
d="M332 1507q80 0 123 -28q24 -50 24 -125q1 -41 -6.5 -81t-27.5 -85.5t-52 -83.5t-85.5 -71.5t-121.5 -53.5l-26 63q69 35 117.5 92.5t48.5 120.5v25l-95 14l15 205q36 8 86 8z" />
    <glyph glyph-name="circumflex" unicode="&#x2c6;" horiz-adv-x="696" 
d="M717 1235l-146 -72l-139 228h-18l-170 -215h-107l291 393h123z" />
    <glyph glyph-name="caron" unicode="&#x2c7;" horiz-adv-x="696" 
d="M459 1356h18l170 215h107l-289 -393h-125l-166 333l145 72z" />
    <glyph glyph-name="breve" unicode="&#x2d8;" horiz-adv-x="661" 
d="M174 1503l143 39q3 -103 35 -153t103 -50q69 0 111 49.5t75 151.5l72 -22q-68 -320 -312 -320q-58 0 -102 18t-69 48t-41 69.5t-17.5 82.5t2.5 87z" />
    <glyph glyph-name="dotaccent" unicode="&#x2d9;" horiz-adv-x="362" 
d="M309 1501q47 0 72 -10q22 -42 22 -84q0 -69 -51 -154h-168l-12 226q73 22 137 22z" />
    <glyph glyph-name="ring" unicode="&#x2da;" horiz-adv-x="561" 
d="M406 1593q95 0 144.5 -45.5t49.5 -132.5q0 -103 -66 -163t-176 -60q-97 0 -147.5 46t-50.5 132q0 103 67.5 163t178.5 60zM393 1503q-28 0 -51 -10q-37 -50 -37 -125q0 -86 62 -86q33 0 51 12q39 49 39 125q0 84 -64 84z" />
    <glyph glyph-name="ogonek" unicode="&#x2db;" horiz-adv-x="528" 
d="M258 37l68 -6q-172 -138 -172 -256q0 -46 27.5 -71.5t74.5 -25.5q46 0 100 21l9 -78q-75 -57 -191 -57q-101 0 -151 44t-50 118q0 96 78.5 174.5t206.5 136.5z" />
    <glyph glyph-name="tilde" unicode="&#x2dc;" horiz-adv-x="702" 
d="M696 1489l52 -51q-87 -209 -211 -209q-47 0 -107 37l-121 73l-106 -108l-53 53q14 29 25.5 51.5t32.5 53.5t42 51.5t50.5 35.5t61.5 15q45 0 107 -39l119 -72z" />
    <glyph glyph-name="hungarumlaut" unicode="&#x2dd;" horiz-adv-x="739" 
d="M268 1583h86q70 -21 111 -96l-236 -313h-92zM592 1583h86q68 -20 110 -96l-233 -313h-94z" />
    <glyph glyph-name="gravecomb" unicode="&#x300;" horiz-adv-x="0" 
d="M-104 1174h-105l-237 292q55 86 129 117h94z" />
    <glyph glyph-name="acutecomb" unicode="&#x301;" horiz-adv-x="0" 
d="M-260 1583h94q31 -17 56.5 -49t37.5 -68l-301 -292h-106z" />
    <glyph glyph-name="uni0302" unicode="&#x302;" horiz-adv-x="0" 
d="M-25 1235l-145 -72l-139 228h-21l-168 -215h-106l289 393h125z" />
    <glyph glyph-name="tildecomb" unicode="&#x303;" horiz-adv-x="0" 
d="M-127 1489l53 -51q-92 -209 -213 -209q-46 0 -106 37l-121 73l-107 -108l-53 53q17 37 33.5 65.5t43.5 65t62 56.5t74 20q45 0 107 -39l118 -72z" />
    <glyph glyph-name="uni0304" unicode="&#x304;" horiz-adv-x="0" 
d="M-487 1419h501q4 -8 4 -41q0 -65 -20 -106h-502q-4 12 -4 41q0 53 21 106z" />
    <glyph glyph-name="uni0306" unicode="&#x306;" horiz-adv-x="0" 
d="M-487 1503l145 39q3 -104 33.5 -153.5t101.5 -49.5t113.5 49.5t75.5 151.5l71 -22q-68 -320 -311 -320q-58 0 -102.5 18t-70 48t-41.5 69.5t-17.5 82.5t2.5 87z" />
    <glyph glyph-name="uni0307" unicode="&#x307;" horiz-adv-x="0" 
d="M-147 1501q46 0 71 -10q23 -44 23 -84q0 -64 -51 -154h-168l-13 226q73 22 138 22z" />
    <glyph glyph-name="uni0308" unicode="&#x308;" horiz-adv-x="2" 
d="M-477 1481q44 0 65 -8q21 -47 21 -82q0 -65 -45 -138h-150l-12 207q54 21 121 21zM-82 1481q44 0 68 -8q20 -42 20 -80q0 -61 -47 -140h-147l-15 207q58 21 121 21z" />
    <glyph glyph-name="uni030A" unicode="&#x30a;" horiz-adv-x="0" 
d="M-256 1593q95 0 145 -46t50 -132q0 -103 -66 -163t-176 -60q-97 0 -148 46t-51 132q0 103 68 163t178 60zM-268 1503q-29 0 -49 -10q-39 -46 -39 -125q0 -86 63 -86q30 0 51 12q37 46 37 125q0 84 -63 84z" />
    <glyph glyph-name="uni030B" unicode="&#x30b;" horiz-adv-x="0" 
d="M-598 1583h88q68 -21 109 -96l-234 -313h-94zM-274 1583h86q71 -20 110 -96l-233 -313h-92z" />
    <glyph glyph-name="uni030C" unicode="&#x30c;" horiz-adv-x="0" 
d="M-281 1356h19l170 215h106l-288 -393h-125l-166 333l143 72z" />
    <glyph glyph-name="uni0312" unicode="&#x312;" horiz-adv-x="2" 
d="M-152 1589l23 -57q-59 -34 -90 -68.5t-31 -85.5v-22l82 -10l-12 -156q-37 -6 -74 -6q-61 0 -106 22q-21 30 -21 94q0 106 59.5 184t169.5 105z" />
    <glyph glyph-name="uni0326" unicode="&#x326;" horiz-adv-x="0" 
d="M-545 -106q59 0 107 -25q22 -28 22 -94q0 -103 -57.5 -177.5t-167.5 -101.5l-25 58q59 31 88 62.5t29 80.5v24l-80 11l11 153q38 9 73 9z" />
    <glyph glyph-name="uni0327" unicode="&#x327;" horiz-adv-x="0" 
d="M-397 12l-17 -145q152 0 152 -119q0 -78 -62.5 -131t-169.5 -53q-122 0 -184 59l23 78q88 -27 123 -27q46 0 74 21.5t28 58.5q0 28 -22.5 40t-94.5 26l51 192h99z" />
    <glyph glyph-name="uni0328" unicode="&#x328;" horiz-adv-x="0" 
d="M-381 37l68 -6q-170 -137 -170 -256q0 -46 26.5 -71.5t73.5 -25.5q46 0 100 21l9 -78q-75 -57 -191 -57q-101 0 -151 44t-50 118q0 96 78.5 174.5t206.5 136.5z" />
    <glyph glyph-name="uni0394" unicode="&#x394;" horiz-adv-x="1101" 
d="M1026 29l-14 -29h-1037l-8 29l574 1331l110 29l45 -5zM176 166h619l-222 948z" />
    <glyph glyph-name="uni03A9" unicode="&#x3a9;" horiz-adv-x="1357" 
d="M1180 338l125 -12q4 -58 4 -88q0 -99 -39 -238h-529l31 330q281 143 281 538q0 70 -9 127.5t-30 108t-55 85t-86.5 54t-120.5 19.5q-88 0 -183 -39q-88 -52 -148.5 -194.5t-60.5 -311.5q0 -279 193 -387l-31 -330h-514h-2q-17 185 25 326l129 12l20 -162l248 -18l10 127
q-141 45 -231.5 157.5t-93.5 290.5q-2 97 22 190t77 178t130 148.5t189 101.5t245 38q252 0 388 -133.5t136 -370.5q0 -70 -12 -138.5t-42.5 -141t-77 -133t-121 -112t-168.5 -79.5l-11 -123l258 18z" />
    <glyph glyph-name="uni03BC" unicode="&#x3bc;" horiz-adv-x="1202" 
d="M1151 190l25 -86q-61 -55 -139 -88.5t-146 -33.5q-127 0 -127 112q0 30 9.5 84.5t34 184t44.5 243.5l-23 6q-48 -156 -86 -260t-76 -181t-77.5 -118.5t-83 -60.5t-100.5 -19q-54 0 -87 21.5t-57 68.5l-22 -10q19 -109 27 -160t17.5 -140.5t10.5 -166.5q-60 -22 -182 -22
l-31 37q37 599 158 1286l-154 6v90q171 59 330 68l43 -37q-2 -13 -57.5 -353.5t-55.5 -427.5q0 -62 25.5 -90t83.5 -28q28 0 51 4q168 211 364 913q58 19 154 19l45 -37l-104 -891q83 0 186 67z" />
    <glyph glyph-name="pi" unicode="&#x3c0;" horiz-adv-x="1142" 
d="M1155 1028v-76l-27 -112h-155l-88 -717q78 7 184 67l25 -86q-62 -56 -136.5 -89t-144.5 -33q-63 0 -99 31.5t-36 95.5t98 731h-327l-101 -840q-80 -18 -168 -18l-45 36l92 498l37 324q-95 -3 -213 -78l-33 65q64 108 143 154.5t224 46.5h770z" />
    <glyph glyph-name="Wgrave" unicode="&#x1e80;" horiz-adv-x="1982" 
d="M2028 1362v-92q-52 -25 -123 -39q-83 -264 -223.5 -623.5t-251.5 -603.5q-73 -22 -166 -22l-50 32q-89 430 -155 844h-23q-107 -348 -329 -854q-76 -22 -166 -22l-52 32q-34 150 -77.5 366t-97 491.5t-74.5 381.5l-127 11v45l6 53h506v-92q-69 -34 -148 -41
q141 -847 176 -1039h21q122 286 323 887l-34 178l-91 9v45l7 53h473v-92q-69 -35 -150 -43q149 -894 174 -1037h23q89 225 194 528t166 533l-160 13v45l7 53h422zM1174 1477h-117l-242 243q51 82 123 115h94z" />
    <glyph glyph-name="wgrave" unicode="&#x1e81;" horiz-adv-x="1648" 
d="M1305 973l137 86q76 -20 114.5 -91.5t38.5 -156.5q0 -68 -27 -157.5t-73 -182.5t-111.5 -182.5t-137 -159.5t-155 -113t-161.5 -43q-85 0 -135 48.5t-50 138.5q0 65 37 198l-24 9q-86 -201 -177.5 -297.5t-215.5 -96.5q-100 0 -162 60t-62 184q0 133 99 670l-154 6v90
q160 55 326 68l45 -37q-3 -20 -24 -146t-38 -232t-32 -225t-15 -171q0 -64 26 -94.5t91 -30.5h24q170 188 287 532q25 205 64 383q62 21 155 21l45 -39q0 -144 -69 -363q-31 -337 -31 -407q0 -68 22 -97.5t82 -29.5l31 2q242 213 371 608zM975 1174h-105l-237 292
q55 86 129 117h94z" />
    <glyph glyph-name="Wacute" unicode="&#x1e82;" horiz-adv-x="1982" 
d="M2028 1362v-92q-52 -25 -123 -39q-83 -264 -223.5 -623.5t-251.5 -603.5q-73 -22 -166 -22l-50 32q-89 430 -155 844h-23q-107 -348 -329 -854q-76 -22 -166 -22l-52 32q-34 150 -77.5 366t-97 491.5t-74.5 381.5l-127 11v45l6 53h506v-92q-69 -34 -148 -41
q141 -847 176 -1039h21q122 286 323 887l-34 178l-91 9v45l7 53h473v-92q-69 -35 -150 -43q149 -894 174 -1037h23q89 225 194 528t166 533l-160 13v45l7 53h422zM1288 1837h96q30 -15 56 -46.5t39 -70.5l-312 -243h-114z" />
    <glyph glyph-name="wacute" unicode="&#x1e83;" horiz-adv-x="1648" 
d="M1305 973l137 86q76 -20 114.5 -91.5t38.5 -156.5q0 -68 -27 -157.5t-73 -182.5t-111.5 -182.5t-137 -159.5t-155 -113t-161.5 -43q-85 0 -135 48.5t-50 138.5q0 65 37 198l-24 9q-86 -201 -177.5 -297.5t-215.5 -96.5q-100 0 -162 60t-62 184q0 133 99 670l-154 6v90
q160 55 326 68l45 -37q-3 -20 -24 -146t-38 -232t-32 -225t-15 -171q0 -64 26 -94.5t91 -30.5h24q170 188 287 532q25 205 64 383q62 21 155 21l45 -39q0 -144 -69 -363q-31 -337 -31 -407q0 -68 22 -97.5t82 -29.5l31 2q242 213 371 608zM1085 1583h95q31 -17 56.5 -49
t37.5 -68l-301 -292h-107z" />
    <glyph glyph-name="Wdieresis" unicode="&#x1e84;" horiz-adv-x="1982" 
d="M2028 1362v-92q-52 -25 -123 -39q-83 -264 -223.5 -623.5t-251.5 -603.5q-73 -22 -166 -22l-50 32q-89 430 -155 844h-23q-107 -348 -329 -854q-76 -22 -166 -22l-52 32q-34 150 -77.5 366t-97 491.5t-74.5 381.5l-127 11v45l6 53h506v-92q-69 -34 -148 -41
q141 -847 176 -1039h21q122 286 323 887l-34 178l-91 9v45l7 53h473v-92q-69 -35 -150 -43q149 -894 174 -1037h23q89 225 194 528t166 533l-160 13v45l7 53h422zM926 1755q45 0 65 -10q23 -38 23 -78q0 -69 -45 -143h-152l-14 209q57 22 123 22zM1384 1755q44 0 66 -10
q20 -29 20 -78q0 -72 -43 -143h-151l-14 209q57 22 122 22z" />
    <glyph glyph-name="wdieresis" unicode="&#x1e85;" horiz-adv-x="1648" 
d="M1305 973l137 86q76 -20 114.5 -91.5t38.5 -156.5q0 -68 -27 -157.5t-73 -182.5t-111.5 -182.5t-137 -159.5t-155 -113t-161.5 -43q-85 0 -135 48.5t-50 138.5q0 65 37 198l-24 9q-86 -201 -177.5 -297.5t-215.5 -96.5q-100 0 -162 60t-62 184q0 133 99 670l-154 6v90
q160 55 326 68l45 -37q-3 -20 -24 -146t-38 -232t-32 -225t-15 -171q0 -64 26 -94.5t91 -30.5h24q170 188 287 532q25 205 64 383q62 21 155 21l45 -39q0 -144 -69 -363q-31 -337 -31 -407q0 -68 22 -97.5t82 -29.5l31 2q242 213 371 608zM766 1481q44 0 65 -8
q21 -47 21 -82q0 -65 -45 -138h-150l-12 207q54 21 121 21zM1161 1481q44 0 68 -8q20 -42 20 -80q0 -61 -47 -140h-147l-15 207q58 21 121 21z" />
    <glyph glyph-name="uni1E9E" unicode="&#x1e9e;" horiz-adv-x="1404" 
d="M1192 627q67 -74 99 -143t32 -158q0 -166 -104 -259.5t-297 -93.5q-64 0 -120.5 11.5t-90.5 25.5t-86 39q-13 86 -13 148q0 60 15 174l123 8l53 -268q57 -13 100 -13q93 0 152 33q39 61 39 152q0 65 -24 109.5t-93 121.5q-92 105 -115 141q-51 77 -51 164q0 222 303 393
v23q-102 29 -225 29q-190 0 -290.5 -97.5t-121.5 -316.5l-76 -850h-374v92q75 33 166 41l65 715q47 541 576 541q113 0 230 -24t206 -69v-120q-248 -129 -248 -295q0 -30 8 -55.5t26.5 -51t35 -43.5t48.5 -50.5t52 -53.5z" />
    <glyph glyph-name="Ygrave" unicode="&#x1ef2;" horiz-adv-x="1269" 
d="M1174 1227q-147 -322 -418 -742l-35 -374l170 -13v-45l-8 -53h-568v92q76 32 187 41l30 344q-162 455 -301 774l-135 13v45l6 53h525v-92q-64 -29 -158 -41q145 -377 223 -615h21q214 349 325 635l-147 15v45l6 53h426v-92q-75 -37 -149 -43zM791 1477h-117l-242 243
q51 82 123 115h94z" />
    <glyph glyph-name="ygrave" unicode="&#x1ef3;" horiz-adv-x="1054" 
d="M707 973l137 86q71 -19 113 -85t42 -167q0 -162 -109 -407t-296 -476q-287 -360 -498 -360q-61 0 -120.5 25t-100.5 73l31 94q166 -55 284 -59q120 76 199 170q-144 712 -217 1020l-154 6v90q169 60 297 68l45 -37q150 -651 181 -959h22q88 124 171.5 313t115.5 357z
M657 1174h-104l-238 292q55 86 129 117h95z" />
    <glyph glyph-name="uni2007" unicode="&#x2007;" horiz-adv-x="1134" 
 />
    <glyph glyph-name="uni2008" unicode="&#x2008;" horiz-adv-x="483" 
 />
    <glyph glyph-name="uni2009" unicode="&#x2009;" horiz-adv-x="358" 
 />
    <glyph glyph-name="uni200B" unicode="&#x200b;" horiz-adv-x="0" 
 />
    <glyph glyph-name="endash" unicode="&#x2013;" horiz-adv-x="1024" 
d="M940 629l-12 -92h-824v45l13 92h823v-45z" />
    <glyph glyph-name="emdash" unicode="&#x2014;" horiz-adv-x="2048" 
d="M1901 629l-13 -92h-1718v45l12 92h1719v-45z" />
    <glyph glyph-name="quoteleft" unicode="&#x2018;" horiz-adv-x="497" 
d="M479 1524l27 -62q-70 -37 -118 -94t-48 -119v-26l92 -15l-14 -204q-38 -9 -86 -9q-73 0 -121 29q-25 52 -25 125q-1 54 13.5 107.5t46 106.5t91.5 95.5t142 65.5z" />
    <glyph glyph-name="quoteright" unicode="&#x2019;" horiz-adv-x="497" 
d="M332 1507q80 0 123 -28q24 -50 24 -125q1 -41 -6.5 -81t-27.5 -85.5t-52 -83.5t-85.5 -71.5t-121.5 -53.5l-26 63q69 35 117.5 92.5t48.5 120.5v25l-95 14l15 205q36 8 86 8z" />
    <glyph glyph-name="quotesinglbase" unicode="&#x201a;" horiz-adv-x="499" 
d="M186 219q79 0 123 -29q25 -48 25 -124q1 -41 -6.5 -81t-27.5 -85.5t-52 -83.5t-85.5 -71.5t-121.5 -53.5l-27 63q70 37 118 94t48 119v25l-94 14l14 207q40 6 86 6z" />
    <glyph glyph-name="quotedblleft" unicode="&#x201c;" horiz-adv-x="858" 
d="M838 1524l26 -62q-70 -37 -118 -94t-48 -119v-26l93 -15l-15 -204q-37 -9 -86 -9q-73 0 -121 29q-24 50 -24 125q-1 54 13.5 107.5t46 106.5t91.5 95.5t142 65.5zM477 1524l27 -62q-70 -37 -118 -94t-48 -119v-26l92 -15l-14 -204q-37 -9 -86 -9q-73 0 -121 29
q-25 52 -25 125q-1 54 13.5 107.5t46 106.5t91.5 95.5t142 65.5z" />
    <glyph glyph-name="quotedblright" unicode="&#x201d;" horiz-adv-x="858" 
d="M690 1507q80 0 123 -28q25 -52 25 -125q1 -41 -6.5 -81t-27.5 -85.5t-52 -83.5t-85.5 -71.5t-121.5 -53.5l-27 63q69 35 117.5 92.5t48.5 120.5v25l-94 14l14 205q36 8 86 8zM330 1507q80 0 123 -28q24 -50 24 -125q1 -41 -6.5 -81t-27.5 -85.5t-52 -83.5t-85.5 -71.5
t-121.5 -53.5l-26 63q69 35 117.5 92.5t48.5 120.5v25l-95 14l15 205q36 8 86 8z" />
    <glyph glyph-name="quotedblbase" unicode="&#x201e;" horiz-adv-x="860" 
d="M547 219q79 0 123 -29q24 -46 24 -124q1 -41 -6.5 -81t-27.5 -85.5t-52 -83.5t-85.5 -71.5t-121.5 -53.5l-26 63q70 37 118 94t48 119v25l-95 14l15 207q41 6 86 6zM186 219q79 0 123 -29q25 -48 25 -124q1 -41 -6.5 -81t-27.5 -85.5t-52 -83.5t-85.5 -71.5t-121.5 -53.5
l-27 63q70 37 118 94t48 119v25l-94 14l14 207q40 6 86 6z" />
    <glyph glyph-name="dagger" unicode="&#x2020;" horiz-adv-x="968" 
d="M623 1516l53 -9q2 -14 2 -37q0 -121 -76 -299h-88q-29 130 -29 224q0 56 19 121h119zM225 1184q111 0 254 -51l-8 -86q-161 -50 -260 -50q-47 0 -88 9v47l18 123q54 8 84 8zM891 1184q41 0 86 -10v-46l-19 -124q-47 -7 -84 -7q-113 0 -253 50l8 86q164 51 262 51z
M500 1012h86q28 -115 28 -189q0 -50 -9 -118t-18.5 -115.5t-32 -151.5t-32.5 -151h-88q-12 222 -12 299q0 117 14.5 215t63.5 211z" />
    <glyph glyph-name="daggerdbl" unicode="&#x2021;" horiz-adv-x="1021" 
d="M641 1516l53 -9q2 -14 2 -37q0 -123 -75 -299h-89q-28 126 -28 224q0 59 18 121h119zM244 1184q111 0 254 -51l-9 -86q-161 -50 -260 -50q-47 0 -88 9v47l19 123q54 8 84 8zM909 1184q41 0 86 -10v-46l-18 -124q-47 -7 -84 -7q-114 0 -254 50l8 86q164 51 262 51z
M518 1012h86q29 -110 29 -183q0 -157 -76 -325h-86q-27 100 -27 182q0 160 74 326zM186 518q117 0 254 -49l-8 -86q-164 -51 -260 -51q-43 0 -88 10v45l18 125q40 6 84 6zM850 518q50 0 86 -8v-47l-18 -123q-54 -8 -84 -8q-111 0 -254 51l8 86q158 49 262 49zM459 344h86
q30 -118 30 -223q0 -59 -18 -121h-119l-53 8q-2 14 -2 37q0 125 76 299z" />
    <glyph glyph-name="bullet" unicode="&#x2022;" horiz-adv-x="817" 
d="M418 879q135 0 206.5 -73t71.5 -204q0 -129 -71.5 -202.5t-206.5 -73.5q-132 0 -204.5 73.5t-72.5 202.5q0 130 72.5 203.5t204.5 73.5z" />
    <glyph glyph-name="ellipsis" unicode="&#x2026;" horiz-adv-x="1468" 
d="M1208 272q54 0 84 -12q23 -44 23 -90q0 -78 -55 -170h-179l-12 250q73 22 139 22zM223 272q54 0 84 -12q23 -44 23 -90q0 -77 -56 -170h-178l-12 250q73 22 139 22zM713 272q54 0 84 -12q22 -42 22 -90q0 -78 -55 -170h-178l-13 250q73 22 140 22z" />
    <glyph glyph-name="perthousand" unicode="&#x2030;" horiz-adv-x="2422" 
d="M2071 727q136 0 204 -83t68 -220q0 -58 -11.5 -117t-39 -120t-68.5 -108t-105 -76.5t-143 -29.5q-135 0 -202.5 82.5t-67.5 218.5q0 58 11.5 118t39 121t68 108t104.5 76.5t142 29.5zM2052 635q-35 0 -82 -14q-48 -53 -71 -160.5t-23 -204.5q0 -98 29.5 -144t89.5 -46
q40 0 80 16q49 50 72.5 158.5t23.5 205.5q0 189 -119 189zM1366 1241l8 -37q-444 -518 -899 -1249l-100 47l-15 39q198 280 433 593t370 464l-2 -2l-16 16q-73 -70 -144 -96.5t-153 -26.5q-72 0 -146 19q9 -46 9 -95q0 -55 -10 -110t-35 -112t-62.5 -100.5t-98 -71
t-136.5 -27.5q-136 0 -202.5 83t-66.5 222q0 174 84.5 300.5t214.5 151.5l35 -69q-75 -41 -119.5 -145t-44.5 -249q0 -106 28 -154t91 -48q43 0 80 16q48 48 72 157.5t24 203.5q0 67 -16 133q-46 43 -72 88q34 52 78 73l2 -2v2h41q40 -57 66 -112q89 -47 202 -47
q92 0 189 41.5t215 146.5v-2l2 2zM1317 727q136 0 204 -83t68 -220q0 -58 -11.5 -117t-39 -120t-68 -108t-104.5 -76.5t-143 -29.5q-135 0 -203 82.5t-68 218.5q0 58 11.5 118t39 121t68 108t104.5 76.5t142 29.5zM1321 82q49 50 72.5 158.5t23.5 205.5q0 189 -119 189
q-34 0 -81 -14q-48 -53 -71.5 -161t-23.5 -204q0 -98 29.5 -144t89.5 -46q40 0 80 16z" />
    <glyph glyph-name="minute" unicode="&#x2032;" horiz-adv-x="452" 
d="M471 1450l-197 -473h-135l101 496q123 24 200 24z" />
    <glyph glyph-name="second" unicode="&#x2033;" horiz-adv-x="755" 
d="M471 1450l-197 -473h-135l101 496q123 24 200 24zM842 1450l-197 -473h-135l100 496q123 24 201 24z" />
    <glyph glyph-name="uni2034" unicode="&#x2034;" horiz-adv-x="1191" 
d="M471 1450l-197 -473h-135l101 496q123 24 200 24zM842 1450l-197 -473h-135l100 496q123 24 201 24zM1210 1450l-196 -473h-135l100 496q123 24 201 24z" />
    <glyph glyph-name="guilsinglleft" unicode="&#x2039;" horiz-adv-x="622" 
d="M524 889l-190 -322l119 -331l-99 -64l-248 367v49l332 366z" />
    <glyph glyph-name="guilsinglright" unicode="&#x203a;" horiz-adv-x="622" 
d="M526 588v-49l-333 -367l-84 64l192 323l-119 330l99 65z" />
    <glyph glyph-name="fraction" unicode="&#x2044;" horiz-adv-x="473" 
d="M762 1364l10 -29q-282 -390 -473 -673q-74 -109 -223 -347t-234 -362l-92 45l-10 29q130 182 477 682q76 114 222 347t227 353z" />
    <glyph glyph-name="uni2070" unicode="&#x2070;" horiz-adv-x="739" 
d="M483 1501q134 0 200.5 -79.5t66.5 -213.5q0 -57 -11 -113.5t-37.5 -113.5t-65.5 -100t-100.5 -70t-136.5 -27q-135 0 -200.5 78.5t-65.5 214.5q0 58 10.5 114.5t37 113.5t65 99.5t100 69.5t137.5 27zM471 1425q-34 0 -61 -12q-44 -47 -69.5 -170.5t-25.5 -230.5
q0 -81 22 -117.5t75 -36.5q32 0 67 14q42 43 65 166t23 232q0 82 -21 118.5t-75 36.5z" />
    <glyph glyph-name="uni2074" unicode="&#x2074;" horiz-adv-x="641" 
d="M659 928h-94l-10 -129h-164l10 129h-290l-27 67q98 209 164 387l-27 111l135 35q56 -41 56 -107q0 -57 -47 -145.5t-158 -245.5l6 -10q90 8 131 8h68q6 53 22 174q62 37 129 45l39 -16q-16 -106 -27 -203h91l2 -39z" />
    <glyph glyph-name="uni2075" unicode="&#x2075;" horiz-adv-x="593" 
d="M311 1225q140 0 214.5 -51.5t74.5 -153.5q0 -103 -76.5 -169.5t-206.5 -66.5q-126 0 -211 47l11 64q49 -8 104 -8q195 0 195 121q0 23 -6.5 39.5t-23 29t-34.5 20t-52.5 13.5t-65 9.5t-82.5 8.5h-2l45 357l86 16v-4l2 4q70 -28 141 -28q81 0 166 30l18 -61
q-81 -109 -202 -109q-74 0 -148 31l-25 -143q50 4 78 4z" />
    <glyph glyph-name="uni2076" unicode="&#x2076;" horiz-adv-x="712" 
d="M561 1501q67 0 123 -16l-2 -64q-107 -1 -181 -30.5t-113.5 -85t-56 -122t-16.5 -155.5q2 -86 22.5 -128t76.5 -42q29 0 59 12q31 25 47.5 72.5t16.5 101.5q0 57 -19.5 79t-54.5 22q-31 0 -76 -15l-10 64q65 68 155 68q85 0 136 -54t51 -137q0 -51 -20.5 -101t-60 -92
t-104 -68t-143.5 -26q-258 0 -258 281q0 91 26 169t77.5 138t134.5 94.5t190 34.5z" />
    <glyph glyph-name="uni2077" unicode="&#x2077;" horiz-adv-x="610" 
d="M707 1470l2 -20q-10 -14 -71.5 -103.5t-96.5 -142.5t-80 -132.5t-66 -135.5l13 -129l-121 -35q-39 12 -60.5 43t-21.5 72q0 77 79 183t248 269h-278l-25 -88h-86q-6 60 -6 78q0 106 27 172q108 0 238.5 -15t197.5 -38l37 49q36 -6 70 -27z" />
    <glyph glyph-name="uni2078" unicode="&#x2078;" horiz-adv-x="690" 
d="M537 1174v-19q72 -31 104.5 -65t32.5 -97q0 -39 -13.5 -73t-45 -66t-92.5 -51t-146 -19q-256 0 -256 168q0 74 44 120.5t116 62.5v18q-53 28 -79 62.5t-26 89.5q0 89 67 142.5t210 53.5q243 0 243 -164q0 -129 -159 -163zM389 1411q-31 -31 -31 -82q0 -35 19.5 -59
t62.5 -47l25 -13q72 44 72 125q0 90 -82 90q-41 0 -66 -14zM455 874q39 39 39 91q0 40 -25 64t-94 58l-23 11q-69 -44 -69 -135q0 -53 22.5 -78t71.5 -25q46 0 78 14z" />
    <glyph glyph-name="uni2079" unicode="&#x2079;" horiz-adv-x="710" 
d="M465 1501q258 0 258 -282q0 -90 -26 -167.5t-76.5 -138t-133.5 -95t-190 -34.5q-65 0 -125 17v63q87 1 152 19.5t106.5 50.5t66.5 80t35 103t9 126q0 84 -21.5 127t-77.5 43q-29 0 -59 -12q-64 -50 -64 -172q0 -58 19.5 -79.5t54.5 -21.5q14 0 27.5 2t28.5 6t22 5l8 -49
q-60 -68 -155 -68q-86 0 -136.5 53t-50.5 135q0 52 20.5 102.5t60 92.5t104 68t143.5 26z" />
    <glyph glyph-name="uni2080" unicode="&#x2080;" horiz-adv-x="739" 
d="M375 547q134 0 200 -79.5t66 -213.5q0 -57 -11 -113.5t-37 -113.5t-65 -100t-100.5 -70t-136.5 -27q-135 0 -200.5 78.5t-65.5 214.5q0 58 10.5 114.5t37 113.5t65 99.5t100 69.5t137.5 27zM362 471q-34 0 -61 -12q-43 -47 -68.5 -170.5t-25.5 -231.5q0 -81 21.5 -117
t74.5 -36q33 0 68 14q42 43 65 165.5t23 231.5q0 82 -21.5 119t-75.5 37z" />
    <glyph glyph-name="uni2081" unicode="&#x2081;" horiz-adv-x="479" 
d="M389 -82v-29l-4 -32h-387v61q61 21 117 27l41 440q-46 -10 -115 -10v35l6 49q54 4 114.5 28.5t100.5 71.5l74 -16l-57 -615z" />
    <glyph glyph-name="uni2082" unicode="&#x2082;" horiz-adv-x="600" 
d="M401 47l91 -2q4 -25 4 -76q0 -93 -31 -139h-68q-74 0 -168.5 12.5t-158.5 32.5l-64 -45q-26 9 -57 35l-2 24q26 21 91 72t93.5 74.5t75.5 67t68.5 73t39 68.5t17.5 75q0 53 -30 78t-75 25q-44 0 -71 -24t-27 -68q0 -30 8 -66l-74 -20q-53 53 -53 114q0 79 72 134t184 55
q113 0 180.5 -53t67.5 -142q0 -94 -85.5 -186t-256.5 -199h209z" />
    <glyph glyph-name="uni2083" unicode="&#x2083;" horiz-adv-x="626" 
d="M362 211v-23q142 -23 142 -143q0 -95 -81 -155t-220 -60q-120 0 -211 47l8 66q62 -9 133 -9q99 0 141.5 27t42.5 88q0 38 -16 60t-53 34q-55 -20 -101 -26l-24 18q-4 24 -4 43q0 27 4 35q17 10 74 10q29 0 43 -2q100 49 100 123q0 44 -28.5 64t-71.5 20q-57 0 -83 -28
t-26 -70v-23l-76 -2q-30 43 -30 82q0 65 67.5 112.5t186.5 47.5q110 0 175.5 -46t65.5 -130q0 -123 -158 -160z" />
    <glyph glyph-name="uni2084" unicode="&#x2084;" horiz-adv-x="641" 
d="M551 -14h-94l-11 -129h-163l10 129h-291l-27 67q98 209 164 387l-26 111l135 35q55 -40 55 -107q0 -57 -47 -145.5t-158 -245.5l6 -10q90 8 132 8h67q2 20 23 174q62 37 129 45l39 -16q-16 -106 -27 -203h90l2 -39z" />
    <glyph glyph-name="uni2085" unicode="&#x2085;" horiz-adv-x="593" 
d="M203 270q140 0 214.5 -51.5t74.5 -152.5q0 -103 -76.5 -169.5t-206.5 -66.5q-126 0 -211 47l10 64q56 -9 105 -9q194 0 194 121q0 64 -56.5 86t-207.5 35h-2l45 356l86 17v-4l2 4q73 -29 141 -29q78 0 166 31l19 -62q-81 -108 -203 -108q-73 0 -147 31l-25 -144
q50 4 78 4z" />
    <glyph glyph-name="uni2086" unicode="&#x2086;" horiz-adv-x="712" 
d="M453 547q63 0 122 -17l-2 -63q-86 -1 -151 -21.5t-105.5 -54t-65.5 -84.5t-34.5 -106.5t-9.5 -126.5q2 -87 22 -128.5t76 -41.5q30 0 60 12q31 25 47 72.5t16 101.5q0 57 -19.5 78.5t-54.5 21.5q-33 0 -75 -14l-11 64q64 67 156 67q85 0 135.5 -53.5t50.5 -136.5
q0 -51 -20.5 -101t-59.5 -92t-103.5 -68t-143.5 -26q-258 0 -258 281q0 91 26 169t77.5 138t134.5 94.5t190 34.5z" />
    <glyph glyph-name="uni2087" unicode="&#x2087;" horiz-adv-x="610" 
d="M598 516l2 -20q-7 -11 -70.5 -103t-97 -143.5t-79 -131.5t-66.5 -136l12 -129l-121 -35q-39 12 -60.5 42.5t-21.5 71.5q0 77 79.5 183.5t248.5 269.5h-279l-24 -88h-86q-6 60 -6 78q0 109 26 172q108 0 239 -15t198 -38l36 49q36 -6 70 -27z" />
    <glyph glyph-name="uni2088" unicode="&#x2088;" horiz-adv-x="690" 
d="M428 219v-18q72 -31 104.5 -65t32.5 -97q0 -39 -13.5 -73t-45 -66t-92.5 -51t-146 -19q-256 0 -256 168q0 73 43.5 119.5t116.5 62.5v19q-53 28 -78.5 62t-25.5 89q0 90 66.5 143.5t209.5 53.5q244 0 244 -164q0 -130 -160 -164zM281 457q-31 -31 -31 -82q0 -36 19.5 -60
t62.5 -47l24 -12q72 44 72 125q0 90 -82 90q-40 0 -65 -14zM346 -80q39 39 39 90q0 40 -25 64.5t-94 58.5l-22 10q-70 -45 -70 -135q0 -53 22.5 -77.5t71.5 -24.5q46 0 78 14z" />
    <glyph glyph-name="uni2089" unicode="&#x2089;" horiz-adv-x="710" 
d="M356 547q258 0 258 -283q0 -90 -26 -167.5t-76.5 -137.5t-133.5 -94.5t-190 -34.5q-69 0 -125 16v64q87 1 152 19.5t106.5 50.5t66.5 80t35 103t9 126q0 84 -21 127t-77 43q-28 0 -60 -13q-63 -49 -63 -172q0 -58 19.5 -79t54.5 -21q14 0 27 2t28.5 5.5t21.5 4.5l9 -49
q-59 -67 -156 -67q-86 0 -136 53t-50 135q0 52 20.5 102.5t59.5 92.5t103.5 68t143.5 26z" />
    <glyph glyph-name="Euro" unicode="&#x20ac;" horiz-adv-x="1136" 
d="M637 1100q-54 -37 -99.5 -112.5t-74.5 -176.5h317v-37l-8 -72h-334q-15 -82 -18 -174h328v-36l-9 -70h-315q25 -295 258 -295q162 0 324 125l28 -82q-185 -195 -416 -195q-192 0 -297.5 120t-121.5 327h-129v37l8 69h119q3 95 20 174h-115v37l9 72h133q30 94 76.5 172
t110 139t147 95t178.5 34t164 -34l2 16q64 18 120 18l48 -34q4 -28 4 -58q0 -123 -35 -280h-129l-19 241q-58 15 -118 15q-73 0 -156 -35z" />
    <glyph glyph-name="uni20B9" unicode="&#x20b9;" horiz-adv-x="872" 
d="M883 1223v-37l-9 -72h-249l-4 -20q95 -43 108 -154h123v-37l-8 -69h-113q-7 -60 -28 -113t-62.5 -102.5t-114.5 -82t-170 -38.5l-10 -39q31 -33 58.5 -65t59.5 -74.5t44 -58.5t50.5 -71t41.5 -59l133 6l8 -98q-99 -57 -209 -57q-70 0 -120 28.5t-101 98.5
q-83 103 -225 401l20 78h240q121 68 143 246h-393v36l8 70h388q-3 57 -23 98t-61 76h-281v37l8 72h748z" />
    <glyph glyph-name="uni20BA" unicode="&#x20ba;" horiz-adv-x="1011" 
d="M731 487l133 33q78 -128 78 -258q0 -149 -106 -245.5t-306 -96.5q-179 0 -368 80l55 504l-156 -58l-10 23l8 90l172 64l19 176l-154 -56l-10 25l10 90l168 62l33 294q105 25 184 27l27 -29l-25 -213l285 103l10 -23l-10 -92l-297 -108l-18 -177l278 103l12 -23l-10 -92
l-295 -106l-59 -535q58 -6 102 -6q151 0 215 70t64 194q0 77 -29 180z" />
    <glyph glyph-name="uni20BD" unicode="&#x20bd;" horiz-adv-x="1077" 
d="M461 557l-21 -174h396v-37l-9 -70h-397l-18 -163l170 -13v-45l-7 -55h-530v90q68 30 156 41l16 145h-184v37l8 70h186l21 174h-178v37l8 72h182l49 444l-143 12v45l8 56q191 12 449 12q224 0 322.5 -70t98.5 -227q0 -57 -12 -108t-43 -102.5t-80 -88t-129.5 -59.5
t-183.5 -23h-135zM471 666h96q111 0 176 41q76 106 76 227q0 94 -48 138t-155 44h-94z" />
    <glyph glyph-name="afii61289" unicode="&#x2113;" horiz-adv-x="763" 
d="M319 123q168 -3 320 76l25 -86q-69 -63 -158.5 -97t-186.5 -34q-96 0 -146 43t-50 139q0 34 6 96q-51 -24 -123 -47l-14 90q74 27 145 68q22 242 76 645q13 92 28 160t43 140.5t65 118.5t95.5 75.5t133.5 29.5q98 0 143 -50.5t45 -170.5q0 -92 -25.5 -215.5t-74.5 -261
t-136 -271.5t-196 -221q-12 -125 -15 -227zM410 969q-47 -343 -62 -471q131 151 208 396.5t77 432.5q0 59 -13.5 87t-54.5 28q-24 0 -63 -17q-28 -59 -43 -131.5t-49 -324.5z" />
    <glyph glyph-name="afii61352" unicode="&#x2116;" horiz-adv-x="2027" 
d="M1395 1260l-215 -68q-21 -47 -39 -113t-32 -156t-24 -166t-19.5 -195.5t-14.5 -187t-13.5 -197t-11.5 -173.5q-88 -24 -164 -27l-37 5q-82 186 -239.5 509t-177.5 365h-25q0 -405 -21 -555q-32 -328 -260 -328q-97 0 -143 58l18 112h203q39 94 69 352.5t36 528.5
l-140 211l31 53q96 21 186 21q140 -218 291.5 -511t266.5 -552h22q0 42 -1 134.5t-1 151.5q0 60 1 107.5t4.5 119.5t10 129t19 126t30 121.5t44 104.5t59 85.5t78 54.5t98.5 21q54 0 94 -27zM1704 1235q136 0 209.5 -79t73.5 -228q0 -112 -40 -205.5t-126 -154t-205 -60.5
q-136 0 -209.5 79.5t-73.5 229.5q0 112 40 205t126 153t205 60zM1720 629q80 92 80 295q0 215 -108 215q-43 0 -93 -23q-77 -89 -77 -295q0 -101 24 -158t84 -57q45 0 90 23zM1593 256q40 0 78 -10q23 -44 23 -88q0 -68 -54 -158h-170l-12 236q66 20 135 20z" />
    <glyph glyph-name="uni2117" unicode="&#x2117;" horiz-adv-x="1572" 
d="M840 1389q145 0 265.5 -41t209.5 -119.5t138.5 -202.5t49.5 -283q0 -122 -29 -234t-89.5 -210t-146.5 -170.5t-209 -114t-269 -41.5q-302 0 -476 168.5t-175 474.5q-1 122 26.5 234.5t86.5 211t143.5 171t206.5 114.5t268 42zM766 80q119 0 218 37t166.5 100t114 148
t68 178.5t21.5 193.5q0 262 -144 403.5t-383 141.5q-119 0 -217 -38.5t-163 -102t-109.5 -149.5t-64 -178.5t-19.5 -190.5q0 -263 138 -403t374 -140zM840 1073q338 0 338 -237q0 -139 -79 -208t-198 -69q-15 0 -42.5 2.5t-35.5 3.5v78q63 4 115 21q47 55 47 180
q0 73 -27 107t-110 34h-35l-61 -614l118 -9v-38l-4 -43h-407v73q35 22 119 33l55 584l-109 8v35l8 47q234 12 308 12z" />
    <glyph glyph-name="trademark" unicode="&#x2122;" horiz-adv-x="1654" 
d="M504 1280l-64 -608l88 -8v-31l-4 -43h-340v72q40 15 101 22l61 602h-110l-46 -151l-86 10q-2 20 -2 59q0 86 33 176l29 4l264 -22h182q56 18 86 18l35 -18v-45q0 -83 -22 -176h-88l-11 133zM1681 1362v-68q-31 -12 -92 -20q-19 -416 -35 -604l80 -8v-27l-4 -45h-323v72
q39 15 92 22q28 251 55 584h-22q-22 -56 -222 -633q-56 -19 -106 -25l-33 17q-90 546 -102 641h-23q-7 -73 -18.5 -176t-25.5 -230.5t-21 -189.5l98 -10v-29l-6 -43h-285v72q38 15 98 22q55 427 84 600l-86 8v31l4 39q100 8 310 8q49 -224 84 -561h20q100 340 191 553h288z
" />
    <glyph glyph-name="Omega" unicode="&#x2126;" horiz-adv-x="1357" 
d="M1180 338l125 -12q4 -58 4 -88q0 -99 -39 -238h-529l31 330q281 143 281 538q0 70 -9 127.5t-30 108t-55 85t-86.5 54t-120.5 19.5q-88 0 -183 -39q-88 -52 -148.5 -194.5t-60.5 -311.5q0 -279 193 -387l-31 -330h-514h-2q-17 185 25 326l129 12l20 -162l248 -18l10 127
q-141 45 -231.5 157.5t-93.5 290.5q-2 97 22 190t77 178t130 148.5t189 101.5t245 38q252 0 388 -133.5t136 -370.5q0 -70 -12 -138.5t-42.5 -141t-77 -133t-121 -112t-168.5 -79.5l-11 -123l258 18z" />
    <glyph glyph-name="estimated" unicode="&#x212e;" horiz-adv-x="1304" 
d="M293 502v-293q65 -93 168.5 -138.5t222.5 -45.5q139 0 252.5 56t187.5 138l25 -35q-82 -99 -202.5 -155t-266.5 -56q-167 0 -304 72.5t-214.5 197t-77.5 273.5q0 148 76.5 273t208 197.5t286.5 72.5t287 -72.5t208.5 -197t76.5 -271.5v-16h-934zM655 1008
q-108 0 -203.5 -48t-158.5 -135v-278h725v278q-65 91 -160.5 137t-202.5 46z" />
    <glyph glyph-name="uni2150" unicode="&#x2150;" horiz-adv-x="1689" 
d="M1296 1364l11 -29q-282 -390 -473 -673q-74 -109 -223 -347t-234 -362l-92 45l-11 29q161 225 478 682q76 114 221.5 347t226.5 353zM526 606l-2 -33l-4 -34h-446v67q80 26 149 29l56 561q-57 -16 -146 -16v39l6 51q64 3 132.5 32.5t115.5 86.5l76 -17l-78 -754z
M1706 809l6 -23q-314 -401 -385 -630l14 -164l-122 -35q-86 39 -86 135q-1 89 96.5 223.5t308.5 364.5h-344l-29 -109h-90q-8 36 -8 88q0 102 31 183q128 0 273 -16t222 -44l41 56q45 -11 72 -29z" />
    <glyph glyph-name="uni2151" unicode="&#x2151;" horiz-adv-x="1708" 
d="M1296 1364l11 -29q-282 -390 -473 -673q-74 -109 -223 -347t-234 -362l-92 45l-11 29q161 225 478 682q76 114 221.5 347t226.5 353zM526 606l-2 -33l-4 -34h-446v67q80 26 149 29l56 561q-57 -16 -146 -16v39l6 51q64 3 132.5 32.5t115.5 86.5l76 -17l-78 -754z
M1343 842q68 0 120.5 -19.5t84.5 -50.5t52.5 -76t28 -91t7.5 -99q0 -104 -31 -197.5t-91.5 -169.5t-159.5 -121t-224 -45q-57 0 -126 15l-3 67q451 0 451 488q0 45 -4.5 78.5t-17 67t-40 51.5t-67.5 18q-33 0 -74 -15q-84 -72 -84 -202q0 -133 101 -133q43 0 98 22l12 -65
q-73 -78 -180 -78q-98 0 -155.5 59.5t-57.5 165.5q0 139 98.5 234.5t261.5 95.5z" />
    <glyph glyph-name="uni2152" unicode="&#x2152;" horiz-adv-x="2347" 
d="M1296 1364l11 -29q-282 -390 -473 -673q-74 -109 -223 -347t-234 -362l-92 45l-11 29q161 225 478 682q76 114 221.5 347t226.5 353zM526 606l-2 -33l-4 -34h-446v67q80 26 149 29l56 561q-57 -16 -146 -16v39l6 51q64 3 132.5 32.5t115.5 86.5l76 -17l-78 -754z
M1982 842q147 0 219 -95t72 -255q0 -68 -12 -136t-41.5 -138t-73 -123.5t-112 -87.5t-152.5 -34q-147 0 -220 95t-73 254q0 56 9 113.5t27.5 117t50.5 110.5t74 91.5t101.5 64t130.5 23.5zM1970 760q-42 0 -82 -19q-56 -59 -86 -203.5t-30 -277.5q0 -107 29.5 -156t96.5 -49
q44 0 80 19q55 56 85 202.5t30 276.5q0 106 -29 156.5t-94 50.5zM1473 68l-3 -33l-4 -35h-446v68q76 25 149 28l56 561q-57 -16 -146 -16v39l6 51q64 3 132.5 32.5t115.5 86.5l76 -16l-78 -754z" />
    <glyph glyph-name="onethird" unicode="&#x2153;" horiz-adv-x="1675" 
d="M1296 1364l11 -29q-282 -390 -473 -673q-74 -109 -223 -347t-234 -362l-92 45l-11 29q161 225 478 682q76 114 221.5 347t226.5 353zM526 606l-2 -33l-4 -34h-446v67q80 26 149 29l56 561q-57 -16 -146 -16v39l6 51q64 3 132.5 32.5t115.5 86.5l76 -17l-78 -754z
M1411 434v-22q82 -15 121 -57t39 -117q0 -118 -91.5 -191.5t-252.5 -73.5q-132 0 -232 50l11 67q63 -8 124 -8q138 0 197 41.5t59 120.5q0 43 -20.5 71t-73.5 47q-47 -19 -112 -30l-25 20q-6 18 -6 45q0 17 4 41q23 13 88 13q15 0 45 -5q127 69 127 168q0 103 -125 103
q-75 0 -108 -37t-33 -94q0 -5 0.5 -11.5t1 -10.5t0.5 -5l-78 -4q-31 51 -31 94q0 77 75.5 135t203.5 58q127 0 200.5 -58.5t73.5 -154.5q0 -147 -182 -195z" />
    <glyph glyph-name="twothirds" unicode="&#x2154;" horiz-adv-x="1808" 
d="M1430 1364l10 -29q-282 -390 -473 -673q-74 -109 -223 -347t-234 -362l-92 45l-10 29q130 182 477 682q76 114 221.5 347t226.5 353zM545 760l92 -4q6 -44 6 -80q0 -92 -33 -156h-82q-85 0 -193.5 14.5t-178.5 38.5l-68 -51q-37 11 -61 35l-2 27q188 150 249 206
q191 176 204 314q1 11 1 22q0 134 -127 134q-56 0 -91.5 -31t-35.5 -90q0 -28 13 -78l-72 -25q-60 63 -60 129q0 95 80.5 159.5t204.5 64.5q122 0 197.5 -64.5t75.5 -169.5q0 -118 -103.5 -237.5t-300.5 -255.5h260zM1544 434v-22q82 -15 121 -57t39 -117
q0 -118 -91.5 -191.5t-252.5 -73.5q-132 0 -232 50l11 67q63 -8 125 -8q138 0 197 41.5t59 120.5q0 43 -21 71t-74 47q-47 -19 -112 -30l-25 20q-6 18 -6 45q0 17 4 41q23 13 88 13q15 0 45 -5q127 69 127 168q0 103 -125 103q-75 0 -108 -37t-33 -94q0 -5 0.5 -11.5
t1 -10.5t0.5 -5l-78 -4q-30 50 -30 94q0 77 75 135t203 58q127 0 200.5 -58.5t73.5 -154.5q0 -147 -182 -195z" />
    <glyph glyph-name="uni2155" unicode="&#x2155;" horiz-adv-x="1583" 
d="M1296 1364l11 -29q-282 -390 -473 -673q-74 -109 -223 -347t-234 -362l-92 45l-11 29q161 225 478 682q76 114 221.5 347t226.5 353zM526 606l-2 -33l-4 -34h-446v67q80 26 149 29l56 561q-57 -16 -146 -16v39l6 51q64 3 132.5 32.5t115.5 86.5l76 -17l-78 -754z
M1165 502q160 0 248 -62.5t88 -177.5q0 -121 -90.5 -205t-243.5 -84q-130 0 -225 50l10 67q60 -8 117 -8q129 0 188.5 47.5t59.5 120.5q0 33 -12.5 56.5t-34 38.5t-63.5 25.5t-88.5 16.5t-121.5 12l52 424l92 19q76 -35 162 -35q82 0 192 35l18 -64q-87 -116 -231 -116
q-90 0 -164 36l-33 -200q50 4 80 4z" />
    <glyph glyph-name="uni2156" unicode="&#x2156;" horiz-adv-x="1716" 
d="M1430 1364l10 -29q-282 -390 -473 -673q-74 -109 -223 -347t-234 -362l-92 45l-10 29q130 182 477 682q76 114 221.5 347t226.5 353zM545 760l92 -4q6 -44 6 -80q0 -92 -33 -156h-82q-85 0 -193.5 14.5t-178.5 38.5l-68 -51q-37 11 -61 35l-2 27q188 150 249 206
q191 176 204 314q1 11 1 22q0 134 -127 134q-56 0 -91.5 -31t-35.5 -90q0 -28 13 -78l-72 -25q-60 63 -60 129q0 95 80.5 159.5t204.5 64.5q122 0 197.5 -64.5t75.5 -169.5q0 -118 -103.5 -237.5t-300.5 -255.5h260zM1298 502q160 0 248 -62.5t88 -177.5q0 -121 -90.5 -205
t-243.5 -84q-130 0 -225 50l10 67q60 -8 117 -8q129 0 188.5 47.5t59.5 120.5q0 33 -12.5 56.5t-34 38.5t-63.5 25.5t-88.5 16.5t-121.5 12l52 424l92 19q76 -35 162 -35q82 0 192 35l19 -64q-87 -116 -232 -116q-90 0 -164 36l-32 -200q50 4 79 4z" />
    <glyph glyph-name="uni2157" unicode="&#x2157;" horiz-adv-x="1683" 
d="M1397 1364l10 -29q-282 -390 -473 -673q-74 -109 -223 -347t-234 -362l-92 45l-10 29q130 182 477 682q76 114 221.5 347t226.5 353zM487 981v-23q82 -15 121 -57t39 -117q0 -118 -91.5 -191t-252.5 -73q-133 0 -231 49l10 68q63 -8 125 -8q138 0 197 41.5t59 120.5
q0 43 -20.5 71t-73.5 47q-46 -19 -113 -30l-25 20q-6 18 -6 45q0 17 4 41q21 12 88 12q21 0 45 -4q127 69 127 168q0 103 -124 103q-75 0 -108.5 -37t-33.5 -94q0 -5 0.5 -11.5t1 -10.5t0.5 -5l-78 -4q-30 50 -30 94q0 77 75 135t203 58t201.5 -58.5t73.5 -154.5
q0 -147 -183 -195zM1266 502q160 0 248 -62.5t88 -177.5q0 -121 -90.5 -205t-243.5 -84q-131 0 -226 50l11 67q60 -8 116 -8q129 0 188.5 47.5t59.5 120.5q0 79 -67.5 106.5t-251.5 42.5l51 424l92 19q76 -35 162 -35q82 0 192 35l19 -64q-87 -116 -232 -116q-89 0 -163 36
l-33 -200q50 4 80 4z" />
    <glyph glyph-name="uni2158" unicode="&#x2158;" horiz-adv-x="1751" 
d="M1464 1364l11 -29q-296 -409 -474 -673q-74 -109 -222.5 -347t-233.5 -362l-92 45l-11 29q161 225 478 682q76 114 221.5 347t226.5 353zM717 819v-39l-10 -67h-117q-9 -85 -15 -174h-163q2 31 7 89t7 85h-338l-29 69q123 240 211 455l-34 141l135 39q67 -48 67 -125
q0 -63 -55 -162t-199 -309l6 -12q133 10 154 10h94q3 25 29 219q53 31 131 47l35 -20q-22 -155 -31 -246h115zM1333 502q160 0 248 -62.5t88 -177.5q0 -121 -90.5 -205t-243.5 -84q-130 0 -225 50l10 67q60 -8 117 -8q129 0 188.5 47.5t59.5 120.5q0 33 -12.5 56.5t-34 38.5
t-63.5 25.5t-88.5 16.5t-121.5 12l52 424l92 19q76 -35 161 -35q83 0 193 35l18 -64q-87 -116 -231 -116q-90 0 -164 36l-33 -200q50 4 80 4z" />
    <glyph glyph-name="uni2159" unicode="&#x2159;" horiz-adv-x="1646" 
d="M1296 1364l11 -29q-282 -390 -473 -673q-74 -109 -223 -347t-234 -362l-92 45l-11 29q161 225 478 682q76 114 221.5 347t226.5 353zM526 606l-2 -33l-4 -34h-446v67q80 26 149 29l56 561q-57 -16 -146 -16v39l6 51q64 3 132.5 32.5t115.5 86.5l76 -17l-78 -754z
M1415 842q59 0 125 -15l2 -69q-448 0 -448 -486q0 -46 4.5 -79.5t16.5 -67.5t39.5 -52t68.5 -18q32 0 73 17q84 69 84 202q0 132 -102 132q-41 0 -98 -21l-13 66q72 77 183 77q98 0 155.5 -59.5t57.5 -165.5q0 -140 -99 -235t-264 -95q-67 0 -119 19.5t-84 50.5t-52.5 75.5
t-28 90t-7.5 98.5q0 105 31 199t91 170t159 121t225 45z" />
    <glyph glyph-name="uni215A" unicode="&#x215a;" horiz-adv-x="1703" 
d="M1354 1364l10 -29q-282 -390 -473 -673q-74 -109 -223 -347t-234 -362l-92 45l-10 29q130 182 477 682q76 114 221.5 347t226.5 353zM301 1049q160 0 248 -62.5t88 -177.5q0 -121 -90.5 -205t-243.5 -84q-132 0 -225 49l10 68q60 -8 117 -8q129 0 188.5 47.5t59.5 120.5
q0 33 -12.5 56.5t-34 38.5t-63.5 25.5t-88.5 16.5t-121.5 12l51 424l92 19q76 -35 162 -35q83 0 193 35l18 -64q-88 -117 -231 -117q-88 0 -164 37l-33 -201q63 5 80 5zM1473 842q58 0 124 -15l2 -69q-448 0 -448 -486q0 -46 4.5 -79.5t16.5 -67.5t39.5 -52t68.5 -18
q33 0 74 17q84 69 84 202q0 132 -103 132q-41 0 -98 -21l-12 66q72 77 182 77q98 0 155.5 -59.5t57.5 -165.5q0 -140 -99 -235t-264 -95q-67 0 -119 19.5t-84 50.5t-52 76t-27.5 90t-7.5 98q0 105 31 199t91 170t159 121t225 45z" />
    </font>
</defs>
</svg>
