<?xml version="1.0" standalone="no"?>
<!DOCTYPE svg PUBLIC "-//W3C//DTD SVG 1.1//EN" "http://www.w3.org/Graphics/SVG/1.1/DTD/svg11.dtd" >
<svg xmlns="http://www.w3.org/2000/svg" xmlns:xlink="http://www.w3.org/1999/xlink" version="1.1">
<metadata>
Created by FontForge 20170731 at Wed Jan 19 21:51:03 2022
 By Aleksey,,,
2014 published by FontShop International GmbH
</metadata>
<defs>
<font id="FranziskaPro" horiz-adv-x="1259" >
  <font-face 
    font-family="FranziskaPro"
    font-weight="400"
    font-stretch="normal"
    units-per-em="2048"
    panose-1="2 1 5 4 4 1 1 1 1 2"
    ascent="1612"
    descent="-436"
    x-height="1024"
    cap-height="1362"
    bbox="-850 -573 3117 1968"
    underline-thickness="122"
    underline-position="-327"
    unicode-range="U+000D-1F44E"
  />
<missing-glyph horiz-adv-x="1396" 
d="M1186 1362v-1362h-975v1362h975zM1063 1249h-643l643 -1022v1022zM334 113h655l-655 1040v-1040z" />
    <glyph glyph-name="T_h" unicode="Th" horiz-adv-x="2197" 
d="M2171 92v-92h-471v92l139 31v557q0 119 -55 178.5t-158 59.5q-159 0 -278 -146v-670l159 -10v-92h-460v92l133 31v1112l-484 22v-1151l172 -10v-96h-538v96l184 31v1130l-293 -12l-28 -201h-119q-11 67 -11 187q0 78 11 131h1106q3 83 14 154q84 22 113 26l41 -6v-481
q0 -15 -11 -166h21q78 90 156 126t163 36q146 0 238 -87.5t92 -254.5v-607z" />
    <glyph glyph-name="T_k" unicode="Tk" horiz-adv-x="2107" 
d="M2087 63l-8 -61q-59 -18 -113 -18q-77 0 -126 30.5t-97 106.5q-8 13 -39 63.5t-81 131.5t-107 171h-168v-385l139 -10v-92h-440v92l133 31v1112l-484 22v-1151l172 -10v-96h-538v96l184 31v1130l-293 -12l-28 -201h-119q-11 67 -11 187q0 78 11 131h1106q3 83 14 154
q84 22 113 26l41 -6v-946h149q125 142 275 332l-146 10v92h412v-92l-119 -29q-173 -187 -299 -305q57 -76 118 -162t132 -187.5t100 -142.5z" />
    <glyph glyph-name="T_l" unicode="Tl" horiz-adv-x="1552" 
d="M1507 92v-92h-460v92l133 31v1112l-484 22v-1151l172 -10v-96h-538v96l184 31v1130l-293 -12l-28 -201h-119q-11 67 -11 187q0 78 11 131h1106q3 83 14 154q84 22 113 26l41 -6v-1434z" />
    <glyph glyph-name="Tbar_h" unicode="&#x166;h" horiz-adv-x="2197" 
d="M2171 92v-92h-471v92l139 31v557q0 119 -55 178.5t-158 59.5q-159 0 -278 -146v-670l159 -10v-92h-460v92l133 31v1112l-484 22v-604h295v-104h-295v-443l172 -10v-96h-538v96l184 31v422h-305v104h305v604l-293 -12l-28 -201h-119q-11 67 -11 187q0 78 11 131h1106
q3 83 14 154q84 22 113 26l41 -6v-481q0 -15 -11 -166h21q78 90 156 126t163 36q146 0 238 -87.5t92 -254.5v-607z" />
    <glyph glyph-name="Tcaron_h" unicode="&#x164;h" horiz-adv-x="2197" 
d="M2171 92v-92h-471v92l139 31v557q0 119 -55 178.5t-158 59.5q-159 0 -278 -146v-670l159 -10v-92h-460v92l133 31v1112l-484 22v-1151l172 -10v-96h-538v96l184 31v1130l-293 -12l-28 -201h-119q-11 67 -11 187q0 78 11 131h1106q3 83 14 154q84 22 113 26l41 -6v-481
q0 -15 -11 -166h21q78 90 156 126t163 36q146 0 238 -87.5t92 -254.5v-607zM606 1665h21l176 145h121l-293 -329h-103l-243 270l121 82z" />
    <glyph glyph-name="f_b" unicode="fb" horiz-adv-x="1851" 
d="M1348 1051q194 0 299.5 -140.5t105.5 -361.5q0 -262 -144 -419t-368 -157q-79 0 -196.5 18.5t-196.5 45.5v1372q-92 25 -186 25q-126 0 -199.5 -70t-73.5 -223v-117h217v-109h-217v-813l213 -10v-92h-524v92l143 31v792l-143 11v82l143 32v70q0 111 33.5 196t92.5 135.5
t132.5 75.5t159.5 25q120 0 213 -41q79 32 123 41l41 -4v-483q0 -29 -10 -166h20q131 162 322 162zM1241 76q161 0 244.5 120t83.5 334q0 388 -279 388q-86 0 -150 -36t-124 -110v-643q101 -53 225 -53z" />
    <glyph glyph-name="f_f" unicode="ff" horiz-adv-x="1306" 
d="M1200 1542q110 0 186 -44t76 -120q0 -56 -43 -96h-125l-22 154q-28 4 -49 4q-209 0 -209 -279v-137h289v-109h-289v-813l213 -10v-92h-518v92l137 31v792h-457v-813l162 -10v-92h-473v92l143 31v792l-143 11v82l143 32v72q0 209 115.5 319.5t306.5 110.5q165 0 303 -96
q93 96 254 96zM389 1024h387l70 16v90q0 146 49 242q-123 60 -238 60q-268 0 -268 -310v-98z" />
    <glyph glyph-name="f_f_b" unicode="ffb" horiz-adv-x="2476" 
d="M1972 1051q194 0 300 -140.5t106 -361.5q0 -262 -144 -419t-368 -157q-79 0 -196.5 18.5t-196.5 45.5v1372q-92 25 -187 25q-126 0 -199 -70t-73 -223v-117h217v-109h-217v-813l213 -10v-92h-518v92l137 31v792h-457v-813l162 -10v-92h-473v92l143 31v792l-143 11v82
l143 32v72q0 209 115.5 319.5t306.5 110.5q176 0 320 -108q111 108 301 108q120 0 213 -41q80 33 122 41l41 -4v-483q0 -29 -10 -166h21q131 162 321 162zM389 1024h387l70 16v70q0 155 63 256q-124 66 -252 66q-268 0 -268 -310v-98zM1866 76q161 0 244 120t83 334
q0 388 -278 388q-86 0 -150.5 -36t-124.5 -110v-643q101 -53 226 -53z" />
    <glyph glyph-name="f_f_h" unicode="ffh" horiz-adv-x="2490" 
d="M2464 92v-92h-471v92l139 31v557q0 119 -55 178.5t-158 59.5q-161 0 -279 -148v-668l160 -10v-92h-469v92l142 31v1286q-92 25 -187 25q-126 0 -199 -70t-73 -223v-117h217v-109h-217v-813l162 -10v-92h-474v92l144 31v792h-457v-813l162 -10v-92h-473v92l143 31v792
l-143 11v82l143 32v72q0 209 115.5 319.5t306.5 110.5q176 0 320 -108q111 108 301 108q120 0 213 -41q80 33 122 41l41 -4v-483q0 -29 -10 -166h21q78 90 156 126t163 36q146 0 238 -87.5t92 -254.5v-607zM389 1024h387l70 16v70q0 155 63 256q-124 66 -252 66
q-268 0 -268 -310v-98z" />
    <glyph glyph-name="f_f_i" unicode="ffi" horiz-adv-x="1841" 
d="M1796 92v-92h-459v92l129 31h2v756l-125 32h-329v-809l162 -10v-92h-467v92l137 31v792h-457v-813l162 -10v-92h-473v92l143 31v792l-143 11v82l143 32v72q0 209 115.5 319.5t306.5 110.5q177 0 320 -110q110 110 331 110q163 0 257 -55t94 -137q0 -65 -50 -101h-137
l-22 168q-85 15 -154 15q-139 0 -203.5 -80.5t-64.5 -251.5v-76h375l206 20l41 -8v-934zM389 1024h387l70 16v50q0 170 63 274q-122 68 -252 68q-268 0 -268 -310v-98z" />
    <glyph glyph-name="f_f_j" unicode="ffj" horiz-adv-x="1820" 
d="M1595 1044l41 -8v-1054q0 -158 -51 -248.5t-186 -169.5l-60 63l129 191v1061l-125 32h-329v-809l213 -10v-92h-518v92l137 31v792h-457v-813l162 -10v-92h-473v92l143 31v792l-143 11v82l143 32v72q0 209 115.5 319.5t306.5 110.5q177 0 320 -110q110 110 331 110
q164 0 258.5 -55t94.5 -137q0 -65 -50 -101h-137l-22 168q-85 15 -156 15q-139 0 -203.5 -80.5t-64.5 -251.5v-76h375zM389 1024h387l70 16v50q0 170 63 274q-122 68 -252 68q-268 0 -268 -310v-98z" />
    <glyph glyph-name="f_f_k" unicode="ffk" horiz-adv-x="2400" 
d="M2380 63l-8 -61q-58 -18 -113 -18q-77 0 -126 30.5t-97 106.5q-11 18 -40 64.5t-81 130t-107 171.5h-168v-385l160 -10v-92h-469v92l142 31v1286q-92 25 -187 25q-126 0 -199 -70t-73 -223v-117h217v-109h-217v-813l162 -10v-92h-474v92l144 31v792h-457v-813l162 -10
v-92h-473v92l143 31v792l-143 11v82l143 32v72q0 209 115.5 319.5t306.5 110.5q176 0 320 -108q111 108 301 108q120 0 213 -41q80 33 122 41l41 -4v-948h150q116 131 274 332l-145 10v92h412v-92l-119 -29q-173 -187 -299 -305q57 -76 118 -162t132 -187.5t100 -142.5z
M389 1024h387l70 16v70q0 155 63 256q-124 66 -252 66q-268 0 -268 -310v-98z" />
    <glyph glyph-name="f_f_l" unicode="ffl" horiz-adv-x="1849" 
d="M1804 92v-92h-473v92l142 31v1286q-92 25 -187 25q-126 0 -199 -70t-73 -223v-117h217v-109h-217v-813l162 -10v-92h-474v92l144 31v792h-457v-813l162 -10v-92h-473v92l143 31v792l-143 11v82l143 32v72q0 209 115.5 319.5t306.5 110.5q176 0 320 -108q111 108 301 108
q120 0 213 -41q80 33 122 41l41 -4v-1436zM389 1024h387l70 16v70q0 155 63 256q-124 66 -252 66q-268 0 -268 -310v-98z" />
    <glyph glyph-name="f_h" unicode="fh" horiz-adv-x="1865" 
d="M1839 92v-92h-471v92l139 31v557q0 119 -55 178.5t-158 59.5q-160 0 -278 -148v-668l160 -10v-92h-469v92l141 31v1286q-92 25 -186 25q-126 0 -199.5 -70t-73.5 -223v-117h217v-109h-217v-813l162 -10v-92h-473v92l143 31v792l-143 11v82l143 32v70q0 111 33.5 196
t92.5 135.5t132.5 75.5t159.5 25q120 0 213 -41q79 32 123 41l41 -4v-483q0 -29 -10 -166h20q142 162 320 162q146 0 237.5 -87.5t91.5 -254.5v-607z" />
    <glyph glyph-name="f_hbar" unicode="f&#x127;" horiz-adv-x="1865" 
d="M1839 92v-92h-471v92l139 31v557q0 119 -55 178.5t-158 59.5q-160 0 -278 -148v-668l160 -10v-92h-469v92l141 31v1286q-92 25 -186 25q-126 0 -199.5 -70t-73.5 -223v-117h217v-109h-217v-813l162 -10v-92h-473v92l143 31v792l-143 11v82l143 32v70q0 111 33.5 196
t92.5 135.5t132.5 75.5t159.5 25q120 0 213 -41q79 32 123 41l41 -4v-176h325v-102h-325v-205q0 -29 -10 -166h20q142 162 320 162q146 0 237.5 -87.5t91.5 -254.5v-607z" />
    <glyph glyph-name="f_i" unicode="fi" horiz-adv-x="1216" 
d="M1171 92v-92h-458v92l129 31h2v756l-125 32h-330v-809l162 -10v-92h-473v92l143 31v792l-143 11v82l143 32v50q0 452 449 452q163 0 256.5 -55t93.5 -137q0 -66 -49 -101h-137l-23 168q-85 15 -154 15q-139 0 -203.5 -80.5t-64.5 -251.5v-76h375l207 20l41 -8v-934z" />
    <glyph glyph-name="f_icircumflex" unicode="f&#xee;" horiz-adv-x="1216" 
d="M1171 92v-92h-458v92l131 31v756l-142 36h-313v-813l162 -10v-92h-473v92l143 31v792l-143 11v82l143 32v70q0 104 35 185t94.5 130t134.5 74t160 25q88 0 174 -27l39 66h103l184 -310l-121 -71l-141 196h-21l-117 -184h-108l133 221q-47 6 -84 6q-135 0 -216 -73
t-81 -228v-96h375l207 20l41 -8v-934z" />
    <glyph glyph-name="f_imacron" unicode="f&#x12b;" horiz-adv-x="1216" 
d="M1171 92v-92h-471v92l144 31v756l-125 32h-330v-809l160 -10v-92h-471v92l143 31v792l-143 11v82l143 32v90q0 111 28.5 193t79 128.5t112 68.5t134.5 22q100 0 174 -36t87 -101h297q8 -31 8 -68q0 -36 -8 -67h-463l-25 166q-28 4 -47 4q-209 0 -209 -279v-137h375
l207 20l41 -8v-934z" />
    <glyph glyph-name="f_iogonek" unicode="f&#x12f;" horiz-adv-x="1216" 
d="M1171 92v-92q-128 -37 -203 -94.5t-75 -130.5q0 -52 36 -81.5t95 -29.5q53 0 115 23l18 -74q-66 -49 -174 -49q-115 0 -175 53.5t-60 132.5q0 138 188 230v20h-223v92l131 31v756l-125 32h-330v-809l162 -10v-92h-473v92l143 31v792l-143 11v82l143 32v50q0 452 449 452
q163 0 256.5 -55t93.5 -137q0 -66 -49 -101h-137l-23 168q-85 15 -154 15q-139 0 -203.5 -80.5t-64.5 -251.5v-76h375l207 20l41 -8v-934z" />
    <glyph glyph-name="f_j" unicode="fj" horiz-adv-x="1196" 
d="M971 1044l41 -8v-1054q0 -158 -51.5 -248t-186.5 -170l-59 63l129 191v1061l-125 32h-330v-809l213 -10v-92h-524v92l143 31v792l-143 11v82l143 32v50q0 452 449 452q164 0 258 -55t94 -137q0 -66 -49 -101h-137l-23 168q-86 15 -156 15q-139 0 -203.5 -80.5
t-64.5 -251.5v-76h375z" />
    <glyph glyph-name="f_k" unicode="fk" horiz-adv-x="1775" 
d="M1755 63l-8 -61q-59 -18 -113 -18q-77 0 -126 30.5t-97 106.5q-11 17 -40 64.5t-80 130.5t-107 171h-168v-385l160 -10v-92h-469v92l141 31v1286q-92 25 -186 25q-126 0 -199.5 -70t-73.5 -223v-117h217v-109h-217v-813l162 -10v-92h-473v92l143 31v792l-143 11v82
l143 32v70q0 111 33.5 196t92.5 135.5t132.5 75.5t159.5 25q120 0 213 -41q79 32 123 41l41 -4v-948h149q125 142 275 332l-146 10v92h412v-92l-119 -29q-173 -187 -299 -305q57 -76 118 -162t132 -187.5t100 -142.5z" />
    <glyph glyph-name="f_l" unicode="fl" horiz-adv-x="1224" 
d="M1180 92v-92h-473v92l141 31v1286q-92 25 -186 25q-126 0 -199.5 -70t-73.5 -223v-117h217v-109h-217v-813l162 -10v-92h-473v92l143 31v792l-143 11v82l143 32v70q0 111 33.5 196t92.5 135.5t132.5 75.5t159.5 25q120 0 213 -41q79 32 123 41l41 -4v-1436z" />
    <glyph glyph-name="f_lacute" unicode="f&#x13a;" horiz-adv-x="1220" 
d="M1020 1542h-113l140 289h53q80 -34 123 -107zM1016 102l164 -10v-92h-473v92l141 31v1276q-92 35 -186 35q-126 0 -199.5 -70t-73.5 -223v-117h217v-109h-217v-813l162 -10v-92h-473v92l143 31v792l-143 11v82l143 32v70q0 111 34 196t92.5 135.5t131.5 75.5t158 25
q168 0 291 -92q33 8 47 10l41 -4v-1354z" />
    <glyph glyph-name="f_lcaron" unicode="f&#x13e;" horiz-adv-x="1400" 
d="M1180 92v-92h-473v92l141 31v1286q-92 25 -186 25q-126 0 -199.5 -70t-73.5 -223v-117h217v-109h-217v-813l162 -10v-92h-473v92l143 31v792l-143 11v82l143 32v70q0 111 33.5 196t92.5 135.5t132.5 75.5t159.5 25q120 0 213 -41q79 32 123 41l41 -4v-1436zM1272 1542
q64 0 112 -29q-3 -123 -36.5 -220.5t-106.5 -198.5h-82l47 249v191q21 8 66 8z" />
    <glyph glyph-name="uni021A_h" unicode="&#x21a;h" horiz-adv-x="2197" 
d="M2171 92v-92h-471v92l139 31v557q0 119 -55 178.5t-158 59.5q-159 0 -278 -146v-670l159 -10v-92h-460v92l133 31v1112l-484 22v-1151l172 -10v-96h-538v96l184 31v1130l-293 -12l-28 -201h-119q-11 67 -11 187q0 78 11 131h1106q3 83 14 154q84 22 113 26l41 -6v-481
q0 -15 -11 -166h21q78 90 156 126t163 36q146 0 238 -87.5t92 -254.5v-607zM588 -109q45 0 76 -16q36 -59 36 -125q0 -84 -47.5 -152t-132.5 -98l-33 51q48 36 75.5 69t27.5 73q0 19 -2 31l-84 14l-2 139q44 14 86 14z" />
    <glyph glyph-name="uni030A_acutecomb" unicode="&#x30a;&#x301;" horiz-adv-x="2" 
d="M-217 1862h53q75 -44 113 -97l-234 -186h-106zM-322 1505q100 0 155.5 -47.5t55.5 -136.5q0 -97 -63.5 -147t-165.5 -50q-100 0 -156.5 48t-56.5 137q0 97 65 146.5t166 49.5zM-330 1419q-86 0 -86 -104q0 -51 22.5 -78t61.5 -27q41 0 63.5 28t22.5 79q0 102 -84 102z
" />
    <glyph glyph-name=".notdef" horiz-adv-x="1396" 
d="M1186 1362v-1362h-975v1362h975zM1063 1249h-643l643 -1022v1022zM334 113h655l-655 1040v-1040z" />
    <glyph glyph-name=".null" horiz-adv-x="0" 
 />
    <glyph glyph-name="nonmarkingreturn" horiz-adv-x="682" 
 />
    <glyph glyph-name="CR" unicode="&#xd;" horiz-adv-x="512" 
 />
    <glyph glyph-name="space" unicode=" " horiz-adv-x="512" 
 />
    <glyph glyph-name="exclam" unicode="!" horiz-adv-x="544" 
d="M342 1389l35 -31q0 -132 -23 -507.5t-26 -436.5h-115q-3 61 -26 436.5t-23 507.5q84 31 178 31zM264 209q63 0 90 -21q27 -52 27 -90q0 -64 -53 -123l-154 25l-4 197q36 12 94 12z" />
    <glyph glyph-name="quotedbl" unicode="&#x22;" horiz-adv-x="839" 
d="M694 1470l-49 -419h-115l-49 419q84 31 178 31zM358 1470l-49 -419h-114l-50 419q84 31 179 31z" />
    <glyph glyph-name="numbersign" unicode="#" horiz-adv-x="1224" 
d="M924 778l-41 -348h188v-147l-209 -29l-33 -281h-96l-33 31l31 258h-319l-35 -289h-96l-33 31l31 258h-191v148l211 28l41 348h-186v148l206 29l33 282h96l33 -31l-30 -260h319l35 291h96l33 -31l-31 -260h193v-147zM750 430l43 356h-320l-43 -356h320z" />
    <glyph glyph-name="dollar" unicode="$" horiz-adv-x="1077" 
d="M958 313q0 -104 -49.5 -174t-129 -103t-189.5 -40l2 -252l-103 -10l-20 12l8 248q-74 4 -136 18t-113 40.5t-80 70.5t-29 102q0 74 53 117h121l33 -233q141 -13 153 -13l15 449l-56 26q-63 30 -107.5 58t-86.5 68.5t-63 94t-21 119.5q0 136 89.5 217t250.5 95l-2 252
l100 10l20 -12l-8 -250q67 -3 126 -17.5t109 -41t79.5 -71t29.5 -102.5q0 -71 -53 -114h-121l-30 233q-108 11 -142 12l-14 -428l51 -24q170 -81 241.5 -157.5t71.5 -199.5zM313 942q0 -71 44 -115.5t147 -91.5l-4 383q-187 -20 -187 -176zM584 504l4 -404q194 20 194 183
q0 82 -44.5 126.5t-149.5 92.5z" />
    <glyph glyph-name="percent" unicode="%" horiz-adv-x="1730" 
d="M1300 1229l9 -25q-16 -26 -165 -253t-233 -367q-48 -79 -174.5 -301t-206.5 -349l-98 50l-8 24q217 326 399 623q79 128 202 342.5t177 304.5zM424 1245q100 0 169 -50.5t99.5 -131t30.5 -184.5q0 -177 -87.5 -284.5t-238.5 -107.5q-99 0 -167.5 50.5t-99 131
t-30.5 185.5q0 176 87.5 283.5t236.5 107.5zM412 1157q-152 0 -152 -291t152 -291q151 0 151 291t-151 291zM1331 731q100 0 169 -50.5t99.5 -131t30.5 -184.5q0 -177 -87 -284.5t-238 -107.5q-99 0 -167.5 50.5t-99 131t-30.5 185.5q0 177 87 284t236 107zM1319 643
q-152 0 -152 -291t152 -291q151 0 151 291t-151 291z" />
    <glyph glyph-name="ampersand" unicode="&#x26;" horiz-adv-x="1472" 
d="M1452 78l-10 -74q-60 -24 -121 -24q-96 1 -176.5 36.5t-177.5 108.5l-25 18q-83 -84 -179.5 -127t-227.5 -43q-69 0 -131.5 11.5t-122 39t-103 69.5t-70 107t-26.5 146q0 150 86 240.5t242 144.5q-113 186 -113 330q0 101 56.5 177.5t141.5 113.5t183 37
q138 0 220.5 -74.5t82.5 -198.5q0 -133 -98 -243t-267 -156q137 -192 369 -381q26 57 38.5 133t14.5 129.5t2 153.5q179 28 351 28v-131h-203q-2 -92 -35.5 -190t-97.5 -176q141 -108 270 -177zM659 1284q-84 0 -132 -56t-48 -153q0 -134 96 -293q124 66 176 146t52 180
q0 176 -144 176zM565 82q153 0 307 119q-268 235 -426 469q-176 -114 -176 -303q0 -72 27 -129t71 -89.5t94.5 -49.5t102.5 -17z" />
    <glyph glyph-name="quotesingle" unicode="'" horiz-adv-x="503" 
d="M358 1470l-49 -419h-114l-50 419q84 31 179 31z" />
    <glyph glyph-name="parenleft" unicode="(" horiz-adv-x="661" 
d="M442 1542l76 -37q-108 -216 -157.5 -437.5t-49.5 -489.5t49.5 -490t157.5 -438l-76 -37q-149 175 -224 436t-75 529q0 267 75 528t224 436z" />
    <glyph glyph-name="parenright" unicode=")" horiz-adv-x="661" 
d="M143 1505l76 37q149 -175 224 -436t75 -528q0 -268 -75 -529t-224 -436l-76 37q108 216 157.5 438t49.5 490t-49.5 489.5t-157.5 437.5z" />
    <glyph glyph-name="asterisk" unicode="*" horiz-adv-x="952" 
d="M403 1599h148q8 -36 8 -71q0 -95 -41 -230h-80q-43 131 -43 230q0 35 8 71zM82 1260l45 141q34 -2 72 -15q75 -24 204 -110l-24 -76q-134 0 -232 31q-22 7 -65 29zM823 1399l47 -139q-41 -23 -65 -31q-91 -30 -232 -33l-24 76q107 80 205 112q38 13 69 15zM387 1161
l66 -47q-17 -54 -47.5 -117t-53.5 -94q-21 -27 -49 -53l-119 86q15 34 35 63q24 33 71.5 78.5t96.5 83.5zM494 1110l63 49q51 -36 98.5 -79.5t73.5 -78.5q19 -25 37 -63l-117 -88q-27 19 -51 51q-48 65 -104 209z" />
    <glyph glyph-name="plus" unicode="+" 
d="M1116 539h-420v-426h-135v426h-420v123h420v425h135v-425h420v-123z" />
    <glyph glyph-name="comma" unicode="," horiz-adv-x="505" 
d="M240 211q53 0 88 -21q45 -73 45 -163q0 -122 -75.5 -218t-201.5 -141l-33 56q185 116 185 233q0 21 -4 41l-97 16l-4 185q49 12 97 12z" />
    <glyph glyph-name="hyphen" unicode="-" horiz-adv-x="743" 
d="M625 532h-506v136h506v-136z" />
    <glyph glyph-name="period" unicode="." horiz-adv-x="505" 
d="M274 236q30 0 54 -7q45 -61 45 -116q0 -57 -37 -113h-166l-37 205q57 31 141 31z" />
    <glyph glyph-name="slash" unicode="/" horiz-adv-x="673" 
d="M616 1454l-432 -1827h-102l-25 21l432 1827h103z" />
    <glyph glyph-name="zero" unicode="0" horiz-adv-x="1212" 
d="M623 1243q154 0 262 -82.5t158.5 -219.5t50.5 -316q0 -296 -136 -474t-368 -178q-154 0 -262 83t-158.5 220t-50.5 316q0 296 136 473.5t368 177.5zM606 1141q-147 0 -223 -134.5t-76 -396.5q0 -263 76 -398.5t223 -135.5t223 135.5t76 398.5q0 262 -76 396.5t-223 134.5
z" />
    <glyph glyph-name="one" unicode="1" horiz-adv-x="802" 
d="M752 92v-92h-656v92l246 31v872q-88 -26 -250 -26v106q227 13 336 168l82 -4v-1137z" />
    <glyph glyph-name="two" unicode="2" horiz-adv-x="970" 
d="M760 268h129q10 -58 10 -147q0 -76 -10 -121h-826l-12 117q7 6 22 18q220 179 323 285q257 265 257 489q0 113 -60 173.5t-165 60.5q-71 0 -139 -29l-33 -237h-129q-55 42 -55 116q0 106 110 179t271 73q184 0 291.5 -96t107.5 -240q0 -90 -45 -183.5t-137.5 -194.5
t-199.5 -193.5t-265 -214.5l6 -19q145 20 266 27l266 16z" />
    <glyph glyph-name="three" unicode="3" horiz-adv-x="1024" 
d="M653 598v-20q118 -28 188 -112t70 -208q0 -178 -138 -303t-355 -125q-149 0 -247.5 60.5t-98.5 172.5q0 78 53 119h129l33 -235q73 -15 127 -15q66 0 120.5 17t99.5 52.5t70 98t25 146.5q0 130 -68 202t-227 72h-98v111h215q137 81 137 266q0 246 -252 246
q-79 0 -139 -25l-31 -223h-116q-56 42 -56 113q0 103 107 170t268 67q185 0 294 -94t109 -256q0 -64 -17.5 -114.5t-50 -85t-68.5 -57t-83 -40.5z" />
    <glyph glyph-name="four" unicode="4" horiz-adv-x="1054" 
d="M997 190h-211v-333h-168v333h-550l-11 74q233 515 404 983l157 -57l5 -23q-210 -471 -428 -848l6 -18q168 12 250 12h167v426l127 27l41 -4v-449h211v-123z" />
    <glyph glyph-name="five" unicode="5" horiz-adv-x="1017" 
d="M496 727q195 0 312.5 -114t117.5 -306q0 -206 -135.5 -341.5t-354.5 -135.5q-95 0 -171 25t-124.5 79t-48.5 129q0 78 53 119h129l33 -233q66 -17 123 -17q135 0 223 86t88 250q0 150 -80 228t-247 88l-244 14l23 621l122 26q115 -47 248 -47q148 0 297 47l29 -67
q-139 -146 -346 -146q-125 0 -238 47l-26 -379q114 27 217 27z" />
    <glyph glyph-name="six" unicode="6" horiz-adv-x="1159" 
d="M668 891q121 0 212 -61.5t136 -159.5t45 -215q0 -98 -34 -186t-94.5 -153.5t-151 -104t-197.5 -38.5q-222 0 -343.5 160t-121.5 440q0 181 51.5 334.5t140 258.5t210.5 164t261 59q75 0 148 -17l-6 -92q-283 0 -427 -130t-180 -400h21q147 141 330 141zM604 76
q124 0 198.5 91t74.5 263q0 155 -65.5 241.5t-197.5 86.5q-167 0 -305 -168q-4 -31 -4 -86q0 -116 25 -202t68 -133.5t94.5 -70t111.5 -22.5z" />
    <glyph glyph-name="seven" unicode="7" horiz-adv-x="935" 
d="M901 1219l14 -68q-208 -318 -322.5 -571.5t-178.5 -507.5l57 -193l-137 -51q-51 25 -80 68t-29 118q0 70 29 163t73 186.5t120 223.5t144 236t171 262l-10 15l-535 -37l-20 -143h-115q-10 64 -10 159q0 82 10 140h819z" />
    <glyph glyph-name="eight" unicode="8" horiz-adv-x="1114" 
d="M707 745v-20q67 -27 115.5 -56.5t91.5 -72.5t65 -102.5t22 -135.5q0 -96 -37.5 -171.5t-102 -121t-145.5 -69t-173 -23.5q-191 0 -310.5 94.5t-119.5 264.5q0 75 24.5 136t66.5 100.5t88.5 64t98.5 37.5v20q-252 115 -252 338q0 75 26.5 136.5t69.5 102.5t100 69
t117 40.5t121 12.5q107 0 196.5 -36.5t147.5 -114.5t58 -185q0 -58 -17.5 -107t-45 -81.5t-64.5 -58t-71 -39.5t-70 -22zM322 1051q0 -94 59 -149t201 -118l18 -8q100 38 146.5 100.5t46.5 157.5q0 111 -59 181.5t-175 70.5t-176.5 -68t-60.5 -167zM557 76q122 0 192 72.5
t70 185.5q0 101 -66 158.5t-253 140.5l-8 4q-104 -39 -150.5 -107t-46.5 -168q0 -131 68 -208.5t194 -77.5z" />
    <glyph glyph-name="nine" unicode="9" horiz-adv-x="1159" 
d="M573 1245q223 0 345 -160t122 -440q0 -181 -52 -334.5t-142 -258t-214 -163.5t-265 -59q-80 0 -158 16l6 93q282 0 437 132t190 398h-21q-147 -141 -327 -141q-121 0 -213 62.5t-137.5 160.5t-45.5 215q0 132 57 240t166.5 173.5t251.5 65.5zM545 461q167 0 305 168
q4 31 4 86q0 116 -25 202t-68 133.5t-94.5 70t-111.5 22.5q-124 0 -198 -90t-74 -262q0 -155 65 -242.5t197 -87.5z" />
    <glyph glyph-name="colon" unicode=":" horiz-adv-x="505" 
d="M274 1030q33 0 54 -6q45 -61 45 -117t-37 -112h-166l-37 204q57 31 141 31zM274 236q30 0 54 -7q45 -61 45 -116q0 -57 -37 -113h-166l-37 205q57 31 141 31z" />
    <glyph glyph-name="semicolon" unicode=";" horiz-adv-x="505" 
d="M274 1030q33 0 54 -6q45 -61 45 -117t-37 -112h-166l-37 204q57 31 141 31zM240 211q53 0 88 -21q45 -73 45 -163q0 -122 -75.5 -218t-201.5 -141l-33 56q185 116 185 233q0 21 -4 41l-97 16l-4 185q49 12 97 12z" />
    <glyph glyph-name="less" unicode="&#x3c;" 
d="M1069 1010l-733 -398v-20l733 -397l-57 -111l-865 444v148l865 444z" />
    <glyph glyph-name="equal" unicode="=" 
d="M1116 334h-975v123h975v-123zM1116 743h-975v123h975v-123z" />
    <glyph glyph-name="greater" unicode="&#x3e;" 
d="M1106 676v-148l-864 -444l-58 111l734 397v20l-734 398l58 110z" />
    <glyph glyph-name="question" unicode="?" horiz-adv-x="724" 
d="M258 1372q92 0 166 -25.5t121.5 -67t79.5 -98t45.5 -116t13.5 -123.5q0 -67 -15 -113t-56.5 -86.5t-98.5 -72.5t-156 -76v-221h-110q-53 144 -53 241q0 46 23.5 77.5t88.5 62.5q78 37 111.5 54t73 40t52.5 38.5t22 36t9 46.5q0 112 -118 170.5t-314 58.5v164
q65 10 115 10zM301 209q63 0 90 -21q27 -52 27 -90q0 -64 -53 -123l-154 25l-4 197q36 12 94 12z" />
    <glyph glyph-name="at" unicode="@" horiz-adv-x="1857" 
d="M1081 1430q323 0 505.5 -180t182.5 -484q0 -124 -31.5 -231t-85.5 -183t-124.5 -130t-149 -80.5t-159.5 -26.5q-64 0 -93 19t-26 61l2 45h-19q-106 -144 -270 -144q-142 0 -218.5 93.5t-76.5 265.5q0 157 58.5 292t170 219.5t252.5 84.5q131 0 211 -80q56 53 105 73
l41 -16l-103 -815q177 19 280 156.5t103 367.5q0 271 -145 430.5t-420 159.5q-175 0 -325.5 -66.5t-254.5 -181t-163.5 -270.5t-59.5 -332q0 -136 36.5 -244t103 -182.5t162.5 -123.5t211 -71t253 -22v-74q-85 -20 -176 -20q-156 0 -291 45.5t-239.5 133t-165 228
t-60.5 318.5q0 199 75 377.5t204.5 307.5t311.5 204.5t388 75.5zM1102 358l65 519q-80 71 -166 71q-88 0 -157 -64.5t-105.5 -171.5t-36.5 -235q0 -136 44.5 -192t132.5 -56q68 0 115.5 29.5t107.5 99.5z" />
    <glyph glyph-name="A" unicode="A" horiz-adv-x="1384" 
d="M1358 96v-96h-481v96l149 29q-10 29 -40.5 126t-49.5 152h-551q-18 -56 -48.5 -156t-43.5 -141l149 -10v-96h-415v96l129 29q265 811 434 1237l145 27h21q170 -411 471 -1283zM418 510h483q-142 431 -235 672h-21q-83 -227 -227 -672z" />
    <glyph glyph-name="B" unicode="B" horiz-adv-x="1243" 
d="M866 727v-20q127 -33 195.5 -117t68.5 -217q0 -174 -126 -273.5t-390 -99.5h-514v96l164 31v1128l-166 11v96q260 10 490 10q237 0 359 -96.5t122 -259.5q0 -212 -203 -289zM881 1018q0 123 -69 185.5t-228 62.5h-138v-510h297q138 85 138 262zM446 106h191q163 0 234 68
t71 207t-72.5 204.5t-242.5 65.5h-181v-545z" />
    <glyph glyph-name="C" unicode="C" horiz-adv-x="1316" 
d="M1157 246l45 -70q-165 -203 -457 -203q-125 0 -230.5 36.5t-181 101t-128 153t-78 193t-25.5 219.5q0 206 78.5 366t234 253.5t367.5 93.5q181 0 367 -80q10 -48 10 -111q0 -76 -12 -194h-121l-33 233q-88 37 -198 37q-241 0 -367.5 -149.5t-126.5 -426.5
q0 -291 132.5 -441.5t354.5 -150.5q195 0 369 140z" />
    <glyph glyph-name="D" unicode="D" horiz-adv-x="1415" 
d="M580 1372q156 0 279.5 -33t208 -91.5t140 -142.5t80.5 -183t25 -217q0 -157 -40.5 -283.5t-123.5 -222t-219 -147.5t-318 -52h-514v96l164 31v1128l-164 11v96q260 10 482 10zM444 109h170q259 0 379.5 149t120.5 447q0 559 -483 559h-187v-1155z" />
    <glyph glyph-name="E" unicode="E" horiz-adv-x="1236" 
d="M1001 311l119 -12q2 -27 2 -86q0 -93 -26 -213h-998v96l164 31v1128l-164 11v96h1000q10 -48 10 -133q0 -86 -10 -164h-119l-25 174l-510 18v-499h285l23 127h92v-379h-92l-25 143h-283v-545l508 19z" />
    <glyph glyph-name="F" unicode="F" horiz-adv-x="1165" 
d="M98 1362h981q11 -53 11 -133q0 -78 -11 -164h-121l-24 174l-490 18v-548h281l23 127h96v-379h-96l-25 143h-279v-494l205 -10v-96h-551v96l164 31v1128l-164 11v96z" />
    <glyph glyph-name="G" unicode="G" horiz-adv-x="1384" 
d="M1290 592v-96l-102 -31v-412q-90 -38 -205 -59t-215 -21q-161 0 -289.5 55.5t-210 151.5t-124 221.5t-42.5 270.5q0 208 84 370t244 254.5t373 92.5q180 0 366 -80q11 -53 11 -109q0 -61 -13 -176h-120l-29 205q-80 45 -209 45q-242 0 -375 -151t-133 -439
q0 -286 129 -441t350 -155q139 0 252 55l-26 342l-203 11v96h487z" />
    <glyph glyph-name="H" unicode="H" horiz-adv-x="1560" 
d="M1298 1235v-1129l164 -10v-96h-510v96l164 31v522h-672v-543l181 -10v-96h-527v96l164 31v1128l-164 11v96h527v-96l-181 -31v-475h672v495l-182 11v96h528v-96z" />
    <glyph glyph-name="I" unicode="I" horiz-adv-x="706" 
d="M444 1235v-1129l164 -10v-96h-510v96l164 31v1128l-164 11v96h510v-96z" />
    <glyph glyph-name="J" unicode="J" horiz-adv-x="956" 
d="M895 1362v-96l-164 -31v-862q0 -89 -21 -159t-56 -114.5t-83.5 -73.5t-100 -41t-110.5 -12q-78 0 -140 21t-98.5 55.5t-55.5 74.5t-19 81q0 69 51 117h133l31 -224q52 -10 86 -10q96 0 148.5 57.5t52.5 196.5v913l-236 11v96h582z" />
    <glyph glyph-name="K" unicode="K" horiz-adv-x="1380" 
d="M1333 78l-10 -72q-71 -22 -123 -22t-91 11t-71.5 37.5t-55.5 54.5t-56 77q-40 60 -87.5 141t-106 183.5t-91.5 158.5h-197v-541l179 -10v-96h-525v96l164 31v1128l-164 11v96h504v-96l-158 -31v-477h215q178 245 340 495l-176 13v96h473v-96l-129 -23
q-188 -245 -397 -493q62 -84 125 -176.5t162.5 -243t130.5 -197.5z" />
    <glyph glyph-name="L" unicode="L" horiz-adv-x="1122" 
d="M940 332l115 -13q4 -66 4 -112q0 -113 -27 -207h-934v96l164 31v1128l-164 11v96h541v-96l-195 -31v-1131l441 17z" />
    <glyph glyph-name="M" unicode="M" horiz-adv-x="1830" 
d="M1769 96v-96h-526v96l180 31q-16 707 -34 1102h-21q-24 -114 -90 -297l-313 -869l-111 -22h-20l-314 879q-48 139 -92 309h-20q-32 -492 -46 -1123l179 -10v-96h-480v96l164 31q22 563 66 1126l-164 13v96h438q172 -472 348 -1038h21q154 491 356 1038h414v-96l-160 -29
q38 -533 62 -1131z" />
    <glyph glyph-name="N" unicode="N" horiz-adv-x="1550" 
d="M1473 1266l-164 -31v-1235l-135 -27h-25l-586 967q-66 108 -155 289h-21l12 -1123l191 -10v-96h-492v96l164 31v1126l-164 13v96h422l467 -772q97 -161 180 -320h21l-17 985l-192 11v96h494v-96z" />
    <glyph glyph-name="O" unicode="O" horiz-adv-x="1490" 
d="M764 1389q152 0 272.5 -54.5t196.5 -149.5t116 -219t40 -268q0 -209 -79.5 -373t-230.5 -258t-350 -94q-151 0 -272 55.5t-197.5 151.5t-117 221.5t-40.5 270.5q0 207 78.5 369t230 255t353.5 93zM745 1274q-202 0 -321 -152.5t-119 -437.5q0 -286 119.5 -441t320.5 -155
t321 155t120 441q0 285 -119.5 437.5t-321.5 152.5z" />
    <glyph glyph-name="P" unicode="P" horiz-adv-x="1173" 
d="M586 1372q248 0 377 -117.5t129 -322.5q0 -190 -114.5 -308t-283.5 -118q-78 0 -145 16v92h49q152 0 223.5 78.5t71.5 237.5q0 163 -77.5 247.5t-246.5 84.5h-125v-1156l201 -10v-96h-547v96l164 31v1128l-164 11v96q260 10 488 10z" />
    <glyph glyph-name="Q" unicode="Q" horiz-adv-x="1490" 
d="M764 1389q152 0 272.5 -54.5t196.5 -149.5t116 -219.5t40 -269.5q0 -245 -110 -426t-314 -256v-20l280 -236l139 -51l-8 -80q-71 -12 -131 -12q-67 0 -114.5 17.5t-96.5 70.5l-248 270h-61q-120 0 -222 36.5t-175 101t-124.5 152.5t-76.5 192t-25 219q0 206 78.5 367.5
t230 254.5t353.5 93zM745 1274q-202 0 -321 -152.5t-119 -437.5q0 -286 119.5 -441t320.5 -155t321 155t120 441q0 285 -119.5 437.5t-321.5 152.5z" />
    <glyph glyph-name="R" unicode="R" horiz-adv-x="1290" 
d="M1274 78l-8 -72q-68 -22 -127 -22q-48 0 -86.5 11.5t-67.5 34.5t-45.5 41t-38.5 48q-45 62 -149 223.5t-148 226.5h-160v-463l181 -10v-96h-527v96l164 31v1128l-164 11v96q225 10 422 10q153 0 266 -30t178.5 -85.5t96.5 -126t31 -157.5q0 -267 -295 -365l-6 -20
q76 -80 190 -245.5t154 -213.5zM444 680h291q79 45 116.5 115t37.5 176q0 149 -75.5 217t-244.5 69h-125v-577z" />
    <glyph glyph-name="S" unicode="S" horiz-adv-x="1099" 
d="M485 827l166 -75q66 -30 112 -55t94 -61.5t76.5 -76t47 -94t18.5 -119.5q0 -96 -37 -169t-103.5 -117t-152 -65.5t-188.5 -21.5q-197 0 -383 82q-22 107 -22 185q0 36 6 79l106 13l58 -201q99 -47 237 -47q146 0 218.5 52t72.5 167q0 102 -55.5 159t-177.5 113l-175 80
q-57 25 -100 54t-82.5 71t-60.5 101t-21 131q0 173 119 275t320 102q179 0 352 -82q12 -58 12 -109q0 -60 -12 -154h-121l-27 191q-97 43 -209 43q-132 0 -200 -59t-68 -172q0 -84 41 -130t139 -90z" />
    <glyph glyph-name="T" unicode="T" horiz-adv-x="1208" 
d="M74 1362h1061q10 -48 10 -127q0 -125 -10 -191h-119l-29 201l-291 12v-1151l185 -10v-96h-551v96l184 31v1130l-293 -12l-28 -201h-119q-11 73 -11 191q0 74 11 127z" />
    <glyph glyph-name="U" unicode="U" horiz-adv-x="1470" 
d="M1409 1266l-164 -31v-778q0 -220 -130.5 -352t-371.5 -132q-245 0 -381.5 135.5t-136.5 362.5v784l-164 11v96h517v-96l-170 -31v-762q0 -385 350 -385t350 385v782l-193 11v96h494v-96z" />
    <glyph glyph-name="V" unicode="V" horiz-adv-x="1363" 
d="M1337 1266l-118 -29q-92 -284 -224.5 -654t-218.5 -583l-137 -27h-21q-168 406 -471 1284l-120 9v96h501v-96l-180 -31q85 -269 190 -576.5t171 -478.5h20q64 172 168 489.5t184 585.5l-184 11v96h440v-96z" />
    <glyph glyph-name="W" unicode="W" horiz-adv-x="2103" 
d="M2056 1266l-117 -29q-228 -741 -403 -1237l-137 -27h-21q-239 687 -301 883h-20q-164 -502 -301 -856l-140 -27h-20q-242 673 -432 1284l-117 9v96h502v-96l-180 -31q154 -561 319 -1055h21q186 534 297 883l-60 192l-117 11v96h506v-96l-194 -31q15 -50 62.5 -212.5
t74 -252t66.5 -219.5t70.5 -220.5t53.5 -150.5h21q171 541 311 1075l-184 11v96h440v-96z" />
    <glyph glyph-name="X" unicode="X" horiz-adv-x="1435" 
d="M1374 96v-96h-545v96l170 31q-204 330 -299 459h-24q-117 -152 -340 -480l168 -10v-96h-443v96l115 27q226 289 453 553q-251 357 -389 579l-146 11v96h541v-96l-174 -29q187 -299 282 -424h23q48 65 92 128.5t113 167.5t98 146l-166 11v96h440v-96l-114 -27
q-266 -354 -412 -524q217 -308 410 -611z" />
    <glyph glyph-name="Y" unicode="Y" horiz-adv-x="1366" 
d="M1309 1266l-117 -31q-159 -327 -406 -748v-381l185 -10v-96h-551v96l184 31v356q-206 353 -424 772l-123 11v96h502v-96l-174 -29q178 -358 328 -606h20q66 106 159 284.5t167 339.5l-191 11v96h441v-96z" />
    <glyph glyph-name="Z" unicode="Z" horiz-adv-x="1210" 
d="M1006 332l122 -13q5 -68 5 -88q0 -126 -27 -231h-1016l-10 41l665 1014q23 36 71 101t67 93l-11 15l-606 -23l-26 -197h-121q-13 93 -13 168q0 90 11 150h1001l10 -41l-645 -983q-30 -45 -87 -124.5t-72 -100.5l10 -15l624 23z" />
    <glyph glyph-name="bracketleft" unicode="[" horiz-adv-x="671" 
d="M553 1417l-221 -12q26 -387 26 -811q0 -432 -26 -842l221 -12v-100h-348v1876h348v-99z" />
    <glyph glyph-name="backslash" unicode="\" horiz-adv-x="673" 
d="M489 -373l-432 1827l25 21h102l432 -1827l-24 -21h-103z" />
    <glyph glyph-name="bracketright" unicode="]" horiz-adv-x="671" 
d="M467 1516v-1876h-348v100l221 12q-27 425 -27 842q0 409 27 811l-221 12v99h348z" />
    <glyph glyph-name="asciicircum" unicode="^" horiz-adv-x="892" 
d="M825 1032l-110 -69l-258 358h-21l-258 -358l-110 69l305 469h147z" />
    <glyph glyph-name="underscore" unicode="_" horiz-adv-x="935" 
d="M838 -276h-740v108h740v-108z" />
    <glyph glyph-name="grave" unicode="`" horiz-adv-x="514" 
d="M453 1174h-107l-285 288q50 77 134 109h53z" />
    <glyph glyph-name="a" unicode="a" horiz-adv-x="1060" 
d="M1012 109v-80q-85 -45 -168 -45q-69 0 -101 31.5t-32 95.5v28h-21q-70 -81 -142 -123.5t-175 -42.5q-135 0 -208 71.5t-73 184.5q0 72 31.5 127t79.5 87t114.5 52.5t126.5 27.5t125 7q75 0 133 -8l3 197q1 120 -61 174.5t-171 54.5q-61 0 -115 -12l-32 -234h-123
q-58 43 -58 107q0 69 59 126t145.5 86.5t176.5 29.5q151 0 249 -85.5t97 -236.5l-6 -610zM422 96q154 0 276 158l4 195h-38q-207 0 -297.5 -48.5t-90.5 -158.5q0 -146 146 -146z" />
    <glyph glyph-name="b" unicode="b" horiz-adv-x="1187" 
d="M352 1532v-477q0 -29 -10 -166h20q131 162 322 162q98 0 176 -38.5t128 -107t76 -159.5t26 -199q0 -264 -145 -419t-386 -155q-81 0 -186.5 17.5t-188.5 46.5v1358l-141 20v84q129 36 268 43zM627 918q-86 0 -150.5 -36t-124.5 -110v-643q98 -53 221 -53
q165 0 248.5 119.5t83.5 334.5q0 388 -278 388z" />
    <glyph glyph-name="c" unicode="c" horiz-adv-x="997" 
d="M877 227l43 -65q-147 -189 -383 -189q-88 0 -162 27.5t-126.5 76t-89 115t-54 144t-17.5 162.5q0 245 133.5 399t345.5 154q45 0 88.5 -7.5t86.5 -25t75 -43t52 -65.5t20 -89q0 -76 -53 -119h-131l-33 236q-41 10 -80 10q-149 0 -234.5 -109t-85.5 -313t84 -309.5
t222 -105.5q147 0 299 116z" />
    <glyph glyph-name="d" unicode="d" horiz-adv-x="1208" 
d="M1004 1532v-1382l143 -37v-84q-153 -37 -270 -45l-41 8l10 143h-21q-131 -162 -321 -162q-130 0 -223.5 66.5t-138 177.5t-44.5 254q0 256 138.5 418t355.5 162q126 0 244 -47v389l-142 20v84q138 38 269 45zM600 948q-155 0 -236 -123.5t-81 -332.5q0 -386 280 -386
q88 0 151.5 37.5t121.5 108.5v631q-50 32 -114.5 48.5t-121.5 16.5z" />
    <glyph glyph-name="e" unicode="e" horiz-adv-x="1040" 
d="M897 227l43 -65q-148 -189 -391 -189q-114 0 -204 42.5t-145 116t-83.5 166.5t-28.5 200q0 245 135.5 399t354.5 154q176 0 266 -102.5t90 -270.5q0 -72 -16 -154h-646q1 -199 87.5 -306t228.5 -107q151 0 309 116zM557 948q-110 0 -187 -87.5t-94 -248.5l484 19
q0 317 -203 317z" />
    <glyph glyph-name="f" unicode="f" horiz-adv-x="681" 
d="M575 1542q110 0 186.5 -44t76.5 -120q0 -56 -43 -96h-125l-23 154q-28 4 -49 4q-209 0 -209 -279v-137h289v-109h-289v-813l213 -10v-92h-524v92l143 31v792l-143 11v82l143 32v90q0 111 28.5 193t79 128.5t112 68.5t134.5 22z" />
    <glyph glyph-name="g" unicode="g" horiz-adv-x="1087" 
d="M911 1016l-71 -84q84 -93 84 -230q0 -161 -117 -264.5t-309 -103.5q-52 0 -107 10v-147l275 -37q197 -27 278.5 -84t81.5 -160q0 -158 -160.5 -255t-421.5 -97q-192 0 -292.5 61.5t-100.5 198.5q0 105 57.5 174.5t153.5 83.5q3 98 33 293q-92 43 -140.5 125t-48.5 182
q0 161 117 265t309 104q156 0 254 -72q39 207 164 207q61 0 101 -47l-17 -123h-123zM516 434q113 0 170 66.5t57 191.5t-57 191.5t-170 66.5q-114 0 -171.5 -66.5t-57.5 -191.5t57.5 -191.5t171.5 -66.5zM569 14l-266 39q-32 -37 -49.5 -88.5t-17.5 -101.5q0 -102 71 -149.5
t197 -47.5q90 0 173.5 20.5t143.5 67.5t60 111q0 36 -22 60t-92 47t-198 42z" />
    <glyph glyph-name="h" unicode="h" horiz-adv-x="1222" 
d="M1196 92v-92h-471v92l139 31v557q0 119 -55 178.5t-158 59.5q-159 0 -278 -146v-670l159 -10v-92h-471v92l144 31v1270l-142 20v84q138 38 269 45l41 -10v-477q0 -15 -11 -166h21q78 90 156 126t163 36q146 0 238 -87.5t92 -254.5v-607z" />
    <glyph glyph-name="i" unicode="i" horiz-adv-x="593" 
d="M549 92v-92h-471v92l143 31v756l-143 36v84q153 37 270 45l41 -8v-934zM303 1485q37 0 59 -10q35 -50 35 -99q0 -52 -45 -116h-143l-25 208q65 17 119 17z" />
    <glyph glyph-name="j" unicode="j" horiz-adv-x="557" 
d="M373 1036v-1054q0 -158 -51.5 -248t-186.5 -170l-59 63l129 191v1061l-144 36v84q152 37 271 45zM289 1485q37 0 59 -10q35 -50 35 -99q0 -52 -45 -116h-143l-25 208q65 17 119 17z" />
    <glyph glyph-name="k" unicode="k" horiz-adv-x="1132" 
d="M1112 63l-8 -61q-58 -18 -113 -18q-77 0 -126 30.5t-97 106.5q-8 13 -39 63.5t-81 131.5t-107 171h-168v-385l139 -10v-92h-451v92l144 31v1272l-142 20v84q129 36 269 43l41 -10v-942h149q125 142 275 332l-146 10v92h412v-92l-119 -29q-173 -187 -299 -305
q57 -76 118 -162t132 -187.5t100 -142.5z" />
    <glyph glyph-name="l" unicode="l" horiz-adv-x="577" 
d="M532 92v-92h-471v92l144 31v1272l-142 20v84q129 36 269 43l41 -10v-1430z" />
    <glyph glyph-name="m" unicode="m" horiz-adv-x="1873" 
d="M1847 92v-92h-450v92l123 31v557q0 238 -211 238q-82 0 -145.5 -35.5t-125.5 -102.5v-678l129 -10v-92h-399v92l102 31v557q0 238 -208 238q-160 0 -273 -146v-670l150 -10v-92h-461v92l143 31v756l-143 36v84q153 37 270 45l41 -8l-10 -147h20q75 88 148.5 125t167.5 37
q53 0 98 -11.5t74 -27.5t53.5 -40.5t37.5 -44t26 -44.5h20q79 88 158.5 128t177.5 40q148 0 238 -87.5t90 -254.5v-607z" />
    <glyph glyph-name="n" unicode="n" horiz-adv-x="1243" 
d="M1217 92v-92h-472v92l140 31v557q0 119 -56.5 178.5t-160.5 59.5q-160 0 -279 -146v-670l160 -10v-92h-471v92l143 31v756l-143 36v84q153 37 270 45l41 -8l-10 -147h20q142 162 320 162q147 0 240.5 -88t93.5 -254v-607z" />
    <glyph glyph-name="o" unicode="o" horiz-adv-x="1138" 
d="M586 1051q115 0 205 -42t146 -115.5t85 -167t29 -200.5q0 -158 -60 -283t-174.5 -197.5t-265.5 -72.5q-92 0 -168.5 27.5t-130 76.5t-91 115.5t-55.5 144t-18 163.5q0 158 60 283t174 196.5t264 71.5zM569 948q-143 0 -216.5 -109t-73.5 -325q0 -218 73.5 -328
t216.5 -110t217 110.5t74 327.5q0 216 -74 325t-217 109z" />
    <glyph glyph-name="p" unicode="p" horiz-adv-x="1208" 
d="M705 1051q130 0 223 -66.5t137.5 -177.5t44.5 -254q0 -253 -137.5 -416.5t-360.5 -163.5q-121 0 -239 50v-330l159 -10v-93h-471v93l144 30v1166l-144 36v84q152 37 271 45l41 -8l-11 -147h21q131 162 322 162zM606 76q158 0 239 123t81 333q0 386 -279 386
q-86 0 -150 -36t-124 -110v-633q104 -63 233 -63z" />
    <glyph glyph-name="q" unicode="q" horiz-adv-x="1187" 
d="M1147 -317v-93h-492v93l181 30v256q0 29 10 166h-21q-131 -162 -321 -162q-130 0 -223.5 67t-138 178.5t-44.5 254.5q0 163 57.5 292.5t175 207.5t277.5 78q84 0 138.5 -20t115.5 -60q47 50 101 73l41 -14v-1337zM836 252v602q-59 49 -111.5 71.5t-116.5 22.5
q-158 0 -241.5 -124.5t-83.5 -334.5q0 -383 280 -383q88 0 151.5 37.5t121.5 108.5z" />
    <glyph glyph-name="r" unicode="r" horiz-adv-x="792" 
d="M737 844h-213q-74 -52 -135 -160v-582l203 -10v-92h-514v92l143 31v756l-143 36v84q155 38 262 45l41 -8l-12 -217h20q133 232 252 232q37 0 68.5 -20t46.5 -52z" />
    <glyph glyph-name="s" unicode="s" horiz-adv-x="919" 
d="M434 625l111 -43q69 -27 113.5 -50.5t86.5 -59.5t62 -85t20 -113q0 -153 -109 -227t-288 -74q-169 0 -328 70q-10 48 -10 117q0 77 10 141h123l27 -190q71 -35 174 -35q110 0 167.5 41t57.5 119q0 68 -42.5 107.5t-137.5 78.5l-102 41q-57 23 -96 45.5t-75.5 56t-54.5 80
t-18 107.5q0 140 98 219.5t269 79.5q143 0 286 -66q10 -48 10 -117q0 -80 -10 -141h-112l-25 184q-78 37 -158 37q-98 0 -151 -42.5t-53 -119.5q0 -62 34.5 -93.5t120.5 -67.5z" />
    <glyph glyph-name="t" unicode="t" horiz-adv-x="741" 
d="M686 139l25 -80q-107 -86 -250 -86q-115 0 -188.5 59t-73.5 183v700l-144 11v82l146 32l104 254l62 -4v-266h305v-109h-305v-675q0 -79 31.5 -111.5t105.5 -32.5q77 0 182 43z" />
    <glyph glyph-name="u" unicode="u" horiz-adv-x="1222" 
d="M1161 113v-84q-153 -37 -270 -45l-41 8l10 147h-20q-78 -92 -156 -129t-164 -37q-146 0 -238 89t-92 257v560l-143 36v84q153 37 270 45l41 -8v-688q0 -242 213 -242q158 0 279 150v623l-143 36v84q153 37 270 45l41 -8v-886z" />
    <glyph glyph-name="v" unicode="v" horiz-adv-x="1157" 
d="M1141 932l-125 -29q-79 -225 -357 -903l-112 -27h-21q-199 462 -376 949l-134 10v92h426v-92l-104 -29q129 -377 266 -702h21q158 390 264 721l-158 10v92h410v-92z" />
    <glyph glyph-name="w" unicode="w" horiz-adv-x="1767" 
d="M1718 932l-125 -29q-100 -347 -295 -903l-116 -27h-21q-143 426 -248 809h-18q-210 -639 -262 -782l-117 -27h-20q-193 525 -316 949l-131 10v92h426v-92l-104 -31q64 -265 204 -700h21q179 519 264 823l119 27h22q128 -499 240 -850h21q151 489 204 721l-157 10v92h409
v-92z" />
    <glyph glyph-name="x" unicode="x" horiz-adv-x="1103" 
d="M1083 92v-92h-440v92l102 29q-148 225 -215 311h-18q-149 -211 -221 -330l158 -10v-92h-429v92l125 29q98 127 322 389q-29 39 -81.5 109.5t-84.5 113.5t-70.5 96.5t-64.5 92.5l-129 10v92h438v-92l-110 -29q58 -87 210 -291h19q115 160 209 310l-146 10v92h410v-92
l-121 -29q-110 -137 -311 -364q203 -277 309 -437z" />
    <glyph glyph-name="y" unicode="y" horiz-adv-x="1157" 
d="M1141 932l-125 -29q-135 -378 -402 -1018q-134 -321 -344 -321q-98 0 -143 61l16 107h265q79 121 124 254q-158 343 -382 936l-134 10v92h426v-92l-104 -29q116 -345 266 -702h23q175 442 262 721l-158 10v92h410v-92z" />
    <glyph glyph-name="z" unicode="z" horiz-adv-x="933" 
d="M750 311l112 -10q4 -46 4 -90q0 -113 -26 -211h-758l-14 86l438 633q9 14 139 196l-8 15l-395 -17l-27 -186h-113q-10 65 -10 162q0 87 10 135h727l15 -88l-436 -631q-24 -36 -47.5 -69t-50 -68.5t-42.5 -58.5l8 -15l422 15z" />
    <glyph glyph-name="braceleft" unicode="{" horiz-adv-x="649" 
d="M547 1427l-219 -55q5 -28 35 -180.5t45.5 -252t15.5 -153.5q0 -73 -42 -114.5t-153 -65.5v-20q110 -24 152.5 -65t42.5 -118q0 -56 -15 -157.5t-47 -274t-34 -186.5l219 -57v-90q-44 -5 -96 -5q-136 0 -199.5 47.5t-63.5 141.5q0 25 4 64.5t14 103t20 123.5t27.5 167
t31.5 193l-162 70v106l162 70q-14 82 -31.5 182.5t-27.5 157t-20 116.5t-14 97.5t-4 62.5q0 187 263 187q61 0 96 -4v-91z" />
    <glyph glyph-name="bar" unicode="|" horiz-adv-x="544" 
d="M334 -246h-123v1782h123v-1782z" />
    <glyph glyph-name="braceright" unicode="}" horiz-adv-x="649" 
d="M526 543l-161 -70q13 -83 31 -193t27.5 -168t19.5 -122.5t14 -103t4 -64.5q0 -94 -63.5 -141.5t-198.5 -47.5q-53 0 -97 5v90l220 57q-4 23 -35 188.5t-46.5 269.5t-15.5 160q0 77 42.5 118t152.5 65v20q-111 24 -153 65.5t-42 114.5q0 54 16 154.5t45.5 249.5t35.5 182
l-220 55v91q35 4 97 4q262 0 262 -187q0 -25 -4 -62t-14 -98t-19.5 -116t-27.5 -158t-31 -182l161 -70v-106z" />
    <glyph glyph-name="asciitilde" unicode="~" 
d="M1069 709l55 -56q-12 -33 -31.5 -66.5t-51 -71t-78 -61.5t-99.5 -24q-44 0 -95.5 21t-176.5 88q-41 22 -223 120l-181 -163l-55 55q12 34 33.5 68.5t53.5 71.5t78 60t97 23q42 0 96.5 -21t176.5 -87l223 -121z" />
    <glyph glyph-name="uni00A0" unicode="&#xa0;" horiz-adv-x="512" 
 />
    <glyph glyph-name="exclamdown" unicode="&#xa1;" horiz-adv-x="544" 
d="M264 1051q63 0 90 -21q27 -52 27 -90q0 -64 -53 -123l-154 25l-4 196q39 13 94 13zM213 610h115q3 -61 26 -436.5t23 -507.5q-84 -31 -178 -31l-35 31q0 132 23 507.5t26 436.5z" />
    <glyph glyph-name="cent" unicode="&#xa2;" horiz-adv-x="1011" 
d="M887 326l43 -66q-124 -158 -309 -184l6 -219l-103 -11l-20 13l6 215q-101 7 -180.5 51.5t-129.5 116t-76 162t-26 192.5q0 219 111 370.5t301 178.5l-6 217l100 10l21 -12l-7 -213q57 -3 108.5 -17.5t97.5 -41.5t73 -72.5t27 -104.5q0 -74 -54 -118h-127l-30 245
q-70 9 -97 9q-4 -262 -4 -416q0 -239 6 -432q138 12 269 127zM283 618q0 -177 61.5 -281.5t167.5 -131.5q4 254 4 409q0 162 -4 420q-111 -31 -170 -138t-59 -278z" />
    <glyph glyph-name="sterling" unicode="&#xa3;" horiz-adv-x="1181" 
d="M995 332h90q5 -88 5 -96q0 -146 -54.5 -204.5t-177.5 -58.5q-34 0 -74.5 4t-76 10t-79 15.5t-74 17t-71.5 19.5t-60.5 18t-51.5 16t-35 11q-61 -111 -156 -111q-40 0 -80 25l-18 149l166 58q74 74 74 203q0 53 -15 137h-198v102h176q-27 127 -27 197q0 175 114.5 288
t309.5 113q62 0 118.5 -12.5t105 -38.5t77.5 -72t29 -106q0 -75 -54 -119h-120l-33 233q-64 11 -115 11q-124 0 -186 -71t-62 -196q0 -19 2 -40t3.5 -36t6.5 -40.5t7 -35t8.5 -39.5t7.5 -36h346v-102h-325q8 -39 8 -84q0 -85 -42.5 -154.5t-146.5 -132.5l9 -18q76 10 182 10
q216 0 428 -39z" />
    <glyph glyph-name="currency" unicode="&#xa4;" horiz-adv-x="1142" 
d="M938 602q0 -113 -55 -203l186 -186l-94 -96l-187 186q-94 -59 -221 -59q-128 0 -213 57l-184 -184l-96 94l184 184q-53 83 -53 193q0 129 71 219l-202 203l96 94l211 -211q91 51 209 51q107 0 184 -41l201 201l94 -96l-195 -195q64 -85 64 -211zM578 346q184 0 184 250
q0 246 -184 246q-95 0 -146 -65t-51 -181q0 -118 51 -184t146 -66z" />
    <glyph glyph-name="yen" unicode="&#xa5;" horiz-adv-x="1286" 
d="M1214 1124l-135 -30q-76 -155 -225 -398h248v-102h-314l-55 -90v-94h369v-103h-369v-201l174 -10v-96h-510v96l154 31v180h-369v103h369v96l-55 88h-314v102h250q-164 260 -246 418h-2l-112 10v97h481v-97l-162 -28q150 -299 268 -492h21q105 165 266 510l-147 10v97h415
v-97z" />
    <glyph glyph-name="brokenbar" unicode="&#xa6;" horiz-adv-x="544" 
d="M334 942h-123v594h123v-594zM334 -246h-123v594h123v-594z" />
    <glyph glyph-name="section" unicode="&#xa7;" horiz-adv-x="1003" 
d="M946 420q0 -73 -39.5 -133t-138.5 -109q43 -64 43 -145q0 -136 -93 -221.5t-249 -85.5q-129 0 -211 59.5t-82 151.5q0 65 49 104h113l29 -201q59 -12 108 -12q93 0 137.5 44.5t44.5 115.5q0 42 -21.5 77.5t-61.5 71t-140 115.5q-15 12 -42 33q-60 47 -87 68.5t-69.5 56.5
t-60 52.5t-43.5 44.5t-35.5 45t-21 42.5t-15 47.5t-3.5 50q0 76 40 135t139 109q-43 68 -43 149q0 132 93.5 218t248.5 86q129 0 210.5 -59.5t81.5 -151.5q0 -66 -49 -105h-112l-29 201q-59 12 -109 12q-93 0 -137.5 -44t-44.5 -114q0 -62 44 -112.5t179 -153.5
q198 -154 252 -204q99 -93 119 -178q6 -28 6 -60zM709 246q69 59 69 135q0 77 -66.5 147.5t-234.5 194.5q-140 103 -182 145q-38 -34 -54 -64.5t-16 -70.5q0 -67 57 -132t244 -210q152 -118 183 -145z" />
    <glyph glyph-name="dieresis" unicode="&#xa8;" horiz-adv-x="739" 
d="M174 1462q40 0 59 -8q33 -54 33 -92q0 -49 -39 -107h-133l-24 191q40 16 104 16zM578 1462q40 0 59 -8q33 -54 33 -92q0 -49 -39 -107h-133l-25 191q40 16 105 16z" />
    <glyph glyph-name="copyright" unicode="&#xa9;" horiz-adv-x="1609" 
d="M817 1389q308 0 499 -192t191 -505q0 -215 -94 -380t-255.5 -252t-364.5 -87t-360 88t-244 248t-87 367q0 215 94 378.5t256 249t365 85.5zM805 70q254 0 411.5 168t157.5 446q0 276 -157.5 442t-411.5 166t-411.5 -166t-157.5 -442q0 -277 158 -445.5t411 -168.5z
M852 375q116 0 227 100l39 -65q-112 -146 -303 -146q-116 0 -199.5 57t-123 147.5t-39.5 201.5q0 188 109 308t274 120q47 0 92.5 -10.5t86 -32.5t65 -61t24.5 -89q0 -66 -41 -98h-119l-26 182q-42 10 -76 10q-95 0 -148 -81.5t-53 -229.5q0 -156 57.5 -234.5t153.5 -78.5z
" />
    <glyph glyph-name="ordfeminine" unicode="&#xaa;" horiz-adv-x="741" 
d="M705 539v-64q-72 -37 -142 -37q-88 0 -88 76v21h-12q-29 -33 -51 -52t-62 -36t-88 -17q-91 0 -142.5 48.5t-51.5 131.5q0 52 22 90.5t55 59.5t79.5 34t86 17t84.5 4q42 0 74 -4l2 111q3 157 -141 157q-28 0 -80 -10l-21 -149h-86q-41 33 -41 77q0 68 76 117t176 49
q107 0 179 -62t71 -181l-6 -375zM303 537q91 0 164 92l2 123l-29 -2q-121 -6 -172 -33.5t-51 -93.5q0 -86 86 -86z" />
    <glyph glyph-name="guillemotleft" unicode="&#xab;" horiz-adv-x="1067" 
d="M899 893l-178 -326l180 -325l-82 -58l-307 369v29l305 368zM506 893l-178 -326l180 -325l-82 -58l-307 369v29l305 368z" />
    <glyph glyph-name="logicalnot" unicode="&#xac;" 
d="M1014 199h-135v340h-740v123h875v-463z" />
    <glyph glyph-name="uni00AD" unicode="&#xad;" horiz-adv-x="743" 
d="M625 532h-506v136h506v-136z" />
    <glyph glyph-name="registered" unicode="&#xae;" horiz-adv-x="1216" 
d="M616 1477q220 0 360 -137.5t140 -358.5q0 -151 -69.5 -267.5t-186 -177.5t-260.5 -61q-220 0 -360 138.5t-140 359.5q0 151 69.5 267t186 176.5t260.5 60.5zM608 551q177 0 291.5 118t114.5 308q0 191 -114.5 307.5t-291.5 116.5t-291 -116.5t-114 -307.5
q0 -190 114 -308t291 -118zM692 958l-2 -10q20 -20 42.5 -48.5t53 -70.5t37.5 -51l41 -16l-4 -43q-24 -8 -59 -8q-61 0 -90 45q-13 20 -55 90l-54 90h-45v-164l70 -6v-49h-244v49l61 12v416l-61 4v51q82 6 170 6q140 0 196 -39.5t56 -115.5q0 -114 -113 -142zM557 993h82
q47 32 47 103q0 49 -20.5 74.5t-71.5 25.5h-37v-203z" />
    <glyph glyph-name="macron" unicode="&#xaf;" horiz-adv-x="667" 
d="M70 1405h528q8 -31 8 -68q0 -36 -8 -67h-528q-9 34 -9 67t9 68z" />
    <glyph glyph-name="degree" unicode="&#xb0;" horiz-adv-x="694" 
d="M354 1501q117 0 196 -82t79 -196q0 -120 -87 -202.5t-204 -82.5t-194.5 81t-77.5 195q0 120 85.5 203.5t202.5 83.5zM346 1393q-68 0 -115 -49t-47 -125t47 -124t115 -48t114 48t46 124q0 77 -46.5 125.5t-113.5 48.5z" />
    <glyph glyph-name="plusminus" unicode="&#xb1;" 
d="M1065 764v-123h-369v-324h-135v324h-368v123h368v323h135v-323h369zM193 123h872v-123h-872v123z" />
    <glyph glyph-name="twosuperior" unicode="&#xb2;" horiz-adv-x="598" 
d="M453 954h82q10 -39 10 -92q0 -49 -6 -76h-494l-8 76q148 120 202 175q142 144 142 270q0 63 -31 93t-84 30q-26 0 -63 -13l-19 -139h-96q-39 25 -39 74q0 63 67 106t163 43q110 0 174.5 -56.5t64.5 -139.5q0 -50 -25.5 -101t-81.5 -108t-113 -104.5t-151 -119.5l7 -14
q59 8 137 14l151 13z" />
    <glyph glyph-name="threesuperior" unicode="&#xb3;" horiz-adv-x="645" 
d="M295 1501q109 0 172 -53t63 -135q0 -106 -120 -150v-18q143 -39 143 -156q0 -95 -80 -157t-203 -62q-92 0 -154.5 37t-62.5 102q0 49 37 76h94l21 -135q36 -8 63 -8q152 0 152 141q0 66 -35 100.5t-117 34.5h-59v68h121q67 42 67 131q0 62 -29.5 87.5t-86.5 25.5
q-28 0 -72 -13l-16 -129h-87q-40 26 -40 72q0 61 67 101t162 40z" />
    <glyph glyph-name="acute" unicode="&#xb4;" horiz-adv-x="505" 
d="M266 1571h53q36 -15 70 -45t55 -64l-276 -288h-107z" />
    <glyph glyph-name="mu" unicode="&#xb5;" horiz-adv-x="1216" 
d="M1155 113v-84q-153 -37 -270 -45l-41 8l10 147h-20q-138 -166 -310 -166q-122 0 -196 95l-19 -9l29 -479q-55 -16 -150 -16l-34 33l30 514v903q73 20 127 30l41 -6v-690q0 -242 213 -242q158 0 279 150v758q73 20 127 30l41 -6v-888z" />
    <glyph glyph-name="paragraph" unicode="&#xb6;" horiz-adv-x="1171" 
d="M649 471h-98q-236 -2 -365 111t-129 329q0 213 126.5 331.5t365.5 119.5h100v-891zM1110 1268l-174 -33v-1006q0 -109 -28.5 -188t-81.5 -124t-118.5 -66t-148.5 -21q-190 0 -309 107l43 73q125 -69 274 -69q124 0 185 62.5t61 215.5v1143h297v-94z" />
    <glyph glyph-name="periodcentered" unicode="&#xb7;" horiz-adv-x="505" 
d="M274 721q33 0 54 -6q45 -61 45 -117q0 -57 -37 -113h-166l-37 205q57 31 141 31z" />
    <glyph glyph-name="cedilla" unicode="&#xb8;" horiz-adv-x="538" 
d="M301 12v-149q88 -1 132 -36.5t44 -94.5q0 -73 -60 -120.5t-163 -47.5q-119 0 -193 55l19 74q89 -29 133 -29q52 0 83.5 20t31.5 58q0 31 -28.5 44.5t-117.5 29.5l31 196h88z" />
    <glyph glyph-name="onesuperior" unicode="&#xb9;" horiz-adv-x="503" 
d="M467 854v-68h-401v68l141 18v476q-49 -15 -146 -15v72q139 5 203 96l64 -2v-637z" />
    <glyph glyph-name="ordmasculine" unicode="&#xba;" horiz-adv-x="788" 
d="M406 1163q151 0 233 -105t82 -255q0 -163 -94 -268t-246 -105q-149 0 -231 103t-82 253q0 163 93 270t245 107zM393 1075q-178 0 -178 -278q0 -281 180 -281q178 0 178 277q0 282 -180 282z" />
    <glyph glyph-name="guillemotright" unicode="&#xbb;" horiz-adv-x="1069" 
d="M950 582v-29l-307 -369l-82 58l180 325l-178 326l82 57zM555 582v-29l-307 -369l-82 58l180 325l-178 326l82 57z" />
    <glyph glyph-name="onequarter" unicode="&#xbc;" horiz-adv-x="1720" 
d="M1335 1362l8 -25q-318 -483 -434 -675q-63 -103 -199 -339t-221 -372l-98 49l-8 25q309 470 438 684q70 113 202.5 342t213.5 360zM565 612v-82h-483v82l170 23v569q-60 -18 -174 -18v86q168 9 244 117l75 -5v-763zM1673 145h-141v-145h-139v145h-369l-8 60
q142 323 264 655l133 -49l6 -20q-166 -336 -295 -543l6 -17q100 17 170 17h93v260l92 18l47 -4v-274h141v-103z" />
    <glyph glyph-name="onehalf" unicode="&#xbd;" horiz-adv-x="1800" 
d="M1335 1362l8 -25q-318 -483 -434 -675q-63 -103 -199 -339t-221 -372l-98 49l-8 25q309 470 438 684q70 113 202.5 342t213.5 360zM565 612v-82h-483v82l170 23v569q-60 -18 -174 -18v86q168 9 244 117l75 -5v-763zM1630 201h99q12 -53 12 -111q0 -46 -8 -90h-592l-11 90
q159 131 212 182q199 192 200 353q0 74 -36 110.5t-99 36.5q-40 0 -78 -14l-22 -168h-115q-47 30 -47 88q0 75 80.5 127.5t195.5 52.5q131 0 209 -68t78 -167q0 -49 -23 -100.5t-57.5 -97t-97.5 -103.5t-119.5 -103.5t-146.5 -114.5l6 -18q96 14 166 18l182 13z" />
    <glyph glyph-name="threequarters" unicode="&#xbe;" horiz-adv-x="1802" 
d="M1417 1362l8 -25q-318 -483 -434 -675q-63 -103 -199 -339t-221 -372l-98 49l-8 25q309 470 438 684q70 113 202.5 342t213.5 360zM487 981v-20q172 -48 172 -187q0 -114 -96 -188t-244 -74q-110 0 -185 44t-75 122q0 59 45 92h113l25 -164q40 -8 77 -8q181 0 181 168
q0 164 -183 164h-71v80h145q82 51 82 157q0 136 -137 136q-32 0 -90 -15l-19 -155h-104q-49 34 -49 86q0 73 80.5 121.5t195.5 48.5q130 0 206.5 -64t76.5 -162q0 -128 -146 -182zM1755 145h-141v-145h-139v145h-369l-8 60q142 323 264 655l133 -49l6 -20
q-166 -336 -295 -543l6 -17q100 17 170 17h93v260l92 18l47 -4v-274h141v-103z" />
    <glyph glyph-name="questiondown" unicode="&#xbf;" horiz-adv-x="724" 
d="M377 842l-4 196q39 13 94 13q63 0 90 -21q27 -52 27 -90q0 -62 -54 -123zM190 57q0 -112 118.5 -170.5t314.5 -58.5v-164q-65 -10 -115 -10q-92 0 -166 25.5t-121.5 67t-79.5 98t-45.5 116t-13.5 123.5q0 67 15 113t56.5 86.5t98.5 72.5t156 76v221h110q53 -144 53 -241
q0 -46 -23.5 -77.5t-88.5 -62.5q-174 -83 -221.5 -118.5t-47.5 -96.5z" />
    <glyph glyph-name="Agrave" unicode="&#xc0;" horiz-adv-x="1384" 
d="M1358 96v-96h-481v96l149 29q-10 29 -40.5 126t-49.5 152h-551q-18 -56 -48.5 -156t-43.5 -141l149 -10v-96h-415v96l129 29q265 811 434 1237l145 27h21q170 -411 471 -1283zM418 510h483q-142 431 -235 672h-21q-83 -227 -227 -672zM778 1481h-112l-291 241
q45 72 123 107h53z" />
    <glyph glyph-name="Aacute" unicode="&#xc1;" horiz-adv-x="1384" 
d="M1358 96v-96h-481v96l149 29q-10 29 -40.5 126t-49.5 152h-551q-18 -56 -48.5 -156t-43.5 -141l149 -10v-96h-415v96l129 29q265 811 434 1237l145 27h21q170 -411 471 -1283zM418 510h483q-142 431 -235 672h-21q-83 -227 -227 -672zM852 1829h53q80 -34 123 -107
l-291 -241h-112z" />
    <glyph glyph-name="Acircumflex" unicode="&#xc2;" horiz-adv-x="1384" 
d="M1358 96v-96h-481v96l149 29q-10 29 -40.5 126t-49.5 152h-551q-18 -56 -48.5 -156t-43.5 -141l149 -10v-96h-415v96l129 29q265 811 434 1237l145 27h21q170 -411 471 -1283zM418 510h483q-142 431 -235 672h-21q-83 -227 -227 -672zM983 1540l-121 -82l-200 168h-21
l-176 -145h-121l293 329h102z" />
    <glyph glyph-name="Atilde" unicode="&#xc3;" horiz-adv-x="1384" 
d="M1358 96v-96h-481v96l149 29q-10 29 -40.5 126t-49.5 152h-551q-18 -56 -48.5 -156t-43.5 -141l149 -10v-96h-415v96l129 29q265 811 434 1237l145 27h21q170 -411 471 -1283zM418 510h483q-142 431 -235 672h-21q-83 -227 -227 -672zM924 1755l55 -55q-44 -84 -70 -113
q-55 -65 -127 -65q-43 0 -96 26l-172 84l-108 -106l-56 55q44 84 70 113q55 65 127 65q43 0 96 -26l172 -84z" />
    <glyph glyph-name="Adieresis" unicode="&#xc4;" horiz-adv-x="1384" 
d="M1358 96v-96h-481v96l149 29q-10 29 -40.5 126t-49.5 152h-551q-18 -56 -48.5 -156t-43.5 -141l149 -10v-96h-415v96l129 29q265 811 434 1237l145 27h21q170 -411 471 -1283zM418 510h483q-142 431 -235 672h-21q-83 -227 -227 -672zM436 1745q38 0 62 -8q32 -40 32 -97
q0 -53 -36 -106h-138l-26 195q40 16 106 16zM905 1745q38 0 62 -8q32 -40 32 -97q0 -53 -36 -106h-138l-26 195q40 16 106 16z" />
    <glyph glyph-name="Aring" unicode="&#xc5;" horiz-adv-x="1384" 
d="M1358 96v-96h-481v96l149 29q-10 29 -40.5 126t-49.5 152h-551q-18 -56 -48.5 -156t-43.5 -141l149 -10v-96h-415v96l129 29q265 811 434 1237l145 27h21q170 -411 471 -1283zM418 510h483q-142 431 -235 672h-21q-83 -227 -227 -672zM674 1829q102 0 156.5 -46
t54.5 -128q0 -91 -63 -139t-167 -48q-101 0 -157 45.5t-56 128.5q0 90 64.5 138.5t167.5 48.5zM666 1743q-40 0 -63 -24.5t-23 -69.5q0 -44 23 -69.5t63 -25.5t62 25.5t22 69.5q0 45 -22 69.5t-62 24.5z" />
    <glyph glyph-name="AE" unicode="&#xc6;" horiz-adv-x="1884" 
d="M1647 311l118 -12q4 -54 4 -86q0 -83 -26 -213h-979v96l164 31v276h-486q-72 -148 -143 -297l143 -10v-96h-415v96l133 29q116 237 290.5 569.5t305.5 565.5l-135 6v96h1122q10 -48 10 -133q0 -86 -10 -164h-119l-25 174l-489 16v-497h264l23 127h92v-379h-92l-27 143
h-260v-545l487 17zM928 510v745h-45q-146 -261 -389 -745h434z" />
    <glyph glyph-name="Ccedilla" unicode="&#xc7;" horiz-adv-x="1316" 
d="M1157 246l45 -70q-158 -192 -428 -203v-110q88 -1 132 -36.5t44 -94.5q0 -73 -60 -120.5t-163 -47.5q-118 0 -192 55l18 74q89 -29 133 -29q52 0 83.5 20t31.5 58q0 31 -28.5 44.5t-117.5 29.5l25 159q-140 11 -252 71.5t-182 156t-107 216t-37 257.5q0 206 78.5 366
t234 253.5t367.5 93.5q181 0 367 -80q10 -48 10 -111q0 -76 -12 -194h-121l-33 233q-88 37 -198 37q-241 0 -367.5 -149.5t-126.5 -426.5q0 -291 132.5 -441.5t354.5 -150.5q195 0 369 140z" />
    <glyph glyph-name="Egrave" unicode="&#xc8;" horiz-adv-x="1236" 
d="M1001 311l119 -12q2 -27 2 -86q0 -93 -26 -213h-998v96l164 31v1128l-164 11v96h1000q10 -48 10 -133q0 -86 -10 -164h-119l-25 174l-510 18v-499h285l23 127h92v-379h-92l-25 143h-283v-545l508 19zM725 1481h-113l-290 241q46 73 122 107h54z" />
    <glyph glyph-name="Eacute" unicode="&#xc9;" horiz-adv-x="1236" 
d="M1001 311l119 -12q2 -27 2 -86q0 -93 -26 -213h-998v96l164 31v1128l-164 11v96h1000q10 -48 10 -133q0 -86 -10 -164h-119l-25 174l-510 18v-499h285l23 127h92v-379h-92l-25 143h-283v-545l508 19zM799 1829h53q80 -34 123 -107l-291 -241h-113z" />
    <glyph glyph-name="Ecircumflex" unicode="&#xca;" horiz-adv-x="1236" 
d="M1001 311l119 -12q2 -27 2 -86q0 -93 -26 -213h-998v96l164 31v1128l-164 11v96h1000q10 -48 10 -133q0 -86 -10 -164h-119l-25 174l-510 18v-499h285l23 127h92v-379h-92l-25 143h-283v-545l508 19zM930 1540l-121 -82l-201 168h-20l-176 -145h-121l293 329h102z" />
    <glyph glyph-name="Edieresis" unicode="&#xcb;" horiz-adv-x="1236" 
d="M1001 311l119 -12q2 -27 2 -86q0 -93 -26 -213h-998v96l164 31v1128l-164 11v96h1000q10 -48 10 -133q0 -86 -10 -164h-119l-25 174l-510 18v-499h285l23 127h92v-379h-92l-25 143h-283v-545l508 19zM383 1745q37 0 61 -8q33 -41 33 -97q0 -51 -37 -106h-137l-27 195
q40 16 107 16zM852 1745q37 0 61 -8q33 -41 33 -97q0 -51 -37 -106h-137l-27 195q40 16 107 16z" />
    <glyph glyph-name="Igrave" unicode="&#xcc;" horiz-adv-x="706" 
d="M444 1235v-1129l164 -10v-96h-510v96l164 31v1128l-164 11v96h510v-96zM467 1481h-113l-291 241q45 72 123 107h54z" />
    <glyph glyph-name="Iacute" unicode="&#xcd;" horiz-adv-x="706" 
d="M444 1235v-1129l164 -10v-96h-510v96l164 31v1128l-164 11v96h510v-96zM541 1829h53q80 -34 123 -107l-291 -241h-113z" />
    <glyph glyph-name="Icircumflex" unicode="&#xce;" horiz-adv-x="706" 
d="M444 1235v-1129l164 -10v-96h-510v96l164 31v1128l-164 11v96h510v-96zM672 1540l-121 -82l-201 168h-20l-176 -145h-121l293 329h102z" />
    <glyph glyph-name="Idieresis" unicode="&#xcf;" horiz-adv-x="706" 
d="M444 1235v-1129l164 -10v-96h-510v96l164 31v1128l-164 11v96h510v-96zM125 1745q37 0 61 -8q33 -41 33 -97q0 -51 -37 -106h-137l-27 195q40 16 107 16zM594 1745q37 0 61 -8q33 -41 33 -97q0 -51 -37 -106h-137l-27 195q40 16 107 16z" />
    <glyph glyph-name="Eth" unicode="&#xd0;" horiz-adv-x="1439" 
d="M604 1372q156 0 279.5 -33t208 -91.5t140 -142.5t80.5 -183t25 -217q0 -157 -40.5 -283.5t-123 -222t-218.5 -147.5t-318 -52h-514v96l164 31v522h-164v111h164v495l-164 11v96q260 10 481 10zM469 109h170q259 0 379.5 149t120.5 447q0 559 -484 559h-186v-504h285v-111
h-285v-540z" />
    <glyph glyph-name="Ntilde" unicode="&#xd1;" horiz-adv-x="1550" 
d="M1473 1266l-164 -31v-1235l-135 -27h-25l-586 967q-66 108 -155 289h-21l12 -1123l191 -10v-96h-492v96l164 31v1126l-164 13v96h422l467 -772q97 -161 180 -320h21l-17 985l-192 11v96h494v-96zM1040 1755l56 -55q-44 -84 -70 -113q-55 -65 -127 -65q-43 0 -96 26
l-172 84l-109 -106l-55 55q44 84 70 113q55 65 127 65q43 0 96 -26l172 -84z" />
    <glyph glyph-name="Ograve" unicode="&#xd2;" horiz-adv-x="1490" 
d="M764 1389q152 0 272.5 -54.5t196.5 -149.5t116 -219t40 -268q0 -209 -79.5 -373t-230.5 -258t-350 -94q-151 0 -272 55.5t-197.5 151.5t-117 221.5t-40.5 270.5q0 207 78.5 369t230 255t353.5 93zM745 1274q-202 0 -321 -152.5t-119 -437.5q0 -286 119.5 -441t320.5 -155
t321 155t120 441q0 285 -119.5 437.5t-321.5 152.5zM860 1481h-112l-291 241q45 72 123 107h53z" />
    <glyph glyph-name="Oacute" unicode="&#xd3;" horiz-adv-x="1490" 
d="M764 1389q152 0 272.5 -54.5t196.5 -149.5t116 -219t40 -268q0 -209 -79.5 -373t-230.5 -258t-350 -94q-151 0 -272 55.5t-197.5 151.5t-117 221.5t-40.5 270.5q0 207 78.5 369t230 255t353.5 93zM745 1274q-202 0 -321 -152.5t-119 -437.5q0 -286 119.5 -441t320.5 -155
t321 155t120 441q0 285 -119.5 437.5t-321.5 152.5zM934 1829h53q80 -34 123 -107l-291 -241h-112z" />
    <glyph glyph-name="Ocircumflex" unicode="&#xd4;" horiz-adv-x="1490" 
d="M764 1389q152 0 272.5 -54.5t196.5 -149.5t116 -219t40 -268q0 -209 -79.5 -373t-230.5 -258t-350 -94q-151 0 -272 55.5t-197.5 151.5t-117 221.5t-40.5 270.5q0 207 78.5 369t230 255t353.5 93zM745 1274q-202 0 -321 -152.5t-119 -437.5q0 -286 119.5 -441t320.5 -155
t321 155t120 441q0 285 -119.5 437.5t-321.5 152.5zM1065 1540l-121 -82l-201 168h-20l-176 -145h-121l293 329h102z" />
    <glyph glyph-name="Otilde" unicode="&#xd5;" horiz-adv-x="1490" 
d="M764 1389q152 0 272.5 -54.5t196.5 -149.5t116 -219t40 -268q0 -209 -79.5 -373t-230.5 -258t-350 -94q-151 0 -272 55.5t-197.5 151.5t-117 221.5t-40.5 270.5q0 207 78.5 369t230 255t353.5 93zM745 1274q-202 0 -321 -152.5t-119 -437.5q0 -286 119.5 -441t320.5 -155
t321 155t120 441q0 285 -119.5 437.5t-321.5 152.5zM1006 1755l55 -55q-44 -84 -70 -113q-55 -65 -127 -65q-43 0 -96 26l-172 84l-109 -106l-55 55q44 84 70 113q55 65 127 65q43 0 96 -26l172 -84z" />
    <glyph glyph-name="Odieresis" unicode="&#xd6;" horiz-adv-x="1490" 
d="M764 1389q152 0 272.5 -54.5t196.5 -149.5t116 -219t40 -268q0 -209 -79.5 -373t-230.5 -258t-350 -94q-151 0 -272 55.5t-197.5 151.5t-117 221.5t-40.5 270.5q0 207 78.5 369t230 255t353.5 93zM745 1274q-202 0 -321 -152.5t-119 -437.5q0 -286 119.5 -441t320.5 -155
t321 155t120 441q0 285 -119.5 437.5t-321.5 152.5zM518 1745q38 0 62 -8q32 -40 32 -97q0 -51 -37 -106h-137l-26 195q40 16 106 16zM987 1745q38 0 62 -8q32 -40 32 -97q0 -51 -37 -106h-137l-26 195q40 16 106 16z" />
    <glyph glyph-name="multiply" unicode="&#xd7;" 
d="M1051 932l-332 -332l332 -332l-88 -88l-332 332l-332 -332l-88 88l332 332l-332 332l88 88l332 -332l332 332z" />
    <glyph glyph-name="Oslash" unicode="&#xd8;" horiz-adv-x="1490" 
d="M1368 1448l-160 -236q88 -93 134.5 -226t46.5 -288q0 -209 -79.5 -373t-230.5 -258t-350 -94q-193 0 -338 90l-145 -210l-92 38l-11 23l154 225q-95 95 -145 233.5t-50 299.5q0 207 78.5 369t230 255t353.5 93q205 0 350 -99l152 219l92 -39zM758 1274
q-216 0 -334.5 -151t-118.5 -455q0 -259 88 -404l635 920q-103 90 -270 90zM733 88q216 0 334.5 154t118.5 458q0 246 -80 385l-631 -915q101 -82 258 -82z" />
    <glyph glyph-name="Ugrave" unicode="&#xd9;" horiz-adv-x="1470" 
d="M1409 1266l-164 -31v-778q0 -220 -130.5 -352t-371.5 -132q-245 0 -381.5 135.5t-136.5 362.5v784l-164 11v96h517v-96l-170 -31v-762q0 -385 350 -385t350 385v782l-193 11v96h494v-96zM860 1481h-112l-291 241q45 72 123 107h53z" />
    <glyph glyph-name="Uacute" unicode="&#xda;" horiz-adv-x="1470" 
d="M1409 1266l-164 -31v-778q0 -220 -130.5 -352t-371.5 -132q-245 0 -381.5 135.5t-136.5 362.5v784l-164 11v96h517v-96l-170 -31v-762q0 -385 350 -385t350 385v782l-193 11v96h494v-96zM934 1829h53q80 -34 123 -107l-291 -241h-112z" />
    <glyph glyph-name="Ucircumflex" unicode="&#xdb;" horiz-adv-x="1470" 
d="M1409 1266l-164 -31v-778q0 -220 -130.5 -352t-371.5 -132q-245 0 -381.5 135.5t-136.5 362.5v784l-164 11v96h517v-96l-170 -31v-762q0 -385 350 -385t350 385v782l-193 11v96h494v-96zM1065 1540l-121 -82l-201 168h-20l-176 -145h-121l293 329h102z" />
    <glyph glyph-name="Udieresis" unicode="&#xdc;" horiz-adv-x="1470" 
d="M1409 1266l-164 -31v-778q0 -220 -130.5 -352t-371.5 -132q-245 0 -381.5 135.5t-136.5 362.5v784l-164 11v96h517v-96l-170 -31v-762q0 -385 350 -385t350 385v782l-193 11v96h494v-96zM518 1745q38 0 62 -8q32 -40 32 -97q0 -51 -37 -106h-137l-26 195q40 16 106 16z
M987 1745q38 0 62 -8q32 -40 32 -97q0 -51 -37 -106h-137l-26 195q40 16 106 16z" />
    <glyph glyph-name="Yacute" unicode="&#xdd;" horiz-adv-x="1366" 
d="M1309 1266l-117 -31q-159 -327 -406 -748v-381l185 -10v-96h-551v96l184 31v356q-206 353 -424 772l-123 11v96h502v-96l-174 -29q178 -358 328 -606h20q66 106 159 284.5t167 339.5l-191 11v96h441v-96zM872 1829h54q80 -34 123 -107l-291 -241h-113z" />
    <glyph glyph-name="Thorn" unicode="&#xde;" horiz-adv-x="1183" 
d="M444 1147h131q264 0 395.5 -108.5t131.5 -305.5q0 -198 -120 -322t-318 -124q-49 0 -136 6v96h80q295 0 295 338q0 150 -68.5 229.5t-234.5 79.5h-156v-930l164 -10v-96h-510v96l164 31v1128l-164 11v96h326l20 -29v-186z" />
    <glyph glyph-name="germandbls" unicode="&#xdf;" horiz-adv-x="1228" 
d="M967 602q31 -17 53.5 -32t54.5 -43.5t52.5 -59t35.5 -76t15 -96.5q0 -148 -106 -235t-265 -87q-72 0 -130.5 17.5t-100 62t-41.5 111.5q0 70 47 110h100l27 -188q59 -12 108 -12q88 0 134 50t46 136q0 61 -28.5 106.5t-102.5 98.5q-67 47 -97 70.5t-61.5 57t-42 64.5
t-10.5 74q0 41 13.5 75.5t29.5 56t54 65.5q53 60 79.5 123t26.5 153q0 134 -55.5 185t-153.5 51q-65 0 -112.5 -19.5t-75.5 -51.5t-44.5 -82.5t-22 -101.5t-5.5 -120v-1065h-311v92l143 31v792l-143 11v82l143 32v23q0 221 132 350t339 129q165 0 256.5 -83t91.5 -230
q0 -78 -29 -143t-65 -102.5t-92 -80.5q-25 -18 -37.5 -29.5t-25.5 -35.5t-13 -52q0 -23 9 -43t19.5 -34t40.5 -34.5t50 -32.5t70 -40z" />
    <glyph glyph-name="agrave" unicode="&#xe0;" horiz-adv-x="1060" 
d="M1012 109v-80q-85 -45 -168 -45q-69 0 -101 31.5t-32 95.5v28h-21q-70 -81 -142 -123.5t-175 -42.5q-135 0 -208 71.5t-73 184.5q0 72 31.5 127t79.5 87t114.5 52.5t126.5 27.5t125 7q75 0 133 -8l3 197q1 120 -61 174.5t-171 54.5q-61 0 -115 -12l-32 -234h-123
q-58 43 -58 107q0 69 59 126t145.5 86.5t176.5 29.5q151 0 249 -85.5t97 -236.5l-6 -610zM422 96q154 0 276 158l4 195h-38q-207 0 -297.5 -48.5t-90.5 -158.5q0 -146 146 -146zM612 1174h-106l-285 288q50 78 133 109h54z" />
    <glyph glyph-name="aacute" unicode="&#xe1;" horiz-adv-x="1060" 
d="M1012 109v-80q-85 -45 -168 -45q-69 0 -101 31.5t-32 95.5v28h-21q-70 -81 -142 -123.5t-175 -42.5q-135 0 -208 71.5t-73 184.5q0 72 31.5 127t79.5 87t114.5 52.5t126.5 27.5t125 7q75 0 133 -8l3 197q1 120 -61 174.5t-171 54.5q-61 0 -115 -12l-32 -234h-123
q-58 43 -58 107q0 69 59 126t145.5 86.5t176.5 29.5q151 0 249 -85.5t97 -236.5l-6 -610zM422 96q154 0 276 158l4 195h-38q-207 0 -297.5 -48.5t-90.5 -158.5q0 -146 146 -146zM664 1571h53q36 -15 70 -45t55 -64l-277 -288h-106z" />
    <glyph glyph-name="acircumflex" unicode="&#xe2;" horiz-adv-x="1060" 
d="M1012 109v-80q-85 -45 -168 -45q-69 0 -101 31.5t-32 95.5v28h-21q-70 -81 -142 -123.5t-175 -42.5q-135 0 -208 71.5t-73 184.5q0 72 31.5 127t79.5 87t114.5 52.5t126.5 27.5t125 7q75 0 133 -8l3 197q1 120 -61 174.5t-171 54.5q-61 0 -115 -12l-32 -234h-123
q-58 43 -58 107q0 69 59 126t145.5 86.5t176.5 29.5q151 0 249 -85.5t97 -236.5l-6 -610zM422 96q154 0 276 158l4 195h-38q-207 0 -297.5 -48.5t-90.5 -158.5q0 -146 146 -146zM821 1233l-121 -72l-182 217h-20l-158 -204h-109l263 389h102z" />
    <glyph glyph-name="atilde" unicode="&#xe3;" horiz-adv-x="1060" 
d="M1012 109v-80q-85 -45 -168 -45q-69 0 -101 31.5t-32 95.5v28h-21q-70 -81 -142 -123.5t-175 -42.5q-135 0 -208 71.5t-73 184.5q0 72 31.5 127t79.5 87t114.5 52.5t126.5 27.5t125 7q75 0 133 -8l3 197q1 120 -61 174.5t-171 54.5q-61 0 -115 -12l-32 -234h-123
q-58 43 -58 107q0 69 59 126t145.5 86.5t176.5 29.5q151 0 249 -85.5t97 -236.5l-6 -610zM422 96q154 0 276 158l4 195h-38q-207 0 -297.5 -48.5t-90.5 -158.5q0 -146 146 -146zM776 1479l55 -56l-24 -45t-30 -47t-41 -49t-48 -32t-59 -15q-33 0 -90 29l-150 77l-110 -106
l-56 55q16 31 24 45.5t30.5 47t41.5 49.5t48.5 32t60.5 15t88 -29l150 -78z" />
    <glyph glyph-name="adieresis" unicode="&#xe4;" horiz-adv-x="1060" 
d="M1012 109v-80q-85 -45 -168 -45q-69 0 -101 31.5t-32 95.5v28h-21q-70 -81 -142 -123.5t-175 -42.5q-135 0 -208 71.5t-73 184.5q0 72 31.5 127t79.5 87t114.5 52.5t126.5 27.5t125 7q75 0 133 -8l3 197q1 120 -61 174.5t-171 54.5q-61 0 -115 -12l-32 -234h-123
q-58 43 -58 107q0 69 59 126t145.5 86.5t176.5 29.5q151 0 249 -85.5t97 -236.5l-6 -610zM422 96q154 0 276 158l4 195h-38q-207 0 -297.5 -48.5t-90.5 -158.5q0 -146 146 -146zM332 1462q40 0 59 -8q33 -54 33 -92q0 -49 -39 -107h-133l-25 191q40 16 105 16zM735 1462
q41 0 60 -8q32 -53 32 -92q0 -49 -39 -107h-133l-24 191q40 16 104 16z" />
    <glyph glyph-name="aring" unicode="&#xe5;" horiz-adv-x="1060" 
d="M1012 109v-80q-85 -45 -168 -45q-69 0 -101 31.5t-32 95.5v28h-21q-70 -81 -142 -123.5t-175 -42.5q-135 0 -208 71.5t-73 184.5q0 72 31.5 127t79.5 87t114.5 52.5t126.5 27.5t125 7q75 0 133 -8l3 197q1 120 -61 174.5t-171 54.5q-61 0 -115 -12l-32 -234h-123
q-58 43 -58 107q0 69 59 126t145.5 86.5t176.5 29.5q151 0 249 -85.5t97 -236.5l-6 -610zM422 96q154 0 276 158l4 195h-38q-207 0 -297.5 -48.5t-90.5 -158.5q0 -146 146 -146zM537 1577q100 0 155.5 -47.5t55.5 -136.5q0 -97 -64 -147t-166 -50q-100 0 -156.5 47.5
t-56.5 136.5q0 97 65.5 147t166.5 50zM528 1491q-86 0 -86 -105q0 -51 22.5 -77.5t61.5 -26.5q41 0 63.5 28t22.5 79q0 102 -84 102z" />
    <glyph glyph-name="ae" unicode="&#xe6;" horiz-adv-x="1597" 
d="M1454 227l43 -65q-145 -189 -387 -189q-259 0 -358 213h-21q-30 -43 -60.5 -76t-74.5 -66.5t-102.5 -52t-126.5 -18.5q-135 0 -205 70.5t-70 185.5q0 62 21.5 111.5t54 83t85.5 58.5t100 39t115.5 24t114.5 13.5t113 6.5l4 133q4 126 -63 188t-174 62q-47 0 -105 -14
l-32 -232h-123q-58 37 -58 107q0 101 114.5 171.5t260.5 70.5q116 0 185.5 -48t93.5 -133h20q40 79 120.5 130t203.5 51q172 0 260 -103t88 -270q0 -72 -16 -154l-625 -20q6 -190 90 -291.5t217 -101.5q142 0 297 116zM1126 948q-109 0 -185.5 -95t-88.5 -267l471 41
q-3 321 -197 321zM424 96q92 0 162.5 52t132.5 137q-22 85 -25 198q-231 -22 -325.5 -76t-94.5 -163q0 -148 150 -148z" />
    <glyph glyph-name="ccedilla" unicode="&#xe7;" horiz-adv-x="997" 
d="M877 227l43 -65q-130 -169 -334 -187v-112q88 -1 132 -36.5t44 -94.5q0 -73 -60 -120.5t-163 -47.5q-119 0 -193 55l19 74q89 -29 133 -29q52 0 83 20t31 58q0 31 -28 45t-117 29l25 159q-130 12 -223.5 87.5t-137 187.5t-43.5 248q0 245 133.5 399t345.5 154
q45 0 88.5 -7.5t86.5 -25t75 -43t52 -65.5t20 -89q0 -76 -53 -119h-131l-33 236q-41 10 -80 10q-149 0 -234.5 -109t-85.5 -313t84 -309.5t222 -105.5q147 0 299 116z" />
    <glyph glyph-name="egrave" unicode="&#xe8;" horiz-adv-x="1040" 
d="M897 227l43 -65q-148 -189 -391 -189q-114 0 -204 42.5t-145 116t-83.5 166.5t-28.5 200q0 245 135.5 399t354.5 154q176 0 266 -102.5t90 -270.5q0 -72 -16 -154h-646q1 -199 87.5 -306t228.5 -107q151 0 309 116zM557 948q-110 0 -187 -87.5t-94 -248.5l484 19
q0 317 -203 317zM635 1174h-107l-284 288q50 78 133 109h53z" />
    <glyph glyph-name="eacute" unicode="&#xe9;" horiz-adv-x="1040" 
d="M897 227l43 -65q-148 -189 -391 -189q-114 0 -204 42.5t-145 116t-83.5 166.5t-28.5 200q0 245 135.5 399t354.5 154q176 0 266 -102.5t90 -270.5q0 -72 -16 -154h-646q1 -199 87.5 -306t228.5 -107q151 0 309 116zM557 948q-110 0 -187 -87.5t-94 -248.5l484 19
q0 317 -203 317zM686 1571h53q36 -15 70 -45t55 -64l-276 -288h-107z" />
    <glyph glyph-name="ecircumflex" unicode="&#xea;" horiz-adv-x="1040" 
d="M897 227l43 -65q-148 -189 -391 -189q-114 0 -204 42.5t-145 116t-83.5 166.5t-28.5 200q0 245 135.5 399t354.5 154q176 0 266 -102.5t90 -270.5q0 -72 -16 -154h-646q1 -199 87.5 -306t228.5 -107q151 0 309 116zM557 948q-110 0 -187 -87.5t-94 -248.5l484 19
q0 317 -203 317zM844 1233l-121 -72l-182 217h-21l-158 -204h-108l262 389h102z" />
    <glyph glyph-name="edieresis" unicode="&#xeb;" horiz-adv-x="1040" 
d="M897 227l43 -65q-148 -189 -391 -189q-114 0 -204 42.5t-145 116t-83.5 166.5t-28.5 200q0 245 135.5 399t354.5 154q176 0 266 -102.5t90 -270.5q0 -72 -16 -154h-646q1 -199 87.5 -306t228.5 -107q151 0 309 116zM557 948q-110 0 -187 -87.5t-94 -248.5l484 19
q0 317 -203 317zM354 1462q41 0 60 -8q32 -53 32 -92q0 -51 -38 -107h-134l-24 191q40 16 104 16zM758 1462q40 0 59 -8q33 -54 33 -92q0 -49 -39 -107h-133l-25 191q40 16 105 16z" />
    <glyph glyph-name="igrave" unicode="&#xec;" horiz-adv-x="593" 
d="M549 92v-92h-471v92l143 31v756l-143 36v84q153 37 270 45l41 -8v-934zM362 1174h-106l-258 288q50 78 133 109h53z" />
    <glyph glyph-name="iacute" unicode="&#xed;" horiz-adv-x="593" 
d="M549 92v-92h-471v92l143 31v756l-143 36v84q153 37 270 45l41 -8v-934zM385 1571h53q36 -15 70 -45t55 -64l-241 -288h-107z" />
    <glyph glyph-name="icircumflex" unicode="&#xee;" horiz-adv-x="593" 
d="M549 92v-92h-471v92l143 31v756l-143 36v84q153 37 270 45l41 -8v-934zM520 1253l-121 -71l-141 196h-20l-117 -184h-109l221 369h103z" />
    <glyph glyph-name="idieresis" unicode="&#xef;" horiz-adv-x="593" 
d="M549 92v-92h-471v92l143 31v756l-143 36v84q153 37 270 45l41 -8v-934zM109 1462q40 0 59 -8q33 -54 33 -92q0 -49 -39 -107h-133l-25 191q40 16 105 16zM471 1462q40 0 59 -8q33 -54 33 -92q0 -49 -39 -107h-133l-24 191q40 16 104 16z" />
    <glyph glyph-name="eth" unicode="&#xf0;" horiz-adv-x="1132" 
d="M870 1470l-217 -127q110 -83 190.5 -186t122 -207.5t60 -198.5t18.5 -184q0 -168 -59.5 -303t-174 -214t-265.5 -79q-200 0 -328.5 137t-128.5 386q0 236 115.5 374t302.5 138q163 0 289 -113h20q-55 192 -289 375l-194 -113l-86 47l-8 23l192 112q-108 75 -235 142
l38 69q173 -51 322 -137l223 131l86 -47zM563 74q61 0 113 24t94.5 74t67 137.5t24.5 204.5q0 126 -31 262q-135 109 -276 109q-128 0 -202 -97.5t-74 -295.5q0 -200 75 -309t209 -109z" />
    <glyph glyph-name="ntilde" unicode="&#xf1;" horiz-adv-x="1243" 
d="M1217 92v-92h-472v92l140 31v557q0 119 -56.5 178.5t-160.5 59.5q-160 0 -279 -146v-670l160 -10v-92h-471v92l143 31v756l-143 36v84q153 37 270 45l41 -8l-10 -147h20q142 162 320 162q147 0 240.5 -88t93.5 -254v-607zM872 1479l56 -56q-19 -37 -32 -58.5t-40.5 -57
t-60.5 -54t-70 -18.5q-33 0 -90 29l-150 77l-110 -106l-56 55q16 31 24 45.5t30.5 47t41.5 49.5t48.5 32t60.5 15t88 -29l150 -78z" />
    <glyph glyph-name="ograve" unicode="&#xf2;" horiz-adv-x="1138" 
d="M586 1051q115 0 205 -42t146 -115.5t85 -167t29 -200.5q0 -158 -60 -283t-174.5 -197.5t-265.5 -72.5q-92 0 -168.5 27.5t-130 76.5t-91 115.5t-55.5 144t-18 163.5q0 158 60 283t174 196.5t264 71.5zM569 948q-143 0 -216.5 -109t-73.5 -325q0 -218 73.5 -328
t216.5 -110t217 110.5t74 327.5q0 216 -74 325t-217 109zM655 1174h-106l-285 288q50 78 133 109h54z" />
    <glyph glyph-name="oacute" unicode="&#xf3;" horiz-adv-x="1138" 
d="M586 1051q115 0 205 -42t146 -115.5t85 -167t29 -200.5q0 -158 -60 -283t-174.5 -197.5t-265.5 -72.5q-92 0 -168.5 27.5t-130 76.5t-91 115.5t-55.5 144t-18 163.5q0 158 60 283t174 196.5t264 71.5zM569 948q-143 0 -216.5 -109t-73.5 -325q0 -218 73.5 -328
t216.5 -110t217 110.5t74 327.5q0 216 -74 325t-217 109zM707 1571h53q36 -15 70 -45t55 -64l-277 -288h-106z" />
    <glyph glyph-name="ocircumflex" unicode="&#xf4;" horiz-adv-x="1138" 
d="M586 1051q115 0 205 -42t146 -115.5t85 -167t29 -200.5q0 -158 -60 -283t-174.5 -197.5t-265.5 -72.5q-92 0 -168.5 27.5t-130 76.5t-91 115.5t-55.5 144t-18 163.5q0 158 60 283t174 196.5t264 71.5zM569 948q-143 0 -216.5 -109t-73.5 -325q0 -218 73.5 -328
t216.5 -110t217 110.5t74 327.5q0 216 -74 325t-217 109zM864 1233l-121 -72l-182 217h-20l-158 -204h-109l263 389h102z" />
    <glyph glyph-name="otilde" unicode="&#xf5;" horiz-adv-x="1138" 
d="M586 1051q115 0 205 -42t146 -115.5t85 -167t29 -200.5q0 -158 -60 -283t-174.5 -197.5t-265.5 -72.5q-92 0 -168.5 27.5t-130 76.5t-91 115.5t-55.5 144t-18 163.5q0 158 60 283t174 196.5t264 71.5zM569 948q-143 0 -216.5 -109t-73.5 -325q0 -218 73.5 -328
t216.5 -110t217 110.5t74 327.5q0 216 -74 325t-217 109zM819 1479l55 -56l-24 -45t-30 -47t-41 -49t-48 -32t-59 -15q-33 0 -90 29l-150 77l-110 -106l-56 55q16 31 24 45.5t30.5 47t41.5 49.5t48.5 32t60.5 15t88 -29l150 -78z" />
    <glyph glyph-name="odieresis" unicode="&#xf6;" horiz-adv-x="1138" 
d="M586 1051q115 0 205 -42t146 -115.5t85 -167t29 -200.5q0 -158 -60 -283t-174.5 -197.5t-265.5 -72.5q-92 0 -168.5 27.5t-130 76.5t-91 115.5t-55.5 144t-18 163.5q0 158 60 283t174 196.5t264 71.5zM569 948q-143 0 -216.5 -109t-73.5 -325q0 -218 73.5 -328
t216.5 -110t217 110.5t74 327.5q0 216 -74 325t-217 109zM375 1462q40 0 59 -8q33 -54 33 -92q0 -49 -39 -107h-133l-25 191q40 16 105 16zM778 1462q41 0 60 -8q32 -53 32 -92q0 -49 -39 -107h-133l-24 191q40 16 104 16z" />
    <glyph glyph-name="divide" unicode="&#xf7;" 
d="M649 1112q32 0 53 -6q46 -62 46 -117q0 -56 -37 -112h-166l-37 204q57 31 141 31zM1116 539h-975v123h975v-123zM649 369q29 0 53 -7q46 -62 46 -116q0 -57 -37 -113h-166l-37 205q57 31 141 31z" />
    <glyph glyph-name="oslash" unicode="&#xf8;" horiz-adv-x="1138" 
d="M1014 1145l-121 -205q78 -72 118 -180t40 -234q0 -158 -60 -283t-174.5 -197.5t-265.5 -72.5q-119 0 -217 50l-109 -185l-90 39l-12 21l115 194q-74 72 -112 178t-38 230q0 158 60 283t174 196.5t264 71.5q117 0 209 -45l116 198l90 -39zM578 948q-155 0 -227 -109
t-72 -339q0 -180 45 -279l403 690q-58 37 -149 37zM561 76q153 0 226 109.5t73 340.5q0 192 -51 291l-408 -696q60 -45 160 -45z" />
    <glyph glyph-name="ugrave" unicode="&#xf9;" horiz-adv-x="1222" 
d="M1161 113v-84q-153 -37 -270 -45l-41 8l10 147h-20q-78 -92 -156 -129t-164 -37q-146 0 -238 89t-92 257v560l-143 36v84q153 37 270 45l41 -8v-688q0 -242 213 -242q158 0 279 150v623l-143 36v84q153 37 270 45l41 -8v-886zM664 1174h-107l-285 288q50 77 134 109h53z
" />
    <glyph glyph-name="uacute" unicode="&#xfa;" horiz-adv-x="1222" 
d="M1161 113v-84q-153 -37 -270 -45l-41 8l10 147h-20q-78 -92 -156 -129t-164 -37q-146 0 -238 89t-92 257v560l-143 36v84q153 37 270 45l41 -8v-688q0 -242 213 -242q158 0 279 150v623l-143 36v84q153 37 270 45l41 -8v-886zM715 1571h53q36 -15 70 -45t55 -64
l-277 -288h-106z" />
    <glyph glyph-name="ucircumflex" unicode="&#xfb;" horiz-adv-x="1222" 
d="M1161 113v-84q-153 -37 -270 -45l-41 8l10 147h-20q-78 -92 -156 -129t-164 -37q-146 0 -238 89t-92 257v560l-143 36v84q153 37 270 45l41 -8v-688q0 -242 213 -242q158 0 279 150v623l-143 36v84q153 37 270 45l41 -8v-886zM872 1233l-120 -72l-183 217h-20l-158 -204
h-108l262 389h102z" />
    <glyph glyph-name="udieresis" unicode="&#xfc;" horiz-adv-x="1222" 
d="M1161 113v-84q-153 -37 -270 -45l-41 8l10 147h-20q-78 -92 -156 -129t-164 -37q-146 0 -238 89t-92 257v560l-143 36v84q153 37 270 45l41 -8v-688q0 -242 213 -242q158 0 279 150v623l-143 36v84q153 37 270 45l41 -8v-886zM383 1462q40 0 59 -8q33 -54 33 -92
q0 -49 -39 -107h-133l-24 191q40 16 104 16zM786 1462q41 0 60 -8q33 -54 33 -92q0 -49 -39 -107h-133l-25 191q40 16 104 16z" />
    <glyph glyph-name="yacute" unicode="&#xfd;" horiz-adv-x="1157" 
d="M1141 932l-125 -29q-135 -378 -402 -1018q-134 -321 -344 -321q-98 0 -143 61l16 107h265q79 121 124 254q-158 343 -382 936l-134 10v92h426v-92l-104 -29q116 -345 266 -702h23q175 442 262 721l-158 10v92h410v-92zM739 1571h54q36 -15 70 -45t55 -64l-277 -288h-106z
" />
    <glyph glyph-name="thorn" unicode="&#xfe;" horiz-adv-x="1189" 
d="M686 1051q130 0 223.5 -66.5t138 -177.5t44.5 -254q0 -254 -137.5 -417t-358.5 -163q-124 0 -242 50v-330l160 -10v-93h-471v93l143 30v1680l-141 20v84q138 38 268 45l41 -10v-477q0 -74 -10 -166h21q131 162 321 162zM588 76q158 0 238.5 123t80.5 333q0 386 -278 386
q-86 0 -150.5 -36t-124.5 -110v-633q104 -63 234 -63z" />
    <glyph glyph-name="ydieresis" unicode="&#xff;" horiz-adv-x="1157" 
d="M1141 932l-125 -29q-135 -378 -402 -1018q-134 -321 -344 -321q-98 0 -143 61l16 107h265q79 121 124 254q-158 343 -382 936l-134 10v92h426v-92l-104 -29q116 -345 266 -702h23q175 442 262 721l-158 10v92h410v-92zM408 1462q40 0 59 -8q33 -54 33 -92q0 -49 -39 -107
h-133l-25 191q40 16 105 16zM811 1462q40 0 59 -8q33 -54 33 -92q0 -49 -39 -107h-133l-24 191q40 16 104 16z" />
    <glyph glyph-name="Amacron" unicode="&#x100;" horiz-adv-x="1384" 
d="M1358 96v-96h-481v96l149 29q-10 29 -40.5 126t-49.5 152h-551q-18 -56 -48.5 -156t-43.5 -141l149 -10v-96h-415v96l129 29q265 811 434 1237l145 27h21q170 -411 471 -1283zM418 510h483q-142 431 -235 672h-21q-83 -227 -227 -672zM379 1702h569q8 -31 8 -70
q0 -38 -8 -69h-569q-8 31 -8 69q0 39 8 70z" />
    <glyph glyph-name="amacron" unicode="&#x101;" horiz-adv-x="1060" 
d="M1012 109v-80q-85 -45 -168 -45q-69 0 -101 31.5t-32 95.5v28h-21q-70 -81 -142 -123.5t-175 -42.5q-135 0 -208 71.5t-73 184.5q0 72 31.5 127t79.5 87t114.5 52.5t126.5 27.5t125 7q75 0 133 -8l3 197q1 120 -61 174.5t-171 54.5q-61 0 -115 -12l-32 -234h-123
q-58 43 -58 107q0 69 59 126t145.5 86.5t176.5 29.5q151 0 249 -85.5t97 -236.5l-6 -610zM422 96q154 0 276 158l4 195h-38q-207 0 -297.5 -48.5t-90.5 -158.5q0 -146 146 -146zM262 1405h529q8 -31 8 -68q0 -36 -8 -67h-529q-8 31 -8 67q0 37 8 68z" />
    <glyph glyph-name="Abreve" unicode="&#x102;" horiz-adv-x="1384" 
d="M1358 96v-96h-481v96l149 29q-10 29 -40.5 126t-49.5 152h-551q-18 -56 -48.5 -156t-43.5 -141l149 -10v-96h-415v96l129 29q265 811 434 1237l145 27h21q170 -411 471 -1283zM418 510h483q-142 431 -235 672h-21q-83 -227 -227 -672zM373 1733l121 45q26 -88 74 -128
t126 -40q81 0 129 42.5t80 125.5l68 -29q-25 -130 -105.5 -199t-206.5 -69q-130 0 -201 66.5t-85 185.5z" />
    <glyph glyph-name="abreve" unicode="&#x103;" horiz-adv-x="1060" 
d="M1012 109v-80q-85 -45 -168 -45q-69 0 -101 31.5t-32 95.5v28h-21q-70 -81 -142 -123.5t-175 -42.5q-135 0 -208 71.5t-73 184.5q0 72 31.5 127t79.5 87t114.5 52.5t126.5 27.5t125 7q75 0 133 -8l3 197q1 120 -61 174.5t-171 54.5q-61 0 -115 -12l-32 -234h-123
q-58 43 -58 107q0 69 59 126t145.5 86.5t176.5 29.5q151 0 249 -85.5t97 -236.5l-6 -610zM422 96q154 0 276 158l4 195h-38q-207 0 -297.5 -48.5t-90.5 -158.5q0 -146 146 -146zM246 1493l121 45q17 -107 61.5 -158t120.5 -51q80 0 123.5 52t66.5 157l68 -29
q-17 -152 -93 -230.5t-200 -78.5q-126 0 -194 76.5t-74 216.5z" />
    <glyph glyph-name="Aogonek" unicode="&#x104;" horiz-adv-x="1384" 
d="M1358 0h-338q-84 -99 -84 -195q0 -141 143 -141q55 0 117 23l18 -74q-66 -49 -176 -49q-120 0 -185 54t-65 153q0 181 244 333q-59 191 -96 299h-551q-18 -56 -48.5 -156t-43.5 -141l149 -10v-96h-415v96l129 29q265 811 434 1237l145 27h21q170 -411 471 -1283l131 -10
v-96zM418 510h483q-142 431 -235 672h-21q-83 -227 -227 -672z" />
    <glyph glyph-name="aogonek" unicode="&#x105;" horiz-adv-x="1060" 
d="M1012 109v-80q-38 -11 -72 -26t-70 -37.5t-62.5 -48.5t-43 -62t-16.5 -76q0 -115 129 -115q54 0 116 23l19 -74q-66 -49 -178 -49q-115 0 -173.5 49.5t-58.5 136.5q0 72 37.5 131.5t95.5 95.5l-24 162h-21q-72 -81 -144 -123.5t-175 -42.5q-133 0 -206 71.5t-73 184.5
q0 72 31.5 127t79.5 87t114.5 52.5t126.5 27.5t125 7q75 0 133 -8l3 197q1 120 -61 174.5t-171 54.5q-61 0 -115 -12l-32 -234h-123q-58 43 -58 107q0 69 59 126t145.5 86.5t176.5 29.5q152 0 249.5 -85.5t96.5 -236.5l-6 -610zM422 96q154 0 276 158l4 195h-38
q-207 0 -297.5 -48.5t-90.5 -158.5q0 -146 146 -146z" />
    <glyph glyph-name="Cacute" unicode="&#x106;" horiz-adv-x="1316" 
d="M1157 246l45 -70q-165 -203 -457 -203q-125 0 -230.5 36.5t-181 101t-128 153t-78 193t-25.5 219.5q0 206 78.5 366t234 253.5t367.5 93.5q181 0 367 -80q10 -48 10 -111q0 -76 -12 -194h-121l-33 233q-88 37 -198 37q-241 0 -367.5 -149.5t-126.5 -426.5
q0 -291 132.5 -441.5t354.5 -150.5q195 0 369 140zM905 1829h53q80 -34 123 -107l-290 -241h-113z" />
    <glyph glyph-name="cacute" unicode="&#x107;" horiz-adv-x="997" 
d="M877 227l43 -65q-147 -189 -383 -189q-88 0 -162 27.5t-126.5 76t-89 115t-54 144t-17.5 162.5q0 245 133.5 399t345.5 154q45 0 88.5 -7.5t86.5 -25t75 -43t52 -65.5t20 -89q0 -76 -53 -119h-131l-33 236q-41 10 -80 10q-149 0 -234.5 -109t-85.5 -313t84 -309.5
t222 -105.5q147 0 299 116zM686 1571h53q36 -15 70 -45t55 -64l-276 -288h-107z" />
    <glyph glyph-name="Ccircumflex" unicode="&#x108;" horiz-adv-x="1316" 
d="M1157 246l45 -70q-165 -203 -457 -203q-125 0 -230.5 36.5t-181 101t-128 153t-78 193t-25.5 219.5q0 206 78.5 366t234 253.5t367.5 93.5q181 0 367 -80q10 -48 10 -111q0 -76 -12 -194h-121l-33 233q-88 37 -198 37q-241 0 -367.5 -149.5t-126.5 -426.5
q0 -291 132.5 -441.5t354.5 -150.5q195 0 369 140zM1036 1540l-121 -82l-200 168h-21l-176 -145h-121l293 329h103z" />
    <glyph glyph-name="ccircumflex" unicode="&#x109;" horiz-adv-x="997" 
d="M877 227l43 -65q-147 -189 -383 -189q-88 0 -162 27.5t-126.5 76t-89 115t-54 144t-17.5 162.5q0 245 133.5 399t345.5 154q45 0 88.5 -7.5t86.5 -25t75 -43t52 -65.5t20 -89q0 -76 -53 -119h-131l-33 236q-41 10 -80 10q-149 0 -234.5 -109t-85.5 -313t84 -309.5
t222 -105.5q147 0 299 116zM844 1233l-121 -72l-182 217h-21l-158 -204h-108l262 389h102z" />
    <glyph glyph-name="Cdotaccent" unicode="&#x10a;" horiz-adv-x="1316" 
d="M1157 246l45 -70q-165 -203 -457 -203q-125 0 -230.5 36.5t-181 101t-128 153t-78 193t-25.5 219.5q0 206 78.5 366t234 253.5t367.5 93.5q181 0 367 -80q10 -48 10 -111q0 -76 -12 -194h-121l-33 233q-88 37 -198 37q-241 0 -367.5 -149.5t-126.5 -426.5
q0 -291 132.5 -441.5t354.5 -150.5q195 0 369 140zM721 1751q37 0 70 -10q34 -49 34 -101q0 -56 -47 -118h-145l-23 211q41 18 111 18z" />
    <glyph glyph-name="cdotaccent" unicode="&#x10b;" horiz-adv-x="997" 
d="M877 227l43 -65q-147 -189 -383 -189q-88 0 -162 27.5t-126.5 76t-89 115t-54 144t-17.5 162.5q0 245 133.5 399t345.5 154q45 0 88.5 -7.5t86.5 -25t75 -43t52 -65.5t20 -89q0 -76 -53 -119h-131l-33 236q-41 10 -80 10q-149 0 -234.5 -109t-85.5 -313t84 -309.5
t222 -105.5q147 0 299 116zM561 1485q37 0 60 -10q34 -49 34 -99q0 -52 -45 -116h-143l-25 208q65 17 119 17z" />
    <glyph glyph-name="Ccaron" unicode="&#x10c;" horiz-adv-x="1316" 
d="M1157 246l45 -70q-165 -203 -457 -203q-125 0 -230.5 36.5t-181 101t-128 153t-78 193t-25.5 219.5q0 206 78.5 366t234 253.5t367.5 93.5q181 0 367 -80q10 -48 10 -111q0 -76 -12 -194h-121l-33 233q-88 37 -198 37q-241 0 -367.5 -149.5t-126.5 -426.5
q0 -291 132.5 -441.5t354.5 -150.5q195 0 369 140zM719 1665h20l176 145h121l-293 -329h-102l-244 270l121 82z" />
    <glyph glyph-name="ccaron" unicode="&#x10d;" horiz-adv-x="997" 
d="M877 227l43 -65q-147 -189 -383 -189q-88 0 -162 27.5t-126.5 76t-89 115t-54 144t-17.5 162.5q0 245 133.5 399t345.5 154q45 0 88.5 -7.5t86.5 -25t75 -43t52 -65.5t20 -89q0 -76 -53 -119h-131l-33 236q-41 10 -80 10q-149 0 -234.5 -109t-85.5 -313t84 -309.5
t222 -105.5q147 0 299 116zM557 1360h21l157 205h109l-262 -389h-103l-225 329l121 72z" />
    <glyph glyph-name="Dcaron" unicode="&#x10e;" horiz-adv-x="1415" 
d="M580 1372q156 0 279.5 -33t208 -91.5t140 -142.5t80.5 -183t25 -217q0 -157 -40.5 -283.5t-123.5 -222t-219 -147.5t-318 -52h-514v96l164 31v1128l-164 11v96q260 10 482 10zM444 109h170q259 0 379.5 149t120.5 447q0 559 -483 559h-187v-1155zM698 1665h21l176 145
h121l-293 -329h-102l-244 270l121 82z" />
    <glyph glyph-name="dcaron" unicode="&#x10f;" horiz-adv-x="1386" 
d="M1004 1532v-1382l143 -37v-84q-153 -37 -270 -45l-41 8l10 143h-21q-131 -162 -321 -162q-130 0 -223.5 66.5t-138 177.5t-44.5 254q0 256 138.5 418t355.5 162q126 0 244 -47v389l-142 20v84q138 38 269 45zM600 948q-155 0 -236 -123.5t-81 -332.5q0 -386 280 -386
q88 0 151.5 37.5t121.5 108.5v631q-50 32 -114.5 48.5t-121.5 16.5zM1257 1542q65 0 113 -29q-3 -123 -36.5 -220.5t-106.5 -198.5h-82l47 249v191q21 8 65 8z" />
    <glyph glyph-name="Dcroat" unicode="&#x110;" horiz-adv-x="1439" 
d="M604 1372q156 0 279.5 -33t208 -91.5t140 -142.5t80.5 -183t25 -217q0 -157 -40.5 -283.5t-123 -222t-218.5 -147.5t-318 -52h-514v96l164 31v522h-164v111h164v495l-164 11v96q260 10 481 10zM469 109h170q259 0 379.5 149t120.5 447q0 559 -484 559h-186v-504h285v-111
h-285v-540z" />
    <glyph glyph-name="dcroat" unicode="&#x111;" horiz-adv-x="1208" 
d="M1004 1260v-1110l143 -37v-84q-153 -37 -270 -45l-41 8l10 143h-21q-131 -162 -321 -162q-130 0 -223.5 66.5t-138 177.5t-44.5 254q0 256 138.5 418t355.5 162q127 0 244 -47v256h-295v102h295v154q54 15 127 28l41 -6v-176h174v-102h-174zM836 252v631q-47 31 -112 48
t-124 17q-155 0 -236 -123.5t-81 -332.5q0 -386 280 -386q88 0 151.5 37.5t121.5 108.5z" />
    <glyph glyph-name="Emacron" unicode="&#x112;" horiz-adv-x="1236" 
d="M1001 311l119 -12q2 -27 2 -86q0 -93 -26 -213h-998v96l164 31v1128l-164 11v96h1000q10 -48 10 -133q0 -86 -10 -164h-119l-25 174l-510 18v-499h285l23 127h92v-379h-92l-25 143h-283v-545l508 19zM326 1702h569q8 -31 8 -70q0 -38 -8 -69h-569q-9 35 -9 69q0 36 9 70z
" />
    <glyph glyph-name="emacron" unicode="&#x113;" horiz-adv-x="1040" 
d="M897 227l43 -65q-148 -189 -391 -189q-114 0 -204 42.5t-145 116t-83.5 166.5t-28.5 200q0 245 135.5 399t354.5 154q176 0 266 -102.5t90 -270.5q0 -72 -16 -154h-646q1 -199 87.5 -306t228.5 -107q151 0 309 116zM557 948q-110 0 -187 -87.5t-94 -248.5l484 19
q0 317 -203 317zM285 1405h528q8 -31 8 -68q0 -36 -8 -67h-528q-9 35 -9 67q0 33 9 68z" />
    <glyph glyph-name="Ebreve" unicode="&#x114;" horiz-adv-x="1236" 
d="M1001 311l119 -12q2 -27 2 -86q0 -93 -26 -213h-998v96l164 31v1128l-164 11v96h1000q10 -48 10 -133q0 -86 -10 -164h-119l-25 174l-510 18v-499h285l23 127h92v-379h-92l-25 143h-283v-545l508 19zM319 1733l121 45q26 -88 74.5 -128t126.5 -40q81 0 129 42.5t80 125.5
l68 -29q-25 -130 -105.5 -199t-206.5 -69q-130 0 -201.5 66.5t-85.5 185.5z" />
    <glyph glyph-name="ebreve" unicode="&#x115;" horiz-adv-x="1040" 
d="M897 227l43 -65q-148 -189 -391 -189q-114 0 -204 42.5t-145 116t-83.5 166.5t-28.5 200q0 245 135.5 399t354.5 154q176 0 266 -102.5t90 -270.5q0 -72 -16 -154h-646q1 -199 87.5 -306t228.5 -107q151 0 309 116zM557 948q-110 0 -187 -87.5t-94 -248.5l484 19
q0 317 -203 317zM268 1493l121 45q17 -107 61.5 -158t120.5 -51q80 0 124 52t67 157l67 -29q-17 -152 -92.5 -230.5t-199.5 -78.5q-126 0 -194.5 76.5t-74.5 216.5z" />
    <glyph glyph-name="Edotaccent" unicode="&#x116;" horiz-adv-x="1236" 
d="M1001 311l119 -12q2 -27 2 -86q0 -93 -26 -213h-998v96l164 31v1128l-164 11v96h1000q10 -48 10 -133q0 -86 -10 -164h-119l-25 174l-510 18v-499h285l23 127h92v-379h-92l-25 143h-283v-545l508 19zM614 1751q37 0 70 -10q35 -50 35 -101q0 -56 -47 -118h-146l-22 211
q41 18 110 18z" />
    <glyph glyph-name="edotaccent" unicode="&#x117;" horiz-adv-x="1040" 
d="M897 227l43 -65q-148 -189 -391 -189q-114 0 -204 42.5t-145 116t-83.5 166.5t-28.5 200q0 245 135.5 399t354.5 154q176 0 266 -102.5t90 -270.5q0 -72 -16 -154h-646q1 -199 87.5 -306t228.5 -107q151 0 309 116zM557 948q-110 0 -187 -87.5t-94 -248.5l484 19
q0 317 -203 317zM561 1485q37 0 60 -10q34 -49 34 -99q0 -52 -45 -116h-143l-25 208q65 17 119 17z" />
    <glyph glyph-name="Eogonek" unicode="&#x118;" horiz-adv-x="1236" 
d="M1106 -313l18 -74q-66 -49 -174 -49q-116 0 -175.5 51.5t-59.5 138.5q0 136 149 226v20h-766v96l164 31v1128l-164 11v96h1000q10 -48 10 -133q0 -86 -10 -164h-119l-25 174l-510 18v-499h285l23 127h92v-379h-92l-25 143h-283v-545l508 19l49 188l119 -12q2 -27 2 -86
q0 -93 -26 -213h-121q-115 -118 -115 -213q0 -60 36.5 -91.5t94.5 -31.5q53 0 115 23z" />
    <glyph glyph-name="eogonek" unicode="&#x119;" horiz-adv-x="1040" 
d="M784 -336q55 0 117 23l19 -74q-66 -49 -177 -49q-114 0 -173.5 48.5t-59.5 127.5q0 68 41 130t104 105l-6 15q-62 -17 -112 -17q-109 0 -196 42.5t-141.5 116t-83 167.5t-28.5 201q0 243 135.5 397t354.5 154q176 0 266 -102.5t90 -270.5q0 -72 -16 -154h-646
q1 -199 87.5 -306t228.5 -107q151 0 309 116l43 -65q-36 -39 -90 -86q-107 -96 -151 -155t-44 -128q0 -64 34.5 -96.5t94.5 -32.5zM557 948q-110 0 -187 -87.5t-94 -248.5l484 19q0 317 -203 317z" />
    <glyph glyph-name="Ecaron" unicode="&#x11a;" horiz-adv-x="1236" 
d="M1001 311l119 -12q2 -27 2 -86q0 -93 -26 -213h-998v96l164 31v1128l-164 11v96h1000q10 -48 10 -133q0 -86 -10 -164h-119l-25 174l-510 18v-499h285l23 127h92v-379h-92l-25 143h-283v-545l508 19zM612 1665h21l176 145h121l-293 -329h-102l-244 270l121 82z" />
    <glyph glyph-name="ecaron" unicode="&#x11b;" horiz-adv-x="1040" 
d="M897 227l43 -65q-148 -189 -391 -189q-114 0 -204 42.5t-145 116t-83.5 166.5t-28.5 200q0 245 135.5 399t354.5 154q176 0 266 -102.5t90 -270.5q0 -72 -16 -154h-646q1 -199 87.5 -306t228.5 -107q151 0 309 116zM557 948q-110 0 -187 -87.5t-94 -248.5l484 19
q0 317 -203 317zM557 1360h21l157 205h109l-262 -389h-103l-225 329l121 72z" />
    <glyph glyph-name="Gcircumflex" unicode="&#x11c;" horiz-adv-x="1384" 
d="M1290 592v-96l-102 -31v-412q-90 -38 -205 -59t-215 -21q-161 0 -289.5 55.5t-210 151.5t-124 221.5t-42.5 270.5q0 208 84 370t244 254.5t373 92.5q180 0 366 -80q11 -53 11 -109q0 -61 -13 -176h-120l-29 205q-80 45 -209 45q-242 0 -375 -151t-133 -439
q0 -286 129 -441t350 -155q139 0 252 55l-26 342l-203 11v96h487zM1036 1540l-121 -82l-200 168h-21l-176 -145h-121l293 329h103z" />
    <glyph glyph-name="gcircumflex" unicode="&#x11d;" horiz-adv-x="1087" 
d="M911 1016l-71 -84q84 -93 84 -230q0 -161 -117 -264.5t-309 -103.5q-52 0 -107 10v-147l275 -37q197 -27 278.5 -84t81.5 -160q0 -158 -160.5 -255t-421.5 -97q-192 0 -292.5 61.5t-100.5 198.5q0 105 57.5 174.5t153.5 83.5q3 98 33 293q-92 43 -140.5 125t-48.5 182
q0 161 117 265t309 104q156 0 254 -72q39 207 164 207q61 0 101 -47l-17 -123h-123zM516 434q113 0 170 66.5t57 191.5t-57 191.5t-170 66.5q-114 0 -171.5 -66.5t-57.5 -191.5t57.5 -191.5t171.5 -66.5zM569 14l-266 39q-32 -37 -49.5 -88.5t-17.5 -101.5q0 -102 71 -149.5
t197 -47.5q90 0 173.5 20.5t143.5 67.5t60 111q0 36 -22 60t-92 47t-198 42zM793 1233l-121 -72l-183 217h-20l-158 -204h-108l262 389h102z" />
    <glyph glyph-name="Gbreve" unicode="&#x11e;" horiz-adv-x="1384" 
d="M1290 592v-96l-102 -31v-412q-90 -38 -205 -59t-215 -21q-161 0 -289.5 55.5t-210 151.5t-124 221.5t-42.5 270.5q0 208 84 370t244 254.5t373 92.5q180 0 366 -80q11 -53 11 -109q0 -61 -13 -176h-120l-29 205q-80 45 -209 45q-242 0 -375 -151t-133 -439
q0 -286 129 -441t350 -155q139 0 252 55l-26 342l-203 11v96h487zM426 1733l121 45q26 -88 74.5 -128t126.5 -40q81 0 128.5 42.5t79.5 125.5l68 -29q-25 -130 -105 -199t-206 -69q-130 0 -201.5 66.5t-85.5 185.5z" />
    <glyph glyph-name="gbreve" unicode="&#x11f;" horiz-adv-x="1087" 
d="M911 1016l-71 -84q84 -93 84 -230q0 -161 -117 -264.5t-309 -103.5q-52 0 -107 10v-147l275 -37q197 -27 278.5 -84t81.5 -160q0 -158 -160.5 -255t-421.5 -97q-192 0 -292.5 61.5t-100.5 198.5q0 105 57.5 174.5t153.5 83.5q3 98 33 293q-92 43 -140.5 125t-48.5 182
q0 161 117 265t309 104q156 0 254 -72q39 207 164 207q61 0 101 -47l-17 -123h-123zM516 434q113 0 170 66.5t57 191.5t-57 191.5t-170 66.5q-114 0 -171.5 -66.5t-57.5 -191.5t57.5 -191.5t171.5 -66.5zM569 14l-266 39q-32 -37 -49.5 -88.5t-17.5 -101.5q0 -102 71 -149.5
t197 -47.5q90 0 173.5 20.5t143.5 67.5t60 111q0 36 -22 60t-92 47t-198 42zM217 1493l121 45q17 -107 61.5 -158t120.5 -51q80 0 124 52t67 157l67 -29q-17 -152 -93 -230.5t-200 -78.5q-126 0 -194 76.5t-74 216.5z" />
    <glyph glyph-name="Gdotaccent" unicode="&#x120;" horiz-adv-x="1384" 
d="M1290 592v-96l-102 -31v-412q-90 -38 -205 -59t-215 -21q-161 0 -289.5 55.5t-210 151.5t-124 221.5t-42.5 270.5q0 208 84 370t244 254.5t373 92.5q180 0 366 -80q11 -53 11 -109q0 -61 -13 -176h-120l-29 205q-80 45 -209 45q-242 0 -375 -151t-133 -439
q0 -286 129 -441t350 -155q139 0 252 55l-26 342l-203 11v96h487zM721 1751q37 0 70 -10q34 -49 34 -101q0 -56 -47 -118h-145l-23 211q41 18 111 18z" />
    <glyph glyph-name="gdotaccent" unicode="&#x121;" horiz-adv-x="1087" 
d="M911 1016l-71 -84q84 -93 84 -230q0 -161 -117 -264.5t-309 -103.5q-52 0 -107 10v-147l275 -37q197 -27 278.5 -84t81.5 -160q0 -158 -160.5 -255t-421.5 -97q-192 0 -292.5 61.5t-100.5 198.5q0 105 57.5 174.5t153.5 83.5q3 98 33 293q-92 43 -140.5 125t-48.5 182
q0 161 117 265t309 104q156 0 254 -72q39 207 164 207q61 0 101 -47l-17 -123h-123zM516 434q113 0 170 66.5t57 191.5t-57 191.5t-170 66.5q-114 0 -171.5 -66.5t-57.5 -191.5t57.5 -191.5t171.5 -66.5zM569 14l-266 39q-32 -37 -49.5 -88.5t-17.5 -101.5q0 -102 71 -149.5
t197 -47.5q90 0 173.5 20.5t143.5 67.5t60 111q0 36 -22 60t-92 47t-198 42zM510 1485q36 0 59 -10q35 -50 35 -99q0 -52 -45 -116h-143l-25 208q65 17 119 17z" />
    <glyph glyph-name="Gcommaaccent" unicode="&#x122;" horiz-adv-x="1384" 
d="M1290 592v-96l-102 -31v-412q-90 -38 -205 -59t-215 -21q-161 0 -289.5 55.5t-210 151.5t-124 221.5t-42.5 270.5q0 208 84 370t244 254.5t373 92.5q180 0 366 -80q11 -53 11 -109q0 -61 -13 -176h-120l-29 205q-80 45 -209 45q-242 0 -375 -151t-133 -439
q0 -286 129 -441t350 -155q139 0 252 55l-26 342l-203 11v96h487zM717 -109q45 0 76 -16q36 -59 36 -125q0 -84 -47.5 -152t-132.5 -98l-33 51q48 36 75.5 69t27.5 73q0 19 -2 31l-84 14l-2 139q44 14 86 14z" />
    <glyph glyph-name="gcommaaccent" unicode="&#x123;" horiz-adv-x="1087" 
d="M911 1016l-71 -84q84 -93 84 -230q0 -161 -117 -264.5t-309 -103.5q-52 0 -107 10v-147l275 -37q197 -27 278.5 -84t81.5 -160q0 -158 -160.5 -255t-421.5 -97q-192 0 -292.5 61.5t-100.5 198.5q0 105 57.5 174.5t153.5 83.5q3 98 33 293q-92 43 -140.5 125t-48.5 182
q0 161 117 265t309 104q156 0 254 -72q39 207 164 207q61 0 101 -47l-17 -123h-123zM516 434q113 0 170 66.5t57 191.5t-57 191.5t-170 66.5q-114 0 -171.5 -66.5t-57.5 -191.5t57.5 -191.5t171.5 -66.5zM569 14l-266 39q-32 -37 -49.5 -88.5t-17.5 -101.5q0 -102 71 -149.5
t197 -47.5q90 0 173.5 20.5t143.5 67.5t60 111q0 36 -22 60t-92 47t-198 42zM575 1575l33 -51q-36 -26 -55 -42t-36 -42t-17 -54q0 -18 2 -30l84 -15l2 -139q-44 -14 -86 -14q-45 0 -76 16q-37 61 -37 125q0 84 49 150t137 96z" />
    <glyph glyph-name="Hcircumflex" unicode="&#x124;" horiz-adv-x="1560" 
d="M1298 1235v-1129l164 -10v-96h-510v96l164 31v522h-672v-543l181 -10v-96h-527v96l164 31v1128l-164 11v96h527v-96l-181 -31v-475h672v495l-182 11v96h528v-96zM1102 1540l-121 -82l-201 168h-20l-176 -145h-121l293 329h102z" />
    <glyph glyph-name="hcircumflex" unicode="&#x125;" horiz-adv-x="1222" 
d="M915 1602l-120 -80l-185 155h-20l-137 -135h-109l242 289h102zM373 1450v-395q0 -15 -11 -166h21q78 90 156 126t163 36q146 0 238 -87.5t92 -254.5v-607l164 -10v-92h-471v92l139 31v557q0 119 -55 178.5t-158 59.5q-159 0 -278 -146v-670l159 -10v-92h-471v92l144 31
v1188l-142 20v84q138 38 269 45z" />
    <glyph glyph-name="Hbar" unicode="&#x126;" horiz-adv-x="1583" 
d="M1311 920v-814l164 -10v-96h-527v96l180 31v455h-671v-476l180 -10v-96h-526v96l163 31v793h-227v104h227v231l-163 11v96h526v-96l-180 -31v-211h671v231l-182 11v96h529v-96l-164 -31v-211h225v-104h-225zM1128 920h-671v-228h671v228z" />
    <glyph glyph-name="hbar" unicode="&#x127;" horiz-adv-x="1222" 
d="M1196 92v-92h-471v92l139 31v557q0 119 -55 178.5t-158 59.5q-159 0 -278 -146v-670l159 -10v-92h-471v92l144 31v1137h-174v102h174v149q83 23 127 31l41 -6v-174h323v-102h-323v-205q0 -15 -11 -166h21q78 90 156 126t163 36q146 0 238 -87.5t92 -254.5v-607z" />
    <glyph glyph-name="Itilde" unicode="&#x128;" horiz-adv-x="706" 
d="M444 1235v-1129l164 -10v-96h-510v96l164 31v1128l-164 11v96h510v-96zM612 1755l56 -55q-44 -84 -70 -113q-55 -65 -127 -65q-43 0 -96 26l-172 84l-109 -106l-55 55q44 84 70 113q55 65 127 65q43 0 96 -26l172 -84z" />
    <glyph glyph-name="itilde" unicode="&#x129;" horiz-adv-x="593" 
d="M549 92v-92h-471v92l143 31v756l-143 36v84q153 37 270 45l41 -8v-934zM502 1479l55 -56q-18 -37 -30.5 -58.5t-38.5 -57t-58 -54t-68 -18.5t-83 33l-109 78l-104 -111l-56 55q18 37 30.5 58.5t38.5 57.5t58 54.5t68 18.5q37 0 84 -33l108 -78z" />
    <glyph glyph-name="Imacron" unicode="&#x12a;" horiz-adv-x="706" 
d="M444 1235v-1129l164 -10v-96h-510v96l164 31v1128l-164 11v96h510v-96zM68 1702h569q8 -31 8 -70q0 -38 -8 -69h-569q-9 35 -9 69q0 36 9 70z" />
    <glyph glyph-name="imacron" unicode="&#x12b;" horiz-adv-x="593" 
d="M549 92v-92h-471v92l143 31v756l-143 36v84q153 37 270 45l41 -8v-934zM57 1405h451q8 -31 8 -68q0 -36 -8 -67h-451q-8 31 -8 67q0 37 8 68z" />
    <glyph glyph-name="Ibreve" unicode="&#x12c;" horiz-adv-x="706" 
d="M444 1235v-1129l164 -10v-96h-510v96l164 31v1128l-164 11v96h510v-96zM61 1733l121 45q26 -88 74.5 -128t126.5 -40q81 0 129 42.5t80 125.5l67 -29q-25 -130 -105 -199t-206 -69q-130 0 -201.5 66.5t-85.5 185.5z" />
    <glyph glyph-name="ibreve" unicode="&#x12d;" horiz-adv-x="593" 
d="M549 92v-92h-471v92l143 31v756l-143 36v84q153 37 270 45l41 -8v-934zM471 1536l68 -29q-19 -152 -88 -229.5t-181 -77.5q-111 0 -173 75.5t-70 215.5l120 45q17 -108 54 -157.5t102 -49.5q69 0 107 50.5t61 156.5z" />
    <glyph glyph-name="Iogonek" unicode="&#x12e;" horiz-adv-x="706" 
d="M444 1235v-1129l164 -12v-94q-129 -39 -202.5 -99.5t-73.5 -131.5q0 -50 35.5 -77.5t93.5 -27.5q55 0 117 23l18 -74q-66 -49 -176 -49q-114 0 -174 48t-60 124q0 75 54.5 139.5t134.5 104.5v20h-277v96l164 31v1128l-164 11v96h510v-96z" />
    <glyph glyph-name="iogonek" unicode="&#x12f;" horiz-adv-x="593" 
d="M209 1260l-25 208q65 17 119 17q37 0 59 -10q35 -50 35 -99q0 -52 -45 -116h-143zM549 92v-92q-128 -37 -203.5 -94.5t-75.5 -130.5q0 -52 36 -81.5t95 -29.5q53 0 115 23l19 -74q-66 -49 -175 -49q-115 0 -175 53.5t-60 132.5q0 138 188 230v20h-235v92l143 31v756
l-143 36v84q153 37 270 45l41 -8v-934z" />
    <glyph glyph-name="Idotaccent" unicode="&#x130;" horiz-adv-x="706" 
d="M444 1235v-1129l164 -10v-96h-510v96l164 31v1128l-164 11v96h510v-96zM373 1747q37 0 59 -10q35 -50 35 -99q0 -52 -45 -116h-143l-25 209q61 16 119 16z" />
    <glyph glyph-name="dotlessi" unicode="&#x131;" horiz-adv-x="593" 
d="M549 92v-92h-471v92l143 31v756l-143 36v84q153 37 270 45l41 -8v-934z" />
    <glyph glyph-name="IJ" unicode="&#x132;" horiz-adv-x="1662" 
d="M1602 1362v-96l-164 -31v-862q0 -89 -21 -159t-56 -114.5t-83.5 -73.5t-100 -41t-110.5 -12q-78 0 -140 21t-98.5 55.5t-55.5 74.5t-19 81q0 69 51 117h133l31 -224q52 -10 86 -10q96 0 148 57.5t52 196.5v913l-235 11v96h582zM444 1235v-1129l164 -10v-96h-510v96
l164 31v1128l-164 11v96h510v-96z" />
    <glyph glyph-name="ij" unicode="&#x133;" horiz-adv-x="1150" 
d="M549 92v-92h-471v92l143 31v756l-143 36v84q153 37 270 45l41 -8v-934zM967 1036v-1054q0 -158 -51.5 -248t-186.5 -170l-59 63l129 191v1061l-144 36v84q152 37 271 45zM883 1485q37 0 59 -10q35 -50 35 -99q0 -52 -45 -116h-144l-24 208q65 17 119 17zM303 1485
q37 0 59 -10q35 -50 35 -99q0 -52 -45 -116h-143l-25 208q65 17 119 17z" />
    <glyph glyph-name="Jcircumflex" unicode="&#x134;" horiz-adv-x="956" 
d="M895 1362v-96l-164 -31v-862q0 -89 -21 -159t-56 -114.5t-83.5 -73.5t-100 -41t-110.5 -12q-78 0 -140 21t-98.5 55.5t-55.5 74.5t-19 81q0 69 51 117h133l31 -224q52 -10 86 -10q96 0 148.5 57.5t52.5 196.5v913l-236 11v96h582zM915 1540l-120 -82l-201 168h-21
l-176 -145h-121l293 329h103z" />
    <glyph glyph-name="jcircumflex" unicode="&#x135;" horiz-adv-x="557" 
d="M373 1036v-1054q0 -158 -51.5 -248t-186.5 -170l-59 63l129 191v1061l-144 36v84q152 37 271 45zM506 1253l-121 -71l-141 196h-21l-117 -184h-108l221 369h103z" />
    <glyph glyph-name="Kcommaaccent" unicode="&#x136;" horiz-adv-x="1380" 
d="M1333 78l-10 -72q-71 -22 -123 -22t-91 11t-71.5 37.5t-55.5 54.5t-56 77q-40 60 -87.5 141t-106 183.5t-91.5 158.5h-197v-541l179 -10v-96h-525v96l164 31v1128l-164 11v96h504v-96l-158 -31v-477h215q178 245 340 495l-176 13v96h473v-96l-129 -23
q-188 -245 -397 -493q62 -84 125 -176.5t162.5 -243t130.5 -197.5zM696 -109q45 0 76 -16q37 -61 37 -125q0 -84 -47.5 -152t-132.5 -98l-33 51q48 35 75 68.5t27 73.5q0 19 -2 31l-84 14l-2 139q44 14 86 14z" />
    <glyph glyph-name="kcommaaccent" unicode="&#x137;" horiz-adv-x="1132" 
d="M1112 63l-8 -61q-58 -18 -113 -18q-77 0 -126 30.5t-97 106.5q-8 13 -39 63.5t-81 131.5t-107 171h-168v-385l139 -10v-92h-451v92l144 31v1272l-142 20v84q129 36 269 43l41 -10v-942h149q125 142 275 332l-146 10v92h412v-92l-119 -29q-173 -187 -299 -305
q57 -76 118 -162t132 -187.5t100 -142.5zM602 -109q45 0 76 -16q37 -61 37 -125q0 -84 -47.5 -152t-132.5 -98l-33 51q48 35 75 68.5t27 73.5q0 19 -2 31l-84 14l-2 139q44 14 86 14z" />
    <glyph glyph-name="kgreenlandic" unicode="&#x138;" horiz-adv-x="1148" 
d="M1128 63l-8 -61q-58 -18 -112 -18q-77 0 -126.5 30.5t-97.5 106.5q-9 13 -36.5 57.5t-81 132t-109.5 176.5h-168v-385l139 -10v-92h-450v92l143 31v756l-143 36v84q153 39 270 45l41 -10v-444h150q116 131 274 332l-145 10v92h411v-92l-118 -29q-173 -187 -299 -305
q57 -76 118 -162t132 -187.5t100 -142.5z" />
    <glyph glyph-name="Lacute" unicode="&#x139;" horiz-adv-x="1122" 
d="M940 332l115 -13q4 -66 4 -112q0 -113 -27 -207h-934v96l164 31v1128l-164 11v96h541v-96l-195 -31v-1131l441 17zM545 1829h53q80 -34 123 -107l-291 -241h-113z" />
    <glyph glyph-name="lacute" unicode="&#x13a;" horiz-adv-x="577" 
d="M377 1542h-113l139 289h54q80 -34 123 -107zM373 102l159 -10v-92h-471v92l144 31v1190l-142 20v84q129 36 269 43l41 -10v-1348z" />
    <glyph glyph-name="Lcommaaccent" unicode="&#x13b;" horiz-adv-x="1122" 
d="M940 332l115 -13q4 -66 4 -112q0 -113 -27 -207h-934v96l164 31v1128l-164 11v96h541v-96l-195 -31v-1131l441 17zM547 -109q45 0 76 -16q36 -59 36 -125q0 -84 -47.5 -152t-132.5 -98l-33 51q48 36 75.5 69t27.5 73q0 19 -2 31l-84 14l-2 139q44 14 86 14z" />
    <glyph glyph-name="lcommaaccent" unicode="&#x13c;" horiz-adv-x="577" 
d="M532 92v-92h-471v92l144 31v1272l-142 20v84q129 36 269 43l41 -10v-1430zM279 -109q44 0 75 -16q37 -61 37 -125q0 -84 -47.5 -152t-132.5 -98l-33 51q48 36 75.5 69t27.5 73q0 19 -2 31l-84 14l-2 139q44 14 86 14z" />
    <glyph glyph-name="Lcaron" unicode="&#x13d;" horiz-adv-x="1122" 
d="M940 332l115 -13q4 -66 4 -112q0 -113 -27 -207h-934v96l164 31v1128l-164 11v96h541v-96l-195 -31v-1131l441 17zM920 1389q64 0 112 -29q-3 -123 -36.5 -221t-106.5 -199h-82l47 250v190q24 9 66 9z" />
    <glyph glyph-name="lcaron" unicode="&#x13e;" horiz-adv-x="761" 
d="M532 92v-92h-471v92l144 31v1272l-142 20v84q129 36 269 43l41 -10v-1430zM633 1542q64 0 112 -29q-3 -123 -36.5 -220.5t-106.5 -198.5h-82l47 249v191q21 8 66 8z" />
    <glyph glyph-name="Ldot" unicode="&#x13f;" horiz-adv-x="1101" 
d="M907 881q33 0 70 -11q35 -50 35 -100q0 -57 -47 -119h-146l-22 211q44 19 110 19zM940 332l115 -13q4 -66 4 -112q0 -113 -27 -207h-934v96l164 31v1128l-164 11v96h541v-96l-195 -31v-1131l441 17z" />
    <glyph glyph-name="ldot" unicode="&#x140;" horiz-adv-x="641" 
d="M608 840q33 0 70 -11q35 -50 35 -100q0 -57 -47 -119h-146l-22 211q44 19 110 19zM532 92v-92h-471v92l144 31v1272l-142 20v84q129 36 269 43l41 -10v-1430z" />
    <glyph glyph-name="Lslash" unicode="&#x141;" horiz-adv-x="1124" 
d="M942 332l115 -13q4 -66 4 -112q0 -113 -27 -207h-934v96l164 31v455l-190 -80l-13 20v88l203 84v561l-166 11v96h543v-96l-195 -31v-477l433 180l12 -20v-89l-445 -186v-539l441 17z" />
    <glyph glyph-name="lslash" unicode="&#x142;" horiz-adv-x="659" 
d="M414 700v-598l159 -10v-92h-471v92l144 31v500l-158 -86l-12 20v86l170 92v660l-142 20v84q129 36 269 43l41 -10v-719l168 92l12 -20v-86z" />
    <glyph glyph-name="Nacute" unicode="&#x143;" horiz-adv-x="1550" 
d="M1473 1266l-164 -31v-1235l-135 -27h-25l-586 967q-66 108 -155 289h-21l12 -1123l191 -10v-96h-492v96l164 31v1126l-164 13v96h422l467 -772q97 -161 180 -320h21l-17 985l-192 11v96h494v-96zM969 1829h53q80 -34 123 -107l-291 -241h-113z" />
    <glyph glyph-name="nacute" unicode="&#x144;" horiz-adv-x="1243" 
d="M1217 92v-92h-472v92l140 31v557q0 119 -56.5 178.5t-160.5 59.5q-160 0 -279 -146v-670l160 -10v-92h-471v92l143 31v756l-143 36v84q153 37 270 45l41 -8l-10 -147h20q142 162 320 162q147 0 240.5 -88t93.5 -254v-607zM760 1571h53q36 -15 70 -45t55 -64l-276 -288
h-107z" />
    <glyph glyph-name="Ncommaaccent" unicode="&#x145;" horiz-adv-x="1550" 
d="M1473 1266l-164 -31v-1235l-135 -27h-25l-586 967q-66 108 -155 289h-21l12 -1123l191 -10v-96h-492v96l164 31v1126l-164 13v96h422l467 -772q97 -161 180 -320h21l-17 985l-192 11v96h494v-96zM770 -109q45 0 76 -16q37 -61 37 -125q0 -83 -48 -151.5t-133 -98.5
l-32 51q48 35 75 68.5t27 73.5q0 19 -2 31l-84 14l-2 139q44 14 86 14z" />
    <glyph glyph-name="ncommaaccent" unicode="&#x146;" horiz-adv-x="1243" 
d="M1217 92v-92h-472v92l140 31v557q0 119 -56.5 178.5t-160.5 59.5q-160 0 -279 -146v-670l160 -10v-92h-471v92l143 31v756l-143 36v84q153 37 270 45l41 -8l-10 -147h20q142 162 320 162q147 0 240.5 -88t93.5 -254v-607zM612 -109q45 0 76 -16q37 -61 37 -125
q0 -84 -47.5 -152t-132.5 -98l-33 51q48 35 75 68.5t27 73.5q0 19 -2 31l-84 14l-2 139q44 14 86 14z" />
    <glyph glyph-name="Ncaron" unicode="&#x147;" horiz-adv-x="1550" 
d="M1473 1266l-164 -31v-1235l-135 -27h-25l-586 967q-66 108 -155 289h-21l12 -1123l191 -10v-96h-492v96l164 31v1126l-164 13v96h422l467 -772q97 -161 180 -320h21l-17 985l-192 11v96h494v-96zM782 1665h21l176 145h121l-293 -329h-102l-244 270l121 82z" />
    <glyph glyph-name="ncaron" unicode="&#x148;" horiz-adv-x="1243" 
d="M1217 92v-92h-472v92l140 31v557q0 119 -56.5 178.5t-160.5 59.5q-160 0 -279 -146v-670l160 -10v-92h-471v92l143 31v756l-143 36v84q153 37 270 45l41 -8l-10 -147h20q142 162 320 162q147 0 240.5 -88t93.5 -254v-607zM631 1360h20l158 205h109l-263 -389h-102
l-225 329l121 72z" />
    <glyph glyph-name="napostrophe" unicode="&#x149;" horiz-adv-x="1243" 
d="M23 1542q57 0 92 -18q43 -74 43 -152q0 -112 -59.5 -192.5t-159.5 -110.5l-23 59q46 25 80.5 72.5t34.5 108.5q0 21 -4 37l-93 16l-4 168q47 12 93 12zM1217 92v-92h-472v92l140 31v557q0 119 -56.5 178.5t-160.5 59.5q-160 0 -279 -146v-670l160 -10v-92h-471v92l143 31
v756l-143 36v84q153 37 270 45l41 -8l-10 -147h20q142 162 320 162q147 0 240.5 -88t93.5 -254v-607z" />
    <glyph glyph-name="Eng" unicode="&#x14a;" horiz-adv-x="1550" 
d="M1473 1266l-164 -31v-1235q0 -105 -29 -190t-78 -137.5t-108 -80.5t-123 -28q-101 0 -146 61l17 107h258q38 39 53 80.5t18 130.5l-608 997q-66 108 -155 289h-21l12 -1123l189 -10v-96h-490v96l164 31v1126l-164 13v96h422l467 -772q83 -138 178 -320h21l-15 985
l-192 11v96h494v-96z" />
    <glyph glyph-name="eng" unicode="&#x14b;" horiz-adv-x="1236" 
d="M719 1051q147 0 240.5 -88t93.5 -254v-727q0 -158 -51.5 -248t-186.5 -170l-59 63l129 191v862q0 119 -56.5 178.5t-160.5 59.5q-160 0 -279 -146v-670l160 -10v-92h-471v92l143 31v756l-143 36v84q153 37 270 45l41 -8l-10 -147h20q142 162 320 162z" />
    <glyph glyph-name="Omacron" unicode="&#x14c;" horiz-adv-x="1490" 
d="M764 1389q152 0 272.5 -54.5t196.5 -149.5t116 -219t40 -268q0 -209 -79.5 -373t-230.5 -258t-350 -94q-151 0 -272 55.5t-197.5 151.5t-117 221.5t-40.5 270.5q0 207 78.5 369t230 255t353.5 93zM745 1274q-202 0 -321 -152.5t-119 -437.5q0 -286 119.5 -441t320.5 -155
t321 155t120 441q0 285 -119.5 437.5t-321.5 152.5zM461 1702h569q8 -31 8 -70q0 -38 -8 -69h-569q-8 31 -8 69q0 39 8 70z" />
    <glyph glyph-name="omacron" unicode="&#x14d;" horiz-adv-x="1138" 
d="M586 1051q115 0 205 -42t146 -115.5t85 -167t29 -200.5q0 -158 -60 -283t-174.5 -197.5t-265.5 -72.5q-92 0 -168.5 27.5t-130 76.5t-91 115.5t-55.5 144t-18 163.5q0 158 60 283t174 196.5t264 71.5zM569 948q-143 0 -216.5 -109t-73.5 -325q0 -218 73.5 -328
t216.5 -110t217 110.5t74 327.5q0 216 -74 325t-217 109zM305 1405h529q8 -31 8 -68q0 -36 -8 -67h-529q-8 31 -8 67q0 37 8 68z" />
    <glyph glyph-name="Obreve" unicode="&#x14e;" horiz-adv-x="1490" 
d="M764 1389q152 0 272.5 -54.5t196.5 -149.5t116 -219t40 -268q0 -209 -79.5 -373t-230.5 -258t-350 -94q-151 0 -272 55.5t-197.5 151.5t-117 221.5t-40.5 270.5q0 207 78.5 369t230 255t353.5 93zM745 1274q-202 0 -321 -152.5t-119 -437.5q0 -286 119.5 -441t320.5 -155
t321 155t120 441q0 285 -119.5 437.5t-321.5 152.5zM455 1733l120 45q26 -88 74.5 -128t126.5 -40q81 0 129 42.5t80 125.5l68 -29q-25 -130 -105.5 -199t-206.5 -69q-130 0 -201 66.5t-85 185.5z" />
    <glyph glyph-name="obreve" unicode="&#x14f;" horiz-adv-x="1138" 
d="M586 1051q115 0 205 -42t146 -115.5t85 -167t29 -200.5q0 -158 -60 -283t-174.5 -197.5t-265.5 -72.5q-92 0 -168.5 27.5t-130 76.5t-91 115.5t-55.5 144t-18 163.5q0 158 60 283t174 196.5t264 71.5zM569 948q-143 0 -216.5 -109t-73.5 -325q0 -218 73.5 -328
t216.5 -110t217 110.5t74 327.5q0 216 -74 325t-217 109zM289 1493l121 45q17 -107 61.5 -158t120.5 -51q80 0 123.5 52t66.5 157l68 -29q-17 -152 -93 -230.5t-200 -78.5q-126 0 -194 76.5t-74 216.5z" />
    <glyph glyph-name="Ohungarumlaut" unicode="&#x150;" horiz-adv-x="1490" 
d="M764 1389q152 0 272.5 -54.5t196.5 -149.5t116 -219t40 -268q0 -209 -79.5 -373t-230.5 -258t-350 -94q-151 0 -272 55.5t-197.5 151.5t-117 221.5t-40.5 270.5q0 207 78.5 369t230 255t353.5 93zM745 1274q-202 0 -321 -152.5t-119 -437.5q0 -286 119.5 -441t320.5 -155
t321 155t120 441q0 285 -119.5 437.5t-321.5 152.5zM641 1808h51q78 -18 127 -79l-170 -248h-86zM971 1808h51q78 -18 127 -79l-170 -248h-86z" />
    <glyph glyph-name="ohungarumlaut" unicode="&#x151;" horiz-adv-x="1138" 
d="M586 1051q115 0 205 -42t146 -115.5t85 -167t29 -200.5q0 -158 -60 -283t-174.5 -197.5t-265.5 -72.5q-92 0 -168.5 27.5t-130 76.5t-91 115.5t-55.5 144t-18 163.5q0 158 60 283t174 196.5t264 71.5zM569 948q-143 0 -216.5 -109t-73.5 -325q0 -218 73.5 -328
t216.5 -110t217 110.5t74 327.5q0 216 -74 325t-217 109zM438 1571h51q84 -14 144 -80l-203 -317h-86zM768 1571h51q84 -14 144 -80l-203 -317h-86z" />
    <glyph glyph-name="OE" unicode="&#x152;" horiz-adv-x="1984" 
d="M784 1389q113 0 248 -27h811q10 -48 10 -133q0 -86 -10 -164h-119l-24 174l-490 16v-497h265l22 127h92v-379h-92l-24 143h-263v-545l488 17l49 190l119 -12q4 -54 4 -86q0 -78 -27 -213h-813q-153 -27 -274 -27q-154 0 -279 55t-206 150.5t-125 222t-44 271.5
q0 207 84 369.5t239.5 255t358.5 92.5zM784 1280q-221 0 -350 -155.5t-129 -440.5q0 -287 129 -444.5t350 -157.5q140 0 244 49v1098q-107 51 -244 51z" />
    <glyph glyph-name="oe" unicode="&#x153;" horiz-adv-x="1742" 
d="M1599 227l43 -65q-145 -189 -378 -189q-238 0 -344 199h-21q-116 -199 -358 -199q-89 0 -163.5 27.5t-127.5 75.5t-89.5 114.5t-54.5 144.5t-18 165q0 244 133 397.5t354 153.5q244 0 343 -199h20q21 36 49 68t69.5 63t101.5 49.5t130 18.5q171 0 259.5 -103t88.5 -270
q0 -72 -16 -154h-2l-623 -20q6 -190 90.5 -291.5t217.5 -101.5q141 0 296 116zM559 76q139 0 210 110.5t71 327.5q0 216 -71 325t-210 109q-280 0 -280 -434q0 -438 280 -438zM1272 948q-109 0 -186 -95t-89 -267l471 41q-3 321 -196 321z" />
    <glyph glyph-name="Racute" unicode="&#x154;" horiz-adv-x="1290" 
d="M1274 78l-8 -72q-68 -22 -127 -22q-48 0 -86.5 11.5t-67.5 34.5t-45.5 41t-38.5 48q-45 62 -149 223.5t-148 226.5h-160v-463l181 -10v-96h-527v96l164 31v1128l-164 11v96q225 10 422 10q153 0 266 -30t178.5 -85.5t96.5 -126t31 -157.5q0 -267 -295 -365l-6 -20
q76 -80 190 -245.5t154 -213.5zM444 680h291q79 45 116.5 115t37.5 176q0 149 -75.5 217t-244.5 69h-125v-577zM799 1839h53q81 -34 123 -106l-291 -242h-113z" />
    <glyph glyph-name="racute" unicode="&#x155;" horiz-adv-x="792" 
d="M737 844h-213q-74 -52 -135 -160v-582l203 -10v-92h-514v92l143 31v756l-143 36v84q155 38 262 45l41 -8l-12 -217h20q133 232 252 232q37 0 68.5 -20t46.5 -52zM492 1571h53q36 -15 70 -45t55 -64l-277 -288h-106z" />
    <glyph glyph-name="Rcommaaccent" unicode="&#x156;" horiz-adv-x="1290" 
d="M1274 78l-8 -72q-68 -22 -127 -22q-48 0 -86.5 11.5t-67.5 34.5t-45.5 41t-38.5 48q-45 62 -149 223.5t-148 226.5h-160v-463l181 -10v-96h-527v96l164 31v1128l-164 11v96q225 10 422 10q153 0 266 -30t178.5 -85.5t96.5 -126t31 -157.5q0 -267 -295 -365l-6 -20
q76 -80 190 -245.5t154 -213.5zM444 680h291q79 45 116.5 115t37.5 176q0 149 -75.5 217t-244.5 69h-125v-577zM696 -109q45 0 76 -16q37 -61 37 -125q0 -84 -47.5 -152t-132.5 -98l-33 51q48 35 75 68.5t27 73.5q0 19 -2 31l-84 14l-2 139q44 14 86 14z" />
    <glyph glyph-name="rcommaaccent" unicode="&#x157;" horiz-adv-x="792" 
d="M737 844h-213q-74 -52 -135 -160v-582l203 -10v-92h-514v92l143 31v756l-143 36v84q155 38 262 45l41 -8l-12 -217h20q133 232 252 232q37 0 68.5 -20t46.5 -52zM324 -109q44 0 75 -16q37 -61 37 -125q0 -84 -47.5 -152t-132.5 -98l-33 51q48 36 75.5 69t27.5 73
q0 19 -2 31l-84 14l-2 139q44 14 86 14z" />
    <glyph glyph-name="Rcaron" unicode="&#x158;" horiz-adv-x="1290" 
d="M1274 78l-8 -72q-68 -22 -127 -22q-48 0 -86.5 11.5t-67.5 34.5t-45.5 41t-38.5 48q-45 62 -149 223.5t-148 226.5h-160v-463l181 -10v-96h-527v96l164 31v1128l-164 11v96q225 10 422 10q153 0 266 -30t178.5 -85.5t96.5 -126t31 -157.5q0 -267 -295 -365l-6 -20
q76 -80 190 -245.5t154 -213.5zM444 680h291q79 45 116.5 115t37.5 176q0 149 -75.5 217t-244.5 69h-125v-577zM612 1675h21l176 146h121l-293 -330h-102l-244 270l121 82z" />
    <glyph glyph-name="rcaron" unicode="&#x159;" horiz-adv-x="792" 
d="M737 844h-213q-74 -52 -135 -160v-582l203 -10v-92h-514v92l143 31v756l-143 36v84q155 38 262 45l41 -8l-12 -217h20q133 232 252 232q37 0 68.5 -20t46.5 -52zM362 1360h21l158 205h108l-262 -389h-102l-226 329l121 72z" />
    <glyph glyph-name="Sacute" unicode="&#x15a;" horiz-adv-x="1099" 
d="M485 827l166 -75q66 -30 112 -55t94 -61.5t76.5 -76t47 -94t18.5 -119.5q0 -96 -37 -169t-103.5 -117t-152 -65.5t-188.5 -21.5q-197 0 -383 82q-22 107 -22 185q0 36 6 79l106 13l58 -201q99 -47 237 -47q146 0 218.5 52t72.5 167q0 102 -55.5 159t-177.5 113l-175 80
q-57 25 -100 54t-82.5 71t-60.5 101t-21 131q0 173 119 275t320 102q179 0 352 -82q12 -58 12 -109q0 -60 -12 -154h-121l-27 191q-97 43 -209 43q-132 0 -200 -59t-68 -172q0 -84 41 -130t139 -90zM752 1829h53q80 -34 123 -107l-291 -241h-113z" />
    <glyph glyph-name="sacute" unicode="&#x15b;" horiz-adv-x="919" 
d="M434 625l111 -43q69 -27 113.5 -50.5t86.5 -59.5t62 -85t20 -113q0 -153 -109 -227t-288 -74q-169 0 -328 70q-10 48 -10 117q0 77 10 141h123l27 -190q71 -35 174 -35q110 0 167.5 41t57.5 119q0 68 -42.5 107.5t-137.5 78.5l-102 41q-57 23 -96 45.5t-75.5 56t-54.5 80
t-18 107.5q0 140 98 219.5t269 79.5q143 0 286 -66q10 -48 10 -117q0 -80 -10 -141h-112l-25 184q-78 37 -158 37q-98 0 -151 -42.5t-53 -119.5q0 -62 34.5 -93.5t120.5 -67.5zM590 1571h53q36 -15 70 -45t55 -64l-276 -288h-107z" />
    <glyph glyph-name="Scircumflex" unicode="&#x15c;" horiz-adv-x="1099" 
d="M485 827l166 -75q66 -30 112 -55t94 -61.5t76.5 -76t47 -94t18.5 -119.5q0 -96 -37 -169t-103.5 -117t-152 -65.5t-188.5 -21.5q-197 0 -383 82q-22 107 -22 185q0 36 6 79l106 13l58 -201q99 -47 237 -47q146 0 218.5 52t72.5 167q0 102 -55.5 159t-177.5 113l-175 80
q-57 25 -100 54t-82.5 71t-60.5 101t-21 131q0 173 119 275t320 102q179 0 352 -82q12 -58 12 -109q0 -60 -12 -154h-121l-27 191q-97 43 -209 43q-132 0 -200 -59t-68 -172q0 -84 41 -130t139 -90zM883 1540l-121 -82l-201 168h-20l-176 -145h-121l293 329h102z" />
    <glyph glyph-name="scircumflex" unicode="&#x15d;" horiz-adv-x="919" 
d="M434 625l111 -43q69 -27 113.5 -50.5t86.5 -59.5t62 -85t20 -113q0 -153 -109 -227t-288 -74q-169 0 -328 70q-10 48 -10 117q0 77 10 141h123l27 -190q71 -35 174 -35q110 0 167.5 41t57.5 119q0 68 -42.5 107.5t-137.5 78.5l-102 41q-57 23 -96 45.5t-75.5 56t-54.5 80
t-18 107.5q0 140 98 219.5t269 79.5q143 0 286 -66q10 -48 10 -117q0 -80 -10 -141h-112l-25 184q-78 37 -158 37q-98 0 -151 -42.5t-53 -119.5q0 -62 34.5 -93.5t120.5 -67.5zM748 1233l-121 -72l-183 217h-20l-158 -204h-108l262 389h102z" />
    <glyph glyph-name="Scedilla" unicode="&#x15e;" horiz-adv-x="1099" 
d="M485 827l166 -75q66 -30 112 -55t94 -61.5t76.5 -76t47 -94t18.5 -119.5q0 -177 -117.5 -268.5t-312.5 -102.5v-112q88 -1 132 -36.5t44 -94.5q0 -73 -60 -120.5t-163 -47.5q-118 0 -192 55l18 74q89 -29 133 -29q52 0 83.5 20t31.5 58q0 31 -28 45t-117 29l24 159
q-182 7 -340 80q-22 107 -22 185q0 36 6 79l106 13l58 -201q99 -47 237 -47q146 0 218.5 52t72.5 167q0 102 -55.5 159t-177.5 113l-175 80q-57 25 -100 54t-82.5 71t-60.5 101t-21 131q0 173 119 275t320 102q179 0 352 -82q12 -58 12 -109q0 -60 -12 -154h-121l-27 191
q-97 43 -209 43q-132 0 -200 -59t-68 -172q0 -84 41 -130t139 -90z" />
    <glyph glyph-name="scedilla" unicode="&#x15f;" horiz-adv-x="919" 
d="M434 625l111 -43q69 -27 113.5 -50.5t86.5 -59.5t62 -85t20 -113q0 -138 -88.5 -211t-238.5 -86v-114q88 -1 132 -36.5t44 -94.5q0 -73 -60 -120.5t-163 -47.5q-119 0 -193 55l19 74q89 -29 133 -29q52 0 83 20t31 58q0 31 -28 45t-117 29l25 157q-156 4 -304 70
q-10 48 -10 117q0 77 10 141h123l27 -190q71 -35 174 -35q110 0 167.5 41t57.5 119q0 68 -42.5 107.5t-137.5 78.5l-102 41q-57 23 -96 45.5t-75.5 56t-54.5 80t-18 107.5q0 140 98 219.5t269 79.5q143 0 286 -66q10 -48 10 -117q0 -80 -10 -141h-112l-25 184
q-78 37 -158 37q-98 0 -151 -42.5t-53 -119.5q0 -62 34.5 -93.5t120.5 -67.5z" />
    <glyph glyph-name="Scaron" unicode="&#x160;" horiz-adv-x="1099" 
d="M485 827l166 -75q66 -30 112 -55t94 -61.5t76.5 -76t47 -94t18.5 -119.5q0 -96 -37 -169t-103.5 -117t-152 -65.5t-188.5 -21.5q-197 0 -383 82q-22 107 -22 185q0 36 6 79l106 13l58 -201q99 -47 237 -47q146 0 218.5 52t72.5 167q0 102 -55.5 159t-177.5 113l-175 80
q-57 25 -100 54t-82.5 71t-60.5 101t-21 131q0 173 119 275t320 102q179 0 352 -82q12 -58 12 -109q0 -60 -12 -154h-121l-27 191q-97 43 -209 43q-132 0 -200 -59t-68 -172q0 -84 41 -130t139 -90zM565 1665h21l176 145h121l-293 -329h-103l-243 270l121 82z" />
    <glyph glyph-name="scaron" unicode="&#x161;" horiz-adv-x="919" 
d="M434 625l111 -43q69 -27 113.5 -50.5t86.5 -59.5t62 -85t20 -113q0 -153 -109 -227t-288 -74q-169 0 -328 70q-10 48 -10 117q0 77 10 141h123l27 -190q71 -35 174 -35q110 0 167.5 41t57.5 119q0 68 -42.5 107.5t-137.5 78.5l-102 41q-57 23 -96 45.5t-75.5 56t-54.5 80
t-18 107.5q0 140 98 219.5t269 79.5q143 0 286 -66q10 -48 10 -117q0 -80 -10 -141h-112l-25 184q-78 37 -158 37q-98 0 -151 -42.5t-53 -119.5q0 -62 34.5 -93.5t120.5 -67.5zM461 1360h20l158 205h109l-263 -389h-102l-225 329l121 72z" />
    <glyph glyph-name="Tcommaaccent" unicode="&#x162;" horiz-adv-x="1208" 
d="M74 1362h1061q10 -48 10 -127q0 -125 -10 -191h-119l-29 201l-291 12v-1151l185 -10v-96h-230v-137q88 -1 132 -36.5t44 -94.5q0 -73 -60 -120.5t-163 -47.5q-118 0 -192 55l18 74q89 -29 133 -29q52 0 83.5 20t31.5 58q0 31 -28.5 44.5t-117.5 29.5l29 184h-231v96
l184 31v1130l-293 -12l-28 -201h-119q-11 73 -11 191q0 74 11 127z" />
    <glyph glyph-name="tcommaaccent" unicode="&#x163;" horiz-adv-x="741" 
d="M686 139l25 -80q-107 -86 -250 -86h-19v-110q88 -1 132 -36.5t44 -94.5q0 -73 -60 -120.5t-163 -47.5q-118 0 -192 55l18 74q89 -29 133 -29q52 0 83.5 20t31.5 58q0 31 -28 45t-117 29l26 174q-70 21 -110.5 77.5t-40.5 147.5v700l-144 11v82l146 32l104 254l62 -4v-266
h305v-109h-305v-675q0 -79 31.5 -111.5t105.5 -32.5q77 0 182 43z" />
    <glyph glyph-name="Tcaron" unicode="&#x164;" horiz-adv-x="1208" 
d="M74 1362h1061q10 -48 10 -127q0 -125 -10 -191h-119l-29 201l-291 12v-1151l185 -10v-96h-551v96l184 31v1130l-293 -12l-28 -201h-119q-11 73 -11 191q0 74 11 127zM606 1665h21l176 145h121l-293 -329h-103l-243 270l121 82z" />
    <glyph glyph-name="tcaron" unicode="&#x165;" horiz-adv-x="749" 
d="M686 139l25 -80q-107 -86 -250 -86q-115 0 -188.5 59t-73.5 183v700l-144 11v82l146 32l104 254l62 -4v-266h305v-109h-305v-675q0 -79 31.5 -111.5t105.5 -32.5q77 0 182 43zM629 1542q60 0 108 -29q-10 -115 -40 -203.5t-97 -179.5h-82l41 213v191q21 8 70 8z" />
    <glyph glyph-name="Tbar" unicode="&#x166;" horiz-adv-x="1208" 
d="M74 1362h1061q10 -48 10 -127q0 -125 -10 -191h-119l-29 201l-291 12v-604h299v-104h-299v-443l185 -10v-96h-551v96l184 31v422h-301v104h301v604l-293 -12l-28 -201h-119q-11 73 -11 191q0 74 11 127z" />
    <glyph glyph-name="tbar" unicode="&#x167;" horiz-adv-x="757" 
d="M696 139l25 -80q-107 -86 -250 -86q-115 0 -188.5 59t-73.5 183v389h-143v109h143v202l-143 11v82l145 32l104 254l62 -4v-266h305v-109h-305v-202h305v-109h-305v-364q0 -79 31.5 -111.5t105.5 -32.5q77 0 182 43z" />
    <glyph glyph-name="Utilde" unicode="&#x168;" horiz-adv-x="1470" 
d="M1409 1266l-164 -31v-778q0 -220 -130.5 -352t-371.5 -132q-245 0 -381.5 135.5t-136.5 362.5v784l-164 11v96h517v-96l-170 -31v-762q0 -385 350 -385t350 385v782l-193 11v96h494v-96zM1006 1755l55 -55q-44 -84 -70 -113q-55 -65 -127 -65q-43 0 -96 26l-172 84
l-109 -106l-55 55q44 84 70 113q55 65 127 65q43 0 96 -26l172 -84z" />
    <glyph glyph-name="utilde" unicode="&#x169;" horiz-adv-x="1222" 
d="M1161 113v-84q-153 -37 -270 -45l-41 8l10 147h-20q-78 -92 -156 -129t-164 -37q-146 0 -238 89t-92 257v560l-143 36v84q153 37 270 45l41 -8v-688q0 -242 213 -242q158 0 279 150v623l-143 36v84q153 37 270 45l41 -8v-886zM827 1479l56 -56q-19 -37 -32 -58.5
t-40.5 -57t-60.5 -54t-70 -18.5q-33 0 -90 29l-150 77l-110 -106l-56 55q16 31 24 45.5t30.5 47t41.5 49.5t48.5 32t60.5 15t88 -29l150 -78z" />
    <glyph glyph-name="Umacron" unicode="&#x16a;" horiz-adv-x="1470" 
d="M1409 1266l-164 -31v-778q0 -220 -130.5 -352t-371.5 -132q-245 0 -381.5 135.5t-136.5 362.5v784l-164 11v96h517v-96l-170 -31v-762q0 -385 350 -385t350 385v782l-193 11v96h494v-96zM461 1702h569q8 -31 8 -70q0 -38 -8 -69h-569q-8 31 -8 69q0 39 8 70z" />
    <glyph glyph-name="umacron" unicode="&#x16b;" horiz-adv-x="1222" 
d="M1161 113v-84q-153 -37 -270 -45l-41 8l10 147h-20q-78 -92 -156 -129t-164 -37q-146 0 -238 89t-92 257v560l-143 36v84q153 37 270 45l41 -8v-688q0 -242 213 -242q158 0 279 150v623l-143 36v84q153 37 270 45l41 -8v-886zM313 1405h529q8 -31 8 -68q0 -36 -8 -67
h-529q-8 31 -8 67q0 37 8 68z" />
    <glyph glyph-name="Ubreve" unicode="&#x16c;" horiz-adv-x="1470" 
d="M1409 1266l-164 -31v-778q0 -220 -130.5 -352t-371.5 -132q-245 0 -381.5 135.5t-136.5 362.5v784l-164 11v96h517v-96l-170 -31v-762q0 -385 350 -385t350 385v782l-193 11v96h494v-96zM455 1733l120 45q26 -88 74.5 -128t126.5 -40q81 0 129 42.5t80 125.5l68 -29
q-25 -130 -105.5 -199t-206.5 -69q-130 0 -201 66.5t-85 185.5z" />
    <glyph glyph-name="ubreve" unicode="&#x16d;" horiz-adv-x="1222" 
d="M1161 113v-84q-153 -37 -270 -45l-41 8l10 147h-20q-78 -92 -156 -129t-164 -37q-146 0 -238 89t-92 257v560l-143 36v84q153 37 270 45l41 -8v-688q0 -242 213 -242q158 0 279 150v623l-143 36v84q153 37 270 45l41 -8v-886zM297 1493l121 45q17 -107 61.5 -158
t120.5 -51q80 0 124 52t67 157l67 -29q-17 -152 -93 -230.5t-200 -78.5q-126 0 -194 76.5t-74 216.5z" />
    <glyph glyph-name="Uring" unicode="&#x16e;" horiz-adv-x="1470" 
d="M1409 1266l-164 -31v-778q0 -220 -130.5 -352t-371.5 -132q-245 0 -381.5 135.5t-136.5 362.5v784l-164 11v96h517v-96l-170 -31v-762q0 -385 350 -385t350 385v782l-193 11v96h494v-96zM756 1829q102 0 156.5 -46t54.5 -128q0 -91 -63 -139t-167 -48q-101 0 -157 45.5
t-56 128.5q0 90 64.5 138.5t167.5 48.5zM748 1743q-40 0 -63 -24.5t-23 -69.5q0 -44 23 -69.5t63 -25.5q39 0 61 25t22 70q0 46 -21.5 70t-61.5 24z" />
    <glyph glyph-name="uring" unicode="&#x16f;" horiz-adv-x="1222" 
d="M1161 113v-84q-153 -37 -270 -45l-41 8l10 147h-20q-78 -92 -156 -129t-164 -37q-146 0 -238 89t-92 257v560l-143 36v84q153 37 270 45l41 -8v-688q0 -242 213 -242q158 0 279 150v623l-143 36v84q153 37 270 45l41 -8v-886zM588 1577q100 0 155.5 -47.5t55.5 -136.5
q0 -97 -64 -147t-166 -50q-100 0 -156.5 47.5t-56.5 136.5q0 97 65.5 147t166.5 50zM580 1491q-86 0 -86 -105q0 -51 22.5 -77.5t61.5 -26.5q41 0 63.5 28t22.5 79q0 102 -84 102z" />
    <glyph glyph-name="Uhungarumlaut" unicode="&#x170;" horiz-adv-x="1470" 
d="M1409 1266l-164 -31v-778q0 -220 -130.5 -352t-371.5 -132q-245 0 -381.5 135.5t-136.5 362.5v784l-164 11v96h517v-96l-170 -31v-762q0 -385 350 -385t350 385v782l-193 11v96h494v-96zM641 1808h51q78 -18 127 -79l-170 -248h-86zM971 1808h51q78 -18 127 -79
l-170 -248h-86z" />
    <glyph glyph-name="uhungarumlaut" unicode="&#x171;" horiz-adv-x="1222" 
d="M1161 113v-84q-153 -37 -270 -45l-41 8l10 147h-20q-78 -92 -156 -129t-164 -37q-146 0 -238 89t-92 257v560l-143 36v84q153 37 270 45l41 -8v-688q0 -242 213 -242q158 0 279 150v623l-143 36v84q153 37 270 45l41 -8v-886zM446 1571h52q83 -14 143 -80l-203 -317h-86z
M776 1571h51q84 -14 144 -80l-203 -317h-86z" />
    <glyph glyph-name="Uogonek" unicode="&#x172;" horiz-adv-x="1470" 
d="M1409 1266l-164 -31v-778q0 -83 -14 -148t-41 -112t-56 -78.5t-71 -63.5q-12 -10 -45.5 -34.5t-53 -40t-48 -42.5t-45 -49.5t-28.5 -53t-12 -60.5q0 -55 35.5 -83t94.5 -28q54 0 116 23l19 -74q-66 -49 -176 -49q-116 0 -175 48.5t-59 129.5q0 70 37.5 128.5t93.5 96.5
l-6 17q-46 -11 -96 -11q-221 0 -355.5 137.5t-134.5 360.5v784l-164 11v96h517v-96l-170 -31v-762q0 -199 89.5 -292t264.5 -93q174 0 260 93t86 292v782l-193 11v96h494v-96z" />
    <glyph glyph-name="uogonek" unicode="&#x173;" horiz-adv-x="1222" 
d="M1161 113v-84q-38 -11 -72 -26t-70 -37.5t-62.5 -48.5t-43 -62t-16.5 -76q0 -115 129 -115q55 0 117 23l18 -74q-66 -49 -178 -49q-115 0 -173 49.5t-58 136.5q0 72 37.5 131.5t95.5 95.5l-25 162h-20q-78 -92 -156 -129t-164 -37q-146 0 -238 89t-92 257v560l-143 36v84
q153 37 270 45l41 -8v-688q0 -242 213 -242q158 0 279 150v623l-143 36v84q153 37 270 45l41 -8v-886z" />
    <glyph glyph-name="Wcircumflex" unicode="&#x174;" horiz-adv-x="2103" 
d="M2056 1266l-117 -29q-228 -741 -403 -1237l-137 -27h-21q-239 687 -301 883h-20q-164 -502 -301 -856l-140 -27h-20q-242 673 -432 1284l-117 9v96h502v-96l-180 -31q154 -561 319 -1055h21q186 534 297 883l-60 192l-117 11v96h506v-96l-194 -31q15 -50 62.5 -212.5
t74 -252t66.5 -219.5t70.5 -220.5t53.5 -150.5h21q171 541 311 1075l-184 11v96h440v-96zM1413 1540l-121 -82l-200 168h-21l-176 -145h-121l293 329h102z" />
    <glyph glyph-name="wcircumflex" unicode="&#x175;" horiz-adv-x="1767" 
d="M1718 932l-125 -29q-100 -347 -295 -903l-116 -27h-21q-143 426 -248 809h-18q-210 -639 -262 -782l-117 -27h-20q-193 525 -316 949l-131 10v92h426v-92l-104 -31q64 -265 204 -700h21q179 519 264 823l119 27h22q128 -499 240 -850h21q151 489 204 721l-157 10v92h409
v-92zM1221 1233l-121 -72l-182 217h-21l-158 -204h-108l262 389h102z" />
    <glyph glyph-name="Ycircumflex" unicode="&#x176;" horiz-adv-x="1366" 
d="M1309 1266l-117 -31q-159 -327 -406 -748v-381l185 -10v-96h-551v96l184 31v356q-206 353 -424 772l-123 11v96h502v-96l-174 -29q178 -358 328 -606h20q66 106 159 284.5t167 339.5l-191 11v96h441v-96zM1004 1540l-121 -82l-201 168h-20l-177 -145h-120l292 329h103z
" />
    <glyph glyph-name="ycircumflex" unicode="&#x177;" horiz-adv-x="1157" 
d="M1141 932l-125 -29q-135 -378 -402 -1018q-134 -321 -344 -321q-98 0 -143 61l16 107h265q79 121 124 254q-158 343 -382 936l-134 10v92h426v-92l-104 -29q116 -345 266 -702h23q175 442 262 721l-158 10v92h410v-92zM897 1233l-121 -72l-182 217h-21l-157 -204h-109
l262 389h103z" />
    <glyph glyph-name="Ydieresis" unicode="&#x178;" horiz-adv-x="1366" 
d="M1309 1266l-117 -31q-159 -327 -406 -748v-381l185 -10v-96h-551v96l184 31v356q-206 353 -424 772l-123 11v96h502v-96l-174 -29q178 -358 328 -606h20q66 106 159 284.5t167 339.5l-191 11v96h441v-96zM457 1745q37 0 61 -8q33 -41 33 -97q0 -51 -37 -106h-137l-27 195
q40 16 107 16zM926 1745q37 0 61 -8q33 -41 33 -97q0 -51 -37 -106h-137l-27 195q40 16 107 16z" />
    <glyph glyph-name="Zacute" unicode="&#x179;" horiz-adv-x="1210" 
d="M1006 332l122 -13q5 -68 5 -88q0 -126 -27 -231h-1016l-10 41l665 1014q23 36 71 101t67 93l-11 15l-606 -23l-26 -197h-121q-13 93 -13 168q0 90 11 150h1001l10 -41l-645 -983q-30 -45 -87 -124.5t-72 -100.5l10 -15l624 23zM791 1829h53q80 -34 123 -107l-291 -241
h-113z" />
    <glyph glyph-name="zacute" unicode="&#x17a;" horiz-adv-x="933" 
d="M750 311l112 -10q4 -46 4 -90q0 -113 -26 -211h-758l-14 86l438 633q9 14 139 196l-8 15l-395 -17l-27 -186h-113q-10 65 -10 162q0 87 10 135h727l15 -88l-436 -631q-24 -36 -47.5 -69t-50 -68.5t-42.5 -58.5l8 -15l422 15zM594 1571h53q36 -15 70 -45t55 -64l-276 -288
h-107z" />
    <glyph glyph-name="Zdotaccent" unicode="&#x17b;" horiz-adv-x="1210" 
d="M1006 332l122 -13q5 -68 5 -88q0 -126 -27 -231h-1016l-10 41l665 1014q23 36 71 101t67 93l-11 15l-606 -23l-26 -197h-121q-13 93 -13 168q0 90 11 150h1001l10 -41l-645 -983q-30 -45 -87 -124.5t-72 -100.5l10 -15l624 23zM606 1751q37 0 70 -10q35 -50 35 -101
q0 -56 -47 -118h-146l-22 211q41 18 110 18z" />
    <glyph glyph-name="zdotaccent" unicode="&#x17c;" horiz-adv-x="933" 
d="M750 311l112 -10q4 -46 4 -90q0 -113 -26 -211h-758l-14 86l438 633q9 14 139 196l-8 15l-395 -17l-27 -186h-113q-10 65 -10 162q0 87 10 135h727l15 -88l-436 -631q-24 -36 -47.5 -69t-50 -68.5t-42.5 -58.5l8 -15l422 15zM469 1485q37 0 59 -10q35 -50 35 -99
q0 -52 -45 -116h-143l-25 208q65 17 119 17z" />
    <glyph glyph-name="Zcaron" unicode="&#x17d;" horiz-adv-x="1210" 
d="M1006 332l122 -13q5 -68 5 -88q0 -126 -27 -231h-1016l-10 41l665 1014q23 36 71 101t67 93l-11 15l-606 -23l-26 -197h-121q-13 93 -13 168q0 90 11 150h1001l10 -41l-645 -983q-30 -45 -87 -124.5t-72 -100.5l10 -15l624 23zM604 1665h21l176 145h121l-293 -329h-103
l-243 270l120 82z" />
    <glyph glyph-name="zcaron" unicode="&#x17e;" horiz-adv-x="933" 
d="M750 311l112 -10q4 -46 4 -90q0 -113 -26 -211h-758l-14 86l438 633q9 14 139 196l-8 15l-395 -17l-27 -186h-113q-10 65 -10 162q0 87 10 135h727l15 -88l-436 -631q-24 -36 -47.5 -69t-50 -68.5t-42.5 -58.5l8 -15l422 15zM465 1360h20l158 205h109l-263 -389h-102
l-225 329l121 72z" />
    <glyph glyph-name="longs" unicode="&#x17f;" horiz-adv-x="606" 
d="M575 1542q110 0 186.5 -44t76.5 -120q0 -56 -43 -96h-125l-23 154q-28 4 -49 4q-209 0 -209 -279v-1059l174 -10v-92h-485v92l143 31v792l-143 11v82l143 32v90q0 111 28.5 193t79 128.5t112 68.5t134.5 22z" />
    <glyph glyph-name="uni018F" unicode="&#x18f;" horiz-adv-x="1267" 
d="M573 1389q116 0 213.5 -36t166.5 -100t117.5 -152t71.5 -191t23 -218q0 -210 -75 -373t-214.5 -254.5t-322.5 -91.5q-113 0 -200.5 36.5t-141.5 102.5t-81.5 154t-27.5 195q0 97 19 205h842v6q0 288 -117 435.5t-316 147.5q-189 0 -362 -139l-45 70q71 91 185.5 147
t264.5 56zM573 106q161 0 263 118t122 343l-653 -18v-43q0 -202 61 -301t207 -99z" />
    <glyph glyph-name="florin" unicode="&#x192;" horiz-adv-x="1153" 
d="M907 1245q95 0 160.5 -43.5t65.5 -111.5q0 -55 -58 -101h-110l-23 166h-27q-88 0 -140.5 -69.5t-72.5 -223.5l-14 -108h273v-103h-285l-51 -409q-14 -112 -53 -195.5t-94 -129t-113.5 -66.5t-122.5 -21q-93 0 -157.5 41.5t-64.5 108.5q0 60 58 106h115l22 -166h23
q82 0 137.5 65t75.5 226l55 440h-201v103h213l10 77q13 108 50.5 190t90.5 129.5t112.5 71t125.5 23.5z" />
    <glyph glyph-name="uni01E2" unicode="&#x1e2;" horiz-adv-x="1884" 
d="M1647 311l118 -12q4 -54 4 -86q0 -83 -26 -213h-979v96l164 31v276h-486q-72 -148 -143 -297l143 -10v-96h-415v96l133 29q116 237 290.5 569.5t305.5 565.5l-135 6v96h1122q10 -48 10 -133q0 -86 -10 -164h-119l-25 174l-489 16v-497h264l23 127h92v-379h-92l-27 143
h-260v-545l487 17zM928 510v745h-45q-146 -261 -389 -745h434zM844 1698h528q8 -31 8 -68q0 -36 -8 -67h-528q-8 31 -8 67q0 37 8 68z" />
    <glyph glyph-name="uni01E3" unicode="&#x1e3;" horiz-adv-x="1597" 
d="M1454 227l43 -65q-145 -189 -387 -189q-259 0 -358 213h-21q-30 -43 -60.5 -76t-74.5 -66.5t-102.5 -52t-126.5 -18.5q-135 0 -205 70.5t-70 185.5q0 62 21.5 111.5t54 83t85.5 58.5t100 39t115.5 24t114.5 13.5t113 6.5l4 133q4 126 -63 188t-174 62q-47 0 -105 -14
l-32 -232h-123q-58 37 -58 107q0 101 114.5 171.5t260.5 70.5q116 0 185.5 -48t93.5 -133h20q40 79 120.5 130t203.5 51q172 0 260 -103t88 -270q0 -72 -16 -154l-625 -20q6 -190 90 -291.5t217 -101.5q142 0 297 116zM1126 948q-109 0 -185.5 -95t-88.5 -267l471 41
q-3 321 -197 321zM424 96q92 0 162.5 52t132.5 137q-22 85 -25 198q-231 -22 -325.5 -76t-94.5 -163q0 -148 150 -148zM537 1405h528q8 -31 8 -68q0 -36 -8 -67h-528q-9 35 -9 67q0 33 9 68z" />
    <glyph glyph-name="Aringacute" unicode="&#x1fa;" horiz-adv-x="1384" 
d="M737 1665h-106l194 303h54q75 -44 112 -96zM1358 96v-96h-481v96l149 29q-36 110 -94 278h-543q-53 -159 -94 -297l147 -10v-96h-415v96l129 29q195 580 405 1120q-112 38 -112 160q0 90 64 138t167 48q102 0 156.5 -46t54.5 -128q0 -113 -98 -160q144 -353 434 -1151z
M672 1505q-40 0 -63 -24.5t-23 -69.5q0 -44 23 -69t63 -25t62 25t22 69q0 45 -22 69.5t-62 24.5zM424 510h471q-124 360 -229 631h-21q-73 -188 -221 -631z" />
    <glyph glyph-name="aringacute" unicode="&#x1fb;" horiz-adv-x="1060" 
d="M1012 109v-80q-85 -45 -168 -45q-69 0 -101 31.5t-32 95.5v28h-21q-70 -81 -142 -123.5t-175 -42.5q-135 0 -208 71.5t-73 184.5q0 72 31.5 127t79.5 87t114.5 52.5t126.5 27.5t125 7q75 0 133 -8l3 197q1 120 -61 174.5t-171 54.5q-61 0 -115 -12l-32 -234h-123
q-58 43 -58 107q0 69 59 126t145.5 86.5t176.5 29.5q151 0 249 -85.5t97 -236.5l-6 -610zM422 96q154 0 276 158l4 195h-38q-207 0 -297.5 -48.5t-90.5 -158.5q0 -146 146 -146zM643 1862h53q75 -44 113 -97l-234 -186h-106zM539 1505q100 0 155.5 -47.5t55.5 -136.5
q0 -97 -64 -147t-166 -50q-100 0 -156.5 48t-56.5 137q0 96 65 146t167 50zM530 1419q-86 0 -86 -104q0 -51 22.5 -78t61.5 -27q41 0 63.5 28t22.5 79q0 102 -84 102z" />
    <glyph glyph-name="AEacute" unicode="&#x1fc;" horiz-adv-x="1884" 
d="M1647 311l118 -12q4 -54 4 -86q0 -83 -26 -213h-979v96l164 31v276h-486q-72 -148 -143 -297l143 -10v-96h-415v96l133 29q116 237 290.5 569.5t305.5 565.5l-135 6v96h1122q10 -48 10 -133q0 -86 -10 -164h-119l-25 174l-489 16v-497h264l23 127h92v-379h-92l-27 143
h-260v-545l487 17zM928 510v745h-45q-146 -261 -389 -745h434zM1296 1829h54q80 -34 123 -107l-291 -241h-113z" />
    <glyph glyph-name="aeacute" unicode="&#x1fd;" horiz-adv-x="1597" 
d="M1454 227l43 -65q-145 -189 -387 -189q-259 0 -358 213h-21q-30 -43 -60.5 -76t-74.5 -66.5t-102.5 -52t-126.5 -18.5q-135 0 -205 70.5t-70 185.5q0 62 21.5 111.5t54 83t85.5 58.5t100 39t115.5 24t114.5 13.5t113 6.5l4 133q4 126 -63 188t-174 62q-47 0 -105 -14
l-32 -232h-123q-58 37 -58 107q0 101 114.5 171.5t260.5 70.5q116 0 185.5 -48t93.5 -133h20q40 79 120.5 130t203.5 51q172 0 260 -103t88 -270q0 -72 -16 -154l-625 -20q6 -190 90 -291.5t217 -101.5q142 0 297 116zM1126 948q-109 0 -185.5 -95t-88.5 -267l471 41
q-3 321 -197 321zM424 96q92 0 162.5 52t132.5 137q-22 85 -25 198q-231 -22 -325.5 -76t-94.5 -163q0 -148 150 -148zM938 1571h53q36 -15 70 -45t55 -64l-276 -288h-107z" />
    <glyph glyph-name="Oslashacute" unicode="&#x1fe;" horiz-adv-x="1490" 
d="M1368 1448l-160 -236q88 -93 134.5 -226t46.5 -288q0 -209 -79.5 -373t-230.5 -258t-350 -94q-193 0 -338 90l-145 -210l-92 38l-11 23l154 225q-95 95 -145 233.5t-50 299.5q0 207 78.5 369t230 255t353.5 93q205 0 350 -99l152 219l92 -39zM758 1274
q-216 0 -334.5 -151t-118.5 -455q0 -259 88 -404l635 920q-103 90 -270 90zM733 88q216 0 334.5 154t118.5 458q0 246 -80 385l-631 -915q101 -82 258 -82zM946 1829h53q80 -34 123 -107l-291 -241h-112z" />
    <glyph glyph-name="oslashacute" unicode="&#x1ff;" horiz-adv-x="1138" 
d="M1014 1145l-121 -205q78 -72 118 -180t40 -234q0 -158 -60 -283t-174.5 -197.5t-265.5 -72.5q-119 0 -217 50l-109 -185l-90 39l-12 21l115 194q-74 72 -112 178t-38 230q0 158 60 283t174 196.5t264 71.5q117 0 209 -45l116 198l90 -39zM578 948q-155 0 -227 -109
t-72 -339q0 -180 45 -279l403 690q-58 37 -149 37zM561 76q153 0 226 109.5t73 340.5q0 192 -51 291l-408 -696q60 -45 160 -45zM707 1571h53q36 -15 70 -45t55 -64l-277 -288h-106z" />
    <glyph glyph-name="Scommaaccent" unicode="&#x218;" horiz-adv-x="1099" 
d="M485 827l166 -75q66 -30 112 -55t94 -61.5t76.5 -76t47 -94t18.5 -119.5q0 -96 -37 -169t-103.5 -117t-152 -65.5t-188.5 -21.5q-197 0 -383 82q-22 107 -22 185q0 36 6 79l106 13l58 -201q99 -47 237 -47q146 0 218.5 52t72.5 167q0 102 -55.5 159t-177.5 113l-175 80
q-57 25 -100 54t-82.5 71t-60.5 101t-21 131q0 173 119 275t320 102q179 0 352 -82q12 -58 12 -109q0 -60 -12 -154h-121l-27 191q-97 43 -209 43q-132 0 -200 -59t-68 -172q0 -84 41 -130t139 -90zM512 -109q45 0 76 -16q37 -61 37 -125q0 -83 -48 -151.5t-133 -98.5
l-32 51q48 35 75 68.5t27 73.5q0 19 -2 31l-84 14l-2 139q44 14 86 14z" />
    <glyph glyph-name="scommaaccent" unicode="&#x219;" horiz-adv-x="919" 
d="M434 625l111 -43q69 -27 113.5 -50.5t86.5 -59.5t62 -85t20 -113q0 -153 -109 -227t-288 -74q-169 0 -328 70q-10 48 -10 117q0 77 10 141h123l27 -190q71 -35 174 -35q110 0 167.5 41t57.5 119q0 68 -42.5 107.5t-137.5 78.5l-102 41q-57 23 -96 45.5t-75.5 56t-54.5 80
t-18 107.5q0 140 98 219.5t269 79.5q143 0 286 -66q10 -48 10 -117q0 -80 -10 -141h-112l-25 184q-78 37 -158 37q-98 0 -151 -42.5t-53 -119.5q0 -62 34.5 -93.5t120.5 -67.5zM442 -109q45 0 76 -16q37 -61 37 -125q0 -84 -47.5 -152t-132.5 -98l-33 51q48 35 75 68.5
t27 73.5q0 19 -2 31l-84 14l-2 139q44 14 86 14z" />
    <glyph glyph-name="uni021A" unicode="&#x21a;" horiz-adv-x="1208" 
d="M74 1362h1061q10 -48 10 -127q0 -125 -10 -191h-119l-29 201l-291 12v-1151l185 -10v-96h-551v96l184 31v1130l-293 -12l-28 -201h-119q-11 73 -11 191q0 74 11 127zM594 -109q45 0 76 -16q37 -61 37 -125q0 -83 -48 -151.5t-133 -98.5l-32 51q48 35 75 68.5t27 73.5
q0 19 -2 31l-84 14l-2 139q44 14 86 14z" />
    <glyph glyph-name="uni021B" unicode="&#x21b;" horiz-adv-x="741" 
d="M686 139l25 -80q-107 -86 -250 -86q-115 0 -188.5 59t-73.5 183v700l-144 11v82l146 32l104 254l62 -4v-266h305v-109h-305v-675q0 -79 31.5 -111.5t105.5 -32.5q77 0 182 43zM385 -109q45 0 76 -16q37 -61 37 -125q0 -83 -48 -151.5t-133 -98.5l-32 51q48 35 75 68.5
t27 73.5q0 19 -2 31l-84 14l-2 139q44 14 86 14z" />
    <glyph glyph-name="uni0232" unicode="&#x232;" horiz-adv-x="1366" 
d="M1309 1266l-117 -31q-159 -327 -406 -748v-381l185 -10v-96h-551v96l184 31v356q-206 353 -424 772l-123 11v96h502v-96l-174 -29q178 -358 328 -606h20q66 106 159 284.5t167 339.5l-191 11v96h441v-96zM420 1698h528q8 -31 8 -68q0 -36 -8 -67h-528q-8 31 -8 67
q0 37 8 68z" />
    <glyph glyph-name="uni0233" unicode="&#x233;" horiz-adv-x="1157" 
d="M1141 932l-125 -29q-135 -378 -402 -1018q-134 -321 -344 -321q-98 0 -143 61l16 107h265q79 121 124 254q-158 343 -382 936l-134 10v92h426v-92l-104 -29q116 -345 266 -702h23q175 442 262 721l-158 10v92h410v-92zM338 1405h528q8 -31 8 -68q0 -36 -8 -67h-528
q-8 31 -8 67q0 37 8 68z" />
    <glyph glyph-name="uni0237" unicode="&#x237;" horiz-adv-x="557" 
d="M373 1036v-1054q0 -158 -51.5 -248t-186.5 -170l-59 63l129 191v1061l-144 36v84q152 37 271 45z" />
    <glyph glyph-name="uni0259" unicode="&#x259;" horiz-adv-x="1042" 
d="M508 1051q112 0 199.5 -42.5t140 -116t79.5 -165.5t27 -197q0 -248 -135 -402.5t-354 -154.5q-176 0 -266 102.5t-90 270.5q0 72 16 154h645q0 197 -81 301t-218 104q-74 0 -149 -29t-136 -79l-45 69q130 185 367 185zM485 76q110 0 186.5 87t94.5 249l-483 -19
q0 -317 202 -317z" />
    <glyph glyph-name="uni02BB" unicode="&#x2bb;" horiz-adv-x="503" 
d="M362 1518l23 -60q-54 -29 -89.5 -87.5t-35.5 -113.5q0 -20 4 -36l92 -17l4 -168q-47 -12 -92 -12q-57 0 -92 18q-43 73 -43 152q0 110 60 201t169 123z" />
    <glyph glyph-name="afii57929" unicode="&#x2bc;" horiz-adv-x="503" 
d="M236 1501q57 0 92 -18q13 -23 20 -37t15 -47t8 -72q0 -117 -60.5 -202t-169.5 -117l-22 59q54 28 89.5 81t35.5 118q0 23 -4 39l-93 16l-4 168q47 12 93 12z" />
    <glyph glyph-name="circumflex" unicode="&#x2c6;" horiz-adv-x="712" 
d="M651 1233l-121 -72l-182 217h-20l-158 -204h-109l263 389h102z" />
    <glyph glyph-name="caron" unicode="&#x2c7;" horiz-adv-x="712" 
d="M365 1360h20l158 205h108l-262 -389h-102l-226 329l121 72z" />
    <glyph glyph-name="breve" unicode="&#x2d8;" horiz-adv-x="684" 
d="M61 1493l121 45q17 -107 61.5 -158t121.5 -51q80 0 123.5 52t66.5 157l68 -29q-17 -152 -93 -230.5t-200 -78.5q-126 0 -194.5 76.5t-74.5 216.5z" />
    <glyph glyph-name="dotaccent" unicode="&#x2d9;" horiz-adv-x="335" 
d="M180 1485q38 0 60 -10q34 -49 34 -99q0 -52 -45 -116h-143l-25 208q65 17 119 17z" />
    <glyph glyph-name="ring" unicode="&#x2da;" horiz-adv-x="565" 
d="M293 1577q100 0 155.5 -47.5t55.5 -136.5q0 -97 -64 -147t-166 -50q-100 0 -156.5 47.5t-56.5 136.5q0 97 65.5 147t166.5 50zM285 1491q-86 0 -86 -105q0 -51 22.5 -77.5t61.5 -26.5q41 0 63.5 28t22.5 79q0 102 -84 102z" />
    <glyph glyph-name="ogonek" unicode="&#x2db;" horiz-adv-x="532" 
d="M287 43l65 -12q-74 -71 -109.5 -136.5t-35.5 -115.5q0 -52 36 -83.5t95 -31.5q53 0 115 23l18 -74q-66 -49 -174 -49q-115 0 -175.5 52t-60.5 134q0 159 226 293z" />
    <glyph glyph-name="tilde" unicode="&#x2dc;" horiz-adv-x="731" 
d="M614 1479l56 -56q-19 -37 -32 -58.5t-40.5 -57t-60.5 -54t-70 -18.5q-33 0 -90 29l-150 77l-110 -106l-56 55q16 31 24 45.5t30.5 47t41.5 49.5t48.5 32t60.5 15t88 -29l150 -78z" />
    <glyph glyph-name="hungarumlaut" unicode="&#x2dd;" horiz-adv-x="741" 
d="M156 1571h51q83 -14 143 -80l-203 -317h-86zM485 1571h52q83 -14 143 -80l-203 -317h-86z" />
    <glyph glyph-name="gravecomb" unicode="&#x300;" horiz-adv-x="0" 
d="M-164 1174h-106l-285 288q50 78 133 109h53z" />
    <glyph glyph-name="acutecomb" unicode="&#x301;" horiz-adv-x="0" 
d="M-350 1571h53q36 -15 70 -45t55 -64l-277 -288h-106z" />
    <glyph glyph-name="uni0302" unicode="&#x302;" horiz-adv-x="0" 
d="M-68 1233l-120 -72l-183 217h-20l-158 -204h-108l262 389h102z" />
    <glyph glyph-name="tildecomb" unicode="&#x303;" horiz-adv-x="0" 
d="M-84 1479l55 -56l-24 -45t-30 -47t-41 -49t-48 -32t-59 -15q-34 0 -91 29l-149 77l-111 -106l-55 55q16 31 24 45.5t30.5 47t41.5 49.5t48.5 32t60.5 15t88 -29l149 -78z" />
    <glyph glyph-name="uni0304" unicode="&#x304;" horiz-adv-x="0" 
d="M-649 1405h528q8 -31 8 -68q0 -36 -8 -67h-528q-8 31 -8 67q0 37 8 68z" />
    <glyph glyph-name="uni0306" unicode="&#x306;" horiz-adv-x="0" 
d="M-657 1493l120 45q17 -107 61.5 -158t121.5 -51q80 0 123.5 52t66.5 157l68 -29q-17 -152 -93 -230.5t-200 -78.5q-126 0 -194 76.5t-74 216.5z" />
    <glyph glyph-name="uni0307" unicode="&#x307;" horiz-adv-x="0" 
d="M-436 1485q36 0 59 -10q35 -50 35 -99q0 -52 -45 -116h-143l-25 208q65 17 119 17z" />
    <glyph glyph-name="uni0308" unicode="&#x308;" horiz-adv-x="2" 
d="M-645 1462q40 0 59 -8q33 -54 33 -92q0 -49 -39 -107h-133l-25 191q40 16 105 16zM-242 1462q41 0 60 -8q32 -53 32 -92q0 -51 -38 -107h-134l-24 191q40 16 104 16z" />
    <glyph glyph-name="uni030A" unicode="&#x30a;" horiz-adv-x="0" 
d="M-324 1577q100 0 155.5 -47.5t55.5 -136.5q0 -97 -63.5 -147t-165.5 -50q-100 0 -156.5 47.5t-56.5 136.5q0 97 65 147t166 50zM-332 1491q-86 0 -86 -105q0 -51 22.5 -77.5t61.5 -26.5q41 0 63.5 28t22.5 79q0 102 -84 102z" />
    <glyph glyph-name="uni030B" unicode="&#x30b;" horiz-adv-x="0" 
d="M-584 1571h52q83 -14 143 -80l-203 -317h-86zM-254 1571h51q84 -14 144 -80l-203 -317h-86z" />
    <glyph glyph-name="uni030C" unicode="&#x30c;" horiz-adv-x="0" 
d="M-395 1360h20l158 205h108l-262 -389h-102l-225 329l120 72z" />
    <glyph glyph-name="uni0312" unicode="&#x312;" horiz-adv-x="2" 
d="M-330 1575l33 -51q-37 -27 -55.5 -42.5t-36 -41.5t-17.5 -54q0 -12 3 -30l84 -15l2 -139q-44 -14 -86 -14q-45 0 -76 16q-37 61 -37 125q0 84 49 150t137 96z" />
    <glyph glyph-name="uni0326" unicode="&#x326;" horiz-adv-x="0" 
d="M-188 -109q44 0 75 -16q37 -61 37 -125q0 -84 -47.5 -152t-132.5 -98l-33 51q48 36 75.5 69t27.5 73q0 19 -2 31l-84 14l-2 139q44 14 86 14z" />
    <glyph glyph-name="uni0327" unicode="&#x327;" horiz-adv-x="0" 
d="M-274 12v-149q88 -1 132 -36.5t44 -94.5q0 -73 -60.5 -120.5t-163.5 -47.5q-118 0 -192 55l18 74q89 -29 134 -29q52 0 83 20t31 58q0 31 -28 45t-117 29l31 196h88z" />
    <glyph glyph-name="uni0328" unicode="&#x328;" horiz-adv-x="2" 
d="M287 43l65 -12q-74 -71 -109.5 -136.5t-35.5 -115.5q0 -52 36 -83.5t95 -31.5q53 0 115 23l18 -74q-66 -49 -174 -49q-115 0 -175.5 52t-60.5 134q0 159 226 293z" />
    <glyph glyph-name="uni0394" unicode="&#x394;" horiz-adv-x="1189" 
d="M1159 20l-12 -20h-1104l-12 20l495 1342l113 27h20zM227 141h713l-354 992z" />
    <glyph glyph-name="uni03A9" unicode="&#x3a9;" horiz-adv-x="1445" 
d="M1288 311l113 -12q4 -54 4 -94q0 -102 -14 -205h-535v301q287 142 287 490q0 229 -111.5 356t-308.5 127t-308.5 -127t-111.5 -356q0 -348 287 -490v-301h-535q-14 103 -14 205q0 40 4 94l113 12l28 -137l301 -18v106q-78 21 -146 65t-122.5 109t-86.5 157t-32 200
q0 121 41 228t118.5 189.5t200 130.5t273.5 48t270.5 -48t193 -130t111.5 -187t38 -225q0 -201 -102.5 -342t-285.5 -195v-106l302 18z" />
    <glyph glyph-name="uni03BC" unicode="&#x3bc;" horiz-adv-x="1216" 
d="M1155 113v-84q-153 -37 -270 -45l-41 8l10 147h-20q-138 -166 -310 -166q-122 0 -196 95l-19 -9l29 -479q-55 -16 -150 -16l-34 33l30 514v903q73 20 127 30l41 -6v-690q0 -242 213 -242q158 0 279 150v758q73 20 127 30l41 -6v-888z" />
    <glyph glyph-name="pi" unicode="&#x3c0;" horiz-adv-x="1251" 
d="M1024 119l145 -10v-80q-85 -45 -168 -45q-155 0 -155 178q0 208 20 700h-456v-856q-54 -13 -148 -20l-41 14l31 506v354q-107 -6 -217 -76l-35 54q53 103 128.5 144.5t229.5 41.5h801l15 -20l-21 -142h-129v-743z" />
    <glyph glyph-name="Wgrave" unicode="&#x1e80;" horiz-adv-x="2103" 
d="M2056 1266l-117 -29q-228 -741 -403 -1237l-137 -27h-21q-239 687 -301 883h-20q-164 -502 -301 -856l-140 -27h-20q-242 673 -432 1284l-117 9v96h502v-96l-180 -31q154 -561 319 -1055h21q186 534 297 883l-60 192l-117 11v96h506v-96l-194 -31q15 -50 62.5 -212.5
t74 -252t66.5 -219.5t70.5 -220.5t53.5 -150.5h21q171 541 311 1075l-184 11v96h440v-96zM1208 1481h-112l-291 241q45 72 123 107h53z" />
    <glyph glyph-name="wgrave" unicode="&#x1e81;" horiz-adv-x="1767" 
d="M1718 932l-125 -29q-100 -347 -295 -903l-116 -27h-21q-143 426 -248 809h-18q-210 -639 -262 -782l-117 -27h-20q-193 525 -316 949l-131 10v92h426v-92l-104 -31q64 -265 204 -700h21q179 519 264 823l119 27h22q128 -499 240 -850h21q151 489 204 721l-157 10v92h409
v-92zM1012 1174h-107l-284 288q50 78 133 109h53z" />
    <glyph glyph-name="Wacute" unicode="&#x1e82;" horiz-adv-x="2103" 
d="M2056 1266l-117 -29q-228 -741 -403 -1237l-137 -27h-21q-239 687 -301 883h-20q-164 -502 -301 -856l-140 -27h-20q-242 673 -432 1284l-117 9v96h502v-96l-180 -31q154 -561 319 -1055h21q186 534 297 883l-60 192l-117 11v96h506v-96l-194 -31q15 -50 62.5 -212.5
t74 -252t66.5 -219.5t70.5 -220.5t53.5 -150.5h21q171 541 311 1075l-184 11v96h440v-96zM1282 1829h53q80 -34 123 -107l-291 -241h-112z" />
    <glyph glyph-name="wacute" unicode="&#x1e83;" horiz-adv-x="1767" 
d="M1718 932l-125 -29q-100 -347 -295 -903l-116 -27h-21q-143 426 -248 809h-18q-210 -639 -262 -782l-117 -27h-20q-193 525 -316 949l-131 10v92h426v-92l-104 -31q64 -265 204 -700h21q179 519 264 823l119 27h22q128 -499 240 -850h21q151 489 204 721l-157 10v92h409
v-92zM1063 1571h53q36 -15 70 -45t55 -64l-276 -288h-107z" />
    <glyph glyph-name="Wdieresis" unicode="&#x1e84;" horiz-adv-x="2103" 
d="M2056 1266l-117 -29q-228 -741 -403 -1237l-137 -27h-21q-239 687 -301 883h-20q-164 -502 -301 -856l-140 -27h-20q-242 673 -432 1284l-117 9v96h502v-96l-180 -31q154 -561 319 -1055h21q186 534 297 883l-60 192l-117 11v96h506v-96l-194 -31q15 -50 62.5 -212.5
t74 -252t66.5 -219.5t70.5 -220.5t53.5 -150.5h21q171 541 311 1075l-184 11v96h440v-96zM866 1745q38 0 62 -8q33 -41 33 -97q0 -51 -37 -106h-138l-26 195q40 16 106 16zM1335 1745q38 0 62 -8q33 -41 33 -97q0 -51 -37 -106h-138l-26 195q40 16 106 16z" />
    <glyph glyph-name="wdieresis" unicode="&#x1e85;" horiz-adv-x="1767" 
d="M1718 932l-125 -29q-100 -347 -295 -903l-116 -27h-21q-143 426 -248 809h-18q-210 -639 -262 -782l-117 -27h-20q-193 525 -316 949l-131 10v92h426v-92l-104 -31q64 -265 204 -700h21q179 519 264 823l119 27h22q128 -499 240 -850h21q151 489 204 721l-157 10v92h409
v-92zM731 1462q41 0 60 -8q32 -53 32 -92q0 -49 -39 -107h-133l-24 191q40 16 104 16zM1135 1462q40 0 59 -8q33 -54 33 -92q0 -49 -39 -107h-133l-25 191q40 16 105 16z" />
    <glyph glyph-name="uni1E9E" unicode="&#x1e9e;" horiz-adv-x="1484" 
d="M805 1389q110 0 232 -18t212 -50v-111q-114 -73 -171.5 -141.5t-57.5 -150.5q0 -59 33.5 -110.5t120.5 -129.5q48 -44 72 -66.5t57.5 -61t48.5 -69t27 -73t12 -89.5q0 -160 -112 -253t-294 -93q-152 0 -295 82q-10 49 -10 121q0 82 12 162h121l31 -227q70 -27 139 -27
q117 0 168 59.5t51 149.5q0 40 -8.5 70.5t-35 64.5t-50.5 57.5t-80 73.5q-88 79 -131 146t-43 157q0 106 64 199.5t188 159.5v18q-119 35 -277 35q-217 0 -319 -92t-102 -312v-870h-347v96l164 31v741q0 111 27 198t76.5 147.5t122 100t160.5 57.5t194 18z" />
    <glyph glyph-name="Ygrave" unicode="&#x1ef2;" horiz-adv-x="1366" 
d="M1309 1266l-117 -31q-159 -327 -406 -748v-381l185 -10v-96h-551v96l184 31v356q-206 353 -424 772l-123 11v96h502v-96l-174 -29q178 -358 328 -606h20q66 106 159 284.5t167 339.5l-191 11v96h441v-96zM799 1481h-113l-291 241q45 72 123 107h53z" />
    <glyph glyph-name="ygrave" unicode="&#x1ef3;" horiz-adv-x="1157" 
d="M1141 932l-125 -29q-135 -378 -402 -1018q-134 -321 -344 -321q-98 0 -143 61l16 107h265q79 121 124 254q-158 343 -382 936l-134 10v92h426v-92l-104 -29q116 -345 266 -702h23q175 442 262 721l-158 10v92h410v-92zM688 1174h-106l-285 288q50 78 133 109h53z" />
    <glyph glyph-name="uni2007" unicode="&#x2007;" horiz-adv-x="1212" 
 />
    <glyph glyph-name="uni2008" unicode="&#x2008;" horiz-adv-x="505" 
 />
    <glyph glyph-name="uni2009" unicode="&#x2009;" horiz-adv-x="358" 
 />
    <glyph glyph-name="uni200B" unicode="&#x200b;" horiz-adv-x="0" 
 />
    <glyph glyph-name="endash" unicode="&#x2013;" horiz-adv-x="1024" 
d="M905 539h-786v123h786v-123z" />
    <glyph glyph-name="emdash" unicode="&#x2014;" horiz-adv-x="2048" 
d="M1870 539h-1692v123h1692v-123z" />
    <glyph glyph-name="quoteleft" unicode="&#x2018;" horiz-adv-x="503" 
d="M362 1518l23 -60q-54 -29 -89.5 -87.5t-35.5 -113.5q0 -20 4 -36l92 -17l4 -168q-47 -12 -92 -12q-57 0 -92 18q-43 73 -43 152q0 110 60 201t169 123z" />
    <glyph glyph-name="quoteright" unicode="&#x2019;" horiz-adv-x="503" 
d="M236 1501q57 0 92 -18q13 -23 20 -37t15 -47t8 -72q0 -117 -60.5 -202t-169.5 -117l-22 59q54 28 89.5 81t35.5 118q0 23 -4 39l-93 16l-4 168q47 12 93 12z" />
    <glyph glyph-name="quotesinglbase" unicode="&#x201a;" horiz-adv-x="503" 
d="M236 195q55 0 92 -19q13 -23 20 -37t15 -47t8 -72q0 -117 -60.5 -202t-169.5 -117l-22 59q54 28 89.5 81t35.5 118q0 23 -4 39l-93 16l-4 168q50 13 93 13z" />
    <glyph glyph-name="quotedblleft" unicode="&#x201c;" horiz-adv-x="860" 
d="M719 1518l22 -60q-54 -29 -89.5 -87.5t-35.5 -113.5q0 -16 5 -36l92 -17l4 -168q-47 -12 -92 -12q-58 0 -93 18q-43 73 -43 152q0 110 60.5 201t169.5 123zM362 1518l23 -60q-54 -29 -89.5 -87.5t-35.5 -113.5q0 -20 4 -36l92 -17l4 -168q-47 -12 -92 -12q-57 0 -92 18
q-43 73 -43 152q0 110 60 201t169 123z" />
    <glyph glyph-name="quotedblright" unicode="&#x201d;" horiz-adv-x="860" 
d="M592 1501q57 0 92 -18q13 -23 20 -37t15 -47t8 -72q0 -117 -60 -202t-169 -117l-23 59q54 28 89.5 81t35.5 118q0 23 -4 39l-92 16l-4 168q46 12 92 12zM236 1501q57 0 92 -18q13 -23 20 -37t15 -47t8 -72q0 -117 -60.5 -202t-169.5 -117l-22 59q54 28 89.5 81t35.5 118
q0 23 -4 39l-93 16l-4 168q47 12 93 12z" />
    <glyph glyph-name="quotedblbase" unicode="&#x201e;" horiz-adv-x="860" 
d="M592 195q55 0 92 -19q13 -23 20 -37t15 -47t8 -72q0 -117 -60 -202t-169 -117l-23 59q54 28 89.5 81t35.5 118q0 23 -4 39l-92 16l-4 168q50 13 92 13zM236 195q55 0 92 -19q13 -23 20 -37t15 -47t8 -72q0 -117 -60.5 -202t-169.5 -117l-22 59q54 28 89.5 81t35.5 118
q0 23 -4 39l-93 16l-4 168q50 13 93 13z" />
    <glyph glyph-name="dagger" unicode="&#x2020;" horiz-adv-x="952" 
d="M403 1516h148q8 -36 8 -89q0 -50 -12.5 -123.5t-30.5 -129.5h-80q-17 57 -29 130.5t-12 122.5q0 53 8 89zM150 1174q50 0 123 -12.5t130 -31.5v-79q-57 -17 -130.5 -29t-122.5 -12q-53 0 -89 8v147q41 9 89 9zM803 1174q47 0 88 -9v-147q-36 -8 -88 -8q-50 0 -123.5 12
t-130.5 29v79q57 19 130.5 31.5t123.5 12.5zM436 1012h80q37 -127 37 -269q0 -44 -3.5 -99.5t-7 -92t-13 -127.5t-13.5 -133h-80q-4 42 -13.5 133t-13 127.5t-7 92t-3.5 99.5q0 142 37 269z" />
    <glyph glyph-name="daggerdbl" unicode="&#x2021;" horiz-adv-x="993" 
d="M424 1516h147q9 -40 9 -89q0 -50 -12.5 -123.5t-30.5 -129.5h-80q-17 57 -29 130.5t-12 122.5q0 53 8 89zM170 1174q50 0 123.5 -12.5t130.5 -31.5v-79q-57 -17 -130.5 -29t-123.5 -12q-52 0 -88 8v147q40 9 88 9zM823 1174q47 0 88 -9v-147q-36 -8 -88 -8
q-50 0 -123.5 12t-130.5 29v79q57 19 130.5 31.5t123.5 12.5zM457 1012h80q36 -123 36 -254t-36 -254h-80q-37 127 -37 254t37 254zM170 506q50 0 123.5 -12t130.5 -29v-80q-56 -18 -130 -30.5t-124 -12.5q-52 0 -88 8v148q36 8 88 8zM823 506q52 0 88 -8v-148
q-36 -8 -88 -8q-51 0 -124.5 12.5t-129.5 30.5v80q57 17 130.5 29t123.5 12zM457 342h80q18 -56 30.5 -130t12.5 -124q0 -48 -9 -88h-147q-8 36 -8 88q0 50 12 123.5t29 130.5z" />
    <glyph glyph-name="bullet" unicode="&#x2022;" horiz-adv-x="811" 
d="M406 850q123 0 187 -66.5t64 -185.5t-64 -185.5t-187 -66.5q-122 0 -187 67t-65 185t65 185t187 67z" />
    <glyph glyph-name="ellipsis" unicode="&#x2026;" horiz-adv-x="1533" 
d="M1303 236q29 0 53 -7q45 -61 45 -116q0 -57 -37 -113h-166l-37 205q57 31 142 31zM274 236q30 0 54 -7q45 -61 45 -116q0 -57 -37 -113h-166l-37 205q57 31 141 31zM784 236q30 0 54 -7q45 -61 45 -116q0 -57 -37 -113h-166l-37 205q57 31 141 31z" />
    <glyph glyph-name="perthousand" unicode="&#x2030;" horiz-adv-x="2447" 
d="M2048 731q100 0 169 -50.5t99.5 -131t30.5 -184.5q0 -177 -87.5 -284.5t-238.5 -107.5q-99 0 -167.5 50.5t-99 131t-30.5 185.5q0 176 87.5 283.5t236.5 107.5zM2036 645q-152 0 -152 -291t152 -291q151 0 151 291t-151 291zM1300 1229l9 -25q-16 -26 -165 -253
t-233 -367q-48 -79 -174.5 -301t-206.5 -349l-98 50l-8 24q217 326 399 623q79 128 202 342.5t177 304.5zM424 1245q100 0 169 -50.5t99.5 -131t30.5 -184.5q0 -177 -87.5 -284.5t-238.5 -107.5q-99 0 -167.5 50.5t-99 131t-30.5 185.5q0 176 87.5 283.5t236.5 107.5z
M412 1157q-152 0 -152 -291t152 -291q151 0 151 291t-151 291zM1331 731q100 0 169 -50.5t99.5 -131t30.5 -184.5q0 -177 -87 -284.5t-238 -107.5q-99 0 -167.5 50.5t-99 131t-30.5 185.5q0 177 87 284t236 107zM1319 643q-152 0 -152 -291t152 -291q151 0 151 291t-151 291
z" />
    <glyph glyph-name="minute" unicode="&#x2032;" horiz-adv-x="503" 
d="M393 1444l-180 -449h-104l94 469q107 21 164 21z" />
    <glyph glyph-name="second" unicode="&#x2033;" horiz-adv-x="890" 
d="M393 1444l-180 -449h-104l94 469q107 21 164 21zM780 1444l-180 -449h-104l94 469q107 21 164 21z" />
    <glyph glyph-name="uni2034" unicode="&#x2034;" horiz-adv-x="1236" 
d="M393 1444l-180 -449h-104l94 469q107 21 164 21zM760 1444l-180 -449h-105l94 469q107 21 164 21zM1126 1444l-180 -449h-104l94 469q107 21 164 21z" />
    <glyph glyph-name="guilsinglleft" unicode="&#x2039;" horiz-adv-x="673" 
d="M506 893l-178 -326l180 -325l-82 -58l-307 369v29l305 368z" />
    <glyph glyph-name="guilsinglright" unicode="&#x203a;" horiz-adv-x="673" 
d="M555 582v-29l-307 -369l-82 58l180 325l-178 326l82 57z" />
    <glyph glyph-name="fraction" unicode="&#x2044;" horiz-adv-x="509" 
d="M727 1362l8 -25q-318 -483 -434 -675q-63 -103 -199 -339t-221 -372l-98 49l-8 25q309 470 438 684q70 113 202.5 342t213.5 360z" />
    <glyph glyph-name="uni2070" unicode="&#x2070;" horiz-adv-x="755" 
d="M387 1501q136 0 208.5 -99.5t72.5 -256.5q0 -168 -80.5 -271.5t-216.5 -103.5q-137 0 -210 100.5t-73 257.5q0 167 81 270t218 103zM379 1427q-154 0 -154 -288q0 -156 39.5 -225.5t114.5 -69.5q153 0 153 295q0 288 -153 288z" />
    <glyph glyph-name="uni2074" unicode="&#x2074;" horiz-adv-x="634" 
d="M592 907h-119v-121h-117v121h-307l-6 49q109 246 221 547l111 -41l4 -16q-131 -266 -246 -453l6 -14q96 14 142 14h75v217l78 15l39 -2v-230h119v-86z" />
    <glyph glyph-name="uni2075" unicode="&#x2075;" horiz-adv-x="632" 
d="M520 1501l23 -49q-75 -82 -205 -82q-65 0 -135 25l-21 -176q90 22 150 22q95 0 164 -61t69 -156q0 -104 -80 -179t-204 -75q-87 0 -150 37.5t-63 103.5q0 49 38 74h93l20 -135q36 -8 60 -8q66 0 107.5 39.5t41.5 115.5q0 70 -40.5 107t-129.5 41l-145 8l12 334l90 14
q60 -24 135 -24q65 0 170 24z" />
    <glyph glyph-name="uni2076" unicode="&#x2076;" horiz-adv-x="710" 
d="M420 1249q91 0 154 -62t63 -157q0 -106 -79.5 -183t-197.5 -77q-126 0 -199 92t-73 244q0 97 31.5 173.5t85 124t121.5 72.5t145 25q57 0 100 -12l-4 -57q-165 3 -245 -55.5t-95 -198.5h19q74 71 174 71zM367 842q61 0 97 41.5t36 126.5q0 153 -125 153q-75 0 -148 -76
v-10q0 -235 140 -235z" />
    <glyph glyph-name="uni2077" unicode="&#x2077;" horiz-adv-x="573" 
d="M549 1475l10 -45q-226 -351 -270 -531l28 -113l-94 -34q-33 13 -51 45t-18 67q0 69 70.5 189t224.5 336l-5 14l-294 -25l-15 -88h-72q-10 55 -10 119q0 31 6 66h490z" />
    <glyph glyph-name="uni2078" unicode="&#x2078;" horiz-adv-x="696" 
d="M461 1171v-14q143 -58 143 -184q0 -68 -40.5 -115.5t-98.5 -67.5t-125 -20q-106 0 -177 50t-71 141q0 117 137 169v17q-123 58 -123 168q0 48 24.5 85.5t63 58.5t80.5 31.5t84 10.5q94 0 164 -47t70 -131q0 -104 -131 -152zM350 1430q-56 0 -85 -28.5t-29 -74.5
q0 -39 27 -68.5t102 -56.5l26 -10q40 30 52 48q20 30 20 75q0 115 -113 115zM346 842q62 0 95.5 32.5t33.5 88.5q0 47 -34 78.5t-128 62.5l-20 6q-72 -52 -72 -139q0 -129 125 -129z" />
    <glyph glyph-name="uni2079" unicode="&#x2079;" horiz-adv-x="710" 
d="M348 1501q129 0 202 -91t73 -243q0 -97 -31.5 -174.5t-85 -125t-121.5 -72.5t-145 -25q-58 0 -101 12l4 58q165 -3 245 55.5t95 198.5h-18q-75 -72 -174 -72q-91 0 -154 62.5t-63 160.5q0 108 78 182t196 74zM338 1108q41 0 74.5 18.5t70.5 57.5v10q0 236 -141 236
q-59 0 -95 -40.5t-36 -125.5q0 -156 127 -156z" />
    <glyph glyph-name="uni2080" unicode="&#x2080;" horiz-adv-x="755" 
d="M387 559q136 0 208.5 -99.5t72.5 -256.5q0 -168 -80.5 -271.5t-216.5 -103.5q-137 0 -210 100.5t-73 257.5q0 167 81 270t218 103zM379 485q-154 0 -154 -288q0 -156 39.5 -225.5t114.5 -69.5q153 0 153 295q0 288 -153 288z" />
    <glyph glyph-name="uni2081" unicode="&#x2081;" horiz-adv-x="503" 
d="M467 -76v-67h-401v67l141 19v475q-49 -15 -146 -15v72q139 5 203 96l64 -2v-637z" />
    <glyph glyph-name="uni2082" unicode="&#x2082;" horiz-adv-x="598" 
d="M453 25h82q10 -39 10 -93q0 -48 -6 -75h-494l-8 75q148 120 202 175q142 144 142 270q0 63 -31 93t-84 30q-26 0 -63 -13l-19 -139h-96q-39 25 -39 74q0 63 67 106t163 43q110 0 174.5 -56.5t64.5 -139.5q0 -50 -25.5 -101t-82 -108t-112.5 -104t-151 -119l7 -15
q77 10 137 15l151 12z" />
    <glyph glyph-name="uni2083" unicode="&#x2083;" horiz-adv-x="645" 
d="M295 571q109 0 172 -53t63 -135q0 -106 -120 -150v-18q143 -39 143 -156q0 -95 -80 -157t-203 -62q-92 0 -154.5 37.5t-62.5 102.5q0 48 37 75h94l21 -135q36 -8 63 -8q152 0 152 141q0 66 -35 100.5t-117 34.5h-59v68h121q67 42 67 131q0 62 -29.5 87.5t-86.5 25.5
q-28 0 -72 -13l-16 -129h-87q-40 26 -40 72q0 61 67 101t162 40z" />
    <glyph glyph-name="uni2084" unicode="&#x2084;" horiz-adv-x="634" 
d="M592 -35h-119v-121h-117v121h-307l-6 49q109 246 221 547l111 -41l4 -16q-131 -266 -246 -453l6 -14q96 14 142 14h75v217l78 15l39 -2v-230h119v-86z" />
    <glyph glyph-name="uni2085" unicode="&#x2085;" horiz-adv-x="632" 
d="M520 559l23 -49q-75 -82 -205 -82q-65 0 -135 25l-21 -177q94 23 150 23q95 0 164 -61t69 -156q0 -104 -80 -179t-204 -75q-87 0 -150 37.5t-63 103.5q0 49 38 74h93l20 -135q36 -8 60 -8q66 0 107.5 39.5t41.5 115.5q0 70 -40.5 107t-129.5 41l-145 8l12 334l90 14
q60 -24 135 -24q65 0 170 24z" />
    <glyph glyph-name="uni2086" unicode="&#x2086;" horiz-adv-x="710" 
d="M420 307q91 0 154 -62t63 -157q0 -106 -79.5 -183t-197.5 -77q-126 0 -199 92t-73 244q0 97 31.5 173.5t85 124t121.5 72.5t145 25q57 0 100 -12l-4 -58q-165 3 -245 -55.5t-95 -197.5h19q74 71 174 71zM367 -100q61 0 97 41.5t36 126.5q0 153 -125 153q-75 0 -148 -76
v-10q0 -235 140 -235z" />
    <glyph glyph-name="uni2087" unicode="&#x2087;" horiz-adv-x="573" 
d="M549 532l10 -45q-227 -351 -270 -530l28 -113l-94 -34q-33 13 -51 45t-18 67q0 69 70.5 187.5t224.5 336.5l-5 15l-294 -25l-15 -88h-72q-10 55 -10 119q0 31 6 65h490z" />
    <glyph glyph-name="uni2088" unicode="&#x2088;" horiz-adv-x="696" 
d="M461 231v-14q143 -58 143 -184q0 -68 -40.5 -115.5t-98.5 -67.5t-125 -20q-106 0 -177 49.5t-71 140.5q0 118 137 170v17q-123 58 -123 168q0 48 24.5 85.5t63 58.5t80.5 31.5t84 10.5q94 0 164 -47t70 -131q0 -104 -131 -152zM350 489q-56 0 -85 -28t-29 -74
q0 -39 27 -68.5t102 -56.5l26 -10q40 30 52 48q20 31 20 75q0 114 -113 114zM346 -98q62 0 95.5 32.5t33.5 88.5q0 47 -34 78.5t-128 62.5l-20 6q-72 -52 -72 -139q0 -129 125 -129z" />
    <glyph glyph-name="uni2089" unicode="&#x2089;" horiz-adv-x="710" 
d="M348 561q129 0 202 -91t73 -243q0 -97 -31.5 -174.5t-85 -125t-121.5 -72.5t-145 -25q-58 0 -101 12l4 58q165 -3 245 55.5t95 198.5h-18q-75 -72 -174 -72q-91 0 -154 62.5t-63 160.5q0 108 78 182t196 74zM338 168q41 0 74.5 18.5t70.5 57.5v10q0 235 -141 235
q-60 0 -95.5 -40t-35.5 -125q0 -156 127 -156z" />
    <glyph glyph-name="Euro" unicode="&#x20ac;" horiz-adv-x="1189" 
d="M1065 227l43 -65q-148 -189 -391 -189q-198 0 -324 122t-162 327h-149v102h137q-2 20 -2 66q0 60 6 119h-141v102h162q48 200 182.5 317t331.5 117q63 0 120 -12.5t105.5 -38.5t77.5 -72t29 -106q0 -75 -54 -119h-121l-30 231q-71 13 -125 13q-271 0 -334 -330h371v-102
h-385q-4 -70 -4 -109q0 -51 2 -76h387v-102h-377q50 -324 313 -324q91 0 178 35t154 94z" />
    <glyph glyph-name="uni20B9" unicode="&#x20b9;" horiz-adv-x="946" 
d="M600 1116l-4 -16q105 -51 129 -168h139v-103h-133q-17 -283 -375 -333l-4 -19q52 -49 100.5 -98t76.5 -78.5t80.5 -86.5t78.5 -85l139 -51l-8 -72q-68 -22 -131 -22q-121 0 -186 59q-44 40 -158.5 178.5t-237.5 310.5l35 58h246q62 24 99.5 84.5t41.5 154.5h-446v103h440
q-23 116 -125 184h-315v103h782v-103h-264z" />
    <glyph glyph-name="uni20BA" unicode="&#x20ba;" horiz-adv-x="1050" 
d="M866 541l111 10q22 -74 22 -137q0 -84 -35 -160t-100 -135.5t-166 -94t-225 -34.5q-117 0 -211 24v512l-186 -65l-13 20v84l199 70v186l-186 -65l-13 20v84l199 70v282q71 20 144 23l28 -23v-223l295 105l12 -21v-84l-307 -108v-187l295 105l12 -21v-84l-307 -108v-494
h15q102 0 184.5 34t133 90.5t77 124.5t26.5 140q0 24 -4 60z" />
    <glyph glyph-name="uni20BD" unicode="&#x20bd;" horiz-adv-x="1107" 
d="M451 551v-180h436v-103h-436v-162l200 -10v-96h-536v96l164 31v141h-216v103h216v180h-216v106h216v457l-164 10v95q222 10 477 10q223 0 328.5 -81.5t105.5 -242.5q0 -178 -117 -266t-325 -88h-133zM451 657h118q140 0 203.5 57t63.5 181q0 120 -61.5 173.5t-205.5 53.5
h-118v-465z" />
    <glyph glyph-name="afii61289" unicode="&#x2113;" horiz-adv-x="802" 
d="M698 170l43 -66q-109 -131 -264 -131q-134 0 -207.5 85.5t-83.5 217.5q-62 -37 -141 -63l-25 86q93 36 164 84v618q0 264 67.5 402.5t225.5 138.5q116 0 164.5 -77t48.5 -244q0 -98 -15.5 -196t-51 -210.5t-105 -226.5t-166.5 -213v-58q0 -117 46 -177t120 -60
q82 0 180 90zM461 1440q-35 0 -55.5 -17.5t-33 -67t-16.5 -125t-4 -204.5v-512q205 280 205 692q0 137 -22.5 185.5t-73.5 48.5z" />
    <glyph glyph-name="afii61352" unicode="&#x2116;" horiz-adv-x="2220" 
d="M1343 1389q64 0 103 -29l6 -98l-203 -64q-30 -72 -43.5 -153.5t-13.5 -233.5q0 -224 31 -811l-125 -23h-31l-524 871q-45 72 -125 237h-21q25 -431 25 -723q0 -91 -14 -160.5t-37.5 -112t-58.5 -69.5t-72.5 -37t-83.5 -10q-94 0 -136 52l17 98h223q18 53 23.5 107.5
t5.5 154.5q0 85 -2.5 192.5t-8.5 278.5t-8 254l-168 12v97h414l490 -832q20 -33 63 -117h21q-29 422 -29 613q0 259 69.5 382.5t212.5 123.5zM1802 1245q151 0 233.5 -105t82.5 -255q0 -163 -94 -268t-246 -105q-149 0 -231.5 103t-82.5 253q0 163 93 270t245 107z
M1790 1157q-178 0 -178 -278q0 -281 180 -281q178 0 178 276q0 283 -180 283zM2003 184h-422v123h422v-123z" />
    <glyph glyph-name="uni2117" unicode="&#x2117;" horiz-adv-x="1609" 
d="M817 1389q308 0 499 -192t191 -505q0 -215 -94 -380t-255.5 -252t-364.5 -87t-360 88t-244 248t-87 367q0 215 94 378.5t256 249t365 85.5zM805 70q254 0 411.5 168t157.5 446q0 276 -157.5 442t-411.5 166t-411.5 -166t-157.5 -442q0 -277 158 -445.5t411 -168.5z
M827 1079q178 0 273.5 -73t95.5 -205q0 -107 -76.5 -183.5t-175.5 -76.5q-68 1 -115 14v86h9q90 0 126.5 39t36.5 123q0 91 -43 130.5t-153 39.5h-27v-596l121 -8v-88h-399v88l110 24v574h-2l-112 8v94q181 10 331 10z" />
    <glyph glyph-name="trademark" unicode="&#x2122;" horiz-adv-x="1712" 
d="M35 1362h610q4 -31 4 -92q0 -78 -6 -121h-86l-16 127l-133 6v-612l100 -6v-72h-342v70l106 18v602l-133 -6l-16 -127h-86q-6 43 -6 121q0 61 4 92zM1667 664v-72h-328v70l101 18q0 373 -8 594h-21q-17 -73 -39 -146l-145 -491l-88 -25h-25l-166 535q-20 66 -33 127h-20
q-4 -346 -10 -602l116 -8v-72h-313v70l103 18q15 445 26 604l-96 8v70h307q115 -380 152 -561h20q60 261 162 561h278v-68l-94 -16q22 -394 27 -608z" />
    <glyph glyph-name="Omega" unicode="&#x2126;" horiz-adv-x="1445" 
d="M1288 311l113 -12q4 -54 4 -94q0 -102 -14 -205h-535v301q287 142 287 490q0 229 -111.5 356t-308.5 127t-308.5 -127t-111.5 -356q0 -348 287 -490v-301h-535q-14 103 -14 205q0 40 4 94l113 12l28 -137l301 -18v106q-78 21 -146 65t-122.5 109t-86.5 157t-32 200
q0 121 41 228t118.5 189.5t200 130.5t273.5 48t270.5 -48t193 -130t111.5 -187t38 -225q0 -201 -102.5 -342t-285.5 -195v-106l302 18z" />
    <glyph glyph-name="estimated" unicode="&#x212e;" horiz-adv-x="1308" 
d="M295 500v-301q64 -92 168.5 -137.5t220.5 -45.5q139 0 253.5 57.5t184.5 139.5l23 -31q-80 -98 -200.5 -153.5t-264.5 -55.5q-166 0 -302 72t-213 195.5t-77 271.5q0 147 76 271t206.5 196t284.5 72t284.5 -72t206 -195.5t75.5 -269.5v-14h-926zM655 1008
q-109 0 -203.5 -48.5t-156.5 -134.5v-286h719v286q-64 91 -159 137t-200 46z" />
    <glyph glyph-name="uni2150" unicode="&#x2150;" horiz-adv-x="1787" 
d="M1335 1362l8 -25q-318 -483 -434 -675q-63 -103 -199 -339t-221 -372l-98 49l-8 25q309 470 438 684q70 113 202.5 342t213.5 360zM565 612v-82h-483v82l170 23v569q-60 -18 -174 -18v86q168 9 244 117l75 -5v-763zM1759 831l13 -55q-276 -425 -324 -635l35 -135
l-115 -43q-40 16 -62 54.5t-22 80.5q0 83 85.5 226.5t270.5 402.5l-6 18l-354 -30l-16 -105h-86q-13 63 -13 142q0 38 6 79h588z" />
    <glyph glyph-name="uni2151" unicode="&#x2151;" horiz-adv-x="1878" 
d="M1335 1362l8 -25q-318 -483 -434 -675q-63 -103 -199 -339t-221 -372l-98 49l-8 25q309 470 438 684q70 113 202.5 342t213.5 360zM565 612v-82h-483v82l170 23v569q-60 -18 -174 -18v86q168 9 244 117l75 -5v-763zM1446 858q156 0 244 -109t88 -290q0 -117 -37.5 -210
t-101.5 -150t-145 -87t-171 -30q-64 0 -125 14l4 70q199 -3 296 65.5t112 235.5h-21q-89 -86 -207 -86q-109 0 -186.5 80.5t-77.5 193.5q0 122 91 212.5t237 90.5zM1436 383q50 0 90 22.5t86 69.5v14q0 283 -168 283q-72 0 -116 -49t-44 -150q0 -94 40.5 -142t111.5 -48z
" />
    <glyph glyph-name="uni2152" unicode="&#x2152;" horiz-adv-x="2598" 
d="M1335 1362l8 -25q-318 -483 -434 -675q-63 -103 -199 -339t-221 -372l-98 49l-8 25q309 470 438 684q70 113 202.5 342t213.5 360zM565 612v-82h-483v82l170 23v569q-60 -18 -174 -18v86q168 9 244 117l75 -5v-763zM2161 858q163 0 250.5 -120t87.5 -308
q0 -201 -97.5 -324.5t-261.5 -123.5q-163 0 -250.5 120t-87.5 308q0 201 97.5 324.5t261.5 123.5zM2150 770q-90 0 -137 -82.5t-47 -265.5q0 -185 47 -268.5t137 -83.5t137.5 83.5t47.5 268.5q0 348 -185 348zM1659 82v-82h-483v82l170 22v570q-64 -19 -175 -19v86
q168 9 244 117l76 -4v-764z" />
    <glyph glyph-name="onethird" unicode="&#x2153;" horiz-adv-x="1849" 
d="M1335 1362l8 -25q-318 -483 -434 -675q-63 -103 -199 -339t-221 -372l-98 49l-8 25q309 470 438 684q70 113 202.5 342t213.5 360zM565 612v-82h-483v82l170 23v569q-60 -18 -174 -18v86q168 9 244 117l75 -5v-763zM1573 451v-21q172 -48 172 -186q0 -114 -96 -188
t-244 -74q-110 0 -185 43.5t-75 121.5q0 60 45 93h113l24 -164q40 -8 78 -8q180 0 180 168q0 78 -42 120.5t-140 42.5h-72v80h146q82 51 82 158q0 135 -138 135q-36 0 -90 -14l-18 -156h-105q-49 34 -49 86q0 73 81 121.5t196 48.5q130 0 206 -63.5t76 -161.5
q0 -129 -145 -182z" />
    <glyph glyph-name="twothirds" unicode="&#x2154;" horiz-adv-x="1953" 
d="M1440 1362l8 -25q-318 -483 -434 -675q-63 -103 -199 -339t-221 -372l-98 49l-9 25q321 487 439 684q70 113 202 342.5t213 359.5zM543 731h98q12 -53 12 -110q0 -47 -8 -91h-592l-10 91q158 130 209 178q197 187 203 345v11q0 74 -36.5 111t-99.5 37q-37 0 -77 -15
l-23 -168h-115q-47 30 -47 88q0 75 81 128t196 53q131 0 209 -68.5t78 -167.5q0 -49 -23 -100.5t-57.5 -96.5t-98 -103t-119.5 -103t-147 -115l6 -19q108 16 166 19l182 12zM1677 451v-21q172 -48 172 -186q0 -114 -96 -188t-244 -74q-110 0 -185 43.5t-75 121.5q0 60 45 93
h113l25 -164q40 -8 77 -8q181 0 181 168q0 78 -42.5 120.5t-140.5 42.5h-71v80h145q82 51 82 158q0 135 -137 135q-36 0 -90 -14l-19 -156h-104q-49 34 -49 86q0 73 80.5 121.5t195.5 48.5q130 0 206.5 -63.5t76.5 -161.5q0 -128 -146 -182z" />
    <glyph glyph-name="uni2155" unicode="&#x2155;" horiz-adv-x="1779" 
d="M1335 1362l8 -25q-318 -483 -434 -675q-63 -103 -199 -339t-221 -372l-98 49l-8 25q309 470 438 684q70 113 202.5 342t213.5 360zM565 612v-82h-483v82l170 23v569q-60 -18 -174 -18v86q168 9 244 117l75 -5v-763zM1425 547q113 0 195 -73t82 -189q0 -125 -95.5 -214
t-244.5 -89q-105 0 -180.5 44.5t-75.5 123.5q0 57 47 90h111l24 -164q40 -8 68 -8q82 0 132 47t50 139q0 84 -49 127t-156 49l-174 10l15 400l108 18q78 -29 164 -29q81 0 203 29l26 -59q-89 -99 -243 -99q-79 0 -164 29l-23 -211q103 29 180 29z" />
    <glyph glyph-name="uni2156" unicode="&#x2156;" horiz-adv-x="1884" 
d="M1440 1362l8 -25q-318 -483 -434 -675q-63 -103 -199 -339t-221 -372l-98 49l-9 25q321 487 439 684q70 113 202 342.5t213 359.5zM543 731h98q12 -53 12 -110q0 -47 -8 -91h-592l-10 91q158 130 209 178q197 187 203 345v11q0 74 -36.5 111t-99.5 37q-37 0 -77 -15
l-23 -168h-115q-47 30 -47 88q0 75 81 128t196 53q131 0 209 -68.5t78 -167.5q0 -49 -23 -100.5t-57.5 -96.5t-98 -103t-119.5 -103t-147 -115l6 -19q108 16 166 19l182 12zM1530 547q113 0 194.5 -73t81.5 -189q0 -125 -95.5 -214t-244.5 -89q-105 0 -180.5 44.5
t-75.5 123.5q0 57 47 90h111l25 -164q40 -8 67 -8q82 0 132 47t50 139q0 84 -48.5 127t-155.5 49l-174 10l14 400l108 18q78 -29 164 -29q81 0 203 29l27 -59q-41 -46 -104.5 -72.5t-139.5 -26.5q-79 0 -164 29l-22 -211q103 29 180 29z" />
    <glyph glyph-name="uni2157" unicode="&#x2157;" horiz-adv-x="1861" 
d="M1417 1362l8 -25q-318 -483 -434 -675q-63 -103 -199 -339t-221 -372l-98 49l-8 25q309 470 438 684q70 113 202.5 342t213.5 360zM487 981v-20q172 -48 172 -187q0 -114 -96 -188t-244 -74q-110 0 -185 44t-75 122q0 59 45 92h113l25 -164q40 -8 77 -8q181 0 181 168
q0 164 -183 164h-71v80h145q82 51 82 157q0 136 -137 136q-32 0 -90 -15l-19 -155h-104q-49 34 -49 86q0 73 80.5 121.5t195.5 48.5q130 0 206.5 -64t76.5 -162q0 -128 -146 -182zM1507 547q113 0 195 -73t82 -189q0 -125 -95.5 -214t-244.5 -89q-105 0 -180.5 44.5
t-75.5 123.5q0 57 47 90h111l24 -164q40 -8 68 -8q82 0 132 47t50 139q0 84 -49 127t-156 49l-174 10l14 400l109 18q78 -29 164 -29q81 0 203 29l26 -59q-41 -46 -104.5 -72.5t-139.5 -26.5q-78 0 -163 29l-23 -211q103 29 180 29z" />
    <glyph glyph-name="uni2158" unicode="&#x2158;" horiz-adv-x="1886" 
d="M1442 1362l8 -25q-318 -483 -434 -675q-63 -103 -199 -339t-221 -372l-98 49l-9 25q321 487 439 684q70 113 202 342.5t213 359.5zM705 676h-142v-146h-139v146h-369l-8 59q140 318 264 656l133 -50l7 -20q-166 -336 -295 -543l6 -16q94 16 170 16h92v260l92 19l47 -4
v-275h142v-102zM1532 547q113 0 194.5 -73t81.5 -189q0 -125 -95.5 -214t-244.5 -89q-105 0 -180.5 44.5t-75.5 123.5q0 57 48 90h110l25 -164q40 -8 67 -8q82 0 132.5 47t50.5 139q0 84 -49 127t-156 49l-174 10l14 400l109 18q78 -29 163 -29q81 0 203 29l27 -59
q-41 -46 -104.5 -72.5t-139.5 -26.5q-79 0 -164 29l-22 -211q103 29 180 29z" />
    <glyph glyph-name="uni2159" unicode="&#x2159;" horiz-adv-x="1816" 
d="M1335 1362l8 -25q-318 -483 -434 -675q-63 -103 -199 -339t-221 -372l-98 49l-8 25q309 470 438 684q70 113 202.5 342t213.5 360zM565 612v-82h-483v82l170 23v569q-60 -18 -174 -18v86q168 9 244 117l75 -5v-763zM1470 559q109 0 187 -80t78 -190q0 -122 -96.5 -214.5
t-237.5 -92.5q-151 0 -238.5 109.5t-87.5 291.5q0 93 24.5 171.5t67.5 134t101 94t124 57t138 18.5q64 0 125 -14l-4 -70q-199 3 -296 -65.5t-112 -235.5h21q89 86 206 86zM1409 68q72 0 116 50t44 150q0 95 -40 142t-112 47q-50 0 -90 -22.5t-86 -69.5v-15q0 -282 168 -282
z" />
    <glyph glyph-name="uni215A" unicode="&#x215a;" horiz-adv-x="1898" 
d="M1417 1362l8 -25q-318 -483 -434 -675q-63 -103 -199 -339t-221 -372l-98 49l-8 25q309 470 438 684q70 113 202.5 342t213.5 360zM397 1077q113 0 195 -73t82 -189q0 -125 -95.5 -214t-244.5 -89q-105 0 -180.5 44.5t-75.5 123.5q0 57 47 90h111l24 -164q40 -8 68 -8
q82 0 132 47t50 139q0 84 -49 127.5t-156 49.5l-174 10l14 399l109 19q78 -29 164 -29q81 0 203 29l26 -60q-41 -45 -104.5 -71.5t-139.5 -26.5q-78 0 -163 29l-23 -211q100 28 180 28zM1552 559q109 0 187 -80t78 -190q0 -122 -96.5 -214.5t-237.5 -92.5
q-151 0 -238.5 109.5t-87.5 291.5q0 93 24.5 171.5t67.5 134t101 94t124 57t138 18.5q64 0 125 -14l-4 -70q-199 3 -296 -65.5t-112 -235.5h21q89 86 206 86zM1491 68q72 0 116 50t44 150q0 95 -40 142t-112 47q-50 0 -90 -22.5t-86 -69.5v-15q0 -282 168 -282z" />
    <glyph glyph-name="oneeighth" unicode="&#x215b;" horiz-adv-x="1855" 
d="M1335 1362l8 -25q-318 -483 -434 -675q-63 -103 -199 -339t-221 -372l-98 49l-8 25q309 470 438 684q70 113 202.5 342t213.5 360zM565 612v-82h-483v82l170 23v569q-60 -18 -174 -18v86q168 9 244 117l75 -5v-763zM1579 463v-19q172 -72 172 -221q0 -62 -27.5 -110
t-73.5 -75.5t-101 -41.5t-115 -14q-127 0 -212 59t-85 168q0 146 163 205v20q-64 28 -105.5 78t-41.5 121q0 58 28.5 103.5t75 71t97.5 38t102 12.5q71 0 133.5 -23t105 -73t42.5 -117q0 -41 -14.5 -73t-41 -53t-49 -32.5t-53.5 -23.5zM1444 772q-67 0 -101 -33.5t-34 -89.5
q0 -54 33.5 -85t121.5 -64l31 -13q28 19 41.5 31t29 43.5t15.5 73.5q0 137 -137 137zM1442 68q74 0 113.5 38t39.5 105q0 61 -40.5 96t-151.5 74l-25 8q-86 -62 -86 -168q0 -153 150 -153z" />
    <glyph glyph-name="threeeighths" unicode="&#x215c;" horiz-adv-x="1937" 
d="M1417 1362l8 -25q-318 -483 -434 -675q-63 -103 -199 -339t-221 -372l-98 49l-8 25q309 470 438 684q70 113 202.5 342t213.5 360zM487 981v-20q172 -48 172 -187q0 -114 -96 -188t-244 -74q-110 0 -185 44t-75 122q0 59 45 92h113l25 -164q40 -8 77 -8q181 0 181 168
q0 164 -183 164h-71v80h145q82 51 82 157q0 136 -137 136q-32 0 -90 -15l-19 -155h-104q-49 34 -49 86q0 73 80.5 121.5t195.5 48.5q130 0 206.5 -64t76.5 -162q0 -128 -146 -182zM1661 463v-19q172 -72 172 -221q0 -62 -27.5 -110t-73.5 -75.5t-101 -41.5t-115 -14
q-127 0 -212 59t-85 168q0 146 163 205v20q-64 28 -105.5 78t-41.5 121q0 58 28.5 103.5t75 71t97.5 38t102 12.5q71 0 133.5 -23t105 -73t42.5 -117q0 -41 -14.5 -73t-41 -53t-49 -32.5t-53.5 -23.5zM1526 772q-67 0 -101 -33.5t-34 -89.5q0 -54 33.5 -85t121.5 -64l31 -13
q28 19 41.5 31t29 43.5t15.5 73.5q0 137 -137 137zM1524 68q74 0 113.5 38t39.5 105q0 61 -40.5 96t-151.5 74l-25 8q-86 -62 -86 -168q0 -153 150 -153z" />
    <glyph glyph-name="fiveeighths" unicode="&#x215d;" horiz-adv-x="1937" 
d="M1417 1362l8 -25q-318 -483 -434 -675q-63 -103 -199 -339t-221 -372l-98 49l-8 25q309 470 438 684q70 113 202.5 342t213.5 360zM397 1077q113 0 195 -73t82 -189q0 -125 -95.5 -214t-244.5 -89q-105 0 -180.5 44.5t-75.5 123.5q0 57 47 90h111l24 -164q40 -8 68 -8
q82 0 132 47t50 139q0 84 -49 127.5t-156 49.5l-174 10l14 399l109 19q78 -29 164 -29q81 0 203 29l26 -60q-41 -45 -104.5 -71.5t-139.5 -26.5q-78 0 -163 29l-23 -211q100 28 180 28zM1661 463v-19q172 -72 172 -221q0 -62 -27.5 -110t-73.5 -75.5t-101 -41.5t-115 -14
q-127 0 -212 59t-85 168q0 146 163 205v20q-64 28 -105.5 78t-41.5 121q0 58 28.5 103.5t75 71t97.5 38t102 12.5q71 0 133.5 -23t105 -73t42.5 -117q0 -41 -14.5 -73t-41 -53t-49 -32.5t-53.5 -23.5zM1526 772q-67 0 -101 -33.5t-34 -89.5q0 -54 33.5 -85t121.5 -64l31 -13
q28 19 41.5 31t29 43.5t15.5 73.5q0 137 -137 137zM1524 68q74 0 113.5 38t39.5 105q0 61 -40.5 96t-151.5 74l-25 8q-86 -62 -86 -168q0 -153 150 -153z" />
    <glyph glyph-name="seveneighths" unicode="&#x215e;" horiz-adv-x="1712" 
d="M1192 1362l8 -25q-318 -483 -434 -675q-63 -103 -199 -339t-221 -372l-98 49l-8 25q309 470 438 684q70 113 202.5 342t213.5 360zM653 1362l13 -55q-276 -425 -324 -635l35 -135l-115 -43q-40 16 -62 54.5t-22 80.5q0 83 84.5 224.5t272.5 403.5l-7 19l-354 -31
l-16 -104h-86q-13 63 -13 141q0 33 7 80h587zM1436 463v-19q172 -72 172 -221q0 -82 -48.5 -138t-118 -79.5t-151.5 -23.5q-127 0 -212 59t-85 168q0 145 164 205v20q-64 28 -105.5 78t-41.5 121q0 58 28.5 103.5t75 71t97.5 38t102 12.5q71 0 133.5 -23t104.5 -73t42 -117
q0 -33 -10.5 -60.5t-25 -45.5t-38 -34t-41.5 -24.5t-42 -17.5zM1300 772q-67 0 -101 -33.5t-34 -89.5q0 -54 34 -84.5t122 -64.5l31 -13q28 19 41.5 31t29 43.5t15.5 73.5q0 137 -138 137zM1298 68q74 0 114 38t40 105q0 61 -40.5 96t-151.5 74l-25 8q-86 -62 -86 -168
q0 -153 149 -153z" />
    <glyph glyph-name="uni215F" unicode="&#x215f;" horiz-adv-x="1118" 
d="M1335 1362l8 -25q-318 -483 -434 -675q-63 -103 -199 -339t-221 -372l-98 49l-8 25q309 470 438 684q70 113 202.5 342t213.5 360zM565 612v-82h-483v82l170 23v569q-60 -18 -174 -18v86q168 9 244 117l75 -5v-763z" />
    <glyph glyph-name="uni2189" unicode="&#x2189;" horiz-adv-x="1994" 
d="M1481 1362l8 -25q-318 -483 -434 -675q-63 -103 -199 -339t-221 -372l-98 49l-9 25q321 487 439 684q70 113 202 342.5t213 359.5zM459 1389q163 0 250.5 -120t87.5 -308q0 -201 -97.5 -325t-261.5 -124q-163 0 -250.5 120t-87.5 308q0 201 97.5 325t261.5 124zM449 1300
q-185 0 -185 -348q0 -185 47.5 -268.5t137.5 -83.5t137 83.5t47 268.5q0 183 -47 265.5t-137 82.5zM1718 451v-21q172 -48 172 -186q0 -114 -96 -188t-244 -74q-110 0 -185 43.5t-75 121.5q0 60 45 93h113l25 -164q40 -8 77 -8q181 0 181 168q0 78 -42.5 120.5t-140.5 42.5
h-71v80h145q82 51 82 158q0 135 -137 135q-36 0 -90 -14l-19 -156h-104q-49 34 -49 86q0 73 80.5 121.5t195.5 48.5q130 0 206.5 -63.5t76.5 -161.5q0 -128 -146 -182z" />
    <glyph glyph-name="arrowleft" unicode="&#x2190;" horiz-adv-x="1617" 
d="M621 950l16 -10l-98 -299q28 2 103.5 8t139.5 9.5t117 3.5h600v-123h-600q-53 0 -116 3.5t-141.5 9.5t-102.5 7l98 -297l-16 -10l-533 338v20q89 57 266.5 170.5t266.5 169.5z" />
    <glyph glyph-name="arrowup" unicode="&#x2191;" horiz-adv-x="956" 
d="M489 1409l338 -532l-10 -15l-295 99q1 -17 10 -153t9 -208v-600h-123v598q0 54 3 114.5t8 134.5t7 114l-297 -99l-10 15q57 89 170 266t170 266h20z" />
    <glyph glyph-name="arrowright" unicode="&#x2192;" horiz-adv-x="1617" 
d="M981 940l16 10q89 -56 266.5 -169.5t266.5 -170.5v-20l-533 -338l-16 10l98 297q-24 -1 -102.5 -7t-141.5 -9.5t-116 -3.5h-600v123h600q53 0 117 -3.5t139.5 -9.5t103.5 -8z" />
    <glyph glyph-name="arrowdown" unicode="&#x2193;" horiz-adv-x="956" 
d="M827 485l-338 -532h-20q-57 89 -170 266t-170 266l10 15l297 -99q-2 40 -7 114t-8 134.5t-3 114.5v598h123v-600q0 -72 -9 -208t-10 -153l295 99z" />
    <glyph glyph-name="arrowboth" unicode="&#x2194;" horiz-adv-x="1976" 
d="M1339 940l17 10q89 -56 266 -169.5t266 -170.5v-20l-532 -338l-17 10l99 295q-39 -2 -108 -7t-125.5 -8t-106.5 -3h-219q-50 0 -106.5 3t-125.5 8t-108 7l98 -295l-16 -10l-533 338v20q89 57 266.5 170.5t266.5 169.5l16 -10l-98 -297q18 1 145.5 10t194.5 9h219
q67 0 194.5 -9t145.5 -10z" />
    <glyph glyph-name="arrowupdn" unicode="&#x2195;" horiz-adv-x="956" 
d="M522 401l295 99l10 -15l-338 -532h-20q-57 89 -170 266t-170 266l10 15l297 -99q-2 32 -7 88t-8 102.5t-3 88.5t3 88.5t8 104t7 88.5l-297 -99l-10 15q57 89 170 266t170 266h20l338 -532l-10 -15l-295 99q1 -12 10 -118.5t9 -162.5t-9 -160.5t-10 -118.5z" />
    <glyph glyph-name="uni2196" unicode="&#x2196;" horiz-adv-x="1372" 
d="M113 1147l14 14l618 -135l3 -18l-281 -140q21 -19 83.5 -73.5t105 -93t81.5 -76.5l574 -564l-88 -88l-574 566q-34 33 -72.5 76t-91 103.5t-75.5 86.5l-142 -277l-16 4q-24 103 -70 308t-69 307z" />
    <glyph glyph-name="uni2197" unicode="&#x2197;" horiz-adv-x="1372" 
d="M1245 1161l15 -14q-23 -102 -69.5 -307t-70.5 -308l-16 -4l-141 277q-21 -23 -75 -86t-92.5 -105t-72.5 -75l-573 -566l-89 88l574 564q39 38 81.5 76.5t105 93t83.5 73.5l-280 140l2 18z" />
    <glyph glyph-name="uni2198" unicode="&#x2198;" horiz-adv-x="1372" 
d="M1260 -12l-15 -15l-618 136l-2 18l280 139q-22 19 -66.5 58.5t-71.5 63.5t-64.5 58.5t-67.5 63.5l-574 563l89 88l573 -565q34 -33 72.5 -75t92.5 -105t75 -86l141 276l16 -4q24 -103 70.5 -307t69.5 -307z" />
    <glyph glyph-name="uni2199" unicode="&#x2199;" horiz-adv-x="1372" 
d="M127 -27l-14 15q23 102 69 307t70 307l16 4l142 -276q23 26 75.5 86.5t91 103.5t72.5 76l574 565l88 -88l-574 -563q-30 -29 -67.5 -63.5t-64.5 -58.5t-71.5 -63.5t-66.5 -58.5l281 -139l-3 -18z" />
    <glyph glyph-name="uni21A9" unicode="&#x21a9;" horiz-adv-x="1640" 
d="M621 827l16 -10l-98 -297q18 1 153.5 10t206.5 9h191q144 0 220 71t76 183q0 111 -73.5 182.5t-204.5 71.5h-170v122h170q184 0 299 -108t115 -268t-117.5 -268.5t-314.5 -108.5h-191q-53 0 -113 3t-133 8t-114 7l98 -295l-16 -10l-533 338v20q89 57 266.5 170t266.5 170
z" />
    <glyph glyph-name="uni21AA" unicode="&#x21aa;" horiz-adv-x="1640" 
d="M1004 817l16 10q89 -56 266 -169.5t266 -170.5v-20l-532 -338l-16 10l98 295q-41 -2 -114.5 -7t-133.5 -8t-113 -3h-190q-197 0 -314.5 108.5t-117.5 268.5t114.5 268t298.5 108h170v-122h-170q-131 0 -204.5 -71.5t-73.5 -182.5q0 -112 76.5 -183t220.5 -71h190
q71 0 207.5 -9t153.5 -10z" />
    <glyph glyph-name="uni21BB" unicode="&#x21bb;" horiz-adv-x="1372" 
d="M926 954l53 99q125 -45 213 -180.5t88 -307.5q0 -159 -78 -295t-215 -216.5t-301 -80.5q-120 0 -229.5 45.5t-189.5 124t-127.5 189.5t-47.5 235q0 157 73.5 277t203.5 196l-228 187l9 18h630l13 -18l-271 -572h-20l-78 314q-101 -82 -149 -176t-48 -211
q0 -105 37 -196.5t99.5 -154.5t147.5 -99t179 -36q194 0 324.5 138t130.5 335q0 125 -58 223t-161 162z" />
    <glyph glyph-name="partialdiff" unicode="&#x2202;" horiz-adv-x="1173" 
d="M618 1540q157 0 263.5 -82t155 -222t48.5 -331q0 -80 -8.5 -164t-29.5 -176.5t-52 -176.5t-80.5 -161t-111 -133t-147 -89.5t-185.5 -33.5q-172 0 -277.5 97.5t-105.5 291.5q0 113 37.5 216t104 181.5t165.5 125.5t215 47q88 0 160.5 -25t114.5 -67h20l2 67
q0 109 -20.5 196.5t-64.5 156t-120 106t-180 37.5q-80 0 -188 -27l-19 76q127 90 303 90zM492 74q65 0 120.5 27t96 76t72.5 109t54.5 133.5t36.5 141.5t23 141q-98 95 -262 95q-122 0 -205 -58t-119.5 -151.5t-36.5 -216.5q0 -154 58.5 -225.5t161.5 -71.5z" />
    <glyph glyph-name="emptyset" unicode="&#x2205;" horiz-adv-x="1476" 
d="M1303 1323l-154 -223q106 -89 165.5 -217t59.5 -275q0 -135 -52.5 -254.5t-140 -202t-205.5 -130.5t-247 -48q-163 0 -303 78l-150 -217l-92 39l-10 23l154 223q-106 89 -166 216.5t-60 274.5q0 135 52.5 254.5t140.5 202t206 130.5t247 48q163 0 303 -78l149 217l92 -38
zM250 610q0 -241 149 -387l582 844q-107 61 -244 61q-99 0 -187.5 -36t-155 -101t-105.5 -164t-39 -217zM737 90q100 0 189 36t156 101.5t106 164.5t39 218q0 120 -39.5 218.5t-110.5 166.5l-581 -843q109 -62 241 -62z" />
    <glyph glyph-name="Delta" unicode="&#x2206;" horiz-adv-x="1189" 
d="M1159 20l-12 -20h-1104l-12 20l495 1342l113 27h20zM227 141h713l-354 992z" />
    <glyph glyph-name="product" unicode="&#x220f;" horiz-adv-x="1456" 
d="M1380 1362v-96l-163 -31v-1372q-65 -15 -140 -21l-43 15v1394h-608v-1388q-69 -15 -141 -21l-43 15v1398l-166 11v96h1304z" />
    <glyph glyph-name="summation" unicode="&#x2211;" horiz-adv-x="1112" 
d="M879 225l118 -12q4 -54 4 -107q0 -119 -26 -249h-883l-10 39l438 661l-440 764l10 41h885q10 -48 10 -133q0 -86 -10 -164h-119l-25 176l-497 19l-10 -15q2 -4 48 -74t79 -124l237 -394v-20l-272 -428q-44 -69 -123 -174l10 -15l537 19z" />
    <glyph glyph-name="minus" unicode="&#x2212;" 
d="M1116 539h-975v123h975v-123z" />
    <glyph glyph-name="uni2219" unicode="&#x2219;" 
d="M629 850q123 0 187.5 -66.5t64.5 -185.5t-64.5 -185.5t-187.5 -66.5q-122 0 -187 67t-65 185t65 185t187 67z" />
    <glyph glyph-name="radical" unicode="&#x221a;" horiz-adv-x="1210" 
d="M1145 1577l24 -21q-311 -959 -581 -1699l-119 -27h-20q-133 276 -226 508l-203 14v92h340q55 -149 166 -387h21q226 661 483 1520h115z" />
    <glyph glyph-name="infinity" unicode="&#x221e;" horiz-adv-x="1820" 
d="M1407 915q71 0 128.5 -20.5t95 -54t62.5 -79t35.5 -92t10.5 -96.5q0 -152 -95 -251t-243 -99q-150 0 -322 127l-188 139h-21q-47 -57 -86.5 -96t-97 -82t-126.5 -65.5t-146 -22.5q-88 0 -155 30.5t-104 81t-55 108.5t-18 122q0 153 95 251.5t245 98.5q146 0 319 -127
l191 -141h18q47 57 86.5 96.5t97.5 83t127 66t146 22.5zM1409 365q35 0 69.5 12t66.5 35.5t51.5 66.5t19.5 99q0 90 -55.5 148t-174.5 58q-107 0 -198 -49.5t-178 -144.5l145 -109q83 -61 141.5 -88.5t112.5 -27.5zM436 354q200 0 377 195l-147 108q-83 61 -141.5 89
t-110.5 28q-35 0 -70 -12t-67 -35.5t-52 -66t-20 -97.5q0 -92 56 -150.5t175 -58.5z" />
    <glyph glyph-name="integral" unicode="&#x222b;" horiz-adv-x="673" 
d="M557 1542q70 0 117 -14v-96q-49 6 -96 6q-38 0 -65 -5.5t-53.5 -21.5t-42.5 -44t-26 -75.5t-10 -113.5q0 -111 41.5 -556.5t40.5 -562.5q-1 -110 -28 -187t-76.5 -118.5t-109.5 -59.5t-138 -18q-59 0 -111 15v98q35 -6 109 -6q34 1 56 4.5t49.5 18.5t43 41t26.5 75.5
t11 118.5q0 111 -41.5 557t-40.5 561q3 383 344 383z" />
    <glyph glyph-name="approxequal" unicode="&#x2248;" 
d="M1069 498l55 -56q-12 -33 -31.5 -66.5t-51 -71t-78 -61.5t-99.5 -24q-44 0 -95.5 21t-176.5 88q-43 23 -111.5 60.5t-111.5 60.5l-181 -164l-55 55q12 34 33.5 68.5t53.5 71.5t78 60t97 23q42 0 96.5 -21t176.5 -87l223 -121zM1069 920l55 -56q-12 -33 -31.5 -66.5
t-51 -71t-78 -61.5t-99.5 -24q-44 0 -95.5 21t-176.5 88q-41 22 -223 120l-181 -163l-55 55q12 34 33.5 68.5t53.5 71.5t78 60t97 23q42 0 96.5 -21t176.5 -87l223 -121z" />
    <glyph glyph-name="notequal" unicode="&#x2260;" 
d="M793 743l-181 -286h504v-123h-581l-197 -311l-92 49l-13 20l154 242h-246v123h324l180 286h-504v123h582l195 308l92 -48l12 -20l-152 -240h246v-123h-323z" />
    <glyph glyph-name="lessequal" unicode="&#x2264;" 
d="M1022 1008l-651 -316v-20l651 -316l-57 -110l-783 362v148l783 362zM1049 0h-893v123h893v-123z" />
    <glyph glyph-name="greaterequal" unicode="&#x2265;" 
d="M1071 756v-148l-782 -362l-58 110l652 316v20l-652 316l58 110zM1098 0h-893v123h893v-123z" />
    <glyph glyph-name="dotmath" unicode="&#x22c5;" 
d="M651 721q33 0 54 -6q45 -61 45 -117q0 -57 -37 -113h-166l-37 205q57 31 141 31z" />
    <glyph glyph-name="uni24EA" unicode="&#x24ea;" horiz-adv-x="1601" 
d="M801 1389q144 0 275 -56t226 -151t151 -226.5t56 -275.5q0 -192 -95 -355t-258 -257.5t-355 -94.5q-144 0 -275.5 56t-226.5 150.5t-151 225.5t-56 275q0 115 36 223.5t101.5 195.5t152.5 152.5t195.5 101.5t223.5 36zM801 1290q-165 0 -303.5 -83.5t-216.5 -223.5
t-78 -303t78 -302.5t216.5 -222.5t303.5 -83t303.5 83t216.5 222.5t78 302.5t-78 303t-216.5 223.5t-303.5 83.5zM811 1083q149 0 229 -110t80 -283q0 -184 -88.5 -297.5t-238.5 -113.5q-101 0 -173 54t-105.5 141.5t-33.5 199.5q0 183 89.5 296t240.5 113zM801 1001
q-170 0 -170 -317q0 -171 43.5 -247.5t126.5 -76.5q170 0 170 324q0 317 -170 317z" />
    <glyph glyph-name="uni24FF" unicode="&#x24ff;" horiz-adv-x="1601" 
d="M801 1389q144 0 275 -56t226 -151t151 -226.5t56 -275.5q0 -192 -95 -355t-258 -257.5t-355 -94.5q-144 0 -275.5 56t-226.5 150.5t-151 225.5t-56 275q0 115 36 223.5t101.5 195.5t152.5 152.5t195.5 101.5t223.5 36zM811 1083q-151 0 -240.5 -113t-89.5 -296
q0 -112 33.5 -199.5t105.5 -141.5t173 -54q150 0 238.5 113.5t88.5 297.5q0 173 -80 283t-229 110zM801 1001q170 0 170 -317q0 -324 -170 -324q-83 0 -126.5 76.5t-43.5 247.5q0 317 170 317z" />
    <glyph glyph-name="filledbox" unicode="&#x25a0;" horiz-adv-x="1671" 
d="M1460 57h-1249v1250h1249v-1250z" />
    <glyph glyph-name="H22073" unicode="&#x25a1;" horiz-adv-x="1671" 
d="M1460 57h-1249v1250h1249v-1250zM354 1174v-984h963v984h-963z" />
    <glyph glyph-name="H18543" unicode="&#x25aa;" horiz-adv-x="1120" 
d="M950 174h-780v778h780v-778z" />
    <glyph glyph-name="H18551" unicode="&#x25ab;" horiz-adv-x="1120" 
d="M950 174h-780v778h780v-778zM303 829v-532h514v532h-514z" />
    <glyph glyph-name="triagup" unicode="&#x25b2;" horiz-adv-x="1632" 
d="M1544 147l-6 -20h-1444l-6 20l721 1242h20z" />
    <glyph glyph-name="uni25B3" unicode="&#x25b3;" horiz-adv-x="1632" 
d="M1544 147l-6 -20h-1444l-6 20l721 1242h20zM819 1114l-493 -856h985z" />
    <glyph glyph-name="uni25B4" unicode="&#x25b4;" horiz-adv-x="1253" 
d="M1165 195l-6 -21h-1065l-6 21l530 856h21z" />
    <glyph glyph-name="uni25B5" unicode="&#x25b5;" horiz-adv-x="1253" 
d="M1165 195l-6 -21h-1065l-6 21l530 856h21zM627 823l-320 -526h641z" />
    <glyph glyph-name="uni25B6" unicode="&#x25b6;" horiz-adv-x="1396" 
d="M1309 688v-20l-1078 -695l-20 7v1402l20 7z" />
    <glyph glyph-name="uni25B7" unicode="&#x25b7;" horiz-adv-x="1396" 
d="M1309 688v-20l-1078 -695l-20 7v1402l20 7zM344 1157v-956l739 477z" />
    <glyph glyph-name="uni25B8" unicode="&#x25b8;" horiz-adv-x="1093" 
d="M1006 610v-20l-816 -527l-20 7v1065l20 6z" />
    <glyph glyph-name="uni25B9" unicode="&#x25b9;" horiz-adv-x="1093" 
d="M1006 610v-20l-816 -527l-20 7v1065l20 6zM303 909v-618l477 309z" />
    <glyph glyph-name="triagdn" unicode="&#x25bc;" horiz-adv-x="1632" 
d="M1538 1219l6 -21l-715 -1241h-20l-721 1241l6 21h1444z" />
    <glyph glyph-name="uni25BD" unicode="&#x25bd;" horiz-adv-x="1632" 
d="M1538 1235l6 -21l-715 -1241h-20l-721 1241l6 21h1444zM326 1104l493 -856l492 856h-985z" />
    <glyph glyph-name="uni25BE" unicode="&#x25be;" horiz-adv-x="1253" 
d="M1159 1022l6 -21l-526 -856h-21l-530 856l6 21h1065z" />
    <glyph glyph-name="uni25BF" unicode="&#x25bf;" horiz-adv-x="1253" 
d="M1159 1024l6 -20l-526 -857h-21l-530 857l6 20h1065zM307 901l320 -526l321 526h-641z" />
    <glyph glyph-name="uni25C0" unicode="&#x25c0;" horiz-adv-x="1396" 
d="M88 668v20l1077 701l21 -7v-1402l-21 -7z" />
    <glyph glyph-name="uni25C1" unicode="&#x25c1;" horiz-adv-x="1433" 
d="M88 668v20l1077 701l21 -7v-1402l-21 -7zM1053 201v956l-740 -479z" />
    <glyph glyph-name="uni25C2" unicode="&#x25c2;" horiz-adv-x="1093" 
d="M88 590v20l815 531l21 -6v-1065l-21 -7z" />
    <glyph glyph-name="uni25C3" unicode="&#x25c3;" horiz-adv-x="1093" 
d="M88 590v20l815 531l21 -6v-1065l-21 -7zM791 291v618l-478 -309z" />
    <glyph glyph-name="lozenge" unicode="&#x25ca;" horiz-adv-x="1277" 
d="M1190 678v-21l-537 -700h-20l-545 711v20l537 701h20zM633 1176l-379 -494l391 -508l377 492z" />
    <glyph glyph-name="circle" unicode="&#x25cb;" horiz-adv-x="1601" 
d="M805 1389q141 0 271 -56t225 -150.5t151.5 -224t56.5 -270.5q0 -189 -95.5 -354t-258 -263t-350.5 -98q-140 0 -271.5 58t-228 154t-155 228t-58.5 273t58 271.5t154.5 225t228 150.5t272.5 56zM805 1251q-237 0 -400 -162.5t-163 -402.5q0 -157 74 -289.5t203.5 -210
t285.5 -77.5q155 0 283 77.5t200 209.5t72 290q0 157 -72 286.5t-199.5 204t-283.5 74.5z" />
    <glyph glyph-name="H18533" unicode="&#x25cf;" horiz-adv-x="1601" 
d="M805 1389q141 0 271 -56t225 -150.5t151.5 -224t56.5 -270.5q0 -189 -95.5 -354t-258 -263t-350.5 -98q-140 0 -271.5 58t-228 154t-155 228t-58.5 273t58 271.5t154.5 225t228 150.5t272.5 56z" />
    <glyph glyph-name="uni2605" unicode="&#x2605;" horiz-adv-x="1636" 
d="M995 858h557l7 -22l-453 -322l170 -528l-16 -11l-443 338l-440 -340l-17 13l168 530l-450 320l6 22h557l166 520h20z" />
    <glyph glyph-name="uni2606" unicode="&#x2606;" horiz-adv-x="1636" 
d="M995 858h557l7 -22l-453 -320l170 -530l-16 -11l-443 338l-440 -340l-17 13l168 530l-450 320l6 22h557l166 520h20zM729 735h-299l242 -172l-86 -272l229 178l234 -178l-88 272l243 172h-299l-88 273z" />
    <glyph glyph-name="uni261A" unicode="&#x261a;" horiz-adv-x="2318" 
d="M1849 217v637l25 170l360 -20v-1004h-360zM954 1024h242l571 -147v-689q-107 -120 -301 -120q-86 0 -196 24q-144 -136 -207 -176q-94 0 -161.5 55.5t-76.5 134.5q-163 66 -163 195v2q-132 63 -132 182q0 17 5 37l9.5 9.5t37.5 27.5t74 44t127 57.5t188 68.5l-8 25
q-610 -97 -758 -97q-68 30 -110 73t-42 120q0 10 0.5 19t3 19.5t4 18t5.5 20t5.5 18t7 21t7.5 21.5q509 37 868 37zM373 954l-43 7q-14 -61 -58.5 -78t-148.5 -17l-2 -26q129 -40 190.5 -1t61.5 115zM1067 512l-12 25q-209 -55 -336 -177l55 -45q17 20 39 39t57.5 42
t55.5 35t72 41.5t69 39.5zM1188 309l-12 25q-68 -17 -121.5 -40t-90.5 -50t-51.5 -40.5t-35.5 -35.5l57 -39q63 75 254 180z" />
    <glyph glyph-name="uni261B" unicode="&#x261b;" horiz-adv-x="2318" 
d="M469 854v-637l-25 -217h-360v1004l360 20zM1122 1024h242q160 0 377 -9t354 -19l137 -9q2 -6 7.5 -21.5t7 -21t5.5 -18t5.5 -20t4 -18t3 -19.5t0.5 -19q0 -41 -13 -73.5t-37 -55t-47 -36.5t-54 -28q-148 0 -758 97l-8 -25q104 -34 187.5 -68t128 -58t74 -43t38.5 -28
l8 -10q4 -16 4 -37q0 -119 -131 -182v-2q0 -128 -164 -195q-9 -79 -76.5 -134.5t-161.5 -55.5q-60 38 -206 176q-110 -24 -197 -24q-194 0 -301 120v689zM1989 961l-43 -7q0 -76 61.5 -115t190.5 1l-3 26q-104 0 -148 17t-58 78zM1264 537l-13 -25q17 -10 69 -39.5t72 -41.5
t55.5 -35t57.5 -42t39 -39l55 45q-127 122 -335 177zM1143 334l-13 -25q191 -105 254 -180l58 39q-21 22 -35.5 35.5t-51.5 40.5t-90.5 50t-121.5 40z" />
    <glyph glyph-name="uni261C" unicode="&#x261c;" horiz-adv-x="2318" 
d="M86 987q512 37 868 37h242l657 -170l21 170l360 -20v-93h-258q-12 -199 -12 -399t12 -399l258 -21v-92h-360l-23 221h-20q-136 -153 -363 -153q-104 0 -198 24q-144 -136 -207 -176q-94 0 -161.5 55.5t-76.5 134.5q-163 66 -163 195v2q-136 65 -136 180q0 24 9 80
q126 69 239 111l-6 20q-473 -69 -563 -69q-68 32 -110 79t-42 132q0 58 33 151zM956 780l27 -84q-107 -51 -200 -113t-126 -110q0 -41 25 -82q44 35 135 79.5t232 82.5l32 -66q-20 -12 -69 -39.5t-71.5 -41t-56.5 -35.5t-56.5 -41t-39.5 -39q0 -41 35 -90q177 118 338 159
l33 -65q-189 -104 -248 -180q0 -61 60 -117q37 40 109 97.5t153 103.5q110 -27 194 -27q240 0 391 180v400l-657 170h-242q-265 -4 -772 -33q-6 -30 -6 -62q0 -56 43 -102q22 2 122.5 11.5t139.5 13t124.5 11t134.5 10.5t110 6t106 3z" />
    <glyph glyph-name="uni261D" unicode="&#x261d;" horiz-adv-x="1357" 
d="M987 -129l221 -23v-258h-92l-20 177q-199 12 -400 12q-200 0 -399 -12v-177h-92l-21 258l170 21l-170 534v242q0 336 37 823q93 33 152 33q85 0 132 -41.5t79 -109.5q0 -55 -16 -161t-54 -330q-3 -15 -4.5 -23t-3.5 -21t-4 -24l20 -5q38 87 75.5 152.5t57 91.5t31.5 35
q16 4 39 4q116 0 180 -131h2q128 0 195 -164q79 -9 134.5 -76t55.5 -161q-25 -41 -77.5 -96.5t-102.5 -90.5q29 -89 29 -174t-31.5 -143.5t-122.5 -141.5v-20zM457 -131h399q103 95 141.5 156t38.5 147q0 53 -26 160q47 82 103.5 154t96.5 108q-55 59 -116 59
q-79 -61 -181 -247l-65 32q25 101 79.5 185t102.5 135q-53 53 -112 53q-20 -17 -39 -39t-42 -57.5t-35 -55.5t-41.5 -72t-39.5 -69l-66 33q57 215 183 352q-53 39 -103 39q-24 -16 -55 -56.5t-52.5 -75.5t-60.5 -102t-55 -92l-84 27q0 81 9.5 200t24.5 273t21 240
q-43 43 -102 43q-29 0 -59 -6q-35 -405 -35 -748v-242z" />
    <glyph glyph-name="uni261E" unicode="&#x261e;" horiz-adv-x="2318" 
d="M2232 987q33 -93 33 -151q0 -85 -41.5 -132t-109.5 -79q-91 0 -564 69l-6 -20q116 -43 240 -111q8 -50 8 -80q0 -115 -135 -180v-2q0 -128 -164 -195q-9 -79 -76.5 -134.5t-161.5 -55.5q-60 38 -206 176q-94 -24 -199 -24q-227 0 -363 153h-20l-23 -221h-360v92l258 21
q12 199 12 399t-12 399h-258v93l360 20l21 -170l657 170h242q356 0 868 -37zM1335 696l27 84q45 0 106 -3t110 -6t134.5 -10.5t124.5 -11t139.5 -13t122.5 -11.5q43 46 43 102q0 32 -6 62q-507 29 -772 33h-242l-657 -170v-400q151 -180 391 -180q85 0 195 27
q81 -46 153 -103.5t109 -97.5q59 55 59 117q-59 76 -248 180l33 65q161 -41 338 -159q35 49 35 90q-17 20 -39.5 39t-56.5 41t-56.5 35.5t-71.5 41t-69 39.5l33 66q247 -66 366 -162q25 41 25 82q-33 48 -126 110t-200 113z" />
    <glyph glyph-name="uni261F" unicode="&#x261f;" horiz-adv-x="1357" 
d="M1208 1217l-221 -23v-20q91 -83 122.5 -141.5t31.5 -143.5t-29 -174q50 -35 102.5 -90.5t77.5 -96.5q0 -94 -55.5 -161t-134.5 -76q-67 -164 -195 -164h-2q-64 -131 -180 -131q-23 0 -39 4q-12 9 -31.5 35t-57 91.5t-75.5 152.5l-20 -5q72 -424 79 -507q3 -29 3 -52
q-32 -68 -79 -109.5t-132 -41.5q-59 0 -152 33q-37 487 -37 823v242l170 534l-170 21l21 258h92v-177q199 -12 399 -12t400 12l20 177h92v-258zM856 1196h-399l-170 -534v-242q0 -343 35 -748q30 -6 59 -6q59 0 102 43q-6 86 -21 240t-24.5 273t-9.5 200l84 27
q16 -25 55 -92t60.5 -102t52.5 -75.5t55 -56.5q50 0 103 39q-126 137 -183 352l66 33q10 -17 39.5 -69t41.5 -72t35 -55.5t42 -57.5t39 -39q59 0 112 53q-48 51 -102.5 135t-79.5 185l65 32q102 -186 181 -247q61 0 116 59q-40 36 -96.5 108t-103.5 154q26 107 26 160
q0 86 -38.5 147t-141.5 156z" />
    <glyph glyph-name="uni2661" unicode="&#x2661;" horiz-adv-x="1613" 
d="M1167 1051q97 0 177.5 -42t131 -130t50.5 -207q0 -91 -29.5 -166.5t-80.5 -129.5t-113.5 -100t-133 -86.5t-134.5 -78t-123.5 -85.5t-94.5 -100h-20q-35 52 -94.5 100t-123.5 85.5t-134.5 78t-133 86.5t-113.5 100t-80.5 129.5t-29.5 166.5q0 178 103.5 278.5
t254.5 100.5q132 0 226.5 -81.5t124.5 -232.5h20q30 151 124 232.5t226 81.5zM1169 938q-79 0 -146.5 -49t-109.5 -122.5t-65 -162.5h-82q-23 89 -65 162.5t-110 122.5t-147 49q-100 0 -161.5 -73t-61.5 -191q0 -68 22 -125.5t61 -100t87 -79.5t104.5 -71t109 -66.5
t105 -74.5t87.5 -87h20q35 45 87.5 87t105 74.5t109 66.5t104.5 71t87 79.5t61 100t22 125.5q0 118 -62 191t-162 73z" />
    <glyph glyph-name="heart" unicode="&#x2665;" horiz-adv-x="1613" 
d="M1167 1051q97 0 177.5 -42t131 -130t50.5 -207q0 -91 -29.5 -166.5t-80.5 -129.5t-113.5 -100t-133 -86.5t-134.5 -78t-123.5 -85.5t-94.5 -100h-20q-35 52 -94.5 100t-123.5 85.5t-134.5 78t-133 86.5t-113.5 100t-80.5 129.5t-29.5 166.5q0 178 103.5 278.5
t254.5 100.5q132 0 226.5 -81.5t124.5 -232.5h20q30 151 124 232.5t226 81.5z" />
    <glyph glyph-name="uni275B" unicode="&#x275b;" horiz-adv-x="909" 
d="M764 1389l35 -91q-95 -45 -168 -91.5t-134 -102.5t-93.5 -122t-32.5 -138q0 -39 2 -62l424 -88l14 -669q-140 -52 -291 -52q-72 0 -159.5 14t-149.5 42q-26 42 -43 74.5t-41 91.5t-36.5 132t-12.5 154q0 147 44.5 287t128.5 261.5t216 216t297 143.5z" />
    <glyph glyph-name="uni275C" unicode="&#x275c;" horiz-adv-x="909" 
d="M389 1389q72 0 159.5 -14t149.5 -42q26 -42 43 -74.5t41 -91.5t36.5 -132t12.5 -154q0 -147 -44.5 -287t-128.5 -261.5t-216 -216t-297 -143.5l-34 90q95 45 168 91.5t134 103t93.5 122.5t32.5 138q0 39 -2 62l-424 88l-15 669q140 52 291 52z" />
    <glyph glyph-name="uni275D" unicode="&#x275d;" horiz-adv-x="1779" 
d="M1634 1389l35 -91q-95 -45 -168 -91.5t-134 -102.5t-93.5 -122t-32.5 -138q0 -39 2 -62l424 -88l14 -669q-140 -52 -290 -52q-72 0 -160 14t-150 42q-26 42 -43 74.5t-41 91.5t-36.5 132t-12.5 154q0 147 44.5 287t128.5 261.5t216 216t297 143.5zM764 1389l35 -91
q-95 -45 -168 -91.5t-134 -102.5t-93.5 -122t-32.5 -138q0 -39 2 -62l424 -88l14 -669q-140 -52 -291 -52q-72 0 -159.5 14t-149.5 42q-26 42 -43 74.5t-41 91.5t-36.5 132t-12.5 154q0 147 44.5 287t128.5 261.5t216 216t297 143.5z" />
    <glyph glyph-name="uni275E" unicode="&#x275e;" horiz-adv-x="1779" 
d="M1260 1389q72 0 159.5 -14t149.5 -42q26 -42 43 -74.5t41 -91.5t36.5 -132t12.5 -154q0 -147 -44.5 -287t-128.5 -261.5t-216 -216t-297 -143.5l-35 90q95 45 168 91.5t134 103t93.5 122.5t32.5 138q0 39 -2 62l-424 88l-14 669q140 52 291 52zM389 1389q72 0 159.5 -14
t149.5 -42q26 -42 43 -74.5t41 -91.5t36.5 -132t12.5 -154q0 -147 -44.5 -287t-128.5 -261.5t-216 -216t-297 -143.5l-34 90q95 45 168 91.5t134 103t93.5 122.5t32.5 138q0 39 -2 62l-424 88l-15 669q140 52 291 52z" />
    <glyph glyph-name="uni275F" unicode="&#x275f;" horiz-adv-x="909" 
d="M389 1389q72 0 159.5 -14t149.5 -42q26 -42 43 -74.5t41 -91.5t36.5 -132t12.5 -154q0 -147 -44.5 -287t-128.5 -261.5t-216 -216t-297 -143.5l-34 90q95 45 168 91.5t134 103t93.5 122.5t32.5 138q0 39 -2 62l-424 88l-15 669q140 52 291 52z" />
    <glyph glyph-name="uni2760" unicode="&#x2760;" horiz-adv-x="1779" 
d="M1260 1389q72 0 159.5 -14t149.5 -42q26 -42 43 -74.5t41 -91.5t36.5 -132t12.5 -154q0 -147 -44.5 -287t-128.5 -261.5t-216 -216t-297 -143.5l-35 90q95 45 168 91.5t134 103t93.5 122.5t32.5 138q0 39 -2 62l-424 88l-14 669q140 52 291 52zM389 1389q72 0 159.5 -14
t149.5 -42q26 -42 43 -74.5t41 -91.5t36.5 -132t12.5 -154q0 -147 -44.5 -287t-128.5 -261.5t-216 -216t-297 -143.5l-34 90q95 45 168 91.5t134 103t93.5 122.5t32.5 138q0 39 -2 62l-424 88l-15 669q140 52 291 52z" />
    <glyph glyph-name="uni2766" unicode="&#x2766;" horiz-adv-x="2007" 
d="M1358 1249q169 0 295 -76.5t189 -203t63 -283.5q0 -252 -157.5 -428.5t-408.5 -224.5l-24 73q457 183 457 562q0 207 -128 338t-350 131q-84 0 -202 -27q-20 -153 -181 -270l-47 39q72 83 93 120q23 43 30 86q-85 -18 -158 -18q-145 0 -217.5 57t-72.5 146q0 90 70 147.5
t175 57.5q125 0 211.5 -78.5t98.5 -198.5q140 51 264 51zM672 1260q0 -59 51 -89t131 -30q63 0 135 20q-10 90 -71.5 145.5t-135.5 55.5q-53 0 -81.5 -29t-28.5 -73zM1526 600q0 -111 -52.5 -213t-137 -175.5t-184.5 -125t-202 -74.5q3 -30 23 -182l-25 -14q-158 0 -314 59
t-276 157.5t-195 237.5t-75 289q0 99 33.5 180t89.5 131.5t127 77.5t149 27q146 0 260.5 -88t147.5 -236h20q40 109 127.5 184.5t200.5 75.5q120 0 201.5 -83.5t81.5 -227.5zM221 549q0 -121 65.5 -239t162 -200t206 -133t199.5 -51q-57 355 -10 641q-54 133 -139 214
t-201 81q-122 0 -202.5 -87t-80.5 -226zM952 571q-29 -162 -12 -446q65 15 128.5 43t122.5 70.5t103.5 93.5t71.5 117t27 137q0 101 -51.5 157t-127.5 56q-81 0 -141 -59.5t-121 -168.5z" />
    <glyph glyph-name="uni2776" unicode="&#x2776;" horiz-adv-x="1601" 
d="M801 1389q144 0 275 -56t226 -151t151 -226.5t56 -275.5q0 -192 -95 -355t-258 -257.5t-355 -94.5q-144 0 -275.5 56t-226.5 150.5t-151 225.5t-56 275q0 115 36 223.5t101.5 195.5t152.5 152.5t195.5 101.5t223.5 36zM887 1118l-76 4q-75 -107 -244 -116v-86
q114 0 174 18v-569l-170 -23v-82h484v82l-168 8v764z" />
    <glyph glyph-name="uni2777" unicode="&#x2777;" horiz-adv-x="1601" 
d="M801 1389q144 0 275 -56t226 -151t151 -226.5t56 -275.5q0 -192 -95 -355t-258 -257.5t-355 -94.5q-144 0 -275.5 56t-226.5 150.5t-151 225.5t-56 275q0 115 36 223.5t101.5 195.5t152.5 152.5t195.5 101.5t223.5 36zM791 1122q-115 0 -196 -52.5t-81 -127.5
q0 -58 47 -88h115l22 168q38 14 78 14q63 0 99 -36.5t36 -110.5q0 -57 -26.5 -118.5t-55 -104.5t-95 -108t-96 -89.5t-108.5 -89.5q-20 -17 -30 -25l10 -90h592q8 44 8 90q0 58 -12 111h-99l-12 -84l-182 -12q-58 -3 -166 -19l-6 19q91 69 147 114.5t119 103.5t97.5 103
t57.5 96.5t23 100.5q0 99 -77.5 167t-208.5 68z" />
    <glyph glyph-name="uni2778" unicode="&#x2778;" horiz-adv-x="1601" 
d="M801 1389q144 0 275 -56t226 -151t151 -226.5t56 -275.5q0 -192 -95 -355t-258 -257.5t-355 -94.5q-144 0 -275.5 56t-226.5 150.5t-151 225.5t-56 275q0 115 36 223.5t101.5 195.5t152.5 152.5t195.5 101.5t223.5 36zM815 1122q-115 0 -195.5 -48.5t-80.5 -121.5
q0 -52 49 -86h104l19 156q54 14 90 14q137 0 137 -135q0 -107 -82 -158h-145v-79h71q183 0 183 -164q0 -168 -181 -168q-37 0 -77 8l-25 164h-113q-45 -33 -45 -92q0 -78 75 -122t185 -44q148 0 244 74t96 188q0 138 -172 186v21q146 54 146 182q0 98 -76.5 161.5
t-206.5 63.5z" />
    <glyph glyph-name="uni2779" unicode="&#x2779;" horiz-adv-x="1601" 
d="M801 1389q144 0 275 -56t226 -151t151 -226.5t56 -275.5q0 -192 -95 -355t-258 -257.5t-355 -94.5q-144 0 -275.5 56t-226.5 150.5t-151 225.5t-56 275q0 115 36 223.5t101.5 195.5t152.5 152.5t195.5 101.5t223.5 36zM866 1075l-133 49q-122 -332 -264 -655l8 -59h369
v-146h139v146h141v102h-141v274l-47 5l-92 -19v-260h-92q-76 0 -170 -16l-6 16q124 199 294 543z" />
    <glyph glyph-name="uni277A" unicode="&#x277a;" horiz-adv-x="1601" 
d="M801 1389q144 0 275 -56t226 -151t151 -226.5t56 -275.5q0 -192 -95 -355t-258 -257.5t-355 -94.5q-144 0 -275.5 56t-226.5 150.5t-151 225.5t-56 275q0 115 36 223.5t101.5 195.5t152.5 152.5t195.5 101.5t223.5 36zM1073 1063l-26 59q-118 -28 -203 -28q-89 0 -164 28
l-109 -18l-14 -399l174 -11q107 -6 156 -49t49 -127q0 -92 -50 -139t-132 -47q-28 0 -68 8l-24 164h-111q-47 -33 -47 -90q0 -79 75.5 -123.5t180.5 -44.5q149 0 244.5 89t95.5 214q0 116 -82 189t-195 73q-77 0 -180 -29l23 211q82 -28 163 -28q76 0 139.5 26.5t104.5 71.5
z" />
    <glyph glyph-name="uni277B" unicode="&#x277b;" horiz-adv-x="1601" 
d="M801 1389q144 0 275 -56t226 -151t151 -226.5t56 -275.5q0 -192 -95 -355t-258 -257.5t-355 -94.5q-144 0 -275.5 56t-226.5 150.5t-151 225.5t-56 275q0 115 36 223.5t101.5 195.5t152.5 152.5t195.5 101.5t223.5 36zM903 1122q-90 0 -170.5 -30t-144.5 -87
t-101.5 -149.5t-37.5 -208.5q0 -182 87 -291.5t238 -109.5q141 0 237.5 92.5t96.5 214.5q0 110 -77.5 190t-186.5 80q-118 0 -207 -86h-21q15 167 112 235.5t296 65.5l4 70q-61 14 -125 14zM791 721q71 0 111 -47t40 -142q0 -100 -44 -150t-116 -50q-35 0 -61.5 11
t-52.5 40.5t-40 91.5t-14 154q46 47 86.5 69.5t90.5 22.5z" />
    <glyph glyph-name="uni277C" unicode="&#x277c;" horiz-adv-x="1601" 
d="M801 1389q144 0 275 -56t226 -151t151 -226.5t56 -275.5q0 -192 -95 -355t-258 -257.5t-355 -94.5q-144 0 -275.5 56t-226.5 150.5t-151 225.5t-56 275q0 115 36 223.5t101.5 195.5t152.5 152.5t195.5 101.5t223.5 36zM1104 1096h-588q-6 -41 -6 -80q0 -84 12 -142h86
l17 105l354 31l6 -19q-185 -259 -270.5 -402.5t-85.5 -226.5q0 -42 22 -80.5t62 -54.5l114 43l-34 136q49 211 323 634z" />
    </font>
</defs>
</svg>
