<?xml version="1.0" standalone="no"?>
<!DOCTYPE svg PUBLIC "-//W3C//DTD SVG 1.1//EN" "http://www.w3.org/Graphics/SVG/1.1/DTD/svg11.dtd" >
<svg xmlns="http://www.w3.org/2000/svg" xmlns:xlink="http://www.w3.org/1999/xlink" version="1.1">
<metadata>
Created by FontForge 20170731 at Wed Jan 19 21:51:13 2022
 By Aleksey,,,
2014 published by FontShop International GmbH
</metadata>
<defs>
<font id="FranziskaPro-ExtraboldItalic" horiz-adv-x="1259" >
  <font-face 
    font-family="FranziskaPro-ExtraboldItalic"
    font-weight="750"
    font-style="italic"
    font-stretch="normal"
    units-per-em="2048"
    panose-1="2 1 9 4 5 1 1 1 1 2"
    ascent="1612"
    descent="-436"
    x-height="1077"
    cap-height="1362"
    bbox="-1479 -569 2763 1993"
    underline-thickness="163"
    underline-position="-367"
    slope="-6.5"
    unicode-range="U+000D-1F44E"
  />
<missing-glyph horiz-adv-x="1417" 
d="M1292 1362l-137 -1362h-991l137 1362h991zM1114 1204h-604l512 -915zM344 158h592l-502 897z" />
    <glyph glyph-name="T_h" unicode="Th" horiz-adv-x="2248" 
d="M2183 184l6 -114q-157 -95 -301 -95q-176 0 -176 160q0 71 49 328t49 317q0 37 -13.5 53.5t-47.5 16.5q-23 0 -37 -2q-154 -246 -293 -848q-119 -25 -254 -25l-61 66l149 1194q-70 -55 -206 -55q-57 0 -160 14l-103 -1055l121 -16v-55l-8 -68h-651v121q45 25 176 49
l104 1049h-149l-88 -254l-189 10q-4 62 -4 94q0 154 47 309l2 11l80 10l496 -37h254q180 0 299 35l12 106q152 36 273 39l61 -63l-45 -336q-23 -183 -105 -553l23 -4q34 96 60 161.5t56 125.5t59.5 95.5t66.5 63t79.5 38.5t96.5 11q128 0 183.5 -60.5t55.5 -174.5
q0 -153 -100 -682q47 0 133 20z" />
    <glyph glyph-name="T_k" unicode="Tk" horiz-adv-x="2258" 
d="M2198 184l8 -114q-128 -95 -279 -95q-50 0 -85.5 11t-59.5 35.5t-38.5 49.5t-31.5 66q-58 143 -74 299l82 31q46 61 74.5 144t28.5 155q0 46 -16 65t-54 19q-9 0 -41 -4q-146 -238 -293 -846q-109 -25 -254 -25l-61 66l149 1194q-70 -55 -206 -55q-57 0 -160 14
l-103 -1055l121 -16v-55l-8 -68h-651v121q45 25 176 49l104 1049h-149l-88 -254l-189 10q-4 62 -4 94q0 154 47 309l2 11l80 10l496 -37h254q180 0 299 35l12 106q152 36 273 39l61 -63l-45 -336q-23 -183 -105 -553l23 -4q101 290 189 392.5t243 102.5q262 0 262 -241
q0 -120 -62 -210t-171 -143q81 -202 123 -323q49 2 121 20z" />
    <glyph glyph-name="T_l" unicode="Tl" horiz-adv-x="1652" 
d="M1454 164q55 0 145 20l7 -114q-153 -95 -297 -95q-187 0 -187 168q0 18 2 48t7 76.5t10 91t13.5 116.5t15.5 126.5t19 146.5t20 151.5t22 167t22 168.5q-70 -55 -206 -55q-57 0 -160 14l-103 -1055l121 -16v-55l-8 -68h-651v121q45 25 176 49l104 1049h-149l-88 -254
l-189 10q-4 62 -4 94q0 154 47 309l2 11l80 10l496 -37h254q180 0 299 35l12 106q163 39 273 39l61 -63q-21 -176 -63 -479t-70 -519.5t-33 -316.5z" />
    <glyph glyph-name="Tbar_h" unicode="&#x166;h" horiz-adv-x="2248" 
d="M2183 184l6 -114q-157 -95 -301 -95q-176 0 -176 160q0 71 49 328t49 317q0 37 -13.5 53.5t-47.5 16.5q-23 0 -37 -2q-154 -246 -293 -848q-119 -25 -254 -25l-61 66l149 1194q-70 -55 -206 -55q-57 0 -160 14l-49 -514h206v-57l-16 -97h-207l-37 -387l121 -16v-55
l-8 -68h-651v121q45 25 176 49l35 356h-207v56l14 98h209l53 539h-149l-88 -254l-189 10q-4 62 -4 94q0 154 47 309l2 11l80 10l496 -37h254q180 0 299 35l12 106q152 36 273 39l61 -63l-45 -336q-23 -183 -105 -553l23 -4q34 96 60 161.5t56 125.5t59.5 95.5t66.5 63
t79.5 38.5t96.5 11q128 0 183.5 -60.5t55.5 -174.5q0 -153 -100 -682q47 0 133 20z" />
    <glyph glyph-name="Tcaron_h" unicode="&#x164;h" horiz-adv-x="2248" 
d="M2183 184l6 -114q-157 -95 -301 -95q-176 0 -176 160q0 71 49 328t49 317q0 37 -13.5 53.5t-47.5 16.5q-23 0 -37 -2q-154 -246 -293 -848q-119 -25 -254 -25l-61 66l149 1194q-70 -55 -206 -55q-57 0 -160 14l-103 -1055l121 -16v-55l-8 -68h-651v121q45 25 176 49
l104 1049h-149l-88 -254l-189 10q-4 62 -4 94q0 154 47 309l2 11l80 10l496 -37h254q180 0 299 35l12 106q152 36 273 39l61 -63l-45 -336q-23 -183 -105 -553l23 -4q34 96 60 161.5t56 125.5t59.5 95.5t66.5 63t79.5 38.5t96.5 11q128 0 183.5 -60.5t55.5 -174.5
q0 -153 -100 -682q47 0 133 20zM795 1669h20l195 170h129l-326 -375h-203l-194 310l209 94z" />
    <glyph glyph-name="f_b" unicode="fb" horiz-adv-x="1863" 
d="M1532 1081q65 0 112.5 -17t85.5 -58t57 -116t19 -185q0 -109 -18.5 -209t-63.5 -197t-114 -168t-178 -114.5t-246 -43.5q-104 0 -232 22t-229 52l162 1305q-85 23 -178 26q-62 0 -109 -8q-47 -115 -72 -336h162v-76l-20 -77h-156l-80 -828q-24 -256 -115 -372.5
t-253 -116.5q-80 0 -164 26t-152 76l25 117q171 -35 264 -37q37 111 53 266l86 850l-119 29v115q53 18 138 32q30 249 154 375.5t329 126.5q140 0 244 -55q132 51 254 57l61 -63l-45 -351q-10 -75 -26.5 -164t-29.5 -146t-31 -136.5t-22 -95.5l25 -4q33 98 58.5 163.5
t55.5 126t59.5 96.5t67 63.5t81.5 38.5t100 11zM1296 135q68 123 106 290.5t38 303.5q0 68 -14.5 94.5t-53.5 26.5q-7 0 -43 -4q-114 -193 -237 -709q63 -18 110 -18q40 0 94 16z" />
    <glyph glyph-name="f_f" unicode="ff" horiz-adv-x="1284" 
d="M1559 1235l-359 82q-26 -9 -49 -25q-6 -84 4 -258h201v-76l-19 -77h-182l-80 -828q-25 -244 -147.5 -352.5t-337.5 -108.5q-183 0 -299 78q-98 -106 -246 -106q-159 0 -295 102l25 117q171 -35 264 -37q37 111 53 266l86 850l-119 29v115q53 18 138 32q16 132 56 225
t103.5 147t142 78.5t179.5 24.5q204 0 326 -100q134 129 346 129q169 0 262 -80zM707 1354q-55 0 -119 -17q-37 -103 -58 -303h271l35 4q20 165 90 277q-115 39 -219 39zM557 -248q63 0 121 19q40 102 59 288l82 809l-88 13h-215l-80 -828q-15 -152 -69 -270q98 -31 190 -31
z" />
    <glyph glyph-name="f_f_b" unicode="ffb" horiz-adv-x="2508" 
d="M2175 1081q65 0 113 -17t86 -57.5t57.5 -116t19.5 -185.5q0 -109 -18.5 -209t-63.5 -197t-114 -168t-178 -114.5t-246 -43.5q-106 0 -235 22t-230 52l162 1303q-85 25 -180 28q-62 0 -109 -8q-47 -115 -72 -336h162v-76l-18 -77h-158l-78 -828q-22 -243 -145.5 -352
t-339.5 -109q-183 0 -299 78q-98 -106 -246 -106q-159 0 -295 102l25 117q171 -35 264 -37q37 111 53 266l86 850l-119 29v115q53 18 138 32q16 132 56 225t103.5 147t142 78.5t179.5 24.5q198 0 317 -94q121 121 324 121q147 0 244 -57q130 53 256 59l61 -63l-47 -351
q-8 -61 -18.5 -125.5t-24 -132t-22 -107t-23.5 -105.5t-16 -72l24 -4q33 97 59 163t56 126.5t59.5 96.5t67 63.5t81 38.5t99.5 11zM707 1354q-55 0 -119 -17q-37 -103 -58 -303h271l35 4q18 163 82 279q-117 37 -211 37zM557 -248q63 0 121 19q40 102 59 288l82 809l-88 13
h-215l-80 -828q-15 -152 -69 -270q98 -31 190 -31zM1939 135q68 123 106 290.5t38 303.5q0 68 -14 94.5t-52 26.5q-9 0 -41 -4q-116 -187 -239 -709q53 -18 110 -18q38 0 92 16z" />
    <glyph glyph-name="f_f_h" unicode="ffh" horiz-adv-x="2508" 
d="M2443 184l6 -114q-157 -95 -301 -95q-176 0 -176 160q0 72 49.5 329t49.5 316q0 36 -14 53t-48 17q-9 0 -37 -4q-153 -241 -293 -846q-119 -25 -254 -25l-61 66l162 1309q-82 25 -178 28q-62 0 -109 -8q-47 -115 -72 -336h162v-76l-18 -77h-158l-78 -828
q-22 -243 -145.5 -352t-339.5 -109q-183 0 -299 78q-98 -106 -246 -106q-159 0 -295 102l25 117q171 -35 264 -37q37 111 53 266l86 850l-119 29v115q53 18 138 32q16 132 56 225t103.5 147t142 78.5t179.5 24.5q198 0 317 -94q121 121 324 121q147 0 244 -57q129 53 254 59
l61 -63l-45 -351q-22 -178 -102 -538l22 -4q34 96 60 161.5t56 125.5t59.5 95.5t66.5 63t79.5 38.5t96.5 11q128 0 183.5 -60.5t55.5 -174.5q0 -153 -100 -682q47 0 133 20zM707 1354q-55 0 -119 -17q-37 -103 -58 -303h271l35 4q18 163 82 279q-117 37 -211 37zM557 -248
q63 0 121 19q40 102 59 288l82 809l-88 13h-215l-80 -828q-15 -152 -69 -270q98 -31 190 -31z" />
    <glyph glyph-name="f_f_i" unicode="ffi" horiz-adv-x="1900" 
d="M1847 184l8 -114q-157 -95 -288 -95q-94 0 -139.5 37t-45.5 125q0 99 91 744h-318l-80 -828q-25 -244 -147.5 -352.5t-337.5 -108.5q-183 0 -299 78q-98 -106 -246 -106q-159 0 -295 102l25 117q171 -35 264 -37q37 111 53 266l86 850l-119 29v115q53 18 138 32
q16 132 56 225t103.5 147t142 78.5t179.5 24.5q208 0 328 -102q143 131 403 131q327 0 412 -209l-168 -180l-289 246q-91 0 -152 -25q-37 -200 -47 -340h297q174 36 307 39l56 -63q-81 -660 -107 -846q43 0 129 20zM707 1354q-55 0 -119 -17q-37 -103 -58 -303h269l37 8
q20 158 90 273q-112 39 -219 39zM557 -248q63 0 121 19q40 102 59 288l80 801l-84 21h-217l-80 -828q-15 -152 -69 -270q98 -31 190 -31z" />
    <glyph glyph-name="f_f_j" unicode="ffj" horiz-adv-x="1886" 
d="M1825 1012l-123 -965q-30 -254 -120.5 -368.5t-246.5 -114.5q-125 0 -225 84l25 116q98 -16 172 -16q36 107 55 264l111 869h-318l-80 -828q-25 -244 -147.5 -352.5t-337.5 -108.5q-183 0 -299 78q-98 -106 -246 -106q-159 0 -295 102l25 117q171 -35 264 -37
q37 111 53 266l86 850l-119 29v115q53 18 138 32q16 132 56 225t103.5 147t142 78.5t179.5 24.5q208 0 328 -102q143 131 403 131q327 0 412 -209l-168 -180l-289 246q-91 0 -152 -25q-37 -200 -47 -340h297q182 36 307 39zM707 1354q-55 0 -119 -17q-37 -103 -58 -303h269
l37 8q20 158 90 273q-112 39 -219 39zM557 -248q63 0 121 19q40 102 59 288l80 801l-84 21h-217l-80 -828q-15 -152 -69 -270q98 -31 190 -31z" />
    <glyph glyph-name="f_f_k" unicode="ffk" horiz-adv-x="2519" 
d="M2458 184l8 -114q-128 -95 -279 -95q-94 0 -138.5 39.5t-76.5 122.5q-58 144 -74 297l82 31q47 62 75 145.5t28 155.5q0 46 -16 65t-54 19q-11 0 -39 -4q-148 -238 -295 -846q-109 -25 -254 -25l-61 66l162 1309q-82 25 -178 28q-62 0 -109 -8q-47 -115 -72 -336h162v-76
l-18 -77h-158l-78 -828q-22 -243 -145.5 -352t-339.5 -109q-183 0 -299 78q-98 -106 -246 -106q-159 0 -295 102l25 117q171 -35 264 -37q37 111 53 266l86 850l-119 29v115q53 18 138 32q16 132 56 225t103.5 147t142 78.5t179.5 24.5q198 0 317 -94q121 121 324 121
q147 0 244 -57q129 53 254 59l61 -63l-45 -351q-22 -178 -102 -538l22 -4q101 291 189 393t247 102q136 0 197 -59.5t61 -175.5q0 -245 -231 -363q70 -171 119 -317q60 3 123 18zM707 1354q-55 0 -119 -17q-37 -103 -58 -303h271l35 4q18 163 82 279q-117 37 -211 37z
M557 -248q63 0 121 19q40 102 59 288l82 809l-88 13h-215l-80 -828q-15 -152 -69 -270q98 -31 190 -31z" />
    <glyph glyph-name="f_f_l" unicode="ffl" horiz-adv-x="1912" 
d="M1712 164q58 0 148 20l6 -114q-153 -95 -297 -95q-189 0 -189 168q0 39 8.5 126.5t26 223.5t33.5 258.5t41 306.5t39 292q-82 25 -180 28q-62 0 -109 -8q-47 -115 -72 -336h162v-76l-18 -77h-158l-78 -828q-22 -243 -145.5 -352t-339.5 -109q-183 0 -299 78
q-98 -106 -246 -106q-159 0 -295 102l25 117q171 -35 264 -37q37 111 53 266l86 850l-119 29v115q53 18 138 32q16 132 56 225t103.5 147t142 78.5t179.5 24.5q198 0 317 -94q121 121 324 121q144 0 246 -57q129 57 256 59l59 -63q-22 -180 -63.5 -480t-70 -518t-34.5 -317z
M707 1354q-55 0 -119 -17q-37 -103 -58 -303h271l35 4q18 163 82 279q-117 37 -211 37zM557 -248q63 0 121 19q40 102 59 288l82 809l-88 13h-215l-80 -828q-15 -152 -69 -270q98 -31 190 -31z" />
    <glyph glyph-name="f_h" unicode="fh" horiz-adv-x="1869" 
d="M1804 184l6 -114q-157 -95 -301 -95q-176 0 -176 160q0 72 49.5 329t49.5 316q0 36 -14 53t-48 17q-9 0 -37 -4q-153 -241 -293 -846q-119 -25 -254 -25l-61 66l162 1309q-82 25 -178 28q-62 0 -109 -8q-47 -115 -72 -336h162v-76l-20 -77h-156l-80 -828
q-24 -256 -115 -372.5t-253 -116.5q-80 0 -164 26t-152 76l25 117q171 -35 264 -37q37 111 53 266l86 850l-119 29v115q53 18 138 32q30 249 154 375.5t329 126.5q147 0 244 -57q129 53 254 59l61 -63l-45 -351q-22 -178 -102 -538l22 -4q34 96 60 161.5t56 125.5t59.5 95.5
t66.5 63t79.5 38.5t96.5 11q128 0 184 -61t56 -174q0 -147 -101 -682q47 0 133 20z" />
    <glyph glyph-name="f_hbar" unicode="f&#x127;" horiz-adv-x="1869" 
d="M1804 184l6 -114q-157 -95 -301 -95q-176 0 -176 160q0 72 49.5 329t49.5 316q0 36 -14 53t-48 17q-9 0 -37 -4q-153 -241 -293 -846q-119 -25 -254 -25l-61 66l162 1309q-82 25 -178 28q-62 0 -109 -8q-47 -115 -72 -336h162v-76l-20 -77h-156l-80 -828
q-24 -256 -115 -372.5t-253 -116.5q-80 0 -164 26t-152 76l25 117q171 -35 264 -37q37 111 53 266l86 850l-119 29v115q53 18 138 32q30 249 154 375.5t329 126.5q147 0 244 -57q129 53 254 59l61 -63l-12 -103h254v-67l-17 -78h-258l-12 -103q-22 -178 -102 -538l22 -4
q34 96 60 161.5t56 125.5t59.5 95.5t66.5 63t79.5 38.5t96.5 11q128 0 184 -61t56 -174q0 -147 -101 -682q47 0 133 20z" />
    <glyph glyph-name="f_i" unicode="fi" horiz-adv-x="1261" 
d="M1208 184l9 -114q-157 -95 -289 -95q-95 0 -140 37t-45 125q0 99 91 744h-318l-80 -828q-26 -256 -117 -372.5t-253 -116.5q-80 0 -164 26t-152 76l25 117q171 -35 264 -37q37 111 53 266l86 850l-119 29v115q53 18 138 32q65 504 573 504q330 0 412 -209l-166 -180
l-291 246q-82 0 -152 -25q-37 -200 -47 -340h297q182 36 305 39l58 -63q-80 -645 -109 -846q45 0 131 20z" />
    <glyph glyph-name="f_icircumflex" unicode="f&#xee;" 
d="M1077 164q43 0 129 20l8 -114q-157 -95 -288 -95q-94 0 -139.5 37t-45.5 125q0 106 90 744h-315l-80 -828q-24 -256 -116 -372.5t-254 -116.5q-80 0 -164 26t-152 76l25 117q171 -35 264 -37q37 111 53 266l86 850l-119 29v115q53 18 138 32q31 263 152 381.5t333 118.5
q133 0 246 -45l65 98h203l129 -348l-207 -82l-110 197h-21l-137 -180h-127l123 186q-45 6 -129 10q-74 0 -123 -10q-43 -111 -64 -330h291q182 36 307 39l56 -63q-81 -660 -107 -846z" />
    <glyph glyph-name="f_imacron" unicode="f&#x12b;" 
d="M1270 1264h-504q-6 24 -6 55q0 15 4 51l-53 2q-68 0 -117 -10q-43 -111 -64 -328h291q182 36 307 39l56 -63q-81 -660 -107 -846q41 0 131 20l6 -114q-157 -95 -292 -95q-91 0 -136 37.5t-45 122.5q0 108 90 746h-315l-80 -828q-24 -256 -116 -372.5t-254 -116.5
q-80 0 -164 26t-152 76l25 117q171 -35 264 -37q37 111 53 266l86 850l-119 29v115q53 18 138 32q31 262 154 380t331 118q182 0 309 -78h301q6 -24 6 -57q0 -68 -28 -137z" />
    <glyph glyph-name="f_iogonek" unicode="f&#x12f;" 
d="M1040 -274q31 0 93 12l4 -113q-98 -61 -244 -61q-122 0 -179 45t-55 117q3 151 250 231l-2 25q-19 -2 -51 2q-56 9 -85.5 48t-29.5 103q0 108 90 746h-315l-80 -828q-26 -256 -117 -372.5t-253 -116.5q-80 0 -164 26t-152 76l25 117q171 -35 264 -37q37 111 53 266
l86 850l-119 29v115q53 18 138 32q65 504 573 504q327 0 412 -209l-168 -180l-289 246q-91 -3 -152 -25q-37 -200 -47 -340h295q182 36 307 39l56 -63q-81 -660 -107 -846q41 0 131 20l6 -114q-140 -75 -203 -135t-63 -123q0 -86 92 -86z" />
    <glyph glyph-name="f_j" unicode="fj" horiz-adv-x="1245" 
d="M1184 1010l-123 -963q-32 -255 -121.5 -369t-245.5 -114q-116 0 -243 84l43 116q98 -16 172 -16q36 107 55 264l110 869h-315l-80 -828q-26 -256 -117 -372.5t-253 -116.5q-81 0 -164.5 26t-151.5 78l25 117q160 -37 264 -37q37 108 53 264l86 850l-119 29v115
q53 18 138 32q65 504 573 504q326 0 412 -207l-168 -182l-289 246q-91 -3 -152 -25q-37 -194 -47 -340h295q182 36 307 39z" />
    <glyph glyph-name="f_k" unicode="fk" horiz-adv-x="1880" 
d="M1819 184l8 -114q-128 -95 -279 -95q-94 0 -138.5 39.5t-76.5 122.5q-57 140 -73 297l81 31q47 62 75 145.5t28 155.5q0 46 -16 65t-54 19q-11 0 -39 -4q-148 -238 -295 -846q-109 -25 -254 -25l-61 66l162 1309q-82 25 -178 28q-62 0 -109 -8q-47 -115 -72 -336h162v-76
l-20 -77h-156l-80 -828q-24 -256 -115 -372.5t-253 -116.5q-80 0 -164 26t-152 76l25 117q171 -35 264 -37q37 111 53 266l86 850l-119 29v115q53 18 138 32q30 249 154 375.5t329 126.5q147 0 244 -57q129 53 254 59l61 -63l-45 -351q-22 -178 -102 -538l22 -4
q101 291 189 393t247 102q136 0 197 -59.5t61 -175.5q0 -245 -231 -363q70 -171 119 -317q60 3 123 18z" />
    <glyph glyph-name="f_l" unicode="fl" horiz-adv-x="1273" 
d="M1073 164q58 0 148 20l6 -114q-153 -95 -297 -95q-189 0 -189 170q0 158 148 1205q-82 25 -180 28q-62 0 -109 -8q-47 -115 -72 -336h162v-76l-20 -77h-156l-80 -828q-24 -256 -115 -372.5t-253 -116.5q-80 0 -164 26t-152 76l25 117q171 -35 264 -37q37 111 53 266
l86 850l-119 29v115q53 18 138 32q30 249 154 375.5t329 126.5q144 0 246 -57q129 57 256 59l59 -63q-19 -150 -64 -473t-71.5 -532t-32.5 -310z" />
    <glyph glyph-name="f_lacute" unicode="f&#x13a;" horiz-adv-x="1269" 
d="M1186 1524h-148l111 319h209q59 -46 78 -155zM1163 1432l60 -64q-22 -180 -60 -451.5t-63 -462.5t-31 -290q58 0 148 20l6 -114q-153 -95 -297 -95q-189 0 -189 170q0 60 20 222.5t63 471t59 433.5q-79 25 -187 28q-59 0 -106 -8q-43 -112 -56 -258h160v-76l-20 -77h-154
l-80 -828q-24 -256 -116 -372.5t-254 -116.5q-80 0 -164 26t-152 76l25 117q171 -35 264 -37q37 111 53 266l86 850l-119 29v115q53 18 138 32q26 200 148.5 312t320.5 112q151 0 262 -65q102 32 235 35z" />
    <glyph glyph-name="f_lcaron" unicode="f&#x13e;" horiz-adv-x="1554" 
d="M1073 164q58 0 148 20l6 -114q-153 -95 -297 -95q-189 0 -189 170q0 158 148 1205q-82 25 -180 28q-62 0 -109 -8q-47 -115 -72 -336h162v-76l-20 -77h-156l-80 -828q-24 -256 -115 -372.5t-253 -116.5q-80 0 -164 26t-152 76l25 117q171 -35 264 -37q37 111 53 266
l86 850l-119 29v115q53 18 138 32q30 249 154 375.5t329 126.5q144 0 246 -57q129 57 256 59l59 -63q-19 -150 -64 -473t-71.5 -532t-32.5 -310zM1493 1542q94 0 172 -53q-15 -132 -66 -236.5t-159 -214.5h-115l66 273v217q47 14 102 14z" />
    <glyph glyph-name="uni021A_h" unicode="&#x21a;h" horiz-adv-x="2248" 
d="M2183 184l6 -114q-157 -95 -301 -95q-176 0 -176 160q0 71 49 328t49 317q0 37 -13.5 53.5t-47.5 16.5q-23 0 -37 -2q-154 -246 -293 -848q-119 -25 -254 -25l-61 66l149 1194q-70 -55 -206 -55q-57 0 -160 14l-103 -1055l121 -16v-55l-8 -68h-651v121q45 25 176 49
l104 1049h-149l-88 -254l-189 10q-4 62 -4 94q0 154 47 309l2 11l80 10l496 -37h254q180 0 299 35l12 106q152 36 273 39l61 -63l-45 -336q-23 -183 -105 -553l23 -4q34 96 60 161.5t56 125.5t59.5 95.5t66.5 63t79.5 38.5t96.5 11q128 0 183.5 -60.5t55.5 -174.5
q0 -153 -100 -682q47 0 133 20zM553 -88q83 0 145 -27q29 -39 29 -102q0 -117 -72.5 -196t-232.5 -101l-21 80q68 24 98.5 48t30.5 64v21l-100 6l19 197q46 10 104 10z" />
    <glyph glyph-name="uni030A_acutecomb" unicode="&#x30a;&#x301;" horiz-adv-x="2" 
d="M-174 1921h184q54 -51 72 -135l-275 -184h-126zM-248 1559q118 0 178 -49.5t60 -137.5q0 -101 -76 -170t-221 -69q-119 0 -178.5 48t-59.5 136q0 103 76 172.5t221 69.5zM-262 1448q-28 0 -49 -14q-33 -46 -33 -115q0 -76 53 -76q28 0 49 14q35 49 35 119q0 72 -55 72z
" />
    <glyph glyph-name=".notdef" horiz-adv-x="1417" 
d="M1292 1362l-137 -1362h-991l137 1362h991zM1114 1204h-604l512 -915zM344 158h592l-502 897z" />
    <glyph glyph-name=".null" horiz-adv-x="0" 
 />
    <glyph glyph-name="nonmarkingreturn" horiz-adv-x="682" 
 />
    <glyph glyph-name="CR" unicode="&#xd;" horiz-adv-x="512" 
 />
    <glyph glyph-name="space" unicode=" " horiz-adv-x="512" 
 />
    <glyph glyph-name="exclam" unicode="!" horiz-adv-x="614" 
d="M518 1389l60 -64q-55 -485 -205 -905h-185q6 146 14 461t13 467q157 41 303 41zM301 317q52 0 119 -18q18 -40 18 -102q0 -93 -69 -197h-250l-17 279q108 38 199 38z" />
    <glyph glyph-name="quotedbl" unicode="&#x22;" horiz-adv-x="1036" 
d="M1034 1475l-131 -529h-215v547q132 37 307 37zM565 1475l-131 -529h-215v547q132 37 307 37z" />
    <glyph glyph-name="numbersign" unicode="#" horiz-adv-x="1105" 
d="M895 717l-41 -223h174v-228l-223 -41l-45 -252h-111l-37 37l41 223h-311l-47 -260h-113l-35 37l41 223h-151v224l199 43l38 223h-174v227l224 41l45 254h114l33 -37l-41 -225h313l48 262h112l35 -37l-41 -225h150v-223zM700 494l41 229h-311l-43 -229h313z" />
    <glyph glyph-name="dollar" unicode="$" horiz-adv-x="1021" 
d="M594 772l51 -29q62 -35 99.5 -59t79 -59t63.5 -69t36.5 -81t14.5 -104q0 -68 -20.5 -127t-65.5 -111t-127.5 -86.5t-196.5 -44.5l-8 -256l-129 -22l-37 24l25 252q-194 9 -322 68q-10 78 -10 147q0 82 16 188l201 11l58 -254q27 -4 73 -8l31 325l-33 19
q-268 151 -268 374q0 144 98.5 247.5t270.5 113.5l6 244l127 22l41 -24l-27 -252q30 -9 57 -21l2 19q93 22 183 22l65 -53q4 -28 4 -53q0 -62 -13.5 -147t-35.5 -154h-186l-29 243q-32 3 -61 6zM487 1069l-18 -8q-45 -45 -45 -111q0 -36 13 -60t44 -48zM569 178
q41 41 41 109q0 40 -15.5 66.5t-55.5 54.5l-7 -246q20 6 37 16z" />
    <glyph glyph-name="percent" unicode="%" horiz-adv-x="1728" 
d="M1378 1229l13 -64q-58 -66 -113.5 -133.5t-112.5 -142.5t-100.5 -132.5t-102.5 -142.5t-91.5 -131.5t-94 -139.5t-84 -127t-87 -134t-79.5 -123l-131 45l-26 70q26 35 146 195t180 238.5t158.5 206t171.5 216t130 149.5l-18 19q-68 -64 -134 -90.5t-145 -26.5
q-56 0 -115 12q5 -62 5 -73q0 -57 -10 -111.5t-36.5 -110.5t-66 -98.5t-103.5 -69t-145 -26.5q-144 0 -218.5 82t-76.5 231q0 98 31 187t99.5 159.5t164.5 91.5l68 -59q-59 -54 -93 -175.5t-34 -260.5q0 -83 17 -116.5t58 -33.5q29 0 66 15q34 46 57 166t23 237q0 23 -4 59
q-48 48 -70 82q19 30 48.5 56.5t58.5 38.5h55q39 -56 61 -107q83 -45 195 -45q90 0 175.5 34.5t201.5 123.5l4 2zM1362 729q150 0 224.5 -82t74.5 -229q0 -59 -11 -117t-39 -118.5t-70.5 -106t-112 -74.5t-156.5 -29q-150 0 -225.5 81.5t-75.5 232.5q0 60 11.5 118.5
t40.5 118t72 104.5t112 73t155 28zM1346 94q36 47 57.5 167t21.5 224q0 75 -16.5 106.5t-54.5 31.5q-31 0 -68 -15q-36 -48 -58 -168t-22 -223q0 -74 18 -105.5t58 -31.5q32 0 64 14z" />
    <glyph glyph-name="ampersand" unicode="&#x26;" horiz-adv-x="1552" 
d="M1520 625h-224q-17 -88 -74.5 -171.5t-142.5 -150.5q31 -30 67 -62.5t63 -56t69.5 -58.5t61.5 -50t66.5 -53l57.5 -46l-75 -143q-139 4 -286.5 74.5t-283.5 189.5q-158 -125 -389 -125q-191 0 -300.5 80.5t-109.5 253.5q0 69 19 127.5t61 111t118 89t181 51.5
q-61 160 -61 299q0 103 33.5 182t93.5 126.5t139 71.5t176 24q158 0 248 -66.5t90 -202.5q0 -57 -18.5 -114t-57.5 -114t-111 -103.5t-169 -71.5q82 -172 256 -352q90 176 90 409q181 49 362 49l50 -63v-135zM731 1229q-45 -74 -45 -197q0 -111 39 -223q166 137 166 315
q0 61 -20 90t-68 29q-32 0 -72 -14zM373 356q0 -215 196 -215q90 0 170 31q-185 188 -295 410q-71 -93 -71 -226z" />
    <glyph glyph-name="quotesingle" unicode="'" horiz-adv-x="567" 
d="M565 1475l-131 -529h-215v547q132 37 307 37z" />
    <glyph glyph-name="parenleft" unicode="(" horiz-adv-x="663" 
d="M567 1559l101 -62q-158 -291 -227.5 -567.5t-69.5 -573.5q0 -202 27 -361t83 -345l-110 -53q-133 151 -201 368.5t-68 442.5q0 102 13.5 212t47.5 239.5t85 249t133.5 239.5t185.5 211z" />
    <glyph glyph-name="parenright" unicode=")" horiz-adv-x="661" 
d="M197 1505l110 54q133 -151 200.5 -368.5t67.5 -442.5q0 -130 -23.5 -272.5t-74 -301t-145 -311.5t-221.5 -266l-101 61q158 292 228.5 569t70.5 572q0 200 -27.5 358.5t-84.5 347.5z" />
    <glyph glyph-name="asterisk" unicode="*" horiz-adv-x="1019" 
d="M666 1616l79 -12q5 -30 5 -41q0 -49 -20.5 -110.5t-37 -93t-45.5 -83.5h-104q-1 4 -7.5 22.5t-9 27.5t-8.5 28t-9 33.5t-6.5 33t-5 36.5t-1.5 36q0 59 20 123h150zM190 1354l41 69q61 -10 80 -16q100 -32 215 -147l-41 -95l-27 -3q-26 -2 -32 -2.5t-32 -2t-37.5 -1t-35 1
t-39 3t-36 6t-37.5 9.5q-35 9 -72 32zM1028 1288l12 -80q-27 -14 -79 -32q-94 -30 -275 -13l-22 97q5 3 32 24t46.5 34.5t49 33t59.5 33.5t58 22q30 8 82 16zM489 1143l74 -62q-33 -140 -119 -247q-31 -39 -63 -62l-117 74l-57 57q6 14 15 28t22 30l12 16q10 11 21.5 22.5
t22 20.5t25 20t24.5 18.5t26.5 18t24.5 15.5t25.5 15t22.5 13t22 12.5t19 10.5zM588 1081l90 62q2 -2 27 -18t35.5 -23.5t34 -25.5t38 -31.5t32 -33t29.5 -38.5q20 -31 33 -72l-123 -92l-73 -39q-29 23 -54 59q-46 71 -67 239q-1 9 -2 13z" />
    <glyph glyph-name="plus" unicode="+" 
d="M1137 709v-74l-15 -115h-385l-53 -405h-143l-72 22l49 383h-375v74l15 115h385l53 407h143l74 -22l-51 -385h375z" />
    <glyph glyph-name="comma" unicode="," horiz-adv-x="581" 
d="M233 348q110 0 177 -45q34 -73 34 -160q0 -55 -10 -109.5t-40.5 -120.5t-78.5 -118.5t-132 -95.5t-193 -59l-27 94q106 39 176 96.5t70 132.5v35l-115 10l21 326q60 14 118 14z" />
    <glyph glyph-name="hyphen" unicode="-" horiz-adv-x="645" 
d="M588 637l-17 -125h-491v80l16 127h492v-82z" />
    <glyph glyph-name="period" unicode="." horiz-adv-x="581" 
d="M291 371q91 0 137 -17q21 -47 21 -112q0 -120 -78 -242h-277l-16 332q97 39 213 39z" />
    <glyph glyph-name="slash" unicode="/" horiz-adv-x="593" 
d="M670 1440l-566 -1813h-139l-33 35l562 1813h143z" />
    <glyph glyph-name="zero" unicode="0" horiz-adv-x="1216" 
d="M696 1260q234 0 347.5 -139t113.5 -386q0 -72 -9 -144t-30.5 -148t-53.5 -143.5t-81.5 -128t-111.5 -104t-146 -69t-182 -25.5q-231 0 -345 138t-114 387q0 104 18.5 205t63.5 203.5t113 179.5t175.5 125.5t241.5 48.5zM680 1112q-50 0 -86 -20q-62 -82 -103.5 -321.5
t-41.5 -442.5q0 -110 25 -159.5t89 -49.5q48 0 86 20q63 78 103.5 318t40.5 454q0 103 -24.5 152t-88.5 49z" />
    <glyph glyph-name="one" unicode="1" horiz-adv-x="778" 
d="M702 115l-2 -54l-8 -61h-684v115q95 45 189 51l84 756q-86 -13 -181 -13v66l13 100q91 5 201 52.5t173 127.5l164 -30l-119 -1088z" />
    <glyph glyph-name="two" unicode="2" horiz-adv-x="1044" 
d="M786 375l160 -4q12 -65 12 -140q0 -83 -18 -158.5t-45 -113.5h-141q-279 6 -537 90l-123 -88q-55 15 -108 68v51q123 97 207.5 167.5t168 153t132.5 150.5t79.5 143t30.5 148q0 91 -40 133.5t-107 42.5q-69 0 -110.5 -42t-41.5 -114q0 -45 21 -117l-152 -43
q-94 104 -94 216q0 146 124.5 245t336.5 99q197 0 317.5 -93.5t120.5 -257.5q0 -160 -129.5 -320.5t-403.5 -338.5h310z" />
    <glyph glyph-name="three" unicode="3" horiz-adv-x="1046" 
d="M666 578v-27q138 -29 203 -100.5t65 -196.5q0 -88 -31 -163.5t-92 -134.5t-159.5 -92.5t-225.5 -33.5q-221 0 -399 94l16 123q101 -14 186 -14q180 0 255 62.5t75 172.5q0 60 -23 103.5t-81 72.5q-88 -33 -160 -45l-43 35q-8 46 -8 84q0 1 6 76q53 18 129 18q21 0 57 -4
q73 48 117.5 120t44.5 153q0 78 -40.5 113.5t-106.5 35.5q-80 0 -117 -49t-37 -123v-33l-156 -2q-47 83 -47 146q0 118 115.5 205.5t318.5 87.5q197 0 318 -91t121 -251q0 -59 -18 -109.5t-46 -85t-70 -64t-80.5 -48t-86.5 -35.5z" />
    <glyph glyph-name="four" unicode="4" horiz-adv-x="1060" 
d="M1004 328v-80l-15 -117h-131q-16 -180 -22 -274h-334q11 174 20 274h-471l-49 133q184 395 295 688l-45 232l258 78q57 -38 90 -99t33 -125q0 -98 -88 -252.5t-303 -455.5l10 -23q136 21 213 21h78q17 141 39 305q117 70 256 94l86 -37q-27 -187 -45 -362h125z" />
    <glyph glyph-name="five" unicode="5" horiz-adv-x="1005" 
d="M422 700q243 0 369.5 -103.5t126.5 -301.5q0 -95 -30.5 -178t-89 -148t-152 -102t-212.5 -37q-96 0 -203 23.5t-186 70.5l21 142q102 -15 176 -15q167 0 236 63.5t69 174.5q0 115 -85 162.5t-331 78.5l2 5l88 692l154 33q117 -54 256 -54q124 0 272 56l33 -121
q-115 -207 -338 -207q-138 0 -266 61l-47 -301q65 6 137 6z" />
    <glyph glyph-name="six" unicode="6" horiz-adv-x="1177" 
d="M858 1405q118 0 223 -33l2 -123q-115 0 -209 -28t-159 -75t-113.5 -116t-76.5 -144t-44.5 -168t-21 -178t-2.5 -182q1 -46 3 -77.5t9 -64.5t19 -52.5t33 -32t50 -12.5q33 0 78 18q41 45 68.5 151.5t25.5 205.5q0 86 -24 118.5t-70 32.5q-21 0 -84 -14l-16 125
q101 123 266 123q147 0 222 -90t75 -246q0 -75 -17.5 -150t-59.5 -152t-105 -135.5t-162.5 -95.5t-222.5 -37q-457 0 -457 539q0 88 11.5 174t38.5 175.5t67.5 168t102.5 148t139.5 119.5t183 79t227.5 29z" />
    <glyph glyph-name="seven" unicode="7" horiz-adv-x="1021" 
d="M1083 1196l7 -47q-383 -509 -568 -965l8 -295l-229 -61q-84 21 -127 80.5t-43 136.5q0 152 149.5 358t479.5 529h-457l-39 -156h-162q-10 55 -10 123q0 92 16 196.5t39 164.5q174 0 395.5 -28.5t342.5 -74.5l71 92q75 -13 127 -53z" />
    <glyph glyph-name="eight" unicode="8" horiz-adv-x="1157" 
d="M821 754v-25q67 -51 105 -84t72 -74.5t47.5 -85t13.5 -98.5q0 -56 -13.5 -109.5t-50.5 -110t-95 -98.5t-155.5 -69t-222.5 -27q-220 0 -342.5 80.5t-122.5 233.5q0 124 75 233.5t204 153.5v24q-88 65 -133 139t-45 177q0 59 15 111t52 101t93.5 84.5t145 57t200.5 21.5
q131 0 226.5 -29t152.5 -95.5t57 -166.5q0 -71 -27 -132t-70 -102.5t-89 -68.5t-93 -41zM578 1221q-26 -26 -41 -70t-15 -84q0 -109 121 -195l47 -34q96 120 96 266q0 69 -25.5 103t-84.5 34q-57 0 -98 -20zM631 143q29 29 45 83t16 106q0 64 -34.5 105t-135.5 112l-53 39
q-98 -143 -98 -303q0 -164 135 -164q73 0 125 22z" />
    <glyph glyph-name="nine" unicode="9" horiz-adv-x="1175" 
d="M655 1262q457 0 457 -541q0 -87 -11.5 -173t-38.5 -175t-67.5 -167.5t-102.5 -148t-139.5 -119.5t-183 -79t-227.5 -29t-223 33l-2 123q115 0 208.5 27t158.5 72.5t113.5 113t77 140.5t45 164.5t21 175.5t2.5 181q-1 46 -3 77t-9 63.5t-19 52t-33 31.5t-50 12
q-38 0 -78 -19q-41 -45 -68.5 -150.5t-25.5 -205.5q0 -85 24.5 -118.5t69.5 -33.5q20 0 84 19l16 -109q-100 -125 -268 -125q-145 0 -220 91t-75 245q0 76 17.5 151.5t59.5 152.5t105 135.5t162.5 95.5t222.5 37z" />
    <glyph glyph-name="colon" unicode=":" horiz-adv-x="581" 
d="M291 371q91 0 137 -17q21 -47 21 -112q0 -120 -78 -242h-277l-16 332q97 39 213 39zM367 1061q91 0 137 -17q20 -45 20 -112q0 -120 -78 -242h-276l-16 332q97 39 213 39z" />
    <glyph glyph-name="semicolon" unicode=";" horiz-adv-x="581" 
d="M233 348q110 0 177 -45q34 -73 34 -160q0 -55 -10 -109.5t-40.5 -120.5t-78.5 -118.5t-132 -95.5t-193 -59l-27 94q106 39 176 96.5t70 132.5v35l-115 10l21 326q60 14 118 14zM367 1061q91 0 137 -17q20 -45 20 -112q0 -120 -78 -242h-276l-16 332q97 39 213 39z" />
    <glyph glyph-name="less" unicode="&#x3c;" 
d="M1133 969l-668 -351v-26l573 -346l-96 -172l-762 399l35 268l854 396z" />
    <glyph glyph-name="equal" unicode="=" 
d="M1110 430l-14 -115h-979v74l14 115h979v-74zM1163 840l-14 -115h-979v74l14 114h979v-73z" />
    <glyph glyph-name="greater" unicode="&#x3e;" 
d="M1098 737l-33 -270l-856 -393l-64 166l670 350v26l-575 347l96 174z" />
    <glyph glyph-name="question" unicode="?" horiz-adv-x="720" 
d="M352 1384q375 0 375 -450q0 -48 -5 -83t-25 -80.5t-55.5 -82.5t-101 -79t-157.5 -81l-23 -108h-186q-27 49 -40 86.5t-13 89.5q0 38 8.5 65t22.5 46.5t46 38t63.5 32t90.5 35.5q152 55 188 75q66 37 71 94q1 6 1 13l-2 33q-68 27 -192 40.5t-258 8.5l24 285q99 22 168 22
zM291 317q52 0 119 -18q18 -40 18 -102q0 -91 -70 -197h-249l-17 279q108 38 199 38z" />
    <glyph glyph-name="at" unicode="@" horiz-adv-x="1892" 
d="M1114 1430q360 0 554 -176t194 -482q0 -125 -33.5 -234t-91.5 -188t-135 -135.5t-165 -84.5t-180 -28q-86 0 -126.5 25.5t-40.5 79.5q0 21 6.5 59t14 72t22 98t22.5 101l-25 4q-31 -88 -53 -144.5t-49 -111.5t-52.5 -86t-59 -56t-73 -35t-89.5 -10q-125 0 -192.5 74
t-67.5 254q0 96 18.5 188.5t58.5 177t96 149t138 102.5t178 38q140 0 203 -69l22 49q70 20 217 20l56 -57l-97 -758q131 12 216.5 145.5t85.5 336.5q0 257 -146 394.5t-407 137.5q-165 0 -312 -55t-260 -156.5t-179.5 -259.5t-66.5 -350q0 -134 33.5 -234t92.5 -165
t150.5 -105.5t197 -57t241.5 -16.5v-98q-131 -43 -276 -43q-114 0 -214.5 26.5t-187 83.5t-149 139.5t-98 200.5t-35.5 261q0 213 77.5 395t214 310.5t331 201t421.5 72.5zM938 322q53 85 100.5 221.5t104.5 376.5q-44 20 -94 20q-42 0 -82 -14q-60 -111 -93.5 -250.5
t-33.5 -257.5q0 -56 12.5 -78.5t48.5 -22.5q2 0 37 5z" />
    <glyph glyph-name="A" unicode="A" horiz-adv-x="1351" 
d="M1307 123v-55l-9 -68h-630v121q60 33 141 47q-6 33 -19.5 98.5t-19.5 98.5h-401q-15 -38 -44.5 -113t-43.5 -113l125 -16v-55l-9 -68h-426v121q54 32 140 47q241 567 487 1073l-18 92l73 66q160 -3 281 -33q57 -295 84 -432.5t77 -372.5t97 -422zM739 526l-82 449h-24
q-115 -253 -197 -449h303z" />
    <glyph glyph-name="B" unicode="B" horiz-adv-x="1333" 
d="M950 719v-27q74 -12 124 -31t88.5 -51.5t56.5 -83.5t18 -123q0 -403 -567 -403h-660v121q83 39 146 49l102 1030l-137 27v55l8 68q287 34 571 34q291 0 420 -73t129 -244q0 -272 -297 -348h-2zM862 1057q0 88 -38.5 127t-131.5 39h-82l-47 -451h205q43 59 68.5 135
t25.5 150zM788 203q30 38 45 106.5t15 128.5q0 89 -42.5 138t-152.5 49h-104l-47 -463h108q116 0 178 41z" />
    <glyph glyph-name="C" unicode="C" horiz-adv-x="1263" 
d="M821 1217q-86 0 -166 -41q-69 -74 -118.5 -266.5t-49.5 -360.5q0 -179 65.5 -254.5t213.5 -75.5q184 0 364 100l15 -133q-85 -91 -222 -152t-286 -61q-272 0 -413.5 154.5t-141.5 421.5q0 112 24 226.5t77 225.5t128.5 196.5t188.5 138.5t248 53q126 0 213 -54l4 29
q17 3 50 10t50 10t44 6t54 3l64 -54q4 -28 4 -57q0 -158 -49 -344h-201l-29 260q-78 19 -131 19z" />
    <glyph glyph-name="D" unicode="D" horiz-adv-x="1421" 
d="M666 1384q159 0 279.5 -25t202.5 -72t133.5 -118t74 -158t22.5 -198q0 -74 -9.5 -147.5t-33.5 -155.5t-61.5 -153.5t-99 -138t-139.5 -114t-188 -76t-241 -28.5h-596v121q82 38 146 49l102 1030l-137 27v55l6 68q104 14 266.5 24t272.5 10zM836 219q69 102 105 276.5
t36 381.5q0 66 -5.5 115.5t-22 95t-44 74t-73.5 45.5t-109 16h-98l-107 -1061h82q150 0 236 57z" />
    <glyph glyph-name="E" unicode="E" horiz-adv-x="1222" 
d="M623 1210l-45 -448l296 20l17 -57l-14 -129l-314 20l-47 -473h311l88 256l199 -12q4 -62 4 -92q0 -147 -49 -322h-2l-80 -10l-676 37h-301v121q83 39 146 49l102 1032l-137 23v57l8 68q226 12 576 12h266q122 31 186 31l64 -31q4 -40 4 -76q0 -144 -49 -315h-193l-27 227
z" />
    <glyph glyph-name="F" unicode="F" horiz-adv-x="1130" 
d="M1116 1393l64 -31q4 -40 4 -76q0 -144 -49 -315h-193l-27 227l-292 12l-50 -489l301 20l17 -57l-14 -129l-318 20l-41 -428l158 -16v-57l-8 -74h-658v121q62 35 146 49l102 1032l-137 23v57l8 68q226 12 576 12h225q122 31 186 31z" />
    <glyph glyph-name="G" unicode="G" horiz-adv-x="1333" 
d="M1280 621v-121q-46 -26 -92 -39l-43 -438l-74 -50q-84 0 -182 25l-15 41q-116 -66 -266 -66q-239 0 -382.5 155.5t-143.5 424.5q0 92 18 186.5t52.5 189t91.5 177t129 146t170.5 100.5t210.5 37q132 0 219 -54l4 29q17 3 50 10t50 10t44.5 6t54.5 3l63 -54q4 -28 4 -57
q0 -158 -49 -344h-201l-28 262q-83 17 -134 17q-83 0 -176 -41q-71 -83 -119.5 -292t-48.5 -413q0 -169 46 -247.5t163 -78.5q74 0 154 29l6 305l-123 17v57l8 68h539z" />
    <glyph glyph-name="H" unicode="H" horiz-adv-x="1490" 
d="M1520 1362v-121q-50 -28 -148 -49l-104 -1051l139 -18v-55l-6 -68h-627v121q53 33 133 47l45 457h-389l-49 -484l111 -18v-55l-7 -68h-608v121q64 33 144 47l104 1053l-137 18v55l8 68h616v-121q-46 -30 -124 -47l-43 -410h391l43 437l-115 18v55l8 68h615z" />
    <glyph glyph-name="I" unicode="I" horiz-adv-x="735" 
d="M764 1362v-121q-54 -32 -146 -47l-104 -1053l139 -18v-55l-8 -68h-635v121q58 32 144 47l104 1053l-137 18v55l8 68h635z" />
    <glyph glyph-name="J" unicode="J" horiz-adv-x="983" 
d="M1016 1362v-121q-94 -42 -148 -49l-98 -967q-9 -88 -27.5 -158t-54.5 -135.5t-87.5 -108.5t-130.5 -69t-181 -26q-119 0 -215.5 33.5t-155.5 99.5l47 137q203 -59 373 -64q54 110 76 342l94 949l-240 12v57l8 68h740z" />
    <glyph glyph-name="K" unicode="K" horiz-adv-x="1413" 
d="M1405 1362v-121q-47 -28 -131 -47q-136 -202 -318 -393q159 -435 283 -623l102 2l2 -129q-54 -35 -129.5 -55.5t-142.5 -20.5q-87 0 -145 38.5t-97 115.5q-75 144 -145 481h-123l-47 -469l123 -18v-55l-6 -68h-621v121q64 33 144 47l104 1053l-137 18v55l8 68h631v-121
q-39 -26 -139 -47l-46 -432l162 12q161 182 332 449l-125 16v55l8 68h453z" />
    <glyph glyph-name="L" unicode="L" horiz-adv-x="1103" 
d="M848 399l199 -12q4 -62 4 -92q0 -143 -50 -322l-81 -10l-607 37h-303v121q84 39 144 49l104 1051l-137 18v55l8 68h637v-121q-57 -32 -148 -49l-104 -1049h246z" />
    <glyph glyph-name="M" unicode="M" horiz-adv-x="1837" 
d="M1841 1362v-121q-48 -27 -151 -49q-23 -549 -62 -1051l139 -18v-55l-8 -68h-616v121q52 29 127 47q73 697 90 967h-23q-118 -285 -385 -1057q-124 -30 -241 -39l-60 18q-60 397 -184 1078h-25h-2q-10 -79 -106 -994l129 -18v-55l-8 -68h-453v121q48 26 143 47
q64 499 146 1034l-141 23v55l8 68q190 14 622 14q40 -194 82 -462.5t56 -434.5h24q147 486 311 897h588z" />
    <glyph glyph-name="N" unicode="N" horiz-adv-x="1452" 
d="M1485 1362v-121q-52 -31 -144 -47l-118 -1178q-137 -39 -305 -39l-58 21l-291 709q-90 231 -143 421h-25l-57 -989l123 -16v-55l-8 -68h-451v121q58 32 144 47l104 1032l-137 25v55l8 68q227 14 573 14l236 -578q72 -184 143 -411h25l41 848l-146 18v55l9 68h477z" />
    <glyph glyph-name="O" unicode="O" horiz-adv-x="1466" 
d="M836 1389q285 0 436 -153.5t151 -424.5q1 -111 -22.5 -222.5t-80.5 -224t-141 -198t-216 -139.5t-295 -54q-282 0 -434 155t-152 429q0 78 11.5 156.5t38.5 161t67 157t101.5 140.5t137.5 113.5t178 75.5t220 28zM819 1217q-84 0 -164 -41q-71 -76 -119.5 -277.5
t-48.5 -417.5q0 -172 44.5 -254t160.5 -82q84 0 164 41q71 76 119.5 277.5t48.5 417.5q0 172 -44.5 254t-160.5 82z" />
    <glyph glyph-name="P" unicode="P" horiz-adv-x="1284" 
d="M711 1382q307 0 436 -92t129 -303q0 -80 -15.5 -152t-51.5 -138.5t-89.5 -115t-136 -77.5t-184.5 -29q-78 0 -158 17v141q89 3 145 24q45 67 66.5 163t21.5 196q0 108 -34 157.5t-131 49.5h-84l-107 -1073l178 -19v-57l-8 -74h-678v121q53 32 146 49l102 1032l-137 23v57
l8 68q264 32 582 32z" />
    <glyph glyph-name="Q" unicode="Q" horiz-adv-x="1470" 
d="M840 1389q285 0 435 -156t150 -445q0 -134 -33 -259.5t-97 -232.5t-169.5 -179t-238.5 -90v-27q168 -86 300.5 -123t297.5 -37q72 0 174 6l16 -127q-53 -53 -143 -81.5t-191 -28.5q-102 0 -197 31t-167 82.5t-125.5 109.5t-89.5 121v127q138 112 200 320t62 466
q0 69 -4.5 119.5t-17.5 96.5t-35 74t-58.5 44.5t-87.5 16.5q-86 0 -166 -41q-72 -75 -120 -279.5t-48 -396.5q0 -149 42.5 -244.5t150.5 -155.5l-29 -127q-180 1 -308 74t-192.5 202.5t-68.5 307.5q-1 111 22.5 221.5t80 222t140.5 196.5t217.5 138.5t297.5 53.5z" />
    <glyph glyph-name="R" unicode="R" horiz-adv-x="1366" 
d="M1323 180l4 -129q-56 -36 -129 -56t-141 -20q-96 0 -151 39.5t-93 114.5q-65 130 -133 416h-139l-41 -404l129 -18v-55l-8 -68h-611v121q70 34 146 47l100 1032l-135 27v57l8 66q308 37 569 34q308 -2 444 -82.5t136 -269.5q0 -277 -274 -403q117 -301 219 -451zM555 707
h213q119 133 119 325q0 100 -43.5 145.5t-145.5 45.5h-92z" />
    <glyph glyph-name="S" unicode="S" horiz-adv-x="1114" 
d="M672 854l84 -51q133 -80 203.5 -177.5t70.5 -236.5q0 -65 -16 -123t-56 -112.5t-101 -94t-158.5 -63t-221.5 -23.5q-120 0 -230 21t-184 55q-12 77 -12 160q0 101 19 205l217 12l57 -276q63 -13 119 -13q88 0 145 31q43 60 43 133q0 70 -35.5 113.5t-121.5 95.5l-80 47
q-269 165 -269 410q0 80 29 155t82.5 135t139 96t190.5 36q123 0 211 -56l4 31q17 3 50 10t50 10t44 6t54 3l64 -54q4 -28 4 -55q0 -147 -49 -315h-201l-29 241q-65 15 -116 15q-77 0 -129 -27q-49 -53 -49 -121q0 -71 42.5 -118t135.5 -105z" />
    <glyph glyph-name="T" unicode="T" horiz-adv-x="1255" 
d="M1245 1393l64 -31q4 -40 4 -76q0 -144 -49 -315h-193l-27 229l-155 10l-105 -1071l142 -16v-55l-8 -68h-672v121q45 25 176 49l104 1049h-149l-88 -254l-189 10q-4 62 -4 94q0 154 47 309l2 11l80 10l496 -37h338q122 31 186 31z" />
    <glyph glyph-name="U" unicode="U" horiz-adv-x="1361" 
d="M1415 1362v-121q-56 -32 -145 -47q-40 -547 -70 -737q-37 -248 -174 -366t-387 -118q-245 0 -363 109.5t-118 325.5q0 151 78 815l-138 16v55l8 68h619v-121q-40 -26 -129 -49q-78 -677 -78 -817q0 -126 47.5 -185t167.5 -59q102 0 182 47q73 87 99 289q35 297 67 754
l-129 18v55l9 68h454z" />
    <glyph glyph-name="V" unicode="V" horiz-adv-x="1312" 
d="M1380 1362v-121q-49 -27 -116 -43q-95 -279 -225.5 -609t-239.5 -573q-141 -38 -283 -41l-86 58q-69 343 -231 1190l-115 16v55l8 68h617v-121q-50 -30 -125 -45q18 -115 73.5 -456.5t71.5 -454.5h25q72 178 168.5 449.5t156.5 486.5l-133 18v55l8 68h426z" />
    <glyph glyph-name="W" unicode="W" horiz-adv-x="2072" 
d="M2134 1362v-121q-47 -25 -115 -43q-179 -554 -444 -1182q-144 -38 -285 -41l-84 58q-74 394 -112 737h-27q-99 -321 -285 -754q-145 -38 -284 -41l-84 58q-68 361 -203 1190l-115 16v55l8 68h617v-121q-44 -27 -127 -47q72 -572 117 -909h24q57 135 142 370.5t149 434.5
l-22 135l-103 14v55l8 68h607v-121q-56 -32 -132 -47q34 -275 119 -909h25q67 174 157.5 447t147.5 489l-133 18v55l8 68h426z" />
    <glyph glyph-name="X" unicode="X" horiz-adv-x="1345" 
d="M1245 1194q-172 -271 -330 -489q139 -301 246 -568l119 -14v-55l-6 -68h-651v121q58 31 127 45q-93 237 -164 385h-25q-98 -141 -258 -412l131 -16v-55l-6 -68h-446v121q57 29 137 47q201 291 366 512q-125 265 -237 543l-123 16v55l8 68h649v-121q-54 -23 -116 -41
q47 -139 145 -369h27q96 155 219 392l-127 16v55l8 68h448v-121q-54 -28 -141 -47z" />
    <glyph glyph-name="Y" unicode="Y" horiz-adv-x="1292" 
d="M1231 1196q-127 -269 -393 -721l-35 -334l143 -18v-55l-8 -68h-666v121q77 33 172 47l29 285q-135 429 -270 770l-119 16v55l8 68h635v-121q-50 -26 -137 -45q107 -340 164 -547h24q170 304 277 572l-131 18v55l8 68h428v-121q-59 -32 -129 -45z" />
    <glyph glyph-name="Z" unicode="Z" horiz-adv-x="1157" 
d="M885 399l198 -12q4 -62 4 -92q0 -147 -49 -322h-2l-80 -10l-669 37h-244l-18 123q377 587 501 771t226 310l-9 19l-346 -21l-49 -231h-192q-23 131 -23 219q0 68 17 172l65 31q66 0 184 -31h746l18 -123q-342 -544 -480 -749t-237 -330l11 -19l340 2z" />
    <glyph glyph-name="bracketleft" unicode="[" horiz-adv-x="638" 
d="M653 1382l-200 -12q8 -142 6 -221q-3 -694 -164 -1362l190 -12l-6 -135h-325l-62 67l178 1809h383v-134z" />
    <glyph glyph-name="backslash" unicode="\" horiz-adv-x="917" 
d="M700 -373l-565 1813l33 35h143l561 -1813l-32 -35h-140z" />
    <glyph glyph-name="bracketright" unicode="]" horiz-adv-x="636" 
d="M567 1448l-184 -1808h-383v133l199 12q-6 105 -6 221q3 673 172 1362l-197 12l6 136h330z" />
    <glyph glyph-name="asciicircum" unicode="^" horiz-adv-x="915" 
d="M938 1040l-166 -100l-244 334h-20l-272 -334l-138 100l375 471h211z" />
    <glyph glyph-name="underscore" unicode="_" horiz-adv-x="833" 
d="M698 -219l-10 -103h-725v52l10 102h725v-51z" />
    <glyph glyph-name="grave" unicode="`" horiz-adv-x="555" 
d="M567 1174h-129l-270 284q50 113 121 158h207z" />
    <glyph glyph-name="a" unicode="a" horiz-adv-x="1198" 
d="M1145 184l8 -114q-157 -95 -293 -95q-72 0 -112.5 32.5t-40.5 90.5q0 10 1 23t3.5 30.5t5.5 33t7.5 40t8.5 41.5t10.5 47t10.5 48t12 53t12 53l-24 4q-40 -117 -71.5 -192t-68 -138.5t-76 -97.5t-89 -52t-113.5 -18t-112 17t-86.5 57.5t-58.5 114t-20 178.5
q0 90 14.5 178t43 171.5t73.5 154t102 124t134 83.5t164 30q153 0 227 -77l25 53q83 24 215 24l63 -65l-108 -852q47 0 133 20zM530 209q121 190 240 700q-52 27 -111 27q-38 0 -92 -16q-68 -123 -104.5 -289.5t-36.5 -306.5q0 -68 13.5 -93.5t52.5 -25.5q10 0 38 4z" />
    <glyph glyph-name="b" unicode="b" horiz-adv-x="1210" 
d="M879 1081q65 0 112.5 -17t85.5 -58t57 -116t19 -185q0 -109 -18.5 -209t-64 -197t-114.5 -168t-178 -114.5t-246 -43.5q-104 0 -231.5 22t-228.5 52l159 1288l-100 43l14 115q160 45 381 49l60 -63l-47 -351q-15 -107 -34.5 -208t-45 -212.5t-27.5 -121.5l25 -4
q33 98 58.5 163.5t55.5 126t59.5 96.5t67 63.5t81.5 38.5t100 11zM641 135q69 123 107 290t38 304q0 68 -14.5 94.5t-52.5 26.5q-9 0 -41 -4q-58 -95 -114.5 -259.5t-125.5 -449.5q63 -18 111 -18q42 0 92 16z" />
    <glyph glyph-name="c" unicode="c" horiz-adv-x="976" 
d="M600 209q122 0 279 88l14 -129q-78 -85 -194.5 -140t-254.5 -55q-197 0 -295 118.5t-98 324.5q0 92 18.5 181t62.5 177.5t109.5 155t167.5 108t228 41.5q130 0 219.5 -48t106.5 -138l-129 -154l-256 193q-23 -5 -52 -17q-46 -73 -75 -213t-29 -251q0 -131 45 -186.5
t133 -55.5z" />
    <glyph glyph-name="d" unicode="d" horiz-adv-x="1198" 
d="M1180 1479l-168 -1315q47 0 133 20l8 -114q-157 -95 -293 -95q-72 0 -112.5 32.5t-40.5 90.5q0 13 2 30.5t6.5 43t8.5 47t12 57.5l13 58.5t15.5 67.5t15.5 67l-24 6q-40 -118 -70 -191t-67 -139t-76 -100t-90 -53t-117 -19q-64 0 -112 17t-86.5 57.5t-58.5 114t-20 178.5
q0 108 20 213t63.5 201t105 168.5t150.5 115.5t194 43q126 0 203 -41l30 295l-98 43l14 115q178 46 379 49zM532 209q123 195 240 709q-63 18 -110 18q-39 0 -93 -16q-69 -122 -105 -288t-36 -308q0 -67 13 -93t51 -26q8 0 40 4z" />
    <glyph glyph-name="e" unicode="e" horiz-adv-x="1050" 
d="M614 201q150 0 318 104l14 -123q-81 -88 -206.5 -148.5t-280.5 -60.5q-208 0 -308 117t-100 324q0 93 18.5 182t63.5 178t112 155.5t172 108t236 41.5q100 0 174 -23.5t116 -65.5t61.5 -93t19.5 -113q0 -72 -26.5 -129.5t-72 -93t-106 -61.5t-128.5 -36t-139 -15.5
t-138 0.5q0 -131 49.5 -189.5t150.5 -58.5zM602 934q-36 0 -76 -19q-41 -56 -69.5 -162.5t-38.5 -215.5q73 10 126 37.5t81.5 67t41.5 83t13 94.5q0 65 -18.5 90t-59.5 25z" />
    <glyph glyph-name="f" unicode="f" horiz-adv-x="645" 
d="M920 1235l-359 82q-28 -8 -51 -25q-7 -93 6 -258h201v-76l-21 -77h-180l-80 -828q-26 -256 -117 -372.5t-253 -116.5q-80 0 -164 26t-152 76l25 117q171 -35 264 -37q37 111 53 266l86 852l-119 27v115q49 17 138 32q14 111 50.5 199t86.5 144t114 93.5t128 52.5t133 15
q174 0 264 -78z" />
    <glyph glyph-name="g" unicode="g" horiz-adv-x="1048" 
d="M397 289l271 -62q167 -39 240 -100t73 -156q0 -79 -45 -152t-128 -130t-213 -91t-288 -34q-387 0 -387 207q0 97 78.5 165t194.5 103q-39 44 -39 115q0 118 122 247q-213 62 -213 273q0 79 31 150.5t90.5 129t157.5 91.5t221 34q139 0 234 -45q5 126 62.5 192t166.5 66
l72 -184l-226 -123q95 -83 95 -223q0 -76 -28.5 -142.5t-86.5 -121.5t-157 -87t-228 -32l-57 2zM475 920q-32 -32 -55 -111.5t-23 -163.5q0 -123 92 -123q35 0 72 15q29 30 52.5 109.5t23.5 166.5q0 68 -21.5 95.5t-66.5 27.5q-42 0 -74 -16zM649 -238q47 27 47 68
q0 23 -17 34t-61 23l-249 62q-59 14 -107 37q-55 -86 -55 -144q0 -133 190 -133q67 0 137 14t115 39z" />
    <glyph glyph-name="h" unicode="h" horiz-adv-x="1212" 
d="M1147 184l6 -114q-157 -95 -301 -95q-176 0 -176 160q0 71 49 328t49 317q0 37 -13.5 53.5t-47.5 16.5q-9 0 -37 -4q-153 -241 -293 -846q-119 -25 -254 -25l-61 66l161 1294l-98 43l14 115q183 47 377 47l62 -61l-47 -351q-31 -231 -103 -538l23 -4q34 97 59.5 162
t56 125t59.5 95.5t66 63t79.5 38.5t96.5 11q128 0 184 -61t56 -174q0 -153 -100 -682q47 0 133 20z" />
    <glyph glyph-name="i" unicode="i" horiz-adv-x="612" 
d="M479 1073l58 -63q-80 -645 -109 -846q45 0 131 20l8 -114q-157 -95 -288 -95q-94 0 -139.5 37t-45.5 125q0 84 88 729l-121 25v115q225 64 418 67zM446 1550q71 0 109 -14q23 -44 23 -98q0 -100 -68 -205h-258l-16 278q97 39 210 39z" />
    <glyph glyph-name="j" unicode="j" horiz-adv-x="600" 
d="M539 1010l-125 -965q-32 -254 -121 -367.5t-246 -113.5q-155 0 -280 96l24 117q140 -29 229 -31q34 101 54 264l108 856l-121 25v115q225 64 420 67zM438 1550q71 0 109 -14q22 -42 22 -98q0 -101 -67 -205h-258l-17 278q97 39 211 39z" />
    <glyph glyph-name="k" unicode="k" horiz-adv-x="1224" 
d="M1163 184l8 -114q-128 -95 -278 -95q-50 0 -85.5 11t-59.5 35.5t-38.5 49.5t-31.5 66q-58 143 -74 299l82 31q46 60 74 143.5t28 155.5q0 46 -15.5 65t-53.5 19q-11 0 -39 -4q-147 -234 -295 -846q-109 -25 -254 -25l-61 66l161 1294l-100 43l14 115q181 46 379 49
l60 -63l-45 -351q-28 -220 -103 -538l23 -4q101 290 189 392.5t243 102.5q262 0 262 -241q0 -234 -231 -355q73 -181 118 -319q60 3 123 18z" />
    <glyph glyph-name="l" unicode="l" horiz-adv-x="616" 
d="M524 1542l60 -63q-22 -180 -63.5 -480t-70 -518t-34.5 -317q57 0 147 20l6 -114q-153 -95 -297 -95q-188 0 -188 168q0 60 22 241.5t65 499t60 451.5l-102 43l14 115q181 46 381 49z" />
    <glyph glyph-name="m" unicode="m" horiz-adv-x="1824" 
d="M1759 184l6 -114q-157 -95 -292 -95q-183 0 -183 160q0 71 48 328t48 319q0 36 -13 52t-48 16q-7 0 -35 -4q-141 -229 -286 -846q-109 -25 -263 -25l-61 66q20 141 48 321t41 271.5t13 138.5q0 43 -12.5 60.5t-48.5 17.5q-7 0 -35 -4q-69 -110 -136 -308t-147 -538
q-109 -25 -266 -25l-59 66l104 825l-121 25v115q225 64 418 67l56 -63l-91 -420l25 -4q34 97 59.5 163t55.5 125.5t59 95.5t65.5 62.5t78.5 37.5t96 11q116 0 167.5 -49t51.5 -147q0 -74 -47 -270q-4 -17 -6 -25l24 -4q41 118 71 191.5t66 137.5t74.5 97t87.5 51t113 18
q127 0 184 -59.5t57 -177.5q0 -151 -100 -680q47 0 133 20z" />
    <glyph glyph-name="n" unicode="n" horiz-adv-x="1220" 
d="M1155 184l6 -114q-157 -95 -301 -95q-176 0 -176 160q0 71 49 328t49 317q0 37 -13.5 53.5t-47.5 16.5q-23 0 -35 -2q-158 -253 -293 -848q-116 -25 -256 -25l-59 66l104 825l-121 25v115q88 27 204 46.5t214 20.5l53 -63l-90 -420l25 -4q41 118 72.5 194t67.5 138.5
t75.5 95.5t88 50t112.5 17q128 0 183.5 -60.5t55.5 -174.5q0 -153 -100 -682q47 0 133 20z" />
    <glyph glyph-name="o" unicode="o" horiz-adv-x="1150" 
d="M653 1079q228 0 339.5 -117.5t111.5 -330.5q0 -62 -9 -124.5t-29.5 -128t-52 -123.5t-80 -110.5t-109 -90t-143.5 -59.5t-179 -22q-228 0 -339.5 118.5t-111.5 334.5q0 90 18 177t62 174.5t110.5 153.5t172.5 107t239 41zM627 934q-44 0 -84 -19q-54 -68 -88.5 -256
t-34.5 -356q0 -98 24 -141t88 -43q41 0 82 18q53 65 88 254.5t35 356.5q0 103 -24 144.5t-86 41.5z" />
    <glyph glyph-name="p" unicode="p" horiz-adv-x="1193" 
d="M862 1081q65 0 113 -17t86.5 -57t58 -113t19.5 -179q0 -108 -20 -213t-63.5 -201t-104.5 -169t-149 -116t-192 -43q-130 0 -207 45l-47 -417q-89 -37 -272 -37l-61 65l159 1237l-121 25v115q226 64 400 67l53 -63l-94 -424l22 -4q40 116 70.5 189.5t67 138.5t76 99t90 53
t116.5 19zM631 135q68 123 104.5 290t36.5 306q0 67 -13.5 93t-51.5 26q-9 0 -41 -4q-120 -199 -240 -707q62 -20 113 -20q38 0 92 16z" />
    <glyph glyph-name="q" unicode="q" horiz-adv-x="1185" 
d="M967 -229l98 -45l-14 -115q-169 -43 -379 -47l-60 63l45 318q13 89 37.5 192.5t52.5 206t33 123.5l-24 4q-40 -117 -71.5 -192t-68 -138.5t-76 -97.5t-89.5 -52t-115 -18q-64 0 -112 17t-86.5 57.5t-58.5 114t-20 178.5q0 109 20 214t63.5 200.5t105 168t150.5 115.5
t194 43q156 0 227 -77l25 53q82 24 215 24l63 -65zM532 209q116 185 240 700q-52 27 -110 27q-39 0 -93 -16q-69 -122 -105 -288t-36 -308q0 -67 13 -93t51 -26q8 0 40 4z" />
    <glyph glyph-name="r" unicode="r" horiz-adv-x="864" 
d="M862 768l-215 4q-123 -246 -244 -772q-119 -25 -266 -25l-59 66l104 825l-121 25v115q207 64 400 67l53 -63l-94 -459l24 -6q25 78 42 130.5t37.5 110t37 93.5t37 73t39.5 58t42.5 39t49 25t55.5 7q42 0 66.5 -15.5t44.5 -49.5z" />
    <glyph glyph-name="s" unicode="s" horiz-adv-x="892" 
d="M590 633q67 -53 101.5 -82.5t69.5 -71t48.5 -83.5t13.5 -95q0 -158 -120.5 -243t-321.5 -85q-162 0 -258.5 55.5t-116.5 157.5l139 144l269 -207q28 2 59 14q25 39 25 84q-1 45 -29.5 76.5t-117.5 100.5q-23 18 -36 28q-56 45 -89 76t-64.5 71.5t-45.5 84t-14 96.5
q0 155 122.5 240t320.5 85q149 0 240 -48.5t110 -139.5l-129 -143l-258 186q-55 -8 -74 -16q-26 -33 -26 -84q0 -43 32 -76t150 -125z" />
    <glyph glyph-name="t" unicode="t" horiz-adv-x="747" 
d="M768 1034v-76l-18 -77h-228q-78 -558 -86 -719q110 0 246 20l6 -114q-70 -41 -177 -68t-192 -27q-219 0 -219 195q0 74 28 279.5t67 414.5l-115 29v115q84 26 151 36q26 134 58 224q182 41 241 43l43 -47l-30 -228h225z" />
    <glyph glyph-name="u" unicode="u" horiz-adv-x="1220" 
d="M1167 184l9 -114q-73 -42 -160.5 -68.5t-153.5 -26.5q-76 0 -115.5 32t-39.5 91q0 13 2 30.5t6 42t8 46.5t11.5 56t12.5 57.5t14.5 66t14.5 66.5l-24 4q-40 -117 -71 -192.5t-67.5 -138t-75.5 -95.5t-87.5 -50.5t-112.5 -17.5q-125 0 -182.5 59.5t-57.5 176.5
q0 142 97 657l-121 25v115q245 66 422 69l55 -63q-4 -35 -58.5 -352.5t-54.5 -387.5q0 -35 14 -52t48 -17q18 0 28 2q161 254 299 850q111 24 256 24l60 -65l-109 -850q47 0 133 20z" />
    <glyph glyph-name="v" unicode="v" horiz-adv-x="1062" 
d="M688 991l209 90q65 -26 101 -94t36 -156q0 -77 -29.5 -172t-79.5 -189.5t-120 -184.5t-147 -159t-165 -111t-169 -42q-99 0 -162.5 59.5t-63.5 176.5q0 154 97 657l-121 25v115q237 64 420 67l55 -63q-10 -65 -40.5 -243.5t-47.5 -297t-17 -176.5q0 -46 15.5 -68
t58.5 -22q28 0 55 8q170 185 248 459z" />
    <glyph glyph-name="w" unicode="w" horiz-adv-x="1693" 
d="M1321 991l207 90q66 -26 101.5 -93t35.5 -154q0 -93 -41.5 -210t-115 -230t-163 -208.5t-196 -154t-203.5 -58.5q-84 0 -134 47.5t-50 141.5q0 73 45 225l-23 4q-44 -117 -99.5 -201.5t-115.5 -130t-117.5 -66t-117.5 -20.5q-106 0 -171 59.5t-65 176.5q0 154 97 657
l-121 25v115q237 64 420 67l55 -63q-10 -65 -40 -240.5t-47.5 -297.5t-17.5 -179q0 -45 16 -67.5t60 -22.5q22 0 49 6q131 165 213 461q19 202 58 379q105 24 264 24l61 -65q0 -138 -57 -301q-29 -301 -29 -410q0 -50 15 -72t59 -22q19 0 43 6q81 88 150 208t108 253z" />
    <glyph glyph-name="x" unicode="x" horiz-adv-x="1069" 
d="M887 166q41 2 123 18l8 -114q-138 -95 -264 -95q-97 0 -147 44.5t-85 134.5q-43 108 -73 247h-21q-37 -211 -119 -321.5t-200 -110.5q-95 0 -152 74l37 184l170 -12q114 131 190 311q-72 207 -125 334l-143 31v115q69 24 188 45t211 22l56 -63q43 -139 90 -351h24
q70 420 301 420q70 0 105 -28l14 -209l-215 -47q-61 -85 -139 -248q80 -222 166 -381z" />
    <glyph glyph-name="y" unicode="y" horiz-adv-x="1087" 
d="M709 993l206 88q65 -26 103.5 -91t38.5 -163q0 -176 -120 -425t-302 -476q-292 -362 -522 -362q-137 0 -234 100l25 117q175 -37 323 -35q71 49 115 86q-118 650 -207 1034l-121 25v115q214 64 398 67l55 -63q114 -560 137 -869h25q154 231 219 525z" />
    <glyph glyph-name="z" unicode="z" horiz-adv-x="923" 
d="M713 406l147 -17q10 -105 10 -201q0 -138 -49 -190.5t-145 -52.5q-98 0 -222 36t-247 97l-96 -121q-48 8 -127 51l-19 37l563 703l-256 6l-32 -129h-160q-18 86 -2 233t53 219q153 0 306 -28t270 -78l79 100q68 -12 127 -51l19 -35l-557 -696q147 -16 293 -23z" />
    <glyph glyph-name="braceleft" unicode="{" horiz-adv-x="651" 
d="M631 1399l-195 -47q66 -368 66 -508q0 -56 -11 -94t-40 -69t-83 -48.5t-137 -24.5v-26q130 -10 184 -51.5t54 -110.5q0 -125 -178 -615l188 -47l-10 -118q-93 -13 -133 -13q-118 0 -195.5 42t-77.5 134q0 14 2 30.5t7 41t10 45.5t16 58.5t19.5 65.5t25.5 81t29 90t35 108
t39 121l-168 84l12 136h2l174 84q-65 438 -65 526q0 254 295 254q60 0 135 -10v-119z" />
    <glyph glyph-name="bar" unicode="|" horiz-adv-x="579" 
d="M395 -246h-182v1782h182v-1782z" />
    <glyph glyph-name="braceright" unicode="}" horiz-adv-x="636" 
d="M602 1354q0 -81 -165 -564l-15 -45l158 -81l-15 -138l-180 -84q66 -475 66 -559q0 -256 -295 -256q-54 0 -136 11v118l197 47q-67 382 -67 543q0 57 11.5 95t41.5 68.5t84.5 48t138.5 24.5v26q-133 11 -181 52.5t-48 115.5q0 83 43.5 216t134.5 360l-189 47l11 119
q68 10 127 10q56 0 103.5 -9t88 -28t63.5 -54t23 -83z" />
    <glyph glyph-name="asciitilde" unicode="~" 
d="M1038 760l107 -68q-122 -309 -299 -309q-34 0 -68.5 12.5t-97.5 46.5q-242 131 -283 156l-157 -180l-107 65q120 312 299 312q33 0 67 -12.5t99 -47.5q224 -120 283 -155z" />
    <glyph glyph-name="uni00A0" unicode="&#xa0;" horiz-adv-x="512" 
 />
    <glyph glyph-name="exclamdown" unicode="&#xa1;" horiz-adv-x="614" 
d="M401 1081q60 0 119 -16q19 -43 19 -104q0 -89 -70 -197h-250l-16 278q97 39 198 39zM242 664h186q38 -451 -27 -930q-160 -41 -303 -41l-59 63q41 190 113.5 509.5t89.5 398.5z" />
    <glyph glyph-name="cent" unicode="&#xa2;" horiz-adv-x="1026" 
d="M678 1014q-33 -251 -43 -391q-17 -192 -25 -351q10 -2 35 -2q127 0 285 90l12 -114q-141 -152 -344 -185l-10 -204l-125 -23l-41 25q9 85 24 194q-186 10 -278 127.5t-92 321.5q0 259 132 445t339 208q6 125 12 207l127 22l41 -24q-7 -50 -31 -217q37 -10 60 -27l4 25
q93 22 182 22l66 -53q4 -28 4 -55q0 -137 -49 -316h-187l-31 262q-41 11 -67 13zM446 528q0 -117 39 -178q20 146 31 271q18 217 23 352q-41 -79 -67 -212t-26 -233z" />
    <glyph glyph-name="sterling" unicode="&#xa3;" horiz-adv-x="1202" 
d="M901 414l186 -21q21 -78 21 -151q0 -207 -139 -332q-188 6 -363.5 47.5t-294.5 110.5l-209 -125l-100 129q-1 102 53.5 145t163.5 43q70 75 70 178q0 40 -15 113h-178v43l10 94h136q-17 100 -17 148q0 133 63.5 231t171.5 146.5t245 48.5q112 0 194 -39l2 18
q97 23 182 23l66 -54q4 -28 4 -55q0 -129 -49 -330h-186l-29 271q-44 8 -88 8q-87 0 -148 -35q-47 -50 -47 -147q0 -31 6 -68t16 -86.5t15 -79.5h217v-43l-10 -94h-193v-6q0 -60 -11.5 -105t-42.5 -89t-88 -82.5t-144 -75.5l6 -21q260 -24 444 -4z" />
    <glyph glyph-name="currency" unicode="&#xa4;" horiz-adv-x="1083" 
d="M942 647q0 -147 -90 -256l139 -164l-141 -133l-158 182q-88 -30 -188 -30q-98 0 -174 28l-187 -176l-118 133l163 154q-41 68 -41 160q0 151 97 262l-135 162l143 133l158 -187q82 29 180 29q102 0 178 -31l197 185l114 -133l-174 -166q37 -64 37 -152zM610 410
q33 28 52.5 99t19.5 146q0 73 -26 107.5t-87 34.5q-36 0 -82 -19q-31 -27 -51 -99t-20 -147q0 -74 24.5 -107.5t83.5 -33.5q40 0 86 19z" />
    <glyph glyph-name="yen" unicode="&#xa5;" horiz-adv-x="1304" 
d="M1327 1235v-121q-66 -32 -133 -47q-81 -161 -195 -348h162v-43l-12 -94h-236l-84 -131v-17h306v-43l-13 -94h-307l-16 -156l147 -18v-55l-6 -68h-674v121q26 22 174 49l13 127h-318v43l10 94h322l2 21q-7 22 -21.5 64t-21.5 63h-264v43l10 94h203q-27 73 -81.5 208.5
t-66.5 166.5l-121 18v55l9 68h620v-121q-55 -28 -123 -45q120 -376 140 -446h24q150 246 244 471l-123 18v55l8 68h422z" />
    <glyph glyph-name="brokenbar" unicode="&#xa6;" horiz-adv-x="579" 
d="M395 868h-182v668h182v-668zM395 -246h-182v668h182v-668z" />
    <glyph glyph-name="section" unicode="&#xa7;" horiz-adv-x="1095" 
d="M1059 514q0 -103 -63 -173.5t-189 -119.5q47 -80 47 -166q0 -102 -61.5 -178.5t-158 -113.5t-210.5 -37q-144 0 -223.5 60.5t-79.5 162.5q0 87 67 147h154l23 -241q63 -5 65 -5q90 0 143 33q23 41 23 82q0 23 -10.5 45.5t-25 40t-46 43t-55.5 42.5t-73.5 51.5t-80.5 56.5
q-93 71 -144.5 120.5t-82.5 108.5t-31 127q0 103 63 173.5t189 119.5q-47 80 -47 166q0 102 61.5 179t158 114t210.5 37q144 0 223.5 -61t79.5 -163q0 -87 -67 -147h-154l-23 242q-46 4 -65 4q-91 0 -144 -33q-20 -36 -20 -82q0 -23 10.5 -45.5t25 -40t45.5 -43t55.5 -42.5
t73 -51t79.5 -57q93 -71 144.5 -120.5t82.5 -108.5t31 -127zM573 442q103 -71 166 -137q32 29 45 52t13 53q0 53 -43.5 94.5t-210.5 159.5q-7 5 -11 8q-91 63 -163 135q-33 -29 -46.5 -50.5t-13.5 -51.5q0 -54 45.5 -97.5t218.5 -165.5z" />
    <glyph glyph-name="dieresis" unicode="&#xa8;" horiz-adv-x="870" 
d="M352 1534q72 0 101 -14q20 -45 20 -95t-14.5 -91t-48.5 -93h-220l-18 258q93 35 180 35zM793 1534q67 0 98 -14q20 -42 20 -90q0 -94 -63 -189h-217l-21 258q93 35 183 35z" />
    <glyph glyph-name="copyright" unicode="&#xa9;" horiz-adv-x="1605" 
d="M862 1389q323 0 507.5 -176t184.5 -486q0 -163 -54 -301.5t-152.5 -239t-245 -157t-324.5 -56.5q-324 0 -505 177.5t-183 486.5q0 162 53 300.5t150.5 238.5t244 156.5t324.5 56.5zM786 119q266 0 417 166.5t151 439.5q0 252 -132 385t-368 133q-177 0 -305.5 -77.5
t-193 -213t-64.5 -313.5q0 -252 129.5 -386t365.5 -134zM1051 831l-166 148q-17 -3 -35 -10q-32 -53 -55 -151.5t-23 -186.5q0 -95 34 -141t107 -46q40 0 80 13t107 43l12 -97q-51 -56 -135 -96.5t-195 -40.5q-154 0 -231.5 86.5t-77.5 243.5q0 73 16 143.5t51.5 135.5
t85.5 114t124.5 78t162.5 29q101 0 172.5 -40t83.5 -112z" />
    <glyph glyph-name="ordfeminine" unicode="&#xaa;" horiz-adv-x="811" 
d="M807 582l6 -74q-94 -62 -195 -62q-108 0 -108 78q0 15 5 42t10.5 51.5t17 70.5l18.5 74l-22 4q-21 -60 -34.5 -95.5t-30.5 -74t-31 -59.5t-32 -41.5t-39 -29.5t-46 -14.5t-58 -5.5q-100 0 -148 52t-48 182q0 68 13.5 134t42.5 126.5t70 106.5t101.5 73t132.5 27
q100 0 150 -47l14 33q49 14 154 14l41 -39l-68 -539q40 0 84 13zM393 604q82 128 156 420q-41 23 -78 23q-15 0 -59 -11q-44 -80 -68.5 -179t-24.5 -181q0 -43 9 -59.5t34 -16.5q19 0 31 4z" />
    <glyph glyph-name="guillemotleft" unicode="&#xab;" horiz-adv-x="1155" 
d="M1073 881l-172 -320l103 -336l-142 -88l-280 365v102l368 367zM580 881l-172 -320l102 -336l-141 -88l-281 365v102l369 367z" />
    <glyph glyph-name="logicalnot" unicode="&#xac;" 
d="M1090 635l-60 -483h-203l47 368h-712v74l14 115h852z" />
    <glyph glyph-name="uni00AD" unicode="&#xad;" horiz-adv-x="645" 
d="M588 637l-17 -125h-491v80l16 127h492v-82z" />
    <glyph glyph-name="registered" unicode="&#xae;" horiz-adv-x="1300" 
d="M725 1477q253 0 399 -139.5t146 -374.5q0 -253 -165.5 -408.5t-432.5 -155.5q-251 0 -398 140t-147 376q0 252 165.5 407t432.5 155zM719 1358q-207 0 -319.5 -120.5t-112.5 -322.5q0 -193 103 -295t292 -102q206 0 319 118.5t113 321.5q0 195 -103 297.5t-292 102.5z
M690 1231q136 -2 201 -35.5t65 -114.5q0 -105 -118 -153q57 -130 82 -166h47l2 -60q-53 -32 -111 -32q-83 0 -115 65q-26 51 -45 160h-51l-16 -152l61 -8v-26l-4 -29h-262v55q35 12 59 17l41 393l-63 8v31l4 30q113 17 223 17zM674 1155l-19 -186h84q45 57 45 110
q0 76 -73 76h-37z" />
    <glyph glyph-name="macron" unicode="&#xaf;" horiz-adv-x="718" 
d="M184 1458h566q6 -24 6 -57q0 -71 -27 -137h-567q-6 24 -6 55q0 70 28 139z" />
    <glyph glyph-name="degree" unicode="&#xb0;" horiz-adv-x="782" 
d="M494 1546q152 0 242.5 -88.5t90.5 -220.5q0 -146 -106 -245t-270 -99q-153 0 -243.5 87t-90.5 220q0 146 106.5 246t270.5 100zM483 1362q-48 0 -96 -23q-49 -46 -49 -127q0 -62 34.5 -98.5t92.5 -36.5q50 0 94 23q51 44 51 127q0 62 -34.5 98.5t-92.5 36.5z" />
    <glyph glyph-name="plusminus" unicode="&#xb1;" 
d="M815 1098l-35 -275h316v-75l-15 -113h-327l-37 -297h-144l-71 22l35 275h-318v74l14 114h328l37 295h143zM1016 115l-12 -115h-865v74l15 114h862v-73z" />
    <glyph glyph-name="twosuperior" unicode="&#xb2;" horiz-adv-x="655" 
d="M551 1038h113q8 -54 8 -96q0 -112 -41 -166h-90q-168 5 -328 58l-80 -58q-37 10 -72 45v35q16 13 47 37q78 61 113 89.5t82.5 71.5t66.5 69t33.5 59.5t14.5 66.5q0 88 -78 88q-37 0 -57.5 -19.5t-20.5 -53.5q0 -30 10 -68l-106 -27q-57 60 -57 131q0 87 77 144t213 57
q126 0 202.5 -51.5t76.5 -144.5q0 -84 -75 -167.5t-245 -181.5h172z" />
    <glyph glyph-name="threesuperior" unicode="&#xb3;" horiz-adv-x="649" 
d="M498 1157v-22q155 -12 155 -142q0 -97 -81.5 -156t-235.5 -59q-135 0 -248 62l8 82q67 -9 135 -9q90 0 125 21t35 67q0 50 -43 74q-38 -16 -104 -28l-27 20q-6 21 -6 51q0 17 4 45q35 13 70 13q7 0 47 -5q82 42 82 109q0 68 -76 68t-76 -84v-15l-110 -2q-31 60 -31 90
q0 66 71 115t211 49q117 0 191 -42.5t74 -133.5q0 -34 -11.5 -61t-27 -43t-41.5 -30t-44 -20t-46 -14z" />
    <glyph glyph-name="acute" unicode="&#xb4;" horiz-adv-x="573" 
d="M334 1616h209q59 -56 75 -158l-356 -284h-127z" />
    <glyph glyph-name="mu" unicode="&#xb5;" horiz-adv-x="1220" 
d="M1167 184l9 -114q-73 -43 -160.5 -69t-155.5 -26q-74 0 -113.5 32t-39.5 91q0 13 2 30.5t6 42t8 46.5t11.5 56t12.5 57.5t14.5 66t14.5 66.5l-24 4q-79 -272 -156 -383t-184 -111q-39 0 -63.5 16t-41.5 52l-24 -12q6 -33 25.5 -124.5t30.5 -159t17 -146.5
q-94 -35 -297 -35l-32 49q43 585 168 1253l-121 25v115q245 66 422 69l53 -63q-5 -47 -59 -359t-54 -381q0 -35 14.5 -52t49.5 -17q18 0 28 2q155 244 299 850q111 24 254 24l62 -65l-109 -850q47 0 133 20z" />
    <glyph glyph-name="paragraph" unicode="&#xb6;" horiz-adv-x="1169" 
d="M698 385h-143q-230 -2 -355.5 109.5t-125.5 316.5q0 72 15 142.5t55.5 146.5t103 132.5t166.5 93t237 36.5h144zM1223 1362v-121q-46 -30 -148 -47l-96 -965q-41 -399 -434 -399q-107 0 -206 28t-163 85l53 106q156 -78 314 -78q127 0 196 56.5t82 191.5l115 1143h287z
" />
    <glyph glyph-name="periodcentered" unicode="&#xb7;" horiz-adv-x="583" 
d="M342 807q94 0 137 -16q21 -47 21 -113q0 -120 -78 -242h-277l-16 332q97 39 213 39z" />
    <glyph glyph-name="cedilla" unicode="&#xb8;" horiz-adv-x="600" 
d="M293 12l-14 -125q172 0 172 -131q0 -84 -68 -138t-197 -54q-154 0 -225 65l27 103q87 -23 133 -23q39 0 58.5 17t19.5 45q0 29 -20.5 40.5t-82.5 20.5l58 180h139z" />
    <glyph glyph-name="onesuperior" unicode="&#xb9;" horiz-adv-x="487" 
d="M510 868v-34l-4 -39h-420v71q46 27 102 33l37 393q-74 -4 -96 -4v41l8 68q54 3 122.5 31.5t105.5 72.5l112 -20l-57 -598z" />
    <glyph glyph-name="ordmasculine" unicode="&#xba;" horiz-adv-x="825" 
d="M492 1147q166 0 249.5 -76t83.5 -213q0 -54 -12 -107.5t-43 -109.5t-78.5 -98.5t-124.5 -69.5t-174 -27q-164 0 -245.5 75.5t-81.5 213.5q0 56 11.5 109.5t42 109.5t77 98t122.5 68.5t173 26.5zM479 1040q-33 0 -57 -12q-38 -45 -62 -154.5t-24 -207.5q0 -58 17.5 -85.5
t60.5 -27.5q36 0 57 12q36 41 62 153t26 206q0 63 -18.5 89.5t-61.5 26.5z" />
    <glyph glyph-name="guillemotright" unicode="&#xbb;" horiz-adv-x="1157" 
d="M1038 606v-102l-368 -367l-123 90l174 320l-103 336l140 88zM545 606v-102l-369 -367l-123 90l174 320l-102 336l139 88z" />
    <glyph glyph-name="onequarter" unicode="&#xbc;" horiz-adv-x="1683" 
d="M1343 1366l19 -43q-333 -461 -481 -672q-77 -111 -233 -360.5t-216 -339.5l-123 41l-18 47q278 380 483 674q78 111 232 358.5t215 337.5zM545 614v-36l-6 -43h-490v77q61 30 139 37l58 510q-63 -8 -133 -8v45l8 70q64 3 143.5 36t122.5 87l117 -21l-82 -737zM1632 283
v-56l-8 -82h-100l-13 -145h-231q2 53 10 145h-327l-35 95q108 217 188 424l-33 155l181 53q39 -24 62.5 -66.5t23.5 -86.5q0 -62 -57 -157t-197 -277l8 -17q99 15 147 15h54q3 29 28 206q84 49 176 66l62 -27q-21 -149 -33 -245h94z" />
    <glyph glyph-name="onehalf" unicode="&#xbd;" horiz-adv-x="1765" 
d="M1343 1366l19 -43q-333 -461 -481 -672q-77 -111 -233 -360.5t-216 -339.5l-123 41l-18 47q278 380 483 674q78 111 232 358.5t215 337.5zM545 614v-36l-6 -43h-490v77q61 30 139 37l58 510q-63 -8 -133 -8v45l8 70q64 3 143.5 36t122.5 87l117 -21l-82 -737zM1569 260
l112 -2q11 -57 11 -98q0 -57 -12.5 -109t-30.5 -78h-86q-186 0 -389 64l-87 -62q-36 11 -75 45v37q94 74 145.5 115.5t115 100t94.5 100t53 91.5t22 99q0 117 -103 117q-48 0 -77 -27.5t-29 -77.5q0 -30 14 -77l-106 -29q-64 71 -64 145q0 102 86 169t234 67
q138 0 222.5 -63t84.5 -173q0 -108 -92 -212.5t-291 -231.5h225z" />
    <glyph glyph-name="threequarters" unicode="&#xbe;" horiz-adv-x="1794" 
d="M1454 1366l19 -43q-361 -498 -482 -672q-77 -111 -232 -360t-216 -340l-123 41l-19 47q300 410 484 674q78 111 231.5 358t214.5 338zM506 973v-23q99 -18 142.5 -57.5t43.5 -120.5q0 -116 -88.5 -188t-261.5 -72q-157 0 -283 66l11 84q73 -9 131 -9q129 0 179 32t50 97
q0 36 -15.5 59.5t-54.5 39.5q-65 -25 -114 -33l-29 22q-8 21 -8 60q0 27 6 51q41 14 90 14q17 0 45 -4q109 66 109 154q0 84 -99 84q-114 0 -114 -117q0 -4 1 -11t1 -9l-111 -2q-33 58 -33 100q0 80 81 139.5t225 59.5q138 0 221.5 -57t83.5 -158q0 -47 -18 -83t-52.5 -58.5
t-65 -35.5t-73.5 -24zM1743 283v-56l-8 -82h-101l-12 -145h-231q2 53 10 145h-328l-35 95q112 226 189 424l-33 155l180 53q39 -24 62.5 -66.5t23.5 -86.5q0 -62 -57 -157t-197 -277l8 -17q99 15 148 15h53q5 40 16 116t13 90q84 49 176 66l61 -27q-14 -102 -32 -245h94z
" />
    <glyph glyph-name="questiondown" unicode="&#xbf;" horiz-adv-x="757" 
d="M385 764l-16 278q97 39 198 39q60 0 119 -16q19 -43 19 -104q0 -89 -70 -197h-250zM420 270q-151 -57 -183 -74q-67 -37 -75 -89q-2 -10 -2 -21l2 -33q68 -26 192.5 -39t257.5 -8l-26 -287q-95 -22 -168 -22q-373 0 -373 450q0 48 5 83t25 80.5t55.5 82.5t101 79
t157.5 81l21 111h188q27 -48 40 -87.5t13 -91.5q0 -38 -9 -65t-23 -46.5t-46 -38t-63 -31.5t-90 -34z" />
    <glyph glyph-name="Agrave" unicode="&#xc0;" horiz-adv-x="1351" 
d="M1307 123v-55l-9 -68h-630v121q60 33 141 47q-6 33 -19.5 98.5t-19.5 98.5h-401q-15 -38 -44.5 -113t-43.5 -113l125 -16v-55l-9 -68h-426v121q54 32 140 47q241 567 487 1073l-18 92l73 66q160 -3 281 -33q57 -295 84 -432.5t77 -372.5t97 -422zM739 526l-82 449h-24
q-115 -253 -197 -449h303zM811 1464h-149l-263 238q56 115 119 156h209z" />
    <glyph glyph-name="Aacute" unicode="&#xc1;" horiz-adv-x="1351" 
d="M1307 123v-55l-9 -68h-630v121q60 33 141 47q-6 33 -19.5 98.5t-19.5 98.5h-401q-15 -38 -44.5 -113t-43.5 -113l125 -16v-55l-9 -68h-426v121q54 32 140 47q241 567 487 1073l-18 92l73 66q160 -3 281 -33q57 -295 84 -432.5t77 -372.5t97 -422zM739 526l-82 449h-24
q-115 -253 -197 -449h303zM879 1858h206q61 -45 80 -156l-354 -238h-147z" />
    <glyph glyph-name="Acircumflex" unicode="&#xc2;" horiz-adv-x="1351" 
d="M1307 123v-55l-9 -68h-630v121q60 33 141 47q-6 33 -19.5 98.5t-19.5 98.5h-401q-15 -38 -44.5 -113t-43.5 -113l125 -16v-55l-9 -68h-426v121q54 32 140 47q241 567 487 1073l-18 92l73 66q160 -3 281 -33q57 -295 84 -432.5t77 -372.5t97 -422zM739 526l-82 449h-24
q-115 -253 -197 -449h303zM1112 1540l-205 -104l-174 200h-18l-195 -172h-131l328 375h203z" />
    <glyph glyph-name="Atilde" unicode="&#xc3;" horiz-adv-x="1351" 
d="M1307 123v-55l-9 -68h-630v121q60 33 141 47q-6 33 -19.5 98.5t-19.5 98.5h-401q-15 -38 -44.5 -113t-43.5 -113l125 -16v-55l-9 -68h-426v121q54 32 140 47q241 567 487 1073l-18 92l73 66q160 -3 281 -33q57 -295 84 -432.5t77 -372.5t97 -422zM739 526l-82 449h-24
q-115 -253 -197 -449h303zM1069 1806l74 -53q-71 -260 -256 -260q-64 0 -133 31l-185 82l-98 -113l-76 55q31 115 94 187.5t162 72.5q65 0 129 -30l189 -86z" />
    <glyph glyph-name="Adieresis" unicode="&#xc4;" horiz-adv-x="1351" 
d="M1307 123v-55l-9 -68h-630v121q60 33 141 47q-6 33 -19.5 98.5t-19.5 98.5h-401q-15 -38 -44.5 -113t-43.5 -113l125 -16v-55l-9 -68h-426v121q54 32 140 47q241 567 487 1073l-18 92l73 66q160 -3 281 -33q57 -295 84 -432.5t77 -372.5t97 -422zM739 526l-82 449h-24
q-115 -253 -197 -449h303zM553 1784q60 0 96 -15q21 -37 21 -94q0 -88 -62 -186h-219l-18 260q103 35 182 35zM1053 1784q60 0 96 -15q20 -33 20 -90q0 -98 -61 -190h-221l-17 260q103 35 183 35z" />
    <glyph glyph-name="Aring" unicode="&#xc5;" horiz-adv-x="1351" 
d="M1307 123v-55l-9 -68h-630v121q60 33 141 47q-6 33 -19.5 98.5t-19.5 98.5h-401q-15 -38 -44.5 -113t-43.5 -113l125 -16v-55l-9 -68h-426v121q54 32 140 47q241 567 487 1073l-18 92l73 66q160 -3 281 -33q57 -295 84 -432.5t77 -372.5t97 -422zM739 526l-82 449h-24
q-115 -253 -197 -449h303zM807 1884q116 0 175.5 -48t59.5 -136q0 -101 -75.5 -169.5t-223.5 -68.5q-117 0 -176 47.5t-59 135.5q0 101 76 170t223 69zM793 1772q-27 0 -50 -15q-32 -45 -32 -110q0 -36 12 -54t41 -18q31 0 49 12q35 49 35 117q0 35 -13 51.5t-42 16.5z" />
    <glyph glyph-name="AE" unicode="&#xc6;" horiz-adv-x="1828" 
d="M1225 1210l-45 -448l297 20l16 -57l-14 -129l-314 20l-47 -473h316l88 256l198 -12q4 -62 4 -92q0 -147 -49 -322l-80 -10l-682 37h-311v121q79 37 154 49l20 209h-381l-119 -242l113 -14v-55l-6 -68h-414v121q59 34 117 45q261 504 578 1063l-136 8v57l9 68h1032
q122 31 186 31l64 -31q4 -40 4 -76q0 -144 -49 -315h-193l-27 227zM793 539l65 651h-41q-158 -291 -340 -651h316z" />
    <glyph glyph-name="Ccedilla" unicode="&#xc7;" horiz-adv-x="1263" 
d="M821 1217q-86 0 -166 -41q-69 -74 -118.5 -266.5t-49.5 -360.5q0 -179 65.5 -254.5t213.5 -75.5q184 0 364 100l15 -133q-79 -82 -199 -140.5t-254 -68.5l-10 -90q172 0 172 -131q0 -84 -67.5 -138t-196.5 -54q-154 0 -225 65l26 103q87 -23 133 -23q78 0 78 62
q0 29 -20 40.5t-82 20.5l47 148q-228 24 -346.5 175t-118.5 394q0 112 24 226.5t77 225.5t128.5 196.5t188.5 138.5t248 53q126 0 213 -54l4 29q17 3 50 10t50 10t44 6t54 3l64 -54q4 -28 4 -57q0 -158 -49 -344h-201l-29 260q-78 19 -131 19z" />
    <glyph glyph-name="Egrave" unicode="&#xc8;" horiz-adv-x="1222" 
d="M623 1210l-45 -448l296 20l17 -57l-14 -129l-314 20l-47 -473h311l88 256l199 -12q4 -62 4 -92q0 -147 -49 -322h-2l-80 -10l-676 37h-301v121q83 39 146 49l102 1032l-137 23v57l8 68q226 12 576 12h266q122 31 186 31l64 -31q4 -40 4 -76q0 -144 -49 -315h-193l-27 227
zM774 1464h-149l-263 238q56 115 119 156h209z" />
    <glyph glyph-name="Eacute" unicode="&#xc9;" horiz-adv-x="1222" 
d="M623 1210l-45 -448l296 20l17 -57l-14 -129l-314 20l-47 -473h311l88 256l199 -12q4 -62 4 -92q0 -147 -49 -322h-2l-80 -10l-676 37h-301v121q83 39 146 49l102 1032l-137 23v57l8 68q226 12 576 12h266q122 31 186 31l64 -31q4 -40 4 -76q0 -144 -49 -315h-193l-27 227
zM842 1858h207q60 -45 79 -156l-354 -238h-147z" />
    <glyph glyph-name="Ecircumflex" unicode="&#xca;" horiz-adv-x="1222" 
d="M623 1210l-45 -448l296 20l17 -57l-14 -129l-314 20l-47 -473h311l88 256l199 -12q4 -62 4 -92q0 -147 -49 -322h-2l-80 -10l-676 37h-301v121q83 39 146 49l102 1032l-137 23v57l8 68q226 12 576 12h266q122 31 186 31l64 -31q4 -40 4 -76q0 -144 -49 -315h-193l-27 227
zM1075 1540l-205 -104l-174 200h-18l-195 -172h-131l328 375h203z" />
    <glyph glyph-name="Edieresis" unicode="&#xcb;" horiz-adv-x="1222" 
d="M623 1210l-45 -448l296 20l17 -57l-14 -129l-314 20l-47 -473h311l88 256l199 -12q4 -62 4 -92q0 -147 -49 -322h-2l-80 -10l-676 37h-301v121q83 39 146 49l102 1032l-137 23v57l8 68q226 12 576 12h266q122 31 186 31l64 -31q4 -40 4 -76q0 -144 -49 -315h-193l-27 227
zM516 1784q60 0 96 -15q21 -37 21 -94q0 -88 -62 -186h-219l-18 260q103 35 182 35zM1016 1784q60 0 96 -15q21 -35 21 -90q0 -96 -62 -190h-221l-16 260q103 35 182 35z" />
    <glyph glyph-name="Igrave" unicode="&#xcc;" horiz-adv-x="735" 
d="M764 1362v-121q-54 -32 -146 -47l-104 -1053l139 -18v-55l-8 -68h-635v121q58 32 144 47l104 1053l-137 18v55l8 68h635zM528 1464h-149l-262 238q56 115 119 156h208z" />
    <glyph glyph-name="Iacute" unicode="&#xcd;" horiz-adv-x="735" 
d="M764 1362v-121q-54 -32 -146 -47l-104 -1053l139 -18v-55l-8 -68h-635v121q58 32 144 47l104 1053l-137 18v55l8 68h635zM596 1858h207q61 -45 80 -156l-355 -238h-147z" />
    <glyph glyph-name="Icircumflex" unicode="&#xce;" horiz-adv-x="735" 
d="M764 1362v-121q-54 -32 -146 -47l-104 -1053l139 -18v-55l-8 -68h-635v121q58 32 144 47l104 1053l-137 18v55l8 68h635zM829 1540l-204 -104l-174 200h-19l-194 -172h-132l328 375h203z" />
    <glyph glyph-name="Idieresis" unicode="&#xcf;" horiz-adv-x="735" 
d="M764 1362v-121q-54 -32 -146 -47l-104 -1053l139 -18v-55l-8 -68h-635v121q58 32 144 47l104 1053l-137 18v55l8 68h635zM307 1800q61 0 96 -14q25 -45 25 -96q0 -95 -63 -185h-220l-18 256q90 39 180 39zM731 1800q58 0 96 -14q23 -41 23 -94q0 -96 -64 -187h-219
l-20 256q93 39 184 39z" />
    <glyph glyph-name="Eth" unicode="&#xd0;" horiz-adv-x="1441" 
d="M688 1384q158 0 278 -25t202 -72t134 -118t74.5 -158t22.5 -198q0 -74 -9.5 -147.5t-33.5 -155.5t-61.5 -153.5t-98.5 -138t-139 -114t-187.5 -76t-240.5 -28.5h-596v121q84 39 145 49l45 459h-139v47l14 104h140l43 420l-138 27v55l9 68q105 14 264.5 24t271.5 10z
M856 219q69 102 105 276.5t36 381.5q0 66 -5.5 115.5t-22 95t-44 74t-73 45.5t-107.5 16h-98l-45 -443h209v-47l-16 -104h-207l-47 -467h80q149 0 235 57z" />
    <glyph glyph-name="Ntilde" unicode="&#xd1;" horiz-adv-x="1452" 
d="M1485 1362v-121q-52 -31 -144 -47l-118 -1178q-137 -39 -305 -39l-58 21l-291 709q-90 231 -143 421h-25l-57 -989l123 -16v-55l-8 -68h-451v121q58 32 144 47l104 1032l-137 25v55l8 68q227 14 573 14l236 -578q72 -184 143 -411h25l41 848l-146 18v55l9 68h477z
M1135 1806l73 -53q-71 -260 -256 -260q-64 0 -133 31l-184 82l-98 -113l-76 55q31 115 94 187.5t162 72.5q65 0 129 -30l188 -86z" />
    <glyph glyph-name="Ograve" unicode="&#xd2;" horiz-adv-x="1466" 
d="M836 1389q285 0 436 -153.5t151 -424.5q1 -111 -22.5 -222.5t-80.5 -224t-141 -198t-216 -139.5t-295 -54q-282 0 -434 155t-152 429q0 78 11.5 156.5t38.5 161t67 157t101.5 140.5t137.5 113.5t178 75.5t220 28zM819 1217q-84 0 -164 -41q-71 -76 -119.5 -277.5
t-48.5 -417.5q0 -172 44.5 -254t160.5 -82q84 0 164 41q71 76 119.5 277.5t48.5 417.5q0 172 -44.5 254t-160.5 82zM899 1464h-149l-263 238q56 115 119 156h209z" />
    <glyph glyph-name="Oacute" unicode="&#xd3;" horiz-adv-x="1466" 
d="M836 1389q285 0 436 -153.5t151 -424.5q1 -111 -22.5 -222.5t-80.5 -224t-141 -198t-216 -139.5t-295 -54q-282 0 -434 155t-152 429q0 78 11.5 156.5t38.5 161t67 157t101.5 140.5t137.5 113.5t178 75.5t220 28zM819 1217q-84 0 -164 -41q-71 -76 -119.5 -277.5
t-48.5 -417.5q0 -172 44.5 -254t160.5 -82q84 0 164 41q71 76 119.5 277.5t48.5 417.5q0 172 -44.5 254t-160.5 82zM967 1858h207q60 -45 79 -156l-354 -238h-147z" />
    <glyph glyph-name="Ocircumflex" unicode="&#xd4;" horiz-adv-x="1466" 
d="M836 1389q285 0 436 -153.5t151 -424.5q1 -111 -22.5 -222.5t-80.5 -224t-141 -198t-216 -139.5t-295 -54q-282 0 -434 155t-152 429q0 78 11.5 156.5t38.5 161t67 157t101.5 140.5t137.5 113.5t178 75.5t220 28zM819 1217q-84 0 -164 -41q-71 -76 -119.5 -277.5
t-48.5 -417.5q0 -172 44.5 -254t160.5 -82q84 0 164 41q71 76 119.5 277.5t48.5 417.5q0 172 -44.5 254t-160.5 82zM1200 1540l-205 -104l-174 200h-18l-195 -172h-131l328 375h203z" />
    <glyph glyph-name="Otilde" unicode="&#xd5;" horiz-adv-x="1466" 
d="M836 1389q285 0 436 -153.5t151 -424.5q1 -111 -22.5 -222.5t-80.5 -224t-141 -198t-216 -139.5t-295 -54q-282 0 -434 155t-152 429q0 78 11.5 156.5t38.5 161t67 157t101.5 140.5t137.5 113.5t178 75.5t220 28zM819 1217q-84 0 -164 -41q-71 -76 -119.5 -277.5
t-48.5 -417.5q0 -172 44.5 -254t160.5 -82q84 0 164 41q71 76 119.5 277.5t48.5 417.5q0 172 -44.5 254t-160.5 82zM1157 1806l74 -53q-71 -260 -256 -260q-64 0 -133 31l-185 82l-98 -113l-76 55q31 115 94 187.5t162 72.5q65 0 129 -30l189 -86z" />
    <glyph glyph-name="Odieresis" unicode="&#xd6;" horiz-adv-x="1466" 
d="M836 1389q285 0 436 -153.5t151 -424.5q1 -111 -22.5 -222.5t-80.5 -224t-141 -198t-216 -139.5t-295 -54q-282 0 -434 155t-152 429q0 78 11.5 156.5t38.5 161t67 157t101.5 140.5t137.5 113.5t178 75.5t220 28zM819 1217q-84 0 -164 -41q-71 -76 -119.5 -277.5
t-48.5 -417.5q0 -172 44.5 -254t160.5 -82q84 0 164 41q71 76 119.5 277.5t48.5 417.5q0 172 -44.5 254t-160.5 82zM641 1784q60 0 96 -15q21 -37 21 -94q0 -88 -62 -186h-219l-18 260q103 35 182 35zM1141 1784q60 0 96 -15q20 -33 20 -90q0 -98 -61 -190h-221l-17 260
q103 35 183 35z" />
    <glyph glyph-name="multiply" unicode="&#xd7;" 
d="M1071 993l45 -63l-330 -320l287 -307l-84 -100l-61 -45l-295 321l-326 -317l-100 82l-43 61l332 322l-285 309l80 94l65 45l293 -317l326 315z" />
    <glyph glyph-name="Oslash" unicode="&#xd8;" horiz-adv-x="1466" 
d="M1423 811q1 -111 -22.5 -222.5t-80.5 -224t-141 -198t-216 -139.5t-295 -54q-189 0 -328 74l-168 -219l-94 51l-12 43l161 213q-145 151 -145 422q0 78 11.5 156.5t38.5 161t67 157t101.5 140.5t137.5 113.5t178 75.5t220 28q166 0 290 -56l152 203l94 -53l8 -41
l-133 -182q176 -150 176 -449zM655 1176q-71 -76 -119.5 -277.5t-48.5 -417.5v-16l494 665q-49 87 -162 87q-84 0 -164 -41zM856 186q71 76 119.5 277.5t48.5 417.5q0 61 -2 88l-512 -688q42 -136 182 -136q84 0 164 41z" />
    <glyph glyph-name="Ugrave" unicode="&#xd9;" horiz-adv-x="1361" 
d="M1415 1362v-121q-56 -32 -145 -47q-40 -547 -70 -737q-37 -248 -174 -366t-387 -118q-245 0 -363 109.5t-118 325.5q0 151 78 815l-138 16v55l8 68h619v-121q-40 -26 -129 -49q-78 -677 -78 -817q0 -126 47.5 -185t167.5 -59q102 0 182 47q73 87 99 289q35 297 67 754
l-129 18v55l9 68h454zM901 1464h-149l-263 238q56 115 119 156h209z" />
    <glyph glyph-name="Uacute" unicode="&#xda;" horiz-adv-x="1361" 
d="M1415 1362v-121q-56 -32 -145 -47q-40 -547 -70 -737q-37 -248 -174 -366t-387 -118q-245 0 -363 109.5t-118 325.5q0 151 78 815l-138 16v55l8 68h619v-121q-40 -26 -129 -49q-78 -677 -78 -817q0 -126 47.5 -185t167.5 -59q102 0 182 47q73 87 99 289q35 297 67 754
l-129 18v55l9 68h454zM969 1858h207q60 -45 79 -156l-354 -238h-147z" />
    <glyph glyph-name="Ucircumflex" unicode="&#xdb;" horiz-adv-x="1361" 
d="M1415 1362v-121q-56 -32 -145 -47q-40 -547 -70 -737q-37 -248 -174 -366t-387 -118q-245 0 -363 109.5t-118 325.5q0 151 78 815l-138 16v55l8 68h619v-121q-40 -26 -129 -49q-78 -677 -78 -817q0 -126 47.5 -185t167.5 -59q102 0 182 47q73 87 99 289q35 297 67 754
l-129 18v55l9 68h454zM1202 1540l-205 -104l-174 200h-18l-195 -172h-131l328 375h203z" />
    <glyph glyph-name="Udieresis" unicode="&#xdc;" horiz-adv-x="1361" 
d="M1415 1362v-121q-56 -32 -145 -47q-40 -547 -70 -737q-37 -248 -174 -366t-387 -118q-245 0 -363 109.5t-118 325.5q0 151 78 815l-138 16v55l8 68h619v-121q-40 -26 -129 -49q-78 -677 -78 -817q0 -126 47.5 -185t167.5 -59q102 0 182 47q73 87 99 289q35 297 67 754
l-129 18v55l9 68h454zM643 1784q60 0 96 -15q21 -37 21 -94q0 -88 -62 -186h-219l-18 260q103 35 182 35zM1143 1784q60 0 96 -15q21 -35 21 -90q0 -96 -62 -190h-221l-16 260q103 35 182 35z" />
    <glyph glyph-name="Yacute" unicode="&#xdd;" horiz-adv-x="1292" 
d="M1231 1196q-127 -269 -393 -721l-35 -334l143 -18v-55l-8 -68h-666v121q77 33 172 47l29 285q-135 429 -270 770l-119 16v55l8 68h635v-121q-50 -26 -137 -45q107 -340 164 -547h24q170 304 277 572l-131 18v55l8 68h428v-121q-59 -32 -129 -45zM899 1858h207
q61 -45 80 -156l-355 -238h-147z" />
    <glyph glyph-name="Thorn" unicode="&#xde;" horiz-adv-x="1288" 
d="M616 1159h140q270 0 384.5 -91.5t114.5 -295.5q0 -80 -15.5 -150.5t-51 -133.5t-89.5 -108.5t-135.5 -72t-183.5 -26.5q-84 0 -159 16v141q72 0 139 23q92 134 92 332q0 105 -33 154.5t-127 49.5h-92l-84 -847l160 -19v-57l-8 -74h-658v121q55 32 144 47l104 1055
l-137 16v55l8 68h475l29 -43z" />
    <glyph glyph-name="germandbls" unicode="&#xdf;" horiz-adv-x="1255" 
d="M870 805q94 -90 146 -143.5t100.5 -115.5t68 -114t19.5 -108q0 -60 -24.5 -119.5t-72.5 -112.5t-132 -86t-191 -33q-136 0 -202 47.5t-84 139.5l129 123l168 -162q45 7 67 16q29 42 29 101q0 36 -19.5 74t-83.5 102q-7 7 -31.5 30t-31.5 30.5t-24.5 27t-23.5 31t-15 30
t-12 37t-3 39.5q0 39 12 67t42 76t51 92q55 101 74 192t16 198q-2 75 -19.5 104t-70.5 29q-31 0 -86 -19q-116 -140 -154 -534l-76 -791q-23 -251 -114 -370t-252 -119q-157 0 -273 96l23 117q150 -27 221 -29q35 100 51 264l86 850l-119 29v115q55 18 142 32
q25 130 81.5 228t137.5 158t179.5 89t213.5 29q383 0 383 -287q0 -57 -15.5 -107.5t-40.5 -91t-69.5 -85.5t-88.5 -80.5t-112 -85.5z" />
    <glyph glyph-name="agrave" unicode="&#xe0;" horiz-adv-x="1198" 
d="M1145 184l8 -114q-157 -95 -293 -95q-72 0 -112.5 32.5t-40.5 90.5q0 10 1 23t3.5 30.5t5.5 33t7.5 40t8.5 41.5t10.5 47t10.5 48t12 53t12 53l-24 4q-40 -117 -71.5 -192t-68 -138.5t-76 -97.5t-89 -52t-113.5 -18t-112 17t-86.5 57.5t-58.5 114t-20 178.5
q0 90 14.5 178t43 171.5t73.5 154t102 124t134 83.5t164 30q153 0 227 -77l25 53q83 24 215 24l63 -65l-108 -852q47 0 133 20zM530 209q121 190 240 700q-52 27 -111 27q-38 0 -92 -16q-68 -123 -104.5 -289.5t-36.5 -306.5q0 -68 13.5 -93.5t52.5 -25.5q10 0 38 4z
M733 1174h-129l-270 284q50 113 121 158h209z" />
    <glyph glyph-name="aacute" unicode="&#xe1;" horiz-adv-x="1198" 
d="M1145 184l8 -114q-157 -95 -293 -95q-72 0 -112.5 32.5t-40.5 90.5q0 10 1 23t3.5 30.5t5.5 33t7.5 40t8.5 41.5t10.5 47t10.5 48t12 53t12 53l-24 4q-40 -117 -71.5 -192t-68 -138.5t-76 -97.5t-89 -52t-113.5 -18t-112 17t-86.5 57.5t-58.5 114t-20 178.5
q0 90 14.5 178t43 171.5t73.5 154t102 124t134 83.5t164 30q153 0 227 -77l25 53q83 24 215 24l63 -65l-108 -852q47 0 133 20zM530 209q121 190 240 700q-52 27 -111 27q-38 0 -92 -16q-68 -123 -104.5 -289.5t-36.5 -306.5q0 -68 13.5 -93.5t52.5 -25.5q10 0 38 4z
M801 1616h209q57 -57 73 -158l-354 -284h-129z" />
    <glyph glyph-name="acircumflex" unicode="&#xe2;" horiz-adv-x="1198" 
d="M1145 184l8 -114q-157 -95 -293 -95q-72 0 -112.5 32.5t-40.5 90.5q0 10 1 23t3.5 30.5t5.5 33t7.5 40t8.5 41.5t10.5 47t10.5 48t12 53t12 53l-24 4q-40 -117 -71.5 -192t-68 -138.5t-76 -97.5t-89 -52t-113.5 -18t-112 17t-86.5 57.5t-58.5 114t-20 178.5
q0 90 14.5 178t43 171.5t73.5 154t102 124t134 83.5t164 30q153 0 227 -77l25 53q83 24 215 24l63 -65l-108 -852q47 0 133 20zM530 209q121 190 240 700q-52 27 -111 27q-38 0 -92 -16q-68 -123 -104.5 -289.5t-36.5 -306.5q0 -68 13.5 -93.5t52.5 -25.5q10 0 38 4z
M1020 1243l-207 -94l-149 225h-21l-180 -200h-127l313 417h201z" />
    <glyph glyph-name="atilde" unicode="&#xe3;" horiz-adv-x="1198" 
d="M1145 184l8 -114q-157 -95 -293 -95q-72 0 -112.5 32.5t-40.5 90.5q0 10 1 23t3.5 30.5t5.5 33t7.5 40t8.5 41.5t10.5 47t10.5 48t12 53t12 53l-24 4q-40 -117 -71.5 -192t-68 -138.5t-76 -97.5t-89 -52t-113.5 -18t-112 17t-86.5 57.5t-58.5 114t-20 178.5
q0 90 14.5 178t43 171.5t73.5 154t102 124t134 83.5t164 30q153 0 227 -77l25 53q83 24 215 24l63 -65l-108 -852q47 0 133 20zM530 209q121 190 240 700q-52 27 -111 27q-38 0 -92 -16q-68 -123 -104.5 -289.5t-36.5 -306.5q0 -68 13.5 -93.5t52.5 -25.5q10 0 38 4z
M956 1524l76 -54q-20 -58 -41.5 -101.5t-51 -81.5t-69 -58.5t-86.5 -20.5q-65 0 -127 35l-139 80l-96 -115l-74 56q15 42 29 75.5t36.5 70t47 60.5t59 40t74.5 16q64 0 127 -37l137 -82z" />
    <glyph glyph-name="adieresis" unicode="&#xe4;" horiz-adv-x="1198" 
d="M1145 184l8 -114q-157 -95 -293 -95q-72 0 -112.5 32.5t-40.5 90.5q0 10 1 23t3.5 30.5t5.5 33t7.5 40t8.5 41.5t10.5 47t10.5 48t12 53t12 53l-24 4q-40 -117 -71.5 -192t-68 -138.5t-76 -97.5t-89 -52t-113.5 -18t-112 17t-86.5 57.5t-58.5 114t-20 178.5
q0 90 14.5 178t43 171.5t73.5 154t102 124t134 83.5t164 30q153 0 227 -77l25 53q83 24 215 24l63 -65l-108 -852q47 0 133 20zM530 209q121 190 240 700q-52 27 -111 27q-38 0 -92 -16q-68 -123 -104.5 -289.5t-36.5 -306.5q0 -68 13.5 -93.5t52.5 -25.5q10 0 38 4z
M508 1534q71 0 100 -14q21 -47 21 -95q0 -50 -14.5 -90.5t-49.5 -93.5h-219l-18 258q93 35 180 35zM946 1534q66 0 98 -14q21 -44 21 -90q0 -93 -61 -189h-220l-18 258q93 35 180 35z" />
    <glyph glyph-name="aring" unicode="&#xe5;" horiz-adv-x="1198" 
d="M1145 184l8 -114q-157 -95 -293 -95q-72 0 -112.5 32.5t-40.5 90.5q0 10 1 23t3.5 30.5t5.5 33t7.5 40t8.5 41.5t10.5 47t10.5 48t12 53t12 53l-24 4q-40 -117 -71.5 -192t-68 -138.5t-76 -97.5t-89 -52t-113.5 -18t-112 17t-86.5 57.5t-58.5 114t-20 178.5
q0 90 14.5 178t43 171.5t73.5 154t102 124t134 83.5t164 30q153 0 227 -77l25 53q83 24 215 24l63 -65l-108 -852q47 0 133 20zM530 209q121 190 240 700q-52 27 -111 27q-38 0 -92 -16q-68 -123 -104.5 -289.5t-36.5 -306.5q0 -68 13.5 -93.5t52.5 -25.5q10 0 38 4z
M725 1638q120 0 179 -53t59 -145q0 -109 -75 -184.5t-224 -75.5q-119 0 -177.5 52t-58.5 146q0 51 17 96t51.5 82.5t93.5 59.5t135 22zM713 1526q-25 0 -45 -10q-43 -52 -43 -144q0 -41 12 -60.5t41 -19.5q25 0 47 11q45 55 45 145q0 78 -57 78z" />
    <glyph glyph-name="ae" unicode="&#xe6;" horiz-adv-x="1662" 
d="M1229 201q147 0 315 104l15 -123q-82 -89 -207.5 -149t-280.5 -60q-101 0 -170.5 31.5t-103.5 86t-47 129t0 161.5l-25 6q-40 -113 -73 -182.5t-78 -126t-102.5 -81t-135.5 -24.5q-64 0 -112 17t-86.5 57.5t-58.5 114.5t-20 180q0 108 20 212t63 200t105 168.5t153 115.5
t200 43q187 0 313 -114q131 114 349 114q102 0 177 -23.5t116.5 -66t61 -94t19.5 -113.5q0 -73 -26.5 -130.5t-71.5 -93t-105.5 -61.5t-128.5 -35.5t-139 -15t-139 0.5q0 -130 51 -189t152 -59zM813 850q5 8 15 22t12 17q-84 47 -174 47q-43 0 -97 -16q-69 -122 -105 -288
t-36 -308q0 -68 13.5 -93.5t52.5 -25.5q10 0 34 4q57 109 141 318t144 323zM1217 934q-40 0 -76 -19q-43 -56 -72 -162.5t-39 -215.5q74 10 127.5 37.5t82 67t41.5 83t13 94.5q0 65 -18.5 90t-58.5 25z" />
    <glyph glyph-name="ccedilla" unicode="&#xe7;" horiz-adv-x="976" 
d="M600 209q122 0 279 88l14 -129q-61 -66 -147.5 -115.5t-188.5 -68.5l-12 -97q172 0 172 -131q0 -84 -67.5 -138t-196.5 -54q-155 0 -226 65l27 103q87 -23 133 -23q78 0 78 62q0 29 -20.5 40.5t-82.5 20.5l46 143q-180 10 -268.5 127t-88.5 314q0 92 18.5 181t62.5 177.5
t109.5 155t167.5 108t228 41.5q130 0 219.5 -48t106.5 -138l-129 -154l-256 193q-23 -5 -52 -17q-46 -73 -75 -213t-29 -251q0 -131 45 -186.5t133 -55.5z" />
    <glyph glyph-name="egrave" unicode="&#xe8;" horiz-adv-x="1050" 
d="M614 201q150 0 318 104l14 -123q-81 -88 -206.5 -148.5t-280.5 -60.5q-208 0 -308 117t-100 324q0 93 18.5 182t63.5 178t112 155.5t172 108t236 41.5q100 0 174 -23.5t116 -65.5t61.5 -93t19.5 -113q0 -72 -26.5 -129.5t-72 -93t-106 -61.5t-128.5 -36t-139 -15.5
t-138 0.5q0 -131 49.5 -189.5t150.5 -58.5zM602 934q-36 0 -76 -19q-41 -56 -69.5 -162.5t-38.5 -215.5q73 10 126 37.5t81.5 67t41.5 83t13 94.5q0 65 -18.5 90t-59.5 25zM729 1174h-129l-270 284q50 113 121 158h208z" />
    <glyph glyph-name="eacute" unicode="&#xe9;" horiz-adv-x="1050" 
d="M614 201q150 0 318 104l14 -123q-81 -88 -206.5 -148.5t-280.5 -60.5q-208 0 -308 117t-100 324q0 93 18.5 182t63.5 178t112 155.5t172 108t236 41.5q100 0 174 -23.5t116 -65.5t61.5 -93t19.5 -113q0 -72 -26.5 -129.5t-72 -93t-106 -61.5t-128.5 -36t-139 -15.5
t-138 0.5q0 -131 49.5 -189.5t150.5 -58.5zM602 934q-36 0 -76 -19q-41 -56 -69.5 -162.5t-38.5 -215.5q73 10 126 37.5t81.5 67t41.5 83t13 94.5q0 65 -18.5 90t-59.5 25zM797 1616h209q57 -57 73 -158l-354 -284h-129z" />
    <glyph glyph-name="ecircumflex" unicode="&#xea;" horiz-adv-x="1050" 
d="M614 201q150 0 318 104l14 -123q-81 -88 -206.5 -148.5t-280.5 -60.5q-208 0 -308 117t-100 324q0 93 18.5 182t63.5 178t112 155.5t172 108t236 41.5q100 0 174 -23.5t116 -65.5t61.5 -93t19.5 -113q0 -72 -26.5 -129.5t-72 -93t-106 -61.5t-128.5 -36t-139 -15.5
t-138 0.5q0 -131 49.5 -189.5t150.5 -58.5zM602 934q-36 0 -76 -19q-41 -56 -69.5 -162.5t-38.5 -215.5q73 10 126 37.5t81.5 67t41.5 83t13 94.5q0 65 -18.5 90t-59.5 25zM1016 1243l-207 -94l-150 225h-20l-180 -200h-127l313 417h201z" />
    <glyph glyph-name="edieresis" unicode="&#xeb;" horiz-adv-x="1050" 
d="M614 201q150 0 318 104l14 -123q-81 -88 -206.5 -148.5t-280.5 -60.5q-208 0 -308 117t-100 324q0 93 18.5 182t63.5 178t112 155.5t172 108t236 41.5q100 0 174 -23.5t116 -65.5t61.5 -93t19.5 -113q0 -72 -26.5 -129.5t-72 -93t-106 -61.5t-128.5 -36t-139 -15.5
t-138 0.5q0 -131 49.5 -189.5t150.5 -58.5zM602 934q-36 0 -76 -19q-41 -56 -69.5 -162.5t-38.5 -215.5q73 10 126 37.5t81.5 67t41.5 83t13 94.5q0 65 -18.5 90t-59.5 25zM504 1534q71 0 100 -14q21 -47 21 -95q0 -50 -14.5 -90.5t-49.5 -93.5h-219l-18 258q93 35 180 35z
M942 1534q66 0 98 -14q21 -44 21 -90q0 -91 -62 -189h-219l-18 258q93 35 180 35z" />
    <glyph glyph-name="igrave" unicode="&#xec;" horiz-adv-x="612" 
d="M479 1073l58 -63q-80 -645 -109 -846q45 0 131 20l8 -114q-157 -95 -288 -95q-94 0 -139.5 37t-45.5 125q0 84 88 729l-121 25v115q225 64 418 67zM438 1174h-127l-280 284q51 116 121 158h206z" />
    <glyph glyph-name="iacute" unicode="&#xed;" horiz-adv-x="612" 
d="M479 1073l58 -63q-80 -645 -109 -846q45 0 131 20l8 -114q-157 -95 -288 -95q-94 0 -139.5 37t-45.5 125q0 84 88 729l-121 25v115q225 64 418 67zM467 1616h209q58 -51 76 -158l-316 -284h-127z" />
    <glyph glyph-name="icircumflex" unicode="&#xee;" horiz-adv-x="612" 
d="M479 1073l58 -63q-80 -645 -109 -846q45 0 131 20l8 -114q-157 -95 -288 -95q-94 0 -139.5 37t-45.5 125q0 84 88 729l-121 25v115q225 64 418 67zM682 1243l-209 -82l-111 197h-20l-135 -180h-129l270 413h205z" />
    <glyph glyph-name="idieresis" unicode="&#xef;" horiz-adv-x="612" 
d="M479 1073l58 -63q-80 -645 -109 -846q45 0 131 20l8 -114q-157 -95 -288 -95q-94 0 -139.5 37t-45.5 125q0 84 88 729l-121 25v115q225 64 418 67zM231 1534q70 0 99 -14q18 -38 18 -93q0 -52 -14 -94t-47 -92h-203l-16 258q93 35 163 35zM627 1534q67 0 98 -14
q18 -34 18 -90q0 -100 -63 -189h-201l-18 258q93 35 166 35z" />
    <glyph glyph-name="eth" unicode="&#xf0;" horiz-adv-x="1138" 
d="M1004 1438l-173 -86q269 -216 269 -621q0 -114 -19.5 -219.5t-65.5 -205.5t-115.5 -173t-177 -117.5t-241.5 -44.5q-204 0 -319 105t-115 319q0 74 13 149.5t47 157t84.5 144t133.5 103t187 40.5q70 0 116 -17.5t91 -53.5l22 2q-9 191 -135 317l-217 -109l-108 70l-2 37
l204 102q-102 67 -241 123l77 101q226 -45 369 -119l209 104l107 -71v-37zM606 139q56 70 90 238.5t35 394.5v25q-67 24 -119 24q-48 0 -82 -18q-49 -57 -81.5 -211t-32.5 -295q0 -92 23 -135t83 -43q42 0 84 20z" />
    <glyph glyph-name="ntilde" unicode="&#xf1;" horiz-adv-x="1220" 
d="M1155 184l6 -114q-157 -95 -301 -95q-176 0 -176 160q0 71 49 328t49 317q0 37 -13.5 53.5t-47.5 16.5q-23 0 -35 -2q-158 -253 -293 -848q-116 -25 -256 -25l-59 66l104 825l-121 25v115q88 27 204 46.5t214 20.5l53 -63l-90 -420l25 -4q41 118 72.5 194t67.5 138.5
t75.5 95.5t88 50t112.5 17q128 0 183.5 -60.5t55.5 -174.5q0 -153 -100 -682q47 0 133 20zM1014 1507l76 -53q-20 -58 -41.5 -101.5t-51 -81.5t-69 -58.5t-86.5 -20.5q-65 0 -127 35l-140 80l-96 -115l-73 55q19 54 38 94.5t48.5 82t69.5 63.5t89 22q66 0 127 -36l137 -82z
" />
    <glyph glyph-name="ograve" unicode="&#xf2;" horiz-adv-x="1150" 
d="M653 1079q228 0 339.5 -117.5t111.5 -330.5q0 -62 -9 -124.5t-29.5 -128t-52 -123.5t-80 -110.5t-109 -90t-143.5 -59.5t-179 -22q-228 0 -339.5 118.5t-111.5 334.5q0 90 18 177t62 174.5t110.5 153.5t172.5 107t239 41zM627 934q-44 0 -84 -19q-54 -68 -88.5 -256
t-34.5 -356q0 -98 24 -141t88 -43q41 0 82 18q53 65 88 254.5t35 356.5q0 103 -24 144.5t-86 41.5zM721 1174h-129l-270 284q50 114 120 158h209z" />
    <glyph glyph-name="oacute" unicode="&#xf3;" horiz-adv-x="1150" 
d="M653 1079q228 0 339.5 -117.5t111.5 -330.5q0 -62 -9 -124.5t-29.5 -128t-52 -123.5t-80 -110.5t-109 -90t-143.5 -59.5t-179 -22q-228 0 -339.5 118.5t-111.5 334.5q0 90 18 177t62 174.5t110.5 153.5t172.5 107t239 41zM627 934q-44 0 -84 -19q-54 -68 -88.5 -256
t-34.5 -356q0 -98 24 -141t88 -43q41 0 82 18q53 65 88 254.5t35 356.5q0 103 -24 144.5t-86 41.5zM788 1616h209q58 -58 74 -158l-354 -284h-129z" />
    <glyph glyph-name="ocircumflex" unicode="&#xf4;" horiz-adv-x="1150" 
d="M653 1079q228 0 339.5 -117.5t111.5 -330.5q0 -62 -9 -124.5t-29.5 -128t-52 -123.5t-80 -110.5t-109 -90t-143.5 -59.5t-179 -22q-228 0 -339.5 118.5t-111.5 334.5q0 90 18 177t62 174.5t110.5 153.5t172.5 107t239 41zM627 934q-44 0 -84 -19q-54 -68 -88.5 -256
t-34.5 -356q0 -98 24 -141t88 -43q41 0 82 18q53 65 88 254.5t35 356.5q0 103 -24 144.5t-86 41.5zM1008 1243l-207 -94l-150 225h-20l-180 -200h-127l313 417h201z" />
    <glyph glyph-name="otilde" unicode="&#xf5;" horiz-adv-x="1150" 
d="M653 1079q228 0 339.5 -117.5t111.5 -330.5q0 -62 -9 -124.5t-29.5 -128t-52 -123.5t-80 -110.5t-109 -90t-143.5 -59.5t-179 -22q-228 0 -339.5 118.5t-111.5 334.5q0 90 18 177t62 174.5t110.5 153.5t172.5 107t239 41zM627 934q-44 0 -84 -19q-54 -68 -88.5 -256
t-34.5 -356q0 -98 24 -141t88 -43q41 0 82 18q53 65 88 254.5t35 356.5q0 103 -24 144.5t-86 41.5zM944 1524l76 -54q-20 -58 -41.5 -101.5t-51 -81.5t-69 -58.5t-86.5 -20.5q-65 0 -127 35l-139 80l-96 -115l-74 56q15 42 29 75.5t36.5 70t47 60.5t59 40t74.5 16
q64 0 127 -37l137 -82z" />
    <glyph glyph-name="odieresis" unicode="&#xf6;" horiz-adv-x="1150" 
d="M653 1079q228 0 339.5 -117.5t111.5 -330.5q0 -62 -9 -124.5t-29.5 -128t-52 -123.5t-80 -110.5t-109 -90t-143.5 -59.5t-179 -22q-228 0 -339.5 118.5t-111.5 334.5q0 90 18 177t62 174.5t110.5 153.5t172.5 107t239 41zM627 934q-44 0 -84 -19q-54 -68 -88.5 -256
t-34.5 -356q0 -98 24 -141t88 -43q41 0 82 18q53 65 88 254.5t35 356.5q0 103 -24 144.5t-86 41.5zM496 1534q71 0 100 -14q20 -45 20 -95t-14.5 -91t-48.5 -93h-219l-19 258q93 35 181 35zM934 1534q66 0 98 -14q21 -44 21 -90q0 -91 -62 -189h-219l-18 258q93 35 180 35z
" />
    <glyph glyph-name="divide" unicode="&#xf7;" 
d="M743 1186q47 0 125 -19q21 -47 21 -96q0 -102 -80 -217h-252l-16 293q99 39 202 39zM1137 635l-15 -115h-979v74l15 115h979v-74zM639 377q55 0 125 -17q20 -45 20 -96q0 -104 -79 -217h-252l-17 291q86 39 203 39z" />
    <glyph glyph-name="oslash" unicode="&#xf8;" horiz-adv-x="1150" 
d="M1085 1161l-118 -176q137 -114 137 -354q0 -62 -9 -124.5t-29.5 -128t-52 -123.5t-80 -110.5t-109 -90t-143.5 -59.5t-179 -22q-123 0 -213 35l-129 -184l-97 49l-12 39l117 174q-117 114 -117 340q0 91 18 178t62 174.5t110.5 153t172.5 106.5t239 41q110 0 187 -26
l137 196l96 -49zM635 932q-62 0 -109 -21q-44 -56 -76 -200t-42 -299l321 475q-23 45 -94 45zM522 119q60 0 109 22q51 59 84.5 229.5t38.5 338.5l-342 -502q21 -88 110 -88z" />
    <glyph glyph-name="ugrave" unicode="&#xf9;" horiz-adv-x="1220" 
d="M1167 184l9 -114q-73 -42 -160.5 -68.5t-153.5 -26.5q-76 0 -115.5 32t-39.5 91q0 13 2 30.5t6 42t8 46.5t11.5 56t12.5 57.5t14.5 66t14.5 66.5l-24 4q-40 -117 -71 -192.5t-67.5 -138t-75.5 -95.5t-87.5 -50.5t-112.5 -17.5q-125 0 -182.5 59.5t-57.5 176.5
q0 142 97 657l-121 25v115q245 66 422 69l55 -63q-4 -35 -58.5 -352.5t-54.5 -387.5q0 -35 14 -52t48 -17q18 0 28 2q161 254 299 850q111 24 256 24l60 -65l-109 -850q47 0 133 20zM737 1174h-129l-270 284q50 113 121 158h209z" />
    <glyph glyph-name="uacute" unicode="&#xfa;" horiz-adv-x="1220" 
d="M1167 184l9 -114q-73 -42 -160.5 -68.5t-153.5 -26.5q-76 0 -115.5 32t-39.5 91q0 13 2 30.5t6 42t8 46.5t11.5 56t12.5 57.5t14.5 66t14.5 66.5l-24 4q-40 -117 -71 -192.5t-67.5 -138t-75.5 -95.5t-87.5 -50.5t-112.5 -17.5q-125 0 -182.5 59.5t-57.5 176.5
q0 142 97 657l-121 25v115q245 66 422 69l55 -63q-4 -35 -58.5 -352.5t-54.5 -387.5q0 -35 14 -52t48 -17q18 0 28 2q161 254 299 850q111 24 256 24l60 -65l-109 -850q47 0 133 20zM805 1616h209q57 -57 73 -158l-354 -284h-129z" />
    <glyph glyph-name="ucircumflex" unicode="&#xfb;" horiz-adv-x="1220" 
d="M1167 184l9 -114q-73 -42 -160.5 -68.5t-153.5 -26.5q-76 0 -115.5 32t-39.5 91q0 13 2 30.5t6 42t8 46.5t11.5 56t12.5 57.5t14.5 66t14.5 66.5l-24 4q-40 -117 -71 -192.5t-67.5 -138t-75.5 -95.5t-87.5 -50.5t-112.5 -17.5q-125 0 -182.5 59.5t-57.5 176.5
q0 142 97 657l-121 25v115q245 66 422 69l55 -63q-4 -35 -58.5 -352.5t-54.5 -387.5q0 -35 14 -52t48 -17q18 0 28 2q161 254 299 850q111 24 256 24l60 -65l-109 -850q47 0 133 20zM1024 1243l-207 -94l-149 225h-21l-180 -200h-127l313 417h201z" />
    <glyph glyph-name="udieresis" unicode="&#xfc;" horiz-adv-x="1220" 
d="M1167 184l9 -114q-73 -42 -160.5 -68.5t-153.5 -26.5q-76 0 -115.5 32t-39.5 91q0 13 2 30.5t6 42t8 46.5t11.5 56t12.5 57.5t14.5 66t14.5 66.5l-24 4q-40 -117 -71 -192.5t-67.5 -138t-75.5 -95.5t-87.5 -50.5t-112.5 -17.5q-125 0 -182.5 59.5t-57.5 176.5
q0 142 97 657l-121 25v115q245 66 422 69l55 -63q-4 -35 -58.5 -352.5t-54.5 -387.5q0 -35 14 -52t48 -17q18 0 28 2q161 254 299 850q111 24 256 24l60 -65l-109 -850q47 0 133 20zM512 1534q71 0 100 -14q21 -47 21 -95q0 -50 -14.5 -90.5t-49.5 -93.5h-219l-18 258
q93 35 180 35zM950 1534q67 0 99 -14q20 -42 20 -90q0 -93 -61 -189h-220l-18 258q93 35 180 35z" />
    <glyph glyph-name="yacute" unicode="&#xfd;" horiz-adv-x="1087" 
d="M709 993l206 88q65 -26 103.5 -91t38.5 -163q0 -176 -120 -425t-302 -476q-292 -362 -522 -362q-137 0 -234 100l25 117q175 -37 323 -35q71 49 115 86q-118 650 -207 1034l-121 25v115q214 64 398 67l55 -63q114 -560 137 -869h25q154 231 219 525zM795 1616h209
q57 -57 73 -158l-354 -284h-129z" />
    <glyph glyph-name="thorn" unicode="&#xfe;" horiz-adv-x="1181" 
d="M850 1081q65 0 113 -17t86 -57t57.5 -113t19.5 -179q0 -137 -33 -266t-96 -237t-166.5 -173.5t-232.5 -65.5q-130 0 -207 45l-47 -417q-89 -37 -272 -37l-62 65l219 1706l-98 43l14 115q183 47 377 47l62 -61l-49 -305q-37 -223 -127 -588l22 -4q40 116 70.5 189.5
t67 138.5t76 99t90 53t116.5 19zM618 135q68 123 105 290t37 306q0 67 -14 93t-52 26q-11 0 -39 -4q-59 -94 -115.5 -258.5t-123.5 -448.5q58 -20 110 -20q38 0 92 16z" />
    <glyph glyph-name="ydieresis" unicode="&#xff;" horiz-adv-x="1087" 
d="M709 993l206 88q65 -26 103.5 -91t38.5 -163q0 -176 -120 -425t-302 -476q-292 -362 -522 -362q-137 0 -234 100l25 117q175 -37 323 -35q71 49 115 86q-118 650 -207 1034l-121 25v115q214 64 398 67l55 -63q114 -560 137 -869h25q154 231 219 525zM502 1534
q71 0 100 -14q21 -47 21 -95q0 -50 -14.5 -90.5t-49.5 -93.5h-219l-18 258q93 35 180 35zM940 1534q66 0 98 -14q21 -44 21 -90q0 -91 -62 -189h-219l-18 258q93 35 180 35z" />
    <glyph glyph-name="Amacron" unicode="&#x100;" horiz-adv-x="1351" 
d="M1307 123v-55l-9 -68h-630v121q60 33 141 47q-6 33 -19.5 98.5t-19.5 98.5h-401q-15 -38 -44.5 -113t-43.5 -113l125 -16v-55l-9 -68h-426v121q54 32 140 47q241 567 487 1073l-18 92l73 66q160 -3 281 -33q57 -295 84 -432.5t77 -372.5t97 -422zM739 526l-82 449h-24
q-115 -253 -197 -449h303zM471 1743h619q4 -16 4 -57q0 -75 -27 -138h-618q-7 28 -7 58q0 69 29 137z" />
    <glyph glyph-name="amacron" unicode="&#x101;" horiz-adv-x="1198" 
d="M1145 184l8 -114q-157 -95 -293 -95q-72 0 -112.5 32.5t-40.5 90.5q0 10 1 23t3.5 30.5t5.5 33t7.5 40t8.5 41.5t10.5 47t10.5 48t12 53t12 53l-24 4q-40 -117 -71.5 -192t-68 -138.5t-76 -97.5t-89 -52t-113.5 -18t-112 17t-86.5 57.5t-58.5 114t-20 178.5
q0 90 14.5 178t43 171.5t73.5 154t102 124t134 83.5t164 30q153 0 227 -77l25 53q83 24 215 24l63 -65l-108 -852q47 0 133 20zM530 209q121 190 240 700q-52 27 -111 27q-38 0 -92 -16q-68 -123 -104.5 -289.5t-36.5 -306.5q0 -68 13.5 -93.5t52.5 -25.5q10 0 38 4z
M418 1458h567q6 -24 6 -57q0 -77 -28 -137h-566q-6 24 -6 55q0 73 27 139z" />
    <glyph glyph-name="Abreve" unicode="&#x102;" horiz-adv-x="1351" 
d="M1307 123v-55l-9 -68h-630v121q60 33 141 47q-6 33 -19.5 98.5t-19.5 98.5h-401q-15 -38 -44.5 -113t-43.5 -113l125 -16v-55l-9 -68h-426v121q54 32 140 47q241 567 487 1073l-18 92l73 66q160 -3 281 -33q57 -295 84 -432.5t77 -372.5t97 -422zM739 526l-82 449h-24
q-115 -253 -197 -449h303zM457 1798l221 31q2 -89 33.5 -132.5t107.5 -43.5q75 0 117.5 41.5t79.5 130.5l102 -10q-32 -169 -129.5 -260t-249.5 -91q-84 0 -144.5 28t-91.5 76.5t-42.5 106t-3.5 123.5z" />
    <glyph glyph-name="abreve" unicode="&#x103;" horiz-adv-x="1198" 
d="M1145 184l8 -114q-157 -95 -293 -95q-72 0 -112.5 32.5t-40.5 90.5q0 10 1 23t3.5 30.5t5.5 33t7.5 40t8.5 41.5t10.5 47t10.5 48t12 53t12 53l-24 4q-40 -117 -71.5 -192t-68 -138.5t-76 -97.5t-89 -52t-113.5 -18t-112 17t-86.5 57.5t-58.5 114t-20 178.5
q0 90 14.5 178t43 171.5t73.5 154t102 124t134 83.5t164 30q153 0 227 -77l25 53q83 24 215 24l63 -65l-108 -852q47 0 133 20zM530 209q121 190 240 700q-52 27 -111 27q-38 0 -92 -16q-68 -123 -104.5 -289.5t-36.5 -306.5q0 -68 13.5 -93.5t52.5 -25.5q10 0 38 4z
M412 1532l217 31q1 -38 3 -61t9 -50.5t19.5 -42.5t35.5 -25t56 -10q69 0 107.5 45t64.5 140l100 -19q-30 -180 -122.5 -267t-229.5 -87q-67 0 -119 20.5t-81.5 55t-47.5 79.5t-18.5 93.5t6.5 97.5z" />
    <glyph glyph-name="Aogonek" unicode="&#x104;" horiz-adv-x="1351" 
d="M1309 123v-55l-9 -68h-372q-68 -108 -68 -188q0 -48 23.5 -68t70.5 -20q41 0 95 14l2 -113q-115 -61 -244 -61q-117 0 -175.5 55t-58.5 145q0 186 252 338q-33 142 -55 263h-401q-15 -38 -44.5 -113t-43.5 -113l125 -16v-55l-9 -68h-426v121q54 32 140 47
q241 567 487 1073l-18 92l73 66q160 -3 281 -33q57 -295 84 -432.5t77 -372.5t97 -422zM739 526l-82 449h-24q-115 -253 -197 -449h303z" />
    <glyph glyph-name="aogonek" unicode="&#x105;" horiz-adv-x="1198" 
d="M1004 -274q32 0 94 12l4 -113q-92 -61 -244 -61q-122 0 -177.5 44.5t-55.5 117.5q0 153 231 231v25h-43q-53 6 -78.5 32t-25.5 78q0 15 1.5 33.5t6 45t8.5 46.5t12 57.5t12.5 57.5t15.5 67.5t15 67.5l-24 4q-40 -117 -71.5 -192t-68 -138.5t-76 -97.5t-89.5 -52t-115 -18
q-64 0 -112 17t-86.5 57.5t-58.5 114t-20 178.5q0 108 20 213t63.5 201t105 168.5t150.5 115.5t194 43q153 0 227 -77l25 53q82 24 215 24l63 -65l-108 -852q47 0 133 20l8 -114q-242 -128 -242 -256q0 -88 91 -88zM532 209q121 190 240 700q-52 27 -110 27q-39 0 -93 -16
q-69 -122 -105 -288t-36 -308q0 -67 13 -93t51 -26q8 0 40 4z" />
    <glyph glyph-name="Cacute" unicode="&#x106;" horiz-adv-x="1263" 
d="M821 1217q-86 0 -166 -41q-69 -74 -118.5 -266.5t-49.5 -360.5q0 -179 65.5 -254.5t213.5 -75.5q184 0 364 100l15 -133q-85 -91 -222 -152t-286 -61q-272 0 -413.5 154.5t-141.5 421.5q0 112 24 226.5t77 225.5t128.5 196.5t188.5 138.5t248 53q126 0 213 -54l4 29
q17 3 50 10t50 10t44 6t54 3l64 -54q4 -28 4 -57q0 -158 -49 -344h-201l-29 260q-78 19 -131 19zM897 1858h207q61 -45 80 -156l-355 -238h-147z" />
    <glyph glyph-name="cacute" unicode="&#x107;" horiz-adv-x="976" 
d="M600 209q122 0 279 88l14 -129q-78 -85 -194.5 -140t-254.5 -55q-197 0 -295 118.5t-98 324.5q0 92 18.5 181t62.5 177.5t109.5 155t167.5 108t228 41.5q130 0 219.5 -48t106.5 -138l-129 -154l-256 193q-23 -5 -52 -17q-46 -73 -75 -213t-29 -251q0 -131 45 -186.5
t133 -55.5zM727 1616h209q58 -58 74 -158l-355 -284h-129z" />
    <glyph glyph-name="Ccircumflex" unicode="&#x108;" horiz-adv-x="1263" 
d="M821 1217q-86 0 -166 -41q-69 -74 -118.5 -266.5t-49.5 -360.5q0 -179 65.5 -254.5t213.5 -75.5q184 0 364 100l15 -133q-85 -91 -222 -152t-286 -61q-272 0 -413.5 154.5t-141.5 421.5q0 112 24 226.5t77 225.5t128.5 196.5t188.5 138.5t248 53q126 0 213 -54l4 29
q17 3 50 10t50 10t44 6t54 3l64 -54q4 -28 4 -57q0 -158 -49 -344h-201l-29 260q-78 19 -131 19zM1130 1540l-204 -104l-174 200h-19l-194 -172h-131l327 375h203z" />
    <glyph glyph-name="ccircumflex" unicode="&#x109;" horiz-adv-x="976" 
d="M600 209q122 0 279 88l14 -129q-78 -85 -194.5 -140t-254.5 -55q-197 0 -295 118.5t-98 324.5q0 92 18.5 181t62.5 177.5t109.5 155t167.5 108t228 41.5q130 0 219.5 -48t106.5 -138l-129 -154l-256 193q-23 -5 -52 -17q-46 -73 -75 -213t-29 -251q0 -131 45 -186.5
t133 -55.5zM946 1243l-207 -94l-149 225h-21l-180 -200h-127l313 417h201z" />
    <glyph glyph-name="Cdotaccent" unicode="&#x10a;" horiz-adv-x="1263" 
d="M821 1217q-86 0 -166 -41q-69 -74 -118.5 -266.5t-49.5 -360.5q0 -179 65.5 -254.5t213.5 -75.5q184 0 364 100l15 -133q-85 -91 -222 -152t-286 -61q-272 0 -413.5 154.5t-141.5 421.5q0 112 24 226.5t77 225.5t128.5 196.5t188.5 138.5t248 53q126 0 213 -54l4 29
q17 3 50 10t50 10t44 6t54 3l64 -54q4 -28 4 -57q0 -158 -49 -344h-201l-29 260q-78 19 -131 19zM829 1796q72 0 111 -16q23 -62 23 -103q0 -92 -68 -200h-258l-16 278q102 41 208 41z" />
    <glyph glyph-name="cdotaccent" unicode="&#x10b;" horiz-adv-x="976" 
d="M600 209q122 0 279 88l14 -129q-78 -85 -194.5 -140t-254.5 -55q-197 0 -295 118.5t-98 324.5q0 92 18.5 181t62.5 177.5t109.5 155t167.5 108t228 41.5q130 0 219.5 -48t106.5 -138l-129 -154l-256 193q-23 -5 -52 -17q-46 -73 -75 -213t-29 -251q0 -131 45 -186.5
t133 -55.5zM666 1550q70 0 108 -14q23 -44 23 -98q0 -100 -68 -205h-258l-16 278q97 39 211 39z" />
    <glyph glyph-name="Ccaron" unicode="&#x10c;" horiz-adv-x="1263" 
d="M821 1217q-86 0 -166 -41q-69 -74 -118.5 -266.5t-49.5 -360.5q0 -179 65.5 -254.5t213.5 -75.5q184 0 364 100l15 -133q-85 -91 -222 -152t-286 -61q-272 0 -413.5 154.5t-141.5 421.5q0 112 24 226.5t77 225.5t128.5 196.5t188.5 138.5t248 53q126 0 213 -54l4 29
q17 3 50 10t50 10t44 6t54 3l64 -54q4 -28 4 -57q0 -158 -49 -344h-201l-29 260q-78 19 -131 19zM825 1669h21l194 170h129l-325 -375h-203l-195 310l209 94z" />
    <glyph glyph-name="ccaron" unicode="&#x10d;" horiz-adv-x="976" 
d="M600 209q122 0 279 88l14 -129q-78 -85 -194.5 -140t-254.5 -55q-197 0 -295 118.5t-98 324.5q0 92 18.5 181t62.5 177.5t109.5 155t167.5 108t228 41.5q130 0 219.5 -48t106.5 -138l-129 -154l-256 193q-23 -5 -52 -17q-46 -73 -75 -213t-29 -251q0 -131 45 -186.5
t133 -55.5zM651 1393h19l180 198h129l-311 -417h-205l-166 346l205 100z" />
    <glyph glyph-name="Dcaron" unicode="&#x10e;" horiz-adv-x="1421" 
d="M666 1384q159 0 279.5 -25t202.5 -72t133.5 -118t74 -158t22.5 -198q0 -74 -9.5 -147.5t-33.5 -155.5t-61.5 -153.5t-99 -138t-139.5 -114t-188 -76t-241 -28.5h-596v121q82 38 146 49l102 1030l-137 27v55l6 68q104 14 266.5 24t272.5 10zM836 219q69 102 105 276.5
t36 381.5q0 66 -5.5 115.5t-22 95t-44 74t-73.5 45.5t-109 16h-98l-107 -1061h82q150 0 236 57zM850 1669h20l195 170h129l-326 -375h-202l-195 310l209 94z" />
    <glyph glyph-name="dcaron" unicode="&#x10f;" horiz-adv-x="1470" 
d="M1180 1479l-168 -1315q47 0 133 20l8 -114q-157 -95 -293 -95q-72 0 -112.5 32.5t-40.5 90.5q0 13 2 30.5t6.5 43t8.5 47t12 57.5l13 58.5t15.5 67.5t15.5 67l-24 6q-40 -118 -70 -191t-67 -139t-76 -100t-90 -53t-117 -19q-64 0 -112 17t-86.5 57.5t-58.5 114t-20 178.5
q0 108 20 213t63.5 201t105 168.5t150.5 115.5t194 43q126 0 203 -41l30 295l-98 43l14 115q178 46 379 49zM532 209q123 195 240 709q-63 18 -110 18q-39 0 -93 -16q-69 -122 -105 -288t-36 -308q0 -67 13 -93t51 -26q8 0 40 4zM1411 1559q92 0 172 -54q-15 -132 -66 -236
t-159 -214h-115l66 272v217q51 15 102 15z" />
    <glyph glyph-name="Dcroat" unicode="&#x110;" horiz-adv-x="1441" 
d="M688 1384q158 0 278 -25t202 -72t134 -118t74.5 -158t22.5 -198q0 -74 -9.5 -147.5t-33.5 -155.5t-61.5 -153.5t-98.5 -138t-139 -114t-187.5 -76t-240.5 -28.5h-596v121q84 39 145 49l45 459h-139v47l14 104h140l43 420l-138 27v55l9 68q105 14 264.5 24t271.5 10z
M856 219q69 102 105 276.5t36 381.5q0 66 -5.5 115.5t-22 95t-44 74t-73 45.5t-107.5 16h-98l-45 -443h209v-47l-16 -104h-207l-47 -467h80q149 0 235 57z" />
    <glyph glyph-name="dcroat" unicode="&#x111;" horiz-adv-x="1198" 
d="M1298 1376v-67l-16 -78h-133l-137 -1067q47 0 133 20l8 -114q-157 -95 -293 -95q-72 0 -112.5 32.5t-40.5 90.5q0 13 2 30.5t6.5 43t8.5 47t12 57.5l13 58.5t15.5 67.5t15.5 67l-24 6q-40 -118 -70 -191t-67 -139t-76 -100t-90 -53t-117 -19q-64 0 -112 17t-86.5 57.5
t-58.5 114t-20 178.5q0 108 20 213t63.5 201t105 168.5t150.5 115.5t194 43q126 0 203 -41l20 191h-258v67l16 78h258l15 125q150 38 272 41l62 -63l-13 -103h131zM532 209q118 188 240 709q-67 18 -110 18q-39 0 -93 -16q-69 -122 -105 -288t-36 -308q0 -67 13 -93t51 -26
q8 0 40 4z" />
    <glyph glyph-name="Emacron" unicode="&#x112;" horiz-adv-x="1222" 
d="M623 1210l-45 -448l296 20l17 -57l-14 -129l-314 20l-47 -473h311l88 256l199 -12q4 -62 4 -92q0 -147 -49 -322h-2l-80 -10l-676 37h-301v121q83 39 146 49l102 1032l-137 23v57l8 68q226 12 576 12h266q122 31 186 31l64 -31q4 -40 4 -76q0 -144 -49 -315h-193l-27 227
zM434 1743h619q4 -16 4 -57q0 -75 -27 -138h-618q-6 24 -6 58q0 71 28 137z" />
    <glyph glyph-name="emacron" unicode="&#x113;" horiz-adv-x="1050" 
d="M614 201q150 0 318 104l14 -123q-81 -88 -206.5 -148.5t-280.5 -60.5q-208 0 -308 117t-100 324q0 93 18.5 182t63.5 178t112 155.5t172 108t236 41.5q100 0 174 -23.5t116 -65.5t61.5 -93t19.5 -113q0 -72 -26.5 -129.5t-72 -93t-106 -61.5t-128.5 -36t-139 -15.5
t-138 0.5q0 -131 49.5 -189.5t150.5 -58.5zM602 934q-36 0 -76 -19q-41 -56 -69.5 -162.5t-38.5 -215.5q73 10 126 37.5t81.5 67t41.5 83t13 94.5q0 65 -18.5 90t-59.5 25zM414 1458h567q6 -24 6 -57q0 -75 -29 -137h-565q-6 24 -6 55q0 73 27 139z" />
    <glyph glyph-name="Ebreve" unicode="&#x114;" horiz-adv-x="1222" 
d="M623 1210l-45 -448l296 20l17 -57l-14 -129l-314 20l-47 -473h311l88 256l199 -12q4 -62 4 -92q0 -147 -49 -322h-2l-80 -10l-676 37h-301v121q83 39 146 49l102 1032l-137 23v57l8 68q226 12 576 12h266q122 31 186 31l64 -31q4 -40 4 -76q0 -144 -49 -315h-193l-27 227
zM420 1798l221 31q2 -89 33.5 -132.5t107.5 -43.5q75 0 117.5 41.5t79.5 130.5l102 -10q-32 -169 -129.5 -260t-249.5 -91q-84 0 -144.5 28t-91.5 76.5t-42.5 106t-3.5 123.5z" />
    <glyph glyph-name="ebreve" unicode="&#x115;" horiz-adv-x="1050" 
d="M614 201q150 0 318 104l14 -123q-81 -88 -206.5 -148.5t-280.5 -60.5q-208 0 -308 117t-100 324q0 93 18.5 182t63.5 178t112 155.5t172 108t236 41.5q100 0 174 -23.5t116 -65.5t61.5 -93t19.5 -113q0 -72 -26.5 -129.5t-72 -93t-106 -61.5t-128.5 -36t-139 -15.5
t-138 0.5q0 -131 49.5 -189.5t150.5 -58.5zM602 934q-36 0 -76 -19q-41 -56 -69.5 -162.5t-38.5 -215.5q73 10 126 37.5t81.5 67t41.5 83t13 94.5q0 65 -18.5 90t-59.5 25zM408 1532l217 31q1 -38 3 -61t9 -50.5t19.5 -42.5t35.5 -25t56 -10q69 0 107.5 45t64.5 140l100 -19
q-30 -180 -122.5 -267t-229.5 -87q-67 0 -119 20.5t-81.5 55t-47.5 79.5t-18.5 93.5t6.5 97.5z" />
    <glyph glyph-name="Edotaccent" unicode="&#x116;" horiz-adv-x="1222" 
d="M623 1210l-45 -448l296 20l17 -57l-14 -129l-314 20l-47 -473h311l88 256l199 -12q4 -62 4 -92q0 -147 -49 -322h-2l-80 -10l-676 37h-301v121q83 39 146 49l102 1032l-137 23v57l8 68q226 12 576 12h266q122 31 186 31l64 -31q4 -40 4 -76q0 -144 -49 -315h-193l-27 227
zM774 1796q72 0 111 -16q22 -59 22 -103q0 -93 -67 -200h-258l-17 278q102 41 209 41z" />
    <glyph glyph-name="edotaccent" unicode="&#x117;" horiz-adv-x="1050" 
d="M614 201q150 0 318 104l14 -123q-81 -88 -206.5 -148.5t-280.5 -60.5q-208 0 -308 117t-100 324q0 93 18.5 182t63.5 178t112 155.5t172 108t236 41.5q100 0 174 -23.5t116 -65.5t61.5 -93t19.5 -113q0 -72 -26.5 -129.5t-72 -93t-106 -61.5t-128.5 -36t-139 -15.5
t-138 0.5q0 -131 49.5 -189.5t150.5 -58.5zM602 934q-36 0 -76 -19q-41 -56 -69.5 -162.5t-38.5 -215.5q73 10 126 37.5t81.5 67t41.5 83t13 94.5q0 65 -18.5 90t-59.5 25zM735 1550q71 0 109 -14q22 -42 22 -98q0 -101 -67 -205h-258l-17 278q97 39 211 39z" />
    <glyph glyph-name="Eogonek" unicode="&#x118;" horiz-adv-x="1222" 
d="M623 1210l-45 -448l296 20l17 -57l-14 -129l-314 20l-47 -473h311l88 256l199 -12q4 -62 4 -92q0 -144 -49 -322h-2h-109q-108 -77 -108 -163q0 -84 90 -84q28 0 94 12l2 -113q-89 -61 -245 -61q-230 0 -230 155q0 154 238 230v26l-488 25h-301v121q83 39 146 49
l102 1032l-137 23v57l8 68q226 12 576 12h266q122 31 186 31l64 -31q4 -40 4 -76q0 -144 -49 -315h-193l-27 227z" />
    <glyph glyph-name="eogonek" unicode="&#x119;" horiz-adv-x="1050" 
d="M797 49q-76 -64 -109 -114t-33 -113q0 -52 21.5 -74t68.5 -22q33 0 95 12l4 -113q-92 -61 -244 -61q-233 0 -233 166q0 29 6.5 54t23.5 47t31.5 37.5t46 35.5t49.5 30t59 32q9 5 13 7l-12 23q-73 -23 -135 -23q-198 0 -298 117.5t-100 325.5q0 92 18.5 181t63.5 177.5
t112 155t172 108t236 41.5q100 0 174 -23.5t116 -65.5t61.5 -93t19.5 -113q0 -72 -26.5 -129.5t-72 -93t-106 -61.5t-128.5 -36t-139 -15.5t-138 0.5q0 -131 49.5 -189.5t150.5 -58.5q150 0 318 104l14 -123q-56 -54 -149 -133zM602 934q-36 0 -76 -19q-41 -56 -69.5 -162.5
t-38.5 -215.5q73 10 126 37.5t81.5 67t41.5 83t13 94.5q0 65 -18.5 90t-59.5 25z" />
    <glyph glyph-name="Ecaron" unicode="&#x11a;" horiz-adv-x="1222" 
d="M623 1210l-45 -448l296 20l17 -57l-14 -129l-314 20l-47 -473h311l88 256l199 -12q4 -62 4 -92q0 -147 -49 -322h-2l-80 -10l-676 37h-301v121q83 39 146 49l102 1032l-137 23v57l8 68q226 12 576 12h266q122 31 186 31l64 -31q4 -40 4 -76q0 -144 -49 -315h-193l-27 227
zM770 1669h21l194 170h129l-326 -375h-202l-195 310l209 94z" />
    <glyph glyph-name="ecaron" unicode="&#x11b;" horiz-adv-x="1050" 
d="M614 201q150 0 318 104l14 -123q-81 -88 -206.5 -148.5t-280.5 -60.5q-208 0 -308 117t-100 324q0 93 18.5 182t63.5 178t112 155.5t172 108t236 41.5q100 0 174 -23.5t116 -65.5t61.5 -93t19.5 -113q0 -72 -26.5 -129.5t-72 -93t-106 -61.5t-128.5 -36t-139 -15.5
t-138 0.5q0 -131 49.5 -189.5t150.5 -58.5zM602 934q-36 0 -76 -19q-41 -56 -69.5 -162.5t-38.5 -215.5q73 10 126 37.5t81.5 67t41.5 83t13 94.5q0 65 -18.5 90t-59.5 25zM721 1393h18l181 198h129l-312 -417h-205l-165 346l204 100z" />
    <glyph glyph-name="Gcircumflex" unicode="&#x11c;" horiz-adv-x="1333" 
d="M1280 621v-121q-46 -26 -92 -39l-43 -438l-74 -50q-84 0 -182 25l-15 41q-116 -66 -266 -66q-239 0 -382.5 155.5t-143.5 424.5q0 92 18 186.5t52.5 189t91.5 177t129 146t170.5 100.5t210.5 37q132 0 219 -54l4 29q17 3 50 10t50 10t44.5 6t54.5 3l63 -54q4 -28 4 -57
q0 -158 -49 -344h-201l-28 262q-83 17 -134 17q-83 0 -176 -41q-71 -83 -119.5 -292t-48.5 -413q0 -169 46 -247.5t163 -78.5q74 0 154 29l6 305l-123 17v57l8 68h539zM1130 1540l-204 -104l-174 200h-19l-194 -172h-131l327 375h203z" />
    <glyph glyph-name="gcircumflex" unicode="&#x11d;" horiz-adv-x="1048" 
d="M397 289l271 -62q167 -39 240 -100t73 -156q0 -79 -45 -152t-128 -130t-213 -91t-288 -34q-387 0 -387 207q0 97 78.5 165t194.5 103q-39 44 -39 115q0 118 122 247q-213 62 -213 273q0 79 31 150.5t90.5 129t157.5 91.5t221 34q139 0 234 -45q3 117 57 187l-158 -72
l-149 225h-21l-180 -200h-127l313 417h201l162 -334q53 35 131 35l72 -184l-226 -123q95 -83 95 -223q0 -76 -28.5 -142.5t-86.5 -121.5t-157 -87t-228 -32l-57 2zM649 -238q47 27 47 68q0 23 -17 34t-61 23l-249 62q-59 14 -107 37q-55 -86 -55 -144q0 -133 190 -133
q67 0 137 14t115 39zM475 920q-32 -32 -55 -111.5t-23 -163.5q0 -123 92 -123q35 0 72 15q29 30 52.5 109.5t23.5 166.5q0 68 -21.5 95.5t-66.5 27.5q-42 0 -74 -16z" />
    <glyph glyph-name="Gbreve" unicode="&#x11e;" horiz-adv-x="1333" 
d="M1280 621v-121q-46 -26 -92 -39l-43 -438l-74 -50q-84 0 -182 25l-15 41q-116 -66 -266 -66q-239 0 -382.5 155.5t-143.5 424.5q0 92 18 186.5t52.5 189t91.5 177t129 146t170.5 100.5t210.5 37q132 0 219 -54l4 29q17 3 50 10t50 10t44.5 6t54.5 3l63 -54q4 -28 4 -57
q0 -158 -49 -344h-201l-28 262q-83 17 -134 17q-83 0 -176 -41q-71 -83 -119.5 -292t-48.5 -413q0 -169 46 -247.5t163 -78.5q74 0 154 29l6 305l-123 17v57l8 68h539zM475 1798l221 31q2 -89 34 -132.5t108 -43.5q75 0 117 41t79 131l103 -10q-32 -169 -129.5 -260
t-249.5 -91q-68 0 -121 18.5t-85 50.5t-53 75t-24.5 91t0.5 99z" />
    <glyph glyph-name="gbreve" unicode="&#x11f;" horiz-adv-x="1048" 
d="M397 289l271 -62q167 -39 240 -100t73 -156q0 -79 -45 -152t-128 -130t-213 -91t-288 -34q-387 0 -387 207q0 97 78.5 165t194.5 103q-39 44 -39 115q0 118 122 247q-213 62 -213 273q0 79 31 150.5t90.5 129t157.5 91.5t221 34q139 0 234 -45q5 126 62.5 192t166.5 66
l72 -184l-226 -123q95 -83 95 -223q0 -76 -28.5 -142.5t-86.5 -121.5t-157 -87t-228 -32l-57 2zM475 920q-32 -32 -55 -111.5t-23 -163.5q0 -123 92 -123q35 0 72 15q29 30 52.5 109.5t23.5 166.5q0 68 -21.5 95.5t-66.5 27.5q-42 0 -74 -16zM649 -238q47 27 47 68
q0 23 -17 34t-61 23l-249 62q-59 14 -107 37q-55 -86 -55 -144q0 -133 190 -133q67 0 137 14t115 39zM295 1532l217 31q1 -38 3 -61t9 -50.5t19.5 -42.5t35.5 -25t56 -10q69 0 107.5 45t64.5 140l100 -19q-30 -180 -122.5 -267t-229.5 -87q-67 0 -119 20.5t-81.5 55
t-47.5 79.5t-18.5 93.5t6.5 97.5z" />
    <glyph glyph-name="Gdotaccent" unicode="&#x120;" horiz-adv-x="1333" 
d="M1280 621v-121q-46 -26 -92 -39l-43 -438l-74 -50q-84 0 -182 25l-15 41q-116 -66 -266 -66q-239 0 -382.5 155.5t-143.5 424.5q0 92 18 186.5t52.5 189t91.5 177t129 146t170.5 100.5t210.5 37q132 0 219 -54l4 29q17 3 50 10t50 10t44.5 6t54.5 3l63 -54q4 -28 4 -57
q0 -158 -49 -344h-201l-28 262q-83 17 -134 17q-83 0 -176 -41q-71 -83 -119.5 -292t-48.5 -413q0 -169 46 -247.5t163 -78.5q74 0 154 29l6 305l-123 17v57l8 68h539zM829 1796q72 0 111 -16q23 -62 23 -103q0 -92 -68 -200h-258l-16 278q102 41 208 41z" />
    <glyph glyph-name="gdotaccent" unicode="&#x121;" horiz-adv-x="1048" 
d="M397 289l271 -62q167 -39 240 -100t73 -156q0 -79 -45 -152t-128 -130t-213 -91t-288 -34q-387 0 -387 207q0 97 78.5 165t194.5 103q-39 44 -39 115q0 118 122 247q-213 62 -213 273q0 79 31 150.5t90.5 129t157.5 91.5t221 34q139 0 234 -45q5 126 62.5 192t166.5 66
l72 -184l-226 -123q95 -83 95 -223q0 -76 -28.5 -142.5t-86.5 -121.5t-157 -87t-228 -32l-57 2zM475 920q-32 -32 -55 -111.5t-23 -163.5q0 -123 92 -123q35 0 72 15q29 30 52.5 109.5t23.5 166.5q0 68 -21.5 95.5t-66.5 27.5q-42 0 -74 -16zM649 -238q47 27 47 68
q0 23 -17 34t-61 23l-249 62q-59 14 -107 37q-55 -86 -55 -144q0 -133 190 -133q67 0 137 14t115 39zM623 1550q70 0 108 -14q23 -44 23 -98q0 -100 -68 -205h-258l-16 278q97 39 211 39z" />
    <glyph glyph-name="Gcommaaccent" unicode="&#x122;" horiz-adv-x="1333" 
d="M1280 621v-121q-46 -26 -92 -39l-43 -438l-74 -50q-84 0 -182 25l-15 41q-116 -66 -266 -66q-239 0 -382.5 155.5t-143.5 424.5q0 92 18 186.5t52.5 189t91.5 177t129 146t170.5 100.5t210.5 37q132 0 219 -54l4 29q17 3 50 10t50 10t44.5 6t54.5 3l63 -54q4 -28 4 -57
q0 -158 -49 -344h-201l-28 262q-83 17 -134 17q-83 0 -176 -41q-71 -83 -119.5 -292t-48.5 -413q0 -169 46 -247.5t163 -78.5q74 0 154 29l6 305l-123 17v57l8 68h539zM588 -88q84 0 145 -27q29 -39 29 -102q0 -117 -72.5 -196t-232.5 -101l-21 80q68 24 98.5 48t30.5 64v21
l-100 6l18 197q46 10 105 10z" />
    <glyph glyph-name="gcommaaccent" unicode="&#x123;" horiz-adv-x="1048" 
d="M397 289l271 -62q167 -39 240 -100t73 -156q0 -79 -45 -152t-128 -130t-213 -91t-288 -34q-387 0 -387 207q0 97 78.5 165t194.5 103q-39 44 -39 115q0 118 122 247q-213 62 -213 273q0 79 31 150.5t90.5 129t157.5 91.5t221 34q139 0 234 -45q5 126 62.5 192t166.5 66
l72 -184l-226 -123q95 -83 95 -223q0 -76 -28.5 -142.5t-86.5 -121.5t-157 -87t-228 -32l-57 2zM475 920q-32 -32 -55 -111.5t-23 -163.5q0 -123 92 -123q35 0 72 15q29 30 52.5 109.5t23.5 166.5q0 68 -21.5 95.5t-66.5 27.5q-42 0 -74 -16zM649 -238q47 27 47 68
q0 23 -17 34t-61 23l-249 62q-59 14 -107 37q-55 -86 -55 -144q0 -133 190 -133q67 0 137 14t115 39zM715 1614l20 -80q-69 -25 -102 -55t-33 -80v-19l100 -6l-16 -198q-55 -9 -106 -9q-91 0 -146 27q-26 32 -26 104q0 123 74 208t235 108z" />
    <glyph glyph-name="Hcircumflex" unicode="&#x124;" horiz-adv-x="1490" 
d="M1520 1362v-121q-50 -28 -148 -49l-104 -1051l139 -18v-55l-6 -68h-627v121q53 33 133 47l45 457h-389l-49 -484l111 -18v-55l-7 -68h-608v121q64 33 144 47l104 1053l-137 18v55l8 68h616v-121q-46 -30 -124 -47l-43 -410h391l43 437l-115 18v55l8 68h615zM1212 1540
l-204 -104l-174 200h-19l-194 -172h-132l328 375h203z" />
    <glyph glyph-name="hcircumflex" unicode="&#x125;" horiz-adv-x="1212" 
d="M547 1520h-131l280 321h201l154 -248l-205 -102l-135 154h-19zM1147 184l6 -114q-157 -95 -301 -95q-176 0 -176 160q0 71 49 328t49 317q0 37 -13.5 53.5t-47.5 16.5q-9 0 -37 -4q-153 -241 -293 -846q-119 -25 -254 -25l-61 66l149 1194l-100 45l14 115q173 44 379 47
l59 -64l-32 -250q-31 -231 -103 -538l23 -4q34 97 59.5 162t56 125t59.5 95.5t66 63t79.5 38.5t96.5 11q128 0 184 -61t56 -174q0 -153 -100 -682q47 0 133 20z" />
    <glyph glyph-name="Hbar" unicode="&#x126;" horiz-adv-x="1546" 
d="M1546 1362v-121q-54 -32 -147 -47l-15 -145h150v-60l-16 -92h-148l-76 -756l138 -18v-55l-7 -68h-626v121q50 31 135 49l37 379h-391l-41 -408l110 -18v-55l-6 -68h-608v121q52 31 143 47l72 729h-146v59l15 93h147l17 172l-138 18v55l9 68h616v-121q-49 -33 -127 -49
l-14 -143h393l16 172l-114 18v55l8 68h614zM1006 897h-392l-20 -190h393z" />
    <glyph glyph-name="hbar" unicode="&#x127;" horiz-adv-x="1212" 
d="M1147 184l6 -114q-157 -95 -301 -95q-176 0 -176 160q0 71 49 328t49 317q0 37 -13.5 53.5t-47.5 16.5q-23 0 -35 -2q-157 -251 -295 -848q-119 -25 -254 -25l-61 66l149 1190h-135v67l16 78h135l17 125q138 35 272 41l62 -63l-15 -103h260v-67l-16 -78h-262l-14 -103
q-28 -212 -105 -538l25 -4q34 97 59.5 162t56 125t59.5 95.5t66 63t79.5 38.5t96.5 11q128 0 184 -61t56 -174q0 -153 -100 -682q47 0 133 20z" />
    <glyph glyph-name="Itilde" unicode="&#x128;" horiz-adv-x="735" 
d="M764 1362v-121q-54 -32 -146 -47l-104 -1053l139 -18v-55l-8 -68h-635v121q58 32 144 47l104 1053l-137 18v55l8 68h635zM760 1808l76 -55q-93 -260 -256 -260q-53 0 -125 35l-156 78l-98 -113l-76 55q95 260 256 260q56 0 127 -36l151 -78z" />
    <glyph glyph-name="itilde" unicode="&#x129;" horiz-adv-x="612" 
d="M479 1073l58 -63q-80 -645 -109 -846q45 0 131 20l8 -114q-157 -95 -288 -95q-94 0 -139.5 37t-45.5 125q0 84 88 729l-121 25v115q225 64 418 67zM645 1520l68 -45q-30 -125 -89 -196t-137 -71q-49 0 -108 37l-135 78l-86 -111l-68 45q29 122 87.5 195.5t135.5 73.5
q47 0 111 -37l135 -80z" />
    <glyph glyph-name="Imacron" unicode="&#x12a;" horiz-adv-x="735" 
d="M764 1362v-121q-54 -32 -146 -47l-104 -1053l139 -18v-55l-8 -68h-635v121q58 32 144 47l104 1053l-137 18v55l8 68h635zM188 1743h619q4 -16 4 -57q0 -75 -27 -138h-618q-6 24 -6 58q0 71 28 137z" />
    <glyph glyph-name="imacron" unicode="&#x12b;" horiz-adv-x="612" 
d="M479 1073l58 -63q-80 -645 -109 -846q45 0 131 20l8 -114q-157 -95 -288 -95q-94 0 -139.5 37t-45.5 125q0 84 88 729l-121 25v115q225 64 418 67zM156 1458h506q4 -16 4 -57q0 -71 -27 -137h-504q-6 24 -6 55q0 73 27 139z" />
    <glyph glyph-name="Ibreve" unicode="&#x12c;" horiz-adv-x="735" 
d="M764 1362v-121q-54 -32 -146 -47l-104 -1053l139 -18v-55l-8 -68h-635v121q58 32 144 47l104 1053l-137 18v55l8 68h635zM174 1798l221 31q2 -89 34 -132.5t108 -43.5q75 0 117 41t79 131l103 -10q-32 -169 -129.5 -260t-249.5 -91q-68 0 -121 18.5t-85 50.5t-53 75
t-24.5 91t0.5 99z" />
    <glyph glyph-name="ibreve" unicode="&#x12d;" horiz-adv-x="612" 
d="M479 1073l58 -63q-80 -645 -109 -846q45 0 131 20l8 -114q-157 -95 -288 -95q-94 0 -139.5 37t-45.5 125q0 84 88 729l-121 25v115q225 64 418 67zM135 1530l219 31q0 -37 1.5 -60.5t7 -50t16.5 -41.5t30.5 -25t47.5 -10q60 0 95 42t64 140l101 -10q-35 -180 -120 -270
t-212 -90q-96 0 -159 52t-84 129t-7 163z" />
    <glyph glyph-name="Iogonek" unicode="&#x12e;" horiz-adv-x="735" 
d="M764 1362v-121q-50 -29 -146 -49l-104 -1051l139 -18v-55l-8 -68q-143 -44 -200.5 -93t-57.5 -106q0 -77 92 -77q40 0 94 14l2 -113q-109 -61 -243 -61q-119 0 -175.5 42.5t-56.5 114.5q0 85 72.5 150.5t196.5 103.5v25h-359v121q71 35 144 47l102 1055l-135 16v55l8 68
h635z" />
    <glyph glyph-name="iogonek" unicode="&#x12f;" horiz-adv-x="612" 
d="M444 1550q70 0 111 -14q20 -45 20 -98q0 -101 -67 -205h-258l-17 278q97 39 211 39zM479 1073l58 -63q-81 -660 -107 -846q43 0 129 20l8 -114q-143 -76 -204.5 -135t-61.5 -123q0 -86 90 -86q28 0 94 12l2 -113q-92 -61 -241 -61q-123 0 -179.5 45t-54.5 117
q3 147 248 231v25q-21 -2 -51 2q-115 19 -115 151q0 31 5 87.5t17.5 154.5t19.5 151t25.5 186.5t20.5 151.5l-121 25v115q225 64 418 67z" />
    <glyph glyph-name="Idotaccent" unicode="&#x130;" horiz-adv-x="735" 
d="M764 1362v-121q-54 -32 -146 -47l-104 -1053l139 -18v-55l-8 -68h-635v121q58 32 144 47l104 1053l-137 18v55l8 68h635zM528 1796q72 0 111 -16q23 -62 23 -103q0 -92 -68 -200h-258l-17 278q102 41 209 41z" />
    <glyph glyph-name="dotlessi" unicode="&#x131;" horiz-adv-x="612" 
d="M479 1073l58 -63q-80 -645 -109 -846q45 0 131 20l8 -114q-157 -95 -288 -95q-94 0 -139.5 37t-45.5 125q0 84 88 729l-121 25v115q225 64 418 67z" />
    <glyph glyph-name="IJ" unicode="&#x132;" horiz-adv-x="1445" 
d="M639 0h-629v121q58 32 144 47l104 1053l-137 18v55l8 68h616v-121q-39 -25 -127 -49l-104 -1051l133 -18v-55zM1479 1362v-121q-84 -41 -146 -49l-98 -967q-9 -87 -26.5 -156.5t-52.5 -135t-85 -109.5t-127 -70t-176 -26q-206 0 -340 92l31 137q219 -25 344 -23
q50 99 76 342l94 947l-127 14v57l8 68h625z" />
    <glyph glyph-name="ij" unicode="&#x133;" horiz-adv-x="1212" 
d="M1151 1010l-125 -965q-32 -254 -121 -367.5t-246 -113.5q-155 0 -280 96l24 117q140 -29 230 -31q32 96 53 264l109 856l-121 25v115q225 64 420 67zM1051 1550q70 0 108 -14q23 -44 23 -98q0 -100 -68 -205h-258l-16 278q97 39 211 39zM479 1073l58 -63
q-80 -645 -109 -846q45 0 131 20l8 -114q-157 -95 -288 -95q-94 0 -139.5 37t-45.5 125q0 84 88 729l-121 25v115q225 64 418 67zM446 1550q71 0 109 -14q23 -44 23 -98q0 -100 -68 -205h-258l-16 278q97 39 210 39z" />
    <glyph glyph-name="Jcircumflex" unicode="&#x134;" horiz-adv-x="983" 
d="M1016 1362v-121q-94 -42 -148 -49l-98 -967q-9 -88 -27.5 -158t-54.5 -135.5t-87.5 -108.5t-130.5 -69t-181 -26q-119 0 -215.5 33.5t-155.5 99.5l47 137q203 -59 373 -64q54 110 76 342l94 949l-240 12v57l8 68h740zM1016 1540l-205 -104l-174 200h-19l-194 -172h-131
l328 375h202z" />
    <glyph glyph-name="jcircumflex" unicode="&#x135;" horiz-adv-x="600" 
d="M539 1010l-125 -965q-32 -254 -121 -367.5t-246 -113.5q-155 0 -280 96l24 117q140 -29 229 -31q34 101 54 264l108 856l-121 25v115q225 64 420 67zM674 1243l-209 -82l-111 197h-20l-135 -180h-129l270 413h205z" />
    <glyph glyph-name="Kcommaaccent" unicode="&#x136;" horiz-adv-x="1413" 
d="M1405 1362v-121q-47 -28 -131 -47q-136 -202 -318 -393q159 -435 283 -623l102 2l2 -129q-54 -35 -129.5 -55.5t-142.5 -20.5q-87 0 -145 38.5t-97 115.5q-75 144 -145 481h-123l-47 -469l123 -18v-55l-6 -68h-621v121q64 33 144 47l104 1053l-137 18v55l8 68h631v-121
q-39 -26 -139 -47l-46 -432l162 12q161 182 332 449l-125 16v55l8 68h453zM686 -88q84 0 145 -27q29 -39 29 -102q0 -117 -72.5 -196t-232.5 -101l-20 80q68 24 98.5 48t30.5 64v21l-101 6l19 197q46 10 104 10z" />
    <glyph glyph-name="kcommaaccent" unicode="&#x137;" horiz-adv-x="1224" 
d="M1163 184l8 -114q-128 -95 -278 -95q-50 0 -85.5 11t-59.5 35.5t-38.5 49.5t-31.5 66q-58 143 -74 299l82 31q46 60 74 143.5t28 155.5q0 46 -15.5 65t-53.5 19q-11 0 -39 -4q-147 -234 -295 -846q-109 -25 -254 -25l-61 66l161 1294l-100 43l14 115q181 46 379 49
l60 -63l-45 -351q-28 -220 -103 -538l23 -4q101 290 189 392.5t243 102.5q262 0 262 -241q0 -234 -231 -355q73 -181 118 -319q60 3 123 18zM557 -88q83 0 145 -27q29 -39 29 -102q0 -117 -72.5 -196t-232.5 -101l-20 80q68 24 98.5 48t30.5 64v21l-101 6l19 197
q46 10 104 10z" />
    <glyph glyph-name="kgreenlandic" unicode="&#x138;" horiz-adv-x="1200" 
d="M1020 166q41 2 123 18l6 -114q-135 -95 -262 -95q-96 0 -148.5 44.5t-85.5 134.5q-55 138 -86 311h-110l-64 -465q-109 -25 -254 -25l-61 66l104 825l-121 25v115q86 28 205.5 46.5t212.5 20.5l53 -63l-55 -400l139 6q97 229 212 346t243 117q37 0 72.5 -8t50.5 -20
l12 -209l-264 -51q-70 -70 -129 -140q93 -281 207 -485z" />
    <glyph glyph-name="Lacute" unicode="&#x139;" horiz-adv-x="1103" 
d="M848 399l199 -12q4 -62 4 -92q0 -143 -50 -322l-81 -10l-607 37h-303v121q84 39 144 49l104 1051l-137 18v55l8 68h637v-121q-57 -32 -148 -49l-104 -1049h246zM602 1858h207q61 -45 80 -156l-354 -238h-148z" />
    <glyph glyph-name="lacute" unicode="&#x13a;" horiz-adv-x="616" 
d="M496 1843h209q58 -45 77 -155l-250 -164h-147zM510 1432l59 -64q-21 -176 -59 -450.5t-62 -464t-30 -289.5q66 0 147 18l6 -112q-153 -95 -299 -95q-186 0 -186 168q0 47 13.5 170t29.5 246.5t44.5 334t43.5 331.5l-98 43l14 116q187 48 377 48z" />
    <glyph glyph-name="Lcommaaccent" unicode="&#x13b;" horiz-adv-x="1103" 
d="M848 399l199 -12q4 -62 4 -92q0 -143 -50 -322l-81 -10l-607 37h-303v121q84 39 144 49l104 1051l-137 18v55l8 68h637v-121q-57 -32 -148 -49l-104 -1049h246zM481 -88q85 0 146 -27q28 -38 28 -102q0 -117 -72.5 -196t-232.5 -101l-20 80q68 24 98.5 48t30.5 64v21
l-101 6l19 197q46 10 104 10z" />
    <glyph glyph-name="lcommaaccent" unicode="&#x13c;" horiz-adv-x="616" 
d="M524 1542l60 -63q-22 -180 -63.5 -480t-70 -518t-34.5 -317q57 0 147 20l6 -114q-153 -95 -297 -95q-188 0 -188 168q0 60 22 241.5t65 499t60 451.5l-102 43l14 115q181 46 381 49zM231 -88q85 0 146 -27q29 -39 29 -102q0 -117 -73 -196t-233 -101l-20 80
q68 24 98.5 48t30.5 64v21l-100 6l18 197q46 10 104 10z" />
    <glyph glyph-name="Lcaron" unicode="&#x13d;" horiz-adv-x="1103" 
d="M848 399l199 -12q4 -62 4 -92q0 -143 -50 -322l-81 -10l-607 37h-303v121q84 39 144 49l104 1051l-137 18v55l8 68h637v-121q-57 -32 -148 -49l-104 -1049h246zM995 1372q94 0 172 -53q-15 -132 -66 -236.5t-159 -214.5h-115l66 273v217q47 14 102 14z" />
    <glyph glyph-name="lcaron" unicode="&#x13e;" horiz-adv-x="878" 
d="M526 1542l60 -63q-22 -180 -63.5 -480t-70 -518t-34.5 -317q57 0 147 20l6 -114q-153 -95 -297 -95q-188 0 -188 168q0 60 22 241.5t65 499t60 451.5l-102 43l14 115q181 46 381 49zM819 1559q92 0 172 -54q-15 -132 -66 -236t-159 -214h-115l66 272v217q51 15 102 15z
" />
    <glyph glyph-name="Ldot" unicode="&#x13f;" horiz-adv-x="1126" 
d="M1004 956q84 0 116 -14q21 -40 21 -98q0 -102 -72 -205h-235l-13 285q78 32 183 32zM848 399l199 -12q4 -62 4 -92q0 -143 -50 -322l-81 -10l-607 37h-303v121q84 39 144 49l104 1051l-137 18v55l8 68h637v-121q-57 -32 -148 -49l-104 -1049h246z" />
    <glyph glyph-name="ldot" unicode="&#x140;" horiz-adv-x="768" 
d="M721 893q72 0 104 -14q19 -36 19 -97q0 -100 -68 -200h-207l-6 278q86 33 158 33zM526 1542l60 -63q-22 -180 -63.5 -480t-70 -518t-34.5 -317q57 0 147 20l6 -114q-153 -95 -297 -95q-188 0 -188 168q0 60 22 241.5t65 499t60 451.5l-102 43l14 115q181 46 381 49z" />
    <glyph glyph-name="Lslash" unicode="&#x141;" horiz-adv-x="1126" 
d="M870 399l199 -12q4 -62 4 -92q0 -147 -49 -322l-82 -10l-606 37h-303v121q85 40 143 49l37 369l-111 -43l-39 34v115l166 64l52 512l-138 18v55l9 68h636v-121q-57 -32 -147 -49l-35 -361l299 117l39 -35v-114l-356 -135l-51 -521h245z" />
    <glyph glyph-name="lslash" unicode="&#x142;" horiz-adv-x="657" 
d="M678 823l-176 -116q-59 -413 -66 -543q58 0 148 20l6 -114q-153 -95 -297 -95q-189 0 -189 168q0 58 35 342l-90 -57l-39 37v113l154 98q49 358 88 659l-102 43l14 115q181 46 381 49l59 -63q-27 -214 -78 -582l113 74l39 -35v-113z" />
    <glyph glyph-name="Nacute" unicode="&#x143;" horiz-adv-x="1452" 
d="M1485 1362v-121q-52 -31 -144 -47l-118 -1178q-137 -39 -305 -39l-58 21l-291 709q-90 231 -143 421h-25l-57 -989l123 -16v-55l-8 -68h-451v121q58 32 144 47l104 1032l-137 25v55l8 68q227 14 573 14l236 -578q72 -184 143 -411h25l41 848l-146 18v55l9 68h477z
M944 1858h207q61 -45 80 -156l-354 -238h-148z" />
    <glyph glyph-name="nacute" unicode="&#x144;" horiz-adv-x="1220" 
d="M1155 184l6 -114q-157 -95 -301 -95q-176 0 -176 160q0 71 49 328t49 317q0 37 -13.5 53.5t-47.5 16.5q-23 0 -35 -2q-158 -253 -293 -848q-116 -25 -256 -25l-59 66l104 825l-121 25v115q88 27 204 46.5t214 20.5l53 -63l-90 -420l25 -4q41 118 72.5 194t67.5 138.5
t75.5 95.5t88 50t112.5 17q128 0 183.5 -60.5t55.5 -174.5q0 -153 -100 -682q47 0 133 20zM858 1599h209q58 -58 74 -157l-355 -285h-129z" />
    <glyph glyph-name="Ncommaaccent" unicode="&#x145;" horiz-adv-x="1452" 
d="M1485 1362v-121q-52 -31 -144 -47l-118 -1178q-137 -39 -305 -39l-58 21l-291 709q-90 231 -143 421h-25l-57 -989l123 -16v-55l-8 -68h-451v121q58 32 144 47l104 1032l-137 25v55l8 68q227 14 573 14l236 -578q72 -184 143 -411h25l41 848l-146 18v55l9 68h477z
M623 -88q83 0 145 -27q29 -39 29 -102q0 -117 -72.5 -196t-232.5 -101l-21 80q68 24 98.5 48t30.5 64v21l-100 6l18 197q46 10 105 10z" />
    <glyph glyph-name="ncommaaccent" unicode="&#x146;" horiz-adv-x="1220" 
d="M1155 184l6 -114q-157 -95 -301 -95q-176 0 -176 160q0 71 49 328t49 317q0 37 -13.5 53.5t-47.5 16.5q-23 0 -35 -2q-158 -253 -293 -848q-116 -25 -256 -25l-59 66l104 825l-121 25v115q88 27 204 46.5t214 20.5l53 -63l-90 -420l25 -4q41 118 72.5 194t67.5 138.5
t75.5 95.5t88 50t112.5 17q128 0 183.5 -60.5t55.5 -174.5q0 -153 -100 -682q47 0 133 20zM535 -88q83 0 145 -27q29 -39 29 -102q0 -117 -73 -196t-233 -101l-20 80q68 24 98.5 48t30.5 64v21l-100 6l18 197q46 10 105 10z" />
    <glyph glyph-name="Ncaron" unicode="&#x147;" horiz-adv-x="1452" 
d="M1485 1362v-121q-52 -31 -144 -47l-118 -1178q-137 -39 -305 -39l-58 21l-291 709q-90 231 -143 421h-25l-57 -989l123 -16v-55l-8 -68h-451v121q58 32 144 47l104 1032l-137 25v55l8 68q227 14 573 14l236 -578q72 -184 143 -411h25l41 848l-146 18v55l9 68h477z
M872 1669h21l194 170h130l-326 -375h-203l-194 310l208 94z" />
    <glyph glyph-name="ncaron" unicode="&#x148;" horiz-adv-x="1220" 
d="M1155 184l6 -114q-157 -95 -301 -95q-176 0 -176 160q0 71 49 328t49 317q0 37 -13.5 53.5t-47.5 16.5q-23 0 -35 -2q-158 -253 -293 -848q-116 -25 -256 -25l-59 66l104 825l-121 25v115q88 27 204 46.5t214 20.5l53 -63l-90 -420l25 -4q41 118 72.5 194t67.5 138.5
t75.5 95.5t88 50t112.5 17q128 0 183.5 -60.5t55.5 -174.5q0 -153 -100 -682q47 0 133 20zM782 1376h19l180 199h129l-311 -418h-205l-166 346l205 101z" />
    <glyph glyph-name="napostrophe" unicode="&#x149;" horiz-adv-x="1220" 
d="M1155 184l6 -114q-157 -95 -301 -95q-176 0 -176 160q0 71 49 328t49 317q0 37 -13.5 53.5t-47.5 16.5q-23 0 -35 -2q-158 -253 -293 -848q-116 -25 -256 -25l-59 66l104 825l-121 25v115q88 27 204 46.5t214 20.5l53 -63l-90 -420l25 -4q41 118 72.5 194t67.5 138.5
t75.5 95.5t88 50t112.5 17q128 0 183.5 -60.5t55.5 -174.5q0 -153 -100 -682q47 0 133 20zM178 1542q87 0 146 -26q28 -38 28 -103q0 -117 -72.5 -196t-232.5 -101l-20 80q68 23 98.5 48t30.5 65v20l-101 6l19 197q46 10 104 10z" />
    <glyph glyph-name="Eng" unicode="&#x14a;" horiz-adv-x="1449" 
d="M1483 1362v-121q-54 -32 -144 -47l-96 -969q-9 -86 -25 -155.5t-48 -135.5t-77 -109.5t-114.5 -70t-157.5 -26.5q-100 0 -183.5 32t-133.5 93l47 137q169 -50 315 -56q12 15 27 48l-315 725q-96 220 -152 421h-25l-57 -989l102 -16v-55l-8 -68h-430v121q58 32 144 47
l104 1032l-137 25v55l8 68q227 14 573 14l228 -555q83 -201 151 -420h25l41 834l-146 18v55l9 68h475z" />
    <glyph glyph-name="eng" unicode="&#x14b;" horiz-adv-x="1218" 
d="M885 1081q131 0 184 -62t53 -190q0 -70 -18 -223.5t-74 -560.5q-36 -257 -125 -369t-241 -112q-161 0 -283 96l25 117q140 -29 227 -31q29 81 55 264q94 691 94 766q0 40 -12.5 57t-48.5 17q-23 0 -35 -2q-154 -246 -293 -848q-116 -25 -256 -25l-59 66l104 825l-121 25
v115q88 27 204 46.5t214 20.5l53 -63l-90 -420l25 -4q41 118 71 191t66.5 137.5t75.5 97.5t89 51t116 18z" />
    <glyph glyph-name="Omacron" unicode="&#x14c;" horiz-adv-x="1466" 
d="M836 1389q285 0 436 -153.5t151 -424.5q1 -111 -22.5 -222.5t-80.5 -224t-141 -198t-216 -139.5t-295 -54q-282 0 -434 155t-152 429q0 78 11.5 156.5t38.5 161t67 157t101.5 140.5t137.5 113.5t178 75.5t220 28zM819 1217q-84 0 -164 -41q-71 -76 -119.5 -277.5
t-48.5 -417.5q0 -172 44.5 -254t160.5 -82q84 0 164 41q71 76 119.5 277.5t48.5 417.5q0 172 -44.5 254t-160.5 82zM559 1743h619q4 -16 4 -57q0 -75 -27 -138h-618q-7 28 -7 58q0 69 29 137z" />
    <glyph glyph-name="omacron" unicode="&#x14d;" horiz-adv-x="1150" 
d="M653 1079q228 0 339.5 -117.5t111.5 -330.5q0 -62 -9 -124.5t-29.5 -128t-52 -123.5t-80 -110.5t-109 -90t-143.5 -59.5t-179 -22q-228 0 -339.5 118.5t-111.5 334.5q0 90 18 177t62 174.5t110.5 153.5t172.5 107t239 41zM627 934q-44 0 -84 -19q-54 -68 -88.5 -256
t-34.5 -356q0 -98 24 -141t88 -43q41 0 82 18q53 65 88 254.5t35 356.5q0 103 -24 144.5t-86 41.5zM406 1458h567q6 -24 6 -57q0 -75 -29 -137h-565q-6 24 -6 55q0 73 27 139z" />
    <glyph glyph-name="Obreve" unicode="&#x14e;" horiz-adv-x="1466" 
d="M836 1389q285 0 436 -153.5t151 -424.5q1 -111 -22.5 -222.5t-80.5 -224t-141 -198t-216 -139.5t-295 -54q-282 0 -434 155t-152 429q0 78 11.5 156.5t38.5 161t67 157t101.5 140.5t137.5 113.5t178 75.5t220 28zM819 1217q-84 0 -164 -41q-71 -76 -119.5 -277.5
t-48.5 -417.5q0 -172 44.5 -254t160.5 -82q84 0 164 41q71 76 119.5 277.5t48.5 417.5q0 172 -44.5 254t-160.5 82zM545 1798l221 31q2 -89 33.5 -132.5t107.5 -43.5q75 0 117.5 41.5t79.5 130.5l102 -10q-32 -169 -129.5 -260t-249.5 -91q-84 0 -144.5 28t-91.5 76.5
t-42.5 106t-3.5 123.5z" />
    <glyph glyph-name="obreve" unicode="&#x14f;" horiz-adv-x="1150" 
d="M653 1079q228 0 339.5 -117.5t111.5 -330.5q0 -62 -9 -124.5t-29.5 -128t-52 -123.5t-80 -110.5t-109 -90t-143.5 -59.5t-179 -22q-228 0 -339.5 118.5t-111.5 334.5q0 90 18 177t62 174.5t110.5 153.5t172.5 107t239 41zM627 934q-44 0 -84 -19q-54 -68 -88.5 -256
t-34.5 -356q0 -98 24 -141t88 -43q41 0 82 18q53 65 88 254.5t35 356.5q0 103 -24 144.5t-86 41.5zM399 1532l217 31q1 -38 3 -61t9 -50.5t19.5 -42.5t35.5 -25t56 -10q69 0 107.5 45t64.5 140l101 -19q-30 -180 -123 -267t-230 -87q-67 0 -119 20.5t-81.5 55t-47.5 79.5
t-18.5 93.5t6.5 97.5z" />
    <glyph glyph-name="Ohungarumlaut" unicode="&#x150;" horiz-adv-x="1466" 
d="M836 1389q285 0 436 -153.5t151 -424.5q1 -111 -22.5 -222.5t-80.5 -224t-141 -198t-216 -139.5t-295 -54q-282 0 -434 155t-152 429q0 78 11.5 156.5t38.5 161t67 157t101.5 140.5t137.5 113.5t178 75.5t220 28zM819 1217q-84 0 -164 -41q-71 -76 -119.5 -277.5
t-48.5 -417.5q0 -172 44.5 -254t160.5 -82q84 0 164 41q71 76 119.5 277.5t48.5 417.5q0 172 -44.5 254t-160.5 82zM631 1835h184q59 -44 78 -149l-211 -222h-162zM1049 1835h186q57 -45 76 -149l-213 -222h-162z" />
    <glyph glyph-name="ohungarumlaut" unicode="&#x151;" horiz-adv-x="1150" 
d="M653 1079q228 0 339.5 -117.5t111.5 -330.5q0 -62 -9 -124.5t-29.5 -128t-52 -123.5t-80 -110.5t-109 -90t-143.5 -59.5t-179 -22q-228 0 -339.5 118.5t-111.5 334.5q0 90 18 177t62 174.5t110.5 153.5t172.5 107t239 41zM627 934q-44 0 -84 -19q-54 -68 -88.5 -256
t-34.5 -356q0 -98 24 -141t88 -43q41 0 82 18q53 65 88 254.5t35 356.5q0 103 -24 144.5t-86 41.5zM512 1616h188q55 -43 78 -150l-268 -292h-131zM907 1616h185q53 -41 79 -150l-268 -292h-131z" />
    <glyph glyph-name="OE" unicode="&#x152;" horiz-adv-x="1945" 
d="M1343 1210l-43 -448l297 20l17 -57l-15 -129l-313 20l-47 -473h311l88 256l199 -12q4 -62 4 -92q0 -147 -49 -322l-80 -10l-676 37h-88q-159 -27 -278 -27q-283 0 -434.5 155.5t-151.5 436.5q0 90 16.5 180.5t50.5 185t93.5 175.5t139 145t195 101t252.5 37
q115 0 254 -27h607q122 31 186 31l64 -31q4 -40 4 -76q0 -141 -50 -315h-192l-27 227zM881 193l96 968q-68 56 -162 56q-81 0 -158 -41q-71 -76 -119.5 -278t-48.5 -419q0 -173 45 -253.5t164 -80.5q112 0 183 48z" />
    <glyph glyph-name="oe" unicode="&#x153;" horiz-adv-x="1710" 
d="M1276 201q145 0 317 104l13 -123q-78 -87 -200.5 -148t-262.5 -61q-209 0 -283 170h-24q-65 -83 -149.5 -126.5t-209.5 -43.5q-209 0 -317.5 120t-108.5 335q0 89 17.5 176t60 174t106 153t164 107t224.5 41q122 0 192 -40.5t125 -131.5h25q72 85 160 128.5t212 43.5
q176 0 261 -83t85 -214q0 -73 -26 -130t-73 -93.5t-104.5 -61t-129 -36t-138 -15t-139.5 -0.5q0 -129 51 -187t152 -58zM614 137q53 65 88 254.5t35 356.5q0 103 -24 144.5t-86 41.5q-44 0 -84 -19q-54 -68 -88.5 -256t-34.5 -356q0 -98 24 -141t88 -43q41 0 82 18z
M1264 934q-40 0 -76 -19q-42 -57 -71.5 -164t-39.5 -214q264 34 264 282q0 65 -18 90t-59 25z" />
    <glyph glyph-name="Racute" unicode="&#x154;" horiz-adv-x="1366" 
d="M1323 180l4 -129q-56 -36 -129 -56t-141 -20q-96 0 -151 39.5t-93 114.5q-65 130 -133 416h-139l-41 -404l129 -18v-55l-8 -68h-611v121q70 34 146 47l100 1032l-135 27v57l8 66q308 37 569 34q308 -2 444 -82.5t136 -269.5q0 -277 -274 -403q117 -301 219 -451zM555 707
h213q119 133 119 325q0 100 -43.5 145.5t-145.5 45.5h-92zM834 1858h206q61 -45 80 -156l-354 -238h-148z" />
    <glyph glyph-name="racute" unicode="&#x155;" horiz-adv-x="864" 
d="M862 768l-215 4q-123 -246 -244 -772q-119 -25 -266 -25l-59 66l104 825l-121 25v115q207 64 400 67l53 -63l-94 -459l24 -6q25 78 42 130.5t37.5 110t37 93.5t37 73t39.5 58t42.5 39t49 25t55.5 7q42 0 66.5 -15.5t44.5 -49.5zM713 1599h209q57 -57 73 -157l-354 -285
h-129z" />
    <glyph glyph-name="Rcommaaccent" unicode="&#x156;" horiz-adv-x="1366" 
d="M1323 180l4 -129q-56 -36 -129 -56t-141 -20q-96 0 -151 39.5t-93 114.5q-65 130 -133 416h-139l-41 -404l129 -18v-55l-8 -68h-611v121q70 34 146 47l100 1032l-135 27v57l8 66q308 37 569 34q308 -2 444 -82.5t136 -269.5q0 -277 -274 -403q117 -301 219 -451zM555 707
h213q119 133 119 325q0 100 -43.5 145.5t-145.5 45.5h-92zM678 -88q84 0 145 -27q29 -39 29 -102q0 -117 -72.5 -196t-232.5 -101l-21 80q68 24 98.5 48t30.5 64v21l-100 6l18 197q46 10 105 10z" />
    <glyph glyph-name="rcommaaccent" unicode="&#x157;" horiz-adv-x="864" 
d="M862 768l-215 4q-123 -246 -244 -772q-119 -25 -266 -25l-59 66l104 825l-121 25v115q207 64 400 67l53 -63l-94 -459l24 -6q25 78 42 130.5t37.5 110t37 93.5t37 73t39.5 58t42.5 39t49 25t55.5 7q42 0 66.5 -15.5t44.5 -49.5zM254 -88q83 0 145 -27q29 -39 29 -102
q0 -117 -72.5 -196t-232.5 -101l-21 80q68 24 98.5 48t30.5 64v21l-100 6l19 197q46 10 104 10z" />
    <glyph glyph-name="Rcaron" unicode="&#x158;" horiz-adv-x="1366" 
d="M1323 180l4 -129q-56 -36 -129 -56t-141 -20q-96 0 -151 39.5t-93 114.5q-65 130 -133 416h-139l-41 -404l129 -18v-55l-8 -68h-611v121q70 34 146 47l100 1032l-135 27v57l8 66q308 37 569 34q308 -2 444 -82.5t136 -269.5q0 -277 -274 -403q117 -301 219 -451zM555 707
h213q119 133 119 325q0 100 -43.5 145.5t-145.5 45.5h-92zM803 1669h20l195 170h129l-326 -375h-203l-194 310l209 94z" />
    <glyph glyph-name="rcaron" unicode="&#x159;" horiz-adv-x="864" 
d="M862 768l-215 4q-123 -246 -244 -772q-119 -25 -266 -25l-59 66l104 825l-121 25v115q207 64 400 67l53 -63l-94 -459l24 -6q25 78 42 130.5t37.5 110t37 93.5t37 73t39.5 58t42.5 39t49 25t55.5 7q42 0 66.5 -15.5t44.5 -49.5zM637 1376h18l181 199h129l-312 -418h-204
l-166 346l204 101z" />
    <glyph glyph-name="Sacute" unicode="&#x15a;" horiz-adv-x="1114" 
d="M672 854l84 -51q133 -80 203.5 -177.5t70.5 -236.5q0 -65 -16 -123t-56 -112.5t-101 -94t-158.5 -63t-221.5 -23.5q-120 0 -230 21t-184 55q-12 77 -12 160q0 101 19 205l217 12l57 -276q63 -13 119 -13q88 0 145 31q43 60 43 133q0 70 -35.5 113.5t-121.5 95.5l-80 47
q-269 165 -269 410q0 80 29 155t82.5 135t139 96t190.5 36q123 0 211 -56l4 31q17 3 50 10t50 10t44 6t54 3l64 -54q4 -28 4 -55q0 -147 -49 -315h-201l-29 241q-65 15 -116 15q-77 0 -129 -27q-49 -53 -49 -121q0 -71 42.5 -118t135.5 -105zM797 1858h207q60 -45 79 -156
l-354 -238h-147z" />
    <glyph glyph-name="sacute" unicode="&#x15b;" horiz-adv-x="892" 
d="M590 633q67 -53 101.5 -82.5t69.5 -71t48.5 -83.5t13.5 -95q0 -158 -120.5 -243t-321.5 -85q-162 0 -258.5 55.5t-116.5 157.5l139 144l269 -207q28 2 59 14q25 39 25 84q-1 45 -29.5 76.5t-117.5 100.5q-23 18 -36 28q-56 45 -89 76t-64.5 71.5t-45.5 84t-14 96.5
q0 155 122.5 240t320.5 85q149 0 240 -48.5t110 -139.5l-129 -143l-258 186q-55 -8 -74 -16q-26 -33 -26 -84q0 -43 32 -76t150 -125zM655 1616h209q58 -58 74 -158l-354 -284h-129z" />
    <glyph glyph-name="Scircumflex" unicode="&#x15c;" horiz-adv-x="1114" 
d="M672 854l84 -51q133 -80 203.5 -177.5t70.5 -236.5q0 -65 -16 -123t-56 -112.5t-101 -94t-158.5 -63t-221.5 -23.5q-120 0 -230 21t-184 55q-12 77 -12 160q0 101 19 205l217 12l57 -276q63 -13 119 -13q88 0 145 31q43 60 43 133q0 70 -35.5 113.5t-121.5 95.5l-80 47
q-269 165 -269 410q0 80 29 155t82.5 135t139 96t190.5 36q123 0 211 -56l4 31q17 3 50 10t50 10t44 6t54 3l64 -54q4 -28 4 -55q0 -147 -49 -315h-201l-29 241q-65 15 -116 15q-77 0 -129 -27q-49 -53 -49 -121q0 -71 42.5 -118t135.5 -105zM1030 1540l-205 -104l-174 200
h-18l-195 -172h-131l328 375h203z" />
    <glyph glyph-name="scircumflex" unicode="&#x15d;" horiz-adv-x="892" 
d="M590 633q67 -53 101.5 -82.5t69.5 -71t48.5 -83.5t13.5 -95q0 -158 -120.5 -243t-321.5 -85q-162 0 -258.5 55.5t-116.5 157.5l139 144l269 -207q28 2 59 14q25 39 25 84q-1 45 -29.5 76.5t-117.5 100.5q-23 18 -36 28q-56 45 -89 76t-64.5 71.5t-45.5 84t-14 96.5
q0 155 122.5 240t320.5 85q149 0 240 -48.5t110 -139.5l-129 -143l-258 186q-55 -8 -74 -16q-26 -33 -26 -84q0 -43 32 -76t150 -125zM874 1243l-206 -94l-150 225h-20l-181 -200h-127l314 417h201z" />
    <glyph glyph-name="Scedilla" unicode="&#x15e;" horiz-adv-x="1114" 
d="M672 854l84 -51q133 -80 203.5 -177.5t70.5 -236.5q0 -59 -13 -112t-45.5 -104t-82.5 -90t-128 -66.5t-177 -36.5l-13 -93q172 0 172 -131q0 -84 -67.5 -138t-196.5 -54q-154 0 -225 65l27 103q87 -23 133 -23q78 0 78 62q0 29 -20.5 40.5t-82.5 20.5l45 141
q-223 9 -371 76q-12 77 -12 160q0 101 19 205l217 12l57 -276q63 -13 119 -13q88 0 145 31q43 60 43 133q0 70 -35.5 113.5t-121.5 95.5l-80 47q-269 165 -269 410q0 80 29 155t82.5 135t139 96t190.5 36q123 0 211 -56l4 31q17 3 50 10t50 10t44 6t54 3l64 -54q4 -28 4 -55
q0 -147 -49 -315h-201l-29 241q-65 15 -116 15q-77 0 -129 -27q-49 -53 -49 -121q0 -71 42.5 -118t135.5 -105z" />
    <glyph glyph-name="scedilla" unicode="&#x15f;" horiz-adv-x="892" 
d="M590 633q67 -53 101.5 -82.5t69.5 -71t48.5 -83.5t13.5 -95q0 -144 -99.5 -227t-270.5 -97l-11 -90q172 0 172 -131q0 -84 -67.5 -138t-196.5 -54q-154 0 -225 65l27 103q87 -23 133 -23q77 0 77 62q0 29 -20 40.5t-82 20.5l45 145q-129 12 -205.5 65.5t-93.5 143.5
l139 144l269 -207q28 2 59 14q25 39 25 84q-1 45 -29.5 76.5t-117.5 100.5q-23 18 -36 28q-56 45 -89 76t-64.5 71.5t-45.5 84t-14 96.5q0 155 122.5 240t320.5 85q149 0 240 -48.5t110 -139.5l-129 -143l-258 186q-55 -8 -74 -16q-26 -33 -26 -84q0 -43 32 -76t150 -125z
" />
    <glyph glyph-name="Scaron" unicode="&#x160;" horiz-adv-x="1114" 
d="M672 854l84 -51q133 -80 203.5 -177.5t70.5 -236.5q0 -65 -16 -123t-56 -112.5t-101 -94t-158.5 -63t-221.5 -23.5q-120 0 -230 21t-184 55q-12 77 -12 160q0 101 19 205l217 12l57 -276q63 -13 119 -13q88 0 145 31q43 60 43 133q0 70 -35.5 113.5t-121.5 95.5l-80 47
q-269 165 -269 410q0 80 29 155t82.5 135t139 96t190.5 36q123 0 211 -56l4 31q17 3 50 10t50 10t44 6t54 3l64 -54q4 -28 4 -55q0 -147 -49 -315h-201l-29 241q-65 15 -116 15q-77 0 -129 -27q-49 -53 -49 -121q0 -71 42.5 -118t135.5 -105zM725 1669h20l195 170h129
l-326 -375h-202l-195 310l209 94z" />
    <glyph glyph-name="scaron" unicode="&#x161;" horiz-adv-x="892" 
d="M590 633q67 -53 101.5 -82.5t69.5 -71t48.5 -83.5t13.5 -95q0 -158 -120.5 -243t-321.5 -85q-162 0 -258.5 55.5t-116.5 157.5l139 144l269 -207q28 2 59 14q25 39 25 84q-1 45 -29.5 76.5t-117.5 100.5q-23 18 -36 28q-56 45 -89 76t-64.5 71.5t-45.5 84t-14 96.5
q0 155 122.5 240t320.5 85q149 0 240 -48.5t110 -139.5l-129 -143l-258 186q-55 -8 -74 -16q-26 -33 -26 -84q0 -43 32 -76t150 -125zM580 1393h18l180 198h129l-311 -417h-205l-166 346l205 100z" />
    <glyph glyph-name="Tcommaaccent" unicode="&#x162;" horiz-adv-x="1255" 
d="M1245 1393l64 -31q4 -40 4 -76q0 -144 -49 -315h-193l-27 229l-155 10l-105 -1071l142 -16v-55l-8 -68h-261l-14 -113q172 0 172 -131q0 -84 -67.5 -138t-196.5 -54q-154 0 -225 65l26 103q87 -23 133 -23q78 0 78 62q0 29 -20 40.5t-82 20.5l53 168h-268v121
q45 25 176 49l104 1049h-149l-88 -254l-189 10q-4 62 -4 94q0 154 47 309l2 11l80 10l496 -37h338q122 31 186 31z" />
    <glyph glyph-name="tcommaaccent" unicode="&#x163;" horiz-adv-x="747" 
d="M768 1034v-76l-18 -77h-228q-78 -558 -86 -719q110 0 246 20l6 -114q-56 -33 -138.5 -57t-162.5 -34l-10 -90q172 0 172 -131q0 -84 -67.5 -138t-196.5 -54q-155 0 -226 65l27 103q87 -23 133 -23q39 0 58.5 17t19.5 45q0 29 -20 40.5t-82 20.5l47 150q-142 28 -142 186
q0 74 28 279.5t67 414.5l-115 29v115q84 26 151 36q26 134 58 224q182 41 241 43l43 -47l-30 -228h225z" />
    <glyph glyph-name="Tcaron" unicode="&#x164;" horiz-adv-x="1255" 
d="M1245 1393l64 -31q4 -40 4 -76q0 -144 -49 -315h-193l-27 229l-155 10l-105 -1071l142 -16v-55l-8 -68h-672v121q45 25 176 49l104 1049h-149l-88 -254l-189 10q-4 62 -4 94q0 154 47 309l2 11l80 10l496 -37h338q122 31 186 31zM795 1669h20l195 170h129l-326 -375h-203
l-194 310l209 94z" />
    <glyph glyph-name="tcaron" unicode="&#x165;" horiz-adv-x="860" 
d="M768 1034v-76l-18 -77h-228q-78 -558 -86 -719q110 0 246 20l6 -114q-70 -41 -177 -68t-192 -27q-219 0 -219 195q0 74 28 279.5t67 414.5l-115 29v115q84 26 151 36q26 134 58 224q182 41 241 43l43 -47l-30 -228h225zM797 1542q90 0 172 -51q-12 -116 -58.5 -200
t-146.5 -177h-115l45 182v232q47 14 103 14z" />
    <glyph glyph-name="Tbar" unicode="&#x166;" horiz-adv-x="1255" 
d="M1245 1393l64 -31q4 -40 4 -76q0 -144 -49 -315h-193l-27 229l-155 10l-51 -530h209v-57l-17 -97h-209l-37 -387l142 -16v-55l-8 -68h-672v121q45 25 176 49l35 356h-205v56l14 98h207l53 539h-149l-88 -254l-189 10q-4 62 -4 94q0 154 47 309l2 11l80 10l496 -37h338
q122 31 186 31z" />
    <glyph glyph-name="tbar" unicode="&#x167;" horiz-adv-x="755" 
d="M772 1034v-76l-18 -77h-228l-26 -193h235v-72l-18 -77h-238q-36 -307 -39 -377q110 0 246 20l6 -114q-70 -42 -176.5 -68.5t-191.5 -26.5q-220 0 -220 195q0 100 41 369l-98 6v123q52 11 121 18q3 20 31 178l-115 29v115q83 26 152 36q27 140 57 224q182 41 242 43
l43 -47l-31 -228h225z" />
    <glyph glyph-name="Utilde" unicode="&#x168;" horiz-adv-x="1361" 
d="M1415 1362v-121q-56 -32 -145 -47q-40 -547 -70 -737q-37 -248 -174 -366t-387 -118q-245 0 -363 109.5t-118 325.5q0 151 78 815l-138 16v55l8 68h619v-121q-40 -26 -129 -49q-78 -677 -78 -817q0 -126 47.5 -185t167.5 -59q102 0 182 47q73 87 99 289q35 297 67 754
l-129 18v55l9 68h454zM1159 1806l74 -53q-71 -260 -256 -260q-64 0 -133 31l-185 82l-98 -113l-76 55q31 115 94 187.5t162 72.5q65 0 129 -30l189 -86z" />
    <glyph glyph-name="utilde" unicode="&#x169;" horiz-adv-x="1220" 
d="M1167 184l9 -114q-73 -42 -160.5 -68.5t-153.5 -26.5q-76 0 -115.5 32t-39.5 91q0 13 2 30.5t6 42t8 46.5t11.5 56t12.5 57.5t14.5 66t14.5 66.5l-24 4q-40 -117 -71 -192.5t-67.5 -138t-75.5 -95.5t-87.5 -50.5t-112.5 -17.5q-125 0 -182.5 59.5t-57.5 176.5
q0 142 97 657l-121 25v115q245 66 422 69l55 -63q-4 -35 -58.5 -352.5t-54.5 -387.5q0 -35 14 -52t48 -17q18 0 28 2q161 254 299 850q111 24 256 24l60 -65l-109 -850q47 0 133 20zM961 1524l75 -54q-20 -58 -41.5 -101.5t-51 -81.5t-69 -58.5t-86.5 -20.5q-64 0 -126 35
l-140 80l-96 -115l-74 56q15 42 29 75.5t36.5 70t47 60.5t59 40t74.5 16q64 0 127 -37l137 -82z" />
    <glyph glyph-name="Umacron" unicode="&#x16a;" horiz-adv-x="1361" 
d="M1415 1362v-121q-56 -32 -145 -47q-40 -547 -70 -737q-37 -248 -174 -366t-387 -118q-245 0 -363 109.5t-118 325.5q0 151 78 815l-138 16v55l8 68h619v-121q-40 -26 -129 -49q-78 -677 -78 -817q0 -126 47.5 -185t167.5 -59q102 0 182 47q73 87 99 289q35 297 67 754
l-129 18v55l9 68h454zM561 1743h619q4 -16 4 -57q0 -75 -27 -138h-618q-7 28 -7 58q0 69 29 137z" />
    <glyph glyph-name="umacron" unicode="&#x16b;" horiz-adv-x="1220" 
d="M1167 184l9 -114q-73 -42 -160.5 -68.5t-153.5 -26.5q-76 0 -115.5 32t-39.5 91q0 13 2 30.5t6 42t8 46.5t11.5 56t12.5 57.5t14.5 66t14.5 66.5l-24 4q-40 -117 -71 -192.5t-67.5 -138t-75.5 -95.5t-87.5 -50.5t-112.5 -17.5q-125 0 -182.5 59.5t-57.5 176.5
q0 142 97 657l-121 25v115q245 66 422 69l55 -63q-4 -35 -58.5 -352.5t-54.5 -387.5q0 -35 14 -52t48 -17q18 0 28 2q161 254 299 850q111 24 256 24l60 -65l-109 -850q47 0 133 20zM422 1458h567q6 -24 6 -57q0 -77 -28 -137h-566q-6 24 -6 55q0 73 27 139z" />
    <glyph glyph-name="Ubreve" unicode="&#x16c;" horiz-adv-x="1361" 
d="M1415 1362v-121q-56 -32 -145 -47q-40 -547 -70 -737q-37 -248 -174 -366t-387 -118q-245 0 -363 109.5t-118 325.5q0 151 78 815l-138 16v55l8 68h619v-121q-40 -26 -129 -49q-78 -677 -78 -817q0 -126 47.5 -185t167.5 -59q102 0 182 47q73 87 99 289q35 297 67 754
l-129 18v55l9 68h454zM547 1798l221 31q2 -89 33.5 -132.5t107.5 -43.5q75 0 117.5 41.5t79.5 130.5l102 -10q-32 -169 -129.5 -260t-249.5 -91q-84 0 -144.5 28t-91.5 76.5t-42.5 106t-3.5 123.5z" />
    <glyph glyph-name="ubreve" unicode="&#x16d;" horiz-adv-x="1220" 
d="M1167 184l9 -114q-73 -42 -160.5 -68.5t-153.5 -26.5q-76 0 -115.5 32t-39.5 91q0 13 2 30.5t6 42t8 46.5t11.5 56t12.5 57.5t14.5 66t14.5 66.5l-24 4q-40 -117 -71 -192.5t-67.5 -138t-75.5 -95.5t-87.5 -50.5t-112.5 -17.5q-125 0 -182.5 59.5t-57.5 176.5
q0 142 97 657l-121 25v115q245 66 422 69l55 -63q-4 -35 -58.5 -352.5t-54.5 -387.5q0 -35 14 -52t48 -17q18 0 28 2q161 254 299 850q111 24 256 24l60 -65l-109 -850q47 0 133 20zM416 1532l217 31q1 -38 3 -61t9 -50.5t19.5 -42.5t35.5 -25t56 -10q69 0 107.5 45
t64.5 140l100 -19q-30 -180 -122.5 -267t-229.5 -87q-67 0 -119 20.5t-81.5 55t-47.5 79.5t-18.5 93.5t6.5 97.5z" />
    <glyph glyph-name="Uring" unicode="&#x16e;" horiz-adv-x="1361" 
d="M1415 1362v-121q-56 -32 -145 -47q-40 -547 -70 -737q-37 -248 -174 -366t-387 -118q-245 0 -363 109.5t-118 325.5q0 151 78 815l-138 16v55l8 68h619v-121q-40 -26 -129 -49q-78 -677 -78 -817q0 -126 47.5 -185t167.5 -59q102 0 182 47q73 87 99 289q35 297 67 754
l-129 18v55l9 68h454zM897 1884q117 0 176.5 -48t59.5 -136q0 -101 -75.5 -169.5t-223.5 -68.5q-117 0 -176.5 47.5t-59.5 135.5q0 101 76 170t223 69zM883 1772q-27 0 -49 -15q-33 -46 -33 -110q0 -36 12 -54t41 -18q31 0 49 12q35 49 35 117q0 35 -13 51.5t-42 16.5z" />
    <glyph glyph-name="uring" unicode="&#x16f;" horiz-adv-x="1220" 
d="M1167 184l9 -114q-73 -42 -160.5 -68.5t-153.5 -26.5q-76 0 -115.5 32t-39.5 91q0 13 2 30.5t6 42t8 46.5t11.5 56t12.5 57.5t14.5 66t14.5 66.5l-24 4q-40 -117 -71 -192.5t-67.5 -138t-75.5 -95.5t-87.5 -50.5t-112.5 -17.5q-125 0 -182.5 59.5t-57.5 176.5
q0 142 97 657l-121 25v115q245 66 422 69l55 -63q-4 -35 -58.5 -352.5t-54.5 -387.5q0 -35 14 -52t48 -17q18 0 28 2q161 254 299 850q111 24 256 24l60 -65l-109 -850q47 0 133 20zM729 1638q120 0 179 -53t59 -145q0 -109 -75 -184.5t-224 -75.5q-119 0 -177.5 52
t-58.5 146q0 51 17 96t51.5 82.5t93.5 59.5t135 22zM717 1526q-25 0 -45 -10q-43 -52 -43 -144q0 -41 12 -60.5t41 -19.5q25 0 47 11q45 55 45 145q0 78 -57 78z" />
    <glyph glyph-name="Uhungarumlaut" unicode="&#x170;" horiz-adv-x="1361" 
d="M1415 1362v-121q-56 -32 -145 -47q-40 -547 -70 -737q-37 -248 -174 -366t-387 -118q-245 0 -363 109.5t-118 325.5q0 151 78 815l-138 16v55l8 68h619v-121q-40 -26 -129 -49q-78 -677 -78 -817q0 -126 47.5 -185t167.5 -59q102 0 182 47q73 87 99 289q35 297 67 754
l-129 18v55l9 68h454zM633 1835h184q59 -44 78 -149l-211 -222h-162zM1051 1835h186q57 -45 76 -149l-213 -222h-162z" />
    <glyph glyph-name="uhungarumlaut" unicode="&#x171;" horiz-adv-x="1220" 
d="M1167 184l9 -114q-73 -42 -160.5 -68.5t-153.5 -26.5q-76 0 -115.5 32t-39.5 91q0 13 2 30.5t6 42t8 46.5t11.5 56t12.5 57.5t14.5 66t14.5 66.5l-24 4q-40 -117 -71 -192.5t-67.5 -138t-75.5 -95.5t-87.5 -50.5t-112.5 -17.5q-125 0 -182.5 59.5t-57.5 176.5
q0 142 97 657l-121 25v115q245 66 422 69l55 -63q-4 -35 -58.5 -352.5t-54.5 -387.5q0 -35 14 -52t48 -17q18 0 28 2q161 254 299 850q111 24 256 24l60 -65l-109 -850q47 0 133 20zM528 1616h189q55 -43 78 -150l-269 -292h-131zM924 1616h184q54 -42 80 -150l-268 -292
h-132z" />
    <glyph glyph-name="Uogonek" unicode="&#x172;" horiz-adv-x="1361" 
d="M1415 1362v-121q-68 -33 -145 -47q-37 -521 -70 -737q-21 -140 -74 -228t-153 -170q-86 -71 -113 -103q-57 -66 -57 -140q0 -90 90 -90q28 0 94 12l2 -113q-92 -61 -241 -61q-122 0 -178 44t-56 120q0 83 56.5 141.5t164.5 101.5l-4 25q-60 -16 -129 -16
q-198 0 -321 111.5t-123 324.5q0 143 78 807l-138 16v55l8 68h619v-121q-40 -26 -129 -49q-78 -677 -78 -817q0 -126 47.5 -185t167.5 -59q102 0 182 47q73 87 99 289q34 287 67 754l-129 18v55l9 68h454z" />
    <glyph glyph-name="uogonek" unicode="&#x173;" horiz-adv-x="1220" 
d="M999 -274q33 0 95 12l2 -113q-89 -61 -242 -61q-123 0 -179 45t-54 117q3 148 249 231l-2 25h-43q-118 14 -118 114q0 16 3 40.5t7 47t12 62t13.5 64t17 76.5t16.5 77l-24 4q-40 -117 -71 -192.5t-67.5 -138t-75.5 -95.5t-87.5 -50.5t-112.5 -17.5q-125 0 -182.5 59.5
t-57.5 176.5q0 142 97 657l-121 25v115q245 66 422 69l55 -63q-4 -35 -58.5 -352.5t-54.5 -387.5q0 -35 14 -52t48 -17q18 0 28 2q161 254 299 850q111 24 256 24l60 -65l-109 -850q47 0 133 20l9 -114q-143 -76 -205 -135t-62 -123q0 -86 90 -86z" />
    <glyph glyph-name="Wcircumflex" unicode="&#x174;" horiz-adv-x="2072" 
d="M2134 1362v-121q-47 -25 -115 -43q-179 -554 -444 -1182q-144 -38 -285 -41l-84 58q-74 394 -112 737h-27q-99 -321 -285 -754q-145 -38 -284 -41l-84 58q-68 361 -203 1190l-115 16v55l8 68h617v-121q-44 -27 -127 -47q72 -572 117 -909h24q57 135 142 370.5t149 434.5
l-22 135l-103 14v55l8 68h607v-121q-56 -32 -132 -47q34 -275 119 -909h25q67 174 157.5 447t147.5 489l-133 18v55l8 68h426zM1559 1540l-205 -104l-174 200h-19l-194 -172h-131l327 375h203z" />
    <glyph glyph-name="wcircumflex" unicode="&#x175;" horiz-adv-x="1693" 
d="M1321 991l207 90q66 -26 101.5 -93t35.5 -154q0 -93 -41.5 -210t-115 -230t-163 -208.5t-196 -154t-203.5 -58.5q-84 0 -134 47.5t-50 141.5q0 73 45 225l-23 4q-44 -117 -99.5 -201.5t-115.5 -130t-117.5 -66t-117.5 -20.5q-106 0 -171 59.5t-65 176.5q0 154 97 657
l-121 25v115q237 64 420 67l55 -63q-10 -65 -40 -240.5t-47.5 -297.5t-17.5 -179q0 -45 16 -67.5t60 -22.5q22 0 49 6q131 165 213 461q19 202 58 379q105 24 264 24l61 -65q0 -138 -57 -301q-29 -301 -29 -410q0 -50 15 -72t59 -22q19 0 43 6q81 88 150 208t108 253z
M1335 1243l-207 -94l-149 225h-21l-180 -200h-127l314 417h200z" />
    <glyph glyph-name="Ycircumflex" unicode="&#x176;" horiz-adv-x="1292" 
d="M1231 1196q-127 -269 -393 -721l-35 -334l143 -18v-55l-8 -68h-666v121q77 33 172 47l29 285q-135 429 -270 770l-119 16v55l8 68h635v-121q-50 -26 -137 -45q107 -340 164 -547h24q170 304 277 572l-131 18v55l8 68h428v-121q-59 -32 -129 -45zM1133 1540l-205 -104
l-174 200h-19l-194 -172h-131l327 375h203z" />
    <glyph glyph-name="ycircumflex" unicode="&#x177;" horiz-adv-x="1087" 
d="M709 993l206 88q65 -26 103.5 -91t38.5 -163q0 -176 -120 -425t-302 -476q-292 -362 -522 -362q-137 0 -234 100l25 117q175 -37 323 -35q71 49 115 86q-118 650 -207 1034l-121 25v115q214 64 398 67l55 -63q114 -560 137 -869h25q154 231 219 525zM1014 1243l-207 -94
l-150 225h-20l-180 -200h-127l313 417h201z" />
    <glyph glyph-name="Ydieresis" unicode="&#x178;" horiz-adv-x="1292" 
d="M1231 1196q-127 -269 -393 -721l-35 -334l143 -18v-55l-8 -68h-666v121q77 33 172 47l29 285q-135 429 -270 770l-119 16v55l8 68h635v-121q-50 -26 -137 -45q107 -340 164 -547h24q170 304 277 572l-131 18v55l8 68h428v-121q-59 -32 -129 -45zM573 1784q61 0 97 -15
q20 -36 20 -94q0 -90 -61 -186h-219l-19 260q103 35 182 35zM1073 1784q60 0 96 -15q21 -35 21 -90q0 -96 -62 -190h-221l-16 260q103 35 182 35z" />
    <glyph glyph-name="Zacute" unicode="&#x179;" horiz-adv-x="1157" 
d="M885 399l198 -12q4 -62 4 -92q0 -147 -49 -322h-2l-80 -10l-669 37h-244l-18 123q377 587 501 771t226 310l-9 19l-346 -21l-49 -231h-192q-23 131 -23 219q0 68 17 172l65 31q66 0 184 -31h746l18 -123q-342 -544 -480 -749t-237 -330l11 -19l340 2zM805 1858h207
q61 -45 80 -156l-355 -238h-147z" />
    <glyph glyph-name="zacute" unicode="&#x17a;" horiz-adv-x="923" 
d="M713 406l147 -17q10 -105 10 -201q0 -138 -49 -190.5t-145 -52.5q-98 0 -222 36t-247 97l-96 -121q-48 8 -127 51l-19 37l563 703l-256 6l-32 -129h-160q-18 86 -2 233t53 219q153 0 306 -28t270 -78l79 100q68 -12 127 -51l19 -35l-557 -696q147 -16 293 -23zM655 1616
h209q58 -58 74 -158l-354 -284h-129z" />
    <glyph glyph-name="Zdotaccent" unicode="&#x17b;" horiz-adv-x="1157" 
d="M885 399l198 -12q4 -62 4 -92q0 -147 -49 -322h-2l-80 -10l-669 37h-244l-18 123q377 587 501 771t226 310l-9 19l-346 -21l-49 -231h-192q-23 131 -23 219q0 68 17 172l65 31q66 0 184 -31h746l18 -123q-342 -544 -480 -749t-237 -330l11 -19l340 2zM737 1796
q72 0 111 -16q22 -59 22 -103q0 -93 -67 -200h-258l-17 278q102 41 209 41z" />
    <glyph glyph-name="zdotaccent" unicode="&#x17c;" horiz-adv-x="923" 
d="M713 406l147 -17q10 -105 10 -201q0 -138 -49 -190.5t-145 -52.5q-98 0 -222 36t-247 97l-96 -121q-48 8 -127 51l-19 37l563 703l-256 6l-32 -129h-160q-18 86 -2 233t53 219q153 0 306 -28t270 -78l79 100q68 -12 127 -51l19 -35l-557 -696q147 -16 293 -23zM594 1550
q70 0 108 -14q23 -44 23 -98q0 -100 -68 -205h-258l-16 278q97 39 211 39z" />
    <glyph glyph-name="Zcaron" unicode="&#x17d;" horiz-adv-x="1157" 
d="M885 399l198 -12q4 -62 4 -92q0 -147 -49 -322h-2l-80 -10l-669 37h-244l-18 123q377 587 501 771t226 310l-9 19l-346 -21l-49 -231h-192q-23 131 -23 219q0 68 17 172l65 31q66 0 184 -31h746l18 -123q-342 -544 -480 -749t-237 -330l11 -19l340 2zM733 1669h21
l194 170h129l-325 -375h-203l-195 310l209 94z" />
    <glyph glyph-name="zcaron" unicode="&#x17e;" horiz-adv-x="923" 
d="M713 406l147 -17q10 -105 10 -201q0 -138 -49 -190.5t-145 -52.5q-98 0 -222 36t-247 97l-96 -121q-48 8 -127 51l-19 37l563 703l-256 6l-32 -129h-160q-18 86 -2 233t53 219q153 0 306 -28t270 -78l79 100q68 -12 127 -51l19 -35l-557 -696q147 -16 293 -23zM580 1393
h18l180 198h129l-311 -417h-205l-166 346l205 100z" />
    <glyph glyph-name="longs" unicode="&#x17f;" horiz-adv-x="618" 
d="M920 1235l-359 82q-26 -9 -49 -25q1 -25 4 -90.5t3.5 -94.5t0.5 -86t-3.5 -115.5t-10.5 -131.5l-70 -721q-26 -256 -117 -372.5t-253 -116.5q-80 0 -164 26t-152 76l25 117q171 -35 264 -37q37 111 53 266l86 850l-119 29v115q53 18 138 32q14 111 50.5 199t86.5 144
t114 93.5t128.5 52.5t134.5 15q170 0 262 -80z" />
    <glyph glyph-name="uni018F" unicode="&#x18f;" horiz-adv-x="1273" 
d="M692 1391q265 0 402 -157t137 -427q0 -115 -23 -227.5t-79 -223.5t-138 -195t-210.5 -136t-286.5 -52q-230 0 -342.5 100t-112.5 265q0 110 50 193t128 131t185.5 77.5t209 38.5t213.5 6v23q0 96 -17.5 162t-53.5 104t-85 54t-118 16q-179 0 -354 -107l-15 131
q103 105 223 164.5t287 59.5zM532 147q61 0 127 37q58 65 97.5 189t58.5 268q-224 -27 -319 -102t-95 -217q0 -94 33 -134.5t98 -40.5z" />
    <glyph glyph-name="florin" unicode="&#x192;" horiz-adv-x="1140" 
d="M1133 1262l65 -54q4 -28 4 -53q0 -133 -49 -301h-186l-29 248h-18q-61 0 -127 -27q-39 -90 -64 -213l-18 -82h176v-59l-13 -94h-198l-92 -414q-41 -190 -130.5 -286.5t-244.5 -96.5q-161 0 -311 102l24 117q19 -4 61.5 -12t65 -12t59 -8t70.5 -5q43 103 76 267l76 348
h-170v59l10 94h192l9 35q48 223 165 334t285 111q71 0 129 -21q85 23 183 23z" />
    <glyph glyph-name="uni01E2" unicode="&#x1e2;" horiz-adv-x="1828" 
d="M1225 1210l-45 -448l297 20l16 -57l-14 -129l-314 20l-47 -473h316l88 256l198 -12q4 -62 4 -92q0 -147 -49 -322l-80 -10l-682 37h-311v121q79 37 154 49l20 209h-381l-119 -242l113 -14v-55l-6 -68h-414v121q59 34 117 45q261 504 578 1063l-136 8v57l9 68h1032
q122 31 186 31l64 -31q4 -40 4 -76q0 -144 -49 -315h-193l-27 227zM793 539l65 651h-41q-158 -291 -340 -651h316zM836 1743h565q6 -24 6 -57q0 -72 -27 -138h-567q-6 24 -6 56q0 68 29 139z" />
    <glyph glyph-name="uni01E3" unicode="&#x1e3;" horiz-adv-x="1662" 
d="M1229 201q147 0 315 104l15 -123q-82 -89 -207.5 -149t-280.5 -60q-101 0 -170.5 31.5t-103.5 86t-47 129t0 161.5l-25 6q-40 -113 -73 -182.5t-78 -126t-102.5 -81t-135.5 -24.5q-64 0 -112 17t-86.5 57.5t-58.5 114.5t-20 180q0 108 20 212t63 200t105 168.5t153 115.5
t200 43q187 0 313 -114q131 114 349 114q102 0 177 -23.5t116.5 -66t61 -94t19.5 -113.5q0 -73 -26.5 -130.5t-71.5 -93t-105.5 -61.5t-128.5 -35.5t-139 -15t-139 0.5q0 -130 51 -189t152 -59zM813 850q5 8 15 22t12 17q-84 47 -174 47q-43 0 -97 -16q-69 -122 -105 -288
t-36 -308q0 -68 13.5 -93.5t52.5 -25.5q10 0 34 4q57 109 141 318t144 323zM1217 934q-40 0 -76 -19q-43 -56 -72 -162.5t-39 -215.5q74 10 127.5 37.5t82 67t41.5 83t13 94.5q0 65 -18.5 90t-58.5 25zM688 1458h565q7 -28 7 -57q0 -71 -27 -137h-567q-7 28 -7 55
q0 68 29 139z" />
    <glyph glyph-name="Aringacute" unicode="&#x1fa;" horiz-adv-x="1351" 
d="M879 1675h-144l160 318h195q52 -44 71 -135zM1307 123v-55l-9 -68h-630v121q60 33 141 47q-6 33 -19.5 98.5t-19.5 98.5h-401q-15 -38 -44.5 -113t-43.5 -113l125 -16v-55l-9 -68h-426v121q54 32 140 47q214 513 483 1071q-86 45 -86 143q0 94 73 163t218 69
q117 0 180 -49t63 -135q0 -115 -98 -175q18 -82 69.5 -328.5t94 -434.5t84.5 -353zM739 1489q-30 -46 -30 -98q0 -70 51 -70q34 0 55 14q31 39 31 97q0 71 -55 71q-31 0 -52 -14zM739 526l-82 449h-24q-115 -253 -197 -449h303z" />
    <glyph glyph-name="aringacute" unicode="&#x1fb;" horiz-adv-x="1198" 
d="M1145 184l8 -114q-157 -95 -293 -95q-72 0 -112.5 32.5t-40.5 90.5q0 10 1 23t3.5 30.5t5.5 33t7.5 40t8.5 41.5t10.5 47t10.5 48t12 53t12 53l-24 4q-40 -117 -71.5 -192t-68 -138.5t-76 -97.5t-89 -52t-113.5 -18t-112 17t-86.5 57.5t-58.5 114t-20 178.5
q0 90 14.5 178t43 171.5t73.5 154t102 124t134 83.5t164 30q153 0 227 -77l25 53q83 24 215 24l63 -65l-108 -852q47 0 133 20zM530 209q121 190 240 700q-52 27 -111 27q-38 0 -92 -16q-68 -123 -104.5 -289.5t-36.5 -306.5q0 -68 13.5 -93.5t52.5 -25.5q10 0 38 4z
M809 1937h184q54 -51 72 -135l-274 -184h-127zM735 1575q118 0 178 -49t60 -137q0 -102 -76 -171t-221 -69q-119 0 -178.5 48t-59.5 136q0 103 76 172.5t221 69.5zM721 1464q-28 0 -49 -14q-33 -46 -33 -115q0 -75 53 -75q28 0 49 14q35 49 35 119q0 71 -55 71z" />
    <glyph glyph-name="AEacute" unicode="&#x1fc;" horiz-adv-x="1828" 
d="M1225 1210l-45 -448l297 20l16 -57l-14 -129l-314 20l-47 -473h316l88 256l198 -12q4 -62 4 -92q0 -147 -49 -322l-80 -10l-682 37h-311v121q79 37 154 49l20 209h-381l-119 -242l113 -14v-55l-6 -68h-414v121q59 34 117 45q261 504 578 1063l-136 8v57l9 68h1032
q122 31 186 31l64 -31q4 -40 4 -76q0 -144 -49 -315h-193l-27 227zM793 539l65 651h-41q-158 -291 -340 -651h316zM1210 1858h207q61 -45 80 -156l-354 -238h-148z" />
    <glyph glyph-name="aeacute" unicode="&#x1fd;" horiz-adv-x="1662" 
d="M1229 201q147 0 315 104l15 -123q-82 -89 -207.5 -149t-280.5 -60q-101 0 -170.5 31.5t-103.5 86t-47 129t0 161.5l-25 6q-40 -113 -73 -182.5t-78 -126t-102.5 -81t-135.5 -24.5q-64 0 -112 17t-86.5 57.5t-58.5 114.5t-20 180q0 108 20 212t63 200t105 168.5t153 115.5
t200 43q187 0 313 -114q131 114 349 114q102 0 177 -23.5t116.5 -66t61 -94t19.5 -113.5q0 -73 -26.5 -130.5t-71.5 -93t-105.5 -61.5t-128.5 -35.5t-139 -15t-139 0.5q0 -130 51 -189t152 -59zM813 850q5 8 15 22t12 17q-84 47 -174 47q-43 0 -97 -16q-69 -122 -105 -288
t-36 -308q0 -68 13.5 -93.5t52.5 -25.5q10 0 34 4q57 109 141 318t144 323zM1217 934q-40 0 -76 -19q-43 -56 -72 -162.5t-39 -215.5q74 10 127.5 37.5t82 67t41.5 83t13 94.5q0 65 -18.5 90t-58.5 25zM1069 1599h209q58 -58 74 -157l-355 -285h-129z" />
    <glyph glyph-name="Oslashacute" unicode="&#x1fe;" horiz-adv-x="1466" 
d="M1423 811q1 -111 -22.5 -222.5t-80.5 -224t-141 -198t-216 -139.5t-295 -54q-189 0 -328 74l-168 -219l-94 51l-12 43l161 213q-145 151 -145 422q0 78 11.5 156.5t38.5 161t67 157t101.5 140.5t137.5 113.5t178 75.5t220 28q166 0 290 -56l152 203l94 -53l8 -41
l-133 -182q176 -150 176 -449zM655 1176q-71 -76 -119.5 -277.5t-48.5 -417.5v-16l494 665q-49 87 -162 87q-84 0 -164 -41zM856 186q71 76 119.5 277.5t48.5 417.5q0 61 -2 88l-512 -688q42 -136 182 -136q84 0 164 41zM967 1858h207q60 -45 79 -156l-354 -238h-147z" />
    <glyph glyph-name="oslashacute" unicode="&#x1ff;" horiz-adv-x="1150" 
d="M1085 1161l-118 -176q137 -114 137 -354q0 -62 -9 -124.5t-29.5 -128t-52 -123.5t-80 -110.5t-109 -90t-143.5 -59.5t-179 -22q-123 0 -213 35l-129 -184l-97 49l-12 39l117 174q-117 114 -117 340q0 91 18 178t62 174.5t110.5 153t172.5 106.5t239 41q110 0 187 -26
l137 196l96 -49zM635 932q-62 0 -109 -21q-44 -56 -76 -200t-42 -299l321 475q-23 45 -94 45zM522 119q60 0 109 22q51 59 84.5 229.5t38.5 338.5l-342 -502q21 -88 110 -88zM782 1599h209q58 -58 74 -157l-354 -285h-129z" />
    <glyph glyph-name="Scommaaccent" unicode="&#x218;" horiz-adv-x="1114" 
d="M672 854l84 -51q133 -80 203.5 -177.5t70.5 -236.5q0 -65 -16 -123t-56 -112.5t-101 -94t-158.5 -63t-221.5 -23.5q-120 0 -230 21t-184 55q-12 77 -12 160q0 101 19 205l217 12l57 -276q63 -13 119 -13q88 0 145 31q43 60 43 133q0 70 -35.5 113.5t-121.5 95.5l-80 47
q-269 165 -269 410q0 80 29 155t82.5 135t139 96t190.5 36q123 0 211 -56l4 31q17 3 50 10t50 10t44 6t54 3l64 -54q4 -28 4 -55q0 -147 -49 -315h-201l-29 241q-65 15 -116 15q-77 0 -129 -27q-49 -53 -49 -121q0 -71 42.5 -118t135.5 -105zM479 -88q85 0 146 -27
q28 -38 28 -102q0 -117 -72.5 -196t-232.5 -101l-20 80q68 24 98.5 48t30.5 64v21l-101 6l19 197q46 10 104 10z" />
    <glyph glyph-name="scommaaccent" unicode="&#x219;" horiz-adv-x="892" 
d="M590 633q67 -53 101.5 -82.5t69.5 -71t48.5 -83.5t13.5 -95q0 -158 -120.5 -243t-321.5 -85q-162 0 -258.5 55.5t-116.5 157.5l139 144l269 -207q28 2 59 14q25 39 25 84q-1 45 -29.5 76.5t-117.5 100.5q-23 18 -36 28q-56 45 -89 76t-64.5 71.5t-45.5 84t-14 96.5
q0 155 122.5 240t320.5 85q149 0 240 -48.5t110 -139.5l-129 -143l-258 186q-55 -8 -74 -16q-26 -33 -26 -84q0 -43 32 -76t150 -125zM350 -88q84 0 146 -27q28 -38 28 -102q0 -117 -72.5 -196t-232.5 -101l-20 80q68 24 98.5 48t30.5 64v21l-101 6l19 197q46 10 104 10z
" />
    <glyph glyph-name="uni021A" unicode="&#x21a;" horiz-adv-x="1255" 
d="M1245 1393l64 -31q4 -40 4 -76q0 -144 -49 -315h-193l-27 229l-155 10l-105 -1071l142 -16v-55l-8 -68h-672v121q45 25 176 49l104 1049h-149l-88 -254l-189 10q-4 62 -4 94q0 154 47 309l2 11l80 10l496 -37h338q122 31 186 31zM551 -88q83 0 145 -27q29 -39 29 -102
q0 -117 -72.5 -196t-232.5 -101l-21 80q68 24 98.5 48t30.5 64v21l-100 6l18 197q46 10 105 10z" />
    <glyph glyph-name="uni021B" unicode="&#x21b;" horiz-adv-x="747" 
d="M768 1034v-76l-18 -77h-228q-78 -558 -86 -719q110 0 246 20l6 -114q-70 -41 -177 -68t-192 -27q-219 0 -219 195q0 74 28 279.5t67 414.5l-115 29v115q84 26 151 36q26 134 58 224q182 41 241 43l43 -47l-30 -228h225zM285 -88q83 0 145 -27q29 -39 29 -102
q0 -117 -72.5 -196t-232.5 -101l-21 80q68 24 98.5 48t30.5 64v21l-100 6l18 197q46 10 105 10z" />
    <glyph glyph-name="uni0232" unicode="&#x232;" horiz-adv-x="1292" 
d="M1231 1196q-127 -269 -393 -721l-35 -334l143 -18v-55l-8 -68h-666v121q77 33 172 47l29 285q-135 429 -270 770l-119 16v55l8 68h635v-121q-50 -26 -137 -45q107 -340 164 -547h24q170 304 277 572l-131 18v55l8 68h428v-121q-59 -32 -129 -45zM524 1743h566
q6 -24 6 -57q0 -72 -27 -138h-567q-6 24 -6 56q0 70 28 139z" />
    <glyph glyph-name="uni0233" unicode="&#x233;" horiz-adv-x="1087" 
d="M709 993l206 88q65 -26 103.5 -91t38.5 -163q0 -176 -120 -425t-302 -476q-292 -362 -522 -362q-137 0 -234 100l25 117q175 -37 323 -35q71 49 115 86q-118 650 -207 1034l-121 25v115q214 64 398 67l55 -63q114 -560 137 -869h25q154 231 219 525zM414 1475h565
q6 -24 6 -58q0 -71 -27 -137h-567q-6 24 -6 55q0 69 29 140z" />
    <glyph glyph-name="uni0237" unicode="&#x237;" horiz-adv-x="600" 
d="M539 1010l-125 -965q-32 -254 -121 -367.5t-246 -113.5q-155 0 -280 96l24 117q140 -29 229 -31q34 101 54 264l108 856l-121 25v115q225 64 420 67z" />
    <glyph glyph-name="uni0259" unicode="&#x259;" horiz-adv-x="1048" 
d="M594 1079q207 0 307 -116t100 -322q0 -93 -18.5 -182.5t-63.5 -179t-112 -156.5t-172 -108.5t-236 -41.5q-100 0 -173.5 23.5t-115.5 65.5t-61.5 93t-19.5 113q0 63 19.5 114t54.5 86t82 62.5t101.5 41.5t114.5 24t120 10.5t118 -0.5q0 126 -50.5 185t-154.5 59
q-139 0 -289 -88l-12 121q74 83 192.5 139.5t268.5 56.5zM449 119q34 0 75 18q43 56 72 163t39 216q-74 -10 -127 -37.5t-82 -67t-42 -83.5t-13 -95q0 -63 19 -88.5t59 -25.5z" />
    <glyph glyph-name="uni02BB" unicode="&#x2bb;" horiz-adv-x="565" 
d="M561 1544l25 -86q-79 -31 -135 -86t-56 -121v-30l115 -9l-18 -286q-63 -13 -121 -13q-113 0 -174 39q-33 64 -33 146q0 50 10 100t37.5 108t70 104.5t115 83.5t164.5 50z" />
    <glyph glyph-name="afii57929" unicode="&#x2bc;" horiz-adv-x="567" 
d="M356 1530q113 0 174 -39q33 -64 33 -145q0 -39 -7 -80t-23.5 -89t-47 -91t-72.5 -81t-105.5 -66t-141.5 -40l-25 86q79 31 135 86t56 121v31l-115 10l19 285q58 12 120 12z" />
    <glyph glyph-name="circumflex" unicode="&#x2c6;" horiz-adv-x="800" 
d="M819 1243l-205 -94l-149 225h-21l-182 -200h-127l314 417h202z" />
    <glyph glyph-name="caron" unicode="&#x2c7;" horiz-adv-x="798" 
d="M532 1393h19l178 198h131l-313 -417h-203l-168 346l205 100z" />
    <glyph glyph-name="breve" unicode="&#x2d8;" horiz-adv-x="737" 
d="M178 1532l219 31q0 -37 1.5 -61t8.5 -51t19.5 -42t35.5 -25t56 -10q68 0 107 45t67 140l101 -19q-30 -180 -123 -267t-232 -87q-67 0 -119 20.5t-81.5 55t-47.5 79.5t-18.5 93.5t6.5 97.5z" />
    <glyph glyph-name="dotaccent" unicode="&#x2d9;" horiz-adv-x="475" 
d="M385 1550q70 0 111 -14q20 -45 20 -98q0 -101 -67 -205h-259l-16 278q97 39 211 39z" />
    <glyph glyph-name="ring" unicode="&#x2da;" horiz-adv-x="653" 
d="M459 1638q120 0 178.5 -53t58.5 -145q0 -51 -17 -96t-51.5 -82.5t-93.5 -59.5t-135 -22q-121 0 -179 52t-58 146q0 51 17 96t51.5 82.5t93.5 59.5t135 22zM446 1526q-25 0 -45 -10q-43 -52 -43 -144q0 -80 54 -80q25 0 47 11q43 53 43 145q0 41 -13.5 59.5t-42.5 18.5z
" />
    <glyph glyph-name="ogonek" unicode="&#x2db;" horiz-adv-x="612" 
d="M375 27l86 4q-109 -61 -154 -113t-45 -108q0 -84 90 -84q28 0 94 12l3 -113q-89 -61 -242 -61q-122 0 -178 44t-56 120q0 112 109.5 187.5t292.5 111.5z" />
    <glyph glyph-name="tilde" unicode="&#x2dc;" horiz-adv-x="782" 
d="M754 1524l75 -54q-43 -123 -100 -192.5t-147 -69.5q-65 0 -127 35l-140 80l-96 -115l-74 56q19 54 38.5 95t49 82t70 63t90.5 22q62 0 125 -37l137 -82z" />
    <glyph glyph-name="hungarumlaut" unicode="&#x2dd;" horiz-adv-x="882" 
d="M268 1616h189q55 -43 78 -150l-269 -292h-131zM664 1616h186q54 -42 80 -150l-271 -292h-129z" />
    <glyph glyph-name="gravecomb" unicode="&#x300;" horiz-adv-x="0" 
d="M-49 1174h-129l-271 284q50 113 121 158h209z" />
    <glyph glyph-name="acutecomb" unicode="&#x301;" horiz-adv-x="0" 
d="M-281 1616h209q58 -58 74 -158l-354 -284h-129z" />
    <glyph glyph-name="uni0302" unicode="&#x302;" horiz-adv-x="0" 
d="M25 1243l-207 -94l-150 225h-20l-180 -200h-127l313 417h201z" />
    <glyph glyph-name="tildecomb" unicode="&#x303;" horiz-adv-x="0" 
d="M-66 1524l76 -54q-20 -58 -41.5 -101.5t-51 -81.5t-69 -58.5t-86.5 -20.5q-65 0 -127 35l-139 80l-96 -115l-74 56q15 42 29 75.5t36.5 70t47 60.5t59 40t74.5 16q64 0 127 -37l137 -82z" />
    <glyph glyph-name="uni0304" unicode="&#x304;" horiz-adv-x="0" 
d="M-590 1458h567q7 -28 7 -57q0 -75 -29 -137h-565q-6 24 -6 55q0 75 26 139z" />
    <glyph glyph-name="uni0306" unicode="&#x306;" horiz-adv-x="0" 
d="M-592 1532l217 31q1 -38 3 -61t9 -50.5t19.5 -42.5t35.5 -25t56 -10q69 0 107.5 45t64.5 140l100 -19q-30 -180 -122.5 -267t-229.5 -87q-67 0 -119 20.5t-81.5 55t-47.5 79.5t-18.5 93.5t6.5 97.5z" />
    <glyph glyph-name="uni0307" unicode="&#x307;" horiz-adv-x="0" 
d="M-180 1550q70 0 108 -14q23 -44 23 -98q0 -100 -68 -205h-258l-16 278q97 39 211 39z" />
    <glyph glyph-name="uni0308" unicode="&#x308;" horiz-adv-x="2" 
d="M-592 1534q71 0 100 -14q21 -47 21 -95q0 -50 -14.5 -90.5t-49.5 -93.5h-219l-18 258q93 35 180 35zM-154 1534q68 0 99 -14q20 -42 20 -90q0 -93 -61 -189h-219l-19 258q93 35 180 35z" />
    <glyph glyph-name="uni030A" unicode="&#x30a;" horiz-adv-x="0" 
d="M-313 1638q120 0 178.5 -53t58.5 -145q0 -109 -75 -184.5t-224 -75.5q-119 0 -177 52t-58 146q0 51 17 96t51.5 82.5t93.5 59.5t135 22zM-326 1526q-25 0 -45 -10q-43 -52 -43 -144q0 -80 54 -80q25 0 47 11q45 55 45 145q0 78 -58 78z" />
    <glyph glyph-name="uni030B" unicode="&#x30b;" horiz-adv-x="0" 
d="M-707 1616h189q55 -43 78 -150l-269 -292h-131zM-311 1616h184q54 -42 80 -150l-268 -292h-131z" />
    <glyph glyph-name="uni030C" unicode="&#x30c;" horiz-adv-x="0" 
d="M-266 1393h18l180 198h129l-311 -417h-205l-166 346l205 100z" />
    <glyph glyph-name="uni0312" unicode="&#x312;" horiz-adv-x="2" 
d="M-127 1614l21 -80q-70 -25 -103 -55t-33 -80v-19l101 -6l-17 -198q-56 -9 -106 -9q-91 0 -146 27q-26 32 -26 104q0 123 74 208t235 108z" />
    <glyph glyph-name="uni0326" unicode="&#x326;" horiz-adv-x="0" 
d="M-512 -88q84 0 145 -27q29 -39 29 -102q0 -117 -72.5 -196t-232.5 -101l-21 80q68 24 98.5 48t30.5 64v21l-100 6l19 197q46 10 104 10z" />
    <glyph glyph-name="uni0327" unicode="&#x327;" horiz-adv-x="0" 
d="M-399 12l-17 -125q172 0 172 -131q0 -84 -67.5 -138t-196.5 -54q-154 0 -225 65l26 103q87 -23 134 -23q77 0 77 62q0 29 -20 40.5t-82 20.5l57 180h142z" />
    <glyph glyph-name="uni0328" unicode="&#x328;" horiz-adv-x="0" 
d="M-319 27l86 4q-109 -61 -154 -113t-45 -108q0 -84 90 -84q32 0 94 12l4 -113q-92 -61 -243 -61q-122 0 -178 44t-56 120q0 112 109.5 187.5t292.5 111.5z" />
    <glyph glyph-name="uni0394" unicode="&#x394;" horiz-adv-x="1200" 
d="M1137 47l-21 -49h-1139l-12 49l604 1311l174 31l56 -17zM590 1042l-357 -790h555z" />
    <glyph glyph-name="uni03A9" unicode="&#x3a9;" horiz-adv-x="1492" 
d="M1264 399l182 -12q4 -62 4 -92q0 -133 -43 -295h-631l43 406q56 32 98 84t65 106t37.5 119t18.5 114.5t4 100.5q0 145 -44.5 216t-157.5 71q-88 0 -168 -41q-66 -50 -112 -180t-46 -271q0 -117 35 -201.5t100 -117.5l-41 -406h-618q-13 217 33 387l188 12l20 -159
l240 -29l14 131q-72 21 -133 53t-117 82t-88.5 125.5t-33.5 169.5q-1 83 21.5 165t78 165t138 145.5t213.5 102t294 39.5q285 0 434.5 -120.5t149.5 -346.5q0 -74 -16 -145t-52.5 -141t-90 -128.5t-134 -106.5t-180.5 -75l-13 -115l252 29z" />
    <glyph glyph-name="uni03BC" unicode="&#x3bc;" horiz-adv-x="1220" 
d="M1167 184l9 -114q-73 -43 -160.5 -69t-155.5 -26q-74 0 -113.5 32t-39.5 91q0 13 2 30.5t6 42t8 46.5t11.5 56t12.5 57.5t14.5 66t14.5 66.5l-24 4q-79 -272 -156 -383t-184 -111q-39 0 -63.5 16t-41.5 52l-24 -12q6 -33 25.5 -124.5t30.5 -159t17 -146.5
q-94 -35 -297 -35l-32 49q43 585 168 1253l-121 25v115q245 66 422 69l53 -63q-5 -47 -59 -359t-54 -381q0 -35 14.5 -52t49.5 -17q18 0 28 2q155 244 299 850q111 24 254 24l62 -65l-109 -850q47 0 133 20z" />
    <glyph glyph-name="pi" unicode="&#x3c0;" horiz-adv-x="1247" 
d="M1280 1040v-112l-41 -168h-125l-76 -594q19 2 40 5t46.5 7t40.5 6l6 -114q-158 -95 -307 -95q-170 0 -170 166q0 69 97 619h-248l-97 -760q-161 -25 -266 -25l-61 66l119 504l26 215q-84 0 -201 -60l-51 105q51 77 101 125t132 79t191 31h844z" />
    <glyph glyph-name="Wgrave" unicode="&#x1e80;" horiz-adv-x="2072" 
d="M2134 1362v-121q-47 -25 -115 -43q-179 -554 -444 -1182q-144 -38 -285 -41l-84 58q-74 394 -112 737h-27q-99 -321 -285 -754q-145 -38 -284 -41l-84 58q-68 361 -203 1190l-115 16v55l8 68h617v-121q-44 -27 -127 -47q72 -572 117 -909h24q57 135 142 370.5t149 434.5
l-22 135l-103 14v55l8 68h607v-121q-56 -32 -132 -47q34 -275 119 -909h25q67 174 157.5 447t147.5 489l-133 18v55l8 68h426zM1257 1464h-149l-262 238q56 115 119 156h209z" />
    <glyph glyph-name="wgrave" unicode="&#x1e81;" horiz-adv-x="1693" 
d="M1321 991l207 90q66 -26 101.5 -93t35.5 -154q0 -93 -41.5 -210t-115 -230t-163 -208.5t-196 -154t-203.5 -58.5q-84 0 -134 47.5t-50 141.5q0 73 45 225l-23 4q-44 -117 -99.5 -201.5t-115.5 -130t-117.5 -66t-117.5 -20.5q-106 0 -171 59.5t-65 176.5q0 154 97 657
l-121 25v115q237 64 420 67l55 -63q-10 -65 -40 -240.5t-47.5 -297.5t-17.5 -179q0 -45 16 -67.5t60 -22.5q22 0 49 6q131 165 213 461q19 202 58 379q105 24 264 24l61 -65q0 -138 -57 -301q-29 -301 -29 -410q0 -50 15 -72t59 -22q19 0 43 6q81 88 150 208t108 253z
M1049 1174h-129l-271 284q50 113 121 158h209z" />
    <glyph glyph-name="Wacute" unicode="&#x1e82;" horiz-adv-x="2072" 
d="M2134 1362v-121q-47 -25 -115 -43q-179 -554 -444 -1182q-144 -38 -285 -41l-84 58q-74 394 -112 737h-27q-99 -321 -285 -754q-145 -38 -284 -41l-84 58q-68 361 -203 1190l-115 16v55l8 68h617v-121q-44 -27 -127 -47q72 -572 117 -909h24q57 135 142 370.5t149 434.5
l-22 135l-103 14v55l8 68h607v-121q-56 -32 -132 -47q34 -275 119 -909h25q67 174 157.5 447t147.5 489l-133 18v55l8 68h426zM1325 1858h207q61 -45 80 -156l-355 -238h-147z" />
    <glyph glyph-name="wacute" unicode="&#x1e83;" horiz-adv-x="1693" 
d="M1321 991l207 90q66 -26 101.5 -93t35.5 -154q0 -93 -41.5 -210t-115 -230t-163 -208.5t-196 -154t-203.5 -58.5q-84 0 -134 47.5t-50 141.5q0 73 45 225l-23 4q-44 -117 -99.5 -201.5t-115.5 -130t-117.5 -66t-117.5 -20.5q-106 0 -171 59.5t-65 176.5q0 154 97 657
l-121 25v115q237 64 420 67l55 -63q-10 -65 -40 -240.5t-47.5 -297.5t-17.5 -179q0 -45 16 -67.5t60 -22.5q22 0 49 6q131 165 213 461q19 202 58 379q105 24 264 24l61 -65q0 -138 -57 -301q-29 -301 -29 -410q0 -50 15 -72t59 -22q19 0 43 6q81 88 150 208t108 253z
M1116 1616h209q58 -58 74 -158l-355 -284h-129z" />
    <glyph glyph-name="Wdieresis" unicode="&#x1e84;" horiz-adv-x="2072" 
d="M2134 1362v-121q-47 -25 -115 -43q-179 -554 -444 -1182q-144 -38 -285 -41l-84 58q-74 394 -112 737h-27q-99 -321 -285 -754q-145 -38 -284 -41l-84 58q-68 361 -203 1190l-115 16v55l8 68h617v-121q-44 -27 -127 -47q72 -572 117 -909h24q57 135 142 370.5t149 434.5
l-22 135l-103 14v55l8 68h607v-121q-56 -32 -132 -47q34 -275 119 -909h25q67 174 157.5 447t147.5 489l-133 18v55l8 68h426zM999 1784q61 0 97 -15q20 -36 20 -94q0 -90 -61 -186h-219l-19 260q103 35 182 35zM1499 1784q60 0 96 -15q21 -35 21 -90q0 -96 -62 -190h-221
l-16 260q103 35 182 35z" />
    <glyph glyph-name="wdieresis" unicode="&#x1e85;" horiz-adv-x="1693" 
d="M1321 991l207 90q66 -26 101.5 -93t35.5 -154q0 -93 -41.5 -210t-115 -230t-163 -208.5t-196 -154t-203.5 -58.5q-84 0 -134 47.5t-50 141.5q0 73 45 225l-23 4q-44 -117 -99.5 -201.5t-115.5 -130t-117.5 -66t-117.5 -20.5q-106 0 -171 59.5t-65 176.5q0 154 97 657
l-121 25v115q237 64 420 67l55 -63q-10 -65 -40 -240.5t-47.5 -297.5t-17.5 -179q0 -45 16 -67.5t60 -22.5q22 0 49 6q131 165 213 461q19 202 58 379q105 24 264 24l61 -65q0 -138 -57 -301q-29 -301 -29 -410q0 -50 15 -72t59 -22q19 0 43 6q81 88 150 208t108 253z
M823 1534q72 0 101 -14q20 -45 20 -95t-14.5 -91t-48.5 -93h-219l-19 258q93 35 180 35zM1262 1534q66 0 98 -14q20 -42 20 -90q0 -93 -61 -189h-219l-19 258q93 35 181 35z" />
    <glyph glyph-name="uni1E9E" unicode="&#x1e9e;" horiz-adv-x="1497" 
d="M1268 647q77 -77 115 -143.5t38 -163.5q0 -173 -125 -270t-342 -97q-68 0 -129.5 12t-92.5 24t-79 34q-10 68 -10 133q0 69 23 186l155 11l43 -230q36 -6 60 -6q54 0 102 23q27 46 27 98q0 47 -25.5 83t-97.5 110q-97 97 -136.5 162t-39.5 153q0 141 102 245t301 165v24
q-86 25 -213 25q-64 0 -112.5 -9.5t-93.5 -34.5t-76 -67t-53 -108.5t-31 -157.5l-82 -848h-502v121q61 31 153 47l66 680q29 284 191.5 412.5t459.5 128.5q296 0 506 -103v-164q-138 -34 -206 -94.5t-68 -140.5q0 -28 7 -51t27 -49t33.5 -40.5t50.5 -48.5t54 -51z" />
    <glyph glyph-name="Ygrave" unicode="&#x1ef2;" horiz-adv-x="1292" 
d="M1231 1196q-127 -269 -393 -721l-35 -334l143 -18v-55l-8 -68h-666v121q77 33 172 47l29 285q-135 429 -270 770l-119 16v55l8 68h635v-121q-50 -26 -137 -45q107 -340 164 -547h24q170 304 277 572l-131 18v55l8 68h428v-121q-59 -32 -129 -45zM831 1464h-149l-262 238
q56 115 119 156h209z" />
    <glyph glyph-name="ygrave" unicode="&#x1ef3;" horiz-adv-x="1087" 
d="M709 993l206 88q65 -26 103.5 -91t38.5 -163q0 -176 -120 -425t-302 -476q-292 -362 -522 -362q-137 0 -234 100l25 117q175 -37 323 -35q71 49 115 86q-118 650 -207 1034l-121 25v115q214 64 398 67l55 -63q114 -560 137 -869h25q154 231 219 525zM727 1174h-129
l-270 284q50 113 121 158h208z" />
    <glyph glyph-name="uni2007" unicode="&#x2007;" horiz-adv-x="1216" 
 />
    <glyph glyph-name="uni2008" unicode="&#x2008;" horiz-adv-x="581" 
 />
    <glyph glyph-name="uni2009" unicode="&#x2009;" horiz-adv-x="358" 
 />
    <glyph glyph-name="uni200B" unicode="&#x200b;" horiz-adv-x="0" 
 />
    <glyph glyph-name="endash" unicode="&#x2013;" horiz-adv-x="1024" 
d="M967 635l-15 -115h-872v74l14 115h873v-74z" />
    <glyph glyph-name="emdash" unicode="&#x2014;" horiz-adv-x="2048" 
d="M1944 635l-15 -115h-1802v74l14 115h1803v-74z" />
    <glyph glyph-name="quoteleft" unicode="&#x2018;" horiz-adv-x="565" 
d="M561 1544l25 -86q-79 -31 -135 -86t-56 -121v-30l115 -9l-18 -286q-63 -13 -121 -13q-113 0 -174 39q-33 64 -33 146q0 50 10 100t37.5 108t70 104.5t115 83.5t164.5 50z" />
    <glyph glyph-name="quoteright" unicode="&#x2019;" horiz-adv-x="567" 
d="M356 1530q113 0 174 -39q33 -64 33 -145q0 -39 -7 -80t-23.5 -89t-47 -91t-72.5 -81t-105.5 -66t-141.5 -40l-25 86q79 31 135 86t56 121v31l-115 10l19 285q58 12 120 12z" />
    <glyph glyph-name="quotesinglbase" unicode="&#x201a;" horiz-adv-x="567" 
d="M217 305q110 0 174 -41q33 -58 33 -145q0 -39 -7 -80t-23.5 -89t-47 -91t-72.5 -81t-105.5 -66t-141.5 -40l-25 86q79 31 135 86t56 121v33l-115 8l18 287q58 12 121 12z" />
    <glyph glyph-name="quotedblleft" unicode="&#x201c;" horiz-adv-x="1021" 
d="M1016 1544l24 -86q-78 -31 -134 -86t-56 -121v-30l115 -9l-19 -286q-63 -13 -121 -13q-113 0 -174 39q-33 64 -33 146q0 49 10 99.5t38 108.5t70.5 104.5t115 83.5t164.5 50zM559 1544l25 -86q-79 -31 -135 -86t-56 -121v-30l115 -9l-19 -286q-63 -13 -120 -13
q-113 0 -174 39q-33 64 -33 146q0 50 10 100t37.5 108t70 104.5t115 83.5t164.5 50z" />
    <glyph glyph-name="quotedblright" unicode="&#x201d;" horiz-adv-x="1024" 
d="M813 1530q113 0 174 -39q33 -64 33 -145q0 -39 -7 -80t-23.5 -89t-47 -91t-72.5 -81t-105.5 -66t-141.5 -40l-25 86q78 31 134 86t56 121v31l-114 10l18 285q59 12 121 12zM356 1530q113 0 174 -39q33 -64 33 -145q0 -39 -7 -80t-23.5 -89t-47 -91t-72.5 -81t-105.5 -66
t-141.5 -40l-25 86q79 31 135 86t56 121v31l-115 10l19 285q58 12 120 12z" />
    <glyph glyph-name="quotedblbase" unicode="&#x201e;" horiz-adv-x="1024" 
d="M674 305q110 0 174 -41q33 -58 33 -145q0 -48 -10 -97.5t-37.5 -108t-70 -105.5t-115 -84.5t-165.5 -51.5l-24 86q78 31 134 86t56 121v33l-114 8l18 287q59 12 121 12zM217 305q110 0 174 -41q33 -58 33 -145q0 -39 -7 -80t-23.5 -89t-47 -91t-72.5 -81t-105.5 -66
t-141.5 -40l-25 86q79 31 135 86t56 121v33l-115 8l18 287q58 12 121 12z" />
    <glyph glyph-name="dagger" unicode="&#x2020;" horiz-adv-x="989" 
d="M639 1516l80 -13q4 -24 4 -41q0 -110 -102 -297h-105q-47 150 -47 226q0 61 20 125h150zM223 1206q118 0 264 -69l-10 -101q-169 -67 -272 -67q-55 0 -94 8v74l20 147q54 8 92 8zM915 1206q50 0 95 -10v-74l-21 -147q-41 -6 -90 -6q-125 0 -266 67l12 101q156 69 270 69z
M502 1008h104q47 -131 47 -224q0 -26 -2 -53.5t-7.5 -60t-9 -55t-13.5 -61t-14 -55.5t-17 -61t-16 -54t-18.5 -58.5t-16.5 -51.5h-109q-33 218 -33 340q0 99 20.5 190t84.5 204z" />
    <glyph glyph-name="daggerdbl" unicode="&#x2021;" horiz-adv-x="1036" 
d="M657 1516l80 -13q4 -24 4 -41q0 -110 -102 -297h-104q-1 4 -7.5 23.5t-9.5 29.5t-8.5 30t-8.5 35t-7 34t-5.5 37.5t-1.5 36.5q0 57 21 125h149zM242 1206q118 0 264 -69l-10 -101q-169 -67 -273 -67q-55 0 -94 8v74l21 147q54 8 92 8zM934 1206q49 0 94 -10v-74l-20 -147
q-41 -6 -90 -6q-126 0 -267 67l13 101q156 69 270 69zM518 1008h105q49 -118 49 -207q0 -68 -21.5 -135t-79.5 -158h-104q-47 110 -47 203q0 140 98 297zM176 547q120 0 264 -68l-10 -100q-163 -70 -272 -70q-47 0 -95 10v74l21 148q41 6 92 6zM868 547q59 0 95 -8v-74
l-21 -148q-54 -8 -90 -8q-118 0 -266 70l12 100q166 68 270 68zM453 350h104l7 -23q8 -23 10 -30t8 -29t8.5 -35.5t6.5 -33.5t5.5 -38t1.5 -36q0 -61 -20 -125h-150l-80 12q-4 24 -4 41q0 117 103 297z" />
    <glyph glyph-name="bullet" unicode="&#x2022;" horiz-adv-x="903" 
d="M461 950q163 0 253.5 -89.5t90.5 -246.5q0 -158 -90.5 -248t-253.5 -90q-162 0 -251 90t-89 248q0 157 89.5 246.5t250.5 89.5z" />
    <glyph glyph-name="ellipsis" unicode="&#x2026;" horiz-adv-x="1708" 
d="M1417 371q91 0 137 -17q21 -47 21 -112q0 -120 -78 -242h-276l-17 332q97 39 213 39zM291 371q91 0 137 -17q21 -47 21 -112q0 -120 -78 -242h-277l-16 332q97 39 213 39zM854 371q91 0 137 -17q21 -47 21 -112q0 -120 -78 -242h-277l-16 332q97 39 213 39z" />
    <glyph glyph-name="perthousand" unicode="&#x2030;" horiz-adv-x="2516" 
d="M2150 729q150 0 224.5 -82t74.5 -229q0 -59 -11 -117t-39 -118.5t-70.5 -106t-112 -74.5t-156.5 -29q-150 0 -225.5 81.5t-75.5 232.5q0 60 11.5 118.5t40.5 118t72 104.5t112 73t155 28zM2142 623q-30 0 -67 -15q-36 -48 -58 -168t-22 -223q0 -74 18 -105.5t58 -31.5
q31 0 63 14q36 48 58 168t22 223q0 75 -17 106.5t-55 31.5zM1378 1229l13 -64q-58 -66 -113.5 -133.5t-112.5 -142.5t-100.5 -132.5t-102.5 -142.5t-91.5 -131.5t-94 -139.5t-84 -127t-87 -134t-79.5 -123l-131 45l-26 70q26 35 146 195t180 238.5t158.5 206t171.5 216
t130 149.5l-18 19q-68 -64 -134 -90.5t-145 -26.5q-56 0 -115 12q5 -62 5 -73q0 -57 -10 -111.5t-36.5 -110.5t-66 -98.5t-103.5 -69t-145 -26.5q-144 0 -218.5 82t-76.5 231q0 98 31 187t99.5 159.5t164.5 91.5l68 -59q-59 -54 -93 -175.5t-34 -260.5q0 -83 17 -116.5
t58 -33.5q29 0 66 15q34 46 57 166t23 237q0 23 -4 59q-48 48 -70 82q19 30 48.5 56.5t58.5 38.5h55q39 -56 61 -107q83 -45 195 -45q90 0 175.5 34.5t201.5 123.5l4 2zM1362 729q150 0 224.5 -82t74.5 -229q0 -59 -11 -117t-39 -118.5t-70.5 -106t-112 -74.5t-156.5 -29
q-150 0 -225.5 81.5t-75.5 232.5q0 60 11.5 118.5t40.5 118t72 104.5t112 73t155 28zM1346 94q36 47 57.5 167t21.5 224q0 75 -16.5 106.5t-54.5 31.5q-31 0 -68 -15q-36 -48 -58 -168t-22 -223q0 -74 18 -105.5t58 -31.5q32 0 64 14z" />
    <glyph glyph-name="minute" unicode="&#x2032;" horiz-adv-x="516" 
d="M559 1464l-240 -534h-208l112 561q95 21 153.5 28t143.5 7z" />
    <glyph glyph-name="second" unicode="&#x2033;" horiz-adv-x="987" 
d="M559 1464l-240 -534h-208l112 561q95 21 153.5 28t143.5 7zM1051 1464l-240 -534h-209l113 561q95 21 153.5 28t143.5 7z" />
    <glyph glyph-name="uni2034" unicode="&#x2034;" horiz-adv-x="1497" 
d="M559 1464l-240 -534h-208l112 561q95 21 153.5 28t143.5 7zM1051 1464l-240 -534h-209l113 561q95 21 153.5 28t143.5 7zM1540 1464l-240 -534h-208l112 561q95 21 153.5 28t143.5 7z" />
    <glyph glyph-name="guilsinglleft" unicode="&#x2039;" horiz-adv-x="661" 
d="M582 881l-172 -320l102 -336l-141 -88l-281 365v102l369 367z" />
    <glyph glyph-name="guilsinglright" unicode="&#x203a;" horiz-adv-x="661" 
d="M580 606v-102l-369 -367l-123 90l174 320l-102 336l139 88z" />
    <glyph glyph-name="fraction" unicode="&#x2044;" horiz-adv-x="512" 
d="M793 1366l18 -43q-333 -461 -481 -672q-77 -111 -233 -360.5t-216 -339.5l-123 41l-18 47q278 380 483 674q78 111 232 358.5t215 337.5z" />
    <glyph glyph-name="uni2070" unicode="&#x2070;" horiz-adv-x="786" 
d="M508 1501q152 0 226.5 -79t74.5 -224q0 -59 -11.5 -115.5t-40 -113t-71 -98.5t-111.5 -68.5t-155 -26.5q-150 0 -224.5 78t-74.5 227q0 60 11.5 116.5t40 112.5t71.5 97.5t111 67.5t153 26zM496 1405q-27 0 -43 -8q-32 -42 -55 -177t-23 -247q0 -55 11.5 -79t45.5 -24
q18 0 45 9q31 38 52.5 172.5t21.5 257.5q0 49 -11 72.5t-44 23.5z" />
    <glyph glyph-name="uni2074" unicode="&#x2074;" horiz-adv-x="665" 
d="M700 1040v-53l-8 -78h-78l-8 -112h-231l8 112h-277l-32 90q79 175 149 383l-20 95l178 39q65 -32 65 -111q0 -14 -2.5 -29t-5.5 -27.5t-11 -29.5t-13.5 -28.5t-19 -33t-22 -34t-28 -39.5t-30.5 -42t-36.5 -49t-39.5 -53l6 -14q82 14 125 14h28q2 17 23 162q86 53 174 64
l61 -23q-22 -157 -28 -203h73z" />
    <glyph glyph-name="uni2075" unicode="&#x2075;" horiz-adv-x="616" 
d="M348 1208q138 0 210.5 -47t72.5 -155q0 -105 -71.5 -167.5t-209.5 -62.5q-157 0 -256 62l8 82q64 -9 113 -9q91 0 124.5 20.5t33.5 59.5q0 47 -46 65.5t-192 30.5l2 5l51 389l103 18q74 -29 158 -29q79 0 159 31l25 -80q-67 -133 -207 -133q-88 0 -166 37l-22 -121
q66 4 110 4z" />
    <glyph glyph-name="uni2076" unicode="&#x2076;" horiz-adv-x="747" 
d="M578 1501q80 0 151 -22l-2 -78q-90 -5 -154.5 -27.5t-102 -56.5t-59 -87.5t-28.5 -108t-6 -130.5q2 -67 12 -94t43 -27q22 0 45 13q41 44 41 145q0 42 -11.5 58t-33.5 16q-7 0 -37 -6l-12 86q58 75 166 75q88 0 134 -53t46 -131q0 -37 -9 -74t-34 -78t-62.5 -72.5
t-101.5 -52t-145 -20.5q-157 0 -227 75.5t-70 215.5q0 68 14.5 129.5t48.5 118t85.5 97t130.5 65t178 24.5z" />
    <glyph glyph-name="uni2077" unicode="&#x2077;" horiz-adv-x="630" 
d="M600 1436l45 57q46 -6 88 -35l-2 -26l-41 -64q-41 -63 -53 -81.5t-48 -77.5t-54.5 -92.5t-43 -81.5t-40.5 -87v-145l-156 -37q-62 12 -88.5 51t-26.5 86q0 72 70 154t239 217h-235l-23 -86h-106q-8 36 -8 78q0 56 10.5 127t24.5 108q102 0 238.5 -18t209.5 -47z" />
    <glyph glyph-name="uni2078" unicode="&#x2078;" horiz-adv-x="729" 
d="M590 1167v-24q76 -29 109.5 -61t33.5 -91q0 -30 -7.5 -57t-30 -57t-58 -51.5t-97 -35.5t-141.5 -14q-144 0 -221.5 44.5t-77.5 129.5q0 64 41.5 110.5t122.5 57.5v23q-106 58 -106 164q0 88 76 142t245 54q277 0 277 -162q0 -73 -50.5 -118t-115.5 -54zM436 1395
q-24 -21 -24 -64q0 -30 12.5 -50t44.5 -40l33 -20q39 53 39 116q0 70 -54 70q-33 0 -51 -12zM451 883q28 25 28 75q0 31 -19.5 54.5t-64.5 46.5l-41 20q-39 -56 -39 -125q0 -42 16.5 -63t53.5 -21t66 13z" />
    <glyph glyph-name="uni2079" unicode="&#x2079;" horiz-adv-x="745" 
d="M471 1501q158 0 227.5 -75.5t69.5 -215.5q0 -68 -14.5 -129.5t-48.5 -118t-85.5 -97t-130 -65t-176.5 -24.5q-80 0 -151 23v80q110 5 181 32t108 80t50 118t11 163q-2 66 -12.5 93.5t-44.5 27.5q-14 0 -43 -11q-39 -42 -39 -145q0 -42 10.5 -58t32.5 -16q21 0 39 6
l10 -73q-58 -76 -166 -76q-89 0 -134.5 53.5t-45.5 132.5q0 36 9 73t34 78t62.5 72t101.5 51.5t145 20.5z" />
    <glyph glyph-name="uni2080" unicode="&#x2080;" horiz-adv-x="786" 
d="M399 555q152 0 226.5 -79t74.5 -224q0 -59 -11.5 -115.5t-40 -113t-71 -98.5t-111.5 -68.5t-155 -26.5q-150 0 -224.5 78t-74.5 227q0 60 11.5 116.5t40 112.5t71.5 97.5t111 67.5t153 26zM387 459q-27 0 -43 -8q-32 -42 -55 -177t-23 -247q0 -54 12 -78.5t46 -24.5
q21 0 45 8q31 38 52 172t21 258q0 49 -11 73t-44 24z" />
    <glyph glyph-name="uni2081" unicode="&#x2081;" horiz-adv-x="487" 
d="M403 -70v-34l-4 -39h-419v71q46 27 102 33l37 393q-74 -4 -96 -4v41l8 68q54 3 122 31.5t105 72.5l113 -20l-58 -598z" />
    <glyph glyph-name="uni2082" unicode="&#x2082;" horiz-adv-x="655" 
d="M444 92h113q8 -54 8 -96q0 -112 -41 -166h-90q-172 5 -328 57l-79 -57q-37 10 -72 45v35q194 153 241 196q99 92 112 166q3 15 3 31q0 88 -78 88q-36 0 -56.5 -20t-20.5 -54q0 -29 10 -67l-107 -27q-57 60 -57 131q0 87 77.5 144t213.5 57q126 0 202 -52t76 -145
q0 -84 -74.5 -167t-244.5 -181h172z" />
    <glyph glyph-name="uni2083" unicode="&#x2083;" horiz-adv-x="649" 
d="M389 209v-23q156 -12 156 -141q0 -97 -82 -156t-236 -59q-136 0 -247 61l8 82q60 -8 135 -8q90 0 125 21t35 67q0 50 -43 74q-41 -17 -105 -29l-26 21q-7 25 -7 51q0 17 4 45q32 12 70 12q15 0 47 -4q82 42 82 109t-76 67q-75 0 -75 -84v-14l-111 -2q-31 60 -31 90
q0 66 71.5 115t211.5 49q117 0 190.5 -42.5t73.5 -133.5q0 -34 -11.5 -61t-27 -43t-41.5 -30t-44 -20t-46 -14z" />
    <glyph glyph-name="uni2084" unicode="&#x2084;" horiz-adv-x="665" 
d="M594 100v-53l-8 -78h-78l-8 -112h-232l8 112h-276l-33 90q83 184 150 383l-21 95l178 38q66 -32 66 -110q0 -16 -2 -31t-8.5 -32.5t-12 -31t-19 -35.5t-22 -35.5t-29.5 -42.5t-32.5 -45t-39.5 -53.5t-44 -58.5l6 -14q82 14 125 14h29q5 48 22 162q86 53 174 64l62 -23
q-3 -24 -9.5 -65.5t-11 -75t-8.5 -62.5h74z" />
    <glyph glyph-name="uni2085" unicode="&#x2085;" horiz-adv-x="616" 
d="M240 262q137 0 209.5 -47.5t72.5 -155.5q0 -105 -71 -167t-209 -62q-158 0 -256 61l8 82q57 -8 112 -8q91 0 124.5 20.5t33.5 59.5q0 47 -45.5 65.5t-191.5 30.5l2 4l51 390l102 18q74 -29 158 -29q80 0 160 31l24 -80q-66 -133 -207 -133q-87 0 -165 37l-23 -121
q66 4 111 4z" />
    <glyph glyph-name="uni2086" unicode="&#x2086;" horiz-adv-x="747" 
d="M469 555q77 0 152 -23l-3 -77q-90 -5 -154.5 -27.5t-102 -56.5t-59 -87.5t-28.5 -108t-6 -130.5q2 -66 12.5 -93.5t43.5 -27.5q22 0 45 13q41 44 41 145q0 42 -11.5 58t-33.5 16q-7 0 -37 -6l-13 86q58 75 166 75q89 0 135 -53t46 -131q0 -37 -9 -74t-34 -78t-63 -72.5
t-102 -52t-145 -20.5q-157 0 -227 75.5t-70 215.5q0 68 14.5 129.5t48.5 118t85.5 97t130.5 65t178 24.5z" />
    <glyph glyph-name="uni2087" unicode="&#x2087;" horiz-adv-x="630" 
d="M492 489l45 58q46 -6 88 -35l-2 -27l-49 -76q-50 -76 -67 -104t-56 -92t-64.5 -114t-44.5 -97v-145l-156 -37q-61 12 -87.5 51t-26.5 86q0 72 70 154t239 217h-236l-22 -86h-107q-8 36 -8 77q0 56 10.5 127.5t24.5 108.5q102 0 239 -18.5t210 -47.5z" />
    <glyph glyph-name="uni2088" unicode="&#x2088;" horiz-adv-x="729" 
d="M481 221v-24q76 -29 110 -61t34 -91q0 -30 -7.5 -57t-30 -57t-58 -51.5t-97 -35.5t-141.5 -14q-144 0 -221.5 44.5t-77.5 129.5q0 64 41.5 110.5t122.5 57.5v23q-107 58 -107 163q0 88 76.5 142.5t245.5 54.5q276 0 276 -162q0 -73 -50.5 -118t-115.5 -54zM328 449
q-25 -22 -25 -64q0 -30 12.5 -50t44.5 -40l33 -21q39 53 39 117q0 36 -12 53t-41 17q-33 0 -51 -12zM342 -63q29 26 29 75q0 31 -19.5 54.5t-64.5 46.5l-41 20q-39 -56 -39 -125q0 -43 16 -63.5t53 -20.5t66 13z" />
    <glyph glyph-name="uni2089" unicode="&#x2089;" horiz-adv-x="745" 
d="M362 555q158 0 227.5 -75.5t69.5 -215.5q0 -86 -24 -160.5t-75 -137.5t-142 -99.5t-213 -36.5q-81 0 -152 23v79q89 4 152 23.5t102 51t61 81t29 105t6 133.5q-2 66 -12.5 93t-44.5 27q-16 0 -43 -10q-39 -42 -39 -145q0 -42 10.5 -58t32.5 -16q21 0 39 6l10 -73
q-58 -76 -166 -76q-89 0 -134.5 53.5t-45.5 132.5q0 36 9 73t34 78t62.5 72t101.5 51.5t145 20.5z" />
    <glyph glyph-name="Euro" unicode="&#x20ac;" horiz-adv-x="1185" 
d="M842 1106q-80 0 -148 -35q-70 -73 -114 -246h241v-43l-12 -94h-256q-9 -74 -12 -147h252v-43l-13 -95h-233q17 -108 72 -155t165 -47q143 0 299 78l15 -121q-75 -79 -187.5 -131t-240.5 -52q-216 0 -340 113t-148 315h-129v43l10 95h113q2 58 17 147h-111v43l10 94h135
q30 91 75 167.5t107.5 139t148 97.5t185.5 35q98 0 183 -37l2 18q97 23 182 23l66 -54q4 -28 4 -55q0 -133 -50 -315h-186l-29 256q-40 6 -73 6z" />
    <glyph glyph-name="uni20B9" unicode="&#x20b9;" horiz-adv-x="948" 
d="M977 1233v-43l-12 -94h-269l-6 -25q104 -33 133 -123h121v-43l-12 -94h-98q-22 -279 -359 -317l-6 -41q33 -21 63.5 -47t60.5 -58t49.5 -55t50.5 -61t44 -54l92 2l2 -129q-116 -76 -272 -76q-85 0 -145.5 25t-110.5 78q-55 52 -109 148t-126 251l18 111h262
q87 87 111 223h-379v43l10 94h375q-11 90 -78 148h-274v43l10 94h854z" />
    <glyph glyph-name="uni20BA" unicode="&#x20ba;" horiz-adv-x="1110" 
d="M807 522l184 25q74 -105 74 -236q0 -178 -129 -285.5t-373 -107.5q-116 0 -234 23.5t-202 58.5l47 444l-113 -41l-18 33l12 121l135 47l17 154l-113 -41l-16 33l12 120l133 48l33 301q136 35 311 38l37 -47l-18 -166l284 101l17 -33l-13 -117l-305 -108l-16 -154l281 98
l18 -30l-12 -119l-303 -109l-54 -503l37 -2q303 0 303 301q0 68 -16 153z" />
    <glyph glyph-name="uni20BD" unicode="&#x20bd;" horiz-adv-x="1204" 
d="M567 565l-16 -149h412v-43l-11 -94h-415l-17 -138l154 -14v-53l-8 -74h-637v119q55 27 135 41l12 119h-149v43l10 94h156l16 149h-150v41l11 94h153l41 387l-131 25v59l8 64q208 18 564 18q262 0 375.5 -68.5t113.5 -236.5q0 -56 -11 -105.5t-43.5 -102t-84 -90
t-139 -61.5t-201.5 -24h-148zM584 700h59q75 0 135 31q62 108 62 223q0 77 -36 112.5t-114 35.5h-61z" />
    <glyph glyph-name="afii61289" unicode="&#x2113;" horiz-adv-x="817" 
d="M414 168q141 -3 299 47l6 -115q-167 -125 -369 -125q-134 0 -197 63.5t-63 168.5v26q-42 -13 -98 -20l-6 135q59 13 116 33q23 219 82 625q17 124 47.5 217.5t81.5 167.5t129 112.5t181 38.5q127 0 181 -59.5t54 -188.5q0 -89 -22.5 -204t-69 -249t-135 -268t-203.5 -227
q-4 -41 -14 -178zM588 1391q-13 -28 -21 -54.5t-23.5 -109t-35.5 -223.5q-34 -230 -59 -461q120 151 184.5 373t64.5 395q0 50 -10.5 73t-42.5 23q-28 0 -57 -16z" />
    <glyph glyph-name="afii61352" unicode="&#x2116;" horiz-adv-x="2144" 
d="M1497 1257l-242 -79q-30 -81 -53.5 -217t-39 -294.5t-25.5 -298t-19 -281.5q-3 -49 -4 -71q-156 -38 -301 -41l-57 17q-71 193 -132 349.5t-109 276t-69 173.5h-26q10 -283 0 -410q-2 -91 -14.5 -159.5t-42.5 -127.5t-86.5 -90t-137.5 -31q-122 0 -184 74l27 148h198
q47 91 77.5 323.5t35.5 489.5l-133 219l55 94q157 43 291 43q127 -209 257.5 -498t207.5 -522h24q0 56 -1 166t-1 164q0 86 2 148t10.5 146.5t23.5 144.5t43.5 123.5t67.5 103t99 65t135 25.5q62 0 105 -21zM1784 1217q334 0 334 -318q0 -61 -12 -116.5t-41.5 -111.5
t-75.5 -96.5t-119.5 -66t-167.5 -25.5q-336 0 -336 320q0 62 12.5 119t43 111.5t77 94.5t120 64.5t165.5 24.5zM1778 623q33 49 51 145t18 188q0 71 -15.5 104.5t-53.5 33.5q-31 0 -70 -17q-33 -43 -51.5 -137t-18.5 -188q0 -74 16 -110t56 -36q29 0 68 17zM1686 317
q59 0 118 -16q19 -43 19 -104q0 -91 -70 -197h-250l-16 279q94 38 199 38z" />
    <glyph glyph-name="uni2117" unicode="&#x2117;" horiz-adv-x="1605" 
d="M862 1389q323 0 507.5 -176t184.5 -486q0 -163 -54 -301.5t-152.5 -239t-245 -157t-324.5 -56.5q-324 0 -505 177.5t-183 486.5q0 219 91 388.5t267.5 266.5t413.5 97zM786 119q266 0 417 166.5t151 439.5q0 252 -132 385t-368 133q-177 0 -305.5 -77.5t-193 -213
t-64.5 -313.5q0 -252 129.5 -386t365.5 -134zM877 1081q344 0 344 -245q0 -120 -72 -201.5t-203 -81.5q-59 0 -100 10v86q51 3 82 15q47 67 47 200q0 64 -17.5 90.5t-74.5 26.5h-43l-64 -602l107 -12v-35l-4 -47h-420v75q36 22 96 31l59 576l-94 14v37l4 43q170 20 353 20z
" />
    <glyph glyph-name="trademark" unicode="&#x2122;" horiz-adv-x="1878" 
d="M590 1262l-64 -578l80 -12v-37l-4 -51h-416v88q25 11 97 26l65 570h-88l-51 -164l-119 6q-2 20 -2 64q0 103 33 206l55 9l301 -25h209q82 20 115 20l41 -20q2 -16 2 -51q0 -89 -31 -207h-119l-16 149zM1929 1364v-82q-40 -18 -88 -27q-8 -191 -39 -577l68 -8l-2 -39
l-4 -47h-385v84q37 21 82 28q8 69 30.5 259.5t32.5 287.5h-25q-12 -31 -215 -612q-102 -22 -167 -27l-52 31q-17 125 -39 273.5t-31 214t-14 120.5h-24q-10 -95 -32.5 -289t-31.5 -276l82 -8v-37l-4 -49h-289v84q36 17 97 30q51 377 86 570l-84 12v35l6 49q171 10 395 10
q49 -216 70 -518h24q101 339 172 508h381z" />
    <glyph glyph-name="Omega" unicode="&#x2126;" horiz-adv-x="1492" 
d="M1264 399l182 -12q4 -62 4 -92q0 -133 -43 -295h-631l43 406q56 32 98 84t65 106t37.5 119t18.5 114.5t4 100.5q0 145 -44.5 216t-157.5 71q-88 0 -168 -41q-66 -50 -112 -180t-46 -271q0 -117 35 -201.5t100 -117.5l-41 -406h-618q-13 217 33 387l188 12l20 -159
l240 -29l14 131q-72 21 -133 53t-117 82t-88.5 125.5t-33.5 169.5q-1 83 21.5 165t78 165t138 145.5t213.5 102t294 39.5q285 0 434.5 -120.5t149.5 -346.5q0 -74 -16 -145t-52.5 -141t-90 -128.5t-134 -106.5t-180.5 -75l-13 -115l252 29z" />
    <glyph glyph-name="estimated" unicode="&#x212e;" horiz-adv-x="1292" 
d="M279 504v-271q64 -93 169 -140.5t230 -47.5q139 0 250.5 55t191.5 138l33 -50q-85 -102 -208 -158.5t-271 -56.5q-127 0 -240.5 43.5t-194 118t-127 177t-46.5 216.5q0 113 46 215.5t124.5 176.5t186 117.5t226.5 43.5q158 0 292 -73.5t212 -200.5t78 -277v-26h-952z
M649 1012q-108 0 -206 -48.5t-164 -138.5v-256h739v256q-68 92 -164.5 139.5t-204.5 47.5z" />
    <glyph glyph-name="uni2150" unicode="&#x2150;" horiz-adv-x="1779" 
d="M1343 1366l19 -43q-333 -461 -481 -672q-77 -111 -233 -360.5t-216 -339.5l-123 41l-18 47q278 380 483 674q78 111 232 358.5t215 337.5zM545 614v-36l-6 -43h-490v77q61 30 139 37l58 510q-63 -8 -133 -8v45l8 70q64 3 143.5 36t122.5 87l117 -21l-82 -737zM1796 805
l8 -31q-272 -325 -362 -581l4 -193l-160 -43q-121 47 -121 156q0 92 93 205.5t311 304.5h-314l-26 -107h-113q-10 42 -10 96q0 62 12 130t29 108q118 0 272 -20t238 -50l49 62q45 -6 90 -37z" />
    <glyph glyph-name="uni2151" unicode="&#x2151;" horiz-adv-x="1796" 
d="M1343 1366l19 -43q-333 -461 -481 -672q-77 -111 -233 -360.5t-216 -339.5l-123 41l-18 47q278 380 483 674q78 111 232 358.5t215 337.5zM545 614v-36l-6 -43h-490v77q61 30 139 37l58 510q-63 -8 -133 -8v45l8 70q64 3 143.5 36t122.5 87l117 -21l-82 -737zM1421 850
q170 0 244 -87.5t74 -254.5q0 -81 -15.5 -155t-54 -144.5t-96 -122t-148 -82.5t-204.5 -31q-83 0 -162 23l-2 86q101 0 176 23t122 63.5t75.5 103.5t39.5 134t11 165q0 43 -3 71.5t-11 54.5t-25.5 38.5t-44.5 12.5t-60 -13q-26 -29 -41.5 -83.5t-15.5 -112.5t17 -79.5
t51 -21.5q8 0 57 11l12 -89q-69 -86 -188 -86q-101 0 -154 61.5t-53 162.5q0 47 12 93.5t41 94t73 83.5t114.5 58.5t158.5 22.5z" />
    <glyph glyph-name="uni2152" unicode="&#x2152;" horiz-adv-x="2461" 
d="M1343 1366l19 -43q-333 -461 -481 -672q-77 -111 -233 -360.5t-216 -339.5l-123 41l-18 47q278 380 483 674q78 111 232 358.5t215 337.5zM545 614v-36l-6 -43h-490v77q61 30 139 37l58 510q-63 -8 -133 -8v45l8 70q64 3 143.5 36t122.5 87l117 -21l-82 -737zM2079 850
q162 0 242.5 -94.5t80.5 -263.5q0 -70 -13 -138.5t-44.5 -138.5t-79 -122.5t-123.5 -86t-170 -33.5q-161 0 -241 95t-80 266q0 71 13 139.5t44.5 138t78.5 121.5t122.5 84.5t169.5 32.5zM2066 748q-33 0 -59 -13q-43 -55 -71.5 -217.5t-28.5 -296.5q0 -78 18 -111.5
t64 -33.5q27 0 59 12q43 52 70.5 215t27.5 305q0 74 -16.5 107t-63.5 33zM1548 80v-37l-6 -43h-489v78q61 30 139 37l57 510q-71 -9 -133 -9v46l8 69q64 3 144 36t123 87l116 -20l-82 -738z" />
    <glyph glyph-name="onethird" unicode="&#x2153;" horiz-adv-x="1757" 
d="M1343 1366l19 -43q-333 -461 -481 -672q-77 -111 -233 -360.5t-216 -339.5l-123 41l-18 47q278 380 483 674q78 111 232 358.5t215 337.5zM545 614v-36l-6 -43h-490v77q61 30 139 37l58 510q-63 -8 -133 -8v45l8 70q64 3 143.5 36t122.5 87l117 -21l-82 -737zM1487 434
v-22q98 -18 142 -58t44 -121q0 -116 -88.5 -188t-261.5 -72q-157 0 -283 66l11 84q65 -8 131 -8q129 0 179 32t50 97q0 36 -15 58.5t-55 39.5q-65 -25 -114 -33l-29 23q-8 21 -8 59q0 27 6 51q44 15 90 15q17 0 45 -4q109 66 109 153q0 84 -99 84q-114 0 -114 -117
q0 -5 1 -12t1 -8l-111 -2q-33 58 -33 100q0 80 81 139.5t225 59.5q138 0 221.5 -57t83.5 -158q0 -47 -18 -83t-52.5 -58.5t-65 -35.5t-73.5 -24z" />
    <glyph glyph-name="twothirds" unicode="&#x2154;" horiz-adv-x="1927" 
d="M1513 1366l19 -43q-333 -461 -481 -672q-77 -111 -233 -360.5t-216 -339.5l-123 41l-18 47q278 380 483 674q78 111 232 358.5t215 337.5zM586 799l112 -2q11 -57 11 -99q0 -57 -12.5 -108.5t-30.5 -77.5h-86q-190 0 -390 63l-86 -61q-36 11 -75 45v37q94 74 145.5 115.5
t115 100t94.5 100t53 91.5t22 99q0 117 -103 117q-48 0 -77 -27.5t-29 -77.5q0 -31 14 -78l-106 -28q-64 71 -64 145q0 102 86 169t234 67q138 0 222.5 -63t84.5 -173q0 -108 -92 -212.5t-291 -231.5h225zM1657 434v-22q98 -18 142 -58t44 -121q0 -116 -88.5 -188
t-261.5 -72q-157 0 -283 66l11 84q65 -8 131 -8q129 0 179 32t50 97q0 36 -15 58.5t-55 39.5q-65 -25 -114 -33l-29 23q-8 21 -8 59q0 27 6 51q44 15 90 15q17 0 45 -4q109 66 109 153q0 84 -99 84q-114 0 -114 -117q0 -5 1 -12t1 -8l-111 -2q-33 58 -33 100q0 80 81 139.5
t225 59.5q138 0 221.5 -57t83.5 -158q0 -47 -18 -83t-52.5 -58.5t-65 -35.5t-73.5 -24z" />
    <glyph glyph-name="uni2155" unicode="&#x2155;" horiz-adv-x="1665" 
d="M1343 1366l19 -43q-333 -461 -481 -672q-77 -111 -233 -360.5t-216 -339.5l-123 41l-18 47q278 380 483 674q78 111 232 358.5t215 337.5zM545 614v-36l-6 -43h-490v77q61 30 139 37l58 510q-63 -8 -133 -8v45l8 70q64 3 143.5 36t122.5 87l117 -21l-82 -737zM1253 504
q168 0 255 -53.5t87 -176.5q0 -127 -88 -214t-250 -87q-65 0 -140.5 16.5t-131.5 49.5l10 84q65 -8 121 -8q118 0 167.5 38.5t49.5 98.5q0 61 -62 86.5t-233 36.5l58 452l108 23q87 -35 178 -35q100 0 193 37l22 -84q-78 -143 -235 -143q-97 0 -188 43l-29 -168q62 4 108 4z
" />
    <glyph glyph-name="uni2156" unicode="&#x2156;" horiz-adv-x="1835" 
d="M1513 1366l19 -43q-333 -461 -481 -672q-77 -111 -233 -360.5t-216 -339.5l-123 41l-18 47q278 380 483 674q78 111 232 358.5t215 337.5zM586 799l112 -2q11 -57 11 -99q0 -57 -12.5 -108.5t-30.5 -77.5h-86q-190 0 -390 63l-86 -61q-36 11 -75 45v37q94 74 145.5 115.5
t115 100t94.5 100t53 91.5t22 99q0 117 -103 117q-48 0 -77 -27.5t-29 -77.5q0 -31 14 -78l-106 -28q-64 71 -64 145q0 102 86 169t234 67q138 0 222.5 -63t84.5 -173q0 -108 -92 -212.5t-291 -231.5h225zM1423 504q168 0 255 -53.5t87 -176.5q0 -127 -88 -214t-250 -87
q-65 0 -140.5 16.5t-131.5 49.5l10 84q65 -8 121 -8q118 0 167.5 38.5t49.5 98.5q0 61 -62 86.5t-233 36.5l58 452l108 23q87 -35 178 -35q100 0 193 37l22 -84q-78 -143 -235 -143q-98 0 -189 43l-28 -168q62 4 108 4z" />
    <glyph glyph-name="uni2157" unicode="&#x2157;" horiz-adv-x="1775" 
d="M1454 1366l19 -43q-361 -498 -482 -672q-77 -111 -232 -360t-216 -340l-123 41l-19 47q300 410 484 674q78 111 231.5 358t214.5 338zM506 973v-23q99 -18 142.5 -57.5t43.5 -120.5q0 -116 -88.5 -188t-261.5 -72q-157 0 -283 66l11 84q73 -9 131 -9q129 0 179 32t50 97
q0 36 -15.5 59.5t-54.5 39.5q-65 -25 -114 -33l-29 22q-8 21 -8 60q0 27 6 51q41 14 90 14q17 0 45 -4q109 66 109 154q0 84 -99 84q-114 0 -114 -117q0 -4 1 -11t1 -9l-111 -2q-33 58 -33 100q0 80 81 139.5t225 59.5q138 0 221.5 -57t83.5 -158q0 -47 -18 -83t-52.5 -58.5
t-65 -35.5t-73.5 -24zM1364 504q168 0 255 -53.5t87 -176.5q0 -127 -88 -214t-250 -87q-65 0 -140.5 16.5t-131.5 49.5l10 84q65 -8 121 -8q118 0 167.5 38.5t49.5 98.5q0 61 -62 86.5t-233 36.5l57 452l109 23q87 -35 178 -35q100 0 193 37l22 -84q-78 -143 -235 -143
q-98 0 -189 43l-29 -168q62 4 109 4z" />
    <glyph glyph-name="uni2158" unicode="&#x2158;" horiz-adv-x="1847" 
d="M1526 1366l18 -43q-333 -461 -481 -672q-77 -111 -233 -360.5t-216 -339.5l-122 41l-19 47q278 380 483 674q78 111 232 358.5t215 337.5zM754 817v-55l-9 -82h-100l-12 -145h-232q1 30 11 145h-328l-35 94q112 226 189 424l-33 156l180 53q39 -24 62.5 -67t23.5 -87
q0 -62 -57 -157t-197 -277l8 -16q93 14 148 14h53q5 40 16 118t13 89q84 49 176 66l61 -27q-21 -143 -33 -246h95zM1436 504q168 0 255 -53.5t87 -176.5q0 -127 -88 -214t-250 -87q-66 0 -141.5 16.5t-131.5 49.5l11 84q65 -8 120 -8q118 0 168 38.5t50 98.5q0 61 -62 86.5
t-233 36.5l57 452l108 23q88 -35 179 -35q99 0 192 37l23 -84q-78 -143 -236 -143q-97 0 -188 43l-29 -168q62 4 109 4z" />
    <glyph glyph-name="uni2159" unicode="&#x2159;" horiz-adv-x="1734" 
d="M1343 1366l19 -43q-333 -461 -481 -672q-77 -111 -233 -360.5t-216 -339.5l-123 41l-18 47q278 380 483 674q78 111 232 358.5t215 337.5zM545 614v-36l-6 -43h-490v77q61 30 139 37l58 510q-63 -8 -133 -8v45l8 70q64 3 143.5 36t122.5 87l117 -21l-82 -737zM1473 850
q82 0 161 -23l2 -86q-101 0 -176 -23t-122 -63t-75.5 -103t-39.5 -133.5t-11 -164.5q0 -90 16.5 -134t67.5 -44q32 0 60 14q26 29 41.5 83.5t15.5 111.5q0 58 -16.5 79t-50.5 21q-22 0 -58 -8l-12 86q69 86 188 86q101 0 154 -61t53 -160q0 -47 -12 -93.5t-41 -94.5
t-73 -84.5t-114.5 -59.5t-158.5 -23q-170 0 -244 88t-74 256q0 81 15.5 154.5t53.5 144t96 121.5t149 82t205 31z" />
    </font>
</defs>
</svg>
