<svg width="28" height="28" viewBox="0 0 28 28" fill="none" xmlns="http://www.w3.org/2000/svg">
<path fill-rule="evenodd" clip-rule="evenodd" d="M17.1076 8.7091C17.0577 8.5786 16.9098 8.51396 16.7797 8.56704L8.90032 11.781C8.77675 11.8314 8.71456 11.9699 8.75902 12.0958L9.45643 14.0691C9.5009 14.1949 9.63634 14.2637 9.76414 14.2252L12.5032 13.4015C12.5539 12.619 13.2047 12 14 12C14.4873 12 14.9202 12.2323 15.1942 12.5922L17.9133 11.7746C18.0479 11.7341 18.1222 11.5909 18.0791 11.458L17.1076 8.7091ZM15.3731 14.1048L18.3452 13.211C18.4572 13.1773 18.5632 13.1335 18.6626 13.0809C19.042 13.8809 19.9728 14.2804 20.826 13.9789L25.0689 12.4795C25.9801 12.1574 26.4578 11.1576 26.1357 10.2463L24.1365 4.58923C23.8144 3.67797 22.8146 3.20031 21.9034 3.52236L17.6605 5.02182C16.8073 5.32336 16.3342 6.21909 16.5418 7.07998C16.4314 7.10147 16.3214 7.13399 16.2132 7.17814L8.33379 10.3921C7.84711 10.5906 7.49643 10.9845 7.33824 11.448C7.12651 11.441 6.90993 11.4727 6.69814 11.5475L5.76501 11.8773C4.85375 12.1993 4.37609 13.1991 4.69814 14.1104L5.03135 15.0532C5.3534 15.9645 6.3532 16.4422 7.26447 16.1201L8.1976 15.7903C8.40934 15.7155 8.59767 15.6041 8.75799 15.4657C9.1723 15.7269 9.69269 15.8131 10.1961 15.6617L12.5016 14.9684L7.36598 23.0997C7.14479 23.4499 7.24939 23.9131 7.5996 24.1343C7.94982 24.3555 8.41303 24.2509 8.63421 23.9007L13.2501 16.5922V24.2125C13.2501 24.6267 13.5859 24.9625 14.0001 24.9625C14.4143 24.9625 14.7501 24.6267 14.7501 24.2125V16.5922L19.366 23.9007C19.5872 24.2509 20.0504 24.3555 20.4006 24.1343C20.7508 23.9131 20.8554 23.4499 20.6342 23.0997L15.1667 14.4428C15.2496 14.3404 15.3192 14.2269 15.3731 14.1048ZM19.4969 10.9683L20.0072 12.4122C20.0532 12.5424 20.196 12.6106 20.3262 12.5646L24.569 11.0652C24.6992 11.0192 24.7675 10.8763 24.7215 10.7462L22.7222 5.08905C22.6762 4.95887 22.5334 4.89063 22.4032 4.93664L18.1603 6.43609C18.0302 6.4821 17.9619 6.62493 18.0079 6.75511L18.5183 8.19915L18.5241 8.2154L19.4912 10.952L19.4969 10.9683ZM6.26483 13.2916C6.13465 13.3376 6.06641 13.4804 6.11242 13.6106L6.44563 14.5534C6.49164 14.6836 6.63447 14.7518 6.76465 14.7058L7.69778 14.3761C7.82796 14.3301 7.8962 14.1872 7.85019 14.057L7.51698 13.1142C7.47097 12.984 7.32814 12.9158 7.19796 12.9618L6.26483 13.2916Z" fill="white"/>
</svg>
